%TF.GenerationSoftware,KiCad,Pcbnew,9.0.2+dfsg-1*%
%TF.CreationDate,2026-06-10T17:28:50-04:00*%
%TF.ProjectId,Kaylee,4b61796c-6565-42e6-9b69-6361645f7063,A*%
%TF.SameCoordinates,Original*%
%TF.FileFunction,Copper,L2,Inr*%
%TF.FilePolarity,Positive*%
%FSLAX46Y46*%
G04 Gerber Fmt 4.6, Leading zero omitted, Abs format (unit mm)*
G04 Created by KiCad (PCBNEW 9.0.2+dfsg-1) date 2026-06-10 17:28:50*
%MOMM*%
%LPD*%
G01*
G04 APERTURE LIST*
G04 Aperture macros list*
%AMRoundRect*
0 Rectangle with rounded corners*
0 $1 Rounding radius*
0 $2 $3 $4 $5 $6 $7 $8 $9 X,Y pos of 4 corners*
0 Add a 4 corners polygon primitive as box body*
4,1,4,$2,$3,$4,$5,$6,$7,$8,$9,$2,$3,0*
0 Add four circle primitives for the rounded corners*
1,1,$1+$1,$2,$3*
1,1,$1+$1,$4,$5*
1,1,$1+$1,$6,$7*
1,1,$1+$1,$8,$9*
0 Add four rect primitives between the rounded corners*
20,1,$1+$1,$2,$3,$4,$5,0*
20,1,$1+$1,$4,$5,$6,$7,0*
20,1,$1+$1,$6,$7,$8,$9,0*
20,1,$1+$1,$8,$9,$2,$3,0*%
G04 Aperture macros list end*
%TA.AperFunction,ComponentPad*%
%ADD10RoundRect,1.000000X-1.000000X-1.000000X1.000000X-1.000000X1.000000X1.000000X-1.000000X1.000000X0*%
%TD*%
%TA.AperFunction,ComponentPad*%
%ADD11C,4.000000*%
%TD*%
%TA.AperFunction,ComponentPad*%
%ADD12RoundRect,0.475000X-0.475000X-0.475000X0.475000X-0.475000X0.475000X0.475000X-0.475000X0.475000X0*%
%TD*%
%TA.AperFunction,ComponentPad*%
%ADD13C,1.900000*%
%TD*%
%TA.AperFunction,ComponentPad*%
%ADD14RoundRect,0.750000X-0.750000X-0.750000X0.750000X-0.750000X0.750000X0.750000X-0.750000X0.750000X0*%
%TD*%
%TA.AperFunction,ComponentPad*%
%ADD15C,3.000000*%
%TD*%
%TA.AperFunction,ComponentPad*%
%ADD16RoundRect,0.500000X-0.500000X-0.500000X0.500000X-0.500000X0.500000X0.500000X-0.500000X0.500000X0*%
%TD*%
%TA.AperFunction,ComponentPad*%
%ADD17C,2.000000*%
%TD*%
%TA.AperFunction,ComponentPad*%
%ADD18RoundRect,0.450000X-0.450000X-0.450000X0.450000X-0.450000X0.450000X0.450000X-0.450000X0.450000X0*%
%TD*%
%TA.AperFunction,ComponentPad*%
%ADD19C,1.800000*%
%TD*%
%TA.AperFunction,ComponentPad*%
%ADD20C,6.000000*%
%TD*%
%TA.AperFunction,ComponentPad*%
%ADD21RoundRect,0.695000X-0.695000X-0.695000X0.695000X-0.695000X0.695000X0.695000X-0.695000X0.695000X0*%
%TD*%
%TA.AperFunction,ComponentPad*%
%ADD22C,2.780000*%
%TD*%
%TA.AperFunction,ComponentPad*%
%ADD23RoundRect,0.875000X-0.875000X-0.875000X0.875000X-0.875000X0.875000X0.875000X-0.875000X0.875000X0*%
%TD*%
%TA.AperFunction,ComponentPad*%
%ADD24C,3.500000*%
%TD*%
%TA.AperFunction,ComponentPad*%
%ADD25RoundRect,0.425000X-0.675000X-0.425000X0.675000X-0.425000X0.675000X0.425000X-0.675000X0.425000X0*%
%TD*%
%TA.AperFunction,ComponentPad*%
%ADD26O,2.200000X1.700000*%
%TD*%
G04 APERTURE END LIST*
D10*
%TO.N,VDIS*%
%TO.C,J_BATT*%
X13000000Y-19000000D03*
D11*
%TO.N,PGND*%
X20200000Y-19000000D03*
%TD*%
D12*
%TO.N,VDIS*%
%TO.C,CM1*%
X33540000Y-9460000D03*
D13*
X33540000Y-14540000D03*
%TO.N,PGND*%
X28460000Y-9460000D03*
X28460000Y-14540000D03*
%TD*%
D12*
%TO.N,VDIS*%
%TO.C,CM2*%
X46540000Y-9460000D03*
D13*
X46540000Y-14540000D03*
%TO.N,PGND*%
X41460000Y-9460000D03*
X41460000Y-14540000D03*
%TD*%
D14*
%TO.N,VDIS*%
%TO.C,F1*%
X56000000Y-9000000D03*
D15*
X65900000Y-9000000D03*
%TD*%
D16*
%TO.N,VDIS*%
%TO.C,C1*%
X68000000Y-12000000D03*
D17*
%TO.N,PGND*%
X73000000Y-12000000D03*
%TD*%
D16*
%TO.N,VDIS*%
%TO.C,C2*%
X79000000Y-16000000D03*
D17*
%TO.N,PGND*%
X84000000Y-16000000D03*
%TD*%
D18*
%TO.N,VDIS*%
%TO.C,C_Y1*%
X22000000Y-24000000D03*
D19*
%TO.N,CHASSIS*%
X27000000Y-24000000D03*
%TD*%
D18*
%TO.N,PGND*%
%TO.C,C_Y2*%
X29000000Y-24000000D03*
D19*
%TO.N,CHASSIS*%
X34000000Y-24000000D03*
%TD*%
D20*
%TO.N,CHASSIS*%
%TO.C,J_PGND_BATT*%
X5000000Y-20000000D03*
%TD*%
%TO.N,CHASSIS*%
%TO.C,J_CHASSIS*%
X5000000Y-32000000D03*
%TD*%
D21*
%TO.N,VBAT*%
%TO.C,F_ESC1*%
X3000000Y-40500000D03*
D22*
X3000000Y-43900000D03*
%TO.N,ESC1_FUSED*%
X12920000Y-40500000D03*
X12920000Y-43900000D03*
%TD*%
D23*
%TO.N,ESC1_RS_OUT*%
%TO.C,J_ESC1*%
X8000000Y-61000000D03*
D24*
%TO.N,PGND*%
X13000000Y-61000000D03*
%TD*%
D21*
%TO.N,VBAT*%
%TO.C,F_ESC2*%
X17000000Y-40500000D03*
D22*
X17000000Y-43900000D03*
%TO.N,ESC2_FUSED*%
X26920000Y-40500000D03*
X26920000Y-43900000D03*
%TD*%
D23*
%TO.N,ESC2_RS_OUT*%
%TO.C,J_ESC2*%
X22000000Y-61000000D03*
D24*
%TO.N,PGND*%
X27000000Y-61000000D03*
%TD*%
D21*
%TO.N,VBAT*%
%TO.C,F_ESC3*%
X31000000Y-40500000D03*
D22*
X31000000Y-43900000D03*
%TO.N,ESC3_FUSED*%
X40920000Y-40500000D03*
X40920000Y-43900000D03*
%TD*%
D23*
%TO.N,ESC3_RS_OUT*%
%TO.C,J_ESC3*%
X36000000Y-61000000D03*
D24*
%TO.N,PGND*%
X41000000Y-61000000D03*
%TD*%
D21*
%TO.N,VBAT*%
%TO.C,F_ESC4*%
X45000000Y-40500000D03*
D22*
X45000000Y-43900000D03*
%TO.N,ESC4_FUSED*%
X54920000Y-40500000D03*
X54920000Y-43900000D03*
%TD*%
D23*
%TO.N,ESC4_RS_OUT*%
%TO.C,J_ESC4*%
X50000000Y-61000000D03*
D24*
%TO.N,PGND*%
X55000000Y-61000000D03*
%TD*%
D16*
%TO.N,BEC1_VIN_F*%
%TO.C,C_BEC1_IN*%
X69000000Y-8000000D03*
D17*
%TO.N,PGND*%
X74000000Y-8000000D03*
%TD*%
D16*
%TO.N,BEC1_PRE_OR*%
%TO.C,C_BEC1_OUT*%
X60000000Y-19000000D03*
D17*
%TO.N,PGND*%
X65000000Y-19000000D03*
%TD*%
D16*
%TO.N,BEC2_VIN_F*%
%TO.C,C_BEC2_IN*%
X69000000Y-28000000D03*
D17*
%TO.N,PGND*%
X74000000Y-28000000D03*
%TD*%
D16*
%TO.N,BEC2_PRE_OR*%
%TO.C,C_BEC2_OUT*%
X60000000Y-39000000D03*
D17*
%TO.N,PGND*%
X65000000Y-39000000D03*
%TD*%
D25*
%TO.N,PGND*%
%TO.C,J_5V*%
X83500000Y-35000000D03*
D26*
X83500000Y-37500000D03*
%TO.N,+5V*%
X83500000Y-40000000D03*
X83500000Y-42500000D03*
%TD*%
D16*
%TO.N,BEC6V_VIN_F*%
%TO.C,C_BEC_SV_IN*%
X69000000Y-48000000D03*
D17*
%TO.N,PGND*%
X74000000Y-48000000D03*
%TD*%
D16*
%TO.N,+6V*%
%TO.C,C_BEC_SV_OUT*%
X70000000Y-56000000D03*
D17*
%TO.N,PGND*%
X75000000Y-56000000D03*
%TD*%
D25*
%TO.N,PGND*%
%TO.C,J_6V*%
X81000000Y-54000000D03*
D26*
X81000000Y-56500000D03*
%TO.N,+6V*%
X81000000Y-59000000D03*
X81000000Y-61500000D03*
%TD*%
M02*
