%TF.GenerationSoftware,KiCad,Pcbnew,9.0.2+dfsg-1*%
%TF.CreationDate,2026-06-04T19:35:07-04:00*%
%TF.ProjectId,CAPE-A-1,43415045-2d41-42d3-912e-6b696361645f,M*%
%TF.SameCoordinates,Original*%
%TF.FileFunction,Soldermask,Top*%
%TF.FilePolarity,Negative*%
%FSLAX46Y46*%
G04 Gerber Fmt 4.6, Leading zero omitted, Abs format (unit mm)*
G04 Created by KiCad (PCBNEW 9.0.2+dfsg-1) date 2026-06-04 19:35:07*
%MOMM*%
%LPD*%
G01*
G04 APERTURE LIST*
G04 Aperture macros list*
%AMRoundRect*
0 Rectangle with rounded corners*
0 $1 Rounding radius*
0 $2 $3 $4 $5 $6 $7 $8 $9 X,Y pos of 4 corners*
0 Add a 4 corners polygon primitive as box body*
4,1,4,$2,$3,$4,$5,$6,$7,$8,$9,$2,$3,0*
0 Add four circle primitives for the rounded corners*
1,1,$1+$1,$2,$3*
1,1,$1+$1,$4,$5*
1,1,$1+$1,$6,$7*
1,1,$1+$1,$8,$9*
0 Add four rect primitives between the rounded corners*
20,1,$1+$1,$2,$3,$4,$5,0*
20,1,$1+$1,$4,$5,$6,$7,0*
20,1,$1+$1,$6,$7,$8,$9,0*
20,1,$1+$1,$8,$9,$2,$3,0*%
%AMFreePoly0*
4,1,14,0.314644,0.085355,0.385355,0.014644,0.400000,-0.020711,0.400000,-0.050000,0.385355,-0.085355,0.350000,-0.100000,-0.350000,-0.100000,-0.385355,-0.085355,-0.400000,-0.050000,-0.400000,0.050000,-0.385355,0.085355,-0.350000,0.100000,0.279289,0.100000,0.314644,0.085355,0.314644,0.085355,$1*%
%AMFreePoly1*
4,1,14,0.385355,0.085355,0.400000,0.050000,0.400000,0.020711,0.385355,-0.014644,0.314644,-0.085355,0.279289,-0.100000,-0.350000,-0.100000,-0.385355,-0.085355,-0.400000,-0.050000,-0.400000,0.050000,-0.385355,0.085355,-0.350000,0.100000,0.350000,0.100000,0.385355,0.085355,0.385355,0.085355,$1*%
%AMFreePoly2*
4,1,14,0.085355,0.385355,0.100000,0.350000,0.100000,-0.350000,0.085355,-0.385355,0.050000,-0.400000,-0.050000,-0.400000,-0.085355,-0.385355,-0.100000,-0.350000,-0.100000,0.279289,-0.085355,0.314644,-0.014644,0.385355,0.020711,0.400000,0.050000,0.400000,0.085355,0.385355,0.085355,0.385355,$1*%
%AMFreePoly3*
4,1,14,0.014644,0.385355,0.085355,0.314644,0.100000,0.279289,0.100000,-0.350000,0.085355,-0.385355,0.050000,-0.400000,-0.050000,-0.400000,-0.085355,-0.385355,-0.100000,-0.350000,-0.100000,0.350000,-0.085355,0.385355,-0.050000,0.400000,-0.020711,0.400000,0.014644,0.385355,0.014644,0.385355,$1*%
%AMFreePoly4*
4,1,14,0.385355,0.085355,0.400000,0.050000,0.400000,-0.050000,0.385355,-0.085355,0.350000,-0.100000,-0.279289,-0.100000,-0.314644,-0.085355,-0.385355,-0.014644,-0.400000,0.020711,-0.400000,0.050000,-0.385355,0.085355,-0.350000,0.100000,0.350000,0.100000,0.385355,0.085355,0.385355,0.085355,$1*%
%AMFreePoly5*
4,1,14,0.385355,0.085355,0.400000,0.050000,0.400000,-0.050000,0.385355,-0.085355,0.350000,-0.100000,-0.350000,-0.100000,-0.385355,-0.085355,-0.400000,-0.050000,-0.400000,-0.020711,-0.385355,0.014644,-0.314644,0.085355,-0.279289,0.100000,0.350000,0.100000,0.385355,0.085355,0.385355,0.085355,$1*%
%AMFreePoly6*
4,1,14,0.085355,0.385355,0.100000,0.350000,0.100000,-0.279289,0.085355,-0.314644,0.014644,-0.385355,-0.020711,-0.400000,-0.050000,-0.400000,-0.085355,-0.385355,-0.100000,-0.350000,-0.100000,0.350000,-0.085355,0.385355,-0.050000,0.400000,0.050000,0.400000,0.085355,0.385355,0.085355,0.385355,$1*%
%AMFreePoly7*
4,1,14,0.085355,0.385355,0.100000,0.350000,0.100000,-0.350000,0.085355,-0.385355,0.050000,-0.400000,0.020711,-0.400000,-0.014644,-0.385355,-0.085355,-0.314644,-0.100000,-0.279289,-0.100000,0.350000,-0.085355,0.385355,-0.050000,0.400000,0.050000,0.400000,0.085355,0.385355,0.085355,0.385355,$1*%
G04 Aperture macros list end*
%ADD10R,0.800000X1.600000*%
%ADD11C,2.700000*%
%ADD12RoundRect,0.087500X-0.225000X-0.087500X0.225000X-0.087500X0.225000X0.087500X-0.225000X0.087500X0*%
%ADD13RoundRect,0.087500X-0.087500X-0.225000X0.087500X-0.225000X0.087500X0.225000X-0.087500X0.225000X0*%
%ADD14R,0.350000X0.500000*%
%ADD15R,0.500000X0.500000*%
%ADD16R,8.000000X8.000000*%
%ADD17R,1.600000X0.800000*%
%ADD18RoundRect,0.150000X0.825000X0.150000X-0.825000X0.150000X-0.825000X-0.150000X0.825000X-0.150000X0*%
%ADD19R,1.700000X1.700000*%
%ADD20C,1.700000*%
%ADD21RoundRect,0.075000X-0.662500X-0.075000X0.662500X-0.075000X0.662500X0.075000X-0.662500X0.075000X0*%
%ADD22RoundRect,0.075000X-0.075000X-0.662500X0.075000X-0.662500X0.075000X0.662500X-0.075000X0.662500X0*%
%ADD23R,3.360000X4.800000*%
%ADD24RoundRect,0.150000X-0.825000X-0.150000X0.825000X-0.150000X0.825000X0.150000X-0.825000X0.150000X0*%
%ADD25FreePoly0,180.000000*%
%ADD26RoundRect,0.050000X0.350000X0.050000X-0.350000X0.050000X-0.350000X-0.050000X0.350000X-0.050000X0*%
%ADD27FreePoly1,180.000000*%
%ADD28FreePoly2,180.000000*%
%ADD29RoundRect,0.050000X0.050000X0.350000X-0.050000X0.350000X-0.050000X-0.350000X0.050000X-0.350000X0*%
%ADD30FreePoly3,180.000000*%
%ADD31FreePoly4,180.000000*%
%ADD32FreePoly5,180.000000*%
%ADD33FreePoly6,180.000000*%
%ADD34FreePoly7,180.000000*%
%ADD35R,2.650000X2.650000*%
%ADD36R,1.500000X1.500000*%
%ADD37C,1.500000*%
G04 APERTURE END LIST*
D10*
%TO.C,CAN-FD*%
X125125000Y-94000000D03*
X126375000Y-94000000D03*
X127625000Y-94000000D03*
X128875000Y-94000000D03*
%TD*%
D11*
%TO.C,*%
X173000000Y-119500000D03*
%TD*%
D12*
%TO.C,IMU*%
X132837500Y-94750000D03*
X132837500Y-95250000D03*
X132837500Y-95750000D03*
X132837500Y-96250000D03*
D13*
X133500000Y-96412500D03*
X134000000Y-96412500D03*
X134500000Y-96412500D03*
D12*
X135162500Y-96250000D03*
X135162500Y-95750000D03*
X135162500Y-95250000D03*
X135162500Y-94750000D03*
D13*
X134500000Y-94587500D03*
X134000000Y-94587500D03*
X133500000Y-94587500D03*
%TD*%
D14*
%TO.C,BARO*%
X137525000Y-94700000D03*
X138175000Y-94700000D03*
X138825000Y-94700000D03*
X139475000Y-94700000D03*
X139475000Y-96300000D03*
X138825000Y-96300000D03*
X138175000Y-96300000D03*
X137525000Y-96300000D03*
%TD*%
D11*
%TO.C,*%
X124000000Y-119500000D03*
%TD*%
D10*
%TO.C,ETH1*%
X123750000Y-108000000D03*
X125000000Y-108000000D03*
X126250000Y-108000000D03*
X127500000Y-108000000D03*
X128750000Y-108000000D03*
X130000000Y-108000000D03*
%TD*%
D15*
%TO.C,GPS*%
X153600000Y-103000000D03*
D16*
X159000000Y-103000000D03*
%TD*%
D10*
%TO.C,ETH2*%
X123750000Y-112500000D03*
X125000000Y-112500000D03*
X126250000Y-112500000D03*
X127500000Y-112500000D03*
X128750000Y-112500000D03*
X130000000Y-112500000D03*
%TD*%
D17*
%TO.C,GPIO-F*%
X170500000Y-94500000D03*
X170500000Y-95750000D03*
X170500000Y-97000000D03*
%TD*%
D18*
%TO.C,1553-DRV*%
X151975000Y-117445000D03*
X151975000Y-116175000D03*
X151975000Y-114905000D03*
X151975000Y-113635000D03*
X151975000Y-112365000D03*
X151975000Y-111095000D03*
X151975000Y-109825000D03*
X151975000Y-108555000D03*
X147025000Y-108555000D03*
X147025000Y-109825000D03*
X147025000Y-111095000D03*
X147025000Y-112365000D03*
X147025000Y-113635000D03*
X147025000Y-114905000D03*
X147025000Y-116175000D03*
X147025000Y-117445000D03*
%TD*%
D10*
%TO.C,MIL-1553*%
X125125000Y-103000000D03*
X126375000Y-103000000D03*
X127625000Y-103000000D03*
X128875000Y-103000000D03*
%TD*%
%TO.C,RS-485*%
X125125000Y-98500000D03*
X126375000Y-98500000D03*
X127625000Y-98500000D03*
X128875000Y-98500000D03*
%TD*%
D19*
%TO.C,SERVO-PWM*%
X174000000Y-95460000D03*
D20*
X174000000Y-98000000D03*
X174000000Y-100540000D03*
X174000000Y-103080000D03*
X174000000Y-105620000D03*
X174000000Y-108160000D03*
X174000000Y-110700000D03*
X174000000Y-113240000D03*
%TD*%
D21*
%TO.C,ETH2-PHY*%
X142837500Y-99750000D03*
X142837500Y-100250000D03*
X142837500Y-100750000D03*
X142837500Y-101250000D03*
X142837500Y-101750000D03*
X142837500Y-102250000D03*
X142837500Y-102750000D03*
X142837500Y-103250000D03*
X142837500Y-103750000D03*
X142837500Y-104250000D03*
X142837500Y-104750000D03*
X142837500Y-105250000D03*
D22*
X144250000Y-106662500D03*
X144750000Y-106662500D03*
X145250000Y-106662500D03*
X145750000Y-106662500D03*
X146250000Y-106662500D03*
X146750000Y-106662500D03*
X147250000Y-106662500D03*
X147750000Y-106662500D03*
X148250000Y-106662500D03*
X148750000Y-106662500D03*
X149250000Y-106662500D03*
X149750000Y-106662500D03*
D21*
X151162500Y-105250000D03*
X151162500Y-104750000D03*
X151162500Y-104250000D03*
X151162500Y-103750000D03*
X151162500Y-103250000D03*
X151162500Y-102750000D03*
X151162500Y-102250000D03*
X151162500Y-101750000D03*
X151162500Y-101250000D03*
X151162500Y-100750000D03*
X151162500Y-100250000D03*
X151162500Y-99750000D03*
D22*
X149750000Y-98337500D03*
X149250000Y-98337500D03*
X148750000Y-98337500D03*
X148250000Y-98337500D03*
X147750000Y-98337500D03*
X147250000Y-98337500D03*
X146750000Y-98337500D03*
X146250000Y-98337500D03*
X145750000Y-98337500D03*
X145250000Y-98337500D03*
X144750000Y-98337500D03*
X144250000Y-98337500D03*
%TD*%
D10*
%TO.C,GPIO-D*%
X159750000Y-95000000D03*
X161000000Y-95000000D03*
X162250000Y-95000000D03*
%TD*%
D21*
%TO.C,ETH1-PHY*%
X132837500Y-100250000D03*
X132837500Y-100750000D03*
X132837500Y-101250000D03*
X132837500Y-101750000D03*
X132837500Y-102250000D03*
X132837500Y-102750000D03*
X132837500Y-103250000D03*
X132837500Y-103750000D03*
X132837500Y-104250000D03*
X132837500Y-104750000D03*
X132837500Y-105250000D03*
X132837500Y-105750000D03*
D22*
X134250000Y-107162500D03*
X134750000Y-107162500D03*
X135250000Y-107162500D03*
X135750000Y-107162500D03*
X136250000Y-107162500D03*
X136750000Y-107162500D03*
X137250000Y-107162500D03*
X137750000Y-107162500D03*
X138250000Y-107162500D03*
X138750000Y-107162500D03*
X139250000Y-107162500D03*
X139750000Y-107162500D03*
D21*
X141162500Y-105750000D03*
X141162500Y-105250000D03*
X141162500Y-104750000D03*
X141162500Y-104250000D03*
X141162500Y-103750000D03*
X141162500Y-103250000D03*
X141162500Y-102750000D03*
X141162500Y-102250000D03*
X141162500Y-101750000D03*
X141162500Y-101250000D03*
X141162500Y-100750000D03*
X141162500Y-100250000D03*
D22*
X139750000Y-98837500D03*
X139250000Y-98837500D03*
X138750000Y-98837500D03*
X138250000Y-98837500D03*
X137750000Y-98837500D03*
X137250000Y-98837500D03*
X136750000Y-98837500D03*
X136250000Y-98837500D03*
X135750000Y-98837500D03*
X135250000Y-98837500D03*
X134750000Y-98837500D03*
X134250000Y-98837500D03*
%TD*%
D10*
%TO.C,GPIO-A*%
X143000000Y-95000000D03*
X144250000Y-95000000D03*
X145500000Y-95000000D03*
%TD*%
D15*
%TO.C,1553-XFM*%
X141500000Y-116500000D03*
D23*
X141500000Y-112500000D03*
%TD*%
D11*
%TO.C,*%
X124000000Y-90500000D03*
%TD*%
D10*
%TO.C,GPIO-C*%
X154500000Y-95000000D03*
X155750000Y-95000000D03*
X157000000Y-95000000D03*
%TD*%
D24*
%TO.C,RS485*%
X132525000Y-108595000D03*
X132525000Y-109865000D03*
X132525000Y-111135000D03*
X132525000Y-112405000D03*
X137475000Y-112405000D03*
X137475000Y-111135000D03*
X137475000Y-109865000D03*
X137475000Y-108595000D03*
%TD*%
D11*
%TO.C,*%
X173000000Y-90500000D03*
%TD*%
D25*
%TO.C,TPM*%
X170450000Y-111900000D03*
D26*
X170450000Y-111500000D03*
X170450000Y-111100000D03*
X170450000Y-110700000D03*
X170450000Y-110300000D03*
X170450000Y-109900000D03*
X170450000Y-109500000D03*
D27*
X170450000Y-109100000D03*
D28*
X169900000Y-108550000D03*
D29*
X169500000Y-108550000D03*
X169100000Y-108550000D03*
X168700000Y-108550000D03*
X168300000Y-108550000D03*
X167900000Y-108550000D03*
X167500000Y-108550000D03*
D30*
X167100000Y-108550000D03*
D31*
X166550000Y-109100000D03*
D26*
X166550000Y-109500000D03*
X166550000Y-109900000D03*
X166550000Y-110300000D03*
X166550000Y-110700000D03*
X166550000Y-111100000D03*
X166550000Y-111500000D03*
D32*
X166550000Y-111900000D03*
D33*
X167100000Y-112450000D03*
D29*
X167500000Y-112450000D03*
X167900000Y-112450000D03*
X168300000Y-112450000D03*
X168700000Y-112450000D03*
X169100000Y-112450000D03*
X169500000Y-112450000D03*
D34*
X169900000Y-112450000D03*
D35*
X168500000Y-110500000D03*
%TD*%
D10*
%TO.C,ESC-TLM*%
X167250000Y-100000000D03*
X168500000Y-100000000D03*
X169750000Y-100000000D03*
%TD*%
D17*
%TO.C,GPIO-E*%
X167000000Y-94500000D03*
X167000000Y-95750000D03*
X167000000Y-97000000D03*
%TD*%
D36*
%TO.C,PWR-IN*%
X123000000Y-116000000D03*
D37*
X125500000Y-116000000D03*
X128000000Y-116000000D03*
X130500000Y-116000000D03*
%TD*%
D10*
%TO.C,GPIO-B*%
X149000000Y-95000000D03*
X150250000Y-95000000D03*
X151500000Y-95000000D03*
%TD*%
D24*
%TO.C,CAN-TR*%
X132525000Y-113095000D03*
X132525000Y-114365000D03*
X132525000Y-115635000D03*
X132525000Y-116905000D03*
X137475000Y-116905000D03*
X137475000Y-115635000D03*
X137475000Y-114365000D03*
X137475000Y-113095000D03*
%TD*%
%TO.C,1553-RCV*%
X157525000Y-108555000D03*
X157525000Y-109825000D03*
X157525000Y-111095000D03*
X157525000Y-112365000D03*
X157525000Y-113635000D03*
X157525000Y-114905000D03*
X157525000Y-116175000D03*
X157525000Y-117445000D03*
X162475000Y-117445000D03*
X162475000Y-116175000D03*
X162475000Y-114905000D03*
X162475000Y-113635000D03*
X162475000Y-112365000D03*
X162475000Y-111095000D03*
X162475000Y-109825000D03*
X162475000Y-108555000D03*
%TD*%
D20*
%TO.C,PB2-P2*%
X126910000Y-118690000D03*
X126910000Y-121230000D03*
X129450000Y-118690000D03*
X129450000Y-121230000D03*
X131990000Y-118690000D03*
X131990000Y-121230000D03*
X134530000Y-118690000D03*
X134530000Y-121230000D03*
X137070000Y-118690000D03*
X137070000Y-121230000D03*
X139610000Y-118690000D03*
X139610000Y-121230000D03*
X142150000Y-118690000D03*
X142150000Y-121230000D03*
X144690000Y-118690000D03*
X144690000Y-121230000D03*
X147230000Y-118690000D03*
X147230000Y-121230000D03*
X149770000Y-118690000D03*
X149770000Y-121230000D03*
X152310000Y-118690000D03*
X152310000Y-121230000D03*
X154850000Y-118690000D03*
X154850000Y-121230000D03*
X157390000Y-118690000D03*
X157390000Y-121230000D03*
X159930000Y-118690000D03*
X159930000Y-121230000D03*
X162470000Y-118690000D03*
X162470000Y-121230000D03*
X165010000Y-118690000D03*
X165010000Y-121230000D03*
X167550000Y-118690000D03*
X167550000Y-121230000D03*
X170090000Y-118690000D03*
X170090000Y-121230000D03*
%TD*%
%TO.C,PB2-P1*%
X126910000Y-88770000D03*
X126910000Y-91310000D03*
X129450000Y-88770000D03*
X129450000Y-91310000D03*
X131990000Y-88770000D03*
X131990000Y-91310000D03*
X134530000Y-88770000D03*
X134530000Y-91310000D03*
X137070000Y-88770000D03*
X137070000Y-91310000D03*
X139610000Y-88770000D03*
X139610000Y-91310000D03*
X142150000Y-88770000D03*
X142150000Y-91310000D03*
X144690000Y-88770000D03*
X144690000Y-91310000D03*
X147230000Y-88770000D03*
X147230000Y-91310000D03*
X149770000Y-88770000D03*
X149770000Y-91310000D03*
X152310000Y-88770000D03*
X152310000Y-91310000D03*
X154850000Y-88770000D03*
X154850000Y-91310000D03*
X157390000Y-88770000D03*
X157390000Y-91310000D03*
X159930000Y-88770000D03*
X159930000Y-91310000D03*
X162470000Y-88770000D03*
X162470000Y-91310000D03*
X165010000Y-88770000D03*
X165010000Y-91310000D03*
X167550000Y-88770000D03*
X167550000Y-91310000D03*
X170090000Y-88770000D03*
X170090000Y-91310000D03*
%TD*%
M02*
