%TF.GenerationSoftware,KiCad,Pcbnew,9.0.2+dfsg-1*%
%TF.CreationDate,2026-06-04T19:35:06-04:00*%
%TF.ProjectId,CAPE-B-2,43415045-2d42-42d3-922e-6b696361645f,A-STUB*%
%TF.SameCoordinates,Original*%
%TF.FileFunction,Copper,L1,Top*%
%TF.FilePolarity,Positive*%
%FSLAX46Y46*%
G04 Gerber Fmt 4.6, Leading zero omitted, Abs format (unit mm)*
G04 Created by KiCad (PCBNEW 9.0.2+dfsg-1) date 2026-06-04 19:35:06*
%MOMM*%
%LPD*%
G01*
G04 APERTURE LIST*
G04 Aperture macros list*
%AMRoundRect*
0 Rectangle with rounded corners*
0 $1 Rounding radius*
0 $2 $3 $4 $5 $6 $7 $8 $9 X,Y pos of 4 corners*
0 Add a 4 corners polygon primitive as box body*
4,1,4,$2,$3,$4,$5,$6,$7,$8,$9,$2,$3,0*
0 Add four circle primitives for the rounded corners*
1,1,$1+$1,$2,$3*
1,1,$1+$1,$4,$5*
1,1,$1+$1,$6,$7*
1,1,$1+$1,$8,$9*
0 Add four rect primitives between the rounded corners*
20,1,$1+$1,$2,$3,$4,$5,0*
20,1,$1+$1,$4,$5,$6,$7,0*
20,1,$1+$1,$6,$7,$8,$9,0*
20,1,$1+$1,$8,$9,$2,$3,0*%
G04 Aperture macros list end*
%TA.AperFunction,ComponentPad*%
%ADD10R,1.700000X1.700000*%
%TD*%
%TA.AperFunction,ComponentPad*%
%ADD11C,1.700000*%
%TD*%
%TA.AperFunction,SMDPad,CuDef*%
%ADD12R,1.925000X0.700000*%
%TD*%
%TA.AperFunction,SMDPad,CuDef*%
%ADD13R,0.700000X1.925000*%
%TD*%
%TA.AperFunction,SMDPad,CuDef*%
%ADD14RoundRect,0.150000X-0.150000X0.825000X-0.150000X-0.825000X0.150000X-0.825000X0.150000X0.825000X0*%
%TD*%
%TA.AperFunction,SMDPad,CuDef*%
%ADD15RoundRect,0.150000X-0.825000X-0.150000X0.825000X-0.150000X0.825000X0.150000X-0.825000X0.150000X0*%
%TD*%
%TA.AperFunction,SMDPad,CuDef*%
%ADD16R,0.500000X0.500000*%
%TD*%
%TA.AperFunction,SMDPad,CuDef*%
%ADD17R,4.800000X3.360000*%
%TD*%
%TA.AperFunction,SMDPad,CuDef*%
%ADD18R,0.800000X1.600000*%
%TD*%
%TA.AperFunction,SMDPad,CuDef*%
%ADD19RoundRect,0.100000X-0.100000X0.675000X-0.100000X-0.675000X0.100000X-0.675000X0.100000X0.675000X0*%
%TD*%
%TA.AperFunction,HeatsinkPad*%
%ADD20R,6.200000X2.750000*%
%TD*%
%TA.AperFunction,SMDPad,CuDef*%
%ADD21RoundRect,0.150000X0.150000X-0.825000X0.150000X0.825000X-0.150000X0.825000X-0.150000X-0.825000X0*%
%TD*%
%TA.AperFunction,SMDPad,CuDef*%
%ADD22R,1.050000X0.450000*%
%TD*%
%TA.AperFunction,SMDPad,CuDef*%
%ADD23R,3.400000X5.000000*%
%TD*%
%TA.AperFunction,ComponentPad*%
%ADD24R,1.500000X1.500000*%
%TD*%
%TA.AperFunction,ComponentPad*%
%ADD25C,1.500000*%
%TD*%
%TA.AperFunction,SMDPad,CuDef*%
%ADD26RoundRect,0.075000X-0.075000X-0.250000X0.075000X-0.250000X0.075000X0.250000X-0.075000X0.250000X0*%
%TD*%
%TA.AperFunction,SMDPad,CuDef*%
%ADD27RoundRect,0.075000X-0.250000X-0.075000X0.250000X-0.075000X0.250000X0.075000X-0.250000X0.075000X0*%
%TD*%
%TA.AperFunction,ComponentPad*%
%ADD28RoundRect,0.000000X-2.825000X-2.825000X2.825000X-2.825000X2.825000X2.825000X-2.825000X2.825000X0*%
%TD*%
%TA.AperFunction,SMDPad,CuDef*%
%ADD29RoundRect,0.150000X-0.450000X-0.150000X0.450000X-0.150000X0.450000X0.150000X-0.450000X0.150000X0*%
%TD*%
%TA.AperFunction,SMDPad,CuDef*%
%ADD30RoundRect,0.125000X-0.325000X-0.125000X0.325000X-0.125000X0.325000X0.125000X-0.325000X0.125000X0*%
%TD*%
%TA.AperFunction,SMDPad,CuDef*%
%ADD31RoundRect,0.137500X-0.312500X-0.137500X0.312500X-0.137500X0.312500X0.137500X-0.312500X0.137500X0*%
%TD*%
%TA.AperFunction,SMDPad,CuDef*%
%ADD32RoundRect,0.500000X-0.500000X-0.850000X0.500000X-0.850000X0.500000X0.850000X-0.500000X0.850000X0*%
%TD*%
%TA.AperFunction,SMDPad,CuDef*%
%ADD33RoundRect,0.350000X-0.425000X-0.350000X0.425000X-0.350000X0.425000X0.350000X-0.425000X0.350000X0*%
%TD*%
%TA.AperFunction,SMDPad,CuDef*%
%ADD34RoundRect,0.137500X-0.162500X-0.137500X0.162500X-0.137500X0.162500X0.137500X-0.162500X0.137500X0*%
%TD*%
%TA.AperFunction,SMDPad,CuDef*%
%ADD35RoundRect,0.100000X-0.175000X-0.100000X0.175000X-0.100000X0.175000X0.100000X-0.175000X0.100000X0*%
%TD*%
%TA.AperFunction,ViaPad*%
%ADD36C,0.800000*%
%TD*%
%TA.AperFunction,Conductor*%
%ADD37C,0.100000*%
%TD*%
%ADD38C,0.350000*%
%ADD39O,0.500000X0.500000*%
G04 APERTURE END LIST*
D10*
%TO.P,NAV-LIGHT PWM,1*%
%TO.N,N/C*%
X174000000Y-95460000D03*
D11*
%TO.P,NAV-LIGHT PWM,2*%
X174000000Y-98000000D03*
%TO.P,NAV-LIGHT PWM,3*%
X174000000Y-100540000D03*
%TO.P,NAV-LIGHT PWM,4*%
X174000000Y-103080000D03*
%TO.P,NAV-LIGHT PWM,5*%
X174000000Y-105620000D03*
%TO.P,NAV-LIGHT PWM,6*%
X174000000Y-108160000D03*
%TO.P,NAV-LIGHT PWM,7*%
X174000000Y-110700000D03*
%TO.P,NAV-LIGHT PWM,8*%
X174000000Y-113240000D03*
%TD*%
D12*
%TO.P,uSD-X-Blk,1*%
%TO.N,N/C*%
X129895000Y-103960000D03*
%TO.P,uSD-X-Blk,2*%
X129895000Y-105230000D03*
%TO.P,uSD-X-Blk,3*%
%TO.N,PWM_CH3*%
X129895000Y-106500000D03*
D13*
%TO.P,uSD-X-Blk,4*%
%TO.N,PWM_CH2*%
X131407500Y-108012500D03*
%TO.P,uSD-X-Blk,5*%
%TO.N,PWM_CH1*%
X132677500Y-108012500D03*
%TO.P,uSD-X-Blk,6*%
%TO.N,PWM_CH0*%
X133947500Y-108012500D03*
%TO.P,uSD-X-Blk,7*%
%TO.N,N/C*%
X135217500Y-108012500D03*
%TO.P,uSD-X-Blk,8*%
X136487500Y-108012500D03*
D12*
%TO.P,uSD-X-Blk,9*%
X138000000Y-106500000D03*
%TO.P,uSD-X-Blk,10*%
X138000000Y-105230000D03*
%TO.P,uSD-X-Blk,11*%
X138000000Y-103960000D03*
%TO.P,uSD-X-Blk,12*%
X138000000Y-102690000D03*
%TO.P,uSD-X-Blk,13*%
X138000000Y-101420000D03*
D13*
%TO.P,uSD-X-Blk,14*%
X136487500Y-99907500D03*
%TO.P,uSD-X-Blk,15*%
%TO.N,SERVO7*%
X135217500Y-99907500D03*
%TO.P,uSD-X-Blk,16*%
%TO.N,N/C*%
X133947500Y-99907500D03*
%TO.P,uSD-X-Blk,17*%
X132677500Y-99907500D03*
%TO.P,uSD-X-Blk,18*%
X131407500Y-99907500D03*
D12*
%TO.P,uSD-X-Blk,19*%
X129895000Y-101420000D03*
%TO.P,uSD-X-Blk,20*%
X129895000Y-102690000D03*
%TD*%
D14*
%TO.P,1553-RCV,1*%
%TO.N,N/C*%
X169945000Y-111025000D03*
%TO.P,1553-RCV,2*%
X168675000Y-111025000D03*
%TO.P,1553-RCV,3*%
X167405000Y-111025000D03*
%TO.P,1553-RCV,4*%
X166135000Y-111025000D03*
%TO.P,1553-RCV,5*%
X164865000Y-111025000D03*
%TO.P,1553-RCV,6*%
X163595000Y-111025000D03*
%TO.P,1553-RCV,7*%
X162325000Y-111025000D03*
%TO.P,1553-RCV,8*%
X161055000Y-111025000D03*
%TO.P,1553-RCV,9*%
%TO.N,M1553_RX_P*%
X161055000Y-115975000D03*
%TO.P,1553-RCV,10*%
%TO.N,N/C*%
X162325000Y-115975000D03*
%TO.P,1553-RCV,11*%
X163595000Y-115975000D03*
%TO.P,1553-RCV,12*%
%TO.N,M1553_RX_N*%
X164865000Y-115975000D03*
%TO.P,1553-RCV,13*%
%TO.N,PRU_1553_RX_N*%
X166135000Y-115975000D03*
%TO.P,1553-RCV,14*%
%TO.N,N/C*%
X167405000Y-115975000D03*
%TO.P,1553-RCV,15*%
X168675000Y-115975000D03*
%TO.P,1553-RCV,16*%
X169945000Y-115975000D03*
%TD*%
D15*
%TO.P,RS485,1*%
%TO.N,+3V3*%
X128285000Y-119100000D03*
%TO.P,RS485,2*%
%TO.N,GND*%
X129555000Y-119100000D03*
%TO.P,RS485,3*%
%TO.N,RS485_TX*%
X130825000Y-119100000D03*
%TO.P,RS485,4*%
%TO.N,RS485_DE*%
X132095000Y-119100000D03*
%TO.P,RS485,5*%
X133365000Y-119100000D03*
%TO.P,RS485,6*%
%TO.N,RS485_RX*%
X134635000Y-119100000D03*
%TO.P,RS485,7*%
%TO.N,GND*%
X135905000Y-119100000D03*
%TO.P,RS485,8*%
X137175000Y-119100000D03*
%TO.P,RS485,9*%
%TO.N,N/C*%
X138445000Y-119100000D03*
%TO.P,RS485,10*%
X139715000Y-119100000D03*
%TO.P,RS485,11*%
%TO.N,VCC2_RS485*%
X139715000Y-108900000D03*
%TO.P,RS485,12*%
%TO.N,GND2_RS485*%
X138445000Y-108900000D03*
%TO.P,RS485,13*%
X137175000Y-108900000D03*
%TO.P,RS485,14*%
%TO.N,RS485_A*%
X135905000Y-108900000D03*
%TO.P,RS485,15*%
%TO.N,RS485_B*%
X134635000Y-108900000D03*
%TO.P,RS485,16*%
%TO.N,N/C*%
X133365000Y-108900000D03*
%TO.P,RS485,17*%
X132095000Y-108900000D03*
%TO.P,RS485,18*%
%TO.N,GND2_RS485*%
X130825000Y-108900000D03*
%TO.P,RS485,19*%
X129555000Y-108900000D03*
%TO.P,RS485,20*%
%TO.N,VCC2_RS485*%
X128285000Y-108900000D03*
%TD*%
D14*
%TO.P,1553-DRV,1*%
%TO.N,N/C*%
X159000000Y-111000000D03*
%TO.P,1553-DRV,2*%
X157730000Y-111000000D03*
%TO.P,1553-DRV,3*%
X156460000Y-111000000D03*
%TO.P,1553-DRV,4*%
X155190000Y-111000000D03*
%TO.P,1553-DRV,5*%
X153920000Y-111000000D03*
%TO.P,1553-DRV,6*%
%TO.N,PRU_1553_TX_N*%
X152650000Y-111000000D03*
%TO.P,1553-DRV,7*%
%TO.N,N/C*%
X151380000Y-111000000D03*
%TO.P,1553-DRV,8*%
X150110000Y-111000000D03*
%TO.P,1553-DRV,9*%
X150110000Y-115950000D03*
%TO.P,1553-DRV,10*%
%TO.N,PRU_1553_TX_P*%
X151380000Y-115950000D03*
%TO.P,1553-DRV,11*%
%TO.N,N/C*%
X152650000Y-115950000D03*
%TO.P,1553-DRV,12*%
X153920000Y-115950000D03*
%TO.P,1553-DRV,13*%
X155190000Y-115950000D03*
%TO.P,1553-DRV,14*%
X156460000Y-115950000D03*
%TO.P,1553-DRV,15*%
X157730000Y-115950000D03*
%TO.P,1553-DRV,16*%
%TO.N,M1553_TX_N*%
X159000000Y-115950000D03*
%TD*%
D16*
%TO.P,1553-XFM,1*%
%TO.N,N/C*%
X146000000Y-109500000D03*
D17*
%TO.P,1553-XFM,SM-1553-11*%
X146000000Y-113500000D03*
%TD*%
D18*
%TO.P,LOAD-CELL,1*%
%TO.N,N/C*%
X143750000Y-96000000D03*
%TO.P,LOAD-CELL,2*%
X145000000Y-96000000D03*
%TO.P,LOAD-CELL,3*%
X146250000Y-96000000D03*
%TO.P,LOAD-CELL,4*%
X147500000Y-96000000D03*
%TD*%
D19*
%TO.P,PWM-I2C,1*%
%TO.N,N/C*%
X170000000Y-101250000D03*
%TO.P,PWM-I2C,2*%
X169350000Y-101250000D03*
%TO.P,PWM-I2C,3*%
X168700000Y-101250000D03*
%TO.P,PWM-I2C,4*%
X168050000Y-101250000D03*
%TO.P,PWM-I2C,5*%
X167400000Y-101250000D03*
%TO.P,PWM-I2C,6*%
X166750000Y-101250000D03*
%TO.P,PWM-I2C,7*%
X166100000Y-101250000D03*
%TO.P,PWM-I2C,8*%
X165450000Y-101250000D03*
%TO.P,PWM-I2C,9*%
%TO.N,PWM_CH3*%
X164800000Y-101250000D03*
%TO.P,PWM-I2C,10*%
%TO.N,PWM_CH2*%
X164150000Y-101250000D03*
%TO.P,PWM-I2C,11*%
%TO.N,PWM_CH1*%
X163500000Y-101250000D03*
%TO.P,PWM-I2C,12*%
%TO.N,N/C*%
X162850000Y-101250000D03*
%TO.P,PWM-I2C,13*%
X162200000Y-101250000D03*
%TO.P,PWM-I2C,14*%
X161550000Y-101250000D03*
%TO.P,PWM-I2C,15*%
X161550000Y-107000000D03*
%TO.P,PWM-I2C,16*%
X162200000Y-107000000D03*
%TO.P,PWM-I2C,17*%
X162850000Y-107000000D03*
%TO.P,PWM-I2C,18*%
X163500000Y-107000000D03*
%TO.P,PWM-I2C,19*%
X164150000Y-107000000D03*
%TO.P,PWM-I2C,20*%
X164800000Y-107000000D03*
%TO.P,PWM-I2C,21*%
X165450000Y-107000000D03*
%TO.P,PWM-I2C,22*%
%TO.N,I2C0_SDA*%
X166100000Y-107000000D03*
%TO.P,PWM-I2C,23*%
%TO.N,N/C*%
X166750000Y-107000000D03*
%TO.P,PWM-I2C,24*%
%TO.N,I2C0_SCL*%
X167400000Y-107000000D03*
%TO.P,PWM-I2C,25*%
%TO.N,N/C*%
X168050000Y-107000000D03*
%TO.P,PWM-I2C,26*%
X168700000Y-107000000D03*
%TO.P,PWM-I2C,27*%
X169350000Y-107000000D03*
%TO.P,PWM-I2C,28*%
X170000000Y-107000000D03*
D20*
%TO.P,PWM-I2C,PCA9685*%
X165775000Y-104125000D03*
%TD*%
D18*
%TO.P,WINCH,1*%
%TO.N,N/C*%
X137500000Y-96000000D03*
%TO.P,WINCH,2*%
X138750000Y-96000000D03*
%TO.P,WINCH,3*%
X140000000Y-96000000D03*
%TO.P,WINCH,4*%
X141250000Y-96000000D03*
%TD*%
%TO.P,MIL-1553,1*%
%TO.N,N/C*%
X122375000Y-106500000D03*
%TO.P,MIL-1553,2*%
X123625000Y-106500000D03*
%TO.P,MIL-1553,3*%
X124875000Y-106500000D03*
%TO.P,MIL-1553,4*%
X126125000Y-106500000D03*
%TD*%
D15*
%TO.P,CAN-TR,1*%
%TO.N,+3V3*%
X136055000Y-119100000D03*
%TO.P,CAN-TR,2*%
%TO.N,MCAN1_TX*%
X137325000Y-119100000D03*
%TO.P,CAN-TR,3*%
%TO.N,CAN_STB*%
X138595000Y-119100000D03*
%TO.P,CAN-TR,4*%
%TO.N,MCAN1_RX*%
X139865000Y-119100000D03*
%TO.P,CAN-TR,5*%
%TO.N,N/C*%
X141135000Y-119100000D03*
%TO.P,CAN-TR,6*%
X142405000Y-119100000D03*
%TO.P,CAN-TR,7*%
X143675000Y-119100000D03*
%TO.P,CAN-TR,8*%
%TO.N,GND*%
X144945000Y-119100000D03*
%TO.P,CAN-TR,9*%
%TO.N,CAN_H*%
X144945000Y-108900000D03*
%TO.P,CAN-TR,10*%
%TO.N,CAN_L*%
X143675000Y-108900000D03*
%TO.P,CAN-TR,11*%
%TO.N,N/C*%
X142405000Y-108900000D03*
%TO.P,CAN-TR,12*%
%TO.N,GND2_CAN*%
X141135000Y-108900000D03*
%TO.P,CAN-TR,13*%
X139865000Y-108900000D03*
%TO.P,CAN-TR,14*%
%TO.N,VCC2_CAN*%
X138595000Y-108900000D03*
%TO.P,CAN-TR,15*%
%TO.N,N/C*%
X137325000Y-108900000D03*
%TO.P,CAN-TR,16*%
X136055000Y-108900000D03*
%TD*%
D18*
%TO.P,RS-485,1*%
%TO.N,N/C*%
X122375000Y-103500000D03*
%TO.P,RS-485,2*%
X123625000Y-103500000D03*
%TO.P,RS-485,3*%
X124875000Y-103500000D03*
%TO.P,RS-485,4*%
X126125000Y-103500000D03*
%TD*%
D21*
%TO.P,LOAD-ADC,1*%
%TO.N,N/C*%
X160960000Y-98950000D03*
%TO.P,LOAD-ADC,2*%
X162230000Y-98950000D03*
%TO.P,LOAD-ADC,3*%
X163500000Y-98950000D03*
%TO.P,LOAD-ADC,4*%
X164770000Y-98950000D03*
%TO.P,LOAD-ADC,5*%
X166040000Y-98950000D03*
%TO.P,LOAD-ADC,6*%
X167310000Y-98950000D03*
%TO.P,LOAD-ADC,7*%
X168580000Y-98950000D03*
%TO.P,LOAD-ADC,8*%
X169850000Y-98950000D03*
%TO.P,LOAD-ADC,9*%
X169850000Y-94000000D03*
%TO.P,LOAD-ADC,10*%
X168580000Y-94000000D03*
%TO.P,LOAD-ADC,11*%
X167310000Y-94000000D03*
%TO.P,LOAD-ADC,12*%
X166040000Y-94000000D03*
%TO.P,LOAD-ADC,13*%
X164770000Y-94000000D03*
%TO.P,LOAD-ADC,14*%
X163500000Y-94000000D03*
%TO.P,LOAD-ADC,15*%
X162230000Y-94000000D03*
%TO.P,LOAD-ADC,16*%
%TO.N,LOAD_CELL_SCK*%
X160960000Y-94000000D03*
%TD*%
D22*
%TO.P,WINCH DRV,1*%
%TO.N,N/C*%
X129591600Y-93350000D03*
%TO.P,WINCH DRV,2*%
X129591600Y-94000000D03*
%TO.P,WINCH DRV,3*%
X129591600Y-94650000D03*
%TO.P,WINCH DRV,4*%
X129591600Y-95300000D03*
%TO.P,WINCH DRV,5*%
%TO.N,WINCH_IN1*%
X129591600Y-95950000D03*
%TO.P,WINCH DRV,6*%
%TO.N,N/C*%
X129591600Y-96600000D03*
%TO.P,WINCH DRV,7*%
X129591600Y-97250000D03*
%TO.P,WINCH DRV,8*%
%TO.N,WINCH_IN2*%
X129591600Y-97900000D03*
%TO.P,WINCH DRV,9*%
%TO.N,N/C*%
X135141600Y-97900000D03*
%TO.P,WINCH DRV,10*%
X135141600Y-97250000D03*
%TO.P,WINCH DRV,11*%
X135141600Y-96600000D03*
%TO.P,WINCH DRV,12*%
X135141600Y-95950000D03*
%TO.P,WINCH DRV,13*%
X135141600Y-95300000D03*
%TO.P,WINCH DRV,14*%
%TO.N,WINCH_OUT2*%
X135141600Y-94650000D03*
%TO.P,WINCH DRV,15*%
%TO.N,N/C*%
X135141600Y-94000000D03*
%TO.P,WINCH DRV,16*%
X135141600Y-93350000D03*
D23*
%TO.P,WINCH DRV,DRV8833*%
X132366600Y-95625000D03*
%TD*%
D18*
%TO.P,CAN-FD,1*%
%TO.N,N/C*%
X122375000Y-100500000D03*
%TO.P,CAN-FD,2*%
X123625000Y-100500000D03*
%TO.P,CAN-FD,3*%
X124875000Y-100500000D03*
%TO.P,CAN-FD,4*%
X126125000Y-100500000D03*
%TD*%
D24*
%TO.P,PWR-IN,1*%
%TO.N,N/C*%
X123000000Y-116000000D03*
D25*
%TO.P,PWR-IN,2*%
X125500000Y-116000000D03*
%TO.P,PWR-IN,3*%
X128000000Y-116000000D03*
%TO.P,PWR-IN,4*%
X130500000Y-116000000D03*
%TD*%
D18*
%TO.P,SIK-TLM,1*%
%TO.N,N/C*%
X122250000Y-94500000D03*
%TO.P,SIK-TLM,2*%
X123500000Y-94500000D03*
%TO.P,SIK-TLM,3*%
X124750000Y-94500000D03*
%TD*%
%TO.P,VHF-XCVR,1*%
%TO.N,N/C*%
X122500000Y-97500000D03*
%TO.P,VHF-XCVR,2*%
X123750000Y-97500000D03*
%TO.P,VHF-XCVR,3*%
X125000000Y-97500000D03*
%TD*%
D11*
%TO.P,PB2-P2,1*%
%TO.N,SERVO7*%
X126910000Y-118690000D03*
%TO.P,PB2-P2,2*%
%TO.N,SERVO6*%
X126910000Y-121230000D03*
%TO.P,PB2-P2,3*%
%TO.N,PWM_CH3*%
X129450000Y-118690000D03*
%TO.P,PB2-P2,4*%
%TO.N,PWM_CH2*%
X129450000Y-121230000D03*
%TO.P,PB2-P2,5*%
%TO.N,PWM_CH1*%
X131990000Y-118690000D03*
%TO.P,PB2-P2,6*%
%TO.N,PWM_CH0*%
X131990000Y-121230000D03*
%TO.P,PB2-P2,7*%
%TO.N,LOAD_CELL_DOUT*%
X134530000Y-118690000D03*
%TO.P,PB2-P2,8*%
%TO.N,LOAD_CELL_SCK*%
X134530000Y-121230000D03*
%TO.P,PB2-P2,9*%
%TO.N,WINCH_IN2*%
X137070000Y-118690000D03*
%TO.P,PB2-P2,10*%
%TO.N,WINCH_IN1*%
X137070000Y-121230000D03*
%TO.P,PB2-P2,11*%
%TO.N,TPM_RSTN*%
X139610000Y-118690000D03*
%TO.P,PB2-P2,12*%
%TO.N,TPM_IRQN*%
X139610000Y-121230000D03*
%TO.P,PB2-P2,13*%
%TO.N,PHY2_RSTN*%
X142150000Y-118690000D03*
%TO.P,PB2-P2,14*%
%TO.N,PHY2_INTRN*%
X142150000Y-121230000D03*
%TO.P,PB2-P2,15*%
%TO.N,PHY1_RSTN*%
X144690000Y-118690000D03*
%TO.P,PB2-P2,16*%
%TO.N,PHY1_INTRN*%
X144690000Y-121230000D03*
%TO.P,PB2-P2,17*%
%TO.N,MDIO*%
X147230000Y-118690000D03*
%TO.P,PB2-P2,18*%
%TO.N,MDC*%
X147230000Y-121230000D03*
%TO.P,PB2-P2,19*%
%TO.N,RMII1_REF_CLK*%
X149770000Y-118690000D03*
%TO.P,PB2-P2,20*%
%TO.N,RMII1_RX_ER*%
X149770000Y-121230000D03*
%TO.P,PB2-P2,21*%
%TO.N,RMII1_CRS_DV*%
X152310000Y-118690000D03*
%TO.P,PB2-P2,22*%
%TO.N,RMII1_RXD1*%
X152310000Y-121230000D03*
%TO.P,PB2-P2,23*%
%TO.N,RMII1_RXD0*%
X154850000Y-118690000D03*
%TO.P,PB2-P2,24*%
%TO.N,RMII1_TX_EN*%
X154850000Y-121230000D03*
%TO.P,PB2-P2,25*%
%TO.N,RMII1_TXD1*%
X157390000Y-118690000D03*
%TO.P,PB2-P2,26*%
%TO.N,RMII1_TXD0*%
X157390000Y-121230000D03*
%TO.P,PB2-P2,27*%
%TO.N,RMII0_REF_CLK*%
X159930000Y-118690000D03*
%TO.P,PB2-P2,28*%
%TO.N,RMII0_RX_ER*%
X159930000Y-121230000D03*
%TO.P,PB2-P2,29*%
%TO.N,RMII0_CRS_DV*%
X162470000Y-118690000D03*
%TO.P,PB2-P2,30*%
%TO.N,RMII0_RXD1*%
X162470000Y-121230000D03*
%TO.P,PB2-P2,31*%
%TO.N,RMII0_RXD0*%
X165010000Y-118690000D03*
%TO.P,PB2-P2,32*%
%TO.N,RMII0_TX_EN*%
X165010000Y-121230000D03*
%TO.P,PB2-P2,33*%
%TO.N,RMII0_TXD1*%
X167550000Y-118690000D03*
%TO.P,PB2-P2,34*%
%TO.N,RMII0_TXD0*%
X167550000Y-121230000D03*
%TO.P,PB2-P2,35*%
%TO.N,+5V*%
X170090000Y-118690000D03*
%TO.P,PB2-P2,36*%
%TO.N,GND*%
X170090000Y-121230000D03*
%TD*%
%TO.P,PB2-P1,1*%
%TO.N,GND*%
X126910000Y-88770000D03*
%TO.P,PB2-P1,2*%
X126910000Y-91310000D03*
%TO.P,PB2-P1,3*%
%TO.N,I2C0_SDA*%
X129450000Y-88770000D03*
%TO.P,PB2-P1,4*%
%TO.N,I2C0_SCL*%
X129450000Y-91310000D03*
%TO.P,PB2-P1,5*%
%TO.N,PRU_1553_RX_N*%
X131990000Y-88770000D03*
%TO.P,PB2-P1,6*%
%TO.N,PRU_1553_RX_P*%
X131990000Y-91310000D03*
%TO.P,PB2-P1,7*%
%TO.N,PRU_1553_TX_N*%
X134530000Y-88770000D03*
%TO.P,PB2-P1,8*%
%TO.N,PRU_1553_TX_P*%
X134530000Y-91310000D03*
%TO.P,PB2-P1,9*%
%TO.N,RS485_DE*%
X137070000Y-88770000D03*
%TO.P,PB2-P1,10*%
%TO.N,RS485_RX*%
X137070000Y-91310000D03*
%TO.P,PB2-P1,11*%
%TO.N,RS485_TX*%
X139610000Y-88770000D03*
%TO.P,PB2-P1,12*%
%TO.N,CAN_STB*%
X139610000Y-91310000D03*
%TO.P,PB2-P1,13*%
%TO.N,MCAN1_RX*%
X142150000Y-88770000D03*
%TO.P,PB2-P1,14*%
%TO.N,MCAN1_TX*%
X142150000Y-91310000D03*
%TO.P,PB2-P1,15*%
%TO.N,UART_RCRS_RX*%
X144690000Y-88770000D03*
%TO.P,PB2-P1,16*%
%TO.N,UART_RCRS_TX*%
X144690000Y-91310000D03*
%TO.P,PB2-P1,17*%
%TO.N,UART_SIK_RX*%
X147230000Y-88770000D03*
%TO.P,PB2-P1,18*%
%TO.N,UART_SIK_TX*%
X147230000Y-91310000D03*
%TO.P,PB2-P1,19*%
%TO.N,LORA_RESETN*%
X149770000Y-88770000D03*
%TO.P,PB2-P1,20*%
%TO.N,LORA_DIO0*%
X149770000Y-91310000D03*
%TO.P,PB2-P1,21*%
%TO.N,SPI1_CS_TPM*%
X152310000Y-88770000D03*
%TO.P,PB2-P1,22*%
%TO.N,SPI1_CS_NOR*%
X152310000Y-91310000D03*
%TO.P,PB2-P1,23*%
%TO.N,SPI1_MISO*%
X154850000Y-88770000D03*
%TO.P,PB2-P1,24*%
%TO.N,SPI1_MOSI*%
X154850000Y-91310000D03*
%TO.P,PB2-P1,25*%
%TO.N,SPI1_CLK*%
X157390000Y-88770000D03*
%TO.P,PB2-P1,26*%
%TO.N,SPI1_CS_LORA*%
X157390000Y-91310000D03*
%TO.P,PB2-P1,27*%
%TO.N,SDIO_D3*%
X159930000Y-88770000D03*
%TO.P,PB2-P1,28*%
%TO.N,SDIO_D2*%
X159930000Y-91310000D03*
%TO.P,PB2-P1,29*%
%TO.N,SDIO_D1*%
X162470000Y-88770000D03*
%TO.P,PB2-P1,30*%
%TO.N,SDIO_D0*%
X162470000Y-91310000D03*
%TO.P,PB2-P1,31*%
%TO.N,SDIO_CMD*%
X165010000Y-88770000D03*
%TO.P,PB2-P1,32*%
%TO.N,SDIO_CLK*%
X165010000Y-91310000D03*
%TO.P,PB2-P1,33*%
%TO.N,+3V3*%
X167550000Y-88770000D03*
%TO.P,PB2-P1,34*%
X167550000Y-91310000D03*
%TO.P,PB2-P1,35*%
%TO.N,+5V*%
X170090000Y-88770000D03*
%TO.P,PB2-P1,36*%
%TO.N,GND*%
X170090000Y-91310000D03*
%TD*%
D15*
%TO.P,U-ISO-TX,1*%
%TO.N,+3V3*%
X131900000Y-99305000D03*
%TO.P,U-ISO-TX,2*%
%TO.N,RMII0_REF_CLK*%
X131900000Y-100575000D03*
%TO.P,U-ISO-TX,3*%
%TO.N,RMII0_TXD0*%
X131900000Y-101845000D03*
%TO.P,U-ISO-TX,4*%
%TO.N,RMII0_TXD1*%
X131900000Y-103115000D03*
%TO.P,U-ISO-TX,5*%
%TO.N,RMII0_TX_EN*%
X131900000Y-104385000D03*
%TO.P,U-ISO-TX,6*%
%TO.N,MDC*%
X131900000Y-105655000D03*
%TO.P,U-ISO-TX,7*%
%TO.N,PHY1_RSTN*%
X131900000Y-106925000D03*
%TO.P,U-ISO-TX,8*%
%TO.N,GND*%
X131900000Y-108195000D03*
%TO.P,U-ISO-TX,9*%
%TO.N,GND2_ETH*%
X142100000Y-108195000D03*
%TO.P,U-ISO-TX,10*%
%TO.N,PHY1_RSTN*%
X142100000Y-106925000D03*
%TO.P,U-ISO-TX,11*%
%TO.N,MDC*%
X142100000Y-105655000D03*
%TO.P,U-ISO-TX,12*%
%TO.N,RMII0_TX_EN*%
X142100000Y-104385000D03*
%TO.P,U-ISO-TX,13*%
%TO.N,RMII0_TXD1*%
X142100000Y-103115000D03*
%TO.P,U-ISO-TX,14*%
%TO.N,RMII0_TXD0*%
X142100000Y-101845000D03*
%TO.P,U-ISO-TX,15*%
%TO.N,RMII0_REF_CLK*%
X142100000Y-100575000D03*
%TO.P,U-ISO-TX,16*%
%TO.N,VCC2_ETH*%
X142100000Y-99305000D03*
%TD*%
D26*
%TO.P,ETH-PHY,1*%
%TO.N,ETH_TXP*%
X147250000Y-107750000D03*
%TO.P,ETH-PHY,2*%
%TO.N,ETH_TXN*%
X147750000Y-107750000D03*
%TO.P,ETH-PHY,3*%
%TO.N,GND*%
X148250000Y-107750000D03*
%TO.P,ETH-PHY,4*%
%TO.N,ETH_RXP*%
X148750000Y-107750000D03*
%TO.P,ETH-PHY,5*%
%TO.N,ETH_RXN*%
X149250000Y-107750000D03*
%TO.P,ETH-PHY,6*%
%TO.N,GND*%
X149750000Y-107750000D03*
%TO.P,ETH-PHY,7*%
%TO.N,VCC2_ETH*%
X150250000Y-107750000D03*
%TO.P,ETH-PHY,8*%
X150750000Y-107750000D03*
%TO.P,ETH-PHY,9*%
X151250000Y-107750000D03*
%TO.P,ETH-PHY,10*%
%TO.N,GND*%
X151750000Y-107750000D03*
%TO.P,ETH-PHY,11*%
X152250000Y-107750000D03*
%TO.P,ETH-PHY,12*%
X152750000Y-107750000D03*
D27*
%TO.P,ETH-PHY,13*%
%TO.N,N/C*%
X146000000Y-106500000D03*
%TO.P,ETH-PHY,14*%
X146000000Y-106000000D03*
%TO.P,ETH-PHY,15*%
X146000000Y-105500000D03*
%TO.P,ETH-PHY,16*%
X146000000Y-105000000D03*
%TO.P,ETH-PHY,17*%
X146000000Y-104500000D03*
%TO.P,ETH-PHY,18*%
%TO.N,MDIO*%
X146000000Y-104000000D03*
%TO.P,ETH-PHY,19*%
%TO.N,MDC*%
X146000000Y-103500000D03*
%TO.P,ETH-PHY,20*%
%TO.N,PHY1_INTRN*%
X146000000Y-103000000D03*
%TO.P,ETH-PHY,21*%
%TO.N,GND2_ETH*%
X146000000Y-102500000D03*
%TO.P,ETH-PHY,22*%
X146000000Y-102000000D03*
%TO.P,ETH-PHY,23*%
%TO.N,N/C*%
X146000000Y-101500000D03*
%TO.P,ETH-PHY,24*%
X146000000Y-101000000D03*
D26*
%TO.P,ETH-PHY,25*%
%TO.N,GND2_ETH*%
X152750000Y-99750000D03*
%TO.P,ETH-PHY,26*%
%TO.N,RMII0_TX_EN*%
X152250000Y-99750000D03*
%TO.P,ETH-PHY,27*%
%TO.N,RMII0_TXD1*%
X151750000Y-99750000D03*
%TO.P,ETH-PHY,28*%
%TO.N,RMII0_TXD0*%
X151250000Y-99750000D03*
%TO.P,ETH-PHY,29*%
%TO.N,RMII0_REF_CLK*%
X150750000Y-99750000D03*
%TO.P,ETH-PHY,30*%
%TO.N,RMII0_RXD0*%
X150250000Y-99750000D03*
%TO.P,ETH-PHY,31*%
%TO.N,RMII0_RXD1*%
X149750000Y-99750000D03*
%TO.P,ETH-PHY,32*%
%TO.N,RMII0_CRS_DV*%
X149250000Y-99750000D03*
%TO.P,ETH-PHY,33*%
%TO.N,RMII0_RX_ER*%
X148750000Y-99750000D03*
%TO.P,ETH-PHY,34*%
%TO.N,GND2_ETH*%
X148250000Y-99750000D03*
%TO.P,ETH-PHY,35*%
%TO.N,PHY1_RSTN*%
X147750000Y-99750000D03*
%TO.P,ETH-PHY,36*%
%TO.N,GND2_ETH*%
X147250000Y-99750000D03*
D27*
%TO.P,ETH-PHY,37*%
%TO.N,N/C*%
X154000000Y-101000000D03*
%TO.P,ETH-PHY,38*%
X154000000Y-101500000D03*
%TO.P,ETH-PHY,39*%
X154000000Y-102000000D03*
%TO.P,ETH-PHY,40*%
%TO.N,VCC2_ETH*%
X154000000Y-102500000D03*
%TO.P,ETH-PHY,41*%
X154000000Y-103000000D03*
%TO.P,ETH-PHY,42*%
%TO.N,N/C*%
X154000000Y-103500000D03*
%TO.P,ETH-PHY,43*%
X154000000Y-104000000D03*
%TO.P,ETH-PHY,44*%
X154000000Y-104500000D03*
%TO.P,ETH-PHY,45*%
X154000000Y-105000000D03*
%TO.P,ETH-PHY,46*%
X154000000Y-105500000D03*
%TO.P,ETH-PHY,47*%
X154000000Y-106000000D03*
%TO.P,ETH-PHY,48*%
X154000000Y-106500000D03*
D28*
%TO.P,ETH-PHY,49*%
%TO.N,GND*%
X150000000Y-103750000D03*
%TD*%
D15*
%TO.P,U-ISO-RX,1*%
%TO.N,VCC2_ETH*%
X157900000Y-99305000D03*
%TO.P,U-ISO-RX,2*%
%TO.N,RMII0_RXD0*%
X157900000Y-100575000D03*
%TO.P,U-ISO-RX,3*%
%TO.N,RMII0_RXD1*%
X157900000Y-101845000D03*
%TO.P,U-ISO-RX,4*%
%TO.N,RMII0_CRS_DV*%
X157900000Y-103115000D03*
%TO.P,U-ISO-RX,5*%
%TO.N,RMII0_RX_ER*%
X157900000Y-104385000D03*
%TO.P,U-ISO-RX,6*%
%TO.N,PHY1_INTRN*%
X157900000Y-105655000D03*
%TO.P,U-ISO-RX,7*%
%TO.N,MDIO*%
X157900000Y-106925000D03*
%TO.P,U-ISO-RX,8*%
%TO.N,GND2_ETH*%
X157900000Y-108195000D03*
%TO.P,U-ISO-RX,9*%
%TO.N,GND*%
X168100000Y-108195000D03*
%TO.P,U-ISO-RX,10*%
%TO.N,MDIO*%
X168100000Y-106925000D03*
%TO.P,U-ISO-RX,11*%
%TO.N,PHY1_INTRN*%
X168100000Y-105655000D03*
%TO.P,U-ISO-RX,12*%
%TO.N,RMII0_RX_ER*%
X168100000Y-104385000D03*
%TO.P,U-ISO-RX,13*%
%TO.N,RMII0_CRS_DV*%
X168100000Y-103115000D03*
%TO.P,U-ISO-RX,14*%
%TO.N,RMII0_RXD1*%
X168100000Y-101845000D03*
%TO.P,U-ISO-RX,15*%
%TO.N,RMII0_RXD0*%
X168100000Y-100575000D03*
%TO.P,U-ISO-RX,16*%
%TO.N,+3V3*%
X168100000Y-99305000D03*
%TD*%
D29*
%TO.P,T-ETH,1*%
%TO.N,ETH_TXP*%
X166500000Y-102250000D03*
%TO.P,T-ETH,2*%
%TO.N,ETH_TXN*%
X166500000Y-103250000D03*
%TO.P,T-ETH,3*%
%TO.N,ETH_RXP*%
X166500000Y-104250000D03*
%TO.P,T-ETH,4*%
%TO.N,ETH_RXN*%
X166500000Y-105250000D03*
%TO.P,T-ETH,5*%
%TO.N,ETH_LINE_TXP*%
X171500000Y-102250000D03*
%TO.P,T-ETH,6*%
%TO.N,ETH_LINE_TXN*%
X171500000Y-103250000D03*
%TO.P,T-ETH,7*%
%TO.N,ETH_LINE_RXP*%
X171500000Y-104250000D03*
%TO.P,T-ETH,8*%
%TO.N,ETH_LINE_RXN*%
X171500000Y-105250000D03*
%TD*%
D18*
%TO.P,J-ETH,1*%
%TO.N,ETH_LINE_TXP*%
X172125000Y-103750000D03*
%TO.P,J-ETH,2*%
%TO.N,ETH_LINE_TXN*%
X173375000Y-103750000D03*
%TO.P,J-ETH,3*%
%TO.N,ETH_LINE_RXP*%
X174625000Y-103750000D03*
%TO.P,J-ETH,4*%
%TO.N,ETH_LINE_RXN*%
X175875000Y-103750000D03*
%TD*%
D30*
%TO.P,CMC-CAN,1*%
%TO.N,CAN_H*%
X124850000Y-96150000D03*
%TO.P,CMC-CAN,2*%
%TO.N,CAN_L*%
X124850000Y-96850000D03*
%TO.P,CMC-CAN,3*%
%TO.N,CAN_H*%
X128150000Y-96150000D03*
%TO.P,CMC-CAN,4*%
%TO.N,CAN_L*%
X128150000Y-96850000D03*
%TD*%
D31*
%TO.P,TVS-CAN,1*%
%TO.N,CAN_H*%
X128700000Y-95850000D03*
%TO.P,TVS-CAN,2*%
%TO.N,GND2_CAN*%
X128700000Y-96500000D03*
%TO.P,TVS-CAN,3*%
%TO.N,CAN_L*%
X128700000Y-97150000D03*
%TO.P,TVS-CAN,4*%
%TO.N,N/C*%
X131300000Y-97150000D03*
%TO.P,TVS-CAN,5*%
%TO.N,VCC2_CAN*%
X131300000Y-96500000D03*
%TO.P,TVS-CAN,6*%
%TO.N,N/C*%
X131300000Y-95850000D03*
%TD*%
D30*
%TO.P,CMC-RS485,1*%
%TO.N,RS485_A*%
X124850000Y-99150000D03*
%TO.P,CMC-RS485,2*%
%TO.N,RS485_B*%
X124850000Y-99850000D03*
%TO.P,CMC-RS485,3*%
%TO.N,RS485_A*%
X128150000Y-99150000D03*
%TO.P,CMC-RS485,4*%
%TO.N,RS485_B*%
X128150000Y-99850000D03*
%TD*%
D31*
%TO.P,TVS-RS485,1*%
%TO.N,RS485_A*%
X128700000Y-98850000D03*
%TO.P,TVS-RS485,2*%
%TO.N,GND2_RS485*%
X128700000Y-99500000D03*
%TO.P,TVS-RS485,3*%
%TO.N,RS485_B*%
X128700000Y-100150000D03*
%TO.P,TVS-RS485,4*%
%TO.N,N/C*%
X131300000Y-100150000D03*
%TO.P,TVS-RS485,5*%
%TO.N,VCC2_RS485*%
X131300000Y-99500000D03*
%TO.P,TVS-RS485,6*%
%TO.N,N/C*%
X131300000Y-98850000D03*
%TD*%
D32*
%TO.P,TVS-1553,1*%
%TO.N,GND*%
X145300000Y-119000000D03*
%TO.P,TVS-1553,2*%
%TO.N,N/C*%
X150700000Y-119000000D03*
%TD*%
D33*
%TO.P,FB1,1*%
%TO.N,+5V*%
X125850000Y-122000000D03*
%TO.P,FB1,2*%
X128150000Y-122000000D03*
%TD*%
D34*
%TO.P,X2Y-CAN,1*%
%TO.N,GND*%
X131200000Y-113500000D03*
%TO.P,X2Y-CAN,2*%
X132800000Y-113500000D03*
D35*
%TO.P,X2Y-CAN,3*%
X132000000Y-113100000D03*
%TO.P,X2Y-CAN,4*%
%TO.N,GND2_CAN*%
X132000000Y-113900000D03*
%TD*%
D34*
%TO.P,X2Y-RS485,1*%
%TO.N,GND*%
X131200000Y-109500000D03*
%TO.P,X2Y-RS485,2*%
X132800000Y-109500000D03*
D35*
%TO.P,X2Y-RS485,3*%
X132000000Y-109100000D03*
%TO.P,X2Y-RS485,4*%
%TO.N,GND2_RS485*%
X132000000Y-109900000D03*
%TD*%
D36*
%TO.N,TMESH_P*%
X171000000Y-117000000D03*
X126000000Y-93000000D03*
%TO.N,TMESH_N*%
X126250000Y-93000000D03*
X170750000Y-93000000D03*
%TD*%
D37*
%TO.N,TMESH_P*%
X126000000Y-96500000D02*
X126000000Y-97000000D01*
X126000000Y-115500000D02*
X126000000Y-116000000D01*
X126000000Y-108500000D02*
X126000000Y-109000000D01*
X171000000Y-114000000D02*
X171000000Y-114500000D01*
X171000000Y-94000000D02*
X171000000Y-94500000D01*
X126000000Y-97000000D02*
X171000000Y-97000000D01*
X171000000Y-93500000D02*
X126000000Y-93500000D01*
X126000000Y-103000000D02*
X171000000Y-103000000D01*
X171000000Y-109500000D02*
X126000000Y-109500000D01*
X171000000Y-112500000D02*
X126000000Y-112500000D01*
X171000000Y-105500000D02*
X126000000Y-105500000D01*
X126000000Y-116500000D02*
X126000000Y-117000000D01*
X126000000Y-113000000D02*
X171000000Y-113000000D01*
X171000000Y-95000000D02*
X171000000Y-95500000D01*
X171000000Y-97000000D02*
X171000000Y-97500000D01*
X171000000Y-93000000D02*
X171000000Y-93500000D01*
X126000000Y-101500000D02*
X126000000Y-102000000D01*
X171000000Y-112000000D02*
X171000000Y-112500000D01*
X126000000Y-101000000D02*
X171000000Y-101000000D01*
X126000000Y-111500000D02*
X126000000Y-112000000D01*
X171000000Y-101500000D02*
X126000000Y-101500000D01*
X171000000Y-95500000D02*
X126000000Y-95500000D01*
X126000000Y-117000000D02*
X171000000Y-117000000D01*
X126000000Y-116000000D02*
X171000000Y-116000000D01*
X171000000Y-98500000D02*
X126000000Y-98500000D01*
X126000000Y-114000000D02*
X171000000Y-114000000D01*
X171000000Y-115500000D02*
X126000000Y-115500000D01*
X171000000Y-115000000D02*
X171000000Y-115500000D01*
X171000000Y-104500000D02*
X126000000Y-104500000D01*
X171000000Y-110000000D02*
X171000000Y-110500000D01*
X171000000Y-98000000D02*
X171000000Y-98500000D01*
X171000000Y-96500000D02*
X126000000Y-96500000D01*
X126000000Y-103500000D02*
X126000000Y-104000000D01*
X126000000Y-105500000D02*
X126000000Y-106000000D01*
X126000000Y-100500000D02*
X126000000Y-101000000D01*
X126000000Y-102500000D02*
X126000000Y-103000000D01*
X171000000Y-100000000D02*
X171000000Y-100500000D01*
X171000000Y-101000000D02*
X171000000Y-101500000D01*
X126000000Y-107500000D02*
X126000000Y-108000000D01*
X171000000Y-94500000D02*
X126000000Y-94500000D01*
X171000000Y-116500000D02*
X126000000Y-116500000D01*
X171000000Y-108000000D02*
X171000000Y-108500000D01*
X126000000Y-99500000D02*
X126000000Y-100000000D01*
X126000000Y-94000000D02*
X171000000Y-94000000D01*
X171000000Y-99000000D02*
X171000000Y-99500000D01*
X171000000Y-113000000D02*
X171000000Y-113500000D01*
X171000000Y-107000000D02*
X171000000Y-107500000D01*
X126000000Y-106500000D02*
X126000000Y-107000000D01*
X126000000Y-108000000D02*
X171000000Y-108000000D01*
X171000000Y-116000000D02*
X171000000Y-116500000D01*
X126000000Y-96000000D02*
X171000000Y-96000000D01*
X171000000Y-110500000D02*
X126000000Y-110500000D01*
X126000000Y-98000000D02*
X171000000Y-98000000D01*
X126000000Y-110000000D02*
X171000000Y-110000000D01*
X171000000Y-106500000D02*
X126000000Y-106500000D01*
X126000000Y-99000000D02*
X171000000Y-99000000D01*
X126000000Y-106000000D02*
X171000000Y-106000000D01*
X126000000Y-93000000D02*
X171000000Y-93000000D01*
X171000000Y-96000000D02*
X171000000Y-96500000D01*
X126000000Y-114500000D02*
X126000000Y-115000000D01*
X126000000Y-115000000D02*
X171000000Y-115000000D01*
X171000000Y-107500000D02*
X126000000Y-107500000D01*
X126000000Y-104000000D02*
X171000000Y-104000000D01*
X171000000Y-102500000D02*
X126000000Y-102500000D01*
X126000000Y-104500000D02*
X126000000Y-105000000D01*
X126000000Y-100000000D02*
X171000000Y-100000000D01*
X126000000Y-95500000D02*
X126000000Y-96000000D01*
X126000000Y-95000000D02*
X171000000Y-95000000D01*
X126000000Y-109000000D02*
X171000000Y-109000000D01*
X171000000Y-104000000D02*
X171000000Y-104500000D01*
X126000000Y-98500000D02*
X126000000Y-99000000D01*
X126000000Y-113500000D02*
X126000000Y-114000000D01*
X126000000Y-102000000D02*
X171000000Y-102000000D01*
X171000000Y-97500000D02*
X126000000Y-97500000D01*
X171000000Y-111500000D02*
X126000000Y-111500000D01*
X126000000Y-112000000D02*
X171000000Y-112000000D01*
X171000000Y-109000000D02*
X171000000Y-109500000D01*
X171000000Y-102000000D02*
X171000000Y-102500000D01*
X171000000Y-113500000D02*
X126000000Y-113500000D01*
X126000000Y-111000000D02*
X171000000Y-111000000D01*
X126000000Y-94500000D02*
X126000000Y-95000000D01*
X171000000Y-99500000D02*
X126000000Y-99500000D01*
X171000000Y-106000000D02*
X171000000Y-106500000D01*
X126000000Y-97500000D02*
X126000000Y-98000000D01*
X171000000Y-103000000D02*
X171000000Y-103500000D01*
X171000000Y-114500000D02*
X126000000Y-114500000D01*
X126000000Y-112500000D02*
X126000000Y-113000000D01*
X126000000Y-107000000D02*
X171000000Y-107000000D01*
X171000000Y-103500000D02*
X126000000Y-103500000D01*
X171000000Y-100500000D02*
X126000000Y-100500000D01*
X171000000Y-108500000D02*
X126000000Y-108500000D01*
X126000000Y-93500000D02*
X126000000Y-94000000D01*
X171000000Y-105000000D02*
X171000000Y-105500000D01*
X126000000Y-105000000D02*
X171000000Y-105000000D01*
X126000000Y-109500000D02*
X126000000Y-110000000D01*
X126000000Y-110500000D02*
X126000000Y-111000000D01*
X171000000Y-111000000D02*
X171000000Y-111500000D01*
%TD*%
D38*
X171000000Y-117000000D03*
X126000000Y-93000000D03*
X126250000Y-93000000D03*
X170750000Y-93000000D03*
X174000000Y-95460000D03*
X174000000Y-98000000D03*
X174000000Y-100540000D03*
X174000000Y-103080000D03*
X174000000Y-105620000D03*
X174000000Y-108160000D03*
X174000000Y-110700000D03*
X174000000Y-113240000D03*
X173000000Y-119500000D03*
X173000000Y-90500000D03*
X124000000Y-119500000D03*
X123000000Y-116000000D03*
X125500000Y-116000000D03*
X128000000Y-116000000D03*
X130500000Y-116000000D03*
X124000000Y-90500000D03*
X126910000Y-118690000D03*
X126910000Y-121230000D03*
X129450000Y-118690000D03*
X129450000Y-121230000D03*
X131990000Y-118690000D03*
X131990000Y-121230000D03*
X134530000Y-118690000D03*
X134530000Y-121230000D03*
X137070000Y-118690000D03*
X137070000Y-121230000D03*
X139610000Y-118690000D03*
X139610000Y-121230000D03*
X142150000Y-118690000D03*
X142150000Y-121230000D03*
X144690000Y-118690000D03*
X144690000Y-121230000D03*
X147230000Y-118690000D03*
X147230000Y-121230000D03*
X149770000Y-118690000D03*
X149770000Y-121230000D03*
X152310000Y-118690000D03*
X152310000Y-121230000D03*
X154850000Y-118690000D03*
X154850000Y-121230000D03*
X157390000Y-118690000D03*
X157390000Y-121230000D03*
X159930000Y-118690000D03*
X159930000Y-121230000D03*
X162470000Y-118690000D03*
X162470000Y-121230000D03*
X165010000Y-118690000D03*
X165010000Y-121230000D03*
X167550000Y-118690000D03*
X167550000Y-121230000D03*
X170090000Y-118690000D03*
X170090000Y-121230000D03*
X126910000Y-88770000D03*
X126910000Y-91310000D03*
X129450000Y-88770000D03*
X129450000Y-91310000D03*
X131990000Y-88770000D03*
X131990000Y-91310000D03*
X134530000Y-88770000D03*
X134530000Y-91310000D03*
X137070000Y-88770000D03*
X137070000Y-91310000D03*
X139610000Y-88770000D03*
X139610000Y-91310000D03*
X142150000Y-88770000D03*
X142150000Y-91310000D03*
X144690000Y-88770000D03*
X144690000Y-91310000D03*
X147230000Y-88770000D03*
X147230000Y-91310000D03*
X149770000Y-88770000D03*
X149770000Y-91310000D03*
X152310000Y-88770000D03*
X152310000Y-91310000D03*
X154850000Y-88770000D03*
X154850000Y-91310000D03*
X157390000Y-88770000D03*
X157390000Y-91310000D03*
X159930000Y-88770000D03*
X159930000Y-91310000D03*
X162470000Y-88770000D03*
X162470000Y-91310000D03*
X165010000Y-88770000D03*
X165010000Y-91310000D03*
X167550000Y-88770000D03*
X167550000Y-91310000D03*
X170090000Y-88770000D03*
X170090000Y-91310000D03*
D39*
X150000000Y-103750000D03*
M02*
