<?xml version="1.0" encoding="UTF-8"?>
<!-- (c) 2026 Steve Griffing PE(CSE) CISSP-ISSEP CPP CC BY 4.0 -->
<svg xmlns="http://www.w3.org/2000/svg" viewBox="0 0 1400 900" width="1400" height="900">
<defs>
  <style>
    @import url('https://fonts.cdnfonts.com/css/opendyslexic');
    @media screen {
      text, tspan, .label, .note, .dim {
        font-family: 'OpenDyslexic','OpenDyslexicMono',sans-serif !important;
      }
    }
    @media print {
      svg { background: #ffffff !important; }
      text, tspan { fill: #111111 !important; font-family: 'OpenDyslexic',sans-serif !important; }
      rect[fill^="rgba"], rect[fill^="#0"] { fill: #f5f5f5 !important; }
    }
  </style>
</defs>
<rect width="1400" height="900" fill="#f5f0e8"/>
<rect x="0" y="0" width="1400" height="64" fill="#006db7"/>
<text x="24" y="24" font-family="'Arial Black','Arial',sans-serif" font-weight="bold" font-size="14" fill="#ffffff" letter-spacing="2">SERENITY-CLASS TILTROTOR UAV  ·  8-NODE REV H.1</text>
<text x="24" y="46" font-family="'OpenDyslexic',sans-serif" font-size="11" fill="#c8dff0">Steve Griffing, PE(CSE), CISSP-ISSEP, CPP · CC BY 4.0 · 2026</text>
<rect x="1180" y="8" width="204" height="48" rx="6" fill="#ff7518"/>
<text x="1282" y="29" text-anchor="middle" font-family="'Arial Black','Arial',sans-serif" font-weight="bold" font-size="11" fill="#ffffff">STEP 20-23 / 23</text>
<text x="1282" y="50" text-anchor="middle" font-family="'Arial Black','Arial',sans-serif" font-weight="bold" font-size="18" fill="#ffffff">8-NODE LAYOUT</text>
<rect x="0" y="64" width="1400" height="40" fill="#dde4ea"/>
<text x="24" y="90" font-family="'Arial Black','Arial',sans-serif" font-weight="bold" font-size="16" fill="#006db7">NODE PLACEMENT MAP  ·  4-BUS WIRING ROUTES  ·  WEIGHT ANALYSIS</text>
<rect x="16" y="112" width="900" height="752" rx="8" fill="#fffdf6" stroke="#dde4ea" stroke-width="1.5"/>

<polygon points="80.0,450.0 94.0,441.6 118.5,433.2 150.0,422.7 181.5,416.4 234.0,415.4 290.0,411.1 325.0,411.1 368.8,413.2 412.5,416.4 465.0,422.7 521.0,435.3 535.0,435.3 566.5,429.0 613.8,423.8 657.5,424.8 718.8,430.1 718.8,465.0 657.5,468.9 613.8,469.7 566.5,465.8 535.0,461.0 521.0,461.0 465.0,470.5 412.5,475.2 368.8,477.6 325.0,479.1 290.0,479.1 234.0,476.0 181.5,475.2 150.0,470.5 118.5,462.6 94.0,456.3 80.0,450.0" fill="rgba(100,120,200,0.12)" stroke="#006db7" stroke-width="2.5"/>
<ellipse cx="157.0" cy="450" rx="35.0" ry="15.4" fill="rgba(0,229,255,0.1)" stroke="#006db7" stroke-width="1"/>
<line x1="290.0" y1="420.9" x2="351.2" y2="240" stroke="#006db7" stroke-width="3"/>
<ellipse cx="351.2" cy="240" rx="40.2" ry="11.2" fill="rgba(255,150,80,0.15)" stroke="#ff7518" stroke-width="2.5"/>
<text x="351.2" y="212" text-anchor="middle" font-family="'Arial Black','Arial',sans-serif" font-weight="bold" font-size="9" fill="#ff7518">PORT 80mm EDF</text>
<line x1="290.0" y1="479.1" x2="351.2" y2="660" stroke="#006db7" stroke-width="3"/>
<ellipse cx="351.2" cy="660" rx="40.2" ry="11.2" fill="rgba(255,150,80,0.15)" stroke="#ff7518" stroke-width="2.5"/>
<text x="351.2" y="688" text-anchor="middle" font-family="'Arial Black','Arial',sans-serif" font-weight="bold" font-size="9" fill="#ff7518">STBD 80mm EDF</text>
<circle cx="608.5" cy="450" r="17.5" fill="rgba(255,230,100,0.1)" stroke="#fbbf24" stroke-width="1.5"/>
<line x1="185.0" y1="458" x2="622.5" y2="458" stroke="#ff7518" stroke-width="4" stroke-linecap="round"/>
<text x="395.0" y="452" text-anchor="middle" font-family="'Arial Black','Arial',sans-serif" font-weight="bold" font-size="8" fill="#ff7518">CAN FD  STBD keel</text>
<line x1="185.0" y1="442" x2="622.5" y2="442" stroke="#00838f" stroke-width="4" stroke-dasharray="8 4" stroke-linecap="round"/>
<text x="395.0" y="457" text-anchor="middle" font-family="'Arial Black','Arial',sans-serif" font-weight="bold" font-size="8" fill="#00838f">RS-485  PORT keel</text>
<line x1="176.2" y1="415" x2="622.5" y2="415" stroke="#fbbf24" stroke-width="5" stroke-linecap="round"/>
<line x1="176.2" y1="420" x2="622.5" y2="420" stroke="#fbbf24" stroke-width="1.5" stroke-dasharray="5 4" opacity="0.4"/>
<text x="395.0" y="407" text-anchor="middle" font-family="'Arial Black','Arial',sans-serif" font-weight="bold" font-size="8" fill="#fbbf24">1553B  dorsal spine</text>
<rect x="185.0" y="408" width="61.2" height="44" rx="5" fill="#006db722" stroke="#006db7" stroke-width="2.5"/>
<text x="215.6" y="424" text-anchor="middle" font-family="'Arial Black','Arial',sans-serif" font-weight="bold" font-size="9" fill="#006db7">NODE-1 PRIMARY</text>
<text x="215.6" y="438" text-anchor="middle" font-family="'OpenDyslexic',sans-serif" font-size="7" fill="#006db7">SENSORHAT+CM4</text>
<text x="215.6" y="449" text-anchor="middle" font-family="'OpenDyslexic',sans-serif" font-size="7" fill="#006db7">+COMMS-HAT-SWITCH</text>
<rect x="197.6" y="388" width="36" height="16" rx="3" fill="#006db725" stroke="#006db7" stroke-width="1.2"/>
<text x="215.6" y="399" text-anchor="middle" font-family="'OpenDyslexic',sans-serif" font-size="7.5" fill="#006db7">SENSOR</text>
<circle cx="215.6" cy="458" r="5" fill="#ff7518"/>
<line x1="215.6" y1="458" x2="215.6" y2="408" stroke="#ff7518" stroke-width="2" stroke-dasharray="3 2" opacity="0.5"/>
<circle cx="215.6" cy="442" r="5" fill="#00838f"/>
<circle cx="215.6" cy="415" r="5" fill="#fbbf24"/>
<line x1="215.6" y1="415" x2="215.6" y2="408" stroke="#fbbf24" stroke-width="2" stroke-dasharray="3 2" opacity="0.5"/>
<rect x="304.0" y="442" width="52.5" height="44" rx="5" fill="#c6282822" stroke="#c62828" stroke-width="2.5"/>
<text x="330.2" y="458" text-anchor="middle" font-family="'Arial Black','Arial',sans-serif" font-weight="bold" font-size="9" fill="#c62828">NODE-2</text>
<text x="330.2" y="472" text-anchor="middle" font-family="'OpenDyslexic',sans-serif" font-size="7" fill="#c62828">SENSORHAT+CM4</text>
<text x="330.2" y="483" text-anchor="middle" font-family="'OpenDyslexic',sans-serif" font-size="7" fill="#c62828">+MICROHAT</text>
<rect x="312.2" y="422" width="36" height="16" rx="3" fill="#c6282825" stroke="#c62828" stroke-width="1.2"/>
<text x="330.2" y="433" text-anchor="middle" font-family="'OpenDyslexic',sans-serif" font-size="7.5" fill="#c62828">SENSOR</text>
<circle cx="330.2" cy="458" r="5" fill="#ff7518"/>
<line x1="330.2" y1="458" x2="330.2" y2="442" stroke="#ff7518" stroke-width="2" stroke-dasharray="3 2" opacity="0.5"/>
<circle cx="330.2" cy="442" r="5" fill="#00838f"/>
<circle cx="330.2" cy="415" r="5" fill="#fbbf24"/>
<line x1="330.2" y1="415" x2="330.2" y2="442" stroke="#fbbf24" stroke-width="2" stroke-dasharray="3 2" opacity="0.5"/>
<path d="M214.8,472 Q214.8,512 330.2,474" fill="none" stroke="#c084fc" stroke-width="3" stroke-dasharray="6 3"/>
<circle cx="330.2" cy="474" r="4" fill="#c084fc"/>
<rect x="417.8" y="408" width="52.5" height="44" rx="5" fill="#2e7d3222" stroke="#2e7d32" stroke-width="2.5"/>
<text x="444.0" y="424" text-anchor="middle" font-family="'Arial Black','Arial',sans-serif" font-weight="bold" font-size="9" fill="#2e7d32">NODE-3</text>
<text x="444.0" y="438" text-anchor="middle" font-family="'OpenDyslexic',sans-serif" font-size="7" fill="#2e7d32">SENSORHAT+CM4</text>
<text x="444.0" y="449" text-anchor="middle" font-family="'OpenDyslexic',sans-serif" font-size="7" fill="#2e7d32">+MICROHAT</text>
<rect x="426.0" y="388" width="36" height="16" rx="3" fill="#2e7d3225" stroke="#2e7d32" stroke-width="1.2"/>
<text x="444.0" y="399" text-anchor="middle" font-family="'OpenDyslexic',sans-serif" font-size="7.5" fill="#2e7d32">SENSOR</text>
<circle cx="444.0" cy="458" r="5" fill="#ff7518"/>
<line x1="444.0" y1="458" x2="444.0" y2="408" stroke="#ff7518" stroke-width="2" stroke-dasharray="3 2" opacity="0.5"/>
<circle cx="444.0" cy="442" r="5" fill="#00838f"/>
<circle cx="444.0" cy="415" r="5" fill="#fbbf24"/>
<line x1="444.0" y1="415" x2="444.0" y2="408" stroke="#fbbf24" stroke-width="2" stroke-dasharray="3 2" opacity="0.5"/>
<path d="M214.8,472 Q214.8,512 444.0,474" fill="none" stroke="#c084fc" stroke-width="3" stroke-dasharray="6 3"/>
<circle cx="444.0" cy="474" r="4" fill="#c084fc"/>
<rect x="540.2" y="442" width="61.2" height="44" rx="5" fill="#6a1b9a22" stroke="#6a1b9a" stroke-width="2.5"/>
<text x="570.9" y="458" text-anchor="middle" font-family="'Arial Black','Arial',sans-serif" font-weight="bold" font-size="9" fill="#6a1b9a">NODE-4</text>
<text x="570.9" y="472" text-anchor="middle" font-family="'OpenDyslexic',sans-serif" font-size="7" fill="#6a1b9a">SENSORHAT+CM4</text>
<text x="570.9" y="483" text-anchor="middle" font-family="'OpenDyslexic',sans-serif" font-size="7" fill="#6a1b9a">+MICROHAT</text>
<rect x="552.9" y="422" width="36" height="16" rx="3" fill="#6a1b9a25" stroke="#6a1b9a" stroke-width="1.2"/>
<text x="570.9" y="433" text-anchor="middle" font-family="'OpenDyslexic',sans-serif" font-size="7.5" fill="#6a1b9a">SENSOR</text>
<circle cx="570.9" cy="458" r="5" fill="#ff7518"/>
<line x1="570.9" y1="458" x2="570.9" y2="442" stroke="#ff7518" stroke-width="2" stroke-dasharray="3 2" opacity="0.5"/>
<circle cx="570.9" cy="442" r="5" fill="#00838f"/>
<circle cx="570.9" cy="415" r="5" fill="#fbbf24"/>
<line x1="570.9" y1="415" x2="570.9" y2="442" stroke="#fbbf24" stroke-width="2" stroke-dasharray="3 2" opacity="0.5"/>
<path d="M214.8,472 Q214.8,512 570.9,474" fill="none" stroke="#c084fc" stroke-width="3" stroke-dasharray="6 3"/>
<circle cx="570.9" cy="474" r="4" fill="#c084fc"/>
<rect x="185.0" y="470" width="32" height="14" rx="3" fill="#c084fc33" stroke="#c084fc" stroke-width="1.5"/>
<text x="213.0" y="481" text-anchor="middle" font-family="'OpenDyslexic',sans-serif" font-size="7" fill="#c084fc">MUREX</text>
<text x="430.0" y="518" text-anchor="middle" font-family="'Arial Black','Arial',sans-serif" font-weight="bold" font-size="8" fill="#c084fc">ETH star via Murex (COMMS-HAT-SWITCH)</text>
<line x1="346.0" y1="360" x2="346.0" y2="540" stroke="#2e7d32" stroke-width="1.5" stroke-dasharray="5 3"/>
<polygon points="346.0,360 338.0,378 354.0,378" fill="#2e7d32"/>
<text x="346.0" y="352" text-anchor="middle" font-family="'Arial Black','Arial',sans-serif" font-weight="bold" font-size="9" fill="#2e7d32">TARGET CG 152mm</text>
<line x1="377.5" y1="380" x2="377.5" y2="520" stroke="#f5c518" stroke-width="1" stroke-dasharray="3 3" opacity="0.7"/>
<text x="382.5" y="376" font-family="'OpenDyslexic',sans-serif" font-size="7" fill="#f5c518">Elec CG 170mm → trim bat fwd 15mm</text>
<rect x="28" y="120" width="235" height="185" rx="4" fill="rgba(255,255,255,0.75)" stroke="#dde4ea" stroke-width="1"/>
<text x="145" y="137" text-anchor="middle" font-family="'Arial Black','Arial',sans-serif" font-weight="bold" font-size="9" fill="#222222">BUS ROUTES &amp; NODES</text>
<line x1="36" y1="152" x2="76" y2="152" stroke="#ff7518" stroke-width="3.5" stroke-dasharray="none"/>
<text x="82" y="156" font-family="'OpenDyslexic',sans-serif" font-size="8.5" fill="#222222">CAN FD — STBD keel spine</text>
<line x1="36" y1="172" x2="76" y2="172" stroke="#00838f" stroke-width="3.5" stroke-dasharray="8 4"/>
<text x="82" y="176" font-family="'OpenDyslexic',sans-serif" font-size="8.5" fill="#222222">RS-485 — PORT keel spine</text>
<line x1="36" y1="192" x2="76" y2="192" stroke="#fbbf24" stroke-width="3.5" stroke-dasharray="none"/>
<text x="82" y="196" font-family="'OpenDyslexic',sans-serif" font-size="8.5" fill="#222222">1553B — dorsal spine</text>
<line x1="36" y1="212" x2="76" y2="212" stroke="#c084fc" stroke-width="3.5" stroke-dasharray="6 3"/>
<text x="82" y="216" font-family="'OpenDyslexic',sans-serif" font-size="8.5" fill="#222222">Ethernet — star / Murex</text>
<rect x="34" y="226" width="14" height="14" rx="3" fill="#006db780" stroke="#006db7" stroke-width="1.5"/>
<text x="36" y="238" font-family="'Arial Black','Arial',sans-serif" font-weight="bold" font-size="8" fill="#006db7">N1</text>
<text x="56" y="238" font-family="'OpenDyslexic',sans-serif" font-size="8" fill="#222222">Primary FC + Murex</text>
<rect x="34" y="246" width="14" height="14" rx="3" fill="#c6282880" stroke="#c62828" stroke-width="1.5"/>
<text x="36" y="258" font-family="'Arial Black','Arial',sans-serif" font-weight="bold" font-size="8" fill="#c62828">N2</text>
<text x="56" y="258" font-family="'OpenDyslexic',sans-serif" font-size="8" fill="#222222">Nav/IMU secondary</text>
<rect x="34" y="266" width="14" height="14" rx="3" fill="#2e7d3280" stroke="#2e7d32" stroke-width="1.5"/>
<text x="36" y="278" font-family="'Arial Black','Arial',sans-serif" font-weight="bold" font-size="8" fill="#2e7d32">N3</text>
<text x="56" y="278" font-family="'OpenDyslexic',sans-serif" font-size="8" fill="#222222">Payload/actuator</text>
<rect x="34" y="286" width="14" height="14" rx="3" fill="#6a1b9a80" stroke="#6a1b9a" stroke-width="1.5"/>
<text x="36" y="298" font-family="'Arial Black','Arial',sans-serif" font-weight="bold" font-size="8" fill="#6a1b9a">N4</text>
<text x="56" y="298" font-family="'OpenDyslexic',sans-serif" font-size="8" fill="#222222">Aft telem/logging</text>
<rect x="930" y="112" width="454" height="752" rx="8" fill="#fffdf6" stroke="#dde4ea" stroke-width="1.5"/>
<rect x="938" y="116" width="438" height="18" rx="3" fill="#006db7"/>
<text x="1157" y="130" text-anchor="middle" font-family="'Arial Black','Arial',sans-serif" font-weight="bold" font-size="10" fill="#ffffff" letter-spacing="1">WEIGHT SUMMARY</text>
<text x="942" y="154" font-family="'OpenDyslexic',sans-serif" font-size="9" fill="rgba(60,80,100,0.7)">EDF upgrade</text>
<text x="1372" y="154" text-anchor="end" font-family="'Arial Black','Arial',sans-serif" font-weight="bold" font-size="9" fill="#222222">70mm→80mm</text>
<line x1="940" y1="158" x2="1374" y2="158" stroke="#dde4ea" stroke-width="0.7"/>
<text x="942" y="172" font-family="'OpenDyslexic',sans-serif" font-size="9" fill="rgba(60,80,100,0.7)">Nacelle thrust total</text>
<text x="1372" y="172" text-anchor="end" font-family="'Arial Black','Arial',sans-serif" font-weight="bold" font-size="9" fill="#2e7d32">2800g (+600g)</text>
<line x1="940" y1="176" x2="1374" y2="176" stroke="#dde4ea" stroke-width="0.7"/>
<text x="942" y="190" font-family="'OpenDyslexic',sans-serif" font-size="9" fill="rgba(60,80,100,0.7)">Base mass (no battery)</text>
<text x="1372" y="190" text-anchor="end" font-family="'Arial Black','Arial',sans-serif" font-weight="bold" font-size="9" fill="#222222">741g</text>
<line x1="940" y1="194" x2="1374" y2="194" stroke="#dde4ea" stroke-width="0.7"/>
<text x="942" y="208" font-family="'OpenDyslexic',sans-serif" font-size="9" fill="rgba(60,80,100,0.7)">AUW empty (4500mAh)</text>
<text x="1372" y="208" text-anchor="end" font-family="'Arial Black','Arial',sans-serif" font-weight="bold" font-size="9" fill="#222222">1161g</text>
<line x1="940" y1="212" x2="1374" y2="212" stroke="#dde4ea" stroke-width="0.7"/>
<text x="942" y="226" font-family="'OpenDyslexic',sans-serif" font-size="9" fill="rgba(60,80,100,0.7)">T/W empty</text>
<text x="1372" y="226" text-anchor="end" font-family="'Arial Black','Arial',sans-serif" font-weight="bold" font-size="9" fill="#2e7d32">2.41:1</text>
<line x1="940" y1="230" x2="1374" y2="230" stroke="#dde4ea" stroke-width="0.7"/>
<text x="942" y="244" font-family="'OpenDyslexic',sans-serif" font-size="9" fill="rgba(60,80,100,0.7)">AUW cargo 250g (2800mAh)</text>
<text x="1372" y="244" text-anchor="end" font-family="'Arial Black','Arial',sans-serif" font-weight="bold" font-size="9" fill="#222222">1262g</text>
<line x1="940" y1="248" x2="1374" y2="248" stroke="#dde4ea" stroke-width="0.7"/>
<text x="942" y="262" font-family="'OpenDyslexic',sans-serif" font-size="9" fill="rgba(60,80,100,0.7)">T/W cargo</text>
<text x="1372" y="262" text-anchor="end" font-family="'Arial Black','Arial',sans-serif" font-weight="bold" font-size="9" fill="#2e7d32">2.22:1</text>
<line x1="940" y1="266" x2="1374" y2="266" stroke="#dde4ea" stroke-width="0.7"/>
<text x="942" y="280" font-family="'OpenDyslexic',sans-serif" font-size="9" fill="rgba(60,80,100,0.7)">Max payload (T/W=2.0)</text>
<text x="1372" y="280" text-anchor="end" font-family="'Arial Black','Arial',sans-serif" font-weight="bold" font-size="9" fill="#2e7d32">388g</text>
<line x1="940" y1="284" x2="1374" y2="284" stroke="#dde4ea" stroke-width="0.7"/>
<rect x="938" y="292" width="438" height="18" rx="3" fill="#006db7"/>
<text x="1157" y="306" text-anchor="middle" font-family="'Arial Black','Arial',sans-serif" font-weight="bold" font-size="10" fill="#ffffff" letter-spacing="1">NODE BREAKDOWN</text>
<text x="942" y="330" font-family="'OpenDyslexic',sans-serif" font-size="9" fill="rgba(60,80,100,0.7)">Nodes 1-4 SENSORHAT-1</text>
<text x="1372" y="330" text-anchor="end" font-family="'Arial Black','Arial',sans-serif" font-weight="bold" font-size="9" fill="#222222">4 × 12g = 48g</text>
<line x1="940" y1="334" x2="1374" y2="334" stroke="#dde4ea" stroke-width="0.7"/>
<text x="942" y="348" font-family="'OpenDyslexic',sans-serif" font-size="9" fill="rgba(60,80,100,0.7)">Node-1 CARRIER-2 + CM4</text>
<text x="1372" y="348" text-anchor="end" font-family="'Arial Black','Arial',sans-serif" font-weight="bold" font-size="9" fill="#222222">21g</text>
<line x1="940" y1="352" x2="1374" y2="352" stroke="#dde4ea" stroke-width="0.7"/>
<text x="942" y="366" font-family="'OpenDyslexic',sans-serif" font-size="9" fill="rgba(60,80,100,0.7)">Node-1 COMMS-HAT-SWITCH</text>
<text x="1372" y="366" text-anchor="end" font-family="'Arial Black','Arial',sans-serif" font-weight="bold" font-size="9" fill="#222222">38g (incl. KSZ8895)</text>
<line x1="940" y1="370" x2="1374" y2="370" stroke="#dde4ea" stroke-width="0.7"/>
<text x="942" y="384" font-family="'OpenDyslexic',sans-serif" font-size="9" fill="rgba(60,80,100,0.7)">Nodes 2-4 CARRIER-2 + CM4</text>
<text x="1372" y="384" text-anchor="end" font-family="'Arial Black','Arial',sans-serif" font-weight="bold" font-size="9" fill="#222222">3 × 21g = 63g</text>
<line x1="940" y1="388" x2="1374" y2="388" stroke="#dde4ea" stroke-width="0.7"/>
<text x="942" y="402" font-family="'OpenDyslexic',sans-serif" font-size="9" fill="rgba(60,80,100,0.7)">Nodes 2-4 MICROHAT</text>
<text x="1372" y="402" text-anchor="end" font-family="'Arial Black','Arial',sans-serif" font-weight="bold" font-size="9" fill="#222222">3 × 6g = 18g</text>
<line x1="940" y1="406" x2="1374" y2="406" stroke="#dde4ea" stroke-width="0.7"/>
<text x="942" y="420" font-family="'OpenDyslexic',sans-serif" font-size="9" fill="rgba(60,80,100,0.7)">Total node mass</text>
<text x="1372" y="420" text-anchor="end" font-family="'Arial Black','Arial',sans-serif" font-weight="bold" font-size="9" fill="#222222">188g</text>
<line x1="940" y1="424" x2="1374" y2="424" stroke="#dde4ea" stroke-width="0.7"/>
<text x="942" y="438" font-family="'OpenDyslexic',sans-serif" font-size="9" fill="rgba(60,80,100,0.7)">Delta vs single-node Rev H</text>
<text x="1372" y="438" text-anchor="end" font-family="'Arial Black','Arial',sans-serif" font-weight="bold" font-size="9" fill="#222222">+125g</text>
<line x1="940" y1="442" x2="1374" y2="442" stroke="#dde4ea" stroke-width="0.7"/>
<rect x="938" y="450" width="438" height="18" rx="3" fill="#006db7"/>
<text x="1157" y="464" text-anchor="middle" font-family="'Arial Black','Arial',sans-serif" font-weight="bold" font-size="10" fill="#ffffff" letter-spacing="1">MUREX SWITCH (KSZ8895)</text>
<text x="942" y="488" font-family="'OpenDyslexic',sans-serif" font-size="9" fill="rgba(60,80,100,0.7)">Switch IC</text>
<text x="1372" y="488" text-anchor="end" font-family="'Arial Black','Arial',sans-serif" font-weight="bold" font-size="9" fill="#6a1b9a">KSZ8895MQXIA QFN-48</text>
<line x1="940" y1="492" x2="1374" y2="492" stroke="#dde4ea" stroke-width="0.7"/>
<text x="942" y="506" font-family="'OpenDyslexic',sans-serif" font-size="9" fill="rgba(60,80,100,0.7)">Ports</text>
<text x="1372" y="506" text-anchor="end" font-family="'Arial Black','Arial',sans-serif" font-weight="bold" font-size="9" fill="#222222">5 × 100BASE-TX</text>
<line x1="940" y1="510" x2="1374" y2="510" stroke="#dde4ea" stroke-width="0.7"/>
<text x="942" y="524" font-family="'OpenDyslexic',sans-serif" font-size="9" fill="rgba(60,80,100,0.7)">Integration</text>
<text x="1372" y="524" text-anchor="end" font-family="'Arial Black','Arial',sans-serif" font-weight="bold" font-size="9" fill="#222222">On COMMS-HAT-SWITCH PCB</text>
<line x1="940" y1="528" x2="1374" y2="528" stroke="#dde4ea" stroke-width="0.7"/>
<text x="942" y="542" font-family="'OpenDyslexic',sans-serif" font-size="9" fill="rgba(60,80,100,0.7)">Weight added to COMMS-HAT</text>
<text x="1372" y="542" text-anchor="end" font-family="'Arial Black','Arial',sans-serif" font-weight="bold" font-size="9" fill="#222222">~3.5g</text>
<line x1="940" y1="546" x2="1374" y2="546" stroke="#dde4ea" stroke-width="0.7"/>
<text x="942" y="560" font-family="'OpenDyslexic',sans-serif" font-size="9" fill="rgba(60,80,100,0.7)">Separate switch board?</text>
<text x="1372" y="560" text-anchor="end" font-family="'Arial Black','Arial',sans-serif" font-weight="bold" font-size="9" fill="#2e7d32">No — integrated ✔</text>
<line x1="940" y1="564" x2="1374" y2="564" stroke="#dde4ea" stroke-width="0.7"/>
<rect x="938" y="572" width="438" height="18" rx="3" fill="#006db7"/>
<text x="1157" y="586" text-anchor="middle" font-family="'Arial Black','Arial',sans-serif" font-weight="bold" font-size="10" fill="#ffffff" letter-spacing="1">CG MANAGEMENT</text>
<text x="942" y="610" font-family="'OpenDyslexic',sans-serif" font-size="9" fill="rgba(60,80,100,0.7)">Elec CG (nodes 1-4)</text>
<text x="1372" y="610" text-anchor="end" font-family="'Arial Black','Arial',sans-serif" font-weight="bold" font-size="9" fill="#222222">170mm from nose</text>
<line x1="940" y1="614" x2="1374" y2="614" stroke="#dde4ea" stroke-width="0.7"/>
<text x="942" y="628" font-family="'OpenDyslexic',sans-serif" font-size="9" fill="rgba(60,80,100,0.7)">Target aero CG</text>
<text x="1372" y="628" text-anchor="end" font-family="'Arial Black','Arial',sans-serif" font-weight="bold" font-size="9" fill="#222222">152mm from nose</text>
<line x1="940" y1="632" x2="1374" y2="632" stroke="#dde4ea" stroke-width="0.7"/>
<text x="942" y="646" font-family="'OpenDyslexic',sans-serif" font-size="9" fill="rgba(60,80,100,0.7)">Battery rail slide</text>
<text x="1372" y="646" text-anchor="end" font-family="'Arial Black','Arial',sans-serif" font-weight="bold" font-size="9" fill="#222222">15mm forward</text>
<line x1="940" y1="650" x2="1374" y2="650" stroke="#dde4ea" stroke-width="0.7"/>
<text x="942" y="664" font-family="'OpenDyslexic',sans-serif" font-size="9" fill="rgba(60,80,100,0.7)">Achieved CG</text>
<text x="1372" y="664" text-anchor="end" font-family="'Arial Black','Arial',sans-serif" font-weight="bold" font-size="9" fill="#2e7d32">~154mm ✔</text>
<line x1="940" y1="668" x2="1374" y2="668" stroke="#dde4ea" stroke-width="0.7"/>
<rect x="938" y="688" width="438" height="44" rx="4" fill="#fffac0" stroke="#ff7518" stroke-width="1.5"/>
<text x="948" y="704" font-family="'Arial Black','Arial',sans-serif" font-weight="bold" font-size="9" fill="#ff7518">⚠  80mm EDF REQUIRED</text>
<text x="942" y="718" font-family="'OpenDyslexic',sans-serif" font-size="8" fill="#222222">70mm EDFs: T/W=1.96 with 8 nodes.</text>
<text x="942" y="728" font-family="'OpenDyslexic',sans-serif" font-size="8" fill="#222222">Use 80mm nacelle pod STLs in /stl/.</text>
<rect x="0" y="872" width="1400" height="28" fill="#006db7"/>
<text x="700" y="890" text-anchor="middle" font-family="'OpenDyslexic',sans-serif" font-size="9" fill="#c8dff0">Hull: Peter Farell CC BY 4.0 · Nozzle: BamJr CC BY 4.0 · Visual: Firefly/Serenity © Joss Whedon/Mutant Enemy/Universal — Fan engineering work</text>
</svg>