  0
SECTION
  2
HEADER
  9
$ACADVER
  1
AC1014
  9
$ACADMAINTVER
 70
   0
  9
$DWGCODEPAGE
  3
ANSI_932
  9
$INSBASE
 10
0.0
 20
0.0
 30
0.0
  9
$EXTMIN
 10
0.000000
 20
-1.250000
 30
0.0
  9
$EXTMAX
 10
8.800000
 20
7.700000
 30
0.0
  9
$LIMMIN
 10
0.0
 20
0.0
  9
$LIMMAX
 10
12.0
 20
9.0
  9
$ORTHOMODE
 70
	0
  9
$REGENMODE
 70
	1
  9
$FILLMODE
 70
	1
  9
$QTEXTMODE
 70
	0
  9
$MIRRTEXT
 70
	1
  9
$DRAGMODE
 70
	2
  9
$LTSCALE
 40
1.0
  9
$OSMODE
 70
	0
  9
$ATTMODE
 70
	1
  9
$TEXTSIZE
 40
0.2
  9
$TRACEWID
 40
0.05
  9
$TEXTSTYLE
  7
STANDARD
  9
$CLAYER
  8
0
  9
$CELTYPE
  6
BYLAYER
  9
$CECOLOR
 62
	256
  9
$CELTSCALE
 40
1.0
  9
$DELOBJ
 70
	1
  9
$DISPSILH
 70
	0
  9
$LUNITS
 70
	2
  9
$LUPREC
 70
	6
  9
$SKETCHINC
 40
0.1
  9
$FILLETRAD
 40
0.5
  9
$AUNITS
 70
	0
  9
$AUPREC
 70
	6
  9
$MENU
  1
acad
  9
$ELEVATION
 40
0.0
  9
$PELEVATION
 40
0.0
  9
$THICKNESS
 40
0.0
  9
$LIMCHECK
 70
	0
  9
$BLIPMODE
 70
	0
  9
$CHAMFERA
 40
0.5
  9
$CHAMFERB
 40
0.5
  9
$CHAMFERC
 40
1.0
  9
$CHAMFERD
 40
0.0
  9
$SKPOLY
 70
	0
  9
$TDCREATE
 40
0.0
  9
$TDUPDATE
 40
0.0
  9
$TDINDWG
 40
0.0
  9
$TDUSRTIMER
 40
0.0
  9
$USRTIMER
 70
	0
  9
$ANGBASE
 50
0.0
  9
$ANGDIR
 70
	0
  9
$PDMODE
 70
	0
  9
$PDSIZE
 40
0.0
  9
$PLINEWID
 40
0.0
  9
$COORDS
 70
	1
  9
$SPLFRAME
 70
	0
  9
$SPLINETYPE
 70
	6
  9
$SPLINESEGS
 70
	8
  9
$ATTDIA
 70
	0
  9
$ATTREQ
 70
	1
  9
$HANDLING
 70
   1
  9
$HANDSEED
   5
             1f2
  0
ENDSEC
  0
SECTION
  2
CLASSES
  0
CLASS
  1
LWPOLYLINE
  2
AcDbPolyline
  3
"AutoCAD"
 90
0
280
0
281
1
  0
CLASS
  1
DICTIONARYVAR
  2
AcDbDictionaryVar
  3
"AutoCAD"
 90
0
280
0
281
1
  0
CLASS
  1
HATCH
  2
AcDbHatch
  3
"ACAD_SEDONA"
 90
0
280
0
281
1
  0
ENDSEC
  0
SECTION
  2
TABLES
  0
TABLE
  2
VPORT
  5
23
100
AcDbSymbolTable
 70
2
  0
VPORT
  5
25
100
AcDbSymbolTableRecord
100
AcDbViewportTableRecord
  2
*ACTIVE
 70
0
 10
0.0
 20
0.0
 11
1.0
 21
1.0
 12
4.400000
 22
3.225000
 40
17.750000
 41
1.743697478991596
 42
50
 72
100
  0
ENDTAB
  0
TABLE
  2
LTYPE
  5
26
100
AcDbSymbolTable
 70
1
  0
LTYPE
  5
27
100
AcDbSymbolTableRecord
100
AcDbLinetypeTableRecord
  2
BYBLOCK
 70
0
  3

 72
65
 73
0
 40
0.0
  0
LTYPE
  5
28
100
AcDbSymbolTableRecord
100
AcDbLinetypeTableRecord
  2
BYLAYER
 70
0
  3

 72
65
 73
0
 40
0.0
  0
LTYPE
  5
29
100
AcDbSymbolTableRecord
100
AcDbLinetypeTableRecord
  2
CONTINUOUS
 70
0
  3

 72
65
 73
0
 40
0.0
  0
ENDTAB
  0
TABLE
  2
LAYER
  5
2a
100
AcDbSymbolTable
 70
3
  0
LAYER
  5
2b
100
AcDbSymbolTableRecord
100
AcDbLayerTableRecord
  2
0
 70
   0
 62
  7
  6
CONTINUOUS
  0
LAYER
  5
2c
100
AcDbSymbolTableRecord
100
AcDbLayerTableRecord
  2
NC_Work2
 70
   0
 62
  7
  6
CONTINUOUS
  0
LAYER
  5
2d
100
AcDbSymbolTableRecord
100
AcDbLayerTableRecord
  2
ProductsBoradOutline
 70
   0
 62
  7
  6
CONTINUOUS
  0
ENDTAB
  0
TABLE
  2
STYLE
  5
2e
100
AcDbSymbolTable
 70
1
  0
STYLE
  5
2f
100
AcDbSymbolTableRecord
100
AcDbTextStyleTableRecord
  2
STANDARD
 70
0
 40
0.0
 41
1.0
 50
0.0
 71
0
 42
1.0
  3
txt
  4
EXTFONT
  0
ENDTAB
  0
TABLE
  2
VIEW
  5
30
100
AcDbSymbolTable
 70
   0
  0
ENDTAB
  0
TABLE
  2
UCS
  5
31
100
AcDbSymbolTable
 70
   0
  0
ENDTAB
  0
TABLE
  2
APPID
  5
32
100
AcDbSymbolTable
 70
1
  0
APPID
  5
33
100
AcDbSymbolTableRecord
100
AcDbRegAppTableRecord
  2
ACAD
 70
0
  0
ENDTAB
  0
TABLE
  2
DIMSTYLE
  5
34
100
AcDbSymbolTable
 70
1
  0
DIMSTYLE
105
35
100
AcDbSymbolTableRecord
100
AcDbDimStyleTableRecord
  2
STANDARD
 70
0
  0
ENDTAB
  0
TABLE
  2
BLOCK_RECORD
  5
36
100
AcDbSymbolTable
 70
0
  0
BLOCK_RECORD
  5
37
100
AcDbSymbolTableRecord
100
AcDbBlockTableRecord
  2
*MODEL_SPACE
  0
BLOCK_RECORD
  5
38
100
AcDbSymbolTableRecord
100
AcDbBlockTableRecord
  2
*PAPER_SPACE
  0
ENDTAB
  0
ENDSEC
  0
SECTION
  2
BLOCKS
  0
BLOCK
  5
39
100
AcDbEntity
  8
0
100
AcDbBlockBegin
  2
*MODEL_SPACE
 70
0
 10
0.0
 20
0.0
 30
0.0
  3
*MODEL_SPACE
  1

  0
ENDBLK
  5
3a
100
AcDbEntity
  8
0
100
AcDbBlockEnd
  0
BLOCK
  5
3b
100
AcDbEntity
 67
	1
  8
0
100
AcDbBlockBegin
  2
*PAPER_SPACE
 70
0
 10
0.0
 20
0.0
 30
0.0
  3
*PAPER_SPACE
  1

  0
ENDBLK
  5
3c
100
AcDbEntity
 67
	1
  8
0
100
AcDbBlockEnd
  0
ENDSEC
  0
SECTION
  2
ENTITIES
  0
LINE
  5
3d
100
AcDbEntity
  8
ProductsBoradOutline
100
AcDbLine
 10
0.000000
 20
0.000000
 30
0.0
 11
0.000000
 21
7.700000
 31
0.0
  0
LINE
  5
3e
100
AcDbEntity
  8
ProductsBoradOutline
100
AcDbLine
 10
0.000000
 20
7.700000
 30
0.0
 11
8.800000
 21
7.700000
 31
0.0
  0
LINE
  5
3f
100
AcDbEntity
  8
ProductsBoradOutline
100
AcDbLine
 10
8.800000
 20
0.000000
 30
0.0
 11
0.000000
 21
0.000000
 31
0.0
  0
LINE
  5
40
100
AcDbEntity
  8
ProductsBoradOutline
100
AcDbLine
 10
8.800000
 20
0.000000
 30
0.0
 11
8.800000
 21
7.700000
 31
0.0
  0
LINE
  5
41
100
AcDbEntity
  8
NC_Work2
100
AcDbLine
 10
8.250000
 20
6.850000
 30
0.0
 11
8.250000
 21
7.400000
 31
0.0
  0
LINE
  5
42
100
AcDbEntity
  8
NC_Work2
100
AcDbLine
 10
8.250000
 20
7.400000
 30
0.0
 11
8.500000
 21
7.400000
 31
0.0
  0
LINE
  5
43
100
AcDbEntity
  8
NC_Work2
100
AcDbLine
 10
8.500000
 20
7.400000
 30
0.0
 11
8.500000
 21
6.850000
 31
0.0
  0
LINE
  5
44
100
AcDbEntity
  8
NC_Work2
100
AcDbLine
 10
8.500000
 20
6.850000
 30
0.0
 11
8.250000
 21
6.850000
 31
0.0
  0
LINE
  5
45
100
AcDbEntity
  8
NC_Work2
100
AcDbLine
 10
7.950000
 20
1.475000
 30
0.0
 11
8.500000
 21
1.475000
 31
0.0
  0
LINE
  5
46
100
AcDbEntity
  8
NC_Work2
100
AcDbLine
 10
8.500000
 20
1.475000
 30
0.0
 11
8.500000
 21
1.225000
 31
0.0
  0
LINE
  5
47
100
AcDbEntity
  8
NC_Work2
100
AcDbLine
 10
8.500000
 20
1.225000
 30
0.0
 11
7.950000
 21
1.225000
 31
0.0
  0
LINE
  5
48
100
AcDbEntity
  8
NC_Work2
100
AcDbLine
 10
7.950000
 20
1.225000
 30
0.0
 11
7.950000
 21
1.475000
 31
0.0
  0
LINE
  5
49
100
AcDbEntity
  8
NC_Work2
100
AcDbLine
 10
7.950000
 20
1.975000
 30
0.0
 11
8.500000
 21
1.975000
 31
0.0
  0
LINE
  5
4a
100
AcDbEntity
  8
NC_Work2
100
AcDbLine
 10
8.500000
 20
1.975000
 30
0.0
 11
8.500000
 21
1.725000
 31
0.0
  0
LINE
  5
4b
100
AcDbEntity
  8
NC_Work2
100
AcDbLine
 10
8.500000
 20
1.725000
 30
0.0
 11
7.950000
 21
1.725000
 31
0.0
  0
LINE
  5
4c
100
AcDbEntity
  8
NC_Work2
100
AcDbLine
 10
7.950000
 20
1.725000
 30
0.0
 11
7.950000
 21
1.975000
 31
0.0
  0
LINE
  5
4d
100
AcDbEntity
  8
NC_Work2
100
AcDbLine
 10
7.950000
 20
2.475000
 30
0.0
 11
8.500000
 21
2.475000
 31
0.0
  0
LINE
  5
4e
100
AcDbEntity
  8
NC_Work2
100
AcDbLine
 10
8.500000
 20
2.475000
 30
0.0
 11
8.500000
 21
2.225000
 31
0.0
  0
LINE
  5
4f
100
AcDbEntity
  8
NC_Work2
100
AcDbLine
 10
8.500000
 20
2.225000
 30
0.0
 11
7.950000
 21
2.225000
 31
0.0
  0
LINE
  5
50
100
AcDbEntity
  8
NC_Work2
100
AcDbLine
 10
7.950000
 20
2.225000
 30
0.0
 11
7.950000
 21
2.475000
 31
0.0
  0
LINE
  5
51
100
AcDbEntity
  8
NC_Work2
100
AcDbLine
 10
7.950000
 20
2.975000
 30
0.0
 11
8.500000
 21
2.975000
 31
0.0
  0
LINE
  5
52
100
AcDbEntity
  8
NC_Work2
100
AcDbLine
 10
8.500000
 20
2.975000
 30
0.0
 11
8.500000
 21
2.725000
 31
0.0
  0
LINE
  5
53
100
AcDbEntity
  8
NC_Work2
100
AcDbLine
 10
8.500000
 20
2.725000
 30
0.0
 11
7.950000
 21
2.725000
 31
0.0
  0
LINE
  5
54
100
AcDbEntity
  8
NC_Work2
100
AcDbLine
 10
7.950000
 20
2.725000
 30
0.0
 11
7.950000
 21
2.975000
 31
0.0
  0
LINE
  5
55
100
AcDbEntity
  8
NC_Work2
100
AcDbLine
 10
7.950000
 20
3.475000
 30
0.0
 11
8.500000
 21
3.475000
 31
0.0
  0
LINE
  5
56
100
AcDbEntity
  8
NC_Work2
100
AcDbLine
 10
8.500000
 20
3.475000
 30
0.0
 11
8.500000
 21
3.225000
 31
0.0
  0
LINE
  5
57
100
AcDbEntity
  8
NC_Work2
100
AcDbLine
 10
8.500000
 20
3.225000
 30
0.0
 11
7.950000
 21
3.225000
 31
0.0
  0
LINE
  5
58
100
AcDbEntity
  8
NC_Work2
100
AcDbLine
 10
7.950000
 20
3.225000
 30
0.0
 11
7.950000
 21
3.475000
 31
0.0
  0
LINE
  5
59
100
AcDbEntity
  8
NC_Work2
100
AcDbLine
 10
7.950000
 20
3.975000
 30
0.0
 11
8.500000
 21
3.975000
 31
0.0
  0
LINE
  5
5a
100
AcDbEntity
  8
NC_Work2
100
AcDbLine
 10
8.500000
 20
3.975000
 30
0.0
 11
8.500000
 21
3.725000
 31
0.0
  0
LINE
  5
5b
100
AcDbEntity
  8
NC_Work2
100
AcDbLine
 10
8.500000
 20
3.725000
 30
0.0
 11
7.950000
 21
3.725000
 31
0.0
  0
LINE
  5
5c
100
AcDbEntity
  8
NC_Work2
100
AcDbLine
 10
7.950000
 20
3.725000
 30
0.0
 11
7.950000
 21
3.975000
 31
0.0
  0
LINE
  5
5d
100
AcDbEntity
  8
NC_Work2
100
AcDbLine
 10
7.950000
 20
4.475000
 30
0.0
 11
8.500000
 21
4.475000
 31
0.0
  0
LINE
  5
5e
100
AcDbEntity
  8
NC_Work2
100
AcDbLine
 10
8.500000
 20
4.475000
 30
0.0
 11
8.500000
 21
4.225000
 31
0.0
  0
LINE
  5
5f
100
AcDbEntity
  8
NC_Work2
100
AcDbLine
 10
8.500000
 20
4.225000
 30
0.0
 11
7.950000
 21
4.225000
 31
0.0
  0
LINE
  5
60
100
AcDbEntity
  8
NC_Work2
100
AcDbLine
 10
7.950000
 20
4.225000
 30
0.0
 11
7.950000
 21
4.475000
 31
0.0
  0
LINE
  5
61
100
AcDbEntity
  8
NC_Work2
100
AcDbLine
 10
7.950000
 20
4.975000
 30
0.0
 11
8.500000
 21
4.975000
 31
0.0
  0
LINE
  5
62
100
AcDbEntity
  8
NC_Work2
100
AcDbLine
 10
8.500000
 20
4.975000
 30
0.0
 11
8.500000
 21
4.725000
 31
0.0
  0
LINE
  5
63
100
AcDbEntity
  8
NC_Work2
100
AcDbLine
 10
8.500000
 20
4.725000
 30
0.0
 11
7.950000
 21
4.725000
 31
0.0
  0
LINE
  5
64
100
AcDbEntity
  8
NC_Work2
100
AcDbLine
 10
7.950000
 20
4.725000
 30
0.0
 11
7.950000
 21
4.975000
 31
0.0
  0
LINE
  5
65
100
AcDbEntity
  8
NC_Work2
100
AcDbLine
 10
7.950000
 20
5.475000
 30
0.0
 11
8.500000
 21
5.475000
 31
0.0
  0
LINE
  5
66
100
AcDbEntity
  8
NC_Work2
100
AcDbLine
 10
8.500000
 20
5.475000
 30
0.0
 11
8.500000
 21
5.225000
 31
0.0
  0
LINE
  5
67
100
AcDbEntity
  8
NC_Work2
100
AcDbLine
 10
8.500000
 20
5.225000
 30
0.0
 11
7.950000
 21
5.225000
 31
0.0
  0
LINE
  5
68
100
AcDbEntity
  8
NC_Work2
100
AcDbLine
 10
7.950000
 20
5.225000
 30
0.0
 11
7.950000
 21
5.475000
 31
0.0
  0
LINE
  5
69
100
AcDbEntity
  8
NC_Work2
100
AcDbLine
 10
7.950000
 20
5.975000
 30
0.0
 11
8.500000
 21
5.975000
 31
0.0
  0
LINE
  5
6a
100
AcDbEntity
  8
NC_Work2
100
AcDbLine
 10
8.500000
 20
5.975000
 30
0.0
 11
8.500000
 21
5.725000
 31
0.0
  0
LINE
  5
6b
100
AcDbEntity
  8
NC_Work2
100
AcDbLine
 10
8.500000
 20
5.725000
 30
0.0
 11
7.950000
 21
5.725000
 31
0.0
  0
LINE
  5
6c
100
AcDbEntity
  8
NC_Work2
100
AcDbLine
 10
7.950000
 20
5.725000
 30
0.0
 11
7.950000
 21
5.975000
 31
0.0
  0
LINE
  5
6d
100
AcDbEntity
  8
NC_Work2
100
AcDbLine
 10
7.950000
 20
6.475000
 30
0.0
 11
8.500000
 21
6.475000
 31
0.0
  0
LINE
  5
6e
100
AcDbEntity
  8
NC_Work2
100
AcDbLine
 10
8.500000
 20
6.475000
 30
0.0
 11
8.500000
 21
6.225000
 31
0.0
  0
LINE
  5
6f
100
AcDbEntity
  8
NC_Work2
100
AcDbLine
 10
8.500000
 20
6.225000
 30
0.0
 11
7.950000
 21
6.225000
 31
0.0
  0
LINE
  5
70
100
AcDbEntity
  8
NC_Work2
100
AcDbLine
 10
7.950000
 20
6.225000
 30
0.0
 11
7.950000
 21
6.475000
 31
0.0
  0
LINE
  5
71
100
AcDbEntity
  8
NC_Work2
100
AcDbLine
 10
8.250000
 20
0.300000
 30
0.0
 11
8.250000
 21
0.850000
 31
0.0
  0
LINE
  5
72
100
AcDbEntity
  8
NC_Work2
100
AcDbLine
 10
8.250000
 20
0.850000
 30
0.0
 11
8.500000
 21
0.850000
 31
0.0
  0
LINE
  5
73
100
AcDbEntity
  8
NC_Work2
100
AcDbLine
 10
8.500000
 20
0.850000
 30
0.0
 11
8.500000
 21
0.300000
 31
0.0
  0
LINE
  5
74
100
AcDbEntity
  8
NC_Work2
100
AcDbLine
 10
8.500000
 20
0.300000
 30
0.0
 11
8.250000
 21
0.300000
 31
0.0
  0
LINE
  5
75
100
AcDbEntity
  8
NC_Work2
100
AcDbLine
 10
0.300000
 20
1.475000
 30
0.0
 11
0.850000
 21
1.475000
 31
0.0
  0
LINE
  5
76
100
AcDbEntity
  8
NC_Work2
100
AcDbLine
 10
0.850000
 20
1.475000
 30
0.0
 11
0.850000
 21
1.225000
 31
0.0
  0
LINE
  5
77
100
AcDbEntity
  8
NC_Work2
100
AcDbLine
 10
0.850000
 20
1.225000
 30
0.0
 11
0.300000
 21
1.225000
 31
0.0
  0
LINE
  5
78
100
AcDbEntity
  8
NC_Work2
100
AcDbLine
 10
0.300000
 20
1.225000
 30
0.0
 11
0.300000
 21
1.475000
 31
0.0
  0
LINE
  5
79
100
AcDbEntity
  8
NC_Work2
100
AcDbLine
 10
0.300000
 20
1.975000
 30
0.0
 11
0.850000
 21
1.975000
 31
0.0
  0
LINE
  5
7a
100
AcDbEntity
  8
NC_Work2
100
AcDbLine
 10
0.850000
 20
1.975000
 30
0.0
 11
0.850000
 21
1.725000
 31
0.0
  0
LINE
  5
7b
100
AcDbEntity
  8
NC_Work2
100
AcDbLine
 10
0.850000
 20
1.725000
 30
0.0
 11
0.300000
 21
1.725000
 31
0.0
  0
LINE
  5
7c
100
AcDbEntity
  8
NC_Work2
100
AcDbLine
 10
0.300000
 20
1.725000
 30
0.0
 11
0.300000
 21
1.975000
 31
0.0
  0
LINE
  5
7d
100
AcDbEntity
  8
NC_Work2
100
AcDbLine
 10
0.300000
 20
2.475000
 30
0.0
 11
0.850000
 21
2.475000
 31
0.0
  0
LINE
  5
7e
100
AcDbEntity
  8
NC_Work2
100
AcDbLine
 10
0.850000
 20
2.475000
 30
0.0
 11
0.850000
 21
2.225000
 31
0.0
  0
LINE
  5
7f
100
AcDbEntity
  8
NC_Work2
100
AcDbLine
 10
0.850000
 20
2.225000
 30
0.0
 11
0.300000
 21
2.225000
 31
0.0
  0
LINE
  5
80
100
AcDbEntity
  8
NC_Work2
100
AcDbLine
 10
0.300000
 20
2.225000
 30
0.0
 11
0.300000
 21
2.475000
 31
0.0
  0
LINE
  5
81
100
AcDbEntity
  8
NC_Work2
100
AcDbLine
 10
0.300000
 20
2.975000
 30
0.0
 11
0.850000
 21
2.975000
 31
0.0
  0
LINE
  5
82
100
AcDbEntity
  8
NC_Work2
100
AcDbLine
 10
0.850000
 20
2.975000
 30
0.0
 11
0.850000
 21
2.725000
 31
0.0
  0
LINE
  5
83
100
AcDbEntity
  8
NC_Work2
100
AcDbLine
 10
0.850000
 20
2.725000
 30
0.0
 11
0.300000
 21
2.725000
 31
0.0
  0
LINE
  5
84
100
AcDbEntity
  8
NC_Work2
100
AcDbLine
 10
0.300000
 20
2.725000
 30
0.0
 11
0.300000
 21
2.975000
 31
0.0
  0
LINE
  5
85
100
AcDbEntity
  8
NC_Work2
100
AcDbLine
 10
0.300000
 20
3.475000
 30
0.0
 11
0.850000
 21
3.475000
 31
0.0
  0
LINE
  5
86
100
AcDbEntity
  8
NC_Work2
100
AcDbLine
 10
0.850000
 20
3.475000
 30
0.0
 11
0.850000
 21
3.225000
 31
0.0
  0
LINE
  5
87
100
AcDbEntity
  8
NC_Work2
100
AcDbLine
 10
0.850000
 20
3.225000
 30
0.0
 11
0.300000
 21
3.225000
 31
0.0
  0
LINE
  5
88
100
AcDbEntity
  8
NC_Work2
100
AcDbLine
 10
0.300000
 20
3.225000
 30
0.0
 11
0.300000
 21
3.475000
 31
0.0
  0
LINE
  5
89
100
AcDbEntity
  8
NC_Work2
100
AcDbLine
 10
0.300000
 20
3.975000
 30
0.0
 11
0.850000
 21
3.975000
 31
0.0
  0
LINE
  5
8a
100
AcDbEntity
  8
NC_Work2
100
AcDbLine
 10
0.850000
 20
3.975000
 30
0.0
 11
0.850000
 21
3.725000
 31
0.0
  0
LINE
  5
8b
100
AcDbEntity
  8
NC_Work2
100
AcDbLine
 10
0.850000
 20
3.725000
 30
0.0
 11
0.300000
 21
3.725000
 31
0.0
  0
LINE
  5
8c
100
AcDbEntity
  8
NC_Work2
100
AcDbLine
 10
0.300000
 20
3.725000
 30
0.0
 11
0.300000
 21
3.975000
 31
0.0
  0
LINE
  5
8d
100
AcDbEntity
  8
NC_Work2
100
AcDbLine
 10
0.300000
 20
4.475000
 30
0.0
 11
0.850000
 21
4.475000
 31
0.0
  0
LINE
  5
8e
100
AcDbEntity
  8
NC_Work2
100
AcDbLine
 10
0.850000
 20
4.475000
 30
0.0
 11
0.850000
 21
4.225000
 31
0.0
  0
LINE
  5
8f
100
AcDbEntity
  8
NC_Work2
100
AcDbLine
 10
0.850000
 20
4.225000
 30
0.0
 11
0.300000
 21
4.225000
 31
0.0
  0
LINE
  5
90
100
AcDbEntity
  8
NC_Work2
100
AcDbLine
 10
0.300000
 20
4.225000
 30
0.0
 11
0.300000
 21
4.475000
 31
0.0
  0
LINE
  5
91
100
AcDbEntity
  8
NC_Work2
100
AcDbLine
 10
0.300000
 20
4.975000
 30
0.0
 11
0.850000
 21
4.975000
 31
0.0
  0
LINE
  5
92
100
AcDbEntity
  8
NC_Work2
100
AcDbLine
 10
0.850000
 20
4.975000
 30
0.0
 11
0.850000
 21
4.725000
 31
0.0
  0
LINE
  5
93
100
AcDbEntity
  8
NC_Work2
100
AcDbLine
 10
0.850000
 20
4.725000
 30
0.0
 11
0.300000
 21
4.725000
 31
0.0
  0
LINE
  5
94
100
AcDbEntity
  8
NC_Work2
100
AcDbLine
 10
0.300000
 20
4.725000
 30
0.0
 11
0.300000
 21
4.975000
 31
0.0
  0
LINE
  5
95
100
AcDbEntity
  8
NC_Work2
100
AcDbLine
 10
0.300000
 20
5.475000
 30
0.0
 11
0.850000
 21
5.475000
 31
0.0
  0
LINE
  5
96
100
AcDbEntity
  8
NC_Work2
100
AcDbLine
 10
0.850000
 20
5.475000
 30
0.0
 11
0.850000
 21
5.225000
 31
0.0
  0
LINE
  5
97
100
AcDbEntity
  8
NC_Work2
100
AcDbLine
 10
0.850000
 20
5.225000
 30
0.0
 11
0.300000
 21
5.225000
 31
0.0
  0
LINE
  5
98
100
AcDbEntity
  8
NC_Work2
100
AcDbLine
 10
0.300000
 20
5.225000
 30
0.0
 11
0.300000
 21
5.475000
 31
0.0
  0
LINE
  5
99
100
AcDbEntity
  8
NC_Work2
100
AcDbLine
 10
0.300000
 20
5.975000
 30
0.0
 11
0.850000
 21
5.975000
 31
0.0
  0
LINE
  5
9a
100
AcDbEntity
  8
NC_Work2
100
AcDbLine
 10
0.850000
 20
5.975000
 30
0.0
 11
0.850000
 21
5.725000
 31
0.0
  0
LINE
  5
9b
100
AcDbEntity
  8
NC_Work2
100
AcDbLine
 10
0.850000
 20
5.725000
 30
0.0
 11
0.300000
 21
5.725000
 31
0.0
  0
LINE
  5
9c
100
AcDbEntity
  8
NC_Work2
100
AcDbLine
 10
0.300000
 20
5.725000
 30
0.0
 11
0.300000
 21
5.975000
 31
0.0
  0
LINE
  5
9d
100
AcDbEntity
  8
NC_Work2
100
AcDbLine
 10
0.300000
 20
6.475000
 30
0.0
 11
0.850000
 21
6.475000
 31
0.0
  0
LINE
  5
9e
100
AcDbEntity
  8
NC_Work2
100
AcDbLine
 10
0.850000
 20
6.475000
 30
0.0
 11
0.850000
 21
6.225000
 31
0.0
  0
LINE
  5
9f
100
AcDbEntity
  8
NC_Work2
100
AcDbLine
 10
0.850000
 20
6.225000
 30
0.0
 11
0.300000
 21
6.225000
 31
0.0
  0
LINE
  5
a0
100
AcDbEntity
  8
NC_Work2
100
AcDbLine
 10
0.300000
 20
6.225000
 30
0.0
 11
0.300000
 21
6.475000
 31
0.0
  0
LINE
  5
a1
100
AcDbEntity
  8
NC_Work2
100
AcDbLine
 10
0.300000
 20
6.850000
 30
0.0
 11
0.300000
 21
7.400000
 31
0.0
  0
LINE
  5
a2
100
AcDbEntity
  8
NC_Work2
100
AcDbLine
 10
0.300000
 20
7.400000
 30
0.0
 11
0.550000
 21
7.400000
 31
0.0
  0
LINE
  5
a3
100
AcDbEntity
  8
NC_Work2
100
AcDbLine
 10
0.550000
 20
7.400000
 30
0.0
 11
0.550000
 21
6.850000
 31
0.0
  0
LINE
  5
a4
100
AcDbEntity
  8
NC_Work2
100
AcDbLine
 10
0.550000
 20
6.850000
 30
0.0
 11
0.300000
 21
6.850000
 31
0.0
  0
LINE
  5
a5
100
AcDbEntity
  8
NC_Work2
100
AcDbLine
 10
0.300000
 20
0.300000
 30
0.0
 11
0.300000
 21
0.850000
 31
0.0
  0
LINE
  5
a6
100
AcDbEntity
  8
NC_Work2
100
AcDbLine
 10
0.300000
 20
0.850000
 30
0.0
 11
0.550000
 21
0.850000
 31
0.0
  0
LINE
  5
a7
100
AcDbEntity
  8
NC_Work2
100
AcDbLine
 10
0.550000
 20
0.850000
 30
0.0
 11
0.550000
 21
0.300000
 31
0.0
  0
LINE
  5
a8
100
AcDbEntity
  8
NC_Work2
100
AcDbLine
 10
0.550000
 20
0.300000
 30
0.0
 11
0.300000
 21
0.300000
 31
0.0
  0
LINE
  5
a9
100
AcDbEntity
  8
NC_Work2
100
AcDbLine
 10
6.500000
 20
1.975000
 30
0.0
 11
7.050000
 21
1.975000
 31
0.0
  0
LINE
  5
aa
100
AcDbEntity
  8
NC_Work2
100
AcDbLine
 10
7.050000
 20
1.975000
 30
0.0
 11
7.050000
 21
1.725000
 31
0.0
  0
LINE
  5
ab
100
AcDbEntity
  8
NC_Work2
100
AcDbLine
 10
7.050000
 20
1.725000
 30
0.0
 11
6.500000
 21
1.725000
 31
0.0
  0
LINE
  5
ac
100
AcDbEntity
  8
NC_Work2
100
AcDbLine
 10
6.500000
 20
1.725000
 30
0.0
 11
6.500000
 21
1.975000
 31
0.0
  0
LINE
  5
ad
100
AcDbEntity
  8
NC_Work2
100
AcDbLine
 10
5.550000
 20
1.975000
 30
0.0
 11
6.100000
 21
1.975000
 31
0.0
  0
LINE
  5
ae
100
AcDbEntity
  8
NC_Work2
100
AcDbLine
 10
6.100000
 20
1.975000
 30
0.0
 11
6.100000
 21
1.725000
 31
0.0
  0
LINE
  5
af
100
AcDbEntity
  8
NC_Work2
100
AcDbLine
 10
6.100000
 20
1.725000
 30
0.0
 11
5.550000
 21
1.725000
 31
0.0
  0
LINE
  5
b0
100
AcDbEntity
  8
NC_Work2
100
AcDbLine
 10
5.550000
 20
1.725000
 30
0.0
 11
5.550000
 21
1.975000
 31
0.0
  0
LINE
  5
b1
100
AcDbEntity
  8
NC_Work2
100
AcDbLine
 10
4.600000
 20
1.975000
 30
0.0
 11
5.150000
 21
1.975000
 31
0.0
  0
LINE
  5
b2
100
AcDbEntity
  8
NC_Work2
100
AcDbLine
 10
5.150000
 20
1.975000
 30
0.0
 11
5.150000
 21
1.725000
 31
0.0
  0
LINE
  5
b3
100
AcDbEntity
  8
NC_Work2
100
AcDbLine
 10
5.150000
 20
1.725000
 30
0.0
 11
4.600000
 21
1.725000
 31
0.0
  0
LINE
  5
b4
100
AcDbEntity
  8
NC_Work2
100
AcDbLine
 10
4.600000
 20
1.725000
 30
0.0
 11
4.600000
 21
1.975000
 31
0.0
  0
LINE
  5
b5
100
AcDbEntity
  8
NC_Work2
100
AcDbLine
 10
3.650000
 20
1.975000
 30
0.0
 11
4.200000
 21
1.975000
 31
0.0
  0
LINE
  5
b6
100
AcDbEntity
  8
NC_Work2
100
AcDbLine
 10
4.200000
 20
1.975000
 30
0.0
 11
4.200000
 21
1.725000
 31
0.0
  0
LINE
  5
b7
100
AcDbEntity
  8
NC_Work2
100
AcDbLine
 10
4.200000
 20
1.725000
 30
0.0
 11
3.650000
 21
1.725000
 31
0.0
  0
LINE
  5
b8
100
AcDbEntity
  8
NC_Work2
100
AcDbLine
 10
3.650000
 20
1.725000
 30
0.0
 11
3.650000
 21
1.975000
 31
0.0
  0
LINE
  5
b9
100
AcDbEntity
  8
NC_Work2
100
AcDbLine
 10
2.700000
 20
1.975000
 30
0.0
 11
3.250000
 21
1.975000
 31
0.0
  0
LINE
  5
ba
100
AcDbEntity
  8
NC_Work2
100
AcDbLine
 10
3.250000
 20
1.975000
 30
0.0
 11
3.250000
 21
1.725000
 31
0.0
  0
LINE
  5
bb
100
AcDbEntity
  8
NC_Work2
100
AcDbLine
 10
3.250000
 20
1.725000
 30
0.0
 11
2.700000
 21
1.725000
 31
0.0
  0
LINE
  5
bc
100
AcDbEntity
  8
NC_Work2
100
AcDbLine
 10
2.700000
 20
1.725000
 30
0.0
 11
2.700000
 21
1.975000
 31
0.0
  0
LINE
  5
bd
100
AcDbEntity
  8
NC_Work2
100
AcDbLine
 10
6.500000
 20
5.975000
 30
0.0
 11
7.050000
 21
5.975000
 31
0.0
  0
LINE
  5
be
100
AcDbEntity
  8
NC_Work2
100
AcDbLine
 10
7.050000
 20
5.975000
 30
0.0
 11
7.050000
 21
5.725000
 31
0.0
  0
LINE
  5
bf
100
AcDbEntity
  8
NC_Work2
100
AcDbLine
 10
7.050000
 20
5.725000
 30
0.0
 11
6.500000
 21
5.725000
 31
0.0
  0
LINE
  5
c0
100
AcDbEntity
  8
NC_Work2
100
AcDbLine
 10
6.500000
 20
5.725000
 30
0.0
 11
6.500000
 21
5.975000
 31
0.0
  0
LINE
  5
c1
100
AcDbEntity
  8
NC_Work2
100
AcDbLine
 10
5.550000
 20
5.975000
 30
0.0
 11
6.100000
 21
5.975000
 31
0.0
  0
LINE
  5
c2
100
AcDbEntity
  8
NC_Work2
100
AcDbLine
 10
6.100000
 20
5.975000
 30
0.0
 11
6.100000
 21
5.725000
 31
0.0
  0
LINE
  5
c3
100
AcDbEntity
  8
NC_Work2
100
AcDbLine
 10
6.100000
 20
5.725000
 30
0.0
 11
5.550000
 21
5.725000
 31
0.0
  0
LINE
  5
c4
100
AcDbEntity
  8
NC_Work2
100
AcDbLine
 10
5.550000
 20
5.725000
 30
0.0
 11
5.550000
 21
5.975000
 31
0.0
  0
LINE
  5
c5
100
AcDbEntity
  8
NC_Work2
100
AcDbLine
 10
4.600000
 20
5.975000
 30
0.0
 11
5.150000
 21
5.975000
 31
0.0
  0
LINE
  5
c6
100
AcDbEntity
  8
NC_Work2
100
AcDbLine
 10
5.150000
 20
5.975000
 30
0.0
 11
5.150000
 21
5.725000
 31
0.0
  0
LINE
  5
c7
100
AcDbEntity
  8
NC_Work2
100
AcDbLine
 10
5.150000
 20
5.725000
 30
0.0
 11
4.600000
 21
5.725000
 31
0.0
  0
LINE
  5
c8
100
AcDbEntity
  8
NC_Work2
100
AcDbLine
 10
4.600000
 20
5.725000
 30
0.0
 11
4.600000
 21
5.975000
 31
0.0
  0
LINE
  5
c9
100
AcDbEntity
  8
NC_Work2
100
AcDbLine
 10
3.650000
 20
5.975000
 30
0.0
 11
4.200000
 21
5.975000
 31
0.0
  0
LINE
  5
ca
100
AcDbEntity
  8
NC_Work2
100
AcDbLine
 10
4.200000
 20
5.975000
 30
0.0
 11
4.200000
 21
5.725000
 31
0.0
  0
LINE
  5
cb
100
AcDbEntity
  8
NC_Work2
100
AcDbLine
 10
4.200000
 20
5.725000
 30
0.0
 11
3.650000
 21
5.725000
 31
0.0
  0
LINE
  5
cc
100
AcDbEntity
  8
NC_Work2
100
AcDbLine
 10
3.650000
 20
5.725000
 30
0.0
 11
3.650000
 21
5.975000
 31
0.0
  0
LINE
  5
cd
100
AcDbEntity
  8
NC_Work2
100
AcDbLine
 10
2.700000
 20
5.975000
 30
0.0
 11
3.250000
 21
5.975000
 31
0.0
  0
LINE
  5
ce
100
AcDbEntity
  8
NC_Work2
100
AcDbLine
 10
3.250000
 20
5.975000
 30
0.0
 11
3.250000
 21
5.725000
 31
0.0
  0
LINE
  5
cf
100
AcDbEntity
  8
NC_Work2
100
AcDbLine
 10
3.250000
 20
5.725000
 30
0.0
 11
2.700000
 21
5.725000
 31
0.0
  0
LINE
  5
d0
100
AcDbEntity
  8
NC_Work2
100
AcDbLine
 10
2.700000
 20
5.725000
 30
0.0
 11
2.700000
 21
5.975000
 31
0.0
  0
LINE
  5
d1
100
AcDbEntity
  8
NC_Work2
100
AcDbLine
 10
1.750000
 20
5.975000
 30
0.0
 11
2.300000
 21
5.975000
 31
0.0
  0
LINE
  5
d2
100
AcDbEntity
  8
NC_Work2
100
AcDbLine
 10
2.300000
 20
5.975000
 30
0.0
 11
2.300000
 21
5.725000
 31
0.0
  0
LINE
  5
d3
100
AcDbEntity
  8
NC_Work2
100
AcDbLine
 10
2.300000
 20
5.725000
 30
0.0
 11
1.750000
 21
5.725000
 31
0.0
  0
LINE
  5
d4
100
AcDbEntity
  8
NC_Work2
100
AcDbLine
 10
1.750000
 20
5.725000
 30
0.0
 11
1.750000
 21
5.975000
 31
0.0
  0
LINE
  5
d5
100
AcDbEntity
  8
NC_Work2
100
AcDbLine
 10
1.750000
 20
2.475000
 30
0.0
 11
2.300000
 21
2.475000
 31
0.0
  0
LINE
  5
d6
100
AcDbEntity
  8
NC_Work2
100
AcDbLine
 10
2.300000
 20
2.475000
 30
0.0
 11
2.300000
 21
2.225000
 31
0.0
  0
LINE
  5
d7
100
AcDbEntity
  8
NC_Work2
100
AcDbLine
 10
2.300000
 20
2.225000
 30
0.0
 11
1.750000
 21
2.225000
 31
0.0
  0
LINE
  5
d8
100
AcDbEntity
  8
NC_Work2
100
AcDbLine
 10
1.750000
 20
2.225000
 30
0.0
 11
1.750000
 21
2.475000
 31
0.0
  0
LINE
  5
d9
100
AcDbEntity
  8
NC_Work2
100
AcDbLine
 10
1.750000
 20
2.975000
 30
0.0
 11
2.300000
 21
2.975000
 31
0.0
  0
LINE
  5
da
100
AcDbEntity
  8
NC_Work2
100
AcDbLine
 10
2.300000
 20
2.975000
 30
0.0
 11
2.300000
 21
2.725000
 31
0.0
  0
LINE
  5
db
100
AcDbEntity
  8
NC_Work2
100
AcDbLine
 10
2.300000
 20
2.725000
 30
0.0
 11
1.750000
 21
2.725000
 31
0.0
  0
LINE
  5
dc
100
AcDbEntity
  8
NC_Work2
100
AcDbLine
 10
1.750000
 20
2.725000
 30
0.0
 11
1.750000
 21
2.975000
 31
0.0
  0
LINE
  5
dd
100
AcDbEntity
  8
NC_Work2
100
AcDbLine
 10
1.750000
 20
3.475000
 30
0.0
 11
2.300000
 21
3.475000
 31
0.0
  0
LINE
  5
de
100
AcDbEntity
  8
NC_Work2
100
AcDbLine
 10
2.300000
 20
3.475000
 30
0.0
 11
2.300000
 21
3.225000
 31
0.0
  0
LINE
  5
df
100
AcDbEntity
  8
NC_Work2
100
AcDbLine
 10
2.300000
 20
3.225000
 30
0.0
 11
1.750000
 21
3.225000
 31
0.0
  0
LINE
  5
e0
100
AcDbEntity
  8
NC_Work2
100
AcDbLine
 10
1.750000
 20
3.225000
 30
0.0
 11
1.750000
 21
3.475000
 31
0.0
  0
LINE
  5
e1
100
AcDbEntity
  8
NC_Work2
100
AcDbLine
 10
1.750000
 20
3.975000
 30
0.0
 11
2.300000
 21
3.975000
 31
0.0
  0
LINE
  5
e2
100
AcDbEntity
  8
NC_Work2
100
AcDbLine
 10
2.300000
 20
3.975000
 30
0.0
 11
2.300000
 21
3.725000
 31
0.0
  0
LINE
  5
e3
100
AcDbEntity
  8
NC_Work2
100
AcDbLine
 10
2.300000
 20
3.725000
 30
0.0
 11
1.750000
 21
3.725000
 31
0.0
  0
LINE
  5
e4
100
AcDbEntity
  8
NC_Work2
100
AcDbLine
 10
1.750000
 20
3.725000
 30
0.0
 11
1.750000
 21
3.975000
 31
0.0
  0
LINE
  5
e5
100
AcDbEntity
  8
NC_Work2
100
AcDbLine
 10
1.750000
 20
4.475000
 30
0.0
 11
2.300000
 21
4.475000
 31
0.0
  0
LINE
  5
e6
100
AcDbEntity
  8
NC_Work2
100
AcDbLine
 10
2.300000
 20
4.475000
 30
0.0
 11
2.300000
 21
4.225000
 31
0.0
  0
LINE
  5
e7
100
AcDbEntity
  8
NC_Work2
100
AcDbLine
 10
2.300000
 20
4.225000
 30
0.0
 11
1.750000
 21
4.225000
 31
0.0
  0
LINE
  5
e8
100
AcDbEntity
  8
NC_Work2
100
AcDbLine
 10
1.750000
 20
4.225000
 30
0.0
 11
1.750000
 21
4.475000
 31
0.0
  0
LINE
  5
e9
100
AcDbEntity
  8
NC_Work2
100
AcDbLine
 10
1.750000
 20
4.975000
 30
0.0
 11
2.300000
 21
4.975000
 31
0.0
  0
LINE
  5
ea
100
AcDbEntity
  8
NC_Work2
100
AcDbLine
 10
2.300000
 20
4.975000
 30
0.0
 11
2.300000
 21
4.725000
 31
0.0
  0
LINE
  5
eb
100
AcDbEntity
  8
NC_Work2
100
AcDbLine
 10
2.300000
 20
4.725000
 30
0.0
 11
1.750000
 21
4.725000
 31
0.0
  0
LINE
  5
ec
100
AcDbEntity
  8
NC_Work2
100
AcDbLine
 10
1.750000
 20
4.725000
 30
0.0
 11
1.750000
 21
4.975000
 31
0.0
  0
LINE
  5
ed
100
AcDbEntity
  8
NC_Work2
100
AcDbLine
 10
1.750000
 20
5.475000
 30
0.0
 11
2.300000
 21
5.475000
 31
0.0
  0
LINE
  5
ee
100
AcDbEntity
  8
NC_Work2
100
AcDbLine
 10
2.300000
 20
5.475000
 30
0.0
 11
2.300000
 21
5.225000
 31
0.0
  0
LINE
  5
ef
100
AcDbEntity
  8
NC_Work2
100
AcDbLine
 10
2.300000
 20
5.225000
 30
0.0
 11
1.750000
 21
5.225000
 31
0.0
  0
LINE
  5
f0
100
AcDbEntity
  8
NC_Work2
100
AcDbLine
 10
1.750000
 20
5.225000
 30
0.0
 11
1.750000
 21
5.475000
 31
0.0
  0
LINE
  5
f1
100
AcDbEntity
  8
NC_Work2
100
AcDbLine
 10
2.700000
 20
2.475000
 30
0.0
 11
3.250000
 21
2.475000
 31
0.0
  0
LINE
  5
f2
100
AcDbEntity
  8
NC_Work2
100
AcDbLine
 10
3.250000
 20
2.475000
 30
0.0
 11
3.250000
 21
2.225000
 31
0.0
  0
LINE
  5
f3
100
AcDbEntity
  8
NC_Work2
100
AcDbLine
 10
3.250000
 20
2.225000
 30
0.0
 11
2.700000
 21
2.225000
 31
0.0
  0
LINE
  5
f4
100
AcDbEntity
  8
NC_Work2
100
AcDbLine
 10
2.700000
 20
2.225000
 30
0.0
 11
2.700000
 21
2.475000
 31
0.0
  0
LINE
  5
f5
100
AcDbEntity
  8
NC_Work2
100
AcDbLine
 10
2.700000
 20
2.975000
 30
0.0
 11
3.250000
 21
2.975000
 31
0.0
  0
LINE
  5
f6
100
AcDbEntity
  8
NC_Work2
100
AcDbLine
 10
3.250000
 20
2.975000
 30
0.0
 11
3.250000
 21
2.725000
 31
0.0
  0
LINE
  5
f7
100
AcDbEntity
  8
NC_Work2
100
AcDbLine
 10
3.250000
 20
2.725000
 30
0.0
 11
2.700000
 21
2.725000
 31
0.0
  0
LINE
  5
f8
100
AcDbEntity
  8
NC_Work2
100
AcDbLine
 10
2.700000
 20
2.725000
 30
0.0
 11
2.700000
 21
2.975000
 31
0.0
  0
LINE
  5
f9
100
AcDbEntity
  8
NC_Work2
100
AcDbLine
 10
2.700000
 20
3.475000
 30
0.0
 11
3.250000
 21
3.475000
 31
0.0
  0
LINE
  5
fa
100
AcDbEntity
  8
NC_Work2
100
AcDbLine
 10
3.250000
 20
3.475000
 30
0.0
 11
3.250000
 21
3.225000
 31
0.0
  0
LINE
  5
fb
100
AcDbEntity
  8
NC_Work2
100
AcDbLine
 10
3.250000
 20
3.225000
 30
0.0
 11
2.700000
 21
3.225000
 31
0.0
  0
LINE
  5
fc
100
AcDbEntity
  8
NC_Work2
100
AcDbLine
 10
2.700000
 20
3.225000
 30
0.0
 11
2.700000
 21
3.475000
 31
0.0
  0
LINE
  5
fd
100
AcDbEntity
  8
NC_Work2
100
AcDbLine
 10
2.700000
 20
3.975000
 30
0.0
 11
3.250000
 21
3.975000
 31
0.0
  0
LINE
  5
fe
100
AcDbEntity
  8
NC_Work2
100
AcDbLine
 10
3.250000
 20
3.975000
 30
0.0
 11
3.250000
 21
3.725000
 31
0.0
  0
LINE
  5
ff
100
AcDbEntity
  8
NC_Work2
100
AcDbLine
 10
3.250000
 20
3.725000
 30
0.0
 11
2.700000
 21
3.725000
 31
0.0
  0
LINE
  5
100
100
AcDbEntity
  8
NC_Work2
100
AcDbLine
 10
2.700000
 20
3.725000
 30
0.0
 11
2.700000
 21
3.975000
 31
0.0
  0
LINE
  5
101
100
AcDbEntity
  8
NC_Work2
100
AcDbLine
 10
2.700000
 20
4.475000
 30
0.0
 11
3.250000
 21
4.475000
 31
0.0
  0
LINE
  5
102
100
AcDbEntity
  8
NC_Work2
100
AcDbLine
 10
3.250000
 20
4.475000
 30
0.0
 11
3.250000
 21
4.225000
 31
0.0
  0
LINE
  5
103
100
AcDbEntity
  8
NC_Work2
100
AcDbLine
 10
3.250000
 20
4.225000
 30
0.0
 11
2.700000
 21
4.225000
 31
0.0
  0
LINE
  5
104
100
AcDbEntity
  8
NC_Work2
100
AcDbLine
 10
2.700000
 20
4.225000
 30
0.0
 11
2.700000
 21
4.475000
 31
0.0
  0
LINE
  5
105
100
AcDbEntity
  8
NC_Work2
100
AcDbLine
 10
2.700000
 20
4.975000
 30
0.0
 11
3.250000
 21
4.975000
 31
0.0
  0
LINE
  5
106
100
AcDbEntity
  8
NC_Work2
100
AcDbLine
 10
3.250000
 20
4.975000
 30
0.0
 11
3.250000
 21
4.725000
 31
0.0
  0
LINE
  5
107
100
AcDbEntity
  8
NC_Work2
100
AcDbLine
 10
3.250000
 20
4.725000
 30
0.0
 11
2.700000
 21
4.725000
 31
0.0
  0
LINE
  5
108
100
AcDbEntity
  8
NC_Work2
100
AcDbLine
 10
2.700000
 20
4.725000
 30
0.0
 11
2.700000
 21
4.975000
 31
0.0
  0
LINE
  5
109
100
AcDbEntity
  8
NC_Work2
100
AcDbLine
 10
2.700000
 20
5.475000
 30
0.0
 11
3.250000
 21
5.475000
 31
0.0
  0
LINE
  5
10a
100
AcDbEntity
  8
NC_Work2
100
AcDbLine
 10
3.250000
 20
5.475000
 30
0.0
 11
3.250000
 21
5.225000
 31
0.0
  0
LINE
  5
10b
100
AcDbEntity
  8
NC_Work2
100
AcDbLine
 10
3.250000
 20
5.225000
 30
0.0
 11
2.700000
 21
5.225000
 31
0.0
  0
LINE
  5
10c
100
AcDbEntity
  8
NC_Work2
100
AcDbLine
 10
2.700000
 20
5.225000
 30
0.0
 11
2.700000
 21
5.475000
 31
0.0
  0
LINE
  5
10d
100
AcDbEntity
  8
NC_Work2
100
AcDbLine
 10
3.650000
 20
2.475000
 30
0.0
 11
4.200000
 21
2.475000
 31
0.0
  0
LINE
  5
10e
100
AcDbEntity
  8
NC_Work2
100
AcDbLine
 10
4.200000
 20
2.475000
 30
0.0
 11
4.200000
 21
2.225000
 31
0.0
  0
LINE
  5
10f
100
AcDbEntity
  8
NC_Work2
100
AcDbLine
 10
4.200000
 20
2.225000
 30
0.0
 11
3.650000
 21
2.225000
 31
0.0
  0
LINE
  5
110
100
AcDbEntity
  8
NC_Work2
100
AcDbLine
 10
3.650000
 20
2.225000
 30
0.0
 11
3.650000
 21
2.475000
 31
0.0
  0
LINE
  5
111
100
AcDbEntity
  8
NC_Work2
100
AcDbLine
 10
3.650000
 20
2.975000
 30
0.0
 11
4.200000
 21
2.975000
 31
0.0
  0
LINE
  5
112
100
AcDbEntity
  8
NC_Work2
100
AcDbLine
 10
4.200000
 20
2.975000
 30
0.0
 11
4.200000
 21
2.725000
 31
0.0
  0
LINE
  5
113
100
AcDbEntity
  8
NC_Work2
100
AcDbLine
 10
4.200000
 20
2.725000
 30
0.0
 11
3.650000
 21
2.725000
 31
0.0
  0
LINE
  5
114
100
AcDbEntity
  8
NC_Work2
100
AcDbLine
 10
3.650000
 20
2.725000
 30
0.0
 11
3.650000
 21
2.975000
 31
0.0
  0
LINE
  5
115
100
AcDbEntity
  8
NC_Work2
100
AcDbLine
 10
3.650000
 20
3.475000
 30
0.0
 11
4.200000
 21
3.475000
 31
0.0
  0
LINE
  5
116
100
AcDbEntity
  8
NC_Work2
100
AcDbLine
 10
4.200000
 20
3.475000
 30
0.0
 11
4.200000
 21
3.225000
 31
0.0
  0
LINE
  5
117
100
AcDbEntity
  8
NC_Work2
100
AcDbLine
 10
4.200000
 20
3.225000
 30
0.0
 11
3.650000
 21
3.225000
 31
0.0
  0
LINE
  5
118
100
AcDbEntity
  8
NC_Work2
100
AcDbLine
 10
3.650000
 20
3.225000
 30
0.0
 11
3.650000
 21
3.475000
 31
0.0
  0
LINE
  5
119
100
AcDbEntity
  8
NC_Work2
100
AcDbLine
 10
3.650000
 20
3.975000
 30
0.0
 11
4.200000
 21
3.975000
 31
0.0
  0
LINE
  5
11a
100
AcDbEntity
  8
NC_Work2
100
AcDbLine
 10
4.200000
 20
3.975000
 30
0.0
 11
4.200000
 21
3.725000
 31
0.0
  0
LINE
  5
11b
100
AcDbEntity
  8
NC_Work2
100
AcDbLine
 10
4.200000
 20
3.725000
 30
0.0
 11
3.650000
 21
3.725000
 31
0.0
  0
LINE
  5
11c
100
AcDbEntity
  8
NC_Work2
100
AcDbLine
 10
3.650000
 20
3.725000
 30
0.0
 11
3.650000
 21
3.975000
 31
0.0
  0
LINE
  5
11d
100
AcDbEntity
  8
NC_Work2
100
AcDbLine
 10
3.650000
 20
4.475000
 30
0.0
 11
4.200000
 21
4.475000
 31
0.0
  0
LINE
  5
11e
100
AcDbEntity
  8
NC_Work2
100
AcDbLine
 10
4.200000
 20
4.475000
 30
0.0
 11
4.200000
 21
4.225000
 31
0.0
  0
LINE
  5
11f
100
AcDbEntity
  8
NC_Work2
100
AcDbLine
 10
4.200000
 20
4.225000
 30
0.0
 11
3.650000
 21
4.225000
 31
0.0
  0
LINE
  5
120
100
AcDbEntity
  8
NC_Work2
100
AcDbLine
 10
3.650000
 20
4.225000
 30
0.0
 11
3.650000
 21
4.475000
 31
0.0
  0
LINE
  5
121
100
AcDbEntity
  8
NC_Work2
100
AcDbLine
 10
3.650000
 20
4.975000
 30
0.0
 11
4.200000
 21
4.975000
 31
0.0
  0
LINE
  5
122
100
AcDbEntity
  8
NC_Work2
100
AcDbLine
 10
4.200000
 20
4.975000
 30
0.0
 11
4.200000
 21
4.725000
 31
0.0
  0
LINE
  5
123
100
AcDbEntity
  8
NC_Work2
100
AcDbLine
 10
4.200000
 20
4.725000
 30
0.0
 11
3.650000
 21
4.725000
 31
0.0
  0
LINE
  5
124
100
AcDbEntity
  8
NC_Work2
100
AcDbLine
 10
3.650000
 20
4.725000
 30
0.0
 11
3.650000
 21
4.975000
 31
0.0
  0
LINE
  5
125
100
AcDbEntity
  8
NC_Work2
100
AcDbLine
 10
3.650000
 20
5.475000
 30
0.0
 11
4.200000
 21
5.475000
 31
0.0
  0
LINE
  5
126
100
AcDbEntity
  8
NC_Work2
100
AcDbLine
 10
4.200000
 20
5.475000
 30
0.0
 11
4.200000
 21
5.225000
 31
0.0
  0
LINE
  5
127
100
AcDbEntity
  8
NC_Work2
100
AcDbLine
 10
4.200000
 20
5.225000
 30
0.0
 11
3.650000
 21
5.225000
 31
0.0
  0
LINE
  5
128
100
AcDbEntity
  8
NC_Work2
100
AcDbLine
 10
3.650000
 20
5.225000
 30
0.0
 11
3.650000
 21
5.475000
 31
0.0
  0
LINE
  5
129
100
AcDbEntity
  8
NC_Work2
100
AcDbLine
 10
4.600000
 20
2.475000
 30
0.0
 11
5.150000
 21
2.475000
 31
0.0
  0
LINE
  5
12a
100
AcDbEntity
  8
NC_Work2
100
AcDbLine
 10
5.150000
 20
2.475000
 30
0.0
 11
5.150000
 21
2.225000
 31
0.0
  0
LINE
  5
12b
100
AcDbEntity
  8
NC_Work2
100
AcDbLine
 10
5.150000
 20
2.225000
 30
0.0
 11
4.600000
 21
2.225000
 31
0.0
  0
LINE
  5
12c
100
AcDbEntity
  8
NC_Work2
100
AcDbLine
 10
4.600000
 20
2.225000
 30
0.0
 11
4.600000
 21
2.475000
 31
0.0
  0
LINE
  5
12d
100
AcDbEntity
  8
NC_Work2
100
AcDbLine
 10
4.600000
 20
2.975000
 30
0.0
 11
5.150000
 21
2.975000
 31
0.0
  0
LINE
  5
12e
100
AcDbEntity
  8
NC_Work2
100
AcDbLine
 10
5.150000
 20
2.975000
 30
0.0
 11
5.150000
 21
2.725000
 31
0.0
  0
LINE
  5
12f
100
AcDbEntity
  8
NC_Work2
100
AcDbLine
 10
5.150000
 20
2.725000
 30
0.0
 11
4.600000
 21
2.725000
 31
0.0
  0
LINE
  5
130
100
AcDbEntity
  8
NC_Work2
100
AcDbLine
 10
4.600000
 20
2.725000
 30
0.0
 11
4.600000
 21
2.975000
 31
0.0
  0
LINE
  5
131
100
AcDbEntity
  8
NC_Work2
100
AcDbLine
 10
4.600000
 20
3.475000
 30
0.0
 11
5.150000
 21
3.475000
 31
0.0
  0
LINE
  5
132
100
AcDbEntity
  8
NC_Work2
100
AcDbLine
 10
5.150000
 20
3.475000
 30
0.0
 11
5.150000
 21
3.225000
 31
0.0
  0
LINE
  5
133
100
AcDbEntity
  8
NC_Work2
100
AcDbLine
 10
5.150000
 20
3.225000
 30
0.0
 11
4.600000
 21
3.225000
 31
0.0
  0
LINE
  5
134
100
AcDbEntity
  8
NC_Work2
100
AcDbLine
 10
4.600000
 20
3.225000
 30
0.0
 11
4.600000
 21
3.475000
 31
0.0
  0
LINE
  5
135
100
AcDbEntity
  8
NC_Work2
100
AcDbLine
 10
4.600000
 20
3.975000
 30
0.0
 11
5.150000
 21
3.975000
 31
0.0
  0
LINE
  5
136
100
AcDbEntity
  8
NC_Work2
100
AcDbLine
 10
5.150000
 20
3.975000
 30
0.0
 11
5.150000
 21
3.725000
 31
0.0
  0
LINE
  5
137
100
AcDbEntity
  8
NC_Work2
100
AcDbLine
 10
5.150000
 20
3.725000
 30
0.0
 11
4.600000
 21
3.725000
 31
0.0
  0
LINE
  5
138
100
AcDbEntity
  8
NC_Work2
100
AcDbLine
 10
4.600000
 20
3.725000
 30
0.0
 11
4.600000
 21
3.975000
 31
0.0
  0
LINE
  5
139
100
AcDbEntity
  8
NC_Work2
100
AcDbLine
 10
4.600000
 20
4.475000
 30
0.0
 11
5.150000
 21
4.475000
 31
0.0
  0
LINE
  5
13a
100
AcDbEntity
  8
NC_Work2
100
AcDbLine
 10
5.150000
 20
4.475000
 30
0.0
 11
5.150000
 21
4.225000
 31
0.0
  0
LINE
  5
13b
100
AcDbEntity
  8
NC_Work2
100
AcDbLine
 10
5.150000
 20
4.225000
 30
0.0
 11
4.600000
 21
4.225000
 31
0.0
  0
LINE
  5
13c
100
AcDbEntity
  8
NC_Work2
100
AcDbLine
 10
4.600000
 20
4.225000
 30
0.0
 11
4.600000
 21
4.475000
 31
0.0
  0
LINE
  5
13d
100
AcDbEntity
  8
NC_Work2
100
AcDbLine
 10
4.600000
 20
4.975000
 30
0.0
 11
5.150000
 21
4.975000
 31
0.0
  0
LINE
  5
13e
100
AcDbEntity
  8
NC_Work2
100
AcDbLine
 10
5.150000
 20
4.975000
 30
0.0
 11
5.150000
 21
4.725000
 31
0.0
  0
LINE
  5
13f
100
AcDbEntity
  8
NC_Work2
100
AcDbLine
 10
5.150000
 20
4.725000
 30
0.0
 11
4.600000
 21
4.725000
 31
0.0
  0
LINE
  5
140
100
AcDbEntity
  8
NC_Work2
100
AcDbLine
 10
4.600000
 20
4.725000
 30
0.0
 11
4.600000
 21
4.975000
 31
0.0
  0
LINE
  5
141
100
AcDbEntity
  8
NC_Work2
100
AcDbLine
 10
4.600000
 20
5.475000
 30
0.0
 11
5.150000
 21
5.475000
 31
0.0
  0
LINE
  5
142
100
AcDbEntity
  8
NC_Work2
100
AcDbLine
 10
5.150000
 20
5.475000
 30
0.0
 11
5.150000
 21
5.225000
 31
0.0
  0
LINE
  5
143
100
AcDbEntity
  8
NC_Work2
100
AcDbLine
 10
5.150000
 20
5.225000
 30
0.0
 11
4.600000
 21
5.225000
 31
0.0
  0
LINE
  5
144
100
AcDbEntity
  8
NC_Work2
100
AcDbLine
 10
4.600000
 20
5.225000
 30
0.0
 11
4.600000
 21
5.475000
 31
0.0
  0
LINE
  5
145
100
AcDbEntity
  8
NC_Work2
100
AcDbLine
 10
5.550000
 20
2.475000
 30
0.0
 11
6.100000
 21
2.475000
 31
0.0
  0
LINE
  5
146
100
AcDbEntity
  8
NC_Work2
100
AcDbLine
 10
6.100000
 20
2.475000
 30
0.0
 11
6.100000
 21
2.225000
 31
0.0
  0
LINE
  5
147
100
AcDbEntity
  8
NC_Work2
100
AcDbLine
 10
6.100000
 20
2.225000
 30
0.0
 11
5.550000
 21
2.225000
 31
0.0
  0
LINE
  5
148
100
AcDbEntity
  8
NC_Work2
100
AcDbLine
 10
5.550000
 20
2.225000
 30
0.0
 11
5.550000
 21
2.475000
 31
0.0
  0
LINE
  5
149
100
AcDbEntity
  8
NC_Work2
100
AcDbLine
 10
5.550000
 20
2.975000
 30
0.0
 11
6.100000
 21
2.975000
 31
0.0
  0
LINE
  5
14a
100
AcDbEntity
  8
NC_Work2
100
AcDbLine
 10
6.100000
 20
2.975000
 30
0.0
 11
6.100000
 21
2.725000
 31
0.0
  0
LINE
  5
14b
100
AcDbEntity
  8
NC_Work2
100
AcDbLine
 10
6.100000
 20
2.725000
 30
0.0
 11
5.550000
 21
2.725000
 31
0.0
  0
LINE
  5
14c
100
AcDbEntity
  8
NC_Work2
100
AcDbLine
 10
5.550000
 20
2.725000
 30
0.0
 11
5.550000
 21
2.975000
 31
0.0
  0
LINE
  5
14d
100
AcDbEntity
  8
NC_Work2
100
AcDbLine
 10
5.550000
 20
3.475000
 30
0.0
 11
6.100000
 21
3.475000
 31
0.0
  0
LINE
  5
14e
100
AcDbEntity
  8
NC_Work2
100
AcDbLine
 10
6.100000
 20
3.475000
 30
0.0
 11
6.100000
 21
3.225000
 31
0.0
  0
LINE
  5
14f
100
AcDbEntity
  8
NC_Work2
100
AcDbLine
 10
6.100000
 20
3.225000
 30
0.0
 11
5.550000
 21
3.225000
 31
0.0
  0
LINE
  5
150
100
AcDbEntity
  8
NC_Work2
100
AcDbLine
 10
5.550000
 20
3.225000
 30
0.0
 11
5.550000
 21
3.475000
 31
0.0
  0
LINE
  5
151
100
AcDbEntity
  8
NC_Work2
100
AcDbLine
 10
5.550000
 20
3.975000
 30
0.0
 11
6.100000
 21
3.975000
 31
0.0
  0
LINE
  5
152
100
AcDbEntity
  8
NC_Work2
100
AcDbLine
 10
6.100000
 20
3.975000
 30
0.0
 11
6.100000
 21
3.725000
 31
0.0
  0
LINE
  5
153
100
AcDbEntity
  8
NC_Work2
100
AcDbLine
 10
6.100000
 20
3.725000
 30
0.0
 11
5.550000
 21
3.725000
 31
0.0
  0
LINE
  5
154
100
AcDbEntity
  8
NC_Work2
100
AcDbLine
 10
5.550000
 20
3.725000
 30
0.0
 11
5.550000
 21
3.975000
 31
0.0
  0
LINE
  5
155
100
AcDbEntity
  8
NC_Work2
100
AcDbLine
 10
5.550000
 20
4.475000
 30
0.0
 11
6.100000
 21
4.475000
 31
0.0
  0
LINE
  5
156
100
AcDbEntity
  8
NC_Work2
100
AcDbLine
 10
6.100000
 20
4.475000
 30
0.0
 11
6.100000
 21
4.225000
 31
0.0
  0
LINE
  5
157
100
AcDbEntity
  8
NC_Work2
100
AcDbLine
 10
6.100000
 20
4.225000
 30
0.0
 11
5.550000
 21
4.225000
 31
0.0
  0
LINE
  5
158
100
AcDbEntity
  8
NC_Work2
100
AcDbLine
 10
5.550000
 20
4.225000
 30
0.0
 11
5.550000
 21
4.475000
 31
0.0
  0
LINE
  5
159
100
AcDbEntity
  8
NC_Work2
100
AcDbLine
 10
5.550000
 20
4.975000
 30
0.0
 11
6.100000
 21
4.975000
 31
0.0
  0
LINE
  5
15a
100
AcDbEntity
  8
NC_Work2
100
AcDbLine
 10
6.100000
 20
4.975000
 30
0.0
 11
6.100000
 21
4.725000
 31
0.0
  0
LINE
  5
15b
100
AcDbEntity
  8
NC_Work2
100
AcDbLine
 10
6.100000
 20
4.725000
 30
0.0
 11
5.550000
 21
4.725000
 31
0.0
  0
LINE
  5
15c
100
AcDbEntity
  8
NC_Work2
100
AcDbLine
 10
5.550000
 20
4.725000
 30
0.0
 11
5.550000
 21
4.975000
 31
0.0
  0
LINE
  5
15d
100
AcDbEntity
  8
NC_Work2
100
AcDbLine
 10
5.550000
 20
5.475000
 30
0.0
 11
6.100000
 21
5.475000
 31
0.0
  0
LINE
  5
15e
100
AcDbEntity
  8
NC_Work2
100
AcDbLine
 10
6.100000
 20
5.475000
 30
0.0
 11
6.100000
 21
5.225000
 31
0.0
  0
LINE
  5
15f
100
AcDbEntity
  8
NC_Work2
100
AcDbLine
 10
6.100000
 20
5.225000
 30
0.0
 11
5.550000
 21
5.225000
 31
0.0
  0
LINE
  5
160
100
AcDbEntity
  8
NC_Work2
100
AcDbLine
 10
5.550000
 20
5.225000
 30
0.0
 11
5.550000
 21
5.475000
 31
0.0
  0
LINE
  5
161
100
AcDbEntity
  8
NC_Work2
100
AcDbLine
 10
6.500000
 20
5.475000
 30
0.0
 11
7.050000
 21
5.475000
 31
0.0
  0
LINE
  5
162
100
AcDbEntity
  8
NC_Work2
100
AcDbLine
 10
7.050000
 20
5.475000
 30
0.0
 11
7.050000
 21
5.225000
 31
0.0
  0
LINE
  5
163
100
AcDbEntity
  8
NC_Work2
100
AcDbLine
 10
7.050000
 20
5.225000
 30
0.0
 11
6.500000
 21
5.225000
 31
0.0
  0
LINE
  5
164
100
AcDbEntity
  8
NC_Work2
100
AcDbLine
 10
6.500000
 20
5.225000
 30
0.0
 11
6.500000
 21
5.475000
 31
0.0
  0
LINE
  5
165
100
AcDbEntity
  8
NC_Work2
100
AcDbLine
 10
6.500000
 20
4.975000
 30
0.0
 11
7.050000
 21
4.975000
 31
0.0
  0
LINE
  5
166
100
AcDbEntity
  8
NC_Work2
100
AcDbLine
 10
7.050000
 20
4.975000
 30
0.0
 11
7.050000
 21
4.725000
 31
0.0
  0
LINE
  5
167
100
AcDbEntity
  8
NC_Work2
100
AcDbLine
 10
7.050000
 20
4.725000
 30
0.0
 11
6.500000
 21
4.725000
 31
0.0
  0
LINE
  5
168
100
AcDbEntity
  8
NC_Work2
100
AcDbLine
 10
6.500000
 20
4.725000
 30
0.0
 11
6.500000
 21
4.975000
 31
0.0
  0
LINE
  5
169
100
AcDbEntity
  8
NC_Work2
100
AcDbLine
 10
6.500000
 20
4.475000
 30
0.0
 11
7.050000
 21
4.475000
 31
0.0
  0
LINE
  5
16a
100
AcDbEntity
  8
NC_Work2
100
AcDbLine
 10
7.050000
 20
4.475000
 30
0.0
 11
7.050000
 21
4.225000
 31
0.0
  0
LINE
  5
16b
100
AcDbEntity
  8
NC_Work2
100
AcDbLine
 10
7.050000
 20
4.225000
 30
0.0
 11
6.500000
 21
4.225000
 31
0.0
  0
LINE
  5
16c
100
AcDbEntity
  8
NC_Work2
100
AcDbLine
 10
6.500000
 20
4.225000
 30
0.0
 11
6.500000
 21
4.475000
 31
0.0
  0
LINE
  5
16d
100
AcDbEntity
  8
NC_Work2
100
AcDbLine
 10
6.500000
 20
3.975000
 30
0.0
 11
7.050000
 21
3.975000
 31
0.0
  0
LINE
  5
16e
100
AcDbEntity
  8
NC_Work2
100
AcDbLine
 10
7.050000
 20
3.975000
 30
0.0
 11
7.050000
 21
3.725000
 31
0.0
  0
LINE
  5
16f
100
AcDbEntity
  8
NC_Work2
100
AcDbLine
 10
7.050000
 20
3.725000
 30
0.0
 11
6.500000
 21
3.725000
 31
0.0
  0
LINE
  5
170
100
AcDbEntity
  8
NC_Work2
100
AcDbLine
 10
6.500000
 20
3.725000
 30
0.0
 11
6.500000
 21
3.975000
 31
0.0
  0
LINE
  5
171
100
AcDbEntity
  8
NC_Work2
100
AcDbLine
 10
6.500000
 20
3.475000
 30
0.0
 11
7.050000
 21
3.475000
 31
0.0
  0
LINE
  5
172
100
AcDbEntity
  8
NC_Work2
100
AcDbLine
 10
7.050000
 20
3.475000
 30
0.0
 11
7.050000
 21
3.225000
 31
0.0
  0
LINE
  5
173
100
AcDbEntity
  8
NC_Work2
100
AcDbLine
 10
7.050000
 20
3.225000
 30
0.0
 11
6.500000
 21
3.225000
 31
0.0
  0
LINE
  5
174
100
AcDbEntity
  8
NC_Work2
100
AcDbLine
 10
6.500000
 20
3.225000
 30
0.0
 11
6.500000
 21
3.475000
 31
0.0
  0
LINE
  5
175
100
AcDbEntity
  8
NC_Work2
100
AcDbLine
 10
6.500000
 20
2.975000
 30
0.0
 11
7.050000
 21
2.975000
 31
0.0
  0
LINE
  5
176
100
AcDbEntity
  8
NC_Work2
100
AcDbLine
 10
7.050000
 20
2.975000
 30
0.0
 11
7.050000
 21
2.725000
 31
0.0
  0
LINE
  5
177
100
AcDbEntity
  8
NC_Work2
100
AcDbLine
 10
7.050000
 20
2.725000
 30
0.0
 11
6.500000
 21
2.725000
 31
0.0
  0
LINE
  5
178
100
AcDbEntity
  8
NC_Work2
100
AcDbLine
 10
6.500000
 20
2.725000
 30
0.0
 11
6.500000
 21
2.975000
 31
0.0
  0
LINE
  5
179
100
AcDbEntity
  8
NC_Work2
100
AcDbLine
 10
6.500000
 20
2.475000
 30
0.0
 11
7.050000
 21
2.475000
 31
0.0
  0
LINE
  5
17a
100
AcDbEntity
  8
NC_Work2
100
AcDbLine
 10
7.050000
 20
2.475000
 30
0.0
 11
7.050000
 21
2.225000
 31
0.0
  0
LINE
  5
17b
100
AcDbEntity
  8
NC_Work2
100
AcDbLine
 10
7.050000
 20
2.225000
 30
0.0
 11
6.500000
 21
2.225000
 31
0.0
  0
LINE
  5
17c
100
AcDbEntity
  8
NC_Work2
100
AcDbLine
 10
6.500000
 20
2.225000
 30
0.0
 11
6.500000
 21
2.475000
 31
0.0
  0
LINE
  5
17d
100
AcDbEntity
  8
NC_Work2
100
AcDbLine
 10
1.025000
 20
0.300000
 30
0.0
 11
1.025000
 21
0.850000
 31
0.0
  0
LINE
  5
17e
100
AcDbEntity
  8
NC_Work2
100
AcDbLine
 10
1.025000
 20
0.850000
 30
0.0
 11
1.275000
 21
0.850000
 31
0.0
  0
LINE
  5
17f
100
AcDbEntity
  8
NC_Work2
100
AcDbLine
 10
1.275000
 20
0.850000
 30
0.0
 11
1.275000
 21
0.300000
 31
0.0
  0
LINE
  5
180
100
AcDbEntity
  8
NC_Work2
100
AcDbLine
 10
1.275000
 20
0.300000
 30
0.0
 11
1.025000
 21
0.300000
 31
0.0
  0
LINE
  5
181
100
AcDbEntity
  8
NC_Work2
100
AcDbLine
 10
2.025000
 20
6.850000
 30
0.0
 11
2.025000
 21
7.400000
 31
0.0
  0
LINE
  5
182
100
AcDbEntity
  8
NC_Work2
100
AcDbLine
 10
2.025000
 20
7.400000
 30
0.0
 11
2.275000
 21
7.400000
 31
0.0
  0
LINE
  5
183
100
AcDbEntity
  8
NC_Work2
100
AcDbLine
 10
2.275000
 20
7.400000
 30
0.0
 11
2.275000
 21
6.850000
 31
0.0
  0
LINE
  5
184
100
AcDbEntity
  8
NC_Work2
100
AcDbLine
 10
2.275000
 20
6.850000
 30
0.0
 11
2.025000
 21
6.850000
 31
0.0
  0
LINE
  5
185
100
AcDbEntity
  8
NC_Work2
100
AcDbLine
 10
4.525000
 20
6.850000
 30
0.0
 11
4.525000
 21
7.400000
 31
0.0
  0
LINE
  5
186
100
AcDbEntity
  8
NC_Work2
100
AcDbLine
 10
4.525000
 20
7.400000
 30
0.0
 11
4.775000
 21
7.400000
 31
0.0
  0
LINE
  5
187
100
AcDbEntity
  8
NC_Work2
100
AcDbLine
 10
4.775000
 20
7.400000
 30
0.0
 11
4.775000
 21
6.850000
 31
0.0
  0
LINE
  5
188
100
AcDbEntity
  8
NC_Work2
100
AcDbLine
 10
4.775000
 20
6.850000
 30
0.0
 11
4.525000
 21
6.850000
 31
0.0
  0
LINE
  5
189
100
AcDbEntity
  8
NC_Work2
100
AcDbLine
 10
7.025000
 20
6.850000
 30
0.0
 11
7.025000
 21
7.400000
 31
0.0
  0
LINE
  5
18a
100
AcDbEntity
  8
NC_Work2
100
AcDbLine
 10
7.025000
 20
7.400000
 30
0.0
 11
7.275000
 21
7.400000
 31
0.0
  0
LINE
  5
18b
100
AcDbEntity
  8
NC_Work2
100
AcDbLine
 10
7.275000
 20
7.400000
 30
0.0
 11
7.275000
 21
6.850000
 31
0.0
  0
LINE
  5
18c
100
AcDbEntity
  8
NC_Work2
100
AcDbLine
 10
7.275000
 20
6.850000
 30
0.0
 11
7.025000
 21
6.850000
 31
0.0
  0
LINE
  5
18d
100
AcDbEntity
  8
NC_Work2
100
AcDbLine
 10
2.525000
 20
6.850000
 30
0.0
 11
2.525000
 21
7.400000
 31
0.0
  0
LINE
  5
18e
100
AcDbEntity
  8
NC_Work2
100
AcDbLine
 10
2.525000
 20
7.400000
 30
0.0
 11
2.775000
 21
7.400000
 31
0.0
  0
LINE
  5
18f
100
AcDbEntity
  8
NC_Work2
100
AcDbLine
 10
2.775000
 20
7.400000
 30
0.0
 11
2.775000
 21
6.850000
 31
0.0
  0
LINE
  5
190
100
AcDbEntity
  8
NC_Work2
100
AcDbLine
 10
2.775000
 20
6.850000
 30
0.0
 11
2.525000
 21
6.850000
 31
0.0
  0
LINE
  5
191
100
AcDbEntity
  8
NC_Work2
100
AcDbLine
 10
5.025000
 20
6.850000
 30
0.0
 11
5.025000
 21
7.400000
 31
0.0
  0
LINE
  5
192
100
AcDbEntity
  8
NC_Work2
100
AcDbLine
 10
5.025000
 20
7.400000
 30
0.0
 11
5.275000
 21
7.400000
 31
0.0
  0
LINE
  5
193
100
AcDbEntity
  8
NC_Work2
100
AcDbLine
 10
5.275000
 20
7.400000
 30
0.0
 11
5.275000
 21
6.850000
 31
0.0
  0
LINE
  5
194
100
AcDbEntity
  8
NC_Work2
100
AcDbLine
 10
5.275000
 20
6.850000
 30
0.0
 11
5.025000
 21
6.850000
 31
0.0
  0
LINE
  5
195
100
AcDbEntity
  8
NC_Work2
100
AcDbLine
 10
7.525000
 20
6.850000
 30
0.0
 11
7.525000
 21
7.400000
 31
0.0
  0
LINE
  5
196
100
AcDbEntity
  8
NC_Work2
100
AcDbLine
 10
7.525000
 20
7.400000
 30
0.0
 11
7.775000
 21
7.400000
 31
0.0
  0
LINE
  5
197
100
AcDbEntity
  8
NC_Work2
100
AcDbLine
 10
7.775000
 20
7.400000
 30
0.0
 11
7.775000
 21
6.850000
 31
0.0
  0
LINE
  5
198
100
AcDbEntity
  8
NC_Work2
100
AcDbLine
 10
7.775000
 20
6.850000
 30
0.0
 11
7.525000
 21
6.850000
 31
0.0
  0
LINE
  5
199
100
AcDbEntity
  8
NC_Work2
100
AcDbLine
 10
3.025000
 20
6.850000
 30
0.0
 11
3.025000
 21
7.400000
 31
0.0
  0
LINE
  5
19a
100
AcDbEntity
  8
NC_Work2
100
AcDbLine
 10
3.025000
 20
7.400000
 30
0.0
 11
3.275000
 21
7.400000
 31
0.0
  0
LINE
  5
19b
100
AcDbEntity
  8
NC_Work2
100
AcDbLine
 10
3.275000
 20
7.400000
 30
0.0
 11
3.275000
 21
6.850000
 31
0.0
  0
LINE
  5
19c
100
AcDbEntity
  8
NC_Work2
100
AcDbLine
 10
3.275000
 20
6.850000
 30
0.0
 11
3.025000
 21
6.850000
 31
0.0
  0
LINE
  5
19d
100
AcDbEntity
  8
NC_Work2
100
AcDbLine
 10
5.525000
 20
6.850000
 30
0.0
 11
5.525000
 21
7.400000
 31
0.0
  0
LINE
  5
19e
100
AcDbEntity
  8
NC_Work2
100
AcDbLine
 10
5.525000
 20
7.400000
 30
0.0
 11
5.775000
 21
7.400000
 31
0.0
  0
LINE
  5
19f
100
AcDbEntity
  8
NC_Work2
100
AcDbLine
 10
5.775000
 20
7.400000
 30
0.0
 11
5.775000
 21
6.850000
 31
0.0
  0
LINE
  5
1a0
100
AcDbEntity
  8
NC_Work2
100
AcDbLine
 10
5.775000
 20
6.850000
 30
0.0
 11
5.525000
 21
6.850000
 31
0.0
  0
LINE
  5
1a1
100
AcDbEntity
  8
NC_Work2
100
AcDbLine
 10
1.025000
 20
6.850000
 30
0.0
 11
1.025000
 21
7.400000
 31
0.0
  0
LINE
  5
1a2
100
AcDbEntity
  8
NC_Work2
100
AcDbLine
 10
1.025000
 20
7.400000
 30
0.0
 11
1.275000
 21
7.400000
 31
0.0
  0
LINE
  5
1a3
100
AcDbEntity
  8
NC_Work2
100
AcDbLine
 10
1.275000
 20
7.400000
 30
0.0
 11
1.275000
 21
6.850000
 31
0.0
  0
LINE
  5
1a4
100
AcDbEntity
  8
NC_Work2
100
AcDbLine
 10
1.275000
 20
6.850000
 30
0.0
 11
1.025000
 21
6.850000
 31
0.0
  0
LINE
  5
1a5
100
AcDbEntity
  8
NC_Work2
100
AcDbLine
 10
3.525000
 20
6.850000
 30
0.0
 11
3.525000
 21
7.400000
 31
0.0
  0
LINE
  5
1a6
100
AcDbEntity
  8
NC_Work2
100
AcDbLine
 10
3.525000
 20
7.400000
 30
0.0
 11
3.775000
 21
7.400000
 31
0.0
  0
LINE
  5
1a7
100
AcDbEntity
  8
NC_Work2
100
AcDbLine
 10
3.775000
 20
7.400000
 30
0.0
 11
3.775000
 21
6.850000
 31
0.0
  0
LINE
  5
1a8
100
AcDbEntity
  8
NC_Work2
100
AcDbLine
 10
3.775000
 20
6.850000
 30
0.0
 11
3.525000
 21
6.850000
 31
0.0
  0
LINE
  5
1a9
100
AcDbEntity
  8
NC_Work2
100
AcDbLine
 10
6.025000
 20
6.850000
 30
0.0
 11
6.025000
 21
7.400000
 31
0.0
  0
LINE
  5
1aa
100
AcDbEntity
  8
NC_Work2
100
AcDbLine
 10
6.025000
 20
7.400000
 30
0.0
 11
6.275000
 21
7.400000
 31
0.0
  0
LINE
  5
1ab
100
AcDbEntity
  8
NC_Work2
100
AcDbLine
 10
6.275000
 20
7.400000
 30
0.0
 11
6.275000
 21
6.850000
 31
0.0
  0
LINE
  5
1ac
100
AcDbEntity
  8
NC_Work2
100
AcDbLine
 10
6.275000
 20
6.850000
 30
0.0
 11
6.025000
 21
6.850000
 31
0.0
  0
LINE
  5
1ad
100
AcDbEntity
  8
NC_Work2
100
AcDbLine
 10
1.525000
 20
6.850000
 30
0.0
 11
1.525000
 21
7.400000
 31
0.0
  0
LINE
  5
1ae
100
AcDbEntity
  8
NC_Work2
100
AcDbLine
 10
1.525000
 20
7.400000
 30
0.0
 11
1.775000
 21
7.400000
 31
0.0
  0
LINE
  5
1af
100
AcDbEntity
  8
NC_Work2
100
AcDbLine
 10
1.775000
 20
7.400000
 30
0.0
 11
1.775000
 21
6.850000
 31
0.0
  0
LINE
  5
1b0
100
AcDbEntity
  8
NC_Work2
100
AcDbLine
 10
1.775000
 20
6.850000
 30
0.0
 11
1.525000
 21
6.850000
 31
0.0
  0
LINE
  5
1b1
100
AcDbEntity
  8
NC_Work2
100
AcDbLine
 10
4.025000
 20
6.850000
 30
0.0
 11
4.025000
 21
7.400000
 31
0.0
  0
LINE
  5
1b2
100
AcDbEntity
  8
NC_Work2
100
AcDbLine
 10
4.025000
 20
7.400000
 30
0.0
 11
4.275000
 21
7.400000
 31
0.0
  0
LINE
  5
1b3
100
AcDbEntity
  8
NC_Work2
100
AcDbLine
 10
4.275000
 20
7.400000
 30
0.0
 11
4.275000
 21
6.850000
 31
0.0
  0
LINE
  5
1b4
100
AcDbEntity
  8
NC_Work2
100
AcDbLine
 10
4.275000
 20
6.850000
 30
0.0
 11
4.025000
 21
6.850000
 31
0.0
  0
LINE
  5
1b5
100
AcDbEntity
  8
NC_Work2
100
AcDbLine
 10
6.525000
 20
6.850000
 30
0.0
 11
6.525000
 21
7.400000
 31
0.0
  0
LINE
  5
1b6
100
AcDbEntity
  8
NC_Work2
100
AcDbLine
 10
6.525000
 20
7.400000
 30
0.0
 11
6.775000
 21
7.400000
 31
0.0
  0
LINE
  5
1b7
100
AcDbEntity
  8
NC_Work2
100
AcDbLine
 10
6.775000
 20
7.400000
 30
0.0
 11
6.775000
 21
6.850000
 31
0.0
  0
LINE
  5
1b8
100
AcDbEntity
  8
NC_Work2
100
AcDbLine
 10
6.775000
 20
6.850000
 30
0.0
 11
6.525000
 21
6.850000
 31
0.0
  0
LINE
  5
1b9
100
AcDbEntity
  8
NC_Work2
100
AcDbLine
 10
7.525000
 20
0.300000
 30
0.0
 11
7.525000
 21
0.850000
 31
0.0
  0
LINE
  5
1ba
100
AcDbEntity
  8
NC_Work2
100
AcDbLine
 10
7.525000
 20
0.850000
 30
0.0
 11
7.775000
 21
0.850000
 31
0.0
  0
LINE
  5
1bb
100
AcDbEntity
  8
NC_Work2
100
AcDbLine
 10
7.775000
 20
0.850000
 30
0.0
 11
7.775000
 21
0.300000
 31
0.0
  0
LINE
  5
1bc
100
AcDbEntity
  8
NC_Work2
100
AcDbLine
 10
7.775000
 20
0.300000
 30
0.0
 11
7.525000
 21
0.300000
 31
0.0
  0
LINE
  5
1bd
100
AcDbEntity
  8
NC_Work2
100
AcDbLine
 10
7.025000
 20
0.300000
 30
0.0
 11
7.025000
 21
0.850000
 31
0.0
  0
LINE
  5
1be
100
AcDbEntity
  8
NC_Work2
100
AcDbLine
 10
7.025000
 20
0.850000
 30
0.0
 11
7.275000
 21
0.850000
 31
0.0
  0
LINE
  5
1bf
100
AcDbEntity
  8
NC_Work2
100
AcDbLine
 10
7.275000
 20
0.850000
 30
0.0
 11
7.275000
 21
0.300000
 31
0.0
  0
LINE
  5
1c0
100
AcDbEntity
  8
NC_Work2
100
AcDbLine
 10
7.275000
 20
0.300000
 30
0.0
 11
7.025000
 21
0.300000
 31
0.0
  0
LINE
  5
1c1
100
AcDbEntity
  8
NC_Work2
100
AcDbLine
 10
6.525000
 20
0.300000
 30
0.0
 11
6.525000
 21
0.850000
 31
0.0
  0
LINE
  5
1c2
100
AcDbEntity
  8
NC_Work2
100
AcDbLine
 10
6.525000
 20
0.850000
 30
0.0
 11
6.775000
 21
0.850000
 31
0.0
  0
LINE
  5
1c3
100
AcDbEntity
  8
NC_Work2
100
AcDbLine
 10
6.775000
 20
0.850000
 30
0.0
 11
6.775000
 21
0.300000
 31
0.0
  0
LINE
  5
1c4
100
AcDbEntity
  8
NC_Work2
100
AcDbLine
 10
6.775000
 20
0.300000
 30
0.0
 11
6.525000
 21
0.300000
 31
0.0
  0
LINE
  5
1c5
100
AcDbEntity
  8
NC_Work2
100
AcDbLine
 10
6.025000
 20
0.300000
 30
0.0
 11
6.025000
 21
0.850000
 31
0.0
  0
LINE
  5
1c6
100
AcDbEntity
  8
NC_Work2
100
AcDbLine
 10
6.025000
 20
0.850000
 30
0.0
 11
6.275000
 21
0.850000
 31
0.0
  0
LINE
  5
1c7
100
AcDbEntity
  8
NC_Work2
100
AcDbLine
 10
6.275000
 20
0.850000
 30
0.0
 11
6.275000
 21
0.300000
 31
0.0
  0
LINE
  5
1c8
100
AcDbEntity
  8
NC_Work2
100
AcDbLine
 10
6.275000
 20
0.300000
 30
0.0
 11
6.025000
 21
0.300000
 31
0.0
  0
LINE
  5
1c9
100
AcDbEntity
  8
NC_Work2
100
AcDbLine
 10
5.525000
 20
0.300000
 30
0.0
 11
5.525000
 21
0.850000
 31
0.0
  0
LINE
  5
1ca
100
AcDbEntity
  8
NC_Work2
100
AcDbLine
 10
5.525000
 20
0.850000
 30
0.0
 11
5.775000
 21
0.850000
 31
0.0
  0
LINE
  5
1cb
100
AcDbEntity
  8
NC_Work2
100
AcDbLine
 10
5.775000
 20
0.850000
 30
0.0
 11
5.775000
 21
0.300000
 31
0.0
  0
LINE
  5
1cc
100
AcDbEntity
  8
NC_Work2
100
AcDbLine
 10
5.775000
 20
0.300000
 30
0.0
 11
5.525000
 21
0.300000
 31
0.0
  0
LINE
  5
1cd
100
AcDbEntity
  8
NC_Work2
100
AcDbLine
 10
5.025000
 20
0.300000
 30
0.0
 11
5.025000
 21
0.850000
 31
0.0
  0
LINE
  5
1ce
100
AcDbEntity
  8
NC_Work2
100
AcDbLine
 10
5.025000
 20
0.850000
 30
0.0
 11
5.275000
 21
0.850000
 31
0.0
  0
LINE
  5
1cf
100
AcDbEntity
  8
NC_Work2
100
AcDbLine
 10
5.275000
 20
0.850000
 30
0.0
 11
5.275000
 21
0.300000
 31
0.0
  0
LINE
  5
1d0
100
AcDbEntity
  8
NC_Work2
100
AcDbLine
 10
5.275000
 20
0.300000
 30
0.0
 11
5.025000
 21
0.300000
 31
0.0
  0
LINE
  5
1d1
100
AcDbEntity
  8
NC_Work2
100
AcDbLine
 10
4.525000
 20
0.300000
 30
0.0
 11
4.525000
 21
0.850000
 31
0.0
  0
LINE
  5
1d2
100
AcDbEntity
  8
NC_Work2
100
AcDbLine
 10
4.525000
 20
0.850000
 30
0.0
 11
4.775000
 21
0.850000
 31
0.0
  0
LINE
  5
1d3
100
AcDbEntity
  8
NC_Work2
100
AcDbLine
 10
4.775000
 20
0.850000
 30
0.0
 11
4.775000
 21
0.300000
 31
0.0
  0
LINE
  5
1d4
100
AcDbEntity
  8
NC_Work2
100
AcDbLine
 10
4.775000
 20
0.300000
 30
0.0
 11
4.525000
 21
0.300000
 31
0.0
  0
LINE
  5
1d5
100
AcDbEntity
  8
NC_Work2
100
AcDbLine
 10
4.025000
 20
0.300000
 30
0.0
 11
4.025000
 21
0.850000
 31
0.0
  0
LINE
  5
1d6
100
AcDbEntity
  8
NC_Work2
100
AcDbLine
 10
4.025000
 20
0.850000
 30
0.0
 11
4.275000
 21
0.850000
 31
0.0
  0
LINE
  5
1d7
100
AcDbEntity
  8
NC_Work2
100
AcDbLine
 10
4.275000
 20
0.850000
 30
0.0
 11
4.275000
 21
0.300000
 31
0.0
  0
LINE
  5
1d8
100
AcDbEntity
  8
NC_Work2
100
AcDbLine
 10
4.275000
 20
0.300000
 30
0.0
 11
4.025000
 21
0.300000
 31
0.0
  0
LINE
  5
1d9
100
AcDbEntity
  8
NC_Work2
100
AcDbLine
 10
3.525000
 20
0.300000
 30
0.0
 11
3.525000
 21
0.850000
 31
0.0
  0
LINE
  5
1da
100
AcDbEntity
  8
NC_Work2
100
AcDbLine
 10
3.525000
 20
0.850000
 30
0.0
 11
3.775000
 21
0.850000
 31
0.0
  0
LINE
  5
1db
100
AcDbEntity
  8
NC_Work2
100
AcDbLine
 10
3.775000
 20
0.850000
 30
0.0
 11
3.775000
 21
0.300000
 31
0.0
  0
LINE
  5
1dc
100
AcDbEntity
  8
NC_Work2
100
AcDbLine
 10
3.775000
 20
0.300000
 30
0.0
 11
3.525000
 21
0.300000
 31
0.0
  0
LINE
  5
1dd
100
AcDbEntity
  8
NC_Work2
100
AcDbLine
 10
3.025000
 20
0.300000
 30
0.0
 11
3.025000
 21
0.850000
 31
0.0
  0
LINE
  5
1de
100
AcDbEntity
  8
NC_Work2
100
AcDbLine
 10
3.025000
 20
0.850000
 30
0.0
 11
3.275000
 21
0.850000
 31
0.0
  0
LINE
  5
1df
100
AcDbEntity
  8
NC_Work2
100
AcDbLine
 10
3.275000
 20
0.850000
 30
0.0
 11
3.275000
 21
0.300000
 31
0.0
  0
LINE
  5
1e0
100
AcDbEntity
  8
NC_Work2
100
AcDbLine
 10
3.275000
 20
0.300000
 30
0.0
 11
3.025000
 21
0.300000
 31
0.0
  0
LINE
  5
1e1
100
AcDbEntity
  8
NC_Work2
100
AcDbLine
 10
2.525000
 20
0.300000
 30
0.0
 11
2.525000
 21
0.850000
 31
0.0
  0
LINE
  5
1e2
100
AcDbEntity
  8
NC_Work2
100
AcDbLine
 10
2.525000
 20
0.850000
 30
0.0
 11
2.775000
 21
0.850000
 31
0.0
  0
LINE
  5
1e3
100
AcDbEntity
  8
NC_Work2
100
AcDbLine
 10
2.775000
 20
0.850000
 30
0.0
 11
2.775000
 21
0.300000
 31
0.0
  0
LINE
  5
1e4
100
AcDbEntity
  8
NC_Work2
100
AcDbLine
 10
2.775000
 20
0.300000
 30
0.0
 11
2.525000
 21
0.300000
 31
0.0
  0
LINE
  5
1e5
100
AcDbEntity
  8
NC_Work2
100
AcDbLine
 10
2.025000
 20
0.300000
 30
0.0
 11
2.025000
 21
0.850000
 31
0.0
  0
LINE
  5
1e6
100
AcDbEntity
  8
NC_Work2
100
AcDbLine
 10
2.025000
 20
0.850000
 30
0.0
 11
2.275000
 21
0.850000
 31
0.0
  0
LINE
  5
1e7
100
AcDbEntity
  8
NC_Work2
100
AcDbLine
 10
2.275000
 20
0.850000
 30
0.0
 11
2.275000
 21
0.300000
 31
0.0
  0
LINE
  5
1e8
100
AcDbEntity
  8
NC_Work2
100
AcDbLine
 10
2.275000
 20
0.300000
 30
0.0
 11
2.025000
 21
0.300000
 31
0.0
  0
LINE
  5
1e9
100
AcDbEntity
  8
NC_Work2
100
AcDbLine
 10
1.525000
 20
0.300000
 30
0.0
 11
1.525000
 21
0.850000
 31
0.0
  0
LINE
  5
1ea
100
AcDbEntity
  8
NC_Work2
100
AcDbLine
 10
1.525000
 20
0.850000
 30
0.0
 11
1.775000
 21
0.850000
 31
0.0
  0
LINE
  5
1eb
100
AcDbEntity
  8
NC_Work2
100
AcDbLine
 10
1.775000
 20
0.850000
 30
0.0
 11
1.775000
 21
0.300000
 31
0.0
  0
LINE
  5
1ec
100
AcDbEntity
  8
NC_Work2
100
AcDbLine
 10
1.775000
 20
0.300000
 30
0.0
 11
1.525000
 21
0.300000
 31
0.0
  0
TEXT
  5
1ed
100
AcDbEntity
  8
NC_Work2
100
AcDbText
 10
1.891000
 20
-1.250000
 30
0.0
 40
0.500000
 41
1.003600
 50
0.000000
  1
(TOP VIEW)
100
AcDbText
  0
ENDSEC
  0
SECTION
  2
OBJECTS
  0
DICTIONARY
  5
1ee
100
AcDbDictionary
  3
ACAD_GROUP
350
1ef
  3
ACAD_MLINESTYLE
350
1f0
  0
DICTIONARY
  5
1ef
102
{ACAD_REACTORS
330
1ee
102
}
100
AcDbDictionary
  0
DICTIONARY
  5
1f0
102
{ACAD_REACTORS
330
1ee
102
}
100
AcDbDictionary
  3
STANDARD
350
1f1
  0
MLINESTYLE
  5
1f1
102
{ACAD_REACTORS
330
1f0
102
}
100
AcDbMlineStyle
  2
STANDARD
 70
0
  3

 62
256
 51
90.0
 52
90.0
 71
2
 49
0.5
 62
256
  6
BYLAYER
 49
-0.5
 62
256
  6
BYLAYER
  0
ENDSEC
  0
EOF
