%TF.GenerationSoftware,KiCad,Pcbnew,9.0.2+dfsg-1*%
%TF.CreationDate,2026-06-04T19:35:06-04:00*%
%TF.ProjectId,Zoë,43415045-2d42-42d3-922e-6b696361645f,A-STUB*%
%TF.SameCoordinates,Original*%
%TF.FileFunction,Soldermask,Bot*%
%TF.FilePolarity,Negative*%
%FSLAX46Y46*%
G04 Gerber Fmt 4.6, Leading zero omitted, Abs format (unit mm)*
G04 Created by KiCad (PCBNEW 9.0.2+dfsg-1) date 2026-06-04 19:35:06*
%MOMM*%
%LPD*%
G01*
G04 APERTURE LIST*
G04 Aperture macros list*
%AMRoundRect*
0 Rectangle with rounded corners*
0 $1 Rounding radius*
0 $2 $3 $4 $5 $6 $7 $8 $9 X,Y pos of 4 corners*
0 Add a 4 corners polygon primitive as box body*
4,1,4,$2,$3,$4,$5,$6,$7,$8,$9,$2,$3,0*
0 Add four circle primitives for the rounded corners*
1,1,$1+$1,$2,$3*
1,1,$1+$1,$4,$5*
1,1,$1+$1,$6,$7*
1,1,$1+$1,$8,$9*
0 Add four rect primitives between the rounded corners*
20,1,$1+$1,$2,$3,$4,$5,0*
20,1,$1+$1,$4,$5,$6,$7,0*
20,1,$1+$1,$6,$7,$8,$9,0*
20,1,$1+$1,$8,$9,$2,$3,0*%
%AMFreePoly0*
4,1,14,0.385355,0.085355,0.400000,0.050000,0.400000,0.020711,0.385355,-0.014644,0.314644,-0.085355,0.279289,-0.100000,-0.350000,-0.100000,-0.385355,-0.085355,-0.400000,-0.050000,-0.400000,0.050000,-0.385355,0.085355,-0.350000,0.100000,0.350000,0.100000,0.385355,0.085355,0.385355,0.085355,$1*%
%AMFreePoly1*
4,1,14,0.314644,0.085355,0.385355,0.014644,0.400000,-0.020711,0.400000,-0.050000,0.385355,-0.085355,0.350000,-0.100000,-0.350000,-0.100000,-0.385355,-0.085355,-0.400000,-0.050000,-0.400000,0.050000,-0.385355,0.085355,-0.350000,0.100000,0.279289,0.100000,0.314644,0.085355,0.314644,0.085355,$1*%
%AMFreePoly2*
4,1,14,0.085355,0.385355,0.100000,0.350000,0.100000,-0.350000,0.085355,-0.385355,0.050000,-0.400000,0.020711,-0.400000,-0.014644,-0.385355,-0.085355,-0.314644,-0.100000,-0.279289,-0.100000,0.350000,-0.085355,0.385355,-0.050000,0.400000,0.050000,0.400000,0.085355,0.385355,0.085355,0.385355,$1*%
%AMFreePoly3*
4,1,14,0.085355,0.385355,0.100000,0.350000,0.100000,-0.279289,0.085355,-0.314644,0.014644,-0.385355,-0.020711,-0.400000,-0.050000,-0.400000,-0.085355,-0.385355,-0.100000,-0.350000,-0.100000,0.350000,-0.085355,0.385355,-0.050000,0.400000,0.050000,0.400000,0.085355,0.385355,0.085355,0.385355,$1*%
%AMFreePoly4*
4,1,14,0.385355,0.085355,0.400000,0.050000,0.400000,-0.050000,0.385355,-0.085355,0.350000,-0.100000,-0.350000,-0.100000,-0.385355,-0.085355,-0.400000,-0.050000,-0.400000,-0.020711,-0.385355,0.014644,-0.314644,0.085355,-0.279289,0.100000,0.350000,0.100000,0.385355,0.085355,0.385355,0.085355,$1*%
%AMFreePoly5*
4,1,14,0.385355,0.085355,0.400000,0.050000,0.400000,-0.050000,0.385355,-0.085355,0.350000,-0.100000,-0.279289,-0.100000,-0.314644,-0.085355,-0.385355,-0.014644,-0.400000,0.020711,-0.400000,0.050000,-0.385355,0.085355,-0.350000,0.100000,0.350000,0.100000,0.385355,0.085355,0.385355,0.085355,$1*%
%AMFreePoly6*
4,1,14,0.014644,0.385355,0.085355,0.314644,0.100000,0.279289,0.100000,-0.350000,0.085355,-0.385355,0.050000,-0.400000,-0.050000,-0.400000,-0.085355,-0.385355,-0.100000,-0.350000,-0.100000,0.350000,-0.085355,0.385355,-0.050000,0.400000,-0.020711,0.400000,0.014644,0.385355,0.014644,0.385355,$1*%
%AMFreePoly7*
4,1,14,0.085355,0.385355,0.100000,0.350000,0.100000,-0.350000,0.085355,-0.385355,0.050000,-0.400000,-0.050000,-0.400000,-0.085355,-0.385355,-0.100000,-0.350000,-0.100000,0.279289,-0.085355,0.314644,-0.014644,0.385355,0.020711,0.400000,0.050000,0.400000,0.085355,0.385355,0.085355,0.385355,$1*%
G04 Aperture macros list end*
%ADD10R,1.700000X1.700000*%
%ADD11C,1.700000*%
%ADD12C,2.700000*%
%ADD13R,1.500000X1.500000*%
%ADD14C,1.500000*%
%ADD15RoundRect,0.317500X1.157500X0.317500X-1.157500X0.317500X-1.157500X-0.317500X1.157500X-0.317500X0*%
%ADD16R,1.100000X0.850000*%
%ADD17R,1.100000X0.750000*%
%ADD18R,1.000000X1.200000*%
%ADD19R,1.350000X1.550000*%
%ADD20R,1.350000X1.900000*%
%ADD21R,1.800000X1.170000*%
%ADD22RoundRect,0.150000X0.825000X0.150000X-0.825000X0.150000X-0.825000X-0.150000X0.825000X-0.150000X0*%
%ADD23FreePoly0,0.000000*%
%ADD24RoundRect,0.050000X-0.350000X-0.050000X0.350000X-0.050000X0.350000X0.050000X-0.350000X0.050000X0*%
%ADD25FreePoly1,0.000000*%
%ADD26FreePoly2,0.000000*%
%ADD27RoundRect,0.050000X-0.050000X-0.350000X0.050000X-0.350000X0.050000X0.350000X-0.050000X0.350000X0*%
%ADD28FreePoly3,0.000000*%
%ADD29FreePoly4,0.000000*%
%ADD30FreePoly5,0.000000*%
%ADD31FreePoly6,0.000000*%
%ADD32FreePoly7,0.000000*%
%ADD33R,2.650000X2.650000*%
%ADD34R,0.500000X0.500000*%
%ADD35R,14.000000X14.000000*%
%ADD36RoundRect,0.000000X-2.825000X-2.825000X2.825000X-2.825000X2.825000X2.825000X-2.825000X2.825000X0*%
G04 APERTURE END LIST*
D10*
%TO.C,NAV-LIGHT PWM*%
X174000000Y-95460000D03*
D11*
X174000000Y-98000000D03*
X174000000Y-100540000D03*
X174000000Y-103080000D03*
X174000000Y-105620000D03*
X174000000Y-108160000D03*
X174000000Y-110700000D03*
X174000000Y-113240000D03*
%TD*%
D12*
%TO.C,*%
X173000000Y-119500000D03*
%TD*%
%TO.C,*%
X173000000Y-90500000D03*
%TD*%
%TO.C,*%
X124000000Y-119500000D03*
%TD*%
D13*
%TO.C,PWR-IN*%
X123000000Y-116000000D03*
D14*
X125500000Y-116000000D03*
X128000000Y-116000000D03*
X130500000Y-116000000D03*
%TD*%
D12*
%TO.C,*%
X124000000Y-90500000D03*
%TD*%
D11*
%TO.C,PB2-P2*%
X126910000Y-118690000D03*
X126910000Y-121230000D03*
X129450000Y-118690000D03*
X129450000Y-121230000D03*
X131990000Y-118690000D03*
X131990000Y-121230000D03*
X134530000Y-118690000D03*
X134530000Y-121230000D03*
X137070000Y-118690000D03*
X137070000Y-121230000D03*
X139610000Y-118690000D03*
X139610000Y-121230000D03*
X142150000Y-118690000D03*
X142150000Y-121230000D03*
X144690000Y-118690000D03*
X144690000Y-121230000D03*
X147230000Y-118690000D03*
X147230000Y-121230000D03*
X149770000Y-118690000D03*
X149770000Y-121230000D03*
X152310000Y-118690000D03*
X152310000Y-121230000D03*
X154850000Y-118690000D03*
X154850000Y-121230000D03*
X157390000Y-118690000D03*
X157390000Y-121230000D03*
X159930000Y-118690000D03*
X159930000Y-121230000D03*
X162470000Y-118690000D03*
X162470000Y-121230000D03*
X165010000Y-118690000D03*
X165010000Y-121230000D03*
X167550000Y-118690000D03*
X167550000Y-121230000D03*
X170090000Y-118690000D03*
X170090000Y-121230000D03*
%TD*%
D15*
%TO.C,LoRa*%
X155000000Y-102000000D03*
X155000000Y-104000000D03*
X155000000Y-106000000D03*
X155000000Y-108000000D03*
X155000000Y-110000000D03*
X155000000Y-112000000D03*
X155000000Y-114000000D03*
X155000000Y-116000000D03*
X139950000Y-116000000D03*
X139950000Y-114000000D03*
X139950000Y-112000000D03*
X139950000Y-110000000D03*
X139950000Y-108000000D03*
X139950000Y-106000000D03*
X139950000Y-104000000D03*
X139950000Y-102000000D03*
%TD*%
D16*
%TO.C,Log microSD NON-X*%
X122137500Y-102395000D03*
X122137500Y-103495000D03*
X122137500Y-104595000D03*
X122137500Y-105695000D03*
X122137500Y-106795000D03*
X122137500Y-107895000D03*
X122137500Y-108995000D03*
D17*
X122137500Y-110045000D03*
D18*
X128287500Y-99760000D03*
X131987500Y-99760000D03*
D19*
X122262500Y-99935000D03*
D20*
X132962500Y-103260000D03*
X132962500Y-109230000D03*
D21*
X122487500Y-111255000D03*
%TD*%
D22*
%TO.C,NOR-FLASH*%
X167450000Y-94690000D03*
X167450000Y-95960000D03*
X167450000Y-97230000D03*
X167450000Y-98500000D03*
X162500000Y-98500000D03*
X162500000Y-97230000D03*
X162500000Y-95960000D03*
X162500000Y-94690000D03*
%TD*%
D23*
%TO.C,TPM*%
X153050000Y-98400000D03*
D24*
X153050000Y-98000000D03*
X153050000Y-97600000D03*
X153050000Y-97200000D03*
X153050000Y-96800000D03*
X153050000Y-96400000D03*
X153050000Y-96000000D03*
D25*
X153050000Y-95600000D03*
D26*
X153600000Y-95050000D03*
D27*
X154000000Y-95050000D03*
X154400000Y-95050000D03*
X154800000Y-95050000D03*
X155200000Y-95050000D03*
X155600000Y-95050000D03*
X156000000Y-95050000D03*
D28*
X156400000Y-95050000D03*
D29*
X156950000Y-95600000D03*
D24*
X156950000Y-96000000D03*
X156950000Y-96400000D03*
X156950000Y-96800000D03*
X156950000Y-97200000D03*
X156950000Y-97600000D03*
X156950000Y-98000000D03*
D30*
X156950000Y-98400000D03*
D31*
X156400000Y-98950000D03*
D27*
X156000000Y-98950000D03*
X155600000Y-98950000D03*
X155200000Y-98950000D03*
X154800000Y-98950000D03*
X154400000Y-98950000D03*
X154000000Y-98950000D03*
D32*
X153600000Y-98950000D03*
D33*
X155000000Y-97000000D03*
%TD*%
D34*
%TO.C,WIFI & BT*%
X157000000Y-101000000D03*
D35*
X165000000Y-109000000D03*
%TD*%
D11*
%TO.C,PB2-P1*%
X126910000Y-88770000D03*
X126910000Y-91310000D03*
X129450000Y-88770000D03*
X129450000Y-91310000D03*
X131990000Y-88770000D03*
X131990000Y-91310000D03*
X134530000Y-88770000D03*
X134530000Y-91310000D03*
X137070000Y-88770000D03*
X137070000Y-91310000D03*
X139610000Y-88770000D03*
X139610000Y-91310000D03*
X142150000Y-88770000D03*
X142150000Y-91310000D03*
X144690000Y-88770000D03*
X144690000Y-91310000D03*
X147230000Y-88770000D03*
X147230000Y-91310000D03*
X149770000Y-88770000D03*
X149770000Y-91310000D03*
X152310000Y-88770000D03*
X152310000Y-91310000D03*
X154850000Y-88770000D03*
X154850000Y-91310000D03*
X157390000Y-88770000D03*
X157390000Y-91310000D03*
X159930000Y-88770000D03*
X159930000Y-91310000D03*
X162470000Y-88770000D03*
X162470000Y-91310000D03*
X165010000Y-88770000D03*
X165010000Y-91310000D03*
X167550000Y-88770000D03*
X167550000Y-91310000D03*
X170090000Y-88770000D03*
X170090000Y-91310000D03*
%TD*%
D36*
%TO.C,ETH-PHY*%
X150000000Y-103750000D03*
%TD*%
M02*
