%TF.GenerationSoftware,KiCad,Pcbnew,9.0.2+dfsg-1*%
%TF.CreationDate,2026-07-26T23:39:36-04:00*%
%TF.ProjectId,Emma,456d6d61-2e6b-4696-9361-645f70636258,2*%
%TF.SameCoordinates,Original*%
%TF.FileFunction,AssemblyDrawing,Bot*%
%FSLAX46Y46*%
G04 Gerber Fmt 4.6, Leading zero omitted, Abs format (unit mm)*
G04 Created by KiCad (PCBNEW 9.0.2+dfsg-1) date 2026-07-26 23:39:36*
%MOMM*%
%LPD*%
G01*
G04 APERTURE LIST*
%ADD10C,0.150000*%
%ADD11C,0.040000*%
%ADD12C,0.101600*%
%ADD13C,0.100000*%
G04 APERTURE END LIST*
D10*
X177960713Y-125014726D02*
X177960713Y-123744726D01*
X177960713Y-123744726D02*
X177476903Y-123744726D01*
X177476903Y-123744726D02*
X177355951Y-123805202D01*
X177355951Y-123805202D02*
X177295474Y-123865678D01*
X177295474Y-123865678D02*
X177234998Y-123986630D01*
X177234998Y-123986630D02*
X177234998Y-124168059D01*
X177234998Y-124168059D02*
X177295474Y-124289011D01*
X177295474Y-124289011D02*
X177355951Y-124349488D01*
X177355951Y-124349488D02*
X177476903Y-124409964D01*
X177476903Y-124409964D02*
X177960713Y-124409964D01*
X176509284Y-125014726D02*
X176630236Y-124954250D01*
X176630236Y-124954250D02*
X176690713Y-124893773D01*
X176690713Y-124893773D02*
X176751189Y-124772821D01*
X176751189Y-124772821D02*
X176751189Y-124409964D01*
X176751189Y-124409964D02*
X176690713Y-124289011D01*
X176690713Y-124289011D02*
X176630236Y-124228535D01*
X176630236Y-124228535D02*
X176509284Y-124168059D01*
X176509284Y-124168059D02*
X176327855Y-124168059D01*
X176327855Y-124168059D02*
X176206903Y-124228535D01*
X176206903Y-124228535D02*
X176146427Y-124289011D01*
X176146427Y-124289011D02*
X176085951Y-124409964D01*
X176085951Y-124409964D02*
X176085951Y-124772821D01*
X176085951Y-124772821D02*
X176146427Y-124893773D01*
X176146427Y-124893773D02*
X176206903Y-124954250D01*
X176206903Y-124954250D02*
X176327855Y-125014726D01*
X176327855Y-125014726D02*
X176509284Y-125014726D01*
X174997379Y-124954250D02*
X175118331Y-125014726D01*
X175118331Y-125014726D02*
X175360236Y-125014726D01*
X175360236Y-125014726D02*
X175481188Y-124954250D01*
X175481188Y-124954250D02*
X175541665Y-124893773D01*
X175541665Y-124893773D02*
X175602141Y-124772821D01*
X175602141Y-124772821D02*
X175602141Y-124409964D01*
X175602141Y-124409964D02*
X175541665Y-124289011D01*
X175541665Y-124289011D02*
X175481188Y-124228535D01*
X175481188Y-124228535D02*
X175360236Y-124168059D01*
X175360236Y-124168059D02*
X175118331Y-124168059D01*
X175118331Y-124168059D02*
X174997379Y-124228535D01*
X174453094Y-125014726D02*
X174453094Y-123744726D01*
X174332141Y-124530916D02*
X173969284Y-125014726D01*
X173969284Y-124168059D02*
X174453094Y-124651869D01*
X172941189Y-124954250D02*
X173062141Y-125014726D01*
X173062141Y-125014726D02*
X173304046Y-125014726D01*
X173304046Y-125014726D02*
X173424999Y-124954250D01*
X173424999Y-124954250D02*
X173485475Y-124833297D01*
X173485475Y-124833297D02*
X173485475Y-124349488D01*
X173485475Y-124349488D02*
X173424999Y-124228535D01*
X173424999Y-124228535D02*
X173304046Y-124168059D01*
X173304046Y-124168059D02*
X173062141Y-124168059D01*
X173062141Y-124168059D02*
X172941189Y-124228535D01*
X172941189Y-124228535D02*
X172880713Y-124349488D01*
X172880713Y-124349488D02*
X172880713Y-124470440D01*
X172880713Y-124470440D02*
X173485475Y-124591392D01*
X172517856Y-124168059D02*
X172034047Y-124168059D01*
X172336428Y-123744726D02*
X172336428Y-124833297D01*
X172336428Y-124833297D02*
X172275951Y-124954250D01*
X172275951Y-124954250D02*
X172154999Y-125014726D01*
X172154999Y-125014726D02*
X172034047Y-125014726D01*
X171187380Y-124349488D02*
X171005952Y-124409964D01*
X171005952Y-124409964D02*
X170945475Y-124470440D01*
X170945475Y-124470440D02*
X170884999Y-124591392D01*
X170884999Y-124591392D02*
X170884999Y-124772821D01*
X170884999Y-124772821D02*
X170945475Y-124893773D01*
X170945475Y-124893773D02*
X171005952Y-124954250D01*
X171005952Y-124954250D02*
X171126904Y-125014726D01*
X171126904Y-125014726D02*
X171610714Y-125014726D01*
X171610714Y-125014726D02*
X171610714Y-123744726D01*
X171610714Y-123744726D02*
X171187380Y-123744726D01*
X171187380Y-123744726D02*
X171066428Y-123805202D01*
X171066428Y-123805202D02*
X171005952Y-123865678D01*
X171005952Y-123865678D02*
X170945475Y-123986630D01*
X170945475Y-123986630D02*
X170945475Y-124107583D01*
X170945475Y-124107583D02*
X171005952Y-124228535D01*
X171005952Y-124228535D02*
X171066428Y-124289011D01*
X171066428Y-124289011D02*
X171187380Y-124349488D01*
X171187380Y-124349488D02*
X171610714Y-124349488D01*
X169856904Y-124954250D02*
X169977856Y-125014726D01*
X169977856Y-125014726D02*
X170219761Y-125014726D01*
X170219761Y-125014726D02*
X170340714Y-124954250D01*
X170340714Y-124954250D02*
X170401190Y-124833297D01*
X170401190Y-124833297D02*
X170401190Y-124349488D01*
X170401190Y-124349488D02*
X170340714Y-124228535D01*
X170340714Y-124228535D02*
X170219761Y-124168059D01*
X170219761Y-124168059D02*
X169977856Y-124168059D01*
X169977856Y-124168059D02*
X169856904Y-124228535D01*
X169856904Y-124228535D02*
X169796428Y-124349488D01*
X169796428Y-124349488D02*
X169796428Y-124470440D01*
X169796428Y-124470440D02*
X170401190Y-124591392D01*
X168707857Y-125014726D02*
X168707857Y-124349488D01*
X168707857Y-124349488D02*
X168768333Y-124228535D01*
X168768333Y-124228535D02*
X168889285Y-124168059D01*
X168889285Y-124168059D02*
X169131190Y-124168059D01*
X169131190Y-124168059D02*
X169252143Y-124228535D01*
X168707857Y-124954250D02*
X168828809Y-125014726D01*
X168828809Y-125014726D02*
X169131190Y-125014726D01*
X169131190Y-125014726D02*
X169252143Y-124954250D01*
X169252143Y-124954250D02*
X169312619Y-124833297D01*
X169312619Y-124833297D02*
X169312619Y-124712345D01*
X169312619Y-124712345D02*
X169252143Y-124591392D01*
X169252143Y-124591392D02*
X169131190Y-124530916D01*
X169131190Y-124530916D02*
X168828809Y-124530916D01*
X168828809Y-124530916D02*
X168707857Y-124470440D01*
X167558809Y-124168059D02*
X167558809Y-125196154D01*
X167558809Y-125196154D02*
X167619285Y-125317107D01*
X167619285Y-125317107D02*
X167679761Y-125377583D01*
X167679761Y-125377583D02*
X167800714Y-125438059D01*
X167800714Y-125438059D02*
X167982142Y-125438059D01*
X167982142Y-125438059D02*
X168103095Y-125377583D01*
X167558809Y-124954250D02*
X167679761Y-125014726D01*
X167679761Y-125014726D02*
X167921666Y-125014726D01*
X167921666Y-125014726D02*
X168042618Y-124954250D01*
X168042618Y-124954250D02*
X168103095Y-124893773D01*
X168103095Y-124893773D02*
X168163571Y-124772821D01*
X168163571Y-124772821D02*
X168163571Y-124409964D01*
X168163571Y-124409964D02*
X168103095Y-124289011D01*
X168103095Y-124289011D02*
X168042618Y-124228535D01*
X168042618Y-124228535D02*
X167921666Y-124168059D01*
X167921666Y-124168059D02*
X167679761Y-124168059D01*
X167679761Y-124168059D02*
X167558809Y-124228535D01*
X166772618Y-125014726D02*
X166893570Y-124954250D01*
X166893570Y-124954250D02*
X166954047Y-124833297D01*
X166954047Y-124833297D02*
X166954047Y-123744726D01*
X165804999Y-124954250D02*
X165925951Y-125014726D01*
X165925951Y-125014726D02*
X166167856Y-125014726D01*
X166167856Y-125014726D02*
X166288809Y-124954250D01*
X166288809Y-124954250D02*
X166349285Y-124833297D01*
X166349285Y-124833297D02*
X166349285Y-124349488D01*
X166349285Y-124349488D02*
X166288809Y-124228535D01*
X166288809Y-124228535D02*
X166167856Y-124168059D01*
X166167856Y-124168059D02*
X165925951Y-124168059D01*
X165925951Y-124168059D02*
X165804999Y-124228535D01*
X165804999Y-124228535D02*
X165744523Y-124349488D01*
X165744523Y-124349488D02*
X165744523Y-124470440D01*
X165744523Y-124470440D02*
X166349285Y-124591392D01*
X164293095Y-123865678D02*
X164232619Y-123805202D01*
X164232619Y-123805202D02*
X164111666Y-123744726D01*
X164111666Y-123744726D02*
X163809285Y-123744726D01*
X163809285Y-123744726D02*
X163688333Y-123805202D01*
X163688333Y-123805202D02*
X163627857Y-123865678D01*
X163627857Y-123865678D02*
X163567380Y-123986630D01*
X163567380Y-123986630D02*
X163567380Y-124107583D01*
X163567380Y-124107583D02*
X163627857Y-124289011D01*
X163627857Y-124289011D02*
X164353571Y-125014726D01*
X164353571Y-125014726D02*
X163567380Y-125014726D01*
X162055476Y-125014726D02*
X162055476Y-123744726D01*
X161450714Y-124168059D02*
X161450714Y-125014726D01*
X161450714Y-124289011D02*
X161390237Y-124228535D01*
X161390237Y-124228535D02*
X161269285Y-124168059D01*
X161269285Y-124168059D02*
X161087856Y-124168059D01*
X161087856Y-124168059D02*
X160966904Y-124228535D01*
X160966904Y-124228535D02*
X160906428Y-124349488D01*
X160906428Y-124349488D02*
X160906428Y-125014726D01*
X159757380Y-125014726D02*
X159757380Y-123744726D01*
X159757380Y-124954250D02*
X159878332Y-125014726D01*
X159878332Y-125014726D02*
X160120237Y-125014726D01*
X160120237Y-125014726D02*
X160241189Y-124954250D01*
X160241189Y-124954250D02*
X160301666Y-124893773D01*
X160301666Y-124893773D02*
X160362142Y-124772821D01*
X160362142Y-124772821D02*
X160362142Y-124409964D01*
X160362142Y-124409964D02*
X160301666Y-124289011D01*
X160301666Y-124289011D02*
X160241189Y-124228535D01*
X160241189Y-124228535D02*
X160120237Y-124168059D01*
X160120237Y-124168059D02*
X159878332Y-124168059D01*
X159878332Y-124168059D02*
X159757380Y-124228535D01*
X158608332Y-124168059D02*
X158608332Y-125014726D01*
X159152618Y-124168059D02*
X159152618Y-124833297D01*
X159152618Y-124833297D02*
X159092141Y-124954250D01*
X159092141Y-124954250D02*
X158971189Y-125014726D01*
X158971189Y-125014726D02*
X158789760Y-125014726D01*
X158789760Y-125014726D02*
X158668808Y-124954250D01*
X158668808Y-124954250D02*
X158608332Y-124893773D01*
X158064046Y-124954250D02*
X157943093Y-125014726D01*
X157943093Y-125014726D02*
X157701189Y-125014726D01*
X157701189Y-125014726D02*
X157580236Y-124954250D01*
X157580236Y-124954250D02*
X157519760Y-124833297D01*
X157519760Y-124833297D02*
X157519760Y-124772821D01*
X157519760Y-124772821D02*
X157580236Y-124651869D01*
X157580236Y-124651869D02*
X157701189Y-124591392D01*
X157701189Y-124591392D02*
X157882617Y-124591392D01*
X157882617Y-124591392D02*
X158003570Y-124530916D01*
X158003570Y-124530916D02*
X158064046Y-124409964D01*
X158064046Y-124409964D02*
X158064046Y-124349488D01*
X158064046Y-124349488D02*
X158003570Y-124228535D01*
X158003570Y-124228535D02*
X157882617Y-124168059D01*
X157882617Y-124168059D02*
X157701189Y-124168059D01*
X157701189Y-124168059D02*
X157580236Y-124228535D01*
X157156903Y-124168059D02*
X156673094Y-124168059D01*
X156975475Y-123744726D02*
X156975475Y-124833297D01*
X156975475Y-124833297D02*
X156914998Y-124954250D01*
X156914998Y-124954250D02*
X156794046Y-125014726D01*
X156794046Y-125014726D02*
X156673094Y-125014726D01*
X156249761Y-125014726D02*
X156249761Y-124168059D01*
X156249761Y-124409964D02*
X156189284Y-124289011D01*
X156189284Y-124289011D02*
X156128808Y-124228535D01*
X156128808Y-124228535D02*
X156007856Y-124168059D01*
X156007856Y-124168059D02*
X155886903Y-124168059D01*
X155463571Y-125014726D02*
X155463571Y-124168059D01*
X155463571Y-123744726D02*
X155524047Y-123805202D01*
X155524047Y-123805202D02*
X155463571Y-123865678D01*
X155463571Y-123865678D02*
X155403094Y-123805202D01*
X155403094Y-123805202D02*
X155463571Y-123744726D01*
X155463571Y-123744726D02*
X155463571Y-123865678D01*
X154314523Y-125014726D02*
X154314523Y-124349488D01*
X154314523Y-124349488D02*
X154374999Y-124228535D01*
X154374999Y-124228535D02*
X154495951Y-124168059D01*
X154495951Y-124168059D02*
X154737856Y-124168059D01*
X154737856Y-124168059D02*
X154858809Y-124228535D01*
X154314523Y-124954250D02*
X154435475Y-125014726D01*
X154435475Y-125014726D02*
X154737856Y-125014726D01*
X154737856Y-125014726D02*
X154858809Y-124954250D01*
X154858809Y-124954250D02*
X154919285Y-124833297D01*
X154919285Y-124833297D02*
X154919285Y-124712345D01*
X154919285Y-124712345D02*
X154858809Y-124591392D01*
X154858809Y-124591392D02*
X154737856Y-124530916D01*
X154737856Y-124530916D02*
X154435475Y-124530916D01*
X154435475Y-124530916D02*
X154314523Y-124470440D01*
X153528332Y-125014726D02*
X153649284Y-124954250D01*
X153649284Y-124954250D02*
X153709761Y-124833297D01*
X153709761Y-124833297D02*
X153709761Y-123744726D01*
X152076904Y-125014726D02*
X152076904Y-123744726D01*
X152076904Y-123744726D02*
X151593094Y-123744726D01*
X151593094Y-123744726D02*
X151472142Y-123805202D01*
X151472142Y-123805202D02*
X151411665Y-123865678D01*
X151411665Y-123865678D02*
X151351189Y-123986630D01*
X151351189Y-123986630D02*
X151351189Y-124168059D01*
X151351189Y-124168059D02*
X151411665Y-124289011D01*
X151411665Y-124289011D02*
X151472142Y-124349488D01*
X151472142Y-124349488D02*
X151593094Y-124409964D01*
X151593094Y-124409964D02*
X152076904Y-124409964D01*
X150867380Y-123865678D02*
X150806904Y-123805202D01*
X150806904Y-123805202D02*
X150685951Y-123744726D01*
X150685951Y-123744726D02*
X150383570Y-123744726D01*
X150383570Y-123744726D02*
X150262618Y-123805202D01*
X150262618Y-123805202D02*
X150202142Y-123865678D01*
X150202142Y-123865678D02*
X150141665Y-123986630D01*
X150141665Y-123986630D02*
X150141665Y-124107583D01*
X150141665Y-124107583D02*
X150202142Y-124289011D01*
X150202142Y-124289011D02*
X150927856Y-125014726D01*
X150927856Y-125014726D02*
X150141665Y-125014726D01*
X148690237Y-124954250D02*
X148569284Y-125014726D01*
X148569284Y-125014726D02*
X148327380Y-125014726D01*
X148327380Y-125014726D02*
X148206427Y-124954250D01*
X148206427Y-124954250D02*
X148145951Y-124833297D01*
X148145951Y-124833297D02*
X148145951Y-124772821D01*
X148145951Y-124772821D02*
X148206427Y-124651869D01*
X148206427Y-124651869D02*
X148327380Y-124591392D01*
X148327380Y-124591392D02*
X148508808Y-124591392D01*
X148508808Y-124591392D02*
X148629761Y-124530916D01*
X148629761Y-124530916D02*
X148690237Y-124409964D01*
X148690237Y-124409964D02*
X148690237Y-124349488D01*
X148690237Y-124349488D02*
X148629761Y-124228535D01*
X148629761Y-124228535D02*
X148508808Y-124168059D01*
X148508808Y-124168059D02*
X148327380Y-124168059D01*
X148327380Y-124168059D02*
X148206427Y-124228535D01*
X147420237Y-125014726D02*
X147541189Y-124954250D01*
X147541189Y-124954250D02*
X147601666Y-124893773D01*
X147601666Y-124893773D02*
X147662142Y-124772821D01*
X147662142Y-124772821D02*
X147662142Y-124409964D01*
X147662142Y-124409964D02*
X147601666Y-124289011D01*
X147601666Y-124289011D02*
X147541189Y-124228535D01*
X147541189Y-124228535D02*
X147420237Y-124168059D01*
X147420237Y-124168059D02*
X147238808Y-124168059D01*
X147238808Y-124168059D02*
X147117856Y-124228535D01*
X147117856Y-124228535D02*
X147057380Y-124289011D01*
X147057380Y-124289011D02*
X146996904Y-124409964D01*
X146996904Y-124409964D02*
X146996904Y-124772821D01*
X146996904Y-124772821D02*
X147057380Y-124893773D01*
X147057380Y-124893773D02*
X147117856Y-124954250D01*
X147117856Y-124954250D02*
X147238808Y-125014726D01*
X147238808Y-125014726D02*
X147420237Y-125014726D01*
X145908332Y-124954250D02*
X146029284Y-125014726D01*
X146029284Y-125014726D02*
X146271189Y-125014726D01*
X146271189Y-125014726D02*
X146392141Y-124954250D01*
X146392141Y-124954250D02*
X146452618Y-124893773D01*
X146452618Y-124893773D02*
X146513094Y-124772821D01*
X146513094Y-124772821D02*
X146513094Y-124409964D01*
X146513094Y-124409964D02*
X146452618Y-124289011D01*
X146452618Y-124289011D02*
X146392141Y-124228535D01*
X146392141Y-124228535D02*
X146271189Y-124168059D01*
X146271189Y-124168059D02*
X146029284Y-124168059D01*
X146029284Y-124168059D02*
X145908332Y-124228535D01*
X145364047Y-125014726D02*
X145364047Y-123744726D01*
X145243094Y-124530916D02*
X144880237Y-125014726D01*
X144880237Y-124168059D02*
X145364047Y-124651869D01*
X143852142Y-124954250D02*
X143973094Y-125014726D01*
X143973094Y-125014726D02*
X144214999Y-125014726D01*
X144214999Y-125014726D02*
X144335952Y-124954250D01*
X144335952Y-124954250D02*
X144396428Y-124833297D01*
X144396428Y-124833297D02*
X144396428Y-124349488D01*
X144396428Y-124349488D02*
X144335952Y-124228535D01*
X144335952Y-124228535D02*
X144214999Y-124168059D01*
X144214999Y-124168059D02*
X143973094Y-124168059D01*
X143973094Y-124168059D02*
X143852142Y-124228535D01*
X143852142Y-124228535D02*
X143791666Y-124349488D01*
X143791666Y-124349488D02*
X143791666Y-124470440D01*
X143791666Y-124470440D02*
X144396428Y-124591392D01*
X143428809Y-124168059D02*
X142945000Y-124168059D01*
X143247381Y-123744726D02*
X143247381Y-124833297D01*
X143247381Y-124833297D02*
X143186904Y-124954250D01*
X143186904Y-124954250D02*
X143065952Y-125014726D01*
X143065952Y-125014726D02*
X142945000Y-125014726D01*
X141614524Y-123865678D02*
X141554048Y-123805202D01*
X141554048Y-123805202D02*
X141433095Y-123744726D01*
X141433095Y-123744726D02*
X141130714Y-123744726D01*
X141130714Y-123744726D02*
X141009762Y-123805202D01*
X141009762Y-123805202D02*
X140949286Y-123865678D01*
X140949286Y-123865678D02*
X140888809Y-123986630D01*
X140888809Y-123986630D02*
X140888809Y-124107583D01*
X140888809Y-124107583D02*
X140949286Y-124289011D01*
X140949286Y-124289011D02*
X141675000Y-125014726D01*
X141675000Y-125014726D02*
X140888809Y-125014726D01*
X140465476Y-125014726D02*
X139800238Y-124168059D01*
X140465476Y-124168059D02*
X139800238Y-125014726D01*
X138651190Y-125014726D02*
X139376905Y-125014726D01*
X139014048Y-125014726D02*
X139014048Y-123744726D01*
X139014048Y-123744726D02*
X139135000Y-123926154D01*
X139135000Y-123926154D02*
X139255952Y-124047107D01*
X139255952Y-124047107D02*
X139376905Y-124107583D01*
X137925476Y-124289011D02*
X138046428Y-124228535D01*
X138046428Y-124228535D02*
X138106905Y-124168059D01*
X138106905Y-124168059D02*
X138167381Y-124047107D01*
X138167381Y-124047107D02*
X138167381Y-123986630D01*
X138167381Y-123986630D02*
X138106905Y-123865678D01*
X138106905Y-123865678D02*
X138046428Y-123805202D01*
X138046428Y-123805202D02*
X137925476Y-123744726D01*
X137925476Y-123744726D02*
X137683571Y-123744726D01*
X137683571Y-123744726D02*
X137562619Y-123805202D01*
X137562619Y-123805202D02*
X137502143Y-123865678D01*
X137502143Y-123865678D02*
X137441666Y-123986630D01*
X137441666Y-123986630D02*
X137441666Y-124047107D01*
X137441666Y-124047107D02*
X137502143Y-124168059D01*
X137502143Y-124168059D02*
X137562619Y-124228535D01*
X137562619Y-124228535D02*
X137683571Y-124289011D01*
X137683571Y-124289011D02*
X137925476Y-124289011D01*
X137925476Y-124289011D02*
X138046428Y-124349488D01*
X138046428Y-124349488D02*
X138106905Y-124409964D01*
X138106905Y-124409964D02*
X138167381Y-124530916D01*
X138167381Y-124530916D02*
X138167381Y-124772821D01*
X138167381Y-124772821D02*
X138106905Y-124893773D01*
X138106905Y-124893773D02*
X138046428Y-124954250D01*
X138046428Y-124954250D02*
X137925476Y-125014726D01*
X137925476Y-125014726D02*
X137683571Y-125014726D01*
X137683571Y-125014726D02*
X137562619Y-124954250D01*
X137562619Y-124954250D02*
X137502143Y-124893773D01*
X137502143Y-124893773D02*
X137441666Y-124772821D01*
X137441666Y-124772821D02*
X137441666Y-124530916D01*
X137441666Y-124530916D02*
X137502143Y-124409964D01*
X137502143Y-124409964D02*
X137562619Y-124349488D01*
X137562619Y-124349488D02*
X137683571Y-124289011D01*
X135990238Y-123865678D02*
X135929762Y-123805202D01*
X135929762Y-123805202D02*
X135808809Y-123744726D01*
X135808809Y-123744726D02*
X135506428Y-123744726D01*
X135506428Y-123744726D02*
X135385476Y-123805202D01*
X135385476Y-123805202D02*
X135325000Y-123865678D01*
X135325000Y-123865678D02*
X135264523Y-123986630D01*
X135264523Y-123986630D02*
X135264523Y-124107583D01*
X135264523Y-124107583D02*
X135325000Y-124289011D01*
X135325000Y-124289011D02*
X136050714Y-125014726D01*
X136050714Y-125014726D02*
X135264523Y-125014726D01*
X134720238Y-124893773D02*
X134659761Y-124954250D01*
X134659761Y-124954250D02*
X134720238Y-125014726D01*
X134720238Y-125014726D02*
X134780714Y-124954250D01*
X134780714Y-124954250D02*
X134720238Y-124893773D01*
X134720238Y-124893773D02*
X134720238Y-125014726D01*
X133510714Y-123744726D02*
X134115476Y-123744726D01*
X134115476Y-123744726D02*
X134175952Y-124349488D01*
X134175952Y-124349488D02*
X134115476Y-124289011D01*
X134115476Y-124289011D02*
X133994523Y-124228535D01*
X133994523Y-124228535D02*
X133692142Y-124228535D01*
X133692142Y-124228535D02*
X133571190Y-124289011D01*
X133571190Y-124289011D02*
X133510714Y-124349488D01*
X133510714Y-124349488D02*
X133450237Y-124470440D01*
X133450237Y-124470440D02*
X133450237Y-124772821D01*
X133450237Y-124772821D02*
X133510714Y-124893773D01*
X133510714Y-124893773D02*
X133571190Y-124954250D01*
X133571190Y-124954250D02*
X133692142Y-125014726D01*
X133692142Y-125014726D02*
X133994523Y-125014726D01*
X133994523Y-125014726D02*
X134115476Y-124954250D01*
X134115476Y-124954250D02*
X134175952Y-124893773D01*
X132361666Y-124168059D02*
X132361666Y-125014726D01*
X132664047Y-123684250D02*
X132966428Y-124591392D01*
X132966428Y-124591392D02*
X132180237Y-124591392D01*
X131696428Y-125014726D02*
X131696428Y-124168059D01*
X131696428Y-124289011D02*
X131635951Y-124228535D01*
X131635951Y-124228535D02*
X131514999Y-124168059D01*
X131514999Y-124168059D02*
X131333570Y-124168059D01*
X131333570Y-124168059D02*
X131212618Y-124228535D01*
X131212618Y-124228535D02*
X131152142Y-124349488D01*
X131152142Y-124349488D02*
X131152142Y-125014726D01*
X131152142Y-124349488D02*
X131091666Y-124228535D01*
X131091666Y-124228535D02*
X130970713Y-124168059D01*
X130970713Y-124168059D02*
X130789285Y-124168059D01*
X130789285Y-124168059D02*
X130668332Y-124228535D01*
X130668332Y-124228535D02*
X130607856Y-124349488D01*
X130607856Y-124349488D02*
X130607856Y-125014726D01*
X130003095Y-125014726D02*
X130003095Y-124168059D01*
X130003095Y-124289011D02*
X129942618Y-124228535D01*
X129942618Y-124228535D02*
X129821666Y-124168059D01*
X129821666Y-124168059D02*
X129640237Y-124168059D01*
X129640237Y-124168059D02*
X129519285Y-124228535D01*
X129519285Y-124228535D02*
X129458809Y-124349488D01*
X129458809Y-124349488D02*
X129458809Y-125014726D01*
X129458809Y-124349488D02*
X129398333Y-124228535D01*
X129398333Y-124228535D02*
X129277380Y-124168059D01*
X129277380Y-124168059D02*
X129095952Y-124168059D01*
X129095952Y-124168059D02*
X128974999Y-124228535D01*
X128974999Y-124228535D02*
X128914523Y-124349488D01*
X128914523Y-124349488D02*
X128914523Y-125014726D01*
X127523571Y-123744726D02*
X126797857Y-123744726D01*
X127160714Y-125014726D02*
X127160714Y-123744726D01*
X126374524Y-125014726D02*
X126374524Y-123744726D01*
X126374524Y-124349488D02*
X125648809Y-124349488D01*
X125648809Y-125014726D02*
X125648809Y-123744726D01*
X124197381Y-124591392D02*
X123108810Y-124591392D01*
X121778333Y-124168059D02*
X121475952Y-125014726D01*
X121475952Y-125014726D02*
X121173571Y-124168059D01*
X120205952Y-124954250D02*
X120326904Y-125014726D01*
X120326904Y-125014726D02*
X120568809Y-125014726D01*
X120568809Y-125014726D02*
X120689762Y-124954250D01*
X120689762Y-124954250D02*
X120750238Y-124833297D01*
X120750238Y-124833297D02*
X120750238Y-124349488D01*
X120750238Y-124349488D02*
X120689762Y-124228535D01*
X120689762Y-124228535D02*
X120568809Y-124168059D01*
X120568809Y-124168059D02*
X120326904Y-124168059D01*
X120326904Y-124168059D02*
X120205952Y-124228535D01*
X120205952Y-124228535D02*
X120145476Y-124349488D01*
X120145476Y-124349488D02*
X120145476Y-124470440D01*
X120145476Y-124470440D02*
X120750238Y-124591392D01*
X119601191Y-125014726D02*
X119601191Y-124168059D01*
X119601191Y-124409964D02*
X119540714Y-124289011D01*
X119540714Y-124289011D02*
X119480238Y-124228535D01*
X119480238Y-124228535D02*
X119359286Y-124168059D01*
X119359286Y-124168059D02*
X119238333Y-124168059D01*
X118815001Y-125014726D02*
X118815001Y-124168059D01*
X118815001Y-123744726D02*
X118875477Y-123805202D01*
X118875477Y-123805202D02*
X118815001Y-123865678D01*
X118815001Y-123865678D02*
X118754524Y-123805202D01*
X118754524Y-123805202D02*
X118815001Y-123744726D01*
X118815001Y-123744726D02*
X118815001Y-123865678D01*
X118391667Y-124168059D02*
X117907858Y-124168059D01*
X118210239Y-125014726D02*
X118210239Y-123926154D01*
X118210239Y-123926154D02*
X118149762Y-123805202D01*
X118149762Y-123805202D02*
X118028810Y-123744726D01*
X118028810Y-123744726D02*
X117907858Y-123744726D01*
X117605477Y-124168059D02*
X117303096Y-125014726D01*
X117000715Y-124168059D02*
X117303096Y-125014726D01*
X117303096Y-125014726D02*
X117424048Y-125317107D01*
X117424048Y-125317107D02*
X117484525Y-125377583D01*
X117484525Y-125377583D02*
X117605477Y-125438059D01*
X115549287Y-124168059D02*
X115549287Y-125438059D01*
X115549287Y-124228535D02*
X115428334Y-124168059D01*
X115428334Y-124168059D02*
X115186429Y-124168059D01*
X115186429Y-124168059D02*
X115065477Y-124228535D01*
X115065477Y-124228535D02*
X115005001Y-124289011D01*
X115005001Y-124289011D02*
X114944525Y-124409964D01*
X114944525Y-124409964D02*
X114944525Y-124772821D01*
X114944525Y-124772821D02*
X115005001Y-124893773D01*
X115005001Y-124893773D02*
X115065477Y-124954250D01*
X115065477Y-124954250D02*
X115186429Y-125014726D01*
X115186429Y-125014726D02*
X115428334Y-125014726D01*
X115428334Y-125014726D02*
X115549287Y-124954250D01*
X114400239Y-125014726D02*
X114400239Y-124168059D01*
X114400239Y-123744726D02*
X114460715Y-123805202D01*
X114460715Y-123805202D02*
X114400239Y-123865678D01*
X114400239Y-123865678D02*
X114339762Y-123805202D01*
X114339762Y-123805202D02*
X114400239Y-123744726D01*
X114400239Y-123744726D02*
X114400239Y-123865678D01*
X113795477Y-124168059D02*
X113795477Y-125014726D01*
X113795477Y-124289011D02*
X113735000Y-124228535D01*
X113735000Y-124228535D02*
X113614048Y-124168059D01*
X113614048Y-124168059D02*
X113432619Y-124168059D01*
X113432619Y-124168059D02*
X113311667Y-124228535D01*
X113311667Y-124228535D02*
X113251191Y-124349488D01*
X113251191Y-124349488D02*
X113251191Y-125014726D01*
X111678810Y-125014726D02*
X111678810Y-124168059D01*
X111678810Y-124289011D02*
X111618333Y-124228535D01*
X111618333Y-124228535D02*
X111497381Y-124168059D01*
X111497381Y-124168059D02*
X111315952Y-124168059D01*
X111315952Y-124168059D02*
X111195000Y-124228535D01*
X111195000Y-124228535D02*
X111134524Y-124349488D01*
X111134524Y-124349488D02*
X111134524Y-125014726D01*
X111134524Y-124349488D02*
X111074048Y-124228535D01*
X111074048Y-124228535D02*
X110953095Y-124168059D01*
X110953095Y-124168059D02*
X110771667Y-124168059D01*
X110771667Y-124168059D02*
X110650714Y-124228535D01*
X110650714Y-124228535D02*
X110590238Y-124349488D01*
X110590238Y-124349488D02*
X110590238Y-125014726D01*
X109441191Y-125014726D02*
X109441191Y-124349488D01*
X109441191Y-124349488D02*
X109501667Y-124228535D01*
X109501667Y-124228535D02*
X109622619Y-124168059D01*
X109622619Y-124168059D02*
X109864524Y-124168059D01*
X109864524Y-124168059D02*
X109985477Y-124228535D01*
X109441191Y-124954250D02*
X109562143Y-125014726D01*
X109562143Y-125014726D02*
X109864524Y-125014726D01*
X109864524Y-125014726D02*
X109985477Y-124954250D01*
X109985477Y-124954250D02*
X110045953Y-124833297D01*
X110045953Y-124833297D02*
X110045953Y-124712345D01*
X110045953Y-124712345D02*
X109985477Y-124591392D01*
X109985477Y-124591392D02*
X109864524Y-124530916D01*
X109864524Y-124530916D02*
X109562143Y-124530916D01*
X109562143Y-124530916D02*
X109441191Y-124470440D01*
X108836429Y-124168059D02*
X108836429Y-125438059D01*
X108836429Y-124228535D02*
X108715476Y-124168059D01*
X108715476Y-124168059D02*
X108473571Y-124168059D01*
X108473571Y-124168059D02*
X108352619Y-124228535D01*
X108352619Y-124228535D02*
X108292143Y-124289011D01*
X108292143Y-124289011D02*
X108231667Y-124409964D01*
X108231667Y-124409964D02*
X108231667Y-124772821D01*
X108231667Y-124772821D02*
X108292143Y-124893773D01*
X108292143Y-124893773D02*
X108352619Y-124954250D01*
X108352619Y-124954250D02*
X108473571Y-125014726D01*
X108473571Y-125014726D02*
X108715476Y-125014726D01*
X108715476Y-125014726D02*
X108836429Y-124954250D01*
X107687381Y-124168059D02*
X107687381Y-125438059D01*
X107687381Y-124228535D02*
X107566428Y-124168059D01*
X107566428Y-124168059D02*
X107324523Y-124168059D01*
X107324523Y-124168059D02*
X107203571Y-124228535D01*
X107203571Y-124228535D02*
X107143095Y-124289011D01*
X107143095Y-124289011D02*
X107082619Y-124409964D01*
X107082619Y-124409964D02*
X107082619Y-124772821D01*
X107082619Y-124772821D02*
X107143095Y-124893773D01*
X107143095Y-124893773D02*
X107203571Y-124954250D01*
X107203571Y-124954250D02*
X107324523Y-125014726D01*
X107324523Y-125014726D02*
X107566428Y-125014726D01*
X107566428Y-125014726D02*
X107687381Y-124954250D01*
X106538333Y-125014726D02*
X106538333Y-124168059D01*
X106538333Y-123744726D02*
X106598809Y-123805202D01*
X106598809Y-123805202D02*
X106538333Y-123865678D01*
X106538333Y-123865678D02*
X106477856Y-123805202D01*
X106477856Y-123805202D02*
X106538333Y-123744726D01*
X106538333Y-123744726D02*
X106538333Y-123865678D01*
X105933571Y-124168059D02*
X105933571Y-125014726D01*
X105933571Y-124289011D02*
X105873094Y-124228535D01*
X105873094Y-124228535D02*
X105752142Y-124168059D01*
X105752142Y-124168059D02*
X105570713Y-124168059D01*
X105570713Y-124168059D02*
X105449761Y-124228535D01*
X105449761Y-124228535D02*
X105389285Y-124349488D01*
X105389285Y-124349488D02*
X105389285Y-125014726D01*
X104240237Y-124168059D02*
X104240237Y-125196154D01*
X104240237Y-125196154D02*
X104300713Y-125317107D01*
X104300713Y-125317107D02*
X104361189Y-125377583D01*
X104361189Y-125377583D02*
X104482142Y-125438059D01*
X104482142Y-125438059D02*
X104663570Y-125438059D01*
X104663570Y-125438059D02*
X104784523Y-125377583D01*
X104240237Y-124954250D02*
X104361189Y-125014726D01*
X104361189Y-125014726D02*
X104603094Y-125014726D01*
X104603094Y-125014726D02*
X104724046Y-124954250D01*
X104724046Y-124954250D02*
X104784523Y-124893773D01*
X104784523Y-124893773D02*
X104844999Y-124772821D01*
X104844999Y-124772821D02*
X104844999Y-124409964D01*
X104844999Y-124409964D02*
X104784523Y-124289011D01*
X104784523Y-124289011D02*
X104724046Y-124228535D01*
X104724046Y-124228535D02*
X104603094Y-124168059D01*
X104603094Y-124168059D02*
X104361189Y-124168059D01*
X104361189Y-124168059D02*
X104240237Y-124228535D01*
X102849284Y-124168059D02*
X102365475Y-124168059D01*
X102667856Y-125014726D02*
X102667856Y-123926154D01*
X102667856Y-123926154D02*
X102607379Y-123805202D01*
X102607379Y-123805202D02*
X102486427Y-123744726D01*
X102486427Y-123744726D02*
X102365475Y-123744726D01*
X101942142Y-125014726D02*
X101942142Y-124168059D01*
X101942142Y-124409964D02*
X101881665Y-124289011D01*
X101881665Y-124289011D02*
X101821189Y-124228535D01*
X101821189Y-124228535D02*
X101700237Y-124168059D01*
X101700237Y-124168059D02*
X101579284Y-124168059D01*
X100974523Y-125014726D02*
X101095475Y-124954250D01*
X101095475Y-124954250D02*
X101155952Y-124893773D01*
X101155952Y-124893773D02*
X101216428Y-124772821D01*
X101216428Y-124772821D02*
X101216428Y-124409964D01*
X101216428Y-124409964D02*
X101155952Y-124289011D01*
X101155952Y-124289011D02*
X101095475Y-124228535D01*
X101095475Y-124228535D02*
X100974523Y-124168059D01*
X100974523Y-124168059D02*
X100793094Y-124168059D01*
X100793094Y-124168059D02*
X100672142Y-124228535D01*
X100672142Y-124228535D02*
X100611666Y-124289011D01*
X100611666Y-124289011D02*
X100551190Y-124409964D01*
X100551190Y-124409964D02*
X100551190Y-124772821D01*
X100551190Y-124772821D02*
X100611666Y-124893773D01*
X100611666Y-124893773D02*
X100672142Y-124954250D01*
X100672142Y-124954250D02*
X100793094Y-125014726D01*
X100793094Y-125014726D02*
X100974523Y-125014726D01*
X100006904Y-125014726D02*
X100006904Y-124168059D01*
X100006904Y-124289011D02*
X99946427Y-124228535D01*
X99946427Y-124228535D02*
X99825475Y-124168059D01*
X99825475Y-124168059D02*
X99644046Y-124168059D01*
X99644046Y-124168059D02*
X99523094Y-124228535D01*
X99523094Y-124228535D02*
X99462618Y-124349488D01*
X99462618Y-124349488D02*
X99462618Y-125014726D01*
X99462618Y-124349488D02*
X99402142Y-124228535D01*
X99402142Y-124228535D02*
X99281189Y-124168059D01*
X99281189Y-124168059D02*
X99099761Y-124168059D01*
X99099761Y-124168059D02*
X98978808Y-124228535D01*
X98978808Y-124228535D02*
X98918332Y-124349488D01*
X98918332Y-124349488D02*
X98918332Y-125014726D01*
X97406428Y-124651869D02*
X96801666Y-124651869D01*
X97527380Y-125014726D02*
X97104047Y-123744726D01*
X97104047Y-123744726D02*
X96680713Y-125014726D01*
X96257381Y-125014726D02*
X96257381Y-123744726D01*
X96257381Y-123744726D02*
X95834047Y-124651869D01*
X95834047Y-124651869D02*
X95410714Y-123744726D01*
X95410714Y-123744726D02*
X95410714Y-125014726D01*
X94261666Y-123744726D02*
X94503571Y-123744726D01*
X94503571Y-123744726D02*
X94624523Y-123805202D01*
X94624523Y-123805202D02*
X94684999Y-123865678D01*
X94684999Y-123865678D02*
X94805952Y-124047107D01*
X94805952Y-124047107D02*
X94866428Y-124289011D01*
X94866428Y-124289011D02*
X94866428Y-124772821D01*
X94866428Y-124772821D02*
X94805952Y-124893773D01*
X94805952Y-124893773D02*
X94745475Y-124954250D01*
X94745475Y-124954250D02*
X94624523Y-125014726D01*
X94624523Y-125014726D02*
X94382618Y-125014726D01*
X94382618Y-125014726D02*
X94261666Y-124954250D01*
X94261666Y-124954250D02*
X94201190Y-124893773D01*
X94201190Y-124893773D02*
X94140713Y-124772821D01*
X94140713Y-124772821D02*
X94140713Y-124470440D01*
X94140713Y-124470440D02*
X94201190Y-124349488D01*
X94201190Y-124349488D02*
X94261666Y-124289011D01*
X94261666Y-124289011D02*
X94382618Y-124228535D01*
X94382618Y-124228535D02*
X94624523Y-124228535D01*
X94624523Y-124228535D02*
X94745475Y-124289011D01*
X94745475Y-124289011D02*
X94805952Y-124349488D01*
X94805952Y-124349488D02*
X94866428Y-124470440D01*
X93656904Y-123865678D02*
X93596428Y-123805202D01*
X93596428Y-123805202D02*
X93475475Y-123744726D01*
X93475475Y-123744726D02*
X93173094Y-123744726D01*
X93173094Y-123744726D02*
X93052142Y-123805202D01*
X93052142Y-123805202D02*
X92991666Y-123865678D01*
X92991666Y-123865678D02*
X92931189Y-123986630D01*
X92931189Y-123986630D02*
X92931189Y-124107583D01*
X92931189Y-124107583D02*
X92991666Y-124289011D01*
X92991666Y-124289011D02*
X93717380Y-125014726D01*
X93717380Y-125014726D02*
X92931189Y-125014726D01*
X91782142Y-123744726D02*
X92386904Y-123744726D01*
X92386904Y-123744726D02*
X92447380Y-124349488D01*
X92447380Y-124349488D02*
X92386904Y-124289011D01*
X92386904Y-124289011D02*
X92265951Y-124228535D01*
X92265951Y-124228535D02*
X91963570Y-124228535D01*
X91963570Y-124228535D02*
X91842618Y-124289011D01*
X91842618Y-124289011D02*
X91782142Y-124349488D01*
X91782142Y-124349488D02*
X91721665Y-124470440D01*
X91721665Y-124470440D02*
X91721665Y-124772821D01*
X91721665Y-124772821D02*
X91782142Y-124893773D01*
X91782142Y-124893773D02*
X91842618Y-124954250D01*
X91842618Y-124954250D02*
X91963570Y-125014726D01*
X91963570Y-125014726D02*
X92265951Y-125014726D01*
X92265951Y-125014726D02*
X92386904Y-124954250D01*
X92386904Y-124954250D02*
X92447380Y-124893773D01*
X90633094Y-124168059D02*
X90633094Y-125014726D01*
X90935475Y-123684250D02*
X91237856Y-124591392D01*
X91237856Y-124591392D02*
X90451665Y-124591392D01*
X89060713Y-124954250D02*
X88939760Y-125014726D01*
X88939760Y-125014726D02*
X88697856Y-125014726D01*
X88697856Y-125014726D02*
X88576903Y-124954250D01*
X88576903Y-124954250D02*
X88516427Y-124833297D01*
X88516427Y-124833297D02*
X88516427Y-124772821D01*
X88516427Y-124772821D02*
X88576903Y-124651869D01*
X88576903Y-124651869D02*
X88697856Y-124591392D01*
X88697856Y-124591392D02*
X88879284Y-124591392D01*
X88879284Y-124591392D02*
X89000237Y-124530916D01*
X89000237Y-124530916D02*
X89060713Y-124409964D01*
X89060713Y-124409964D02*
X89060713Y-124349488D01*
X89060713Y-124349488D02*
X89000237Y-124228535D01*
X89000237Y-124228535D02*
X88879284Y-124168059D01*
X88879284Y-124168059D02*
X88697856Y-124168059D01*
X88697856Y-124168059D02*
X88576903Y-124228535D01*
X87427856Y-124954250D02*
X87548808Y-125014726D01*
X87548808Y-125014726D02*
X87790713Y-125014726D01*
X87790713Y-125014726D02*
X87911665Y-124954250D01*
X87911665Y-124954250D02*
X87972142Y-124893773D01*
X87972142Y-124893773D02*
X88032618Y-124772821D01*
X88032618Y-124772821D02*
X88032618Y-124409964D01*
X88032618Y-124409964D02*
X87972142Y-124289011D01*
X87972142Y-124289011D02*
X87911665Y-124228535D01*
X87911665Y-124228535D02*
X87790713Y-124168059D01*
X87790713Y-124168059D02*
X87548808Y-124168059D01*
X87548808Y-124168059D02*
X87427856Y-124228535D01*
X86883571Y-125014726D02*
X86883571Y-123744726D01*
X86339285Y-125014726D02*
X86339285Y-124349488D01*
X86339285Y-124349488D02*
X86399761Y-124228535D01*
X86399761Y-124228535D02*
X86520713Y-124168059D01*
X86520713Y-124168059D02*
X86702142Y-124168059D01*
X86702142Y-124168059D02*
X86823094Y-124228535D01*
X86823094Y-124228535D02*
X86883571Y-124289011D01*
X85250713Y-124954250D02*
X85371665Y-125014726D01*
X85371665Y-125014726D02*
X85613570Y-125014726D01*
X85613570Y-125014726D02*
X85734523Y-124954250D01*
X85734523Y-124954250D02*
X85794999Y-124833297D01*
X85794999Y-124833297D02*
X85794999Y-124349488D01*
X85794999Y-124349488D02*
X85734523Y-124228535D01*
X85734523Y-124228535D02*
X85613570Y-124168059D01*
X85613570Y-124168059D02*
X85371665Y-124168059D01*
X85371665Y-124168059D02*
X85250713Y-124228535D01*
X85250713Y-124228535D02*
X85190237Y-124349488D01*
X85190237Y-124349488D02*
X85190237Y-124470440D01*
X85190237Y-124470440D02*
X85794999Y-124591392D01*
X84645952Y-125014726D02*
X84645952Y-124168059D01*
X84645952Y-124289011D02*
X84585475Y-124228535D01*
X84585475Y-124228535D02*
X84464523Y-124168059D01*
X84464523Y-124168059D02*
X84283094Y-124168059D01*
X84283094Y-124168059D02*
X84162142Y-124228535D01*
X84162142Y-124228535D02*
X84101666Y-124349488D01*
X84101666Y-124349488D02*
X84101666Y-125014726D01*
X84101666Y-124349488D02*
X84041190Y-124228535D01*
X84041190Y-124228535D02*
X83920237Y-124168059D01*
X83920237Y-124168059D02*
X83738809Y-124168059D01*
X83738809Y-124168059D02*
X83617856Y-124228535D01*
X83617856Y-124228535D02*
X83557380Y-124349488D01*
X83557380Y-124349488D02*
X83557380Y-125014726D01*
X82408333Y-125014726D02*
X82408333Y-124349488D01*
X82408333Y-124349488D02*
X82468809Y-124228535D01*
X82468809Y-124228535D02*
X82589761Y-124168059D01*
X82589761Y-124168059D02*
X82831666Y-124168059D01*
X82831666Y-124168059D02*
X82952619Y-124228535D01*
X82408333Y-124954250D02*
X82529285Y-125014726D01*
X82529285Y-125014726D02*
X82831666Y-125014726D01*
X82831666Y-125014726D02*
X82952619Y-124954250D01*
X82952619Y-124954250D02*
X83013095Y-124833297D01*
X83013095Y-124833297D02*
X83013095Y-124712345D01*
X83013095Y-124712345D02*
X82952619Y-124591392D01*
X82952619Y-124591392D02*
X82831666Y-124530916D01*
X82831666Y-124530916D02*
X82529285Y-124530916D01*
X82529285Y-124530916D02*
X82408333Y-124470440D01*
X81984999Y-124168059D02*
X81501190Y-124168059D01*
X81803571Y-123744726D02*
X81803571Y-124833297D01*
X81803571Y-124833297D02*
X81743094Y-124954250D01*
X81743094Y-124954250D02*
X81622142Y-125014726D01*
X81622142Y-125014726D02*
X81501190Y-125014726D01*
X81077857Y-125014726D02*
X81077857Y-124168059D01*
X81077857Y-123744726D02*
X81138333Y-123805202D01*
X81138333Y-123805202D02*
X81077857Y-123865678D01*
X81077857Y-123865678D02*
X81017380Y-123805202D01*
X81017380Y-123805202D02*
X81077857Y-123744726D01*
X81077857Y-123744726D02*
X81077857Y-123865678D01*
X79928809Y-124954250D02*
X80049761Y-125014726D01*
X80049761Y-125014726D02*
X80291666Y-125014726D01*
X80291666Y-125014726D02*
X80412618Y-124954250D01*
X80412618Y-124954250D02*
X80473095Y-124893773D01*
X80473095Y-124893773D02*
X80533571Y-124772821D01*
X80533571Y-124772821D02*
X80533571Y-124409964D01*
X80533571Y-124409964D02*
X80473095Y-124289011D01*
X80473095Y-124289011D02*
X80412618Y-124228535D01*
X80412618Y-124228535D02*
X80291666Y-124168059D01*
X80291666Y-124168059D02*
X80049761Y-124168059D01*
X80049761Y-124168059D02*
X79928809Y-124228535D01*
X177460713Y-113594726D02*
X177460713Y-112324726D01*
X177460713Y-112324726D02*
X176976903Y-112324726D01*
X176976903Y-112324726D02*
X176855951Y-112385202D01*
X176855951Y-112385202D02*
X176795474Y-112445678D01*
X176795474Y-112445678D02*
X176734998Y-112566630D01*
X176734998Y-112566630D02*
X176734998Y-112748059D01*
X176734998Y-112748059D02*
X176795474Y-112869011D01*
X176795474Y-112869011D02*
X176855951Y-112929488D01*
X176855951Y-112929488D02*
X176976903Y-112989964D01*
X176976903Y-112989964D02*
X177460713Y-112989964D01*
X176009284Y-113594726D02*
X176130236Y-113534250D01*
X176130236Y-113534250D02*
X176190713Y-113473773D01*
X176190713Y-113473773D02*
X176251189Y-113352821D01*
X176251189Y-113352821D02*
X176251189Y-112989964D01*
X176251189Y-112989964D02*
X176190713Y-112869011D01*
X176190713Y-112869011D02*
X176130236Y-112808535D01*
X176130236Y-112808535D02*
X176009284Y-112748059D01*
X176009284Y-112748059D02*
X175827855Y-112748059D01*
X175827855Y-112748059D02*
X175706903Y-112808535D01*
X175706903Y-112808535D02*
X175646427Y-112869011D01*
X175646427Y-112869011D02*
X175585951Y-112989964D01*
X175585951Y-112989964D02*
X175585951Y-113352821D01*
X175585951Y-113352821D02*
X175646427Y-113473773D01*
X175646427Y-113473773D02*
X175706903Y-113534250D01*
X175706903Y-113534250D02*
X175827855Y-113594726D01*
X175827855Y-113594726D02*
X176009284Y-113594726D01*
X174497379Y-113534250D02*
X174618331Y-113594726D01*
X174618331Y-113594726D02*
X174860236Y-113594726D01*
X174860236Y-113594726D02*
X174981188Y-113534250D01*
X174981188Y-113534250D02*
X175041665Y-113473773D01*
X175041665Y-113473773D02*
X175102141Y-113352821D01*
X175102141Y-113352821D02*
X175102141Y-112989964D01*
X175102141Y-112989964D02*
X175041665Y-112869011D01*
X175041665Y-112869011D02*
X174981188Y-112808535D01*
X174981188Y-112808535D02*
X174860236Y-112748059D01*
X174860236Y-112748059D02*
X174618331Y-112748059D01*
X174618331Y-112748059D02*
X174497379Y-112808535D01*
X173953094Y-113594726D02*
X173953094Y-112324726D01*
X173832141Y-113110916D02*
X173469284Y-113594726D01*
X173469284Y-112748059D02*
X173953094Y-113231869D01*
X172441189Y-113534250D02*
X172562141Y-113594726D01*
X172562141Y-113594726D02*
X172804046Y-113594726D01*
X172804046Y-113594726D02*
X172924999Y-113534250D01*
X172924999Y-113534250D02*
X172985475Y-113413297D01*
X172985475Y-113413297D02*
X172985475Y-112929488D01*
X172985475Y-112929488D02*
X172924999Y-112808535D01*
X172924999Y-112808535D02*
X172804046Y-112748059D01*
X172804046Y-112748059D02*
X172562141Y-112748059D01*
X172562141Y-112748059D02*
X172441189Y-112808535D01*
X172441189Y-112808535D02*
X172380713Y-112929488D01*
X172380713Y-112929488D02*
X172380713Y-113050440D01*
X172380713Y-113050440D02*
X172985475Y-113171392D01*
X172017856Y-112748059D02*
X171534047Y-112748059D01*
X171836428Y-112324726D02*
X171836428Y-113413297D01*
X171836428Y-113413297D02*
X171775951Y-113534250D01*
X171775951Y-113534250D02*
X171654999Y-113594726D01*
X171654999Y-113594726D02*
X171534047Y-113594726D01*
X170687380Y-112929488D02*
X170505952Y-112989964D01*
X170505952Y-112989964D02*
X170445475Y-113050440D01*
X170445475Y-113050440D02*
X170384999Y-113171392D01*
X170384999Y-113171392D02*
X170384999Y-113352821D01*
X170384999Y-113352821D02*
X170445475Y-113473773D01*
X170445475Y-113473773D02*
X170505952Y-113534250D01*
X170505952Y-113534250D02*
X170626904Y-113594726D01*
X170626904Y-113594726D02*
X171110714Y-113594726D01*
X171110714Y-113594726D02*
X171110714Y-112324726D01*
X171110714Y-112324726D02*
X170687380Y-112324726D01*
X170687380Y-112324726D02*
X170566428Y-112385202D01*
X170566428Y-112385202D02*
X170505952Y-112445678D01*
X170505952Y-112445678D02*
X170445475Y-112566630D01*
X170445475Y-112566630D02*
X170445475Y-112687583D01*
X170445475Y-112687583D02*
X170505952Y-112808535D01*
X170505952Y-112808535D02*
X170566428Y-112869011D01*
X170566428Y-112869011D02*
X170687380Y-112929488D01*
X170687380Y-112929488D02*
X171110714Y-112929488D01*
X169356904Y-113534250D02*
X169477856Y-113594726D01*
X169477856Y-113594726D02*
X169719761Y-113594726D01*
X169719761Y-113594726D02*
X169840714Y-113534250D01*
X169840714Y-113534250D02*
X169901190Y-113413297D01*
X169901190Y-113413297D02*
X169901190Y-112929488D01*
X169901190Y-112929488D02*
X169840714Y-112808535D01*
X169840714Y-112808535D02*
X169719761Y-112748059D01*
X169719761Y-112748059D02*
X169477856Y-112748059D01*
X169477856Y-112748059D02*
X169356904Y-112808535D01*
X169356904Y-112808535D02*
X169296428Y-112929488D01*
X169296428Y-112929488D02*
X169296428Y-113050440D01*
X169296428Y-113050440D02*
X169901190Y-113171392D01*
X168207857Y-113594726D02*
X168207857Y-112929488D01*
X168207857Y-112929488D02*
X168268333Y-112808535D01*
X168268333Y-112808535D02*
X168389285Y-112748059D01*
X168389285Y-112748059D02*
X168631190Y-112748059D01*
X168631190Y-112748059D02*
X168752143Y-112808535D01*
X168207857Y-113534250D02*
X168328809Y-113594726D01*
X168328809Y-113594726D02*
X168631190Y-113594726D01*
X168631190Y-113594726D02*
X168752143Y-113534250D01*
X168752143Y-113534250D02*
X168812619Y-113413297D01*
X168812619Y-113413297D02*
X168812619Y-113292345D01*
X168812619Y-113292345D02*
X168752143Y-113171392D01*
X168752143Y-113171392D02*
X168631190Y-113110916D01*
X168631190Y-113110916D02*
X168328809Y-113110916D01*
X168328809Y-113110916D02*
X168207857Y-113050440D01*
X167058809Y-112748059D02*
X167058809Y-113776154D01*
X167058809Y-113776154D02*
X167119285Y-113897107D01*
X167119285Y-113897107D02*
X167179761Y-113957583D01*
X167179761Y-113957583D02*
X167300714Y-114018059D01*
X167300714Y-114018059D02*
X167482142Y-114018059D01*
X167482142Y-114018059D02*
X167603095Y-113957583D01*
X167058809Y-113534250D02*
X167179761Y-113594726D01*
X167179761Y-113594726D02*
X167421666Y-113594726D01*
X167421666Y-113594726D02*
X167542618Y-113534250D01*
X167542618Y-113534250D02*
X167603095Y-113473773D01*
X167603095Y-113473773D02*
X167663571Y-113352821D01*
X167663571Y-113352821D02*
X167663571Y-112989964D01*
X167663571Y-112989964D02*
X167603095Y-112869011D01*
X167603095Y-112869011D02*
X167542618Y-112808535D01*
X167542618Y-112808535D02*
X167421666Y-112748059D01*
X167421666Y-112748059D02*
X167179761Y-112748059D01*
X167179761Y-112748059D02*
X167058809Y-112808535D01*
X166272618Y-113594726D02*
X166393570Y-113534250D01*
X166393570Y-113534250D02*
X166454047Y-113413297D01*
X166454047Y-113413297D02*
X166454047Y-112324726D01*
X165304999Y-113534250D02*
X165425951Y-113594726D01*
X165425951Y-113594726D02*
X165667856Y-113594726D01*
X165667856Y-113594726D02*
X165788809Y-113534250D01*
X165788809Y-113534250D02*
X165849285Y-113413297D01*
X165849285Y-113413297D02*
X165849285Y-112929488D01*
X165849285Y-112929488D02*
X165788809Y-112808535D01*
X165788809Y-112808535D02*
X165667856Y-112748059D01*
X165667856Y-112748059D02*
X165425951Y-112748059D01*
X165425951Y-112748059D02*
X165304999Y-112808535D01*
X165304999Y-112808535D02*
X165244523Y-112929488D01*
X165244523Y-112929488D02*
X165244523Y-113050440D01*
X165244523Y-113050440D02*
X165849285Y-113171392D01*
X163793095Y-112445678D02*
X163732619Y-112385202D01*
X163732619Y-112385202D02*
X163611666Y-112324726D01*
X163611666Y-112324726D02*
X163309285Y-112324726D01*
X163309285Y-112324726D02*
X163188333Y-112385202D01*
X163188333Y-112385202D02*
X163127857Y-112445678D01*
X163127857Y-112445678D02*
X163067380Y-112566630D01*
X163067380Y-112566630D02*
X163067380Y-112687583D01*
X163067380Y-112687583D02*
X163127857Y-112869011D01*
X163127857Y-112869011D02*
X163853571Y-113594726D01*
X163853571Y-113594726D02*
X163067380Y-113594726D01*
X161555476Y-113594726D02*
X161555476Y-112324726D01*
X160950714Y-112748059D02*
X160950714Y-113594726D01*
X160950714Y-112869011D02*
X160890237Y-112808535D01*
X160890237Y-112808535D02*
X160769285Y-112748059D01*
X160769285Y-112748059D02*
X160587856Y-112748059D01*
X160587856Y-112748059D02*
X160466904Y-112808535D01*
X160466904Y-112808535D02*
X160406428Y-112929488D01*
X160406428Y-112929488D02*
X160406428Y-113594726D01*
X159257380Y-113594726D02*
X159257380Y-112324726D01*
X159257380Y-113534250D02*
X159378332Y-113594726D01*
X159378332Y-113594726D02*
X159620237Y-113594726D01*
X159620237Y-113594726D02*
X159741189Y-113534250D01*
X159741189Y-113534250D02*
X159801666Y-113473773D01*
X159801666Y-113473773D02*
X159862142Y-113352821D01*
X159862142Y-113352821D02*
X159862142Y-112989964D01*
X159862142Y-112989964D02*
X159801666Y-112869011D01*
X159801666Y-112869011D02*
X159741189Y-112808535D01*
X159741189Y-112808535D02*
X159620237Y-112748059D01*
X159620237Y-112748059D02*
X159378332Y-112748059D01*
X159378332Y-112748059D02*
X159257380Y-112808535D01*
X158108332Y-112748059D02*
X158108332Y-113594726D01*
X158652618Y-112748059D02*
X158652618Y-113413297D01*
X158652618Y-113413297D02*
X158592141Y-113534250D01*
X158592141Y-113534250D02*
X158471189Y-113594726D01*
X158471189Y-113594726D02*
X158289760Y-113594726D01*
X158289760Y-113594726D02*
X158168808Y-113534250D01*
X158168808Y-113534250D02*
X158108332Y-113473773D01*
X157564046Y-113534250D02*
X157443093Y-113594726D01*
X157443093Y-113594726D02*
X157201189Y-113594726D01*
X157201189Y-113594726D02*
X157080236Y-113534250D01*
X157080236Y-113534250D02*
X157019760Y-113413297D01*
X157019760Y-113413297D02*
X157019760Y-113352821D01*
X157019760Y-113352821D02*
X157080236Y-113231869D01*
X157080236Y-113231869D02*
X157201189Y-113171392D01*
X157201189Y-113171392D02*
X157382617Y-113171392D01*
X157382617Y-113171392D02*
X157503570Y-113110916D01*
X157503570Y-113110916D02*
X157564046Y-112989964D01*
X157564046Y-112989964D02*
X157564046Y-112929488D01*
X157564046Y-112929488D02*
X157503570Y-112808535D01*
X157503570Y-112808535D02*
X157382617Y-112748059D01*
X157382617Y-112748059D02*
X157201189Y-112748059D01*
X157201189Y-112748059D02*
X157080236Y-112808535D01*
X156656903Y-112748059D02*
X156173094Y-112748059D01*
X156475475Y-112324726D02*
X156475475Y-113413297D01*
X156475475Y-113413297D02*
X156414998Y-113534250D01*
X156414998Y-113534250D02*
X156294046Y-113594726D01*
X156294046Y-113594726D02*
X156173094Y-113594726D01*
X155749761Y-113594726D02*
X155749761Y-112748059D01*
X155749761Y-112989964D02*
X155689284Y-112869011D01*
X155689284Y-112869011D02*
X155628808Y-112808535D01*
X155628808Y-112808535D02*
X155507856Y-112748059D01*
X155507856Y-112748059D02*
X155386903Y-112748059D01*
X154963571Y-113594726D02*
X154963571Y-112748059D01*
X154963571Y-112324726D02*
X155024047Y-112385202D01*
X155024047Y-112385202D02*
X154963571Y-112445678D01*
X154963571Y-112445678D02*
X154903094Y-112385202D01*
X154903094Y-112385202D02*
X154963571Y-112324726D01*
X154963571Y-112324726D02*
X154963571Y-112445678D01*
X153814523Y-113594726D02*
X153814523Y-112929488D01*
X153814523Y-112929488D02*
X153874999Y-112808535D01*
X153874999Y-112808535D02*
X153995951Y-112748059D01*
X153995951Y-112748059D02*
X154237856Y-112748059D01*
X154237856Y-112748059D02*
X154358809Y-112808535D01*
X153814523Y-113534250D02*
X153935475Y-113594726D01*
X153935475Y-113594726D02*
X154237856Y-113594726D01*
X154237856Y-113594726D02*
X154358809Y-113534250D01*
X154358809Y-113534250D02*
X154419285Y-113413297D01*
X154419285Y-113413297D02*
X154419285Y-113292345D01*
X154419285Y-113292345D02*
X154358809Y-113171392D01*
X154358809Y-113171392D02*
X154237856Y-113110916D01*
X154237856Y-113110916D02*
X153935475Y-113110916D01*
X153935475Y-113110916D02*
X153814523Y-113050440D01*
X153028332Y-113594726D02*
X153149284Y-113534250D01*
X153149284Y-113534250D02*
X153209761Y-113413297D01*
X153209761Y-113413297D02*
X153209761Y-112324726D01*
X151576904Y-113594726D02*
X151576904Y-112324726D01*
X151576904Y-112324726D02*
X151093094Y-112324726D01*
X151093094Y-112324726D02*
X150972142Y-112385202D01*
X150972142Y-112385202D02*
X150911665Y-112445678D01*
X150911665Y-112445678D02*
X150851189Y-112566630D01*
X150851189Y-112566630D02*
X150851189Y-112748059D01*
X150851189Y-112748059D02*
X150911665Y-112869011D01*
X150911665Y-112869011D02*
X150972142Y-112929488D01*
X150972142Y-112929488D02*
X151093094Y-112989964D01*
X151093094Y-112989964D02*
X151576904Y-112989964D01*
X149641665Y-113594726D02*
X150367380Y-113594726D01*
X150004523Y-113594726D02*
X150004523Y-112324726D01*
X150004523Y-112324726D02*
X150125475Y-112506154D01*
X150125475Y-112506154D02*
X150246427Y-112627107D01*
X150246427Y-112627107D02*
X150367380Y-112687583D01*
X148190237Y-113534250D02*
X148069284Y-113594726D01*
X148069284Y-113594726D02*
X147827380Y-113594726D01*
X147827380Y-113594726D02*
X147706427Y-113534250D01*
X147706427Y-113534250D02*
X147645951Y-113413297D01*
X147645951Y-113413297D02*
X147645951Y-113352821D01*
X147645951Y-113352821D02*
X147706427Y-113231869D01*
X147706427Y-113231869D02*
X147827380Y-113171392D01*
X147827380Y-113171392D02*
X148008808Y-113171392D01*
X148008808Y-113171392D02*
X148129761Y-113110916D01*
X148129761Y-113110916D02*
X148190237Y-112989964D01*
X148190237Y-112989964D02*
X148190237Y-112929488D01*
X148190237Y-112929488D02*
X148129761Y-112808535D01*
X148129761Y-112808535D02*
X148008808Y-112748059D01*
X148008808Y-112748059D02*
X147827380Y-112748059D01*
X147827380Y-112748059D02*
X147706427Y-112808535D01*
X146920237Y-113594726D02*
X147041189Y-113534250D01*
X147041189Y-113534250D02*
X147101666Y-113473773D01*
X147101666Y-113473773D02*
X147162142Y-113352821D01*
X147162142Y-113352821D02*
X147162142Y-112989964D01*
X147162142Y-112989964D02*
X147101666Y-112869011D01*
X147101666Y-112869011D02*
X147041189Y-112808535D01*
X147041189Y-112808535D02*
X146920237Y-112748059D01*
X146920237Y-112748059D02*
X146738808Y-112748059D01*
X146738808Y-112748059D02*
X146617856Y-112808535D01*
X146617856Y-112808535D02*
X146557380Y-112869011D01*
X146557380Y-112869011D02*
X146496904Y-112989964D01*
X146496904Y-112989964D02*
X146496904Y-113352821D01*
X146496904Y-113352821D02*
X146557380Y-113473773D01*
X146557380Y-113473773D02*
X146617856Y-113534250D01*
X146617856Y-113534250D02*
X146738808Y-113594726D01*
X146738808Y-113594726D02*
X146920237Y-113594726D01*
X145408332Y-113534250D02*
X145529284Y-113594726D01*
X145529284Y-113594726D02*
X145771189Y-113594726D01*
X145771189Y-113594726D02*
X145892141Y-113534250D01*
X145892141Y-113534250D02*
X145952618Y-113473773D01*
X145952618Y-113473773D02*
X146013094Y-113352821D01*
X146013094Y-113352821D02*
X146013094Y-112989964D01*
X146013094Y-112989964D02*
X145952618Y-112869011D01*
X145952618Y-112869011D02*
X145892141Y-112808535D01*
X145892141Y-112808535D02*
X145771189Y-112748059D01*
X145771189Y-112748059D02*
X145529284Y-112748059D01*
X145529284Y-112748059D02*
X145408332Y-112808535D01*
X144864047Y-113594726D02*
X144864047Y-112324726D01*
X144743094Y-113110916D02*
X144380237Y-113594726D01*
X144380237Y-112748059D02*
X144864047Y-113231869D01*
X143352142Y-113534250D02*
X143473094Y-113594726D01*
X143473094Y-113594726D02*
X143714999Y-113594726D01*
X143714999Y-113594726D02*
X143835952Y-113534250D01*
X143835952Y-113534250D02*
X143896428Y-113413297D01*
X143896428Y-113413297D02*
X143896428Y-112929488D01*
X143896428Y-112929488D02*
X143835952Y-112808535D01*
X143835952Y-112808535D02*
X143714999Y-112748059D01*
X143714999Y-112748059D02*
X143473094Y-112748059D01*
X143473094Y-112748059D02*
X143352142Y-112808535D01*
X143352142Y-112808535D02*
X143291666Y-112929488D01*
X143291666Y-112929488D02*
X143291666Y-113050440D01*
X143291666Y-113050440D02*
X143896428Y-113171392D01*
X142928809Y-112748059D02*
X142445000Y-112748059D01*
X142747381Y-112324726D02*
X142747381Y-113413297D01*
X142747381Y-113413297D02*
X142686904Y-113534250D01*
X142686904Y-113534250D02*
X142565952Y-113594726D01*
X142565952Y-113594726D02*
X142445000Y-113594726D01*
X141114524Y-112445678D02*
X141054048Y-112385202D01*
X141054048Y-112385202D02*
X140933095Y-112324726D01*
X140933095Y-112324726D02*
X140630714Y-112324726D01*
X140630714Y-112324726D02*
X140509762Y-112385202D01*
X140509762Y-112385202D02*
X140449286Y-112445678D01*
X140449286Y-112445678D02*
X140388809Y-112566630D01*
X140388809Y-112566630D02*
X140388809Y-112687583D01*
X140388809Y-112687583D02*
X140449286Y-112869011D01*
X140449286Y-112869011D02*
X141175000Y-113594726D01*
X141175000Y-113594726D02*
X140388809Y-113594726D01*
X139965476Y-113594726D02*
X139300238Y-112748059D01*
X139965476Y-112748059D02*
X139300238Y-113594726D01*
X138151190Y-113594726D02*
X138876905Y-113594726D01*
X138514048Y-113594726D02*
X138514048Y-112324726D01*
X138514048Y-112324726D02*
X138635000Y-112506154D01*
X138635000Y-112506154D02*
X138755952Y-112627107D01*
X138755952Y-112627107D02*
X138876905Y-112687583D01*
X137425476Y-112869011D02*
X137546428Y-112808535D01*
X137546428Y-112808535D02*
X137606905Y-112748059D01*
X137606905Y-112748059D02*
X137667381Y-112627107D01*
X137667381Y-112627107D02*
X137667381Y-112566630D01*
X137667381Y-112566630D02*
X137606905Y-112445678D01*
X137606905Y-112445678D02*
X137546428Y-112385202D01*
X137546428Y-112385202D02*
X137425476Y-112324726D01*
X137425476Y-112324726D02*
X137183571Y-112324726D01*
X137183571Y-112324726D02*
X137062619Y-112385202D01*
X137062619Y-112385202D02*
X137002143Y-112445678D01*
X137002143Y-112445678D02*
X136941666Y-112566630D01*
X136941666Y-112566630D02*
X136941666Y-112627107D01*
X136941666Y-112627107D02*
X137002143Y-112748059D01*
X137002143Y-112748059D02*
X137062619Y-112808535D01*
X137062619Y-112808535D02*
X137183571Y-112869011D01*
X137183571Y-112869011D02*
X137425476Y-112869011D01*
X137425476Y-112869011D02*
X137546428Y-112929488D01*
X137546428Y-112929488D02*
X137606905Y-112989964D01*
X137606905Y-112989964D02*
X137667381Y-113110916D01*
X137667381Y-113110916D02*
X137667381Y-113352821D01*
X137667381Y-113352821D02*
X137606905Y-113473773D01*
X137606905Y-113473773D02*
X137546428Y-113534250D01*
X137546428Y-113534250D02*
X137425476Y-113594726D01*
X137425476Y-113594726D02*
X137183571Y-113594726D01*
X137183571Y-113594726D02*
X137062619Y-113534250D01*
X137062619Y-113534250D02*
X137002143Y-113473773D01*
X137002143Y-113473773D02*
X136941666Y-113352821D01*
X136941666Y-113352821D02*
X136941666Y-113110916D01*
X136941666Y-113110916D02*
X137002143Y-112989964D01*
X137002143Y-112989964D02*
X137062619Y-112929488D01*
X137062619Y-112929488D02*
X137183571Y-112869011D01*
X135490238Y-112445678D02*
X135429762Y-112385202D01*
X135429762Y-112385202D02*
X135308809Y-112324726D01*
X135308809Y-112324726D02*
X135006428Y-112324726D01*
X135006428Y-112324726D02*
X134885476Y-112385202D01*
X134885476Y-112385202D02*
X134825000Y-112445678D01*
X134825000Y-112445678D02*
X134764523Y-112566630D01*
X134764523Y-112566630D02*
X134764523Y-112687583D01*
X134764523Y-112687583D02*
X134825000Y-112869011D01*
X134825000Y-112869011D02*
X135550714Y-113594726D01*
X135550714Y-113594726D02*
X134764523Y-113594726D01*
X134220238Y-113473773D02*
X134159761Y-113534250D01*
X134159761Y-113534250D02*
X134220238Y-113594726D01*
X134220238Y-113594726D02*
X134280714Y-113534250D01*
X134280714Y-113534250D02*
X134220238Y-113473773D01*
X134220238Y-113473773D02*
X134220238Y-113594726D01*
X133010714Y-112324726D02*
X133615476Y-112324726D01*
X133615476Y-112324726D02*
X133675952Y-112929488D01*
X133675952Y-112929488D02*
X133615476Y-112869011D01*
X133615476Y-112869011D02*
X133494523Y-112808535D01*
X133494523Y-112808535D02*
X133192142Y-112808535D01*
X133192142Y-112808535D02*
X133071190Y-112869011D01*
X133071190Y-112869011D02*
X133010714Y-112929488D01*
X133010714Y-112929488D02*
X132950237Y-113050440D01*
X132950237Y-113050440D02*
X132950237Y-113352821D01*
X132950237Y-113352821D02*
X133010714Y-113473773D01*
X133010714Y-113473773D02*
X133071190Y-113534250D01*
X133071190Y-113534250D02*
X133192142Y-113594726D01*
X133192142Y-113594726D02*
X133494523Y-113594726D01*
X133494523Y-113594726D02*
X133615476Y-113534250D01*
X133615476Y-113534250D02*
X133675952Y-113473773D01*
X131861666Y-112748059D02*
X131861666Y-113594726D01*
X132164047Y-112264250D02*
X132466428Y-113171392D01*
X132466428Y-113171392D02*
X131680237Y-113171392D01*
X131196428Y-113594726D02*
X131196428Y-112748059D01*
X131196428Y-112869011D02*
X131135951Y-112808535D01*
X131135951Y-112808535D02*
X131014999Y-112748059D01*
X131014999Y-112748059D02*
X130833570Y-112748059D01*
X130833570Y-112748059D02*
X130712618Y-112808535D01*
X130712618Y-112808535D02*
X130652142Y-112929488D01*
X130652142Y-112929488D02*
X130652142Y-113594726D01*
X130652142Y-112929488D02*
X130591666Y-112808535D01*
X130591666Y-112808535D02*
X130470713Y-112748059D01*
X130470713Y-112748059D02*
X130289285Y-112748059D01*
X130289285Y-112748059D02*
X130168332Y-112808535D01*
X130168332Y-112808535D02*
X130107856Y-112929488D01*
X130107856Y-112929488D02*
X130107856Y-113594726D01*
X129503095Y-113594726D02*
X129503095Y-112748059D01*
X129503095Y-112869011D02*
X129442618Y-112808535D01*
X129442618Y-112808535D02*
X129321666Y-112748059D01*
X129321666Y-112748059D02*
X129140237Y-112748059D01*
X129140237Y-112748059D02*
X129019285Y-112808535D01*
X129019285Y-112808535D02*
X128958809Y-112929488D01*
X128958809Y-112929488D02*
X128958809Y-113594726D01*
X128958809Y-112929488D02*
X128898333Y-112808535D01*
X128898333Y-112808535D02*
X128777380Y-112748059D01*
X128777380Y-112748059D02*
X128595952Y-112748059D01*
X128595952Y-112748059D02*
X128474999Y-112808535D01*
X128474999Y-112808535D02*
X128414523Y-112929488D01*
X128414523Y-112929488D02*
X128414523Y-113594726D01*
X127023571Y-112324726D02*
X126297857Y-112324726D01*
X126660714Y-113594726D02*
X126660714Y-112324726D01*
X125874524Y-113594726D02*
X125874524Y-112324726D01*
X125874524Y-112929488D02*
X125148809Y-112929488D01*
X125148809Y-113594726D02*
X125148809Y-112324726D01*
X123697381Y-113171392D02*
X122608810Y-113171392D01*
X121278333Y-112748059D02*
X120975952Y-113594726D01*
X120975952Y-113594726D02*
X120673571Y-112748059D01*
X119705952Y-113534250D02*
X119826904Y-113594726D01*
X119826904Y-113594726D02*
X120068809Y-113594726D01*
X120068809Y-113594726D02*
X120189762Y-113534250D01*
X120189762Y-113534250D02*
X120250238Y-113413297D01*
X120250238Y-113413297D02*
X120250238Y-112929488D01*
X120250238Y-112929488D02*
X120189762Y-112808535D01*
X120189762Y-112808535D02*
X120068809Y-112748059D01*
X120068809Y-112748059D02*
X119826904Y-112748059D01*
X119826904Y-112748059D02*
X119705952Y-112808535D01*
X119705952Y-112808535D02*
X119645476Y-112929488D01*
X119645476Y-112929488D02*
X119645476Y-113050440D01*
X119645476Y-113050440D02*
X120250238Y-113171392D01*
X119101191Y-113594726D02*
X119101191Y-112748059D01*
X119101191Y-112989964D02*
X119040714Y-112869011D01*
X119040714Y-112869011D02*
X118980238Y-112808535D01*
X118980238Y-112808535D02*
X118859286Y-112748059D01*
X118859286Y-112748059D02*
X118738333Y-112748059D01*
X118315001Y-113594726D02*
X118315001Y-112748059D01*
X118315001Y-112324726D02*
X118375477Y-112385202D01*
X118375477Y-112385202D02*
X118315001Y-112445678D01*
X118315001Y-112445678D02*
X118254524Y-112385202D01*
X118254524Y-112385202D02*
X118315001Y-112324726D01*
X118315001Y-112324726D02*
X118315001Y-112445678D01*
X117891667Y-112748059D02*
X117407858Y-112748059D01*
X117710239Y-113594726D02*
X117710239Y-112506154D01*
X117710239Y-112506154D02*
X117649762Y-112385202D01*
X117649762Y-112385202D02*
X117528810Y-112324726D01*
X117528810Y-112324726D02*
X117407858Y-112324726D01*
X117105477Y-112748059D02*
X116803096Y-113594726D01*
X116500715Y-112748059D02*
X116803096Y-113594726D01*
X116803096Y-113594726D02*
X116924048Y-113897107D01*
X116924048Y-113897107D02*
X116984525Y-113957583D01*
X116984525Y-113957583D02*
X117105477Y-114018059D01*
X115049287Y-112748059D02*
X115049287Y-114018059D01*
X115049287Y-112808535D02*
X114928334Y-112748059D01*
X114928334Y-112748059D02*
X114686429Y-112748059D01*
X114686429Y-112748059D02*
X114565477Y-112808535D01*
X114565477Y-112808535D02*
X114505001Y-112869011D01*
X114505001Y-112869011D02*
X114444525Y-112989964D01*
X114444525Y-112989964D02*
X114444525Y-113352821D01*
X114444525Y-113352821D02*
X114505001Y-113473773D01*
X114505001Y-113473773D02*
X114565477Y-113534250D01*
X114565477Y-113534250D02*
X114686429Y-113594726D01*
X114686429Y-113594726D02*
X114928334Y-113594726D01*
X114928334Y-113594726D02*
X115049287Y-113534250D01*
X113900239Y-113594726D02*
X113900239Y-112748059D01*
X113900239Y-112324726D02*
X113960715Y-112385202D01*
X113960715Y-112385202D02*
X113900239Y-112445678D01*
X113900239Y-112445678D02*
X113839762Y-112385202D01*
X113839762Y-112385202D02*
X113900239Y-112324726D01*
X113900239Y-112324726D02*
X113900239Y-112445678D01*
X113295477Y-112748059D02*
X113295477Y-113594726D01*
X113295477Y-112869011D02*
X113235000Y-112808535D01*
X113235000Y-112808535D02*
X113114048Y-112748059D01*
X113114048Y-112748059D02*
X112932619Y-112748059D01*
X112932619Y-112748059D02*
X112811667Y-112808535D01*
X112811667Y-112808535D02*
X112751191Y-112929488D01*
X112751191Y-112929488D02*
X112751191Y-113594726D01*
X111178810Y-113594726D02*
X111178810Y-112748059D01*
X111178810Y-112869011D02*
X111118333Y-112808535D01*
X111118333Y-112808535D02*
X110997381Y-112748059D01*
X110997381Y-112748059D02*
X110815952Y-112748059D01*
X110815952Y-112748059D02*
X110695000Y-112808535D01*
X110695000Y-112808535D02*
X110634524Y-112929488D01*
X110634524Y-112929488D02*
X110634524Y-113594726D01*
X110634524Y-112929488D02*
X110574048Y-112808535D01*
X110574048Y-112808535D02*
X110453095Y-112748059D01*
X110453095Y-112748059D02*
X110271667Y-112748059D01*
X110271667Y-112748059D02*
X110150714Y-112808535D01*
X110150714Y-112808535D02*
X110090238Y-112929488D01*
X110090238Y-112929488D02*
X110090238Y-113594726D01*
X108941191Y-113594726D02*
X108941191Y-112929488D01*
X108941191Y-112929488D02*
X109001667Y-112808535D01*
X109001667Y-112808535D02*
X109122619Y-112748059D01*
X109122619Y-112748059D02*
X109364524Y-112748059D01*
X109364524Y-112748059D02*
X109485477Y-112808535D01*
X108941191Y-113534250D02*
X109062143Y-113594726D01*
X109062143Y-113594726D02*
X109364524Y-113594726D01*
X109364524Y-113594726D02*
X109485477Y-113534250D01*
X109485477Y-113534250D02*
X109545953Y-113413297D01*
X109545953Y-113413297D02*
X109545953Y-113292345D01*
X109545953Y-113292345D02*
X109485477Y-113171392D01*
X109485477Y-113171392D02*
X109364524Y-113110916D01*
X109364524Y-113110916D02*
X109062143Y-113110916D01*
X109062143Y-113110916D02*
X108941191Y-113050440D01*
X108336429Y-112748059D02*
X108336429Y-114018059D01*
X108336429Y-112808535D02*
X108215476Y-112748059D01*
X108215476Y-112748059D02*
X107973571Y-112748059D01*
X107973571Y-112748059D02*
X107852619Y-112808535D01*
X107852619Y-112808535D02*
X107792143Y-112869011D01*
X107792143Y-112869011D02*
X107731667Y-112989964D01*
X107731667Y-112989964D02*
X107731667Y-113352821D01*
X107731667Y-113352821D02*
X107792143Y-113473773D01*
X107792143Y-113473773D02*
X107852619Y-113534250D01*
X107852619Y-113534250D02*
X107973571Y-113594726D01*
X107973571Y-113594726D02*
X108215476Y-113594726D01*
X108215476Y-113594726D02*
X108336429Y-113534250D01*
X107187381Y-112748059D02*
X107187381Y-114018059D01*
X107187381Y-112808535D02*
X107066428Y-112748059D01*
X107066428Y-112748059D02*
X106824523Y-112748059D01*
X106824523Y-112748059D02*
X106703571Y-112808535D01*
X106703571Y-112808535D02*
X106643095Y-112869011D01*
X106643095Y-112869011D02*
X106582619Y-112989964D01*
X106582619Y-112989964D02*
X106582619Y-113352821D01*
X106582619Y-113352821D02*
X106643095Y-113473773D01*
X106643095Y-113473773D02*
X106703571Y-113534250D01*
X106703571Y-113534250D02*
X106824523Y-113594726D01*
X106824523Y-113594726D02*
X107066428Y-113594726D01*
X107066428Y-113594726D02*
X107187381Y-113534250D01*
X106038333Y-113594726D02*
X106038333Y-112748059D01*
X106038333Y-112324726D02*
X106098809Y-112385202D01*
X106098809Y-112385202D02*
X106038333Y-112445678D01*
X106038333Y-112445678D02*
X105977856Y-112385202D01*
X105977856Y-112385202D02*
X106038333Y-112324726D01*
X106038333Y-112324726D02*
X106038333Y-112445678D01*
X105433571Y-112748059D02*
X105433571Y-113594726D01*
X105433571Y-112869011D02*
X105373094Y-112808535D01*
X105373094Y-112808535D02*
X105252142Y-112748059D01*
X105252142Y-112748059D02*
X105070713Y-112748059D01*
X105070713Y-112748059D02*
X104949761Y-112808535D01*
X104949761Y-112808535D02*
X104889285Y-112929488D01*
X104889285Y-112929488D02*
X104889285Y-113594726D01*
X103740237Y-112748059D02*
X103740237Y-113776154D01*
X103740237Y-113776154D02*
X103800713Y-113897107D01*
X103800713Y-113897107D02*
X103861189Y-113957583D01*
X103861189Y-113957583D02*
X103982142Y-114018059D01*
X103982142Y-114018059D02*
X104163570Y-114018059D01*
X104163570Y-114018059D02*
X104284523Y-113957583D01*
X103740237Y-113534250D02*
X103861189Y-113594726D01*
X103861189Y-113594726D02*
X104103094Y-113594726D01*
X104103094Y-113594726D02*
X104224046Y-113534250D01*
X104224046Y-113534250D02*
X104284523Y-113473773D01*
X104284523Y-113473773D02*
X104344999Y-113352821D01*
X104344999Y-113352821D02*
X104344999Y-112989964D01*
X104344999Y-112989964D02*
X104284523Y-112869011D01*
X104284523Y-112869011D02*
X104224046Y-112808535D01*
X104224046Y-112808535D02*
X104103094Y-112748059D01*
X104103094Y-112748059D02*
X103861189Y-112748059D01*
X103861189Y-112748059D02*
X103740237Y-112808535D01*
X102349284Y-112748059D02*
X101865475Y-112748059D01*
X102167856Y-113594726D02*
X102167856Y-112506154D01*
X102167856Y-112506154D02*
X102107379Y-112385202D01*
X102107379Y-112385202D02*
X101986427Y-112324726D01*
X101986427Y-112324726D02*
X101865475Y-112324726D01*
X101442142Y-113594726D02*
X101442142Y-112748059D01*
X101442142Y-112989964D02*
X101381665Y-112869011D01*
X101381665Y-112869011D02*
X101321189Y-112808535D01*
X101321189Y-112808535D02*
X101200237Y-112748059D01*
X101200237Y-112748059D02*
X101079284Y-112748059D01*
X100474523Y-113594726D02*
X100595475Y-113534250D01*
X100595475Y-113534250D02*
X100655952Y-113473773D01*
X100655952Y-113473773D02*
X100716428Y-113352821D01*
X100716428Y-113352821D02*
X100716428Y-112989964D01*
X100716428Y-112989964D02*
X100655952Y-112869011D01*
X100655952Y-112869011D02*
X100595475Y-112808535D01*
X100595475Y-112808535D02*
X100474523Y-112748059D01*
X100474523Y-112748059D02*
X100293094Y-112748059D01*
X100293094Y-112748059D02*
X100172142Y-112808535D01*
X100172142Y-112808535D02*
X100111666Y-112869011D01*
X100111666Y-112869011D02*
X100051190Y-112989964D01*
X100051190Y-112989964D02*
X100051190Y-113352821D01*
X100051190Y-113352821D02*
X100111666Y-113473773D01*
X100111666Y-113473773D02*
X100172142Y-113534250D01*
X100172142Y-113534250D02*
X100293094Y-113594726D01*
X100293094Y-113594726D02*
X100474523Y-113594726D01*
X99506904Y-113594726D02*
X99506904Y-112748059D01*
X99506904Y-112869011D02*
X99446427Y-112808535D01*
X99446427Y-112808535D02*
X99325475Y-112748059D01*
X99325475Y-112748059D02*
X99144046Y-112748059D01*
X99144046Y-112748059D02*
X99023094Y-112808535D01*
X99023094Y-112808535D02*
X98962618Y-112929488D01*
X98962618Y-112929488D02*
X98962618Y-113594726D01*
X98962618Y-112929488D02*
X98902142Y-112808535D01*
X98902142Y-112808535D02*
X98781189Y-112748059D01*
X98781189Y-112748059D02*
X98599761Y-112748059D01*
X98599761Y-112748059D02*
X98478808Y-112808535D01*
X98478808Y-112808535D02*
X98418332Y-112929488D01*
X98418332Y-112929488D02*
X98418332Y-113594726D01*
X96906428Y-113231869D02*
X96301666Y-113231869D01*
X97027380Y-113594726D02*
X96604047Y-112324726D01*
X96604047Y-112324726D02*
X96180713Y-113594726D01*
X95757381Y-113594726D02*
X95757381Y-112324726D01*
X95757381Y-112324726D02*
X95334047Y-113231869D01*
X95334047Y-113231869D02*
X94910714Y-112324726D01*
X94910714Y-112324726D02*
X94910714Y-113594726D01*
X93761666Y-112324726D02*
X94003571Y-112324726D01*
X94003571Y-112324726D02*
X94124523Y-112385202D01*
X94124523Y-112385202D02*
X94184999Y-112445678D01*
X94184999Y-112445678D02*
X94305952Y-112627107D01*
X94305952Y-112627107D02*
X94366428Y-112869011D01*
X94366428Y-112869011D02*
X94366428Y-113352821D01*
X94366428Y-113352821D02*
X94305952Y-113473773D01*
X94305952Y-113473773D02*
X94245475Y-113534250D01*
X94245475Y-113534250D02*
X94124523Y-113594726D01*
X94124523Y-113594726D02*
X93882618Y-113594726D01*
X93882618Y-113594726D02*
X93761666Y-113534250D01*
X93761666Y-113534250D02*
X93701190Y-113473773D01*
X93701190Y-113473773D02*
X93640713Y-113352821D01*
X93640713Y-113352821D02*
X93640713Y-113050440D01*
X93640713Y-113050440D02*
X93701190Y-112929488D01*
X93701190Y-112929488D02*
X93761666Y-112869011D01*
X93761666Y-112869011D02*
X93882618Y-112808535D01*
X93882618Y-112808535D02*
X94124523Y-112808535D01*
X94124523Y-112808535D02*
X94245475Y-112869011D01*
X94245475Y-112869011D02*
X94305952Y-112929488D01*
X94305952Y-112929488D02*
X94366428Y-113050440D01*
X93156904Y-112445678D02*
X93096428Y-112385202D01*
X93096428Y-112385202D02*
X92975475Y-112324726D01*
X92975475Y-112324726D02*
X92673094Y-112324726D01*
X92673094Y-112324726D02*
X92552142Y-112385202D01*
X92552142Y-112385202D02*
X92491666Y-112445678D01*
X92491666Y-112445678D02*
X92431189Y-112566630D01*
X92431189Y-112566630D02*
X92431189Y-112687583D01*
X92431189Y-112687583D02*
X92491666Y-112869011D01*
X92491666Y-112869011D02*
X93217380Y-113594726D01*
X93217380Y-113594726D02*
X92431189Y-113594726D01*
X91282142Y-112324726D02*
X91886904Y-112324726D01*
X91886904Y-112324726D02*
X91947380Y-112929488D01*
X91947380Y-112929488D02*
X91886904Y-112869011D01*
X91886904Y-112869011D02*
X91765951Y-112808535D01*
X91765951Y-112808535D02*
X91463570Y-112808535D01*
X91463570Y-112808535D02*
X91342618Y-112869011D01*
X91342618Y-112869011D02*
X91282142Y-112929488D01*
X91282142Y-112929488D02*
X91221665Y-113050440D01*
X91221665Y-113050440D02*
X91221665Y-113352821D01*
X91221665Y-113352821D02*
X91282142Y-113473773D01*
X91282142Y-113473773D02*
X91342618Y-113534250D01*
X91342618Y-113534250D02*
X91463570Y-113594726D01*
X91463570Y-113594726D02*
X91765951Y-113594726D01*
X91765951Y-113594726D02*
X91886904Y-113534250D01*
X91886904Y-113534250D02*
X91947380Y-113473773D01*
X90133094Y-112748059D02*
X90133094Y-113594726D01*
X90435475Y-112264250D02*
X90737856Y-113171392D01*
X90737856Y-113171392D02*
X89951665Y-113171392D01*
X88560713Y-113534250D02*
X88439760Y-113594726D01*
X88439760Y-113594726D02*
X88197856Y-113594726D01*
X88197856Y-113594726D02*
X88076903Y-113534250D01*
X88076903Y-113534250D02*
X88016427Y-113413297D01*
X88016427Y-113413297D02*
X88016427Y-113352821D01*
X88016427Y-113352821D02*
X88076903Y-113231869D01*
X88076903Y-113231869D02*
X88197856Y-113171392D01*
X88197856Y-113171392D02*
X88379284Y-113171392D01*
X88379284Y-113171392D02*
X88500237Y-113110916D01*
X88500237Y-113110916D02*
X88560713Y-112989964D01*
X88560713Y-112989964D02*
X88560713Y-112929488D01*
X88560713Y-112929488D02*
X88500237Y-112808535D01*
X88500237Y-112808535D02*
X88379284Y-112748059D01*
X88379284Y-112748059D02*
X88197856Y-112748059D01*
X88197856Y-112748059D02*
X88076903Y-112808535D01*
X86927856Y-113534250D02*
X87048808Y-113594726D01*
X87048808Y-113594726D02*
X87290713Y-113594726D01*
X87290713Y-113594726D02*
X87411665Y-113534250D01*
X87411665Y-113534250D02*
X87472142Y-113473773D01*
X87472142Y-113473773D02*
X87532618Y-113352821D01*
X87532618Y-113352821D02*
X87532618Y-112989964D01*
X87532618Y-112989964D02*
X87472142Y-112869011D01*
X87472142Y-112869011D02*
X87411665Y-112808535D01*
X87411665Y-112808535D02*
X87290713Y-112748059D01*
X87290713Y-112748059D02*
X87048808Y-112748059D01*
X87048808Y-112748059D02*
X86927856Y-112808535D01*
X86383571Y-113594726D02*
X86383571Y-112324726D01*
X85839285Y-113594726D02*
X85839285Y-112929488D01*
X85839285Y-112929488D02*
X85899761Y-112808535D01*
X85899761Y-112808535D02*
X86020713Y-112748059D01*
X86020713Y-112748059D02*
X86202142Y-112748059D01*
X86202142Y-112748059D02*
X86323094Y-112808535D01*
X86323094Y-112808535D02*
X86383571Y-112869011D01*
X84750713Y-113534250D02*
X84871665Y-113594726D01*
X84871665Y-113594726D02*
X85113570Y-113594726D01*
X85113570Y-113594726D02*
X85234523Y-113534250D01*
X85234523Y-113534250D02*
X85294999Y-113413297D01*
X85294999Y-113413297D02*
X85294999Y-112929488D01*
X85294999Y-112929488D02*
X85234523Y-112808535D01*
X85234523Y-112808535D02*
X85113570Y-112748059D01*
X85113570Y-112748059D02*
X84871665Y-112748059D01*
X84871665Y-112748059D02*
X84750713Y-112808535D01*
X84750713Y-112808535D02*
X84690237Y-112929488D01*
X84690237Y-112929488D02*
X84690237Y-113050440D01*
X84690237Y-113050440D02*
X85294999Y-113171392D01*
X84145952Y-113594726D02*
X84145952Y-112748059D01*
X84145952Y-112869011D02*
X84085475Y-112808535D01*
X84085475Y-112808535D02*
X83964523Y-112748059D01*
X83964523Y-112748059D02*
X83783094Y-112748059D01*
X83783094Y-112748059D02*
X83662142Y-112808535D01*
X83662142Y-112808535D02*
X83601666Y-112929488D01*
X83601666Y-112929488D02*
X83601666Y-113594726D01*
X83601666Y-112929488D02*
X83541190Y-112808535D01*
X83541190Y-112808535D02*
X83420237Y-112748059D01*
X83420237Y-112748059D02*
X83238809Y-112748059D01*
X83238809Y-112748059D02*
X83117856Y-112808535D01*
X83117856Y-112808535D02*
X83057380Y-112929488D01*
X83057380Y-112929488D02*
X83057380Y-113594726D01*
X81908333Y-113594726D02*
X81908333Y-112929488D01*
X81908333Y-112929488D02*
X81968809Y-112808535D01*
X81968809Y-112808535D02*
X82089761Y-112748059D01*
X82089761Y-112748059D02*
X82331666Y-112748059D01*
X82331666Y-112748059D02*
X82452619Y-112808535D01*
X81908333Y-113534250D02*
X82029285Y-113594726D01*
X82029285Y-113594726D02*
X82331666Y-113594726D01*
X82331666Y-113594726D02*
X82452619Y-113534250D01*
X82452619Y-113534250D02*
X82513095Y-113413297D01*
X82513095Y-113413297D02*
X82513095Y-113292345D01*
X82513095Y-113292345D02*
X82452619Y-113171392D01*
X82452619Y-113171392D02*
X82331666Y-113110916D01*
X82331666Y-113110916D02*
X82029285Y-113110916D01*
X82029285Y-113110916D02*
X81908333Y-113050440D01*
X81484999Y-112748059D02*
X81001190Y-112748059D01*
X81303571Y-112324726D02*
X81303571Y-113413297D01*
X81303571Y-113413297D02*
X81243094Y-113534250D01*
X81243094Y-113534250D02*
X81122142Y-113594726D01*
X81122142Y-113594726D02*
X81001190Y-113594726D01*
X80577857Y-113594726D02*
X80577857Y-112748059D01*
X80577857Y-112324726D02*
X80638333Y-112385202D01*
X80638333Y-112385202D02*
X80577857Y-112445678D01*
X80577857Y-112445678D02*
X80517380Y-112385202D01*
X80517380Y-112385202D02*
X80577857Y-112324726D01*
X80577857Y-112324726D02*
X80577857Y-112445678D01*
X79428809Y-113534250D02*
X79549761Y-113594726D01*
X79549761Y-113594726D02*
X79791666Y-113594726D01*
X79791666Y-113594726D02*
X79912618Y-113534250D01*
X79912618Y-113534250D02*
X79973095Y-113473773D01*
X79973095Y-113473773D02*
X80033571Y-113352821D01*
X80033571Y-113352821D02*
X80033571Y-112989964D01*
X80033571Y-112989964D02*
X79973095Y-112869011D01*
X79973095Y-112869011D02*
X79912618Y-112808535D01*
X79912618Y-112808535D02*
X79791666Y-112748059D01*
X79791666Y-112748059D02*
X79549761Y-112748059D01*
X79549761Y-112748059D02*
X79428809Y-112808535D01*
X129880951Y-125169104D02*
X129404761Y-125169104D01*
X129976189Y-125454819D02*
X129642856Y-124454819D01*
X129642856Y-124454819D02*
X129309523Y-125454819D01*
X128976189Y-125454819D02*
X128976189Y-124454819D01*
X128976189Y-124454819D02*
X128738094Y-124454819D01*
X128738094Y-124454819D02*
X128595237Y-124502438D01*
X128595237Y-124502438D02*
X128499999Y-124597676D01*
X128499999Y-124597676D02*
X128452380Y-124692914D01*
X128452380Y-124692914D02*
X128404761Y-124883390D01*
X128404761Y-124883390D02*
X128404761Y-125026247D01*
X128404761Y-125026247D02*
X128452380Y-125216723D01*
X128452380Y-125216723D02*
X128499999Y-125311961D01*
X128499999Y-125311961D02*
X128595237Y-125407200D01*
X128595237Y-125407200D02*
X128738094Y-125454819D01*
X128738094Y-125454819D02*
X128976189Y-125454819D01*
X127976189Y-125454819D02*
X127976189Y-124454819D01*
X127499999Y-125454819D02*
X127499999Y-124454819D01*
X127499999Y-124454819D02*
X126928571Y-125454819D01*
X126928571Y-125454819D02*
X126928571Y-124454819D01*
X125928571Y-125454819D02*
X126499999Y-125454819D01*
X126214285Y-125454819D02*
X126214285Y-124454819D01*
X126214285Y-124454819D02*
X126309523Y-124597676D01*
X126309523Y-124597676D02*
X126404761Y-124692914D01*
X126404761Y-124692914D02*
X126499999Y-124740533D01*
X125595237Y-124454819D02*
X124976190Y-124454819D01*
X124976190Y-124454819D02*
X125309523Y-124835771D01*
X125309523Y-124835771D02*
X125166666Y-124835771D01*
X125166666Y-124835771D02*
X125071428Y-124883390D01*
X125071428Y-124883390D02*
X125023809Y-124931009D01*
X125023809Y-124931009D02*
X124976190Y-125026247D01*
X124976190Y-125026247D02*
X124976190Y-125264342D01*
X124976190Y-125264342D02*
X125023809Y-125359580D01*
X125023809Y-125359580D02*
X125071428Y-125407200D01*
X125071428Y-125407200D02*
X125166666Y-125454819D01*
X125166666Y-125454819D02*
X125452380Y-125454819D01*
X125452380Y-125454819D02*
X125547618Y-125407200D01*
X125547618Y-125407200D02*
X125595237Y-125359580D01*
X124357142Y-124454819D02*
X124261904Y-124454819D01*
X124261904Y-124454819D02*
X124166666Y-124502438D01*
X124166666Y-124502438D02*
X124119047Y-124550057D01*
X124119047Y-124550057D02*
X124071428Y-124645295D01*
X124071428Y-124645295D02*
X124023809Y-124835771D01*
X124023809Y-124835771D02*
X124023809Y-125073866D01*
X124023809Y-125073866D02*
X124071428Y-125264342D01*
X124071428Y-125264342D02*
X124119047Y-125359580D01*
X124119047Y-125359580D02*
X124166666Y-125407200D01*
X124166666Y-125407200D02*
X124261904Y-125454819D01*
X124261904Y-125454819D02*
X124357142Y-125454819D01*
X124357142Y-125454819D02*
X124452380Y-125407200D01*
X124452380Y-125407200D02*
X124499999Y-125359580D01*
X124499999Y-125359580D02*
X124547618Y-125264342D01*
X124547618Y-125264342D02*
X124595237Y-125073866D01*
X124595237Y-125073866D02*
X124595237Y-124835771D01*
X124595237Y-124835771D02*
X124547618Y-124645295D01*
X124547618Y-124645295D02*
X124499999Y-124550057D01*
X124499999Y-124550057D02*
X124452380Y-124502438D01*
X124452380Y-124502438D02*
X124357142Y-124454819D01*
X123404761Y-124454819D02*
X123309523Y-124454819D01*
X123309523Y-124454819D02*
X123214285Y-124502438D01*
X123214285Y-124502438D02*
X123166666Y-124550057D01*
X123166666Y-124550057D02*
X123119047Y-124645295D01*
X123119047Y-124645295D02*
X123071428Y-124835771D01*
X123071428Y-124835771D02*
X123071428Y-125073866D01*
X123071428Y-125073866D02*
X123119047Y-125264342D01*
X123119047Y-125264342D02*
X123166666Y-125359580D01*
X123166666Y-125359580D02*
X123214285Y-125407200D01*
X123214285Y-125407200D02*
X123309523Y-125454819D01*
X123309523Y-125454819D02*
X123404761Y-125454819D01*
X123404761Y-125454819D02*
X123499999Y-125407200D01*
X123499999Y-125407200D02*
X123547618Y-125359580D01*
X123547618Y-125359580D02*
X123595237Y-125264342D01*
X123595237Y-125264342D02*
X123642856Y-125073866D01*
X123642856Y-125073866D02*
X123642856Y-124835771D01*
X123642856Y-124835771D02*
X123595237Y-124645295D01*
X123595237Y-124645295D02*
X123547618Y-124550057D01*
X123547618Y-124550057D02*
X123499999Y-124502438D01*
X123499999Y-124502438D02*
X123404761Y-124454819D01*
X122309523Y-124931009D02*
X122166666Y-124978628D01*
X122166666Y-124978628D02*
X122119047Y-125026247D01*
X122119047Y-125026247D02*
X122071428Y-125121485D01*
X122071428Y-125121485D02*
X122071428Y-125264342D01*
X122071428Y-125264342D02*
X122119047Y-125359580D01*
X122119047Y-125359580D02*
X122166666Y-125407200D01*
X122166666Y-125407200D02*
X122261904Y-125454819D01*
X122261904Y-125454819D02*
X122642856Y-125454819D01*
X122642856Y-125454819D02*
X122642856Y-124454819D01*
X122642856Y-124454819D02*
X122309523Y-124454819D01*
X122309523Y-124454819D02*
X122214285Y-124502438D01*
X122214285Y-124502438D02*
X122166666Y-124550057D01*
X122166666Y-124550057D02*
X122119047Y-124645295D01*
X122119047Y-124645295D02*
X122119047Y-124740533D01*
X122119047Y-124740533D02*
X122166666Y-124835771D01*
X122166666Y-124835771D02*
X122214285Y-124883390D01*
X122214285Y-124883390D02*
X122309523Y-124931009D01*
X122309523Y-124931009D02*
X122642856Y-124931009D01*
X121071428Y-125359580D02*
X121119047Y-125407200D01*
X121119047Y-125407200D02*
X121261904Y-125454819D01*
X121261904Y-125454819D02*
X121357142Y-125454819D01*
X121357142Y-125454819D02*
X121499999Y-125407200D01*
X121499999Y-125407200D02*
X121595237Y-125311961D01*
X121595237Y-125311961D02*
X121642856Y-125216723D01*
X121642856Y-125216723D02*
X121690475Y-125026247D01*
X121690475Y-125026247D02*
X121690475Y-124883390D01*
X121690475Y-124883390D02*
X121642856Y-124692914D01*
X121642856Y-124692914D02*
X121595237Y-124597676D01*
X121595237Y-124597676D02*
X121499999Y-124502438D01*
X121499999Y-124502438D02*
X121357142Y-124454819D01*
X121357142Y-124454819D02*
X121261904Y-124454819D01*
X121261904Y-124454819D02*
X121119047Y-124502438D01*
X121119047Y-124502438D02*
X121071428Y-124550057D01*
X120642856Y-125454819D02*
X120642856Y-124454819D01*
X120642856Y-124454819D02*
X120261904Y-124454819D01*
X120261904Y-124454819D02*
X120166666Y-124502438D01*
X120166666Y-124502438D02*
X120119047Y-124550057D01*
X120119047Y-124550057D02*
X120071428Y-124645295D01*
X120071428Y-124645295D02*
X120071428Y-124788152D01*
X120071428Y-124788152D02*
X120119047Y-124883390D01*
X120119047Y-124883390D02*
X120166666Y-124931009D01*
X120166666Y-124931009D02*
X120261904Y-124978628D01*
X120261904Y-124978628D02*
X120642856Y-124978628D01*
X119738094Y-124454819D02*
X119071428Y-124454819D01*
X119071428Y-124454819D02*
X119738094Y-125454819D01*
X119738094Y-125454819D02*
X119071428Y-125454819D01*
X139595238Y-117124819D02*
X140166666Y-117124819D01*
X139880952Y-117124819D02*
X139880952Y-116124819D01*
X139880952Y-116124819D02*
X139976190Y-116267676D01*
X139976190Y-116267676D02*
X140071428Y-116362914D01*
X140071428Y-116362914D02*
X140166666Y-116410533D01*
X138976190Y-116124819D02*
X138880952Y-116124819D01*
X138880952Y-116124819D02*
X138785714Y-116172438D01*
X138785714Y-116172438D02*
X138738095Y-116220057D01*
X138738095Y-116220057D02*
X138690476Y-116315295D01*
X138690476Y-116315295D02*
X138642857Y-116505771D01*
X138642857Y-116505771D02*
X138642857Y-116743866D01*
X138642857Y-116743866D02*
X138690476Y-116934342D01*
X138690476Y-116934342D02*
X138738095Y-117029580D01*
X138738095Y-117029580D02*
X138785714Y-117077200D01*
X138785714Y-117077200D02*
X138880952Y-117124819D01*
X138880952Y-117124819D02*
X138976190Y-117124819D01*
X138976190Y-117124819D02*
X139071428Y-117077200D01*
X139071428Y-117077200D02*
X139119047Y-117029580D01*
X139119047Y-117029580D02*
X139166666Y-116934342D01*
X139166666Y-116934342D02*
X139214285Y-116743866D01*
X139214285Y-116743866D02*
X139214285Y-116505771D01*
X139214285Y-116505771D02*
X139166666Y-116315295D01*
X139166666Y-116315295D02*
X139119047Y-116220057D01*
X139119047Y-116220057D02*
X139071428Y-116172438D01*
X139071428Y-116172438D02*
X138976190Y-116124819D01*
X138214285Y-117124819D02*
X138214285Y-116124819D01*
X138119047Y-116743866D02*
X137833333Y-117124819D01*
X137833333Y-116458152D02*
X138214285Y-116839104D01*
D11*
X140473332Y-115618200D02*
X140559999Y-115494391D01*
X140621904Y-115618200D02*
X140621904Y-115358200D01*
X140621904Y-115358200D02*
X140522856Y-115358200D01*
X140522856Y-115358200D02*
X140498094Y-115370581D01*
X140498094Y-115370581D02*
X140485713Y-115382962D01*
X140485713Y-115382962D02*
X140473332Y-115407724D01*
X140473332Y-115407724D02*
X140473332Y-115444867D01*
X140473332Y-115444867D02*
X140485713Y-115469629D01*
X140485713Y-115469629D02*
X140498094Y-115482010D01*
X140498094Y-115482010D02*
X140522856Y-115494391D01*
X140522856Y-115494391D02*
X140621904Y-115494391D01*
X140423809Y-115642962D02*
X140225713Y-115642962D01*
X140200952Y-115358200D02*
X140052380Y-115358200D01*
X140126666Y-115618200D02*
X140126666Y-115358200D01*
X139965714Y-115618200D02*
X139965714Y-115358200D01*
X139965714Y-115358200D02*
X139866666Y-115358200D01*
X139866666Y-115358200D02*
X139841904Y-115370581D01*
X139841904Y-115370581D02*
X139829523Y-115382962D01*
X139829523Y-115382962D02*
X139817142Y-115407724D01*
X139817142Y-115407724D02*
X139817142Y-115444867D01*
X139817142Y-115444867D02*
X139829523Y-115469629D01*
X139829523Y-115469629D02*
X139841904Y-115482010D01*
X139841904Y-115482010D02*
X139866666Y-115494391D01*
X139866666Y-115494391D02*
X139965714Y-115494391D01*
X139705714Y-115618200D02*
X139705714Y-115358200D01*
X139705714Y-115358200D02*
X139619047Y-115543915D01*
X139619047Y-115543915D02*
X139532380Y-115358200D01*
X139532380Y-115358200D02*
X139532380Y-115618200D01*
X139470476Y-115642962D02*
X139272380Y-115642962D01*
X139061904Y-115618200D02*
X139148571Y-115494391D01*
X139210476Y-115618200D02*
X139210476Y-115358200D01*
X139210476Y-115358200D02*
X139111428Y-115358200D01*
X139111428Y-115358200D02*
X139086666Y-115370581D01*
X139086666Y-115370581D02*
X139074285Y-115382962D01*
X139074285Y-115382962D02*
X139061904Y-115407724D01*
X139061904Y-115407724D02*
X139061904Y-115444867D01*
X139061904Y-115444867D02*
X139074285Y-115469629D01*
X139074285Y-115469629D02*
X139086666Y-115482010D01*
X139086666Y-115482010D02*
X139111428Y-115494391D01*
X139111428Y-115494391D02*
X139210476Y-115494391D01*
X138962857Y-115605820D02*
X138925714Y-115618200D01*
X138925714Y-115618200D02*
X138863809Y-115618200D01*
X138863809Y-115618200D02*
X138839047Y-115605820D01*
X138839047Y-115605820D02*
X138826666Y-115593439D01*
X138826666Y-115593439D02*
X138814285Y-115568677D01*
X138814285Y-115568677D02*
X138814285Y-115543915D01*
X138814285Y-115543915D02*
X138826666Y-115519153D01*
X138826666Y-115519153D02*
X138839047Y-115506772D01*
X138839047Y-115506772D02*
X138863809Y-115494391D01*
X138863809Y-115494391D02*
X138913333Y-115482010D01*
X138913333Y-115482010D02*
X138938095Y-115469629D01*
X138938095Y-115469629D02*
X138950476Y-115457248D01*
X138950476Y-115457248D02*
X138962857Y-115432486D01*
X138962857Y-115432486D02*
X138962857Y-115407724D01*
X138962857Y-115407724D02*
X138950476Y-115382962D01*
X138950476Y-115382962D02*
X138938095Y-115370581D01*
X138938095Y-115370581D02*
X138913333Y-115358200D01*
X138913333Y-115358200D02*
X138851428Y-115358200D01*
X138851428Y-115358200D02*
X138814285Y-115370581D01*
X138740000Y-115358200D02*
X138591428Y-115358200D01*
X138665714Y-115618200D02*
X138665714Y-115358200D01*
X138566667Y-115642962D02*
X138368571Y-115642962D01*
X138306667Y-115482010D02*
X138220000Y-115482010D01*
X138182857Y-115618200D02*
X138306667Y-115618200D01*
X138306667Y-115618200D02*
X138306667Y-115358200D01*
X138306667Y-115358200D02*
X138182857Y-115358200D01*
X138071429Y-115618200D02*
X138071429Y-115358200D01*
X138071429Y-115358200D02*
X137984762Y-115543915D01*
X137984762Y-115543915D02*
X137898095Y-115358200D01*
X137898095Y-115358200D02*
X137898095Y-115618200D01*
X137774286Y-115618200D02*
X137774286Y-115358200D01*
X137774286Y-115358200D02*
X137687619Y-115543915D01*
X137687619Y-115543915D02*
X137600952Y-115358200D01*
X137600952Y-115358200D02*
X137600952Y-115618200D01*
X137489524Y-115543915D02*
X137365714Y-115543915D01*
X137514286Y-115618200D02*
X137427619Y-115358200D01*
X137427619Y-115358200D02*
X137340952Y-115618200D01*
D10*
X143557620Y-113624819D02*
X144129048Y-113624819D01*
X143843334Y-113624819D02*
X143843334Y-112624819D01*
X143843334Y-112624819D02*
X143938572Y-112767676D01*
X143938572Y-112767676D02*
X144033810Y-112862914D01*
X144033810Y-112862914D02*
X144129048Y-112910533D01*
X142938572Y-112624819D02*
X142843334Y-112624819D01*
X142843334Y-112624819D02*
X142748096Y-112672438D01*
X142748096Y-112672438D02*
X142700477Y-112720057D01*
X142700477Y-112720057D02*
X142652858Y-112815295D01*
X142652858Y-112815295D02*
X142605239Y-113005771D01*
X142605239Y-113005771D02*
X142605239Y-113243866D01*
X142605239Y-113243866D02*
X142652858Y-113434342D01*
X142652858Y-113434342D02*
X142700477Y-113529580D01*
X142700477Y-113529580D02*
X142748096Y-113577200D01*
X142748096Y-113577200D02*
X142843334Y-113624819D01*
X142843334Y-113624819D02*
X142938572Y-113624819D01*
X142938572Y-113624819D02*
X143033810Y-113577200D01*
X143033810Y-113577200D02*
X143081429Y-113529580D01*
X143081429Y-113529580D02*
X143129048Y-113434342D01*
X143129048Y-113434342D02*
X143176667Y-113243866D01*
X143176667Y-113243866D02*
X143176667Y-113005771D01*
X143176667Y-113005771D02*
X143129048Y-112815295D01*
X143129048Y-112815295D02*
X143081429Y-112720057D01*
X143081429Y-112720057D02*
X143033810Y-112672438D01*
X143033810Y-112672438D02*
X142938572Y-112624819D01*
X141986191Y-112624819D02*
X141890953Y-112624819D01*
X141890953Y-112624819D02*
X141795715Y-112672438D01*
X141795715Y-112672438D02*
X141748096Y-112720057D01*
X141748096Y-112720057D02*
X141700477Y-112815295D01*
X141700477Y-112815295D02*
X141652858Y-113005771D01*
X141652858Y-113005771D02*
X141652858Y-113243866D01*
X141652858Y-113243866D02*
X141700477Y-113434342D01*
X141700477Y-113434342D02*
X141748096Y-113529580D01*
X141748096Y-113529580D02*
X141795715Y-113577200D01*
X141795715Y-113577200D02*
X141890953Y-113624819D01*
X141890953Y-113624819D02*
X141986191Y-113624819D01*
X141986191Y-113624819D02*
X142081429Y-113577200D01*
X142081429Y-113577200D02*
X142129048Y-113529580D01*
X142129048Y-113529580D02*
X142176667Y-113434342D01*
X142176667Y-113434342D02*
X142224286Y-113243866D01*
X142224286Y-113243866D02*
X142224286Y-113005771D01*
X142224286Y-113005771D02*
X142176667Y-112815295D01*
X142176667Y-112815295D02*
X142129048Y-112720057D01*
X142129048Y-112720057D02*
X142081429Y-112672438D01*
X142081429Y-112672438D02*
X141986191Y-112624819D01*
X141224286Y-113624819D02*
X141224286Y-112624819D01*
X141129048Y-113243866D02*
X140843334Y-113624819D01*
X140843334Y-112958152D02*
X141224286Y-113339104D01*
X139081429Y-113624819D02*
X139414762Y-113148628D01*
X139652857Y-113624819D02*
X139652857Y-112624819D01*
X139652857Y-112624819D02*
X139271905Y-112624819D01*
X139271905Y-112624819D02*
X139176667Y-112672438D01*
X139176667Y-112672438D02*
X139129048Y-112720057D01*
X139129048Y-112720057D02*
X139081429Y-112815295D01*
X139081429Y-112815295D02*
X139081429Y-112958152D01*
X139081429Y-112958152D02*
X139129048Y-113053390D01*
X139129048Y-113053390D02*
X139176667Y-113101009D01*
X139176667Y-113101009D02*
X139271905Y-113148628D01*
X139271905Y-113148628D02*
X139652857Y-113148628D01*
X138700476Y-113577200D02*
X138557619Y-113624819D01*
X138557619Y-113624819D02*
X138319524Y-113624819D01*
X138319524Y-113624819D02*
X138224286Y-113577200D01*
X138224286Y-113577200D02*
X138176667Y-113529580D01*
X138176667Y-113529580D02*
X138129048Y-113434342D01*
X138129048Y-113434342D02*
X138129048Y-113339104D01*
X138129048Y-113339104D02*
X138176667Y-113243866D01*
X138176667Y-113243866D02*
X138224286Y-113196247D01*
X138224286Y-113196247D02*
X138319524Y-113148628D01*
X138319524Y-113148628D02*
X138510000Y-113101009D01*
X138510000Y-113101009D02*
X138605238Y-113053390D01*
X138605238Y-113053390D02*
X138652857Y-113005771D01*
X138652857Y-113005771D02*
X138700476Y-112910533D01*
X138700476Y-112910533D02*
X138700476Y-112815295D01*
X138700476Y-112815295D02*
X138652857Y-112720057D01*
X138652857Y-112720057D02*
X138605238Y-112672438D01*
X138605238Y-112672438D02*
X138510000Y-112624819D01*
X138510000Y-112624819D02*
X138271905Y-112624819D01*
X138271905Y-112624819D02*
X138129048Y-112672438D01*
X137748095Y-113577200D02*
X137605238Y-113624819D01*
X137605238Y-113624819D02*
X137367143Y-113624819D01*
X137367143Y-113624819D02*
X137271905Y-113577200D01*
X137271905Y-113577200D02*
X137224286Y-113529580D01*
X137224286Y-113529580D02*
X137176667Y-113434342D01*
X137176667Y-113434342D02*
X137176667Y-113339104D01*
X137176667Y-113339104D02*
X137224286Y-113243866D01*
X137224286Y-113243866D02*
X137271905Y-113196247D01*
X137271905Y-113196247D02*
X137367143Y-113148628D01*
X137367143Y-113148628D02*
X137557619Y-113101009D01*
X137557619Y-113101009D02*
X137652857Y-113053390D01*
X137652857Y-113053390D02*
X137700476Y-113005771D01*
X137700476Y-113005771D02*
X137748095Y-112910533D01*
X137748095Y-112910533D02*
X137748095Y-112815295D01*
X137748095Y-112815295D02*
X137700476Y-112720057D01*
X137700476Y-112720057D02*
X137652857Y-112672438D01*
X137652857Y-112672438D02*
X137557619Y-112624819D01*
X137557619Y-112624819D02*
X137319524Y-112624819D01*
X137319524Y-112624819D02*
X137176667Y-112672438D01*
X136748095Y-113624819D02*
X136748095Y-112624819D01*
X135510000Y-113624819D02*
X135510000Y-112624819D01*
X135510000Y-112624819D02*
X135271905Y-112624819D01*
X135271905Y-112624819D02*
X135129048Y-112672438D01*
X135129048Y-112672438D02*
X135033810Y-112767676D01*
X135033810Y-112767676D02*
X134986191Y-112862914D01*
X134986191Y-112862914D02*
X134938572Y-113053390D01*
X134938572Y-113053390D02*
X134938572Y-113196247D01*
X134938572Y-113196247D02*
X134986191Y-113386723D01*
X134986191Y-113386723D02*
X135033810Y-113481961D01*
X135033810Y-113481961D02*
X135129048Y-113577200D01*
X135129048Y-113577200D02*
X135271905Y-113624819D01*
X135271905Y-113624819D02*
X135510000Y-113624819D01*
X133938572Y-113529580D02*
X133986191Y-113577200D01*
X133986191Y-113577200D02*
X134129048Y-113624819D01*
X134129048Y-113624819D02*
X134224286Y-113624819D01*
X134224286Y-113624819D02*
X134367143Y-113577200D01*
X134367143Y-113577200D02*
X134462381Y-113481961D01*
X134462381Y-113481961D02*
X134510000Y-113386723D01*
X134510000Y-113386723D02*
X134557619Y-113196247D01*
X134557619Y-113196247D02*
X134557619Y-113053390D01*
X134557619Y-113053390D02*
X134510000Y-112862914D01*
X134510000Y-112862914D02*
X134462381Y-112767676D01*
X134462381Y-112767676D02*
X134367143Y-112672438D01*
X134367143Y-112672438D02*
X134224286Y-112624819D01*
X134224286Y-112624819D02*
X134129048Y-112624819D01*
X134129048Y-112624819D02*
X133986191Y-112672438D01*
X133986191Y-112672438D02*
X133938572Y-112720057D01*
X133510000Y-113624819D02*
X133510000Y-112624819D01*
X133510000Y-112624819D02*
X133271905Y-112624819D01*
X133271905Y-112624819D02*
X133129048Y-112672438D01*
X133129048Y-112672438D02*
X133033810Y-112767676D01*
X133033810Y-112767676D02*
X132986191Y-112862914D01*
X132986191Y-112862914D02*
X132938572Y-113053390D01*
X132938572Y-113053390D02*
X132938572Y-113196247D01*
X132938572Y-113196247D02*
X132986191Y-113386723D01*
X132986191Y-113386723D02*
X133033810Y-113481961D01*
X133033810Y-113481961D02*
X133129048Y-113577200D01*
X133129048Y-113577200D02*
X133271905Y-113624819D01*
X133271905Y-113624819D02*
X133510000Y-113624819D01*
X131890952Y-112624819D02*
X131319524Y-112624819D01*
X131605238Y-113624819D02*
X131605238Y-112624819D01*
X130986190Y-113624819D02*
X130986190Y-112624819D01*
X130557619Y-113624819D02*
X130557619Y-113101009D01*
X130557619Y-113101009D02*
X130605238Y-113005771D01*
X130605238Y-113005771D02*
X130700476Y-112958152D01*
X130700476Y-112958152D02*
X130843333Y-112958152D01*
X130843333Y-112958152D02*
X130938571Y-113005771D01*
X130938571Y-113005771D02*
X130986190Y-113053390D01*
X130081428Y-113624819D02*
X130081428Y-112958152D01*
X130081428Y-113148628D02*
X130033809Y-113053390D01*
X130033809Y-113053390D02*
X129986190Y-113005771D01*
X129986190Y-113005771D02*
X129890952Y-112958152D01*
X129890952Y-112958152D02*
X129795714Y-112958152D01*
X129081428Y-113577200D02*
X129176666Y-113624819D01*
X129176666Y-113624819D02*
X129367142Y-113624819D01*
X129367142Y-113624819D02*
X129462380Y-113577200D01*
X129462380Y-113577200D02*
X129509999Y-113481961D01*
X129509999Y-113481961D02*
X129509999Y-113101009D01*
X129509999Y-113101009D02*
X129462380Y-113005771D01*
X129462380Y-113005771D02*
X129367142Y-112958152D01*
X129367142Y-112958152D02*
X129176666Y-112958152D01*
X129176666Y-112958152D02*
X129081428Y-113005771D01*
X129081428Y-113005771D02*
X129033809Y-113101009D01*
X129033809Y-113101009D02*
X129033809Y-113196247D01*
X129033809Y-113196247D02*
X129509999Y-113291485D01*
X128652856Y-113577200D02*
X128557618Y-113624819D01*
X128557618Y-113624819D02*
X128367142Y-113624819D01*
X128367142Y-113624819D02*
X128271904Y-113577200D01*
X128271904Y-113577200D02*
X128224285Y-113481961D01*
X128224285Y-113481961D02*
X128224285Y-113434342D01*
X128224285Y-113434342D02*
X128271904Y-113339104D01*
X128271904Y-113339104D02*
X128367142Y-113291485D01*
X128367142Y-113291485D02*
X128509999Y-113291485D01*
X128509999Y-113291485D02*
X128605237Y-113243866D01*
X128605237Y-113243866D02*
X128652856Y-113148628D01*
X128652856Y-113148628D02*
X128652856Y-113101009D01*
X128652856Y-113101009D02*
X128605237Y-113005771D01*
X128605237Y-113005771D02*
X128509999Y-112958152D01*
X128509999Y-112958152D02*
X128367142Y-112958152D01*
X128367142Y-112958152D02*
X128271904Y-113005771D01*
X127795713Y-113624819D02*
X127795713Y-112624819D01*
X127367142Y-113624819D02*
X127367142Y-113101009D01*
X127367142Y-113101009D02*
X127414761Y-113005771D01*
X127414761Y-113005771D02*
X127509999Y-112958152D01*
X127509999Y-112958152D02*
X127652856Y-112958152D01*
X127652856Y-112958152D02*
X127748094Y-113005771D01*
X127748094Y-113005771D02*
X127795713Y-113053390D01*
X126748094Y-113624819D02*
X126843332Y-113577200D01*
X126843332Y-113577200D02*
X126890951Y-113529580D01*
X126890951Y-113529580D02*
X126938570Y-113434342D01*
X126938570Y-113434342D02*
X126938570Y-113148628D01*
X126938570Y-113148628D02*
X126890951Y-113053390D01*
X126890951Y-113053390D02*
X126843332Y-113005771D01*
X126843332Y-113005771D02*
X126748094Y-112958152D01*
X126748094Y-112958152D02*
X126605237Y-112958152D01*
X126605237Y-112958152D02*
X126509999Y-113005771D01*
X126509999Y-113005771D02*
X126462380Y-113053390D01*
X126462380Y-113053390D02*
X126414761Y-113148628D01*
X126414761Y-113148628D02*
X126414761Y-113434342D01*
X126414761Y-113434342D02*
X126462380Y-113529580D01*
X126462380Y-113529580D02*
X126509999Y-113577200D01*
X126509999Y-113577200D02*
X126605237Y-113624819D01*
X126605237Y-113624819D02*
X126748094Y-113624819D01*
X125843332Y-113624819D02*
X125938570Y-113577200D01*
X125938570Y-113577200D02*
X125986189Y-113481961D01*
X125986189Y-113481961D02*
X125986189Y-112624819D01*
X125033808Y-113624819D02*
X125033808Y-112624819D01*
X125033808Y-113577200D02*
X125129046Y-113624819D01*
X125129046Y-113624819D02*
X125319522Y-113624819D01*
X125319522Y-113624819D02*
X125414760Y-113577200D01*
X125414760Y-113577200D02*
X125462379Y-113529580D01*
X125462379Y-113529580D02*
X125509998Y-113434342D01*
X125509998Y-113434342D02*
X125509998Y-113148628D01*
X125509998Y-113148628D02*
X125462379Y-113053390D01*
X125462379Y-113053390D02*
X125414760Y-113005771D01*
X125414760Y-113005771D02*
X125319522Y-112958152D01*
X125319522Y-112958152D02*
X125129046Y-112958152D01*
X125129046Y-112958152D02*
X125033808Y-113005771D01*
X123795712Y-112624819D02*
X123795712Y-113434342D01*
X123795712Y-113434342D02*
X123748093Y-113529580D01*
X123748093Y-113529580D02*
X123700474Y-113577200D01*
X123700474Y-113577200D02*
X123605236Y-113624819D01*
X123605236Y-113624819D02*
X123414760Y-113624819D01*
X123414760Y-113624819D02*
X123319522Y-113577200D01*
X123319522Y-113577200D02*
X123271903Y-113529580D01*
X123271903Y-113529580D02*
X123224284Y-113434342D01*
X123224284Y-113434342D02*
X123224284Y-112624819D01*
X122748093Y-112958152D02*
X122748093Y-113958152D01*
X122748093Y-113005771D02*
X122652855Y-112958152D01*
X122652855Y-112958152D02*
X122462379Y-112958152D01*
X122462379Y-112958152D02*
X122367141Y-113005771D01*
X122367141Y-113005771D02*
X122319522Y-113053390D01*
X122319522Y-113053390D02*
X122271903Y-113148628D01*
X122271903Y-113148628D02*
X122271903Y-113434342D01*
X122271903Y-113434342D02*
X122319522Y-113529580D01*
X122319522Y-113529580D02*
X122367141Y-113577200D01*
X122367141Y-113577200D02*
X122462379Y-113624819D01*
X122462379Y-113624819D02*
X122652855Y-113624819D01*
X122652855Y-113624819D02*
X122748093Y-113577200D01*
X121843331Y-112958152D02*
X121843331Y-113958152D01*
X121843331Y-113005771D02*
X121748093Y-112958152D01*
X121748093Y-112958152D02*
X121557617Y-112958152D01*
X121557617Y-112958152D02*
X121462379Y-113005771D01*
X121462379Y-113005771D02*
X121414760Y-113053390D01*
X121414760Y-113053390D02*
X121367141Y-113148628D01*
X121367141Y-113148628D02*
X121367141Y-113434342D01*
X121367141Y-113434342D02*
X121414760Y-113529580D01*
X121414760Y-113529580D02*
X121462379Y-113577200D01*
X121462379Y-113577200D02*
X121557617Y-113624819D01*
X121557617Y-113624819D02*
X121748093Y-113624819D01*
X121748093Y-113624819D02*
X121843331Y-113577200D01*
X120557617Y-113577200D02*
X120652855Y-113624819D01*
X120652855Y-113624819D02*
X120843331Y-113624819D01*
X120843331Y-113624819D02*
X120938569Y-113577200D01*
X120938569Y-113577200D02*
X120986188Y-113481961D01*
X120986188Y-113481961D02*
X120986188Y-113101009D01*
X120986188Y-113101009D02*
X120938569Y-113005771D01*
X120938569Y-113005771D02*
X120843331Y-112958152D01*
X120843331Y-112958152D02*
X120652855Y-112958152D01*
X120652855Y-112958152D02*
X120557617Y-113005771D01*
X120557617Y-113005771D02*
X120509998Y-113101009D01*
X120509998Y-113101009D02*
X120509998Y-113196247D01*
X120509998Y-113196247D02*
X120986188Y-113291485D01*
X120081426Y-113624819D02*
X120081426Y-112958152D01*
X120081426Y-113148628D02*
X120033807Y-113053390D01*
X120033807Y-113053390D02*
X119986188Y-113005771D01*
X119986188Y-113005771D02*
X119890950Y-112958152D01*
X119890950Y-112958152D02*
X119795712Y-112958152D01*
D12*
X133461428Y-112288479D02*
X133673095Y-111986098D01*
X133824285Y-112288479D02*
X133824285Y-111653479D01*
X133824285Y-111653479D02*
X133582380Y-111653479D01*
X133582380Y-111653479D02*
X133521904Y-111683717D01*
X133521904Y-111683717D02*
X133491666Y-111713955D01*
X133491666Y-111713955D02*
X133461428Y-111774431D01*
X133461428Y-111774431D02*
X133461428Y-111865145D01*
X133461428Y-111865145D02*
X133491666Y-111925621D01*
X133491666Y-111925621D02*
X133521904Y-111955860D01*
X133521904Y-111955860D02*
X133582380Y-111986098D01*
X133582380Y-111986098D02*
X133824285Y-111986098D01*
X133219523Y-112258241D02*
X133128809Y-112288479D01*
X133128809Y-112288479D02*
X132977618Y-112288479D01*
X132977618Y-112288479D02*
X132917142Y-112258241D01*
X132917142Y-112258241D02*
X132886904Y-112228002D01*
X132886904Y-112228002D02*
X132856666Y-112167526D01*
X132856666Y-112167526D02*
X132856666Y-112107050D01*
X132856666Y-112107050D02*
X132886904Y-112046574D01*
X132886904Y-112046574D02*
X132917142Y-112016336D01*
X132917142Y-112016336D02*
X132977618Y-111986098D01*
X132977618Y-111986098D02*
X133098571Y-111955860D01*
X133098571Y-111955860D02*
X133159047Y-111925621D01*
X133159047Y-111925621D02*
X133189285Y-111895383D01*
X133189285Y-111895383D02*
X133219523Y-111834907D01*
X133219523Y-111834907D02*
X133219523Y-111774431D01*
X133219523Y-111774431D02*
X133189285Y-111713955D01*
X133189285Y-111713955D02*
X133159047Y-111683717D01*
X133159047Y-111683717D02*
X133098571Y-111653479D01*
X133098571Y-111653479D02*
X132947380Y-111653479D01*
X132947380Y-111653479D02*
X132856666Y-111683717D01*
X132614761Y-112258241D02*
X132524047Y-112288479D01*
X132524047Y-112288479D02*
X132372856Y-112288479D01*
X132372856Y-112288479D02*
X132312380Y-112258241D01*
X132312380Y-112258241D02*
X132282142Y-112228002D01*
X132282142Y-112228002D02*
X132251904Y-112167526D01*
X132251904Y-112167526D02*
X132251904Y-112107050D01*
X132251904Y-112107050D02*
X132282142Y-112046574D01*
X132282142Y-112046574D02*
X132312380Y-112016336D01*
X132312380Y-112016336D02*
X132372856Y-111986098D01*
X132372856Y-111986098D02*
X132493809Y-111955860D01*
X132493809Y-111955860D02*
X132554285Y-111925621D01*
X132554285Y-111925621D02*
X132584523Y-111895383D01*
X132584523Y-111895383D02*
X132614761Y-111834907D01*
X132614761Y-111834907D02*
X132614761Y-111774431D01*
X132614761Y-111774431D02*
X132584523Y-111713955D01*
X132584523Y-111713955D02*
X132554285Y-111683717D01*
X132554285Y-111683717D02*
X132493809Y-111653479D01*
X132493809Y-111653479D02*
X132342618Y-111653479D01*
X132342618Y-111653479D02*
X132251904Y-111683717D01*
X131979761Y-112288479D02*
X131979761Y-111653479D01*
X131828571Y-112348955D02*
X131344761Y-112348955D01*
X130830713Y-112288479D02*
X131042380Y-111986098D01*
X131193570Y-112288479D02*
X131193570Y-111653479D01*
X131193570Y-111653479D02*
X130951665Y-111653479D01*
X130951665Y-111653479D02*
X130891189Y-111683717D01*
X130891189Y-111683717D02*
X130860951Y-111713955D01*
X130860951Y-111713955D02*
X130830713Y-111774431D01*
X130830713Y-111774431D02*
X130830713Y-111865145D01*
X130830713Y-111865145D02*
X130860951Y-111925621D01*
X130860951Y-111925621D02*
X130891189Y-111955860D01*
X130891189Y-111955860D02*
X130951665Y-111986098D01*
X130951665Y-111986098D02*
X131193570Y-111986098D01*
X130558570Y-112288479D02*
X130558570Y-111653479D01*
X130558570Y-111955860D02*
X130195713Y-111955860D01*
X130195713Y-112288479D02*
X130195713Y-111653479D01*
D10*
X121954819Y-105953571D02*
X121954819Y-106620237D01*
X121954819Y-106620237D02*
X122954819Y-106191666D01*
X122288152Y-107429761D02*
X122954819Y-107429761D01*
X121907200Y-107191666D02*
X122621485Y-106953571D01*
X122621485Y-106953571D02*
X122621485Y-107572618D01*
X122954819Y-108001190D02*
X122954819Y-108191666D01*
X122954819Y-108191666D02*
X122907200Y-108286904D01*
X122907200Y-108286904D02*
X122859580Y-108334523D01*
X122859580Y-108334523D02*
X122716723Y-108429761D01*
X122716723Y-108429761D02*
X122526247Y-108477380D01*
X122526247Y-108477380D02*
X122145295Y-108477380D01*
X122145295Y-108477380D02*
X122050057Y-108429761D01*
X122050057Y-108429761D02*
X122002438Y-108382142D01*
X122002438Y-108382142D02*
X121954819Y-108286904D01*
X121954819Y-108286904D02*
X121954819Y-108096428D01*
X121954819Y-108096428D02*
X122002438Y-108001190D01*
X122002438Y-108001190D02*
X122050057Y-107953571D01*
X122050057Y-107953571D02*
X122145295Y-107905952D01*
X122145295Y-107905952D02*
X122383390Y-107905952D01*
X122383390Y-107905952D02*
X122478628Y-107953571D01*
X122478628Y-107953571D02*
X122526247Y-108001190D01*
X122526247Y-108001190D02*
X122573866Y-108096428D01*
X122573866Y-108096428D02*
X122573866Y-108286904D01*
X122573866Y-108286904D02*
X122526247Y-108382142D01*
X122526247Y-108382142D02*
X122478628Y-108429761D01*
X122478628Y-108429761D02*
X122383390Y-108477380D01*
X121954819Y-109096428D02*
X121954819Y-109191666D01*
X121954819Y-109191666D02*
X122002438Y-109286904D01*
X122002438Y-109286904D02*
X122050057Y-109334523D01*
X122050057Y-109334523D02*
X122145295Y-109382142D01*
X122145295Y-109382142D02*
X122335771Y-109429761D01*
X122335771Y-109429761D02*
X122573866Y-109429761D01*
X122573866Y-109429761D02*
X122764342Y-109382142D01*
X122764342Y-109382142D02*
X122859580Y-109334523D01*
X122859580Y-109334523D02*
X122907200Y-109286904D01*
X122907200Y-109286904D02*
X122954819Y-109191666D01*
X122954819Y-109191666D02*
X122954819Y-109096428D01*
X122954819Y-109096428D02*
X122907200Y-109001190D01*
X122907200Y-109001190D02*
X122859580Y-108953571D01*
X122859580Y-108953571D02*
X122764342Y-108905952D01*
X122764342Y-108905952D02*
X122573866Y-108858333D01*
X122573866Y-108858333D02*
X122335771Y-108858333D01*
X122335771Y-108858333D02*
X122145295Y-108905952D01*
X122145295Y-108905952D02*
X122050057Y-108953571D01*
X122050057Y-108953571D02*
X122002438Y-109001190D01*
X122002438Y-109001190D02*
X121954819Y-109096428D01*
X122954819Y-110382142D02*
X122954819Y-109810714D01*
X122954819Y-110096428D02*
X121954819Y-110096428D01*
X121954819Y-110096428D02*
X122097676Y-110001190D01*
X122097676Y-110001190D02*
X122192914Y-109905952D01*
X122192914Y-109905952D02*
X122240533Y-109810714D01*
X121954819Y-111001190D02*
X121954819Y-111096428D01*
X121954819Y-111096428D02*
X122002438Y-111191666D01*
X122002438Y-111191666D02*
X122050057Y-111239285D01*
X122050057Y-111239285D02*
X122145295Y-111286904D01*
X122145295Y-111286904D02*
X122335771Y-111334523D01*
X122335771Y-111334523D02*
X122573866Y-111334523D01*
X122573866Y-111334523D02*
X122764342Y-111286904D01*
X122764342Y-111286904D02*
X122859580Y-111239285D01*
X122859580Y-111239285D02*
X122907200Y-111191666D01*
X122907200Y-111191666D02*
X122954819Y-111096428D01*
X122954819Y-111096428D02*
X122954819Y-111001190D01*
X122954819Y-111001190D02*
X122907200Y-110905952D01*
X122907200Y-110905952D02*
X122859580Y-110858333D01*
X122859580Y-110858333D02*
X122764342Y-110810714D01*
X122764342Y-110810714D02*
X122573866Y-110763095D01*
X122573866Y-110763095D02*
X122335771Y-110763095D01*
X122335771Y-110763095D02*
X122145295Y-110810714D01*
X122145295Y-110810714D02*
X122050057Y-110858333D01*
X122050057Y-110858333D02*
X122002438Y-110905952D01*
X122002438Y-110905952D02*
X121954819Y-111001190D01*
X121954819Y-111953571D02*
X121954819Y-112048809D01*
X121954819Y-112048809D02*
X122002438Y-112144047D01*
X122002438Y-112144047D02*
X122050057Y-112191666D01*
X122050057Y-112191666D02*
X122145295Y-112239285D01*
X122145295Y-112239285D02*
X122335771Y-112286904D01*
X122335771Y-112286904D02*
X122573866Y-112286904D01*
X122573866Y-112286904D02*
X122764342Y-112239285D01*
X122764342Y-112239285D02*
X122859580Y-112191666D01*
X122859580Y-112191666D02*
X122907200Y-112144047D01*
X122907200Y-112144047D02*
X122954819Y-112048809D01*
X122954819Y-112048809D02*
X122954819Y-111953571D01*
X122954819Y-111953571D02*
X122907200Y-111858333D01*
X122907200Y-111858333D02*
X122859580Y-111810714D01*
X122859580Y-111810714D02*
X122764342Y-111763095D01*
X122764342Y-111763095D02*
X122573866Y-111715476D01*
X122573866Y-111715476D02*
X122335771Y-111715476D01*
X122335771Y-111715476D02*
X122145295Y-111763095D01*
X122145295Y-111763095D02*
X122050057Y-111810714D01*
X122050057Y-111810714D02*
X122002438Y-111858333D01*
X122002438Y-111858333D02*
X121954819Y-111953571D01*
X122954819Y-113239285D02*
X122954819Y-112667857D01*
X122954819Y-112953571D02*
X121954819Y-112953571D01*
X121954819Y-112953571D02*
X122097676Y-112858333D01*
X122097676Y-112858333D02*
X122192914Y-112763095D01*
X122192914Y-112763095D02*
X122240533Y-112667857D01*
X122050057Y-113620238D02*
X122002438Y-113667857D01*
X122002438Y-113667857D02*
X121954819Y-113763095D01*
X121954819Y-113763095D02*
X121954819Y-114001190D01*
X121954819Y-114001190D02*
X122002438Y-114096428D01*
X122002438Y-114096428D02*
X122050057Y-114144047D01*
X122050057Y-114144047D02*
X122145295Y-114191666D01*
X122145295Y-114191666D02*
X122240533Y-114191666D01*
X122240533Y-114191666D02*
X122383390Y-114144047D01*
X122383390Y-114144047D02*
X122954819Y-113572619D01*
X122954819Y-113572619D02*
X122954819Y-114191666D01*
X122669104Y-114572619D02*
X122669104Y-115048809D01*
X122954819Y-114477381D02*
X121954819Y-114810714D01*
X121954819Y-114810714D02*
X122954819Y-115144047D01*
X143510001Y-115624819D02*
X144081429Y-115624819D01*
X143795715Y-115624819D02*
X143795715Y-114624819D01*
X143795715Y-114624819D02*
X143890953Y-114767676D01*
X143890953Y-114767676D02*
X143986191Y-114862914D01*
X143986191Y-114862914D02*
X144081429Y-114910533D01*
X142890953Y-114624819D02*
X142795715Y-114624819D01*
X142795715Y-114624819D02*
X142700477Y-114672438D01*
X142700477Y-114672438D02*
X142652858Y-114720057D01*
X142652858Y-114720057D02*
X142605239Y-114815295D01*
X142605239Y-114815295D02*
X142557620Y-115005771D01*
X142557620Y-115005771D02*
X142557620Y-115243866D01*
X142557620Y-115243866D02*
X142605239Y-115434342D01*
X142605239Y-115434342D02*
X142652858Y-115529580D01*
X142652858Y-115529580D02*
X142700477Y-115577200D01*
X142700477Y-115577200D02*
X142795715Y-115624819D01*
X142795715Y-115624819D02*
X142890953Y-115624819D01*
X142890953Y-115624819D02*
X142986191Y-115577200D01*
X142986191Y-115577200D02*
X143033810Y-115529580D01*
X143033810Y-115529580D02*
X143081429Y-115434342D01*
X143081429Y-115434342D02*
X143129048Y-115243866D01*
X143129048Y-115243866D02*
X143129048Y-115005771D01*
X143129048Y-115005771D02*
X143081429Y-114815295D01*
X143081429Y-114815295D02*
X143033810Y-114720057D01*
X143033810Y-114720057D02*
X142986191Y-114672438D01*
X142986191Y-114672438D02*
X142890953Y-114624819D01*
X141938572Y-114624819D02*
X141843334Y-114624819D01*
X141843334Y-114624819D02*
X141748096Y-114672438D01*
X141748096Y-114672438D02*
X141700477Y-114720057D01*
X141700477Y-114720057D02*
X141652858Y-114815295D01*
X141652858Y-114815295D02*
X141605239Y-115005771D01*
X141605239Y-115005771D02*
X141605239Y-115243866D01*
X141605239Y-115243866D02*
X141652858Y-115434342D01*
X141652858Y-115434342D02*
X141700477Y-115529580D01*
X141700477Y-115529580D02*
X141748096Y-115577200D01*
X141748096Y-115577200D02*
X141843334Y-115624819D01*
X141843334Y-115624819D02*
X141938572Y-115624819D01*
X141938572Y-115624819D02*
X142033810Y-115577200D01*
X142033810Y-115577200D02*
X142081429Y-115529580D01*
X142081429Y-115529580D02*
X142129048Y-115434342D01*
X142129048Y-115434342D02*
X142176667Y-115243866D01*
X142176667Y-115243866D02*
X142176667Y-115005771D01*
X142176667Y-115005771D02*
X142129048Y-114815295D01*
X142129048Y-114815295D02*
X142081429Y-114720057D01*
X142081429Y-114720057D02*
X142033810Y-114672438D01*
X142033810Y-114672438D02*
X141938572Y-114624819D01*
X141176667Y-115624819D02*
X141176667Y-114624819D01*
X141081429Y-115243866D02*
X140795715Y-115624819D01*
X140795715Y-114958152D02*
X141176667Y-115339104D01*
X139033810Y-115624819D02*
X139367143Y-115148628D01*
X139605238Y-115624819D02*
X139605238Y-114624819D01*
X139605238Y-114624819D02*
X139224286Y-114624819D01*
X139224286Y-114624819D02*
X139129048Y-114672438D01*
X139129048Y-114672438D02*
X139081429Y-114720057D01*
X139081429Y-114720057D02*
X139033810Y-114815295D01*
X139033810Y-114815295D02*
X139033810Y-114958152D01*
X139033810Y-114958152D02*
X139081429Y-115053390D01*
X139081429Y-115053390D02*
X139129048Y-115101009D01*
X139129048Y-115101009D02*
X139224286Y-115148628D01*
X139224286Y-115148628D02*
X139605238Y-115148628D01*
X138652857Y-115577200D02*
X138510000Y-115624819D01*
X138510000Y-115624819D02*
X138271905Y-115624819D01*
X138271905Y-115624819D02*
X138176667Y-115577200D01*
X138176667Y-115577200D02*
X138129048Y-115529580D01*
X138129048Y-115529580D02*
X138081429Y-115434342D01*
X138081429Y-115434342D02*
X138081429Y-115339104D01*
X138081429Y-115339104D02*
X138129048Y-115243866D01*
X138129048Y-115243866D02*
X138176667Y-115196247D01*
X138176667Y-115196247D02*
X138271905Y-115148628D01*
X138271905Y-115148628D02*
X138462381Y-115101009D01*
X138462381Y-115101009D02*
X138557619Y-115053390D01*
X138557619Y-115053390D02*
X138605238Y-115005771D01*
X138605238Y-115005771D02*
X138652857Y-114910533D01*
X138652857Y-114910533D02*
X138652857Y-114815295D01*
X138652857Y-114815295D02*
X138605238Y-114720057D01*
X138605238Y-114720057D02*
X138557619Y-114672438D01*
X138557619Y-114672438D02*
X138462381Y-114624819D01*
X138462381Y-114624819D02*
X138224286Y-114624819D01*
X138224286Y-114624819D02*
X138081429Y-114672438D01*
X137700476Y-115577200D02*
X137557619Y-115624819D01*
X137557619Y-115624819D02*
X137319524Y-115624819D01*
X137319524Y-115624819D02*
X137224286Y-115577200D01*
X137224286Y-115577200D02*
X137176667Y-115529580D01*
X137176667Y-115529580D02*
X137129048Y-115434342D01*
X137129048Y-115434342D02*
X137129048Y-115339104D01*
X137129048Y-115339104D02*
X137176667Y-115243866D01*
X137176667Y-115243866D02*
X137224286Y-115196247D01*
X137224286Y-115196247D02*
X137319524Y-115148628D01*
X137319524Y-115148628D02*
X137510000Y-115101009D01*
X137510000Y-115101009D02*
X137605238Y-115053390D01*
X137605238Y-115053390D02*
X137652857Y-115005771D01*
X137652857Y-115005771D02*
X137700476Y-114910533D01*
X137700476Y-114910533D02*
X137700476Y-114815295D01*
X137700476Y-114815295D02*
X137652857Y-114720057D01*
X137652857Y-114720057D02*
X137605238Y-114672438D01*
X137605238Y-114672438D02*
X137510000Y-114624819D01*
X137510000Y-114624819D02*
X137271905Y-114624819D01*
X137271905Y-114624819D02*
X137129048Y-114672438D01*
X136700476Y-115624819D02*
X136700476Y-114624819D01*
X135462381Y-115624819D02*
X135462381Y-114624819D01*
X135462381Y-114624819D02*
X135224286Y-114624819D01*
X135224286Y-114624819D02*
X135081429Y-114672438D01*
X135081429Y-114672438D02*
X134986191Y-114767676D01*
X134986191Y-114767676D02*
X134938572Y-114862914D01*
X134938572Y-114862914D02*
X134890953Y-115053390D01*
X134890953Y-115053390D02*
X134890953Y-115196247D01*
X134890953Y-115196247D02*
X134938572Y-115386723D01*
X134938572Y-115386723D02*
X134986191Y-115481961D01*
X134986191Y-115481961D02*
X135081429Y-115577200D01*
X135081429Y-115577200D02*
X135224286Y-115624819D01*
X135224286Y-115624819D02*
X135462381Y-115624819D01*
X133890953Y-115529580D02*
X133938572Y-115577200D01*
X133938572Y-115577200D02*
X134081429Y-115624819D01*
X134081429Y-115624819D02*
X134176667Y-115624819D01*
X134176667Y-115624819D02*
X134319524Y-115577200D01*
X134319524Y-115577200D02*
X134414762Y-115481961D01*
X134414762Y-115481961D02*
X134462381Y-115386723D01*
X134462381Y-115386723D02*
X134510000Y-115196247D01*
X134510000Y-115196247D02*
X134510000Y-115053390D01*
X134510000Y-115053390D02*
X134462381Y-114862914D01*
X134462381Y-114862914D02*
X134414762Y-114767676D01*
X134414762Y-114767676D02*
X134319524Y-114672438D01*
X134319524Y-114672438D02*
X134176667Y-114624819D01*
X134176667Y-114624819D02*
X134081429Y-114624819D01*
X134081429Y-114624819D02*
X133938572Y-114672438D01*
X133938572Y-114672438D02*
X133890953Y-114720057D01*
X133462381Y-115624819D02*
X133462381Y-114624819D01*
X133462381Y-114624819D02*
X133224286Y-114624819D01*
X133224286Y-114624819D02*
X133081429Y-114672438D01*
X133081429Y-114672438D02*
X132986191Y-114767676D01*
X132986191Y-114767676D02*
X132938572Y-114862914D01*
X132938572Y-114862914D02*
X132890953Y-115053390D01*
X132890953Y-115053390D02*
X132890953Y-115196247D01*
X132890953Y-115196247D02*
X132938572Y-115386723D01*
X132938572Y-115386723D02*
X132986191Y-115481961D01*
X132986191Y-115481961D02*
X133081429Y-115577200D01*
X133081429Y-115577200D02*
X133224286Y-115624819D01*
X133224286Y-115624819D02*
X133462381Y-115624819D01*
X131843333Y-114624819D02*
X131271905Y-114624819D01*
X131557619Y-115624819D02*
X131557619Y-114624819D01*
X130938571Y-115624819D02*
X130938571Y-114624819D01*
X130510000Y-115624819D02*
X130510000Y-115101009D01*
X130510000Y-115101009D02*
X130557619Y-115005771D01*
X130557619Y-115005771D02*
X130652857Y-114958152D01*
X130652857Y-114958152D02*
X130795714Y-114958152D01*
X130795714Y-114958152D02*
X130890952Y-115005771D01*
X130890952Y-115005771D02*
X130938571Y-115053390D01*
X130033809Y-115624819D02*
X130033809Y-114958152D01*
X130033809Y-115148628D02*
X129986190Y-115053390D01*
X129986190Y-115053390D02*
X129938571Y-115005771D01*
X129938571Y-115005771D02*
X129843333Y-114958152D01*
X129843333Y-114958152D02*
X129748095Y-114958152D01*
X129033809Y-115577200D02*
X129129047Y-115624819D01*
X129129047Y-115624819D02*
X129319523Y-115624819D01*
X129319523Y-115624819D02*
X129414761Y-115577200D01*
X129414761Y-115577200D02*
X129462380Y-115481961D01*
X129462380Y-115481961D02*
X129462380Y-115101009D01*
X129462380Y-115101009D02*
X129414761Y-115005771D01*
X129414761Y-115005771D02*
X129319523Y-114958152D01*
X129319523Y-114958152D02*
X129129047Y-114958152D01*
X129129047Y-114958152D02*
X129033809Y-115005771D01*
X129033809Y-115005771D02*
X128986190Y-115101009D01*
X128986190Y-115101009D02*
X128986190Y-115196247D01*
X128986190Y-115196247D02*
X129462380Y-115291485D01*
X128605237Y-115577200D02*
X128509999Y-115624819D01*
X128509999Y-115624819D02*
X128319523Y-115624819D01*
X128319523Y-115624819D02*
X128224285Y-115577200D01*
X128224285Y-115577200D02*
X128176666Y-115481961D01*
X128176666Y-115481961D02*
X128176666Y-115434342D01*
X128176666Y-115434342D02*
X128224285Y-115339104D01*
X128224285Y-115339104D02*
X128319523Y-115291485D01*
X128319523Y-115291485D02*
X128462380Y-115291485D01*
X128462380Y-115291485D02*
X128557618Y-115243866D01*
X128557618Y-115243866D02*
X128605237Y-115148628D01*
X128605237Y-115148628D02*
X128605237Y-115101009D01*
X128605237Y-115101009D02*
X128557618Y-115005771D01*
X128557618Y-115005771D02*
X128462380Y-114958152D01*
X128462380Y-114958152D02*
X128319523Y-114958152D01*
X128319523Y-114958152D02*
X128224285Y-115005771D01*
X127748094Y-115624819D02*
X127748094Y-114624819D01*
X127319523Y-115624819D02*
X127319523Y-115101009D01*
X127319523Y-115101009D02*
X127367142Y-115005771D01*
X127367142Y-115005771D02*
X127462380Y-114958152D01*
X127462380Y-114958152D02*
X127605237Y-114958152D01*
X127605237Y-114958152D02*
X127700475Y-115005771D01*
X127700475Y-115005771D02*
X127748094Y-115053390D01*
X126700475Y-115624819D02*
X126795713Y-115577200D01*
X126795713Y-115577200D02*
X126843332Y-115529580D01*
X126843332Y-115529580D02*
X126890951Y-115434342D01*
X126890951Y-115434342D02*
X126890951Y-115148628D01*
X126890951Y-115148628D02*
X126843332Y-115053390D01*
X126843332Y-115053390D02*
X126795713Y-115005771D01*
X126795713Y-115005771D02*
X126700475Y-114958152D01*
X126700475Y-114958152D02*
X126557618Y-114958152D01*
X126557618Y-114958152D02*
X126462380Y-115005771D01*
X126462380Y-115005771D02*
X126414761Y-115053390D01*
X126414761Y-115053390D02*
X126367142Y-115148628D01*
X126367142Y-115148628D02*
X126367142Y-115434342D01*
X126367142Y-115434342D02*
X126414761Y-115529580D01*
X126414761Y-115529580D02*
X126462380Y-115577200D01*
X126462380Y-115577200D02*
X126557618Y-115624819D01*
X126557618Y-115624819D02*
X126700475Y-115624819D01*
X125795713Y-115624819D02*
X125890951Y-115577200D01*
X125890951Y-115577200D02*
X125938570Y-115481961D01*
X125938570Y-115481961D02*
X125938570Y-114624819D01*
X124986189Y-115624819D02*
X124986189Y-114624819D01*
X124986189Y-115577200D02*
X125081427Y-115624819D01*
X125081427Y-115624819D02*
X125271903Y-115624819D01*
X125271903Y-115624819D02*
X125367141Y-115577200D01*
X125367141Y-115577200D02*
X125414760Y-115529580D01*
X125414760Y-115529580D02*
X125462379Y-115434342D01*
X125462379Y-115434342D02*
X125462379Y-115148628D01*
X125462379Y-115148628D02*
X125414760Y-115053390D01*
X125414760Y-115053390D02*
X125367141Y-115005771D01*
X125367141Y-115005771D02*
X125271903Y-114958152D01*
X125271903Y-114958152D02*
X125081427Y-114958152D01*
X125081427Y-114958152D02*
X124986189Y-115005771D01*
X123271903Y-115624819D02*
X123748093Y-115624819D01*
X123748093Y-115624819D02*
X123748093Y-114624819D01*
X122795712Y-115624819D02*
X122890950Y-115577200D01*
X122890950Y-115577200D02*
X122938569Y-115529580D01*
X122938569Y-115529580D02*
X122986188Y-115434342D01*
X122986188Y-115434342D02*
X122986188Y-115148628D01*
X122986188Y-115148628D02*
X122938569Y-115053390D01*
X122938569Y-115053390D02*
X122890950Y-115005771D01*
X122890950Y-115005771D02*
X122795712Y-114958152D01*
X122795712Y-114958152D02*
X122652855Y-114958152D01*
X122652855Y-114958152D02*
X122557617Y-115005771D01*
X122557617Y-115005771D02*
X122509998Y-115053390D01*
X122509998Y-115053390D02*
X122462379Y-115148628D01*
X122462379Y-115148628D02*
X122462379Y-115434342D01*
X122462379Y-115434342D02*
X122509998Y-115529580D01*
X122509998Y-115529580D02*
X122557617Y-115577200D01*
X122557617Y-115577200D02*
X122652855Y-115624819D01*
X122652855Y-115624819D02*
X122795712Y-115624819D01*
X122129045Y-114958152D02*
X121938569Y-115624819D01*
X121938569Y-115624819D02*
X121748093Y-115148628D01*
X121748093Y-115148628D02*
X121557617Y-115624819D01*
X121557617Y-115624819D02*
X121367141Y-114958152D01*
X120605236Y-115577200D02*
X120700474Y-115624819D01*
X120700474Y-115624819D02*
X120890950Y-115624819D01*
X120890950Y-115624819D02*
X120986188Y-115577200D01*
X120986188Y-115577200D02*
X121033807Y-115481961D01*
X121033807Y-115481961D02*
X121033807Y-115101009D01*
X121033807Y-115101009D02*
X120986188Y-115005771D01*
X120986188Y-115005771D02*
X120890950Y-114958152D01*
X120890950Y-114958152D02*
X120700474Y-114958152D01*
X120700474Y-114958152D02*
X120605236Y-115005771D01*
X120605236Y-115005771D02*
X120557617Y-115101009D01*
X120557617Y-115101009D02*
X120557617Y-115196247D01*
X120557617Y-115196247D02*
X121033807Y-115291485D01*
X120129045Y-115624819D02*
X120129045Y-114958152D01*
X120129045Y-115148628D02*
X120081426Y-115053390D01*
X120081426Y-115053390D02*
X120033807Y-115005771D01*
X120033807Y-115005771D02*
X119938569Y-114958152D01*
X119938569Y-114958152D02*
X119843331Y-114958152D01*
D12*
X133385833Y-114288479D02*
X133597500Y-113986098D01*
X133748690Y-114288479D02*
X133748690Y-113653479D01*
X133748690Y-113653479D02*
X133506785Y-113653479D01*
X133506785Y-113653479D02*
X133446309Y-113683717D01*
X133446309Y-113683717D02*
X133416071Y-113713955D01*
X133416071Y-113713955D02*
X133385833Y-113774431D01*
X133385833Y-113774431D02*
X133385833Y-113865145D01*
X133385833Y-113865145D02*
X133416071Y-113925621D01*
X133416071Y-113925621D02*
X133446309Y-113955860D01*
X133446309Y-113955860D02*
X133506785Y-113986098D01*
X133506785Y-113986098D02*
X133748690Y-113986098D01*
X133143928Y-114258241D02*
X133053214Y-114288479D01*
X133053214Y-114288479D02*
X132902023Y-114288479D01*
X132902023Y-114288479D02*
X132841547Y-114258241D01*
X132841547Y-114258241D02*
X132811309Y-114228002D01*
X132811309Y-114228002D02*
X132781071Y-114167526D01*
X132781071Y-114167526D02*
X132781071Y-114107050D01*
X132781071Y-114107050D02*
X132811309Y-114046574D01*
X132811309Y-114046574D02*
X132841547Y-114016336D01*
X132841547Y-114016336D02*
X132902023Y-113986098D01*
X132902023Y-113986098D02*
X133022976Y-113955860D01*
X133022976Y-113955860D02*
X133083452Y-113925621D01*
X133083452Y-113925621D02*
X133113690Y-113895383D01*
X133113690Y-113895383D02*
X133143928Y-113834907D01*
X133143928Y-113834907D02*
X133143928Y-113774431D01*
X133143928Y-113774431D02*
X133113690Y-113713955D01*
X133113690Y-113713955D02*
X133083452Y-113683717D01*
X133083452Y-113683717D02*
X133022976Y-113653479D01*
X133022976Y-113653479D02*
X132871785Y-113653479D01*
X132871785Y-113653479D02*
X132781071Y-113683717D01*
X132539166Y-114258241D02*
X132448452Y-114288479D01*
X132448452Y-114288479D02*
X132297261Y-114288479D01*
X132297261Y-114288479D02*
X132236785Y-114258241D01*
X132236785Y-114258241D02*
X132206547Y-114228002D01*
X132206547Y-114228002D02*
X132176309Y-114167526D01*
X132176309Y-114167526D02*
X132176309Y-114107050D01*
X132176309Y-114107050D02*
X132206547Y-114046574D01*
X132206547Y-114046574D02*
X132236785Y-114016336D01*
X132236785Y-114016336D02*
X132297261Y-113986098D01*
X132297261Y-113986098D02*
X132418214Y-113955860D01*
X132418214Y-113955860D02*
X132478690Y-113925621D01*
X132478690Y-113925621D02*
X132508928Y-113895383D01*
X132508928Y-113895383D02*
X132539166Y-113834907D01*
X132539166Y-113834907D02*
X132539166Y-113774431D01*
X132539166Y-113774431D02*
X132508928Y-113713955D01*
X132508928Y-113713955D02*
X132478690Y-113683717D01*
X132478690Y-113683717D02*
X132418214Y-113653479D01*
X132418214Y-113653479D02*
X132267023Y-113653479D01*
X132267023Y-113653479D02*
X132176309Y-113683717D01*
X131904166Y-114288479D02*
X131904166Y-113653479D01*
X131752976Y-114348955D02*
X131269166Y-114348955D01*
X130755118Y-114288479D02*
X130966785Y-113986098D01*
X131117975Y-114288479D02*
X131117975Y-113653479D01*
X131117975Y-113653479D02*
X130876070Y-113653479D01*
X130876070Y-113653479D02*
X130815594Y-113683717D01*
X130815594Y-113683717D02*
X130785356Y-113713955D01*
X130785356Y-113713955D02*
X130755118Y-113774431D01*
X130755118Y-113774431D02*
X130755118Y-113865145D01*
X130755118Y-113865145D02*
X130785356Y-113925621D01*
X130785356Y-113925621D02*
X130815594Y-113955860D01*
X130815594Y-113955860D02*
X130876070Y-113986098D01*
X130876070Y-113986098D02*
X131117975Y-113986098D01*
X130180594Y-114288479D02*
X130482975Y-114288479D01*
X130482975Y-114288479D02*
X130482975Y-113653479D01*
D10*
X112214285Y-126954819D02*
X112547618Y-126478628D01*
X112785713Y-126954819D02*
X112785713Y-125954819D01*
X112785713Y-125954819D02*
X112404761Y-125954819D01*
X112404761Y-125954819D02*
X112309523Y-126002438D01*
X112309523Y-126002438D02*
X112261904Y-126050057D01*
X112261904Y-126050057D02*
X112214285Y-126145295D01*
X112214285Y-126145295D02*
X112214285Y-126288152D01*
X112214285Y-126288152D02*
X112261904Y-126383390D01*
X112261904Y-126383390D02*
X112309523Y-126431009D01*
X112309523Y-126431009D02*
X112404761Y-126478628D01*
X112404761Y-126478628D02*
X112785713Y-126478628D01*
X111452380Y-126431009D02*
X111785713Y-126431009D01*
X111785713Y-126954819D02*
X111785713Y-125954819D01*
X111785713Y-125954819D02*
X111309523Y-125954819D01*
X110928570Y-126954819D02*
X110928570Y-125954819D01*
X110928570Y-125954819D02*
X110595237Y-126669104D01*
X110595237Y-126669104D02*
X110261904Y-125954819D01*
X110261904Y-125954819D02*
X110261904Y-126954819D01*
X109738094Y-126954819D02*
X109547618Y-126954819D01*
X109547618Y-126954819D02*
X109452380Y-126907200D01*
X109452380Y-126907200D02*
X109404761Y-126859580D01*
X109404761Y-126859580D02*
X109309523Y-126716723D01*
X109309523Y-126716723D02*
X109261904Y-126526247D01*
X109261904Y-126526247D02*
X109261904Y-126145295D01*
X109261904Y-126145295D02*
X109309523Y-126050057D01*
X109309523Y-126050057D02*
X109357142Y-126002438D01*
X109357142Y-126002438D02*
X109452380Y-125954819D01*
X109452380Y-125954819D02*
X109642856Y-125954819D01*
X109642856Y-125954819D02*
X109738094Y-126002438D01*
X109738094Y-126002438D02*
X109785713Y-126050057D01*
X109785713Y-126050057D02*
X109833332Y-126145295D01*
X109833332Y-126145295D02*
X109833332Y-126383390D01*
X109833332Y-126383390D02*
X109785713Y-126478628D01*
X109785713Y-126478628D02*
X109738094Y-126526247D01*
X109738094Y-126526247D02*
X109642856Y-126573866D01*
X109642856Y-126573866D02*
X109452380Y-126573866D01*
X109452380Y-126573866D02*
X109357142Y-126526247D01*
X109357142Y-126526247D02*
X109309523Y-126478628D01*
X109309523Y-126478628D02*
X109261904Y-126383390D01*
X108357142Y-125954819D02*
X108833332Y-125954819D01*
X108833332Y-125954819D02*
X108880951Y-126431009D01*
X108880951Y-126431009D02*
X108833332Y-126383390D01*
X108833332Y-126383390D02*
X108738094Y-126335771D01*
X108738094Y-126335771D02*
X108499999Y-126335771D01*
X108499999Y-126335771D02*
X108404761Y-126383390D01*
X108404761Y-126383390D02*
X108357142Y-126431009D01*
X108357142Y-126431009D02*
X108309523Y-126526247D01*
X108309523Y-126526247D02*
X108309523Y-126764342D01*
X108309523Y-126764342D02*
X108357142Y-126859580D01*
X108357142Y-126859580D02*
X108404761Y-126907200D01*
X108404761Y-126907200D02*
X108499999Y-126954819D01*
X108499999Y-126954819D02*
X108738094Y-126954819D01*
X108738094Y-126954819D02*
X108833332Y-126907200D01*
X108833332Y-126907200D02*
X108880951Y-126859580D01*
X107976189Y-125954819D02*
X107738094Y-126954819D01*
X107738094Y-126954819D02*
X107547618Y-126240533D01*
X107547618Y-126240533D02*
X107357142Y-126954819D01*
X107357142Y-126954819D02*
X107119047Y-125954819D01*
D12*
X110695476Y-117288479D02*
X110997857Y-117288479D01*
X110997857Y-117288479D02*
X110997857Y-116653479D01*
X110393095Y-117288479D02*
X110453571Y-117258241D01*
X110453571Y-117258241D02*
X110483809Y-117228002D01*
X110483809Y-117228002D02*
X110514047Y-117167526D01*
X110514047Y-117167526D02*
X110514047Y-116986098D01*
X110514047Y-116986098D02*
X110483809Y-116925621D01*
X110483809Y-116925621D02*
X110453571Y-116895383D01*
X110453571Y-116895383D02*
X110393095Y-116865145D01*
X110393095Y-116865145D02*
X110302380Y-116865145D01*
X110302380Y-116865145D02*
X110241904Y-116895383D01*
X110241904Y-116895383D02*
X110211666Y-116925621D01*
X110211666Y-116925621D02*
X110181428Y-116986098D01*
X110181428Y-116986098D02*
X110181428Y-117167526D01*
X110181428Y-117167526D02*
X110211666Y-117228002D01*
X110211666Y-117228002D02*
X110241904Y-117258241D01*
X110241904Y-117258241D02*
X110302380Y-117288479D01*
X110302380Y-117288479D02*
X110393095Y-117288479D01*
X109546428Y-117288479D02*
X109758095Y-116986098D01*
X109909285Y-117288479D02*
X109909285Y-116653479D01*
X109909285Y-116653479D02*
X109667380Y-116653479D01*
X109667380Y-116653479D02*
X109606904Y-116683717D01*
X109606904Y-116683717D02*
X109576666Y-116713955D01*
X109576666Y-116713955D02*
X109546428Y-116774431D01*
X109546428Y-116774431D02*
X109546428Y-116865145D01*
X109546428Y-116865145D02*
X109576666Y-116925621D01*
X109576666Y-116925621D02*
X109606904Y-116955860D01*
X109606904Y-116955860D02*
X109667380Y-116986098D01*
X109667380Y-116986098D02*
X109909285Y-116986098D01*
X109002142Y-117288479D02*
X109002142Y-116955860D01*
X109002142Y-116955860D02*
X109032380Y-116895383D01*
X109032380Y-116895383D02*
X109092856Y-116865145D01*
X109092856Y-116865145D02*
X109213809Y-116865145D01*
X109213809Y-116865145D02*
X109274285Y-116895383D01*
X109002142Y-117258241D02*
X109062618Y-117288479D01*
X109062618Y-117288479D02*
X109213809Y-117288479D01*
X109213809Y-117288479D02*
X109274285Y-117258241D01*
X109274285Y-117258241D02*
X109304523Y-117197764D01*
X109304523Y-117197764D02*
X109304523Y-117137288D01*
X109304523Y-117137288D02*
X109274285Y-117076812D01*
X109274285Y-117076812D02*
X109213809Y-117046574D01*
X109213809Y-117046574D02*
X109062618Y-117046574D01*
X109062618Y-117046574D02*
X109002142Y-117016336D01*
D10*
X135147619Y-118614819D02*
X135719047Y-118614819D01*
X135433333Y-118614819D02*
X135433333Y-117614819D01*
X135433333Y-117614819D02*
X135528571Y-117757676D01*
X135528571Y-117757676D02*
X135623809Y-117852914D01*
X135623809Y-117852914D02*
X135719047Y-117900533D01*
X134528571Y-117614819D02*
X134433333Y-117614819D01*
X134433333Y-117614819D02*
X134338095Y-117662438D01*
X134338095Y-117662438D02*
X134290476Y-117710057D01*
X134290476Y-117710057D02*
X134242857Y-117805295D01*
X134242857Y-117805295D02*
X134195238Y-117995771D01*
X134195238Y-117995771D02*
X134195238Y-118233866D01*
X134195238Y-118233866D02*
X134242857Y-118424342D01*
X134242857Y-118424342D02*
X134290476Y-118519580D01*
X134290476Y-118519580D02*
X134338095Y-118567200D01*
X134338095Y-118567200D02*
X134433333Y-118614819D01*
X134433333Y-118614819D02*
X134528571Y-118614819D01*
X134528571Y-118614819D02*
X134623809Y-118567200D01*
X134623809Y-118567200D02*
X134671428Y-118519580D01*
X134671428Y-118519580D02*
X134719047Y-118424342D01*
X134719047Y-118424342D02*
X134766666Y-118233866D01*
X134766666Y-118233866D02*
X134766666Y-117995771D01*
X134766666Y-117995771D02*
X134719047Y-117805295D01*
X134719047Y-117805295D02*
X134671428Y-117710057D01*
X134671428Y-117710057D02*
X134623809Y-117662438D01*
X134623809Y-117662438D02*
X134528571Y-117614819D01*
X133576190Y-117614819D02*
X133480952Y-117614819D01*
X133480952Y-117614819D02*
X133385714Y-117662438D01*
X133385714Y-117662438D02*
X133338095Y-117710057D01*
X133338095Y-117710057D02*
X133290476Y-117805295D01*
X133290476Y-117805295D02*
X133242857Y-117995771D01*
X133242857Y-117995771D02*
X133242857Y-118233866D01*
X133242857Y-118233866D02*
X133290476Y-118424342D01*
X133290476Y-118424342D02*
X133338095Y-118519580D01*
X133338095Y-118519580D02*
X133385714Y-118567200D01*
X133385714Y-118567200D02*
X133480952Y-118614819D01*
X133480952Y-118614819D02*
X133576190Y-118614819D01*
X133576190Y-118614819D02*
X133671428Y-118567200D01*
X133671428Y-118567200D02*
X133719047Y-118519580D01*
X133719047Y-118519580D02*
X133766666Y-118424342D01*
X133766666Y-118424342D02*
X133814285Y-118233866D01*
X133814285Y-118233866D02*
X133814285Y-117995771D01*
X133814285Y-117995771D02*
X133766666Y-117805295D01*
X133766666Y-117805295D02*
X133719047Y-117710057D01*
X133719047Y-117710057D02*
X133671428Y-117662438D01*
X133671428Y-117662438D02*
X133576190Y-117614819D01*
X132814285Y-117948152D02*
X132814285Y-118614819D01*
X132814285Y-118043390D02*
X132766666Y-117995771D01*
X132766666Y-117995771D02*
X132671428Y-117948152D01*
X132671428Y-117948152D02*
X132528571Y-117948152D01*
X132528571Y-117948152D02*
X132433333Y-117995771D01*
X132433333Y-117995771D02*
X132385714Y-118091009D01*
X132385714Y-118091009D02*
X132385714Y-118614819D01*
X131576190Y-118091009D02*
X131909523Y-118091009D01*
X131909523Y-118614819D02*
X131909523Y-117614819D01*
X131909523Y-117614819D02*
X131433333Y-117614819D01*
D11*
X134701189Y-117089765D02*
X134713093Y-117101670D01*
X134713093Y-117101670D02*
X134748808Y-117113574D01*
X134748808Y-117113574D02*
X134772617Y-117113574D01*
X134772617Y-117113574D02*
X134808331Y-117101670D01*
X134808331Y-117101670D02*
X134832141Y-117077860D01*
X134832141Y-117077860D02*
X134844046Y-117054050D01*
X134844046Y-117054050D02*
X134855950Y-117006431D01*
X134855950Y-117006431D02*
X134855950Y-116970717D01*
X134855950Y-116970717D02*
X134844046Y-116923098D01*
X134844046Y-116923098D02*
X134832141Y-116899289D01*
X134832141Y-116899289D02*
X134808331Y-116875479D01*
X134808331Y-116875479D02*
X134772617Y-116863574D01*
X134772617Y-116863574D02*
X134748808Y-116863574D01*
X134748808Y-116863574D02*
X134713093Y-116875479D01*
X134713093Y-116875479D02*
X134701189Y-116887384D01*
X134653570Y-117137384D02*
X134463093Y-117137384D01*
X134439284Y-116863574D02*
X134296427Y-116863574D01*
X134367855Y-117113574D02*
X134367855Y-116863574D01*
X134213094Y-117113574D02*
X134213094Y-116863574D01*
X134213094Y-116863574D02*
X134117856Y-116863574D01*
X134117856Y-116863574D02*
X134094046Y-116875479D01*
X134094046Y-116875479D02*
X134082141Y-116887384D01*
X134082141Y-116887384D02*
X134070237Y-116911193D01*
X134070237Y-116911193D02*
X134070237Y-116946908D01*
X134070237Y-116946908D02*
X134082141Y-116970717D01*
X134082141Y-116970717D02*
X134094046Y-116982622D01*
X134094046Y-116982622D02*
X134117856Y-116994527D01*
X134117856Y-116994527D02*
X134213094Y-116994527D01*
X133963094Y-117113574D02*
X133963094Y-116863574D01*
X133963094Y-116863574D02*
X133879760Y-117042146D01*
X133879760Y-117042146D02*
X133796427Y-116863574D01*
X133796427Y-116863574D02*
X133796427Y-117113574D01*
X133736904Y-117137384D02*
X133546427Y-117137384D01*
X133486904Y-116982622D02*
X133403570Y-116982622D01*
X133367856Y-117113574D02*
X133486904Y-117113574D01*
X133486904Y-117113574D02*
X133486904Y-116863574D01*
X133486904Y-116863574D02*
X133367856Y-116863574D01*
X133260714Y-117113574D02*
X133260714Y-116863574D01*
X133260714Y-116863574D02*
X133177380Y-117042146D01*
X133177380Y-117042146D02*
X133094047Y-116863574D01*
X133094047Y-116863574D02*
X133094047Y-117113574D01*
X132975000Y-117113574D02*
X132975000Y-116863574D01*
X132975000Y-116863574D02*
X132891666Y-117042146D01*
X132891666Y-117042146D02*
X132808333Y-116863574D01*
X132808333Y-116863574D02*
X132808333Y-117113574D01*
X132701190Y-117042146D02*
X132582143Y-117042146D01*
X132725000Y-117113574D02*
X132641667Y-116863574D01*
X132641667Y-116863574D02*
X132558333Y-117113574D01*
X132344047Y-117113574D02*
X132486904Y-117113574D01*
X132415476Y-117113574D02*
X132415476Y-116863574D01*
X132415476Y-116863574D02*
X132439285Y-116899289D01*
X132439285Y-116899289D02*
X132463095Y-116923098D01*
X132463095Y-116923098D02*
X132486904Y-116935003D01*
D10*
X146695237Y-121037200D02*
X146552380Y-121084819D01*
X146552380Y-121084819D02*
X146314285Y-121084819D01*
X146314285Y-121084819D02*
X146219047Y-121037200D01*
X146219047Y-121037200D02*
X146171428Y-120989580D01*
X146171428Y-120989580D02*
X146123809Y-120894342D01*
X146123809Y-120894342D02*
X146123809Y-120799104D01*
X146123809Y-120799104D02*
X146171428Y-120703866D01*
X146171428Y-120703866D02*
X146219047Y-120656247D01*
X146219047Y-120656247D02*
X146314285Y-120608628D01*
X146314285Y-120608628D02*
X146504761Y-120561009D01*
X146504761Y-120561009D02*
X146599999Y-120513390D01*
X146599999Y-120513390D02*
X146647618Y-120465771D01*
X146647618Y-120465771D02*
X146695237Y-120370533D01*
X146695237Y-120370533D02*
X146695237Y-120275295D01*
X146695237Y-120275295D02*
X146647618Y-120180057D01*
X146647618Y-120180057D02*
X146599999Y-120132438D01*
X146599999Y-120132438D02*
X146504761Y-120084819D01*
X146504761Y-120084819D02*
X146266666Y-120084819D01*
X146266666Y-120084819D02*
X146123809Y-120132438D01*
X145219047Y-121084819D02*
X145695237Y-121084819D01*
X145695237Y-121084819D02*
X145695237Y-120084819D01*
X144552380Y-120561009D02*
X144409523Y-120608628D01*
X144409523Y-120608628D02*
X144361904Y-120656247D01*
X144361904Y-120656247D02*
X144314285Y-120751485D01*
X144314285Y-120751485D02*
X144314285Y-120894342D01*
X144314285Y-120894342D02*
X144361904Y-120989580D01*
X144361904Y-120989580D02*
X144409523Y-121037200D01*
X144409523Y-121037200D02*
X144504761Y-121084819D01*
X144504761Y-121084819D02*
X144885713Y-121084819D01*
X144885713Y-121084819D02*
X144885713Y-120084819D01*
X144885713Y-120084819D02*
X144552380Y-120084819D01*
X144552380Y-120084819D02*
X144457142Y-120132438D01*
X144457142Y-120132438D02*
X144409523Y-120180057D01*
X144409523Y-120180057D02*
X144361904Y-120275295D01*
X144361904Y-120275295D02*
X144361904Y-120370533D01*
X144361904Y-120370533D02*
X144409523Y-120465771D01*
X144409523Y-120465771D02*
X144457142Y-120513390D01*
X144457142Y-120513390D02*
X144552380Y-120561009D01*
X144552380Y-120561009D02*
X144885713Y-120561009D01*
X143838094Y-121084819D02*
X143647618Y-121084819D01*
X143647618Y-121084819D02*
X143552380Y-121037200D01*
X143552380Y-121037200D02*
X143504761Y-120989580D01*
X143504761Y-120989580D02*
X143409523Y-120846723D01*
X143409523Y-120846723D02*
X143361904Y-120656247D01*
X143361904Y-120656247D02*
X143361904Y-120275295D01*
X143361904Y-120275295D02*
X143409523Y-120180057D01*
X143409523Y-120180057D02*
X143457142Y-120132438D01*
X143457142Y-120132438D02*
X143552380Y-120084819D01*
X143552380Y-120084819D02*
X143742856Y-120084819D01*
X143742856Y-120084819D02*
X143838094Y-120132438D01*
X143838094Y-120132438D02*
X143885713Y-120180057D01*
X143885713Y-120180057D02*
X143933332Y-120275295D01*
X143933332Y-120275295D02*
X143933332Y-120513390D01*
X143933332Y-120513390D02*
X143885713Y-120608628D01*
X143885713Y-120608628D02*
X143838094Y-120656247D01*
X143838094Y-120656247D02*
X143742856Y-120703866D01*
X143742856Y-120703866D02*
X143552380Y-120703866D01*
X143552380Y-120703866D02*
X143457142Y-120656247D01*
X143457142Y-120656247D02*
X143409523Y-120608628D01*
X143409523Y-120608628D02*
X143361904Y-120513390D01*
X142504761Y-120084819D02*
X142695237Y-120084819D01*
X142695237Y-120084819D02*
X142790475Y-120132438D01*
X142790475Y-120132438D02*
X142838094Y-120180057D01*
X142838094Y-120180057D02*
X142933332Y-120322914D01*
X142933332Y-120322914D02*
X142980951Y-120513390D01*
X142980951Y-120513390D02*
X142980951Y-120894342D01*
X142980951Y-120894342D02*
X142933332Y-120989580D01*
X142933332Y-120989580D02*
X142885713Y-121037200D01*
X142885713Y-121037200D02*
X142790475Y-121084819D01*
X142790475Y-121084819D02*
X142599999Y-121084819D01*
X142599999Y-121084819D02*
X142504761Y-121037200D01*
X142504761Y-121037200D02*
X142457142Y-120989580D01*
X142457142Y-120989580D02*
X142409523Y-120894342D01*
X142409523Y-120894342D02*
X142409523Y-120656247D01*
X142409523Y-120656247D02*
X142457142Y-120561009D01*
X142457142Y-120561009D02*
X142504761Y-120513390D01*
X142504761Y-120513390D02*
X142599999Y-120465771D01*
X142599999Y-120465771D02*
X142790475Y-120465771D01*
X142790475Y-120465771D02*
X142885713Y-120513390D01*
X142885713Y-120513390D02*
X142933332Y-120561009D01*
X142933332Y-120561009D02*
X142980951Y-120656247D01*
X142076189Y-120084819D02*
X141409523Y-120084819D01*
X141409523Y-120084819D02*
X141838094Y-121084819D01*
X140838094Y-120084819D02*
X140742856Y-120084819D01*
X140742856Y-120084819D02*
X140647618Y-120132438D01*
X140647618Y-120132438D02*
X140599999Y-120180057D01*
X140599999Y-120180057D02*
X140552380Y-120275295D01*
X140552380Y-120275295D02*
X140504761Y-120465771D01*
X140504761Y-120465771D02*
X140504761Y-120703866D01*
X140504761Y-120703866D02*
X140552380Y-120894342D01*
X140552380Y-120894342D02*
X140599999Y-120989580D01*
X140599999Y-120989580D02*
X140647618Y-121037200D01*
X140647618Y-121037200D02*
X140742856Y-121084819D01*
X140742856Y-121084819D02*
X140838094Y-121084819D01*
X140838094Y-121084819D02*
X140933332Y-121037200D01*
X140933332Y-121037200D02*
X140980951Y-120989580D01*
X140980951Y-120989580D02*
X141028570Y-120894342D01*
X141028570Y-120894342D02*
X141076189Y-120703866D01*
X141076189Y-120703866D02*
X141076189Y-120465771D01*
X141076189Y-120465771D02*
X141028570Y-120275295D01*
X141028570Y-120275295D02*
X140980951Y-120180057D01*
X140980951Y-120180057D02*
X140933332Y-120132438D01*
X140933332Y-120132438D02*
X140838094Y-120084819D01*
X144957142Y-116254819D02*
X144385714Y-116254819D01*
X144671428Y-117254819D02*
X144671428Y-116254819D01*
X144052380Y-117254819D02*
X144052380Y-116254819D01*
X144052380Y-116254819D02*
X143671428Y-116254819D01*
X143671428Y-116254819D02*
X143576190Y-116302438D01*
X143576190Y-116302438D02*
X143528571Y-116350057D01*
X143528571Y-116350057D02*
X143480952Y-116445295D01*
X143480952Y-116445295D02*
X143480952Y-116588152D01*
X143480952Y-116588152D02*
X143528571Y-116683390D01*
X143528571Y-116683390D02*
X143576190Y-116731009D01*
X143576190Y-116731009D02*
X143671428Y-116778628D01*
X143671428Y-116778628D02*
X144052380Y-116778628D01*
X143052380Y-117254819D02*
X143052380Y-116254819D01*
X143052380Y-116254819D02*
X142719047Y-116969104D01*
X142719047Y-116969104D02*
X142385714Y-116254819D01*
X142385714Y-116254819D02*
X142385714Y-117254819D01*
X142367143Y-117614819D02*
X142938571Y-117614819D01*
X142652857Y-117614819D02*
X142652857Y-116614819D01*
X142652857Y-116614819D02*
X142748095Y-116757676D01*
X142748095Y-116757676D02*
X142843333Y-116852914D01*
X142843333Y-116852914D02*
X142938571Y-116900533D01*
X141748095Y-116614819D02*
X141652857Y-116614819D01*
X141652857Y-116614819D02*
X141557619Y-116662438D01*
X141557619Y-116662438D02*
X141510000Y-116710057D01*
X141510000Y-116710057D02*
X141462381Y-116805295D01*
X141462381Y-116805295D02*
X141414762Y-116995771D01*
X141414762Y-116995771D02*
X141414762Y-117233866D01*
X141414762Y-117233866D02*
X141462381Y-117424342D01*
X141462381Y-117424342D02*
X141510000Y-117519580D01*
X141510000Y-117519580D02*
X141557619Y-117567200D01*
X141557619Y-117567200D02*
X141652857Y-117614819D01*
X141652857Y-117614819D02*
X141748095Y-117614819D01*
X141748095Y-117614819D02*
X141843333Y-117567200D01*
X141843333Y-117567200D02*
X141890952Y-117519580D01*
X141890952Y-117519580D02*
X141938571Y-117424342D01*
X141938571Y-117424342D02*
X141986190Y-117233866D01*
X141986190Y-117233866D02*
X141986190Y-116995771D01*
X141986190Y-116995771D02*
X141938571Y-116805295D01*
X141938571Y-116805295D02*
X141890952Y-116710057D01*
X141890952Y-116710057D02*
X141843333Y-116662438D01*
X141843333Y-116662438D02*
X141748095Y-116614819D01*
X140795714Y-116614819D02*
X140700476Y-116614819D01*
X140700476Y-116614819D02*
X140605238Y-116662438D01*
X140605238Y-116662438D02*
X140557619Y-116710057D01*
X140557619Y-116710057D02*
X140510000Y-116805295D01*
X140510000Y-116805295D02*
X140462381Y-116995771D01*
X140462381Y-116995771D02*
X140462381Y-117233866D01*
X140462381Y-117233866D02*
X140510000Y-117424342D01*
X140510000Y-117424342D02*
X140557619Y-117519580D01*
X140557619Y-117519580D02*
X140605238Y-117567200D01*
X140605238Y-117567200D02*
X140700476Y-117614819D01*
X140700476Y-117614819D02*
X140795714Y-117614819D01*
X140795714Y-117614819D02*
X140890952Y-117567200D01*
X140890952Y-117567200D02*
X140938571Y-117519580D01*
X140938571Y-117519580D02*
X140986190Y-117424342D01*
X140986190Y-117424342D02*
X141033809Y-117233866D01*
X141033809Y-117233866D02*
X141033809Y-116995771D01*
X141033809Y-116995771D02*
X140986190Y-116805295D01*
X140986190Y-116805295D02*
X140938571Y-116710057D01*
X140938571Y-116710057D02*
X140890952Y-116662438D01*
X140890952Y-116662438D02*
X140795714Y-116614819D01*
X140033809Y-116948152D02*
X140033809Y-117614819D01*
X140033809Y-117043390D02*
X139986190Y-116995771D01*
X139986190Y-116995771D02*
X139890952Y-116948152D01*
X139890952Y-116948152D02*
X139748095Y-116948152D01*
X139748095Y-116948152D02*
X139652857Y-116995771D01*
X139652857Y-116995771D02*
X139605238Y-117091009D01*
X139605238Y-117091009D02*
X139605238Y-117614819D01*
X138795714Y-117091009D02*
X139129047Y-117091009D01*
X139129047Y-117614819D02*
X139129047Y-116614819D01*
X139129047Y-116614819D02*
X138652857Y-116614819D01*
X136938571Y-117614819D02*
X137271904Y-117138628D01*
X137509999Y-117614819D02*
X137509999Y-116614819D01*
X137509999Y-116614819D02*
X137129047Y-116614819D01*
X137129047Y-116614819D02*
X137033809Y-116662438D01*
X137033809Y-116662438D02*
X136986190Y-116710057D01*
X136986190Y-116710057D02*
X136938571Y-116805295D01*
X136938571Y-116805295D02*
X136938571Y-116948152D01*
X136938571Y-116948152D02*
X136986190Y-117043390D01*
X136986190Y-117043390D02*
X137033809Y-117091009D01*
X137033809Y-117091009D02*
X137129047Y-117138628D01*
X137129047Y-117138628D02*
X137509999Y-117138628D01*
X136557618Y-117567200D02*
X136414761Y-117614819D01*
X136414761Y-117614819D02*
X136176666Y-117614819D01*
X136176666Y-117614819D02*
X136081428Y-117567200D01*
X136081428Y-117567200D02*
X136033809Y-117519580D01*
X136033809Y-117519580D02*
X135986190Y-117424342D01*
X135986190Y-117424342D02*
X135986190Y-117329104D01*
X135986190Y-117329104D02*
X136033809Y-117233866D01*
X136033809Y-117233866D02*
X136081428Y-117186247D01*
X136081428Y-117186247D02*
X136176666Y-117138628D01*
X136176666Y-117138628D02*
X136367142Y-117091009D01*
X136367142Y-117091009D02*
X136462380Y-117043390D01*
X136462380Y-117043390D02*
X136509999Y-116995771D01*
X136509999Y-116995771D02*
X136557618Y-116900533D01*
X136557618Y-116900533D02*
X136557618Y-116805295D01*
X136557618Y-116805295D02*
X136509999Y-116710057D01*
X136509999Y-116710057D02*
X136462380Y-116662438D01*
X136462380Y-116662438D02*
X136367142Y-116614819D01*
X136367142Y-116614819D02*
X136129047Y-116614819D01*
X136129047Y-116614819D02*
X135986190Y-116662438D01*
X135605237Y-117567200D02*
X135462380Y-117614819D01*
X135462380Y-117614819D02*
X135224285Y-117614819D01*
X135224285Y-117614819D02*
X135129047Y-117567200D01*
X135129047Y-117567200D02*
X135081428Y-117519580D01*
X135081428Y-117519580D02*
X135033809Y-117424342D01*
X135033809Y-117424342D02*
X135033809Y-117329104D01*
X135033809Y-117329104D02*
X135081428Y-117233866D01*
X135081428Y-117233866D02*
X135129047Y-117186247D01*
X135129047Y-117186247D02*
X135224285Y-117138628D01*
X135224285Y-117138628D02*
X135414761Y-117091009D01*
X135414761Y-117091009D02*
X135509999Y-117043390D01*
X135509999Y-117043390D02*
X135557618Y-116995771D01*
X135557618Y-116995771D02*
X135605237Y-116900533D01*
X135605237Y-116900533D02*
X135605237Y-116805295D01*
X135605237Y-116805295D02*
X135557618Y-116710057D01*
X135557618Y-116710057D02*
X135509999Y-116662438D01*
X135509999Y-116662438D02*
X135414761Y-116614819D01*
X135414761Y-116614819D02*
X135176666Y-116614819D01*
X135176666Y-116614819D02*
X135033809Y-116662438D01*
X134605237Y-117614819D02*
X134605237Y-116614819D01*
X134367143Y-117710057D02*
X133605238Y-117710057D01*
X132795714Y-117519580D02*
X132843333Y-117567200D01*
X132843333Y-117567200D02*
X132986190Y-117614819D01*
X132986190Y-117614819D02*
X133081428Y-117614819D01*
X133081428Y-117614819D02*
X133224285Y-117567200D01*
X133224285Y-117567200D02*
X133319523Y-117471961D01*
X133319523Y-117471961D02*
X133367142Y-117376723D01*
X133367142Y-117376723D02*
X133414761Y-117186247D01*
X133414761Y-117186247D02*
X133414761Y-117043390D01*
X133414761Y-117043390D02*
X133367142Y-116852914D01*
X133367142Y-116852914D02*
X133319523Y-116757676D01*
X133319523Y-116757676D02*
X133224285Y-116662438D01*
X133224285Y-116662438D02*
X133081428Y-116614819D01*
X133081428Y-116614819D02*
X132986190Y-116614819D01*
X132986190Y-116614819D02*
X132843333Y-116662438D01*
X132843333Y-116662438D02*
X132795714Y-116710057D01*
X132367142Y-117614819D02*
X132367142Y-116614819D01*
X132367142Y-116614819D02*
X132033809Y-117329104D01*
X132033809Y-117329104D02*
X131700476Y-116614819D01*
X131700476Y-116614819D02*
X131700476Y-117614819D01*
X131224285Y-117614819D02*
X131224285Y-116614819D01*
X131224285Y-116614819D02*
X130843333Y-116614819D01*
X130843333Y-116614819D02*
X130748095Y-116662438D01*
X130748095Y-116662438D02*
X130700476Y-116710057D01*
X130700476Y-116710057D02*
X130652857Y-116805295D01*
X130652857Y-116805295D02*
X130652857Y-116948152D01*
X130652857Y-116948152D02*
X130700476Y-117043390D01*
X130700476Y-117043390D02*
X130748095Y-117091009D01*
X130748095Y-117091009D02*
X130843333Y-117138628D01*
X130843333Y-117138628D02*
X131224285Y-117138628D01*
X129605237Y-116614819D02*
X129271904Y-117614819D01*
X129271904Y-117614819D02*
X128938571Y-116614819D01*
X128033809Y-117519580D02*
X128081428Y-117567200D01*
X128081428Y-117567200D02*
X128224285Y-117614819D01*
X128224285Y-117614819D02*
X128319523Y-117614819D01*
X128319523Y-117614819D02*
X128462380Y-117567200D01*
X128462380Y-117567200D02*
X128557618Y-117471961D01*
X128557618Y-117471961D02*
X128605237Y-117376723D01*
X128605237Y-117376723D02*
X128652856Y-117186247D01*
X128652856Y-117186247D02*
X128652856Y-117043390D01*
X128652856Y-117043390D02*
X128605237Y-116852914D01*
X128605237Y-116852914D02*
X128557618Y-116757676D01*
X128557618Y-116757676D02*
X128462380Y-116662438D01*
X128462380Y-116662438D02*
X128319523Y-116614819D01*
X128319523Y-116614819D02*
X128224285Y-116614819D01*
X128224285Y-116614819D02*
X128081428Y-116662438D01*
X128081428Y-116662438D02*
X128033809Y-116710057D01*
X127033809Y-117519580D02*
X127081428Y-117567200D01*
X127081428Y-117567200D02*
X127224285Y-117614819D01*
X127224285Y-117614819D02*
X127319523Y-117614819D01*
X127319523Y-117614819D02*
X127462380Y-117567200D01*
X127462380Y-117567200D02*
X127557618Y-117471961D01*
X127557618Y-117471961D02*
X127605237Y-117376723D01*
X127605237Y-117376723D02*
X127652856Y-117186247D01*
X127652856Y-117186247D02*
X127652856Y-117043390D01*
X127652856Y-117043390D02*
X127605237Y-116852914D01*
X127605237Y-116852914D02*
X127557618Y-116757676D01*
X127557618Y-116757676D02*
X127462380Y-116662438D01*
X127462380Y-116662438D02*
X127319523Y-116614819D01*
X127319523Y-116614819D02*
X127224285Y-116614819D01*
X127224285Y-116614819D02*
X127081428Y-116662438D01*
X127081428Y-116662438D02*
X127033809Y-116710057D01*
X125509999Y-117091009D02*
X125367142Y-117138628D01*
X125367142Y-117138628D02*
X125319523Y-117186247D01*
X125319523Y-117186247D02*
X125271904Y-117281485D01*
X125271904Y-117281485D02*
X125271904Y-117424342D01*
X125271904Y-117424342D02*
X125319523Y-117519580D01*
X125319523Y-117519580D02*
X125367142Y-117567200D01*
X125367142Y-117567200D02*
X125462380Y-117614819D01*
X125462380Y-117614819D02*
X125843332Y-117614819D01*
X125843332Y-117614819D02*
X125843332Y-116614819D01*
X125843332Y-116614819D02*
X125509999Y-116614819D01*
X125509999Y-116614819D02*
X125414761Y-116662438D01*
X125414761Y-116662438D02*
X125367142Y-116710057D01*
X125367142Y-116710057D02*
X125319523Y-116805295D01*
X125319523Y-116805295D02*
X125319523Y-116900533D01*
X125319523Y-116900533D02*
X125367142Y-116995771D01*
X125367142Y-116995771D02*
X125414761Y-117043390D01*
X125414761Y-117043390D02*
X125509999Y-117091009D01*
X125509999Y-117091009D02*
X125843332Y-117091009D01*
X124938570Y-116948152D02*
X124700475Y-117614819D01*
X124462380Y-116948152D02*
X124700475Y-117614819D01*
X124700475Y-117614819D02*
X124795713Y-117852914D01*
X124795713Y-117852914D02*
X124843332Y-117900533D01*
X124843332Y-117900533D02*
X124938570Y-117948152D01*
X124081427Y-116948152D02*
X124081427Y-117948152D01*
X124081427Y-116995771D02*
X123986189Y-116948152D01*
X123986189Y-116948152D02*
X123795713Y-116948152D01*
X123795713Y-116948152D02*
X123700475Y-116995771D01*
X123700475Y-116995771D02*
X123652856Y-117043390D01*
X123652856Y-117043390D02*
X123605237Y-117138628D01*
X123605237Y-117138628D02*
X123605237Y-117424342D01*
X123605237Y-117424342D02*
X123652856Y-117519580D01*
X123652856Y-117519580D02*
X123700475Y-117567200D01*
X123700475Y-117567200D02*
X123795713Y-117614819D01*
X123795713Y-117614819D02*
X123986189Y-117614819D01*
X123986189Y-117614819D02*
X124081427Y-117567200D01*
X122748094Y-117614819D02*
X122748094Y-117091009D01*
X122748094Y-117091009D02*
X122795713Y-116995771D01*
X122795713Y-116995771D02*
X122890951Y-116948152D01*
X122890951Y-116948152D02*
X123081427Y-116948152D01*
X123081427Y-116948152D02*
X123176665Y-116995771D01*
X122748094Y-117567200D02*
X122843332Y-117614819D01*
X122843332Y-117614819D02*
X123081427Y-117614819D01*
X123081427Y-117614819D02*
X123176665Y-117567200D01*
X123176665Y-117567200D02*
X123224284Y-117471961D01*
X123224284Y-117471961D02*
X123224284Y-117376723D01*
X123224284Y-117376723D02*
X123176665Y-117281485D01*
X123176665Y-117281485D02*
X123081427Y-117233866D01*
X123081427Y-117233866D02*
X122843332Y-117233866D01*
X122843332Y-117233866D02*
X122748094Y-117186247D01*
X122319522Y-117567200D02*
X122224284Y-117614819D01*
X122224284Y-117614819D02*
X122033808Y-117614819D01*
X122033808Y-117614819D02*
X121938570Y-117567200D01*
X121938570Y-117567200D02*
X121890951Y-117471961D01*
X121890951Y-117471961D02*
X121890951Y-117424342D01*
X121890951Y-117424342D02*
X121938570Y-117329104D01*
X121938570Y-117329104D02*
X122033808Y-117281485D01*
X122033808Y-117281485D02*
X122176665Y-117281485D01*
X122176665Y-117281485D02*
X122271903Y-117233866D01*
X122271903Y-117233866D02*
X122319522Y-117138628D01*
X122319522Y-117138628D02*
X122319522Y-117091009D01*
X122319522Y-117091009D02*
X122271903Y-116995771D01*
X122271903Y-116995771D02*
X122176665Y-116948152D01*
X122176665Y-116948152D02*
X122033808Y-116948152D01*
X122033808Y-116948152D02*
X121938570Y-116995771D01*
X121509998Y-117567200D02*
X121414760Y-117614819D01*
X121414760Y-117614819D02*
X121224284Y-117614819D01*
X121224284Y-117614819D02*
X121129046Y-117567200D01*
X121129046Y-117567200D02*
X121081427Y-117471961D01*
X121081427Y-117471961D02*
X121081427Y-117424342D01*
X121081427Y-117424342D02*
X121129046Y-117329104D01*
X121129046Y-117329104D02*
X121224284Y-117281485D01*
X121224284Y-117281485D02*
X121367141Y-117281485D01*
X121367141Y-117281485D02*
X121462379Y-117233866D01*
X121462379Y-117233866D02*
X121509998Y-117138628D01*
X121509998Y-117138628D02*
X121509998Y-117091009D01*
X121509998Y-117091009D02*
X121462379Y-116995771D01*
X121462379Y-116995771D02*
X121367141Y-116948152D01*
X121367141Y-116948152D02*
X121224284Y-116948152D01*
X121224284Y-116948152D02*
X121129046Y-116995771D01*
D12*
X133718452Y-116288479D02*
X133930119Y-115986098D01*
X134081309Y-116288479D02*
X134081309Y-115653479D01*
X134081309Y-115653479D02*
X133839404Y-115653479D01*
X133839404Y-115653479D02*
X133778928Y-115683717D01*
X133778928Y-115683717D02*
X133748690Y-115713955D01*
X133748690Y-115713955D02*
X133718452Y-115774431D01*
X133718452Y-115774431D02*
X133718452Y-115865145D01*
X133718452Y-115865145D02*
X133748690Y-115925621D01*
X133748690Y-115925621D02*
X133778928Y-115955860D01*
X133778928Y-115955860D02*
X133839404Y-115986098D01*
X133839404Y-115986098D02*
X134081309Y-115986098D01*
X133476547Y-116258241D02*
X133385833Y-116288479D01*
X133385833Y-116288479D02*
X133234642Y-116288479D01*
X133234642Y-116288479D02*
X133174166Y-116258241D01*
X133174166Y-116258241D02*
X133143928Y-116228002D01*
X133143928Y-116228002D02*
X133113690Y-116167526D01*
X133113690Y-116167526D02*
X133113690Y-116107050D01*
X133113690Y-116107050D02*
X133143928Y-116046574D01*
X133143928Y-116046574D02*
X133174166Y-116016336D01*
X133174166Y-116016336D02*
X133234642Y-115986098D01*
X133234642Y-115986098D02*
X133355595Y-115955860D01*
X133355595Y-115955860D02*
X133416071Y-115925621D01*
X133416071Y-115925621D02*
X133446309Y-115895383D01*
X133446309Y-115895383D02*
X133476547Y-115834907D01*
X133476547Y-115834907D02*
X133476547Y-115774431D01*
X133476547Y-115774431D02*
X133446309Y-115713955D01*
X133446309Y-115713955D02*
X133416071Y-115683717D01*
X133416071Y-115683717D02*
X133355595Y-115653479D01*
X133355595Y-115653479D02*
X133204404Y-115653479D01*
X133204404Y-115653479D02*
X133113690Y-115683717D01*
X132871785Y-116258241D02*
X132781071Y-116288479D01*
X132781071Y-116288479D02*
X132629880Y-116288479D01*
X132629880Y-116288479D02*
X132569404Y-116258241D01*
X132569404Y-116258241D02*
X132539166Y-116228002D01*
X132539166Y-116228002D02*
X132508928Y-116167526D01*
X132508928Y-116167526D02*
X132508928Y-116107050D01*
X132508928Y-116107050D02*
X132539166Y-116046574D01*
X132539166Y-116046574D02*
X132569404Y-116016336D01*
X132569404Y-116016336D02*
X132629880Y-115986098D01*
X132629880Y-115986098D02*
X132750833Y-115955860D01*
X132750833Y-115955860D02*
X132811309Y-115925621D01*
X132811309Y-115925621D02*
X132841547Y-115895383D01*
X132841547Y-115895383D02*
X132871785Y-115834907D01*
X132871785Y-115834907D02*
X132871785Y-115774431D01*
X132871785Y-115774431D02*
X132841547Y-115713955D01*
X132841547Y-115713955D02*
X132811309Y-115683717D01*
X132811309Y-115683717D02*
X132750833Y-115653479D01*
X132750833Y-115653479D02*
X132599642Y-115653479D01*
X132599642Y-115653479D02*
X132508928Y-115683717D01*
X132236785Y-116288479D02*
X132236785Y-115653479D01*
X132085595Y-116348955D02*
X131601785Y-116348955D01*
X131087737Y-116228002D02*
X131117975Y-116258241D01*
X131117975Y-116258241D02*
X131208689Y-116288479D01*
X131208689Y-116288479D02*
X131269165Y-116288479D01*
X131269165Y-116288479D02*
X131359880Y-116258241D01*
X131359880Y-116258241D02*
X131420356Y-116197764D01*
X131420356Y-116197764D02*
X131450594Y-116137288D01*
X131450594Y-116137288D02*
X131480832Y-116016336D01*
X131480832Y-116016336D02*
X131480832Y-115925621D01*
X131480832Y-115925621D02*
X131450594Y-115804669D01*
X131450594Y-115804669D02*
X131420356Y-115744193D01*
X131420356Y-115744193D02*
X131359880Y-115683717D01*
X131359880Y-115683717D02*
X131269165Y-115653479D01*
X131269165Y-115653479D02*
X131208689Y-115653479D01*
X131208689Y-115653479D02*
X131117975Y-115683717D01*
X131117975Y-115683717D02*
X131087737Y-115713955D01*
X130603927Y-115955860D02*
X130513213Y-115986098D01*
X130513213Y-115986098D02*
X130482975Y-116016336D01*
X130482975Y-116016336D02*
X130452737Y-116076812D01*
X130452737Y-116076812D02*
X130452737Y-116167526D01*
X130452737Y-116167526D02*
X130482975Y-116228002D01*
X130482975Y-116228002D02*
X130513213Y-116258241D01*
X130513213Y-116258241D02*
X130573689Y-116288479D01*
X130573689Y-116288479D02*
X130815594Y-116288479D01*
X130815594Y-116288479D02*
X130815594Y-115653479D01*
X130815594Y-115653479D02*
X130603927Y-115653479D01*
X130603927Y-115653479D02*
X130543451Y-115683717D01*
X130543451Y-115683717D02*
X130513213Y-115713955D01*
X130513213Y-115713955D02*
X130482975Y-115774431D01*
X130482975Y-115774431D02*
X130482975Y-115834907D01*
X130482975Y-115834907D02*
X130513213Y-115895383D01*
X130513213Y-115895383D02*
X130543451Y-115925621D01*
X130543451Y-115925621D02*
X130603927Y-115955860D01*
X130603927Y-115955860D02*
X130815594Y-115955860D01*
X130059642Y-115986098D02*
X130059642Y-116288479D01*
X130271308Y-115653479D02*
X130059642Y-115986098D01*
X130059642Y-115986098D02*
X129847975Y-115653479D01*
D10*
X130554819Y-102788092D02*
X130554819Y-102311902D01*
X130554819Y-102311902D02*
X129554819Y-102311902D01*
X130554819Y-103121426D02*
X129554819Y-103121426D01*
X129554819Y-103121426D02*
X130269104Y-103454759D01*
X130269104Y-103454759D02*
X129554819Y-103788092D01*
X129554819Y-103788092D02*
X130554819Y-103788092D01*
X129554819Y-104121426D02*
X130554819Y-104454759D01*
X130554819Y-104454759D02*
X129554819Y-104788092D01*
X129554819Y-105026188D02*
X129554819Y-105645235D01*
X129554819Y-105645235D02*
X129935771Y-105311902D01*
X129935771Y-105311902D02*
X129935771Y-105454759D01*
X129935771Y-105454759D02*
X129983390Y-105549997D01*
X129983390Y-105549997D02*
X130031009Y-105597616D01*
X130031009Y-105597616D02*
X130126247Y-105645235D01*
X130126247Y-105645235D02*
X130364342Y-105645235D01*
X130364342Y-105645235D02*
X130459580Y-105597616D01*
X130459580Y-105597616D02*
X130507200Y-105549997D01*
X130507200Y-105549997D02*
X130554819Y-105454759D01*
X130554819Y-105454759D02*
X130554819Y-105169045D01*
X130554819Y-105169045D02*
X130507200Y-105073807D01*
X130507200Y-105073807D02*
X130459580Y-105026188D01*
X129554819Y-105978569D02*
X129554819Y-106597616D01*
X129554819Y-106597616D02*
X129935771Y-106264283D01*
X129935771Y-106264283D02*
X129935771Y-106407140D01*
X129935771Y-106407140D02*
X129983390Y-106502378D01*
X129983390Y-106502378D02*
X130031009Y-106549997D01*
X130031009Y-106549997D02*
X130126247Y-106597616D01*
X130126247Y-106597616D02*
X130364342Y-106597616D01*
X130364342Y-106597616D02*
X130459580Y-106549997D01*
X130459580Y-106549997D02*
X130507200Y-106502378D01*
X130507200Y-106502378D02*
X130554819Y-106407140D01*
X130554819Y-106407140D02*
X130554819Y-106121426D01*
X130554819Y-106121426D02*
X130507200Y-106026188D01*
X130507200Y-106026188D02*
X130459580Y-105978569D01*
X130554819Y-107549997D02*
X130554819Y-106978569D01*
X130554819Y-107264283D02*
X129554819Y-107264283D01*
X129554819Y-107264283D02*
X129697676Y-107169045D01*
X129697676Y-107169045D02*
X129792914Y-107073807D01*
X129792914Y-107073807D02*
X129840533Y-106978569D01*
X130554819Y-109311902D02*
X130078628Y-108978569D01*
X130554819Y-108740474D02*
X129554819Y-108740474D01*
X129554819Y-108740474D02*
X129554819Y-109121426D01*
X129554819Y-109121426D02*
X129602438Y-109216664D01*
X129602438Y-109216664D02*
X129650057Y-109264283D01*
X129650057Y-109264283D02*
X129745295Y-109311902D01*
X129745295Y-109311902D02*
X129888152Y-109311902D01*
X129888152Y-109311902D02*
X129983390Y-109264283D01*
X129983390Y-109264283D02*
X130031009Y-109216664D01*
X130031009Y-109216664D02*
X130078628Y-109121426D01*
X130078628Y-109121426D02*
X130078628Y-108740474D01*
X130507200Y-109692855D02*
X130554819Y-109835712D01*
X130554819Y-109835712D02*
X130554819Y-110073807D01*
X130554819Y-110073807D02*
X130507200Y-110169045D01*
X130507200Y-110169045D02*
X130459580Y-110216664D01*
X130459580Y-110216664D02*
X130364342Y-110264283D01*
X130364342Y-110264283D02*
X130269104Y-110264283D01*
X130269104Y-110264283D02*
X130173866Y-110216664D01*
X130173866Y-110216664D02*
X130126247Y-110169045D01*
X130126247Y-110169045D02*
X130078628Y-110073807D01*
X130078628Y-110073807D02*
X130031009Y-109883331D01*
X130031009Y-109883331D02*
X129983390Y-109788093D01*
X129983390Y-109788093D02*
X129935771Y-109740474D01*
X129935771Y-109740474D02*
X129840533Y-109692855D01*
X129840533Y-109692855D02*
X129745295Y-109692855D01*
X129745295Y-109692855D02*
X129650057Y-109740474D01*
X129650057Y-109740474D02*
X129602438Y-109788093D01*
X129602438Y-109788093D02*
X129554819Y-109883331D01*
X129554819Y-109883331D02*
X129554819Y-110121426D01*
X129554819Y-110121426D02*
X129602438Y-110264283D01*
X130507200Y-110645236D02*
X130554819Y-110788093D01*
X130554819Y-110788093D02*
X130554819Y-111026188D01*
X130554819Y-111026188D02*
X130507200Y-111121426D01*
X130507200Y-111121426D02*
X130459580Y-111169045D01*
X130459580Y-111169045D02*
X130364342Y-111216664D01*
X130364342Y-111216664D02*
X130269104Y-111216664D01*
X130269104Y-111216664D02*
X130173866Y-111169045D01*
X130173866Y-111169045D02*
X130126247Y-111121426D01*
X130126247Y-111121426D02*
X130078628Y-111026188D01*
X130078628Y-111026188D02*
X130031009Y-110835712D01*
X130031009Y-110835712D02*
X129983390Y-110740474D01*
X129983390Y-110740474D02*
X129935771Y-110692855D01*
X129935771Y-110692855D02*
X129840533Y-110645236D01*
X129840533Y-110645236D02*
X129745295Y-110645236D01*
X129745295Y-110645236D02*
X129650057Y-110692855D01*
X129650057Y-110692855D02*
X129602438Y-110740474D01*
X129602438Y-110740474D02*
X129554819Y-110835712D01*
X129554819Y-110835712D02*
X129554819Y-111073807D01*
X129554819Y-111073807D02*
X129602438Y-111216664D01*
X130554819Y-111645236D02*
X129554819Y-111645236D01*
X130459580Y-113454759D02*
X130507200Y-113407140D01*
X130507200Y-113407140D02*
X130554819Y-113264283D01*
X130554819Y-113264283D02*
X130554819Y-113169045D01*
X130554819Y-113169045D02*
X130507200Y-113026188D01*
X130507200Y-113026188D02*
X130411961Y-112930950D01*
X130411961Y-112930950D02*
X130316723Y-112883331D01*
X130316723Y-112883331D02*
X130126247Y-112835712D01*
X130126247Y-112835712D02*
X129983390Y-112835712D01*
X129983390Y-112835712D02*
X129792914Y-112883331D01*
X129792914Y-112883331D02*
X129697676Y-112930950D01*
X129697676Y-112930950D02*
X129602438Y-113026188D01*
X129602438Y-113026188D02*
X129554819Y-113169045D01*
X129554819Y-113169045D02*
X129554819Y-113264283D01*
X129554819Y-113264283D02*
X129602438Y-113407140D01*
X129602438Y-113407140D02*
X129650057Y-113454759D01*
X130554819Y-114311902D02*
X130031009Y-114311902D01*
X130031009Y-114311902D02*
X129935771Y-114264283D01*
X129935771Y-114264283D02*
X129888152Y-114169045D01*
X129888152Y-114169045D02*
X129888152Y-113978569D01*
X129888152Y-113978569D02*
X129935771Y-113883331D01*
X130507200Y-114311902D02*
X130554819Y-114216664D01*
X130554819Y-114216664D02*
X130554819Y-113978569D01*
X130554819Y-113978569D02*
X130507200Y-113883331D01*
X130507200Y-113883331D02*
X130411961Y-113835712D01*
X130411961Y-113835712D02*
X130316723Y-113835712D01*
X130316723Y-113835712D02*
X130221485Y-113883331D01*
X130221485Y-113883331D02*
X130173866Y-113978569D01*
X130173866Y-113978569D02*
X130173866Y-114216664D01*
X130173866Y-114216664D02*
X130126247Y-114311902D01*
X130554819Y-114788093D02*
X129888152Y-114788093D01*
X130078628Y-114788093D02*
X129983390Y-114835712D01*
X129983390Y-114835712D02*
X129935771Y-114883331D01*
X129935771Y-114883331D02*
X129888152Y-114978569D01*
X129888152Y-114978569D02*
X129888152Y-115073807D01*
X130554819Y-115407141D02*
X129888152Y-115407141D01*
X130078628Y-115407141D02*
X129983390Y-115454760D01*
X129983390Y-115454760D02*
X129935771Y-115502379D01*
X129935771Y-115502379D02*
X129888152Y-115597617D01*
X129888152Y-115597617D02*
X129888152Y-115692855D01*
X130554819Y-116026189D02*
X129888152Y-116026189D01*
X129554819Y-116026189D02*
X129602438Y-115978570D01*
X129602438Y-115978570D02*
X129650057Y-116026189D01*
X129650057Y-116026189D02*
X129602438Y-116073808D01*
X129602438Y-116073808D02*
X129554819Y-116026189D01*
X129554819Y-116026189D02*
X129650057Y-116026189D01*
X130507200Y-116883331D02*
X130554819Y-116788093D01*
X130554819Y-116788093D02*
X130554819Y-116597617D01*
X130554819Y-116597617D02*
X130507200Y-116502379D01*
X130507200Y-116502379D02*
X130411961Y-116454760D01*
X130411961Y-116454760D02*
X130031009Y-116454760D01*
X130031009Y-116454760D02*
X129935771Y-116502379D01*
X129935771Y-116502379D02*
X129888152Y-116597617D01*
X129888152Y-116597617D02*
X129888152Y-116788093D01*
X129888152Y-116788093D02*
X129935771Y-116883331D01*
X129935771Y-116883331D02*
X130031009Y-116930950D01*
X130031009Y-116930950D02*
X130126247Y-116930950D01*
X130126247Y-116930950D02*
X130221485Y-116454760D01*
X130554819Y-117359522D02*
X129888152Y-117359522D01*
X130078628Y-117359522D02*
X129983390Y-117407141D01*
X129983390Y-117407141D02*
X129935771Y-117454760D01*
X129935771Y-117454760D02*
X129888152Y-117549998D01*
X129888152Y-117549998D02*
X129888152Y-117645236D01*
X130173866Y-117978570D02*
X130173866Y-118740475D01*
X130554819Y-119216665D02*
X129554819Y-119216665D01*
X129554819Y-119216665D02*
X129554819Y-119454760D01*
X129554819Y-119454760D02*
X129602438Y-119597617D01*
X129602438Y-119597617D02*
X129697676Y-119692855D01*
X129697676Y-119692855D02*
X129792914Y-119740474D01*
X129792914Y-119740474D02*
X129983390Y-119788093D01*
X129983390Y-119788093D02*
X130126247Y-119788093D01*
X130126247Y-119788093D02*
X130316723Y-119740474D01*
X130316723Y-119740474D02*
X130411961Y-119692855D01*
X130411961Y-119692855D02*
X130507200Y-119597617D01*
X130507200Y-119597617D02*
X130554819Y-119454760D01*
X130554819Y-119454760D02*
X130554819Y-119216665D01*
X130507200Y-120597617D02*
X130554819Y-120502379D01*
X130554819Y-120502379D02*
X130554819Y-120311903D01*
X130554819Y-120311903D02*
X130507200Y-120216665D01*
X130507200Y-120216665D02*
X130411961Y-120169046D01*
X130411961Y-120169046D02*
X130031009Y-120169046D01*
X130031009Y-120169046D02*
X129935771Y-120216665D01*
X129935771Y-120216665D02*
X129888152Y-120311903D01*
X129888152Y-120311903D02*
X129888152Y-120502379D01*
X129888152Y-120502379D02*
X129935771Y-120597617D01*
X129935771Y-120597617D02*
X130031009Y-120645236D01*
X130031009Y-120645236D02*
X130126247Y-120645236D01*
X130126247Y-120645236D02*
X130221485Y-120169046D01*
X129888152Y-120930951D02*
X129888152Y-121311903D01*
X129554819Y-121073808D02*
X130411961Y-121073808D01*
X130411961Y-121073808D02*
X130507200Y-121121427D01*
X130507200Y-121121427D02*
X130554819Y-121216665D01*
X130554819Y-121216665D02*
X130554819Y-121311903D01*
X130507200Y-122026189D02*
X130554819Y-121930951D01*
X130554819Y-121930951D02*
X130554819Y-121740475D01*
X130554819Y-121740475D02*
X130507200Y-121645237D01*
X130507200Y-121645237D02*
X130411961Y-121597618D01*
X130411961Y-121597618D02*
X130031009Y-121597618D01*
X130031009Y-121597618D02*
X129935771Y-121645237D01*
X129935771Y-121645237D02*
X129888152Y-121740475D01*
X129888152Y-121740475D02*
X129888152Y-121930951D01*
X129888152Y-121930951D02*
X129935771Y-122026189D01*
X129935771Y-122026189D02*
X130031009Y-122073808D01*
X130031009Y-122073808D02*
X130126247Y-122073808D01*
X130126247Y-122073808D02*
X130221485Y-121597618D01*
X130507200Y-122930951D02*
X130554819Y-122835713D01*
X130554819Y-122835713D02*
X130554819Y-122645237D01*
X130554819Y-122645237D02*
X130507200Y-122549999D01*
X130507200Y-122549999D02*
X130459580Y-122502380D01*
X130459580Y-122502380D02*
X130364342Y-122454761D01*
X130364342Y-122454761D02*
X130078628Y-122454761D01*
X130078628Y-122454761D02*
X129983390Y-122502380D01*
X129983390Y-122502380D02*
X129935771Y-122549999D01*
X129935771Y-122549999D02*
X129888152Y-122645237D01*
X129888152Y-122645237D02*
X129888152Y-122835713D01*
X129888152Y-122835713D02*
X129935771Y-122930951D01*
X129888152Y-123216666D02*
X129888152Y-123597618D01*
X129554819Y-123359523D02*
X130411961Y-123359523D01*
X130411961Y-123359523D02*
X130507200Y-123407142D01*
X130507200Y-123407142D02*
X130554819Y-123502380D01*
X130554819Y-123502380D02*
X130554819Y-123597618D01*
X130935771Y-124978571D02*
X130888152Y-124930952D01*
X130888152Y-124930952D02*
X130745295Y-124835714D01*
X130745295Y-124835714D02*
X130650057Y-124788095D01*
X130650057Y-124788095D02*
X130507200Y-124740476D01*
X130507200Y-124740476D02*
X130269104Y-124692857D01*
X130269104Y-124692857D02*
X130078628Y-124692857D01*
X130078628Y-124692857D02*
X129840533Y-124740476D01*
X129840533Y-124740476D02*
X129697676Y-124788095D01*
X129697676Y-124788095D02*
X129602438Y-124835714D01*
X129602438Y-124835714D02*
X129459580Y-124930952D01*
X129459580Y-124930952D02*
X129411961Y-124978571D01*
X129888152Y-125359524D02*
X130888152Y-125359524D01*
X129935771Y-125359524D02*
X129888152Y-125454762D01*
X129888152Y-125454762D02*
X129888152Y-125645238D01*
X129888152Y-125645238D02*
X129935771Y-125740476D01*
X129935771Y-125740476D02*
X129983390Y-125788095D01*
X129983390Y-125788095D02*
X130078628Y-125835714D01*
X130078628Y-125835714D02*
X130364342Y-125835714D01*
X130364342Y-125835714D02*
X130459580Y-125788095D01*
X130459580Y-125788095D02*
X130507200Y-125740476D01*
X130507200Y-125740476D02*
X130554819Y-125645238D01*
X130554819Y-125645238D02*
X130554819Y-125454762D01*
X130554819Y-125454762D02*
X130507200Y-125359524D01*
X130554819Y-126692857D02*
X130031009Y-126692857D01*
X130031009Y-126692857D02*
X129935771Y-126645238D01*
X129935771Y-126645238D02*
X129888152Y-126550000D01*
X129888152Y-126550000D02*
X129888152Y-126359524D01*
X129888152Y-126359524D02*
X129935771Y-126264286D01*
X130507200Y-126692857D02*
X130554819Y-126597619D01*
X130554819Y-126597619D02*
X130554819Y-126359524D01*
X130554819Y-126359524D02*
X130507200Y-126264286D01*
X130507200Y-126264286D02*
X130411961Y-126216667D01*
X130411961Y-126216667D02*
X130316723Y-126216667D01*
X130316723Y-126216667D02*
X130221485Y-126264286D01*
X130221485Y-126264286D02*
X130173866Y-126359524D01*
X130173866Y-126359524D02*
X130173866Y-126597619D01*
X130173866Y-126597619D02*
X130126247Y-126692857D01*
X130554819Y-127169048D02*
X129888152Y-127169048D01*
X130078628Y-127169048D02*
X129983390Y-127216667D01*
X129983390Y-127216667D02*
X129935771Y-127264286D01*
X129935771Y-127264286D02*
X129888152Y-127359524D01*
X129888152Y-127359524D02*
X129888152Y-127454762D01*
X129888152Y-127645239D02*
X129888152Y-128026191D01*
X129554819Y-127788096D02*
X130411961Y-127788096D01*
X130411961Y-127788096D02*
X130507200Y-127835715D01*
X130507200Y-127835715D02*
X130554819Y-127930953D01*
X130554819Y-127930953D02*
X130554819Y-128026191D01*
X129507200Y-129073810D02*
X130792914Y-128216668D01*
X129888152Y-129407144D02*
X130888152Y-129407144D01*
X129935771Y-129407144D02*
X129888152Y-129502382D01*
X129888152Y-129502382D02*
X129888152Y-129692858D01*
X129888152Y-129692858D02*
X129935771Y-129788096D01*
X129935771Y-129788096D02*
X129983390Y-129835715D01*
X129983390Y-129835715D02*
X130078628Y-129883334D01*
X130078628Y-129883334D02*
X130364342Y-129883334D01*
X130364342Y-129883334D02*
X130459580Y-129835715D01*
X130459580Y-129835715D02*
X130507200Y-129788096D01*
X130507200Y-129788096D02*
X130554819Y-129692858D01*
X130554819Y-129692858D02*
X130554819Y-129502382D01*
X130554819Y-129502382D02*
X130507200Y-129407144D01*
X130554819Y-130311906D02*
X129888152Y-130311906D01*
X129554819Y-130311906D02*
X129602438Y-130264287D01*
X129602438Y-130264287D02*
X129650057Y-130311906D01*
X129650057Y-130311906D02*
X129602438Y-130359525D01*
X129602438Y-130359525D02*
X129554819Y-130311906D01*
X129554819Y-130311906D02*
X129650057Y-130311906D01*
X129888152Y-130788096D02*
X130554819Y-130788096D01*
X129983390Y-130788096D02*
X129935771Y-130835715D01*
X129935771Y-130835715D02*
X129888152Y-130930953D01*
X129888152Y-130930953D02*
X129888152Y-131073810D01*
X129888152Y-131073810D02*
X129935771Y-131169048D01*
X129935771Y-131169048D02*
X130031009Y-131216667D01*
X130031009Y-131216667D02*
X130554819Y-131216667D01*
X130554819Y-131835715D02*
X130507200Y-131740477D01*
X130507200Y-131740477D02*
X130459580Y-131692858D01*
X130459580Y-131692858D02*
X130364342Y-131645239D01*
X130364342Y-131645239D02*
X130078628Y-131645239D01*
X130078628Y-131645239D02*
X129983390Y-131692858D01*
X129983390Y-131692858D02*
X129935771Y-131740477D01*
X129935771Y-131740477D02*
X129888152Y-131835715D01*
X129888152Y-131835715D02*
X129888152Y-131978572D01*
X129888152Y-131978572D02*
X129935771Y-132073810D01*
X129935771Y-132073810D02*
X129983390Y-132121429D01*
X129983390Y-132121429D02*
X130078628Y-132169048D01*
X130078628Y-132169048D02*
X130364342Y-132169048D01*
X130364342Y-132169048D02*
X130459580Y-132121429D01*
X130459580Y-132121429D02*
X130507200Y-132073810D01*
X130507200Y-132073810D02*
X130554819Y-131978572D01*
X130554819Y-131978572D02*
X130554819Y-131835715D01*
X129888152Y-133026191D02*
X130554819Y-133026191D01*
X129888152Y-132597620D02*
X130411961Y-132597620D01*
X130411961Y-132597620D02*
X130507200Y-132645239D01*
X130507200Y-132645239D02*
X130554819Y-132740477D01*
X130554819Y-132740477D02*
X130554819Y-132883334D01*
X130554819Y-132883334D02*
X130507200Y-132978572D01*
X130507200Y-132978572D02*
X130459580Y-133026191D01*
X129888152Y-133359525D02*
X129888152Y-133740477D01*
X129554819Y-133502382D02*
X130411961Y-133502382D01*
X130411961Y-133502382D02*
X130507200Y-133550001D01*
X130507200Y-133550001D02*
X130554819Y-133645239D01*
X130554819Y-133645239D02*
X130554819Y-133740477D01*
X129554819Y-134692859D02*
X129554819Y-135264287D01*
X130554819Y-134978573D02*
X129554819Y-134978573D01*
X130031009Y-135930954D02*
X130078628Y-136073811D01*
X130078628Y-136073811D02*
X130126247Y-136121430D01*
X130126247Y-136121430D02*
X130221485Y-136169049D01*
X130221485Y-136169049D02*
X130364342Y-136169049D01*
X130364342Y-136169049D02*
X130459580Y-136121430D01*
X130459580Y-136121430D02*
X130507200Y-136073811D01*
X130507200Y-136073811D02*
X130554819Y-135978573D01*
X130554819Y-135978573D02*
X130554819Y-135597621D01*
X130554819Y-135597621D02*
X129554819Y-135597621D01*
X129554819Y-135597621D02*
X129554819Y-135930954D01*
X129554819Y-135930954D02*
X129602438Y-136026192D01*
X129602438Y-136026192D02*
X129650057Y-136073811D01*
X129650057Y-136073811D02*
X129745295Y-136121430D01*
X129745295Y-136121430D02*
X129840533Y-136121430D01*
X129840533Y-136121430D02*
X129935771Y-136073811D01*
X129935771Y-136073811D02*
X129983390Y-136026192D01*
X129983390Y-136026192D02*
X130031009Y-135930954D01*
X130031009Y-135930954D02*
X130031009Y-135597621D01*
X130554819Y-136597621D02*
X129554819Y-136597621D01*
X129554819Y-136597621D02*
X129554819Y-136835716D01*
X129554819Y-136835716D02*
X129602438Y-136978573D01*
X129602438Y-136978573D02*
X129697676Y-137073811D01*
X129697676Y-137073811D02*
X129792914Y-137121430D01*
X129792914Y-137121430D02*
X129983390Y-137169049D01*
X129983390Y-137169049D02*
X130126247Y-137169049D01*
X130126247Y-137169049D02*
X130316723Y-137121430D01*
X130316723Y-137121430D02*
X130411961Y-137073811D01*
X130411961Y-137073811D02*
X130507200Y-136978573D01*
X130507200Y-136978573D02*
X130554819Y-136835716D01*
X130554819Y-136835716D02*
X130554819Y-136597621D01*
X130935771Y-137502383D02*
X130888152Y-137550002D01*
X130888152Y-137550002D02*
X130745295Y-137645240D01*
X130745295Y-137645240D02*
X130650057Y-137692859D01*
X130650057Y-137692859D02*
X130507200Y-137740478D01*
X130507200Y-137740478D02*
X130269104Y-137788097D01*
X130269104Y-137788097D02*
X130078628Y-137788097D01*
X130078628Y-137788097D02*
X129840533Y-137740478D01*
X129840533Y-137740478D02*
X129697676Y-137692859D01*
X129697676Y-137692859D02*
X129602438Y-137645240D01*
X129602438Y-137645240D02*
X129459580Y-137550002D01*
X129459580Y-137550002D02*
X129411961Y-137502383D01*
D12*
X132788479Y-118250833D02*
X132486098Y-118039166D01*
X132788479Y-117887976D02*
X132153479Y-117887976D01*
X132153479Y-117887976D02*
X132153479Y-118129881D01*
X132153479Y-118129881D02*
X132183717Y-118190357D01*
X132183717Y-118190357D02*
X132213955Y-118220595D01*
X132213955Y-118220595D02*
X132274431Y-118250833D01*
X132274431Y-118250833D02*
X132365145Y-118250833D01*
X132365145Y-118250833D02*
X132425621Y-118220595D01*
X132425621Y-118220595D02*
X132455860Y-118190357D01*
X132455860Y-118190357D02*
X132486098Y-118129881D01*
X132486098Y-118129881D02*
X132486098Y-117887976D01*
X132758241Y-118492738D02*
X132788479Y-118583452D01*
X132788479Y-118583452D02*
X132788479Y-118734643D01*
X132788479Y-118734643D02*
X132758241Y-118795119D01*
X132758241Y-118795119D02*
X132728002Y-118825357D01*
X132728002Y-118825357D02*
X132667526Y-118855595D01*
X132667526Y-118855595D02*
X132607050Y-118855595D01*
X132607050Y-118855595D02*
X132546574Y-118825357D01*
X132546574Y-118825357D02*
X132516336Y-118795119D01*
X132516336Y-118795119D02*
X132486098Y-118734643D01*
X132486098Y-118734643D02*
X132455860Y-118613690D01*
X132455860Y-118613690D02*
X132425621Y-118553214D01*
X132425621Y-118553214D02*
X132395383Y-118522976D01*
X132395383Y-118522976D02*
X132334907Y-118492738D01*
X132334907Y-118492738D02*
X132274431Y-118492738D01*
X132274431Y-118492738D02*
X132213955Y-118522976D01*
X132213955Y-118522976D02*
X132183717Y-118553214D01*
X132183717Y-118553214D02*
X132153479Y-118613690D01*
X132153479Y-118613690D02*
X132153479Y-118764881D01*
X132153479Y-118764881D02*
X132183717Y-118855595D01*
X132758241Y-119097500D02*
X132788479Y-119188214D01*
X132788479Y-119188214D02*
X132788479Y-119339405D01*
X132788479Y-119339405D02*
X132758241Y-119399881D01*
X132758241Y-119399881D02*
X132728002Y-119430119D01*
X132728002Y-119430119D02*
X132667526Y-119460357D01*
X132667526Y-119460357D02*
X132607050Y-119460357D01*
X132607050Y-119460357D02*
X132546574Y-119430119D01*
X132546574Y-119430119D02*
X132516336Y-119399881D01*
X132516336Y-119399881D02*
X132486098Y-119339405D01*
X132486098Y-119339405D02*
X132455860Y-119218452D01*
X132455860Y-119218452D02*
X132425621Y-119157976D01*
X132425621Y-119157976D02*
X132395383Y-119127738D01*
X132395383Y-119127738D02*
X132334907Y-119097500D01*
X132334907Y-119097500D02*
X132274431Y-119097500D01*
X132274431Y-119097500D02*
X132213955Y-119127738D01*
X132213955Y-119127738D02*
X132183717Y-119157976D01*
X132183717Y-119157976D02*
X132153479Y-119218452D01*
X132153479Y-119218452D02*
X132153479Y-119369643D01*
X132153479Y-119369643D02*
X132183717Y-119460357D01*
X132788479Y-119732500D02*
X132153479Y-119732500D01*
X132848955Y-119883691D02*
X132848955Y-120367500D01*
X132728002Y-120881548D02*
X132758241Y-120851310D01*
X132758241Y-120851310D02*
X132788479Y-120760596D01*
X132788479Y-120760596D02*
X132788479Y-120700120D01*
X132788479Y-120700120D02*
X132758241Y-120609405D01*
X132758241Y-120609405D02*
X132697764Y-120548929D01*
X132697764Y-120548929D02*
X132637288Y-120518691D01*
X132637288Y-120518691D02*
X132516336Y-120488453D01*
X132516336Y-120488453D02*
X132425621Y-120488453D01*
X132425621Y-120488453D02*
X132304669Y-120518691D01*
X132304669Y-120518691D02*
X132244193Y-120548929D01*
X132244193Y-120548929D02*
X132183717Y-120609405D01*
X132183717Y-120609405D02*
X132153479Y-120700120D01*
X132153479Y-120700120D02*
X132153479Y-120760596D01*
X132153479Y-120760596D02*
X132183717Y-120851310D01*
X132183717Y-120851310D02*
X132213955Y-120881548D01*
X132788479Y-121153691D02*
X132153479Y-121153691D01*
X132153479Y-121153691D02*
X132607050Y-121365358D01*
X132607050Y-121365358D02*
X132153479Y-121577024D01*
X132153479Y-121577024D02*
X132788479Y-121577024D01*
X132788479Y-121879405D02*
X132153479Y-121879405D01*
X132153479Y-121879405D02*
X132153479Y-122121310D01*
X132153479Y-122121310D02*
X132183717Y-122181786D01*
X132183717Y-122181786D02*
X132213955Y-122212024D01*
X132213955Y-122212024D02*
X132274431Y-122242262D01*
X132274431Y-122242262D02*
X132365145Y-122242262D01*
X132365145Y-122242262D02*
X132425621Y-122212024D01*
X132425621Y-122212024D02*
X132455860Y-122181786D01*
X132455860Y-122181786D02*
X132486098Y-122121310D01*
X132486098Y-122121310D02*
X132486098Y-121879405D01*
%TO.C,ETH-PHY*%
D13*
X128000000Y-116500000D02*
X121000000Y-116500000D01*
X121000000Y-123500000D01*
X128000000Y-123500000D01*
X128000000Y-116500000D01*
%TO.C,R_TPM_RST_EMMA*%
X138475000Y-115230000D02*
X138475000Y-115770000D01*
X138475000Y-115770000D02*
X139525000Y-115770000D01*
X139525000Y-115230000D02*
X138475000Y-115230000D01*
X139525000Y-115770000D02*
X139525000Y-115230000D01*
%TO.C,RSSI_RH*%
X131485000Y-111730000D02*
X131485000Y-112270000D01*
X131485000Y-112270000D02*
X132535000Y-112270000D01*
X132535000Y-111730000D02*
X131485000Y-111730000D01*
X132535000Y-112270000D02*
X132535000Y-111730000D01*
%TO.C,RSSI_RL*%
X131485000Y-113730000D02*
X131485000Y-114270000D01*
X131485000Y-114270000D02*
X132535000Y-114270000D01*
X132535000Y-113730000D02*
X131485000Y-113730000D01*
X132535000Y-114270000D02*
X132535000Y-113730000D01*
%TO.C,LoRa*%
X102000000Y-125000000D02*
X102000000Y-109000000D01*
X117000000Y-109000000D02*
X102000000Y-109000000D01*
X117000000Y-109000000D02*
X118000000Y-110000000D01*
X118000000Y-125000000D02*
X102000000Y-125000000D01*
X118000000Y-125000000D02*
X118000000Y-110000000D01*
%TO.C,C_TPM_EMMA1*%
X133100000Y-116750000D02*
X133100000Y-117250000D01*
X133100000Y-117250000D02*
X134100000Y-117250000D01*
X134100000Y-116750000D02*
X133100000Y-116750000D01*
X134100000Y-117250000D02*
X134100000Y-116750000D01*
%TO.C,TPM*%
X146100000Y-115300000D02*
X146100000Y-119300000D01*
X141100000Y-119300000D01*
X141100000Y-114300000D01*
X145100000Y-114300000D01*
X146100000Y-115300000D01*
%TO.C,RSSI_CBY*%
X131510000Y-115750000D02*
X131510000Y-116250000D01*
X131510000Y-116250000D02*
X132510000Y-116250000D01*
X132510000Y-115750000D02*
X131510000Y-115750000D01*
X132510000Y-116250000D02*
X132510000Y-115750000D01*
%TO.C,RSSI_CMP*%
X131050000Y-119250000D02*
X131050000Y-120850000D01*
X131050000Y-120850000D02*
X133550000Y-120850000D01*
X133550000Y-120850000D02*
X133950000Y-120450000D01*
X133950000Y-119250000D02*
X131050000Y-119250000D01*
X133950000Y-120450000D02*
X133950000Y-119250000D01*
%TD*%
M02*
