%TF.GenerationSoftware,KiCad,Pcbnew,9.0.2+dfsg-1*%
%TF.CreationDate,2026-06-04T20:16:11-04:00*%
%TF.ProjectId,XCVR-49MHZ-2,58435652-2d34-4394-9d48-5a2d322e6b69,2*%
%TF.SameCoordinates,Original*%
%TF.FileFunction,Copper,L1,Top*%
%TF.FilePolarity,Positive*%
%FSLAX46Y46*%
G04 Gerber Fmt 4.6, Leading zero omitted, Abs format (unit mm)*
G04 Created by KiCad (PCBNEW 9.0.2+dfsg-1) date 2026-06-04 20:16:11*
%MOMM*%
%LPD*%
G01*
G04 APERTURE LIST*
G04 Aperture macros list*
%AMRoundRect*
0 Rectangle with rounded corners*
0 $1 Rounding radius*
0 $2 $3 $4 $5 $6 $7 $8 $9 X,Y pos of 4 corners*
0 Add a 4 corners polygon primitive as box body*
4,1,4,$2,$3,$4,$5,$6,$7,$8,$9,$2,$3,0*
0 Add four circle primitives for the rounded corners*
1,1,$1+$1,$2,$3*
1,1,$1+$1,$4,$5*
1,1,$1+$1,$6,$7*
1,1,$1+$1,$8,$9*
0 Add four rect primitives between the rounded corners*
20,1,$1+$1,$2,$3,$4,$5,0*
20,1,$1+$1,$4,$5,$6,$7,0*
20,1,$1+$1,$6,$7,$8,$9,0*
20,1,$1+$1,$8,$9,$2,$3,0*%
%AMFreePoly0*
4,1,9,3.862500,-0.866500,0.737500,-0.866500,0.737500,-0.450000,-0.737500,-0.450000,-0.737500,0.450000,0.737500,0.450000,0.737500,0.866500,3.862500,0.866500,3.862500,-0.866500,3.862500,-0.866500,$1*%
G04 Aperture macros list end*
%TA.AperFunction,SMDPad,CuDef*%
%ADD10RoundRect,0.140000X-0.140000X-0.170000X0.140000X-0.170000X0.140000X0.170000X-0.140000X0.170000X0*%
%TD*%
%TA.AperFunction,SMDPad,CuDef*%
%ADD11RoundRect,0.135000X-0.135000X-0.185000X0.135000X-0.185000X0.135000X0.185000X-0.135000X0.185000X0*%
%TD*%
%TA.AperFunction,SMDPad,CuDef*%
%ADD12RoundRect,0.147500X-0.147500X-0.172500X0.147500X-0.172500X0.147500X0.172500X-0.147500X0.172500X0*%
%TD*%
%TA.AperFunction,SMDPad,CuDef*%
%ADD13R,0.800000X1.600000*%
%TD*%
%TA.AperFunction,ComponentPad*%
%ADD14C,1.600000*%
%TD*%
%TA.AperFunction,ComponentPad*%
%ADD15C,2.000000*%
%TD*%
%TA.AperFunction,SMDPad,CuDef*%
%ADD16R,0.800000X1.000000*%
%TD*%
%TA.AperFunction,SMDPad,CuDef*%
%ADD17R,0.600000X0.400000*%
%TD*%
%TA.AperFunction,SMDPad,CuDef*%
%ADD18R,1.875000X1.250000*%
%TD*%
%TA.AperFunction,SMDPad,CuDef*%
%ADD19R,0.625000X0.500000*%
%TD*%
%TA.AperFunction,SMDPad,CuDef*%
%ADD20RoundRect,0.100000X-0.225000X-0.100000X0.225000X-0.100000X0.225000X0.100000X-0.225000X0.100000X0*%
%TD*%
%TA.AperFunction,SMDPad,CuDef*%
%ADD21RoundRect,0.250000X-0.325000X-1.100000X0.325000X-1.100000X0.325000X1.100000X-0.325000X1.100000X0*%
%TD*%
%TA.AperFunction,SMDPad,CuDef*%
%ADD22RoundRect,0.250000X-0.250000X-0.475000X0.250000X-0.475000X0.250000X0.475000X-0.250000X0.475000X0*%
%TD*%
%TA.AperFunction,SMDPad,CuDef*%
%ADD23RoundRect,0.150000X-0.512500X-0.150000X0.512500X-0.150000X0.512500X0.150000X-0.512500X0.150000X0*%
%TD*%
%TA.AperFunction,SMDPad,CuDef*%
%ADD24RoundRect,0.200000X-0.300000X-0.200000X0.300000X-0.200000X0.300000X0.200000X-0.300000X0.200000X0*%
%TD*%
%TA.AperFunction,SMDPad,CuDef*%
%ADD25RoundRect,0.218750X0.381250X-0.218750X0.381250X0.218750X-0.381250X0.218750X-0.381250X-0.218750X0*%
%TD*%
%TA.AperFunction,SMDPad,CuDef*%
%ADD26RoundRect,0.125000X-0.537500X-0.125000X0.537500X-0.125000X0.537500X0.125000X-0.537500X0.125000X0*%
%TD*%
%TA.AperFunction,SMDPad,CuDef*%
%ADD27RoundRect,0.250000X-0.300000X-0.300000X0.300000X-0.300000X0.300000X0.300000X-0.300000X0.300000X0*%
%TD*%
%TA.AperFunction,SMDPad,CuDef*%
%ADD28RoundRect,0.218750X-0.218750X-0.381250X0.218750X-0.381250X0.218750X0.381250X-0.218750X0.381250X0*%
%TD*%
%TA.AperFunction,SMDPad,CuDef*%
%ADD29RoundRect,0.087500X-0.725000X-0.087500X0.725000X-0.087500X0.725000X0.087500X-0.725000X0.087500X0*%
%TD*%
%TA.AperFunction,SMDPad,CuDef*%
%ADD30RoundRect,0.150000X-0.587500X-0.150000X0.587500X-0.150000X0.587500X0.150000X-0.587500X0.150000X0*%
%TD*%
%TA.AperFunction,SMDPad,CuDef*%
%ADD31RoundRect,0.225000X-0.425000X-0.225000X0.425000X-0.225000X0.425000X0.225000X-0.425000X0.225000X0*%
%TD*%
%TA.AperFunction,SMDPad,CuDef*%
%ADD32FreePoly0,0.000000*%
%TD*%
%TA.AperFunction,ViaPad*%
%ADD33C,0.800000*%
%TD*%
%TA.AperFunction,Conductor*%
%ADD34C,0.500000*%
%TD*%
%TA.AperFunction,Conductor*%
%ADD35C,2.750000*%
%TD*%
%TA.AperFunction,Conductor*%
%ADD36C,0.200000*%
%TD*%
%ADD37C,0.350000*%
G04 APERTURE END LIST*
D10*
%TO.P,PGND 10n,1*%
%TO.N,GND*%
X129520000Y-117000000D03*
%TO.P,PGND 10n,2*%
X130480000Y-117000000D03*
%TD*%
%TO.P,SW By,1*%
%TO.N,+3V3*%
X141020000Y-117500000D03*
%TO.P,SW By,2*%
%TO.N,GND*%
X141980000Y-117500000D03*
%TD*%
%TO.P,PA By,1*%
%TO.N,+5V_FILT*%
X135020000Y-108500000D03*
%TO.P,PA By,2*%
%TO.N,GND*%
X135980000Y-108500000D03*
%TD*%
%TO.P,DAC By,1*%
%TO.N,+3V3*%
X120020000Y-112000000D03*
%TO.P,DAC By,2*%
%TO.N,GND*%
X120980000Y-112000000D03*
%TD*%
%TO.P,C2 180p,1*%
%TO.N,RF_LPF_N2*%
X135520000Y-120000000D03*
%TO.P,C2 180p,2*%
%TO.N,GND*%
X136480000Y-120000000D03*
%TD*%
D11*
%TO.P,PA Re,1*%
%TO.N,GND*%
X137490000Y-114500000D03*
%TO.P,PA Re,2*%
X138510000Y-114500000D03*
%TD*%
D12*
%TO.P,TX Bead,1*%
%TO.N,UART_TX*%
X112515000Y-107500000D03*
%TO.P,TX Bead,2*%
X113485000Y-107500000D03*
%TD*%
D10*
%TO.P,PA Cb2,1*%
%TO.N,PA_INT*%
X136520000Y-109500000D03*
%TO.P,PA Cb2,2*%
%TO.N,GND*%
X137480000Y-109500000D03*
%TD*%
D13*
%TO.P,CAPE-B IF,1*%
%TO.N,GND*%
X98375000Y-110000000D03*
%TO.P,CAPE-B IF,2*%
%TO.N,UART_TX*%
X99625000Y-110000000D03*
%TO.P,CAPE-B IF,3*%
%TO.N,UART_RX*%
X100875000Y-110000000D03*
%TO.P,CAPE-B IF,4*%
%TO.N,PTT_N*%
X102125000Y-110000000D03*
%TO.P,CAPE-B IF,5*%
%TO.N,RSSI_ANA*%
X103375000Y-110000000D03*
%TO.P,CAPE-B IF,6*%
%TO.N,+3V3*%
X104625000Y-110000000D03*
%TD*%
D14*
%TO.P,ANT SMA,1*%
%TO.N,ANT*%
X154000000Y-112500000D03*
D15*
%TO.P,ANT SMA,2*%
%TO.N,GND*%
X154000000Y-109960000D03*
%TO.P,ANT SMA,3*%
X154000000Y-115040000D03*
%TD*%
D16*
%TO.P,ANT CMC,1*%
%TO.N,ANT*%
X146000000Y-112500000D03*
%TO.P,ANT CMC,2*%
X148000000Y-112500000D03*
%TD*%
D17*
%TO.P,ANT TVS,1*%
%TO.N,GND*%
X149050000Y-113150000D03*
%TO.P,ANT TVS,2*%
%TO.N,ANT*%
X149050000Y-112500000D03*
%TO.P,ANT TVS,3*%
%TO.N,GND*%
X149050000Y-111850000D03*
%TO.P,ANT TVS,4*%
X150950000Y-111850000D03*
%TO.P,ANT TVS,5*%
%TO.N,RF_TX*%
X150950000Y-112500000D03*
%TO.P,ANT TVS,6*%
%TO.N,GND*%
X150950000Y-113150000D03*
%TD*%
D18*
%TO.P,+5V Bead,1*%
%TO.N,+5V*%
X104437500Y-117000000D03*
%TO.P,+5V Bead,2*%
%TO.N,+5V_FILT*%
X107562500Y-117000000D03*
%TD*%
D19*
%TO.P,GND X2Y,1*%
%TO.N,GND*%
X144437500Y-112500000D03*
%TO.P,GND X2Y,2*%
X145562500Y-112500000D03*
%TD*%
D11*
%TO.P,RSSI Hi,1*%
%TO.N,RSSI_RAW*%
X140990000Y-126500000D03*
%TO.P,RSSI Hi,2*%
%TO.N,RSSI_ANA*%
X142010000Y-126500000D03*
%TD*%
D12*
%TO.P,UART CMC,1*%
%TO.N,UART_TX*%
X108015000Y-110500000D03*
%TO.P,UART CMC,2*%
X108985000Y-110500000D03*
%TD*%
D20*
%TO.P,UART TVS,1*%
%TO.N,GND*%
X103550000Y-109850000D03*
%TO.P,UART TVS,2*%
%TO.N,UART_TX*%
X103550000Y-110500000D03*
%TO.P,UART TVS,3*%
%TO.N,GND*%
X103550000Y-111150000D03*
%TO.P,UART TVS,4*%
X105450000Y-111150000D03*
%TO.P,UART TVS,5*%
%TO.N,UART_RX*%
X105450000Y-110500000D03*
%TO.P,UART TVS,6*%
%TO.N,GND*%
X105450000Y-109850000D03*
%TD*%
D11*
%TO.P,RSSI Lo,1*%
%TO.N,RSSI_ANA*%
X142490000Y-126500000D03*
%TO.P,RSSI Lo,2*%
%TO.N,GND*%
X143510000Y-126500000D03*
%TD*%
D10*
%TO.P,C3 120p,1*%
%TO.N,RF_FILT*%
X139520000Y-120000000D03*
%TO.P,C3 120p,2*%
%TO.N,GND*%
X140480000Y-120000000D03*
%TD*%
%TO.P,+3V 10n,1*%
%TO.N,+3V3*%
X128020000Y-122500000D03*
%TO.P,+3V 10n,2*%
%TO.N,GND*%
X128980000Y-122500000D03*
%TD*%
%TO.P,LDO By,1*%
%TO.N,+3V3*%
X115020000Y-122500000D03*
%TO.P,LDO By,2*%
%TO.N,GND*%
X115980000Y-122500000D03*
%TD*%
D11*
%TO.P,Th Lo,1*%
%TO.N,GND*%
X118990000Y-126500000D03*
%TO.P,Th Lo,2*%
X120010000Y-126500000D03*
%TD*%
D21*
%TO.P,+3V 100u,1*%
%TO.N,+3V3*%
X119525000Y-122500000D03*
%TO.P,+3V 100u,2*%
%TO.N,GND*%
X122475000Y-122500000D03*
%TD*%
D20*
%TO.P,T/R Sw,1*%
%TO.N,RF_ANT_SW*%
X142550000Y-116850000D03*
%TO.P,T/R Sw,2*%
%TO.N,GND*%
X142550000Y-117500000D03*
%TO.P,T/R Sw,3*%
%TO.N,RF_RX*%
X142550000Y-118150000D03*
%TO.P,T/R Sw,4*%
%TO.N,PTT_N*%
X144450000Y-118150000D03*
%TO.P,T/R Sw,5*%
%TO.N,RF_FILT*%
X144450000Y-117500000D03*
%TO.P,T/R Sw,6*%
%TO.N,GND*%
X144450000Y-116850000D03*
%TD*%
D12*
%TO.P,RX Bead,1*%
%TO.N,UART_RX*%
X112515000Y-110500000D03*
%TO.P,RX Bead,2*%
X113485000Y-110500000D03*
%TD*%
D22*
%TO.P,+3V 10u,1*%
%TO.N,+3V3*%
X123550000Y-122500000D03*
%TO.P,+3V 10u,2*%
%TO.N,GND*%
X125450000Y-122500000D03*
%TD*%
D23*
%TO.P,RX Demod,1*%
%TO.N,AFSK_IN*%
X120862500Y-118050000D03*
%TO.P,RX Demod,2*%
%TO.N,+3V3*%
X120862500Y-119000000D03*
%TO.P,RX Demod,3*%
%TO.N,COMP_IN*%
X120862500Y-119950000D03*
%TO.P,RX Demod,4*%
%TO.N,GND*%
X123137500Y-119950000D03*
%TO.P,RX Demod,5*%
X123137500Y-118050000D03*
%TD*%
D10*
%TO.P,LNA By,1*%
%TO.N,+3V3*%
X141020000Y-122500000D03*
%TO.P,LNA By,2*%
%TO.N,GND*%
X141980000Y-122500000D03*
%TD*%
D24*
%TO.P,TCXO 25M,1*%
%TO.N,+3V3*%
X114300000Y-105450000D03*
%TO.P,TCXO 25M,2*%
%TO.N,GND*%
X114300000Y-107550000D03*
%TO.P,TCXO 25M,3*%
%TO.N,TCXO_OUT*%
X115700000Y-107550000D03*
%TO.P,TCXO 25M,4*%
%TO.N,+3V3*%
X115700000Y-105450000D03*
%TD*%
D25*
%TO.P,L2 180n,1*%
%TO.N,RF_LPF_N1*%
X136000000Y-118062500D03*
%TO.P,L2 180n,2*%
%TO.N,RF_LPF_N2*%
X136000000Y-115937500D03*
%TD*%
D10*
%TO.P,PA By2,1*%
%TO.N,RF_TX*%
X138520000Y-109000000D03*
%TO.P,PA By2,2*%
%TO.N,GND*%
X139480000Y-109000000D03*
%TD*%
D21*
%TO.P,+5V 100u,1*%
%TO.N,+5V_FILT*%
X109025000Y-121000000D03*
%TO.P,+5V 100u,2*%
%TO.N,GND*%
X111975000Y-121000000D03*
%TD*%
D11*
%TO.P,Th Hi,1*%
%TO.N,+3V3*%
X118990000Y-124500000D03*
%TO.P,Th Hi,2*%
%TO.N,GND*%
X120010000Y-124500000D03*
%TD*%
D26*
%TO.P,TX DAC,1*%
%TO.N,+3V3*%
X120862500Y-111025000D03*
%TO.P,TX DAC,2*%
%TO.N,DDS_FSYNC*%
X120862500Y-111675000D03*
%TO.P,TX DAC,3*%
%TO.N,DDS_CLK*%
X120862500Y-112325000D03*
%TO.P,TX DAC,4*%
%TO.N,DDS_DAT*%
X120862500Y-112975000D03*
%TO.P,TX DAC,5*%
%TO.N,GND*%
X123137500Y-112975000D03*
%TO.P,TX DAC,6*%
%TO.N,+3V3*%
X123137500Y-112325000D03*
%TO.P,TX DAC,7*%
%TO.N,AFSK_OUT*%
X123137500Y-111675000D03*
%TO.P,TX DAC,8*%
%TO.N,GND*%
X123137500Y-111025000D03*
%TD*%
D10*
%TO.P,U1 ByA,1*%
%TO.N,+3V3*%
X113020000Y-110500000D03*
%TO.P,U1 ByA,2*%
%TO.N,GND*%
X113980000Y-110500000D03*
%TD*%
%TO.P,C1 120p,1*%
%TO.N,RF_LPF_N1*%
X131520000Y-120000000D03*
%TO.P,C1 120p,2*%
%TO.N,GND*%
X132480000Y-120000000D03*
%TD*%
%TO.P,1.2k C,1*%
%TO.N,COMP_IN*%
X122520000Y-124500000D03*
%TO.P,1.2k C,2*%
%TO.N,GND*%
X123480000Y-124500000D03*
%TD*%
D27*
%TO.P,SMA ESD,1*%
%TO.N,ANT*%
X150100000Y-116500000D03*
%TO.P,SMA ESD,2*%
%TO.N,GND*%
X152900000Y-116500000D03*
%TD*%
D28*
%TO.P,L3 180n,1*%
%TO.N,RF_LPF_N2*%
X138937500Y-117000000D03*
%TO.P,L3 180n,2*%
%TO.N,RF_FILT*%
X141062500Y-117000000D03*
%TD*%
%TO.P,L1 100n,1*%
%TO.N,RF_TX*%
X130937500Y-117000000D03*
%TO.P,L1 100n,2*%
%TO.N,RF_LPF_N1*%
X133062500Y-117000000D03*
%TD*%
D10*
%TO.P,CMP By,1*%
%TO.N,+3V3*%
X120020000Y-119000000D03*
%TO.P,CMP By,2*%
%TO.N,GND*%
X120980000Y-119000000D03*
%TD*%
D11*
%TO.P,1.2k R,1*%
%TO.N,RX_LNA*%
X120490000Y-124500000D03*
%TO.P,1.2k R,2*%
%TO.N,COMP_IN*%
X121510000Y-124500000D03*
%TD*%
D10*
%TO.P,2.2k C,1*%
%TO.N,COMP_IN*%
X127020000Y-124500000D03*
%TO.P,2.2k C,2*%
%TO.N,GND*%
X127980000Y-124500000D03*
%TD*%
D29*
%TO.P,49M DDS,1*%
%TO.N,+3V3*%
X112887500Y-111000000D03*
%TO.P,49M DDS,2*%
%TO.N,GND*%
X112887500Y-111500000D03*
%TO.P,49M DDS,3*%
%TO.N,DDS_RF*%
X112887500Y-112000000D03*
%TO.P,49M DDS,4*%
%TO.N,GND*%
X112887500Y-112500000D03*
%TO.P,49M DDS,5*%
X112887500Y-113000000D03*
%TO.P,49M DDS,6*%
%TO.N,DDS_CLK*%
X117112500Y-113000000D03*
%TO.P,49M DDS,7*%
%TO.N,DDS_DAT*%
X117112500Y-112500000D03*
%TO.P,49M DDS,8*%
%TO.N,TCXO_OUT*%
X117112500Y-112000000D03*
%TO.P,49M DDS,9*%
%TO.N,GND*%
X117112500Y-111500000D03*
%TO.P,49M DDS,10*%
%TO.N,+3V3*%
X117112500Y-111000000D03*
%TD*%
D10*
%TO.P,+3V 100n,1*%
%TO.N,+3V3*%
X126520000Y-122500000D03*
%TO.P,+3V 100n,2*%
%TO.N,GND*%
X127480000Y-122500000D03*
%TD*%
D11*
%TO.P,2.2k R,1*%
%TO.N,RX_LNA*%
X124990000Y-124500000D03*
%TO.P,2.2k R,2*%
%TO.N,COMP_IN*%
X126010000Y-124500000D03*
%TD*%
D10*
%TO.P,+5V 100n,1*%
%TO.N,+5V_FILT*%
X112520000Y-121000000D03*
%TO.P,+5V 100n,2*%
%TO.N,GND*%
X113480000Y-121000000D03*
%TD*%
%TO.P,PA Cb1,1*%
%TO.N,DDS_RF*%
X131020000Y-110500000D03*
%TO.P,PA Cb1,2*%
X131980000Y-110500000D03*
%TD*%
D11*
%TO.P,PA Rc1,1*%
%TO.N,+5V_FILT*%
X132490000Y-109500000D03*
%TO.P,PA Rc1,2*%
%TO.N,PA_INT*%
X133510000Y-109500000D03*
%TD*%
D30*
%TO.P,PA Drvr,1*%
%TO.N,DDS_RF*%
X132062500Y-111050000D03*
%TO.P,PA Drvr,2*%
%TO.N,GND*%
X132062500Y-112950000D03*
%TO.P,PA Drvr,3*%
%TO.N,PA_INT*%
X133937500Y-112000000D03*
%TD*%
D20*
%TO.P,LNA,1*%
%TO.N,RX_LNA*%
X142550000Y-122850000D03*
%TO.P,LNA,2*%
%TO.N,RSSI_RAW*%
X142550000Y-123500000D03*
%TO.P,LNA,3*%
%TO.N,RF_RX*%
X142550000Y-124150000D03*
%TO.P,LNA,4*%
%TO.N,+3V3*%
X144450000Y-124150000D03*
%TO.P,LNA,5*%
%TO.N,GND*%
X144450000Y-123500000D03*
%TO.P,LNA,6*%
X144450000Y-122850000D03*
%TD*%
D11*
%TO.P,PA Rb2,1*%
%TO.N,PA_INT*%
X134990000Y-109500000D03*
%TO.P,PA Rb2,2*%
X136010000Y-109500000D03*
%TD*%
D31*
%TO.P,PA 100mW,1*%
%TO.N,PA_INT*%
X135550000Y-110500000D03*
D32*
%TO.P,PA 100mW,2*%
%TO.N,GND*%
X135637500Y-112000000D03*
D31*
%TO.P,PA 100mW,3*%
%TO.N,RF_TX*%
X135550000Y-113500000D03*
%TD*%
D23*
%TO.P,LDO 3V3,1*%
%TO.N,+5V_FILT*%
X115862500Y-121550000D03*
%TO.P,LDO 3V3,2*%
%TO.N,GND*%
X115862500Y-122500000D03*
%TO.P,LDO 3V3,3*%
%TO.N,+3V3*%
X115862500Y-123450000D03*
%TO.P,LDO 3V3,4*%
X118137500Y-123450000D03*
%TO.P,LDO 3V3,5*%
%TO.N,GND*%
X118137500Y-121550000D03*
%TD*%
D10*
%TO.P,OSC By,1*%
%TO.N,+3V3*%
X113020000Y-106500000D03*
%TO.P,OSC By,2*%
%TO.N,GND*%
X113980000Y-106500000D03*
%TD*%
D11*
%TO.P,PA Rb1,1*%
%TO.N,+5V_FILT*%
X130490000Y-108500000D03*
%TO.P,PA Rb1,2*%
%TO.N,DDS_RF*%
X131510000Y-108500000D03*
%TD*%
D10*
%TO.P,U1 ByB,1*%
%TO.N,+3V3*%
X116020000Y-110500000D03*
%TO.P,U1 ByB,2*%
%TO.N,GND*%
X116980000Y-110500000D03*
%TD*%
%TO.P,AFSK Cp,1*%
%TO.N,AFSK_OUT*%
X123020000Y-115500000D03*
%TO.P,AFSK Cp,2*%
X123980000Y-115500000D03*
%TD*%
D12*
%TO.P,PTT Bead,1*%
%TO.N,PTT_N*%
X112515000Y-113000000D03*
%TO.P,PTT Bead,2*%
X113485000Y-113000000D03*
%TD*%
D33*
%TO.N,GND*%
X130000000Y-132500000D03*
X130000000Y-107500000D03*
X130000000Y-117500000D03*
X136000000Y-124500000D03*
X130000000Y-115000000D03*
X130000000Y-120000000D03*
X132000000Y-124500000D03*
X143000000Y-124500000D03*
X130000000Y-122500000D03*
X130000000Y-102500000D03*
X130000000Y-110000000D03*
X140000000Y-109500000D03*
X140000000Y-124500000D03*
X130000000Y-127500000D03*
X130000000Y-130000000D03*
X130000000Y-125000000D03*
X130000000Y-135000000D03*
X130000000Y-105000000D03*
X130000000Y-112500000D03*
X143000000Y-109500000D03*
%TO.N,+5V_FILT*%
X132000000Y-109500000D03*
%TO.N,PA_INT*%
X136000000Y-109500000D03*
%TD*%
D34*
%TO.N,+3V3*%
X115862500Y-123450000D02*
X128000000Y-123450000D01*
D35*
%TO.N,RF_TX*%
X135550000Y-113500000D02*
X133243750Y-113500000D01*
X133243750Y-113500000D02*
X130937500Y-117000000D01*
D36*
%TO.N,RF_RX*%
X142550000Y-118150000D02*
X142550000Y-124150000D01*
D34*
%TO.N,+5V_FILT*%
X107600000Y-117000000D02*
X115862500Y-121550000D01*
D36*
%TO.N,DDS_RF*%
X112887500Y-112000000D02*
X132062500Y-111050000D01*
D35*
%TO.N,RF_FILT*%
X141062500Y-117000000D02*
X144450000Y-117500000D01*
D36*
%TO.N,RX_LNA*%
X142550000Y-122850000D02*
X120490000Y-124500000D01*
%TO.N,TCXO_OUT*%
X115700000Y-107550000D02*
X117112500Y-112000000D01*
D35*
%TO.N,RF_ANT_SW*%
X142550000Y-116850000D02*
X147000000Y-116850000D01*
%TD*%
D37*
X130000000Y-132500000D03*
X130000000Y-107500000D03*
X130000000Y-117500000D03*
X136000000Y-124500000D03*
X130000000Y-115000000D03*
X130000000Y-120000000D03*
X132000000Y-124500000D03*
X143000000Y-124500000D03*
X130000000Y-122500000D03*
X130000000Y-102500000D03*
X130000000Y-110000000D03*
X140000000Y-109500000D03*
X140000000Y-124500000D03*
X130000000Y-127500000D03*
X130000000Y-130000000D03*
X130000000Y-125000000D03*
X130000000Y-135000000D03*
X130000000Y-105000000D03*
X130000000Y-112500000D03*
X143000000Y-109500000D03*
X132000000Y-109500000D03*
X136000000Y-109500000D03*
X154000000Y-112500000D03*
X154000000Y-109960000D03*
X154000000Y-115040000D03*
X102500000Y-102500000D03*
X152500000Y-102500000D03*
X102500000Y-132500000D03*
X152500000Y-132500000D03*
M02*
