solid tilt_bracket_cf_petg
  facet normal 0.000000 0.000000 1.000000
    outer loop
      vertex -20.0000 -6.0000 0.0000
      vertex 20.0000 -6.0000 0.0000
      vertex 20.0000 6.0000 0.0000
    endloop
  endfacet
  facet normal 0.000000 0.000000 1.000000
    outer loop
      vertex -20.0000 -6.0000 0.0000
      vertex 20.0000 6.0000 0.0000
      vertex -20.0000 6.0000 0.0000
    endloop
  endfacet
  facet normal 0.000000 0.000000 -1.000000
    outer loop
      vertex -20.0000 -6.0000 30.0000
      vertex 20.0000 6.0000 30.0000
      vertex 20.0000 -6.0000 30.0000
    endloop
  endfacet
  facet normal 0.000000 0.000000 -1.000000
    outer loop
      vertex -20.0000 -6.0000 30.0000
      vertex -20.0000 6.0000 30.0000
      vertex 20.0000 6.0000 30.0000
    endloop
  endfacet
  facet normal 0.000000 1.000000 0.000000
    outer loop
      vertex -20.0000 -6.0000 0.0000
      vertex -20.0000 -6.0000 30.0000
      vertex 20.0000 -6.0000 30.0000
    endloop
  endfacet
  facet normal 0.000000 1.000000 0.000000
    outer loop
      vertex -20.0000 -6.0000 0.0000
      vertex 20.0000 -6.0000 30.0000
      vertex 20.0000 -6.0000 0.0000
    endloop
  endfacet
  facet normal 0.000000 -1.000000 0.000000
    outer loop
      vertex -20.0000 6.0000 0.0000
      vertex 20.0000 6.0000 30.0000
      vertex -20.0000 6.0000 30.0000
    endloop
  endfacet
  facet normal 0.000000 -1.000000 0.000000
    outer loop
      vertex -20.0000 6.0000 0.0000
      vertex 20.0000 6.0000 0.0000
      vertex 20.0000 6.0000 30.0000
    endloop
  endfacet
  facet normal 1.000000 0.000000 0.000000
    outer loop
      vertex -20.0000 -6.0000 0.0000
      vertex -20.0000 6.0000 0.0000
      vertex -20.0000 6.0000 30.0000
    endloop
  endfacet
  facet normal 1.000000 0.000000 0.000000
    outer loop
      vertex -20.0000 -6.0000 0.0000
      vertex -20.0000 6.0000 30.0000
      vertex -20.0000 -6.0000 30.0000
    endloop
  endfacet
  facet normal -1.000000 0.000000 0.000000
    outer loop
      vertex 20.0000 -6.0000 0.0000
      vertex 20.0000 6.0000 30.0000
      vertex 20.0000 6.0000 0.0000
    endloop
  endfacet
  facet normal -1.000000 0.000000 0.000000
    outer loop
      vertex 20.0000 -6.0000 0.0000
      vertex 20.0000 -6.0000 30.0000
      vertex 20.0000 6.0000 30.0000
    endloop
  endfacet
  facet normal 0.980785 0.195090 0.000000
    outer loop
      vertex 10.0000 0.0000 0.0000
      vertex 9.2388 3.8268 0.0000
      vertex 9.2388 3.8268 4.0000
    endloop
  endfacet
  facet normal 0.980785 0.195090 -0.000000
    outer loop
      vertex 10.0000 0.0000 0.0000
      vertex 9.2388 3.8268 4.0000
      vertex 10.0000 0.0000 4.0000
    endloop
  endfacet
  facet normal 0.000000 0.000000 1.000000
    outer loop
      vertex 0.0000 0.0000 4.0000
      vertex 10.0000 0.0000 4.0000
      vertex 9.2388 3.8268 4.0000
    endloop
  endfacet
  facet normal 0.000000 0.000000 -1.000000
    outer loop
      vertex 0.0000 0.0000 0.0000
      vertex 9.2388 3.8268 0.0000
      vertex 10.0000 0.0000 0.0000
    endloop
  endfacet
  facet normal 0.831470 0.555570 0.000000
    outer loop
      vertex 9.2388 3.8268 0.0000
      vertex 7.0711 7.0711 0.0000
      vertex 7.0711 7.0711 4.0000
    endloop
  endfacet
  facet normal 0.831470 0.555570 -0.000000
    outer loop
      vertex 9.2388 3.8268 0.0000
      vertex 7.0711 7.0711 4.0000
      vertex 9.2388 3.8268 4.0000
    endloop
  endfacet
  facet normal 0.000000 0.000000 1.000000
    outer loop
      vertex 0.0000 0.0000 4.0000
      vertex 9.2388 3.8268 4.0000
      vertex 7.0711 7.0711 4.0000
    endloop
  endfacet
  facet normal 0.000000 0.000000 -1.000000
    outer loop
      vertex 0.0000 0.0000 0.0000
      vertex 7.0711 7.0711 0.0000
      vertex 9.2388 3.8268 0.0000
    endloop
  endfacet
  facet normal 0.555570 0.831470 0.000000
    outer loop
      vertex 7.0711 7.0711 0.0000
      vertex 3.8268 9.2388 0.0000
      vertex 3.8268 9.2388 4.0000
    endloop
  endfacet
  facet normal 0.555570 0.831470 -0.000000
    outer loop
      vertex 7.0711 7.0711 0.0000
      vertex 3.8268 9.2388 4.0000
      vertex 7.0711 7.0711 4.0000
    endloop
  endfacet
  facet normal 0.000000 0.000000 1.000000
    outer loop
      vertex 0.0000 0.0000 4.0000
      vertex 7.0711 7.0711 4.0000
      vertex 3.8268 9.2388 4.0000
    endloop
  endfacet
  facet normal 0.000000 0.000000 -1.000000
    outer loop
      vertex 0.0000 0.0000 0.0000
      vertex 3.8268 9.2388 0.0000
      vertex 7.0711 7.0711 0.0000
    endloop
  endfacet
  facet normal 0.195090 0.980785 0.000000
    outer loop
      vertex 3.8268 9.2388 0.0000
      vertex 0.0000 10.0000 0.0000
      vertex 0.0000 10.0000 4.0000
    endloop
  endfacet
  facet normal 0.195090 0.980785 -0.000000
    outer loop
      vertex 3.8268 9.2388 0.0000
      vertex 0.0000 10.0000 4.0000
      vertex 3.8268 9.2388 4.0000
    endloop
  endfacet
  facet normal 0.000000 0.000000 1.000000
    outer loop
      vertex 0.0000 0.0000 4.0000
      vertex 3.8268 9.2388 4.0000
      vertex 0.0000 10.0000 4.0000
    endloop
  endfacet
  facet normal 0.000000 0.000000 -1.000000
    outer loop
      vertex 0.0000 0.0000 0.0000
      vertex 0.0000 10.0000 0.0000
      vertex 3.8268 9.2388 0.0000
    endloop
  endfacet
  facet normal -0.195090 0.980785 0.000000
    outer loop
      vertex 0.0000 10.0000 0.0000
      vertex -3.8268 9.2388 0.0000
      vertex -3.8268 9.2388 4.0000
    endloop
  endfacet
  facet normal -0.195090 0.980785 0.000000
    outer loop
      vertex 0.0000 10.0000 0.0000
      vertex -3.8268 9.2388 4.0000
      vertex 0.0000 10.0000 4.0000
    endloop
  endfacet
  facet normal 0.000000 -0.000000 1.000000
    outer loop
      vertex 0.0000 0.0000 4.0000
      vertex 0.0000 10.0000 4.0000
      vertex -3.8268 9.2388 4.0000
    endloop
  endfacet
  facet normal 0.000000 0.000000 -1.000000
    outer loop
      vertex 0.0000 0.0000 0.0000
      vertex -3.8268 9.2388 0.0000
      vertex 0.0000 10.0000 0.0000
    endloop
  endfacet
  facet normal -0.555570 0.831470 0.000000
    outer loop
      vertex -3.8268 9.2388 0.0000
      vertex -7.0711 7.0711 0.0000
      vertex -7.0711 7.0711 4.0000
    endloop
  endfacet
  facet normal -0.555570 0.831470 0.000000
    outer loop
      vertex -3.8268 9.2388 0.0000
      vertex -7.0711 7.0711 4.0000
      vertex -3.8268 9.2388 4.0000
    endloop
  endfacet
  facet normal 0.000000 0.000000 1.000000
    outer loop
      vertex 0.0000 0.0000 4.0000
      vertex -3.8268 9.2388 4.0000
      vertex -7.0711 7.0711 4.0000
    endloop
  endfacet
  facet normal 0.000000 0.000000 -1.000000
    outer loop
      vertex 0.0000 0.0000 0.0000
      vertex -7.0711 7.0711 0.0000
      vertex -3.8268 9.2388 0.0000
    endloop
  endfacet
  facet normal -0.831470 0.555570 0.000000
    outer loop
      vertex -7.0711 7.0711 0.0000
      vertex -9.2388 3.8268 0.0000
      vertex -9.2388 3.8268 4.0000
    endloop
  endfacet
  facet normal -0.831470 0.555570 0.000000
    outer loop
      vertex -7.0711 7.0711 0.0000
      vertex -9.2388 3.8268 4.0000
      vertex -7.0711 7.0711 4.0000
    endloop
  endfacet
  facet normal 0.000000 0.000000 1.000000
    outer loop
      vertex 0.0000 0.0000 4.0000
      vertex -7.0711 7.0711 4.0000
      vertex -9.2388 3.8268 4.0000
    endloop
  endfacet
  facet normal 0.000000 0.000000 -1.000000
    outer loop
      vertex 0.0000 0.0000 0.0000
      vertex -9.2388 3.8268 0.0000
      vertex -7.0711 7.0711 0.0000
    endloop
  endfacet
  facet normal -0.980785 0.195090 0.000000
    outer loop
      vertex -9.2388 3.8268 0.0000
      vertex -10.0000 0.0000 0.0000
      vertex -10.0000 0.0000 4.0000
    endloop
  endfacet
  facet normal -0.980785 0.195090 0.000000
    outer loop
      vertex -9.2388 3.8268 0.0000
      vertex -10.0000 0.0000 4.0000
      vertex -9.2388 3.8268 4.0000
    endloop
  endfacet
  facet normal 0.000000 0.000000 1.000000
    outer loop
      vertex 0.0000 0.0000 4.0000
      vertex -9.2388 3.8268 4.0000
      vertex -10.0000 0.0000 4.0000
    endloop
  endfacet
  facet normal 0.000000 0.000000 -1.000000
    outer loop
      vertex 0.0000 0.0000 0.0000
      vertex -10.0000 0.0000 0.0000
      vertex -9.2388 3.8268 0.0000
    endloop
  endfacet
  facet normal -0.980785 -0.195090 0.000000
    outer loop
      vertex -10.0000 0.0000 0.0000
      vertex -9.2388 -3.8268 0.0000
      vertex -9.2388 -3.8268 4.0000
    endloop
  endfacet
  facet normal -0.980785 -0.195090 0.000000
    outer loop
      vertex -10.0000 0.0000 0.0000
      vertex -9.2388 -3.8268 4.0000
      vertex -10.0000 0.0000 4.0000
    endloop
  endfacet
  facet normal 0.000000 0.000000 1.000000
    outer loop
      vertex 0.0000 0.0000 4.0000
      vertex -10.0000 0.0000 4.0000
      vertex -9.2388 -3.8268 4.0000
    endloop
  endfacet
  facet normal -0.000000 0.000000 -1.000000
    outer loop
      vertex 0.0000 0.0000 0.0000
      vertex -9.2388 -3.8268 0.0000
      vertex -10.0000 0.0000 0.0000
    endloop
  endfacet
  facet normal -0.831470 -0.555570 0.000000
    outer loop
      vertex -9.2388 -3.8268 0.0000
      vertex -7.0711 -7.0711 0.0000
      vertex -7.0711 -7.0711 4.0000
    endloop
  endfacet
  facet normal -0.831470 -0.555570 0.000000
    outer loop
      vertex -9.2388 -3.8268 0.0000
      vertex -7.0711 -7.0711 4.0000
      vertex -9.2388 -3.8268 4.0000
    endloop
  endfacet
  facet normal 0.000000 0.000000 1.000000
    outer loop
      vertex 0.0000 0.0000 4.0000
      vertex -9.2388 -3.8268 4.0000
      vertex -7.0711 -7.0711 4.0000
    endloop
  endfacet
  facet normal 0.000000 0.000000 -1.000000
    outer loop
      vertex 0.0000 0.0000 0.0000
      vertex -7.0711 -7.0711 0.0000
      vertex -9.2388 -3.8268 0.0000
    endloop
  endfacet
  facet normal -0.555570 -0.831470 0.000000
    outer loop
      vertex -7.0711 -7.0711 0.0000
      vertex -3.8268 -9.2388 0.0000
      vertex -3.8268 -9.2388 4.0000
    endloop
  endfacet
  facet normal -0.555570 -0.831470 0.000000
    outer loop
      vertex -7.0711 -7.0711 0.0000
      vertex -3.8268 -9.2388 4.0000
      vertex -7.0711 -7.0711 4.0000
    endloop
  endfacet
  facet normal 0.000000 0.000000 1.000000
    outer loop
      vertex 0.0000 0.0000 4.0000
      vertex -7.0711 -7.0711 4.0000
      vertex -3.8268 -9.2388 4.0000
    endloop
  endfacet
  facet normal 0.000000 0.000000 -1.000000
    outer loop
      vertex 0.0000 0.0000 0.0000
      vertex -3.8268 -9.2388 0.0000
      vertex -7.0711 -7.0711 0.0000
    endloop
  endfacet
  facet normal -0.195090 -0.980785 0.000000
    outer loop
      vertex -3.8268 -9.2388 0.0000
      vertex -0.0000 -10.0000 0.0000
      vertex -0.0000 -10.0000 4.0000
    endloop
  endfacet
  facet normal -0.195090 -0.980785 0.000000
    outer loop
      vertex -3.8268 -9.2388 0.0000
      vertex -0.0000 -10.0000 4.0000
      vertex -3.8268 -9.2388 4.0000
    endloop
  endfacet
  facet normal 0.000000 0.000000 1.000000
    outer loop
      vertex 0.0000 0.0000 4.0000
      vertex -3.8268 -9.2388 4.0000
      vertex -0.0000 -10.0000 4.0000
    endloop
  endfacet
  facet normal 0.000000 0.000000 -1.000000
    outer loop
      vertex 0.0000 0.0000 0.0000
      vertex -0.0000 -10.0000 0.0000
      vertex -3.8268 -9.2388 0.0000
    endloop
  endfacet
  facet normal 0.195090 -0.980785 0.000000
    outer loop
      vertex -0.0000 -10.0000 0.0000
      vertex 3.8268 -9.2388 0.0000
      vertex 3.8268 -9.2388 4.0000
    endloop
  endfacet
  facet normal 0.195090 -0.980785 0.000000
    outer loop
      vertex -0.0000 -10.0000 0.0000
      vertex 3.8268 -9.2388 4.0000
      vertex -0.0000 -10.0000 4.0000
    endloop
  endfacet
  facet normal 0.000000 0.000000 1.000000
    outer loop
      vertex 0.0000 0.0000 4.0000
      vertex -0.0000 -10.0000 4.0000
      vertex 3.8268 -9.2388 4.0000
    endloop
  endfacet
  facet normal 0.000000 -0.000000 -1.000000
    outer loop
      vertex 0.0000 0.0000 0.0000
      vertex 3.8268 -9.2388 0.0000
      vertex -0.0000 -10.0000 0.0000
    endloop
  endfacet
  facet normal 0.555570 -0.831470 0.000000
    outer loop
      vertex 3.8268 -9.2388 0.0000
      vertex 7.0711 -7.0711 0.0000
      vertex 7.0711 -7.0711 4.0000
    endloop
  endfacet
  facet normal 0.555570 -0.831470 0.000000
    outer loop
      vertex 3.8268 -9.2388 0.0000
      vertex 7.0711 -7.0711 4.0000
      vertex 3.8268 -9.2388 4.0000
    endloop
  endfacet
  facet normal 0.000000 0.000000 1.000000
    outer loop
      vertex 0.0000 0.0000 4.0000
      vertex 3.8268 -9.2388 4.0000
      vertex 7.0711 -7.0711 4.0000
    endloop
  endfacet
  facet normal 0.000000 0.000000 -1.000000
    outer loop
      vertex 0.0000 0.0000 0.0000
      vertex 7.0711 -7.0711 0.0000
      vertex 3.8268 -9.2388 0.0000
    endloop
  endfacet
  facet normal 0.831470 -0.555570 0.000000
    outer loop
      vertex 7.0711 -7.0711 0.0000
      vertex 9.2388 -3.8268 0.0000
      vertex 9.2388 -3.8268 4.0000
    endloop
  endfacet
  facet normal 0.831470 -0.555570 0.000000
    outer loop
      vertex 7.0711 -7.0711 0.0000
      vertex 9.2388 -3.8268 4.0000
      vertex 7.0711 -7.0711 4.0000
    endloop
  endfacet
  facet normal 0.000000 0.000000 1.000000
    outer loop
      vertex 0.0000 0.0000 4.0000
      vertex 7.0711 -7.0711 4.0000
      vertex 9.2388 -3.8268 4.0000
    endloop
  endfacet
  facet normal 0.000000 0.000000 -1.000000
    outer loop
      vertex 0.0000 0.0000 0.0000
      vertex 9.2388 -3.8268 0.0000
      vertex 7.0711 -7.0711 0.0000
    endloop
  endfacet
  facet normal 0.980785 -0.195090 0.000000
    outer loop
      vertex 9.2388 -3.8268 0.0000
      vertex 10.0000 -0.0000 0.0000
      vertex 10.0000 -0.0000 4.0000
    endloop
  endfacet
  facet normal 0.980785 -0.195090 0.000000
    outer loop
      vertex 9.2388 -3.8268 0.0000
      vertex 10.0000 -0.0000 4.0000
      vertex 9.2388 -3.8268 4.0000
    endloop
  endfacet
  facet normal 0.000000 0.000000 1.000000
    outer loop
      vertex 0.0000 0.0000 4.0000
      vertex 9.2388 -3.8268 4.0000
      vertex 10.0000 -0.0000 4.0000
    endloop
  endfacet
  facet normal 0.000000 0.000000 -1.000000
    outer loop
      vertex 0.0000 0.0000 0.0000
      vertex 10.0000 -0.0000 0.0000
      vertex 9.2388 -3.8268 0.0000
    endloop
  endfacet
  facet normal 0.000000 0.000000 1.000000
    outer loop
      vertex -24.0000 -3.0000 12.0000
      vertex 24.0000 -3.0000 12.0000
      vertex 24.0000 3.0000 12.0000
    endloop
  endfacet
  facet normal 0.000000 0.000000 1.000000
    outer loop
      vertex -24.0000 -3.0000 12.0000
      vertex 24.0000 3.0000 12.0000
      vertex -24.0000 3.0000 12.0000
    endloop
  endfacet
  facet normal 0.000000 0.000000 -1.000000
    outer loop
      vertex -24.0000 -3.0000 16.0000
      vertex 24.0000 3.0000 16.0000
      vertex 24.0000 -3.0000 16.0000
    endloop
  endfacet
  facet normal 0.000000 0.000000 -1.000000
    outer loop
      vertex -24.0000 -3.0000 16.0000
      vertex -24.0000 3.0000 16.0000
      vertex 24.0000 3.0000 16.0000
    endloop
  endfacet
  facet normal 0.000000 1.000000 0.000000
    outer loop
      vertex -24.0000 -3.0000 12.0000
      vertex -24.0000 -3.0000 16.0000
      vertex 24.0000 -3.0000 16.0000
    endloop
  endfacet
  facet normal 0.000000 1.000000 0.000000
    outer loop
      vertex -24.0000 -3.0000 12.0000
      vertex 24.0000 -3.0000 16.0000
      vertex 24.0000 -3.0000 12.0000
    endloop
  endfacet
  facet normal 0.000000 -1.000000 0.000000
    outer loop
      vertex -24.0000 3.0000 12.0000
      vertex 24.0000 3.0000 16.0000
      vertex -24.0000 3.0000 16.0000
    endloop
  endfacet
  facet normal 0.000000 -1.000000 0.000000
    outer loop
      vertex -24.0000 3.0000 12.0000
      vertex 24.0000 3.0000 12.0000
      vertex 24.0000 3.0000 16.0000
    endloop
  endfacet
  facet normal 1.000000 0.000000 0.000000
    outer loop
      vertex -24.0000 -3.0000 12.0000
      vertex -24.0000 3.0000 12.0000
      vertex -24.0000 3.0000 16.0000
    endloop
  endfacet
  facet normal 1.000000 0.000000 0.000000
    outer loop
      vertex -24.0000 -3.0000 12.0000
      vertex -24.0000 3.0000 16.0000
      vertex -24.0000 -3.0000 16.0000
    endloop
  endfacet
  facet normal -1.000000 0.000000 0.000000
    outer loop
      vertex 24.0000 -3.0000 12.0000
      vertex 24.0000 3.0000 16.0000
      vertex 24.0000 3.0000 12.0000
    endloop
  endfacet
  facet normal -1.000000 0.000000 0.000000
    outer loop
      vertex 24.0000 -3.0000 12.0000
      vertex 24.0000 -3.0000 16.0000
      vertex 24.0000 3.0000 16.0000
    endloop
  endfacet
endsolid tilt_bracket_cf_petg
