%TF.GenerationSoftware,KiCad,Pcbnew,9.0.2+dfsg-1*%
%TF.CreationDate,2026-07-26T22:33:20-04:00*%
%TF.ProjectId,CAN-PERIPH-GW-1,43414e2d-5045-4524-9950-482d47572d31,2*%
%TF.SameCoordinates,Original*%
%TF.FileFunction,Other,User*%
%FSLAX46Y46*%
G04 Gerber Fmt 4.6, Leading zero omitted, Abs format (unit mm)*
G04 Created by KiCad (PCBNEW 9.0.2+dfsg-1) date 2026-07-26 22:33:20*
%MOMM*%
%LPD*%
G01*
G04 APERTURE LIST*
%ADD10C,0.050000*%
G04 APERTURE END LIST*
D10*
%TO.C,U4_1*%
X164350000Y-102500000D02*
X164350000Y-110500000D01*
X164350000Y-110500000D02*
X164730000Y-110500000D01*
X164730000Y-100570000D02*
X164730000Y-102500000D01*
X164730000Y-102500000D02*
X164350000Y-102500000D01*
X164730000Y-110500000D02*
X164730000Y-112430000D01*
X164730000Y-112430000D02*
X177270000Y-112430000D01*
X177270000Y-100570000D02*
X164730000Y-100570000D01*
X177270000Y-102500000D02*
X177270000Y-100570000D01*
X177270000Y-110500000D02*
X177650000Y-110500000D01*
X177270000Y-112430000D02*
X177270000Y-110500000D01*
X177650000Y-102500000D02*
X177270000Y-102500000D01*
X177650000Y-110500000D02*
X177650000Y-102500000D01*
%TO.C,U2_1*%
X152120000Y-95432500D02*
X152120000Y-99692500D01*
X152120000Y-99692500D02*
X152500000Y-99692500D01*
X152500000Y-94812500D02*
X152500000Y-95432500D01*
X152500000Y-95432500D02*
X152120000Y-95432500D01*
X152500000Y-99692500D02*
X152500000Y-100312500D01*
X152500000Y-100312500D02*
X153120000Y-100312500D01*
X153120000Y-94432500D02*
X153120000Y-94812500D01*
X153120000Y-94812500D02*
X152500000Y-94812500D01*
X153120000Y-100312500D02*
X153120000Y-100692500D01*
X153120000Y-100692500D02*
X157380000Y-100692500D01*
X157380000Y-94432500D02*
X153120000Y-94432500D01*
X157380000Y-94812500D02*
X157380000Y-94432500D01*
X157380000Y-100312500D02*
X158000000Y-100312500D01*
X157380000Y-100692500D02*
X157380000Y-100312500D01*
X158000000Y-94812500D02*
X157380000Y-94812500D01*
X158000000Y-95432500D02*
X158000000Y-94812500D01*
X158000000Y-99692500D02*
X158380000Y-99692500D01*
X158000000Y-100312500D02*
X158000000Y-99692500D01*
X158380000Y-95432500D02*
X158000000Y-95432500D01*
X158380000Y-99692500D02*
X158380000Y-95432500D01*
%TO.C,U3_1*%
X133850000Y-103000000D02*
X133850000Y-111000000D01*
X133850000Y-111000000D02*
X134230000Y-111000000D01*
X134230000Y-101070000D02*
X134230000Y-103000000D01*
X134230000Y-103000000D02*
X133850000Y-103000000D01*
X134230000Y-111000000D02*
X134230000Y-112930000D01*
X134230000Y-112930000D02*
X146770000Y-112930000D01*
X146770000Y-101070000D02*
X134230000Y-101070000D01*
X146770000Y-103000000D02*
X146770000Y-101070000D01*
X146770000Y-111000000D02*
X147150000Y-111000000D01*
X146770000Y-112930000D02*
X146770000Y-111000000D01*
X147150000Y-103000000D02*
X146770000Y-103000000D01*
X147150000Y-111000000D02*
X147150000Y-103000000D01*
%TO.C,U1_1*%
X150620000Y-103432500D02*
X150620000Y-109692500D01*
X150620000Y-109692500D02*
X151000000Y-109692500D01*
X151000000Y-102812500D02*
X151000000Y-103432500D01*
X151000000Y-103432500D02*
X150620000Y-103432500D01*
X151000000Y-109692500D02*
X151000000Y-110312500D01*
X151000000Y-110312500D02*
X151620000Y-110312500D01*
X151620000Y-102432500D02*
X151620000Y-102812500D01*
X151620000Y-102812500D02*
X151000000Y-102812500D01*
X151620000Y-110312500D02*
X151620000Y-110692500D01*
X151620000Y-110692500D02*
X157880000Y-110692500D01*
X157880000Y-102432500D02*
X151620000Y-102432500D01*
X157880000Y-102812500D02*
X157880000Y-102432500D01*
X157880000Y-110312500D02*
X158500000Y-110312500D01*
X157880000Y-110692500D02*
X157880000Y-110312500D01*
X158500000Y-102812500D02*
X157880000Y-102812500D01*
X158500000Y-103432500D02*
X158500000Y-102812500D01*
X158500000Y-109692500D02*
X158880000Y-109692500D01*
X158500000Y-110312500D02*
X158500000Y-109692500D01*
X158880000Y-103432500D02*
X158500000Y-103432500D01*
X158880000Y-109692500D02*
X158880000Y-103432500D01*
%TD*%
M02*
