%TF.GenerationSoftware,KiCad,Pcbnew,9.0.2+dfsg-1*%
%TF.CreationDate,2026-07-26T22:33:20-04:00*%
%TF.ProjectId,CAN-PERIPH-GW-1,43414e2d-5045-4524-9950-482d47572d31,2*%
%TF.SameCoordinates,Original*%
%TF.FileFunction,Paste,Top*%
%TF.FilePolarity,Positive*%
%FSLAX46Y46*%
G04 Gerber Fmt 4.6, Leading zero omitted, Abs format (unit mm)*
G04 Created by KiCad (PCBNEW 9.0.2+dfsg-1) date 2026-07-26 22:33:20*
%MOMM*%
%LPD*%
G01*
G04 APERTURE LIST*
G04 Aperture macros list*
%AMRoundRect*
0 Rectangle with rounded corners*
0 $1 Rounding radius*
0 $2 $3 $4 $5 $6 $7 $8 $9 X,Y pos of 4 corners*
0 Add a 4 corners polygon primitive as box body*
4,1,4,$2,$3,$4,$5,$6,$7,$8,$9,$2,$3,0*
0 Add four circle primitives for the rounded corners*
1,1,$1+$1,$2,$3*
1,1,$1+$1,$4,$5*
1,1,$1+$1,$6,$7*
1,1,$1+$1,$8,$9*
0 Add four rect primitives between the rounded corners*
20,1,$1+$1,$2,$3,$4,$5,0*
20,1,$1+$1,$4,$5,$6,$7,0*
20,1,$1+$1,$6,$7,$8,$9,0*
20,1,$1+$1,$8,$9,$2,$3,0*%
G04 Aperture macros list end*
%ADD10RoundRect,0.150000X-0.150000X-0.700000X0.150000X-0.700000X0.150000X0.700000X-0.150000X0.700000X0*%
%ADD11RoundRect,0.250000X-0.250000X-1.150000X0.250000X-1.150000X0.250000X1.150000X-0.250000X1.150000X0*%
%ADD12RoundRect,0.140000X-0.140000X-0.170000X0.140000X-0.170000X0.140000X0.170000X-0.140000X0.170000X0*%
%ADD13RoundRect,0.135000X-0.135000X-0.185000X0.135000X-0.185000X0.135000X0.185000X-0.135000X0.185000X0*%
%ADD14RoundRect,0.140000X0.170000X-0.140000X0.170000X0.140000X-0.170000X0.140000X-0.170000X-0.140000X0*%
%ADD15RoundRect,0.150000X-0.512500X-0.150000X0.512500X-0.150000X0.512500X0.150000X-0.512500X0.150000X0*%
%ADD16R,0.650000X2.000000*%
%ADD17RoundRect,0.135000X0.185000X-0.135000X0.185000X0.135000X-0.185000X0.135000X-0.185000X-0.135000X0*%
%ADD18R,0.600000X2.200000*%
G04 APERTURE END LIST*
D10*
%TO.C,J_SWD_1*%
X172585000Y-115850000D03*
X173835000Y-115850000D03*
X175085000Y-115850000D03*
X176335000Y-115850000D03*
D11*
X170735000Y-112500000D03*
X178185000Y-112500000D03*
%TD*%
D10*
%TO.C,J_CAN_IN*%
X143710000Y-101950000D03*
X144960000Y-101950000D03*
X146210000Y-101950000D03*
D11*
X141860000Y-98600000D03*
X148060000Y-98600000D03*
%TD*%
D12*
%TO.C,C_RS2_1*%
X163460000Y-106000000D03*
X164420000Y-106000000D03*
%TD*%
D13*
%TO.C,R_NRST_1*%
X143470000Y-106000000D03*
X144490000Y-106000000D03*
%TD*%
D10*
%TO.C,J_RS485_IN*%
X164210000Y-102450000D03*
X165460000Y-102450000D03*
X166710000Y-102450000D03*
D11*
X162360000Y-99100000D03*
X168560000Y-99100000D03*
%TD*%
D12*
%TO.C,C_VCORE_1*%
X150000000Y-107000000D03*
X150960000Y-107000000D03*
%TD*%
D14*
%TO.C,C_TPM1_1*%
X167460000Y-106960000D03*
X167460000Y-106000000D03*
%TD*%
D15*
%TO.C,U_REG_3V3*%
X135185000Y-106050000D03*
X135185000Y-107000000D03*
X135185000Y-107950000D03*
X137460000Y-107950000D03*
X137460000Y-107000000D03*
X137460000Y-106050000D03*
%TD*%
D13*
%TO.C,R_FBT*%
X140440000Y-105500000D03*
X141460000Y-105500000D03*
%TD*%
D10*
%TO.C,J_RS485_OUT*%
X173960000Y-101950000D03*
X175210000Y-101950000D03*
X176460000Y-101950000D03*
D11*
X172110000Y-98600000D03*
X178310000Y-98600000D03*
%TD*%
D13*
%TO.C,R_485TERM*%
X172440000Y-105500000D03*
X173460000Y-105500000D03*
%TD*%
D14*
%TO.C,C_TPM2_1*%
X168960000Y-106960000D03*
X168960000Y-106000000D03*
%TD*%
D12*
%TO.C,C_IN*%
X136500000Y-110500000D03*
X137460000Y-110500000D03*
%TD*%
D16*
%TO.C,L1*%
X139610000Y-109500000D03*
X140960000Y-109500000D03*
%TD*%
D12*
%TO.C,C_ISO2_1*%
X159980000Y-105000000D03*
X160940000Y-105000000D03*
%TD*%
D17*
%TO.C,R_CANTERM*%
X153960000Y-107500000D03*
X153960000Y-106480000D03*
%TD*%
D18*
%TO.C,J_ENC_1*%
X137560000Y-114000000D03*
X142310000Y-114000000D03*
X139460000Y-114000000D03*
X140410000Y-114000000D03*
X141360000Y-114000000D03*
X138510000Y-114000000D03*
X143260000Y-114000000D03*
%TD*%
D12*
%TO.C,C_MCU1_1*%
X143000000Y-105000000D03*
X143960000Y-105000000D03*
%TD*%
D17*
%TO.C,R_TPM_RST_1*%
X170460000Y-107020000D03*
X170460000Y-106000000D03*
%TD*%
D12*
%TO.C,C_RS1_1*%
X149000000Y-110500000D03*
X149960000Y-110500000D03*
%TD*%
D10*
%TO.C,J_PWR*%
X134810000Y-101350000D03*
X136060000Y-101350000D03*
D11*
X132960000Y-98000000D03*
X137910000Y-98000000D03*
%TD*%
D10*
%TO.C,J_CAN_OUT*%
X153310000Y-101950000D03*
X154560000Y-101950000D03*
X155810000Y-101950000D03*
D11*
X151460000Y-98600000D03*
X157660000Y-98600000D03*
%TD*%
D12*
%TO.C,C_OUT*%
X133480000Y-110000000D03*
X134440000Y-110000000D03*
%TD*%
%TO.C,C_ISO1_1*%
X143480000Y-110000000D03*
X144440000Y-110000000D03*
%TD*%
D13*
%TO.C,R_FBB*%
X146980000Y-107500000D03*
X148000000Y-107500000D03*
%TD*%
M02*
