%TF.GenerationSoftware,KiCad,Pcbnew,9.0.2+dfsg-1*%
%TF.CreationDate,2026-07-26T23:47:20-04:00*%
%TF.ProjectId,CAN-PERIPH-GW-1,43414e2d-5045-4524-9950-482d47572d31,1*%
%TF.SameCoordinates,Original*%
%TF.FileFunction,Other,User*%
%FSLAX46Y46*%
G04 Gerber Fmt 4.6, Leading zero omitted, Abs format (unit mm)*
G04 Created by KiCad (PCBNEW 9.0.2+dfsg-1) date 2026-07-26 23:47:20*
%MOMM*%
%LPD*%
G01*
G04 APERTURE LIST*
%ADD10C,0.050000*%
G04 APERTURE END LIST*
D10*
%TO.C,U2_3*%
X252120000Y-95432500D02*
X252120000Y-99692500D01*
X252120000Y-99692500D02*
X252500000Y-99692500D01*
X252500000Y-94812500D02*
X252500000Y-95432500D01*
X252500000Y-95432500D02*
X252120000Y-95432500D01*
X252500000Y-99692500D02*
X252500000Y-100312500D01*
X252500000Y-100312500D02*
X253120000Y-100312500D01*
X253120000Y-94432500D02*
X253120000Y-94812500D01*
X253120000Y-94812500D02*
X252500000Y-94812500D01*
X253120000Y-100312500D02*
X253120000Y-100692500D01*
X253120000Y-100692500D02*
X257380000Y-100692500D01*
X257380000Y-94432500D02*
X253120000Y-94432500D01*
X257380000Y-94812500D02*
X257380000Y-94432500D01*
X257380000Y-100312500D02*
X258000000Y-100312500D01*
X257380000Y-100692500D02*
X257380000Y-100312500D01*
X258000000Y-94812500D02*
X257380000Y-94812500D01*
X258000000Y-95432500D02*
X258000000Y-94812500D01*
X258000000Y-99692500D02*
X258380000Y-99692500D01*
X258000000Y-100312500D02*
X258000000Y-99692500D01*
X258380000Y-95432500D02*
X258000000Y-95432500D01*
X258380000Y-99692500D02*
X258380000Y-95432500D01*
%TO.C,U1_4*%
X300620000Y-103432500D02*
X300620000Y-109692500D01*
X300620000Y-109692500D02*
X301000000Y-109692500D01*
X301000000Y-102812500D02*
X301000000Y-103432500D01*
X301000000Y-103432500D02*
X300620000Y-103432500D01*
X301000000Y-109692500D02*
X301000000Y-110312500D01*
X301000000Y-110312500D02*
X301620000Y-110312500D01*
X301620000Y-102432500D02*
X301620000Y-102812500D01*
X301620000Y-102812500D02*
X301000000Y-102812500D01*
X301620000Y-110312500D02*
X301620000Y-110692500D01*
X301620000Y-110692500D02*
X307880000Y-110692500D01*
X307880000Y-102432500D02*
X301620000Y-102432500D01*
X307880000Y-102812500D02*
X307880000Y-102432500D01*
X307880000Y-110312500D02*
X308500000Y-110312500D01*
X307880000Y-110692500D02*
X307880000Y-110312500D01*
X308500000Y-102812500D02*
X307880000Y-102812500D01*
X308500000Y-103432500D02*
X308500000Y-102812500D01*
X308500000Y-109692500D02*
X308880000Y-109692500D01*
X308500000Y-110312500D02*
X308500000Y-109692500D01*
X308880000Y-103432500D02*
X308500000Y-103432500D01*
X308880000Y-109692500D02*
X308880000Y-103432500D01*
%TO.C,U3_2*%
X183850000Y-103000000D02*
X183850000Y-111000000D01*
X183850000Y-111000000D02*
X184230000Y-111000000D01*
X184230000Y-101070000D02*
X184230000Y-103000000D01*
X184230000Y-103000000D02*
X183850000Y-103000000D01*
X184230000Y-111000000D02*
X184230000Y-112930000D01*
X184230000Y-112930000D02*
X196770000Y-112930000D01*
X196770000Y-101070000D02*
X184230000Y-101070000D01*
X196770000Y-103000000D02*
X196770000Y-101070000D01*
X196770000Y-111000000D02*
X197150000Y-111000000D01*
X196770000Y-112930000D02*
X196770000Y-111000000D01*
X197150000Y-103000000D02*
X196770000Y-103000000D01*
X197150000Y-111000000D02*
X197150000Y-103000000D01*
%TO.C,U2_1*%
X152120000Y-95432500D02*
X152120000Y-99692500D01*
X152120000Y-99692500D02*
X152500000Y-99692500D01*
X152500000Y-94812500D02*
X152500000Y-95432500D01*
X152500000Y-95432500D02*
X152120000Y-95432500D01*
X152500000Y-99692500D02*
X152500000Y-100312500D01*
X152500000Y-100312500D02*
X153120000Y-100312500D01*
X153120000Y-94432500D02*
X153120000Y-94812500D01*
X153120000Y-94812500D02*
X152500000Y-94812500D01*
X153120000Y-100312500D02*
X153120000Y-100692500D01*
X153120000Y-100692500D02*
X157380000Y-100692500D01*
X157380000Y-94432500D02*
X153120000Y-94432500D01*
X157380000Y-94812500D02*
X157380000Y-94432500D01*
X157380000Y-100312500D02*
X158000000Y-100312500D01*
X157380000Y-100692500D02*
X157380000Y-100312500D01*
X158000000Y-94812500D02*
X157380000Y-94812500D01*
X158000000Y-95432500D02*
X158000000Y-94812500D01*
X158000000Y-99692500D02*
X158380000Y-99692500D01*
X158000000Y-100312500D02*
X158000000Y-99692500D01*
X158380000Y-95432500D02*
X158000000Y-95432500D01*
X158380000Y-99692500D02*
X158380000Y-95432500D01*
%TO.C,U4_2*%
X214350000Y-102500000D02*
X214350000Y-110500000D01*
X214350000Y-110500000D02*
X214730000Y-110500000D01*
X214730000Y-100570000D02*
X214730000Y-102500000D01*
X214730000Y-102500000D02*
X214350000Y-102500000D01*
X214730000Y-110500000D02*
X214730000Y-112430000D01*
X214730000Y-112430000D02*
X227270000Y-112430000D01*
X227270000Y-100570000D02*
X214730000Y-100570000D01*
X227270000Y-102500000D02*
X227270000Y-100570000D01*
X227270000Y-110500000D02*
X227650000Y-110500000D01*
X227270000Y-112430000D02*
X227270000Y-110500000D01*
X227650000Y-102500000D02*
X227270000Y-102500000D01*
X227650000Y-110500000D02*
X227650000Y-102500000D01*
%TO.C,U4_3*%
X264350000Y-102500000D02*
X264350000Y-110500000D01*
X264350000Y-110500000D02*
X264730000Y-110500000D01*
X264730000Y-100570000D02*
X264730000Y-102500000D01*
X264730000Y-102500000D02*
X264350000Y-102500000D01*
X264730000Y-110500000D02*
X264730000Y-112430000D01*
X264730000Y-112430000D02*
X277270000Y-112430000D01*
X277270000Y-100570000D02*
X264730000Y-100570000D01*
X277270000Y-102500000D02*
X277270000Y-100570000D01*
X277270000Y-110500000D02*
X277650000Y-110500000D01*
X277270000Y-112430000D02*
X277270000Y-110500000D01*
X277650000Y-102500000D02*
X277270000Y-102500000D01*
X277650000Y-110500000D02*
X277650000Y-102500000D01*
%TO.C,U3_3*%
X233850000Y-103000000D02*
X233850000Y-111000000D01*
X233850000Y-111000000D02*
X234230000Y-111000000D01*
X234230000Y-101070000D02*
X234230000Y-103000000D01*
X234230000Y-103000000D02*
X233850000Y-103000000D01*
X234230000Y-111000000D02*
X234230000Y-112930000D01*
X234230000Y-112930000D02*
X246770000Y-112930000D01*
X246770000Y-101070000D02*
X234230000Y-101070000D01*
X246770000Y-103000000D02*
X246770000Y-101070000D01*
X246770000Y-111000000D02*
X247150000Y-111000000D01*
X246770000Y-112930000D02*
X246770000Y-111000000D01*
X247150000Y-103000000D02*
X246770000Y-103000000D01*
X247150000Y-111000000D02*
X247150000Y-103000000D01*
%TO.C,U3_4*%
X283850000Y-103000000D02*
X283850000Y-111000000D01*
X283850000Y-111000000D02*
X284230000Y-111000000D01*
X284230000Y-101070000D02*
X284230000Y-103000000D01*
X284230000Y-103000000D02*
X283850000Y-103000000D01*
X284230000Y-111000000D02*
X284230000Y-112930000D01*
X284230000Y-112930000D02*
X296770000Y-112930000D01*
X296770000Y-101070000D02*
X284230000Y-101070000D01*
X296770000Y-103000000D02*
X296770000Y-101070000D01*
X296770000Y-111000000D02*
X297150000Y-111000000D01*
X296770000Y-112930000D02*
X296770000Y-111000000D01*
X297150000Y-103000000D02*
X296770000Y-103000000D01*
X297150000Y-111000000D02*
X297150000Y-103000000D01*
%TO.C,U2_4*%
X302120000Y-95432500D02*
X302120000Y-99692500D01*
X302120000Y-99692500D02*
X302500000Y-99692500D01*
X302500000Y-94812500D02*
X302500000Y-95432500D01*
X302500000Y-95432500D02*
X302120000Y-95432500D01*
X302500000Y-99692500D02*
X302500000Y-100312500D01*
X302500000Y-100312500D02*
X303120000Y-100312500D01*
X303120000Y-94432500D02*
X303120000Y-94812500D01*
X303120000Y-94812500D02*
X302500000Y-94812500D01*
X303120000Y-100312500D02*
X303120000Y-100692500D01*
X303120000Y-100692500D02*
X307380000Y-100692500D01*
X307380000Y-94432500D02*
X303120000Y-94432500D01*
X307380000Y-94812500D02*
X307380000Y-94432500D01*
X307380000Y-100312500D02*
X308000000Y-100312500D01*
X307380000Y-100692500D02*
X307380000Y-100312500D01*
X308000000Y-94812500D02*
X307380000Y-94812500D01*
X308000000Y-95432500D02*
X308000000Y-94812500D01*
X308000000Y-99692500D02*
X308380000Y-99692500D01*
X308000000Y-100312500D02*
X308000000Y-99692500D01*
X308380000Y-95432500D02*
X308000000Y-95432500D01*
X308380000Y-99692500D02*
X308380000Y-95432500D01*
%TO.C,U3_1*%
X133850000Y-103000000D02*
X133850000Y-111000000D01*
X133850000Y-111000000D02*
X134230000Y-111000000D01*
X134230000Y-101070000D02*
X134230000Y-103000000D01*
X134230000Y-103000000D02*
X133850000Y-103000000D01*
X134230000Y-111000000D02*
X134230000Y-112930000D01*
X134230000Y-112930000D02*
X146770000Y-112930000D01*
X146770000Y-101070000D02*
X134230000Y-101070000D01*
X146770000Y-103000000D02*
X146770000Y-101070000D01*
X146770000Y-111000000D02*
X147150000Y-111000000D01*
X146770000Y-112930000D02*
X146770000Y-111000000D01*
X147150000Y-103000000D02*
X146770000Y-103000000D01*
X147150000Y-111000000D02*
X147150000Y-103000000D01*
%TO.C,U1_1*%
X150620000Y-103432500D02*
X150620000Y-109692500D01*
X150620000Y-109692500D02*
X151000000Y-109692500D01*
X151000000Y-102812500D02*
X151000000Y-103432500D01*
X151000000Y-103432500D02*
X150620000Y-103432500D01*
X151000000Y-109692500D02*
X151000000Y-110312500D01*
X151000000Y-110312500D02*
X151620000Y-110312500D01*
X151620000Y-102432500D02*
X151620000Y-102812500D01*
X151620000Y-102812500D02*
X151000000Y-102812500D01*
X151620000Y-110312500D02*
X151620000Y-110692500D01*
X151620000Y-110692500D02*
X157880000Y-110692500D01*
X157880000Y-102432500D02*
X151620000Y-102432500D01*
X157880000Y-102812500D02*
X157880000Y-102432500D01*
X157880000Y-110312500D02*
X158500000Y-110312500D01*
X157880000Y-110692500D02*
X157880000Y-110312500D01*
X158500000Y-102812500D02*
X157880000Y-102812500D01*
X158500000Y-103432500D02*
X158500000Y-102812500D01*
X158500000Y-109692500D02*
X158880000Y-109692500D01*
X158500000Y-110312500D02*
X158500000Y-109692500D01*
X158880000Y-103432500D02*
X158500000Y-103432500D01*
X158880000Y-109692500D02*
X158880000Y-103432500D01*
%TO.C,U4_4*%
X314350000Y-102500000D02*
X314350000Y-110500000D01*
X314350000Y-110500000D02*
X314730000Y-110500000D01*
X314730000Y-100570000D02*
X314730000Y-102500000D01*
X314730000Y-102500000D02*
X314350000Y-102500000D01*
X314730000Y-110500000D02*
X314730000Y-112430000D01*
X314730000Y-112430000D02*
X327270000Y-112430000D01*
X327270000Y-100570000D02*
X314730000Y-100570000D01*
X327270000Y-102500000D02*
X327270000Y-100570000D01*
X327270000Y-110500000D02*
X327650000Y-110500000D01*
X327270000Y-112430000D02*
X327270000Y-110500000D01*
X327650000Y-102500000D02*
X327270000Y-102500000D01*
X327650000Y-110500000D02*
X327650000Y-102500000D01*
%TO.C,U2_2*%
X202120000Y-95432500D02*
X202120000Y-99692500D01*
X202120000Y-99692500D02*
X202500000Y-99692500D01*
X202500000Y-94812500D02*
X202500000Y-95432500D01*
X202500000Y-95432500D02*
X202120000Y-95432500D01*
X202500000Y-99692500D02*
X202500000Y-100312500D01*
X202500000Y-100312500D02*
X203120000Y-100312500D01*
X203120000Y-94432500D02*
X203120000Y-94812500D01*
X203120000Y-94812500D02*
X202500000Y-94812500D01*
X203120000Y-100312500D02*
X203120000Y-100692500D01*
X203120000Y-100692500D02*
X207380000Y-100692500D01*
X207380000Y-94432500D02*
X203120000Y-94432500D01*
X207380000Y-94812500D02*
X207380000Y-94432500D01*
X207380000Y-100312500D02*
X208000000Y-100312500D01*
X207380000Y-100692500D02*
X207380000Y-100312500D01*
X208000000Y-94812500D02*
X207380000Y-94812500D01*
X208000000Y-95432500D02*
X208000000Y-94812500D01*
X208000000Y-99692500D02*
X208380000Y-99692500D01*
X208000000Y-100312500D02*
X208000000Y-99692500D01*
X208380000Y-95432500D02*
X208000000Y-95432500D01*
X208380000Y-99692500D02*
X208380000Y-95432500D01*
%TO.C,U1_3*%
X250620000Y-103432500D02*
X250620000Y-109692500D01*
X250620000Y-109692500D02*
X251000000Y-109692500D01*
X251000000Y-102812500D02*
X251000000Y-103432500D01*
X251000000Y-103432500D02*
X250620000Y-103432500D01*
X251000000Y-109692500D02*
X251000000Y-110312500D01*
X251000000Y-110312500D02*
X251620000Y-110312500D01*
X251620000Y-102432500D02*
X251620000Y-102812500D01*
X251620000Y-102812500D02*
X251000000Y-102812500D01*
X251620000Y-110312500D02*
X251620000Y-110692500D01*
X251620000Y-110692500D02*
X257880000Y-110692500D01*
X257880000Y-102432500D02*
X251620000Y-102432500D01*
X257880000Y-102812500D02*
X257880000Y-102432500D01*
X257880000Y-110312500D02*
X258500000Y-110312500D01*
X257880000Y-110692500D02*
X257880000Y-110312500D01*
X258500000Y-102812500D02*
X257880000Y-102812500D01*
X258500000Y-103432500D02*
X258500000Y-102812500D01*
X258500000Y-109692500D02*
X258880000Y-109692500D01*
X258500000Y-110312500D02*
X258500000Y-109692500D01*
X258880000Y-103432500D02*
X258500000Y-103432500D01*
X258880000Y-109692500D02*
X258880000Y-103432500D01*
%TO.C,U1_2*%
X200620000Y-103432500D02*
X200620000Y-109692500D01*
X200620000Y-109692500D02*
X201000000Y-109692500D01*
X201000000Y-102812500D02*
X201000000Y-103432500D01*
X201000000Y-103432500D02*
X200620000Y-103432500D01*
X201000000Y-109692500D02*
X201000000Y-110312500D01*
X201000000Y-110312500D02*
X201620000Y-110312500D01*
X201620000Y-102432500D02*
X201620000Y-102812500D01*
X201620000Y-102812500D02*
X201000000Y-102812500D01*
X201620000Y-110312500D02*
X201620000Y-110692500D01*
X201620000Y-110692500D02*
X207880000Y-110692500D01*
X207880000Y-102432500D02*
X201620000Y-102432500D01*
X207880000Y-102812500D02*
X207880000Y-102432500D01*
X207880000Y-110312500D02*
X208500000Y-110312500D01*
X207880000Y-110692500D02*
X207880000Y-110312500D01*
X208500000Y-102812500D02*
X207880000Y-102812500D01*
X208500000Y-103432500D02*
X208500000Y-102812500D01*
X208500000Y-109692500D02*
X208880000Y-109692500D01*
X208500000Y-110312500D02*
X208500000Y-109692500D01*
X208880000Y-103432500D02*
X208500000Y-103432500D01*
X208880000Y-109692500D02*
X208880000Y-103432500D01*
%TO.C,U4_1*%
X164350000Y-102500000D02*
X164350000Y-110500000D01*
X164350000Y-110500000D02*
X164730000Y-110500000D01*
X164730000Y-100570000D02*
X164730000Y-102500000D01*
X164730000Y-102500000D02*
X164350000Y-102500000D01*
X164730000Y-110500000D02*
X164730000Y-112430000D01*
X164730000Y-112430000D02*
X177270000Y-112430000D01*
X177270000Y-100570000D02*
X164730000Y-100570000D01*
X177270000Y-102500000D02*
X177270000Y-100570000D01*
X177270000Y-110500000D02*
X177650000Y-110500000D01*
X177270000Y-112430000D02*
X177270000Y-110500000D01*
X177650000Y-102500000D02*
X177270000Y-102500000D01*
X177650000Y-110500000D02*
X177650000Y-102500000D01*
%TD*%
M02*
