%TF.GenerationSoftware,KiCad,Pcbnew,9.0.2+dfsg-1*%
%TF.CreationDate,2026-07-26T23:47:20-04:00*%
%TF.ProjectId,CAN-PERIPH-GW-1,43414e2d-5045-4524-9950-482d47572d31,1*%
%TF.SameCoordinates,Original*%
%TF.FileFunction,Soldermask,Top*%
%TF.FilePolarity,Negative*%
%FSLAX46Y46*%
G04 Gerber Fmt 4.6, Leading zero omitted, Abs format (unit mm)*
G04 Created by KiCad (PCBNEW 9.0.2+dfsg-1) date 2026-07-26 23:47:20*
%MOMM*%
%LPD*%
G01*
G04 APERTURE LIST*
G04 Aperture macros list*
%AMRoundRect*
0 Rectangle with rounded corners*
0 $1 Rounding radius*
0 $2 $3 $4 $5 $6 $7 $8 $9 X,Y pos of 4 corners*
0 Add a 4 corners polygon primitive as box body*
4,1,4,$2,$3,$4,$5,$6,$7,$8,$9,$2,$3,0*
0 Add four circle primitives for the rounded corners*
1,1,$1+$1,$2,$3*
1,1,$1+$1,$4,$5*
1,1,$1+$1,$6,$7*
1,1,$1+$1,$8,$9*
0 Add four rect primitives between the rounded corners*
20,1,$1+$1,$2,$3,$4,$5,0*
20,1,$1+$1,$4,$5,$6,$7,0*
20,1,$1+$1,$6,$7,$8,$9,0*
20,1,$1+$1,$8,$9,$2,$3,0*%
G04 Aperture macros list end*
%ADD10R,1.000000X1.500000*%
%ADD11RoundRect,0.150000X-0.150000X-0.700000X0.150000X-0.700000X0.150000X0.700000X-0.150000X0.700000X0*%
%ADD12RoundRect,0.250000X-0.250000X-1.150000X0.250000X-1.150000X0.250000X1.150000X-0.250000X1.150000X0*%
%ADD13RoundRect,0.135000X-0.135000X-0.185000X0.135000X-0.185000X0.135000X0.185000X-0.135000X0.185000X0*%
%ADD14RoundRect,0.140000X-0.140000X-0.170000X0.140000X-0.170000X0.140000X0.170000X-0.140000X0.170000X0*%
%ADD15R,0.600000X2.200000*%
%ADD16RoundRect,0.140000X0.170000X-0.140000X0.170000X0.140000X-0.170000X0.140000X-0.170000X-0.140000X0*%
%ADD17RoundRect,0.135000X0.185000X-0.135000X0.185000X0.135000X-0.185000X0.135000X-0.185000X-0.135000X0*%
%ADD18R,1.700000X1.700000*%
%ADD19C,1.700000*%
%ADD20R,0.650000X2.000000*%
%ADD21RoundRect,0.150000X-0.512500X-0.150000X0.512500X-0.150000X0.512500X0.150000X-0.512500X0.150000X0*%
G04 APERTURE END LIST*
%TO.C,SJ2*%
G36*
X176310000Y-105250000D02*
G01*
X176610000Y-105250000D01*
X176610000Y-106750000D01*
X176310000Y-106750000D01*
X176310000Y-105250000D01*
G37*
%TO.C,SJ1*%
G36*
X156960000Y-106250000D02*
G01*
X157260000Y-106250000D01*
X157260000Y-107750000D01*
X156960000Y-107750000D01*
X156960000Y-106250000D01*
G37*
%TD*%
D10*
%TO.C,SJ2*%
X175810000Y-106000000D03*
X177110000Y-106000000D03*
%TD*%
D11*
%TO.C,J_RS485_OUT*%
X173960000Y-101950000D03*
X175210000Y-101950000D03*
X176460000Y-101950000D03*
D12*
X172110000Y-98600000D03*
X178310000Y-98600000D03*
%TD*%
D13*
%TO.C,R_FBT*%
X140440000Y-105500000D03*
X141460000Y-105500000D03*
%TD*%
%TO.C,R_FBB*%
X146980000Y-107500000D03*
X148000000Y-107500000D03*
%TD*%
D14*
%TO.C,C_OUT*%
X133480000Y-110000000D03*
X134440000Y-110000000D03*
%TD*%
D13*
%TO.C,R_NRST_1*%
X143470000Y-106000000D03*
X144490000Y-106000000D03*
%TD*%
D14*
%TO.C,C_ISO2_2*%
X209980000Y-105000000D03*
X210940000Y-105000000D03*
%TD*%
%TO.C,C_RS2_3*%
X263460000Y-106000000D03*
X264420000Y-106000000D03*
%TD*%
D11*
%TO.C,J_PWR*%
X134810000Y-101350000D03*
X136060000Y-101350000D03*
D12*
X132960000Y-98000000D03*
X137910000Y-98000000D03*
%TD*%
D15*
%TO.C,J_ENC_4*%
X287560000Y-114000000D03*
X292310000Y-114000000D03*
X289460000Y-114000000D03*
X290410000Y-114000000D03*
X291360000Y-114000000D03*
X288510000Y-114000000D03*
X293260000Y-114000000D03*
%TD*%
D11*
%TO.C,J_SWD_2*%
X222585000Y-115850000D03*
X223835000Y-115850000D03*
X225085000Y-115850000D03*
X226335000Y-115850000D03*
D12*
X220735000Y-112500000D03*
X228185000Y-112500000D03*
%TD*%
D11*
%TO.C,J_SWD_4*%
X322585000Y-115850000D03*
X323835000Y-115850000D03*
X325085000Y-115850000D03*
X326335000Y-115850000D03*
D12*
X320735000Y-112500000D03*
X328185000Y-112500000D03*
%TD*%
D16*
%TO.C,C_TPM2_4*%
X318960000Y-106960000D03*
X318960000Y-106000000D03*
%TD*%
D17*
%TO.C,R_CANTERM*%
X153960000Y-107500000D03*
X153960000Y-106480000D03*
%TD*%
D14*
%TO.C,C_ISO1_3*%
X243480000Y-110000000D03*
X244440000Y-110000000D03*
%TD*%
D11*
%TO.C,J_CAN_OUT*%
X153310000Y-101950000D03*
X154560000Y-101950000D03*
X155810000Y-101950000D03*
D12*
X151460000Y-98600000D03*
X157660000Y-98600000D03*
%TD*%
D11*
%TO.C,J_CAN_IN*%
X143710000Y-101950000D03*
X144960000Y-101950000D03*
X146210000Y-101950000D03*
D12*
X141860000Y-98600000D03*
X148060000Y-98600000D03*
%TD*%
D14*
%TO.C,C_IN*%
X136500000Y-110500000D03*
X137460000Y-110500000D03*
%TD*%
D18*
%TO.C,J_FLEX_2*%
X216540000Y-114000000D03*
D19*
X214000000Y-114000000D03*
X211460000Y-114000000D03*
X208920000Y-114000000D03*
X206380000Y-114000000D03*
X203840000Y-114000000D03*
X201300000Y-114000000D03*
X198760000Y-114000000D03*
%TD*%
D18*
%TO.C,J_FLEX_3*%
X266540000Y-114000000D03*
D19*
X264000000Y-114000000D03*
X261460000Y-114000000D03*
X258920000Y-114000000D03*
X256380000Y-114000000D03*
X253840000Y-114000000D03*
X251300000Y-114000000D03*
X248760000Y-114000000D03*
%TD*%
D14*
%TO.C,C_RS2_1*%
X163460000Y-106000000D03*
X164420000Y-106000000D03*
%TD*%
D18*
%TO.C,J_FLEX_4*%
X316540000Y-114000000D03*
D19*
X314000000Y-114000000D03*
X311460000Y-114000000D03*
X308920000Y-114000000D03*
X306380000Y-114000000D03*
X303840000Y-114000000D03*
X301300000Y-114000000D03*
X298760000Y-114000000D03*
%TD*%
D17*
%TO.C,R_TPM_RST_4*%
X320460000Y-107020000D03*
X320460000Y-106000000D03*
%TD*%
D15*
%TO.C,J_ENC_2*%
X187560000Y-114000000D03*
X192310000Y-114000000D03*
X189460000Y-114000000D03*
X190410000Y-114000000D03*
X191360000Y-114000000D03*
X188510000Y-114000000D03*
X193260000Y-114000000D03*
%TD*%
D11*
%TO.C,J_SWD_1*%
X172585000Y-115850000D03*
X173835000Y-115850000D03*
X175085000Y-115850000D03*
X176335000Y-115850000D03*
D12*
X170735000Y-112500000D03*
X178185000Y-112500000D03*
%TD*%
D16*
%TO.C,C_TPM1_3*%
X267460000Y-106960000D03*
X267460000Y-106000000D03*
%TD*%
D17*
%TO.C,R_TPM_RST_3*%
X270460000Y-107020000D03*
X270460000Y-106000000D03*
%TD*%
D13*
%TO.C,R_NRST_4*%
X293470000Y-106000000D03*
X294490000Y-106000000D03*
%TD*%
D16*
%TO.C,C_TPM1_4*%
X317460000Y-106960000D03*
X317460000Y-106000000D03*
%TD*%
D14*
%TO.C,C_ISO2_4*%
X309980000Y-105000000D03*
X310940000Y-105000000D03*
%TD*%
%TO.C,C_ISO1_1*%
X143480000Y-110000000D03*
X144440000Y-110000000D03*
%TD*%
%TO.C,C_RS2_2*%
X213460000Y-106000000D03*
X214420000Y-106000000D03*
%TD*%
%TO.C,C_ISO2_3*%
X259980000Y-105000000D03*
X260940000Y-105000000D03*
%TD*%
D17*
%TO.C,R_TPM_RST_1*%
X170460000Y-107020000D03*
X170460000Y-106000000D03*
%TD*%
D16*
%TO.C,C_TPM2_2*%
X218960000Y-106960000D03*
X218960000Y-106000000D03*
%TD*%
D15*
%TO.C,J_ENC_3*%
X237560000Y-114000000D03*
X242310000Y-114000000D03*
X239460000Y-114000000D03*
X240410000Y-114000000D03*
X241360000Y-114000000D03*
X238510000Y-114000000D03*
X243260000Y-114000000D03*
%TD*%
D13*
%TO.C,R_NRST_3*%
X243470000Y-106000000D03*
X244490000Y-106000000D03*
%TD*%
D14*
%TO.C,C_VCORE_4*%
X300000000Y-107000000D03*
X300960000Y-107000000D03*
%TD*%
D17*
%TO.C,R_TPM_RST_2*%
X220460000Y-107020000D03*
X220460000Y-106000000D03*
%TD*%
D13*
%TO.C,R_NRST_2*%
X193470000Y-106000000D03*
X194490000Y-106000000D03*
%TD*%
D14*
%TO.C,C_RS2_4*%
X313460000Y-106000000D03*
X314420000Y-106000000D03*
%TD*%
%TO.C,C_RS1_1*%
X149000000Y-110500000D03*
X149960000Y-110500000D03*
%TD*%
%TO.C,C_MCU1_3*%
X243000000Y-105000000D03*
X243960000Y-105000000D03*
%TD*%
%TO.C,C_ISO1_4*%
X293480000Y-110000000D03*
X294440000Y-110000000D03*
%TD*%
%TO.C,C_RS1_3*%
X249000000Y-110500000D03*
X249960000Y-110500000D03*
%TD*%
%TO.C,C_VCORE_3*%
X250000000Y-107000000D03*
X250960000Y-107000000D03*
%TD*%
D20*
%TO.C,L1*%
X139610000Y-109500000D03*
X140960000Y-109500000D03*
%TD*%
D15*
%TO.C,J_ENC_1*%
X137560000Y-114000000D03*
X142310000Y-114000000D03*
X139460000Y-114000000D03*
X140410000Y-114000000D03*
X141360000Y-114000000D03*
X138510000Y-114000000D03*
X143260000Y-114000000D03*
%TD*%
D16*
%TO.C,C_TPM1_2*%
X217460000Y-106960000D03*
X217460000Y-106000000D03*
%TD*%
D14*
%TO.C,C_VCORE_2*%
X200000000Y-107000000D03*
X200960000Y-107000000D03*
%TD*%
D16*
%TO.C,C_TPM2_1*%
X168960000Y-106960000D03*
X168960000Y-106000000D03*
%TD*%
D14*
%TO.C,C_RS1_4*%
X299000000Y-110500000D03*
X299960000Y-110500000D03*
%TD*%
D10*
%TO.C,SJ1*%
X156460000Y-107000000D03*
X157760000Y-107000000D03*
%TD*%
D14*
%TO.C,C_MCU1_1*%
X143000000Y-105000000D03*
X143960000Y-105000000D03*
%TD*%
D21*
%TO.C,U_REG_3V3*%
X135185000Y-106050000D03*
X135185000Y-107000000D03*
X135185000Y-107950000D03*
X137460000Y-107950000D03*
X137460000Y-107000000D03*
X137460000Y-106050000D03*
%TD*%
D14*
%TO.C,C_ISO2_1*%
X159980000Y-105000000D03*
X160940000Y-105000000D03*
%TD*%
D18*
%TO.C,J_FLEX_1*%
X166540000Y-114000000D03*
D19*
X164000000Y-114000000D03*
X161460000Y-114000000D03*
X158920000Y-114000000D03*
X156380000Y-114000000D03*
X153840000Y-114000000D03*
X151300000Y-114000000D03*
X148760000Y-114000000D03*
%TD*%
D14*
%TO.C,C_MCU1_2*%
X193000000Y-105000000D03*
X193960000Y-105000000D03*
%TD*%
%TO.C,C_MCU1_4*%
X293000000Y-105000000D03*
X293960000Y-105000000D03*
%TD*%
D13*
%TO.C,R_485TERM*%
X172440000Y-105500000D03*
X173460000Y-105500000D03*
%TD*%
D16*
%TO.C,C_TPM1_1*%
X167460000Y-106960000D03*
X167460000Y-106000000D03*
%TD*%
D11*
%TO.C,J_RS485_IN*%
X164210000Y-102450000D03*
X165460000Y-102450000D03*
X166710000Y-102450000D03*
D12*
X162360000Y-99100000D03*
X168560000Y-99100000D03*
%TD*%
D11*
%TO.C,J_SWD_3*%
X272585000Y-115850000D03*
X273835000Y-115850000D03*
X275085000Y-115850000D03*
X276335000Y-115850000D03*
D12*
X270735000Y-112500000D03*
X278185000Y-112500000D03*
%TD*%
D16*
%TO.C,C_TPM2_3*%
X268960000Y-106960000D03*
X268960000Y-106000000D03*
%TD*%
D14*
%TO.C,C_VCORE_1*%
X150000000Y-107000000D03*
X150960000Y-107000000D03*
%TD*%
%TO.C,C_ISO1_2*%
X193480000Y-110000000D03*
X194440000Y-110000000D03*
%TD*%
%TO.C,C_RS1_2*%
X199000000Y-110500000D03*
X199960000Y-110500000D03*
%TD*%
M02*
