%TF.GenerationSoftware,KiCad,Pcbnew,9.0.2+dfsg-1*%
%TF.CreationDate,2026-07-26T22:33:20-04:00*%
%TF.ProjectId,CAN-PERIPH-GW-1,43414e2d-5045-4524-9950-482d47572d31,2*%
%TF.SameCoordinates,Original*%
%TF.FileFunction,Other,User*%
%FSLAX46Y46*%
G04 Gerber Fmt 4.6, Leading zero omitted, Abs format (unit mm)*
G04 Created by KiCad (PCBNEW 9.0.2+dfsg-1) date 2026-07-26 22:33:20*
%MOMM*%
%LPD*%
G01*
G04 APERTURE LIST*
%ADD10C,0.050000*%
G04 APERTURE END LIST*
D10*
%TO.C,J_SWD_1*%
X169730000Y-110600000D02*
X169730000Y-117200000D01*
X169730000Y-117200000D02*
X179190000Y-117200000D01*
X179190000Y-110600000D02*
X169730000Y-110600000D01*
X179190000Y-117200000D02*
X179190000Y-110600000D01*
%TO.C,J_FLEX_1*%
X146990000Y-112230000D02*
X146990000Y-115770000D01*
X146990000Y-115770000D02*
X168310000Y-115770000D01*
X168310000Y-112230000D02*
X146990000Y-112230000D01*
X168310000Y-115770000D02*
X168310000Y-112230000D01*
%TO.C,J_CAN_IN*%
X140860000Y-96700000D02*
X140860000Y-103300000D01*
X140860000Y-103300000D02*
X149060000Y-103300000D01*
X149060000Y-96700000D02*
X140860000Y-96700000D01*
X149060000Y-103300000D02*
X149060000Y-96700000D01*
%TO.C,C_RS2_1*%
X163030000Y-105540000D02*
X164850000Y-105540000D01*
X163030000Y-106460000D02*
X163030000Y-105540000D01*
X164850000Y-105540000D02*
X164850000Y-106460000D01*
X164850000Y-106460000D02*
X163030000Y-106460000D01*
%TO.C,R_NRST_1*%
X143050000Y-105530000D02*
X144910000Y-105530000D01*
X143050000Y-106470000D02*
X143050000Y-105530000D01*
X144910000Y-105530000D02*
X144910000Y-106470000D01*
X144910000Y-106470000D02*
X143050000Y-106470000D01*
%TO.C,SJ2*%
X174810000Y-104750000D02*
X174810000Y-107250000D01*
X174810000Y-104750000D02*
X178110000Y-104750000D01*
X178110000Y-107250000D02*
X174810000Y-107250000D01*
X178110000Y-107250000D02*
X178110000Y-104750000D01*
%TO.C,J_RS485_IN*%
X161360000Y-97200000D02*
X161360000Y-103800000D01*
X161360000Y-103800000D02*
X169560000Y-103800000D01*
X169560000Y-97200000D02*
X161360000Y-97200000D01*
X169560000Y-103800000D02*
X169560000Y-97200000D01*
%TO.C,C_VCORE_1*%
X149570000Y-106540000D02*
X151390000Y-106540000D01*
X149570000Y-107460000D02*
X149570000Y-106540000D01*
X151390000Y-106540000D02*
X151390000Y-107460000D01*
X151390000Y-107460000D02*
X149570000Y-107460000D01*
%TO.C,C_TPM1_1*%
X167000000Y-105570000D02*
X167920000Y-105570000D01*
X167000000Y-107390000D02*
X167000000Y-105570000D01*
X167920000Y-105570000D02*
X167920000Y-107390000D01*
X167920000Y-107390000D02*
X167000000Y-107390000D01*
%TO.C,U_REG_3V3*%
X134272500Y-105500000D02*
X135272500Y-105500000D01*
X134272500Y-108500000D02*
X134272500Y-105500000D01*
X135272500Y-105300000D02*
X137372500Y-105300000D01*
X135272500Y-105500000D02*
X135272500Y-105300000D01*
X135272500Y-108500000D02*
X134272500Y-108500000D01*
X135272500Y-108700000D02*
X135272500Y-108500000D01*
X137372500Y-105300000D02*
X137372500Y-105500000D01*
X137372500Y-105500000D02*
X138372500Y-105500000D01*
X137372500Y-108500000D02*
X137372500Y-108700000D01*
X137372500Y-108700000D02*
X135272500Y-108700000D01*
X138372500Y-105500000D02*
X138372500Y-108500000D01*
X138372500Y-108500000D02*
X137372500Y-108500000D01*
%TO.C,R_FBT*%
X140020000Y-105030000D02*
X141880000Y-105030000D01*
X140020000Y-105970000D02*
X140020000Y-105030000D01*
X141880000Y-105030000D02*
X141880000Y-105970000D01*
X141880000Y-105970000D02*
X140020000Y-105970000D01*
%TO.C,J_RS485_OUT*%
X171110000Y-96700000D02*
X171110000Y-103300000D01*
X171110000Y-103300000D02*
X179310000Y-103300000D01*
X179310000Y-96700000D02*
X171110000Y-96700000D01*
X179310000Y-103300000D02*
X179310000Y-96700000D01*
%TO.C,R_485TERM*%
X172020000Y-105030000D02*
X173880000Y-105030000D01*
X172020000Y-105970000D02*
X172020000Y-105030000D01*
X173880000Y-105030000D02*
X173880000Y-105970000D01*
X173880000Y-105970000D02*
X172020000Y-105970000D01*
%TO.C,C_TPM2_1*%
X168500000Y-105570000D02*
X169420000Y-105570000D01*
X168500000Y-107390000D02*
X168500000Y-105570000D01*
X169420000Y-105570000D02*
X169420000Y-107390000D01*
X169420000Y-107390000D02*
X168500000Y-107390000D01*
%TO.C,C_IN*%
X136070000Y-110040000D02*
X137890000Y-110040000D01*
X136070000Y-110960000D02*
X136070000Y-110040000D01*
X137890000Y-110040000D02*
X137890000Y-110960000D01*
X137890000Y-110960000D02*
X136070000Y-110960000D01*
%TO.C,L1*%
X138985000Y-108200000D02*
X138985000Y-110800000D01*
X138985000Y-110800000D02*
X141585000Y-110800000D01*
X141585000Y-108200000D02*
X138985000Y-108200000D01*
X141585000Y-110800000D02*
X141585000Y-108200000D01*
%TO.C,C_ISO2_1*%
X159550000Y-104540000D02*
X161370000Y-104540000D01*
X159550000Y-105460000D02*
X159550000Y-104540000D01*
X161370000Y-104540000D02*
X161370000Y-105460000D01*
X161370000Y-105460000D02*
X159550000Y-105460000D01*
%TO.C,R_CANTERM*%
X153490000Y-106060000D02*
X154430000Y-106060000D01*
X153490000Y-107920000D02*
X153490000Y-106060000D01*
X154430000Y-106060000D02*
X154430000Y-107920000D01*
X154430000Y-107920000D02*
X153490000Y-107920000D01*
%TO.C,J_ENC_1*%
X137010000Y-112550000D02*
X143810000Y-112550000D01*
X143810000Y-115450000D01*
X137010000Y-115450000D01*
X137010000Y-112550000D01*
%TO.C,C_MCU1_1*%
X142570000Y-104540000D02*
X144390000Y-104540000D01*
X142570000Y-105460000D02*
X142570000Y-104540000D01*
X144390000Y-104540000D02*
X144390000Y-105460000D01*
X144390000Y-105460000D02*
X142570000Y-105460000D01*
%TO.C,R_TPM_RST_1*%
X169990000Y-105580000D02*
X170930000Y-105580000D01*
X169990000Y-107440000D02*
X169990000Y-105580000D01*
X170930000Y-105580000D02*
X170930000Y-107440000D01*
X170930000Y-107440000D02*
X169990000Y-107440000D01*
%TO.C,C_RS1_1*%
X148570000Y-110040000D02*
X150390000Y-110040000D01*
X148570000Y-110960000D02*
X148570000Y-110040000D01*
X150390000Y-110040000D02*
X150390000Y-110960000D01*
X150390000Y-110960000D02*
X148570000Y-110960000D01*
%TO.C,J_PWR*%
X131955000Y-96100000D02*
X131955000Y-102700000D01*
X131955000Y-102700000D02*
X138915000Y-102700000D01*
X138915000Y-96100000D02*
X131955000Y-96100000D01*
X138915000Y-102700000D02*
X138915000Y-96100000D01*
%TO.C,J_CAN_OUT*%
X150460000Y-96700000D02*
X150460000Y-103300000D01*
X150460000Y-103300000D02*
X158660000Y-103300000D01*
X158660000Y-96700000D02*
X150460000Y-96700000D01*
X158660000Y-103300000D02*
X158660000Y-96700000D01*
%TO.C,SJ1*%
X155460000Y-105750000D02*
X155460000Y-108250000D01*
X155460000Y-105750000D02*
X158760000Y-105750000D01*
X158760000Y-108250000D02*
X155460000Y-108250000D01*
X158760000Y-108250000D02*
X158760000Y-105750000D01*
%TO.C,C_OUT*%
X133050000Y-109540000D02*
X134870000Y-109540000D01*
X133050000Y-110460000D02*
X133050000Y-109540000D01*
X134870000Y-109540000D02*
X134870000Y-110460000D01*
X134870000Y-110460000D02*
X133050000Y-110460000D01*
%TO.C,C_ISO1_1*%
X143050000Y-109540000D02*
X144870000Y-109540000D01*
X143050000Y-110460000D02*
X143050000Y-109540000D01*
X144870000Y-109540000D02*
X144870000Y-110460000D01*
X144870000Y-110460000D02*
X143050000Y-110460000D01*
%TO.C,R_FBB*%
X146560000Y-107030000D02*
X148420000Y-107030000D01*
X146560000Y-107970000D02*
X146560000Y-107030000D01*
X148420000Y-107030000D02*
X148420000Y-107970000D01*
X148420000Y-107970000D02*
X146560000Y-107970000D01*
%TD*%
M02*
