%TF.GenerationSoftware,KiCad,Pcbnew,9.0.2+dfsg-1*%
%TF.CreationDate,2026-07-26T22:33:20-04:00*%
%TF.ProjectId,CAN-PERIPH-GW-1,43414e2d-5045-4524-9950-482d47572d31,2*%
%TF.SameCoordinates,Original*%
%TF.FileFunction,AssemblyDrawing,Bot*%
%FSLAX46Y46*%
G04 Gerber Fmt 4.6, Leading zero omitted, Abs format (unit mm)*
G04 Created by KiCad (PCBNEW 9.0.2+dfsg-1) date 2026-07-26 22:33:20*
%MOMM*%
%LPD*%
G01*
G04 APERTURE LIST*
%ADD10C,0.150000*%
%ADD11C,0.100000*%
G04 APERTURE END LIST*
D10*
X178804819Y-103023810D02*
X177804819Y-103023810D01*
X178757200Y-103452381D02*
X178804819Y-103595238D01*
X178804819Y-103595238D02*
X178804819Y-103833333D01*
X178804819Y-103833333D02*
X178757200Y-103928571D01*
X178757200Y-103928571D02*
X178709580Y-103976190D01*
X178709580Y-103976190D02*
X178614342Y-104023809D01*
X178614342Y-104023809D02*
X178519104Y-104023809D01*
X178519104Y-104023809D02*
X178423866Y-103976190D01*
X178423866Y-103976190D02*
X178376247Y-103928571D01*
X178376247Y-103928571D02*
X178328628Y-103833333D01*
X178328628Y-103833333D02*
X178281009Y-103642857D01*
X178281009Y-103642857D02*
X178233390Y-103547619D01*
X178233390Y-103547619D02*
X178185771Y-103500000D01*
X178185771Y-103500000D02*
X178090533Y-103452381D01*
X178090533Y-103452381D02*
X177995295Y-103452381D01*
X177995295Y-103452381D02*
X177900057Y-103500000D01*
X177900057Y-103500000D02*
X177852438Y-103547619D01*
X177852438Y-103547619D02*
X177804819Y-103642857D01*
X177804819Y-103642857D02*
X177804819Y-103880952D01*
X177804819Y-103880952D02*
X177852438Y-104023809D01*
X177804819Y-104642857D02*
X177804819Y-104833333D01*
X177804819Y-104833333D02*
X177852438Y-104928571D01*
X177852438Y-104928571D02*
X177947676Y-105023809D01*
X177947676Y-105023809D02*
X178138152Y-105071428D01*
X178138152Y-105071428D02*
X178471485Y-105071428D01*
X178471485Y-105071428D02*
X178661961Y-105023809D01*
X178661961Y-105023809D02*
X178757200Y-104928571D01*
X178757200Y-104928571D02*
X178804819Y-104833333D01*
X178804819Y-104833333D02*
X178804819Y-104642857D01*
X178804819Y-104642857D02*
X178757200Y-104547619D01*
X178757200Y-104547619D02*
X178661961Y-104452381D01*
X178661961Y-104452381D02*
X178471485Y-104404762D01*
X178471485Y-104404762D02*
X178138152Y-104404762D01*
X178138152Y-104404762D02*
X177947676Y-104452381D01*
X177947676Y-104452381D02*
X177852438Y-104547619D01*
X177852438Y-104547619D02*
X177804819Y-104642857D01*
X177804819Y-105404762D02*
X178804819Y-105642857D01*
X178804819Y-105642857D02*
X178090533Y-105833333D01*
X178090533Y-105833333D02*
X178804819Y-106023809D01*
X178804819Y-106023809D02*
X177804819Y-106261905D01*
X178804819Y-107166666D02*
X178804819Y-106595238D01*
X178804819Y-106880952D02*
X177804819Y-106880952D01*
X177804819Y-106880952D02*
X177947676Y-106785714D01*
X177947676Y-106785714D02*
X178042914Y-106690476D01*
X178042914Y-106690476D02*
X178090533Y-106595238D01*
X178138152Y-108023809D02*
X178804819Y-108023809D01*
X177757200Y-107785714D02*
X178471485Y-107547619D01*
X178471485Y-107547619D02*
X178471485Y-108166666D01*
X178804819Y-109071428D02*
X178804819Y-108500000D01*
X178804819Y-108785714D02*
X177804819Y-108785714D01*
X177804819Y-108785714D02*
X177947676Y-108690476D01*
X177947676Y-108690476D02*
X178042914Y-108595238D01*
X178042914Y-108595238D02*
X178090533Y-108500000D01*
X177900057Y-109452381D02*
X177852438Y-109500000D01*
X177852438Y-109500000D02*
X177804819Y-109595238D01*
X177804819Y-109595238D02*
X177804819Y-109833333D01*
X177804819Y-109833333D02*
X177852438Y-109928571D01*
X177852438Y-109928571D02*
X177900057Y-109976190D01*
X177900057Y-109976190D02*
X177995295Y-110023809D01*
X177995295Y-110023809D02*
X178090533Y-110023809D01*
X178090533Y-110023809D02*
X178233390Y-109976190D01*
X178233390Y-109976190D02*
X178804819Y-109404762D01*
X178804819Y-109404762D02*
X178804819Y-110023809D01*
X170454819Y-104880952D02*
X171264342Y-104880952D01*
X171264342Y-104880952D02*
X171359580Y-104928571D01*
X171359580Y-104928571D02*
X171407200Y-104976190D01*
X171407200Y-104976190D02*
X171454819Y-105071428D01*
X171454819Y-105071428D02*
X171454819Y-105261904D01*
X171454819Y-105261904D02*
X171407200Y-105357142D01*
X171407200Y-105357142D02*
X171359580Y-105404761D01*
X171359580Y-105404761D02*
X171264342Y-105452380D01*
X171264342Y-105452380D02*
X170454819Y-105452380D01*
X170788152Y-106357142D02*
X171454819Y-106357142D01*
X170407200Y-106119047D02*
X171121485Y-105880952D01*
X171121485Y-105880952D02*
X171121485Y-106499999D01*
X171550057Y-106642857D02*
X171550057Y-107404761D01*
X171454819Y-108166666D02*
X171454819Y-107595238D01*
X171454819Y-107880952D02*
X170454819Y-107880952D01*
X170454819Y-107880952D02*
X170597676Y-107785714D01*
X170597676Y-107785714D02*
X170692914Y-107690476D01*
X170692914Y-107690476D02*
X170740533Y-107595238D01*
X158345237Y-101799700D02*
X158202380Y-101847319D01*
X158202380Y-101847319D02*
X157964285Y-101847319D01*
X157964285Y-101847319D02*
X157869047Y-101799700D01*
X157869047Y-101799700D02*
X157821428Y-101752080D01*
X157821428Y-101752080D02*
X157773809Y-101656842D01*
X157773809Y-101656842D02*
X157773809Y-101561604D01*
X157773809Y-101561604D02*
X157821428Y-101466366D01*
X157821428Y-101466366D02*
X157869047Y-101418747D01*
X157869047Y-101418747D02*
X157964285Y-101371128D01*
X157964285Y-101371128D02*
X158154761Y-101323509D01*
X158154761Y-101323509D02*
X158249999Y-101275890D01*
X158249999Y-101275890D02*
X158297618Y-101228271D01*
X158297618Y-101228271D02*
X158345237Y-101133033D01*
X158345237Y-101133033D02*
X158345237Y-101037795D01*
X158345237Y-101037795D02*
X158297618Y-100942557D01*
X158297618Y-100942557D02*
X158249999Y-100894938D01*
X158249999Y-100894938D02*
X158154761Y-100847319D01*
X158154761Y-100847319D02*
X157916666Y-100847319D01*
X157916666Y-100847319D02*
X157773809Y-100894938D01*
X156869047Y-101847319D02*
X157345237Y-101847319D01*
X157345237Y-101847319D02*
X157345237Y-100847319D01*
X156202380Y-101323509D02*
X156059523Y-101371128D01*
X156059523Y-101371128D02*
X156011904Y-101418747D01*
X156011904Y-101418747D02*
X155964285Y-101513985D01*
X155964285Y-101513985D02*
X155964285Y-101656842D01*
X155964285Y-101656842D02*
X156011904Y-101752080D01*
X156011904Y-101752080D02*
X156059523Y-101799700D01*
X156059523Y-101799700D02*
X156154761Y-101847319D01*
X156154761Y-101847319D02*
X156535713Y-101847319D01*
X156535713Y-101847319D02*
X156535713Y-100847319D01*
X156535713Y-100847319D02*
X156202380Y-100847319D01*
X156202380Y-100847319D02*
X156107142Y-100894938D01*
X156107142Y-100894938D02*
X156059523Y-100942557D01*
X156059523Y-100942557D02*
X156011904Y-101037795D01*
X156011904Y-101037795D02*
X156011904Y-101133033D01*
X156011904Y-101133033D02*
X156059523Y-101228271D01*
X156059523Y-101228271D02*
X156107142Y-101275890D01*
X156107142Y-101275890D02*
X156202380Y-101323509D01*
X156202380Y-101323509D02*
X156535713Y-101323509D01*
X155488094Y-101847319D02*
X155297618Y-101847319D01*
X155297618Y-101847319D02*
X155202380Y-101799700D01*
X155202380Y-101799700D02*
X155154761Y-101752080D01*
X155154761Y-101752080D02*
X155059523Y-101609223D01*
X155059523Y-101609223D02*
X155011904Y-101418747D01*
X155011904Y-101418747D02*
X155011904Y-101037795D01*
X155011904Y-101037795D02*
X155059523Y-100942557D01*
X155059523Y-100942557D02*
X155107142Y-100894938D01*
X155107142Y-100894938D02*
X155202380Y-100847319D01*
X155202380Y-100847319D02*
X155392856Y-100847319D01*
X155392856Y-100847319D02*
X155488094Y-100894938D01*
X155488094Y-100894938D02*
X155535713Y-100942557D01*
X155535713Y-100942557D02*
X155583332Y-101037795D01*
X155583332Y-101037795D02*
X155583332Y-101275890D01*
X155583332Y-101275890D02*
X155535713Y-101371128D01*
X155535713Y-101371128D02*
X155488094Y-101418747D01*
X155488094Y-101418747D02*
X155392856Y-101466366D01*
X155392856Y-101466366D02*
X155202380Y-101466366D01*
X155202380Y-101466366D02*
X155107142Y-101418747D01*
X155107142Y-101418747D02*
X155059523Y-101371128D01*
X155059523Y-101371128D02*
X155011904Y-101275890D01*
X154154761Y-100847319D02*
X154345237Y-100847319D01*
X154345237Y-100847319D02*
X154440475Y-100894938D01*
X154440475Y-100894938D02*
X154488094Y-100942557D01*
X154488094Y-100942557D02*
X154583332Y-101085414D01*
X154583332Y-101085414D02*
X154630951Y-101275890D01*
X154630951Y-101275890D02*
X154630951Y-101656842D01*
X154630951Y-101656842D02*
X154583332Y-101752080D01*
X154583332Y-101752080D02*
X154535713Y-101799700D01*
X154535713Y-101799700D02*
X154440475Y-101847319D01*
X154440475Y-101847319D02*
X154249999Y-101847319D01*
X154249999Y-101847319D02*
X154154761Y-101799700D01*
X154154761Y-101799700D02*
X154107142Y-101752080D01*
X154107142Y-101752080D02*
X154059523Y-101656842D01*
X154059523Y-101656842D02*
X154059523Y-101418747D01*
X154059523Y-101418747D02*
X154107142Y-101323509D01*
X154107142Y-101323509D02*
X154154761Y-101275890D01*
X154154761Y-101275890D02*
X154249999Y-101228271D01*
X154249999Y-101228271D02*
X154440475Y-101228271D01*
X154440475Y-101228271D02*
X154535713Y-101275890D01*
X154535713Y-101275890D02*
X154583332Y-101323509D01*
X154583332Y-101323509D02*
X154630951Y-101418747D01*
X153726189Y-100847319D02*
X153059523Y-100847319D01*
X153059523Y-100847319D02*
X153488094Y-101847319D01*
X152488094Y-100847319D02*
X152392856Y-100847319D01*
X152392856Y-100847319D02*
X152297618Y-100894938D01*
X152297618Y-100894938D02*
X152249999Y-100942557D01*
X152249999Y-100942557D02*
X152202380Y-101037795D01*
X152202380Y-101037795D02*
X152154761Y-101228271D01*
X152154761Y-101228271D02*
X152154761Y-101466366D01*
X152154761Y-101466366D02*
X152202380Y-101656842D01*
X152202380Y-101656842D02*
X152249999Y-101752080D01*
X152249999Y-101752080D02*
X152297618Y-101799700D01*
X152297618Y-101799700D02*
X152392856Y-101847319D01*
X152392856Y-101847319D02*
X152488094Y-101847319D01*
X152488094Y-101847319D02*
X152583332Y-101799700D01*
X152583332Y-101799700D02*
X152630951Y-101752080D01*
X152630951Y-101752080D02*
X152678570Y-101656842D01*
X152678570Y-101656842D02*
X152726189Y-101466366D01*
X152726189Y-101466366D02*
X152726189Y-101228271D01*
X152726189Y-101228271D02*
X152678570Y-101037795D01*
X152678570Y-101037795D02*
X152630951Y-100942557D01*
X152630951Y-100942557D02*
X152583332Y-100894938D01*
X152583332Y-100894938D02*
X152488094Y-100847319D01*
X156869047Y-97017319D02*
X156869047Y-97826842D01*
X156869047Y-97826842D02*
X156821428Y-97922080D01*
X156821428Y-97922080D02*
X156773809Y-97969700D01*
X156773809Y-97969700D02*
X156678571Y-98017319D01*
X156678571Y-98017319D02*
X156488095Y-98017319D01*
X156488095Y-98017319D02*
X156392857Y-97969700D01*
X156392857Y-97969700D02*
X156345238Y-97922080D01*
X156345238Y-97922080D02*
X156297619Y-97826842D01*
X156297619Y-97826842D02*
X156297619Y-97017319D01*
X155869047Y-97112557D02*
X155821428Y-97064938D01*
X155821428Y-97064938D02*
X155726190Y-97017319D01*
X155726190Y-97017319D02*
X155488095Y-97017319D01*
X155488095Y-97017319D02*
X155392857Y-97064938D01*
X155392857Y-97064938D02*
X155345238Y-97112557D01*
X155345238Y-97112557D02*
X155297619Y-97207795D01*
X155297619Y-97207795D02*
X155297619Y-97303033D01*
X155297619Y-97303033D02*
X155345238Y-97445890D01*
X155345238Y-97445890D02*
X155916666Y-98017319D01*
X155916666Y-98017319D02*
X155297619Y-98017319D01*
X155107143Y-98112557D02*
X154345238Y-98112557D01*
X153583333Y-98017319D02*
X154154761Y-98017319D01*
X153869047Y-98017319D02*
X153869047Y-97017319D01*
X153869047Y-97017319D02*
X153964285Y-97160176D01*
X153964285Y-97160176D02*
X154059523Y-97255414D01*
X154059523Y-97255414D02*
X154154761Y-97303033D01*
X133604819Y-101023810D02*
X132604819Y-101023810D01*
X133557200Y-101452381D02*
X133604819Y-101595238D01*
X133604819Y-101595238D02*
X133604819Y-101833333D01*
X133604819Y-101833333D02*
X133557200Y-101928571D01*
X133557200Y-101928571D02*
X133509580Y-101976190D01*
X133509580Y-101976190D02*
X133414342Y-102023809D01*
X133414342Y-102023809D02*
X133319104Y-102023809D01*
X133319104Y-102023809D02*
X133223866Y-101976190D01*
X133223866Y-101976190D02*
X133176247Y-101928571D01*
X133176247Y-101928571D02*
X133128628Y-101833333D01*
X133128628Y-101833333D02*
X133081009Y-101642857D01*
X133081009Y-101642857D02*
X133033390Y-101547619D01*
X133033390Y-101547619D02*
X132985771Y-101500000D01*
X132985771Y-101500000D02*
X132890533Y-101452381D01*
X132890533Y-101452381D02*
X132795295Y-101452381D01*
X132795295Y-101452381D02*
X132700057Y-101500000D01*
X132700057Y-101500000D02*
X132652438Y-101547619D01*
X132652438Y-101547619D02*
X132604819Y-101642857D01*
X132604819Y-101642857D02*
X132604819Y-101880952D01*
X132604819Y-101880952D02*
X132652438Y-102023809D01*
X132604819Y-102642857D02*
X132604819Y-102833333D01*
X132604819Y-102833333D02*
X132652438Y-102928571D01*
X132652438Y-102928571D02*
X132747676Y-103023809D01*
X132747676Y-103023809D02*
X132938152Y-103071428D01*
X132938152Y-103071428D02*
X133271485Y-103071428D01*
X133271485Y-103071428D02*
X133461961Y-103023809D01*
X133461961Y-103023809D02*
X133557200Y-102928571D01*
X133557200Y-102928571D02*
X133604819Y-102833333D01*
X133604819Y-102833333D02*
X133604819Y-102642857D01*
X133604819Y-102642857D02*
X133557200Y-102547619D01*
X133557200Y-102547619D02*
X133461961Y-102452381D01*
X133461961Y-102452381D02*
X133271485Y-102404762D01*
X133271485Y-102404762D02*
X132938152Y-102404762D01*
X132938152Y-102404762D02*
X132747676Y-102452381D01*
X132747676Y-102452381D02*
X132652438Y-102547619D01*
X132652438Y-102547619D02*
X132604819Y-102642857D01*
X132604819Y-103404762D02*
X133604819Y-103642857D01*
X133604819Y-103642857D02*
X132890533Y-103833333D01*
X132890533Y-103833333D02*
X133604819Y-104023809D01*
X133604819Y-104023809D02*
X132604819Y-104261905D01*
X133604819Y-105166666D02*
X133604819Y-104595238D01*
X133604819Y-104880952D02*
X132604819Y-104880952D01*
X132604819Y-104880952D02*
X132747676Y-104785714D01*
X132747676Y-104785714D02*
X132842914Y-104690476D01*
X132842914Y-104690476D02*
X132890533Y-104595238D01*
X132604819Y-105785714D02*
X132604819Y-105880952D01*
X132604819Y-105880952D02*
X132652438Y-105976190D01*
X132652438Y-105976190D02*
X132700057Y-106023809D01*
X132700057Y-106023809D02*
X132795295Y-106071428D01*
X132795295Y-106071428D02*
X132985771Y-106119047D01*
X132985771Y-106119047D02*
X133223866Y-106119047D01*
X133223866Y-106119047D02*
X133414342Y-106071428D01*
X133414342Y-106071428D02*
X133509580Y-106023809D01*
X133509580Y-106023809D02*
X133557200Y-105976190D01*
X133557200Y-105976190D02*
X133604819Y-105880952D01*
X133604819Y-105880952D02*
X133604819Y-105785714D01*
X133604819Y-105785714D02*
X133557200Y-105690476D01*
X133557200Y-105690476D02*
X133509580Y-105642857D01*
X133509580Y-105642857D02*
X133414342Y-105595238D01*
X133414342Y-105595238D02*
X133223866Y-105547619D01*
X133223866Y-105547619D02*
X132985771Y-105547619D01*
X132985771Y-105547619D02*
X132795295Y-105595238D01*
X132795295Y-105595238D02*
X132700057Y-105642857D01*
X132700057Y-105642857D02*
X132652438Y-105690476D01*
X132652438Y-105690476D02*
X132604819Y-105785714D01*
X132938152Y-106976190D02*
X133604819Y-106976190D01*
X132557200Y-106738095D02*
X133271485Y-106500000D01*
X133271485Y-106500000D02*
X133271485Y-107119047D01*
X132938152Y-107928571D02*
X133604819Y-107928571D01*
X132557200Y-107690476D02*
X133271485Y-107452381D01*
X133271485Y-107452381D02*
X133271485Y-108071428D01*
X133081009Y-108785714D02*
X133128628Y-108928571D01*
X133128628Y-108928571D02*
X133176247Y-108976190D01*
X133176247Y-108976190D02*
X133271485Y-109023809D01*
X133271485Y-109023809D02*
X133414342Y-109023809D01*
X133414342Y-109023809D02*
X133509580Y-108976190D01*
X133509580Y-108976190D02*
X133557200Y-108928571D01*
X133557200Y-108928571D02*
X133604819Y-108833333D01*
X133604819Y-108833333D02*
X133604819Y-108452381D01*
X133604819Y-108452381D02*
X132604819Y-108452381D01*
X132604819Y-108452381D02*
X132604819Y-108785714D01*
X132604819Y-108785714D02*
X132652438Y-108880952D01*
X132652438Y-108880952D02*
X132700057Y-108928571D01*
X132700057Y-108928571D02*
X132795295Y-108976190D01*
X132795295Y-108976190D02*
X132890533Y-108976190D01*
X132890533Y-108976190D02*
X132985771Y-108928571D01*
X132985771Y-108928571D02*
X133033390Y-108880952D01*
X133033390Y-108880952D02*
X133081009Y-108785714D01*
X133081009Y-108785714D02*
X133081009Y-108452381D01*
X133604819Y-109452381D02*
X132604819Y-109452381D01*
X132604819Y-109452381D02*
X132604819Y-109690476D01*
X132604819Y-109690476D02*
X132652438Y-109833333D01*
X132652438Y-109833333D02*
X132747676Y-109928571D01*
X132747676Y-109928571D02*
X132842914Y-109976190D01*
X132842914Y-109976190D02*
X133033390Y-110023809D01*
X133033390Y-110023809D02*
X133176247Y-110023809D01*
X133176247Y-110023809D02*
X133366723Y-109976190D01*
X133366723Y-109976190D02*
X133461961Y-109928571D01*
X133461961Y-109928571D02*
X133557200Y-109833333D01*
X133557200Y-109833333D02*
X133604819Y-109690476D01*
X133604819Y-109690476D02*
X133604819Y-109452381D01*
X133081009Y-110785714D02*
X133081009Y-110452381D01*
X133604819Y-110452381D02*
X132604819Y-110452381D01*
X132604819Y-110452381D02*
X132604819Y-110928571D01*
X133604819Y-111309524D02*
X132604819Y-111309524D01*
X132604819Y-111309524D02*
X133319104Y-111642857D01*
X133319104Y-111642857D02*
X132604819Y-111976190D01*
X132604819Y-111976190D02*
X133604819Y-111976190D01*
X133604819Y-113023809D02*
X133128628Y-112690476D01*
X133604819Y-112452381D02*
X132604819Y-112452381D01*
X132604819Y-112452381D02*
X132604819Y-112833333D01*
X132604819Y-112833333D02*
X132652438Y-112928571D01*
X132652438Y-112928571D02*
X132700057Y-112976190D01*
X132700057Y-112976190D02*
X132795295Y-113023809D01*
X132795295Y-113023809D02*
X132938152Y-113023809D01*
X132938152Y-113023809D02*
X133033390Y-112976190D01*
X133033390Y-112976190D02*
X133081009Y-112928571D01*
X133081009Y-112928571D02*
X133128628Y-112833333D01*
X133128628Y-112833333D02*
X133128628Y-112452381D01*
X139954819Y-105380952D02*
X140764342Y-105380952D01*
X140764342Y-105380952D02*
X140859580Y-105428571D01*
X140859580Y-105428571D02*
X140907200Y-105476190D01*
X140907200Y-105476190D02*
X140954819Y-105571428D01*
X140954819Y-105571428D02*
X140954819Y-105761904D01*
X140954819Y-105761904D02*
X140907200Y-105857142D01*
X140907200Y-105857142D02*
X140859580Y-105904761D01*
X140859580Y-105904761D02*
X140764342Y-105952380D01*
X140764342Y-105952380D02*
X139954819Y-105952380D01*
X139954819Y-106333333D02*
X139954819Y-106952380D01*
X139954819Y-106952380D02*
X140335771Y-106619047D01*
X140335771Y-106619047D02*
X140335771Y-106761904D01*
X140335771Y-106761904D02*
X140383390Y-106857142D01*
X140383390Y-106857142D02*
X140431009Y-106904761D01*
X140431009Y-106904761D02*
X140526247Y-106952380D01*
X140526247Y-106952380D02*
X140764342Y-106952380D01*
X140764342Y-106952380D02*
X140859580Y-106904761D01*
X140859580Y-106904761D02*
X140907200Y-106857142D01*
X140907200Y-106857142D02*
X140954819Y-106761904D01*
X140954819Y-106761904D02*
X140954819Y-106476190D01*
X140954819Y-106476190D02*
X140907200Y-106380952D01*
X140907200Y-106380952D02*
X140859580Y-106333333D01*
X141050057Y-107142857D02*
X141050057Y-107904761D01*
X140954819Y-108666666D02*
X140954819Y-108095238D01*
X140954819Y-108380952D02*
X139954819Y-108380952D01*
X139954819Y-108380952D02*
X140097676Y-108285714D01*
X140097676Y-108285714D02*
X140192914Y-108190476D01*
X140192914Y-108190476D02*
X140240533Y-108095238D01*
X159511904Y-111847319D02*
X159511904Y-110847319D01*
X159511904Y-110847319D02*
X159178571Y-111561604D01*
X159178571Y-111561604D02*
X158845238Y-110847319D01*
X158845238Y-110847319D02*
X158845238Y-111847319D01*
X158416666Y-111799700D02*
X158273809Y-111847319D01*
X158273809Y-111847319D02*
X158035714Y-111847319D01*
X158035714Y-111847319D02*
X157940476Y-111799700D01*
X157940476Y-111799700D02*
X157892857Y-111752080D01*
X157892857Y-111752080D02*
X157845238Y-111656842D01*
X157845238Y-111656842D02*
X157845238Y-111561604D01*
X157845238Y-111561604D02*
X157892857Y-111466366D01*
X157892857Y-111466366D02*
X157940476Y-111418747D01*
X157940476Y-111418747D02*
X158035714Y-111371128D01*
X158035714Y-111371128D02*
X158226190Y-111323509D01*
X158226190Y-111323509D02*
X158321428Y-111275890D01*
X158321428Y-111275890D02*
X158369047Y-111228271D01*
X158369047Y-111228271D02*
X158416666Y-111133033D01*
X158416666Y-111133033D02*
X158416666Y-111037795D01*
X158416666Y-111037795D02*
X158369047Y-110942557D01*
X158369047Y-110942557D02*
X158321428Y-110894938D01*
X158321428Y-110894938D02*
X158226190Y-110847319D01*
X158226190Y-110847319D02*
X157988095Y-110847319D01*
X157988095Y-110847319D02*
X157845238Y-110894938D01*
X157416666Y-111847319D02*
X157416666Y-110847319D01*
X157416666Y-110847319D02*
X157035714Y-110847319D01*
X157035714Y-110847319D02*
X156940476Y-110894938D01*
X156940476Y-110894938D02*
X156892857Y-110942557D01*
X156892857Y-110942557D02*
X156845238Y-111037795D01*
X156845238Y-111037795D02*
X156845238Y-111180652D01*
X156845238Y-111180652D02*
X156892857Y-111275890D01*
X156892857Y-111275890D02*
X156940476Y-111323509D01*
X156940476Y-111323509D02*
X157035714Y-111371128D01*
X157035714Y-111371128D02*
X157416666Y-111371128D01*
X156416666Y-111847319D02*
X156416666Y-110847319D01*
X156416666Y-110847319D02*
X156083333Y-111561604D01*
X156083333Y-111561604D02*
X155750000Y-110847319D01*
X155750000Y-110847319D02*
X155750000Y-111847319D01*
X155083333Y-110847319D02*
X154988095Y-110847319D01*
X154988095Y-110847319D02*
X154892857Y-110894938D01*
X154892857Y-110894938D02*
X154845238Y-110942557D01*
X154845238Y-110942557D02*
X154797619Y-111037795D01*
X154797619Y-111037795D02*
X154750000Y-111228271D01*
X154750000Y-111228271D02*
X154750000Y-111466366D01*
X154750000Y-111466366D02*
X154797619Y-111656842D01*
X154797619Y-111656842D02*
X154845238Y-111752080D01*
X154845238Y-111752080D02*
X154892857Y-111799700D01*
X154892857Y-111799700D02*
X154988095Y-111847319D01*
X154988095Y-111847319D02*
X155083333Y-111847319D01*
X155083333Y-111847319D02*
X155178571Y-111799700D01*
X155178571Y-111799700D02*
X155226190Y-111752080D01*
X155226190Y-111752080D02*
X155273809Y-111656842D01*
X155273809Y-111656842D02*
X155321428Y-111466366D01*
X155321428Y-111466366D02*
X155321428Y-111228271D01*
X155321428Y-111228271D02*
X155273809Y-111037795D01*
X155273809Y-111037795D02*
X155226190Y-110942557D01*
X155226190Y-110942557D02*
X155178571Y-110894938D01*
X155178571Y-110894938D02*
X155083333Y-110847319D01*
X153797619Y-110894938D02*
X153892857Y-110847319D01*
X153892857Y-110847319D02*
X154035714Y-110847319D01*
X154035714Y-110847319D02*
X154178571Y-110894938D01*
X154178571Y-110894938D02*
X154273809Y-110990176D01*
X154273809Y-110990176D02*
X154321428Y-111085414D01*
X154321428Y-111085414D02*
X154369047Y-111275890D01*
X154369047Y-111275890D02*
X154369047Y-111418747D01*
X154369047Y-111418747D02*
X154321428Y-111609223D01*
X154321428Y-111609223D02*
X154273809Y-111704461D01*
X154273809Y-111704461D02*
X154178571Y-111799700D01*
X154178571Y-111799700D02*
X154035714Y-111847319D01*
X154035714Y-111847319D02*
X153940476Y-111847319D01*
X153940476Y-111847319D02*
X153797619Y-111799700D01*
X153797619Y-111799700D02*
X153750000Y-111752080D01*
X153750000Y-111752080D02*
X153750000Y-111418747D01*
X153750000Y-111418747D02*
X153940476Y-111418747D01*
X153416666Y-110847319D02*
X152797619Y-110847319D01*
X152797619Y-110847319D02*
X153130952Y-111228271D01*
X153130952Y-111228271D02*
X152988095Y-111228271D01*
X152988095Y-111228271D02*
X152892857Y-111275890D01*
X152892857Y-111275890D02*
X152845238Y-111323509D01*
X152845238Y-111323509D02*
X152797619Y-111418747D01*
X152797619Y-111418747D02*
X152797619Y-111656842D01*
X152797619Y-111656842D02*
X152845238Y-111752080D01*
X152845238Y-111752080D02*
X152892857Y-111799700D01*
X152892857Y-111799700D02*
X152988095Y-111847319D01*
X152988095Y-111847319D02*
X153273809Y-111847319D01*
X153273809Y-111847319D02*
X153369047Y-111799700D01*
X153369047Y-111799700D02*
X153416666Y-111752080D01*
X151892857Y-110847319D02*
X152369047Y-110847319D01*
X152369047Y-110847319D02*
X152416666Y-111323509D01*
X152416666Y-111323509D02*
X152369047Y-111275890D01*
X152369047Y-111275890D02*
X152273809Y-111228271D01*
X152273809Y-111228271D02*
X152035714Y-111228271D01*
X152035714Y-111228271D02*
X151940476Y-111275890D01*
X151940476Y-111275890D02*
X151892857Y-111323509D01*
X151892857Y-111323509D02*
X151845238Y-111418747D01*
X151845238Y-111418747D02*
X151845238Y-111656842D01*
X151845238Y-111656842D02*
X151892857Y-111752080D01*
X151892857Y-111752080D02*
X151940476Y-111799700D01*
X151940476Y-111799700D02*
X152035714Y-111847319D01*
X152035714Y-111847319D02*
X152273809Y-111847319D01*
X152273809Y-111847319D02*
X152369047Y-111799700D01*
X152369047Y-111799700D02*
X152416666Y-111752080D01*
X151226190Y-110847319D02*
X151130952Y-110847319D01*
X151130952Y-110847319D02*
X151035714Y-110894938D01*
X151035714Y-110894938D02*
X150988095Y-110942557D01*
X150988095Y-110942557D02*
X150940476Y-111037795D01*
X150940476Y-111037795D02*
X150892857Y-111228271D01*
X150892857Y-111228271D02*
X150892857Y-111466366D01*
X150892857Y-111466366D02*
X150940476Y-111656842D01*
X150940476Y-111656842D02*
X150988095Y-111752080D01*
X150988095Y-111752080D02*
X151035714Y-111799700D01*
X151035714Y-111799700D02*
X151130952Y-111847319D01*
X151130952Y-111847319D02*
X151226190Y-111847319D01*
X151226190Y-111847319D02*
X151321428Y-111799700D01*
X151321428Y-111799700D02*
X151369047Y-111752080D01*
X151369047Y-111752080D02*
X151416666Y-111656842D01*
X151416666Y-111656842D02*
X151464285Y-111466366D01*
X151464285Y-111466366D02*
X151464285Y-111228271D01*
X151464285Y-111228271D02*
X151416666Y-111037795D01*
X151416666Y-111037795D02*
X151369047Y-110942557D01*
X151369047Y-110942557D02*
X151321428Y-110894938D01*
X151321428Y-110894938D02*
X151226190Y-110847319D01*
X150559523Y-110847319D02*
X149892857Y-110847319D01*
X149892857Y-110847319D02*
X150321428Y-111847319D01*
X156369047Y-106017319D02*
X156369047Y-106826842D01*
X156369047Y-106826842D02*
X156321428Y-106922080D01*
X156321428Y-106922080D02*
X156273809Y-106969700D01*
X156273809Y-106969700D02*
X156178571Y-107017319D01*
X156178571Y-107017319D02*
X155988095Y-107017319D01*
X155988095Y-107017319D02*
X155892857Y-106969700D01*
X155892857Y-106969700D02*
X155845238Y-106922080D01*
X155845238Y-106922080D02*
X155797619Y-106826842D01*
X155797619Y-106826842D02*
X155797619Y-106017319D01*
X154797619Y-107017319D02*
X155369047Y-107017319D01*
X155083333Y-107017319D02*
X155083333Y-106017319D01*
X155083333Y-106017319D02*
X155178571Y-106160176D01*
X155178571Y-106160176D02*
X155273809Y-106255414D01*
X155273809Y-106255414D02*
X155369047Y-106303033D01*
X154607143Y-107112557D02*
X153845238Y-107112557D01*
X153083333Y-107017319D02*
X153654761Y-107017319D01*
X153369047Y-107017319D02*
X153369047Y-106017319D01*
X153369047Y-106017319D02*
X153464285Y-106160176D01*
X153464285Y-106160176D02*
X153559523Y-106255414D01*
X153559523Y-106255414D02*
X153654761Y-106303033D01*
D11*
%TO.C,U4_1*%
X164600000Y-103750000D02*
X164600000Y-110250000D01*
X164600000Y-110250000D02*
X177400000Y-110250000D01*
X165600000Y-102750000D02*
X164600000Y-103750000D01*
X177400000Y-102750000D02*
X165600000Y-102750000D01*
X177400000Y-110250000D02*
X177400000Y-102750000D01*
%TO.C,U2_1*%
X157750000Y-96062500D02*
X157750000Y-100062500D01*
X152750000Y-100062500D01*
X152750000Y-95062500D01*
X156750000Y-95062500D01*
X157750000Y-96062500D01*
%TO.C,U3_1*%
X134100000Y-103250000D02*
X134100000Y-110750000D01*
X134100000Y-110750000D02*
X145900000Y-110750000D01*
X145900000Y-110750000D02*
X146900000Y-109750000D01*
X146900000Y-103250000D02*
X134100000Y-103250000D01*
X146900000Y-109750000D02*
X146900000Y-103250000D01*
%TO.C,U1_1*%
X158250000Y-104062500D02*
X158250000Y-110062500D01*
X151250000Y-110062500D01*
X151250000Y-103062500D01*
X157250000Y-103062500D01*
X158250000Y-104062500D01*
%TD*%
M02*
