%TF.GenerationSoftware,KiCad,Pcbnew,9.0.2+dfsg-1*%
%TF.CreationDate,2026-07-26T22:33:20-04:00*%
%TF.ProjectId,CAN-PERIPH-GW-1,43414e2d-5045-4524-9950-482d47572d31,2*%
%TF.SameCoordinates,Original*%
%TF.FileFunction,Legend,Top*%
%TF.FilePolarity,Positive*%
%FSLAX46Y46*%
G04 Gerber Fmt 4.6, Leading zero omitted, Abs format (unit mm)*
G04 Created by KiCad (PCBNEW 9.0.2+dfsg-1) date 2026-07-26 22:33:20*
%MOMM*%
%LPD*%
G01*
G04 APERTURE LIST*
%ADD10C,0.120000*%
G04 APERTURE END LIST*
D10*
%TO.C,J_SWD_1*%
X170225000Y-114160000D02*
X170225000Y-115760000D01*
X170225000Y-115760000D02*
X172025000Y-115760000D01*
X171495000Y-111290000D02*
X177425000Y-111290000D01*
X172025000Y-115760000D02*
X172025000Y-116700000D01*
X178695000Y-114160000D02*
X178695000Y-115760000D01*
X178695000Y-115760000D02*
X176895000Y-115760000D01*
%TO.C,J_FLEX_1*%
X147380000Y-112620000D02*
X147380000Y-115380000D01*
X165270000Y-112620000D02*
X147380000Y-112620000D01*
X165270000Y-112620000D02*
X165270000Y-115380000D01*
X165270000Y-115380000D02*
X147380000Y-115380000D01*
X166540000Y-112620000D02*
X167920000Y-112620000D01*
X167920000Y-112620000D02*
X167920000Y-114000000D01*
%TO.C,J_CAN_IN*%
X141350000Y-100260000D02*
X141350000Y-101860000D01*
X141350000Y-101860000D02*
X143150000Y-101860000D01*
X142620000Y-97390000D02*
X147300000Y-97390000D01*
X143150000Y-101860000D02*
X143150000Y-102800000D01*
X148570000Y-100260000D02*
X148570000Y-101860000D01*
X148570000Y-101860000D02*
X146770000Y-101860000D01*
%TO.C,C_RS2_1*%
X163832164Y-105640000D02*
X164047836Y-105640000D01*
X163832164Y-106360000D02*
X164047836Y-106360000D01*
%TO.C,R_NRST_1*%
X143826359Y-105620000D02*
X144133641Y-105620000D01*
X143826359Y-106380000D02*
X144133641Y-106380000D01*
%TO.C,SJ2*%
X175060000Y-105000000D02*
X177860000Y-105000000D01*
X175060000Y-107000000D02*
X175060000Y-105000000D01*
X177860000Y-105000000D02*
X177860000Y-107000000D01*
X177860000Y-107000000D02*
X175060000Y-107000000D01*
%TO.C,J_RS485_IN*%
X161850000Y-100760000D02*
X161850000Y-102360000D01*
X161850000Y-102360000D02*
X163650000Y-102360000D01*
X163120000Y-97890000D02*
X167800000Y-97890000D01*
X163650000Y-102360000D02*
X163650000Y-103300000D01*
X169070000Y-100760000D02*
X169070000Y-102360000D01*
X169070000Y-102360000D02*
X167270000Y-102360000D01*
%TO.C,C_VCORE_1*%
X150372164Y-106640000D02*
X150587836Y-106640000D01*
X150372164Y-107360000D02*
X150587836Y-107360000D01*
%TO.C,C_TPM1_1*%
X167100000Y-106587836D02*
X167100000Y-106372164D01*
X167820000Y-106587836D02*
X167820000Y-106372164D01*
%TO.C,U_REG_3V3*%
X136322500Y-105440000D02*
X135522500Y-105440000D01*
X136322500Y-105440000D02*
X137122500Y-105440000D01*
X136322500Y-108560000D02*
X135522500Y-108560000D01*
X136322500Y-108560000D02*
X137122500Y-108560000D01*
X135022500Y-105490000D02*
X134782500Y-105160000D01*
X135262500Y-105160000D01*
X135022500Y-105490000D01*
G36*
X135022500Y-105490000D02*
G01*
X134782500Y-105160000D01*
X135262500Y-105160000D01*
X135022500Y-105490000D01*
G37*
%TO.C,R_FBT*%
X140796359Y-105120000D02*
X141103641Y-105120000D01*
X140796359Y-105880000D02*
X141103641Y-105880000D01*
%TO.C,J_RS485_OUT*%
X171600000Y-100260000D02*
X171600000Y-101860000D01*
X171600000Y-101860000D02*
X173400000Y-101860000D01*
X172870000Y-97390000D02*
X177550000Y-97390000D01*
X173400000Y-101860000D02*
X173400000Y-102800000D01*
X178820000Y-100260000D02*
X178820000Y-101860000D01*
X178820000Y-101860000D02*
X177020000Y-101860000D01*
%TO.C,R_485TERM*%
X172796359Y-105120000D02*
X173103641Y-105120000D01*
X172796359Y-105880000D02*
X173103641Y-105880000D01*
%TO.C,C_TPM2_1*%
X168600000Y-106587836D02*
X168600000Y-106372164D01*
X169320000Y-106587836D02*
X169320000Y-106372164D01*
%TO.C,C_IN*%
X136872164Y-110140000D02*
X137087836Y-110140000D01*
X136872164Y-110860000D02*
X137087836Y-110860000D01*
%TO.C,L1*%
X139285000Y-108400000D02*
X141285000Y-108400000D01*
X139285000Y-110600000D02*
X141285000Y-110600000D01*
%TO.C,C_ISO2_1*%
X160352164Y-104640000D02*
X160567836Y-104640000D01*
X160352164Y-105360000D02*
X160567836Y-105360000D01*
%TO.C,R_CANTERM*%
X153580000Y-107143641D02*
X153580000Y-106836359D01*
X154340000Y-107143641D02*
X154340000Y-106836359D01*
%TO.C,C_MCU1_1*%
X143372164Y-104640000D02*
X143587836Y-104640000D01*
X143372164Y-105360000D02*
X143587836Y-105360000D01*
%TO.C,R_TPM_RST_1*%
X170080000Y-106663641D02*
X170080000Y-106356359D01*
X170840000Y-106663641D02*
X170840000Y-106356359D01*
%TO.C,C_RS1_1*%
X149372164Y-110140000D02*
X149587836Y-110140000D01*
X149372164Y-110860000D02*
X149587836Y-110860000D01*
%TO.C,J_PWR*%
X132450000Y-99660000D02*
X132450000Y-101260000D01*
X132450000Y-101260000D02*
X134250000Y-101260000D01*
X133720000Y-96790000D02*
X137150000Y-96790000D01*
X134250000Y-101260000D02*
X134250000Y-102200000D01*
X138420000Y-99660000D02*
X138420000Y-101260000D01*
X138420000Y-101260000D02*
X136620000Y-101260000D01*
%TO.C,J_CAN_OUT*%
X150950000Y-100260000D02*
X150950000Y-101860000D01*
X150950000Y-101860000D02*
X152750000Y-101860000D01*
X152220000Y-97390000D02*
X156900000Y-97390000D01*
X152750000Y-101860000D02*
X152750000Y-102800000D01*
X158170000Y-100260000D02*
X158170000Y-101860000D01*
X158170000Y-101860000D02*
X156370000Y-101860000D01*
%TO.C,SJ1*%
X155710000Y-106000000D02*
X158510000Y-106000000D01*
X155710000Y-108000000D02*
X155710000Y-106000000D01*
X158510000Y-106000000D02*
X158510000Y-108000000D01*
X158510000Y-108000000D02*
X155710000Y-108000000D01*
%TO.C,C_OUT*%
X133852164Y-109640000D02*
X134067836Y-109640000D01*
X133852164Y-110360000D02*
X134067836Y-110360000D01*
%TO.C,C_ISO1_1*%
X143852164Y-109640000D02*
X144067836Y-109640000D01*
X143852164Y-110360000D02*
X144067836Y-110360000D01*
%TO.C,R_FBB*%
X147336359Y-107120000D02*
X147643641Y-107120000D01*
X147336359Y-107880000D02*
X147643641Y-107880000D01*
%TD*%
M02*
