%TF.GenerationSoftware,KiCad,Pcbnew,9.0.2+dfsg-1*%
%TF.CreationDate,2026-07-26T22:33:20-04:00*%
%TF.ProjectId,CAN-PERIPH-GW-1,43414e2d-5045-4524-9950-482d47572d31,2*%
%TF.SameCoordinates,Original*%
%TF.FileFunction,Paste,Bot*%
%TF.FilePolarity,Positive*%
%FSLAX46Y46*%
G04 Gerber Fmt 4.6, Leading zero omitted, Abs format (unit mm)*
G04 Created by KiCad (PCBNEW 9.0.2+dfsg-1) date 2026-07-26 22:33:20*
%MOMM*%
%LPD*%
G01*
G04 APERTURE LIST*
G04 Aperture macros list*
%AMRoundRect*
0 Rectangle with rounded corners*
0 $1 Rounding radius*
0 $2 $3 $4 $5 $6 $7 $8 $9 X,Y pos of 4 corners*
0 Add a 4 corners polygon primitive as box body*
4,1,4,$2,$3,$4,$5,$6,$7,$8,$9,$2,$3,0*
0 Add four circle primitives for the rounded corners*
1,1,$1+$1,$2,$3*
1,1,$1+$1,$4,$5*
1,1,$1+$1,$6,$7*
1,1,$1+$1,$8,$9*
0 Add four rect primitives between the rounded corners*
20,1,$1+$1,$2,$3,$4,$5,0*
20,1,$1+$1,$4,$5,$6,$7,0*
20,1,$1+$1,$6,$7,$8,$9,0*
20,1,$1+$1,$8,$9,$2,$3,0*%
G04 Aperture macros list end*
%ADD10RoundRect,0.150000X-0.150000X0.875000X-0.150000X-0.875000X0.150000X-0.875000X0.150000X0.875000X0*%
%ADD11RoundRect,0.232500X0.232500X0.232500X-0.232500X0.232500X-0.232500X-0.232500X0.232500X-0.232500X0*%
%ADD12RoundRect,0.062500X0.375000X0.062500X-0.375000X0.062500X-0.375000X-0.062500X0.375000X-0.062500X0*%
%ADD13RoundRect,0.062500X0.062500X0.375000X-0.062500X0.375000X-0.062500X-0.375000X0.062500X-0.375000X0*%
%ADD14RoundRect,0.150000X0.150000X-0.875000X0.150000X0.875000X-0.150000X0.875000X-0.150000X-0.875000X0*%
%ADD15RoundRect,0.250000X0.270000X0.270000X-0.270000X0.270000X-0.270000X-0.270000X0.270000X-0.270000X0*%
G04 APERTURE END LIST*
D10*
%TO.C,U4_1*%
X165285000Y-101850000D03*
X166555000Y-101850000D03*
X167825000Y-101850000D03*
X169095000Y-101850000D03*
X170365000Y-101850000D03*
X171635000Y-101850000D03*
X172905000Y-101850000D03*
X174175000Y-101850000D03*
X175445000Y-101850000D03*
X176715000Y-101850000D03*
X176715000Y-111150000D03*
X175445000Y-111150000D03*
X174175000Y-111150000D03*
X172905000Y-111150000D03*
X171635000Y-111150000D03*
X170365000Y-111150000D03*
X169095000Y-111150000D03*
X167825000Y-111150000D03*
X166555000Y-111150000D03*
X165285000Y-111150000D03*
%TD*%
D11*
%TO.C,U2_1*%
X156400000Y-98712500D03*
X156400000Y-97562500D03*
X156400000Y-96412500D03*
X155250000Y-98712500D03*
X155250000Y-97562500D03*
X155250000Y-96412500D03*
X154100000Y-98712500D03*
X154100000Y-97562500D03*
X154100000Y-96412500D03*
D12*
X157687500Y-95812500D03*
X157687500Y-96312500D03*
X157687500Y-96812500D03*
X157687500Y-97312500D03*
X157687500Y-97812500D03*
X157687500Y-98312500D03*
X157687500Y-98812500D03*
X157687500Y-99312500D03*
D13*
X157000000Y-100000000D03*
X156500000Y-100000000D03*
X156000000Y-100000000D03*
X155500000Y-100000000D03*
X155000000Y-100000000D03*
X154500000Y-100000000D03*
X154000000Y-100000000D03*
X153500000Y-100000000D03*
D12*
X152812500Y-99312500D03*
X152812500Y-98812500D03*
X152812500Y-98312500D03*
X152812500Y-97812500D03*
X152812500Y-97312500D03*
X152812500Y-96812500D03*
X152812500Y-96312500D03*
X152812500Y-95812500D03*
D13*
X153500000Y-95125000D03*
X154000000Y-95125000D03*
X154500000Y-95125000D03*
X155000000Y-95125000D03*
X155500000Y-95125000D03*
X156000000Y-95125000D03*
X156500000Y-95125000D03*
X157000000Y-95125000D03*
%TD*%
D14*
%TO.C,U3_1*%
X146215000Y-111650000D03*
X144945000Y-111650000D03*
X143675000Y-111650000D03*
X142405000Y-111650000D03*
X141135000Y-111650000D03*
X139865000Y-111650000D03*
X138595000Y-111650000D03*
X137325000Y-111650000D03*
X136055000Y-111650000D03*
X134785000Y-111650000D03*
X134785000Y-102350000D03*
X136055000Y-102350000D03*
X137325000Y-102350000D03*
X138595000Y-102350000D03*
X139865000Y-102350000D03*
X141135000Y-102350000D03*
X142405000Y-102350000D03*
X143675000Y-102350000D03*
X144945000Y-102350000D03*
X146215000Y-102350000D03*
%TD*%
D15*
%TO.C,U1_1*%
X156685000Y-108497500D03*
X156685000Y-107207500D03*
X156685000Y-105917500D03*
X156685000Y-104627500D03*
X155395000Y-108497500D03*
X155395000Y-107207500D03*
X155395000Y-105917500D03*
X155395000Y-104627500D03*
X154105000Y-108497500D03*
X154105000Y-107207500D03*
X154105000Y-105917500D03*
X154105000Y-104627500D03*
X152815000Y-108497500D03*
X152815000Y-107207500D03*
X152815000Y-105917500D03*
X152815000Y-104627500D03*
D12*
X158187500Y-103812500D03*
X158187500Y-104312500D03*
X158187500Y-104812500D03*
X158187500Y-105312500D03*
X158187500Y-105812500D03*
X158187500Y-106312500D03*
X158187500Y-106812500D03*
X158187500Y-107312500D03*
X158187500Y-107812500D03*
X158187500Y-108312500D03*
X158187500Y-108812500D03*
X158187500Y-109312500D03*
D13*
X157500000Y-110000000D03*
X157000000Y-110000000D03*
X156500000Y-110000000D03*
X156000000Y-110000000D03*
X155500000Y-110000000D03*
X155000000Y-110000000D03*
X154500000Y-110000000D03*
X154000000Y-110000000D03*
X153500000Y-110000000D03*
X153000000Y-110000000D03*
X152500000Y-110000000D03*
X152000000Y-110000000D03*
D12*
X151312500Y-109312500D03*
X151312500Y-108812500D03*
X151312500Y-108312500D03*
X151312500Y-107812500D03*
X151312500Y-107312500D03*
X151312500Y-106812500D03*
X151312500Y-106312500D03*
X151312500Y-105812500D03*
X151312500Y-105312500D03*
X151312500Y-104812500D03*
X151312500Y-104312500D03*
X151312500Y-103812500D03*
D13*
X152000000Y-103125000D03*
X152500000Y-103125000D03*
X153000000Y-103125000D03*
X153500000Y-103125000D03*
X154000000Y-103125000D03*
X154500000Y-103125000D03*
X155000000Y-103125000D03*
X155500000Y-103125000D03*
X156000000Y-103125000D03*
X156500000Y-103125000D03*
X157000000Y-103125000D03*
X157500000Y-103125000D03*
%TD*%
M02*
