%TF.GenerationSoftware,KiCad,Pcbnew,9.0.2+dfsg-1*%
%TF.CreationDate,2026-07-26T22:33:20-04:00*%
%TF.ProjectId,CAN-PERIPH-GW-1,43414e2d-5045-4524-9950-482d47572d31,2*%
%TF.SameCoordinates,Original*%
%TF.FileFunction,Legend,Bot*%
%TF.FilePolarity,Positive*%
%FSLAX46Y46*%
G04 Gerber Fmt 4.6, Leading zero omitted, Abs format (unit mm)*
G04 Created by KiCad (PCBNEW 9.0.2+dfsg-1) date 2026-07-26 22:33:20*
%MOMM*%
%LPD*%
G01*
G04 APERTURE LIST*
%ADD10C,0.080000*%
%ADD11C,0.150000*%
%ADD12C,0.120000*%
G04 APERTURE END LIST*
D10*
X142642854Y-112812233D02*
X142357140Y-112812233D01*
X142499997Y-113312233D02*
X142499997Y-112812233D01*
X142190474Y-113312233D02*
X142190474Y-112812233D01*
X142190474Y-112812233D02*
X141999998Y-112812233D01*
X141999998Y-112812233D02*
X141952379Y-112836043D01*
X141952379Y-112836043D02*
X141928569Y-112859852D01*
X141928569Y-112859852D02*
X141904760Y-112907471D01*
X141904760Y-112907471D02*
X141904760Y-112978900D01*
X141904760Y-112978900D02*
X141928569Y-113026519D01*
X141928569Y-113026519D02*
X141952379Y-113050328D01*
X141952379Y-113050328D02*
X141999998Y-113074138D01*
X141999998Y-113074138D02*
X142190474Y-113074138D01*
X141690474Y-113312233D02*
X141690474Y-112812233D01*
X141690474Y-112812233D02*
X141523807Y-113169376D01*
X141523807Y-113169376D02*
X141357141Y-112812233D01*
X141357141Y-112812233D02*
X141357141Y-113312233D01*
X141119045Y-113121757D02*
X140738093Y-113121757D01*
X140523806Y-113288424D02*
X140452378Y-113312233D01*
X140452378Y-113312233D02*
X140333330Y-113312233D01*
X140333330Y-113312233D02*
X140285711Y-113288424D01*
X140285711Y-113288424D02*
X140261902Y-113264614D01*
X140261902Y-113264614D02*
X140238092Y-113216995D01*
X140238092Y-113216995D02*
X140238092Y-113169376D01*
X140238092Y-113169376D02*
X140261902Y-113121757D01*
X140261902Y-113121757D02*
X140285711Y-113097947D01*
X140285711Y-113097947D02*
X140333330Y-113074138D01*
X140333330Y-113074138D02*
X140428568Y-113050328D01*
X140428568Y-113050328D02*
X140476187Y-113026519D01*
X140476187Y-113026519D02*
X140499997Y-113002709D01*
X140499997Y-113002709D02*
X140523806Y-112955090D01*
X140523806Y-112955090D02*
X140523806Y-112907471D01*
X140523806Y-112907471D02*
X140499997Y-112859852D01*
X140499997Y-112859852D02*
X140476187Y-112836043D01*
X140476187Y-112836043D02*
X140428568Y-112812233D01*
X140428568Y-112812233D02*
X140309521Y-112812233D01*
X140309521Y-112812233D02*
X140238092Y-112836043D01*
X139833331Y-113288424D02*
X139880950Y-113312233D01*
X139880950Y-113312233D02*
X139976188Y-113312233D01*
X139976188Y-113312233D02*
X140023807Y-113288424D01*
X140023807Y-113288424D02*
X140047616Y-113240804D01*
X140047616Y-113240804D02*
X140047616Y-113050328D01*
X140047616Y-113050328D02*
X140023807Y-113002709D01*
X140023807Y-113002709D02*
X139976188Y-112978900D01*
X139976188Y-112978900D02*
X139880950Y-112978900D01*
X139880950Y-112978900D02*
X139833331Y-113002709D01*
X139833331Y-113002709D02*
X139809521Y-113050328D01*
X139809521Y-113050328D02*
X139809521Y-113097947D01*
X139809521Y-113097947D02*
X140047616Y-113145566D01*
X139380950Y-113288424D02*
X139428569Y-113312233D01*
X139428569Y-113312233D02*
X139523807Y-113312233D01*
X139523807Y-113312233D02*
X139571426Y-113288424D01*
X139571426Y-113288424D02*
X139595236Y-113264614D01*
X139595236Y-113264614D02*
X139619045Y-113216995D01*
X139619045Y-113216995D02*
X139619045Y-113074138D01*
X139619045Y-113074138D02*
X139595236Y-113026519D01*
X139595236Y-113026519D02*
X139571426Y-113002709D01*
X139571426Y-113002709D02*
X139523807Y-112978900D01*
X139523807Y-112978900D02*
X139428569Y-112978900D01*
X139428569Y-112978900D02*
X139380950Y-113002709D01*
X138952379Y-112978900D02*
X138952379Y-113312233D01*
X139166665Y-112978900D02*
X139166665Y-113240804D01*
X139166665Y-113240804D02*
X139142855Y-113288424D01*
X139142855Y-113288424D02*
X139095236Y-113312233D01*
X139095236Y-113312233D02*
X139023808Y-113312233D01*
X139023808Y-113312233D02*
X138976189Y-113288424D01*
X138976189Y-113288424D02*
X138952379Y-113264614D01*
X138714284Y-113312233D02*
X138714284Y-112978900D01*
X138714284Y-113074138D02*
X138690474Y-113026519D01*
X138690474Y-113026519D02*
X138666665Y-113002709D01*
X138666665Y-113002709D02*
X138619046Y-112978900D01*
X138619046Y-112978900D02*
X138571427Y-112978900D01*
X138214284Y-113288424D02*
X138261903Y-113312233D01*
X138261903Y-113312233D02*
X138357141Y-113312233D01*
X138357141Y-113312233D02*
X138404760Y-113288424D01*
X138404760Y-113288424D02*
X138428569Y-113240804D01*
X138428569Y-113240804D02*
X138428569Y-113050328D01*
X138428569Y-113050328D02*
X138404760Y-113002709D01*
X138404760Y-113002709D02*
X138357141Y-112978900D01*
X138357141Y-112978900D02*
X138261903Y-112978900D01*
X138261903Y-112978900D02*
X138214284Y-113002709D01*
X138214284Y-113002709D02*
X138190474Y-113050328D01*
X138190474Y-113050328D02*
X138190474Y-113097947D01*
X138190474Y-113097947D02*
X138428569Y-113145566D01*
X137761903Y-113312233D02*
X137761903Y-112812233D01*
X137761903Y-113288424D02*
X137809522Y-113312233D01*
X137809522Y-113312233D02*
X137904760Y-113312233D01*
X137904760Y-113312233D02*
X137952379Y-113288424D01*
X137952379Y-113288424D02*
X137976189Y-113264614D01*
X137976189Y-113264614D02*
X137999998Y-113216995D01*
X137999998Y-113216995D02*
X137999998Y-113074138D01*
X137999998Y-113074138D02*
X137976189Y-113026519D01*
X137976189Y-113026519D02*
X137952379Y-113002709D01*
X137952379Y-113002709D02*
X137904760Y-112978900D01*
X137904760Y-112978900D02*
X137809522Y-112978900D01*
X137809522Y-112978900D02*
X137761903Y-113002709D01*
X136857142Y-113264614D02*
X136880951Y-113288424D01*
X136880951Y-113288424D02*
X136952380Y-113312233D01*
X136952380Y-113312233D02*
X136999999Y-113312233D01*
X136999999Y-113312233D02*
X137071427Y-113288424D01*
X137071427Y-113288424D02*
X137119046Y-113240804D01*
X137119046Y-113240804D02*
X137142856Y-113193185D01*
X137142856Y-113193185D02*
X137166665Y-113097947D01*
X137166665Y-113097947D02*
X137166665Y-113026519D01*
X137166665Y-113026519D02*
X137142856Y-112931281D01*
X137142856Y-112931281D02*
X137119046Y-112883662D01*
X137119046Y-112883662D02*
X137071427Y-112836043D01*
X137071427Y-112836043D02*
X136999999Y-112812233D01*
X136999999Y-112812233D02*
X136952380Y-112812233D01*
X136952380Y-112812233D02*
X136880951Y-112836043D01*
X136880951Y-112836043D02*
X136857142Y-112859852D01*
X136666665Y-113169376D02*
X136428570Y-113169376D01*
X136714284Y-113312233D02*
X136547618Y-112812233D01*
X136547618Y-112812233D02*
X136380951Y-113312233D01*
X136214285Y-113312233D02*
X136214285Y-112812233D01*
X136214285Y-112812233D02*
X135928571Y-113312233D01*
X135928571Y-113312233D02*
X135928571Y-112812233D01*
X135690475Y-113121757D02*
X135309523Y-113121757D01*
X134904760Y-113050328D02*
X135071427Y-113050328D01*
X135071427Y-113312233D02*
X135071427Y-112812233D01*
X135071427Y-112812233D02*
X134833332Y-112812233D01*
X134642856Y-113312233D02*
X134642856Y-112812233D01*
X134642856Y-112812233D02*
X134523808Y-112812233D01*
X134523808Y-112812233D02*
X134452380Y-112836043D01*
X134452380Y-112836043D02*
X134404761Y-112883662D01*
X134404761Y-112883662D02*
X134380951Y-112931281D01*
X134380951Y-112931281D02*
X134357142Y-113026519D01*
X134357142Y-113026519D02*
X134357142Y-113097947D01*
X134357142Y-113097947D02*
X134380951Y-113193185D01*
X134380951Y-113193185D02*
X134404761Y-113240804D01*
X134404761Y-113240804D02*
X134452380Y-113288424D01*
X134452380Y-113288424D02*
X134523808Y-113312233D01*
X134523808Y-113312233D02*
X134642856Y-113312233D01*
X133785713Y-112788424D02*
X134214284Y-113431281D01*
X133333332Y-113312233D02*
X133499998Y-113074138D01*
X133619046Y-113312233D02*
X133619046Y-112812233D01*
X133619046Y-112812233D02*
X133428570Y-112812233D01*
X133428570Y-112812233D02*
X133380951Y-112836043D01*
X133380951Y-112836043D02*
X133357141Y-112859852D01*
X133357141Y-112859852D02*
X133333332Y-112907471D01*
X133333332Y-112907471D02*
X133333332Y-112978900D01*
X133333332Y-112978900D02*
X133357141Y-113026519D01*
X133357141Y-113026519D02*
X133380951Y-113050328D01*
X133380951Y-113050328D02*
X133428570Y-113074138D01*
X133428570Y-113074138D02*
X133619046Y-113074138D01*
X133142855Y-113288424D02*
X133071427Y-113312233D01*
X133071427Y-113312233D02*
X132952379Y-113312233D01*
X132952379Y-113312233D02*
X132904760Y-113288424D01*
X132904760Y-113288424D02*
X132880951Y-113264614D01*
X132880951Y-113264614D02*
X132857141Y-113216995D01*
X132857141Y-113216995D02*
X132857141Y-113169376D01*
X132857141Y-113169376D02*
X132880951Y-113121757D01*
X132880951Y-113121757D02*
X132904760Y-113097947D01*
X132904760Y-113097947D02*
X132952379Y-113074138D01*
X132952379Y-113074138D02*
X133047617Y-113050328D01*
X133047617Y-113050328D02*
X133095236Y-113026519D01*
X133095236Y-113026519D02*
X133119046Y-113002709D01*
X133119046Y-113002709D02*
X133142855Y-112955090D01*
X133142855Y-112955090D02*
X133142855Y-112907471D01*
X133142855Y-112907471D02*
X133119046Y-112859852D01*
X133119046Y-112859852D02*
X133095236Y-112836043D01*
X133095236Y-112836043D02*
X133047617Y-112812233D01*
X133047617Y-112812233D02*
X132928570Y-112812233D01*
X132928570Y-112812233D02*
X132857141Y-112836043D01*
X132642856Y-113121757D02*
X132261904Y-113121757D01*
X131809522Y-112978900D02*
X131809522Y-113312233D01*
X131928570Y-112788424D02*
X132047617Y-113145566D01*
X132047617Y-113145566D02*
X131738094Y-113145566D01*
X131476189Y-113026519D02*
X131523808Y-113002709D01*
X131523808Y-113002709D02*
X131547618Y-112978900D01*
X131547618Y-112978900D02*
X131571427Y-112931281D01*
X131571427Y-112931281D02*
X131571427Y-112907471D01*
X131571427Y-112907471D02*
X131547618Y-112859852D01*
X131547618Y-112859852D02*
X131523808Y-112836043D01*
X131523808Y-112836043D02*
X131476189Y-112812233D01*
X131476189Y-112812233D02*
X131380951Y-112812233D01*
X131380951Y-112812233D02*
X131333332Y-112836043D01*
X131333332Y-112836043D02*
X131309523Y-112859852D01*
X131309523Y-112859852D02*
X131285713Y-112907471D01*
X131285713Y-112907471D02*
X131285713Y-112931281D01*
X131285713Y-112931281D02*
X131309523Y-112978900D01*
X131309523Y-112978900D02*
X131333332Y-113002709D01*
X131333332Y-113002709D02*
X131380951Y-113026519D01*
X131380951Y-113026519D02*
X131476189Y-113026519D01*
X131476189Y-113026519D02*
X131523808Y-113050328D01*
X131523808Y-113050328D02*
X131547618Y-113074138D01*
X131547618Y-113074138D02*
X131571427Y-113121757D01*
X131571427Y-113121757D02*
X131571427Y-113216995D01*
X131571427Y-113216995D02*
X131547618Y-113264614D01*
X131547618Y-113264614D02*
X131523808Y-113288424D01*
X131523808Y-113288424D02*
X131476189Y-113312233D01*
X131476189Y-113312233D02*
X131380951Y-113312233D01*
X131380951Y-113312233D02*
X131333332Y-113288424D01*
X131333332Y-113288424D02*
X131309523Y-113264614D01*
X131309523Y-113264614D02*
X131285713Y-113216995D01*
X131285713Y-113216995D02*
X131285713Y-113121757D01*
X131285713Y-113121757D02*
X131309523Y-113074138D01*
X131309523Y-113074138D02*
X131333332Y-113050328D01*
X131333332Y-113050328D02*
X131380951Y-113026519D01*
X130833333Y-112812233D02*
X131071428Y-112812233D01*
X131071428Y-112812233D02*
X131095237Y-113050328D01*
X131095237Y-113050328D02*
X131071428Y-113026519D01*
X131071428Y-113026519D02*
X131023809Y-113002709D01*
X131023809Y-113002709D02*
X130904761Y-113002709D01*
X130904761Y-113002709D02*
X130857142Y-113026519D01*
X130857142Y-113026519D02*
X130833333Y-113050328D01*
X130833333Y-113050328D02*
X130809523Y-113097947D01*
X130809523Y-113097947D02*
X130809523Y-113216995D01*
X130809523Y-113216995D02*
X130833333Y-113264614D01*
X130833333Y-113264614D02*
X130857142Y-113288424D01*
X130857142Y-113288424D02*
X130904761Y-113312233D01*
X130904761Y-113312233D02*
X131023809Y-113312233D01*
X131023809Y-113312233D02*
X131071428Y-113288424D01*
X131071428Y-113288424D02*
X131095237Y-113264614D01*
X129952381Y-112836043D02*
X130000000Y-112812233D01*
X130000000Y-112812233D02*
X130071429Y-112812233D01*
X130071429Y-112812233D02*
X130142857Y-112836043D01*
X130142857Y-112836043D02*
X130190476Y-112883662D01*
X130190476Y-112883662D02*
X130214286Y-112931281D01*
X130214286Y-112931281D02*
X130238095Y-113026519D01*
X130238095Y-113026519D02*
X130238095Y-113097947D01*
X130238095Y-113097947D02*
X130214286Y-113193185D01*
X130214286Y-113193185D02*
X130190476Y-113240804D01*
X130190476Y-113240804D02*
X130142857Y-113288424D01*
X130142857Y-113288424D02*
X130071429Y-113312233D01*
X130071429Y-113312233D02*
X130023810Y-113312233D01*
X130023810Y-113312233D02*
X129952381Y-113288424D01*
X129952381Y-113288424D02*
X129928572Y-113264614D01*
X129928572Y-113264614D02*
X129928572Y-113097947D01*
X129928572Y-113097947D02*
X130023810Y-113097947D01*
X129500000Y-113312233D02*
X129500000Y-113050328D01*
X129500000Y-113050328D02*
X129523810Y-113002709D01*
X129523810Y-113002709D02*
X129571429Y-112978900D01*
X129571429Y-112978900D02*
X129666667Y-112978900D01*
X129666667Y-112978900D02*
X129714286Y-113002709D01*
X129500000Y-113288424D02*
X129547619Y-113312233D01*
X129547619Y-113312233D02*
X129666667Y-113312233D01*
X129666667Y-113312233D02*
X129714286Y-113288424D01*
X129714286Y-113288424D02*
X129738095Y-113240804D01*
X129738095Y-113240804D02*
X129738095Y-113193185D01*
X129738095Y-113193185D02*
X129714286Y-113145566D01*
X129714286Y-113145566D02*
X129666667Y-113121757D01*
X129666667Y-113121757D02*
X129547619Y-113121757D01*
X129547619Y-113121757D02*
X129500000Y-113097947D01*
X129333333Y-112978900D02*
X129142857Y-112978900D01*
X129261905Y-112812233D02*
X129261905Y-113240804D01*
X129261905Y-113240804D02*
X129238095Y-113288424D01*
X129238095Y-113288424D02*
X129190476Y-113312233D01*
X129190476Y-113312233D02*
X129142857Y-113312233D01*
X128785715Y-113288424D02*
X128833334Y-113312233D01*
X128833334Y-113312233D02*
X128928572Y-113312233D01*
X128928572Y-113312233D02*
X128976191Y-113288424D01*
X128976191Y-113288424D02*
X129000000Y-113240804D01*
X129000000Y-113240804D02*
X129000000Y-113050328D01*
X129000000Y-113050328D02*
X128976191Y-113002709D01*
X128976191Y-113002709D02*
X128928572Y-112978900D01*
X128928572Y-112978900D02*
X128833334Y-112978900D01*
X128833334Y-112978900D02*
X128785715Y-113002709D01*
X128785715Y-113002709D02*
X128761905Y-113050328D01*
X128761905Y-113050328D02*
X128761905Y-113097947D01*
X128761905Y-113097947D02*
X129000000Y-113145566D01*
X128595239Y-112978900D02*
X128500001Y-113312233D01*
X128500001Y-113312233D02*
X128404763Y-113074138D01*
X128404763Y-113074138D02*
X128309525Y-113312233D01*
X128309525Y-113312233D02*
X128214287Y-112978900D01*
X127809524Y-113312233D02*
X127809524Y-113050328D01*
X127809524Y-113050328D02*
X127833334Y-113002709D01*
X127833334Y-113002709D02*
X127880953Y-112978900D01*
X127880953Y-112978900D02*
X127976191Y-112978900D01*
X127976191Y-112978900D02*
X128023810Y-113002709D01*
X127809524Y-113288424D02*
X127857143Y-113312233D01*
X127857143Y-113312233D02*
X127976191Y-113312233D01*
X127976191Y-113312233D02*
X128023810Y-113288424D01*
X128023810Y-113288424D02*
X128047619Y-113240804D01*
X128047619Y-113240804D02*
X128047619Y-113193185D01*
X128047619Y-113193185D02*
X128023810Y-113145566D01*
X128023810Y-113145566D02*
X127976191Y-113121757D01*
X127976191Y-113121757D02*
X127857143Y-113121757D01*
X127857143Y-113121757D02*
X127809524Y-113097947D01*
X127619048Y-112978900D02*
X127500000Y-113312233D01*
X127380953Y-112978900D02*
X127500000Y-113312233D01*
X127500000Y-113312233D02*
X127547619Y-113431281D01*
X127547619Y-113431281D02*
X127571429Y-113455090D01*
X127571429Y-113455090D02*
X127619048Y-113478900D01*
X140059520Y-113855300D02*
X140226187Y-113855300D01*
X140226187Y-114117205D02*
X140226187Y-113617205D01*
X140226187Y-113617205D02*
X139988092Y-113617205D01*
X139726187Y-114117205D02*
X139773806Y-114093396D01*
X139773806Y-114093396D02*
X139797616Y-114069586D01*
X139797616Y-114069586D02*
X139821425Y-114021967D01*
X139821425Y-114021967D02*
X139821425Y-113879110D01*
X139821425Y-113879110D02*
X139797616Y-113831491D01*
X139797616Y-113831491D02*
X139773806Y-113807681D01*
X139773806Y-113807681D02*
X139726187Y-113783872D01*
X139726187Y-113783872D02*
X139654759Y-113783872D01*
X139654759Y-113783872D02*
X139607140Y-113807681D01*
X139607140Y-113807681D02*
X139583330Y-113831491D01*
X139583330Y-113831491D02*
X139559521Y-113879110D01*
X139559521Y-113879110D02*
X139559521Y-114021967D01*
X139559521Y-114021967D02*
X139583330Y-114069586D01*
X139583330Y-114069586D02*
X139607140Y-114093396D01*
X139607140Y-114093396D02*
X139654759Y-114117205D01*
X139654759Y-114117205D02*
X139726187Y-114117205D01*
X139345235Y-114117205D02*
X139345235Y-113783872D01*
X139345235Y-113879110D02*
X139321425Y-113831491D01*
X139321425Y-113831491D02*
X139297616Y-113807681D01*
X139297616Y-113807681D02*
X139249997Y-113783872D01*
X139249997Y-113783872D02*
X139202378Y-113783872D01*
X138726187Y-113783872D02*
X138535711Y-113783872D01*
X138654759Y-113617205D02*
X138654759Y-114045776D01*
X138654759Y-114045776D02*
X138630949Y-114093396D01*
X138630949Y-114093396D02*
X138583330Y-114117205D01*
X138583330Y-114117205D02*
X138535711Y-114117205D01*
X138369045Y-114117205D02*
X138369045Y-113617205D01*
X138154759Y-114117205D02*
X138154759Y-113855300D01*
X138154759Y-113855300D02*
X138178569Y-113807681D01*
X138178569Y-113807681D02*
X138226188Y-113783872D01*
X138226188Y-113783872D02*
X138297616Y-113783872D01*
X138297616Y-113783872D02*
X138345235Y-113807681D01*
X138345235Y-113807681D02*
X138369045Y-113831491D01*
X137726188Y-114093396D02*
X137773807Y-114117205D01*
X137773807Y-114117205D02*
X137869045Y-114117205D01*
X137869045Y-114117205D02*
X137916664Y-114093396D01*
X137916664Y-114093396D02*
X137940473Y-114045776D01*
X137940473Y-114045776D02*
X137940473Y-113855300D01*
X137940473Y-113855300D02*
X137916664Y-113807681D01*
X137916664Y-113807681D02*
X137869045Y-113783872D01*
X137869045Y-113783872D02*
X137773807Y-113783872D01*
X137773807Y-113783872D02*
X137726188Y-113807681D01*
X137726188Y-113807681D02*
X137702378Y-113855300D01*
X137702378Y-113855300D02*
X137702378Y-113902919D01*
X137702378Y-113902919D02*
X137940473Y-113950538D01*
X137107141Y-114117205D02*
X137107141Y-113617205D01*
X137107141Y-113617205D02*
X136916665Y-113617205D01*
X136916665Y-113617205D02*
X136869046Y-113641015D01*
X136869046Y-113641015D02*
X136845236Y-113664824D01*
X136845236Y-113664824D02*
X136821427Y-113712443D01*
X136821427Y-113712443D02*
X136821427Y-113783872D01*
X136821427Y-113783872D02*
X136845236Y-113831491D01*
X136845236Y-113831491D02*
X136869046Y-113855300D01*
X136869046Y-113855300D02*
X136916665Y-113879110D01*
X136916665Y-113879110D02*
X137107141Y-113879110D01*
X136535712Y-114117205D02*
X136583331Y-114093396D01*
X136583331Y-114093396D02*
X136607141Y-114069586D01*
X136607141Y-114069586D02*
X136630950Y-114021967D01*
X136630950Y-114021967D02*
X136630950Y-113879110D01*
X136630950Y-113879110D02*
X136607141Y-113831491D01*
X136607141Y-113831491D02*
X136583331Y-113807681D01*
X136583331Y-113807681D02*
X136535712Y-113783872D01*
X136535712Y-113783872D02*
X136464284Y-113783872D01*
X136464284Y-113783872D02*
X136416665Y-113807681D01*
X136416665Y-113807681D02*
X136392855Y-113831491D01*
X136392855Y-113831491D02*
X136369046Y-113879110D01*
X136369046Y-113879110D02*
X136369046Y-114021967D01*
X136369046Y-114021967D02*
X136392855Y-114069586D01*
X136392855Y-114069586D02*
X136416665Y-114093396D01*
X136416665Y-114093396D02*
X136464284Y-114117205D01*
X136464284Y-114117205D02*
X136535712Y-114117205D01*
X135940474Y-114093396D02*
X135988093Y-114117205D01*
X135988093Y-114117205D02*
X136083331Y-114117205D01*
X136083331Y-114117205D02*
X136130950Y-114093396D01*
X136130950Y-114093396D02*
X136154760Y-114069586D01*
X136154760Y-114069586D02*
X136178569Y-114021967D01*
X136178569Y-114021967D02*
X136178569Y-113879110D01*
X136178569Y-113879110D02*
X136154760Y-113831491D01*
X136154760Y-113831491D02*
X136130950Y-113807681D01*
X136130950Y-113807681D02*
X136083331Y-113783872D01*
X136083331Y-113783872D02*
X135988093Y-113783872D01*
X135988093Y-113783872D02*
X135940474Y-113807681D01*
X135726189Y-114117205D02*
X135726189Y-113617205D01*
X135678570Y-113926729D02*
X135535713Y-114117205D01*
X135535713Y-113783872D02*
X135726189Y-113974348D01*
X135130951Y-114093396D02*
X135178570Y-114117205D01*
X135178570Y-114117205D02*
X135273808Y-114117205D01*
X135273808Y-114117205D02*
X135321427Y-114093396D01*
X135321427Y-114093396D02*
X135345236Y-114045776D01*
X135345236Y-114045776D02*
X135345236Y-113855300D01*
X135345236Y-113855300D02*
X135321427Y-113807681D01*
X135321427Y-113807681D02*
X135273808Y-113783872D01*
X135273808Y-113783872D02*
X135178570Y-113783872D01*
X135178570Y-113783872D02*
X135130951Y-113807681D01*
X135130951Y-113807681D02*
X135107141Y-113855300D01*
X135107141Y-113855300D02*
X135107141Y-113902919D01*
X135107141Y-113902919D02*
X135345236Y-113950538D01*
X134964284Y-113783872D02*
X134773808Y-113783872D01*
X134892856Y-113617205D02*
X134892856Y-114045776D01*
X134892856Y-114045776D02*
X134869046Y-114093396D01*
X134869046Y-114093396D02*
X134821427Y-114117205D01*
X134821427Y-114117205D02*
X134773808Y-114117205D01*
X134440475Y-113855300D02*
X134369047Y-113879110D01*
X134369047Y-113879110D02*
X134345237Y-113902919D01*
X134345237Y-113902919D02*
X134321428Y-113950538D01*
X134321428Y-113950538D02*
X134321428Y-114021967D01*
X134321428Y-114021967D02*
X134345237Y-114069586D01*
X134345237Y-114069586D02*
X134369047Y-114093396D01*
X134369047Y-114093396D02*
X134416666Y-114117205D01*
X134416666Y-114117205D02*
X134607142Y-114117205D01*
X134607142Y-114117205D02*
X134607142Y-113617205D01*
X134607142Y-113617205D02*
X134440475Y-113617205D01*
X134440475Y-113617205D02*
X134392856Y-113641015D01*
X134392856Y-113641015D02*
X134369047Y-113664824D01*
X134369047Y-113664824D02*
X134345237Y-113712443D01*
X134345237Y-113712443D02*
X134345237Y-113760062D01*
X134345237Y-113760062D02*
X134369047Y-113807681D01*
X134369047Y-113807681D02*
X134392856Y-113831491D01*
X134392856Y-113831491D02*
X134440475Y-113855300D01*
X134440475Y-113855300D02*
X134607142Y-113855300D01*
X133916666Y-114093396D02*
X133964285Y-114117205D01*
X133964285Y-114117205D02*
X134059523Y-114117205D01*
X134059523Y-114117205D02*
X134107142Y-114093396D01*
X134107142Y-114093396D02*
X134130951Y-114045776D01*
X134130951Y-114045776D02*
X134130951Y-113855300D01*
X134130951Y-113855300D02*
X134107142Y-113807681D01*
X134107142Y-113807681D02*
X134059523Y-113783872D01*
X134059523Y-113783872D02*
X133964285Y-113783872D01*
X133964285Y-113783872D02*
X133916666Y-113807681D01*
X133916666Y-113807681D02*
X133892856Y-113855300D01*
X133892856Y-113855300D02*
X133892856Y-113902919D01*
X133892856Y-113902919D02*
X134130951Y-113950538D01*
X133464285Y-114117205D02*
X133464285Y-113855300D01*
X133464285Y-113855300D02*
X133488095Y-113807681D01*
X133488095Y-113807681D02*
X133535714Y-113783872D01*
X133535714Y-113783872D02*
X133630952Y-113783872D01*
X133630952Y-113783872D02*
X133678571Y-113807681D01*
X133464285Y-114093396D02*
X133511904Y-114117205D01*
X133511904Y-114117205D02*
X133630952Y-114117205D01*
X133630952Y-114117205D02*
X133678571Y-114093396D01*
X133678571Y-114093396D02*
X133702380Y-114045776D01*
X133702380Y-114045776D02*
X133702380Y-113998157D01*
X133702380Y-113998157D02*
X133678571Y-113950538D01*
X133678571Y-113950538D02*
X133630952Y-113926729D01*
X133630952Y-113926729D02*
X133511904Y-113926729D01*
X133511904Y-113926729D02*
X133464285Y-113902919D01*
X133011904Y-113783872D02*
X133011904Y-114188634D01*
X133011904Y-114188634D02*
X133035714Y-114236253D01*
X133035714Y-114236253D02*
X133059523Y-114260062D01*
X133059523Y-114260062D02*
X133107142Y-114283872D01*
X133107142Y-114283872D02*
X133178571Y-114283872D01*
X133178571Y-114283872D02*
X133226190Y-114260062D01*
X133011904Y-114093396D02*
X133059523Y-114117205D01*
X133059523Y-114117205D02*
X133154761Y-114117205D01*
X133154761Y-114117205D02*
X133202380Y-114093396D01*
X133202380Y-114093396D02*
X133226190Y-114069586D01*
X133226190Y-114069586D02*
X133249999Y-114021967D01*
X133249999Y-114021967D02*
X133249999Y-113879110D01*
X133249999Y-113879110D02*
X133226190Y-113831491D01*
X133226190Y-113831491D02*
X133202380Y-113807681D01*
X133202380Y-113807681D02*
X133154761Y-113783872D01*
X133154761Y-113783872D02*
X133059523Y-113783872D01*
X133059523Y-113783872D02*
X133011904Y-113807681D01*
X132702380Y-114117205D02*
X132749999Y-114093396D01*
X132749999Y-114093396D02*
X132773809Y-114045776D01*
X132773809Y-114045776D02*
X132773809Y-113617205D01*
X132321428Y-114093396D02*
X132369047Y-114117205D01*
X132369047Y-114117205D02*
X132464285Y-114117205D01*
X132464285Y-114117205D02*
X132511904Y-114093396D01*
X132511904Y-114093396D02*
X132535713Y-114045776D01*
X132535713Y-114045776D02*
X132535713Y-113855300D01*
X132535713Y-113855300D02*
X132511904Y-113807681D01*
X132511904Y-113807681D02*
X132464285Y-113783872D01*
X132464285Y-113783872D02*
X132369047Y-113783872D01*
X132369047Y-113783872D02*
X132321428Y-113807681D01*
X132321428Y-113807681D02*
X132297618Y-113855300D01*
X132297618Y-113855300D02*
X132297618Y-113902919D01*
X132297618Y-113902919D02*
X132535713Y-113950538D01*
X132107142Y-113664824D02*
X132083333Y-113641015D01*
X132083333Y-113641015D02*
X132035714Y-113617205D01*
X132035714Y-113617205D02*
X131916666Y-113617205D01*
X131916666Y-113617205D02*
X131869047Y-113641015D01*
X131869047Y-113641015D02*
X131845238Y-113664824D01*
X131845238Y-113664824D02*
X131821428Y-113712443D01*
X131821428Y-113712443D02*
X131821428Y-113760062D01*
X131821428Y-113760062D02*
X131845238Y-113831491D01*
X131845238Y-113831491D02*
X132130952Y-114117205D01*
X132130952Y-114117205D02*
X131821428Y-114117205D01*
X131297619Y-113783872D02*
X131107143Y-113783872D01*
X131226191Y-114117205D02*
X131226191Y-113688634D01*
X131226191Y-113688634D02*
X131202381Y-113641015D01*
X131202381Y-113641015D02*
X131154762Y-113617205D01*
X131154762Y-113617205D02*
X131107143Y-113617205D01*
X130869048Y-114117205D02*
X130916667Y-114093396D01*
X130916667Y-114093396D02*
X130940477Y-114045776D01*
X130940477Y-114045776D02*
X130940477Y-113617205D01*
X130488096Y-114093396D02*
X130535715Y-114117205D01*
X130535715Y-114117205D02*
X130630953Y-114117205D01*
X130630953Y-114117205D02*
X130678572Y-114093396D01*
X130678572Y-114093396D02*
X130702381Y-114045776D01*
X130702381Y-114045776D02*
X130702381Y-113855300D01*
X130702381Y-113855300D02*
X130678572Y-113807681D01*
X130678572Y-113807681D02*
X130630953Y-113783872D01*
X130630953Y-113783872D02*
X130535715Y-113783872D01*
X130535715Y-113783872D02*
X130488096Y-113807681D01*
X130488096Y-113807681D02*
X130464286Y-113855300D01*
X130464286Y-113855300D02*
X130464286Y-113902919D01*
X130464286Y-113902919D02*
X130702381Y-113950538D01*
X130059525Y-114093396D02*
X130107144Y-114117205D01*
X130107144Y-114117205D02*
X130202382Y-114117205D01*
X130202382Y-114117205D02*
X130250001Y-114093396D01*
X130250001Y-114093396D02*
X130273810Y-114045776D01*
X130273810Y-114045776D02*
X130273810Y-113855300D01*
X130273810Y-113855300D02*
X130250001Y-113807681D01*
X130250001Y-113807681D02*
X130202382Y-113783872D01*
X130202382Y-113783872D02*
X130107144Y-113783872D01*
X130107144Y-113783872D02*
X130059525Y-113807681D01*
X130059525Y-113807681D02*
X130035715Y-113855300D01*
X130035715Y-113855300D02*
X130035715Y-113902919D01*
X130035715Y-113902919D02*
X130273810Y-113950538D01*
X129892858Y-113783872D02*
X129702382Y-113783872D01*
X129821430Y-113617205D02*
X129821430Y-114045776D01*
X129821430Y-114045776D02*
X129797620Y-114093396D01*
X129797620Y-114093396D02*
X129750001Y-114117205D01*
X129750001Y-114117205D02*
X129702382Y-114117205D01*
X139083330Y-114874558D02*
X139107139Y-114898368D01*
X139107139Y-114898368D02*
X139178568Y-114922177D01*
X139178568Y-114922177D02*
X139226187Y-114922177D01*
X139226187Y-114922177D02*
X139297615Y-114898368D01*
X139297615Y-114898368D02*
X139345234Y-114850748D01*
X139345234Y-114850748D02*
X139369044Y-114803129D01*
X139369044Y-114803129D02*
X139392853Y-114707891D01*
X139392853Y-114707891D02*
X139392853Y-114636463D01*
X139392853Y-114636463D02*
X139369044Y-114541225D01*
X139369044Y-114541225D02*
X139345234Y-114493606D01*
X139345234Y-114493606D02*
X139297615Y-114445987D01*
X139297615Y-114445987D02*
X139226187Y-114422177D01*
X139226187Y-114422177D02*
X139178568Y-114422177D01*
X139178568Y-114422177D02*
X139107139Y-114445987D01*
X139107139Y-114445987D02*
X139083330Y-114469796D01*
X138583330Y-114874558D02*
X138607139Y-114898368D01*
X138607139Y-114898368D02*
X138678568Y-114922177D01*
X138678568Y-114922177D02*
X138726187Y-114922177D01*
X138726187Y-114922177D02*
X138797615Y-114898368D01*
X138797615Y-114898368D02*
X138845234Y-114850748D01*
X138845234Y-114850748D02*
X138869044Y-114803129D01*
X138869044Y-114803129D02*
X138892853Y-114707891D01*
X138892853Y-114707891D02*
X138892853Y-114636463D01*
X138892853Y-114636463D02*
X138869044Y-114541225D01*
X138869044Y-114541225D02*
X138845234Y-114493606D01*
X138845234Y-114493606D02*
X138797615Y-114445987D01*
X138797615Y-114445987D02*
X138726187Y-114422177D01*
X138726187Y-114422177D02*
X138678568Y-114422177D01*
X138678568Y-114422177D02*
X138607139Y-114445987D01*
X138607139Y-114445987D02*
X138583330Y-114469796D01*
X137821425Y-114660272D02*
X137749997Y-114684082D01*
X137749997Y-114684082D02*
X137726187Y-114707891D01*
X137726187Y-114707891D02*
X137702378Y-114755510D01*
X137702378Y-114755510D02*
X137702378Y-114826939D01*
X137702378Y-114826939D02*
X137726187Y-114874558D01*
X137726187Y-114874558D02*
X137749997Y-114898368D01*
X137749997Y-114898368D02*
X137797616Y-114922177D01*
X137797616Y-114922177D02*
X137988092Y-114922177D01*
X137988092Y-114922177D02*
X137988092Y-114422177D01*
X137988092Y-114422177D02*
X137821425Y-114422177D01*
X137821425Y-114422177D02*
X137773806Y-114445987D01*
X137773806Y-114445987D02*
X137749997Y-114469796D01*
X137749997Y-114469796D02*
X137726187Y-114517415D01*
X137726187Y-114517415D02*
X137726187Y-114565034D01*
X137726187Y-114565034D02*
X137749997Y-114612653D01*
X137749997Y-114612653D02*
X137773806Y-114636463D01*
X137773806Y-114636463D02*
X137821425Y-114660272D01*
X137821425Y-114660272D02*
X137988092Y-114660272D01*
X137392854Y-114684082D02*
X137392854Y-114922177D01*
X137559520Y-114422177D02*
X137392854Y-114684082D01*
X137392854Y-114684082D02*
X137226187Y-114422177D01*
X136464283Y-114588844D02*
X136464283Y-114922177D01*
X136583331Y-114398368D02*
X136702378Y-114755510D01*
X136702378Y-114755510D02*
X136392855Y-114755510D01*
X136202379Y-114874558D02*
X136178569Y-114898368D01*
X136178569Y-114898368D02*
X136202379Y-114922177D01*
X136202379Y-114922177D02*
X136226188Y-114898368D01*
X136226188Y-114898368D02*
X136202379Y-114874558D01*
X136202379Y-114874558D02*
X136202379Y-114922177D01*
X135869046Y-114422177D02*
X135821427Y-114422177D01*
X135821427Y-114422177D02*
X135773808Y-114445987D01*
X135773808Y-114445987D02*
X135749998Y-114469796D01*
X135749998Y-114469796D02*
X135726189Y-114517415D01*
X135726189Y-114517415D02*
X135702379Y-114612653D01*
X135702379Y-114612653D02*
X135702379Y-114731701D01*
X135702379Y-114731701D02*
X135726189Y-114826939D01*
X135726189Y-114826939D02*
X135749998Y-114874558D01*
X135749998Y-114874558D02*
X135773808Y-114898368D01*
X135773808Y-114898368D02*
X135821427Y-114922177D01*
X135821427Y-114922177D02*
X135869046Y-114922177D01*
X135869046Y-114922177D02*
X135916665Y-114898368D01*
X135916665Y-114898368D02*
X135940474Y-114874558D01*
X135940474Y-114874558D02*
X135964284Y-114826939D01*
X135964284Y-114826939D02*
X135988093Y-114731701D01*
X135988093Y-114731701D02*
X135988093Y-114612653D01*
X135988093Y-114612653D02*
X135964284Y-114517415D01*
X135964284Y-114517415D02*
X135940474Y-114469796D01*
X135940474Y-114469796D02*
X135916665Y-114445987D01*
X135916665Y-114445987D02*
X135869046Y-114422177D01*
X135154761Y-114755510D02*
X134726190Y-114755510D01*
X134011904Y-114422177D02*
X134011904Y-114779320D01*
X134011904Y-114779320D02*
X134035713Y-114850748D01*
X134035713Y-114850748D02*
X134083332Y-114898368D01*
X134083332Y-114898368D02*
X134154761Y-114922177D01*
X134154761Y-114922177D02*
X134202380Y-114922177D01*
X133559523Y-114588844D02*
X133559523Y-114922177D01*
X133773809Y-114588844D02*
X133773809Y-114850748D01*
X133773809Y-114850748D02*
X133749999Y-114898368D01*
X133749999Y-114898368D02*
X133702380Y-114922177D01*
X133702380Y-114922177D02*
X133630952Y-114922177D01*
X133630952Y-114922177D02*
X133583333Y-114898368D01*
X133583333Y-114898368D02*
X133559523Y-114874558D01*
X133249999Y-114922177D02*
X133297618Y-114898368D01*
X133297618Y-114898368D02*
X133321428Y-114850748D01*
X133321428Y-114850748D02*
X133321428Y-114422177D01*
X133107142Y-114588844D02*
X132988094Y-114922177D01*
X132869047Y-114588844D02*
X132988094Y-114922177D01*
X132988094Y-114922177D02*
X133035713Y-115041225D01*
X133035713Y-115041225D02*
X133059523Y-115065034D01*
X133059523Y-115065034D02*
X133107142Y-115088844D01*
X132321428Y-114469796D02*
X132297619Y-114445987D01*
X132297619Y-114445987D02*
X132250000Y-114422177D01*
X132250000Y-114422177D02*
X132130952Y-114422177D01*
X132130952Y-114422177D02*
X132083333Y-114445987D01*
X132083333Y-114445987D02*
X132059524Y-114469796D01*
X132059524Y-114469796D02*
X132035714Y-114517415D01*
X132035714Y-114517415D02*
X132035714Y-114565034D01*
X132035714Y-114565034D02*
X132059524Y-114636463D01*
X132059524Y-114636463D02*
X132345238Y-114922177D01*
X132345238Y-114922177D02*
X132035714Y-114922177D01*
X131726191Y-114422177D02*
X131678572Y-114422177D01*
X131678572Y-114422177D02*
X131630953Y-114445987D01*
X131630953Y-114445987D02*
X131607143Y-114469796D01*
X131607143Y-114469796D02*
X131583334Y-114517415D01*
X131583334Y-114517415D02*
X131559524Y-114612653D01*
X131559524Y-114612653D02*
X131559524Y-114731701D01*
X131559524Y-114731701D02*
X131583334Y-114826939D01*
X131583334Y-114826939D02*
X131607143Y-114874558D01*
X131607143Y-114874558D02*
X131630953Y-114898368D01*
X131630953Y-114898368D02*
X131678572Y-114922177D01*
X131678572Y-114922177D02*
X131726191Y-114922177D01*
X131726191Y-114922177D02*
X131773810Y-114898368D01*
X131773810Y-114898368D02*
X131797619Y-114874558D01*
X131797619Y-114874558D02*
X131821429Y-114826939D01*
X131821429Y-114826939D02*
X131845238Y-114731701D01*
X131845238Y-114731701D02*
X131845238Y-114612653D01*
X131845238Y-114612653D02*
X131821429Y-114517415D01*
X131821429Y-114517415D02*
X131797619Y-114469796D01*
X131797619Y-114469796D02*
X131773810Y-114445987D01*
X131773810Y-114445987D02*
X131726191Y-114422177D01*
X131369048Y-114469796D02*
X131345239Y-114445987D01*
X131345239Y-114445987D02*
X131297620Y-114422177D01*
X131297620Y-114422177D02*
X131178572Y-114422177D01*
X131178572Y-114422177D02*
X131130953Y-114445987D01*
X131130953Y-114445987D02*
X131107144Y-114469796D01*
X131107144Y-114469796D02*
X131083334Y-114517415D01*
X131083334Y-114517415D02*
X131083334Y-114565034D01*
X131083334Y-114565034D02*
X131107144Y-114636463D01*
X131107144Y-114636463D02*
X131392858Y-114922177D01*
X131392858Y-114922177D02*
X131083334Y-114922177D01*
X130654763Y-114422177D02*
X130750001Y-114422177D01*
X130750001Y-114422177D02*
X130797620Y-114445987D01*
X130797620Y-114445987D02*
X130821430Y-114469796D01*
X130821430Y-114469796D02*
X130869049Y-114541225D01*
X130869049Y-114541225D02*
X130892858Y-114636463D01*
X130892858Y-114636463D02*
X130892858Y-114826939D01*
X130892858Y-114826939D02*
X130869049Y-114874558D01*
X130869049Y-114874558D02*
X130845239Y-114898368D01*
X130845239Y-114898368D02*
X130797620Y-114922177D01*
X130797620Y-114922177D02*
X130702382Y-114922177D01*
X130702382Y-114922177D02*
X130654763Y-114898368D01*
X130654763Y-114898368D02*
X130630954Y-114874558D01*
X130630954Y-114874558D02*
X130607144Y-114826939D01*
X130607144Y-114826939D02*
X130607144Y-114707891D01*
X130607144Y-114707891D02*
X130630954Y-114660272D01*
X130630954Y-114660272D02*
X130654763Y-114636463D01*
X130654763Y-114636463D02*
X130702382Y-114612653D01*
X130702382Y-114612653D02*
X130797620Y-114612653D01*
X130797620Y-114612653D02*
X130845239Y-114636463D01*
X130845239Y-114636463D02*
X130869049Y-114660272D01*
X130869049Y-114660272D02*
X130892858Y-114707891D01*
X137476188Y-115703340D02*
X137404760Y-115727149D01*
X137404760Y-115727149D02*
X137285712Y-115727149D01*
X137285712Y-115727149D02*
X137238093Y-115703340D01*
X137238093Y-115703340D02*
X137214284Y-115679530D01*
X137214284Y-115679530D02*
X137190474Y-115631911D01*
X137190474Y-115631911D02*
X137190474Y-115584292D01*
X137190474Y-115584292D02*
X137214284Y-115536673D01*
X137214284Y-115536673D02*
X137238093Y-115512863D01*
X137238093Y-115512863D02*
X137285712Y-115489054D01*
X137285712Y-115489054D02*
X137380950Y-115465244D01*
X137380950Y-115465244D02*
X137428569Y-115441435D01*
X137428569Y-115441435D02*
X137452379Y-115417625D01*
X137452379Y-115417625D02*
X137476188Y-115370006D01*
X137476188Y-115370006D02*
X137476188Y-115322387D01*
X137476188Y-115322387D02*
X137452379Y-115274768D01*
X137452379Y-115274768D02*
X137428569Y-115250959D01*
X137428569Y-115250959D02*
X137380950Y-115227149D01*
X137380950Y-115227149D02*
X137261903Y-115227149D01*
X137261903Y-115227149D02*
X137190474Y-115250959D01*
X137047617Y-115393816D02*
X136857141Y-115393816D01*
X136976189Y-115227149D02*
X136976189Y-115655720D01*
X136976189Y-115655720D02*
X136952379Y-115703340D01*
X136952379Y-115703340D02*
X136904760Y-115727149D01*
X136904760Y-115727149D02*
X136857141Y-115727149D01*
X136499999Y-115703340D02*
X136547618Y-115727149D01*
X136547618Y-115727149D02*
X136642856Y-115727149D01*
X136642856Y-115727149D02*
X136690475Y-115703340D01*
X136690475Y-115703340D02*
X136714284Y-115655720D01*
X136714284Y-115655720D02*
X136714284Y-115465244D01*
X136714284Y-115465244D02*
X136690475Y-115417625D01*
X136690475Y-115417625D02*
X136642856Y-115393816D01*
X136642856Y-115393816D02*
X136547618Y-115393816D01*
X136547618Y-115393816D02*
X136499999Y-115417625D01*
X136499999Y-115417625D02*
X136476189Y-115465244D01*
X136476189Y-115465244D02*
X136476189Y-115512863D01*
X136476189Y-115512863D02*
X136714284Y-115560482D01*
X136309523Y-115393816D02*
X136190475Y-115727149D01*
X136190475Y-115727149D02*
X136071428Y-115393816D01*
X135690476Y-115703340D02*
X135738095Y-115727149D01*
X135738095Y-115727149D02*
X135833333Y-115727149D01*
X135833333Y-115727149D02*
X135880952Y-115703340D01*
X135880952Y-115703340D02*
X135904761Y-115655720D01*
X135904761Y-115655720D02*
X135904761Y-115465244D01*
X135904761Y-115465244D02*
X135880952Y-115417625D01*
X135880952Y-115417625D02*
X135833333Y-115393816D01*
X135833333Y-115393816D02*
X135738095Y-115393816D01*
X135738095Y-115393816D02*
X135690476Y-115417625D01*
X135690476Y-115417625D02*
X135666666Y-115465244D01*
X135666666Y-115465244D02*
X135666666Y-115512863D01*
X135666666Y-115512863D02*
X135904761Y-115560482D01*
X134809524Y-115250959D02*
X134857143Y-115227149D01*
X134857143Y-115227149D02*
X134928572Y-115227149D01*
X134928572Y-115227149D02*
X135000000Y-115250959D01*
X135000000Y-115250959D02*
X135047619Y-115298578D01*
X135047619Y-115298578D02*
X135071429Y-115346197D01*
X135071429Y-115346197D02*
X135095238Y-115441435D01*
X135095238Y-115441435D02*
X135095238Y-115512863D01*
X135095238Y-115512863D02*
X135071429Y-115608101D01*
X135071429Y-115608101D02*
X135047619Y-115655720D01*
X135047619Y-115655720D02*
X135000000Y-115703340D01*
X135000000Y-115703340D02*
X134928572Y-115727149D01*
X134928572Y-115727149D02*
X134880953Y-115727149D01*
X134880953Y-115727149D02*
X134809524Y-115703340D01*
X134809524Y-115703340D02*
X134785715Y-115679530D01*
X134785715Y-115679530D02*
X134785715Y-115512863D01*
X134785715Y-115512863D02*
X134880953Y-115512863D01*
X134571429Y-115727149D02*
X134571429Y-115393816D01*
X134571429Y-115489054D02*
X134547619Y-115441435D01*
X134547619Y-115441435D02*
X134523810Y-115417625D01*
X134523810Y-115417625D02*
X134476191Y-115393816D01*
X134476191Y-115393816D02*
X134428572Y-115393816D01*
X134261905Y-115727149D02*
X134261905Y-115393816D01*
X134261905Y-115227149D02*
X134285714Y-115250959D01*
X134285714Y-115250959D02*
X134261905Y-115274768D01*
X134261905Y-115274768D02*
X134238095Y-115250959D01*
X134238095Y-115250959D02*
X134261905Y-115227149D01*
X134261905Y-115227149D02*
X134261905Y-115274768D01*
X134095238Y-115393816D02*
X133904762Y-115393816D01*
X134023810Y-115727149D02*
X134023810Y-115298578D01*
X134023810Y-115298578D02*
X134000000Y-115250959D01*
X134000000Y-115250959D02*
X133952381Y-115227149D01*
X133952381Y-115227149D02*
X133904762Y-115227149D01*
X133809524Y-115393816D02*
X133619048Y-115393816D01*
X133738096Y-115727149D02*
X133738096Y-115298578D01*
X133738096Y-115298578D02*
X133714286Y-115250959D01*
X133714286Y-115250959D02*
X133666667Y-115227149D01*
X133666667Y-115227149D02*
X133619048Y-115227149D01*
X133452382Y-115727149D02*
X133452382Y-115393816D01*
X133452382Y-115227149D02*
X133476191Y-115250959D01*
X133476191Y-115250959D02*
X133452382Y-115274768D01*
X133452382Y-115274768D02*
X133428572Y-115250959D01*
X133428572Y-115250959D02*
X133452382Y-115227149D01*
X133452382Y-115227149D02*
X133452382Y-115274768D01*
X133214287Y-115393816D02*
X133214287Y-115727149D01*
X133214287Y-115441435D02*
X133190477Y-115417625D01*
X133190477Y-115417625D02*
X133142858Y-115393816D01*
X133142858Y-115393816D02*
X133071430Y-115393816D01*
X133071430Y-115393816D02*
X133023811Y-115417625D01*
X133023811Y-115417625D02*
X133000001Y-115465244D01*
X133000001Y-115465244D02*
X133000001Y-115727149D01*
X132547620Y-115393816D02*
X132547620Y-115798578D01*
X132547620Y-115798578D02*
X132571430Y-115846197D01*
X132571430Y-115846197D02*
X132595239Y-115870006D01*
X132595239Y-115870006D02*
X132642858Y-115893816D01*
X132642858Y-115893816D02*
X132714287Y-115893816D01*
X132714287Y-115893816D02*
X132761906Y-115870006D01*
X132547620Y-115703340D02*
X132595239Y-115727149D01*
X132595239Y-115727149D02*
X132690477Y-115727149D01*
X132690477Y-115727149D02*
X132738096Y-115703340D01*
X132738096Y-115703340D02*
X132761906Y-115679530D01*
X132761906Y-115679530D02*
X132785715Y-115631911D01*
X132785715Y-115631911D02*
X132785715Y-115489054D01*
X132785715Y-115489054D02*
X132761906Y-115441435D01*
X132761906Y-115441435D02*
X132738096Y-115417625D01*
X132738096Y-115417625D02*
X132690477Y-115393816D01*
X132690477Y-115393816D02*
X132595239Y-115393816D01*
X132595239Y-115393816D02*
X132547620Y-115417625D01*
X140249997Y-116532121D02*
X140249997Y-116032121D01*
X140249997Y-116032121D02*
X140059521Y-116032121D01*
X140059521Y-116032121D02*
X140011902Y-116055931D01*
X140011902Y-116055931D02*
X139988092Y-116079740D01*
X139988092Y-116079740D02*
X139964283Y-116127359D01*
X139964283Y-116127359D02*
X139964283Y-116198788D01*
X139964283Y-116198788D02*
X139988092Y-116246407D01*
X139988092Y-116246407D02*
X140011902Y-116270216D01*
X140011902Y-116270216D02*
X140059521Y-116294026D01*
X140059521Y-116294026D02*
X140249997Y-116294026D01*
X139749997Y-116270216D02*
X139583330Y-116270216D01*
X139511902Y-116532121D02*
X139749997Y-116532121D01*
X139749997Y-116532121D02*
X139749997Y-116032121D01*
X139749997Y-116032121D02*
X139511902Y-116032121D01*
X139154759Y-116722597D02*
X139178568Y-116698788D01*
X139178568Y-116698788D02*
X139226187Y-116627359D01*
X139226187Y-116627359D02*
X139249997Y-116579740D01*
X139249997Y-116579740D02*
X139273806Y-116508312D01*
X139273806Y-116508312D02*
X139297616Y-116389264D01*
X139297616Y-116389264D02*
X139297616Y-116294026D01*
X139297616Y-116294026D02*
X139273806Y-116174978D01*
X139273806Y-116174978D02*
X139249997Y-116103550D01*
X139249997Y-116103550D02*
X139226187Y-116055931D01*
X139226187Y-116055931D02*
X139178568Y-115984502D01*
X139178568Y-115984502D02*
X139154759Y-115960692D01*
X138678569Y-116484502D02*
X138702378Y-116508312D01*
X138702378Y-116508312D02*
X138773807Y-116532121D01*
X138773807Y-116532121D02*
X138821426Y-116532121D01*
X138821426Y-116532121D02*
X138892854Y-116508312D01*
X138892854Y-116508312D02*
X138940473Y-116460692D01*
X138940473Y-116460692D02*
X138964283Y-116413073D01*
X138964283Y-116413073D02*
X138988092Y-116317835D01*
X138988092Y-116317835D02*
X138988092Y-116246407D01*
X138988092Y-116246407D02*
X138964283Y-116151169D01*
X138964283Y-116151169D02*
X138940473Y-116103550D01*
X138940473Y-116103550D02*
X138892854Y-116055931D01*
X138892854Y-116055931D02*
X138821426Y-116032121D01*
X138821426Y-116032121D02*
X138773807Y-116032121D01*
X138773807Y-116032121D02*
X138702378Y-116055931D01*
X138702378Y-116055931D02*
X138678569Y-116079740D01*
X138488092Y-116508312D02*
X138416664Y-116532121D01*
X138416664Y-116532121D02*
X138297616Y-116532121D01*
X138297616Y-116532121D02*
X138249997Y-116508312D01*
X138249997Y-116508312D02*
X138226188Y-116484502D01*
X138226188Y-116484502D02*
X138202378Y-116436883D01*
X138202378Y-116436883D02*
X138202378Y-116389264D01*
X138202378Y-116389264D02*
X138226188Y-116341645D01*
X138226188Y-116341645D02*
X138249997Y-116317835D01*
X138249997Y-116317835D02*
X138297616Y-116294026D01*
X138297616Y-116294026D02*
X138392854Y-116270216D01*
X138392854Y-116270216D02*
X138440473Y-116246407D01*
X138440473Y-116246407D02*
X138464283Y-116222597D01*
X138464283Y-116222597D02*
X138488092Y-116174978D01*
X138488092Y-116174978D02*
X138488092Y-116127359D01*
X138488092Y-116127359D02*
X138464283Y-116079740D01*
X138464283Y-116079740D02*
X138440473Y-116055931D01*
X138440473Y-116055931D02*
X138392854Y-116032121D01*
X138392854Y-116032121D02*
X138273807Y-116032121D01*
X138273807Y-116032121D02*
X138202378Y-116055931D01*
X137988093Y-116270216D02*
X137821426Y-116270216D01*
X137749998Y-116532121D02*
X137988093Y-116532121D01*
X137988093Y-116532121D02*
X137988093Y-116032121D01*
X137988093Y-116032121D02*
X137749998Y-116032121D01*
X137583331Y-116722597D02*
X137559521Y-116698788D01*
X137559521Y-116698788D02*
X137511902Y-116627359D01*
X137511902Y-116627359D02*
X137488093Y-116579740D01*
X137488093Y-116579740D02*
X137464283Y-116508312D01*
X137464283Y-116508312D02*
X137440474Y-116389264D01*
X137440474Y-116389264D02*
X137440474Y-116294026D01*
X137440474Y-116294026D02*
X137464283Y-116174978D01*
X137464283Y-116174978D02*
X137488093Y-116103550D01*
X137488093Y-116103550D02*
X137511902Y-116055931D01*
X137511902Y-116055931D02*
X137559521Y-115984502D01*
X137559521Y-115984502D02*
X137583331Y-115960692D01*
X137178569Y-116508312D02*
X137178569Y-116532121D01*
X137178569Y-116532121D02*
X137202379Y-116579740D01*
X137202379Y-116579740D02*
X137226188Y-116603550D01*
X136297618Y-116484502D02*
X136321427Y-116508312D01*
X136321427Y-116508312D02*
X136392856Y-116532121D01*
X136392856Y-116532121D02*
X136440475Y-116532121D01*
X136440475Y-116532121D02*
X136511903Y-116508312D01*
X136511903Y-116508312D02*
X136559522Y-116460692D01*
X136559522Y-116460692D02*
X136583332Y-116413073D01*
X136583332Y-116413073D02*
X136607141Y-116317835D01*
X136607141Y-116317835D02*
X136607141Y-116246407D01*
X136607141Y-116246407D02*
X136583332Y-116151169D01*
X136583332Y-116151169D02*
X136559522Y-116103550D01*
X136559522Y-116103550D02*
X136511903Y-116055931D01*
X136511903Y-116055931D02*
X136440475Y-116032121D01*
X136440475Y-116032121D02*
X136392856Y-116032121D01*
X136392856Y-116032121D02*
X136321427Y-116055931D01*
X136321427Y-116055931D02*
X136297618Y-116079740D01*
X136083332Y-116532121D02*
X136083332Y-116032121D01*
X135869046Y-116508312D02*
X135797618Y-116532121D01*
X135797618Y-116532121D02*
X135678570Y-116532121D01*
X135678570Y-116532121D02*
X135630951Y-116508312D01*
X135630951Y-116508312D02*
X135607142Y-116484502D01*
X135607142Y-116484502D02*
X135583332Y-116436883D01*
X135583332Y-116436883D02*
X135583332Y-116389264D01*
X135583332Y-116389264D02*
X135607142Y-116341645D01*
X135607142Y-116341645D02*
X135630951Y-116317835D01*
X135630951Y-116317835D02*
X135678570Y-116294026D01*
X135678570Y-116294026D02*
X135773808Y-116270216D01*
X135773808Y-116270216D02*
X135821427Y-116246407D01*
X135821427Y-116246407D02*
X135845237Y-116222597D01*
X135845237Y-116222597D02*
X135869046Y-116174978D01*
X135869046Y-116174978D02*
X135869046Y-116127359D01*
X135869046Y-116127359D02*
X135845237Y-116079740D01*
X135845237Y-116079740D02*
X135821427Y-116055931D01*
X135821427Y-116055931D02*
X135773808Y-116032121D01*
X135773808Y-116032121D02*
X135654761Y-116032121D01*
X135654761Y-116032121D02*
X135583332Y-116055931D01*
X135392856Y-116508312D02*
X135321428Y-116532121D01*
X135321428Y-116532121D02*
X135202380Y-116532121D01*
X135202380Y-116532121D02*
X135154761Y-116508312D01*
X135154761Y-116508312D02*
X135130952Y-116484502D01*
X135130952Y-116484502D02*
X135107142Y-116436883D01*
X135107142Y-116436883D02*
X135107142Y-116389264D01*
X135107142Y-116389264D02*
X135130952Y-116341645D01*
X135130952Y-116341645D02*
X135154761Y-116317835D01*
X135154761Y-116317835D02*
X135202380Y-116294026D01*
X135202380Y-116294026D02*
X135297618Y-116270216D01*
X135297618Y-116270216D02*
X135345237Y-116246407D01*
X135345237Y-116246407D02*
X135369047Y-116222597D01*
X135369047Y-116222597D02*
X135392856Y-116174978D01*
X135392856Y-116174978D02*
X135392856Y-116127359D01*
X135392856Y-116127359D02*
X135369047Y-116079740D01*
X135369047Y-116079740D02*
X135345237Y-116055931D01*
X135345237Y-116055931D02*
X135297618Y-116032121D01*
X135297618Y-116032121D02*
X135178571Y-116032121D01*
X135178571Y-116032121D02*
X135107142Y-116055931D01*
X134892857Y-116532121D02*
X134892857Y-116032121D01*
X134892857Y-116032121D02*
X134702381Y-116032121D01*
X134702381Y-116032121D02*
X134654762Y-116055931D01*
X134654762Y-116055931D02*
X134630952Y-116079740D01*
X134630952Y-116079740D02*
X134607143Y-116127359D01*
X134607143Y-116127359D02*
X134607143Y-116198788D01*
X134607143Y-116198788D02*
X134630952Y-116246407D01*
X134630952Y-116246407D02*
X134654762Y-116270216D01*
X134654762Y-116270216D02*
X134702381Y-116294026D01*
X134702381Y-116294026D02*
X134892857Y-116294026D01*
X134392857Y-116341645D02*
X134011905Y-116341645D01*
X133773809Y-116532121D02*
X133773809Y-116032121D01*
X133559523Y-116508312D02*
X133488095Y-116532121D01*
X133488095Y-116532121D02*
X133369047Y-116532121D01*
X133369047Y-116532121D02*
X133321428Y-116508312D01*
X133321428Y-116508312D02*
X133297619Y-116484502D01*
X133297619Y-116484502D02*
X133273809Y-116436883D01*
X133273809Y-116436883D02*
X133273809Y-116389264D01*
X133273809Y-116389264D02*
X133297619Y-116341645D01*
X133297619Y-116341645D02*
X133321428Y-116317835D01*
X133321428Y-116317835D02*
X133369047Y-116294026D01*
X133369047Y-116294026D02*
X133464285Y-116270216D01*
X133464285Y-116270216D02*
X133511904Y-116246407D01*
X133511904Y-116246407D02*
X133535714Y-116222597D01*
X133535714Y-116222597D02*
X133559523Y-116174978D01*
X133559523Y-116174978D02*
X133559523Y-116127359D01*
X133559523Y-116127359D02*
X133535714Y-116079740D01*
X133535714Y-116079740D02*
X133511904Y-116055931D01*
X133511904Y-116055931D02*
X133464285Y-116032121D01*
X133464285Y-116032121D02*
X133345238Y-116032121D01*
X133345238Y-116032121D02*
X133273809Y-116055931D01*
X133083333Y-116508312D02*
X133011905Y-116532121D01*
X133011905Y-116532121D02*
X132892857Y-116532121D01*
X132892857Y-116532121D02*
X132845238Y-116508312D01*
X132845238Y-116508312D02*
X132821429Y-116484502D01*
X132821429Y-116484502D02*
X132797619Y-116436883D01*
X132797619Y-116436883D02*
X132797619Y-116389264D01*
X132797619Y-116389264D02*
X132821429Y-116341645D01*
X132821429Y-116341645D02*
X132845238Y-116317835D01*
X132845238Y-116317835D02*
X132892857Y-116294026D01*
X132892857Y-116294026D02*
X132988095Y-116270216D01*
X132988095Y-116270216D02*
X133035714Y-116246407D01*
X133035714Y-116246407D02*
X133059524Y-116222597D01*
X133059524Y-116222597D02*
X133083333Y-116174978D01*
X133083333Y-116174978D02*
X133083333Y-116127359D01*
X133083333Y-116127359D02*
X133059524Y-116079740D01*
X133059524Y-116079740D02*
X133035714Y-116055931D01*
X133035714Y-116055931D02*
X132988095Y-116032121D01*
X132988095Y-116032121D02*
X132869048Y-116032121D01*
X132869048Y-116032121D02*
X132797619Y-116055931D01*
X132583334Y-116270216D02*
X132416667Y-116270216D01*
X132345239Y-116532121D02*
X132583334Y-116532121D01*
X132583334Y-116532121D02*
X132583334Y-116032121D01*
X132583334Y-116032121D02*
X132345239Y-116032121D01*
X132130953Y-116532121D02*
X132130953Y-116032121D01*
X132130953Y-116032121D02*
X131940477Y-116032121D01*
X131940477Y-116032121D02*
X131892858Y-116055931D01*
X131892858Y-116055931D02*
X131869048Y-116079740D01*
X131869048Y-116079740D02*
X131845239Y-116127359D01*
X131845239Y-116127359D02*
X131845239Y-116198788D01*
X131845239Y-116198788D02*
X131869048Y-116246407D01*
X131869048Y-116246407D02*
X131892858Y-116270216D01*
X131892858Y-116270216D02*
X131940477Y-116294026D01*
X131940477Y-116294026D02*
X132130953Y-116294026D01*
X131607143Y-116508312D02*
X131607143Y-116532121D01*
X131607143Y-116532121D02*
X131630953Y-116579740D01*
X131630953Y-116579740D02*
X131654762Y-116603550D01*
X130726192Y-116484502D02*
X130750001Y-116508312D01*
X130750001Y-116508312D02*
X130821430Y-116532121D01*
X130821430Y-116532121D02*
X130869049Y-116532121D01*
X130869049Y-116532121D02*
X130940477Y-116508312D01*
X130940477Y-116508312D02*
X130988096Y-116460692D01*
X130988096Y-116460692D02*
X131011906Y-116413073D01*
X131011906Y-116413073D02*
X131035715Y-116317835D01*
X131035715Y-116317835D02*
X131035715Y-116246407D01*
X131035715Y-116246407D02*
X131011906Y-116151169D01*
X131011906Y-116151169D02*
X130988096Y-116103550D01*
X130988096Y-116103550D02*
X130940477Y-116055931D01*
X130940477Y-116055931D02*
X130869049Y-116032121D01*
X130869049Y-116032121D02*
X130821430Y-116032121D01*
X130821430Y-116032121D02*
X130750001Y-116055931D01*
X130750001Y-116055931D02*
X130726192Y-116079740D01*
X130511906Y-116532121D02*
X130511906Y-116032121D01*
X130511906Y-116032121D02*
X130321430Y-116032121D01*
X130321430Y-116032121D02*
X130273811Y-116055931D01*
X130273811Y-116055931D02*
X130250001Y-116079740D01*
X130250001Y-116079740D02*
X130226192Y-116127359D01*
X130226192Y-116127359D02*
X130226192Y-116198788D01*
X130226192Y-116198788D02*
X130250001Y-116246407D01*
X130250001Y-116246407D02*
X130273811Y-116270216D01*
X130273811Y-116270216D02*
X130321430Y-116294026D01*
X130321430Y-116294026D02*
X130511906Y-116294026D01*
X130011906Y-116532121D02*
X130011906Y-116032121D01*
X130011906Y-116032121D02*
X129821430Y-116032121D01*
X129821430Y-116032121D02*
X129773811Y-116055931D01*
X129773811Y-116055931D02*
X129750001Y-116079740D01*
X129750001Y-116079740D02*
X129726192Y-116127359D01*
X129726192Y-116127359D02*
X129726192Y-116198788D01*
X129726192Y-116198788D02*
X129750001Y-116246407D01*
X129750001Y-116246407D02*
X129773811Y-116270216D01*
X129773811Y-116270216D02*
X129821430Y-116294026D01*
X129821430Y-116294026D02*
X130011906Y-116294026D01*
X139107141Y-116860903D02*
X139154760Y-116837093D01*
X139154760Y-116837093D02*
X139226189Y-116837093D01*
X139226189Y-116837093D02*
X139297617Y-116860903D01*
X139297617Y-116860903D02*
X139345236Y-116908522D01*
X139345236Y-116908522D02*
X139369046Y-116956141D01*
X139369046Y-116956141D02*
X139392855Y-117051379D01*
X139392855Y-117051379D02*
X139392855Y-117122807D01*
X139392855Y-117122807D02*
X139369046Y-117218045D01*
X139369046Y-117218045D02*
X139345236Y-117265664D01*
X139345236Y-117265664D02*
X139297617Y-117313284D01*
X139297617Y-117313284D02*
X139226189Y-117337093D01*
X139226189Y-117337093D02*
X139178570Y-117337093D01*
X139178570Y-117337093D02*
X139107141Y-117313284D01*
X139107141Y-117313284D02*
X139083332Y-117289474D01*
X139083332Y-117289474D02*
X139083332Y-117122807D01*
X139083332Y-117122807D02*
X139178570Y-117122807D01*
X138869046Y-117337093D02*
X138869046Y-117003760D01*
X138869046Y-117098998D02*
X138845236Y-117051379D01*
X138845236Y-117051379D02*
X138821427Y-117027569D01*
X138821427Y-117027569D02*
X138773808Y-117003760D01*
X138773808Y-117003760D02*
X138726189Y-117003760D01*
X138559522Y-117337093D02*
X138559522Y-117003760D01*
X138559522Y-116837093D02*
X138583331Y-116860903D01*
X138583331Y-116860903D02*
X138559522Y-116884712D01*
X138559522Y-116884712D02*
X138535712Y-116860903D01*
X138535712Y-116860903D02*
X138559522Y-116837093D01*
X138559522Y-116837093D02*
X138559522Y-116884712D01*
X138392855Y-117003760D02*
X138202379Y-117003760D01*
X138321427Y-117337093D02*
X138321427Y-116908522D01*
X138321427Y-116908522D02*
X138297617Y-116860903D01*
X138297617Y-116860903D02*
X138249998Y-116837093D01*
X138249998Y-116837093D02*
X138202379Y-116837093D01*
X138107141Y-117003760D02*
X137916665Y-117003760D01*
X138035713Y-117337093D02*
X138035713Y-116908522D01*
X138035713Y-116908522D02*
X138011903Y-116860903D01*
X138011903Y-116860903D02*
X137964284Y-116837093D01*
X137964284Y-116837093D02*
X137916665Y-116837093D01*
X137749999Y-117337093D02*
X137749999Y-117003760D01*
X137749999Y-116837093D02*
X137773808Y-116860903D01*
X137773808Y-116860903D02*
X137749999Y-116884712D01*
X137749999Y-116884712D02*
X137726189Y-116860903D01*
X137726189Y-116860903D02*
X137749999Y-116837093D01*
X137749999Y-116837093D02*
X137749999Y-116884712D01*
X137511904Y-117003760D02*
X137511904Y-117337093D01*
X137511904Y-117051379D02*
X137488094Y-117027569D01*
X137488094Y-117027569D02*
X137440475Y-117003760D01*
X137440475Y-117003760D02*
X137369047Y-117003760D01*
X137369047Y-117003760D02*
X137321428Y-117027569D01*
X137321428Y-117027569D02*
X137297618Y-117075188D01*
X137297618Y-117075188D02*
X137297618Y-117337093D01*
X136845237Y-117003760D02*
X136845237Y-117408522D01*
X136845237Y-117408522D02*
X136869047Y-117456141D01*
X136869047Y-117456141D02*
X136892856Y-117479950D01*
X136892856Y-117479950D02*
X136940475Y-117503760D01*
X136940475Y-117503760D02*
X137011904Y-117503760D01*
X137011904Y-117503760D02*
X137059523Y-117479950D01*
X136845237Y-117313284D02*
X136892856Y-117337093D01*
X136892856Y-117337093D02*
X136988094Y-117337093D01*
X136988094Y-117337093D02*
X137035713Y-117313284D01*
X137035713Y-117313284D02*
X137059523Y-117289474D01*
X137059523Y-117289474D02*
X137083332Y-117241855D01*
X137083332Y-117241855D02*
X137083332Y-117098998D01*
X137083332Y-117098998D02*
X137059523Y-117051379D01*
X137059523Y-117051379D02*
X137035713Y-117027569D01*
X137035713Y-117027569D02*
X136988094Y-117003760D01*
X136988094Y-117003760D02*
X136892856Y-117003760D01*
X136892856Y-117003760D02*
X136845237Y-117027569D01*
X136297618Y-116837093D02*
X136011904Y-116837093D01*
X136154761Y-117337093D02*
X136154761Y-116837093D01*
X135654762Y-117313284D02*
X135702381Y-117337093D01*
X135702381Y-117337093D02*
X135797619Y-117337093D01*
X135797619Y-117337093D02*
X135845238Y-117313284D01*
X135845238Y-117313284D02*
X135869047Y-117265664D01*
X135869047Y-117265664D02*
X135869047Y-117075188D01*
X135869047Y-117075188D02*
X135845238Y-117027569D01*
X135845238Y-117027569D02*
X135797619Y-117003760D01*
X135797619Y-117003760D02*
X135702381Y-117003760D01*
X135702381Y-117003760D02*
X135654762Y-117027569D01*
X135654762Y-117027569D02*
X135630952Y-117075188D01*
X135630952Y-117075188D02*
X135630952Y-117122807D01*
X135630952Y-117122807D02*
X135869047Y-117170426D01*
X135202381Y-117313284D02*
X135250000Y-117337093D01*
X135250000Y-117337093D02*
X135345238Y-117337093D01*
X135345238Y-117337093D02*
X135392857Y-117313284D01*
X135392857Y-117313284D02*
X135416667Y-117289474D01*
X135416667Y-117289474D02*
X135440476Y-117241855D01*
X135440476Y-117241855D02*
X135440476Y-117098998D01*
X135440476Y-117098998D02*
X135416667Y-117051379D01*
X135416667Y-117051379D02*
X135392857Y-117027569D01*
X135392857Y-117027569D02*
X135345238Y-117003760D01*
X135345238Y-117003760D02*
X135250000Y-117003760D01*
X135250000Y-117003760D02*
X135202381Y-117027569D01*
X134988096Y-117337093D02*
X134988096Y-116837093D01*
X134773810Y-117337093D02*
X134773810Y-117075188D01*
X134773810Y-117075188D02*
X134797620Y-117027569D01*
X134797620Y-117027569D02*
X134845239Y-117003760D01*
X134845239Y-117003760D02*
X134916667Y-117003760D01*
X134916667Y-117003760D02*
X134964286Y-117027569D01*
X134964286Y-117027569D02*
X134988096Y-117051379D01*
X134535715Y-117003760D02*
X134535715Y-117337093D01*
X134535715Y-117051379D02*
X134511905Y-117027569D01*
X134511905Y-117027569D02*
X134464286Y-117003760D01*
X134464286Y-117003760D02*
X134392858Y-117003760D01*
X134392858Y-117003760D02*
X134345239Y-117027569D01*
X134345239Y-117027569D02*
X134321429Y-117075188D01*
X134321429Y-117075188D02*
X134321429Y-117337093D01*
X134011905Y-117337093D02*
X134059524Y-117313284D01*
X134059524Y-117313284D02*
X134083334Y-117289474D01*
X134083334Y-117289474D02*
X134107143Y-117241855D01*
X134107143Y-117241855D02*
X134107143Y-117098998D01*
X134107143Y-117098998D02*
X134083334Y-117051379D01*
X134083334Y-117051379D02*
X134059524Y-117027569D01*
X134059524Y-117027569D02*
X134011905Y-117003760D01*
X134011905Y-117003760D02*
X133940477Y-117003760D01*
X133940477Y-117003760D02*
X133892858Y-117027569D01*
X133892858Y-117027569D02*
X133869048Y-117051379D01*
X133869048Y-117051379D02*
X133845239Y-117098998D01*
X133845239Y-117098998D02*
X133845239Y-117241855D01*
X133845239Y-117241855D02*
X133869048Y-117289474D01*
X133869048Y-117289474D02*
X133892858Y-117313284D01*
X133892858Y-117313284D02*
X133940477Y-117337093D01*
X133940477Y-117337093D02*
X134011905Y-117337093D01*
X133559524Y-117337093D02*
X133607143Y-117313284D01*
X133607143Y-117313284D02*
X133630953Y-117265664D01*
X133630953Y-117265664D02*
X133630953Y-116837093D01*
X133297619Y-117337093D02*
X133345238Y-117313284D01*
X133345238Y-117313284D02*
X133369048Y-117289474D01*
X133369048Y-117289474D02*
X133392857Y-117241855D01*
X133392857Y-117241855D02*
X133392857Y-117098998D01*
X133392857Y-117098998D02*
X133369048Y-117051379D01*
X133369048Y-117051379D02*
X133345238Y-117027569D01*
X133345238Y-117027569D02*
X133297619Y-117003760D01*
X133297619Y-117003760D02*
X133226191Y-117003760D01*
X133226191Y-117003760D02*
X133178572Y-117027569D01*
X133178572Y-117027569D02*
X133154762Y-117051379D01*
X133154762Y-117051379D02*
X133130953Y-117098998D01*
X133130953Y-117098998D02*
X133130953Y-117241855D01*
X133130953Y-117241855D02*
X133154762Y-117289474D01*
X133154762Y-117289474D02*
X133178572Y-117313284D01*
X133178572Y-117313284D02*
X133226191Y-117337093D01*
X133226191Y-117337093D02*
X133297619Y-117337093D01*
X132702381Y-117003760D02*
X132702381Y-117408522D01*
X132702381Y-117408522D02*
X132726191Y-117456141D01*
X132726191Y-117456141D02*
X132750000Y-117479950D01*
X132750000Y-117479950D02*
X132797619Y-117503760D01*
X132797619Y-117503760D02*
X132869048Y-117503760D01*
X132869048Y-117503760D02*
X132916667Y-117479950D01*
X132702381Y-117313284D02*
X132750000Y-117337093D01*
X132750000Y-117337093D02*
X132845238Y-117337093D01*
X132845238Y-117337093D02*
X132892857Y-117313284D01*
X132892857Y-117313284D02*
X132916667Y-117289474D01*
X132916667Y-117289474D02*
X132940476Y-117241855D01*
X132940476Y-117241855D02*
X132940476Y-117098998D01*
X132940476Y-117098998D02*
X132916667Y-117051379D01*
X132916667Y-117051379D02*
X132892857Y-117027569D01*
X132892857Y-117027569D02*
X132845238Y-117003760D01*
X132845238Y-117003760D02*
X132750000Y-117003760D01*
X132750000Y-117003760D02*
X132702381Y-117027569D01*
X132511905Y-117003760D02*
X132392857Y-117337093D01*
X132273810Y-117003760D02*
X132392857Y-117337093D01*
X132392857Y-117337093D02*
X132440476Y-117456141D01*
X132440476Y-117456141D02*
X132464286Y-117479950D01*
X132464286Y-117479950D02*
X132511905Y-117503760D01*
X131464287Y-117337093D02*
X131702382Y-117337093D01*
X131702382Y-117337093D02*
X131702382Y-116837093D01*
X131059525Y-117337093D02*
X131297620Y-117337093D01*
X131297620Y-117337093D02*
X131297620Y-116837093D01*
X130607144Y-117289474D02*
X130630953Y-117313284D01*
X130630953Y-117313284D02*
X130702382Y-117337093D01*
X130702382Y-117337093D02*
X130750001Y-117337093D01*
X130750001Y-117337093D02*
X130821429Y-117313284D01*
X130821429Y-117313284D02*
X130869048Y-117265664D01*
X130869048Y-117265664D02*
X130892858Y-117218045D01*
X130892858Y-117218045D02*
X130916667Y-117122807D01*
X130916667Y-117122807D02*
X130916667Y-117051379D01*
X130916667Y-117051379D02*
X130892858Y-116956141D01*
X130892858Y-116956141D02*
X130869048Y-116908522D01*
X130869048Y-116908522D02*
X130821429Y-116860903D01*
X130821429Y-116860903D02*
X130750001Y-116837093D01*
X130750001Y-116837093D02*
X130702382Y-116837093D01*
X130702382Y-116837093D02*
X130630953Y-116860903D01*
X130630953Y-116860903D02*
X130607144Y-116884712D01*
X140904761Y-117808732D02*
X140904761Y-118213494D01*
X140904761Y-118213494D02*
X140928571Y-118261113D01*
X140928571Y-118261113D02*
X140952380Y-118284922D01*
X140952380Y-118284922D02*
X140999999Y-118308732D01*
X140999999Y-118308732D02*
X141071428Y-118308732D01*
X141071428Y-118308732D02*
X141119047Y-118284922D01*
X140904761Y-118118256D02*
X140952380Y-118142065D01*
X140952380Y-118142065D02*
X141047618Y-118142065D01*
X141047618Y-118142065D02*
X141095237Y-118118256D01*
X141095237Y-118118256D02*
X141119047Y-118094446D01*
X141119047Y-118094446D02*
X141142856Y-118046827D01*
X141142856Y-118046827D02*
X141142856Y-117903970D01*
X141142856Y-117903970D02*
X141119047Y-117856351D01*
X141119047Y-117856351D02*
X141095237Y-117832541D01*
X141095237Y-117832541D02*
X141047618Y-117808732D01*
X141047618Y-117808732D02*
X140952380Y-117808732D01*
X140952380Y-117808732D02*
X140904761Y-117832541D01*
X140666666Y-118142065D02*
X140666666Y-117808732D01*
X140666666Y-117642065D02*
X140690475Y-117665875D01*
X140690475Y-117665875D02*
X140666666Y-117689684D01*
X140666666Y-117689684D02*
X140642856Y-117665875D01*
X140642856Y-117665875D02*
X140666666Y-117642065D01*
X140666666Y-117642065D02*
X140666666Y-117689684D01*
X140499999Y-117808732D02*
X140309523Y-117808732D01*
X140428571Y-117642065D02*
X140428571Y-118070636D01*
X140428571Y-118070636D02*
X140404761Y-118118256D01*
X140404761Y-118118256D02*
X140357142Y-118142065D01*
X140357142Y-118142065D02*
X140309523Y-118142065D01*
X140142857Y-118142065D02*
X140142857Y-117642065D01*
X139928571Y-118142065D02*
X139928571Y-117880160D01*
X139928571Y-117880160D02*
X139952381Y-117832541D01*
X139952381Y-117832541D02*
X140000000Y-117808732D01*
X140000000Y-117808732D02*
X140071428Y-117808732D01*
X140071428Y-117808732D02*
X140119047Y-117832541D01*
X140119047Y-117832541D02*
X140142857Y-117856351D01*
X139476190Y-117808732D02*
X139476190Y-118142065D01*
X139690476Y-117808732D02*
X139690476Y-118070636D01*
X139690476Y-118070636D02*
X139666666Y-118118256D01*
X139666666Y-118118256D02*
X139619047Y-118142065D01*
X139619047Y-118142065D02*
X139547619Y-118142065D01*
X139547619Y-118142065D02*
X139500000Y-118118256D01*
X139500000Y-118118256D02*
X139476190Y-118094446D01*
X139238095Y-118142065D02*
X139238095Y-117642065D01*
X139238095Y-117832541D02*
X139190476Y-117808732D01*
X139190476Y-117808732D02*
X139095238Y-117808732D01*
X139095238Y-117808732D02*
X139047619Y-117832541D01*
X139047619Y-117832541D02*
X139023809Y-117856351D01*
X139023809Y-117856351D02*
X139000000Y-117903970D01*
X139000000Y-117903970D02*
X139000000Y-118046827D01*
X139000000Y-118046827D02*
X139023809Y-118094446D01*
X139023809Y-118094446D02*
X139047619Y-118118256D01*
X139047619Y-118118256D02*
X139095238Y-118142065D01*
X139095238Y-118142065D02*
X139190476Y-118142065D01*
X139190476Y-118142065D02*
X139238095Y-118118256D01*
X138785714Y-118094446D02*
X138761904Y-118118256D01*
X138761904Y-118118256D02*
X138785714Y-118142065D01*
X138785714Y-118142065D02*
X138809523Y-118118256D01*
X138809523Y-118118256D02*
X138785714Y-118094446D01*
X138785714Y-118094446D02*
X138785714Y-118142065D01*
X138333333Y-118118256D02*
X138380952Y-118142065D01*
X138380952Y-118142065D02*
X138476190Y-118142065D01*
X138476190Y-118142065D02*
X138523809Y-118118256D01*
X138523809Y-118118256D02*
X138547619Y-118094446D01*
X138547619Y-118094446D02*
X138571428Y-118046827D01*
X138571428Y-118046827D02*
X138571428Y-117903970D01*
X138571428Y-117903970D02*
X138547619Y-117856351D01*
X138547619Y-117856351D02*
X138523809Y-117832541D01*
X138523809Y-117832541D02*
X138476190Y-117808732D01*
X138476190Y-117808732D02*
X138380952Y-117808732D01*
X138380952Y-117808732D02*
X138333333Y-117832541D01*
X138047619Y-118142065D02*
X138095238Y-118118256D01*
X138095238Y-118118256D02*
X138119048Y-118094446D01*
X138119048Y-118094446D02*
X138142857Y-118046827D01*
X138142857Y-118046827D02*
X138142857Y-117903970D01*
X138142857Y-117903970D02*
X138119048Y-117856351D01*
X138119048Y-117856351D02*
X138095238Y-117832541D01*
X138095238Y-117832541D02*
X138047619Y-117808732D01*
X138047619Y-117808732D02*
X137976191Y-117808732D01*
X137976191Y-117808732D02*
X137928572Y-117832541D01*
X137928572Y-117832541D02*
X137904762Y-117856351D01*
X137904762Y-117856351D02*
X137880953Y-117903970D01*
X137880953Y-117903970D02*
X137880953Y-118046827D01*
X137880953Y-118046827D02*
X137904762Y-118094446D01*
X137904762Y-118094446D02*
X137928572Y-118118256D01*
X137928572Y-118118256D02*
X137976191Y-118142065D01*
X137976191Y-118142065D02*
X138047619Y-118142065D01*
X137666667Y-118142065D02*
X137666667Y-117808732D01*
X137666667Y-117856351D02*
X137642857Y-117832541D01*
X137642857Y-117832541D02*
X137595238Y-117808732D01*
X137595238Y-117808732D02*
X137523810Y-117808732D01*
X137523810Y-117808732D02*
X137476191Y-117832541D01*
X137476191Y-117832541D02*
X137452381Y-117880160D01*
X137452381Y-117880160D02*
X137452381Y-118142065D01*
X137452381Y-117880160D02*
X137428572Y-117832541D01*
X137428572Y-117832541D02*
X137380953Y-117808732D01*
X137380953Y-117808732D02*
X137309524Y-117808732D01*
X137309524Y-117808732D02*
X137261905Y-117832541D01*
X137261905Y-117832541D02*
X137238095Y-117880160D01*
X137238095Y-117880160D02*
X137238095Y-118142065D01*
X136642857Y-117618256D02*
X137071428Y-118261113D01*
X136499999Y-118118256D02*
X136428571Y-118142065D01*
X136428571Y-118142065D02*
X136309523Y-118142065D01*
X136309523Y-118142065D02*
X136261904Y-118118256D01*
X136261904Y-118118256D02*
X136238095Y-118094446D01*
X136238095Y-118094446D02*
X136214285Y-118046827D01*
X136214285Y-118046827D02*
X136214285Y-117999208D01*
X136214285Y-117999208D02*
X136238095Y-117951589D01*
X136238095Y-117951589D02*
X136261904Y-117927779D01*
X136261904Y-117927779D02*
X136309523Y-117903970D01*
X136309523Y-117903970D02*
X136404761Y-117880160D01*
X136404761Y-117880160D02*
X136452380Y-117856351D01*
X136452380Y-117856351D02*
X136476190Y-117832541D01*
X136476190Y-117832541D02*
X136499999Y-117784922D01*
X136499999Y-117784922D02*
X136499999Y-117737303D01*
X136499999Y-117737303D02*
X136476190Y-117689684D01*
X136476190Y-117689684D02*
X136452380Y-117665875D01*
X136452380Y-117665875D02*
X136404761Y-117642065D01*
X136404761Y-117642065D02*
X136285714Y-117642065D01*
X136285714Y-117642065D02*
X136214285Y-117665875D01*
X136071428Y-117808732D02*
X135880952Y-117808732D01*
X136000000Y-117642065D02*
X136000000Y-118070636D01*
X136000000Y-118070636D02*
X135976190Y-118118256D01*
X135976190Y-118118256D02*
X135928571Y-118142065D01*
X135928571Y-118142065D02*
X135880952Y-118142065D01*
X135500000Y-118142065D02*
X135500000Y-117880160D01*
X135500000Y-117880160D02*
X135523810Y-117832541D01*
X135523810Y-117832541D02*
X135571429Y-117808732D01*
X135571429Y-117808732D02*
X135666667Y-117808732D01*
X135666667Y-117808732D02*
X135714286Y-117832541D01*
X135500000Y-118118256D02*
X135547619Y-118142065D01*
X135547619Y-118142065D02*
X135666667Y-118142065D01*
X135666667Y-118142065D02*
X135714286Y-118118256D01*
X135714286Y-118118256D02*
X135738095Y-118070636D01*
X135738095Y-118070636D02*
X135738095Y-118023017D01*
X135738095Y-118023017D02*
X135714286Y-117975398D01*
X135714286Y-117975398D02*
X135666667Y-117951589D01*
X135666667Y-117951589D02*
X135547619Y-117951589D01*
X135547619Y-117951589D02*
X135500000Y-117927779D01*
X135261905Y-118142065D02*
X135261905Y-117642065D01*
X135261905Y-117832541D02*
X135214286Y-117808732D01*
X135214286Y-117808732D02*
X135119048Y-117808732D01*
X135119048Y-117808732D02*
X135071429Y-117832541D01*
X135071429Y-117832541D02*
X135047619Y-117856351D01*
X135047619Y-117856351D02*
X135023810Y-117903970D01*
X135023810Y-117903970D02*
X135023810Y-118046827D01*
X135023810Y-118046827D02*
X135047619Y-118094446D01*
X135047619Y-118094446D02*
X135071429Y-118118256D01*
X135071429Y-118118256D02*
X135119048Y-118142065D01*
X135119048Y-118142065D02*
X135214286Y-118142065D01*
X135214286Y-118142065D02*
X135261905Y-118118256D01*
X134809524Y-117951589D02*
X134428572Y-117951589D01*
X133904762Y-118142065D02*
X134071428Y-117903970D01*
X134190476Y-118142065D02*
X134190476Y-117642065D01*
X134190476Y-117642065D02*
X134000000Y-117642065D01*
X134000000Y-117642065D02*
X133952381Y-117665875D01*
X133952381Y-117665875D02*
X133928571Y-117689684D01*
X133928571Y-117689684D02*
X133904762Y-117737303D01*
X133904762Y-117737303D02*
X133904762Y-117808732D01*
X133904762Y-117808732D02*
X133928571Y-117856351D01*
X133928571Y-117856351D02*
X133952381Y-117880160D01*
X133952381Y-117880160D02*
X134000000Y-117903970D01*
X134000000Y-117903970D02*
X134190476Y-117903970D01*
X133476190Y-118142065D02*
X133476190Y-117880160D01*
X133476190Y-117880160D02*
X133500000Y-117832541D01*
X133500000Y-117832541D02*
X133547619Y-117808732D01*
X133547619Y-117808732D02*
X133642857Y-117808732D01*
X133642857Y-117808732D02*
X133690476Y-117832541D01*
X133476190Y-118118256D02*
X133523809Y-118142065D01*
X133523809Y-118142065D02*
X133642857Y-118142065D01*
X133642857Y-118142065D02*
X133690476Y-118118256D01*
X133690476Y-118118256D02*
X133714285Y-118070636D01*
X133714285Y-118070636D02*
X133714285Y-118023017D01*
X133714285Y-118023017D02*
X133690476Y-117975398D01*
X133690476Y-117975398D02*
X133642857Y-117951589D01*
X133642857Y-117951589D02*
X133523809Y-117951589D01*
X133523809Y-117951589D02*
X133476190Y-117927779D01*
X133238095Y-118142065D02*
X133238095Y-117642065D01*
X133238095Y-117832541D02*
X133190476Y-117808732D01*
X133190476Y-117808732D02*
X133095238Y-117808732D01*
X133095238Y-117808732D02*
X133047619Y-117832541D01*
X133047619Y-117832541D02*
X133023809Y-117856351D01*
X133023809Y-117856351D02*
X133000000Y-117903970D01*
X133000000Y-117903970D02*
X133000000Y-118046827D01*
X133000000Y-118046827D02*
X133023809Y-118094446D01*
X133023809Y-118094446D02*
X133047619Y-118118256D01*
X133047619Y-118118256D02*
X133095238Y-118142065D01*
X133095238Y-118142065D02*
X133190476Y-118142065D01*
X133190476Y-118142065D02*
X133238095Y-118118256D01*
X132785714Y-118142065D02*
X132785714Y-117642065D01*
X132785714Y-117832541D02*
X132738095Y-117808732D01*
X132738095Y-117808732D02*
X132642857Y-117808732D01*
X132642857Y-117808732D02*
X132595238Y-117832541D01*
X132595238Y-117832541D02*
X132571428Y-117856351D01*
X132571428Y-117856351D02*
X132547619Y-117903970D01*
X132547619Y-117903970D02*
X132547619Y-118046827D01*
X132547619Y-118046827D02*
X132571428Y-118094446D01*
X132571428Y-118094446D02*
X132595238Y-118118256D01*
X132595238Y-118118256D02*
X132642857Y-118142065D01*
X132642857Y-118142065D02*
X132738095Y-118142065D01*
X132738095Y-118142065D02*
X132785714Y-118118256D01*
X132333333Y-118142065D02*
X132333333Y-117808732D01*
X132333333Y-117642065D02*
X132357142Y-117665875D01*
X132357142Y-117665875D02*
X132333333Y-117689684D01*
X132333333Y-117689684D02*
X132309523Y-117665875D01*
X132309523Y-117665875D02*
X132333333Y-117642065D01*
X132333333Y-117642065D02*
X132333333Y-117689684D01*
X132166666Y-117808732D02*
X131976190Y-117808732D01*
X132095238Y-117642065D02*
X132095238Y-118070636D01*
X132095238Y-118070636D02*
X132071428Y-118118256D01*
X132071428Y-118118256D02*
X132023809Y-118142065D01*
X132023809Y-118142065D02*
X131976190Y-118142065D01*
X131809524Y-117951589D02*
X131428572Y-117951589D01*
X130904762Y-118094446D02*
X130928571Y-118118256D01*
X130928571Y-118118256D02*
X131000000Y-118142065D01*
X131000000Y-118142065D02*
X131047619Y-118142065D01*
X131047619Y-118142065D02*
X131119047Y-118118256D01*
X131119047Y-118118256D02*
X131166666Y-118070636D01*
X131166666Y-118070636D02*
X131190476Y-118023017D01*
X131190476Y-118023017D02*
X131214285Y-117927779D01*
X131214285Y-117927779D02*
X131214285Y-117856351D01*
X131214285Y-117856351D02*
X131190476Y-117761113D01*
X131190476Y-117761113D02*
X131166666Y-117713494D01*
X131166666Y-117713494D02*
X131119047Y-117665875D01*
X131119047Y-117665875D02*
X131047619Y-117642065D01*
X131047619Y-117642065D02*
X131000000Y-117642065D01*
X131000000Y-117642065D02*
X130928571Y-117665875D01*
X130928571Y-117665875D02*
X130904762Y-117689684D01*
X130619047Y-118142065D02*
X130666666Y-118118256D01*
X130666666Y-118118256D02*
X130690476Y-118094446D01*
X130690476Y-118094446D02*
X130714285Y-118046827D01*
X130714285Y-118046827D02*
X130714285Y-117903970D01*
X130714285Y-117903970D02*
X130690476Y-117856351D01*
X130690476Y-117856351D02*
X130666666Y-117832541D01*
X130666666Y-117832541D02*
X130619047Y-117808732D01*
X130619047Y-117808732D02*
X130547619Y-117808732D01*
X130547619Y-117808732D02*
X130500000Y-117832541D01*
X130500000Y-117832541D02*
X130476190Y-117856351D01*
X130476190Y-117856351D02*
X130452381Y-117903970D01*
X130452381Y-117903970D02*
X130452381Y-118046827D01*
X130452381Y-118046827D02*
X130476190Y-118094446D01*
X130476190Y-118094446D02*
X130500000Y-118118256D01*
X130500000Y-118118256D02*
X130547619Y-118142065D01*
X130547619Y-118142065D02*
X130619047Y-118142065D01*
X130023809Y-118142065D02*
X130023809Y-117642065D01*
X130023809Y-118118256D02*
X130071428Y-118142065D01*
X130071428Y-118142065D02*
X130166666Y-118142065D01*
X130166666Y-118142065D02*
X130214285Y-118118256D01*
X130214285Y-118118256D02*
X130238095Y-118094446D01*
X130238095Y-118094446D02*
X130261904Y-118046827D01*
X130261904Y-118046827D02*
X130261904Y-117903970D01*
X130261904Y-117903970D02*
X130238095Y-117856351D01*
X130238095Y-117856351D02*
X130214285Y-117832541D01*
X130214285Y-117832541D02*
X130166666Y-117808732D01*
X130166666Y-117808732D02*
X130071428Y-117808732D01*
X130071428Y-117808732D02*
X130023809Y-117832541D01*
X129785714Y-118142065D02*
X129785714Y-117808732D01*
X129785714Y-117642065D02*
X129809523Y-117665875D01*
X129809523Y-117665875D02*
X129785714Y-117689684D01*
X129785714Y-117689684D02*
X129761904Y-117665875D01*
X129761904Y-117665875D02*
X129785714Y-117642065D01*
X129785714Y-117642065D02*
X129785714Y-117689684D01*
X129547619Y-117808732D02*
X129547619Y-118142065D01*
X129547619Y-117856351D02*
X129523809Y-117832541D01*
X129523809Y-117832541D02*
X129476190Y-117808732D01*
X129476190Y-117808732D02*
X129404762Y-117808732D01*
X129404762Y-117808732D02*
X129357143Y-117832541D01*
X129357143Y-117832541D02*
X129333333Y-117880160D01*
X129333333Y-117880160D02*
X129333333Y-118142065D01*
X128880952Y-117808732D02*
X128880952Y-118213494D01*
X128880952Y-118213494D02*
X128904762Y-118261113D01*
X128904762Y-118261113D02*
X128928571Y-118284922D01*
X128928571Y-118284922D02*
X128976190Y-118308732D01*
X128976190Y-118308732D02*
X129047619Y-118308732D01*
X129047619Y-118308732D02*
X129095238Y-118284922D01*
X128880952Y-118118256D02*
X128928571Y-118142065D01*
X128928571Y-118142065D02*
X129023809Y-118142065D01*
X129023809Y-118142065D02*
X129071428Y-118118256D01*
X129071428Y-118118256D02*
X129095238Y-118094446D01*
X129095238Y-118094446D02*
X129119047Y-118046827D01*
X129119047Y-118046827D02*
X129119047Y-117903970D01*
X129119047Y-117903970D02*
X129095238Y-117856351D01*
X129095238Y-117856351D02*
X129071428Y-117832541D01*
X129071428Y-117832541D02*
X129023809Y-117808732D01*
X129023809Y-117808732D02*
X128928571Y-117808732D01*
X128928571Y-117808732D02*
X128880952Y-117832541D01*
D11*
X163104819Y-104880952D02*
X163914342Y-104880952D01*
X163914342Y-104880952D02*
X164009580Y-104928571D01*
X164009580Y-104928571D02*
X164057200Y-104976190D01*
X164057200Y-104976190D02*
X164104819Y-105071428D01*
X164104819Y-105071428D02*
X164104819Y-105261904D01*
X164104819Y-105261904D02*
X164057200Y-105357142D01*
X164057200Y-105357142D02*
X164009580Y-105404761D01*
X164009580Y-105404761D02*
X163914342Y-105452380D01*
X163914342Y-105452380D02*
X163104819Y-105452380D01*
X163438152Y-106357142D02*
X164104819Y-106357142D01*
X163057200Y-106119047D02*
X163771485Y-105880952D01*
X163771485Y-105880952D02*
X163771485Y-106499999D01*
X164200057Y-106642857D02*
X164200057Y-107404761D01*
X164104819Y-108166666D02*
X164104819Y-107595238D01*
X164104819Y-107880952D02*
X163104819Y-107880952D01*
X163104819Y-107880952D02*
X163247676Y-107785714D01*
X163247676Y-107785714D02*
X163342914Y-107690476D01*
X163342914Y-107690476D02*
X163390533Y-107595238D01*
X156869047Y-93187319D02*
X156869047Y-93996842D01*
X156869047Y-93996842D02*
X156821428Y-94092080D01*
X156821428Y-94092080D02*
X156773809Y-94139700D01*
X156773809Y-94139700D02*
X156678571Y-94187319D01*
X156678571Y-94187319D02*
X156488095Y-94187319D01*
X156488095Y-94187319D02*
X156392857Y-94139700D01*
X156392857Y-94139700D02*
X156345238Y-94092080D01*
X156345238Y-94092080D02*
X156297619Y-93996842D01*
X156297619Y-93996842D02*
X156297619Y-93187319D01*
X155869047Y-93282557D02*
X155821428Y-93234938D01*
X155821428Y-93234938D02*
X155726190Y-93187319D01*
X155726190Y-93187319D02*
X155488095Y-93187319D01*
X155488095Y-93187319D02*
X155392857Y-93234938D01*
X155392857Y-93234938D02*
X155345238Y-93282557D01*
X155345238Y-93282557D02*
X155297619Y-93377795D01*
X155297619Y-93377795D02*
X155297619Y-93473033D01*
X155297619Y-93473033D02*
X155345238Y-93615890D01*
X155345238Y-93615890D02*
X155916666Y-94187319D01*
X155916666Y-94187319D02*
X155297619Y-94187319D01*
X155107143Y-94282557D02*
X154345238Y-94282557D01*
X153583333Y-94187319D02*
X154154761Y-94187319D01*
X153869047Y-94187319D02*
X153869047Y-93187319D01*
X153869047Y-93187319D02*
X153964285Y-93330176D01*
X153964285Y-93330176D02*
X154059523Y-93425414D01*
X154059523Y-93425414D02*
X154154761Y-93473033D01*
X146464819Y-105380952D02*
X147274342Y-105380952D01*
X147274342Y-105380952D02*
X147369580Y-105428571D01*
X147369580Y-105428571D02*
X147417200Y-105476190D01*
X147417200Y-105476190D02*
X147464819Y-105571428D01*
X147464819Y-105571428D02*
X147464819Y-105761904D01*
X147464819Y-105761904D02*
X147417200Y-105857142D01*
X147417200Y-105857142D02*
X147369580Y-105904761D01*
X147369580Y-105904761D02*
X147274342Y-105952380D01*
X147274342Y-105952380D02*
X146464819Y-105952380D01*
X146464819Y-106333333D02*
X146464819Y-106952380D01*
X146464819Y-106952380D02*
X146845771Y-106619047D01*
X146845771Y-106619047D02*
X146845771Y-106761904D01*
X146845771Y-106761904D02*
X146893390Y-106857142D01*
X146893390Y-106857142D02*
X146941009Y-106904761D01*
X146941009Y-106904761D02*
X147036247Y-106952380D01*
X147036247Y-106952380D02*
X147274342Y-106952380D01*
X147274342Y-106952380D02*
X147369580Y-106904761D01*
X147369580Y-106904761D02*
X147417200Y-106857142D01*
X147417200Y-106857142D02*
X147464819Y-106761904D01*
X147464819Y-106761904D02*
X147464819Y-106476190D01*
X147464819Y-106476190D02*
X147417200Y-106380952D01*
X147417200Y-106380952D02*
X147369580Y-106333333D01*
X147560057Y-107142857D02*
X147560057Y-107904761D01*
X147464819Y-108666666D02*
X147464819Y-108095238D01*
X147464819Y-108380952D02*
X146464819Y-108380952D01*
X146464819Y-108380952D02*
X146607676Y-108285714D01*
X146607676Y-108285714D02*
X146702914Y-108190476D01*
X146702914Y-108190476D02*
X146750533Y-108095238D01*
X156369047Y-101187319D02*
X156369047Y-101996842D01*
X156369047Y-101996842D02*
X156321428Y-102092080D01*
X156321428Y-102092080D02*
X156273809Y-102139700D01*
X156273809Y-102139700D02*
X156178571Y-102187319D01*
X156178571Y-102187319D02*
X155988095Y-102187319D01*
X155988095Y-102187319D02*
X155892857Y-102139700D01*
X155892857Y-102139700D02*
X155845238Y-102092080D01*
X155845238Y-102092080D02*
X155797619Y-101996842D01*
X155797619Y-101996842D02*
X155797619Y-101187319D01*
X154797619Y-102187319D02*
X155369047Y-102187319D01*
X155083333Y-102187319D02*
X155083333Y-101187319D01*
X155083333Y-101187319D02*
X155178571Y-101330176D01*
X155178571Y-101330176D02*
X155273809Y-101425414D01*
X155273809Y-101425414D02*
X155369047Y-101473033D01*
X154607143Y-102282557D02*
X153845238Y-102282557D01*
X153083333Y-102187319D02*
X153654761Y-102187319D01*
X153369047Y-102187319D02*
X153369047Y-101187319D01*
X153369047Y-101187319D02*
X153464285Y-101330176D01*
X153464285Y-101330176D02*
X153559523Y-101425414D01*
X153559523Y-101425414D02*
X153654761Y-101473033D01*
D12*
%TO.C,U4_1*%
X164490000Y-102640000D02*
X164725000Y-102640000D01*
X164490000Y-106500000D02*
X164490000Y-102640000D01*
X164490000Y-106500000D02*
X164490000Y-110360000D01*
X164490000Y-110360000D02*
X164725000Y-110360000D01*
X177510000Y-102640000D02*
X177275000Y-102640000D01*
X177510000Y-106500000D02*
X177510000Y-102640000D01*
X177510000Y-106500000D02*
X177510000Y-110360000D01*
X177510000Y-110360000D02*
X177275000Y-110360000D01*
X164725000Y-101787500D02*
X164255000Y-102127500D01*
X164255000Y-101447500D01*
X164725000Y-101787500D01*
G36*
X164725000Y-101787500D02*
G01*
X164255000Y-102127500D01*
X164255000Y-101447500D01*
X164725000Y-101787500D01*
G37*
%TO.C,U2_1*%
X152640000Y-94952500D02*
X152640000Y-95427500D01*
X152640000Y-100172500D02*
X152640000Y-99697500D01*
X153115000Y-94952500D02*
X152640000Y-94952500D01*
X153115000Y-100172500D02*
X152640000Y-100172500D01*
X157385000Y-94952500D02*
X157560000Y-94952500D01*
X157385000Y-100172500D02*
X157860000Y-100172500D01*
X157860000Y-95427500D02*
X157860000Y-95192500D01*
X157860000Y-100172500D02*
X157860000Y-99697500D01*
X157860000Y-94952500D02*
X157620000Y-94622500D01*
X158100000Y-94622500D01*
X157860000Y-94952500D01*
G36*
X157860000Y-94952500D02*
G01*
X157620000Y-94622500D01*
X158100000Y-94622500D01*
X157860000Y-94952500D01*
G37*
%TO.C,U3_1*%
X133990000Y-103140000D02*
X134225000Y-103140000D01*
X133990000Y-107000000D02*
X133990000Y-103140000D01*
X133990000Y-107000000D02*
X133990000Y-110860000D01*
X133990000Y-110860000D02*
X134225000Y-110860000D01*
X147010000Y-103140000D02*
X146775000Y-103140000D01*
X147010000Y-107000000D02*
X147010000Y-103140000D01*
X147010000Y-107000000D02*
X147010000Y-110860000D01*
X147010000Y-110860000D02*
X146775000Y-110860000D01*
X147245000Y-112052500D02*
X146775000Y-111712500D01*
X147245000Y-111372500D01*
X147245000Y-112052500D01*
G36*
X147245000Y-112052500D02*
G01*
X146775000Y-111712500D01*
X147245000Y-111372500D01*
X147245000Y-112052500D01*
G37*
%TO.C,U1_1*%
X151140000Y-102952500D02*
X151140000Y-103427500D01*
X151140000Y-110172500D02*
X151140000Y-109697500D01*
X151615000Y-102952500D02*
X151140000Y-102952500D01*
X151615000Y-110172500D02*
X151140000Y-110172500D01*
X157885000Y-102952500D02*
X158060000Y-102952500D01*
X157885000Y-110172500D02*
X158360000Y-110172500D01*
X158360000Y-103427500D02*
X158360000Y-103192500D01*
X158360000Y-110172500D02*
X158360000Y-109697500D01*
X158360000Y-102952500D02*
X158120000Y-102622500D01*
X158600000Y-102622500D01*
X158360000Y-102952500D01*
G36*
X158360000Y-102952500D02*
G01*
X158120000Y-102622500D01*
X158600000Y-102622500D01*
X158360000Y-102952500D01*
G37*
%TD*%
M02*
