M48
; DRILL file {KiCad 9.0.2+dfsg-1} date 2026-07-26T22:33:21-0400
; FORMAT={-:-/ absolute / metric / decimal}
; #@! TF.CreationDate,2026-07-26T22:33:21-04:00
; #@! TF.GenerationSoftware,Kicad,Pcbnew,9.0.2+dfsg-1
; #@! TF.FileFunction,MixedPlating,1,2
FMAT,2
METRIC
; #@! TA.AperFunction,Plated,PTH,ViaDrill
T1C0.300
; #@! TA.AperFunction,Plated,PTH,ViaDrill
T2C0.400
; #@! TA.AperFunction,Plated,PTH,ComponentDrill
T3C1.000
%
G90
G05
T1
X132.275Y-112.087
X135.921Y-105.163
X136.011Y-113.729
X141.433Y-107.231
X142.798Y-107.85
X143.397Y-100.579
X143.45Y-108.774
X145.195Y-100.64
X145.584Y-107.76
X146.119Y-104.147
X146.217Y-110.079
X146.356Y-100.108
X147.111Y-104.716
X147.202Y-112.793
X147.369Y-102.503
X147.37Y-101.317
X147.811Y-111.467
X149.099Y-107.57
X149.212Y-108.459
X149.736Y-99.464
X149.964Y-100.274
X150.149Y-108.649
X150.272Y-103.392
X150.306Y-111.452
X150.377Y-105.462
X150.789Y-110.414
X157.194Y-110.939
X158.938Y-103.363
X159.161Y-105.628
X160.045Y-107.936
X160.227Y-110.165
X161.181Y-106.977
X161.284Y-116.79
X161.327Y-105.888
X161.441Y-103.775
X161.843Y-101.341
X161.911Y-104.976
X163.152Y-112.299
X163.251Y-106.751
X163.308Y-102.603
X164.113Y-103.838
X164.966Y-104.98
X164.976Y-103.9
X165.429Y-108.939
X166.266Y-106.041
X167.037Y-104.774
X167.165Y-99.157
X167.811Y-108.387
X167.911Y-104.248
X171.802Y-106.221
X172.751Y-104.033
X173.446Y-103.625
X175.123Y-99.956
X177.646Y-101.696
X178.554Y-102.395
T2
X132.587Y-108.241
X160.08Y-106.24
X164.216Y-107.053
T3
X148.76Y-114.0
X151.3Y-114.0
X153.84Y-114.0
X156.38Y-114.0
X158.92Y-114.0
X161.46Y-114.0
X164.0Y-114.0
X166.54Y-114.0
M30
