<?xml version="1.0" encoding="UTF-8"?>
<!-- Serenity-Class Tiltrotor UAV — Build Guide — Step 08 — Gear Nozzle -->
<!-- © 2026 Steve Griffing PE(CSE) CISSP-ISSEP CPP  CC BY 4.0 -->
<!-- Hull: Peter Farell CC BY 4.0 | Nozzle: BamJr CC BY 4.0 -->
<!-- Visual: Firefly/Serenity © Joss Whedon/Mutant Enemy/Universal -->
<svg xmlns="http://www.w3.org/2000/svg" viewBox="0 0 1200 900" width="1200" height="900">
<rect width="1200" height="900" fill="#f5f0e8"/>
<rect x="0" y="0" width="1200" height="64" fill="#006db7"/>
<text x="24" y="24" font-family="'Arial','Helvetica',sans-serif" font-weight="bold" font-size="14" fill="#ffffff" letter-spacing="2">SERENITY-CLASS TILTROTOR UAV</text>
<text x="24" y="46" font-family="'Arial','Helvetica',sans-serif" font-size="11" fill="#c8dff0">Steve Griffing, PE(CSE), CISSP-ISSEP, CPP · CC BY 4.0 · 2026</text>
<rect x="1040" y="8" width="144" height="48" rx="6" fill="#ff7518"/>
<text x="1112" y="29" text-anchor="middle" font-family="'Arial','Helvetica',sans-serif" font-weight="bold" font-size="11" fill="#ffffff">STEP</text>
<text x="1112" y="50" text-anchor="middle" font-family="'Arial','Helvetica',sans-serif" font-weight="bold" font-size="22" fill="#ffffff">8 / 18</text>
<rect x="0" y="64" width="1200" height="40" fill="#dde4ea" rx="0"/>
<text x="24" y="90" font-family="'Arial','Helvetica',sans-serif" font-weight="bold" font-size="16" fill="#006db7">PHASE 3 — GEAR NOZZLE ASSEMBLY</text>
<text x="500" y="90" font-family="'Arial','Helvetica',sans-serif" font-size="12" fill="#607080">BamJr remix CC BY 4.0 · sector/bevel/crown gear train</text>
<rect x="0" y="872" width="1200" height="28" fill="#006db7"/>
<text x="600" y="890" text-anchor="middle" font-family="'Arial','Helvetica',sans-serif" font-size="9" fill="#c8dff0">Hull: Peter Farell CC BY 4.0 · Nozzle: BamJr CC BY 4.0 · Visual inspiration: Firefly/Serenity © Joss Whedon/Mutant Enemy/Universal — Fan engineering work</text>
<rect x="16" y="112" width="720" height="752" rx="8" fill="#fffdf6" stroke="#dde4ea" stroke-width="1.5"/>
<rect x="752" y="112" width="432" height="752" rx="8" fill="#fffdf6" stroke="#dde4ea" stroke-width="1.5"/>
<rect x="760" y="120" width="416" height="180" rx="8" fill="#fffdf6" stroke="#006db7" stroke-width="2"/>
<rect x="760" y="120" width="416" height="28" rx="8" fill="#006db7"/>
<rect x="760" y="136" width="416" height="12" fill="#006db7"/>
<text x="968" y="139" text-anchor="middle" font-family="'Arial','Helvetica',sans-serif" font-weight="bold" font-size="11" fill="#ffffff">PARTS NEEDED</text>
<rect x="768" y="145" width="26" height="16" rx="4" fill="#607080" stroke="#222222" stroke-width="1"/>
<text x="781" y="158" text-anchor="middle" font-family="'Arial','Helvetica',sans-serif" font-weight="bold" font-size="10" fill="#ffffff">2×</text>
<text x="800" y="158" font-family="'Arial','Helvetica',sans-serif" font-size="10" fill="#222222">Nozzle outer housing</text>
<rect x="768" y="167" width="26" height="16" rx="4" fill="#006db7" stroke="#222222" stroke-width="1"/>
<text x="781" y="180" text-anchor="middle" font-family="'Arial','Helvetica',sans-serif" font-weight="bold" font-size="10" fill="#ffffff">2×</text>
<text x="800" y="180" font-family="'Arial','Helvetica',sans-serif" font-size="10" fill="#222222">Nozzle inner ring 70mm</text>
<rect x="768" y="189" width="26" height="16" rx="4" fill="#00838f" stroke="#222222" stroke-width="1"/>
<text x="781" y="202" text-anchor="middle" font-family="'Arial','Helvetica',sans-serif" font-weight="bold" font-size="10" fill="#ffffff">16×</text>
<text x="800" y="202" font-family="'Arial','Helvetica',sans-serif" font-size="10" fill="#222222">Flaps × 8 per nacelle</text>
<rect x="768" y="211" width="26" height="16" rx="4" fill="#f5c518" stroke="#222222" stroke-width="1"/>
<text x="781" y="224" text-anchor="middle" font-family="'Arial','Helvetica',sans-serif" font-weight="bold" font-size="10" fill="#ffffff">2×</text>
<text x="800" y="224" font-family="'Arial','Helvetica',sans-serif" font-size="10" fill="#222222">Sector gear 22mm</text>
<rect x="768" y="233" width="26" height="16" rx="4" fill="#6a1b9a" stroke="#222222" stroke-width="1"/>
<text x="781" y="246" text-anchor="middle" font-family="'Arial','Helvetica',sans-serif" font-weight="bold" font-size="10" fill="#ffffff">2×</text>
<text x="800" y="246" font-family="'Arial','Helvetica',sans-serif" font-size="10" fill="#222222">Crown pinion 10T M0.5</text>
<rect x="768" y="255" width="26" height="16" rx="4" fill="#2e7d32" stroke="#222222" stroke-width="1"/>
<text x="781" y="268" text-anchor="middle" font-family="'Arial','Helvetica',sans-serif" font-weight="bold" font-size="10" fill="#ffffff">4×</text>
<text x="800" y="268" font-family="'Arial','Helvetica',sans-serif" font-size="10" fill="#222222">Bevel pair 14T M0.5</text>
<rect x="760" y="308" width="416" height="216" rx="8" fill="#fffdf6" stroke="#607080" stroke-width="1.5"/>
<rect x="760" y="308" width="416" height="28" rx="8" fill="#607080"/>
<rect x="760" y="324" width="416" height="12" fill="#607080"/>
<text x="968" y="327" text-anchor="middle" font-family="'Arial','Helvetica',sans-serif" font-weight="bold" font-size="11" fill="#ffffff">INSTRUCTIONS</text>
<circle cx="776" cy="343" r="9" fill="#006db7"/>
<text x="776" y="347" text-anchor="middle" font-family="'Arial','Helvetica',sans-serif" font-weight="bold" font-size="10" fill="#ffffff">1</text>
<text x="792" y="348" font-family="'Arial','Helvetica',sans-serif" font-size="10" fill="#222222">Insert M1.5×8mm pivot pins through all 8 flap hinge holes · oil each pin</text>
<circle cx="776" cy="367" r="9" fill="#006db7"/>
<text x="776" y="371" text-anchor="middle" font-family="'Arial','Helvetica',sans-serif" font-weight="bold" font-size="10" fill="#ffffff">2</text>
<text x="792" y="372" font-family="'Arial','Helvetica',sans-serif" font-size="10" fill="#222222">Thread inner ring into outer housing — rotate smoothly with light pressure</text>
<circle cx="776" cy="391" r="9" fill="#006db7"/>
<text x="776" y="395" text-anchor="middle" font-family="'Arial','Helvetica',sans-serif" font-weight="bold" font-size="10" fill="#ffffff">3</text>
<text x="792" y="396" font-family="'Arial','Helvetica',sans-serif" font-size="10" fill="#222222">Mount SG90 bracket on outer housing (FUSELAGE nozzle only — NOT nacelle)</text>
<circle cx="776" cy="415" r="9" fill="#006db7"/>
<text x="776" y="419" text-anchor="middle" font-family="'Arial','Helvetica',sans-serif" font-weight="bold" font-size="10" fill="#ffffff">4</text>
<text x="792" y="420" font-family="'Arial','Helvetica',sans-serif" font-size="10" fill="#222222">Bayonet-lock assembled nozzle onto nacelle aft end (quarter turn)</text>
<circle cx="776" cy="439" r="9" fill="#006db7"/>
<text x="776" y="443" text-anchor="middle" font-family="'Arial','Helvetica',sans-serif" font-weight="bold" font-size="10" fill="#ffffff">5</text>
<text x="792" y="444" font-family="'Arial','Helvetica',sans-serif" font-size="10" fill="#222222">Press-fit crown pinion onto 3mm CF longitudinal shaft · Loctite 638</text>
<circle cx="776" cy="463" r="9" fill="#006db7"/>
<text x="776" y="467" text-anchor="middle" font-family="'Arial','Helvetica',sans-serif" font-weight="bold" font-size="10" fill="#ffffff">6</text>
<text x="792" y="468" font-family="'Arial','Helvetica',sans-serif" font-size="10" fill="#222222">Install sector gear on tilt bracket · adjust mesh for 0.1-0.2mm backlash</text>
<circle cx="776" cy="487" r="9" fill="#006db7"/>
<text x="776" y="491" text-anchor="middle" font-family="'Arial','Helvetica',sans-serif" font-weight="bold" font-size="10" fill="#ffffff">7</text>
<text x="792" y="492" font-family="'Arial','Helvetica',sans-serif" font-size="10" fill="#222222">Sweep nacelle 0°→90°: verify nozzle closes/opens smoothly</text>
<rect x="760" y="536" width="416" height="36" rx="6" fill="#fffac0" stroke="#ff7518" stroke-width="2"/><text x="778" y="551" font-family="'Arial','Helvetica',sans-serif" font-weight="bold" font-size="14" fill="#ff7518">⚠</text><text x="796" y="558" font-family="'Arial','Helvetica',sans-serif" font-size="10" fill="#222222">Gear ratio: 90° nacelle = 70.7° ring rotation. Verify exit: 36mm closed, 42mm open</text>
<rect x="760" y="580" width="416" height="32" rx="6" fill="#b2ebf2" stroke="#00838f" stroke-width="1.5"/><text x="770" y="594" font-family="'Arial','Helvetica',sans-serif" font-weight="bold" font-size="10" fill="#00838f">ℹ</text><text x="786" y="600" font-family="'Arial','Helvetica',sans-serif" font-size="9.5" fill="#222222">Nacelle nozzle has NO servo — passive gear coupling only</text>
<rect x="760" y="620" width="416" height="32" rx="6" fill="#b2ebf2" stroke="#00838f" stroke-width="1.5"/><text x="770" y="634" font-family="'Arial','Helvetica',sans-serif" font-weight="bold" font-size="10" fill="#00838f">ℹ</text><text x="786" y="640" font-family="'Arial','Helvetica',sans-serif" font-size="9.5" fill="#222222">Fuselage 40mm nozzle uses SG90 servo → Pico 2 GP15</text>
<polygon points="352.4,387.0 341.7,382.3 341.7,400.3 352.4,405.0" fill="#dde4ea" stroke="#607080" stroke-width="2"/>
<polygon points="341.7,382.3 329.3,379.3 329.3,397.3 341.7,400.3" fill="#dde4ea" stroke="#607080" stroke-width="2"/>
<polygon points="329.3,379.3 316.0,378.3 316.0,396.3 329.3,397.3" fill="#dde4ea" stroke="#607080" stroke-width="2"/>
<polygon points="316.0,378.3 302.7,379.3 302.7,397.3 316.0,396.3" fill="#dde4ea" stroke="#607080" stroke-width="2"/>
<polygon points="302.7,379.3 290.3,382.3 290.3,400.3 302.7,397.3" fill="#dde4ea" stroke="#607080" stroke-width="2"/>
<polygon points="290.3,382.3 279.6,387.0 279.6,405.0 290.3,400.3" fill="#dde4ea" stroke="#607080" stroke-width="2"/>
<polygon points="279.6,387.0 271.5,393.2 271.5,411.2 279.6,405.0" fill="#dde4ea" stroke="#607080" stroke-width="2"/>
<polygon points="271.5,393.2 266.3,400.3 266.3,418.3 271.5,411.2" fill="#dde4ea" stroke="#607080" stroke-width="2"/>
<polygon points="266.3,400.3 264.6,408.0 264.6,426.0 266.3,418.3" fill="#dde4ea" stroke="#607080" stroke-width="2"/>
<polygon points="264.6,408.0 266.3,415.7 266.3,433.7 264.6,426.0" fill="#dde4ea" stroke="#607080" stroke-width="2"/>
<polygon points="266.3,415.7 271.5,422.8 271.5,440.8 266.3,433.7" fill="#dde4ea" stroke="#607080" stroke-width="2"/>
<polygon points="271.5,422.8 279.6,429.0 279.6,447.0 271.5,440.8" fill="#dde4ea" stroke="#607080" stroke-width="2"/>
<polygon points="279.6,429.0 290.3,433.7 290.3,451.7 279.6,447.0" fill="#dde4ea" stroke="#607080" stroke-width="2"/>
<polygon points="290.3,433.7 302.7,436.7 302.7,454.7 290.3,451.7" fill="#dde4ea" stroke="#607080" stroke-width="2"/>
<polygon points="302.7,436.7 316.0,437.7 316.0,455.7 302.7,454.7" fill="#dde4ea" stroke="#607080" stroke-width="2"/>
<polygon points="316.0,437.7 329.3,436.7 329.3,454.7 316.0,455.7" fill="#dde4ea" stroke="#607080" stroke-width="2"/>
<polygon points="329.3,436.7 341.7,433.7 341.7,451.7 329.3,454.7" fill="#dde4ea" stroke="#607080" stroke-width="2"/>
<polygon points="341.7,433.7 352.4,429.0 352.4,447.0 341.7,451.7" fill="#dde4ea" stroke="#607080" stroke-width="2"/>
<polygon points="352.4,429.0 360.5,422.8 360.5,440.8 352.4,447.0" fill="#dde4ea" stroke="#607080" stroke-width="2"/>
<polygon points="360.5,422.8 365.7,415.7 365.7,433.7 360.5,440.8" fill="#dde4ea" stroke="#607080" stroke-width="2"/>
<polygon points="365.7,415.7 367.4,408.0 367.4,426.0 365.7,433.7" fill="#dde4ea" stroke="#607080" stroke-width="2"/>
<polygon points="367.4,408.0 365.7,400.3 365.7,418.3 367.4,426.0" fill="#dde4ea" stroke="#607080" stroke-width="2"/>
<polygon points="365.7,400.3 360.5,393.2 360.5,411.2 365.7,418.3" fill="#dde4ea" stroke="#607080" stroke-width="2"/>
<polygon points="360.5,393.2 352.4,387.0 352.4,405.0 360.5,411.2" fill="#dde4ea" stroke="#607080" stroke-width="2"/>
<polygon points="352.4,405.0 341.7,400.3 329.3,397.3 316.0,396.3 302.7,397.3 290.3,400.3 279.6,405.0 271.5,411.2 266.3,418.3 264.6,426.0 266.3,433.7 271.5,440.8 279.6,447.0 290.3,451.7 302.7,454.7 316.0,455.7 329.3,454.7 341.7,451.7 352.4,447.0 360.5,440.8 365.7,433.7 367.4,426.0 365.7,418.3 360.5,411.2" fill="#ffffff" stroke="#607080" stroke-width="2"/>
<text x="316" y="518" text-anchor="middle" font-family="'Arial','Helvetica',sans-serif" font-weight="bold" font-size="9" fill="#607080">OUTER HOUSING</text>
<polygon points="466.3,400.5 457.4,396.6 457.4,408.6 466.3,412.5" fill="#c8dff0" stroke="#006db7" stroke-width="2"/>
<polygon points="457.4,396.6 447.1,394.1 447.1,406.1 457.4,408.6" fill="#c8dff0" stroke="#006db7" stroke-width="2"/>
<polygon points="447.1,394.1 436.0,393.3 436.0,405.3 447.1,406.1" fill="#c8dff0" stroke="#006db7" stroke-width="2"/>
<polygon points="436.0,393.3 424.9,394.1 424.9,406.1 436.0,405.3" fill="#c8dff0" stroke="#006db7" stroke-width="2"/>
<polygon points="424.9,394.1 414.6,396.6 414.6,408.6 424.9,406.1" fill="#c8dff0" stroke="#006db7" stroke-width="2"/>
<polygon points="414.6,396.6 405.7,400.5 405.7,412.5 414.6,408.6" fill="#c8dff0" stroke="#006db7" stroke-width="2"/>
<polygon points="405.7,400.5 398.9,405.6 398.9,417.6 405.7,412.5" fill="#c8dff0" stroke="#006db7" stroke-width="2"/>
<polygon points="398.9,405.6 394.6,411.6 394.6,423.6 398.9,417.6" fill="#c8dff0" stroke="#006db7" stroke-width="2"/>
<polygon points="394.6,411.6 393.1,418.0 393.1,430.0 394.6,423.6" fill="#c8dff0" stroke="#006db7" stroke-width="2"/>
<polygon points="393.1,418.0 394.6,424.4 394.6,436.4 393.1,430.0" fill="#c8dff0" stroke="#006db7" stroke-width="2"/>
<polygon points="394.6,424.4 398.9,430.4 398.9,442.4 394.6,436.4" fill="#c8dff0" stroke="#006db7" stroke-width="2"/>
<polygon points="398.9,430.4 405.7,435.5 405.7,447.5 398.9,442.4" fill="#c8dff0" stroke="#006db7" stroke-width="2"/>
<polygon points="405.7,435.5 414.6,439.4 414.6,451.4 405.7,447.5" fill="#c8dff0" stroke="#006db7" stroke-width="2"/>
<polygon points="414.6,439.4 424.9,441.9 424.9,453.9 414.6,451.4" fill="#c8dff0" stroke="#006db7" stroke-width="2"/>
<polygon points="424.9,441.9 436.0,442.7 436.0,454.7 424.9,453.9" fill="#c8dff0" stroke="#006db7" stroke-width="2"/>
<polygon points="436.0,442.7 447.1,441.9 447.1,453.9 436.0,454.7" fill="#c8dff0" stroke="#006db7" stroke-width="2"/>
<polygon points="447.1,441.9 457.4,439.4 457.4,451.4 447.1,453.9" fill="#c8dff0" stroke="#006db7" stroke-width="2"/>
<polygon points="457.4,439.4 466.3,435.5 466.3,447.5 457.4,451.4" fill="#c8dff0" stroke="#006db7" stroke-width="2"/>
<polygon points="466.3,435.5 473.1,430.4 473.1,442.4 466.3,447.5" fill="#c8dff0" stroke="#006db7" stroke-width="2"/>
<polygon points="473.1,430.4 477.4,424.4 477.4,436.4 473.1,442.4" fill="#c8dff0" stroke="#006db7" stroke-width="2"/>
<polygon points="477.4,424.4 478.9,418.0 478.9,430.0 477.4,436.4" fill="#c8dff0" stroke="#006db7" stroke-width="2"/>
<polygon points="478.9,418.0 477.4,411.6 477.4,423.6 478.9,430.0" fill="#c8dff0" stroke="#006db7" stroke-width="2"/>
<polygon points="477.4,411.6 473.1,405.6 473.1,417.6 477.4,423.6" fill="#c8dff0" stroke="#006db7" stroke-width="2"/>
<polygon points="473.1,405.6 466.3,400.5 466.3,412.5 473.1,417.6" fill="#c8dff0" stroke="#006db7" stroke-width="2"/>
<polygon points="466.3,412.5 457.4,408.6 447.1,406.1 436.0,405.3 424.9,406.1 414.6,408.6 405.7,412.5 398.9,417.6 394.6,423.6 393.1,430.0 394.6,436.4 398.9,442.4 405.7,447.5 414.6,451.4 424.9,453.9 436.0,454.7 447.1,453.9 457.4,451.4 466.3,447.5 473.1,442.4 477.4,436.4 478.9,430.0 477.4,423.6 473.1,417.6" fill="rgba(200,230,255,0.5)" stroke="#006db7" stroke-width="2"/>
<polygon points="460.2,404.0 453.1,400.9 453.1,412.9 460.2,416.0" fill="rgba(150,200,255,0.2)" stroke="#006db7" stroke-width="1"/>
<polygon points="453.1,400.9 444.9,398.9 444.9,410.9 453.1,412.9" fill="rgba(150,200,255,0.2)" stroke="#006db7" stroke-width="1"/>
<polygon points="444.9,398.9 436.0,398.2 436.0,410.2 444.9,410.9" fill="rgba(150,200,255,0.2)" stroke="#006db7" stroke-width="1"/>
<polygon points="436.0,398.2 427.1,398.9 427.1,410.9 436.0,410.2" fill="rgba(150,200,255,0.2)" stroke="#006db7" stroke-width="1"/>
<polygon points="427.1,398.9 418.9,400.9 418.9,412.9 427.1,410.9" fill="rgba(150,200,255,0.2)" stroke="#006db7" stroke-width="1"/>
<polygon points="418.9,400.9 411.8,404.0 411.8,416.0 418.9,412.9" fill="rgba(150,200,255,0.2)" stroke="#006db7" stroke-width="1"/>
<polygon points="411.8,404.0 406.3,408.1 406.3,420.1 411.8,416.0" fill="rgba(150,200,255,0.2)" stroke="#006db7" stroke-width="1"/>
<polygon points="406.3,408.1 402.9,412.9 402.9,424.9 406.3,420.1" fill="rgba(150,200,255,0.2)" stroke="#006db7" stroke-width="1"/>
<polygon points="402.9,412.9 401.7,418.0 401.7,430.0 402.9,424.9" fill="rgba(150,200,255,0.2)" stroke="#006db7" stroke-width="1"/>
<polygon points="401.7,418.0 402.9,423.1 402.9,435.1 401.7,430.0" fill="rgba(150,200,255,0.2)" stroke="#006db7" stroke-width="1"/>
<polygon points="402.9,423.1 406.3,427.9 406.3,439.9 402.9,435.1" fill="rgba(150,200,255,0.2)" stroke="#006db7" stroke-width="1"/>
<polygon points="406.3,427.9 411.8,432.0 411.8,444.0 406.3,439.9" fill="rgba(150,200,255,0.2)" stroke="#006db7" stroke-width="1"/>
<polygon points="411.8,432.0 418.9,435.1 418.9,447.1 411.8,444.0" fill="rgba(150,200,255,0.2)" stroke="#006db7" stroke-width="1"/>
<polygon points="418.9,435.1 427.1,437.1 427.1,449.1 418.9,447.1" fill="rgba(150,200,255,0.2)" stroke="#006db7" stroke-width="1"/>
<polygon points="427.1,437.1 436.0,437.8 436.0,449.8 427.1,449.1" fill="rgba(150,200,255,0.2)" stroke="#006db7" stroke-width="1"/>
<polygon points="436.0,437.8 444.9,437.1 444.9,449.1 436.0,449.8" fill="rgba(150,200,255,0.2)" stroke="#006db7" stroke-width="1"/>
<polygon points="444.9,437.1 453.1,435.1 453.1,447.1 444.9,449.1" fill="rgba(150,200,255,0.2)" stroke="#006db7" stroke-width="1"/>
<polygon points="453.1,435.1 460.2,432.0 460.2,444.0 453.1,447.1" fill="rgba(150,200,255,0.2)" stroke="#006db7" stroke-width="1"/>
<polygon points="460.2,432.0 465.7,427.9 465.7,439.9 460.2,444.0" fill="rgba(150,200,255,0.2)" stroke="#006db7" stroke-width="1"/>
<polygon points="465.7,427.9 469.1,423.1 469.1,435.1 465.7,439.9" fill="rgba(150,200,255,0.2)" stroke="#006db7" stroke-width="1"/>
<polygon points="469.1,423.1 470.3,418.0 470.3,430.0 469.1,435.1" fill="rgba(150,200,255,0.2)" stroke="#006db7" stroke-width="1"/>
<polygon points="470.3,418.0 469.1,412.9 469.1,424.9 470.3,430.0" fill="rgba(150,200,255,0.2)" stroke="#006db7" stroke-width="1"/>
<polygon points="469.1,412.9 465.7,408.1 465.7,420.1 469.1,424.9" fill="rgba(150,200,255,0.2)" stroke="#006db7" stroke-width="1"/>
<polygon points="465.7,408.1 460.2,404.0 460.2,416.0 465.7,420.1" fill="rgba(150,200,255,0.2)" stroke="#006db7" stroke-width="1"/>
<polygon points="460.2,416.0 453.1,412.9 444.9,410.9 436.0,410.2 427.1,410.9 418.9,412.9 411.8,416.0 406.3,420.1 402.9,424.9 401.7,430.0 402.9,435.1 406.3,439.9 411.8,444.0 418.9,447.1 427.1,449.1 436.0,449.8 444.9,449.1 453.1,447.1 460.2,444.0 465.7,439.9 469.1,435.1 470.3,430.0 469.1,424.9 465.7,420.1" fill="#c8dff0" stroke="#006db7" stroke-width="1"/>
<text x="436" y="512" text-anchor="middle" font-family="'Arial','Helvetica',sans-serif" font-weight="bold" font-size="9" fill="#006db7">INNER RING</text>
<line x1="464" y1="418" x2="468" y2="418" stroke="#6a1b9a" stroke-width="3" stroke-linecap="round"/>
<line x1="456" y1="426" x2="459" y2="427" stroke="#6a1b9a" stroke-width="3" stroke-linecap="round"/>
<line x1="436" y1="429" x2="436" y2="431" stroke="#6a1b9a" stroke-width="3" stroke-linecap="round"/>
<line x1="416" y1="426" x2="413" y2="427" stroke="#6a1b9a" stroke-width="3" stroke-linecap="round"/>
<line x1="408" y1="418" x2="404" y2="418" stroke="#6a1b9a" stroke-width="3" stroke-linecap="round"/>
<line x1="416" y1="410" x2="413" y2="409" stroke="#6a1b9a" stroke-width="3" stroke-linecap="round"/>
<line x1="436" y1="407" x2="436" y2="405" stroke="#6a1b9a" stroke-width="3" stroke-linecap="round"/>
<line x1="456" y1="410" x2="459" y2="409" stroke="#6a1b9a" stroke-width="3" stroke-linecap="round"/>
<rect x="599" y="436" width="12" height="4" rx="1" fill="#00838f" stroke="#222222" stroke-width="0.8" transform="rotate(0,604,438)"/>
<rect x="585" y="450" width="12" height="4" rx="1" fill="#00838f" stroke="#222222" stroke-width="0.8" transform="rotate(45,590,452)"/>
<rect x="551" y="456" width="12" height="4" rx="1" fill="#00838f" stroke="#222222" stroke-width="0.8" transform="rotate(90,556,458)"/>
<rect x="517" y="450" width="12" height="4" rx="1" fill="#00838f" stroke="#222222" stroke-width="0.8" transform="rotate(135,522,452)"/>
<rect x="503" y="436" width="12" height="4" rx="1" fill="#00838f" stroke="#222222" stroke-width="0.8" transform="rotate(180,508,438)"/>
<rect x="517" y="422" width="12" height="4" rx="1" fill="#00838f" stroke="#222222" stroke-width="0.8" transform="rotate(225,522,424)"/>
<rect x="551" y="416" width="12" height="4" rx="1" fill="#00838f" stroke="#222222" stroke-width="0.8" transform="rotate(270,556,418)"/>
<rect x="585" y="422" width="12" height="4" rx="1" fill="#00838f" stroke="#222222" stroke-width="0.8" transform="rotate(315,590,424)"/>
<polygon points="592.4,417.0 581.7,412.3 581.7,430.3 592.4,435.0" fill="rgba(80,200,200,0.2)" stroke="#00838f" stroke-width="2"/>
<polygon points="581.7,412.3 569.3,409.3 569.3,427.3 581.7,430.3" fill="rgba(80,200,200,0.2)" stroke="#00838f" stroke-width="2"/>
<polygon points="569.3,409.3 556.0,408.3 556.0,426.3 569.3,427.3" fill="rgba(80,200,200,0.2)" stroke="#00838f" stroke-width="2"/>
<polygon points="556.0,408.3 542.7,409.3 542.7,427.3 556.0,426.3" fill="rgba(80,200,200,0.2)" stroke="#00838f" stroke-width="2"/>
<polygon points="542.7,409.3 530.3,412.3 530.3,430.3 542.7,427.3" fill="rgba(80,200,200,0.2)" stroke="#00838f" stroke-width="2"/>
<polygon points="530.3,412.3 519.6,417.0 519.6,435.0 530.3,430.3" fill="rgba(80,200,200,0.2)" stroke="#00838f" stroke-width="2"/>
<polygon points="519.6,417.0 511.5,423.2 511.5,441.2 519.6,435.0" fill="rgba(80,200,200,0.2)" stroke="#00838f" stroke-width="2"/>
<polygon points="511.5,423.2 506.3,430.3 506.3,448.3 511.5,441.2" fill="rgba(80,200,200,0.2)" stroke="#00838f" stroke-width="2"/>
<polygon points="506.3,430.3 504.6,438.0 504.6,456.0 506.3,448.3" fill="rgba(80,200,200,0.2)" stroke="#00838f" stroke-width="2"/>
<polygon points="504.6,438.0 506.3,445.7 506.3,463.7 504.6,456.0" fill="rgba(80,200,200,0.2)" stroke="#00838f" stroke-width="2"/>
<polygon points="506.3,445.7 511.5,452.8 511.5,470.8 506.3,463.7" fill="rgba(80,200,200,0.2)" stroke="#00838f" stroke-width="2"/>
<polygon points="511.5,452.8 519.6,459.0 519.6,477.0 511.5,470.8" fill="rgba(80,200,200,0.2)" stroke="#00838f" stroke-width="2"/>
<polygon points="519.6,459.0 530.3,463.7 530.3,481.7 519.6,477.0" fill="rgba(80,200,200,0.2)" stroke="#00838f" stroke-width="2"/>
<polygon points="530.3,463.7 542.7,466.7 542.7,484.7 530.3,481.7" fill="rgba(80,200,200,0.2)" stroke="#00838f" stroke-width="2"/>
<polygon points="542.7,466.7 556.0,467.7 556.0,485.7 542.7,484.7" fill="rgba(80,200,200,0.2)" stroke="#00838f" stroke-width="2"/>
<polygon points="556.0,467.7 569.3,466.7 569.3,484.7 556.0,485.7" fill="rgba(80,200,200,0.2)" stroke="#00838f" stroke-width="2"/>
<polygon points="569.3,466.7 581.7,463.7 581.7,481.7 569.3,484.7" fill="rgba(80,200,200,0.2)" stroke="#00838f" stroke-width="2"/>
<polygon points="581.7,463.7 592.4,459.0 592.4,477.0 581.7,481.7" fill="rgba(80,200,200,0.2)" stroke="#00838f" stroke-width="2"/>
<polygon points="592.4,459.0 600.5,452.8 600.5,470.8 592.4,477.0" fill="rgba(80,200,200,0.2)" stroke="#00838f" stroke-width="2"/>
<polygon points="600.5,452.8 605.7,445.7 605.7,463.7 600.5,470.8" fill="rgba(80,200,200,0.2)" stroke="#00838f" stroke-width="2"/>
<polygon points="605.7,445.7 607.4,438.0 607.4,456.0 605.7,463.7" fill="rgba(80,200,200,0.2)" stroke="#00838f" stroke-width="2"/>
<polygon points="607.4,438.0 605.7,430.3 605.7,448.3 607.4,456.0" fill="rgba(80,200,200,0.2)" stroke="#00838f" stroke-width="2"/>
<polygon points="605.7,430.3 600.5,423.2 600.5,441.2 605.7,448.3" fill="rgba(80,200,200,0.2)" stroke="#00838f" stroke-width="2"/>
<polygon points="600.5,423.2 592.4,417.0 592.4,435.0 600.5,441.2" fill="rgba(80,200,200,0.2)" stroke="#00838f" stroke-width="2"/>
<polygon points="592.4,435.0 581.7,430.3 569.3,427.3 556.0,426.3 542.7,427.3 530.3,430.3 519.6,435.0 511.5,441.2 506.3,448.3 504.6,456.0 506.3,463.7 511.5,470.8 519.6,477.0 530.3,481.7 542.7,484.7 556.0,485.7 569.3,484.7 581.7,481.7 592.4,477.0 600.5,470.8 605.7,463.7 607.4,456.0 605.7,448.3 600.5,441.2" fill="rgba(80,200,200,0.3)" stroke="#00838f" stroke-width="2"/>
<text x="556" y="518" text-anchor="middle" font-family="'Arial','Helvetica',sans-serif" font-weight="bold" font-size="9" fill="#00838f">ASSEMBLED NOZZLE</text>
<polygon points="215.1,447.0 208.2,444.1 208.2,448.1 215.1,451.0" fill="#fffac0" stroke="#ff7518" stroke-width="2"/>
<polygon points="208.2,444.1 200.2,442.6 200.2,446.6 208.2,448.1" fill="#fffac0" stroke="#ff7518" stroke-width="2"/>
<polygon points="200.2,442.6 191.8,442.6 191.8,446.6 200.2,446.6" fill="#fffac0" stroke="#ff7518" stroke-width="2"/>
<polygon points="191.8,442.6 183.8,444.1 183.8,448.1 191.8,446.6" fill="#fffac0" stroke="#ff7518" stroke-width="2"/>
<polygon points="183.8,444.1 176.9,447.0 176.9,451.0 183.8,448.1" fill="#fffac0" stroke="#ff7518" stroke-width="2"/>
<polygon points="176.9,447.0 172.0,450.9 172.0,454.9 176.9,451.0" fill="#fffac0" stroke="#ff7518" stroke-width="2"/>
<polygon points="172.0,450.9 169.4,455.6 169.4,459.6 172.0,454.9" fill="#fffac0" stroke="#ff7518" stroke-width="2"/>
<polygon points="169.4,455.6 169.4,460.4 169.4,464.4 169.4,459.6" fill="#fffac0" stroke="#ff7518" stroke-width="2"/>
<polygon points="169.4,460.4 172.0,465.1 172.0,469.1 169.4,464.4" fill="#fffac0" stroke="#ff7518" stroke-width="2"/>
<polygon points="172.0,465.1 176.9,469.0 176.9,473.0 172.0,469.1" fill="#fffac0" stroke="#ff7518" stroke-width="2"/>
<polygon points="176.9,469.0 183.8,471.9 183.8,475.9 176.9,473.0" fill="#fffac0" stroke="#ff7518" stroke-width="2"/>
<polygon points="183.8,471.9 191.8,473.4 191.8,477.4 183.8,475.9" fill="#fffac0" stroke="#ff7518" stroke-width="2"/>
<polygon points="191.8,473.4 200.2,473.4 200.2,477.4 191.8,477.4" fill="#fffac0" stroke="#ff7518" stroke-width="2"/>
<polygon points="200.2,473.4 208.2,471.9 208.2,475.9 200.2,477.4" fill="#fffac0" stroke="#ff7518" stroke-width="2"/>
<polygon points="208.2,471.9 215.1,469.0 215.1,473.0 208.2,475.9" fill="#fffac0" stroke="#ff7518" stroke-width="2"/>
<polygon points="215.1,469.0 220.0,465.1 220.0,469.1 215.1,473.0" fill="#fffac0" stroke="#ff7518" stroke-width="2"/>
<polygon points="220.0,465.1 222.6,460.4 222.6,464.4 220.0,469.1" fill="#fffac0" stroke="#ff7518" stroke-width="2"/>
<polygon points="222.6,460.4 222.6,455.6 222.6,459.6 222.6,464.4" fill="#fffac0" stroke="#ff7518" stroke-width="2"/>
<polygon points="222.6,455.6 220.0,450.9 220.0,454.9 222.6,459.6" fill="#fffac0" stroke="#ff7518" stroke-width="2"/>
<polygon points="220.0,450.9 215.1,447.0 215.1,451.0 220.0,454.9" fill="#fffac0" stroke="#ff7518" stroke-width="2"/>
<polygon points="215.1,451.0 208.2,448.1 200.2,446.6 191.8,446.6 183.8,448.1 176.9,451.0 172.0,454.9 169.4,459.6 169.4,464.4 172.0,469.1 176.9,473.0 183.8,475.9 191.8,477.4 200.2,477.4 208.2,475.9 215.1,473.0 220.0,469.1 222.6,464.4 222.6,459.6 220.0,454.9" fill="#f5c518" stroke="#ff7518" stroke-width="2"/>
<text x="196" y="508" text-anchor="middle" font-family="'Arial','Helvetica',sans-serif" font-weight="bold" font-size="9" fill="#ff7518">SECTOR GEAR</text>
<text x="196" y="520" text-anchor="middle" font-family="'Arial','Helvetica',sans-serif" font-size="8" fill="#607080">on tilt bracket</text>
<line x1="356.0" y1="448.0" x2="396.0" y2="448.0" stroke="#ff7518" stroke-width="2" stroke-dasharray="8 4"/><polygon points="396.0,448.0 384.9,452.7 384.9,443.3" fill="#ff7518"/>
<line x1="476.0" y1="438.0" x2="516.0" y2="438.0" stroke="#ff7518" stroke-width="2" stroke-dasharray="8 4"/><polygon points="516.0,438.0 504.9,442.7 504.9,433.3" fill="#ff7518"/>
<polygon points="561.2,535.0 557.9,533.9 557.9,537.9 561.2,539.0" fill="#e1bee7" stroke="#6a1b9a" stroke-width="1.5"/>
<polygon points="557.9,533.9 554.1,533.9 554.1,537.9 557.9,537.9" fill="#e1bee7" stroke="#6a1b9a" stroke-width="1.5"/>
<polygon points="554.1,533.9 550.8,535.0 550.8,539.0 554.1,537.9" fill="#e1bee7" stroke="#6a1b9a" stroke-width="1.5"/>
<polygon points="550.8,535.0 548.9,536.9 548.9,540.9 550.8,539.0" fill="#e1bee7" stroke="#6a1b9a" stroke-width="1.5"/>
<polygon points="548.9,536.9 548.9,539.1 548.9,543.1 548.9,540.9" fill="#e1bee7" stroke="#6a1b9a" stroke-width="1.5"/>
<polygon points="548.9,539.1 550.8,541.0 550.8,545.0 548.9,543.1" fill="#e1bee7" stroke="#6a1b9a" stroke-width="1.5"/>
<polygon points="550.8,541.0 554.1,542.1 554.1,546.1 550.8,545.0" fill="#e1bee7" stroke="#6a1b9a" stroke-width="1.5"/>
<polygon points="554.1,542.1 557.9,542.1 557.9,546.1 554.1,546.1" fill="#e1bee7" stroke="#6a1b9a" stroke-width="1.5"/>
<polygon points="557.9,542.1 561.2,541.0 561.2,545.0 557.9,546.1" fill="#e1bee7" stroke="#6a1b9a" stroke-width="1.5"/>
<polygon points="561.2,541.0 563.1,539.1 563.1,543.1 561.2,545.0" fill="#e1bee7" stroke="#6a1b9a" stroke-width="1.5"/>
<polygon points="563.1,539.1 563.1,536.9 563.1,540.9 563.1,543.1" fill="#e1bee7" stroke="#6a1b9a" stroke-width="1.5"/>
<polygon points="563.1,536.9 561.2,535.0 561.2,539.0 563.1,540.9" fill="#e1bee7" stroke="#6a1b9a" stroke-width="1.5"/>
<polygon points="561.2,539.0 557.9,537.9 554.1,537.9 550.8,539.0 548.9,540.9 548.9,543.1 550.8,545.0 554.1,546.1 557.9,546.1 561.2,545.0 563.1,543.1 563.1,540.9" fill="#6a1b9a" stroke="#6a1b9a" stroke-width="1.5"/>
<text x="556" y="568" text-anchor="middle" font-family="'Arial','Helvetica',sans-serif" font-size="8" fill="#6a1b9a">Crown pinion R=6mm</text>
<rect x="596" y="368" width="160" height="50" rx="6" fill="#fffac0" stroke="#ff7518" stroke-width="1.5"/>
<text x="676" y="384" text-anchor="middle" font-family="'Arial','Helvetica',sans-serif" font-weight="bold" font-size="10" fill="#222222">BACKLASH TARGET</text>
<text x="676" y="400" text-anchor="middle" font-family="'Arial','Helvetica',sans-serif" font-size="10" fill="#ff7518">0.10 – 0.20mm</text>
<text x="676" y="414" text-anchor="middle" font-family="'Arial','Helvetica',sans-serif" font-size="8" fill="#607080">check with feeler gauge</text>
</svg>
