%TF.GenerationSoftware,KiCad,Pcbnew,9.0.2+dfsg-1*%
%TF.CreationDate,2026-06-04T19:35:09-04:00*%
%TF.ProjectId,CAPE-B-1,43415045-2d42-42d3-912e-6b696361645f,M*%
%TF.SameCoordinates,Original*%
%TF.FileFunction,Legend,Top*%
%TF.FilePolarity,Positive*%
%FSLAX46Y46*%
G04 Gerber Fmt 4.6, Leading zero omitted, Abs format (unit mm)*
G04 Created by KiCad (PCBNEW 9.0.2+dfsg-1) date 2026-06-04 19:35:09*
%MOMM*%
%LPD*%
G01*
G04 APERTURE LIST*
%ADD10C,0.050000*%
%ADD11C,0.100000*%
%ADD12C,0.150000*%
%ADD13C,0.120000*%
%ADD14C,0.350000*%
G04 APERTURE END LIST*
D10*
X170290000Y-92940000D02*
X170290000Y-117940000D01*
X171500000Y-117500000D02*
X125500000Y-117500000D01*
X125500000Y-117500000D02*
X125500000Y-92500000D01*
X125500000Y-92500000D02*
X171500000Y-92500000D01*
D11*
X146900000Y-92672371D02*
X147242858Y-92672371D01*
X147071429Y-93272371D02*
X147071429Y-92672371D01*
X147414286Y-93100942D02*
X147700001Y-93100942D01*
X147357143Y-93272371D02*
X147557143Y-92672371D01*
X147557143Y-92672371D02*
X147757143Y-93272371D01*
X147957144Y-93272371D02*
X147957144Y-92672371D01*
X147957144Y-92672371D02*
X148157144Y-93100942D01*
X148157144Y-93100942D02*
X148357144Y-92672371D01*
X148357144Y-92672371D02*
X148357144Y-93272371D01*
X148642858Y-93272371D02*
X148642858Y-92672371D01*
X148642858Y-92672371D02*
X148871429Y-92672371D01*
X148871429Y-92672371D02*
X148928572Y-92700942D01*
X148928572Y-92700942D02*
X148957143Y-92729514D01*
X148957143Y-92729514D02*
X148985715Y-92786657D01*
X148985715Y-92786657D02*
X148985715Y-92872371D01*
X148985715Y-92872371D02*
X148957143Y-92929514D01*
X148957143Y-92929514D02*
X148928572Y-92958085D01*
X148928572Y-92958085D02*
X148871429Y-92986657D01*
X148871429Y-92986657D02*
X148642858Y-92986657D01*
X149242858Y-92958085D02*
X149442858Y-92958085D01*
X149528572Y-93272371D02*
X149242858Y-93272371D01*
X149242858Y-93272371D02*
X149242858Y-92672371D01*
X149242858Y-92672371D02*
X149528572Y-92672371D01*
X150128572Y-93272371D02*
X149928572Y-92986657D01*
X149785715Y-93272371D02*
X149785715Y-92672371D01*
X149785715Y-92672371D02*
X150014286Y-92672371D01*
X150014286Y-92672371D02*
X150071429Y-92700942D01*
X150071429Y-92700942D02*
X150100000Y-92729514D01*
X150100000Y-92729514D02*
X150128572Y-92786657D01*
X150128572Y-92786657D02*
X150128572Y-92872371D01*
X150128572Y-92872371D02*
X150100000Y-92929514D01*
X150100000Y-92929514D02*
X150071429Y-92958085D01*
X150071429Y-92958085D02*
X150014286Y-92986657D01*
X150014286Y-92986657D02*
X149785715Y-92986657D01*
X150842858Y-92958085D02*
X151042858Y-92958085D01*
X151128572Y-93272371D02*
X150842858Y-93272371D01*
X150842858Y-93272371D02*
X150842858Y-92672371D01*
X150842858Y-92672371D02*
X151128572Y-92672371D01*
X151300000Y-92672371D02*
X151500000Y-93272371D01*
X151500000Y-93272371D02*
X151700000Y-92672371D01*
X151900001Y-93272371D02*
X151900001Y-92672371D01*
X152185715Y-93272371D02*
X152185715Y-92672371D01*
X152185715Y-92672371D02*
X152328572Y-92672371D01*
X152328572Y-92672371D02*
X152414286Y-92700942D01*
X152414286Y-92700942D02*
X152471429Y-92758085D01*
X152471429Y-92758085D02*
X152500000Y-92815228D01*
X152500000Y-92815228D02*
X152528572Y-92929514D01*
X152528572Y-92929514D02*
X152528572Y-93015228D01*
X152528572Y-93015228D02*
X152500000Y-93129514D01*
X152500000Y-93129514D02*
X152471429Y-93186657D01*
X152471429Y-93186657D02*
X152414286Y-93243800D01*
X152414286Y-93243800D02*
X152328572Y-93272371D01*
X152328572Y-93272371D02*
X152185715Y-93272371D01*
X152785715Y-92958085D02*
X152985715Y-92958085D01*
X153071429Y-93272371D02*
X152785715Y-93272371D01*
X152785715Y-93272371D02*
X152785715Y-92672371D01*
X152785715Y-92672371D02*
X153071429Y-92672371D01*
X153328572Y-93272371D02*
X153328572Y-92672371D01*
X153328572Y-92672371D02*
X153671429Y-93272371D01*
X153671429Y-93272371D02*
X153671429Y-92672371D01*
X153871428Y-92672371D02*
X154214286Y-92672371D01*
X154042857Y-93272371D02*
X154042857Y-92672371D01*
X154871429Y-93272371D02*
X154871429Y-92672371D01*
X154871429Y-92672371D02*
X155071429Y-93100942D01*
X155071429Y-93100942D02*
X155271429Y-92672371D01*
X155271429Y-92672371D02*
X155271429Y-93272371D01*
X155557143Y-92958085D02*
X155757143Y-92958085D01*
X155842857Y-93272371D02*
X155557143Y-93272371D01*
X155557143Y-93272371D02*
X155557143Y-92672371D01*
X155557143Y-92672371D02*
X155842857Y-92672371D01*
X156071428Y-93243800D02*
X156157143Y-93272371D01*
X156157143Y-93272371D02*
X156300000Y-93272371D01*
X156300000Y-93272371D02*
X156357143Y-93243800D01*
X156357143Y-93243800D02*
X156385714Y-93215228D01*
X156385714Y-93215228D02*
X156414285Y-93158085D01*
X156414285Y-93158085D02*
X156414285Y-93100942D01*
X156414285Y-93100942D02*
X156385714Y-93043800D01*
X156385714Y-93043800D02*
X156357143Y-93015228D01*
X156357143Y-93015228D02*
X156300000Y-92986657D01*
X156300000Y-92986657D02*
X156185714Y-92958085D01*
X156185714Y-92958085D02*
X156128571Y-92929514D01*
X156128571Y-92929514D02*
X156100000Y-92900942D01*
X156100000Y-92900942D02*
X156071428Y-92843800D01*
X156071428Y-92843800D02*
X156071428Y-92786657D01*
X156071428Y-92786657D02*
X156100000Y-92729514D01*
X156100000Y-92729514D02*
X156128571Y-92700942D01*
X156128571Y-92700942D02*
X156185714Y-92672371D01*
X156185714Y-92672371D02*
X156328571Y-92672371D01*
X156328571Y-92672371D02*
X156414285Y-92700942D01*
X156671429Y-93272371D02*
X156671429Y-92672371D01*
X156671429Y-92958085D02*
X157014286Y-92958085D01*
X157014286Y-93272371D02*
X157014286Y-92672371D01*
D12*
X172316033Y-102083332D02*
X171616033Y-102083332D01*
X171616033Y-102083332D02*
X172316033Y-101683332D01*
X172316033Y-101683332D02*
X171616033Y-101683332D01*
X172116033Y-101383332D02*
X172116033Y-101049999D01*
X172316033Y-101449999D02*
X171616033Y-101216666D01*
X171616033Y-101216666D02*
X172316033Y-100983332D01*
X171616033Y-100849999D02*
X172316033Y-100616666D01*
X172316033Y-100616666D02*
X171616033Y-100383332D01*
X172049366Y-100149999D02*
X172049366Y-99616666D01*
X172316033Y-98949999D02*
X172316033Y-99283332D01*
X172316033Y-99283332D02*
X171616033Y-99283332D01*
X172316033Y-98716665D02*
X171616033Y-98716665D01*
X171649366Y-98016665D02*
X171616033Y-98083332D01*
X171616033Y-98083332D02*
X171616033Y-98183332D01*
X171616033Y-98183332D02*
X171649366Y-98283332D01*
X171649366Y-98283332D02*
X171716033Y-98349999D01*
X171716033Y-98349999D02*
X171782700Y-98383332D01*
X171782700Y-98383332D02*
X171916033Y-98416665D01*
X171916033Y-98416665D02*
X172016033Y-98416665D01*
X172016033Y-98416665D02*
X172149366Y-98383332D01*
X172149366Y-98383332D02*
X172216033Y-98349999D01*
X172216033Y-98349999D02*
X172282700Y-98283332D01*
X172282700Y-98283332D02*
X172316033Y-98183332D01*
X172316033Y-98183332D02*
X172316033Y-98116665D01*
X172316033Y-98116665D02*
X172282700Y-98016665D01*
X172282700Y-98016665D02*
X172249366Y-97983332D01*
X172249366Y-97983332D02*
X172016033Y-97983332D01*
X172016033Y-97983332D02*
X172016033Y-98116665D01*
X172316033Y-97683332D02*
X171616033Y-97683332D01*
X171949366Y-97683332D02*
X171949366Y-97283332D01*
X172316033Y-97283332D02*
X171616033Y-97283332D01*
X171616033Y-97049999D02*
X171616033Y-96649999D01*
X172316033Y-96849999D02*
X171616033Y-96849999D01*
X172316033Y-95883333D02*
X171616033Y-95883333D01*
X171616033Y-95883333D02*
X171616033Y-95616666D01*
X171616033Y-95616666D02*
X171649366Y-95550000D01*
X171649366Y-95550000D02*
X171682700Y-95516666D01*
X171682700Y-95516666D02*
X171749366Y-95483333D01*
X171749366Y-95483333D02*
X171849366Y-95483333D01*
X171849366Y-95483333D02*
X171916033Y-95516666D01*
X171916033Y-95516666D02*
X171949366Y-95550000D01*
X171949366Y-95550000D02*
X171982700Y-95616666D01*
X171982700Y-95616666D02*
X171982700Y-95883333D01*
X171616033Y-95250000D02*
X172316033Y-95083333D01*
X172316033Y-95083333D02*
X171816033Y-94950000D01*
X171816033Y-94950000D02*
X172316033Y-94816666D01*
X172316033Y-94816666D02*
X171616033Y-94650000D01*
X172316033Y-94383333D02*
X171616033Y-94383333D01*
X171616033Y-94383333D02*
X172116033Y-94150000D01*
X172116033Y-94150000D02*
X171616033Y-93916666D01*
X171616033Y-93916666D02*
X172316033Y-93916666D01*
X127781866Y-106510000D02*
X128248533Y-106510000D01*
X127781866Y-106810000D02*
X128148533Y-106810000D01*
X128148533Y-106810000D02*
X128215200Y-106776667D01*
X128215200Y-106776667D02*
X128248533Y-106710000D01*
X128248533Y-106710000D02*
X128248533Y-106610000D01*
X128248533Y-106610000D02*
X128215200Y-106543333D01*
X128215200Y-106543333D02*
X128181866Y-106510000D01*
X128215200Y-106210000D02*
X128248533Y-106110000D01*
X128248533Y-106110000D02*
X128248533Y-105943334D01*
X128248533Y-105943334D02*
X128215200Y-105876667D01*
X128215200Y-105876667D02*
X128181866Y-105843334D01*
X128181866Y-105843334D02*
X128115200Y-105810000D01*
X128115200Y-105810000D02*
X128048533Y-105810000D01*
X128048533Y-105810000D02*
X127981866Y-105843334D01*
X127981866Y-105843334D02*
X127948533Y-105876667D01*
X127948533Y-105876667D02*
X127915200Y-105943334D01*
X127915200Y-105943334D02*
X127881866Y-106076667D01*
X127881866Y-106076667D02*
X127848533Y-106143334D01*
X127848533Y-106143334D02*
X127815200Y-106176667D01*
X127815200Y-106176667D02*
X127748533Y-106210000D01*
X127748533Y-106210000D02*
X127681866Y-106210000D01*
X127681866Y-106210000D02*
X127615200Y-106176667D01*
X127615200Y-106176667D02*
X127581866Y-106143334D01*
X127581866Y-106143334D02*
X127548533Y-106076667D01*
X127548533Y-106076667D02*
X127548533Y-105910000D01*
X127548533Y-105910000D02*
X127581866Y-105810000D01*
X128248533Y-105510000D02*
X127548533Y-105510000D01*
X127548533Y-105510000D02*
X127548533Y-105343333D01*
X127548533Y-105343333D02*
X127581866Y-105243333D01*
X127581866Y-105243333D02*
X127648533Y-105176667D01*
X127648533Y-105176667D02*
X127715200Y-105143333D01*
X127715200Y-105143333D02*
X127848533Y-105110000D01*
X127848533Y-105110000D02*
X127948533Y-105110000D01*
X127948533Y-105110000D02*
X128081866Y-105143333D01*
X128081866Y-105143333D02*
X128148533Y-105176667D01*
X128148533Y-105176667D02*
X128215200Y-105243333D01*
X128215200Y-105243333D02*
X128248533Y-105343333D01*
X128248533Y-105343333D02*
X128248533Y-105510000D01*
X127981866Y-104810000D02*
X127981866Y-104276667D01*
X127548533Y-104010000D02*
X128248533Y-103543333D01*
X127548533Y-103543333D02*
X128248533Y-104010000D01*
X127981866Y-103276666D02*
X127981866Y-102743333D01*
X127881866Y-102176666D02*
X127915200Y-102076666D01*
X127915200Y-102076666D02*
X127948533Y-102043332D01*
X127948533Y-102043332D02*
X128015200Y-102009999D01*
X128015200Y-102009999D02*
X128115200Y-102009999D01*
X128115200Y-102009999D02*
X128181866Y-102043332D01*
X128181866Y-102043332D02*
X128215200Y-102076666D01*
X128215200Y-102076666D02*
X128248533Y-102143332D01*
X128248533Y-102143332D02*
X128248533Y-102409999D01*
X128248533Y-102409999D02*
X127548533Y-102409999D01*
X127548533Y-102409999D02*
X127548533Y-102176666D01*
X127548533Y-102176666D02*
X127581866Y-102109999D01*
X127581866Y-102109999D02*
X127615200Y-102076666D01*
X127615200Y-102076666D02*
X127681866Y-102043332D01*
X127681866Y-102043332D02*
X127748533Y-102043332D01*
X127748533Y-102043332D02*
X127815200Y-102076666D01*
X127815200Y-102076666D02*
X127848533Y-102109999D01*
X127848533Y-102109999D02*
X127881866Y-102176666D01*
X127881866Y-102176666D02*
X127881866Y-102409999D01*
X128248533Y-101609999D02*
X128215200Y-101676666D01*
X128215200Y-101676666D02*
X128148533Y-101709999D01*
X128148533Y-101709999D02*
X127548533Y-101709999D01*
X128248533Y-101343332D02*
X127548533Y-101343332D01*
X127981866Y-101276665D02*
X128248533Y-101076665D01*
X127781866Y-101076665D02*
X128048533Y-101343332D01*
X162516666Y-109316033D02*
X162116666Y-109316033D01*
X162316666Y-109316033D02*
X162316666Y-108616033D01*
X162316666Y-108616033D02*
X162249999Y-108716033D01*
X162249999Y-108716033D02*
X162183333Y-108782700D01*
X162183333Y-108782700D02*
X162116666Y-108816033D01*
X163150000Y-108616033D02*
X162816666Y-108616033D01*
X162816666Y-108616033D02*
X162783333Y-108949366D01*
X162783333Y-108949366D02*
X162816666Y-108916033D01*
X162816666Y-108916033D02*
X162883333Y-108882700D01*
X162883333Y-108882700D02*
X163050000Y-108882700D01*
X163050000Y-108882700D02*
X163116666Y-108916033D01*
X163116666Y-108916033D02*
X163150000Y-108949366D01*
X163150000Y-108949366D02*
X163183333Y-109016033D01*
X163183333Y-109016033D02*
X163183333Y-109182700D01*
X163183333Y-109182700D02*
X163150000Y-109249366D01*
X163150000Y-109249366D02*
X163116666Y-109282700D01*
X163116666Y-109282700D02*
X163050000Y-109316033D01*
X163050000Y-109316033D02*
X162883333Y-109316033D01*
X162883333Y-109316033D02*
X162816666Y-109282700D01*
X162816666Y-109282700D02*
X162783333Y-109249366D01*
X163816667Y-108616033D02*
X163483333Y-108616033D01*
X163483333Y-108616033D02*
X163450000Y-108949366D01*
X163450000Y-108949366D02*
X163483333Y-108916033D01*
X163483333Y-108916033D02*
X163550000Y-108882700D01*
X163550000Y-108882700D02*
X163716667Y-108882700D01*
X163716667Y-108882700D02*
X163783333Y-108916033D01*
X163783333Y-108916033D02*
X163816667Y-108949366D01*
X163816667Y-108949366D02*
X163850000Y-109016033D01*
X163850000Y-109016033D02*
X163850000Y-109182700D01*
X163850000Y-109182700D02*
X163816667Y-109249366D01*
X163816667Y-109249366D02*
X163783333Y-109282700D01*
X163783333Y-109282700D02*
X163716667Y-109316033D01*
X163716667Y-109316033D02*
X163550000Y-109316033D01*
X163550000Y-109316033D02*
X163483333Y-109282700D01*
X163483333Y-109282700D02*
X163450000Y-109249366D01*
X164083334Y-108616033D02*
X164516667Y-108616033D01*
X164516667Y-108616033D02*
X164283334Y-108882700D01*
X164283334Y-108882700D02*
X164383334Y-108882700D01*
X164383334Y-108882700D02*
X164450000Y-108916033D01*
X164450000Y-108916033D02*
X164483334Y-108949366D01*
X164483334Y-108949366D02*
X164516667Y-109016033D01*
X164516667Y-109016033D02*
X164516667Y-109182700D01*
X164516667Y-109182700D02*
X164483334Y-109249366D01*
X164483334Y-109249366D02*
X164450000Y-109282700D01*
X164450000Y-109282700D02*
X164383334Y-109316033D01*
X164383334Y-109316033D02*
X164183334Y-109316033D01*
X164183334Y-109316033D02*
X164116667Y-109282700D01*
X164116667Y-109282700D02*
X164083334Y-109249366D01*
X164816667Y-109049366D02*
X165350001Y-109049366D01*
X166083334Y-109316033D02*
X165850001Y-108982700D01*
X165683334Y-109316033D02*
X165683334Y-108616033D01*
X165683334Y-108616033D02*
X165950001Y-108616033D01*
X165950001Y-108616033D02*
X166016668Y-108649366D01*
X166016668Y-108649366D02*
X166050001Y-108682700D01*
X166050001Y-108682700D02*
X166083334Y-108749366D01*
X166083334Y-108749366D02*
X166083334Y-108849366D01*
X166083334Y-108849366D02*
X166050001Y-108916033D01*
X166050001Y-108916033D02*
X166016668Y-108949366D01*
X166016668Y-108949366D02*
X165950001Y-108982700D01*
X165950001Y-108982700D02*
X165683334Y-108982700D01*
X166783334Y-109249366D02*
X166750001Y-109282700D01*
X166750001Y-109282700D02*
X166650001Y-109316033D01*
X166650001Y-109316033D02*
X166583334Y-109316033D01*
X166583334Y-109316033D02*
X166483334Y-109282700D01*
X166483334Y-109282700D02*
X166416668Y-109216033D01*
X166416668Y-109216033D02*
X166383334Y-109149366D01*
X166383334Y-109149366D02*
X166350001Y-109016033D01*
X166350001Y-109016033D02*
X166350001Y-108916033D01*
X166350001Y-108916033D02*
X166383334Y-108782700D01*
X166383334Y-108782700D02*
X166416668Y-108716033D01*
X166416668Y-108716033D02*
X166483334Y-108649366D01*
X166483334Y-108649366D02*
X166583334Y-108616033D01*
X166583334Y-108616033D02*
X166650001Y-108616033D01*
X166650001Y-108616033D02*
X166750001Y-108649366D01*
X166750001Y-108649366D02*
X166783334Y-108682700D01*
X166983334Y-108616033D02*
X167216668Y-109316033D01*
X167216668Y-109316033D02*
X167450001Y-108616033D01*
X132223809Y-110112295D02*
X131957142Y-109731342D01*
X131766666Y-110112295D02*
X131766666Y-109312295D01*
X131766666Y-109312295D02*
X132071428Y-109312295D01*
X132071428Y-109312295D02*
X132147618Y-109350390D01*
X132147618Y-109350390D02*
X132185713Y-109388485D01*
X132185713Y-109388485D02*
X132223809Y-109464676D01*
X132223809Y-109464676D02*
X132223809Y-109578961D01*
X132223809Y-109578961D02*
X132185713Y-109655152D01*
X132185713Y-109655152D02*
X132147618Y-109693247D01*
X132147618Y-109693247D02*
X132071428Y-109731342D01*
X132071428Y-109731342D02*
X131766666Y-109731342D01*
X132528570Y-110074200D02*
X132642856Y-110112295D01*
X132642856Y-110112295D02*
X132833332Y-110112295D01*
X132833332Y-110112295D02*
X132909523Y-110074200D01*
X132909523Y-110074200D02*
X132947618Y-110036104D01*
X132947618Y-110036104D02*
X132985713Y-109959914D01*
X132985713Y-109959914D02*
X132985713Y-109883723D01*
X132985713Y-109883723D02*
X132947618Y-109807533D01*
X132947618Y-109807533D02*
X132909523Y-109769438D01*
X132909523Y-109769438D02*
X132833332Y-109731342D01*
X132833332Y-109731342D02*
X132680951Y-109693247D01*
X132680951Y-109693247D02*
X132604761Y-109655152D01*
X132604761Y-109655152D02*
X132566666Y-109617057D01*
X132566666Y-109617057D02*
X132528570Y-109540866D01*
X132528570Y-109540866D02*
X132528570Y-109464676D01*
X132528570Y-109464676D02*
X132566666Y-109388485D01*
X132566666Y-109388485D02*
X132604761Y-109350390D01*
X132604761Y-109350390D02*
X132680951Y-109312295D01*
X132680951Y-109312295D02*
X132871428Y-109312295D01*
X132871428Y-109312295D02*
X132985713Y-109350390D01*
X133671428Y-109578961D02*
X133671428Y-110112295D01*
X133480952Y-109274200D02*
X133290475Y-109845628D01*
X133290475Y-109845628D02*
X133785714Y-109845628D01*
X134204761Y-109655152D02*
X134128571Y-109617057D01*
X134128571Y-109617057D02*
X134090476Y-109578961D01*
X134090476Y-109578961D02*
X134052380Y-109502771D01*
X134052380Y-109502771D02*
X134052380Y-109464676D01*
X134052380Y-109464676D02*
X134090476Y-109388485D01*
X134090476Y-109388485D02*
X134128571Y-109350390D01*
X134128571Y-109350390D02*
X134204761Y-109312295D01*
X134204761Y-109312295D02*
X134357142Y-109312295D01*
X134357142Y-109312295D02*
X134433333Y-109350390D01*
X134433333Y-109350390D02*
X134471428Y-109388485D01*
X134471428Y-109388485D02*
X134509523Y-109464676D01*
X134509523Y-109464676D02*
X134509523Y-109502771D01*
X134509523Y-109502771D02*
X134471428Y-109578961D01*
X134471428Y-109578961D02*
X134433333Y-109617057D01*
X134433333Y-109617057D02*
X134357142Y-109655152D01*
X134357142Y-109655152D02*
X134204761Y-109655152D01*
X134204761Y-109655152D02*
X134128571Y-109693247D01*
X134128571Y-109693247D02*
X134090476Y-109731342D01*
X134090476Y-109731342D02*
X134052380Y-109807533D01*
X134052380Y-109807533D02*
X134052380Y-109959914D01*
X134052380Y-109959914D02*
X134090476Y-110036104D01*
X134090476Y-110036104D02*
X134128571Y-110074200D01*
X134128571Y-110074200D02*
X134204761Y-110112295D01*
X134204761Y-110112295D02*
X134357142Y-110112295D01*
X134357142Y-110112295D02*
X134433333Y-110074200D01*
X134433333Y-110074200D02*
X134471428Y-110036104D01*
X134471428Y-110036104D02*
X134509523Y-109959914D01*
X134509523Y-109959914D02*
X134509523Y-109807533D01*
X134509523Y-109807533D02*
X134471428Y-109731342D01*
X134471428Y-109731342D02*
X134433333Y-109693247D01*
X134433333Y-109693247D02*
X134357142Y-109655152D01*
X135233333Y-109312295D02*
X134852381Y-109312295D01*
X134852381Y-109312295D02*
X134814285Y-109693247D01*
X134814285Y-109693247D02*
X134852381Y-109655152D01*
X134852381Y-109655152D02*
X134928571Y-109617057D01*
X134928571Y-109617057D02*
X135119047Y-109617057D01*
X135119047Y-109617057D02*
X135195238Y-109655152D01*
X135195238Y-109655152D02*
X135233333Y-109693247D01*
X135233333Y-109693247D02*
X135271428Y-109769438D01*
X135271428Y-109769438D02*
X135271428Y-109959914D01*
X135271428Y-109959914D02*
X135233333Y-110036104D01*
X135233333Y-110036104D02*
X135195238Y-110074200D01*
X135195238Y-110074200D02*
X135119047Y-110112295D01*
X135119047Y-110112295D02*
X134928571Y-110112295D01*
X134928571Y-110112295D02*
X134852381Y-110074200D01*
X134852381Y-110074200D02*
X134814285Y-110036104D01*
X122292857Y-113955485D02*
X122492857Y-113955485D01*
X122578571Y-114269771D02*
X122292857Y-114269771D01*
X122292857Y-114269771D02*
X122292857Y-113669771D01*
X122292857Y-113669771D02*
X122578571Y-113669771D01*
X122749999Y-113669771D02*
X123092857Y-113669771D01*
X122921428Y-114269771D02*
X122921428Y-113669771D01*
X123292857Y-114269771D02*
X123292857Y-113669771D01*
X123292857Y-113955485D02*
X123635714Y-113955485D01*
X123635714Y-114269771D02*
X123635714Y-113669771D01*
X123892856Y-113726914D02*
X123921428Y-113698342D01*
X123921428Y-113698342D02*
X123978571Y-113669771D01*
X123978571Y-113669771D02*
X124121428Y-113669771D01*
X124121428Y-113669771D02*
X124178571Y-113698342D01*
X124178571Y-113698342D02*
X124207142Y-113726914D01*
X124207142Y-113726914D02*
X124235713Y-113784057D01*
X124235713Y-113784057D02*
X124235713Y-113841200D01*
X124235713Y-113841200D02*
X124207142Y-113926914D01*
X124207142Y-113926914D02*
X123864285Y-114269771D01*
X123864285Y-114269771D02*
X124235713Y-114269771D01*
X122292857Y-110955485D02*
X122492857Y-110955485D01*
X122578571Y-111269771D02*
X122292857Y-111269771D01*
X122292857Y-111269771D02*
X122292857Y-110669771D01*
X122292857Y-110669771D02*
X122578571Y-110669771D01*
X122749999Y-110669771D02*
X123092857Y-110669771D01*
X122921428Y-111269771D02*
X122921428Y-110669771D01*
X123292857Y-111269771D02*
X123292857Y-110669771D01*
X123292857Y-110955485D02*
X123635714Y-110955485D01*
X123635714Y-111269771D02*
X123635714Y-110669771D01*
X124235713Y-111269771D02*
X123892856Y-111269771D01*
X124064285Y-111269771D02*
X124064285Y-110669771D01*
X124064285Y-110669771D02*
X124007142Y-110755485D01*
X124007142Y-110755485D02*
X123949999Y-110812628D01*
X123949999Y-110812628D02*
X123892856Y-110841200D01*
X152266666Y-109816033D02*
X151866666Y-109816033D01*
X152066666Y-109816033D02*
X152066666Y-109116033D01*
X152066666Y-109116033D02*
X151999999Y-109216033D01*
X151999999Y-109216033D02*
X151933333Y-109282700D01*
X151933333Y-109282700D02*
X151866666Y-109316033D01*
X152900000Y-109116033D02*
X152566666Y-109116033D01*
X152566666Y-109116033D02*
X152533333Y-109449366D01*
X152533333Y-109449366D02*
X152566666Y-109416033D01*
X152566666Y-109416033D02*
X152633333Y-109382700D01*
X152633333Y-109382700D02*
X152800000Y-109382700D01*
X152800000Y-109382700D02*
X152866666Y-109416033D01*
X152866666Y-109416033D02*
X152900000Y-109449366D01*
X152900000Y-109449366D02*
X152933333Y-109516033D01*
X152933333Y-109516033D02*
X152933333Y-109682700D01*
X152933333Y-109682700D02*
X152900000Y-109749366D01*
X152900000Y-109749366D02*
X152866666Y-109782700D01*
X152866666Y-109782700D02*
X152800000Y-109816033D01*
X152800000Y-109816033D02*
X152633333Y-109816033D01*
X152633333Y-109816033D02*
X152566666Y-109782700D01*
X152566666Y-109782700D02*
X152533333Y-109749366D01*
X153566667Y-109116033D02*
X153233333Y-109116033D01*
X153233333Y-109116033D02*
X153200000Y-109449366D01*
X153200000Y-109449366D02*
X153233333Y-109416033D01*
X153233333Y-109416033D02*
X153300000Y-109382700D01*
X153300000Y-109382700D02*
X153466667Y-109382700D01*
X153466667Y-109382700D02*
X153533333Y-109416033D01*
X153533333Y-109416033D02*
X153566667Y-109449366D01*
X153566667Y-109449366D02*
X153600000Y-109516033D01*
X153600000Y-109516033D02*
X153600000Y-109682700D01*
X153600000Y-109682700D02*
X153566667Y-109749366D01*
X153566667Y-109749366D02*
X153533333Y-109782700D01*
X153533333Y-109782700D02*
X153466667Y-109816033D01*
X153466667Y-109816033D02*
X153300000Y-109816033D01*
X153300000Y-109816033D02*
X153233333Y-109782700D01*
X153233333Y-109782700D02*
X153200000Y-109749366D01*
X153833334Y-109116033D02*
X154266667Y-109116033D01*
X154266667Y-109116033D02*
X154033334Y-109382700D01*
X154033334Y-109382700D02*
X154133334Y-109382700D01*
X154133334Y-109382700D02*
X154200000Y-109416033D01*
X154200000Y-109416033D02*
X154233334Y-109449366D01*
X154233334Y-109449366D02*
X154266667Y-109516033D01*
X154266667Y-109516033D02*
X154266667Y-109682700D01*
X154266667Y-109682700D02*
X154233334Y-109749366D01*
X154233334Y-109749366D02*
X154200000Y-109782700D01*
X154200000Y-109782700D02*
X154133334Y-109816033D01*
X154133334Y-109816033D02*
X153933334Y-109816033D01*
X153933334Y-109816033D02*
X153866667Y-109782700D01*
X153866667Y-109782700D02*
X153833334Y-109749366D01*
X154566667Y-109549366D02*
X155100001Y-109549366D01*
X155433334Y-109816033D02*
X155433334Y-109116033D01*
X155433334Y-109116033D02*
X155600001Y-109116033D01*
X155600001Y-109116033D02*
X155700001Y-109149366D01*
X155700001Y-109149366D02*
X155766668Y-109216033D01*
X155766668Y-109216033D02*
X155800001Y-109282700D01*
X155800001Y-109282700D02*
X155833334Y-109416033D01*
X155833334Y-109416033D02*
X155833334Y-109516033D01*
X155833334Y-109516033D02*
X155800001Y-109649366D01*
X155800001Y-109649366D02*
X155766668Y-109716033D01*
X155766668Y-109716033D02*
X155700001Y-109782700D01*
X155700001Y-109782700D02*
X155600001Y-109816033D01*
X155600001Y-109816033D02*
X155433334Y-109816033D01*
X156533334Y-109816033D02*
X156300001Y-109482700D01*
X156133334Y-109816033D02*
X156133334Y-109116033D01*
X156133334Y-109116033D02*
X156400001Y-109116033D01*
X156400001Y-109116033D02*
X156466668Y-109149366D01*
X156466668Y-109149366D02*
X156500001Y-109182700D01*
X156500001Y-109182700D02*
X156533334Y-109249366D01*
X156533334Y-109249366D02*
X156533334Y-109349366D01*
X156533334Y-109349366D02*
X156500001Y-109416033D01*
X156500001Y-109416033D02*
X156466668Y-109449366D01*
X156466668Y-109449366D02*
X156400001Y-109482700D01*
X156400001Y-109482700D02*
X156133334Y-109482700D01*
X156733334Y-109116033D02*
X156966668Y-109816033D01*
X156966668Y-109816033D02*
X157200001Y-109116033D01*
X143409523Y-110862295D02*
X142952380Y-110862295D01*
X143180952Y-110862295D02*
X143180952Y-110062295D01*
X143180952Y-110062295D02*
X143104761Y-110176580D01*
X143104761Y-110176580D02*
X143028571Y-110252771D01*
X143028571Y-110252771D02*
X142952380Y-110290866D01*
X144133333Y-110062295D02*
X143752381Y-110062295D01*
X143752381Y-110062295D02*
X143714285Y-110443247D01*
X143714285Y-110443247D02*
X143752381Y-110405152D01*
X143752381Y-110405152D02*
X143828571Y-110367057D01*
X143828571Y-110367057D02*
X144019047Y-110367057D01*
X144019047Y-110367057D02*
X144095238Y-110405152D01*
X144095238Y-110405152D02*
X144133333Y-110443247D01*
X144133333Y-110443247D02*
X144171428Y-110519438D01*
X144171428Y-110519438D02*
X144171428Y-110709914D01*
X144171428Y-110709914D02*
X144133333Y-110786104D01*
X144133333Y-110786104D02*
X144095238Y-110824200D01*
X144095238Y-110824200D02*
X144019047Y-110862295D01*
X144019047Y-110862295D02*
X143828571Y-110862295D01*
X143828571Y-110862295D02*
X143752381Y-110824200D01*
X143752381Y-110824200D02*
X143714285Y-110786104D01*
X144895238Y-110062295D02*
X144514286Y-110062295D01*
X144514286Y-110062295D02*
X144476190Y-110443247D01*
X144476190Y-110443247D02*
X144514286Y-110405152D01*
X144514286Y-110405152D02*
X144590476Y-110367057D01*
X144590476Y-110367057D02*
X144780952Y-110367057D01*
X144780952Y-110367057D02*
X144857143Y-110405152D01*
X144857143Y-110405152D02*
X144895238Y-110443247D01*
X144895238Y-110443247D02*
X144933333Y-110519438D01*
X144933333Y-110519438D02*
X144933333Y-110709914D01*
X144933333Y-110709914D02*
X144895238Y-110786104D01*
X144895238Y-110786104D02*
X144857143Y-110824200D01*
X144857143Y-110824200D02*
X144780952Y-110862295D01*
X144780952Y-110862295D02*
X144590476Y-110862295D01*
X144590476Y-110862295D02*
X144514286Y-110824200D01*
X144514286Y-110824200D02*
X144476190Y-110786104D01*
X145200000Y-110062295D02*
X145695238Y-110062295D01*
X145695238Y-110062295D02*
X145428572Y-110367057D01*
X145428572Y-110367057D02*
X145542857Y-110367057D01*
X145542857Y-110367057D02*
X145619048Y-110405152D01*
X145619048Y-110405152D02*
X145657143Y-110443247D01*
X145657143Y-110443247D02*
X145695238Y-110519438D01*
X145695238Y-110519438D02*
X145695238Y-110709914D01*
X145695238Y-110709914D02*
X145657143Y-110786104D01*
X145657143Y-110786104D02*
X145619048Y-110824200D01*
X145619048Y-110824200D02*
X145542857Y-110862295D01*
X145542857Y-110862295D02*
X145314286Y-110862295D01*
X145314286Y-110862295D02*
X145238095Y-110824200D01*
X145238095Y-110824200D02*
X145200000Y-110786104D01*
X146038096Y-110557533D02*
X146647620Y-110557533D01*
X146952381Y-110062295D02*
X147485715Y-110862295D01*
X147485715Y-110062295D02*
X146952381Y-110862295D01*
X148057143Y-110443247D02*
X147790477Y-110443247D01*
X147790477Y-110862295D02*
X147790477Y-110062295D01*
X147790477Y-110062295D02*
X148171429Y-110062295D01*
X148476191Y-110862295D02*
X148476191Y-110062295D01*
X148476191Y-110062295D02*
X148742857Y-110633723D01*
X148742857Y-110633723D02*
X149009524Y-110062295D01*
X149009524Y-110062295D02*
X149009524Y-110862295D01*
X143033333Y-94816033D02*
X142699999Y-94816033D01*
X142699999Y-94816033D02*
X142699999Y-94116033D01*
X143400000Y-94116033D02*
X143533333Y-94116033D01*
X143533333Y-94116033D02*
X143600000Y-94149366D01*
X143600000Y-94149366D02*
X143666666Y-94216033D01*
X143666666Y-94216033D02*
X143700000Y-94349366D01*
X143700000Y-94349366D02*
X143700000Y-94582700D01*
X143700000Y-94582700D02*
X143666666Y-94716033D01*
X143666666Y-94716033D02*
X143600000Y-94782700D01*
X143600000Y-94782700D02*
X143533333Y-94816033D01*
X143533333Y-94816033D02*
X143400000Y-94816033D01*
X143400000Y-94816033D02*
X143333333Y-94782700D01*
X143333333Y-94782700D02*
X143266666Y-94716033D01*
X143266666Y-94716033D02*
X143233333Y-94582700D01*
X143233333Y-94582700D02*
X143233333Y-94349366D01*
X143233333Y-94349366D02*
X143266666Y-94216033D01*
X143266666Y-94216033D02*
X143333333Y-94149366D01*
X143333333Y-94149366D02*
X143400000Y-94116033D01*
X143966666Y-94616033D02*
X144299999Y-94616033D01*
X143899999Y-94816033D02*
X144133333Y-94116033D01*
X144133333Y-94116033D02*
X144366666Y-94816033D01*
X144599999Y-94816033D02*
X144599999Y-94116033D01*
X144599999Y-94116033D02*
X144766666Y-94116033D01*
X144766666Y-94116033D02*
X144866666Y-94149366D01*
X144866666Y-94149366D02*
X144933333Y-94216033D01*
X144933333Y-94216033D02*
X144966666Y-94282700D01*
X144966666Y-94282700D02*
X144999999Y-94416033D01*
X144999999Y-94416033D02*
X144999999Y-94516033D01*
X144999999Y-94516033D02*
X144966666Y-94649366D01*
X144966666Y-94649366D02*
X144933333Y-94716033D01*
X144933333Y-94716033D02*
X144866666Y-94782700D01*
X144866666Y-94782700D02*
X144766666Y-94816033D01*
X144766666Y-94816033D02*
X144599999Y-94816033D01*
X145299999Y-94549366D02*
X145833333Y-94549366D01*
X146566666Y-94749366D02*
X146533333Y-94782700D01*
X146533333Y-94782700D02*
X146433333Y-94816033D01*
X146433333Y-94816033D02*
X146366666Y-94816033D01*
X146366666Y-94816033D02*
X146266666Y-94782700D01*
X146266666Y-94782700D02*
X146200000Y-94716033D01*
X146200000Y-94716033D02*
X146166666Y-94649366D01*
X146166666Y-94649366D02*
X146133333Y-94516033D01*
X146133333Y-94516033D02*
X146133333Y-94416033D01*
X146133333Y-94416033D02*
X146166666Y-94282700D01*
X146166666Y-94282700D02*
X146200000Y-94216033D01*
X146200000Y-94216033D02*
X146266666Y-94149366D01*
X146266666Y-94149366D02*
X146366666Y-94116033D01*
X146366666Y-94116033D02*
X146433333Y-94116033D01*
X146433333Y-94116033D02*
X146533333Y-94149366D01*
X146533333Y-94149366D02*
X146566666Y-94182700D01*
X146866666Y-94449366D02*
X147100000Y-94449366D01*
X147200000Y-94816033D02*
X146866666Y-94816033D01*
X146866666Y-94816033D02*
X146866666Y-94116033D01*
X146866666Y-94116033D02*
X147200000Y-94116033D01*
X147833333Y-94816033D02*
X147499999Y-94816033D01*
X147499999Y-94816033D02*
X147499999Y-94116033D01*
X148400000Y-94816033D02*
X148066666Y-94816033D01*
X148066666Y-94816033D02*
X148066666Y-94116033D01*
X171816033Y-107766666D02*
X171116033Y-107766666D01*
X171116033Y-107766666D02*
X171116033Y-107499999D01*
X171116033Y-107499999D02*
X171149366Y-107433333D01*
X171149366Y-107433333D02*
X171182700Y-107399999D01*
X171182700Y-107399999D02*
X171249366Y-107366666D01*
X171249366Y-107366666D02*
X171349366Y-107366666D01*
X171349366Y-107366666D02*
X171416033Y-107399999D01*
X171416033Y-107399999D02*
X171449366Y-107433333D01*
X171449366Y-107433333D02*
X171482700Y-107499999D01*
X171482700Y-107499999D02*
X171482700Y-107766666D01*
X171116033Y-107133333D02*
X171816033Y-106966666D01*
X171816033Y-106966666D02*
X171316033Y-106833333D01*
X171316033Y-106833333D02*
X171816033Y-106699999D01*
X171816033Y-106699999D02*
X171116033Y-106533333D01*
X171816033Y-106266666D02*
X171116033Y-106266666D01*
X171116033Y-106266666D02*
X171616033Y-106033333D01*
X171616033Y-106033333D02*
X171116033Y-105799999D01*
X171116033Y-105799999D02*
X171816033Y-105799999D01*
X171549366Y-105466666D02*
X171549366Y-104933333D01*
X171816033Y-104599999D02*
X171116033Y-104599999D01*
X171182700Y-104299999D02*
X171149366Y-104266666D01*
X171149366Y-104266666D02*
X171116033Y-104199999D01*
X171116033Y-104199999D02*
X171116033Y-104033333D01*
X171116033Y-104033333D02*
X171149366Y-103966666D01*
X171149366Y-103966666D02*
X171182700Y-103933333D01*
X171182700Y-103933333D02*
X171249366Y-103899999D01*
X171249366Y-103899999D02*
X171316033Y-103899999D01*
X171316033Y-103899999D02*
X171416033Y-103933333D01*
X171416033Y-103933333D02*
X171816033Y-104333333D01*
X171816033Y-104333333D02*
X171816033Y-103899999D01*
X171749366Y-103199999D02*
X171782700Y-103233332D01*
X171782700Y-103233332D02*
X171816033Y-103333332D01*
X171816033Y-103333332D02*
X171816033Y-103399999D01*
X171816033Y-103399999D02*
X171782700Y-103499999D01*
X171782700Y-103499999D02*
X171716033Y-103566666D01*
X171716033Y-103566666D02*
X171649366Y-103599999D01*
X171649366Y-103599999D02*
X171516033Y-103633332D01*
X171516033Y-103633332D02*
X171416033Y-103633332D01*
X171416033Y-103633332D02*
X171282700Y-103599999D01*
X171282700Y-103599999D02*
X171216033Y-103566666D01*
X171216033Y-103566666D02*
X171149366Y-103499999D01*
X171149366Y-103499999D02*
X171116033Y-103399999D01*
X171116033Y-103399999D02*
X171116033Y-103333332D01*
X171116033Y-103333332D02*
X171149366Y-103233332D01*
X171149366Y-103233332D02*
X171182700Y-103199999D01*
X137825001Y-94116033D02*
X137991667Y-94816033D01*
X137991667Y-94816033D02*
X138125001Y-94316033D01*
X138125001Y-94316033D02*
X138258334Y-94816033D01*
X138258334Y-94816033D02*
X138425001Y-94116033D01*
X138691667Y-94816033D02*
X138691667Y-94116033D01*
X139025000Y-94816033D02*
X139025000Y-94116033D01*
X139025000Y-94116033D02*
X139425000Y-94816033D01*
X139425000Y-94816033D02*
X139425000Y-94116033D01*
X140158333Y-94749366D02*
X140125000Y-94782700D01*
X140125000Y-94782700D02*
X140025000Y-94816033D01*
X140025000Y-94816033D02*
X139958333Y-94816033D01*
X139958333Y-94816033D02*
X139858333Y-94782700D01*
X139858333Y-94782700D02*
X139791667Y-94716033D01*
X139791667Y-94716033D02*
X139758333Y-94649366D01*
X139758333Y-94649366D02*
X139725000Y-94516033D01*
X139725000Y-94516033D02*
X139725000Y-94416033D01*
X139725000Y-94416033D02*
X139758333Y-94282700D01*
X139758333Y-94282700D02*
X139791667Y-94216033D01*
X139791667Y-94216033D02*
X139858333Y-94149366D01*
X139858333Y-94149366D02*
X139958333Y-94116033D01*
X139958333Y-94116033D02*
X140025000Y-94116033D01*
X140025000Y-94116033D02*
X140125000Y-94149366D01*
X140125000Y-94149366D02*
X140158333Y-94182700D01*
X140458333Y-94816033D02*
X140458333Y-94116033D01*
X140458333Y-94449366D02*
X140858333Y-94449366D01*
X140858333Y-94816033D02*
X140858333Y-94116033D01*
X122150000Y-108269771D02*
X122150000Y-107669771D01*
X122150000Y-107669771D02*
X122350000Y-108098342D01*
X122350000Y-108098342D02*
X122550000Y-107669771D01*
X122550000Y-107669771D02*
X122550000Y-108269771D01*
X122835714Y-108269771D02*
X122835714Y-107669771D01*
X123407142Y-108269771D02*
X123121428Y-108269771D01*
X123121428Y-108269771D02*
X123121428Y-107669771D01*
X123607142Y-108041200D02*
X124064285Y-108041200D01*
X124664284Y-108269771D02*
X124321427Y-108269771D01*
X124492856Y-108269771D02*
X124492856Y-107669771D01*
X124492856Y-107669771D02*
X124435713Y-107755485D01*
X124435713Y-107755485D02*
X124378570Y-107812628D01*
X124378570Y-107812628D02*
X124321427Y-107841200D01*
X125207142Y-107669771D02*
X124921428Y-107669771D01*
X124921428Y-107669771D02*
X124892856Y-107955485D01*
X124892856Y-107955485D02*
X124921428Y-107926914D01*
X124921428Y-107926914D02*
X124978571Y-107898342D01*
X124978571Y-107898342D02*
X125121428Y-107898342D01*
X125121428Y-107898342D02*
X125178571Y-107926914D01*
X125178571Y-107926914D02*
X125207142Y-107955485D01*
X125207142Y-107955485D02*
X125235713Y-108012628D01*
X125235713Y-108012628D02*
X125235713Y-108155485D01*
X125235713Y-108155485D02*
X125207142Y-108212628D01*
X125207142Y-108212628D02*
X125178571Y-108241200D01*
X125178571Y-108241200D02*
X125121428Y-108269771D01*
X125121428Y-108269771D02*
X124978571Y-108269771D01*
X124978571Y-108269771D02*
X124921428Y-108241200D01*
X124921428Y-108241200D02*
X124892856Y-108212628D01*
X125778571Y-107669771D02*
X125492857Y-107669771D01*
X125492857Y-107669771D02*
X125464285Y-107955485D01*
X125464285Y-107955485D02*
X125492857Y-107926914D01*
X125492857Y-107926914D02*
X125550000Y-107898342D01*
X125550000Y-107898342D02*
X125692857Y-107898342D01*
X125692857Y-107898342D02*
X125750000Y-107926914D01*
X125750000Y-107926914D02*
X125778571Y-107955485D01*
X125778571Y-107955485D02*
X125807142Y-108012628D01*
X125807142Y-108012628D02*
X125807142Y-108155485D01*
X125807142Y-108155485D02*
X125778571Y-108212628D01*
X125778571Y-108212628D02*
X125750000Y-108241200D01*
X125750000Y-108241200D02*
X125692857Y-108269771D01*
X125692857Y-108269771D02*
X125550000Y-108269771D01*
X125550000Y-108269771D02*
X125492857Y-108241200D01*
X125492857Y-108241200D02*
X125464285Y-108212628D01*
X126007143Y-107669771D02*
X126378571Y-107669771D01*
X126378571Y-107669771D02*
X126178571Y-107898342D01*
X126178571Y-107898342D02*
X126264286Y-107898342D01*
X126264286Y-107898342D02*
X126321429Y-107926914D01*
X126321429Y-107926914D02*
X126350000Y-107955485D01*
X126350000Y-107955485D02*
X126378571Y-108012628D01*
X126378571Y-108012628D02*
X126378571Y-108155485D01*
X126378571Y-108155485D02*
X126350000Y-108212628D01*
X126350000Y-108212628D02*
X126321429Y-108241200D01*
X126321429Y-108241200D02*
X126264286Y-108269771D01*
X126264286Y-108269771D02*
X126092857Y-108269771D01*
X126092857Y-108269771D02*
X126035714Y-108241200D01*
X126035714Y-108241200D02*
X126007143Y-108212628D01*
X138785715Y-110036104D02*
X138747619Y-110074200D01*
X138747619Y-110074200D02*
X138633334Y-110112295D01*
X138633334Y-110112295D02*
X138557143Y-110112295D01*
X138557143Y-110112295D02*
X138442857Y-110074200D01*
X138442857Y-110074200D02*
X138366667Y-109998009D01*
X138366667Y-109998009D02*
X138328572Y-109921819D01*
X138328572Y-109921819D02*
X138290476Y-109769438D01*
X138290476Y-109769438D02*
X138290476Y-109655152D01*
X138290476Y-109655152D02*
X138328572Y-109502771D01*
X138328572Y-109502771D02*
X138366667Y-109426580D01*
X138366667Y-109426580D02*
X138442857Y-109350390D01*
X138442857Y-109350390D02*
X138557143Y-109312295D01*
X138557143Y-109312295D02*
X138633334Y-109312295D01*
X138633334Y-109312295D02*
X138747619Y-109350390D01*
X138747619Y-109350390D02*
X138785715Y-109388485D01*
X139090476Y-109883723D02*
X139471429Y-109883723D01*
X139014286Y-110112295D02*
X139280953Y-109312295D01*
X139280953Y-109312295D02*
X139547619Y-110112295D01*
X139814286Y-110112295D02*
X139814286Y-109312295D01*
X139814286Y-109312295D02*
X140271429Y-110112295D01*
X140271429Y-110112295D02*
X140271429Y-109312295D01*
X140652381Y-109807533D02*
X141261905Y-109807533D01*
X141528571Y-109312295D02*
X141985714Y-109312295D01*
X141757142Y-110112295D02*
X141757142Y-109312295D01*
X142709524Y-110112295D02*
X142442857Y-109731342D01*
X142252381Y-110112295D02*
X142252381Y-109312295D01*
X142252381Y-109312295D02*
X142557143Y-109312295D01*
X142557143Y-109312295D02*
X142633333Y-109350390D01*
X142633333Y-109350390D02*
X142671428Y-109388485D01*
X142671428Y-109388485D02*
X142709524Y-109464676D01*
X142709524Y-109464676D02*
X142709524Y-109578961D01*
X142709524Y-109578961D02*
X142671428Y-109655152D01*
X142671428Y-109655152D02*
X142633333Y-109693247D01*
X142633333Y-109693247D02*
X142557143Y-109731342D01*
X142557143Y-109731342D02*
X142252381Y-109731342D01*
X122671428Y-105269771D02*
X122471428Y-104984057D01*
X122328571Y-105269771D02*
X122328571Y-104669771D01*
X122328571Y-104669771D02*
X122557142Y-104669771D01*
X122557142Y-104669771D02*
X122614285Y-104698342D01*
X122614285Y-104698342D02*
X122642856Y-104726914D01*
X122642856Y-104726914D02*
X122671428Y-104784057D01*
X122671428Y-104784057D02*
X122671428Y-104869771D01*
X122671428Y-104869771D02*
X122642856Y-104926914D01*
X122642856Y-104926914D02*
X122614285Y-104955485D01*
X122614285Y-104955485D02*
X122557142Y-104984057D01*
X122557142Y-104984057D02*
X122328571Y-104984057D01*
X122899999Y-105241200D02*
X122985714Y-105269771D01*
X122985714Y-105269771D02*
X123128571Y-105269771D01*
X123128571Y-105269771D02*
X123185714Y-105241200D01*
X123185714Y-105241200D02*
X123214285Y-105212628D01*
X123214285Y-105212628D02*
X123242856Y-105155485D01*
X123242856Y-105155485D02*
X123242856Y-105098342D01*
X123242856Y-105098342D02*
X123214285Y-105041200D01*
X123214285Y-105041200D02*
X123185714Y-105012628D01*
X123185714Y-105012628D02*
X123128571Y-104984057D01*
X123128571Y-104984057D02*
X123014285Y-104955485D01*
X123014285Y-104955485D02*
X122957142Y-104926914D01*
X122957142Y-104926914D02*
X122928571Y-104898342D01*
X122928571Y-104898342D02*
X122899999Y-104841200D01*
X122899999Y-104841200D02*
X122899999Y-104784057D01*
X122899999Y-104784057D02*
X122928571Y-104726914D01*
X122928571Y-104726914D02*
X122957142Y-104698342D01*
X122957142Y-104698342D02*
X123014285Y-104669771D01*
X123014285Y-104669771D02*
X123157142Y-104669771D01*
X123157142Y-104669771D02*
X123242856Y-104698342D01*
X123500000Y-105041200D02*
X123957143Y-105041200D01*
X124500000Y-104869771D02*
X124500000Y-105269771D01*
X124357142Y-104641200D02*
X124214285Y-105069771D01*
X124214285Y-105069771D02*
X124585714Y-105069771D01*
X124900000Y-104926914D02*
X124842857Y-104898342D01*
X124842857Y-104898342D02*
X124814286Y-104869771D01*
X124814286Y-104869771D02*
X124785714Y-104812628D01*
X124785714Y-104812628D02*
X124785714Y-104784057D01*
X124785714Y-104784057D02*
X124814286Y-104726914D01*
X124814286Y-104726914D02*
X124842857Y-104698342D01*
X124842857Y-104698342D02*
X124900000Y-104669771D01*
X124900000Y-104669771D02*
X125014286Y-104669771D01*
X125014286Y-104669771D02*
X125071429Y-104698342D01*
X125071429Y-104698342D02*
X125100000Y-104726914D01*
X125100000Y-104726914D02*
X125128571Y-104784057D01*
X125128571Y-104784057D02*
X125128571Y-104812628D01*
X125128571Y-104812628D02*
X125100000Y-104869771D01*
X125100000Y-104869771D02*
X125071429Y-104898342D01*
X125071429Y-104898342D02*
X125014286Y-104926914D01*
X125014286Y-104926914D02*
X124900000Y-104926914D01*
X124900000Y-104926914D02*
X124842857Y-104955485D01*
X124842857Y-104955485D02*
X124814286Y-104984057D01*
X124814286Y-104984057D02*
X124785714Y-105041200D01*
X124785714Y-105041200D02*
X124785714Y-105155485D01*
X124785714Y-105155485D02*
X124814286Y-105212628D01*
X124814286Y-105212628D02*
X124842857Y-105241200D01*
X124842857Y-105241200D02*
X124900000Y-105269771D01*
X124900000Y-105269771D02*
X125014286Y-105269771D01*
X125014286Y-105269771D02*
X125071429Y-105241200D01*
X125071429Y-105241200D02*
X125100000Y-105212628D01*
X125100000Y-105212628D02*
X125128571Y-105155485D01*
X125128571Y-105155485D02*
X125128571Y-105041200D01*
X125128571Y-105041200D02*
X125100000Y-104984057D01*
X125100000Y-104984057D02*
X125071429Y-104955485D01*
X125071429Y-104955485D02*
X125014286Y-104926914D01*
X125671429Y-104669771D02*
X125385715Y-104669771D01*
X125385715Y-104669771D02*
X125357143Y-104955485D01*
X125357143Y-104955485D02*
X125385715Y-104926914D01*
X125385715Y-104926914D02*
X125442858Y-104898342D01*
X125442858Y-104898342D02*
X125585715Y-104898342D01*
X125585715Y-104898342D02*
X125642858Y-104926914D01*
X125642858Y-104926914D02*
X125671429Y-104955485D01*
X125671429Y-104955485D02*
X125700000Y-105012628D01*
X125700000Y-105012628D02*
X125700000Y-105155485D01*
X125700000Y-105155485D02*
X125671429Y-105212628D01*
X125671429Y-105212628D02*
X125642858Y-105241200D01*
X125642858Y-105241200D02*
X125585715Y-105269771D01*
X125585715Y-105269771D02*
X125442858Y-105269771D01*
X125442858Y-105269771D02*
X125385715Y-105241200D01*
X125385715Y-105241200D02*
X125357143Y-105212628D01*
X159821033Y-98708333D02*
X159821033Y-99041666D01*
X159821033Y-99041666D02*
X159121033Y-99041666D01*
X159121033Y-98341666D02*
X159121033Y-98208332D01*
X159121033Y-98208332D02*
X159154366Y-98141666D01*
X159154366Y-98141666D02*
X159221033Y-98074999D01*
X159221033Y-98074999D02*
X159354366Y-98041666D01*
X159354366Y-98041666D02*
X159587700Y-98041666D01*
X159587700Y-98041666D02*
X159721033Y-98074999D01*
X159721033Y-98074999D02*
X159787700Y-98141666D01*
X159787700Y-98141666D02*
X159821033Y-98208332D01*
X159821033Y-98208332D02*
X159821033Y-98341666D01*
X159821033Y-98341666D02*
X159787700Y-98408332D01*
X159787700Y-98408332D02*
X159721033Y-98474999D01*
X159721033Y-98474999D02*
X159587700Y-98508332D01*
X159587700Y-98508332D02*
X159354366Y-98508332D01*
X159354366Y-98508332D02*
X159221033Y-98474999D01*
X159221033Y-98474999D02*
X159154366Y-98408332D01*
X159154366Y-98408332D02*
X159121033Y-98341666D01*
X159621033Y-97774999D02*
X159621033Y-97441666D01*
X159821033Y-97841666D02*
X159121033Y-97608333D01*
X159121033Y-97608333D02*
X159821033Y-97374999D01*
X159821033Y-97141666D02*
X159121033Y-97141666D01*
X159121033Y-97141666D02*
X159121033Y-96974999D01*
X159121033Y-96974999D02*
X159154366Y-96874999D01*
X159154366Y-96874999D02*
X159221033Y-96808333D01*
X159221033Y-96808333D02*
X159287700Y-96774999D01*
X159287700Y-96774999D02*
X159421033Y-96741666D01*
X159421033Y-96741666D02*
X159521033Y-96741666D01*
X159521033Y-96741666D02*
X159654366Y-96774999D01*
X159654366Y-96774999D02*
X159721033Y-96808333D01*
X159721033Y-96808333D02*
X159787700Y-96874999D01*
X159787700Y-96874999D02*
X159821033Y-96974999D01*
X159821033Y-96974999D02*
X159821033Y-97141666D01*
X159554366Y-96441666D02*
X159554366Y-95908333D01*
X159621033Y-95608332D02*
X159621033Y-95274999D01*
X159821033Y-95674999D02*
X159121033Y-95441666D01*
X159121033Y-95441666D02*
X159821033Y-95208332D01*
X159821033Y-94974999D02*
X159121033Y-94974999D01*
X159121033Y-94974999D02*
X159121033Y-94808332D01*
X159121033Y-94808332D02*
X159154366Y-94708332D01*
X159154366Y-94708332D02*
X159221033Y-94641666D01*
X159221033Y-94641666D02*
X159287700Y-94608332D01*
X159287700Y-94608332D02*
X159421033Y-94574999D01*
X159421033Y-94574999D02*
X159521033Y-94574999D01*
X159521033Y-94574999D02*
X159654366Y-94608332D01*
X159654366Y-94608332D02*
X159721033Y-94641666D01*
X159721033Y-94641666D02*
X159787700Y-94708332D01*
X159787700Y-94708332D02*
X159821033Y-94808332D01*
X159821033Y-94808332D02*
X159821033Y-94974999D01*
X159754366Y-93874999D02*
X159787700Y-93908332D01*
X159787700Y-93908332D02*
X159821033Y-94008332D01*
X159821033Y-94008332D02*
X159821033Y-94074999D01*
X159821033Y-94074999D02*
X159787700Y-94174999D01*
X159787700Y-94174999D02*
X159721033Y-94241666D01*
X159721033Y-94241666D02*
X159654366Y-94274999D01*
X159654366Y-94274999D02*
X159521033Y-94308332D01*
X159521033Y-94308332D02*
X159421033Y-94308332D01*
X159421033Y-94308332D02*
X159287700Y-94274999D01*
X159287700Y-94274999D02*
X159221033Y-94241666D01*
X159221033Y-94241666D02*
X159154366Y-94174999D01*
X159154366Y-94174999D02*
X159121033Y-94074999D01*
X159121033Y-94074999D02*
X159121033Y-94008332D01*
X159121033Y-94008332D02*
X159154366Y-93908332D01*
X159154366Y-93908332D02*
X159187700Y-93874999D01*
X128036371Y-98039284D02*
X128636371Y-97896427D01*
X128636371Y-97896427D02*
X128207800Y-97782141D01*
X128207800Y-97782141D02*
X128636371Y-97667856D01*
X128636371Y-97667856D02*
X128036371Y-97524999D01*
X128636371Y-97296427D02*
X128036371Y-97296427D01*
X128636371Y-97010713D02*
X128036371Y-97010713D01*
X128036371Y-97010713D02*
X128636371Y-96667856D01*
X128636371Y-96667856D02*
X128036371Y-96667856D01*
X128579228Y-96039285D02*
X128607800Y-96067857D01*
X128607800Y-96067857D02*
X128636371Y-96153571D01*
X128636371Y-96153571D02*
X128636371Y-96210714D01*
X128636371Y-96210714D02*
X128607800Y-96296428D01*
X128607800Y-96296428D02*
X128550657Y-96353571D01*
X128550657Y-96353571D02*
X128493514Y-96382142D01*
X128493514Y-96382142D02*
X128379228Y-96410714D01*
X128379228Y-96410714D02*
X128293514Y-96410714D01*
X128293514Y-96410714D02*
X128179228Y-96382142D01*
X128179228Y-96382142D02*
X128122085Y-96353571D01*
X128122085Y-96353571D02*
X128064942Y-96296428D01*
X128064942Y-96296428D02*
X128036371Y-96210714D01*
X128036371Y-96210714D02*
X128036371Y-96153571D01*
X128036371Y-96153571D02*
X128064942Y-96067857D01*
X128064942Y-96067857D02*
X128093514Y-96039285D01*
X128636371Y-95782142D02*
X128036371Y-95782142D01*
X128322085Y-95782142D02*
X128322085Y-95439285D01*
X128636371Y-95439285D02*
X128036371Y-95439285D01*
X128636371Y-94696428D02*
X128036371Y-94696428D01*
X128036371Y-94696428D02*
X128036371Y-94553571D01*
X128036371Y-94553571D02*
X128064942Y-94467857D01*
X128064942Y-94467857D02*
X128122085Y-94410714D01*
X128122085Y-94410714D02*
X128179228Y-94382143D01*
X128179228Y-94382143D02*
X128293514Y-94353571D01*
X128293514Y-94353571D02*
X128379228Y-94353571D01*
X128379228Y-94353571D02*
X128493514Y-94382143D01*
X128493514Y-94382143D02*
X128550657Y-94410714D01*
X128550657Y-94410714D02*
X128607800Y-94467857D01*
X128607800Y-94467857D02*
X128636371Y-94553571D01*
X128636371Y-94553571D02*
X128636371Y-94696428D01*
X128636371Y-93753571D02*
X128350657Y-93953571D01*
X128636371Y-94096428D02*
X128036371Y-94096428D01*
X128036371Y-94096428D02*
X128036371Y-93867857D01*
X128036371Y-93867857D02*
X128064942Y-93810714D01*
X128064942Y-93810714D02*
X128093514Y-93782143D01*
X128093514Y-93782143D02*
X128150657Y-93753571D01*
X128150657Y-93753571D02*
X128236371Y-93753571D01*
X128236371Y-93753571D02*
X128293514Y-93782143D01*
X128293514Y-93782143D02*
X128322085Y-93810714D01*
X128322085Y-93810714D02*
X128350657Y-93867857D01*
X128350657Y-93867857D02*
X128350657Y-94096428D01*
X128036371Y-93582143D02*
X128636371Y-93382143D01*
X128636371Y-93382143D02*
X128036371Y-93182143D01*
X142433333Y-97949366D02*
X142666667Y-97949366D01*
X142766667Y-98316033D02*
X142433333Y-98316033D01*
X142433333Y-98316033D02*
X142433333Y-97616033D01*
X142433333Y-97616033D02*
X142766667Y-97616033D01*
X142966666Y-97616033D02*
X143366666Y-97616033D01*
X143166666Y-98316033D02*
X143166666Y-97616033D01*
X143599999Y-98316033D02*
X143599999Y-97616033D01*
X143599999Y-97949366D02*
X143999999Y-97949366D01*
X143999999Y-98316033D02*
X143999999Y-97616033D01*
X144699999Y-98316033D02*
X144299999Y-98316033D01*
X144499999Y-98316033D02*
X144499999Y-97616033D01*
X144499999Y-97616033D02*
X144433332Y-97716033D01*
X144433332Y-97716033D02*
X144366666Y-97782700D01*
X144366666Y-97782700D02*
X144299999Y-97816033D01*
X144999999Y-98049366D02*
X145533333Y-98049366D01*
X145866666Y-98316033D02*
X145866666Y-97616033D01*
X145866666Y-97616033D02*
X146133333Y-97616033D01*
X146133333Y-97616033D02*
X146200000Y-97649366D01*
X146200000Y-97649366D02*
X146233333Y-97682700D01*
X146233333Y-97682700D02*
X146266666Y-97749366D01*
X146266666Y-97749366D02*
X146266666Y-97849366D01*
X146266666Y-97849366D02*
X146233333Y-97916033D01*
X146233333Y-97916033D02*
X146200000Y-97949366D01*
X146200000Y-97949366D02*
X146133333Y-97982700D01*
X146133333Y-97982700D02*
X145866666Y-97982700D01*
X146566666Y-98316033D02*
X146566666Y-97616033D01*
X146566666Y-97949366D02*
X146966666Y-97949366D01*
X146966666Y-98316033D02*
X146966666Y-97616033D01*
X147433333Y-97982700D02*
X147433333Y-98316033D01*
X147199999Y-97616033D02*
X147433333Y-97982700D01*
X147433333Y-97982700D02*
X147666666Y-97616033D01*
X122435714Y-102212628D02*
X122407142Y-102241200D01*
X122407142Y-102241200D02*
X122321428Y-102269771D01*
X122321428Y-102269771D02*
X122264285Y-102269771D01*
X122264285Y-102269771D02*
X122178571Y-102241200D01*
X122178571Y-102241200D02*
X122121428Y-102184057D01*
X122121428Y-102184057D02*
X122092857Y-102126914D01*
X122092857Y-102126914D02*
X122064285Y-102012628D01*
X122064285Y-102012628D02*
X122064285Y-101926914D01*
X122064285Y-101926914D02*
X122092857Y-101812628D01*
X122092857Y-101812628D02*
X122121428Y-101755485D01*
X122121428Y-101755485D02*
X122178571Y-101698342D01*
X122178571Y-101698342D02*
X122264285Y-101669771D01*
X122264285Y-101669771D02*
X122321428Y-101669771D01*
X122321428Y-101669771D02*
X122407142Y-101698342D01*
X122407142Y-101698342D02*
X122435714Y-101726914D01*
X122664285Y-102098342D02*
X122950000Y-102098342D01*
X122607142Y-102269771D02*
X122807142Y-101669771D01*
X122807142Y-101669771D02*
X123007142Y-102269771D01*
X123207143Y-102269771D02*
X123207143Y-101669771D01*
X123207143Y-101669771D02*
X123550000Y-102269771D01*
X123550000Y-102269771D02*
X123550000Y-101669771D01*
X123835714Y-102041200D02*
X124292857Y-102041200D01*
X124778571Y-101955485D02*
X124578571Y-101955485D01*
X124578571Y-102269771D02*
X124578571Y-101669771D01*
X124578571Y-101669771D02*
X124864285Y-101669771D01*
X125092857Y-102269771D02*
X125092857Y-101669771D01*
X125092857Y-101669771D02*
X125235714Y-101669771D01*
X125235714Y-101669771D02*
X125321428Y-101698342D01*
X125321428Y-101698342D02*
X125378571Y-101755485D01*
X125378571Y-101755485D02*
X125407142Y-101812628D01*
X125407142Y-101812628D02*
X125435714Y-101926914D01*
X125435714Y-101926914D02*
X125435714Y-102012628D01*
X125435714Y-102012628D02*
X125407142Y-102126914D01*
X125407142Y-102126914D02*
X125378571Y-102184057D01*
X125378571Y-102184057D02*
X125321428Y-102241200D01*
X125321428Y-102241200D02*
X125235714Y-102269771D01*
X125235714Y-102269771D02*
X125092857Y-102269771D01*
X123328572Y-117862295D02*
X123328572Y-117062295D01*
X123328572Y-117062295D02*
X123633334Y-117062295D01*
X123633334Y-117062295D02*
X123709524Y-117100390D01*
X123709524Y-117100390D02*
X123747619Y-117138485D01*
X123747619Y-117138485D02*
X123785715Y-117214676D01*
X123785715Y-117214676D02*
X123785715Y-117328961D01*
X123785715Y-117328961D02*
X123747619Y-117405152D01*
X123747619Y-117405152D02*
X123709524Y-117443247D01*
X123709524Y-117443247D02*
X123633334Y-117481342D01*
X123633334Y-117481342D02*
X123328572Y-117481342D01*
X124052381Y-117062295D02*
X124242857Y-117862295D01*
X124242857Y-117862295D02*
X124395238Y-117290866D01*
X124395238Y-117290866D02*
X124547619Y-117862295D01*
X124547619Y-117862295D02*
X124738096Y-117062295D01*
X125500001Y-117862295D02*
X125233334Y-117481342D01*
X125042858Y-117862295D02*
X125042858Y-117062295D01*
X125042858Y-117062295D02*
X125347620Y-117062295D01*
X125347620Y-117062295D02*
X125423810Y-117100390D01*
X125423810Y-117100390D02*
X125461905Y-117138485D01*
X125461905Y-117138485D02*
X125500001Y-117214676D01*
X125500001Y-117214676D02*
X125500001Y-117328961D01*
X125500001Y-117328961D02*
X125461905Y-117405152D01*
X125461905Y-117405152D02*
X125423810Y-117443247D01*
X125423810Y-117443247D02*
X125347620Y-117481342D01*
X125347620Y-117481342D02*
X125042858Y-117481342D01*
X125842858Y-117557533D02*
X126452382Y-117557533D01*
X126833334Y-117862295D02*
X126833334Y-117062295D01*
X127214286Y-117862295D02*
X127214286Y-117062295D01*
X127214286Y-117062295D02*
X127671429Y-117862295D01*
X127671429Y-117862295D02*
X127671429Y-117062295D01*
X151108333Y-97949366D02*
X151341667Y-97949366D01*
X151441667Y-98316033D02*
X151108333Y-98316033D01*
X151108333Y-98316033D02*
X151108333Y-97616033D01*
X151108333Y-97616033D02*
X151441667Y-97616033D01*
X151641666Y-97616033D02*
X152041666Y-97616033D01*
X151841666Y-98316033D02*
X151841666Y-97616033D01*
X152274999Y-98316033D02*
X152274999Y-97616033D01*
X152274999Y-97949366D02*
X152674999Y-97949366D01*
X152674999Y-98316033D02*
X152674999Y-97616033D01*
X152974999Y-97682700D02*
X153008332Y-97649366D01*
X153008332Y-97649366D02*
X153074999Y-97616033D01*
X153074999Y-97616033D02*
X153241666Y-97616033D01*
X153241666Y-97616033D02*
X153308332Y-97649366D01*
X153308332Y-97649366D02*
X153341666Y-97682700D01*
X153341666Y-97682700D02*
X153374999Y-97749366D01*
X153374999Y-97749366D02*
X153374999Y-97816033D01*
X153374999Y-97816033D02*
X153341666Y-97916033D01*
X153341666Y-97916033D02*
X152941666Y-98316033D01*
X152941666Y-98316033D02*
X153374999Y-98316033D01*
X153674999Y-98049366D02*
X154208333Y-98049366D01*
X154541666Y-98316033D02*
X154541666Y-97616033D01*
X154541666Y-97616033D02*
X154808333Y-97616033D01*
X154808333Y-97616033D02*
X154875000Y-97649366D01*
X154875000Y-97649366D02*
X154908333Y-97682700D01*
X154908333Y-97682700D02*
X154941666Y-97749366D01*
X154941666Y-97749366D02*
X154941666Y-97849366D01*
X154941666Y-97849366D02*
X154908333Y-97916033D01*
X154908333Y-97916033D02*
X154875000Y-97949366D01*
X154875000Y-97949366D02*
X154808333Y-97982700D01*
X154808333Y-97982700D02*
X154541666Y-97982700D01*
X155241666Y-98316033D02*
X155241666Y-97616033D01*
X155241666Y-97949366D02*
X155641666Y-97949366D01*
X155641666Y-98316033D02*
X155641666Y-97616033D01*
X156108333Y-97982700D02*
X156108333Y-98316033D01*
X155874999Y-97616033D02*
X156108333Y-97982700D01*
X156108333Y-97982700D02*
X156341666Y-97616033D01*
X121950000Y-95991200D02*
X122035715Y-96019771D01*
X122035715Y-96019771D02*
X122178572Y-96019771D01*
X122178572Y-96019771D02*
X122235715Y-95991200D01*
X122235715Y-95991200D02*
X122264286Y-95962628D01*
X122264286Y-95962628D02*
X122292857Y-95905485D01*
X122292857Y-95905485D02*
X122292857Y-95848342D01*
X122292857Y-95848342D02*
X122264286Y-95791200D01*
X122264286Y-95791200D02*
X122235715Y-95762628D01*
X122235715Y-95762628D02*
X122178572Y-95734057D01*
X122178572Y-95734057D02*
X122064286Y-95705485D01*
X122064286Y-95705485D02*
X122007143Y-95676914D01*
X122007143Y-95676914D02*
X121978572Y-95648342D01*
X121978572Y-95648342D02*
X121950000Y-95591200D01*
X121950000Y-95591200D02*
X121950000Y-95534057D01*
X121950000Y-95534057D02*
X121978572Y-95476914D01*
X121978572Y-95476914D02*
X122007143Y-95448342D01*
X122007143Y-95448342D02*
X122064286Y-95419771D01*
X122064286Y-95419771D02*
X122207143Y-95419771D01*
X122207143Y-95419771D02*
X122292857Y-95448342D01*
X122550001Y-96019771D02*
X122550001Y-95419771D01*
X122835715Y-96019771D02*
X122835715Y-95419771D01*
X123178572Y-96019771D02*
X122921429Y-95676914D01*
X123178572Y-95419771D02*
X122835715Y-95762628D01*
X123435715Y-95791200D02*
X123892858Y-95791200D01*
X124092857Y-95419771D02*
X124435715Y-95419771D01*
X124264286Y-96019771D02*
X124264286Y-95419771D01*
X124921429Y-96019771D02*
X124635715Y-96019771D01*
X124635715Y-96019771D02*
X124635715Y-95419771D01*
X125121429Y-96019771D02*
X125121429Y-95419771D01*
X125121429Y-95419771D02*
X125321429Y-95848342D01*
X125321429Y-95848342D02*
X125521429Y-95419771D01*
X125521429Y-95419771D02*
X125521429Y-96019771D01*
X121964285Y-98419771D02*
X122164285Y-99019771D01*
X122164285Y-99019771D02*
X122364285Y-98419771D01*
X122564286Y-99019771D02*
X122564286Y-98419771D01*
X122564286Y-98705485D02*
X122907143Y-98705485D01*
X122907143Y-99019771D02*
X122907143Y-98419771D01*
X123392857Y-98705485D02*
X123192857Y-98705485D01*
X123192857Y-99019771D02*
X123192857Y-98419771D01*
X123192857Y-98419771D02*
X123478571Y-98419771D01*
X123707143Y-98791200D02*
X124164286Y-98791200D01*
X124392857Y-98419771D02*
X124792857Y-99019771D01*
X124792857Y-98419771D02*
X124392857Y-99019771D01*
X125364286Y-98962628D02*
X125335714Y-98991200D01*
X125335714Y-98991200D02*
X125250000Y-99019771D01*
X125250000Y-99019771D02*
X125192857Y-99019771D01*
X125192857Y-99019771D02*
X125107143Y-98991200D01*
X125107143Y-98991200D02*
X125050000Y-98934057D01*
X125050000Y-98934057D02*
X125021429Y-98876914D01*
X125021429Y-98876914D02*
X124992857Y-98762628D01*
X124992857Y-98762628D02*
X124992857Y-98676914D01*
X124992857Y-98676914D02*
X125021429Y-98562628D01*
X125021429Y-98562628D02*
X125050000Y-98505485D01*
X125050000Y-98505485D02*
X125107143Y-98448342D01*
X125107143Y-98448342D02*
X125192857Y-98419771D01*
X125192857Y-98419771D02*
X125250000Y-98419771D01*
X125250000Y-98419771D02*
X125335714Y-98448342D01*
X125335714Y-98448342D02*
X125364286Y-98476914D01*
X125535714Y-98419771D02*
X125735714Y-99019771D01*
X125735714Y-99019771D02*
X125935714Y-98419771D01*
X126478572Y-99019771D02*
X126278572Y-98734057D01*
X126135715Y-99019771D02*
X126135715Y-98419771D01*
X126135715Y-98419771D02*
X126364286Y-98419771D01*
X126364286Y-98419771D02*
X126421429Y-98448342D01*
X126421429Y-98448342D02*
X126450000Y-98476914D01*
X126450000Y-98476914D02*
X126478572Y-98534057D01*
X126478572Y-98534057D02*
X126478572Y-98619771D01*
X126478572Y-98619771D02*
X126450000Y-98676914D01*
X126450000Y-98676914D02*
X126421429Y-98705485D01*
X126421429Y-98705485D02*
X126364286Y-98734057D01*
X126364286Y-98734057D02*
X126135715Y-98734057D01*
D11*
%TO.C,uSD-X-Blk*%
X128782500Y-98795000D02*
X130432500Y-98795000D01*
X128782500Y-100445000D02*
X128782500Y-98795000D01*
X128782500Y-107475000D02*
X128782500Y-107975000D01*
X128782500Y-107975000D02*
X129932500Y-109125000D01*
X129932500Y-109125000D02*
X130432500Y-109125000D01*
X139112500Y-98795000D02*
X137462500Y-98795000D01*
X139112500Y-100445000D02*
X139112500Y-98795000D01*
X139112500Y-107475000D02*
X139112500Y-109125000D01*
X139112500Y-109125000D02*
X137462500Y-109125000D01*
D13*
%TO.C,1553-RCV*%
X160440000Y-113500000D02*
X160440000Y-111550000D01*
X160440000Y-113500000D02*
X160440000Y-115450000D01*
X170560000Y-113500000D02*
X170560000Y-111550000D01*
X170560000Y-113500000D02*
X170560000Y-115450000D01*
X170835000Y-111040000D02*
X170505000Y-110800000D01*
X170835000Y-110560000D01*
X170835000Y-111040000D01*
G36*
X170835000Y-111040000D02*
G01*
X170505000Y-110800000D01*
X170835000Y-110560000D01*
X170835000Y-111040000D01*
G37*
%TO.C,RS485*%
X131440000Y-114000000D02*
X131440000Y-112050000D01*
X131440000Y-114000000D02*
X131440000Y-115950000D01*
X136560000Y-114000000D02*
X136560000Y-112050000D01*
X136560000Y-114000000D02*
X136560000Y-115950000D01*
X131535000Y-116700000D02*
X131205000Y-116940000D01*
X131205000Y-116460000D01*
X131535000Y-116700000D01*
G36*
X131535000Y-116700000D02*
G01*
X131205000Y-116940000D01*
X131205000Y-116460000D01*
X131535000Y-116700000D01*
G37*
%TO.C,1553-DRV*%
X149495000Y-113475000D02*
X149495000Y-111525000D01*
X149495000Y-113475000D02*
X149495000Y-115425000D01*
X159615000Y-113475000D02*
X159615000Y-111525000D01*
X159615000Y-113475000D02*
X159615000Y-115425000D01*
X159890000Y-111015000D02*
X159560000Y-110775000D01*
X159890000Y-110535000D01*
X159890000Y-111015000D01*
G36*
X159890000Y-111015000D02*
G01*
X159560000Y-110775000D01*
X159890000Y-110535000D01*
X159890000Y-111015000D01*
G37*
%TO.C,PWM-I2C*%
X160815000Y-101815000D02*
X161090000Y-101815000D01*
X160815000Y-104125000D02*
X160815000Y-101815000D01*
X160815000Y-104125000D02*
X160815000Y-106435000D01*
X160815000Y-106435000D02*
X161090000Y-106435000D01*
X170735000Y-101815000D02*
X170460000Y-101815000D01*
X170735000Y-104125000D02*
X170735000Y-101815000D01*
X170735000Y-104125000D02*
X170735000Y-106435000D01*
X170735000Y-106435000D02*
X170460000Y-106435000D01*
X170790000Y-101440000D02*
X170460000Y-101200000D01*
X170790000Y-100960000D01*
X170790000Y-101440000D01*
G36*
X170790000Y-101440000D02*
G01*
X170460000Y-101200000D01*
X170790000Y-100960000D01*
X170790000Y-101440000D01*
G37*
%TO.C,CAN-TR*%
X137940000Y-114000000D02*
X137940000Y-112050000D01*
X137940000Y-114000000D02*
X137940000Y-115950000D01*
X143060000Y-114000000D02*
X143060000Y-112050000D01*
X143060000Y-114000000D02*
X143060000Y-115950000D01*
X138035000Y-116700000D02*
X137705000Y-116940000D01*
X137705000Y-116460000D01*
X138035000Y-116700000D01*
G36*
X138035000Y-116700000D02*
G01*
X137705000Y-116940000D01*
X137705000Y-116460000D01*
X138035000Y-116700000D01*
G37*
%TO.C,LOAD-ADC*%
X160345000Y-96475000D02*
X160345000Y-94525000D01*
X160345000Y-96475000D02*
X160345000Y-98425000D01*
X170465000Y-96475000D02*
X170465000Y-94525000D01*
X170465000Y-96475000D02*
X170465000Y-98425000D01*
X160400000Y-99175000D02*
X160070000Y-99415000D01*
X160070000Y-98935000D01*
X160400000Y-99175000D01*
G36*
X160400000Y-99175000D02*
G01*
X160070000Y-99415000D01*
X160070000Y-98935000D01*
X160400000Y-99175000D01*
G37*
D12*
%TO.C,WINCH DRV*%
X130116600Y-92900000D02*
X134616600Y-92900000D01*
X130116600Y-98350000D02*
X134616600Y-98350000D01*
D13*
X129566600Y-92875000D02*
X129326600Y-92545000D01*
X129806600Y-92545000D01*
X129566600Y-92875000D01*
G36*
X129566600Y-92875000D02*
G01*
X129326600Y-92545000D01*
X129806600Y-92545000D01*
X129566600Y-92875000D01*
G37*
%TO.C,ETH1-PHY*%
X141227500Y-100140000D02*
X141227500Y-100590000D01*
X141227500Y-107360000D02*
X141227500Y-106910000D01*
X141677500Y-100140000D02*
X141227500Y-100140000D01*
X141677500Y-107360000D02*
X141227500Y-107360000D01*
X147997500Y-100140000D02*
X148447500Y-100140000D01*
X147997500Y-107360000D02*
X148447500Y-107360000D01*
X148447500Y-100140000D02*
X148447500Y-100590000D01*
X148447500Y-107360000D02*
X148447500Y-106910000D01*
X140637500Y-100590000D02*
X140297500Y-100120000D01*
X140977500Y-100120000D01*
X140637500Y-100590000D01*
G36*
X140637500Y-100590000D02*
G01*
X140297500Y-100120000D01*
X140977500Y-100120000D01*
X140637500Y-100590000D01*
G37*
%TO.C,ETH2-PHY*%
X151727500Y-100140000D02*
X151727500Y-100590000D01*
X151727500Y-107360000D02*
X151727500Y-106910000D01*
X152177500Y-100140000D02*
X151727500Y-100140000D01*
X152177500Y-107360000D02*
X151727500Y-107360000D01*
X158497500Y-100140000D02*
X158947500Y-100140000D01*
X158497500Y-107360000D02*
X158947500Y-107360000D01*
X158947500Y-100140000D02*
X158947500Y-100590000D01*
X158947500Y-107360000D02*
X158947500Y-106910000D01*
X151137500Y-100590000D02*
X150797500Y-100120000D01*
X151477500Y-100120000D01*
X151137500Y-100590000D01*
G36*
X151137500Y-100590000D02*
G01*
X150797500Y-100120000D01*
X151477500Y-100120000D01*
X151137500Y-100590000D01*
G37*
%TD*%
D14*
X174000000Y-95460000D03*
X174000000Y-98000000D03*
X174000000Y-100540000D03*
X174000000Y-103080000D03*
X174000000Y-105620000D03*
X174000000Y-108160000D03*
X174000000Y-110700000D03*
X174000000Y-113240000D03*
X173000000Y-119500000D03*
X173000000Y-90500000D03*
X124000000Y-119500000D03*
X123000000Y-116000000D03*
X125500000Y-116000000D03*
X128000000Y-116000000D03*
X130500000Y-116000000D03*
X124000000Y-90500000D03*
X126910000Y-118690000D03*
X126910000Y-121230000D03*
X129450000Y-118690000D03*
X129450000Y-121230000D03*
X131990000Y-118690000D03*
X131990000Y-121230000D03*
X134530000Y-118690000D03*
X134530000Y-121230000D03*
X137070000Y-118690000D03*
X137070000Y-121230000D03*
X139610000Y-118690000D03*
X139610000Y-121230000D03*
X142150000Y-118690000D03*
X142150000Y-121230000D03*
X144690000Y-118690000D03*
X144690000Y-121230000D03*
X147230000Y-118690000D03*
X147230000Y-121230000D03*
X149770000Y-118690000D03*
X149770000Y-121230000D03*
X152310000Y-118690000D03*
X152310000Y-121230000D03*
X154850000Y-118690000D03*
X154850000Y-121230000D03*
X157390000Y-118690000D03*
X157390000Y-121230000D03*
X159930000Y-118690000D03*
X159930000Y-121230000D03*
X162470000Y-118690000D03*
X162470000Y-121230000D03*
X165010000Y-118690000D03*
X165010000Y-121230000D03*
X167550000Y-118690000D03*
X167550000Y-121230000D03*
X170090000Y-118690000D03*
X170090000Y-121230000D03*
X126910000Y-88770000D03*
X126910000Y-91310000D03*
X129450000Y-88770000D03*
X129450000Y-91310000D03*
X131990000Y-88770000D03*
X131990000Y-91310000D03*
X134530000Y-88770000D03*
X134530000Y-91310000D03*
X137070000Y-88770000D03*
X137070000Y-91310000D03*
X139610000Y-88770000D03*
X139610000Y-91310000D03*
X142150000Y-88770000D03*
X142150000Y-91310000D03*
X144690000Y-88770000D03*
X144690000Y-91310000D03*
X147230000Y-88770000D03*
X147230000Y-91310000D03*
X149770000Y-88770000D03*
X149770000Y-91310000D03*
X152310000Y-88770000D03*
X152310000Y-91310000D03*
X154850000Y-88770000D03*
X154850000Y-91310000D03*
X157390000Y-88770000D03*
X157390000Y-91310000D03*
X159930000Y-88770000D03*
X159930000Y-91310000D03*
X162470000Y-88770000D03*
X162470000Y-91310000D03*
X165010000Y-88770000D03*
X165010000Y-91310000D03*
X167550000Y-88770000D03*
X167550000Y-91310000D03*
X170090000Y-88770000D03*
X170090000Y-91310000D03*
M02*
