solid nozzle_outer_housing_80mm
  facet normal 0.995185 0.098017 0.000000
    outer loop
      vertex 50.0000 0.0000 0.0000
      vertex 49.0393 9.7545 0.0000
      vertex 49.0393 9.7545 20.0000
    endloop
  endfacet
  facet normal 0.995185 0.098017 -0.000000
    outer loop
      vertex 50.0000 0.0000 0.0000
      vertex 49.0393 9.7545 20.0000
      vertex 50.0000 0.0000 20.0000
    endloop
  endfacet
  facet normal -0.995185 -0.098017 0.000000
    outer loop
      vertex 40.2122 7.9987 0.0000
      vertex 41.0000 0.0000 0.0000
      vertex 41.0000 0.0000 20.0000
    endloop
  endfacet
  facet normal -0.995185 -0.098017 0.000000
    outer loop
      vertex 40.2122 7.9987 0.0000
      vertex 41.0000 0.0000 20.0000
      vertex 40.2122 7.9987 20.0000
    endloop
  endfacet
  facet normal 0.000000 0.000000 1.000000
    outer loop
      vertex 50.0000 0.0000 0.0000
      vertex 49.0393 9.7545 0.0000
      vertex 40.2122 7.9987 0.0000
    endloop
  endfacet
  facet normal 0.000000 0.000000 1.000000
    outer loop
      vertex 50.0000 0.0000 0.0000
      vertex 40.2122 7.9987 0.0000
      vertex 41.0000 0.0000 0.0000
    endloop
  endfacet
  facet normal 0.000000 0.000000 -1.000000
    outer loop
      vertex 50.0000 0.0000 20.0000
      vertex 41.0000 0.0000 20.0000
      vertex 49.0393 9.7545 20.0000
    endloop
  endfacet
  facet normal 0.000000 0.000000 -1.000000
    outer loop
      vertex 49.0393 9.7545 20.0000
      vertex 41.0000 0.0000 20.0000
      vertex 40.2122 7.9987 20.0000
    endloop
  endfacet
  facet normal 0.000000 0.000000 1.000000
    outer loop
      vertex 50.0000 0.0000 20.0000
      vertex 40.2122 7.9987 20.0000
      vertex 41.0000 0.0000 20.0000
    endloop
  endfacet
  facet normal 0.000000 0.000000 1.000000
    outer loop
      vertex 50.0000 0.0000 20.0000
      vertex 49.0393 9.7545 20.0000
      vertex 40.2122 7.9987 20.0000
    endloop
  endfacet
  facet normal 0.956940 0.290285 0.000000
    outer loop
      vertex 49.0393 9.7545 0.0000
      vertex 46.1940 19.1342 0.0000
      vertex 46.1940 19.1342 20.0000
    endloop
  endfacet
  facet normal 0.956940 0.290285 -0.000000
    outer loop
      vertex 49.0393 9.7545 0.0000
      vertex 46.1940 19.1342 20.0000
      vertex 49.0393 9.7545 20.0000
    endloop
  endfacet
  facet normal -0.956940 -0.290285 0.000000
    outer loop
      vertex 37.8791 15.6900 0.0000
      vertex 40.2122 7.9987 0.0000
      vertex 40.2122 7.9987 20.0000
    endloop
  endfacet
  facet normal -0.956940 -0.290285 0.000000
    outer loop
      vertex 37.8791 15.6900 0.0000
      vertex 40.2122 7.9987 20.0000
      vertex 37.8791 15.6900 20.0000
    endloop
  endfacet
  facet normal 0.000000 0.000000 1.000000
    outer loop
      vertex 49.0393 9.7545 0.0000
      vertex 46.1940 19.1342 0.0000
      vertex 37.8791 15.6900 0.0000
    endloop
  endfacet
  facet normal 0.000000 0.000000 1.000000
    outer loop
      vertex 49.0393 9.7545 0.0000
      vertex 37.8791 15.6900 0.0000
      vertex 40.2122 7.9987 0.0000
    endloop
  endfacet
  facet normal -0.000000 0.000000 -1.000000
    outer loop
      vertex 49.0393 9.7545 20.0000
      vertex 40.2122 7.9987 20.0000
      vertex 46.1940 19.1342 20.0000
    endloop
  endfacet
  facet normal 0.000000 0.000000 -1.000000
    outer loop
      vertex 46.1940 19.1342 20.0000
      vertex 40.2122 7.9987 20.0000
      vertex 37.8791 15.6900 20.0000
    endloop
  endfacet
  facet normal 0.000000 0.000000 1.000000
    outer loop
      vertex 49.0393 9.7545 20.0000
      vertex 37.8791 15.6900 20.0000
      vertex 40.2122 7.9987 20.0000
    endloop
  endfacet
  facet normal 0.000000 0.000000 1.000000
    outer loop
      vertex 49.0393 9.7545 20.0000
      vertex 46.1940 19.1342 20.0000
      vertex 37.8791 15.6900 20.0000
    endloop
  endfacet
  facet normal 0.881921 0.471397 0.000000
    outer loop
      vertex 46.1940 19.1342 0.0000
      vertex 41.5735 27.7785 0.0000
      vertex 41.5735 27.7785 20.0000
    endloop
  endfacet
  facet normal 0.881921 0.471397 -0.000000
    outer loop
      vertex 46.1940 19.1342 0.0000
      vertex 41.5735 27.7785 20.0000
      vertex 46.1940 19.1342 20.0000
    endloop
  endfacet
  facet normal -0.881921 -0.471397 0.000000
    outer loop
      vertex 34.0903 22.7784 0.0000
      vertex 37.8791 15.6900 0.0000
      vertex 37.8791 15.6900 20.0000
    endloop
  endfacet
  facet normal -0.881921 -0.471397 0.000000
    outer loop
      vertex 34.0903 22.7784 0.0000
      vertex 37.8791 15.6900 20.0000
      vertex 34.0903 22.7784 20.0000
    endloop
  endfacet
  facet normal 0.000000 0.000000 1.000000
    outer loop
      vertex 46.1940 19.1342 0.0000
      vertex 41.5735 27.7785 0.0000
      vertex 34.0903 22.7784 0.0000
    endloop
  endfacet
  facet normal 0.000000 0.000000 1.000000
    outer loop
      vertex 46.1940 19.1342 0.0000
      vertex 34.0903 22.7784 0.0000
      vertex 37.8791 15.6900 0.0000
    endloop
  endfacet
  facet normal -0.000000 0.000000 -1.000000
    outer loop
      vertex 46.1940 19.1342 20.0000
      vertex 37.8791 15.6900 20.0000
      vertex 41.5735 27.7785 20.0000
    endloop
  endfacet
  facet normal 0.000000 0.000000 -1.000000
    outer loop
      vertex 41.5735 27.7785 20.0000
      vertex 37.8791 15.6900 20.0000
      vertex 34.0903 22.7784 20.0000
    endloop
  endfacet
  facet normal 0.000000 0.000000 1.000000
    outer loop
      vertex 46.1940 19.1342 20.0000
      vertex 34.0903 22.7784 20.0000
      vertex 37.8791 15.6900 20.0000
    endloop
  endfacet
  facet normal 0.000000 0.000000 1.000000
    outer loop
      vertex 46.1940 19.1342 20.0000
      vertex 41.5735 27.7785 20.0000
      vertex 34.0903 22.7784 20.0000
    endloop
  endfacet
  facet normal 0.773010 0.634393 0.000000
    outer loop
      vertex 41.5735 27.7785 0.0000
      vertex 35.3553 35.3553 0.0000
      vertex 35.3553 35.3553 20.0000
    endloop
  endfacet
  facet normal 0.773010 0.634393 -0.000000
    outer loop
      vertex 41.5735 27.7785 0.0000
      vertex 35.3553 35.3553 20.0000
      vertex 41.5735 27.7785 20.0000
    endloop
  endfacet
  facet normal -0.773010 -0.634393 0.000000
    outer loop
      vertex 28.9914 28.9914 0.0000
      vertex 34.0903 22.7784 0.0000
      vertex 34.0903 22.7784 20.0000
    endloop
  endfacet
  facet normal -0.773010 -0.634393 0.000000
    outer loop
      vertex 28.9914 28.9914 0.0000
      vertex 34.0903 22.7784 20.0000
      vertex 28.9914 28.9914 20.0000
    endloop
  endfacet
  facet normal 0.000000 0.000000 1.000000
    outer loop
      vertex 41.5735 27.7785 0.0000
      vertex 35.3553 35.3553 0.0000
      vertex 28.9914 28.9914 0.0000
    endloop
  endfacet
  facet normal 0.000000 0.000000 1.000000
    outer loop
      vertex 41.5735 27.7785 0.0000
      vertex 28.9914 28.9914 0.0000
      vertex 34.0903 22.7784 0.0000
    endloop
  endfacet
  facet normal -0.000000 0.000000 -1.000000
    outer loop
      vertex 41.5735 27.7785 20.0000
      vertex 34.0903 22.7784 20.0000
      vertex 35.3553 35.3553 20.0000
    endloop
  endfacet
  facet normal 0.000000 0.000000 -1.000000
    outer loop
      vertex 35.3553 35.3553 20.0000
      vertex 34.0903 22.7784 20.0000
      vertex 28.9914 28.9914 20.0000
    endloop
  endfacet
  facet normal 0.000000 0.000000 1.000000
    outer loop
      vertex 41.5735 27.7785 20.0000
      vertex 28.9914 28.9914 20.0000
      vertex 34.0903 22.7784 20.0000
    endloop
  endfacet
  facet normal 0.000000 0.000000 1.000000
    outer loop
      vertex 41.5735 27.7785 20.0000
      vertex 35.3553 35.3553 20.0000
      vertex 28.9914 28.9914 20.0000
    endloop
  endfacet
  facet normal 0.634393 0.773010 0.000000
    outer loop
      vertex 35.3553 35.3553 0.0000
      vertex 27.7785 41.5735 0.0000
      vertex 27.7785 41.5735 20.0000
    endloop
  endfacet
  facet normal 0.634393 0.773010 -0.000000
    outer loop
      vertex 35.3553 35.3553 0.0000
      vertex 27.7785 41.5735 20.0000
      vertex 35.3553 35.3553 20.0000
    endloop
  endfacet
  facet normal -0.634393 -0.773010 0.000000
    outer loop
      vertex 22.7784 34.0903 0.0000
      vertex 28.9914 28.9914 0.0000
      vertex 28.9914 28.9914 20.0000
    endloop
  endfacet
  facet normal -0.634393 -0.773010 0.000000
    outer loop
      vertex 22.7784 34.0903 0.0000
      vertex 28.9914 28.9914 20.0000
      vertex 22.7784 34.0903 20.0000
    endloop
  endfacet
  facet normal 0.000000 0.000000 1.000000
    outer loop
      vertex 35.3553 35.3553 0.0000
      vertex 27.7785 41.5735 0.0000
      vertex 22.7784 34.0903 0.0000
    endloop
  endfacet
  facet normal 0.000000 0.000000 1.000000
    outer loop
      vertex 35.3553 35.3553 0.0000
      vertex 22.7784 34.0903 0.0000
      vertex 28.9914 28.9914 0.0000
    endloop
  endfacet
  facet normal -0.000000 0.000000 -1.000000
    outer loop
      vertex 35.3553 35.3553 20.0000
      vertex 28.9914 28.9914 20.0000
      vertex 27.7785 41.5735 20.0000
    endloop
  endfacet
  facet normal 0.000000 -0.000000 -1.000000
    outer loop
      vertex 27.7785 41.5735 20.0000
      vertex 28.9914 28.9914 20.0000
      vertex 22.7784 34.0903 20.0000
    endloop
  endfacet
  facet normal 0.000000 0.000000 1.000000
    outer loop
      vertex 35.3553 35.3553 20.0000
      vertex 22.7784 34.0903 20.0000
      vertex 28.9914 28.9914 20.0000
    endloop
  endfacet
  facet normal 0.000000 0.000000 1.000000
    outer loop
      vertex 35.3553 35.3553 20.0000
      vertex 27.7785 41.5735 20.0000
      vertex 22.7784 34.0903 20.0000
    endloop
  endfacet
  facet normal 0.471397 0.881921 0.000000
    outer loop
      vertex 27.7785 41.5735 0.0000
      vertex 19.1342 46.1940 0.0000
      vertex 19.1342 46.1940 20.0000
    endloop
  endfacet
  facet normal 0.471397 0.881921 -0.000000
    outer loop
      vertex 27.7785 41.5735 0.0000
      vertex 19.1342 46.1940 20.0000
      vertex 27.7785 41.5735 20.0000
    endloop
  endfacet
  facet normal -0.471397 -0.881921 0.000000
    outer loop
      vertex 15.6900 37.8791 0.0000
      vertex 22.7784 34.0903 0.0000
      vertex 22.7784 34.0903 20.0000
    endloop
  endfacet
  facet normal -0.471397 -0.881921 0.000000
    outer loop
      vertex 15.6900 37.8791 0.0000
      vertex 22.7784 34.0903 20.0000
      vertex 15.6900 37.8791 20.0000
    endloop
  endfacet
  facet normal 0.000000 0.000000 1.000000
    outer loop
      vertex 27.7785 41.5735 0.0000
      vertex 19.1342 46.1940 0.0000
      vertex 15.6900 37.8791 0.0000
    endloop
  endfacet
  facet normal 0.000000 0.000000 1.000000
    outer loop
      vertex 27.7785 41.5735 0.0000
      vertex 15.6900 37.8791 0.0000
      vertex 22.7784 34.0903 0.0000
    endloop
  endfacet
  facet normal -0.000000 0.000000 -1.000000
    outer loop
      vertex 27.7785 41.5735 20.0000
      vertex 22.7784 34.0903 20.0000
      vertex 19.1342 46.1940 20.0000
    endloop
  endfacet
  facet normal 0.000000 -0.000000 -1.000000
    outer loop
      vertex 19.1342 46.1940 20.0000
      vertex 22.7784 34.0903 20.0000
      vertex 15.6900 37.8791 20.0000
    endloop
  endfacet
  facet normal 0.000000 0.000000 1.000000
    outer loop
      vertex 27.7785 41.5735 20.0000
      vertex 15.6900 37.8791 20.0000
      vertex 22.7784 34.0903 20.0000
    endloop
  endfacet
  facet normal 0.000000 0.000000 1.000000
    outer loop
      vertex 27.7785 41.5735 20.0000
      vertex 19.1342 46.1940 20.0000
      vertex 15.6900 37.8791 20.0000
    endloop
  endfacet
  facet normal 0.290285 0.956940 0.000000
    outer loop
      vertex 19.1342 46.1940 0.0000
      vertex 9.7545 49.0393 0.0000
      vertex 9.7545 49.0393 20.0000
    endloop
  endfacet
  facet normal 0.290285 0.956940 -0.000000
    outer loop
      vertex 19.1342 46.1940 0.0000
      vertex 9.7545 49.0393 20.0000
      vertex 19.1342 46.1940 20.0000
    endloop
  endfacet
  facet normal -0.290285 -0.956940 0.000000
    outer loop
      vertex 7.9987 40.2122 0.0000
      vertex 15.6900 37.8791 0.0000
      vertex 15.6900 37.8791 20.0000
    endloop
  endfacet
  facet normal -0.290285 -0.956940 0.000000
    outer loop
      vertex 7.9987 40.2122 0.0000
      vertex 15.6900 37.8791 20.0000
      vertex 7.9987 40.2122 20.0000
    endloop
  endfacet
  facet normal 0.000000 0.000000 1.000000
    outer loop
      vertex 19.1342 46.1940 0.0000
      vertex 9.7545 49.0393 0.0000
      vertex 7.9987 40.2122 0.0000
    endloop
  endfacet
  facet normal 0.000000 0.000000 1.000000
    outer loop
      vertex 19.1342 46.1940 0.0000
      vertex 7.9987 40.2122 0.0000
      vertex 15.6900 37.8791 0.0000
    endloop
  endfacet
  facet normal -0.000000 0.000000 -1.000000
    outer loop
      vertex 19.1342 46.1940 20.0000
      vertex 15.6900 37.8791 20.0000
      vertex 9.7545 49.0393 20.0000
    endloop
  endfacet
  facet normal 0.000000 -0.000000 -1.000000
    outer loop
      vertex 9.7545 49.0393 20.0000
      vertex 15.6900 37.8791 20.0000
      vertex 7.9987 40.2122 20.0000
    endloop
  endfacet
  facet normal 0.000000 0.000000 1.000000
    outer loop
      vertex 19.1342 46.1940 20.0000
      vertex 7.9987 40.2122 20.0000
      vertex 15.6900 37.8791 20.0000
    endloop
  endfacet
  facet normal 0.000000 0.000000 1.000000
    outer loop
      vertex 19.1342 46.1940 20.0000
      vertex 9.7545 49.0393 20.0000
      vertex 7.9987 40.2122 20.0000
    endloop
  endfacet
  facet normal 0.098017 0.995185 0.000000
    outer loop
      vertex 9.7545 49.0393 0.0000
      vertex 0.0000 50.0000 0.0000
      vertex 0.0000 50.0000 20.0000
    endloop
  endfacet
  facet normal 0.098017 0.995185 -0.000000
    outer loop
      vertex 9.7545 49.0393 0.0000
      vertex 0.0000 50.0000 20.0000
      vertex 9.7545 49.0393 20.0000
    endloop
  endfacet
  facet normal -0.098017 -0.995185 0.000000
    outer loop
      vertex 0.0000 41.0000 0.0000
      vertex 7.9987 40.2122 0.0000
      vertex 7.9987 40.2122 20.0000
    endloop
  endfacet
  facet normal -0.098017 -0.995185 0.000000
    outer loop
      vertex 0.0000 41.0000 0.0000
      vertex 7.9987 40.2122 20.0000
      vertex 0.0000 41.0000 20.0000
    endloop
  endfacet
  facet normal 0.000000 0.000000 1.000000
    outer loop
      vertex 9.7545 49.0393 0.0000
      vertex 0.0000 50.0000 0.0000
      vertex 0.0000 41.0000 0.0000
    endloop
  endfacet
  facet normal 0.000000 0.000000 1.000000
    outer loop
      vertex 9.7545 49.0393 0.0000
      vertex 0.0000 41.0000 0.0000
      vertex 7.9987 40.2122 0.0000
    endloop
  endfacet
  facet normal -0.000000 0.000000 -1.000000
    outer loop
      vertex 9.7545 49.0393 20.0000
      vertex 7.9987 40.2122 20.0000
      vertex 0.0000 50.0000 20.0000
    endloop
  endfacet
  facet normal 0.000000 -0.000000 -1.000000
    outer loop
      vertex 0.0000 50.0000 20.0000
      vertex 7.9987 40.2122 20.0000
      vertex 0.0000 41.0000 20.0000
    endloop
  endfacet
  facet normal 0.000000 0.000000 1.000000
    outer loop
      vertex 9.7545 49.0393 20.0000
      vertex 0.0000 41.0000 20.0000
      vertex 7.9987 40.2122 20.0000
    endloop
  endfacet
  facet normal 0.000000 0.000000 1.000000
    outer loop
      vertex 9.7545 49.0393 20.0000
      vertex 0.0000 50.0000 20.0000
      vertex 0.0000 41.0000 20.0000
    endloop
  endfacet
  facet normal -0.098017 0.995185 0.000000
    outer loop
      vertex 0.0000 50.0000 0.0000
      vertex -9.7545 49.0393 0.0000
      vertex -9.7545 49.0393 20.0000
    endloop
  endfacet
  facet normal -0.098017 0.995185 0.000000
    outer loop
      vertex 0.0000 50.0000 0.0000
      vertex -9.7545 49.0393 20.0000
      vertex 0.0000 50.0000 20.0000
    endloop
  endfacet
  facet normal 0.098017 -0.995185 0.000000
    outer loop
      vertex -7.9987 40.2122 0.0000
      vertex 0.0000 41.0000 0.0000
      vertex 0.0000 41.0000 20.0000
    endloop
  endfacet
  facet normal 0.098017 -0.995185 0.000000
    outer loop
      vertex -7.9987 40.2122 0.0000
      vertex 0.0000 41.0000 20.0000
      vertex -7.9987 40.2122 20.0000
    endloop
  endfacet
  facet normal 0.000000 0.000000 1.000000
    outer loop
      vertex 0.0000 50.0000 0.0000
      vertex -9.7545 49.0393 0.0000
      vertex -7.9987 40.2122 0.0000
    endloop
  endfacet
  facet normal 0.000000 0.000000 1.000000
    outer loop
      vertex 0.0000 50.0000 0.0000
      vertex -7.9987 40.2122 0.0000
      vertex 0.0000 41.0000 0.0000
    endloop
  endfacet
  facet normal 0.000000 0.000000 -1.000000
    outer loop
      vertex 0.0000 50.0000 20.0000
      vertex 0.0000 41.0000 20.0000
      vertex -9.7545 49.0393 20.0000
    endloop
  endfacet
  facet normal 0.000000 0.000000 -1.000000
    outer loop
      vertex -9.7545 49.0393 20.0000
      vertex 0.0000 41.0000 20.0000
      vertex -7.9987 40.2122 20.0000
    endloop
  endfacet
  facet normal 0.000000 0.000000 1.000000
    outer loop
      vertex 0.0000 50.0000 20.0000
      vertex -7.9987 40.2122 20.0000
      vertex 0.0000 41.0000 20.0000
    endloop
  endfacet
  facet normal 0.000000 0.000000 1.000000
    outer loop
      vertex 0.0000 50.0000 20.0000
      vertex -9.7545 49.0393 20.0000
      vertex -7.9987 40.2122 20.0000
    endloop
  endfacet
  facet normal -0.290285 0.956940 0.000000
    outer loop
      vertex -9.7545 49.0393 0.0000
      vertex -19.1342 46.1940 0.0000
      vertex -19.1342 46.1940 20.0000
    endloop
  endfacet
  facet normal -0.290285 0.956940 0.000000
    outer loop
      vertex -9.7545 49.0393 0.0000
      vertex -19.1342 46.1940 20.0000
      vertex -9.7545 49.0393 20.0000
    endloop
  endfacet
  facet normal 0.290285 -0.956940 0.000000
    outer loop
      vertex -15.6900 37.8791 0.0000
      vertex -7.9987 40.2122 0.0000
      vertex -7.9987 40.2122 20.0000
    endloop
  endfacet
  facet normal 0.290285 -0.956940 0.000000
    outer loop
      vertex -15.6900 37.8791 0.0000
      vertex -7.9987 40.2122 20.0000
      vertex -15.6900 37.8791 20.0000
    endloop
  endfacet
  facet normal 0.000000 0.000000 1.000000
    outer loop
      vertex -9.7545 49.0393 0.0000
      vertex -19.1342 46.1940 0.0000
      vertex -15.6900 37.8791 0.0000
    endloop
  endfacet
  facet normal 0.000000 0.000000 1.000000
    outer loop
      vertex -9.7545 49.0393 0.0000
      vertex -15.6900 37.8791 0.0000
      vertex -7.9987 40.2122 0.0000
    endloop
  endfacet
  facet normal 0.000000 -0.000000 -1.000000
    outer loop
      vertex -9.7545 49.0393 20.0000
      vertex -7.9987 40.2122 20.0000
      vertex -19.1342 46.1940 20.0000
    endloop
  endfacet
  facet normal 0.000000 0.000000 -1.000000
    outer loop
      vertex -19.1342 46.1940 20.0000
      vertex -7.9987 40.2122 20.0000
      vertex -15.6900 37.8791 20.0000
    endloop
  endfacet
  facet normal 0.000000 0.000000 1.000000
    outer loop
      vertex -9.7545 49.0393 20.0000
      vertex -15.6900 37.8791 20.0000
      vertex -7.9987 40.2122 20.0000
    endloop
  endfacet
  facet normal 0.000000 0.000000 1.000000
    outer loop
      vertex -9.7545 49.0393 20.0000
      vertex -19.1342 46.1940 20.0000
      vertex -15.6900 37.8791 20.0000
    endloop
  endfacet
  facet normal -0.471397 0.881921 0.000000
    outer loop
      vertex -19.1342 46.1940 0.0000
      vertex -27.7785 41.5735 0.0000
      vertex -27.7785 41.5735 20.0000
    endloop
  endfacet
  facet normal -0.471397 0.881921 0.000000
    outer loop
      vertex -19.1342 46.1940 0.0000
      vertex -27.7785 41.5735 20.0000
      vertex -19.1342 46.1940 20.0000
    endloop
  endfacet
  facet normal 0.471397 -0.881921 0.000000
    outer loop
      vertex -22.7784 34.0903 0.0000
      vertex -15.6900 37.8791 0.0000
      vertex -15.6900 37.8791 20.0000
    endloop
  endfacet
  facet normal 0.471397 -0.881921 0.000000
    outer loop
      vertex -22.7784 34.0903 0.0000
      vertex -15.6900 37.8791 20.0000
      vertex -22.7784 34.0903 20.0000
    endloop
  endfacet
  facet normal 0.000000 0.000000 1.000000
    outer loop
      vertex -19.1342 46.1940 0.0000
      vertex -27.7785 41.5735 0.0000
      vertex -22.7784 34.0903 0.0000
    endloop
  endfacet
  facet normal 0.000000 0.000000 1.000000
    outer loop
      vertex -19.1342 46.1940 0.0000
      vertex -22.7784 34.0903 0.0000
      vertex -15.6900 37.8791 0.0000
    endloop
  endfacet
  facet normal 0.000000 -0.000000 -1.000000
    outer loop
      vertex -19.1342 46.1940 20.0000
      vertex -15.6900 37.8791 20.0000
      vertex -27.7785 41.5735 20.0000
    endloop
  endfacet
  facet normal 0.000000 0.000000 -1.000000
    outer loop
      vertex -27.7785 41.5735 20.0000
      vertex -15.6900 37.8791 20.0000
      vertex -22.7784 34.0903 20.0000
    endloop
  endfacet
  facet normal 0.000000 0.000000 1.000000
    outer loop
      vertex -19.1342 46.1940 20.0000
      vertex -22.7784 34.0903 20.0000
      vertex -15.6900 37.8791 20.0000
    endloop
  endfacet
  facet normal 0.000000 0.000000 1.000000
    outer loop
      vertex -19.1342 46.1940 20.0000
      vertex -27.7785 41.5735 20.0000
      vertex -22.7784 34.0903 20.0000
    endloop
  endfacet
  facet normal -0.634393 0.773010 0.000000
    outer loop
      vertex -27.7785 41.5735 0.0000
      vertex -35.3553 35.3553 0.0000
      vertex -35.3553 35.3553 20.0000
    endloop
  endfacet
  facet normal -0.634393 0.773010 0.000000
    outer loop
      vertex -27.7785 41.5735 0.0000
      vertex -35.3553 35.3553 20.0000
      vertex -27.7785 41.5735 20.0000
    endloop
  endfacet
  facet normal 0.634393 -0.773010 0.000000
    outer loop
      vertex -28.9914 28.9914 0.0000
      vertex -22.7784 34.0903 0.0000
      vertex -22.7784 34.0903 20.0000
    endloop
  endfacet
  facet normal 0.634393 -0.773010 0.000000
    outer loop
      vertex -28.9914 28.9914 0.0000
      vertex -22.7784 34.0903 20.0000
      vertex -28.9914 28.9914 20.0000
    endloop
  endfacet
  facet normal 0.000000 0.000000 1.000000
    outer loop
      vertex -27.7785 41.5735 0.0000
      vertex -35.3553 35.3553 0.0000
      vertex -28.9914 28.9914 0.0000
    endloop
  endfacet
  facet normal 0.000000 0.000000 1.000000
    outer loop
      vertex -27.7785 41.5735 0.0000
      vertex -28.9914 28.9914 0.0000
      vertex -22.7784 34.0903 0.0000
    endloop
  endfacet
  facet normal 0.000000 -0.000000 -1.000000
    outer loop
      vertex -27.7785 41.5735 20.0000
      vertex -22.7784 34.0903 20.0000
      vertex -35.3553 35.3553 20.0000
    endloop
  endfacet
  facet normal 0.000000 0.000000 -1.000000
    outer loop
      vertex -35.3553 35.3553 20.0000
      vertex -22.7784 34.0903 20.0000
      vertex -28.9914 28.9914 20.0000
    endloop
  endfacet
  facet normal 0.000000 0.000000 1.000000
    outer loop
      vertex -27.7785 41.5735 20.0000
      vertex -28.9914 28.9914 20.0000
      vertex -22.7784 34.0903 20.0000
    endloop
  endfacet
  facet normal 0.000000 0.000000 1.000000
    outer loop
      vertex -27.7785 41.5735 20.0000
      vertex -35.3553 35.3553 20.0000
      vertex -28.9914 28.9914 20.0000
    endloop
  endfacet
  facet normal -0.773010 0.634393 0.000000
    outer loop
      vertex -35.3553 35.3553 0.0000
      vertex -41.5735 27.7785 0.0000
      vertex -41.5735 27.7785 20.0000
    endloop
  endfacet
  facet normal -0.773010 0.634393 0.000000
    outer loop
      vertex -35.3553 35.3553 0.0000
      vertex -41.5735 27.7785 20.0000
      vertex -35.3553 35.3553 20.0000
    endloop
  endfacet
  facet normal 0.773010 -0.634393 0.000000
    outer loop
      vertex -34.0903 22.7784 0.0000
      vertex -28.9914 28.9914 0.0000
      vertex -28.9914 28.9914 20.0000
    endloop
  endfacet
  facet normal 0.773010 -0.634393 0.000000
    outer loop
      vertex -34.0903 22.7784 0.0000
      vertex -28.9914 28.9914 20.0000
      vertex -34.0903 22.7784 20.0000
    endloop
  endfacet
  facet normal 0.000000 0.000000 1.000000
    outer loop
      vertex -35.3553 35.3553 0.0000
      vertex -41.5735 27.7785 0.0000
      vertex -34.0903 22.7784 0.0000
    endloop
  endfacet
  facet normal 0.000000 0.000000 1.000000
    outer loop
      vertex -35.3553 35.3553 0.0000
      vertex -34.0903 22.7784 0.0000
      vertex -28.9914 28.9914 0.0000
    endloop
  endfacet
  facet normal 0.000000 -0.000000 -1.000000
    outer loop
      vertex -35.3553 35.3553 20.0000
      vertex -28.9914 28.9914 20.0000
      vertex -41.5735 27.7785 20.0000
    endloop
  endfacet
  facet normal 0.000000 0.000000 -1.000000
    outer loop
      vertex -41.5735 27.7785 20.0000
      vertex -28.9914 28.9914 20.0000
      vertex -34.0903 22.7784 20.0000
    endloop
  endfacet
  facet normal 0.000000 0.000000 1.000000
    outer loop
      vertex -35.3553 35.3553 20.0000
      vertex -34.0903 22.7784 20.0000
      vertex -28.9914 28.9914 20.0000
    endloop
  endfacet
  facet normal 0.000000 0.000000 1.000000
    outer loop
      vertex -35.3553 35.3553 20.0000
      vertex -41.5735 27.7785 20.0000
      vertex -34.0903 22.7784 20.0000
    endloop
  endfacet
  facet normal -0.881921 0.471397 0.000000
    outer loop
      vertex -41.5735 27.7785 0.0000
      vertex -46.1940 19.1342 0.0000
      vertex -46.1940 19.1342 20.0000
    endloop
  endfacet
  facet normal -0.881921 0.471397 0.000000
    outer loop
      vertex -41.5735 27.7785 0.0000
      vertex -46.1940 19.1342 20.0000
      vertex -41.5735 27.7785 20.0000
    endloop
  endfacet
  facet normal 0.881921 -0.471397 0.000000
    outer loop
      vertex -37.8791 15.6900 0.0000
      vertex -34.0903 22.7784 0.0000
      vertex -34.0903 22.7784 20.0000
    endloop
  endfacet
  facet normal 0.881921 -0.471397 0.000000
    outer loop
      vertex -37.8791 15.6900 0.0000
      vertex -34.0903 22.7784 20.0000
      vertex -37.8791 15.6900 20.0000
    endloop
  endfacet
  facet normal 0.000000 0.000000 1.000000
    outer loop
      vertex -41.5735 27.7785 0.0000
      vertex -46.1940 19.1342 0.0000
      vertex -37.8791 15.6900 0.0000
    endloop
  endfacet
  facet normal 0.000000 0.000000 1.000000
    outer loop
      vertex -41.5735 27.7785 0.0000
      vertex -37.8791 15.6900 0.0000
      vertex -34.0903 22.7784 0.0000
    endloop
  endfacet
  facet normal 0.000000 -0.000000 -1.000000
    outer loop
      vertex -41.5735 27.7785 20.0000
      vertex -34.0903 22.7784 20.0000
      vertex -46.1940 19.1342 20.0000
    endloop
  endfacet
  facet normal 0.000000 0.000000 -1.000000
    outer loop
      vertex -46.1940 19.1342 20.0000
      vertex -34.0903 22.7784 20.0000
      vertex -37.8791 15.6900 20.0000
    endloop
  endfacet
  facet normal 0.000000 0.000000 1.000000
    outer loop
      vertex -41.5735 27.7785 20.0000
      vertex -37.8791 15.6900 20.0000
      vertex -34.0903 22.7784 20.0000
    endloop
  endfacet
  facet normal 0.000000 0.000000 1.000000
    outer loop
      vertex -41.5735 27.7785 20.0000
      vertex -46.1940 19.1342 20.0000
      vertex -37.8791 15.6900 20.0000
    endloop
  endfacet
  facet normal -0.956940 0.290285 0.000000
    outer loop
      vertex -46.1940 19.1342 0.0000
      vertex -49.0393 9.7545 0.0000
      vertex -49.0393 9.7545 20.0000
    endloop
  endfacet
  facet normal -0.956940 0.290285 0.000000
    outer loop
      vertex -46.1940 19.1342 0.0000
      vertex -49.0393 9.7545 20.0000
      vertex -46.1940 19.1342 20.0000
    endloop
  endfacet
  facet normal 0.956940 -0.290285 0.000000
    outer loop
      vertex -40.2122 7.9987 0.0000
      vertex -37.8791 15.6900 0.0000
      vertex -37.8791 15.6900 20.0000
    endloop
  endfacet
  facet normal 0.956940 -0.290285 0.000000
    outer loop
      vertex -40.2122 7.9987 0.0000
      vertex -37.8791 15.6900 20.0000
      vertex -40.2122 7.9987 20.0000
    endloop
  endfacet
  facet normal 0.000000 0.000000 1.000000
    outer loop
      vertex -46.1940 19.1342 0.0000
      vertex -49.0393 9.7545 0.0000
      vertex -40.2122 7.9987 0.0000
    endloop
  endfacet
  facet normal 0.000000 0.000000 1.000000
    outer loop
      vertex -46.1940 19.1342 0.0000
      vertex -40.2122 7.9987 0.0000
      vertex -37.8791 15.6900 0.0000
    endloop
  endfacet
  facet normal 0.000000 -0.000000 -1.000000
    outer loop
      vertex -46.1940 19.1342 20.0000
      vertex -37.8791 15.6900 20.0000
      vertex -49.0393 9.7545 20.0000
    endloop
  endfacet
  facet normal 0.000000 0.000000 -1.000000
    outer loop
      vertex -49.0393 9.7545 20.0000
      vertex -37.8791 15.6900 20.0000
      vertex -40.2122 7.9987 20.0000
    endloop
  endfacet
  facet normal 0.000000 0.000000 1.000000
    outer loop
      vertex -46.1940 19.1342 20.0000
      vertex -40.2122 7.9987 20.0000
      vertex -37.8791 15.6900 20.0000
    endloop
  endfacet
  facet normal 0.000000 0.000000 1.000000
    outer loop
      vertex -46.1940 19.1342 20.0000
      vertex -49.0393 9.7545 20.0000
      vertex -40.2122 7.9987 20.0000
    endloop
  endfacet
  facet normal -0.995185 0.098017 0.000000
    outer loop
      vertex -49.0393 9.7545 0.0000
      vertex -50.0000 0.0000 0.0000
      vertex -50.0000 0.0000 20.0000
    endloop
  endfacet
  facet normal -0.995185 0.098017 0.000000
    outer loop
      vertex -49.0393 9.7545 0.0000
      vertex -50.0000 0.0000 20.0000
      vertex -49.0393 9.7545 20.0000
    endloop
  endfacet
  facet normal 0.995185 -0.098017 0.000000
    outer loop
      vertex -41.0000 0.0000 0.0000
      vertex -40.2122 7.9987 0.0000
      vertex -40.2122 7.9987 20.0000
    endloop
  endfacet
  facet normal 0.995185 -0.098017 0.000000
    outer loop
      vertex -41.0000 0.0000 0.0000
      vertex -40.2122 7.9987 20.0000
      vertex -41.0000 0.0000 20.0000
    endloop
  endfacet
  facet normal 0.000000 0.000000 1.000000
    outer loop
      vertex -49.0393 9.7545 0.0000
      vertex -50.0000 0.0000 0.0000
      vertex -41.0000 0.0000 0.0000
    endloop
  endfacet
  facet normal 0.000000 0.000000 1.000000
    outer loop
      vertex -49.0393 9.7545 0.0000
      vertex -41.0000 0.0000 0.0000
      vertex -40.2122 7.9987 0.0000
    endloop
  endfacet
  facet normal 0.000000 -0.000000 -1.000000
    outer loop
      vertex -49.0393 9.7545 20.0000
      vertex -40.2122 7.9987 20.0000
      vertex -50.0000 0.0000 20.0000
    endloop
  endfacet
  facet normal 0.000000 0.000000 -1.000000
    outer loop
      vertex -50.0000 0.0000 20.0000
      vertex -40.2122 7.9987 20.0000
      vertex -41.0000 0.0000 20.0000
    endloop
  endfacet
  facet normal 0.000000 0.000000 1.000000
    outer loop
      vertex -49.0393 9.7545 20.0000
      vertex -41.0000 0.0000 20.0000
      vertex -40.2122 7.9987 20.0000
    endloop
  endfacet
  facet normal 0.000000 0.000000 1.000000
    outer loop
      vertex -49.0393 9.7545 20.0000
      vertex -50.0000 0.0000 20.0000
      vertex -41.0000 0.0000 20.0000
    endloop
  endfacet
  facet normal -0.995185 -0.098017 0.000000
    outer loop
      vertex -50.0000 0.0000 0.0000
      vertex -49.0393 -9.7545 0.0000
      vertex -49.0393 -9.7545 20.0000
    endloop
  endfacet
  facet normal -0.995185 -0.098017 0.000000
    outer loop
      vertex -50.0000 0.0000 0.0000
      vertex -49.0393 -9.7545 20.0000
      vertex -50.0000 0.0000 20.0000
    endloop
  endfacet
  facet normal 0.995185 0.098017 0.000000
    outer loop
      vertex -40.2122 -7.9987 0.0000
      vertex -41.0000 0.0000 0.0000
      vertex -41.0000 0.0000 20.0000
    endloop
  endfacet
  facet normal 0.995185 0.098017 -0.000000
    outer loop
      vertex -40.2122 -7.9987 0.0000
      vertex -41.0000 0.0000 20.0000
      vertex -40.2122 -7.9987 20.0000
    endloop
  endfacet
  facet normal 0.000000 0.000000 1.000000
    outer loop
      vertex -50.0000 0.0000 0.0000
      vertex -49.0393 -9.7545 0.0000
      vertex -40.2122 -7.9987 0.0000
    endloop
  endfacet
  facet normal 0.000000 0.000000 1.000000
    outer loop
      vertex -50.0000 0.0000 0.0000
      vertex -40.2122 -7.9987 0.0000
      vertex -41.0000 0.0000 0.0000
    endloop
  endfacet
  facet normal 0.000000 0.000000 -1.000000
    outer loop
      vertex -50.0000 0.0000 20.0000
      vertex -41.0000 0.0000 20.0000
      vertex -49.0393 -9.7545 20.0000
    endloop
  endfacet
  facet normal 0.000000 0.000000 -1.000000
    outer loop
      vertex -49.0393 -9.7545 20.0000
      vertex -41.0000 0.0000 20.0000
      vertex -40.2122 -7.9987 20.0000
    endloop
  endfacet
  facet normal 0.000000 0.000000 1.000000
    outer loop
      vertex -50.0000 0.0000 20.0000
      vertex -40.2122 -7.9987 20.0000
      vertex -41.0000 0.0000 20.0000
    endloop
  endfacet
  facet normal 0.000000 0.000000 1.000000
    outer loop
      vertex -50.0000 0.0000 20.0000
      vertex -49.0393 -9.7545 20.0000
      vertex -40.2122 -7.9987 20.0000
    endloop
  endfacet
  facet normal -0.956940 -0.290285 0.000000
    outer loop
      vertex -49.0393 -9.7545 0.0000
      vertex -46.1940 -19.1342 0.0000
      vertex -46.1940 -19.1342 20.0000
    endloop
  endfacet
  facet normal -0.956940 -0.290285 0.000000
    outer loop
      vertex -49.0393 -9.7545 0.0000
      vertex -46.1940 -19.1342 20.0000
      vertex -49.0393 -9.7545 20.0000
    endloop
  endfacet
  facet normal 0.956940 0.290285 0.000000
    outer loop
      vertex -37.8791 -15.6900 0.0000
      vertex -40.2122 -7.9987 0.0000
      vertex -40.2122 -7.9987 20.0000
    endloop
  endfacet
  facet normal 0.956940 0.290285 -0.000000
    outer loop
      vertex -37.8791 -15.6900 0.0000
      vertex -40.2122 -7.9987 20.0000
      vertex -37.8791 -15.6900 20.0000
    endloop
  endfacet
  facet normal 0.000000 0.000000 1.000000
    outer loop
      vertex -49.0393 -9.7545 0.0000
      vertex -46.1940 -19.1342 0.0000
      vertex -37.8791 -15.6900 0.0000
    endloop
  endfacet
  facet normal -0.000000 0.000000 1.000000
    outer loop
      vertex -49.0393 -9.7545 0.0000
      vertex -37.8791 -15.6900 0.0000
      vertex -40.2122 -7.9987 0.0000
    endloop
  endfacet
  facet normal 0.000000 0.000000 -1.000000
    outer loop
      vertex -49.0393 -9.7545 20.0000
      vertex -40.2122 -7.9987 20.0000
      vertex -46.1940 -19.1342 20.0000
    endloop
  endfacet
  facet normal 0.000000 0.000000 -1.000000
    outer loop
      vertex -46.1940 -19.1342 20.0000
      vertex -40.2122 -7.9987 20.0000
      vertex -37.8791 -15.6900 20.0000
    endloop
  endfacet
  facet normal -0.000000 0.000000 1.000000
    outer loop
      vertex -49.0393 -9.7545 20.0000
      vertex -37.8791 -15.6900 20.0000
      vertex -40.2122 -7.9987 20.0000
    endloop
  endfacet
  facet normal 0.000000 0.000000 1.000000
    outer loop
      vertex -49.0393 -9.7545 20.0000
      vertex -46.1940 -19.1342 20.0000
      vertex -37.8791 -15.6900 20.0000
    endloop
  endfacet
  facet normal -0.881921 -0.471397 0.000000
    outer loop
      vertex -46.1940 -19.1342 0.0000
      vertex -41.5735 -27.7785 0.0000
      vertex -41.5735 -27.7785 20.0000
    endloop
  endfacet
  facet normal -0.881921 -0.471397 0.000000
    outer loop
      vertex -46.1940 -19.1342 0.0000
      vertex -41.5735 -27.7785 20.0000
      vertex -46.1940 -19.1342 20.0000
    endloop
  endfacet
  facet normal 0.881921 0.471397 0.000000
    outer loop
      vertex -34.0903 -22.7784 0.0000
      vertex -37.8791 -15.6900 0.0000
      vertex -37.8791 -15.6900 20.0000
    endloop
  endfacet
  facet normal 0.881921 0.471397 -0.000000
    outer loop
      vertex -34.0903 -22.7784 0.0000
      vertex -37.8791 -15.6900 20.0000
      vertex -34.0903 -22.7784 20.0000
    endloop
  endfacet
  facet normal 0.000000 0.000000 1.000000
    outer loop
      vertex -46.1940 -19.1342 0.0000
      vertex -41.5735 -27.7785 0.0000
      vertex -34.0903 -22.7784 0.0000
    endloop
  endfacet
  facet normal -0.000000 0.000000 1.000000
    outer loop
      vertex -46.1940 -19.1342 0.0000
      vertex -34.0903 -22.7784 0.0000
      vertex -37.8791 -15.6900 0.0000
    endloop
  endfacet
  facet normal 0.000000 0.000000 -1.000000
    outer loop
      vertex -46.1940 -19.1342 20.0000
      vertex -37.8791 -15.6900 20.0000
      vertex -41.5735 -27.7785 20.0000
    endloop
  endfacet
  facet normal 0.000000 0.000000 -1.000000
    outer loop
      vertex -41.5735 -27.7785 20.0000
      vertex -37.8791 -15.6900 20.0000
      vertex -34.0903 -22.7784 20.0000
    endloop
  endfacet
  facet normal -0.000000 0.000000 1.000000
    outer loop
      vertex -46.1940 -19.1342 20.0000
      vertex -34.0903 -22.7784 20.0000
      vertex -37.8791 -15.6900 20.0000
    endloop
  endfacet
  facet normal 0.000000 0.000000 1.000000
    outer loop
      vertex -46.1940 -19.1342 20.0000
      vertex -41.5735 -27.7785 20.0000
      vertex -34.0903 -22.7784 20.0000
    endloop
  endfacet
  facet normal -0.773010 -0.634393 0.000000
    outer loop
      vertex -41.5735 -27.7785 0.0000
      vertex -35.3553 -35.3553 0.0000
      vertex -35.3553 -35.3553 20.0000
    endloop
  endfacet
  facet normal -0.773010 -0.634393 0.000000
    outer loop
      vertex -41.5735 -27.7785 0.0000
      vertex -35.3553 -35.3553 20.0000
      vertex -41.5735 -27.7785 20.0000
    endloop
  endfacet
  facet normal 0.773010 0.634393 0.000000
    outer loop
      vertex -28.9914 -28.9914 0.0000
      vertex -34.0903 -22.7784 0.0000
      vertex -34.0903 -22.7784 20.0000
    endloop
  endfacet
  facet normal 0.773010 0.634393 -0.000000
    outer loop
      vertex -28.9914 -28.9914 0.0000
      vertex -34.0903 -22.7784 20.0000
      vertex -28.9914 -28.9914 20.0000
    endloop
  endfacet
  facet normal 0.000000 0.000000 1.000000
    outer loop
      vertex -41.5735 -27.7785 0.0000
      vertex -35.3553 -35.3553 0.0000
      vertex -28.9914 -28.9914 0.0000
    endloop
  endfacet
  facet normal -0.000000 0.000000 1.000000
    outer loop
      vertex -41.5735 -27.7785 0.0000
      vertex -28.9914 -28.9914 0.0000
      vertex -34.0903 -22.7784 0.0000
    endloop
  endfacet
  facet normal 0.000000 0.000000 -1.000000
    outer loop
      vertex -41.5735 -27.7785 20.0000
      vertex -34.0903 -22.7784 20.0000
      vertex -35.3553 -35.3553 20.0000
    endloop
  endfacet
  facet normal 0.000000 0.000000 -1.000000
    outer loop
      vertex -35.3553 -35.3553 20.0000
      vertex -34.0903 -22.7784 20.0000
      vertex -28.9914 -28.9914 20.0000
    endloop
  endfacet
  facet normal -0.000000 0.000000 1.000000
    outer loop
      vertex -41.5735 -27.7785 20.0000
      vertex -28.9914 -28.9914 20.0000
      vertex -34.0903 -22.7784 20.0000
    endloop
  endfacet
  facet normal 0.000000 0.000000 1.000000
    outer loop
      vertex -41.5735 -27.7785 20.0000
      vertex -35.3553 -35.3553 20.0000
      vertex -28.9914 -28.9914 20.0000
    endloop
  endfacet
  facet normal -0.634393 -0.773010 0.000000
    outer loop
      vertex -35.3553 -35.3553 0.0000
      vertex -27.7785 -41.5735 0.0000
      vertex -27.7785 -41.5735 20.0000
    endloop
  endfacet
  facet normal -0.634393 -0.773010 0.000000
    outer loop
      vertex -35.3553 -35.3553 0.0000
      vertex -27.7785 -41.5735 20.0000
      vertex -35.3553 -35.3553 20.0000
    endloop
  endfacet
  facet normal 0.634393 0.773010 0.000000
    outer loop
      vertex -22.7784 -34.0903 0.0000
      vertex -28.9914 -28.9914 0.0000
      vertex -28.9914 -28.9914 20.0000
    endloop
  endfacet
  facet normal 0.634393 0.773010 -0.000000
    outer loop
      vertex -22.7784 -34.0903 0.0000
      vertex -28.9914 -28.9914 20.0000
      vertex -22.7784 -34.0903 20.0000
    endloop
  endfacet
  facet normal -0.000000 0.000000 1.000000
    outer loop
      vertex -35.3553 -35.3553 0.0000
      vertex -27.7785 -41.5735 0.0000
      vertex -22.7784 -34.0903 0.0000
    endloop
  endfacet
  facet normal 0.000000 0.000000 1.000000
    outer loop
      vertex -35.3553 -35.3553 0.0000
      vertex -22.7784 -34.0903 0.0000
      vertex -28.9914 -28.9914 0.0000
    endloop
  endfacet
  facet normal 0.000000 0.000000 -1.000000
    outer loop
      vertex -35.3553 -35.3553 20.0000
      vertex -28.9914 -28.9914 20.0000
      vertex -27.7785 -41.5735 20.0000
    endloop
  endfacet
  facet normal 0.000000 0.000000 -1.000000
    outer loop
      vertex -27.7785 -41.5735 20.0000
      vertex -28.9914 -28.9914 20.0000
      vertex -22.7784 -34.0903 20.0000
    endloop
  endfacet
  facet normal 0.000000 0.000000 1.000000
    outer loop
      vertex -35.3553 -35.3553 20.0000
      vertex -22.7784 -34.0903 20.0000
      vertex -28.9914 -28.9914 20.0000
    endloop
  endfacet
  facet normal -0.000000 0.000000 1.000000
    outer loop
      vertex -35.3553 -35.3553 20.0000
      vertex -27.7785 -41.5735 20.0000
      vertex -22.7784 -34.0903 20.0000
    endloop
  endfacet
  facet normal -0.471397 -0.881921 0.000000
    outer loop
      vertex -27.7785 -41.5735 0.0000
      vertex -19.1342 -46.1940 0.0000
      vertex -19.1342 -46.1940 20.0000
    endloop
  endfacet
  facet normal -0.471397 -0.881921 0.000000
    outer loop
      vertex -27.7785 -41.5735 0.0000
      vertex -19.1342 -46.1940 20.0000
      vertex -27.7785 -41.5735 20.0000
    endloop
  endfacet
  facet normal 0.471397 0.881921 0.000000
    outer loop
      vertex -15.6900 -37.8791 0.0000
      vertex -22.7784 -34.0903 0.0000
      vertex -22.7784 -34.0903 20.0000
    endloop
  endfacet
  facet normal 0.471397 0.881921 -0.000000
    outer loop
      vertex -15.6900 -37.8791 0.0000
      vertex -22.7784 -34.0903 20.0000
      vertex -15.6900 -37.8791 20.0000
    endloop
  endfacet
  facet normal -0.000000 0.000000 1.000000
    outer loop
      vertex -27.7785 -41.5735 0.0000
      vertex -19.1342 -46.1940 0.0000
      vertex -15.6900 -37.8791 0.0000
    endloop
  endfacet
  facet normal 0.000000 0.000000 1.000000
    outer loop
      vertex -27.7785 -41.5735 0.0000
      vertex -15.6900 -37.8791 0.0000
      vertex -22.7784 -34.0903 0.0000
    endloop
  endfacet
  facet normal 0.000000 0.000000 -1.000000
    outer loop
      vertex -27.7785 -41.5735 20.0000
      vertex -22.7784 -34.0903 20.0000
      vertex -19.1342 -46.1940 20.0000
    endloop
  endfacet
  facet normal 0.000000 0.000000 -1.000000
    outer loop
      vertex -19.1342 -46.1940 20.0000
      vertex -22.7784 -34.0903 20.0000
      vertex -15.6900 -37.8791 20.0000
    endloop
  endfacet
  facet normal 0.000000 0.000000 1.000000
    outer loop
      vertex -27.7785 -41.5735 20.0000
      vertex -15.6900 -37.8791 20.0000
      vertex -22.7784 -34.0903 20.0000
    endloop
  endfacet
  facet normal -0.000000 0.000000 1.000000
    outer loop
      vertex -27.7785 -41.5735 20.0000
      vertex -19.1342 -46.1940 20.0000
      vertex -15.6900 -37.8791 20.0000
    endloop
  endfacet
  facet normal -0.290285 -0.956940 0.000000
    outer loop
      vertex -19.1342 -46.1940 0.0000
      vertex -9.7545 -49.0393 0.0000
      vertex -9.7545 -49.0393 20.0000
    endloop
  endfacet
  facet normal -0.290285 -0.956940 0.000000
    outer loop
      vertex -19.1342 -46.1940 0.0000
      vertex -9.7545 -49.0393 20.0000
      vertex -19.1342 -46.1940 20.0000
    endloop
  endfacet
  facet normal 0.290285 0.956940 0.000000
    outer loop
      vertex -7.9987 -40.2122 0.0000
      vertex -15.6900 -37.8791 0.0000
      vertex -15.6900 -37.8791 20.0000
    endloop
  endfacet
  facet normal 0.290285 0.956940 -0.000000
    outer loop
      vertex -7.9987 -40.2122 0.0000
      vertex -15.6900 -37.8791 20.0000
      vertex -7.9987 -40.2122 20.0000
    endloop
  endfacet
  facet normal -0.000000 0.000000 1.000000
    outer loop
      vertex -19.1342 -46.1940 0.0000
      vertex -9.7545 -49.0393 0.0000
      vertex -7.9987 -40.2122 0.0000
    endloop
  endfacet
  facet normal 0.000000 0.000000 1.000000
    outer loop
      vertex -19.1342 -46.1940 0.0000
      vertex -7.9987 -40.2122 0.0000
      vertex -15.6900 -37.8791 0.0000
    endloop
  endfacet
  facet normal 0.000000 0.000000 -1.000000
    outer loop
      vertex -19.1342 -46.1940 20.0000
      vertex -15.6900 -37.8791 20.0000
      vertex -9.7545 -49.0393 20.0000
    endloop
  endfacet
  facet normal 0.000000 0.000000 -1.000000
    outer loop
      vertex -9.7545 -49.0393 20.0000
      vertex -15.6900 -37.8791 20.0000
      vertex -7.9987 -40.2122 20.0000
    endloop
  endfacet
  facet normal 0.000000 0.000000 1.000000
    outer loop
      vertex -19.1342 -46.1940 20.0000
      vertex -7.9987 -40.2122 20.0000
      vertex -15.6900 -37.8791 20.0000
    endloop
  endfacet
  facet normal -0.000000 0.000000 1.000000
    outer loop
      vertex -19.1342 -46.1940 20.0000
      vertex -9.7545 -49.0393 20.0000
      vertex -7.9987 -40.2122 20.0000
    endloop
  endfacet
  facet normal -0.098017 -0.995185 0.000000
    outer loop
      vertex -9.7545 -49.0393 0.0000
      vertex -0.0000 -50.0000 0.0000
      vertex -0.0000 -50.0000 20.0000
    endloop
  endfacet
  facet normal -0.098017 -0.995185 0.000000
    outer loop
      vertex -9.7545 -49.0393 0.0000
      vertex -0.0000 -50.0000 20.0000
      vertex -9.7545 -49.0393 20.0000
    endloop
  endfacet
  facet normal 0.098017 0.995185 0.000000
    outer loop
      vertex -0.0000 -41.0000 0.0000
      vertex -7.9987 -40.2122 0.0000
      vertex -7.9987 -40.2122 20.0000
    endloop
  endfacet
  facet normal 0.098017 0.995185 -0.000000
    outer loop
      vertex -0.0000 -41.0000 0.0000
      vertex -7.9987 -40.2122 20.0000
      vertex -0.0000 -41.0000 20.0000
    endloop
  endfacet
  facet normal -0.000000 0.000000 1.000000
    outer loop
      vertex -9.7545 -49.0393 0.0000
      vertex -0.0000 -50.0000 0.0000
      vertex -0.0000 -41.0000 0.0000
    endloop
  endfacet
  facet normal 0.000000 0.000000 1.000000
    outer loop
      vertex -9.7545 -49.0393 0.0000
      vertex -0.0000 -41.0000 0.0000
      vertex -7.9987 -40.2122 0.0000
    endloop
  endfacet
  facet normal 0.000000 0.000000 -1.000000
    outer loop
      vertex -9.7545 -49.0393 20.0000
      vertex -7.9987 -40.2122 20.0000
      vertex -0.0000 -50.0000 20.0000
    endloop
  endfacet
  facet normal 0.000000 0.000000 -1.000000
    outer loop
      vertex -0.0000 -50.0000 20.0000
      vertex -7.9987 -40.2122 20.0000
      vertex -0.0000 -41.0000 20.0000
    endloop
  endfacet
  facet normal 0.000000 0.000000 1.000000
    outer loop
      vertex -9.7545 -49.0393 20.0000
      vertex -0.0000 -41.0000 20.0000
      vertex -7.9987 -40.2122 20.0000
    endloop
  endfacet
  facet normal -0.000000 0.000000 1.000000
    outer loop
      vertex -9.7545 -49.0393 20.0000
      vertex -0.0000 -50.0000 20.0000
      vertex -0.0000 -41.0000 20.0000
    endloop
  endfacet
  facet normal 0.098017 -0.995185 0.000000
    outer loop
      vertex -0.0000 -50.0000 0.0000
      vertex 9.7545 -49.0393 0.0000
      vertex 9.7545 -49.0393 20.0000
    endloop
  endfacet
  facet normal 0.098017 -0.995185 0.000000
    outer loop
      vertex -0.0000 -50.0000 0.0000
      vertex 9.7545 -49.0393 20.0000
      vertex -0.0000 -50.0000 20.0000
    endloop
  endfacet
  facet normal -0.098017 0.995185 0.000000
    outer loop
      vertex 7.9987 -40.2122 0.0000
      vertex -0.0000 -41.0000 0.0000
      vertex -0.0000 -41.0000 20.0000
    endloop
  endfacet
  facet normal -0.098017 0.995185 0.000000
    outer loop
      vertex 7.9987 -40.2122 0.0000
      vertex -0.0000 -41.0000 20.0000
      vertex 7.9987 -40.2122 20.0000
    endloop
  endfacet
  facet normal 0.000000 0.000000 1.000000
    outer loop
      vertex -0.0000 -50.0000 0.0000
      vertex 9.7545 -49.0393 0.0000
      vertex 7.9987 -40.2122 0.0000
    endloop
  endfacet
  facet normal 0.000000 0.000000 1.000000
    outer loop
      vertex -0.0000 -50.0000 0.0000
      vertex 7.9987 -40.2122 0.0000
      vertex -0.0000 -41.0000 0.0000
    endloop
  endfacet
  facet normal 0.000000 0.000000 -1.000000
    outer loop
      vertex -0.0000 -50.0000 20.0000
      vertex -0.0000 -41.0000 20.0000
      vertex 9.7545 -49.0393 20.0000
    endloop
  endfacet
  facet normal 0.000000 0.000000 -1.000000
    outer loop
      vertex 9.7545 -49.0393 20.0000
      vertex -0.0000 -41.0000 20.0000
      vertex 7.9987 -40.2122 20.0000
    endloop
  endfacet
  facet normal 0.000000 0.000000 1.000000
    outer loop
      vertex -0.0000 -50.0000 20.0000
      vertex 7.9987 -40.2122 20.0000
      vertex -0.0000 -41.0000 20.0000
    endloop
  endfacet
  facet normal 0.000000 0.000000 1.000000
    outer loop
      vertex -0.0000 -50.0000 20.0000
      vertex 9.7545 -49.0393 20.0000
      vertex 7.9987 -40.2122 20.0000
    endloop
  endfacet
  facet normal 0.290285 -0.956940 0.000000
    outer loop
      vertex 9.7545 -49.0393 0.0000
      vertex 19.1342 -46.1940 0.0000
      vertex 19.1342 -46.1940 20.0000
    endloop
  endfacet
  facet normal 0.290285 -0.956940 0.000000
    outer loop
      vertex 9.7545 -49.0393 0.0000
      vertex 19.1342 -46.1940 20.0000
      vertex 9.7545 -49.0393 20.0000
    endloop
  endfacet
  facet normal -0.290285 0.956940 0.000000
    outer loop
      vertex 15.6900 -37.8791 0.0000
      vertex 7.9987 -40.2122 0.0000
      vertex 7.9987 -40.2122 20.0000
    endloop
  endfacet
  facet normal -0.290285 0.956940 0.000000
    outer loop
      vertex 15.6900 -37.8791 0.0000
      vertex 7.9987 -40.2122 20.0000
      vertex 15.6900 -37.8791 20.0000
    endloop
  endfacet
  facet normal 0.000000 0.000000 1.000000
    outer loop
      vertex 9.7545 -49.0393 0.0000
      vertex 19.1342 -46.1940 0.0000
      vertex 15.6900 -37.8791 0.0000
    endloop
  endfacet
  facet normal 0.000000 -0.000000 1.000000
    outer loop
      vertex 9.7545 -49.0393 0.0000
      vertex 15.6900 -37.8791 0.0000
      vertex 7.9987 -40.2122 0.0000
    endloop
  endfacet
  facet normal 0.000000 0.000000 -1.000000
    outer loop
      vertex 9.7545 -49.0393 20.0000
      vertex 7.9987 -40.2122 20.0000
      vertex 19.1342 -46.1940 20.0000
    endloop
  endfacet
  facet normal 0.000000 0.000000 -1.000000
    outer loop
      vertex 19.1342 -46.1940 20.0000
      vertex 7.9987 -40.2122 20.0000
      vertex 15.6900 -37.8791 20.0000
    endloop
  endfacet
  facet normal 0.000000 -0.000000 1.000000
    outer loop
      vertex 9.7545 -49.0393 20.0000
      vertex 15.6900 -37.8791 20.0000
      vertex 7.9987 -40.2122 20.0000
    endloop
  endfacet
  facet normal 0.000000 0.000000 1.000000
    outer loop
      vertex 9.7545 -49.0393 20.0000
      vertex 19.1342 -46.1940 20.0000
      vertex 15.6900 -37.8791 20.0000
    endloop
  endfacet
  facet normal 0.471397 -0.881921 0.000000
    outer loop
      vertex 19.1342 -46.1940 0.0000
      vertex 27.7785 -41.5735 0.0000
      vertex 27.7785 -41.5735 20.0000
    endloop
  endfacet
  facet normal 0.471397 -0.881921 0.000000
    outer loop
      vertex 19.1342 -46.1940 0.0000
      vertex 27.7785 -41.5735 20.0000
      vertex 19.1342 -46.1940 20.0000
    endloop
  endfacet
  facet normal -0.471397 0.881921 0.000000
    outer loop
      vertex 22.7784 -34.0903 0.0000
      vertex 15.6900 -37.8791 0.0000
      vertex 15.6900 -37.8791 20.0000
    endloop
  endfacet
  facet normal -0.471397 0.881921 0.000000
    outer loop
      vertex 22.7784 -34.0903 0.0000
      vertex 15.6900 -37.8791 20.0000
      vertex 22.7784 -34.0903 20.0000
    endloop
  endfacet
  facet normal 0.000000 0.000000 1.000000
    outer loop
      vertex 19.1342 -46.1940 0.0000
      vertex 27.7785 -41.5735 0.0000
      vertex 22.7784 -34.0903 0.0000
    endloop
  endfacet
  facet normal 0.000000 -0.000000 1.000000
    outer loop
      vertex 19.1342 -46.1940 0.0000
      vertex 22.7784 -34.0903 0.0000
      vertex 15.6900 -37.8791 0.0000
    endloop
  endfacet
  facet normal 0.000000 0.000000 -1.000000
    outer loop
      vertex 19.1342 -46.1940 20.0000
      vertex 15.6900 -37.8791 20.0000
      vertex 27.7785 -41.5735 20.0000
    endloop
  endfacet
  facet normal 0.000000 0.000000 -1.000000
    outer loop
      vertex 27.7785 -41.5735 20.0000
      vertex 15.6900 -37.8791 20.0000
      vertex 22.7784 -34.0903 20.0000
    endloop
  endfacet
  facet normal 0.000000 -0.000000 1.000000
    outer loop
      vertex 19.1342 -46.1940 20.0000
      vertex 22.7784 -34.0903 20.0000
      vertex 15.6900 -37.8791 20.0000
    endloop
  endfacet
  facet normal 0.000000 0.000000 1.000000
    outer loop
      vertex 19.1342 -46.1940 20.0000
      vertex 27.7785 -41.5735 20.0000
      vertex 22.7784 -34.0903 20.0000
    endloop
  endfacet
  facet normal 0.634393 -0.773010 0.000000
    outer loop
      vertex 27.7785 -41.5735 0.0000
      vertex 35.3553 -35.3553 0.0000
      vertex 35.3553 -35.3553 20.0000
    endloop
  endfacet
  facet normal 0.634393 -0.773010 0.000000
    outer loop
      vertex 27.7785 -41.5735 0.0000
      vertex 35.3553 -35.3553 20.0000
      vertex 27.7785 -41.5735 20.0000
    endloop
  endfacet
  facet normal -0.634393 0.773010 0.000000
    outer loop
      vertex 28.9914 -28.9914 0.0000
      vertex 22.7784 -34.0903 0.0000
      vertex 22.7784 -34.0903 20.0000
    endloop
  endfacet
  facet normal -0.634393 0.773010 0.000000
    outer loop
      vertex 28.9914 -28.9914 0.0000
      vertex 22.7784 -34.0903 20.0000
      vertex 28.9914 -28.9914 20.0000
    endloop
  endfacet
  facet normal 0.000000 0.000000 1.000000
    outer loop
      vertex 27.7785 -41.5735 0.0000
      vertex 35.3553 -35.3553 0.0000
      vertex 28.9914 -28.9914 0.0000
    endloop
  endfacet
  facet normal 0.000000 -0.000000 1.000000
    outer loop
      vertex 27.7785 -41.5735 0.0000
      vertex 28.9914 -28.9914 0.0000
      vertex 22.7784 -34.0903 0.0000
    endloop
  endfacet
  facet normal 0.000000 0.000000 -1.000000
    outer loop
      vertex 27.7785 -41.5735 20.0000
      vertex 22.7784 -34.0903 20.0000
      vertex 35.3553 -35.3553 20.0000
    endloop
  endfacet
  facet normal 0.000000 0.000000 -1.000000
    outer loop
      vertex 35.3553 -35.3553 20.0000
      vertex 22.7784 -34.0903 20.0000
      vertex 28.9914 -28.9914 20.0000
    endloop
  endfacet
  facet normal 0.000000 -0.000000 1.000000
    outer loop
      vertex 27.7785 -41.5735 20.0000
      vertex 28.9914 -28.9914 20.0000
      vertex 22.7784 -34.0903 20.0000
    endloop
  endfacet
  facet normal 0.000000 0.000000 1.000000
    outer loop
      vertex 27.7785 -41.5735 20.0000
      vertex 35.3553 -35.3553 20.0000
      vertex 28.9914 -28.9914 20.0000
    endloop
  endfacet
  facet normal 0.773010 -0.634393 0.000000
    outer loop
      vertex 35.3553 -35.3553 0.0000
      vertex 41.5735 -27.7785 0.0000
      vertex 41.5735 -27.7785 20.0000
    endloop
  endfacet
  facet normal 0.773010 -0.634393 0.000000
    outer loop
      vertex 35.3553 -35.3553 0.0000
      vertex 41.5735 -27.7785 20.0000
      vertex 35.3553 -35.3553 20.0000
    endloop
  endfacet
  facet normal -0.773010 0.634393 0.000000
    outer loop
      vertex 34.0903 -22.7784 0.0000
      vertex 28.9914 -28.9914 0.0000
      vertex 28.9914 -28.9914 20.0000
    endloop
  endfacet
  facet normal -0.773010 0.634393 0.000000
    outer loop
      vertex 34.0903 -22.7784 0.0000
      vertex 28.9914 -28.9914 20.0000
      vertex 34.0903 -22.7784 20.0000
    endloop
  endfacet
  facet normal 0.000000 -0.000000 1.000000
    outer loop
      vertex 35.3553 -35.3553 0.0000
      vertex 41.5735 -27.7785 0.0000
      vertex 34.0903 -22.7784 0.0000
    endloop
  endfacet
  facet normal 0.000000 0.000000 1.000000
    outer loop
      vertex 35.3553 -35.3553 0.0000
      vertex 34.0903 -22.7784 0.0000
      vertex 28.9914 -28.9914 0.0000
    endloop
  endfacet
  facet normal 0.000000 0.000000 -1.000000
    outer loop
      vertex 35.3553 -35.3553 20.0000
      vertex 28.9914 -28.9914 20.0000
      vertex 41.5735 -27.7785 20.0000
    endloop
  endfacet
  facet normal -0.000000 0.000000 -1.000000
    outer loop
      vertex 41.5735 -27.7785 20.0000
      vertex 28.9914 -28.9914 20.0000
      vertex 34.0903 -22.7784 20.0000
    endloop
  endfacet
  facet normal 0.000000 0.000000 1.000000
    outer loop
      vertex 35.3553 -35.3553 20.0000
      vertex 34.0903 -22.7784 20.0000
      vertex 28.9914 -28.9914 20.0000
    endloop
  endfacet
  facet normal 0.000000 -0.000000 1.000000
    outer loop
      vertex 35.3553 -35.3553 20.0000
      vertex 41.5735 -27.7785 20.0000
      vertex 34.0903 -22.7784 20.0000
    endloop
  endfacet
  facet normal 0.881921 -0.471397 0.000000
    outer loop
      vertex 41.5735 -27.7785 0.0000
      vertex 46.1940 -19.1342 0.0000
      vertex 46.1940 -19.1342 20.0000
    endloop
  endfacet
  facet normal 0.881921 -0.471397 0.000000
    outer loop
      vertex 41.5735 -27.7785 0.0000
      vertex 46.1940 -19.1342 20.0000
      vertex 41.5735 -27.7785 20.0000
    endloop
  endfacet
  facet normal -0.881921 0.471397 0.000000
    outer loop
      vertex 37.8791 -15.6900 0.0000
      vertex 34.0903 -22.7784 0.0000
      vertex 34.0903 -22.7784 20.0000
    endloop
  endfacet
  facet normal -0.881921 0.471397 0.000000
    outer loop
      vertex 37.8791 -15.6900 0.0000
      vertex 34.0903 -22.7784 20.0000
      vertex 37.8791 -15.6900 20.0000
    endloop
  endfacet
  facet normal 0.000000 -0.000000 1.000000
    outer loop
      vertex 41.5735 -27.7785 0.0000
      vertex 46.1940 -19.1342 0.0000
      vertex 37.8791 -15.6900 0.0000
    endloop
  endfacet
  facet normal 0.000000 0.000000 1.000000
    outer loop
      vertex 41.5735 -27.7785 0.0000
      vertex 37.8791 -15.6900 0.0000
      vertex 34.0903 -22.7784 0.0000
    endloop
  endfacet
  facet normal 0.000000 0.000000 -1.000000
    outer loop
      vertex 41.5735 -27.7785 20.0000
      vertex 34.0903 -22.7784 20.0000
      vertex 46.1940 -19.1342 20.0000
    endloop
  endfacet
  facet normal -0.000000 0.000000 -1.000000
    outer loop
      vertex 46.1940 -19.1342 20.0000
      vertex 34.0903 -22.7784 20.0000
      vertex 37.8791 -15.6900 20.0000
    endloop
  endfacet
  facet normal 0.000000 0.000000 1.000000
    outer loop
      vertex 41.5735 -27.7785 20.0000
      vertex 37.8791 -15.6900 20.0000
      vertex 34.0903 -22.7784 20.0000
    endloop
  endfacet
  facet normal 0.000000 -0.000000 1.000000
    outer loop
      vertex 41.5735 -27.7785 20.0000
      vertex 46.1940 -19.1342 20.0000
      vertex 37.8791 -15.6900 20.0000
    endloop
  endfacet
  facet normal 0.956940 -0.290285 0.000000
    outer loop
      vertex 46.1940 -19.1342 0.0000
      vertex 49.0393 -9.7545 0.0000
      vertex 49.0393 -9.7545 20.0000
    endloop
  endfacet
  facet normal 0.956940 -0.290285 0.000000
    outer loop
      vertex 46.1940 -19.1342 0.0000
      vertex 49.0393 -9.7545 20.0000
      vertex 46.1940 -19.1342 20.0000
    endloop
  endfacet
  facet normal -0.956940 0.290285 0.000000
    outer loop
      vertex 40.2122 -7.9987 0.0000
      vertex 37.8791 -15.6900 0.0000
      vertex 37.8791 -15.6900 20.0000
    endloop
  endfacet
  facet normal -0.956940 0.290285 0.000000
    outer loop
      vertex 40.2122 -7.9987 0.0000
      vertex 37.8791 -15.6900 20.0000
      vertex 40.2122 -7.9987 20.0000
    endloop
  endfacet
  facet normal 0.000000 -0.000000 1.000000
    outer loop
      vertex 46.1940 -19.1342 0.0000
      vertex 49.0393 -9.7545 0.0000
      vertex 40.2122 -7.9987 0.0000
    endloop
  endfacet
  facet normal 0.000000 0.000000 1.000000
    outer loop
      vertex 46.1940 -19.1342 0.0000
      vertex 40.2122 -7.9987 0.0000
      vertex 37.8791 -15.6900 0.0000
    endloop
  endfacet
  facet normal 0.000000 0.000000 -1.000000
    outer loop
      vertex 46.1940 -19.1342 20.0000
      vertex 37.8791 -15.6900 20.0000
      vertex 49.0393 -9.7545 20.0000
    endloop
  endfacet
  facet normal -0.000000 0.000000 -1.000000
    outer loop
      vertex 49.0393 -9.7545 20.0000
      vertex 37.8791 -15.6900 20.0000
      vertex 40.2122 -7.9987 20.0000
    endloop
  endfacet
  facet normal 0.000000 0.000000 1.000000
    outer loop
      vertex 46.1940 -19.1342 20.0000
      vertex 40.2122 -7.9987 20.0000
      vertex 37.8791 -15.6900 20.0000
    endloop
  endfacet
  facet normal 0.000000 -0.000000 1.000000
    outer loop
      vertex 46.1940 -19.1342 20.0000
      vertex 49.0393 -9.7545 20.0000
      vertex 40.2122 -7.9987 20.0000
    endloop
  endfacet
  facet normal 0.995185 -0.098017 0.000000
    outer loop
      vertex 49.0393 -9.7545 0.0000
      vertex 50.0000 -0.0000 0.0000
      vertex 50.0000 -0.0000 20.0000
    endloop
  endfacet
  facet normal 0.995185 -0.098017 0.000000
    outer loop
      vertex 49.0393 -9.7545 0.0000
      vertex 50.0000 -0.0000 20.0000
      vertex 49.0393 -9.7545 20.0000
    endloop
  endfacet
  facet normal -0.995185 0.098017 0.000000
    outer loop
      vertex 41.0000 -0.0000 0.0000
      vertex 40.2122 -7.9987 0.0000
      vertex 40.2122 -7.9987 20.0000
    endloop
  endfacet
  facet normal -0.995185 0.098017 0.000000
    outer loop
      vertex 41.0000 -0.0000 0.0000
      vertex 40.2122 -7.9987 20.0000
      vertex 41.0000 -0.0000 20.0000
    endloop
  endfacet
  facet normal 0.000000 -0.000000 1.000000
    outer loop
      vertex 49.0393 -9.7545 0.0000
      vertex 50.0000 -0.0000 0.0000
      vertex 41.0000 -0.0000 0.0000
    endloop
  endfacet
  facet normal 0.000000 0.000000 1.000000
    outer loop
      vertex 49.0393 -9.7545 0.0000
      vertex 41.0000 -0.0000 0.0000
      vertex 40.2122 -7.9987 0.0000
    endloop
  endfacet
  facet normal 0.000000 0.000000 -1.000000
    outer loop
      vertex 49.0393 -9.7545 20.0000
      vertex 40.2122 -7.9987 20.0000
      vertex 50.0000 -0.0000 20.0000
    endloop
  endfacet
  facet normal -0.000000 0.000000 -1.000000
    outer loop
      vertex 50.0000 -0.0000 20.0000
      vertex 40.2122 -7.9987 20.0000
      vertex 41.0000 -0.0000 20.0000
    endloop
  endfacet
  facet normal 0.000000 0.000000 1.000000
    outer loop
      vertex 49.0393 -9.7545 20.0000
      vertex 41.0000 -0.0000 20.0000
      vertex 40.2122 -7.9987 20.0000
    endloop
  endfacet
  facet normal 0.000000 -0.000000 1.000000
    outer loop
      vertex 49.0393 -9.7545 20.0000
      vertex 50.0000 -0.0000 20.0000
      vertex 41.0000 -0.0000 20.0000
    endloop
  endfacet
endsolid nozzle_outer_housing_80mm
