solid cm4_node_mounting_tray
  facet normal 0.000000 -1.000000 0.000000
    outer loop
      vertex 0.0000 0.0000 0.0000
      vertex 62.0000 0.0000 0.0000
      vertex 62.0000 0.0000 6.0000
    endloop
  endfacet
  facet normal 0.000000 -1.000000 0.000000
    outer loop
      vertex 0.0000 0.0000 0.0000
      vertex 62.0000 0.0000 6.0000
      vertex 0.0000 0.0000 6.0000
    endloop
  endfacet
  facet normal 1.000000 0.000000 0.000000
    outer loop
      vertex 62.0000 0.0000 0.0000
      vertex 62.0000 52.0000 0.0000
      vertex 62.0000 52.0000 6.0000
    endloop
  endfacet
  facet normal 1.000000 0.000000 0.000000
    outer loop
      vertex 62.0000 0.0000 0.0000
      vertex 62.0000 52.0000 6.0000
      vertex 62.0000 0.0000 6.0000
    endloop
  endfacet
  facet normal 0.000000 1.000000 0.000000
    outer loop
      vertex 62.0000 52.0000 0.0000
      vertex 0.0000 52.0000 0.0000
      vertex 0.0000 52.0000 6.0000
    endloop
  endfacet
  facet normal 0.000000 1.000000 0.000000
    outer loop
      vertex 62.0000 52.0000 0.0000
      vertex 0.0000 52.0000 6.0000
      vertex 62.0000 52.0000 6.0000
    endloop
  endfacet
  facet normal -1.000000 0.000000 0.000000
    outer loop
      vertex 0.0000 52.0000 0.0000
      vertex 0.0000 0.0000 0.0000
      vertex 0.0000 0.0000 6.0000
    endloop
  endfacet
  facet normal -1.000000 0.000000 0.000000
    outer loop
      vertex 0.0000 52.0000 0.0000
      vertex 0.0000 0.0000 6.0000
      vertex 0.0000 52.0000 6.0000
    endloop
  endfacet
  facet normal 0.000000 0.000000 1.000000
    outer loop
      vertex 0.0000 0.0000 6.0000
      vertex 62.0000 0.0000 6.0000
      vertex 62.0000 52.0000 6.0000
    endloop
  endfacet
  facet normal 0.000000 0.000000 1.000000
    outer loop
      vertex 0.0000 0.0000 6.0000
      vertex 62.0000 52.0000 6.0000
      vertex 0.0000 52.0000 6.0000
    endloop
  endfacet
  facet normal 0.000000 0.000000 -1.000000
    outer loop
      vertex 0.0000 0.0000 0.0000
      vertex 0.0000 52.0000 0.0000
      vertex 62.0000 52.0000 0.0000
    endloop
  endfacet
  facet normal 0.000000 0.000000 -1.000000
    outer loop
      vertex 0.0000 0.0000 0.0000
      vertex 62.0000 52.0000 0.0000
      vertex 62.0000 0.0000 0.0000
    endloop
  endfacet
endsolid cm4_node_mounting_tray
