solid landing_skid_foot
  facet normal 0.000000 0.000000 1.000000
    outer loop
      vertex 0.0000 0.0000 0.0000
      vertex 44.0000 0.0000 0.0000
      vertex 44.0000 20.0000 0.0000
    endloop
  endfacet
  facet normal 0.000000 0.000000 1.000000
    outer loop
      vertex 0.0000 0.0000 0.0000
      vertex 44.0000 20.0000 0.0000
      vertex 0.0000 20.0000 0.0000
    endloop
  endfacet
  facet normal 0.000000 0.000000 -1.000000
    outer loop
      vertex 0.0000 0.0000 8.0000
      vertex 44.0000 20.0000 8.0000
      vertex 44.0000 0.0000 8.0000
    endloop
  endfacet
  facet normal 0.000000 0.000000 -1.000000
    outer loop
      vertex 0.0000 0.0000 8.0000
      vertex 0.0000 20.0000 8.0000
      vertex 44.0000 20.0000 8.0000
    endloop
  endfacet
  facet normal 0.000000 1.000000 0.000000
    outer loop
      vertex 0.0000 0.0000 0.0000
      vertex 0.0000 0.0000 8.0000
      vertex 44.0000 0.0000 8.0000
    endloop
  endfacet
  facet normal 0.000000 1.000000 0.000000
    outer loop
      vertex 0.0000 0.0000 0.0000
      vertex 44.0000 0.0000 8.0000
      vertex 44.0000 0.0000 0.0000
    endloop
  endfacet
  facet normal 0.000000 -1.000000 0.000000
    outer loop
      vertex 0.0000 20.0000 0.0000
      vertex 44.0000 20.0000 8.0000
      vertex 0.0000 20.0000 8.0000
    endloop
  endfacet
  facet normal 0.000000 -1.000000 0.000000
    outer loop
      vertex 0.0000 20.0000 0.0000
      vertex 44.0000 20.0000 0.0000
      vertex 44.0000 20.0000 8.0000
    endloop
  endfacet
  facet normal 1.000000 0.000000 0.000000
    outer loop
      vertex 0.0000 0.0000 0.0000
      vertex 0.0000 20.0000 0.0000
      vertex 0.0000 20.0000 8.0000
    endloop
  endfacet
  facet normal 1.000000 0.000000 0.000000
    outer loop
      vertex 0.0000 0.0000 0.0000
      vertex 0.0000 20.0000 8.0000
      vertex 0.0000 0.0000 8.0000
    endloop
  endfacet
  facet normal -1.000000 0.000000 0.000000
    outer loop
      vertex 44.0000 0.0000 0.0000
      vertex 44.0000 20.0000 8.0000
      vertex 44.0000 20.0000 0.0000
    endloop
  endfacet
  facet normal -1.000000 0.000000 0.000000
    outer loop
      vertex 44.0000 0.0000 0.0000
      vertex 44.0000 0.0000 8.0000
      vertex 44.0000 20.0000 8.0000
    endloop
  endfacet
  facet normal 0.000000 0.000000 1.000000
    outer loop
      vertex 10.0000 18.0000 0.0000
      vertex 34.0000 18.0000 0.0000
      vertex 34.0000 22.0000 0.0000
    endloop
  endfacet
  facet normal 0.000000 0.000000 1.000000
    outer loop
      vertex 10.0000 18.0000 0.0000
      vertex 34.0000 22.0000 0.0000
      vertex 10.0000 22.0000 0.0000
    endloop
  endfacet
  facet normal 0.000000 0.000000 -1.000000
    outer loop
      vertex 10.0000 18.0000 6.0000
      vertex 34.0000 22.0000 6.0000
      vertex 34.0000 18.0000 6.0000
    endloop
  endfacet
  facet normal 0.000000 0.000000 -1.000000
    outer loop
      vertex 10.0000 18.0000 6.0000
      vertex 10.0000 22.0000 6.0000
      vertex 34.0000 22.0000 6.0000
    endloop
  endfacet
  facet normal 0.000000 1.000000 0.000000
    outer loop
      vertex 10.0000 18.0000 0.0000
      vertex 10.0000 18.0000 6.0000
      vertex 34.0000 18.0000 6.0000
    endloop
  endfacet
  facet normal 0.000000 1.000000 0.000000
    outer loop
      vertex 10.0000 18.0000 0.0000
      vertex 34.0000 18.0000 6.0000
      vertex 34.0000 18.0000 0.0000
    endloop
  endfacet
  facet normal 0.000000 -1.000000 0.000000
    outer loop
      vertex 10.0000 22.0000 0.0000
      vertex 34.0000 22.0000 6.0000
      vertex 10.0000 22.0000 6.0000
    endloop
  endfacet
  facet normal 0.000000 -1.000000 0.000000
    outer loop
      vertex 10.0000 22.0000 0.0000
      vertex 34.0000 22.0000 0.0000
      vertex 34.0000 22.0000 6.0000
    endloop
  endfacet
  facet normal 1.000000 0.000000 0.000000
    outer loop
      vertex 10.0000 18.0000 0.0000
      vertex 10.0000 22.0000 0.0000
      vertex 10.0000 22.0000 6.0000
    endloop
  endfacet
  facet normal 1.000000 0.000000 0.000000
    outer loop
      vertex 10.0000 18.0000 0.0000
      vertex 10.0000 22.0000 6.0000
      vertex 10.0000 18.0000 6.0000
    endloop
  endfacet
  facet normal -1.000000 0.000000 0.000000
    outer loop
      vertex 34.0000 18.0000 0.0000
      vertex 34.0000 22.0000 6.0000
      vertex 34.0000 22.0000 0.0000
    endloop
  endfacet
  facet normal -1.000000 0.000000 0.000000
    outer loop
      vertex 34.0000 18.0000 0.0000
      vertex 34.0000 18.0000 6.0000
      vertex 34.0000 22.0000 6.0000
    endloop
  endfacet
endsolid landing_skid_foot
