solid nacelle_tip_cap_80mm_port
  facet normal 0.991445 0.130526 0.000000
    outer loop
      vertex 46.5000 0.0000 0.0000
      vertex 44.9156 12.0351 0.0000
      vertex 44.9156 12.0351 10.0000
    endloop
  endfacet
  facet normal 0.991445 0.130526 -0.000000
    outer loop
      vertex 46.5000 0.0000 0.0000
      vertex 44.9156 12.0351 10.0000
      vertex 46.5000 0.0000 10.0000
    endloop
  endfacet
  facet normal -0.991445 -0.130526 0.000000
    outer loop
      vertex 43.9496 11.7763 0.0000
      vertex 45.5000 0.0000 0.0000
      vertex 45.5000 0.0000 10.0000
    endloop
  endfacet
  facet normal -0.991445 -0.130526 0.000000
    outer loop
      vertex 43.9496 11.7763 0.0000
      vertex 45.5000 0.0000 10.0000
      vertex 43.9496 11.7763 10.0000
    endloop
  endfacet
  facet normal 0.000000 0.000000 1.000000
    outer loop
      vertex 46.5000 0.0000 0.0000
      vertex 44.9156 12.0351 0.0000
      vertex 43.9496 11.7763 0.0000
    endloop
  endfacet
  facet normal 0.000000 0.000000 1.000000
    outer loop
      vertex 46.5000 0.0000 0.0000
      vertex 43.9496 11.7763 0.0000
      vertex 45.5000 0.0000 0.0000
    endloop
  endfacet
  facet normal 0.000000 0.000000 -1.000000
    outer loop
      vertex 46.5000 0.0000 10.0000
      vertex 45.5000 0.0000 10.0000
      vertex 44.9156 12.0351 10.0000
    endloop
  endfacet
  facet normal 0.000000 -0.000000 -1.000000
    outer loop
      vertex 44.9156 12.0351 10.0000
      vertex 45.5000 0.0000 10.0000
      vertex 43.9496 11.7763 10.0000
    endloop
  endfacet
  facet normal 0.000000 0.000000 1.000000
    outer loop
      vertex 46.5000 0.0000 10.0000
      vertex 43.9496 11.7763 10.0000
      vertex 45.5000 0.0000 10.0000
    endloop
  endfacet
  facet normal 0.000000 0.000000 1.000000
    outer loop
      vertex 46.5000 0.0000 10.0000
      vertex 44.9156 12.0351 10.0000
      vertex 43.9496 11.7763 10.0000
    endloop
  endfacet
  facet normal 0.923880 0.382683 0.000000
    outer loop
      vertex 44.9156 12.0351 0.0000
      vertex 40.2702 23.2500 0.0000
      vertex 40.2702 23.2500 10.0000
    endloop
  endfacet
  facet normal 0.923880 0.382683 -0.000000
    outer loop
      vertex 44.9156 12.0351 0.0000
      vertex 40.2702 23.2500 10.0000
      vertex 44.9156 12.0351 10.0000
    endloop
  endfacet
  facet normal -0.923880 -0.382683 0.000000
    outer loop
      vertex 39.4042 22.7500 0.0000
      vertex 43.9496 11.7763 0.0000
      vertex 43.9496 11.7763 10.0000
    endloop
  endfacet
  facet normal -0.923880 -0.382683 0.000000
    outer loop
      vertex 39.4042 22.7500 0.0000
      vertex 43.9496 11.7763 10.0000
      vertex 39.4042 22.7500 10.0000
    endloop
  endfacet
  facet normal 0.000000 0.000000 1.000000
    outer loop
      vertex 44.9156 12.0351 0.0000
      vertex 40.2702 23.2500 0.0000
      vertex 39.4042 22.7500 0.0000
    endloop
  endfacet
  facet normal 0.000000 0.000000 1.000000
    outer loop
      vertex 44.9156 12.0351 0.0000
      vertex 39.4042 22.7500 0.0000
      vertex 43.9496 11.7763 0.0000
    endloop
  endfacet
  facet normal -0.000000 0.000000 -1.000000
    outer loop
      vertex 44.9156 12.0351 10.0000
      vertex 43.9496 11.7763 10.0000
      vertex 40.2702 23.2500 10.0000
    endloop
  endfacet
  facet normal 0.000000 -0.000000 -1.000000
    outer loop
      vertex 40.2702 23.2500 10.0000
      vertex 43.9496 11.7763 10.0000
      vertex 39.4042 22.7500 10.0000
    endloop
  endfacet
  facet normal 0.000000 0.000000 1.000000
    outer loop
      vertex 44.9156 12.0351 10.0000
      vertex 39.4042 22.7500 10.0000
      vertex 43.9496 11.7763 10.0000
    endloop
  endfacet
  facet normal 0.000000 0.000000 1.000000
    outer loop
      vertex 44.9156 12.0351 10.0000
      vertex 40.2702 23.2500 10.0000
      vertex 39.4042 22.7500 10.0000
    endloop
  endfacet
  facet normal 0.793353 0.608761 0.000000
    outer loop
      vertex 40.2702 23.2500 0.0000
      vertex 32.8805 32.8805 0.0000
      vertex 32.8805 32.8805 10.0000
    endloop
  endfacet
  facet normal 0.793353 0.608761 -0.000000
    outer loop
      vertex 40.2702 23.2500 0.0000
      vertex 32.8805 32.8805 10.0000
      vertex 40.2702 23.2500 10.0000
    endloop
  endfacet
  facet normal -0.793353 -0.608761 0.000000
    outer loop
      vertex 32.1734 32.1734 0.0000
      vertex 39.4042 22.7500 0.0000
      vertex 39.4042 22.7500 10.0000
    endloop
  endfacet
  facet normal -0.793353 -0.608761 0.000000
    outer loop
      vertex 32.1734 32.1734 0.0000
      vertex 39.4042 22.7500 10.0000
      vertex 32.1734 32.1734 10.0000
    endloop
  endfacet
  facet normal 0.000000 0.000000 1.000000
    outer loop
      vertex 40.2702 23.2500 0.0000
      vertex 32.8805 32.8805 0.0000
      vertex 32.1734 32.1734 0.0000
    endloop
  endfacet
  facet normal 0.000000 0.000000 1.000000
    outer loop
      vertex 40.2702 23.2500 0.0000
      vertex 32.1734 32.1734 0.0000
      vertex 39.4042 22.7500 0.0000
    endloop
  endfacet
  facet normal -0.000000 0.000000 -1.000000
    outer loop
      vertex 40.2702 23.2500 10.0000
      vertex 39.4042 22.7500 10.0000
      vertex 32.8805 32.8805 10.0000
    endloop
  endfacet
  facet normal 0.000000 -0.000000 -1.000000
    outer loop
      vertex 32.8805 32.8805 10.0000
      vertex 39.4042 22.7500 10.0000
      vertex 32.1734 32.1734 10.0000
    endloop
  endfacet
  facet normal 0.000000 0.000000 1.000000
    outer loop
      vertex 40.2702 23.2500 10.0000
      vertex 32.1734 32.1734 10.0000
      vertex 39.4042 22.7500 10.0000
    endloop
  endfacet
  facet normal 0.000000 0.000000 1.000000
    outer loop
      vertex 40.2702 23.2500 10.0000
      vertex 32.8805 32.8805 10.0000
      vertex 32.1734 32.1734 10.0000
    endloop
  endfacet
  facet normal 0.608761 0.793353 0.000000
    outer loop
      vertex 32.8805 32.8805 0.0000
      vertex 23.2500 40.2702 0.0000
      vertex 23.2500 40.2702 10.0000
    endloop
  endfacet
  facet normal 0.608761 0.793353 -0.000000
    outer loop
      vertex 32.8805 32.8805 0.0000
      vertex 23.2500 40.2702 10.0000
      vertex 32.8805 32.8805 10.0000
    endloop
  endfacet
  facet normal -0.608761 -0.793353 0.000000
    outer loop
      vertex 22.7500 39.4042 0.0000
      vertex 32.1734 32.1734 0.0000
      vertex 32.1734 32.1734 10.0000
    endloop
  endfacet
  facet normal -0.608761 -0.793353 0.000000
    outer loop
      vertex 22.7500 39.4042 0.0000
      vertex 32.1734 32.1734 10.0000
      vertex 22.7500 39.4042 10.0000
    endloop
  endfacet
  facet normal 0.000000 0.000000 1.000000
    outer loop
      vertex 32.8805 32.8805 0.0000
      vertex 23.2500 40.2702 0.0000
      vertex 22.7500 39.4042 0.0000
    endloop
  endfacet
  facet normal 0.000000 0.000000 1.000000
    outer loop
      vertex 32.8805 32.8805 0.0000
      vertex 22.7500 39.4042 0.0000
      vertex 32.1734 32.1734 0.0000
    endloop
  endfacet
  facet normal -0.000000 0.000000 -1.000000
    outer loop
      vertex 32.8805 32.8805 10.0000
      vertex 32.1734 32.1734 10.0000
      vertex 23.2500 40.2702 10.0000
    endloop
  endfacet
  facet normal 0.000000 -0.000000 -1.000000
    outer loop
      vertex 23.2500 40.2702 10.0000
      vertex 32.1734 32.1734 10.0000
      vertex 22.7500 39.4042 10.0000
    endloop
  endfacet
  facet normal 0.000000 0.000000 1.000000
    outer loop
      vertex 32.8805 32.8805 10.0000
      vertex 22.7500 39.4042 10.0000
      vertex 32.1734 32.1734 10.0000
    endloop
  endfacet
  facet normal 0.000000 0.000000 1.000000
    outer loop
      vertex 32.8805 32.8805 10.0000
      vertex 23.2500 40.2702 10.0000
      vertex 22.7500 39.4042 10.0000
    endloop
  endfacet
  facet normal 0.382683 0.923880 0.000000
    outer loop
      vertex 23.2500 40.2702 0.0000
      vertex 12.0351 44.9156 0.0000
      vertex 12.0351 44.9156 10.0000
    endloop
  endfacet
  facet normal 0.382683 0.923880 -0.000000
    outer loop
      vertex 23.2500 40.2702 0.0000
      vertex 12.0351 44.9156 10.0000
      vertex 23.2500 40.2702 10.0000
    endloop
  endfacet
  facet normal -0.382683 -0.923880 0.000000
    outer loop
      vertex 11.7763 43.9496 0.0000
      vertex 22.7500 39.4042 0.0000
      vertex 22.7500 39.4042 10.0000
    endloop
  endfacet
  facet normal -0.382683 -0.923880 0.000000
    outer loop
      vertex 11.7763 43.9496 0.0000
      vertex 22.7500 39.4042 10.0000
      vertex 11.7763 43.9496 10.0000
    endloop
  endfacet
  facet normal 0.000000 0.000000 1.000000
    outer loop
      vertex 23.2500 40.2702 0.0000
      vertex 12.0351 44.9156 0.0000
      vertex 11.7763 43.9496 0.0000
    endloop
  endfacet
  facet normal 0.000000 0.000000 1.000000
    outer loop
      vertex 23.2500 40.2702 0.0000
      vertex 11.7763 43.9496 0.0000
      vertex 22.7500 39.4042 0.0000
    endloop
  endfacet
  facet normal -0.000000 0.000000 -1.000000
    outer loop
      vertex 23.2500 40.2702 10.0000
      vertex 22.7500 39.4042 10.0000
      vertex 12.0351 44.9156 10.0000
    endloop
  endfacet
  facet normal 0.000000 -0.000000 -1.000000
    outer loop
      vertex 12.0351 44.9156 10.0000
      vertex 22.7500 39.4042 10.0000
      vertex 11.7763 43.9496 10.0000
    endloop
  endfacet
  facet normal 0.000000 0.000000 1.000000
    outer loop
      vertex 23.2500 40.2702 10.0000
      vertex 11.7763 43.9496 10.0000
      vertex 22.7500 39.4042 10.0000
    endloop
  endfacet
  facet normal 0.000000 0.000000 1.000000
    outer loop
      vertex 23.2500 40.2702 10.0000
      vertex 12.0351 44.9156 10.0000
      vertex 11.7763 43.9496 10.0000
    endloop
  endfacet
  facet normal 0.130526 0.991445 0.000000
    outer loop
      vertex 12.0351 44.9156 0.0000
      vertex 0.0000 46.5000 0.0000
      vertex 0.0000 46.5000 10.0000
    endloop
  endfacet
  facet normal 0.130526 0.991445 -0.000000
    outer loop
      vertex 12.0351 44.9156 0.0000
      vertex 0.0000 46.5000 10.0000
      vertex 12.0351 44.9156 10.0000
    endloop
  endfacet
  facet normal -0.130526 -0.991445 0.000000
    outer loop
      vertex 0.0000 45.5000 0.0000
      vertex 11.7763 43.9496 0.0000
      vertex 11.7763 43.9496 10.0000
    endloop
  endfacet
  facet normal -0.130526 -0.991445 0.000000
    outer loop
      vertex 0.0000 45.5000 0.0000
      vertex 11.7763 43.9496 10.0000
      vertex 0.0000 45.5000 10.0000
    endloop
  endfacet
  facet normal 0.000000 0.000000 1.000000
    outer loop
      vertex 12.0351 44.9156 0.0000
      vertex 0.0000 46.5000 0.0000
      vertex 0.0000 45.5000 0.0000
    endloop
  endfacet
  facet normal 0.000000 0.000000 1.000000
    outer loop
      vertex 12.0351 44.9156 0.0000
      vertex 0.0000 45.5000 0.0000
      vertex 11.7763 43.9496 0.0000
    endloop
  endfacet
  facet normal -0.000000 0.000000 -1.000000
    outer loop
      vertex 12.0351 44.9156 10.0000
      vertex 11.7763 43.9496 10.0000
      vertex 0.0000 46.5000 10.0000
    endloop
  endfacet
  facet normal 0.000000 -0.000000 -1.000000
    outer loop
      vertex 0.0000 46.5000 10.0000
      vertex 11.7763 43.9496 10.0000
      vertex 0.0000 45.5000 10.0000
    endloop
  endfacet
  facet normal 0.000000 0.000000 1.000000
    outer loop
      vertex 12.0351 44.9156 10.0000
      vertex 0.0000 45.5000 10.0000
      vertex 11.7763 43.9496 10.0000
    endloop
  endfacet
  facet normal 0.000000 0.000000 1.000000
    outer loop
      vertex 12.0351 44.9156 10.0000
      vertex 0.0000 46.5000 10.0000
      vertex 0.0000 45.5000 10.0000
    endloop
  endfacet
  facet normal -0.130526 0.991445 0.000000
    outer loop
      vertex 0.0000 46.5000 0.0000
      vertex -12.0351 44.9156 0.0000
      vertex -12.0351 44.9156 10.0000
    endloop
  endfacet
  facet normal -0.130526 0.991445 0.000000
    outer loop
      vertex 0.0000 46.5000 0.0000
      vertex -12.0351 44.9156 10.0000
      vertex 0.0000 46.5000 10.0000
    endloop
  endfacet
  facet normal 0.130526 -0.991445 0.000000
    outer loop
      vertex -11.7763 43.9496 0.0000
      vertex 0.0000 45.5000 0.0000
      vertex 0.0000 45.5000 10.0000
    endloop
  endfacet
  facet normal 0.130526 -0.991445 0.000000
    outer loop
      vertex -11.7763 43.9496 0.0000
      vertex 0.0000 45.5000 10.0000
      vertex -11.7763 43.9496 10.0000
    endloop
  endfacet
  facet normal 0.000000 0.000000 1.000000
    outer loop
      vertex 0.0000 46.5000 0.0000
      vertex -12.0351 44.9156 0.0000
      vertex -11.7763 43.9496 0.0000
    endloop
  endfacet
  facet normal 0.000000 0.000000 1.000000
    outer loop
      vertex 0.0000 46.5000 0.0000
      vertex -11.7763 43.9496 0.0000
      vertex 0.0000 45.5000 0.0000
    endloop
  endfacet
  facet normal 0.000000 0.000000 -1.000000
    outer loop
      vertex 0.0000 46.5000 10.0000
      vertex 0.0000 45.5000 10.0000
      vertex -12.0351 44.9156 10.0000
    endloop
  endfacet
  facet normal 0.000000 0.000000 -1.000000
    outer loop
      vertex -12.0351 44.9156 10.0000
      vertex 0.0000 45.5000 10.0000
      vertex -11.7763 43.9496 10.0000
    endloop
  endfacet
  facet normal 0.000000 0.000000 1.000000
    outer loop
      vertex 0.0000 46.5000 10.0000
      vertex -11.7763 43.9496 10.0000
      vertex 0.0000 45.5000 10.0000
    endloop
  endfacet
  facet normal 0.000000 0.000000 1.000000
    outer loop
      vertex 0.0000 46.5000 10.0000
      vertex -12.0351 44.9156 10.0000
      vertex -11.7763 43.9496 10.0000
    endloop
  endfacet
  facet normal -0.382683 0.923880 0.000000
    outer loop
      vertex -12.0351 44.9156 0.0000
      vertex -23.2500 40.2702 0.0000
      vertex -23.2500 40.2702 10.0000
    endloop
  endfacet
  facet normal -0.382683 0.923880 0.000000
    outer loop
      vertex -12.0351 44.9156 0.0000
      vertex -23.2500 40.2702 10.0000
      vertex -12.0351 44.9156 10.0000
    endloop
  endfacet
  facet normal 0.382683 -0.923880 0.000000
    outer loop
      vertex -22.7500 39.4042 0.0000
      vertex -11.7763 43.9496 0.0000
      vertex -11.7763 43.9496 10.0000
    endloop
  endfacet
  facet normal 0.382683 -0.923880 0.000000
    outer loop
      vertex -22.7500 39.4042 0.0000
      vertex -11.7763 43.9496 10.0000
      vertex -22.7500 39.4042 10.0000
    endloop
  endfacet
  facet normal 0.000000 0.000000 1.000000
    outer loop
      vertex -12.0351 44.9156 0.0000
      vertex -23.2500 40.2702 0.0000
      vertex -22.7500 39.4042 0.0000
    endloop
  endfacet
  facet normal 0.000000 0.000000 1.000000
    outer loop
      vertex -12.0351 44.9156 0.0000
      vertex -22.7500 39.4042 0.0000
      vertex -11.7763 43.9496 0.0000
    endloop
  endfacet
  facet normal 0.000000 -0.000000 -1.000000
    outer loop
      vertex -12.0351 44.9156 10.0000
      vertex -11.7763 43.9496 10.0000
      vertex -23.2500 40.2702 10.0000
    endloop
  endfacet
  facet normal 0.000000 0.000000 -1.000000
    outer loop
      vertex -23.2500 40.2702 10.0000
      vertex -11.7763 43.9496 10.0000
      vertex -22.7500 39.4042 10.0000
    endloop
  endfacet
  facet normal 0.000000 0.000000 1.000000
    outer loop
      vertex -12.0351 44.9156 10.0000
      vertex -22.7500 39.4042 10.0000
      vertex -11.7763 43.9496 10.0000
    endloop
  endfacet
  facet normal 0.000000 0.000000 1.000000
    outer loop
      vertex -12.0351 44.9156 10.0000
      vertex -23.2500 40.2702 10.0000
      vertex -22.7500 39.4042 10.0000
    endloop
  endfacet
  facet normal -0.608761 0.793353 0.000000
    outer loop
      vertex -23.2500 40.2702 0.0000
      vertex -32.8805 32.8805 0.0000
      vertex -32.8805 32.8805 10.0000
    endloop
  endfacet
  facet normal -0.608761 0.793353 0.000000
    outer loop
      vertex -23.2500 40.2702 0.0000
      vertex -32.8805 32.8805 10.0000
      vertex -23.2500 40.2702 10.0000
    endloop
  endfacet
  facet normal 0.608761 -0.793353 0.000000
    outer loop
      vertex -32.1734 32.1734 0.0000
      vertex -22.7500 39.4042 0.0000
      vertex -22.7500 39.4042 10.0000
    endloop
  endfacet
  facet normal 0.608761 -0.793353 0.000000
    outer loop
      vertex -32.1734 32.1734 0.0000
      vertex -22.7500 39.4042 10.0000
      vertex -32.1734 32.1734 10.0000
    endloop
  endfacet
  facet normal 0.000000 0.000000 1.000000
    outer loop
      vertex -23.2500 40.2702 0.0000
      vertex -32.8805 32.8805 0.0000
      vertex -32.1734 32.1734 0.0000
    endloop
  endfacet
  facet normal 0.000000 0.000000 1.000000
    outer loop
      vertex -23.2500 40.2702 0.0000
      vertex -32.1734 32.1734 0.0000
      vertex -22.7500 39.4042 0.0000
    endloop
  endfacet
  facet normal 0.000000 -0.000000 -1.000000
    outer loop
      vertex -23.2500 40.2702 10.0000
      vertex -22.7500 39.4042 10.0000
      vertex -32.8805 32.8805 10.0000
    endloop
  endfacet
  facet normal 0.000000 0.000000 -1.000000
    outer loop
      vertex -32.8805 32.8805 10.0000
      vertex -22.7500 39.4042 10.0000
      vertex -32.1734 32.1734 10.0000
    endloop
  endfacet
  facet normal 0.000000 0.000000 1.000000
    outer loop
      vertex -23.2500 40.2702 10.0000
      vertex -32.1734 32.1734 10.0000
      vertex -22.7500 39.4042 10.0000
    endloop
  endfacet
  facet normal 0.000000 0.000000 1.000000
    outer loop
      vertex -23.2500 40.2702 10.0000
      vertex -32.8805 32.8805 10.0000
      vertex -32.1734 32.1734 10.0000
    endloop
  endfacet
  facet normal -0.793353 0.608761 0.000000
    outer loop
      vertex -32.8805 32.8805 0.0000
      vertex -40.2702 23.2500 0.0000
      vertex -40.2702 23.2500 10.0000
    endloop
  endfacet
  facet normal -0.793353 0.608761 0.000000
    outer loop
      vertex -32.8805 32.8805 0.0000
      vertex -40.2702 23.2500 10.0000
      vertex -32.8805 32.8805 10.0000
    endloop
  endfacet
  facet normal 0.793353 -0.608761 0.000000
    outer loop
      vertex -39.4042 22.7500 0.0000
      vertex -32.1734 32.1734 0.0000
      vertex -32.1734 32.1734 10.0000
    endloop
  endfacet
  facet normal 0.793353 -0.608761 0.000000
    outer loop
      vertex -39.4042 22.7500 0.0000
      vertex -32.1734 32.1734 10.0000
      vertex -39.4042 22.7500 10.0000
    endloop
  endfacet
  facet normal 0.000000 0.000000 1.000000
    outer loop
      vertex -32.8805 32.8805 0.0000
      vertex -40.2702 23.2500 0.0000
      vertex -39.4042 22.7500 0.0000
    endloop
  endfacet
  facet normal 0.000000 0.000000 1.000000
    outer loop
      vertex -32.8805 32.8805 0.0000
      vertex -39.4042 22.7500 0.0000
      vertex -32.1734 32.1734 0.0000
    endloop
  endfacet
  facet normal 0.000000 -0.000000 -1.000000
    outer loop
      vertex -32.8805 32.8805 10.0000
      vertex -32.1734 32.1734 10.0000
      vertex -40.2702 23.2500 10.0000
    endloop
  endfacet
  facet normal 0.000000 0.000000 -1.000000
    outer loop
      vertex -40.2702 23.2500 10.0000
      vertex -32.1734 32.1734 10.0000
      vertex -39.4042 22.7500 10.0000
    endloop
  endfacet
  facet normal 0.000000 0.000000 1.000000
    outer loop
      vertex -32.8805 32.8805 10.0000
      vertex -39.4042 22.7500 10.0000
      vertex -32.1734 32.1734 10.0000
    endloop
  endfacet
  facet normal 0.000000 0.000000 1.000000
    outer loop
      vertex -32.8805 32.8805 10.0000
      vertex -40.2702 23.2500 10.0000
      vertex -39.4042 22.7500 10.0000
    endloop
  endfacet
  facet normal -0.923880 0.382683 0.000000
    outer loop
      vertex -40.2702 23.2500 0.0000
      vertex -44.9156 12.0351 0.0000
      vertex -44.9156 12.0351 10.0000
    endloop
  endfacet
  facet normal -0.923880 0.382683 0.000000
    outer loop
      vertex -40.2702 23.2500 0.0000
      vertex -44.9156 12.0351 10.0000
      vertex -40.2702 23.2500 10.0000
    endloop
  endfacet
  facet normal 0.923880 -0.382683 0.000000
    outer loop
      vertex -43.9496 11.7763 0.0000
      vertex -39.4042 22.7500 0.0000
      vertex -39.4042 22.7500 10.0000
    endloop
  endfacet
  facet normal 0.923880 -0.382683 0.000000
    outer loop
      vertex -43.9496 11.7763 0.0000
      vertex -39.4042 22.7500 10.0000
      vertex -43.9496 11.7763 10.0000
    endloop
  endfacet
  facet normal 0.000000 0.000000 1.000000
    outer loop
      vertex -40.2702 23.2500 0.0000
      vertex -44.9156 12.0351 0.0000
      vertex -43.9496 11.7763 0.0000
    endloop
  endfacet
  facet normal 0.000000 0.000000 1.000000
    outer loop
      vertex -40.2702 23.2500 0.0000
      vertex -43.9496 11.7763 0.0000
      vertex -39.4042 22.7500 0.0000
    endloop
  endfacet
  facet normal 0.000000 -0.000000 -1.000000
    outer loop
      vertex -40.2702 23.2500 10.0000
      vertex -39.4042 22.7500 10.0000
      vertex -44.9156 12.0351 10.0000
    endloop
  endfacet
  facet normal 0.000000 0.000000 -1.000000
    outer loop
      vertex -44.9156 12.0351 10.0000
      vertex -39.4042 22.7500 10.0000
      vertex -43.9496 11.7763 10.0000
    endloop
  endfacet
  facet normal 0.000000 0.000000 1.000000
    outer loop
      vertex -40.2702 23.2500 10.0000
      vertex -43.9496 11.7763 10.0000
      vertex -39.4042 22.7500 10.0000
    endloop
  endfacet
  facet normal 0.000000 0.000000 1.000000
    outer loop
      vertex -40.2702 23.2500 10.0000
      vertex -44.9156 12.0351 10.0000
      vertex -43.9496 11.7763 10.0000
    endloop
  endfacet
  facet normal -0.991445 0.130526 0.000000
    outer loop
      vertex -44.9156 12.0351 0.0000
      vertex -46.5000 0.0000 0.0000
      vertex -46.5000 0.0000 10.0000
    endloop
  endfacet
  facet normal -0.991445 0.130526 0.000000
    outer loop
      vertex -44.9156 12.0351 0.0000
      vertex -46.5000 0.0000 10.0000
      vertex -44.9156 12.0351 10.0000
    endloop
  endfacet
  facet normal 0.991445 -0.130526 0.000000
    outer loop
      vertex -45.5000 0.0000 0.0000
      vertex -43.9496 11.7763 0.0000
      vertex -43.9496 11.7763 10.0000
    endloop
  endfacet
  facet normal 0.991445 -0.130526 0.000000
    outer loop
      vertex -45.5000 0.0000 0.0000
      vertex -43.9496 11.7763 10.0000
      vertex -45.5000 0.0000 10.0000
    endloop
  endfacet
  facet normal 0.000000 0.000000 1.000000
    outer loop
      vertex -44.9156 12.0351 0.0000
      vertex -46.5000 0.0000 0.0000
      vertex -45.5000 0.0000 0.0000
    endloop
  endfacet
  facet normal 0.000000 0.000000 1.000000
    outer loop
      vertex -44.9156 12.0351 0.0000
      vertex -45.5000 0.0000 0.0000
      vertex -43.9496 11.7763 0.0000
    endloop
  endfacet
  facet normal 0.000000 -0.000000 -1.000000
    outer loop
      vertex -44.9156 12.0351 10.0000
      vertex -43.9496 11.7763 10.0000
      vertex -46.5000 0.0000 10.0000
    endloop
  endfacet
  facet normal 0.000000 0.000000 -1.000000
    outer loop
      vertex -46.5000 0.0000 10.0000
      vertex -43.9496 11.7763 10.0000
      vertex -45.5000 0.0000 10.0000
    endloop
  endfacet
  facet normal 0.000000 0.000000 1.000000
    outer loop
      vertex -44.9156 12.0351 10.0000
      vertex -45.5000 0.0000 10.0000
      vertex -43.9496 11.7763 10.0000
    endloop
  endfacet
  facet normal 0.000000 0.000000 1.000000
    outer loop
      vertex -44.9156 12.0351 10.0000
      vertex -46.5000 0.0000 10.0000
      vertex -45.5000 0.0000 10.0000
    endloop
  endfacet
  facet normal -0.991445 -0.130526 0.000000
    outer loop
      vertex -46.5000 0.0000 0.0000
      vertex -44.9156 -12.0351 0.0000
      vertex -44.9156 -12.0351 10.0000
    endloop
  endfacet
  facet normal -0.991445 -0.130526 0.000000
    outer loop
      vertex -46.5000 0.0000 0.0000
      vertex -44.9156 -12.0351 10.0000
      vertex -46.5000 0.0000 10.0000
    endloop
  endfacet
  facet normal 0.991445 0.130526 0.000000
    outer loop
      vertex -43.9496 -11.7763 0.0000
      vertex -45.5000 0.0000 0.0000
      vertex -45.5000 0.0000 10.0000
    endloop
  endfacet
  facet normal 0.991445 0.130526 -0.000000
    outer loop
      vertex -43.9496 -11.7763 0.0000
      vertex -45.5000 0.0000 10.0000
      vertex -43.9496 -11.7763 10.0000
    endloop
  endfacet
  facet normal 0.000000 0.000000 1.000000
    outer loop
      vertex -46.5000 0.0000 0.0000
      vertex -44.9156 -12.0351 0.0000
      vertex -43.9496 -11.7763 0.0000
    endloop
  endfacet
  facet normal 0.000000 0.000000 1.000000
    outer loop
      vertex -46.5000 0.0000 0.0000
      vertex -43.9496 -11.7763 0.0000
      vertex -45.5000 0.0000 0.0000
    endloop
  endfacet
  facet normal 0.000000 0.000000 -1.000000
    outer loop
      vertex -46.5000 0.0000 10.0000
      vertex -45.5000 0.0000 10.0000
      vertex -44.9156 -12.0351 10.0000
    endloop
  endfacet
  facet normal 0.000000 0.000000 -1.000000
    outer loop
      vertex -44.9156 -12.0351 10.0000
      vertex -45.5000 0.0000 10.0000
      vertex -43.9496 -11.7763 10.0000
    endloop
  endfacet
  facet normal 0.000000 0.000000 1.000000
    outer loop
      vertex -46.5000 0.0000 10.0000
      vertex -43.9496 -11.7763 10.0000
      vertex -45.5000 0.0000 10.0000
    endloop
  endfacet
  facet normal 0.000000 0.000000 1.000000
    outer loop
      vertex -46.5000 0.0000 10.0000
      vertex -44.9156 -12.0351 10.0000
      vertex -43.9496 -11.7763 10.0000
    endloop
  endfacet
  facet normal -0.923880 -0.382683 0.000000
    outer loop
      vertex -44.9156 -12.0351 0.0000
      vertex -40.2702 -23.2500 0.0000
      vertex -40.2702 -23.2500 10.0000
    endloop
  endfacet
  facet normal -0.923880 -0.382683 0.000000
    outer loop
      vertex -44.9156 -12.0351 0.0000
      vertex -40.2702 -23.2500 10.0000
      vertex -44.9156 -12.0351 10.0000
    endloop
  endfacet
  facet normal 0.923880 0.382683 0.000000
    outer loop
      vertex -39.4042 -22.7500 0.0000
      vertex -43.9496 -11.7763 0.0000
      vertex -43.9496 -11.7763 10.0000
    endloop
  endfacet
  facet normal 0.923880 0.382683 -0.000000
    outer loop
      vertex -39.4042 -22.7500 0.0000
      vertex -43.9496 -11.7763 10.0000
      vertex -39.4042 -22.7500 10.0000
    endloop
  endfacet
  facet normal 0.000000 0.000000 1.000000
    outer loop
      vertex -44.9156 -12.0351 0.0000
      vertex -40.2702 -23.2500 0.0000
      vertex -39.4042 -22.7500 0.0000
    endloop
  endfacet
  facet normal -0.000000 0.000000 1.000000
    outer loop
      vertex -44.9156 -12.0351 0.0000
      vertex -39.4042 -22.7500 0.0000
      vertex -43.9496 -11.7763 0.0000
    endloop
  endfacet
  facet normal 0.000000 0.000000 -1.000000
    outer loop
      vertex -44.9156 -12.0351 10.0000
      vertex -43.9496 -11.7763 10.0000
      vertex -40.2702 -23.2500 10.0000
    endloop
  endfacet
  facet normal 0.000000 0.000000 -1.000000
    outer loop
      vertex -40.2702 -23.2500 10.0000
      vertex -43.9496 -11.7763 10.0000
      vertex -39.4042 -22.7500 10.0000
    endloop
  endfacet
  facet normal -0.000000 0.000000 1.000000
    outer loop
      vertex -44.9156 -12.0351 10.0000
      vertex -39.4042 -22.7500 10.0000
      vertex -43.9496 -11.7763 10.0000
    endloop
  endfacet
  facet normal 0.000000 0.000000 1.000000
    outer loop
      vertex -44.9156 -12.0351 10.0000
      vertex -40.2702 -23.2500 10.0000
      vertex -39.4042 -22.7500 10.0000
    endloop
  endfacet
  facet normal -0.793353 -0.608761 0.000000
    outer loop
      vertex -40.2702 -23.2500 0.0000
      vertex -32.8805 -32.8805 0.0000
      vertex -32.8805 -32.8805 10.0000
    endloop
  endfacet
  facet normal -0.793353 -0.608761 0.000000
    outer loop
      vertex -40.2702 -23.2500 0.0000
      vertex -32.8805 -32.8805 10.0000
      vertex -40.2702 -23.2500 10.0000
    endloop
  endfacet
  facet normal 0.793353 0.608761 0.000000
    outer loop
      vertex -32.1734 -32.1734 0.0000
      vertex -39.4042 -22.7500 0.0000
      vertex -39.4042 -22.7500 10.0000
    endloop
  endfacet
  facet normal 0.793353 0.608761 -0.000000
    outer loop
      vertex -32.1734 -32.1734 0.0000
      vertex -39.4042 -22.7500 10.0000
      vertex -32.1734 -32.1734 10.0000
    endloop
  endfacet
  facet normal 0.000000 0.000000 1.000000
    outer loop
      vertex -40.2702 -23.2500 0.0000
      vertex -32.8805 -32.8805 0.0000
      vertex -32.1734 -32.1734 0.0000
    endloop
  endfacet
  facet normal -0.000000 0.000000 1.000000
    outer loop
      vertex -40.2702 -23.2500 0.0000
      vertex -32.1734 -32.1734 0.0000
      vertex -39.4042 -22.7500 0.0000
    endloop
  endfacet
  facet normal 0.000000 0.000000 -1.000000
    outer loop
      vertex -40.2702 -23.2500 10.0000
      vertex -39.4042 -22.7500 10.0000
      vertex -32.8805 -32.8805 10.0000
    endloop
  endfacet
  facet normal 0.000000 0.000000 -1.000000
    outer loop
      vertex -32.8805 -32.8805 10.0000
      vertex -39.4042 -22.7500 10.0000
      vertex -32.1734 -32.1734 10.0000
    endloop
  endfacet
  facet normal -0.000000 0.000000 1.000000
    outer loop
      vertex -40.2702 -23.2500 10.0000
      vertex -32.1734 -32.1734 10.0000
      vertex -39.4042 -22.7500 10.0000
    endloop
  endfacet
  facet normal 0.000000 0.000000 1.000000
    outer loop
      vertex -40.2702 -23.2500 10.0000
      vertex -32.8805 -32.8805 10.0000
      vertex -32.1734 -32.1734 10.0000
    endloop
  endfacet
  facet normal -0.608761 -0.793353 0.000000
    outer loop
      vertex -32.8805 -32.8805 0.0000
      vertex -23.2500 -40.2702 0.0000
      vertex -23.2500 -40.2702 10.0000
    endloop
  endfacet
  facet normal -0.608761 -0.793353 0.000000
    outer loop
      vertex -32.8805 -32.8805 0.0000
      vertex -23.2500 -40.2702 10.0000
      vertex -32.8805 -32.8805 10.0000
    endloop
  endfacet
  facet normal 0.608761 0.793353 0.000000
    outer loop
      vertex -22.7500 -39.4042 0.0000
      vertex -32.1734 -32.1734 0.0000
      vertex -32.1734 -32.1734 10.0000
    endloop
  endfacet
  facet normal 0.608761 0.793353 -0.000000
    outer loop
      vertex -22.7500 -39.4042 0.0000
      vertex -32.1734 -32.1734 10.0000
      vertex -22.7500 -39.4042 10.0000
    endloop
  endfacet
  facet normal 0.000000 0.000000 1.000000
    outer loop
      vertex -32.8805 -32.8805 0.0000
      vertex -23.2500 -40.2702 0.0000
      vertex -22.7500 -39.4042 0.0000
    endloop
  endfacet
  facet normal -0.000000 0.000000 1.000000
    outer loop
      vertex -32.8805 -32.8805 0.0000
      vertex -22.7500 -39.4042 0.0000
      vertex -32.1734 -32.1734 0.0000
    endloop
  endfacet
  facet normal 0.000000 0.000000 -1.000000
    outer loop
      vertex -32.8805 -32.8805 10.0000
      vertex -32.1734 -32.1734 10.0000
      vertex -23.2500 -40.2702 10.0000
    endloop
  endfacet
  facet normal 0.000000 0.000000 -1.000000
    outer loop
      vertex -23.2500 -40.2702 10.0000
      vertex -32.1734 -32.1734 10.0000
      vertex -22.7500 -39.4042 10.0000
    endloop
  endfacet
  facet normal -0.000000 0.000000 1.000000
    outer loop
      vertex -32.8805 -32.8805 10.0000
      vertex -22.7500 -39.4042 10.0000
      vertex -32.1734 -32.1734 10.0000
    endloop
  endfacet
  facet normal 0.000000 0.000000 1.000000
    outer loop
      vertex -32.8805 -32.8805 10.0000
      vertex -23.2500 -40.2702 10.0000
      vertex -22.7500 -39.4042 10.0000
    endloop
  endfacet
  facet normal -0.382683 -0.923880 0.000000
    outer loop
      vertex -23.2500 -40.2702 0.0000
      vertex -12.0351 -44.9156 0.0000
      vertex -12.0351 -44.9156 10.0000
    endloop
  endfacet
  facet normal -0.382683 -0.923880 0.000000
    outer loop
      vertex -23.2500 -40.2702 0.0000
      vertex -12.0351 -44.9156 10.0000
      vertex -23.2500 -40.2702 10.0000
    endloop
  endfacet
  facet normal 0.382683 0.923880 0.000000
    outer loop
      vertex -11.7763 -43.9496 0.0000
      vertex -22.7500 -39.4042 0.0000
      vertex -22.7500 -39.4042 10.0000
    endloop
  endfacet
  facet normal 0.382683 0.923880 -0.000000
    outer loop
      vertex -11.7763 -43.9496 0.0000
      vertex -22.7500 -39.4042 10.0000
      vertex -11.7763 -43.9496 10.0000
    endloop
  endfacet
  facet normal 0.000000 0.000000 1.000000
    outer loop
      vertex -23.2500 -40.2702 0.0000
      vertex -12.0351 -44.9156 0.0000
      vertex -11.7763 -43.9496 0.0000
    endloop
  endfacet
  facet normal -0.000000 0.000000 1.000000
    outer loop
      vertex -23.2500 -40.2702 0.0000
      vertex -11.7763 -43.9496 0.0000
      vertex -22.7500 -39.4042 0.0000
    endloop
  endfacet
  facet normal 0.000000 0.000000 -1.000000
    outer loop
      vertex -23.2500 -40.2702 10.0000
      vertex -22.7500 -39.4042 10.0000
      vertex -12.0351 -44.9156 10.0000
    endloop
  endfacet
  facet normal 0.000000 0.000000 -1.000000
    outer loop
      vertex -12.0351 -44.9156 10.0000
      vertex -22.7500 -39.4042 10.0000
      vertex -11.7763 -43.9496 10.0000
    endloop
  endfacet
  facet normal -0.000000 0.000000 1.000000
    outer loop
      vertex -23.2500 -40.2702 10.0000
      vertex -11.7763 -43.9496 10.0000
      vertex -22.7500 -39.4042 10.0000
    endloop
  endfacet
  facet normal 0.000000 0.000000 1.000000
    outer loop
      vertex -23.2500 -40.2702 10.0000
      vertex -12.0351 -44.9156 10.0000
      vertex -11.7763 -43.9496 10.0000
    endloop
  endfacet
  facet normal -0.130526 -0.991445 0.000000
    outer loop
      vertex -12.0351 -44.9156 0.0000
      vertex -0.0000 -46.5000 0.0000
      vertex -0.0000 -46.5000 10.0000
    endloop
  endfacet
  facet normal -0.130526 -0.991445 0.000000
    outer loop
      vertex -12.0351 -44.9156 0.0000
      vertex -0.0000 -46.5000 10.0000
      vertex -12.0351 -44.9156 10.0000
    endloop
  endfacet
  facet normal 0.130526 0.991445 0.000000
    outer loop
      vertex -0.0000 -45.5000 0.0000
      vertex -11.7763 -43.9496 0.0000
      vertex -11.7763 -43.9496 10.0000
    endloop
  endfacet
  facet normal 0.130526 0.991445 -0.000000
    outer loop
      vertex -0.0000 -45.5000 0.0000
      vertex -11.7763 -43.9496 10.0000
      vertex -0.0000 -45.5000 10.0000
    endloop
  endfacet
  facet normal 0.000000 0.000000 1.000000
    outer loop
      vertex -12.0351 -44.9156 0.0000
      vertex -0.0000 -46.5000 0.0000
      vertex -0.0000 -45.5000 0.0000
    endloop
  endfacet
  facet normal -0.000000 0.000000 1.000000
    outer loop
      vertex -12.0351 -44.9156 0.0000
      vertex -0.0000 -45.5000 0.0000
      vertex -11.7763 -43.9496 0.0000
    endloop
  endfacet
  facet normal 0.000000 0.000000 -1.000000
    outer loop
      vertex -12.0351 -44.9156 10.0000
      vertex -11.7763 -43.9496 10.0000
      vertex -0.0000 -46.5000 10.0000
    endloop
  endfacet
  facet normal 0.000000 0.000000 -1.000000
    outer loop
      vertex -0.0000 -46.5000 10.0000
      vertex -11.7763 -43.9496 10.0000
      vertex -0.0000 -45.5000 10.0000
    endloop
  endfacet
  facet normal -0.000000 0.000000 1.000000
    outer loop
      vertex -12.0351 -44.9156 10.0000
      vertex -0.0000 -45.5000 10.0000
      vertex -11.7763 -43.9496 10.0000
    endloop
  endfacet
  facet normal 0.000000 0.000000 1.000000
    outer loop
      vertex -12.0351 -44.9156 10.0000
      vertex -0.0000 -46.5000 10.0000
      vertex -0.0000 -45.5000 10.0000
    endloop
  endfacet
  facet normal 0.130526 -0.991445 0.000000
    outer loop
      vertex -0.0000 -46.5000 0.0000
      vertex 12.0351 -44.9156 0.0000
      vertex 12.0351 -44.9156 10.0000
    endloop
  endfacet
  facet normal 0.130526 -0.991445 0.000000
    outer loop
      vertex -0.0000 -46.5000 0.0000
      vertex 12.0351 -44.9156 10.0000
      vertex -0.0000 -46.5000 10.0000
    endloop
  endfacet
  facet normal -0.130526 0.991445 0.000000
    outer loop
      vertex 11.7763 -43.9496 0.0000
      vertex -0.0000 -45.5000 0.0000
      vertex -0.0000 -45.5000 10.0000
    endloop
  endfacet
  facet normal -0.130526 0.991445 0.000000
    outer loop
      vertex 11.7763 -43.9496 0.0000
      vertex -0.0000 -45.5000 10.0000
      vertex 11.7763 -43.9496 10.0000
    endloop
  endfacet
  facet normal 0.000000 0.000000 1.000000
    outer loop
      vertex -0.0000 -46.5000 0.0000
      vertex 12.0351 -44.9156 0.0000
      vertex 11.7763 -43.9496 0.0000
    endloop
  endfacet
  facet normal 0.000000 0.000000 1.000000
    outer loop
      vertex -0.0000 -46.5000 0.0000
      vertex 11.7763 -43.9496 0.0000
      vertex -0.0000 -45.5000 0.0000
    endloop
  endfacet
  facet normal 0.000000 0.000000 -1.000000
    outer loop
      vertex -0.0000 -46.5000 10.0000
      vertex -0.0000 -45.5000 10.0000
      vertex 12.0351 -44.9156 10.0000
    endloop
  endfacet
  facet normal -0.000000 0.000000 -1.000000
    outer loop
      vertex 12.0351 -44.9156 10.0000
      vertex -0.0000 -45.5000 10.0000
      vertex 11.7763 -43.9496 10.0000
    endloop
  endfacet
  facet normal 0.000000 0.000000 1.000000
    outer loop
      vertex -0.0000 -46.5000 10.0000
      vertex 11.7763 -43.9496 10.0000
      vertex -0.0000 -45.5000 10.0000
    endloop
  endfacet
  facet normal 0.000000 0.000000 1.000000
    outer loop
      vertex -0.0000 -46.5000 10.0000
      vertex 12.0351 -44.9156 10.0000
      vertex 11.7763 -43.9496 10.0000
    endloop
  endfacet
  facet normal 0.382683 -0.923880 0.000000
    outer loop
      vertex 12.0351 -44.9156 0.0000
      vertex 23.2500 -40.2702 0.0000
      vertex 23.2500 -40.2702 10.0000
    endloop
  endfacet
  facet normal 0.382683 -0.923880 0.000000
    outer loop
      vertex 12.0351 -44.9156 0.0000
      vertex 23.2500 -40.2702 10.0000
      vertex 12.0351 -44.9156 10.0000
    endloop
  endfacet
  facet normal -0.382683 0.923880 0.000000
    outer loop
      vertex 22.7500 -39.4042 0.0000
      vertex 11.7763 -43.9496 0.0000
      vertex 11.7763 -43.9496 10.0000
    endloop
  endfacet
  facet normal -0.382683 0.923880 0.000000
    outer loop
      vertex 22.7500 -39.4042 0.0000
      vertex 11.7763 -43.9496 10.0000
      vertex 22.7500 -39.4042 10.0000
    endloop
  endfacet
  facet normal 0.000000 0.000000 1.000000
    outer loop
      vertex 12.0351 -44.9156 0.0000
      vertex 23.2500 -40.2702 0.0000
      vertex 22.7500 -39.4042 0.0000
    endloop
  endfacet
  facet normal 0.000000 -0.000000 1.000000
    outer loop
      vertex 12.0351 -44.9156 0.0000
      vertex 22.7500 -39.4042 0.0000
      vertex 11.7763 -43.9496 0.0000
    endloop
  endfacet
  facet normal 0.000000 0.000000 -1.000000
    outer loop
      vertex 12.0351 -44.9156 10.0000
      vertex 11.7763 -43.9496 10.0000
      vertex 23.2500 -40.2702 10.0000
    endloop
  endfacet
  facet normal -0.000000 0.000000 -1.000000
    outer loop
      vertex 23.2500 -40.2702 10.0000
      vertex 11.7763 -43.9496 10.0000
      vertex 22.7500 -39.4042 10.0000
    endloop
  endfacet
  facet normal 0.000000 -0.000000 1.000000
    outer loop
      vertex 12.0351 -44.9156 10.0000
      vertex 22.7500 -39.4042 10.0000
      vertex 11.7763 -43.9496 10.0000
    endloop
  endfacet
  facet normal 0.000000 0.000000 1.000000
    outer loop
      vertex 12.0351 -44.9156 10.0000
      vertex 23.2500 -40.2702 10.0000
      vertex 22.7500 -39.4042 10.0000
    endloop
  endfacet
  facet normal 0.608761 -0.793353 0.000000
    outer loop
      vertex 23.2500 -40.2702 0.0000
      vertex 32.8805 -32.8805 0.0000
      vertex 32.8805 -32.8805 10.0000
    endloop
  endfacet
  facet normal 0.608761 -0.793353 0.000000
    outer loop
      vertex 23.2500 -40.2702 0.0000
      vertex 32.8805 -32.8805 10.0000
      vertex 23.2500 -40.2702 10.0000
    endloop
  endfacet
  facet normal -0.608761 0.793353 0.000000
    outer loop
      vertex 32.1734 -32.1734 0.0000
      vertex 22.7500 -39.4042 0.0000
      vertex 22.7500 -39.4042 10.0000
    endloop
  endfacet
  facet normal -0.608761 0.793353 0.000000
    outer loop
      vertex 32.1734 -32.1734 0.0000
      vertex 22.7500 -39.4042 10.0000
      vertex 32.1734 -32.1734 10.0000
    endloop
  endfacet
  facet normal 0.000000 0.000000 1.000000
    outer loop
      vertex 23.2500 -40.2702 0.0000
      vertex 32.8805 -32.8805 0.0000
      vertex 32.1734 -32.1734 0.0000
    endloop
  endfacet
  facet normal 0.000000 -0.000000 1.000000
    outer loop
      vertex 23.2500 -40.2702 0.0000
      vertex 32.1734 -32.1734 0.0000
      vertex 22.7500 -39.4042 0.0000
    endloop
  endfacet
  facet normal 0.000000 0.000000 -1.000000
    outer loop
      vertex 23.2500 -40.2702 10.0000
      vertex 22.7500 -39.4042 10.0000
      vertex 32.8805 -32.8805 10.0000
    endloop
  endfacet
  facet normal -0.000000 0.000000 -1.000000
    outer loop
      vertex 32.8805 -32.8805 10.0000
      vertex 22.7500 -39.4042 10.0000
      vertex 32.1734 -32.1734 10.0000
    endloop
  endfacet
  facet normal 0.000000 -0.000000 1.000000
    outer loop
      vertex 23.2500 -40.2702 10.0000
      vertex 32.1734 -32.1734 10.0000
      vertex 22.7500 -39.4042 10.0000
    endloop
  endfacet
  facet normal 0.000000 0.000000 1.000000
    outer loop
      vertex 23.2500 -40.2702 10.0000
      vertex 32.8805 -32.8805 10.0000
      vertex 32.1734 -32.1734 10.0000
    endloop
  endfacet
  facet normal 0.793353 -0.608761 0.000000
    outer loop
      vertex 32.8805 -32.8805 0.0000
      vertex 40.2702 -23.2500 0.0000
      vertex 40.2702 -23.2500 10.0000
    endloop
  endfacet
  facet normal 0.793353 -0.608761 0.000000
    outer loop
      vertex 32.8805 -32.8805 0.0000
      vertex 40.2702 -23.2500 10.0000
      vertex 32.8805 -32.8805 10.0000
    endloop
  endfacet
  facet normal -0.793353 0.608761 0.000000
    outer loop
      vertex 39.4042 -22.7500 0.0000
      vertex 32.1734 -32.1734 0.0000
      vertex 32.1734 -32.1734 10.0000
    endloop
  endfacet
  facet normal -0.793353 0.608761 0.000000
    outer loop
      vertex 39.4042 -22.7500 0.0000
      vertex 32.1734 -32.1734 10.0000
      vertex 39.4042 -22.7500 10.0000
    endloop
  endfacet
  facet normal 0.000000 0.000000 1.000000
    outer loop
      vertex 32.8805 -32.8805 0.0000
      vertex 40.2702 -23.2500 0.0000
      vertex 39.4042 -22.7500 0.0000
    endloop
  endfacet
  facet normal 0.000000 -0.000000 1.000000
    outer loop
      vertex 32.8805 -32.8805 0.0000
      vertex 39.4042 -22.7500 0.0000
      vertex 32.1734 -32.1734 0.0000
    endloop
  endfacet
  facet normal 0.000000 0.000000 -1.000000
    outer loop
      vertex 32.8805 -32.8805 10.0000
      vertex 32.1734 -32.1734 10.0000
      vertex 40.2702 -23.2500 10.0000
    endloop
  endfacet
  facet normal -0.000000 0.000000 -1.000000
    outer loop
      vertex 40.2702 -23.2500 10.0000
      vertex 32.1734 -32.1734 10.0000
      vertex 39.4042 -22.7500 10.0000
    endloop
  endfacet
  facet normal 0.000000 -0.000000 1.000000
    outer loop
      vertex 32.8805 -32.8805 10.0000
      vertex 39.4042 -22.7500 10.0000
      vertex 32.1734 -32.1734 10.0000
    endloop
  endfacet
  facet normal 0.000000 0.000000 1.000000
    outer loop
      vertex 32.8805 -32.8805 10.0000
      vertex 40.2702 -23.2500 10.0000
      vertex 39.4042 -22.7500 10.0000
    endloop
  endfacet
  facet normal 0.923880 -0.382683 0.000000
    outer loop
      vertex 40.2702 -23.2500 0.0000
      vertex 44.9156 -12.0351 0.0000
      vertex 44.9156 -12.0351 10.0000
    endloop
  endfacet
  facet normal 0.923880 -0.382683 0.000000
    outer loop
      vertex 40.2702 -23.2500 0.0000
      vertex 44.9156 -12.0351 10.0000
      vertex 40.2702 -23.2500 10.0000
    endloop
  endfacet
  facet normal -0.923880 0.382683 0.000000
    outer loop
      vertex 43.9496 -11.7763 0.0000
      vertex 39.4042 -22.7500 0.0000
      vertex 39.4042 -22.7500 10.0000
    endloop
  endfacet
  facet normal -0.923880 0.382683 0.000000
    outer loop
      vertex 43.9496 -11.7763 0.0000
      vertex 39.4042 -22.7500 10.0000
      vertex 43.9496 -11.7763 10.0000
    endloop
  endfacet
  facet normal 0.000000 0.000000 1.000000
    outer loop
      vertex 40.2702 -23.2500 0.0000
      vertex 44.9156 -12.0351 0.0000
      vertex 43.9496 -11.7763 0.0000
    endloop
  endfacet
  facet normal 0.000000 -0.000000 1.000000
    outer loop
      vertex 40.2702 -23.2500 0.0000
      vertex 43.9496 -11.7763 0.0000
      vertex 39.4042 -22.7500 0.0000
    endloop
  endfacet
  facet normal 0.000000 0.000000 -1.000000
    outer loop
      vertex 40.2702 -23.2500 10.0000
      vertex 39.4042 -22.7500 10.0000
      vertex 44.9156 -12.0351 10.0000
    endloop
  endfacet
  facet normal -0.000000 0.000000 -1.000000
    outer loop
      vertex 44.9156 -12.0351 10.0000
      vertex 39.4042 -22.7500 10.0000
      vertex 43.9496 -11.7763 10.0000
    endloop
  endfacet
  facet normal 0.000000 -0.000000 1.000000
    outer loop
      vertex 40.2702 -23.2500 10.0000
      vertex 43.9496 -11.7763 10.0000
      vertex 39.4042 -22.7500 10.0000
    endloop
  endfacet
  facet normal 0.000000 0.000000 1.000000
    outer loop
      vertex 40.2702 -23.2500 10.0000
      vertex 44.9156 -12.0351 10.0000
      vertex 43.9496 -11.7763 10.0000
    endloop
  endfacet
  facet normal 0.991445 -0.130526 0.000000
    outer loop
      vertex 44.9156 -12.0351 0.0000
      vertex 46.5000 -0.0000 0.0000
      vertex 46.5000 -0.0000 10.0000
    endloop
  endfacet
  facet normal 0.991445 -0.130526 0.000000
    outer loop
      vertex 44.9156 -12.0351 0.0000
      vertex 46.5000 -0.0000 10.0000
      vertex 44.9156 -12.0351 10.0000
    endloop
  endfacet
  facet normal -0.991445 0.130526 0.000000
    outer loop
      vertex 45.5000 -0.0000 0.0000
      vertex 43.9496 -11.7763 0.0000
      vertex 43.9496 -11.7763 10.0000
    endloop
  endfacet
  facet normal -0.991445 0.130526 0.000000
    outer loop
      vertex 45.5000 -0.0000 0.0000
      vertex 43.9496 -11.7763 10.0000
      vertex 45.5000 -0.0000 10.0000
    endloop
  endfacet
  facet normal 0.000000 0.000000 1.000000
    outer loop
      vertex 44.9156 -12.0351 0.0000
      vertex 46.5000 -0.0000 0.0000
      vertex 45.5000 -0.0000 0.0000
    endloop
  endfacet
  facet normal 0.000000 -0.000000 1.000000
    outer loop
      vertex 44.9156 -12.0351 0.0000
      vertex 45.5000 -0.0000 0.0000
      vertex 43.9496 -11.7763 0.0000
    endloop
  endfacet
  facet normal 0.000000 0.000000 -1.000000
    outer loop
      vertex 44.9156 -12.0351 10.0000
      vertex 43.9496 -11.7763 10.0000
      vertex 46.5000 -0.0000 10.0000
    endloop
  endfacet
  facet normal -0.000000 0.000000 -1.000000
    outer loop
      vertex 46.5000 -0.0000 10.0000
      vertex 43.9496 -11.7763 10.0000
      vertex 45.5000 -0.0000 10.0000
    endloop
  endfacet
  facet normal 0.000000 -0.000000 1.000000
    outer loop
      vertex 44.9156 -12.0351 10.0000
      vertex 45.5000 -0.0000 10.0000
      vertex 43.9496 -11.7763 10.0000
    endloop
  endfacet
  facet normal 0.000000 0.000000 1.000000
    outer loop
      vertex 44.9156 -12.0351 10.0000
      vertex 46.5000 -0.0000 10.0000
      vertex 45.5000 -0.0000 10.0000
    endloop
  endfacet
endsolid nacelle_tip_cap_80mm_port
