solid nacelle_pod_80mm
  facet normal 0.995185 0.098017 0.000000
    outer loop
      vertex 46.5000 0.0000 0.0000
      vertex 45.6065 9.0717 0.0000
      vertex 45.6065 9.0717 130.0000
    endloop
  endfacet
  facet normal 0.995185 0.098017 -0.000000
    outer loop
      vertex 46.5000 0.0000 0.0000
      vertex 45.6065 9.0717 130.0000
      vertex 46.5000 0.0000 130.0000
    endloop
  endfacet
  facet normal -0.995185 -0.098017 0.000000
    outer loop
      vertex 40.2122 7.9987 0.0000
      vertex 41.0000 0.0000 0.0000
      vertex 41.0000 0.0000 130.0000
    endloop
  endfacet
  facet normal -0.995185 -0.098017 0.000000
    outer loop
      vertex 40.2122 7.9987 0.0000
      vertex 41.0000 0.0000 130.0000
      vertex 40.2122 7.9987 130.0000
    endloop
  endfacet
  facet normal 0.000000 0.000000 1.000000
    outer loop
      vertex 46.5000 0.0000 0.0000
      vertex 45.6065 9.0717 0.0000
      vertex 40.2122 7.9987 0.0000
    endloop
  endfacet
  facet normal 0.000000 0.000000 1.000000
    outer loop
      vertex 46.5000 0.0000 0.0000
      vertex 40.2122 7.9987 0.0000
      vertex 41.0000 0.0000 0.0000
    endloop
  endfacet
  facet normal 0.000000 0.000000 -1.000000
    outer loop
      vertex 46.5000 0.0000 130.0000
      vertex 41.0000 0.0000 130.0000
      vertex 45.6065 9.0717 130.0000
    endloop
  endfacet
  facet normal 0.000000 0.000000 -1.000000
    outer loop
      vertex 45.6065 9.0717 130.0000
      vertex 41.0000 0.0000 130.0000
      vertex 40.2122 7.9987 130.0000
    endloop
  endfacet
  facet normal 0.000000 0.000000 1.000000
    outer loop
      vertex 46.5000 0.0000 130.0000
      vertex 40.2122 7.9987 130.0000
      vertex 41.0000 0.0000 130.0000
    endloop
  endfacet
  facet normal 0.000000 0.000000 1.000000
    outer loop
      vertex 46.5000 0.0000 130.0000
      vertex 45.6065 9.0717 130.0000
      vertex 40.2122 7.9987 130.0000
    endloop
  endfacet
  facet normal 0.956940 0.290285 0.000000
    outer loop
      vertex 45.6065 9.0717 0.0000
      vertex 42.9604 17.7948 0.0000
      vertex 42.9604 17.7948 130.0000
    endloop
  endfacet
  facet normal 0.956940 0.290285 -0.000000
    outer loop
      vertex 45.6065 9.0717 0.0000
      vertex 42.9604 17.7948 130.0000
      vertex 45.6065 9.0717 130.0000
    endloop
  endfacet
  facet normal -0.956940 -0.290285 0.000000
    outer loop
      vertex 37.8791 15.6900 0.0000
      vertex 40.2122 7.9987 0.0000
      vertex 40.2122 7.9987 130.0000
    endloop
  endfacet
  facet normal -0.956940 -0.290285 0.000000
    outer loop
      vertex 37.8791 15.6900 0.0000
      vertex 40.2122 7.9987 130.0000
      vertex 37.8791 15.6900 130.0000
    endloop
  endfacet
  facet normal 0.000000 0.000000 1.000000
    outer loop
      vertex 45.6065 9.0717 0.0000
      vertex 42.9604 17.7948 0.0000
      vertex 37.8791 15.6900 0.0000
    endloop
  endfacet
  facet normal 0.000000 0.000000 1.000000
    outer loop
      vertex 45.6065 9.0717 0.0000
      vertex 37.8791 15.6900 0.0000
      vertex 40.2122 7.9987 0.0000
    endloop
  endfacet
  facet normal -0.000000 0.000000 -1.000000
    outer loop
      vertex 45.6065 9.0717 130.0000
      vertex 40.2122 7.9987 130.0000
      vertex 42.9604 17.7948 130.0000
    endloop
  endfacet
  facet normal 0.000000 0.000000 -1.000000
    outer loop
      vertex 42.9604 17.7948 130.0000
      vertex 40.2122 7.9987 130.0000
      vertex 37.8791 15.6900 130.0000
    endloop
  endfacet
  facet normal 0.000000 0.000000 1.000000
    outer loop
      vertex 45.6065 9.0717 130.0000
      vertex 37.8791 15.6900 130.0000
      vertex 40.2122 7.9987 130.0000
    endloop
  endfacet
  facet normal 0.000000 0.000000 1.000000
    outer loop
      vertex 45.6065 9.0717 130.0000
      vertex 42.9604 17.7948 130.0000
      vertex 37.8791 15.6900 130.0000
    endloop
  endfacet
  facet normal 0.881921 0.471397 0.000000
    outer loop
      vertex 42.9604 17.7948 0.0000
      vertex 38.6633 25.8340 0.0000
      vertex 38.6633 25.8340 130.0000
    endloop
  endfacet
  facet normal 0.881921 0.471397 -0.000000
    outer loop
      vertex 42.9604 17.7948 0.0000
      vertex 38.6633 25.8340 130.0000
      vertex 42.9604 17.7948 130.0000
    endloop
  endfacet
  facet normal -0.881921 -0.471397 0.000000
    outer loop
      vertex 34.0903 22.7784 0.0000
      vertex 37.8791 15.6900 0.0000
      vertex 37.8791 15.6900 130.0000
    endloop
  endfacet
  facet normal -0.881921 -0.471397 0.000000
    outer loop
      vertex 34.0903 22.7784 0.0000
      vertex 37.8791 15.6900 130.0000
      vertex 34.0903 22.7784 130.0000
    endloop
  endfacet
  facet normal 0.000000 0.000000 1.000000
    outer loop
      vertex 42.9604 17.7948 0.0000
      vertex 38.6633 25.8340 0.0000
      vertex 34.0903 22.7784 0.0000
    endloop
  endfacet
  facet normal 0.000000 0.000000 1.000000
    outer loop
      vertex 42.9604 17.7948 0.0000
      vertex 34.0903 22.7784 0.0000
      vertex 37.8791 15.6900 0.0000
    endloop
  endfacet
  facet normal -0.000000 0.000000 -1.000000
    outer loop
      vertex 42.9604 17.7948 130.0000
      vertex 37.8791 15.6900 130.0000
      vertex 38.6633 25.8340 130.0000
    endloop
  endfacet
  facet normal 0.000000 0.000000 -1.000000
    outer loop
      vertex 38.6633 25.8340 130.0000
      vertex 37.8791 15.6900 130.0000
      vertex 34.0903 22.7784 130.0000
    endloop
  endfacet
  facet normal 0.000000 0.000000 1.000000
    outer loop
      vertex 42.9604 17.7948 130.0000
      vertex 34.0903 22.7784 130.0000
      vertex 37.8791 15.6900 130.0000
    endloop
  endfacet
  facet normal 0.000000 0.000000 1.000000
    outer loop
      vertex 42.9604 17.7948 130.0000
      vertex 38.6633 25.8340 130.0000
      vertex 34.0903 22.7784 130.0000
    endloop
  endfacet
  facet normal 0.773010 0.634393 0.000000
    outer loop
      vertex 38.6633 25.8340 0.0000
      vertex 32.8805 32.8805 0.0000
      vertex 32.8805 32.8805 130.0000
    endloop
  endfacet
  facet normal 0.773010 0.634393 -0.000000
    outer loop
      vertex 38.6633 25.8340 0.0000
      vertex 32.8805 32.8805 130.0000
      vertex 38.6633 25.8340 130.0000
    endloop
  endfacet
  facet normal -0.773010 -0.634393 0.000000
    outer loop
      vertex 28.9914 28.9914 0.0000
      vertex 34.0903 22.7784 0.0000
      vertex 34.0903 22.7784 130.0000
    endloop
  endfacet
  facet normal -0.773010 -0.634393 0.000000
    outer loop
      vertex 28.9914 28.9914 0.0000
      vertex 34.0903 22.7784 130.0000
      vertex 28.9914 28.9914 130.0000
    endloop
  endfacet
  facet normal 0.000000 0.000000 1.000000
    outer loop
      vertex 38.6633 25.8340 0.0000
      vertex 32.8805 32.8805 0.0000
      vertex 28.9914 28.9914 0.0000
    endloop
  endfacet
  facet normal 0.000000 0.000000 1.000000
    outer loop
      vertex 38.6633 25.8340 0.0000
      vertex 28.9914 28.9914 0.0000
      vertex 34.0903 22.7784 0.0000
    endloop
  endfacet
  facet normal -0.000000 0.000000 -1.000000
    outer loop
      vertex 38.6633 25.8340 130.0000
      vertex 34.0903 22.7784 130.0000
      vertex 32.8805 32.8805 130.0000
    endloop
  endfacet
  facet normal 0.000000 -0.000000 -1.000000
    outer loop
      vertex 32.8805 32.8805 130.0000
      vertex 34.0903 22.7784 130.0000
      vertex 28.9914 28.9914 130.0000
    endloop
  endfacet
  facet normal 0.000000 0.000000 1.000000
    outer loop
      vertex 38.6633 25.8340 130.0000
      vertex 28.9914 28.9914 130.0000
      vertex 34.0903 22.7784 130.0000
    endloop
  endfacet
  facet normal 0.000000 0.000000 1.000000
    outer loop
      vertex 38.6633 25.8340 130.0000
      vertex 32.8805 32.8805 130.0000
      vertex 28.9914 28.9914 130.0000
    endloop
  endfacet
  facet normal 0.634393 0.773010 0.000000
    outer loop
      vertex 32.8805 32.8805 0.0000
      vertex 25.8340 38.6633 0.0000
      vertex 25.8340 38.6633 130.0000
    endloop
  endfacet
  facet normal 0.634393 0.773010 -0.000000
    outer loop
      vertex 32.8805 32.8805 0.0000
      vertex 25.8340 38.6633 130.0000
      vertex 32.8805 32.8805 130.0000
    endloop
  endfacet
  facet normal -0.634393 -0.773010 0.000000
    outer loop
      vertex 22.7784 34.0903 0.0000
      vertex 28.9914 28.9914 0.0000
      vertex 28.9914 28.9914 130.0000
    endloop
  endfacet
  facet normal -0.634393 -0.773010 0.000000
    outer loop
      vertex 22.7784 34.0903 0.0000
      vertex 28.9914 28.9914 130.0000
      vertex 22.7784 34.0903 130.0000
    endloop
  endfacet
  facet normal 0.000000 0.000000 1.000000
    outer loop
      vertex 32.8805 32.8805 0.0000
      vertex 25.8340 38.6633 0.0000
      vertex 22.7784 34.0903 0.0000
    endloop
  endfacet
  facet normal 0.000000 0.000000 1.000000
    outer loop
      vertex 32.8805 32.8805 0.0000
      vertex 22.7784 34.0903 0.0000
      vertex 28.9914 28.9914 0.0000
    endloop
  endfacet
  facet normal -0.000000 0.000000 -1.000000
    outer loop
      vertex 32.8805 32.8805 130.0000
      vertex 28.9914 28.9914 130.0000
      vertex 25.8340 38.6633 130.0000
    endloop
  endfacet
  facet normal 0.000000 -0.000000 -1.000000
    outer loop
      vertex 25.8340 38.6633 130.0000
      vertex 28.9914 28.9914 130.0000
      vertex 22.7784 34.0903 130.0000
    endloop
  endfacet
  facet normal 0.000000 0.000000 1.000000
    outer loop
      vertex 32.8805 32.8805 130.0000
      vertex 22.7784 34.0903 130.0000
      vertex 28.9914 28.9914 130.0000
    endloop
  endfacet
  facet normal 0.000000 0.000000 1.000000
    outer loop
      vertex 32.8805 32.8805 130.0000
      vertex 25.8340 38.6633 130.0000
      vertex 22.7784 34.0903 130.0000
    endloop
  endfacet
  facet normal 0.471397 0.881921 0.000000
    outer loop
      vertex 25.8340 38.6633 0.0000
      vertex 17.7948 42.9604 0.0000
      vertex 17.7948 42.9604 130.0000
    endloop
  endfacet
  facet normal 0.471397 0.881921 -0.000000
    outer loop
      vertex 25.8340 38.6633 0.0000
      vertex 17.7948 42.9604 130.0000
      vertex 25.8340 38.6633 130.0000
    endloop
  endfacet
  facet normal -0.471397 -0.881921 0.000000
    outer loop
      vertex 15.6900 37.8791 0.0000
      vertex 22.7784 34.0903 0.0000
      vertex 22.7784 34.0903 130.0000
    endloop
  endfacet
  facet normal -0.471397 -0.881921 0.000000
    outer loop
      vertex 15.6900 37.8791 0.0000
      vertex 22.7784 34.0903 130.0000
      vertex 15.6900 37.8791 130.0000
    endloop
  endfacet
  facet normal 0.000000 0.000000 1.000000
    outer loop
      vertex 25.8340 38.6633 0.0000
      vertex 17.7948 42.9604 0.0000
      vertex 15.6900 37.8791 0.0000
    endloop
  endfacet
  facet normal 0.000000 0.000000 1.000000
    outer loop
      vertex 25.8340 38.6633 0.0000
      vertex 15.6900 37.8791 0.0000
      vertex 22.7784 34.0903 0.0000
    endloop
  endfacet
  facet normal -0.000000 0.000000 -1.000000
    outer loop
      vertex 25.8340 38.6633 130.0000
      vertex 22.7784 34.0903 130.0000
      vertex 17.7948 42.9604 130.0000
    endloop
  endfacet
  facet normal 0.000000 -0.000000 -1.000000
    outer loop
      vertex 17.7948 42.9604 130.0000
      vertex 22.7784 34.0903 130.0000
      vertex 15.6900 37.8791 130.0000
    endloop
  endfacet
  facet normal 0.000000 0.000000 1.000000
    outer loop
      vertex 25.8340 38.6633 130.0000
      vertex 15.6900 37.8791 130.0000
      vertex 22.7784 34.0903 130.0000
    endloop
  endfacet
  facet normal 0.000000 0.000000 1.000000
    outer loop
      vertex 25.8340 38.6633 130.0000
      vertex 17.7948 42.9604 130.0000
      vertex 15.6900 37.8791 130.0000
    endloop
  endfacet
  facet normal 0.290285 0.956940 0.000000
    outer loop
      vertex 17.7948 42.9604 0.0000
      vertex 9.0717 45.6065 0.0000
      vertex 9.0717 45.6065 130.0000
    endloop
  endfacet
  facet normal 0.290285 0.956940 -0.000000
    outer loop
      vertex 17.7948 42.9604 0.0000
      vertex 9.0717 45.6065 130.0000
      vertex 17.7948 42.9604 130.0000
    endloop
  endfacet
  facet normal -0.290285 -0.956940 0.000000
    outer loop
      vertex 7.9987 40.2122 0.0000
      vertex 15.6900 37.8791 0.0000
      vertex 15.6900 37.8791 130.0000
    endloop
  endfacet
  facet normal -0.290285 -0.956940 0.000000
    outer loop
      vertex 7.9987 40.2122 0.0000
      vertex 15.6900 37.8791 130.0000
      vertex 7.9987 40.2122 130.0000
    endloop
  endfacet
  facet normal 0.000000 0.000000 1.000000
    outer loop
      vertex 17.7948 42.9604 0.0000
      vertex 9.0717 45.6065 0.0000
      vertex 7.9987 40.2122 0.0000
    endloop
  endfacet
  facet normal 0.000000 0.000000 1.000000
    outer loop
      vertex 17.7948 42.9604 0.0000
      vertex 7.9987 40.2122 0.0000
      vertex 15.6900 37.8791 0.0000
    endloop
  endfacet
  facet normal -0.000000 0.000000 -1.000000
    outer loop
      vertex 17.7948 42.9604 130.0000
      vertex 15.6900 37.8791 130.0000
      vertex 9.0717 45.6065 130.0000
    endloop
  endfacet
  facet normal 0.000000 -0.000000 -1.000000
    outer loop
      vertex 9.0717 45.6065 130.0000
      vertex 15.6900 37.8791 130.0000
      vertex 7.9987 40.2122 130.0000
    endloop
  endfacet
  facet normal 0.000000 0.000000 1.000000
    outer loop
      vertex 17.7948 42.9604 130.0000
      vertex 7.9987 40.2122 130.0000
      vertex 15.6900 37.8791 130.0000
    endloop
  endfacet
  facet normal 0.000000 0.000000 1.000000
    outer loop
      vertex 17.7948 42.9604 130.0000
      vertex 9.0717 45.6065 130.0000
      vertex 7.9987 40.2122 130.0000
    endloop
  endfacet
  facet normal 0.098017 0.995185 0.000000
    outer loop
      vertex 9.0717 45.6065 0.0000
      vertex 0.0000 46.5000 0.0000
      vertex 0.0000 46.5000 130.0000
    endloop
  endfacet
  facet normal 0.098017 0.995185 -0.000000
    outer loop
      vertex 9.0717 45.6065 0.0000
      vertex 0.0000 46.5000 130.0000
      vertex 9.0717 45.6065 130.0000
    endloop
  endfacet
  facet normal -0.098017 -0.995185 0.000000
    outer loop
      vertex 0.0000 41.0000 0.0000
      vertex 7.9987 40.2122 0.0000
      vertex 7.9987 40.2122 130.0000
    endloop
  endfacet
  facet normal -0.098017 -0.995185 0.000000
    outer loop
      vertex 0.0000 41.0000 0.0000
      vertex 7.9987 40.2122 130.0000
      vertex 0.0000 41.0000 130.0000
    endloop
  endfacet
  facet normal 0.000000 0.000000 1.000000
    outer loop
      vertex 9.0717 45.6065 0.0000
      vertex 0.0000 46.5000 0.0000
      vertex 0.0000 41.0000 0.0000
    endloop
  endfacet
  facet normal 0.000000 0.000000 1.000000
    outer loop
      vertex 9.0717 45.6065 0.0000
      vertex 0.0000 41.0000 0.0000
      vertex 7.9987 40.2122 0.0000
    endloop
  endfacet
  facet normal -0.000000 0.000000 -1.000000
    outer loop
      vertex 9.0717 45.6065 130.0000
      vertex 7.9987 40.2122 130.0000
      vertex 0.0000 46.5000 130.0000
    endloop
  endfacet
  facet normal 0.000000 -0.000000 -1.000000
    outer loop
      vertex 0.0000 46.5000 130.0000
      vertex 7.9987 40.2122 130.0000
      vertex 0.0000 41.0000 130.0000
    endloop
  endfacet
  facet normal 0.000000 0.000000 1.000000
    outer loop
      vertex 9.0717 45.6065 130.0000
      vertex 0.0000 41.0000 130.0000
      vertex 7.9987 40.2122 130.0000
    endloop
  endfacet
  facet normal 0.000000 0.000000 1.000000
    outer loop
      vertex 9.0717 45.6065 130.0000
      vertex 0.0000 46.5000 130.0000
      vertex 0.0000 41.0000 130.0000
    endloop
  endfacet
  facet normal -0.098017 0.995185 0.000000
    outer loop
      vertex 0.0000 46.5000 0.0000
      vertex -9.0717 45.6065 0.0000
      vertex -9.0717 45.6065 130.0000
    endloop
  endfacet
  facet normal -0.098017 0.995185 0.000000
    outer loop
      vertex 0.0000 46.5000 0.0000
      vertex -9.0717 45.6065 130.0000
      vertex 0.0000 46.5000 130.0000
    endloop
  endfacet
  facet normal 0.098017 -0.995185 0.000000
    outer loop
      vertex -7.9987 40.2122 0.0000
      vertex 0.0000 41.0000 0.0000
      vertex 0.0000 41.0000 130.0000
    endloop
  endfacet
  facet normal 0.098017 -0.995185 0.000000
    outer loop
      vertex -7.9987 40.2122 0.0000
      vertex 0.0000 41.0000 130.0000
      vertex -7.9987 40.2122 130.0000
    endloop
  endfacet
  facet normal 0.000000 0.000000 1.000000
    outer loop
      vertex 0.0000 46.5000 0.0000
      vertex -9.0717 45.6065 0.0000
      vertex -7.9987 40.2122 0.0000
    endloop
  endfacet
  facet normal 0.000000 0.000000 1.000000
    outer loop
      vertex 0.0000 46.5000 0.0000
      vertex -7.9987 40.2122 0.0000
      vertex 0.0000 41.0000 0.0000
    endloop
  endfacet
  facet normal 0.000000 0.000000 -1.000000
    outer loop
      vertex 0.0000 46.5000 130.0000
      vertex 0.0000 41.0000 130.0000
      vertex -9.0717 45.6065 130.0000
    endloop
  endfacet
  facet normal 0.000000 0.000000 -1.000000
    outer loop
      vertex -9.0717 45.6065 130.0000
      vertex 0.0000 41.0000 130.0000
      vertex -7.9987 40.2122 130.0000
    endloop
  endfacet
  facet normal 0.000000 0.000000 1.000000
    outer loop
      vertex 0.0000 46.5000 130.0000
      vertex -7.9987 40.2122 130.0000
      vertex 0.0000 41.0000 130.0000
    endloop
  endfacet
  facet normal 0.000000 0.000000 1.000000
    outer loop
      vertex 0.0000 46.5000 130.0000
      vertex -9.0717 45.6065 130.0000
      vertex -7.9987 40.2122 130.0000
    endloop
  endfacet
  facet normal -0.290285 0.956940 0.000000
    outer loop
      vertex -9.0717 45.6065 0.0000
      vertex -17.7948 42.9604 0.0000
      vertex -17.7948 42.9604 130.0000
    endloop
  endfacet
  facet normal -0.290285 0.956940 0.000000
    outer loop
      vertex -9.0717 45.6065 0.0000
      vertex -17.7948 42.9604 130.0000
      vertex -9.0717 45.6065 130.0000
    endloop
  endfacet
  facet normal 0.290285 -0.956940 0.000000
    outer loop
      vertex -15.6900 37.8791 0.0000
      vertex -7.9987 40.2122 0.0000
      vertex -7.9987 40.2122 130.0000
    endloop
  endfacet
  facet normal 0.290285 -0.956940 0.000000
    outer loop
      vertex -15.6900 37.8791 0.0000
      vertex -7.9987 40.2122 130.0000
      vertex -15.6900 37.8791 130.0000
    endloop
  endfacet
  facet normal 0.000000 0.000000 1.000000
    outer loop
      vertex -9.0717 45.6065 0.0000
      vertex -17.7948 42.9604 0.0000
      vertex -15.6900 37.8791 0.0000
    endloop
  endfacet
  facet normal 0.000000 0.000000 1.000000
    outer loop
      vertex -9.0717 45.6065 0.0000
      vertex -15.6900 37.8791 0.0000
      vertex -7.9987 40.2122 0.0000
    endloop
  endfacet
  facet normal 0.000000 -0.000000 -1.000000
    outer loop
      vertex -9.0717 45.6065 130.0000
      vertex -7.9987 40.2122 130.0000
      vertex -17.7948 42.9604 130.0000
    endloop
  endfacet
  facet normal 0.000000 0.000000 -1.000000
    outer loop
      vertex -17.7948 42.9604 130.0000
      vertex -7.9987 40.2122 130.0000
      vertex -15.6900 37.8791 130.0000
    endloop
  endfacet
  facet normal 0.000000 0.000000 1.000000
    outer loop
      vertex -9.0717 45.6065 130.0000
      vertex -15.6900 37.8791 130.0000
      vertex -7.9987 40.2122 130.0000
    endloop
  endfacet
  facet normal 0.000000 0.000000 1.000000
    outer loop
      vertex -9.0717 45.6065 130.0000
      vertex -17.7948 42.9604 130.0000
      vertex -15.6900 37.8791 130.0000
    endloop
  endfacet
  facet normal -0.471397 0.881921 0.000000
    outer loop
      vertex -17.7948 42.9604 0.0000
      vertex -25.8340 38.6633 0.0000
      vertex -25.8340 38.6633 130.0000
    endloop
  endfacet
  facet normal -0.471397 0.881921 0.000000
    outer loop
      vertex -17.7948 42.9604 0.0000
      vertex -25.8340 38.6633 130.0000
      vertex -17.7948 42.9604 130.0000
    endloop
  endfacet
  facet normal 0.471397 -0.881921 0.000000
    outer loop
      vertex -22.7784 34.0903 0.0000
      vertex -15.6900 37.8791 0.0000
      vertex -15.6900 37.8791 130.0000
    endloop
  endfacet
  facet normal 0.471397 -0.881921 0.000000
    outer loop
      vertex -22.7784 34.0903 0.0000
      vertex -15.6900 37.8791 130.0000
      vertex -22.7784 34.0903 130.0000
    endloop
  endfacet
  facet normal 0.000000 0.000000 1.000000
    outer loop
      vertex -17.7948 42.9604 0.0000
      vertex -25.8340 38.6633 0.0000
      vertex -22.7784 34.0903 0.0000
    endloop
  endfacet
  facet normal 0.000000 0.000000 1.000000
    outer loop
      vertex -17.7948 42.9604 0.0000
      vertex -22.7784 34.0903 0.0000
      vertex -15.6900 37.8791 0.0000
    endloop
  endfacet
  facet normal 0.000000 -0.000000 -1.000000
    outer loop
      vertex -17.7948 42.9604 130.0000
      vertex -15.6900 37.8791 130.0000
      vertex -25.8340 38.6633 130.0000
    endloop
  endfacet
  facet normal 0.000000 0.000000 -1.000000
    outer loop
      vertex -25.8340 38.6633 130.0000
      vertex -15.6900 37.8791 130.0000
      vertex -22.7784 34.0903 130.0000
    endloop
  endfacet
  facet normal 0.000000 0.000000 1.000000
    outer loop
      vertex -17.7948 42.9604 130.0000
      vertex -22.7784 34.0903 130.0000
      vertex -15.6900 37.8791 130.0000
    endloop
  endfacet
  facet normal 0.000000 0.000000 1.000000
    outer loop
      vertex -17.7948 42.9604 130.0000
      vertex -25.8340 38.6633 130.0000
      vertex -22.7784 34.0903 130.0000
    endloop
  endfacet
  facet normal -0.634393 0.773010 0.000000
    outer loop
      vertex -25.8340 38.6633 0.0000
      vertex -32.8805 32.8805 0.0000
      vertex -32.8805 32.8805 130.0000
    endloop
  endfacet
  facet normal -0.634393 0.773010 0.000000
    outer loop
      vertex -25.8340 38.6633 0.0000
      vertex -32.8805 32.8805 130.0000
      vertex -25.8340 38.6633 130.0000
    endloop
  endfacet
  facet normal 0.634393 -0.773010 0.000000
    outer loop
      vertex -28.9914 28.9914 0.0000
      vertex -22.7784 34.0903 0.0000
      vertex -22.7784 34.0903 130.0000
    endloop
  endfacet
  facet normal 0.634393 -0.773010 0.000000
    outer loop
      vertex -28.9914 28.9914 0.0000
      vertex -22.7784 34.0903 130.0000
      vertex -28.9914 28.9914 130.0000
    endloop
  endfacet
  facet normal 0.000000 0.000000 1.000000
    outer loop
      vertex -25.8340 38.6633 0.0000
      vertex -32.8805 32.8805 0.0000
      vertex -28.9914 28.9914 0.0000
    endloop
  endfacet
  facet normal 0.000000 0.000000 1.000000
    outer loop
      vertex -25.8340 38.6633 0.0000
      vertex -28.9914 28.9914 0.0000
      vertex -22.7784 34.0903 0.0000
    endloop
  endfacet
  facet normal 0.000000 -0.000000 -1.000000
    outer loop
      vertex -25.8340 38.6633 130.0000
      vertex -22.7784 34.0903 130.0000
      vertex -32.8805 32.8805 130.0000
    endloop
  endfacet
  facet normal 0.000000 0.000000 -1.000000
    outer loop
      vertex -32.8805 32.8805 130.0000
      vertex -22.7784 34.0903 130.0000
      vertex -28.9914 28.9914 130.0000
    endloop
  endfacet
  facet normal 0.000000 0.000000 1.000000
    outer loop
      vertex -25.8340 38.6633 130.0000
      vertex -28.9914 28.9914 130.0000
      vertex -22.7784 34.0903 130.0000
    endloop
  endfacet
  facet normal 0.000000 0.000000 1.000000
    outer loop
      vertex -25.8340 38.6633 130.0000
      vertex -32.8805 32.8805 130.0000
      vertex -28.9914 28.9914 130.0000
    endloop
  endfacet
  facet normal -0.773010 0.634393 0.000000
    outer loop
      vertex -32.8805 32.8805 0.0000
      vertex -38.6633 25.8340 0.0000
      vertex -38.6633 25.8340 130.0000
    endloop
  endfacet
  facet normal -0.773010 0.634393 0.000000
    outer loop
      vertex -32.8805 32.8805 0.0000
      vertex -38.6633 25.8340 130.0000
      vertex -32.8805 32.8805 130.0000
    endloop
  endfacet
  facet normal 0.773010 -0.634393 0.000000
    outer loop
      vertex -34.0903 22.7784 0.0000
      vertex -28.9914 28.9914 0.0000
      vertex -28.9914 28.9914 130.0000
    endloop
  endfacet
  facet normal 0.773010 -0.634393 0.000000
    outer loop
      vertex -34.0903 22.7784 0.0000
      vertex -28.9914 28.9914 130.0000
      vertex -34.0903 22.7784 130.0000
    endloop
  endfacet
  facet normal 0.000000 0.000000 1.000000
    outer loop
      vertex -32.8805 32.8805 0.0000
      vertex -38.6633 25.8340 0.0000
      vertex -34.0903 22.7784 0.0000
    endloop
  endfacet
  facet normal 0.000000 0.000000 1.000000
    outer loop
      vertex -32.8805 32.8805 0.0000
      vertex -34.0903 22.7784 0.0000
      vertex -28.9914 28.9914 0.0000
    endloop
  endfacet
  facet normal 0.000000 -0.000000 -1.000000
    outer loop
      vertex -32.8805 32.8805 130.0000
      vertex -28.9914 28.9914 130.0000
      vertex -38.6633 25.8340 130.0000
    endloop
  endfacet
  facet normal 0.000000 0.000000 -1.000000
    outer loop
      vertex -38.6633 25.8340 130.0000
      vertex -28.9914 28.9914 130.0000
      vertex -34.0903 22.7784 130.0000
    endloop
  endfacet
  facet normal 0.000000 0.000000 1.000000
    outer loop
      vertex -32.8805 32.8805 130.0000
      vertex -34.0903 22.7784 130.0000
      vertex -28.9914 28.9914 130.0000
    endloop
  endfacet
  facet normal 0.000000 0.000000 1.000000
    outer loop
      vertex -32.8805 32.8805 130.0000
      vertex -38.6633 25.8340 130.0000
      vertex -34.0903 22.7784 130.0000
    endloop
  endfacet
  facet normal -0.881921 0.471397 0.000000
    outer loop
      vertex -38.6633 25.8340 0.0000
      vertex -42.9604 17.7948 0.0000
      vertex -42.9604 17.7948 130.0000
    endloop
  endfacet
  facet normal -0.881921 0.471397 0.000000
    outer loop
      vertex -38.6633 25.8340 0.0000
      vertex -42.9604 17.7948 130.0000
      vertex -38.6633 25.8340 130.0000
    endloop
  endfacet
  facet normal 0.881921 -0.471397 0.000000
    outer loop
      vertex -37.8791 15.6900 0.0000
      vertex -34.0903 22.7784 0.0000
      vertex -34.0903 22.7784 130.0000
    endloop
  endfacet
  facet normal 0.881921 -0.471397 0.000000
    outer loop
      vertex -37.8791 15.6900 0.0000
      vertex -34.0903 22.7784 130.0000
      vertex -37.8791 15.6900 130.0000
    endloop
  endfacet
  facet normal 0.000000 0.000000 1.000000
    outer loop
      vertex -38.6633 25.8340 0.0000
      vertex -42.9604 17.7948 0.0000
      vertex -37.8791 15.6900 0.0000
    endloop
  endfacet
  facet normal 0.000000 0.000000 1.000000
    outer loop
      vertex -38.6633 25.8340 0.0000
      vertex -37.8791 15.6900 0.0000
      vertex -34.0903 22.7784 0.0000
    endloop
  endfacet
  facet normal 0.000000 -0.000000 -1.000000
    outer loop
      vertex -38.6633 25.8340 130.0000
      vertex -34.0903 22.7784 130.0000
      vertex -42.9604 17.7948 130.0000
    endloop
  endfacet
  facet normal 0.000000 0.000000 -1.000000
    outer loop
      vertex -42.9604 17.7948 130.0000
      vertex -34.0903 22.7784 130.0000
      vertex -37.8791 15.6900 130.0000
    endloop
  endfacet
  facet normal 0.000000 0.000000 1.000000
    outer loop
      vertex -38.6633 25.8340 130.0000
      vertex -37.8791 15.6900 130.0000
      vertex -34.0903 22.7784 130.0000
    endloop
  endfacet
  facet normal 0.000000 0.000000 1.000000
    outer loop
      vertex -38.6633 25.8340 130.0000
      vertex -42.9604 17.7948 130.0000
      vertex -37.8791 15.6900 130.0000
    endloop
  endfacet
  facet normal -0.956940 0.290285 0.000000
    outer loop
      vertex -42.9604 17.7948 0.0000
      vertex -45.6065 9.0717 0.0000
      vertex -45.6065 9.0717 130.0000
    endloop
  endfacet
  facet normal -0.956940 0.290285 0.000000
    outer loop
      vertex -42.9604 17.7948 0.0000
      vertex -45.6065 9.0717 130.0000
      vertex -42.9604 17.7948 130.0000
    endloop
  endfacet
  facet normal 0.956940 -0.290285 0.000000
    outer loop
      vertex -40.2122 7.9987 0.0000
      vertex -37.8791 15.6900 0.0000
      vertex -37.8791 15.6900 130.0000
    endloop
  endfacet
  facet normal 0.956940 -0.290285 0.000000
    outer loop
      vertex -40.2122 7.9987 0.0000
      vertex -37.8791 15.6900 130.0000
      vertex -40.2122 7.9987 130.0000
    endloop
  endfacet
  facet normal 0.000000 0.000000 1.000000
    outer loop
      vertex -42.9604 17.7948 0.0000
      vertex -45.6065 9.0717 0.0000
      vertex -40.2122 7.9987 0.0000
    endloop
  endfacet
  facet normal 0.000000 0.000000 1.000000
    outer loop
      vertex -42.9604 17.7948 0.0000
      vertex -40.2122 7.9987 0.0000
      vertex -37.8791 15.6900 0.0000
    endloop
  endfacet
  facet normal 0.000000 -0.000000 -1.000000
    outer loop
      vertex -42.9604 17.7948 130.0000
      vertex -37.8791 15.6900 130.0000
      vertex -45.6065 9.0717 130.0000
    endloop
  endfacet
  facet normal 0.000000 0.000000 -1.000000
    outer loop
      vertex -45.6065 9.0717 130.0000
      vertex -37.8791 15.6900 130.0000
      vertex -40.2122 7.9987 130.0000
    endloop
  endfacet
  facet normal 0.000000 0.000000 1.000000
    outer loop
      vertex -42.9604 17.7948 130.0000
      vertex -40.2122 7.9987 130.0000
      vertex -37.8791 15.6900 130.0000
    endloop
  endfacet
  facet normal 0.000000 0.000000 1.000000
    outer loop
      vertex -42.9604 17.7948 130.0000
      vertex -45.6065 9.0717 130.0000
      vertex -40.2122 7.9987 130.0000
    endloop
  endfacet
  facet normal -0.995185 0.098017 0.000000
    outer loop
      vertex -45.6065 9.0717 0.0000
      vertex -46.5000 0.0000 0.0000
      vertex -46.5000 0.0000 130.0000
    endloop
  endfacet
  facet normal -0.995185 0.098017 0.000000
    outer loop
      vertex -45.6065 9.0717 0.0000
      vertex -46.5000 0.0000 130.0000
      vertex -45.6065 9.0717 130.0000
    endloop
  endfacet
  facet normal 0.995185 -0.098017 0.000000
    outer loop
      vertex -41.0000 0.0000 0.0000
      vertex -40.2122 7.9987 0.0000
      vertex -40.2122 7.9987 130.0000
    endloop
  endfacet
  facet normal 0.995185 -0.098017 0.000000
    outer loop
      vertex -41.0000 0.0000 0.0000
      vertex -40.2122 7.9987 130.0000
      vertex -41.0000 0.0000 130.0000
    endloop
  endfacet
  facet normal 0.000000 0.000000 1.000000
    outer loop
      vertex -45.6065 9.0717 0.0000
      vertex -46.5000 0.0000 0.0000
      vertex -41.0000 0.0000 0.0000
    endloop
  endfacet
  facet normal 0.000000 0.000000 1.000000
    outer loop
      vertex -45.6065 9.0717 0.0000
      vertex -41.0000 0.0000 0.0000
      vertex -40.2122 7.9987 0.0000
    endloop
  endfacet
  facet normal 0.000000 -0.000000 -1.000000
    outer loop
      vertex -45.6065 9.0717 130.0000
      vertex -40.2122 7.9987 130.0000
      vertex -46.5000 0.0000 130.0000
    endloop
  endfacet
  facet normal 0.000000 0.000000 -1.000000
    outer loop
      vertex -46.5000 0.0000 130.0000
      vertex -40.2122 7.9987 130.0000
      vertex -41.0000 0.0000 130.0000
    endloop
  endfacet
  facet normal 0.000000 0.000000 1.000000
    outer loop
      vertex -45.6065 9.0717 130.0000
      vertex -41.0000 0.0000 130.0000
      vertex -40.2122 7.9987 130.0000
    endloop
  endfacet
  facet normal 0.000000 0.000000 1.000000
    outer loop
      vertex -45.6065 9.0717 130.0000
      vertex -46.5000 0.0000 130.0000
      vertex -41.0000 0.0000 130.0000
    endloop
  endfacet
  facet normal -0.995185 -0.098017 0.000000
    outer loop
      vertex -46.5000 0.0000 0.0000
      vertex -45.6065 -9.0717 0.0000
      vertex -45.6065 -9.0717 130.0000
    endloop
  endfacet
  facet normal -0.995185 -0.098017 0.000000
    outer loop
      vertex -46.5000 0.0000 0.0000
      vertex -45.6065 -9.0717 130.0000
      vertex -46.5000 0.0000 130.0000
    endloop
  endfacet
  facet normal 0.995185 0.098017 0.000000
    outer loop
      vertex -40.2122 -7.9987 0.0000
      vertex -41.0000 0.0000 0.0000
      vertex -41.0000 0.0000 130.0000
    endloop
  endfacet
  facet normal 0.995185 0.098017 -0.000000
    outer loop
      vertex -40.2122 -7.9987 0.0000
      vertex -41.0000 0.0000 130.0000
      vertex -40.2122 -7.9987 130.0000
    endloop
  endfacet
  facet normal 0.000000 0.000000 1.000000
    outer loop
      vertex -46.5000 0.0000 0.0000
      vertex -45.6065 -9.0717 0.0000
      vertex -40.2122 -7.9987 0.0000
    endloop
  endfacet
  facet normal 0.000000 0.000000 1.000000
    outer loop
      vertex -46.5000 0.0000 0.0000
      vertex -40.2122 -7.9987 0.0000
      vertex -41.0000 0.0000 0.0000
    endloop
  endfacet
  facet normal 0.000000 0.000000 -1.000000
    outer loop
      vertex -46.5000 0.0000 130.0000
      vertex -41.0000 0.0000 130.0000
      vertex -45.6065 -9.0717 130.0000
    endloop
  endfacet
  facet normal 0.000000 0.000000 -1.000000
    outer loop
      vertex -45.6065 -9.0717 130.0000
      vertex -41.0000 0.0000 130.0000
      vertex -40.2122 -7.9987 130.0000
    endloop
  endfacet
  facet normal 0.000000 0.000000 1.000000
    outer loop
      vertex -46.5000 0.0000 130.0000
      vertex -40.2122 -7.9987 130.0000
      vertex -41.0000 0.0000 130.0000
    endloop
  endfacet
  facet normal 0.000000 0.000000 1.000000
    outer loop
      vertex -46.5000 0.0000 130.0000
      vertex -45.6065 -9.0717 130.0000
      vertex -40.2122 -7.9987 130.0000
    endloop
  endfacet
  facet normal -0.956940 -0.290285 0.000000
    outer loop
      vertex -45.6065 -9.0717 0.0000
      vertex -42.9604 -17.7948 0.0000
      vertex -42.9604 -17.7948 130.0000
    endloop
  endfacet
  facet normal -0.956940 -0.290285 0.000000
    outer loop
      vertex -45.6065 -9.0717 0.0000
      vertex -42.9604 -17.7948 130.0000
      vertex -45.6065 -9.0717 130.0000
    endloop
  endfacet
  facet normal 0.956940 0.290285 0.000000
    outer loop
      vertex -37.8791 -15.6900 0.0000
      vertex -40.2122 -7.9987 0.0000
      vertex -40.2122 -7.9987 130.0000
    endloop
  endfacet
  facet normal 0.956940 0.290285 -0.000000
    outer loop
      vertex -37.8791 -15.6900 0.0000
      vertex -40.2122 -7.9987 130.0000
      vertex -37.8791 -15.6900 130.0000
    endloop
  endfacet
  facet normal 0.000000 0.000000 1.000000
    outer loop
      vertex -45.6065 -9.0717 0.0000
      vertex -42.9604 -17.7948 0.0000
      vertex -37.8791 -15.6900 0.0000
    endloop
  endfacet
  facet normal -0.000000 0.000000 1.000000
    outer loop
      vertex -45.6065 -9.0717 0.0000
      vertex -37.8791 -15.6900 0.0000
      vertex -40.2122 -7.9987 0.0000
    endloop
  endfacet
  facet normal 0.000000 0.000000 -1.000000
    outer loop
      vertex -45.6065 -9.0717 130.0000
      vertex -40.2122 -7.9987 130.0000
      vertex -42.9604 -17.7948 130.0000
    endloop
  endfacet
  facet normal 0.000000 0.000000 -1.000000
    outer loop
      vertex -42.9604 -17.7948 130.0000
      vertex -40.2122 -7.9987 130.0000
      vertex -37.8791 -15.6900 130.0000
    endloop
  endfacet
  facet normal -0.000000 0.000000 1.000000
    outer loop
      vertex -45.6065 -9.0717 130.0000
      vertex -37.8791 -15.6900 130.0000
      vertex -40.2122 -7.9987 130.0000
    endloop
  endfacet
  facet normal 0.000000 0.000000 1.000000
    outer loop
      vertex -45.6065 -9.0717 130.0000
      vertex -42.9604 -17.7948 130.0000
      vertex -37.8791 -15.6900 130.0000
    endloop
  endfacet
  facet normal -0.881921 -0.471397 0.000000
    outer loop
      vertex -42.9604 -17.7948 0.0000
      vertex -38.6633 -25.8340 0.0000
      vertex -38.6633 -25.8340 130.0000
    endloop
  endfacet
  facet normal -0.881921 -0.471397 0.000000
    outer loop
      vertex -42.9604 -17.7948 0.0000
      vertex -38.6633 -25.8340 130.0000
      vertex -42.9604 -17.7948 130.0000
    endloop
  endfacet
  facet normal 0.881921 0.471397 0.000000
    outer loop
      vertex -34.0903 -22.7784 0.0000
      vertex -37.8791 -15.6900 0.0000
      vertex -37.8791 -15.6900 130.0000
    endloop
  endfacet
  facet normal 0.881921 0.471397 -0.000000
    outer loop
      vertex -34.0903 -22.7784 0.0000
      vertex -37.8791 -15.6900 130.0000
      vertex -34.0903 -22.7784 130.0000
    endloop
  endfacet
  facet normal 0.000000 0.000000 1.000000
    outer loop
      vertex -42.9604 -17.7948 0.0000
      vertex -38.6633 -25.8340 0.0000
      vertex -34.0903 -22.7784 0.0000
    endloop
  endfacet
  facet normal -0.000000 0.000000 1.000000
    outer loop
      vertex -42.9604 -17.7948 0.0000
      vertex -34.0903 -22.7784 0.0000
      vertex -37.8791 -15.6900 0.0000
    endloop
  endfacet
  facet normal 0.000000 0.000000 -1.000000
    outer loop
      vertex -42.9604 -17.7948 130.0000
      vertex -37.8791 -15.6900 130.0000
      vertex -38.6633 -25.8340 130.0000
    endloop
  endfacet
  facet normal 0.000000 0.000000 -1.000000
    outer loop
      vertex -38.6633 -25.8340 130.0000
      vertex -37.8791 -15.6900 130.0000
      vertex -34.0903 -22.7784 130.0000
    endloop
  endfacet
  facet normal -0.000000 0.000000 1.000000
    outer loop
      vertex -42.9604 -17.7948 130.0000
      vertex -34.0903 -22.7784 130.0000
      vertex -37.8791 -15.6900 130.0000
    endloop
  endfacet
  facet normal 0.000000 0.000000 1.000000
    outer loop
      vertex -42.9604 -17.7948 130.0000
      vertex -38.6633 -25.8340 130.0000
      vertex -34.0903 -22.7784 130.0000
    endloop
  endfacet
  facet normal -0.773010 -0.634393 0.000000
    outer loop
      vertex -38.6633 -25.8340 0.0000
      vertex -32.8805 -32.8805 0.0000
      vertex -32.8805 -32.8805 130.0000
    endloop
  endfacet
  facet normal -0.773010 -0.634393 0.000000
    outer loop
      vertex -38.6633 -25.8340 0.0000
      vertex -32.8805 -32.8805 130.0000
      vertex -38.6633 -25.8340 130.0000
    endloop
  endfacet
  facet normal 0.773010 0.634393 0.000000
    outer loop
      vertex -28.9914 -28.9914 0.0000
      vertex -34.0903 -22.7784 0.0000
      vertex -34.0903 -22.7784 130.0000
    endloop
  endfacet
  facet normal 0.773010 0.634393 -0.000000
    outer loop
      vertex -28.9914 -28.9914 0.0000
      vertex -34.0903 -22.7784 130.0000
      vertex -28.9914 -28.9914 130.0000
    endloop
  endfacet
  facet normal 0.000000 0.000000 1.000000
    outer loop
      vertex -38.6633 -25.8340 0.0000
      vertex -32.8805 -32.8805 0.0000
      vertex -28.9914 -28.9914 0.0000
    endloop
  endfacet
  facet normal -0.000000 0.000000 1.000000
    outer loop
      vertex -38.6633 -25.8340 0.0000
      vertex -28.9914 -28.9914 0.0000
      vertex -34.0903 -22.7784 0.0000
    endloop
  endfacet
  facet normal 0.000000 0.000000 -1.000000
    outer loop
      vertex -38.6633 -25.8340 130.0000
      vertex -34.0903 -22.7784 130.0000
      vertex -32.8805 -32.8805 130.0000
    endloop
  endfacet
  facet normal 0.000000 0.000000 -1.000000
    outer loop
      vertex -32.8805 -32.8805 130.0000
      vertex -34.0903 -22.7784 130.0000
      vertex -28.9914 -28.9914 130.0000
    endloop
  endfacet
  facet normal -0.000000 0.000000 1.000000
    outer loop
      vertex -38.6633 -25.8340 130.0000
      vertex -28.9914 -28.9914 130.0000
      vertex -34.0903 -22.7784 130.0000
    endloop
  endfacet
  facet normal 0.000000 0.000000 1.000000
    outer loop
      vertex -38.6633 -25.8340 130.0000
      vertex -32.8805 -32.8805 130.0000
      vertex -28.9914 -28.9914 130.0000
    endloop
  endfacet
  facet normal -0.634393 -0.773010 0.000000
    outer loop
      vertex -32.8805 -32.8805 0.0000
      vertex -25.8340 -38.6633 0.0000
      vertex -25.8340 -38.6633 130.0000
    endloop
  endfacet
  facet normal -0.634393 -0.773010 0.000000
    outer loop
      vertex -32.8805 -32.8805 0.0000
      vertex -25.8340 -38.6633 130.0000
      vertex -32.8805 -32.8805 130.0000
    endloop
  endfacet
  facet normal 0.634393 0.773010 0.000000
    outer loop
      vertex -22.7784 -34.0903 0.0000
      vertex -28.9914 -28.9914 0.0000
      vertex -28.9914 -28.9914 130.0000
    endloop
  endfacet
  facet normal 0.634393 0.773010 -0.000000
    outer loop
      vertex -22.7784 -34.0903 0.0000
      vertex -28.9914 -28.9914 130.0000
      vertex -22.7784 -34.0903 130.0000
    endloop
  endfacet
  facet normal 0.000000 0.000000 1.000000
    outer loop
      vertex -32.8805 -32.8805 0.0000
      vertex -25.8340 -38.6633 0.0000
      vertex -22.7784 -34.0903 0.0000
    endloop
  endfacet
  facet normal -0.000000 0.000000 1.000000
    outer loop
      vertex -32.8805 -32.8805 0.0000
      vertex -22.7784 -34.0903 0.0000
      vertex -28.9914 -28.9914 0.0000
    endloop
  endfacet
  facet normal 0.000000 0.000000 -1.000000
    outer loop
      vertex -32.8805 -32.8805 130.0000
      vertex -28.9914 -28.9914 130.0000
      vertex -25.8340 -38.6633 130.0000
    endloop
  endfacet
  facet normal 0.000000 0.000000 -1.000000
    outer loop
      vertex -25.8340 -38.6633 130.0000
      vertex -28.9914 -28.9914 130.0000
      vertex -22.7784 -34.0903 130.0000
    endloop
  endfacet
  facet normal -0.000000 0.000000 1.000000
    outer loop
      vertex -32.8805 -32.8805 130.0000
      vertex -22.7784 -34.0903 130.0000
      vertex -28.9914 -28.9914 130.0000
    endloop
  endfacet
  facet normal 0.000000 0.000000 1.000000
    outer loop
      vertex -32.8805 -32.8805 130.0000
      vertex -25.8340 -38.6633 130.0000
      vertex -22.7784 -34.0903 130.0000
    endloop
  endfacet
  facet normal -0.471397 -0.881921 0.000000
    outer loop
      vertex -25.8340 -38.6633 0.0000
      vertex -17.7948 -42.9604 0.0000
      vertex -17.7948 -42.9604 130.0000
    endloop
  endfacet
  facet normal -0.471397 -0.881921 0.000000
    outer loop
      vertex -25.8340 -38.6633 0.0000
      vertex -17.7948 -42.9604 130.0000
      vertex -25.8340 -38.6633 130.0000
    endloop
  endfacet
  facet normal 0.471397 0.881921 0.000000
    outer loop
      vertex -15.6900 -37.8791 0.0000
      vertex -22.7784 -34.0903 0.0000
      vertex -22.7784 -34.0903 130.0000
    endloop
  endfacet
  facet normal 0.471397 0.881921 -0.000000
    outer loop
      vertex -15.6900 -37.8791 0.0000
      vertex -22.7784 -34.0903 130.0000
      vertex -15.6900 -37.8791 130.0000
    endloop
  endfacet
  facet normal -0.000000 0.000000 1.000000
    outer loop
      vertex -25.8340 -38.6633 0.0000
      vertex -17.7948 -42.9604 0.0000
      vertex -15.6900 -37.8791 0.0000
    endloop
  endfacet
  facet normal 0.000000 0.000000 1.000000
    outer loop
      vertex -25.8340 -38.6633 0.0000
      vertex -15.6900 -37.8791 0.0000
      vertex -22.7784 -34.0903 0.0000
    endloop
  endfacet
  facet normal 0.000000 0.000000 -1.000000
    outer loop
      vertex -25.8340 -38.6633 130.0000
      vertex -22.7784 -34.0903 130.0000
      vertex -17.7948 -42.9604 130.0000
    endloop
  endfacet
  facet normal 0.000000 0.000000 -1.000000
    outer loop
      vertex -17.7948 -42.9604 130.0000
      vertex -22.7784 -34.0903 130.0000
      vertex -15.6900 -37.8791 130.0000
    endloop
  endfacet
  facet normal 0.000000 0.000000 1.000000
    outer loop
      vertex -25.8340 -38.6633 130.0000
      vertex -15.6900 -37.8791 130.0000
      vertex -22.7784 -34.0903 130.0000
    endloop
  endfacet
  facet normal -0.000000 0.000000 1.000000
    outer loop
      vertex -25.8340 -38.6633 130.0000
      vertex -17.7948 -42.9604 130.0000
      vertex -15.6900 -37.8791 130.0000
    endloop
  endfacet
  facet normal -0.290285 -0.956940 0.000000
    outer loop
      vertex -17.7948 -42.9604 0.0000
      vertex -9.0717 -45.6065 0.0000
      vertex -9.0717 -45.6065 130.0000
    endloop
  endfacet
  facet normal -0.290285 -0.956940 0.000000
    outer loop
      vertex -17.7948 -42.9604 0.0000
      vertex -9.0717 -45.6065 130.0000
      vertex -17.7948 -42.9604 130.0000
    endloop
  endfacet
  facet normal 0.290285 0.956940 0.000000
    outer loop
      vertex -7.9987 -40.2122 0.0000
      vertex -15.6900 -37.8791 0.0000
      vertex -15.6900 -37.8791 130.0000
    endloop
  endfacet
  facet normal 0.290285 0.956940 -0.000000
    outer loop
      vertex -7.9987 -40.2122 0.0000
      vertex -15.6900 -37.8791 130.0000
      vertex -7.9987 -40.2122 130.0000
    endloop
  endfacet
  facet normal -0.000000 0.000000 1.000000
    outer loop
      vertex -17.7948 -42.9604 0.0000
      vertex -9.0717 -45.6065 0.0000
      vertex -7.9987 -40.2122 0.0000
    endloop
  endfacet
  facet normal 0.000000 0.000000 1.000000
    outer loop
      vertex -17.7948 -42.9604 0.0000
      vertex -7.9987 -40.2122 0.0000
      vertex -15.6900 -37.8791 0.0000
    endloop
  endfacet
  facet normal 0.000000 0.000000 -1.000000
    outer loop
      vertex -17.7948 -42.9604 130.0000
      vertex -15.6900 -37.8791 130.0000
      vertex -9.0717 -45.6065 130.0000
    endloop
  endfacet
  facet normal 0.000000 0.000000 -1.000000
    outer loop
      vertex -9.0717 -45.6065 130.0000
      vertex -15.6900 -37.8791 130.0000
      vertex -7.9987 -40.2122 130.0000
    endloop
  endfacet
  facet normal 0.000000 0.000000 1.000000
    outer loop
      vertex -17.7948 -42.9604 130.0000
      vertex -7.9987 -40.2122 130.0000
      vertex -15.6900 -37.8791 130.0000
    endloop
  endfacet
  facet normal -0.000000 0.000000 1.000000
    outer loop
      vertex -17.7948 -42.9604 130.0000
      vertex -9.0717 -45.6065 130.0000
      vertex -7.9987 -40.2122 130.0000
    endloop
  endfacet
  facet normal -0.098017 -0.995185 0.000000
    outer loop
      vertex -9.0717 -45.6065 0.0000
      vertex -0.0000 -46.5000 0.0000
      vertex -0.0000 -46.5000 130.0000
    endloop
  endfacet
  facet normal -0.098017 -0.995185 0.000000
    outer loop
      vertex -9.0717 -45.6065 0.0000
      vertex -0.0000 -46.5000 130.0000
      vertex -9.0717 -45.6065 130.0000
    endloop
  endfacet
  facet normal 0.098017 0.995185 0.000000
    outer loop
      vertex -0.0000 -41.0000 0.0000
      vertex -7.9987 -40.2122 0.0000
      vertex -7.9987 -40.2122 130.0000
    endloop
  endfacet
  facet normal 0.098017 0.995185 -0.000000
    outer loop
      vertex -0.0000 -41.0000 0.0000
      vertex -7.9987 -40.2122 130.0000
      vertex -0.0000 -41.0000 130.0000
    endloop
  endfacet
  facet normal -0.000000 0.000000 1.000000
    outer loop
      vertex -9.0717 -45.6065 0.0000
      vertex -0.0000 -46.5000 0.0000
      vertex -0.0000 -41.0000 0.0000
    endloop
  endfacet
  facet normal 0.000000 0.000000 1.000000
    outer loop
      vertex -9.0717 -45.6065 0.0000
      vertex -0.0000 -41.0000 0.0000
      vertex -7.9987 -40.2122 0.0000
    endloop
  endfacet
  facet normal 0.000000 0.000000 -1.000000
    outer loop
      vertex -9.0717 -45.6065 130.0000
      vertex -7.9987 -40.2122 130.0000
      vertex -0.0000 -46.5000 130.0000
    endloop
  endfacet
  facet normal 0.000000 0.000000 -1.000000
    outer loop
      vertex -0.0000 -46.5000 130.0000
      vertex -7.9987 -40.2122 130.0000
      vertex -0.0000 -41.0000 130.0000
    endloop
  endfacet
  facet normal 0.000000 0.000000 1.000000
    outer loop
      vertex -9.0717 -45.6065 130.0000
      vertex -0.0000 -41.0000 130.0000
      vertex -7.9987 -40.2122 130.0000
    endloop
  endfacet
  facet normal -0.000000 0.000000 1.000000
    outer loop
      vertex -9.0717 -45.6065 130.0000
      vertex -0.0000 -46.5000 130.0000
      vertex -0.0000 -41.0000 130.0000
    endloop
  endfacet
  facet normal 0.098017 -0.995185 0.000000
    outer loop
      vertex -0.0000 -46.5000 0.0000
      vertex 9.0717 -45.6065 0.0000
      vertex 9.0717 -45.6065 130.0000
    endloop
  endfacet
  facet normal 0.098017 -0.995185 0.000000
    outer loop
      vertex -0.0000 -46.5000 0.0000
      vertex 9.0717 -45.6065 130.0000
      vertex -0.0000 -46.5000 130.0000
    endloop
  endfacet
  facet normal -0.098017 0.995185 0.000000
    outer loop
      vertex 7.9987 -40.2122 0.0000
      vertex -0.0000 -41.0000 0.0000
      vertex -0.0000 -41.0000 130.0000
    endloop
  endfacet
  facet normal -0.098017 0.995185 0.000000
    outer loop
      vertex 7.9987 -40.2122 0.0000
      vertex -0.0000 -41.0000 130.0000
      vertex 7.9987 -40.2122 130.0000
    endloop
  endfacet
  facet normal 0.000000 0.000000 1.000000
    outer loop
      vertex -0.0000 -46.5000 0.0000
      vertex 9.0717 -45.6065 0.0000
      vertex 7.9987 -40.2122 0.0000
    endloop
  endfacet
  facet normal 0.000000 0.000000 1.000000
    outer loop
      vertex -0.0000 -46.5000 0.0000
      vertex 7.9987 -40.2122 0.0000
      vertex -0.0000 -41.0000 0.0000
    endloop
  endfacet
  facet normal 0.000000 0.000000 -1.000000
    outer loop
      vertex -0.0000 -46.5000 130.0000
      vertex -0.0000 -41.0000 130.0000
      vertex 9.0717 -45.6065 130.0000
    endloop
  endfacet
  facet normal 0.000000 0.000000 -1.000000
    outer loop
      vertex 9.0717 -45.6065 130.0000
      vertex -0.0000 -41.0000 130.0000
      vertex 7.9987 -40.2122 130.0000
    endloop
  endfacet
  facet normal 0.000000 0.000000 1.000000
    outer loop
      vertex -0.0000 -46.5000 130.0000
      vertex 7.9987 -40.2122 130.0000
      vertex -0.0000 -41.0000 130.0000
    endloop
  endfacet
  facet normal 0.000000 0.000000 1.000000
    outer loop
      vertex -0.0000 -46.5000 130.0000
      vertex 9.0717 -45.6065 130.0000
      vertex 7.9987 -40.2122 130.0000
    endloop
  endfacet
  facet normal 0.290285 -0.956940 0.000000
    outer loop
      vertex 9.0717 -45.6065 0.0000
      vertex 17.7948 -42.9604 0.0000
      vertex 17.7948 -42.9604 130.0000
    endloop
  endfacet
  facet normal 0.290285 -0.956940 0.000000
    outer loop
      vertex 9.0717 -45.6065 0.0000
      vertex 17.7948 -42.9604 130.0000
      vertex 9.0717 -45.6065 130.0000
    endloop
  endfacet
  facet normal -0.290285 0.956940 0.000000
    outer loop
      vertex 15.6900 -37.8791 0.0000
      vertex 7.9987 -40.2122 0.0000
      vertex 7.9987 -40.2122 130.0000
    endloop
  endfacet
  facet normal -0.290285 0.956940 0.000000
    outer loop
      vertex 15.6900 -37.8791 0.0000
      vertex 7.9987 -40.2122 130.0000
      vertex 15.6900 -37.8791 130.0000
    endloop
  endfacet
  facet normal 0.000000 0.000000 1.000000
    outer loop
      vertex 9.0717 -45.6065 0.0000
      vertex 17.7948 -42.9604 0.0000
      vertex 15.6900 -37.8791 0.0000
    endloop
  endfacet
  facet normal 0.000000 -0.000000 1.000000
    outer loop
      vertex 9.0717 -45.6065 0.0000
      vertex 15.6900 -37.8791 0.0000
      vertex 7.9987 -40.2122 0.0000
    endloop
  endfacet
  facet normal 0.000000 0.000000 -1.000000
    outer loop
      vertex 9.0717 -45.6065 130.0000
      vertex 7.9987 -40.2122 130.0000
      vertex 17.7948 -42.9604 130.0000
    endloop
  endfacet
  facet normal 0.000000 0.000000 -1.000000
    outer loop
      vertex 17.7948 -42.9604 130.0000
      vertex 7.9987 -40.2122 130.0000
      vertex 15.6900 -37.8791 130.0000
    endloop
  endfacet
  facet normal 0.000000 -0.000000 1.000000
    outer loop
      vertex 9.0717 -45.6065 130.0000
      vertex 15.6900 -37.8791 130.0000
      vertex 7.9987 -40.2122 130.0000
    endloop
  endfacet
  facet normal 0.000000 0.000000 1.000000
    outer loop
      vertex 9.0717 -45.6065 130.0000
      vertex 17.7948 -42.9604 130.0000
      vertex 15.6900 -37.8791 130.0000
    endloop
  endfacet
  facet normal 0.471397 -0.881921 0.000000
    outer loop
      vertex 17.7948 -42.9604 0.0000
      vertex 25.8340 -38.6633 0.0000
      vertex 25.8340 -38.6633 130.0000
    endloop
  endfacet
  facet normal 0.471397 -0.881921 0.000000
    outer loop
      vertex 17.7948 -42.9604 0.0000
      vertex 25.8340 -38.6633 130.0000
      vertex 17.7948 -42.9604 130.0000
    endloop
  endfacet
  facet normal -0.471397 0.881921 0.000000
    outer loop
      vertex 22.7784 -34.0903 0.0000
      vertex 15.6900 -37.8791 0.0000
      vertex 15.6900 -37.8791 130.0000
    endloop
  endfacet
  facet normal -0.471397 0.881921 0.000000
    outer loop
      vertex 22.7784 -34.0903 0.0000
      vertex 15.6900 -37.8791 130.0000
      vertex 22.7784 -34.0903 130.0000
    endloop
  endfacet
  facet normal 0.000000 0.000000 1.000000
    outer loop
      vertex 17.7948 -42.9604 0.0000
      vertex 25.8340 -38.6633 0.0000
      vertex 22.7784 -34.0903 0.0000
    endloop
  endfacet
  facet normal 0.000000 -0.000000 1.000000
    outer loop
      vertex 17.7948 -42.9604 0.0000
      vertex 22.7784 -34.0903 0.0000
      vertex 15.6900 -37.8791 0.0000
    endloop
  endfacet
  facet normal 0.000000 0.000000 -1.000000
    outer loop
      vertex 17.7948 -42.9604 130.0000
      vertex 15.6900 -37.8791 130.0000
      vertex 25.8340 -38.6633 130.0000
    endloop
  endfacet
  facet normal 0.000000 0.000000 -1.000000
    outer loop
      vertex 25.8340 -38.6633 130.0000
      vertex 15.6900 -37.8791 130.0000
      vertex 22.7784 -34.0903 130.0000
    endloop
  endfacet
  facet normal 0.000000 -0.000000 1.000000
    outer loop
      vertex 17.7948 -42.9604 130.0000
      vertex 22.7784 -34.0903 130.0000
      vertex 15.6900 -37.8791 130.0000
    endloop
  endfacet
  facet normal 0.000000 0.000000 1.000000
    outer loop
      vertex 17.7948 -42.9604 130.0000
      vertex 25.8340 -38.6633 130.0000
      vertex 22.7784 -34.0903 130.0000
    endloop
  endfacet
  facet normal 0.634393 -0.773010 0.000000
    outer loop
      vertex 25.8340 -38.6633 0.0000
      vertex 32.8805 -32.8805 0.0000
      vertex 32.8805 -32.8805 130.0000
    endloop
  endfacet
  facet normal 0.634393 -0.773010 0.000000
    outer loop
      vertex 25.8340 -38.6633 0.0000
      vertex 32.8805 -32.8805 130.0000
      vertex 25.8340 -38.6633 130.0000
    endloop
  endfacet
  facet normal -0.634393 0.773010 0.000000
    outer loop
      vertex 28.9914 -28.9914 0.0000
      vertex 22.7784 -34.0903 0.0000
      vertex 22.7784 -34.0903 130.0000
    endloop
  endfacet
  facet normal -0.634393 0.773010 0.000000
    outer loop
      vertex 28.9914 -28.9914 0.0000
      vertex 22.7784 -34.0903 130.0000
      vertex 28.9914 -28.9914 130.0000
    endloop
  endfacet
  facet normal 0.000000 0.000000 1.000000
    outer loop
      vertex 25.8340 -38.6633 0.0000
      vertex 32.8805 -32.8805 0.0000
      vertex 28.9914 -28.9914 0.0000
    endloop
  endfacet
  facet normal 0.000000 -0.000000 1.000000
    outer loop
      vertex 25.8340 -38.6633 0.0000
      vertex 28.9914 -28.9914 0.0000
      vertex 22.7784 -34.0903 0.0000
    endloop
  endfacet
  facet normal 0.000000 0.000000 -1.000000
    outer loop
      vertex 25.8340 -38.6633 130.0000
      vertex 22.7784 -34.0903 130.0000
      vertex 32.8805 -32.8805 130.0000
    endloop
  endfacet
  facet normal -0.000000 0.000000 -1.000000
    outer loop
      vertex 32.8805 -32.8805 130.0000
      vertex 22.7784 -34.0903 130.0000
      vertex 28.9914 -28.9914 130.0000
    endloop
  endfacet
  facet normal 0.000000 -0.000000 1.000000
    outer loop
      vertex 25.8340 -38.6633 130.0000
      vertex 28.9914 -28.9914 130.0000
      vertex 22.7784 -34.0903 130.0000
    endloop
  endfacet
  facet normal 0.000000 0.000000 1.000000
    outer loop
      vertex 25.8340 -38.6633 130.0000
      vertex 32.8805 -32.8805 130.0000
      vertex 28.9914 -28.9914 130.0000
    endloop
  endfacet
  facet normal 0.773010 -0.634393 0.000000
    outer loop
      vertex 32.8805 -32.8805 0.0000
      vertex 38.6633 -25.8340 0.0000
      vertex 38.6633 -25.8340 130.0000
    endloop
  endfacet
  facet normal 0.773010 -0.634393 0.000000
    outer loop
      vertex 32.8805 -32.8805 0.0000
      vertex 38.6633 -25.8340 130.0000
      vertex 32.8805 -32.8805 130.0000
    endloop
  endfacet
  facet normal -0.773010 0.634393 0.000000
    outer loop
      vertex 34.0903 -22.7784 0.0000
      vertex 28.9914 -28.9914 0.0000
      vertex 28.9914 -28.9914 130.0000
    endloop
  endfacet
  facet normal -0.773010 0.634393 0.000000
    outer loop
      vertex 34.0903 -22.7784 0.0000
      vertex 28.9914 -28.9914 130.0000
      vertex 34.0903 -22.7784 130.0000
    endloop
  endfacet
  facet normal 0.000000 0.000000 1.000000
    outer loop
      vertex 32.8805 -32.8805 0.0000
      vertex 38.6633 -25.8340 0.0000
      vertex 34.0903 -22.7784 0.0000
    endloop
  endfacet
  facet normal 0.000000 -0.000000 1.000000
    outer loop
      vertex 32.8805 -32.8805 0.0000
      vertex 34.0903 -22.7784 0.0000
      vertex 28.9914 -28.9914 0.0000
    endloop
  endfacet
  facet normal 0.000000 0.000000 -1.000000
    outer loop
      vertex 32.8805 -32.8805 130.0000
      vertex 28.9914 -28.9914 130.0000
      vertex 38.6633 -25.8340 130.0000
    endloop
  endfacet
  facet normal -0.000000 0.000000 -1.000000
    outer loop
      vertex 38.6633 -25.8340 130.0000
      vertex 28.9914 -28.9914 130.0000
      vertex 34.0903 -22.7784 130.0000
    endloop
  endfacet
  facet normal 0.000000 -0.000000 1.000000
    outer loop
      vertex 32.8805 -32.8805 130.0000
      vertex 34.0903 -22.7784 130.0000
      vertex 28.9914 -28.9914 130.0000
    endloop
  endfacet
  facet normal 0.000000 0.000000 1.000000
    outer loop
      vertex 32.8805 -32.8805 130.0000
      vertex 38.6633 -25.8340 130.0000
      vertex 34.0903 -22.7784 130.0000
    endloop
  endfacet
  facet normal 0.881921 -0.471397 0.000000
    outer loop
      vertex 38.6633 -25.8340 0.0000
      vertex 42.9604 -17.7948 0.0000
      vertex 42.9604 -17.7948 130.0000
    endloop
  endfacet
  facet normal 0.881921 -0.471397 0.000000
    outer loop
      vertex 38.6633 -25.8340 0.0000
      vertex 42.9604 -17.7948 130.0000
      vertex 38.6633 -25.8340 130.0000
    endloop
  endfacet
  facet normal -0.881921 0.471397 0.000000
    outer loop
      vertex 37.8791 -15.6900 0.0000
      vertex 34.0903 -22.7784 0.0000
      vertex 34.0903 -22.7784 130.0000
    endloop
  endfacet
  facet normal -0.881921 0.471397 0.000000
    outer loop
      vertex 37.8791 -15.6900 0.0000
      vertex 34.0903 -22.7784 130.0000
      vertex 37.8791 -15.6900 130.0000
    endloop
  endfacet
  facet normal 0.000000 -0.000000 1.000000
    outer loop
      vertex 38.6633 -25.8340 0.0000
      vertex 42.9604 -17.7948 0.0000
      vertex 37.8791 -15.6900 0.0000
    endloop
  endfacet
  facet normal 0.000000 0.000000 1.000000
    outer loop
      vertex 38.6633 -25.8340 0.0000
      vertex 37.8791 -15.6900 0.0000
      vertex 34.0903 -22.7784 0.0000
    endloop
  endfacet
  facet normal 0.000000 0.000000 -1.000000
    outer loop
      vertex 38.6633 -25.8340 130.0000
      vertex 34.0903 -22.7784 130.0000
      vertex 42.9604 -17.7948 130.0000
    endloop
  endfacet
  facet normal -0.000000 0.000000 -1.000000
    outer loop
      vertex 42.9604 -17.7948 130.0000
      vertex 34.0903 -22.7784 130.0000
      vertex 37.8791 -15.6900 130.0000
    endloop
  endfacet
  facet normal 0.000000 0.000000 1.000000
    outer loop
      vertex 38.6633 -25.8340 130.0000
      vertex 37.8791 -15.6900 130.0000
      vertex 34.0903 -22.7784 130.0000
    endloop
  endfacet
  facet normal 0.000000 -0.000000 1.000000
    outer loop
      vertex 38.6633 -25.8340 130.0000
      vertex 42.9604 -17.7948 130.0000
      vertex 37.8791 -15.6900 130.0000
    endloop
  endfacet
  facet normal 0.956940 -0.290285 0.000000
    outer loop
      vertex 42.9604 -17.7948 0.0000
      vertex 45.6065 -9.0717 0.0000
      vertex 45.6065 -9.0717 130.0000
    endloop
  endfacet
  facet normal 0.956940 -0.290285 0.000000
    outer loop
      vertex 42.9604 -17.7948 0.0000
      vertex 45.6065 -9.0717 130.0000
      vertex 42.9604 -17.7948 130.0000
    endloop
  endfacet
  facet normal -0.956940 0.290285 0.000000
    outer loop
      vertex 40.2122 -7.9987 0.0000
      vertex 37.8791 -15.6900 0.0000
      vertex 37.8791 -15.6900 130.0000
    endloop
  endfacet
  facet normal -0.956940 0.290285 0.000000
    outer loop
      vertex 40.2122 -7.9987 0.0000
      vertex 37.8791 -15.6900 130.0000
      vertex 40.2122 -7.9987 130.0000
    endloop
  endfacet
  facet normal 0.000000 -0.000000 1.000000
    outer loop
      vertex 42.9604 -17.7948 0.0000
      vertex 45.6065 -9.0717 0.0000
      vertex 40.2122 -7.9987 0.0000
    endloop
  endfacet
  facet normal 0.000000 0.000000 1.000000
    outer loop
      vertex 42.9604 -17.7948 0.0000
      vertex 40.2122 -7.9987 0.0000
      vertex 37.8791 -15.6900 0.0000
    endloop
  endfacet
  facet normal 0.000000 0.000000 -1.000000
    outer loop
      vertex 42.9604 -17.7948 130.0000
      vertex 37.8791 -15.6900 130.0000
      vertex 45.6065 -9.0717 130.0000
    endloop
  endfacet
  facet normal -0.000000 0.000000 -1.000000
    outer loop
      vertex 45.6065 -9.0717 130.0000
      vertex 37.8791 -15.6900 130.0000
      vertex 40.2122 -7.9987 130.0000
    endloop
  endfacet
  facet normal 0.000000 0.000000 1.000000
    outer loop
      vertex 42.9604 -17.7948 130.0000
      vertex 40.2122 -7.9987 130.0000
      vertex 37.8791 -15.6900 130.0000
    endloop
  endfacet
  facet normal 0.000000 -0.000000 1.000000
    outer loop
      vertex 42.9604 -17.7948 130.0000
      vertex 45.6065 -9.0717 130.0000
      vertex 40.2122 -7.9987 130.0000
    endloop
  endfacet
  facet normal 0.995185 -0.098017 0.000000
    outer loop
      vertex 45.6065 -9.0717 0.0000
      vertex 46.5000 -0.0000 0.0000
      vertex 46.5000 -0.0000 130.0000
    endloop
  endfacet
  facet normal 0.995185 -0.098017 0.000000
    outer loop
      vertex 45.6065 -9.0717 0.0000
      vertex 46.5000 -0.0000 130.0000
      vertex 45.6065 -9.0717 130.0000
    endloop
  endfacet
  facet normal -0.995185 0.098017 0.000000
    outer loop
      vertex 41.0000 -0.0000 0.0000
      vertex 40.2122 -7.9987 0.0000
      vertex 40.2122 -7.9987 130.0000
    endloop
  endfacet
  facet normal -0.995185 0.098017 0.000000
    outer loop
      vertex 41.0000 -0.0000 0.0000
      vertex 40.2122 -7.9987 130.0000
      vertex 41.0000 -0.0000 130.0000
    endloop
  endfacet
  facet normal 0.000000 -0.000000 1.000000
    outer loop
      vertex 45.6065 -9.0717 0.0000
      vertex 46.5000 -0.0000 0.0000
      vertex 41.0000 -0.0000 0.0000
    endloop
  endfacet
  facet normal 0.000000 0.000000 1.000000
    outer loop
      vertex 45.6065 -9.0717 0.0000
      vertex 41.0000 -0.0000 0.0000
      vertex 40.2122 -7.9987 0.0000
    endloop
  endfacet
  facet normal 0.000000 0.000000 -1.000000
    outer loop
      vertex 45.6065 -9.0717 130.0000
      vertex 40.2122 -7.9987 130.0000
      vertex 46.5000 -0.0000 130.0000
    endloop
  endfacet
  facet normal -0.000000 0.000000 -1.000000
    outer loop
      vertex 46.5000 -0.0000 130.0000
      vertex 40.2122 -7.9987 130.0000
      vertex 41.0000 -0.0000 130.0000
    endloop
  endfacet
  facet normal 0.000000 0.000000 1.000000
    outer loop
      vertex 45.6065 -9.0717 130.0000
      vertex 41.0000 -0.0000 130.0000
      vertex 40.2122 -7.9987 130.0000
    endloop
  endfacet
  facet normal 0.000000 -0.000000 1.000000
    outer loop
      vertex 45.6065 -9.0717 130.0000
      vertex 46.5000 -0.0000 130.0000
      vertex 41.0000 -0.0000 130.0000
    endloop
  endfacet
endsolid nacelle_pod_80mm
