solid nozzle_flap_x8
  facet normal 0.000000 0.000000 1.000000
    outer loop
      vertex 0.0000 0.0000 0.0000
      vertex 10.0000 0.0000 0.0000
      vertex 10.0000 2.0000 0.0000
    endloop
  endfacet
  facet normal 0.000000 0.000000 1.000000
    outer loop
      vertex 0.0000 0.0000 0.0000
      vertex 10.0000 2.0000 0.0000
      vertex 0.0000 2.0000 0.0000
    endloop
  endfacet
  facet normal 0.000000 0.000000 -1.000000
    outer loop
      vertex 0.0000 0.0000 5.0000
      vertex 10.0000 2.0000 5.0000
      vertex 10.0000 0.0000 5.0000
    endloop
  endfacet
  facet normal 0.000000 0.000000 -1.000000
    outer loop
      vertex 0.0000 0.0000 5.0000
      vertex 0.0000 2.0000 5.0000
      vertex 10.0000 2.0000 5.0000
    endloop
  endfacet
  facet normal 0.000000 1.000000 0.000000
    outer loop
      vertex 0.0000 0.0000 0.0000
      vertex 0.0000 0.0000 5.0000
      vertex 10.0000 0.0000 5.0000
    endloop
  endfacet
  facet normal 0.000000 1.000000 0.000000
    outer loop
      vertex 0.0000 0.0000 0.0000
      vertex 10.0000 0.0000 5.0000
      vertex 10.0000 0.0000 0.0000
    endloop
  endfacet
  facet normal 0.000000 -1.000000 0.000000
    outer loop
      vertex 0.0000 2.0000 0.0000
      vertex 10.0000 2.0000 5.0000
      vertex 0.0000 2.0000 5.0000
    endloop
  endfacet
  facet normal 0.000000 -1.000000 0.000000
    outer loop
      vertex 0.0000 2.0000 0.0000
      vertex 10.0000 2.0000 0.0000
      vertex 10.0000 2.0000 5.0000
    endloop
  endfacet
  facet normal 1.000000 0.000000 0.000000
    outer loop
      vertex 0.0000 0.0000 0.0000
      vertex 0.0000 2.0000 0.0000
      vertex 0.0000 2.0000 5.0000
    endloop
  endfacet
  facet normal 1.000000 0.000000 0.000000
    outer loop
      vertex 0.0000 0.0000 0.0000
      vertex 0.0000 2.0000 5.0000
      vertex 0.0000 0.0000 5.0000
    endloop
  endfacet
  facet normal -1.000000 0.000000 0.000000
    outer loop
      vertex 10.0000 0.0000 0.0000
      vertex 10.0000 2.0000 5.0000
      vertex 10.0000 2.0000 0.0000
    endloop
  endfacet
  facet normal -1.000000 0.000000 0.000000
    outer loop
      vertex 10.0000 0.0000 0.0000
      vertex 10.0000 0.0000 5.0000
      vertex 10.0000 2.0000 5.0000
    endloop
  endfacet
endsolid nozzle_flap_x8
