solid dorsal_antenna_fin
  facet normal 0.000000 0.000000 1.000000
    outer loop
      vertex -10.0000 -2.0000 0.0000
      vertex 10.0000 -2.0000 0.0000
      vertex 10.0000 2.0000 0.0000
    endloop
  endfacet
  facet normal 0.000000 0.000000 1.000000
    outer loop
      vertex -10.0000 -2.0000 0.0000
      vertex 10.0000 2.0000 0.0000
      vertex -10.0000 2.0000 0.0000
    endloop
  endfacet
  facet normal 0.000000 0.000000 -1.000000
    outer loop
      vertex -10.0000 -2.0000 35.0000
      vertex 10.0000 2.0000 35.0000
      vertex 10.0000 -2.0000 35.0000
    endloop
  endfacet
  facet normal 0.000000 0.000000 -1.000000
    outer loop
      vertex -10.0000 -2.0000 35.0000
      vertex -10.0000 2.0000 35.0000
      vertex 10.0000 2.0000 35.0000
    endloop
  endfacet
  facet normal 0.000000 1.000000 0.000000
    outer loop
      vertex -10.0000 -2.0000 0.0000
      vertex -10.0000 -2.0000 35.0000
      vertex 10.0000 -2.0000 35.0000
    endloop
  endfacet
  facet normal 0.000000 1.000000 0.000000
    outer loop
      vertex -10.0000 -2.0000 0.0000
      vertex 10.0000 -2.0000 35.0000
      vertex 10.0000 -2.0000 0.0000
    endloop
  endfacet
  facet normal 0.000000 -1.000000 0.000000
    outer loop
      vertex -10.0000 2.0000 0.0000
      vertex 10.0000 2.0000 35.0000
      vertex -10.0000 2.0000 35.0000
    endloop
  endfacet
  facet normal 0.000000 -1.000000 0.000000
    outer loop
      vertex -10.0000 2.0000 0.0000
      vertex 10.0000 2.0000 0.0000
      vertex 10.0000 2.0000 35.0000
    endloop
  endfacet
  facet normal 1.000000 0.000000 0.000000
    outer loop
      vertex -10.0000 -2.0000 0.0000
      vertex -10.0000 2.0000 0.0000
      vertex -10.0000 2.0000 35.0000
    endloop
  endfacet
  facet normal 1.000000 0.000000 0.000000
    outer loop
      vertex -10.0000 -2.0000 0.0000
      vertex -10.0000 2.0000 35.0000
      vertex -10.0000 -2.0000 35.0000
    endloop
  endfacet
  facet normal -1.000000 0.000000 0.000000
    outer loop
      vertex 10.0000 -2.0000 0.0000
      vertex 10.0000 2.0000 35.0000
      vertex 10.0000 2.0000 0.0000
    endloop
  endfacet
  facet normal -1.000000 0.000000 0.000000
    outer loop
      vertex 10.0000 -2.0000 0.0000
      vertex 10.0000 -2.0000 35.0000
      vertex 10.0000 2.0000 35.0000
    endloop
  endfacet
  facet normal 0.000000 0.000000 1.000000
    outer loop
      vertex -10.0000 -2.0000 0.0000
      vertex 10.0000 -2.0000 0.0000
      vertex 10.0000 2.0000 0.0000
    endloop
  endfacet
  facet normal 0.000000 0.000000 1.000000
    outer loop
      vertex -10.0000 -2.0000 0.0000
      vertex 10.0000 2.0000 0.0000
      vertex -10.0000 2.0000 0.0000
    endloop
  endfacet
  facet normal 0.000000 0.000000 -1.000000
    outer loop
      vertex -10.0000 -2.0000 12.0000
      vertex 10.0000 2.0000 12.0000
      vertex 10.0000 -2.0000 12.0000
    endloop
  endfacet
  facet normal 0.000000 0.000000 -1.000000
    outer loop
      vertex -10.0000 -2.0000 12.0000
      vertex -10.0000 2.0000 12.0000
      vertex 10.0000 2.0000 12.0000
    endloop
  endfacet
  facet normal 0.000000 1.000000 0.000000
    outer loop
      vertex -10.0000 -2.0000 0.0000
      vertex -10.0000 -2.0000 12.0000
      vertex 10.0000 -2.0000 12.0000
    endloop
  endfacet
  facet normal 0.000000 1.000000 0.000000
    outer loop
      vertex -10.0000 -2.0000 0.0000
      vertex 10.0000 -2.0000 12.0000
      vertex 10.0000 -2.0000 0.0000
    endloop
  endfacet
  facet normal 0.000000 -1.000000 0.000000
    outer loop
      vertex -10.0000 2.0000 0.0000
      vertex 10.0000 2.0000 12.0000
      vertex -10.0000 2.0000 12.0000
    endloop
  endfacet
  facet normal 0.000000 -1.000000 0.000000
    outer loop
      vertex -10.0000 2.0000 0.0000
      vertex 10.0000 2.0000 0.0000
      vertex 10.0000 2.0000 12.0000
    endloop
  endfacet
  facet normal 1.000000 0.000000 0.000000
    outer loop
      vertex -10.0000 -2.0000 0.0000
      vertex -10.0000 2.0000 0.0000
      vertex -10.0000 2.0000 12.0000
    endloop
  endfacet
  facet normal 1.000000 0.000000 0.000000
    outer loop
      vertex -10.0000 -2.0000 0.0000
      vertex -10.0000 2.0000 12.0000
      vertex -10.0000 -2.0000 12.0000
    endloop
  endfacet
  facet normal -1.000000 0.000000 0.000000
    outer loop
      vertex 10.0000 -2.0000 0.0000
      vertex 10.0000 2.0000 12.0000
      vertex 10.0000 2.0000 0.0000
    endloop
  endfacet
  facet normal -1.000000 0.000000 0.000000
    outer loop
      vertex 10.0000 -2.0000 0.0000
      vertex 10.0000 -2.0000 12.0000
      vertex 10.0000 2.0000 12.0000
    endloop
  endfacet
  facet normal 0.923880 0.382683 0.000000
    outer loop
      vertex 1.5000 0.0000 8.0000
      vertex 1.0607 1.0607 8.0000
      vertex 1.0607 1.0607 35.0000
    endloop
  endfacet
  facet normal 0.923880 0.382683 -0.000000
    outer loop
      vertex 1.5000 0.0000 8.0000
      vertex 1.0607 1.0607 35.0000
      vertex 1.5000 0.0000 35.0000
    endloop
  endfacet
  facet normal 0.000000 0.000000 1.000000
    outer loop
      vertex 0.0000 0.0000 35.0000
      vertex 1.5000 0.0000 35.0000
      vertex 1.0607 1.0607 35.0000
    endloop
  endfacet
  facet normal 0.000000 0.000000 -1.000000
    outer loop
      vertex 0.0000 0.0000 8.0000
      vertex 1.0607 1.0607 8.0000
      vertex 1.5000 0.0000 8.0000
    endloop
  endfacet
  facet normal 0.382683 0.923880 0.000000
    outer loop
      vertex 1.0607 1.0607 8.0000
      vertex 0.0000 1.5000 8.0000
      vertex 0.0000 1.5000 35.0000
    endloop
  endfacet
  facet normal 0.382683 0.923880 -0.000000
    outer loop
      vertex 1.0607 1.0607 8.0000
      vertex 0.0000 1.5000 35.0000
      vertex 1.0607 1.0607 35.0000
    endloop
  endfacet
  facet normal 0.000000 0.000000 1.000000
    outer loop
      vertex 0.0000 0.0000 35.0000
      vertex 1.0607 1.0607 35.0000
      vertex 0.0000 1.5000 35.0000
    endloop
  endfacet
  facet normal 0.000000 0.000000 -1.000000
    outer loop
      vertex 0.0000 0.0000 8.0000
      vertex 0.0000 1.5000 8.0000
      vertex 1.0607 1.0607 8.0000
    endloop
  endfacet
  facet normal -0.382683 0.923880 0.000000
    outer loop
      vertex 0.0000 1.5000 8.0000
      vertex -1.0607 1.0607 8.0000
      vertex -1.0607 1.0607 35.0000
    endloop
  endfacet
  facet normal -0.382683 0.923880 0.000000
    outer loop
      vertex 0.0000 1.5000 8.0000
      vertex -1.0607 1.0607 35.0000
      vertex 0.0000 1.5000 35.0000
    endloop
  endfacet
  facet normal 0.000000 -0.000000 1.000000
    outer loop
      vertex 0.0000 0.0000 35.0000
      vertex 0.0000 1.5000 35.0000
      vertex -1.0607 1.0607 35.0000
    endloop
  endfacet
  facet normal 0.000000 0.000000 -1.000000
    outer loop
      vertex 0.0000 0.0000 8.0000
      vertex -1.0607 1.0607 8.0000
      vertex 0.0000 1.5000 8.0000
    endloop
  endfacet
  facet normal -0.923880 0.382683 0.000000
    outer loop
      vertex -1.0607 1.0607 8.0000
      vertex -1.5000 0.0000 8.0000
      vertex -1.5000 0.0000 35.0000
    endloop
  endfacet
  facet normal -0.923880 0.382683 0.000000
    outer loop
      vertex -1.0607 1.0607 8.0000
      vertex -1.5000 0.0000 35.0000
      vertex -1.0607 1.0607 35.0000
    endloop
  endfacet
  facet normal 0.000000 0.000000 1.000000
    outer loop
      vertex 0.0000 0.0000 35.0000
      vertex -1.0607 1.0607 35.0000
      vertex -1.5000 0.0000 35.0000
    endloop
  endfacet
  facet normal 0.000000 0.000000 -1.000000
    outer loop
      vertex 0.0000 0.0000 8.0000
      vertex -1.5000 0.0000 8.0000
      vertex -1.0607 1.0607 8.0000
    endloop
  endfacet
  facet normal -0.923880 -0.382683 0.000000
    outer loop
      vertex -1.5000 0.0000 8.0000
      vertex -1.0607 -1.0607 8.0000
      vertex -1.0607 -1.0607 35.0000
    endloop
  endfacet
  facet normal -0.923880 -0.382683 0.000000
    outer loop
      vertex -1.5000 0.0000 8.0000
      vertex -1.0607 -1.0607 35.0000
      vertex -1.5000 0.0000 35.0000
    endloop
  endfacet
  facet normal 0.000000 0.000000 1.000000
    outer loop
      vertex 0.0000 0.0000 35.0000
      vertex -1.5000 0.0000 35.0000
      vertex -1.0607 -1.0607 35.0000
    endloop
  endfacet
  facet normal -0.000000 0.000000 -1.000000
    outer loop
      vertex 0.0000 0.0000 8.0000
      vertex -1.0607 -1.0607 8.0000
      vertex -1.5000 0.0000 8.0000
    endloop
  endfacet
  facet normal -0.382683 -0.923880 0.000000
    outer loop
      vertex -1.0607 -1.0607 8.0000
      vertex -0.0000 -1.5000 8.0000
      vertex -0.0000 -1.5000 35.0000
    endloop
  endfacet
  facet normal -0.382683 -0.923880 0.000000
    outer loop
      vertex -1.0607 -1.0607 8.0000
      vertex -0.0000 -1.5000 35.0000
      vertex -1.0607 -1.0607 35.0000
    endloop
  endfacet
  facet normal 0.000000 0.000000 1.000000
    outer loop
      vertex 0.0000 0.0000 35.0000
      vertex -1.0607 -1.0607 35.0000
      vertex -0.0000 -1.5000 35.0000
    endloop
  endfacet
  facet normal 0.000000 0.000000 -1.000000
    outer loop
      vertex 0.0000 0.0000 8.0000
      vertex -0.0000 -1.5000 8.0000
      vertex -1.0607 -1.0607 8.0000
    endloop
  endfacet
  facet normal 0.382683 -0.923880 0.000000
    outer loop
      vertex -0.0000 -1.5000 8.0000
      vertex 1.0607 -1.0607 8.0000
      vertex 1.0607 -1.0607 35.0000
    endloop
  endfacet
  facet normal 0.382683 -0.923880 0.000000
    outer loop
      vertex -0.0000 -1.5000 8.0000
      vertex 1.0607 -1.0607 35.0000
      vertex -0.0000 -1.5000 35.0000
    endloop
  endfacet
  facet normal 0.000000 0.000000 1.000000
    outer loop
      vertex 0.0000 0.0000 35.0000
      vertex -0.0000 -1.5000 35.0000
      vertex 1.0607 -1.0607 35.0000
    endloop
  endfacet
  facet normal 0.000000 -0.000000 -1.000000
    outer loop
      vertex 0.0000 0.0000 8.0000
      vertex 1.0607 -1.0607 8.0000
      vertex -0.0000 -1.5000 8.0000
    endloop
  endfacet
  facet normal 0.923880 -0.382683 0.000000
    outer loop
      vertex 1.0607 -1.0607 8.0000
      vertex 1.5000 -0.0000 8.0000
      vertex 1.5000 -0.0000 35.0000
    endloop
  endfacet
  facet normal 0.923880 -0.382683 0.000000
    outer loop
      vertex 1.0607 -1.0607 8.0000
      vertex 1.5000 -0.0000 35.0000
      vertex 1.0607 -1.0607 35.0000
    endloop
  endfacet
  facet normal 0.000000 0.000000 1.000000
    outer loop
      vertex 0.0000 0.0000 35.0000
      vertex 1.0607 -1.0607 35.0000
      vertex 1.5000 -0.0000 35.0000
    endloop
  endfacet
  facet normal 0.000000 0.000000 -1.000000
    outer loop
      vertex 0.0000 0.0000 8.0000
      vertex 1.5000 -0.0000 8.0000
      vertex 1.0607 -1.0607 8.0000
    endloop
  endfacet
endsolid dorsal_antenna_fin
