%TF.GenerationSoftware,KiCad,Pcbnew,9.0.2+dfsg-1*%
%TF.CreationDate,2026-07-26T23:39:36-04:00*%
%TF.ProjectId,Commo,456d6d61-2e6b-4696-9361-645f70636258,2*%
%TF.SameCoordinates,Original*%
%TF.FileFunction,Copper,L3,Inr*%
%TF.FilePolarity,Positive*%
%FSLAX46Y46*%
G04 Gerber Fmt 4.6, Leading zero omitted, Abs format (unit mm)*
G04 Created by KiCad (PCBNEW 9.0.2+dfsg-1) date 2026-07-26 23:39:36*
%MOMM*%
%LPD*%
G01*
G04 APERTURE LIST*
%TA.AperFunction,ComponentPad*%
%ADD10C,1.600000*%
%TD*%
%TA.AperFunction,ComponentPad*%
%ADD11C,2.000000*%
%TD*%
%TA.AperFunction,ComponentPad*%
%ADD12C,1.700000*%
%TD*%
%TA.AperFunction,ComponentPad*%
%ADD13R,5.650000X5.650000*%
%TD*%
%TA.AperFunction,ViaPad*%
%ADD14C,0.600000*%
%TD*%
%TA.AperFunction,ViaPad*%
%ADD15C,0.800000*%
%TD*%
%TA.AperFunction,ViaPad*%
%ADD16C,0.550000*%
%TD*%
%TA.AperFunction,ViaPad*%
%ADD17C,0.500000*%
%TD*%
G04 APERTURE END LIST*
D10*
%TO.N,ANT*%
%TO.C,ANT RPSMA*%
X152500000Y-112460000D03*
D11*
%TO.N,GND*%
X152500000Y-109920000D03*
X152500000Y-115000000D03*
%TD*%
D12*
%TO.N,PTT_N*%
%TO.C,PB2-P2*%
X105385000Y-132745000D03*
%TO.N,RSSI_DCD*%
X105385000Y-130205000D03*
%TO.N,PWM_CH3*%
X107925000Y-132745000D03*
%TO.N,PWM_CH2*%
X107925000Y-130205000D03*
%TO.N,PWM_CH1*%
X110465000Y-132745000D03*
%TO.N,PWM_CH0*%
X110465000Y-130205000D03*
%TO.N,LOAD_CELL_DOUT*%
X113005000Y-132745000D03*
%TO.N,LOAD_CELL_SCK*%
X113005000Y-130205000D03*
%TO.N,WINCH_IN2*%
X115545000Y-132745000D03*
%TO.N,WINCH_IN1*%
X115545000Y-130205000D03*
%TO.N,TPM_RSTN*%
X118085000Y-132745000D03*
%TO.N,TPM_IRQN*%
X118085000Y-130205000D03*
%TO.N,PHY2_RSTN*%
X120625000Y-132745000D03*
%TO.N,PHY2_INTRN*%
X120625000Y-130205000D03*
%TO.N,PHY1_RSTN*%
X123165000Y-132745000D03*
%TO.N,PHY1_INTRN*%
X123165000Y-130205000D03*
%TO.N,MDIO*%
X125705000Y-132745000D03*
%TO.N,MDC*%
X125705000Y-130205000D03*
%TO.N,RMII1_REF_CLK*%
X128245000Y-132745000D03*
%TO.N,RMII1_RX_ER*%
X128245000Y-130205000D03*
%TO.N,RMII1_CRS_DV*%
X130785000Y-132745000D03*
%TO.N,RMII1_RXD1*%
X130785000Y-130205000D03*
%TO.N,RMII1_RXD0*%
X133325000Y-132745000D03*
%TO.N,RMII1_TX_EN*%
X133325000Y-130205000D03*
%TO.N,RMII1_TXD1*%
X135865000Y-132745000D03*
%TO.N,RMII1_TXD0*%
X135865000Y-130205000D03*
%TO.N,RMII0_REF_CLK*%
X138405000Y-132745000D03*
%TO.N,RMII0_RX_ER*%
X138405000Y-130205000D03*
%TO.N,RMII0_CRS_DV*%
X140945000Y-132745000D03*
%TO.N,RMII0_RXD1*%
X140945000Y-130205000D03*
%TO.N,RMII0_RXD0*%
X143485000Y-132745000D03*
%TO.N,RMII0_TX_EN*%
X143485000Y-130205000D03*
%TO.N,RMII0_TXD1*%
X146025000Y-132745000D03*
%TO.N,RMII0_TXD0*%
X146025000Y-130205000D03*
%TO.N,+5V*%
X148565000Y-132745000D03*
%TO.N,GND*%
X148565000Y-130205000D03*
%TD*%
%TO.N,GND*%
%TO.C,PB2-P1*%
X105385000Y-104745000D03*
X105385000Y-102205000D03*
%TO.N,I2C0_SDA*%
X107925000Y-104745000D03*
%TO.N,I2C0_SCL*%
X107925000Y-102205000D03*
%TO.N,PRU_1553_RX_N*%
X110465000Y-104745000D03*
%TO.N,PRU_1553_RX_P*%
X110465000Y-102205000D03*
%TO.N,PRU_1553_TX_N*%
X113005000Y-104745000D03*
%TO.N,PRU_1553_TX_P*%
X113005000Y-102205000D03*
%TO.N,RS485_DE*%
X115545000Y-104745000D03*
%TO.N,RS485_RX*%
X115545000Y-102205000D03*
%TO.N,RS485_TX*%
X118085000Y-104745000D03*
%TO.N,CAN_STB*%
X118085000Y-102205000D03*
%TO.N,MCAN1_RX*%
X120625000Y-104745000D03*
%TO.N,MCAN1_TX*%
X120625000Y-102205000D03*
%TO.N,UART_49MHZ_XCVR_RX*%
X123165000Y-104745000D03*
%TO.N,UART_49MHZ_XCVR_TX*%
X123165000Y-102205000D03*
%TO.N,UART_SIK_RX*%
X125705000Y-104745000D03*
%TO.N,UART_SIK_TX*%
X125705000Y-102205000D03*
%TO.N,LORA_RESETN*%
X128245000Y-104745000D03*
%TO.N,LORA_DIO0*%
X128245000Y-102205000D03*
%TO.N,SPI1_CS_TPM*%
X130785000Y-104745000D03*
%TO.N,SPI1_CS_NOR*%
X130785000Y-102205000D03*
%TO.N,SPI1_MISO*%
X133325000Y-104745000D03*
%TO.N,SPI1_MOSI*%
X133325000Y-102205000D03*
%TO.N,SPI1_CLK*%
X135865000Y-104745000D03*
%TO.N,SPI1_CS_LORA*%
X135865000Y-102205000D03*
%TO.N,SDIO_D3*%
X138405000Y-104745000D03*
%TO.N,SDIO_D2*%
X138405000Y-102205000D03*
%TO.N,SDIO_D1*%
X140945000Y-104745000D03*
%TO.N,SDIO_D0*%
X140945000Y-102205000D03*
%TO.N,SDIO_CMD*%
X143485000Y-104745000D03*
%TO.N,SDIO_CLK*%
X143485000Y-102205000D03*
%TO.N,+3V3*%
X146025000Y-104745000D03*
X146025000Y-102205000D03*
%TO.N,+5V*%
X148565000Y-104745000D03*
%TO.N,GND*%
X148565000Y-102205000D03*
%TD*%
D13*
%TO.N,GND*%
%TO.C,ETH-PHY*%
X124500000Y-120000000D03*
%TD*%
D14*
%TO.N,GND*%
X113980000Y-108500000D03*
X140700000Y-111650000D03*
X123980000Y-126880000D03*
X113000000Y-121500000D03*
X105222800Y-113235200D03*
D15*
X130000000Y-131450000D03*
D14*
X107975000Y-118000000D03*
X126250000Y-123300000D03*
X149177200Y-122614800D03*
X107677200Y-114764800D03*
X105777200Y-114764800D03*
X117222100Y-125212100D03*
X141622800Y-110885200D03*
X129400000Y-120460000D03*
X138567800Y-122500000D03*
D15*
X130000000Y-106250000D03*
D14*
X128500000Y-124540000D03*
X145400000Y-122500000D03*
X121480000Y-119000000D03*
D15*
X130000000Y-116250000D03*
D14*
X146722800Y-121085200D03*
X122250000Y-124000000D03*
X113300000Y-117550000D03*
X115098600Y-110330300D03*
D15*
X136000000Y-125000000D03*
D14*
X120010000Y-126500000D03*
X109480000Y-122000000D03*
X121350000Y-121500000D03*
D15*
X130000000Y-113750000D03*
X130000000Y-118750000D03*
X132000000Y-125000000D03*
D14*
X137500000Y-118500000D03*
X129380000Y-117480000D03*
X124229400Y-113666700D03*
X144900000Y-121850000D03*
D15*
X144000000Y-125000000D03*
D14*
X124249400Y-111333300D03*
D15*
X130000000Y-121250000D03*
D14*
X123579000Y-123023700D03*
X147277200Y-122614800D03*
X121912500Y-110500000D03*
X127099400Y-107333700D03*
X119520000Y-125000000D03*
X137460000Y-117000000D03*
X144000000Y-112500000D03*
X148622800Y-121085200D03*
D15*
X140000000Y-109500000D03*
D14*
X120137500Y-115050000D03*
D15*
X140000000Y-125000000D03*
D14*
X113250000Y-125000000D03*
X140980000Y-121000000D03*
X116960000Y-107500000D03*
D15*
X130000000Y-126250000D03*
D14*
X110460000Y-110500000D03*
X138500000Y-124000000D03*
X137460000Y-113000000D03*
X132980000Y-123500000D03*
X121472800Y-124114800D03*
X108550000Y-125000000D03*
D15*
X130000000Y-128750000D03*
X130000000Y-123750000D03*
D14*
X135960000Y-123500000D03*
X126500000Y-114400000D03*
D15*
X130000000Y-134000000D03*
D14*
X115275000Y-120550000D03*
X124925600Y-124882700D03*
X129400000Y-122020000D03*
X119637500Y-116950000D03*
X122491200Y-123034100D03*
X128480000Y-116520000D03*
X137520000Y-120500000D03*
X148800000Y-117000000D03*
D15*
X130000000Y-103500000D03*
D14*
X126914700Y-109589800D03*
X107122800Y-113235200D03*
X109460000Y-120500000D03*
X145010200Y-112777200D03*
X141010000Y-124000000D03*
D15*
X130000000Y-111250000D03*
D16*
X131500000Y-114000000D03*
D14*
X115371200Y-111921000D03*
D15*
X144000000Y-109500000D03*
D16*
%TO.N,+3V3*%
X140020000Y-121000000D03*
%TO.N,RSSI_ANA*%
X139600000Y-123700000D03*
D15*
%TO.N,+5V_FILT*%
X130000000Y-108750000D03*
X132000000Y-109500000D03*
D14*
%TO.N,DDS_RF*%
X115609700Y-112777800D03*
D15*
%TO.N,PA_INT*%
X135779741Y-109500000D03*
%TO.N,SPI1_CS_NOR*%
X130000000Y-101250000D03*
D17*
%TO.N,RSSI_DCD*%
X133450000Y-118910000D03*
%TD*%
%TA.AperFunction,Conductor*%
%TO.N,+5V*%
G36*
X129943039Y-100270185D02*
G01*
X129988794Y-100322989D01*
X130000000Y-100374500D01*
X130000000Y-100636696D01*
X129980315Y-100703735D01*
X129927511Y-100749490D01*
X129908097Y-100756469D01*
X129866853Y-100767520D01*
X129806812Y-100783608D01*
X129692686Y-100849500D01*
X129692683Y-100849502D01*
X129599502Y-100942683D01*
X129599500Y-100942686D01*
X129533608Y-101056812D01*
X129499500Y-101184108D01*
X129499500Y-101315891D01*
X129533608Y-101443187D01*
X129547184Y-101466700D01*
X129599500Y-101557314D01*
X129692686Y-101650500D01*
X129806814Y-101716392D01*
X129806832Y-101716397D01*
X129806846Y-101716405D01*
X129814318Y-101719500D01*
X129813835Y-101720665D01*
X129866493Y-101752759D01*
X129897024Y-101815605D01*
X129889304Y-101883623D01*
X129871027Y-101927748D01*
X129871025Y-101927756D01*
X129834500Y-102111379D01*
X129834500Y-102298620D01*
X129871025Y-102482243D01*
X129871027Y-102482251D01*
X129942676Y-102655228D01*
X129942677Y-102655230D01*
X129942678Y-102655231D01*
X129979102Y-102709744D01*
X129984752Y-102727788D01*
X129994977Y-102743698D01*
X129999428Y-102774657D01*
X129999980Y-102776419D01*
X130000000Y-102778633D01*
X130000000Y-102886696D01*
X129980315Y-102953735D01*
X129927511Y-102999490D01*
X129908097Y-103006469D01*
X129866853Y-103017520D01*
X129806812Y-103033608D01*
X129692686Y-103099500D01*
X129692683Y-103099502D01*
X129599502Y-103192683D01*
X129599500Y-103192686D01*
X129533608Y-103306812D01*
X129499500Y-103434108D01*
X129499500Y-103565891D01*
X129533608Y-103693187D01*
X129549550Y-103720798D01*
X129599500Y-103807314D01*
X129692686Y-103900500D01*
X129806814Y-103966392D01*
X129908095Y-103993529D01*
X129931869Y-104008020D01*
X129957203Y-104019590D01*
X129961293Y-104025954D01*
X129967753Y-104029892D01*
X129979920Y-104054940D01*
X129994977Y-104078368D01*
X129996522Y-104089114D01*
X129998283Y-104092739D01*
X130000000Y-104113303D01*
X130000000Y-104171365D01*
X129980315Y-104238404D01*
X129979103Y-104240255D01*
X129942677Y-104294770D01*
X129871027Y-104467748D01*
X129871025Y-104467756D01*
X129834500Y-104651379D01*
X129834500Y-104838620D01*
X129871025Y-105022243D01*
X129871027Y-105022251D01*
X129942676Y-105195228D01*
X129942677Y-105195230D01*
X129942678Y-105195231D01*
X129979102Y-105249744D01*
X129999980Y-105316419D01*
X130000000Y-105318633D01*
X130000000Y-105636696D01*
X129980315Y-105703735D01*
X129927511Y-105749490D01*
X129908097Y-105756469D01*
X129866853Y-105767520D01*
X129806812Y-105783608D01*
X129692686Y-105849500D01*
X129692683Y-105849502D01*
X129599502Y-105942683D01*
X129599500Y-105942686D01*
X129533608Y-106056812D01*
X129499500Y-106184108D01*
X129499500Y-106315891D01*
X129533608Y-106443187D01*
X129566554Y-106500250D01*
X129599500Y-106557314D01*
X129692686Y-106650500D01*
X129806814Y-106716392D01*
X129908095Y-106743529D01*
X129967753Y-106779892D01*
X129998283Y-106842739D01*
X130000000Y-106863303D01*
X130000000Y-108136696D01*
X129980315Y-108203735D01*
X129927511Y-108249490D01*
X129908097Y-108256469D01*
X129866853Y-108267520D01*
X129806812Y-108283608D01*
X129692686Y-108349500D01*
X129692683Y-108349502D01*
X129599502Y-108442683D01*
X129599500Y-108442686D01*
X129533608Y-108556812D01*
X129499500Y-108684108D01*
X129499500Y-108815892D01*
X129514857Y-108873205D01*
X129533608Y-108943187D01*
X129566554Y-109000250D01*
X129599500Y-109057314D01*
X129692686Y-109150500D01*
X129806814Y-109216392D01*
X129908095Y-109243529D01*
X129967753Y-109279892D01*
X129998283Y-109342739D01*
X130000000Y-109363303D01*
X130000000Y-110636696D01*
X129980315Y-110703735D01*
X129927511Y-110749490D01*
X129908097Y-110756469D01*
X129866853Y-110767520D01*
X129806812Y-110783608D01*
X129692686Y-110849500D01*
X129692683Y-110849502D01*
X129599502Y-110942683D01*
X129599500Y-110942686D01*
X129533608Y-111056812D01*
X129499500Y-111184108D01*
X129499500Y-111315891D01*
X129533608Y-111443187D01*
X129559416Y-111487887D01*
X129599500Y-111557314D01*
X129692686Y-111650500D01*
X129806814Y-111716392D01*
X129908095Y-111743529D01*
X129967753Y-111779892D01*
X129998283Y-111842739D01*
X130000000Y-111863303D01*
X130000000Y-113136696D01*
X129980315Y-113203735D01*
X129927511Y-113249490D01*
X129908097Y-113256469D01*
X129871782Y-113266200D01*
X129806812Y-113283608D01*
X129692686Y-113349500D01*
X129692683Y-113349502D01*
X129599502Y-113442683D01*
X129599500Y-113442686D01*
X129533608Y-113556812D01*
X129519784Y-113608405D01*
X129499500Y-113684108D01*
X129499500Y-113815892D01*
X129500946Y-113821287D01*
X129533608Y-113943187D01*
X129559007Y-113987178D01*
X129599500Y-114057314D01*
X129692686Y-114150500D01*
X129806814Y-114216392D01*
X129908095Y-114243529D01*
X129967753Y-114279892D01*
X129998283Y-114342739D01*
X130000000Y-114363303D01*
X130000000Y-115636696D01*
X129980315Y-115703735D01*
X129927511Y-115749490D01*
X129908097Y-115756469D01*
X129866853Y-115767520D01*
X129806812Y-115783608D01*
X129692686Y-115849500D01*
X129692683Y-115849502D01*
X129599502Y-115942683D01*
X129599500Y-115942686D01*
X129533608Y-116056812D01*
X129499500Y-116184108D01*
X129499500Y-116315891D01*
X129533608Y-116443187D01*
X129566554Y-116500250D01*
X129599500Y-116557314D01*
X129692686Y-116650500D01*
X129806814Y-116716392D01*
X129908095Y-116743529D01*
X129967753Y-116779892D01*
X129998283Y-116842739D01*
X130000000Y-116863303D01*
X130000000Y-117304584D01*
X129980315Y-117371623D01*
X129927511Y-117417378D01*
X129858353Y-117427322D01*
X129794797Y-117398297D01*
X129757023Y-117339519D01*
X129756225Y-117336678D01*
X129753206Y-117325411D01*
X129753205Y-117325410D01*
X129721490Y-117270478D01*
X129700480Y-117234087D01*
X129625913Y-117159520D01*
X129534587Y-117106793D01*
X129432727Y-117079500D01*
X129327273Y-117079500D01*
X129225413Y-117106793D01*
X129225410Y-117106794D01*
X129134085Y-117159521D01*
X129059521Y-117234085D01*
X129006794Y-117325410D01*
X129006794Y-117325411D01*
X129006793Y-117325413D01*
X128979500Y-117427273D01*
X128979500Y-117532727D01*
X129006793Y-117634587D01*
X129059520Y-117725913D01*
X129134087Y-117800480D01*
X129225413Y-117853207D01*
X129327273Y-117880500D01*
X129327275Y-117880500D01*
X129432725Y-117880500D01*
X129432727Y-117880500D01*
X129534587Y-117853207D01*
X129625913Y-117800480D01*
X129700480Y-117725913D01*
X129753207Y-117634587D01*
X129756225Y-117623320D01*
X129792590Y-117563662D01*
X129855436Y-117533132D01*
X129924812Y-117541426D01*
X129978690Y-117585911D01*
X129999965Y-117652463D01*
X130000000Y-117655415D01*
X130000000Y-118136696D01*
X129980315Y-118203735D01*
X129927511Y-118249490D01*
X129908097Y-118256469D01*
X129866853Y-118267520D01*
X129806812Y-118283608D01*
X129692686Y-118349500D01*
X129692683Y-118349502D01*
X129599502Y-118442683D01*
X129599500Y-118442686D01*
X129533608Y-118556812D01*
X129499500Y-118684108D01*
X129499500Y-118815891D01*
X129533608Y-118943187D01*
X129566554Y-119000250D01*
X129599500Y-119057314D01*
X129692686Y-119150500D01*
X129806814Y-119216392D01*
X129908095Y-119243529D01*
X129967753Y-119279892D01*
X129998283Y-119342739D01*
X130000000Y-119363303D01*
X130000000Y-120235456D01*
X129980315Y-120302495D01*
X129927511Y-120348250D01*
X129858353Y-120358194D01*
X129794797Y-120329169D01*
X129768613Y-120297456D01*
X129743574Y-120254087D01*
X129720480Y-120214087D01*
X129645913Y-120139520D01*
X129554587Y-120086793D01*
X129452727Y-120059500D01*
X129347273Y-120059500D01*
X129245413Y-120086793D01*
X129245410Y-120086794D01*
X129154085Y-120139521D01*
X129079521Y-120214085D01*
X129026794Y-120305410D01*
X129026793Y-120305413D01*
X128999500Y-120407273D01*
X128999500Y-120512727D01*
X129026793Y-120614587D01*
X129079520Y-120705913D01*
X129154087Y-120780480D01*
X129245413Y-120833207D01*
X129347273Y-120860500D01*
X129347275Y-120860500D01*
X129432175Y-120860500D01*
X129499214Y-120880185D01*
X129544969Y-120932989D01*
X129554913Y-121002147D01*
X129539563Y-121046499D01*
X129533608Y-121056812D01*
X129520251Y-121106664D01*
X129499500Y-121184108D01*
X129499500Y-121315892D01*
X129507409Y-121345410D01*
X129533609Y-121443188D01*
X129535624Y-121448054D01*
X129543089Y-121517524D01*
X129511810Y-121580001D01*
X129451719Y-121615650D01*
X129421060Y-121619500D01*
X129347273Y-121619500D01*
X129245413Y-121646793D01*
X129245410Y-121646794D01*
X129154085Y-121699521D01*
X129079521Y-121774085D01*
X129026794Y-121865410D01*
X129026793Y-121865413D01*
X128999500Y-121967273D01*
X128999500Y-122072727D01*
X129026793Y-122174587D01*
X129079520Y-122265913D01*
X129154087Y-122340480D01*
X129245413Y-122393207D01*
X129347273Y-122420500D01*
X129347275Y-122420500D01*
X129452725Y-122420500D01*
X129452727Y-122420500D01*
X129554587Y-122393207D01*
X129645913Y-122340480D01*
X129720480Y-122265913D01*
X129768614Y-122182541D01*
X129819180Y-122134327D01*
X129887787Y-122121104D01*
X129952652Y-122147072D01*
X129993180Y-122203986D01*
X130000000Y-122244543D01*
X130000000Y-123136696D01*
X129980315Y-123203735D01*
X129927511Y-123249490D01*
X129908097Y-123256469D01*
X129866853Y-123267520D01*
X129806812Y-123283608D01*
X129692686Y-123349500D01*
X129692683Y-123349502D01*
X129599502Y-123442683D01*
X129599500Y-123442686D01*
X129533608Y-123556812D01*
X129499500Y-123684108D01*
X129499500Y-123815891D01*
X129533608Y-123943187D01*
X129550965Y-123973249D01*
X129599500Y-124057314D01*
X129692686Y-124150500D01*
X129806814Y-124216392D01*
X129908095Y-124243529D01*
X129967753Y-124279892D01*
X129998283Y-124342739D01*
X130000000Y-124363303D01*
X130000000Y-125636696D01*
X129980315Y-125703735D01*
X129927511Y-125749490D01*
X129908097Y-125756469D01*
X129866853Y-125767520D01*
X129806812Y-125783608D01*
X129692686Y-125849500D01*
X129692683Y-125849502D01*
X129599502Y-125942683D01*
X129599500Y-125942686D01*
X129533608Y-126056812D01*
X129499500Y-126184108D01*
X129499500Y-126315891D01*
X129533608Y-126443187D01*
X129554574Y-126479500D01*
X129599500Y-126557314D01*
X129692686Y-126650500D01*
X129806814Y-126716392D01*
X129908095Y-126743529D01*
X129967753Y-126779892D01*
X129998283Y-126842739D01*
X130000000Y-126863303D01*
X130000000Y-128136696D01*
X129980315Y-128203735D01*
X129927511Y-128249490D01*
X129908097Y-128256469D01*
X129866853Y-128267520D01*
X129806812Y-128283608D01*
X129692686Y-128349500D01*
X129692683Y-128349502D01*
X129599502Y-128442683D01*
X129599500Y-128442686D01*
X129533608Y-128556812D01*
X129499500Y-128684108D01*
X129499500Y-128815891D01*
X129533608Y-128943187D01*
X129566554Y-129000250D01*
X129599500Y-129057314D01*
X129692686Y-129150500D01*
X129806814Y-129216392D01*
X129908095Y-129243529D01*
X129967753Y-129279892D01*
X129998283Y-129342739D01*
X130000000Y-129363303D01*
X130000000Y-129631365D01*
X129980315Y-129698404D01*
X129979103Y-129700255D01*
X129942677Y-129754770D01*
X129871027Y-129927748D01*
X129871025Y-129927756D01*
X129834500Y-130111379D01*
X129834500Y-130298620D01*
X129871025Y-130482243D01*
X129871027Y-130482251D01*
X129942676Y-130655228D01*
X129942677Y-130655230D01*
X129942678Y-130655231D01*
X129979102Y-130709744D01*
X129984752Y-130727788D01*
X129994977Y-130743698D01*
X129999428Y-130774657D01*
X129999980Y-130776419D01*
X130000000Y-130778633D01*
X130000000Y-130836696D01*
X129980315Y-130903735D01*
X129927511Y-130949490D01*
X129908097Y-130956469D01*
X129866853Y-130967520D01*
X129806812Y-130983608D01*
X129692686Y-131049500D01*
X129692683Y-131049502D01*
X129599502Y-131142683D01*
X129599500Y-131142686D01*
X129533608Y-131256812D01*
X129499500Y-131384108D01*
X129499500Y-131515891D01*
X129533608Y-131643187D01*
X129543980Y-131661151D01*
X129599500Y-131757314D01*
X129692686Y-131850500D01*
X129806814Y-131916392D01*
X129908095Y-131943529D01*
X129931869Y-131958020D01*
X129957203Y-131969590D01*
X129961293Y-131975954D01*
X129967753Y-131979892D01*
X129979920Y-132004940D01*
X129994977Y-132028368D01*
X129996522Y-132039114D01*
X129998283Y-132042739D01*
X130000000Y-132063303D01*
X130000000Y-132171365D01*
X129980315Y-132238404D01*
X129979103Y-132240255D01*
X129942677Y-132294770D01*
X129871027Y-132467748D01*
X129871025Y-132467756D01*
X129834500Y-132651379D01*
X129834500Y-132838620D01*
X129871025Y-133022243D01*
X129871027Y-133022251D01*
X129942676Y-133195228D01*
X129942677Y-133195230D01*
X129942678Y-133195231D01*
X129979102Y-133249744D01*
X129984752Y-133267788D01*
X129994977Y-133283698D01*
X129999428Y-133314657D01*
X129999980Y-133316419D01*
X130000000Y-133318633D01*
X130000000Y-133386696D01*
X129980315Y-133453735D01*
X129927511Y-133499490D01*
X129908097Y-133506469D01*
X129866853Y-133517520D01*
X129806812Y-133533608D01*
X129692686Y-133599500D01*
X129692683Y-133599502D01*
X129599502Y-133692683D01*
X129599500Y-133692686D01*
X129533608Y-133806812D01*
X129499500Y-133934108D01*
X129499500Y-134065891D01*
X129533608Y-134193187D01*
X129566554Y-134250250D01*
X129599500Y-134307314D01*
X129692686Y-134400500D01*
X129806814Y-134466392D01*
X129908095Y-134493529D01*
X129931869Y-134508020D01*
X129957203Y-134519590D01*
X129961293Y-134525954D01*
X129967753Y-134529892D01*
X129979920Y-134554940D01*
X129994977Y-134578368D01*
X129996522Y-134589114D01*
X129998283Y-134592739D01*
X130000000Y-134613303D01*
X130000000Y-134625500D01*
X129980315Y-134692539D01*
X129927511Y-134738294D01*
X129876000Y-134749500D01*
X102503751Y-134749500D01*
X102496264Y-134749274D01*
X102236339Y-134733551D01*
X102221475Y-134731746D01*
X101969034Y-134685485D01*
X101954494Y-134681901D01*
X101709480Y-134605551D01*
X101695480Y-134600242D01*
X101461444Y-134494911D01*
X101448185Y-134487952D01*
X101412519Y-134466391D01*
X101228553Y-134355180D01*
X101216233Y-134346676D01*
X101165991Y-134307314D01*
X101014207Y-134188398D01*
X101002999Y-134178468D01*
X100821531Y-133997000D01*
X100811601Y-133985792D01*
X100671380Y-133806814D01*
X100653319Y-133783760D01*
X100644821Y-133771449D01*
X100512044Y-133551808D01*
X100505091Y-133538562D01*
X100399755Y-133304516D01*
X100394448Y-133290519D01*
X100318096Y-133045498D01*
X100314514Y-133030965D01*
X100301775Y-132961452D01*
X100268253Y-132778524D01*
X100266448Y-132763660D01*
X100259656Y-132651379D01*
X100250726Y-132503736D01*
X100250500Y-132496249D01*
X100250500Y-132374038D01*
X100899500Y-132374038D01*
X100899500Y-132625962D01*
X100921309Y-132763660D01*
X100938910Y-132874785D01*
X101016760Y-133114383D01*
X101057955Y-133195231D01*
X101120831Y-133318633D01*
X101131132Y-133338848D01*
X101279201Y-133542649D01*
X101279205Y-133542654D01*
X101457345Y-133720794D01*
X101457350Y-133720798D01*
X101544019Y-133783766D01*
X101661155Y-133868870D01*
X101789192Y-133934108D01*
X101885616Y-133983239D01*
X101885618Y-133983239D01*
X101885621Y-133983241D01*
X102125215Y-134061090D01*
X102374038Y-134100500D01*
X102374039Y-134100500D01*
X102625961Y-134100500D01*
X102625962Y-134100500D01*
X102874785Y-134061090D01*
X103114379Y-133983241D01*
X103338845Y-133868870D01*
X103542656Y-133720793D01*
X103720793Y-133542656D01*
X103868870Y-133338845D01*
X103983241Y-133114379D01*
X104061090Y-132874785D01*
X104096474Y-132651379D01*
X104434500Y-132651379D01*
X104434500Y-132838620D01*
X104471025Y-133022243D01*
X104471027Y-133022251D01*
X104542676Y-133195228D01*
X104542681Y-133195237D01*
X104646697Y-133350907D01*
X104646700Y-133350911D01*
X104779088Y-133483299D01*
X104779092Y-133483302D01*
X104934762Y-133587318D01*
X104934768Y-133587321D01*
X104934769Y-133587322D01*
X105107749Y-133658973D01*
X105277222Y-133692683D01*
X105291379Y-133695499D01*
X105291383Y-133695500D01*
X105291384Y-133695500D01*
X105478617Y-133695500D01*
X105478618Y-133695499D01*
X105662251Y-133658973D01*
X105835231Y-133587322D01*
X105990908Y-133483302D01*
X106123302Y-133350908D01*
X106227322Y-133195231D01*
X106298973Y-133022251D01*
X106335500Y-132838616D01*
X106335500Y-132651384D01*
X106335499Y-132651379D01*
X106974500Y-132651379D01*
X106974500Y-132838620D01*
X107011025Y-133022243D01*
X107011027Y-133022251D01*
X107082676Y-133195228D01*
X107082681Y-133195237D01*
X107186697Y-133350907D01*
X107186700Y-133350911D01*
X107319088Y-133483299D01*
X107319092Y-133483302D01*
X107474762Y-133587318D01*
X107474768Y-133587321D01*
X107474769Y-133587322D01*
X107647749Y-133658973D01*
X107817222Y-133692683D01*
X107831379Y-133695499D01*
X107831383Y-133695500D01*
X107831384Y-133695500D01*
X108018617Y-133695500D01*
X108018618Y-133695499D01*
X108202251Y-133658973D01*
X108375231Y-133587322D01*
X108530908Y-133483302D01*
X108663302Y-133350908D01*
X108767322Y-133195231D01*
X108838973Y-133022251D01*
X108875500Y-132838616D01*
X108875500Y-132651384D01*
X108875499Y-132651379D01*
X109514500Y-132651379D01*
X109514500Y-132838620D01*
X109551025Y-133022243D01*
X109551027Y-133022251D01*
X109622676Y-133195228D01*
X109622681Y-133195237D01*
X109726697Y-133350907D01*
X109726700Y-133350911D01*
X109859088Y-133483299D01*
X109859092Y-133483302D01*
X110014762Y-133587318D01*
X110014768Y-133587321D01*
X110014769Y-133587322D01*
X110187749Y-133658973D01*
X110357222Y-133692683D01*
X110371379Y-133695499D01*
X110371383Y-133695500D01*
X110371384Y-133695500D01*
X110558617Y-133695500D01*
X110558618Y-133695499D01*
X110742251Y-133658973D01*
X110915231Y-133587322D01*
X111070908Y-133483302D01*
X111203302Y-133350908D01*
X111307322Y-133195231D01*
X111378973Y-133022251D01*
X111415500Y-132838616D01*
X111415500Y-132651384D01*
X111415499Y-132651379D01*
X112054500Y-132651379D01*
X112054500Y-132838620D01*
X112091025Y-133022243D01*
X112091027Y-133022251D01*
X112162676Y-133195228D01*
X112162681Y-133195237D01*
X112266697Y-133350907D01*
X112266700Y-133350911D01*
X112399088Y-133483299D01*
X112399092Y-133483302D01*
X112554762Y-133587318D01*
X112554768Y-133587321D01*
X112554769Y-133587322D01*
X112727749Y-133658973D01*
X112897222Y-133692683D01*
X112911379Y-133695499D01*
X112911383Y-133695500D01*
X112911384Y-133695500D01*
X113098617Y-133695500D01*
X113098618Y-133695499D01*
X113282251Y-133658973D01*
X113455231Y-133587322D01*
X113610908Y-133483302D01*
X113743302Y-133350908D01*
X113847322Y-133195231D01*
X113918973Y-133022251D01*
X113955500Y-132838616D01*
X113955500Y-132651384D01*
X113955499Y-132651379D01*
X114594500Y-132651379D01*
X114594500Y-132838620D01*
X114631025Y-133022243D01*
X114631027Y-133022251D01*
X114702676Y-133195228D01*
X114702681Y-133195237D01*
X114806697Y-133350907D01*
X114806700Y-133350911D01*
X114939088Y-133483299D01*
X114939092Y-133483302D01*
X115094762Y-133587318D01*
X115094768Y-133587321D01*
X115094769Y-133587322D01*
X115267749Y-133658973D01*
X115437222Y-133692683D01*
X115451379Y-133695499D01*
X115451383Y-133695500D01*
X115451384Y-133695500D01*
X115638617Y-133695500D01*
X115638618Y-133695499D01*
X115822251Y-133658973D01*
X115995231Y-133587322D01*
X116150908Y-133483302D01*
X116283302Y-133350908D01*
X116387322Y-133195231D01*
X116458973Y-133022251D01*
X116495500Y-132838616D01*
X116495500Y-132651384D01*
X116495499Y-132651379D01*
X117134500Y-132651379D01*
X117134500Y-132838620D01*
X117171025Y-133022243D01*
X117171027Y-133022251D01*
X117242676Y-133195228D01*
X117242681Y-133195237D01*
X117346697Y-133350907D01*
X117346700Y-133350911D01*
X117479088Y-133483299D01*
X117479092Y-133483302D01*
X117634762Y-133587318D01*
X117634768Y-133587321D01*
X117634769Y-133587322D01*
X117807749Y-133658973D01*
X117977222Y-133692683D01*
X117991379Y-133695499D01*
X117991383Y-133695500D01*
X117991384Y-133695500D01*
X118178617Y-133695500D01*
X118178618Y-133695499D01*
X118362251Y-133658973D01*
X118535231Y-133587322D01*
X118690908Y-133483302D01*
X118823302Y-133350908D01*
X118927322Y-133195231D01*
X118998973Y-133022251D01*
X119035500Y-132838616D01*
X119035500Y-132651384D01*
X119035499Y-132651379D01*
X119674500Y-132651379D01*
X119674500Y-132838620D01*
X119711025Y-133022243D01*
X119711027Y-133022251D01*
X119782676Y-133195228D01*
X119782681Y-133195237D01*
X119886697Y-133350907D01*
X119886700Y-133350911D01*
X120019088Y-133483299D01*
X120019092Y-133483302D01*
X120174762Y-133587318D01*
X120174768Y-133587321D01*
X120174769Y-133587322D01*
X120347749Y-133658973D01*
X120517222Y-133692683D01*
X120531379Y-133695499D01*
X120531383Y-133695500D01*
X120531384Y-133695500D01*
X120718617Y-133695500D01*
X120718618Y-133695499D01*
X120902251Y-133658973D01*
X121075231Y-133587322D01*
X121230908Y-133483302D01*
X121363302Y-133350908D01*
X121467322Y-133195231D01*
X121538973Y-133022251D01*
X121575500Y-132838616D01*
X121575500Y-132651384D01*
X121575499Y-132651379D01*
X122214500Y-132651379D01*
X122214500Y-132838620D01*
X122251025Y-133022243D01*
X122251027Y-133022251D01*
X122322676Y-133195228D01*
X122322681Y-133195237D01*
X122426697Y-133350907D01*
X122426700Y-133350911D01*
X122559088Y-133483299D01*
X122559092Y-133483302D01*
X122714762Y-133587318D01*
X122714768Y-133587321D01*
X122714769Y-133587322D01*
X122887749Y-133658973D01*
X123057222Y-133692683D01*
X123071379Y-133695499D01*
X123071383Y-133695500D01*
X123071384Y-133695500D01*
X123258617Y-133695500D01*
X123258618Y-133695499D01*
X123442251Y-133658973D01*
X123615231Y-133587322D01*
X123770908Y-133483302D01*
X123903302Y-133350908D01*
X124007322Y-133195231D01*
X124078973Y-133022251D01*
X124115500Y-132838616D01*
X124115500Y-132651384D01*
X124115499Y-132651379D01*
X124754500Y-132651379D01*
X124754500Y-132838620D01*
X124791025Y-133022243D01*
X124791027Y-133022251D01*
X124862676Y-133195228D01*
X124862681Y-133195237D01*
X124966697Y-133350907D01*
X124966700Y-133350911D01*
X125099088Y-133483299D01*
X125099092Y-133483302D01*
X125254762Y-133587318D01*
X125254768Y-133587321D01*
X125254769Y-133587322D01*
X125427749Y-133658973D01*
X125597222Y-133692683D01*
X125611379Y-133695499D01*
X125611383Y-133695500D01*
X125611384Y-133695500D01*
X125798617Y-133695500D01*
X125798618Y-133695499D01*
X125982251Y-133658973D01*
X126155231Y-133587322D01*
X126310908Y-133483302D01*
X126443302Y-133350908D01*
X126547322Y-133195231D01*
X126618973Y-133022251D01*
X126655500Y-132838616D01*
X126655500Y-132651384D01*
X126655499Y-132651379D01*
X127294500Y-132651379D01*
X127294500Y-132838620D01*
X127331025Y-133022243D01*
X127331027Y-133022251D01*
X127402676Y-133195228D01*
X127402681Y-133195237D01*
X127506697Y-133350907D01*
X127506700Y-133350911D01*
X127639088Y-133483299D01*
X127639092Y-133483302D01*
X127794762Y-133587318D01*
X127794768Y-133587321D01*
X127794769Y-133587322D01*
X127967749Y-133658973D01*
X128137222Y-133692683D01*
X128151379Y-133695499D01*
X128151383Y-133695500D01*
X128151384Y-133695500D01*
X128338617Y-133695500D01*
X128338618Y-133695499D01*
X128522251Y-133658973D01*
X128695231Y-133587322D01*
X128850908Y-133483302D01*
X128983302Y-133350908D01*
X129087322Y-133195231D01*
X129158973Y-133022251D01*
X129195500Y-132838616D01*
X129195500Y-132651384D01*
X129158973Y-132467749D01*
X129087322Y-132294769D01*
X129087321Y-132294768D01*
X129087318Y-132294762D01*
X128983302Y-132139092D01*
X128983299Y-132139088D01*
X128850911Y-132006700D01*
X128850907Y-132006697D01*
X128695237Y-131902681D01*
X128695228Y-131902676D01*
X128522251Y-131831027D01*
X128522243Y-131831025D01*
X128338620Y-131794500D01*
X128338616Y-131794500D01*
X128151384Y-131794500D01*
X128151379Y-131794500D01*
X127967756Y-131831025D01*
X127967748Y-131831027D01*
X127794771Y-131902676D01*
X127794762Y-131902681D01*
X127639092Y-132006697D01*
X127639088Y-132006700D01*
X127506700Y-132139088D01*
X127506697Y-132139092D01*
X127402681Y-132294762D01*
X127402676Y-132294771D01*
X127331027Y-132467748D01*
X127331025Y-132467756D01*
X127294500Y-132651379D01*
X126655499Y-132651379D01*
X126618973Y-132467749D01*
X126547322Y-132294769D01*
X126547321Y-132294768D01*
X126547318Y-132294762D01*
X126443302Y-132139092D01*
X126443299Y-132139088D01*
X126310911Y-132006700D01*
X126310907Y-132006697D01*
X126155237Y-131902681D01*
X126155228Y-131902676D01*
X125982251Y-131831027D01*
X125982243Y-131831025D01*
X125798620Y-131794500D01*
X125798616Y-131794500D01*
X125611384Y-131794500D01*
X125611379Y-131794500D01*
X125427756Y-131831025D01*
X125427748Y-131831027D01*
X125254771Y-131902676D01*
X125254762Y-131902681D01*
X125099092Y-132006697D01*
X125099088Y-132006700D01*
X124966700Y-132139088D01*
X124966697Y-132139092D01*
X124862681Y-132294762D01*
X124862676Y-132294771D01*
X124791027Y-132467748D01*
X124791025Y-132467756D01*
X124754500Y-132651379D01*
X124115499Y-132651379D01*
X124078973Y-132467749D01*
X124007322Y-132294769D01*
X124007321Y-132294768D01*
X124007318Y-132294762D01*
X123903302Y-132139092D01*
X123903299Y-132139088D01*
X123770911Y-132006700D01*
X123770907Y-132006697D01*
X123615237Y-131902681D01*
X123615228Y-131902676D01*
X123442251Y-131831027D01*
X123442243Y-131831025D01*
X123258620Y-131794500D01*
X123258616Y-131794500D01*
X123071384Y-131794500D01*
X123071379Y-131794500D01*
X122887756Y-131831025D01*
X122887748Y-131831027D01*
X122714771Y-131902676D01*
X122714762Y-131902681D01*
X122559092Y-132006697D01*
X122559088Y-132006700D01*
X122426700Y-132139088D01*
X122426697Y-132139092D01*
X122322681Y-132294762D01*
X122322676Y-132294771D01*
X122251027Y-132467748D01*
X122251025Y-132467756D01*
X122214500Y-132651379D01*
X121575499Y-132651379D01*
X121538973Y-132467749D01*
X121467322Y-132294769D01*
X121467321Y-132294768D01*
X121467318Y-132294762D01*
X121363302Y-132139092D01*
X121363299Y-132139088D01*
X121230911Y-132006700D01*
X121230907Y-132006697D01*
X121075237Y-131902681D01*
X121075228Y-131902676D01*
X120902251Y-131831027D01*
X120902243Y-131831025D01*
X120718620Y-131794500D01*
X120718616Y-131794500D01*
X120531384Y-131794500D01*
X120531379Y-131794500D01*
X120347756Y-131831025D01*
X120347748Y-131831027D01*
X120174771Y-131902676D01*
X120174762Y-131902681D01*
X120019092Y-132006697D01*
X120019088Y-132006700D01*
X119886700Y-132139088D01*
X119886697Y-132139092D01*
X119782681Y-132294762D01*
X119782676Y-132294771D01*
X119711027Y-132467748D01*
X119711025Y-132467756D01*
X119674500Y-132651379D01*
X119035499Y-132651379D01*
X118998973Y-132467749D01*
X118927322Y-132294769D01*
X118927321Y-132294768D01*
X118927318Y-132294762D01*
X118823302Y-132139092D01*
X118823299Y-132139088D01*
X118690911Y-132006700D01*
X118690907Y-132006697D01*
X118535237Y-131902681D01*
X118535228Y-131902676D01*
X118362251Y-131831027D01*
X118362243Y-131831025D01*
X118178620Y-131794500D01*
X118178616Y-131794500D01*
X117991384Y-131794500D01*
X117991379Y-131794500D01*
X117807756Y-131831025D01*
X117807748Y-131831027D01*
X117634771Y-131902676D01*
X117634762Y-131902681D01*
X117479092Y-132006697D01*
X117479088Y-132006700D01*
X117346700Y-132139088D01*
X117346697Y-132139092D01*
X117242681Y-132294762D01*
X117242676Y-132294771D01*
X117171027Y-132467748D01*
X117171025Y-132467756D01*
X117134500Y-132651379D01*
X116495499Y-132651379D01*
X116458973Y-132467749D01*
X116387322Y-132294769D01*
X116387321Y-132294768D01*
X116387318Y-132294762D01*
X116283302Y-132139092D01*
X116283299Y-132139088D01*
X116150911Y-132006700D01*
X116150907Y-132006697D01*
X115995237Y-131902681D01*
X115995228Y-131902676D01*
X115822251Y-131831027D01*
X115822243Y-131831025D01*
X115638620Y-131794500D01*
X115638616Y-131794500D01*
X115451384Y-131794500D01*
X115451379Y-131794500D01*
X115267756Y-131831025D01*
X115267748Y-131831027D01*
X115094771Y-131902676D01*
X115094762Y-131902681D01*
X114939092Y-132006697D01*
X114939088Y-132006700D01*
X114806700Y-132139088D01*
X114806697Y-132139092D01*
X114702681Y-132294762D01*
X114702676Y-132294771D01*
X114631027Y-132467748D01*
X114631025Y-132467756D01*
X114594500Y-132651379D01*
X113955499Y-132651379D01*
X113918973Y-132467749D01*
X113847322Y-132294769D01*
X113847321Y-132294768D01*
X113847318Y-132294762D01*
X113743302Y-132139092D01*
X113743299Y-132139088D01*
X113610911Y-132006700D01*
X113610907Y-132006697D01*
X113455237Y-131902681D01*
X113455228Y-131902676D01*
X113282251Y-131831027D01*
X113282243Y-131831025D01*
X113098620Y-131794500D01*
X113098616Y-131794500D01*
X112911384Y-131794500D01*
X112911379Y-131794500D01*
X112727756Y-131831025D01*
X112727748Y-131831027D01*
X112554771Y-131902676D01*
X112554762Y-131902681D01*
X112399092Y-132006697D01*
X112399088Y-132006700D01*
X112266700Y-132139088D01*
X112266697Y-132139092D01*
X112162681Y-132294762D01*
X112162676Y-132294771D01*
X112091027Y-132467748D01*
X112091025Y-132467756D01*
X112054500Y-132651379D01*
X111415499Y-132651379D01*
X111378973Y-132467749D01*
X111307322Y-132294769D01*
X111307321Y-132294768D01*
X111307318Y-132294762D01*
X111203302Y-132139092D01*
X111203299Y-132139088D01*
X111070911Y-132006700D01*
X111070907Y-132006697D01*
X110915237Y-131902681D01*
X110915228Y-131902676D01*
X110742251Y-131831027D01*
X110742243Y-131831025D01*
X110558620Y-131794500D01*
X110558616Y-131794500D01*
X110371384Y-131794500D01*
X110371379Y-131794500D01*
X110187756Y-131831025D01*
X110187748Y-131831027D01*
X110014771Y-131902676D01*
X110014762Y-131902681D01*
X109859092Y-132006697D01*
X109859088Y-132006700D01*
X109726700Y-132139088D01*
X109726697Y-132139092D01*
X109622681Y-132294762D01*
X109622676Y-132294771D01*
X109551027Y-132467748D01*
X109551025Y-132467756D01*
X109514500Y-132651379D01*
X108875499Y-132651379D01*
X108838973Y-132467749D01*
X108767322Y-132294769D01*
X108767321Y-132294768D01*
X108767318Y-132294762D01*
X108663302Y-132139092D01*
X108663299Y-132139088D01*
X108530911Y-132006700D01*
X108530907Y-132006697D01*
X108375237Y-131902681D01*
X108375228Y-131902676D01*
X108202251Y-131831027D01*
X108202243Y-131831025D01*
X108018620Y-131794500D01*
X108018616Y-131794500D01*
X107831384Y-131794500D01*
X107831379Y-131794500D01*
X107647756Y-131831025D01*
X107647748Y-131831027D01*
X107474771Y-131902676D01*
X107474762Y-131902681D01*
X107319092Y-132006697D01*
X107319088Y-132006700D01*
X107186700Y-132139088D01*
X107186697Y-132139092D01*
X107082681Y-132294762D01*
X107082676Y-132294771D01*
X107011027Y-132467748D01*
X107011025Y-132467756D01*
X106974500Y-132651379D01*
X106335499Y-132651379D01*
X106298973Y-132467749D01*
X106227322Y-132294769D01*
X106227321Y-132294768D01*
X106227318Y-132294762D01*
X106123302Y-132139092D01*
X106123299Y-132139088D01*
X105990911Y-132006700D01*
X105990907Y-132006697D01*
X105835237Y-131902681D01*
X105835228Y-131902676D01*
X105662251Y-131831027D01*
X105662243Y-131831025D01*
X105478620Y-131794500D01*
X105478616Y-131794500D01*
X105291384Y-131794500D01*
X105291379Y-131794500D01*
X105107756Y-131831025D01*
X105107748Y-131831027D01*
X104934771Y-131902676D01*
X104934762Y-131902681D01*
X104779092Y-132006697D01*
X104779088Y-132006700D01*
X104646700Y-132139088D01*
X104646697Y-132139092D01*
X104542681Y-132294762D01*
X104542676Y-132294771D01*
X104471027Y-132467748D01*
X104471025Y-132467756D01*
X104434500Y-132651379D01*
X104096474Y-132651379D01*
X104100500Y-132625962D01*
X104100500Y-132374038D01*
X104061090Y-132125215D01*
X103983241Y-131885621D01*
X103983239Y-131885618D01*
X103983239Y-131885616D01*
X103917865Y-131757313D01*
X103868870Y-131661155D01*
X103763330Y-131515891D01*
X103720798Y-131457350D01*
X103720794Y-131457345D01*
X103542654Y-131279205D01*
X103542649Y-131279201D01*
X103338848Y-131131132D01*
X103338847Y-131131131D01*
X103338845Y-131131130D01*
X103268747Y-131095413D01*
X103114383Y-131016760D01*
X102874785Y-130938910D01*
X102625962Y-130899500D01*
X102374038Y-130899500D01*
X102249626Y-130919205D01*
X102125214Y-130938910D01*
X101885616Y-131016760D01*
X101661151Y-131131132D01*
X101457350Y-131279201D01*
X101457345Y-131279205D01*
X101279205Y-131457345D01*
X101279201Y-131457350D01*
X101131132Y-131661151D01*
X101016760Y-131885616D01*
X100938910Y-132125214D01*
X100920982Y-132238404D01*
X100899500Y-132374038D01*
X100250500Y-132374038D01*
X100250500Y-130111379D01*
X104434500Y-130111379D01*
X104434500Y-130298620D01*
X104471025Y-130482243D01*
X104471027Y-130482251D01*
X104542676Y-130655228D01*
X104542681Y-130655237D01*
X104646697Y-130810907D01*
X104646700Y-130810911D01*
X104779088Y-130943299D01*
X104779092Y-130943302D01*
X104934762Y-131047318D01*
X104934768Y-131047321D01*
X104934769Y-131047322D01*
X105107749Y-131118973D01*
X105291379Y-131155499D01*
X105291383Y-131155500D01*
X105291384Y-131155500D01*
X105478617Y-131155500D01*
X105478618Y-131155499D01*
X105662251Y-131118973D01*
X105835231Y-131047322D01*
X105990908Y-130943302D01*
X106123302Y-130810908D01*
X106227322Y-130655231D01*
X106298973Y-130482251D01*
X106335500Y-130298616D01*
X106335500Y-130111384D01*
X106335499Y-130111379D01*
X106974500Y-130111379D01*
X106974500Y-130298620D01*
X107011025Y-130482243D01*
X107011027Y-130482251D01*
X107082676Y-130655228D01*
X107082681Y-130655237D01*
X107186697Y-130810907D01*
X107186700Y-130810911D01*
X107319088Y-130943299D01*
X107319092Y-130943302D01*
X107474762Y-131047318D01*
X107474768Y-131047321D01*
X107474769Y-131047322D01*
X107647749Y-131118973D01*
X107831379Y-131155499D01*
X107831383Y-131155500D01*
X107831384Y-131155500D01*
X108018617Y-131155500D01*
X108018618Y-131155499D01*
X108202251Y-131118973D01*
X108375231Y-131047322D01*
X108530908Y-130943302D01*
X108663302Y-130810908D01*
X108767322Y-130655231D01*
X108838973Y-130482251D01*
X108875500Y-130298616D01*
X108875500Y-130111384D01*
X108875499Y-130111379D01*
X109514500Y-130111379D01*
X109514500Y-130298620D01*
X109551025Y-130482243D01*
X109551027Y-130482251D01*
X109622676Y-130655228D01*
X109622681Y-130655237D01*
X109726697Y-130810907D01*
X109726700Y-130810911D01*
X109859088Y-130943299D01*
X109859092Y-130943302D01*
X110014762Y-131047318D01*
X110014768Y-131047321D01*
X110014769Y-131047322D01*
X110187749Y-131118973D01*
X110371379Y-131155499D01*
X110371383Y-131155500D01*
X110371384Y-131155500D01*
X110558617Y-131155500D01*
X110558618Y-131155499D01*
X110742251Y-131118973D01*
X110915231Y-131047322D01*
X111070908Y-130943302D01*
X111203302Y-130810908D01*
X111307322Y-130655231D01*
X111378973Y-130482251D01*
X111415500Y-130298616D01*
X111415500Y-130111384D01*
X111415499Y-130111379D01*
X112054500Y-130111379D01*
X112054500Y-130298620D01*
X112091025Y-130482243D01*
X112091027Y-130482251D01*
X112162676Y-130655228D01*
X112162681Y-130655237D01*
X112266697Y-130810907D01*
X112266700Y-130810911D01*
X112399088Y-130943299D01*
X112399092Y-130943302D01*
X112554762Y-131047318D01*
X112554768Y-131047321D01*
X112554769Y-131047322D01*
X112727749Y-131118973D01*
X112911379Y-131155499D01*
X112911383Y-131155500D01*
X112911384Y-131155500D01*
X113098617Y-131155500D01*
X113098618Y-131155499D01*
X113282251Y-131118973D01*
X113455231Y-131047322D01*
X113610908Y-130943302D01*
X113743302Y-130810908D01*
X113847322Y-130655231D01*
X113918973Y-130482251D01*
X113955500Y-130298616D01*
X113955500Y-130111384D01*
X113955499Y-130111379D01*
X114594500Y-130111379D01*
X114594500Y-130298620D01*
X114631025Y-130482243D01*
X114631027Y-130482251D01*
X114702676Y-130655228D01*
X114702681Y-130655237D01*
X114806697Y-130810907D01*
X114806700Y-130810911D01*
X114939088Y-130943299D01*
X114939092Y-130943302D01*
X115094762Y-131047318D01*
X115094768Y-131047321D01*
X115094769Y-131047322D01*
X115267749Y-131118973D01*
X115451379Y-131155499D01*
X115451383Y-131155500D01*
X115451384Y-131155500D01*
X115638617Y-131155500D01*
X115638618Y-131155499D01*
X115822251Y-131118973D01*
X115995231Y-131047322D01*
X116150908Y-130943302D01*
X116283302Y-130810908D01*
X116387322Y-130655231D01*
X116458973Y-130482251D01*
X116495500Y-130298616D01*
X116495500Y-130111384D01*
X116495499Y-130111379D01*
X117134500Y-130111379D01*
X117134500Y-130298620D01*
X117171025Y-130482243D01*
X117171027Y-130482251D01*
X117242676Y-130655228D01*
X117242681Y-130655237D01*
X117346697Y-130810907D01*
X117346700Y-130810911D01*
X117479088Y-130943299D01*
X117479092Y-130943302D01*
X117634762Y-131047318D01*
X117634768Y-131047321D01*
X117634769Y-131047322D01*
X117807749Y-131118973D01*
X117991379Y-131155499D01*
X117991383Y-131155500D01*
X117991384Y-131155500D01*
X118178617Y-131155500D01*
X118178618Y-131155499D01*
X118362251Y-131118973D01*
X118535231Y-131047322D01*
X118690908Y-130943302D01*
X118823302Y-130810908D01*
X118927322Y-130655231D01*
X118998973Y-130482251D01*
X119035500Y-130298616D01*
X119035500Y-130111384D01*
X119035499Y-130111379D01*
X119674500Y-130111379D01*
X119674500Y-130298620D01*
X119711025Y-130482243D01*
X119711027Y-130482251D01*
X119782676Y-130655228D01*
X119782681Y-130655237D01*
X119886697Y-130810907D01*
X119886700Y-130810911D01*
X120019088Y-130943299D01*
X120019092Y-130943302D01*
X120174762Y-131047318D01*
X120174768Y-131047321D01*
X120174769Y-131047322D01*
X120347749Y-131118973D01*
X120531379Y-131155499D01*
X120531383Y-131155500D01*
X120531384Y-131155500D01*
X120718617Y-131155500D01*
X120718618Y-131155499D01*
X120902251Y-131118973D01*
X121075231Y-131047322D01*
X121230908Y-130943302D01*
X121363302Y-130810908D01*
X121467322Y-130655231D01*
X121538973Y-130482251D01*
X121575500Y-130298616D01*
X121575500Y-130111384D01*
X121575499Y-130111379D01*
X122214500Y-130111379D01*
X122214500Y-130298620D01*
X122251025Y-130482243D01*
X122251027Y-130482251D01*
X122322676Y-130655228D01*
X122322681Y-130655237D01*
X122426697Y-130810907D01*
X122426700Y-130810911D01*
X122559088Y-130943299D01*
X122559092Y-130943302D01*
X122714762Y-131047318D01*
X122714768Y-131047321D01*
X122714769Y-131047322D01*
X122887749Y-131118973D01*
X123071379Y-131155499D01*
X123071383Y-131155500D01*
X123071384Y-131155500D01*
X123258617Y-131155500D01*
X123258618Y-131155499D01*
X123442251Y-131118973D01*
X123615231Y-131047322D01*
X123770908Y-130943302D01*
X123903302Y-130810908D01*
X124007322Y-130655231D01*
X124078973Y-130482251D01*
X124115500Y-130298616D01*
X124115500Y-130111384D01*
X124115499Y-130111379D01*
X124754500Y-130111379D01*
X124754500Y-130298620D01*
X124791025Y-130482243D01*
X124791027Y-130482251D01*
X124862676Y-130655228D01*
X124862681Y-130655237D01*
X124966697Y-130810907D01*
X124966700Y-130810911D01*
X125099088Y-130943299D01*
X125099092Y-130943302D01*
X125254762Y-131047318D01*
X125254768Y-131047321D01*
X125254769Y-131047322D01*
X125427749Y-131118973D01*
X125611379Y-131155499D01*
X125611383Y-131155500D01*
X125611384Y-131155500D01*
X125798617Y-131155500D01*
X125798618Y-131155499D01*
X125982251Y-131118973D01*
X126155231Y-131047322D01*
X126310908Y-130943302D01*
X126443302Y-130810908D01*
X126547322Y-130655231D01*
X126618973Y-130482251D01*
X126655500Y-130298616D01*
X126655500Y-130111384D01*
X126655499Y-130111379D01*
X127294500Y-130111379D01*
X127294500Y-130298620D01*
X127331025Y-130482243D01*
X127331027Y-130482251D01*
X127402676Y-130655228D01*
X127402681Y-130655237D01*
X127506697Y-130810907D01*
X127506700Y-130810911D01*
X127639088Y-130943299D01*
X127639092Y-130943302D01*
X127794762Y-131047318D01*
X127794768Y-131047321D01*
X127794769Y-131047322D01*
X127967749Y-131118973D01*
X128151379Y-131155499D01*
X128151383Y-131155500D01*
X128151384Y-131155500D01*
X128338617Y-131155500D01*
X128338618Y-131155499D01*
X128522251Y-131118973D01*
X128695231Y-131047322D01*
X128850908Y-130943302D01*
X128983302Y-130810908D01*
X129087322Y-130655231D01*
X129158973Y-130482251D01*
X129195500Y-130298616D01*
X129195500Y-130111384D01*
X129158973Y-129927749D01*
X129087322Y-129754769D01*
X129087321Y-129754768D01*
X129087318Y-129754762D01*
X128983302Y-129599092D01*
X128983299Y-129599088D01*
X128850911Y-129466700D01*
X128850907Y-129466697D01*
X128695237Y-129362681D01*
X128695228Y-129362676D01*
X128522251Y-129291027D01*
X128522243Y-129291025D01*
X128338620Y-129254500D01*
X128338616Y-129254500D01*
X128151384Y-129254500D01*
X128151379Y-129254500D01*
X127967756Y-129291025D01*
X127967748Y-129291027D01*
X127794771Y-129362676D01*
X127794762Y-129362681D01*
X127639092Y-129466697D01*
X127639088Y-129466700D01*
X127506700Y-129599088D01*
X127506697Y-129599092D01*
X127402681Y-129754762D01*
X127402676Y-129754771D01*
X127331027Y-129927748D01*
X127331025Y-129927756D01*
X127294500Y-130111379D01*
X126655499Y-130111379D01*
X126618973Y-129927749D01*
X126547322Y-129754769D01*
X126547321Y-129754768D01*
X126547318Y-129754762D01*
X126443302Y-129599092D01*
X126443299Y-129599088D01*
X126310911Y-129466700D01*
X126310907Y-129466697D01*
X126155237Y-129362681D01*
X126155228Y-129362676D01*
X125982251Y-129291027D01*
X125982243Y-129291025D01*
X125798620Y-129254500D01*
X125798616Y-129254500D01*
X125611384Y-129254500D01*
X125611379Y-129254500D01*
X125427756Y-129291025D01*
X125427748Y-129291027D01*
X125254771Y-129362676D01*
X125254762Y-129362681D01*
X125099092Y-129466697D01*
X125099088Y-129466700D01*
X124966700Y-129599088D01*
X124966697Y-129599092D01*
X124862681Y-129754762D01*
X124862676Y-129754771D01*
X124791027Y-129927748D01*
X124791025Y-129927756D01*
X124754500Y-130111379D01*
X124115499Y-130111379D01*
X124078973Y-129927749D01*
X124007322Y-129754769D01*
X124007321Y-129754768D01*
X124007318Y-129754762D01*
X123903302Y-129599092D01*
X123903299Y-129599088D01*
X123770911Y-129466700D01*
X123770907Y-129466697D01*
X123615237Y-129362681D01*
X123615228Y-129362676D01*
X123442251Y-129291027D01*
X123442243Y-129291025D01*
X123258620Y-129254500D01*
X123258616Y-129254500D01*
X123071384Y-129254500D01*
X123071379Y-129254500D01*
X122887756Y-129291025D01*
X122887748Y-129291027D01*
X122714771Y-129362676D01*
X122714762Y-129362681D01*
X122559092Y-129466697D01*
X122559088Y-129466700D01*
X122426700Y-129599088D01*
X122426697Y-129599092D01*
X122322681Y-129754762D01*
X122322676Y-129754771D01*
X122251027Y-129927748D01*
X122251025Y-129927756D01*
X122214500Y-130111379D01*
X121575499Y-130111379D01*
X121538973Y-129927749D01*
X121467322Y-129754769D01*
X121467321Y-129754768D01*
X121467318Y-129754762D01*
X121363302Y-129599092D01*
X121363299Y-129599088D01*
X121230911Y-129466700D01*
X121230907Y-129466697D01*
X121075237Y-129362681D01*
X121075228Y-129362676D01*
X120902251Y-129291027D01*
X120902243Y-129291025D01*
X120718620Y-129254500D01*
X120718616Y-129254500D01*
X120531384Y-129254500D01*
X120531379Y-129254500D01*
X120347756Y-129291025D01*
X120347748Y-129291027D01*
X120174771Y-129362676D01*
X120174762Y-129362681D01*
X120019092Y-129466697D01*
X120019088Y-129466700D01*
X119886700Y-129599088D01*
X119886697Y-129599092D01*
X119782681Y-129754762D01*
X119782676Y-129754771D01*
X119711027Y-129927748D01*
X119711025Y-129927756D01*
X119674500Y-130111379D01*
X119035499Y-130111379D01*
X118998973Y-129927749D01*
X118927322Y-129754769D01*
X118927321Y-129754768D01*
X118927318Y-129754762D01*
X118823302Y-129599092D01*
X118823299Y-129599088D01*
X118690911Y-129466700D01*
X118690907Y-129466697D01*
X118535237Y-129362681D01*
X118535228Y-129362676D01*
X118362251Y-129291027D01*
X118362243Y-129291025D01*
X118178620Y-129254500D01*
X118178616Y-129254500D01*
X117991384Y-129254500D01*
X117991379Y-129254500D01*
X117807756Y-129291025D01*
X117807748Y-129291027D01*
X117634771Y-129362676D01*
X117634762Y-129362681D01*
X117479092Y-129466697D01*
X117479088Y-129466700D01*
X117346700Y-129599088D01*
X117346697Y-129599092D01*
X117242681Y-129754762D01*
X117242676Y-129754771D01*
X117171027Y-129927748D01*
X117171025Y-129927756D01*
X117134500Y-130111379D01*
X116495499Y-130111379D01*
X116458973Y-129927749D01*
X116387322Y-129754769D01*
X116387321Y-129754768D01*
X116387318Y-129754762D01*
X116283302Y-129599092D01*
X116283299Y-129599088D01*
X116150911Y-129466700D01*
X116150907Y-129466697D01*
X115995237Y-129362681D01*
X115995228Y-129362676D01*
X115822251Y-129291027D01*
X115822243Y-129291025D01*
X115638620Y-129254500D01*
X115638616Y-129254500D01*
X115451384Y-129254500D01*
X115451379Y-129254500D01*
X115267756Y-129291025D01*
X115267748Y-129291027D01*
X115094771Y-129362676D01*
X115094762Y-129362681D01*
X114939092Y-129466697D01*
X114939088Y-129466700D01*
X114806700Y-129599088D01*
X114806697Y-129599092D01*
X114702681Y-129754762D01*
X114702676Y-129754771D01*
X114631027Y-129927748D01*
X114631025Y-129927756D01*
X114594500Y-130111379D01*
X113955499Y-130111379D01*
X113918973Y-129927749D01*
X113847322Y-129754769D01*
X113847321Y-129754768D01*
X113847318Y-129754762D01*
X113743302Y-129599092D01*
X113743299Y-129599088D01*
X113610911Y-129466700D01*
X113610907Y-129466697D01*
X113455237Y-129362681D01*
X113455228Y-129362676D01*
X113282251Y-129291027D01*
X113282243Y-129291025D01*
X113098620Y-129254500D01*
X113098616Y-129254500D01*
X112911384Y-129254500D01*
X112911379Y-129254500D01*
X112727756Y-129291025D01*
X112727748Y-129291027D01*
X112554771Y-129362676D01*
X112554762Y-129362681D01*
X112399092Y-129466697D01*
X112399088Y-129466700D01*
X112266700Y-129599088D01*
X112266697Y-129599092D01*
X112162681Y-129754762D01*
X112162676Y-129754771D01*
X112091027Y-129927748D01*
X112091025Y-129927756D01*
X112054500Y-130111379D01*
X111415499Y-130111379D01*
X111378973Y-129927749D01*
X111307322Y-129754769D01*
X111307321Y-129754768D01*
X111307318Y-129754762D01*
X111203302Y-129599092D01*
X111203299Y-129599088D01*
X111070911Y-129466700D01*
X111070907Y-129466697D01*
X110915237Y-129362681D01*
X110915228Y-129362676D01*
X110742251Y-129291027D01*
X110742243Y-129291025D01*
X110558620Y-129254500D01*
X110558616Y-129254500D01*
X110371384Y-129254500D01*
X110371379Y-129254500D01*
X110187756Y-129291025D01*
X110187748Y-129291027D01*
X110014771Y-129362676D01*
X110014762Y-129362681D01*
X109859092Y-129466697D01*
X109859088Y-129466700D01*
X109726700Y-129599088D01*
X109726697Y-129599092D01*
X109622681Y-129754762D01*
X109622676Y-129754771D01*
X109551027Y-129927748D01*
X109551025Y-129927756D01*
X109514500Y-130111379D01*
X108875499Y-130111379D01*
X108838973Y-129927749D01*
X108767322Y-129754769D01*
X108767321Y-129754768D01*
X108767318Y-129754762D01*
X108663302Y-129599092D01*
X108663299Y-129599088D01*
X108530911Y-129466700D01*
X108530907Y-129466697D01*
X108375237Y-129362681D01*
X108375228Y-129362676D01*
X108202251Y-129291027D01*
X108202243Y-129291025D01*
X108018620Y-129254500D01*
X108018616Y-129254500D01*
X107831384Y-129254500D01*
X107831379Y-129254500D01*
X107647756Y-129291025D01*
X107647748Y-129291027D01*
X107474771Y-129362676D01*
X107474762Y-129362681D01*
X107319092Y-129466697D01*
X107319088Y-129466700D01*
X107186700Y-129599088D01*
X107186697Y-129599092D01*
X107082681Y-129754762D01*
X107082676Y-129754771D01*
X107011027Y-129927748D01*
X107011025Y-129927756D01*
X106974500Y-130111379D01*
X106335499Y-130111379D01*
X106298973Y-129927749D01*
X106227322Y-129754769D01*
X106227321Y-129754768D01*
X106227318Y-129754762D01*
X106123302Y-129599092D01*
X106123299Y-129599088D01*
X105990911Y-129466700D01*
X105990907Y-129466697D01*
X105835237Y-129362681D01*
X105835228Y-129362676D01*
X105662251Y-129291027D01*
X105662243Y-129291025D01*
X105478620Y-129254500D01*
X105478616Y-129254500D01*
X105291384Y-129254500D01*
X105291379Y-129254500D01*
X105107756Y-129291025D01*
X105107748Y-129291027D01*
X104934771Y-129362676D01*
X104934762Y-129362681D01*
X104779092Y-129466697D01*
X104779088Y-129466700D01*
X104646700Y-129599088D01*
X104646697Y-129599092D01*
X104542681Y-129754762D01*
X104542676Y-129754771D01*
X104471027Y-129927748D01*
X104471025Y-129927756D01*
X104434500Y-130111379D01*
X100250500Y-130111379D01*
X100250500Y-126447273D01*
X119609500Y-126447273D01*
X119609500Y-126552727D01*
X119636793Y-126654587D01*
X119689520Y-126745913D01*
X119764087Y-126820480D01*
X119855413Y-126873207D01*
X119957273Y-126900500D01*
X119957275Y-126900500D01*
X120062725Y-126900500D01*
X120062727Y-126900500D01*
X120164587Y-126873207D01*
X120244147Y-126827273D01*
X123579500Y-126827273D01*
X123579500Y-126932727D01*
X123606793Y-127034587D01*
X123659520Y-127125913D01*
X123734087Y-127200480D01*
X123825413Y-127253207D01*
X123927273Y-127280500D01*
X123927275Y-127280500D01*
X124032725Y-127280500D01*
X124032727Y-127280500D01*
X124134587Y-127253207D01*
X124225913Y-127200480D01*
X124300480Y-127125913D01*
X124353207Y-127034587D01*
X124380500Y-126932727D01*
X124380500Y-126827273D01*
X124353207Y-126725413D01*
X124300480Y-126634087D01*
X124225913Y-126559520D01*
X124134587Y-126506793D01*
X124032727Y-126479500D01*
X123927273Y-126479500D01*
X123825413Y-126506793D01*
X123825410Y-126506794D01*
X123734085Y-126559521D01*
X123659521Y-126634085D01*
X123606794Y-126725410D01*
X123606793Y-126725413D01*
X123579500Y-126827273D01*
X120244147Y-126827273D01*
X120255913Y-126820480D01*
X120330480Y-126745913D01*
X120383207Y-126654587D01*
X120410500Y-126552727D01*
X120410500Y-126447273D01*
X120383207Y-126345413D01*
X120330480Y-126254087D01*
X120255913Y-126179520D01*
X120164587Y-126126793D01*
X120062727Y-126099500D01*
X119957273Y-126099500D01*
X119855413Y-126126793D01*
X119855410Y-126126794D01*
X119764085Y-126179521D01*
X119689521Y-126254085D01*
X119636794Y-126345410D01*
X119636793Y-126345413D01*
X119609500Y-126447273D01*
X100250500Y-126447273D01*
X100250500Y-124947273D01*
X108149500Y-124947273D01*
X108149500Y-125052727D01*
X108176793Y-125154587D01*
X108229520Y-125245913D01*
X108304087Y-125320480D01*
X108395413Y-125373207D01*
X108497273Y-125400500D01*
X108497275Y-125400500D01*
X108602725Y-125400500D01*
X108602727Y-125400500D01*
X108704587Y-125373207D01*
X108795913Y-125320480D01*
X108870480Y-125245913D01*
X108923207Y-125154587D01*
X108950500Y-125052727D01*
X108950500Y-124947273D01*
X112849500Y-124947273D01*
X112849500Y-125052727D01*
X112876793Y-125154587D01*
X112929520Y-125245913D01*
X113004087Y-125320480D01*
X113095413Y-125373207D01*
X113197273Y-125400500D01*
X113197275Y-125400500D01*
X113302725Y-125400500D01*
X113302727Y-125400500D01*
X113404587Y-125373207D01*
X113495913Y-125320480D01*
X113570480Y-125245913D01*
X113620444Y-125159373D01*
X116821600Y-125159373D01*
X116821600Y-125264827D01*
X116848893Y-125366687D01*
X116901620Y-125458013D01*
X116976187Y-125532580D01*
X117067513Y-125585307D01*
X117169373Y-125612600D01*
X117169375Y-125612600D01*
X117274825Y-125612600D01*
X117274827Y-125612600D01*
X117376687Y-125585307D01*
X117468013Y-125532580D01*
X117542580Y-125458013D01*
X117595307Y-125366687D01*
X117622600Y-125264827D01*
X117622600Y-125159373D01*
X117595307Y-125057513D01*
X117542580Y-124966187D01*
X117523666Y-124947273D01*
X119119500Y-124947273D01*
X119119500Y-125052727D01*
X119146793Y-125154587D01*
X119199520Y-125245913D01*
X119274087Y-125320480D01*
X119365413Y-125373207D01*
X119467273Y-125400500D01*
X119467275Y-125400500D01*
X119572725Y-125400500D01*
X119572727Y-125400500D01*
X119674587Y-125373207D01*
X119765913Y-125320480D01*
X119840480Y-125245913D01*
X119893207Y-125154587D01*
X119920500Y-125052727D01*
X119920500Y-124947273D01*
X119893207Y-124845413D01*
X119884293Y-124829973D01*
X124525100Y-124829973D01*
X124525100Y-124935427D01*
X124552393Y-125037287D01*
X124605120Y-125128613D01*
X124679687Y-125203180D01*
X124771013Y-125255907D01*
X124872873Y-125283200D01*
X124872875Y-125283200D01*
X124978325Y-125283200D01*
X124978327Y-125283200D01*
X125080187Y-125255907D01*
X125171513Y-125203180D01*
X125246080Y-125128613D01*
X125298807Y-125037287D01*
X125326100Y-124935427D01*
X125326100Y-124829973D01*
X125298807Y-124728113D01*
X125246080Y-124636787D01*
X125171513Y-124562220D01*
X125080187Y-124509493D01*
X124997260Y-124487273D01*
X128099500Y-124487273D01*
X128099500Y-124592727D01*
X128126793Y-124694587D01*
X128179520Y-124785913D01*
X128254087Y-124860480D01*
X128345413Y-124913207D01*
X128447273Y-124940500D01*
X128447275Y-124940500D01*
X128552725Y-124940500D01*
X128552727Y-124940500D01*
X128654587Y-124913207D01*
X128745913Y-124860480D01*
X128820480Y-124785913D01*
X128873207Y-124694587D01*
X128900500Y-124592727D01*
X128900500Y-124487273D01*
X128873207Y-124385413D01*
X128820480Y-124294087D01*
X128745913Y-124219520D01*
X128679059Y-124180922D01*
X128654589Y-124166794D01*
X128654588Y-124166793D01*
X128654587Y-124166793D01*
X128552727Y-124139500D01*
X128447273Y-124139500D01*
X128345413Y-124166793D01*
X128345410Y-124166794D01*
X128254085Y-124219521D01*
X128179521Y-124294085D01*
X128126794Y-124385410D01*
X128126793Y-124385413D01*
X128099500Y-124487273D01*
X124997260Y-124487273D01*
X124978327Y-124482200D01*
X124872873Y-124482200D01*
X124771013Y-124509493D01*
X124771010Y-124509494D01*
X124679685Y-124562221D01*
X124605121Y-124636785D01*
X124552394Y-124728110D01*
X124552393Y-124728113D01*
X124525100Y-124829973D01*
X119884293Y-124829973D01*
X119840480Y-124754087D01*
X119765913Y-124679520D01*
X119674587Y-124626793D01*
X119572727Y-124599500D01*
X119467273Y-124599500D01*
X119365413Y-124626793D01*
X119365410Y-124626794D01*
X119274085Y-124679521D01*
X119199521Y-124754085D01*
X119146794Y-124845410D01*
X119146793Y-124845413D01*
X119119500Y-124947273D01*
X117523666Y-124947273D01*
X117468013Y-124891620D01*
X117376687Y-124838893D01*
X117274827Y-124811600D01*
X117169373Y-124811600D01*
X117067513Y-124838893D01*
X117067510Y-124838894D01*
X116976185Y-124891621D01*
X116901621Y-124966185D01*
X116848894Y-125057510D01*
X116848893Y-125057513D01*
X116821600Y-125159373D01*
X113620444Y-125159373D01*
X113623207Y-125154587D01*
X113650500Y-125052727D01*
X113650500Y-124947273D01*
X113623207Y-124845413D01*
X113570480Y-124754087D01*
X113495913Y-124679520D01*
X113404587Y-124626793D01*
X113302727Y-124599500D01*
X113197273Y-124599500D01*
X113095413Y-124626793D01*
X113095410Y-124626794D01*
X113004085Y-124679521D01*
X112929521Y-124754085D01*
X112876794Y-124845410D01*
X112876793Y-124845413D01*
X112849500Y-124947273D01*
X108950500Y-124947273D01*
X108923207Y-124845413D01*
X108870480Y-124754087D01*
X108795913Y-124679520D01*
X108704587Y-124626793D01*
X108602727Y-124599500D01*
X108497273Y-124599500D01*
X108395413Y-124626793D01*
X108395410Y-124626794D01*
X108304085Y-124679521D01*
X108229521Y-124754085D01*
X108176794Y-124845410D01*
X108176793Y-124845413D01*
X108149500Y-124947273D01*
X100250500Y-124947273D01*
X100250500Y-121947273D01*
X109079500Y-121947273D01*
X109079500Y-122052727D01*
X109106793Y-122154587D01*
X109159520Y-122245913D01*
X109234087Y-122320480D01*
X109325413Y-122373207D01*
X109427273Y-122400500D01*
X109427275Y-122400500D01*
X109532725Y-122400500D01*
X109532727Y-122400500D01*
X109634587Y-122373207D01*
X109725913Y-122320480D01*
X109800480Y-122245913D01*
X109853207Y-122154587D01*
X109880500Y-122052727D01*
X109880500Y-121947273D01*
X109853207Y-121845413D01*
X109800480Y-121754087D01*
X109725913Y-121679520D01*
X109634587Y-121626793D01*
X109532727Y-121599500D01*
X109427273Y-121599500D01*
X109325413Y-121626793D01*
X109325410Y-121626794D01*
X109234085Y-121679521D01*
X109159521Y-121754085D01*
X109106794Y-121845410D01*
X109106793Y-121845413D01*
X109079500Y-121947273D01*
X100250500Y-121947273D01*
X100250500Y-121447273D01*
X112599500Y-121447273D01*
X112599500Y-121552727D01*
X112626793Y-121654587D01*
X112679520Y-121745913D01*
X112754087Y-121820480D01*
X112845413Y-121873207D01*
X112947273Y-121900500D01*
X112947275Y-121900500D01*
X113052725Y-121900500D01*
X113052727Y-121900500D01*
X113154587Y-121873207D01*
X113245913Y-121820480D01*
X113320480Y-121745913D01*
X113373207Y-121654587D01*
X113400500Y-121552727D01*
X113400500Y-121447273D01*
X120949500Y-121447273D01*
X120949500Y-121552727D01*
X120976793Y-121654587D01*
X121029520Y-121745913D01*
X121104087Y-121820480D01*
X121195413Y-121873207D01*
X121297273Y-121900500D01*
X121297275Y-121900500D01*
X121402724Y-121900500D01*
X121402727Y-121900500D01*
X121418408Y-121896298D01*
X121488256Y-121897961D01*
X121546118Y-121937123D01*
X121573623Y-122001351D01*
X121574500Y-122016073D01*
X121574500Y-122834894D01*
X121574501Y-122834902D01*
X121580330Y-122864212D01*
X121602542Y-122897457D01*
X121619219Y-122908599D01*
X121635787Y-122919669D01*
X121635790Y-122919669D01*
X121635791Y-122919670D01*
X121645647Y-122921630D01*
X121665101Y-122925500D01*
X121966701Y-122925499D01*
X122033739Y-122945183D01*
X122079494Y-122997987D01*
X122090700Y-123049499D01*
X122090700Y-123086827D01*
X122117993Y-123188687D01*
X122170720Y-123280013D01*
X122245287Y-123354580D01*
X122268729Y-123368114D01*
X122316944Y-123418680D01*
X122330167Y-123487287D01*
X122304199Y-123552152D01*
X122247285Y-123592680D01*
X122206728Y-123599500D01*
X122197273Y-123599500D01*
X122095413Y-123626793D01*
X122095410Y-123626794D01*
X122004085Y-123679521D01*
X121929522Y-123754084D01*
X121929520Y-123754086D01*
X121929520Y-123754087D01*
X121918430Y-123773294D01*
X121867866Y-123821507D01*
X121799258Y-123834729D01*
X121734394Y-123808761D01*
X121723365Y-123798972D01*
X121718714Y-123794321D01*
X121718713Y-123794320D01*
X121627387Y-123741593D01*
X121525527Y-123714300D01*
X121420073Y-123714300D01*
X121318213Y-123741593D01*
X121318210Y-123741594D01*
X121226885Y-123794321D01*
X121152321Y-123868885D01*
X121099594Y-123960210D01*
X121099593Y-123960213D01*
X121072300Y-124062073D01*
X121072300Y-124167527D01*
X121099593Y-124269387D01*
X121152320Y-124360713D01*
X121226887Y-124435280D01*
X121318213Y-124488007D01*
X121420073Y-124515300D01*
X121420075Y-124515300D01*
X121525525Y-124515300D01*
X121525527Y-124515300D01*
X121627387Y-124488007D01*
X121718713Y-124435280D01*
X121793280Y-124360713D01*
X121804368Y-124341506D01*
X121854928Y-124293295D01*
X121923535Y-124280069D01*
X121988401Y-124306034D01*
X121999434Y-124315827D01*
X122004087Y-124320480D01*
X122095413Y-124373207D01*
X122197273Y-124400500D01*
X122197275Y-124400500D01*
X122302725Y-124400500D01*
X122302727Y-124400500D01*
X122404587Y-124373207D01*
X122495913Y-124320480D01*
X122570480Y-124245913D01*
X122623207Y-124154587D01*
X122650500Y-124052727D01*
X122650500Y-123947273D01*
X122623207Y-123845413D01*
X122570480Y-123754087D01*
X122495913Y-123679520D01*
X122472470Y-123665985D01*
X122424256Y-123615420D01*
X122411033Y-123546813D01*
X122437001Y-123481948D01*
X122493915Y-123441420D01*
X122534472Y-123434600D01*
X122543925Y-123434600D01*
X122543927Y-123434600D01*
X122645787Y-123407307D01*
X122737113Y-123354580D01*
X122811680Y-123280013D01*
X122864407Y-123188687D01*
X122891700Y-123086827D01*
X122891700Y-123049499D01*
X122894250Y-123040813D01*
X122892962Y-123031852D01*
X122903940Y-123007811D01*
X122911385Y-122982460D01*
X122918225Y-122976532D01*
X122921987Y-122968296D01*
X122944221Y-122954006D01*
X122964189Y-122936705D01*
X122974703Y-122934417D01*
X122980765Y-122930522D01*
X123015700Y-122925499D01*
X123054500Y-122925499D01*
X123121539Y-122945184D01*
X123167294Y-122997988D01*
X123178500Y-123049499D01*
X123178500Y-123076427D01*
X123187898Y-123111499D01*
X123205793Y-123178286D01*
X123205794Y-123178289D01*
X123219922Y-123202759D01*
X123258520Y-123269613D01*
X123333087Y-123344180D01*
X123424413Y-123396907D01*
X123526273Y-123424200D01*
X123526275Y-123424200D01*
X123631725Y-123424200D01*
X123631727Y-123424200D01*
X123733587Y-123396907D01*
X123824913Y-123344180D01*
X123899480Y-123269613D01*
X123952207Y-123178287D01*
X123979500Y-123076427D01*
X123979500Y-123049499D01*
X123999185Y-122982460D01*
X124051989Y-122936705D01*
X124103500Y-122925499D01*
X125788986Y-122925499D01*
X125856025Y-122945184D01*
X125901780Y-122997988D01*
X125911724Y-123067146D01*
X125896373Y-123111499D01*
X125876794Y-123145410D01*
X125876793Y-123145413D01*
X125849500Y-123247273D01*
X125849500Y-123352727D01*
X125876793Y-123454587D01*
X125929520Y-123545913D01*
X126004087Y-123620480D01*
X126095413Y-123673207D01*
X126197273Y-123700500D01*
X126197275Y-123700500D01*
X126302725Y-123700500D01*
X126302727Y-123700500D01*
X126404587Y-123673207D01*
X126495913Y-123620480D01*
X126570480Y-123545913D01*
X126623207Y-123454587D01*
X126650500Y-123352727D01*
X126650500Y-123247273D01*
X126623207Y-123145413D01*
X126603627Y-123111499D01*
X126587154Y-123043598D01*
X126610007Y-122977572D01*
X126664928Y-122934381D01*
X126711014Y-122925499D01*
X127334895Y-122925499D01*
X127334898Y-122925499D01*
X127364213Y-122919669D01*
X127397457Y-122897457D01*
X127419669Y-122864213D01*
X127425500Y-122834899D01*
X127425499Y-117165102D01*
X127419669Y-117135787D01*
X127419668Y-117135785D01*
X127397457Y-117102542D01*
X127364214Y-117080332D01*
X127364215Y-117080332D01*
X127364213Y-117080331D01*
X127364211Y-117080330D01*
X127364208Y-117080329D01*
X127334901Y-117074500D01*
X121665105Y-117074500D01*
X121665097Y-117074501D01*
X121635787Y-117080330D01*
X121602542Y-117102542D01*
X121580332Y-117135785D01*
X121580329Y-117135791D01*
X121574500Y-117165098D01*
X121574500Y-118475500D01*
X121554815Y-118542539D01*
X121502011Y-118588294D01*
X121450500Y-118599500D01*
X121427273Y-118599500D01*
X121325413Y-118626793D01*
X121325410Y-118626794D01*
X121234085Y-118679521D01*
X121159521Y-118754085D01*
X121106794Y-118845410D01*
X121106793Y-118845413D01*
X121079500Y-118947273D01*
X121079500Y-119052727D01*
X121106793Y-119154587D01*
X121159520Y-119245913D01*
X121234087Y-119320480D01*
X121325413Y-119373207D01*
X121427273Y-119400500D01*
X121427275Y-119400500D01*
X121450500Y-119400500D01*
X121517539Y-119420185D01*
X121563294Y-119472989D01*
X121574500Y-119524500D01*
X121574500Y-120983926D01*
X121554815Y-121050965D01*
X121502011Y-121096720D01*
X121432853Y-121106664D01*
X121418410Y-121103702D01*
X121411701Y-121101904D01*
X121402727Y-121099500D01*
X121297273Y-121099500D01*
X121195413Y-121126793D01*
X121195410Y-121126794D01*
X121104085Y-121179521D01*
X121029521Y-121254085D01*
X120976794Y-121345410D01*
X120976793Y-121345413D01*
X120949500Y-121447273D01*
X113400500Y-121447273D01*
X113373207Y-121345413D01*
X113320480Y-121254087D01*
X113245913Y-121179520D01*
X113154587Y-121126793D01*
X113052727Y-121099500D01*
X112947273Y-121099500D01*
X112845413Y-121126793D01*
X112845410Y-121126794D01*
X112754085Y-121179521D01*
X112679521Y-121254085D01*
X112626794Y-121345410D01*
X112626793Y-121345413D01*
X112599500Y-121447273D01*
X100250500Y-121447273D01*
X100250500Y-120447273D01*
X109059500Y-120447273D01*
X109059500Y-120552727D01*
X109086793Y-120654587D01*
X109139520Y-120745913D01*
X109214087Y-120820480D01*
X109305413Y-120873207D01*
X109407273Y-120900500D01*
X109407275Y-120900500D01*
X109512725Y-120900500D01*
X109512727Y-120900500D01*
X109614587Y-120873207D01*
X109705913Y-120820480D01*
X109780480Y-120745913D01*
X109833207Y-120654587D01*
X109860500Y-120552727D01*
X109860500Y-120497273D01*
X114874500Y-120497273D01*
X114874500Y-120602727D01*
X114888396Y-120654586D01*
X114901793Y-120704586D01*
X114901794Y-120704589D01*
X114902559Y-120705914D01*
X114954520Y-120795913D01*
X115029087Y-120870480D01*
X115120413Y-120923207D01*
X115222273Y-120950500D01*
X115222275Y-120950500D01*
X115327725Y-120950500D01*
X115327727Y-120950500D01*
X115429587Y-120923207D01*
X115520913Y-120870480D01*
X115595480Y-120795913D01*
X115648207Y-120704587D01*
X115675500Y-120602727D01*
X115675500Y-120497273D01*
X115648207Y-120395413D01*
X115595480Y-120304087D01*
X115520913Y-120229520D01*
X115434312Y-120179521D01*
X115429589Y-120176794D01*
X115429588Y-120176793D01*
X115429587Y-120176793D01*
X115327727Y-120149500D01*
X115222273Y-120149500D01*
X115120413Y-120176793D01*
X115120410Y-120176794D01*
X115029085Y-120229521D01*
X114954521Y-120304085D01*
X114901794Y-120395410D01*
X114901793Y-120395413D01*
X114874500Y-120497273D01*
X109860500Y-120497273D01*
X109860500Y-120447273D01*
X109833207Y-120345413D01*
X109780480Y-120254087D01*
X109705913Y-120179520D01*
X109614587Y-120126793D01*
X109512727Y-120099500D01*
X109407273Y-120099500D01*
X109305413Y-120126793D01*
X109305410Y-120126794D01*
X109214085Y-120179521D01*
X109139521Y-120254085D01*
X109086794Y-120345410D01*
X109086793Y-120345413D01*
X109059500Y-120447273D01*
X100250500Y-120447273D01*
X100250500Y-117947273D01*
X107574500Y-117947273D01*
X107574500Y-118052727D01*
X107601793Y-118154587D01*
X107654520Y-118245913D01*
X107729087Y-118320480D01*
X107820413Y-118373207D01*
X107922273Y-118400500D01*
X107922275Y-118400500D01*
X108027725Y-118400500D01*
X108027727Y-118400500D01*
X108129587Y-118373207D01*
X108220913Y-118320480D01*
X108295480Y-118245913D01*
X108348207Y-118154587D01*
X108375500Y-118052727D01*
X108375500Y-117947273D01*
X108348207Y-117845413D01*
X108295480Y-117754087D01*
X108220913Y-117679520D01*
X108129587Y-117626793D01*
X108027727Y-117599500D01*
X107922273Y-117599500D01*
X107820413Y-117626793D01*
X107820410Y-117626794D01*
X107729085Y-117679521D01*
X107654521Y-117754085D01*
X107601794Y-117845410D01*
X107601793Y-117845413D01*
X107574500Y-117947273D01*
X100250500Y-117947273D01*
X100250500Y-117497273D01*
X112899500Y-117497273D01*
X112899500Y-117602727D01*
X112926793Y-117704587D01*
X112979520Y-117795913D01*
X113054087Y-117870480D01*
X113145413Y-117923207D01*
X113247273Y-117950500D01*
X113247275Y-117950500D01*
X113352725Y-117950500D01*
X113352727Y-117950500D01*
X113454587Y-117923207D01*
X113545913Y-117870480D01*
X113620480Y-117795913D01*
X113673207Y-117704587D01*
X113700500Y-117602727D01*
X113700500Y-117497273D01*
X113673207Y-117395413D01*
X113620480Y-117304087D01*
X113545913Y-117229520D01*
X113454587Y-117176793D01*
X113352727Y-117149500D01*
X113247273Y-117149500D01*
X113145413Y-117176793D01*
X113145410Y-117176794D01*
X113054085Y-117229521D01*
X112979521Y-117304085D01*
X112926794Y-117395410D01*
X112926793Y-117395413D01*
X112899500Y-117497273D01*
X100250500Y-117497273D01*
X100250500Y-116897273D01*
X119237000Y-116897273D01*
X119237000Y-117002727D01*
X119263746Y-117102543D01*
X119264293Y-117104586D01*
X119264294Y-117104589D01*
X119265567Y-117106794D01*
X119317020Y-117195913D01*
X119391587Y-117270480D01*
X119482913Y-117323207D01*
X119584773Y-117350500D01*
X119584775Y-117350500D01*
X119690225Y-117350500D01*
X119690227Y-117350500D01*
X119792087Y-117323207D01*
X119883413Y-117270480D01*
X119957980Y-117195913D01*
X120010707Y-117104587D01*
X120038000Y-117002727D01*
X120038000Y-116897273D01*
X120010707Y-116795413D01*
X119957980Y-116704087D01*
X119883413Y-116629520D01*
X119792087Y-116576793D01*
X119690227Y-116549500D01*
X119584773Y-116549500D01*
X119482913Y-116576793D01*
X119482910Y-116576794D01*
X119391585Y-116629521D01*
X119317021Y-116704085D01*
X119264294Y-116795410D01*
X119264293Y-116795413D01*
X119237000Y-116897273D01*
X100250500Y-116897273D01*
X100250500Y-116467273D01*
X128079500Y-116467273D01*
X128079500Y-116572727D01*
X128106793Y-116674587D01*
X128159520Y-116765913D01*
X128234087Y-116840480D01*
X128325413Y-116893207D01*
X128427273Y-116920500D01*
X128427275Y-116920500D01*
X128532725Y-116920500D01*
X128532727Y-116920500D01*
X128634587Y-116893207D01*
X128725913Y-116840480D01*
X128800480Y-116765913D01*
X128853207Y-116674587D01*
X128880500Y-116572727D01*
X128880500Y-116467273D01*
X128853207Y-116365413D01*
X128800480Y-116274087D01*
X128725913Y-116199520D01*
X128634587Y-116146793D01*
X128532727Y-116119500D01*
X128427273Y-116119500D01*
X128325413Y-116146793D01*
X128325410Y-116146794D01*
X128234085Y-116199521D01*
X128159521Y-116274085D01*
X128106794Y-116365410D01*
X128106793Y-116365413D01*
X128079500Y-116467273D01*
X100250500Y-116467273D01*
X100250500Y-114712073D01*
X105376700Y-114712073D01*
X105376700Y-114817527D01*
X105403993Y-114919387D01*
X105456720Y-115010713D01*
X105531287Y-115085280D01*
X105622613Y-115138007D01*
X105724473Y-115165300D01*
X105724475Y-115165300D01*
X105829925Y-115165300D01*
X105829927Y-115165300D01*
X105931787Y-115138007D01*
X106023113Y-115085280D01*
X106097680Y-115010713D01*
X106150407Y-114919387D01*
X106177700Y-114817527D01*
X106177700Y-114712073D01*
X107276700Y-114712073D01*
X107276700Y-114817527D01*
X107303993Y-114919387D01*
X107356720Y-115010713D01*
X107431287Y-115085280D01*
X107522613Y-115138007D01*
X107624473Y-115165300D01*
X107624475Y-115165300D01*
X107729925Y-115165300D01*
X107729927Y-115165300D01*
X107831787Y-115138007D01*
X107923113Y-115085280D01*
X107997680Y-115010713D01*
X108005440Y-114997273D01*
X119737000Y-114997273D01*
X119737000Y-115102727D01*
X119764293Y-115204587D01*
X119817020Y-115295913D01*
X119891587Y-115370480D01*
X119982913Y-115423207D01*
X120084773Y-115450500D01*
X120084775Y-115450500D01*
X120190225Y-115450500D01*
X120190227Y-115450500D01*
X120292087Y-115423207D01*
X120383413Y-115370480D01*
X120457980Y-115295913D01*
X120510707Y-115204587D01*
X120538000Y-115102727D01*
X120538000Y-114997273D01*
X120510707Y-114895413D01*
X120457980Y-114804087D01*
X120383413Y-114729520D01*
X120292087Y-114676793D01*
X120190227Y-114649500D01*
X120084773Y-114649500D01*
X119982913Y-114676793D01*
X119982910Y-114676794D01*
X119891585Y-114729521D01*
X119817021Y-114804085D01*
X119764294Y-114895410D01*
X119764293Y-114895413D01*
X119737000Y-114997273D01*
X108005440Y-114997273D01*
X108050407Y-114919387D01*
X108077700Y-114817527D01*
X108077700Y-114712073D01*
X108050407Y-114610213D01*
X107997680Y-114518887D01*
X107923113Y-114444320D01*
X107831787Y-114391593D01*
X107729927Y-114364300D01*
X107624473Y-114364300D01*
X107522613Y-114391593D01*
X107522610Y-114391594D01*
X107431285Y-114444321D01*
X107356721Y-114518885D01*
X107303994Y-114610210D01*
X107303993Y-114610213D01*
X107276700Y-114712073D01*
X106177700Y-114712073D01*
X106150407Y-114610213D01*
X106097680Y-114518887D01*
X106023113Y-114444320D01*
X105931787Y-114391593D01*
X105829927Y-114364300D01*
X105724473Y-114364300D01*
X105622613Y-114391593D01*
X105622610Y-114391594D01*
X105531285Y-114444321D01*
X105456721Y-114518885D01*
X105403994Y-114610210D01*
X105403993Y-114610213D01*
X105376700Y-114712073D01*
X100250500Y-114712073D01*
X100250500Y-114347273D01*
X126099500Y-114347273D01*
X126099500Y-114452727D01*
X126126793Y-114554587D01*
X126179520Y-114645913D01*
X126254087Y-114720480D01*
X126345413Y-114773207D01*
X126447273Y-114800500D01*
X126447275Y-114800500D01*
X126552725Y-114800500D01*
X126552727Y-114800500D01*
X126654587Y-114773207D01*
X126745913Y-114720480D01*
X126820480Y-114645913D01*
X126873207Y-114554587D01*
X126900500Y-114452727D01*
X126900500Y-114347273D01*
X126873207Y-114245413D01*
X126820480Y-114154087D01*
X126745913Y-114079520D01*
X126654587Y-114026793D01*
X126552727Y-113999500D01*
X126447273Y-113999500D01*
X126345413Y-114026793D01*
X126345410Y-114026794D01*
X126254085Y-114079521D01*
X126179521Y-114154085D01*
X126126794Y-114245410D01*
X126126793Y-114245413D01*
X126099500Y-114347273D01*
X100250500Y-114347273D01*
X100250500Y-113182473D01*
X104822300Y-113182473D01*
X104822300Y-113287927D01*
X104849593Y-113389787D01*
X104902320Y-113481113D01*
X104976887Y-113555680D01*
X105068213Y-113608407D01*
X105170073Y-113635700D01*
X105170075Y-113635700D01*
X105275525Y-113635700D01*
X105275527Y-113635700D01*
X105377387Y-113608407D01*
X105468713Y-113555680D01*
X105543280Y-113481113D01*
X105596007Y-113389787D01*
X105623300Y-113287927D01*
X105623300Y-113182473D01*
X106722300Y-113182473D01*
X106722300Y-113287927D01*
X106749593Y-113389787D01*
X106802320Y-113481113D01*
X106876887Y-113555680D01*
X106968213Y-113608407D01*
X107070073Y-113635700D01*
X107070075Y-113635700D01*
X107175525Y-113635700D01*
X107175527Y-113635700D01*
X107256614Y-113613973D01*
X123828900Y-113613973D01*
X123828900Y-113719427D01*
X123856193Y-113821287D01*
X123908920Y-113912613D01*
X123983487Y-113987180D01*
X124074813Y-114039907D01*
X124176673Y-114067200D01*
X124176675Y-114067200D01*
X124282125Y-114067200D01*
X124282127Y-114067200D01*
X124383987Y-114039907D01*
X124475313Y-113987180D01*
X124549880Y-113912613D01*
X124602607Y-113821287D01*
X124629900Y-113719427D01*
X124629900Y-113613973D01*
X124602607Y-113512113D01*
X124549880Y-113420787D01*
X124475313Y-113346220D01*
X124383987Y-113293493D01*
X124282127Y-113266200D01*
X124176673Y-113266200D01*
X124074813Y-113293493D01*
X124074810Y-113293494D01*
X123983485Y-113346221D01*
X123908921Y-113420785D01*
X123856194Y-113512110D01*
X123856193Y-113512113D01*
X123828900Y-113613973D01*
X107256614Y-113613973D01*
X107277387Y-113608407D01*
X107368713Y-113555680D01*
X107443280Y-113481113D01*
X107496007Y-113389787D01*
X107523300Y-113287927D01*
X107523300Y-113182473D01*
X107496007Y-113080613D01*
X107443280Y-112989287D01*
X107368713Y-112914720D01*
X107277387Y-112861993D01*
X107175527Y-112834700D01*
X107070073Y-112834700D01*
X106968213Y-112861993D01*
X106968210Y-112861994D01*
X106876885Y-112914721D01*
X106802321Y-112989285D01*
X106749594Y-113080610D01*
X106749593Y-113080613D01*
X106722300Y-113182473D01*
X105623300Y-113182473D01*
X105596007Y-113080613D01*
X105543280Y-112989287D01*
X105468713Y-112914720D01*
X105377387Y-112861993D01*
X105275527Y-112834700D01*
X105170073Y-112834700D01*
X105068213Y-112861993D01*
X105068210Y-112861994D01*
X104976885Y-112914721D01*
X104902321Y-112989285D01*
X104849594Y-113080610D01*
X104849593Y-113080613D01*
X104822300Y-113182473D01*
X100250500Y-113182473D01*
X100250500Y-111868273D01*
X114970700Y-111868273D01*
X114970700Y-111973727D01*
X114997993Y-112075587D01*
X115050720Y-112166913D01*
X115125287Y-112241480D01*
X115216613Y-112294207D01*
X115253873Y-112304190D01*
X115313533Y-112340555D01*
X115344062Y-112403402D01*
X115335767Y-112472777D01*
X115309462Y-112511645D01*
X115289220Y-112531887D01*
X115236494Y-112623210D01*
X115236493Y-112623213D01*
X115209200Y-112725073D01*
X115209200Y-112830527D01*
X115236493Y-112932387D01*
X115289220Y-113023713D01*
X115363787Y-113098280D01*
X115455113Y-113151007D01*
X115556973Y-113178300D01*
X115556975Y-113178300D01*
X115662425Y-113178300D01*
X115662427Y-113178300D01*
X115764287Y-113151007D01*
X115855613Y-113098280D01*
X115930180Y-113023713D01*
X115982907Y-112932387D01*
X116010200Y-112830527D01*
X116010200Y-112725073D01*
X115982907Y-112623213D01*
X115930180Y-112531887D01*
X115855613Y-112457320D01*
X115764287Y-112404593D01*
X115764286Y-112404592D01*
X115764282Y-112404591D01*
X115727025Y-112394608D01*
X115667365Y-112358243D01*
X115636837Y-112295396D01*
X115645132Y-112226020D01*
X115671435Y-112187157D01*
X115691680Y-112166913D01*
X115744407Y-112075587D01*
X115771700Y-111973727D01*
X115771700Y-111868273D01*
X115744407Y-111766413D01*
X115691680Y-111675087D01*
X115617113Y-111600520D01*
X115525787Y-111547793D01*
X115423927Y-111520500D01*
X115318473Y-111520500D01*
X115216613Y-111547793D01*
X115216610Y-111547794D01*
X115125285Y-111600521D01*
X115050721Y-111675085D01*
X114997994Y-111766410D01*
X114997993Y-111766413D01*
X114970700Y-111868273D01*
X100250500Y-111868273D01*
X100250500Y-111280573D01*
X123848900Y-111280573D01*
X123848900Y-111386027D01*
X123876193Y-111487887D01*
X123928920Y-111579213D01*
X124003487Y-111653780D01*
X124094813Y-111706507D01*
X124196673Y-111733800D01*
X124196675Y-111733800D01*
X124302125Y-111733800D01*
X124302127Y-111733800D01*
X124403987Y-111706507D01*
X124495313Y-111653780D01*
X124569880Y-111579213D01*
X124622607Y-111487887D01*
X124649900Y-111386027D01*
X124649900Y-111280573D01*
X124622607Y-111178713D01*
X124569880Y-111087387D01*
X124495313Y-111012820D01*
X124403987Y-110960093D01*
X124302127Y-110932800D01*
X124196673Y-110932800D01*
X124094813Y-110960093D01*
X124094810Y-110960094D01*
X124003485Y-111012821D01*
X123928921Y-111087385D01*
X123876194Y-111178710D01*
X123876193Y-111178713D01*
X123848900Y-111280573D01*
X100250500Y-111280573D01*
X100250500Y-110447273D01*
X110059500Y-110447273D01*
X110059500Y-110552727D01*
X110086793Y-110654587D01*
X110139520Y-110745913D01*
X110214087Y-110820480D01*
X110305413Y-110873207D01*
X110407273Y-110900500D01*
X110407275Y-110900500D01*
X110512725Y-110900500D01*
X110512727Y-110900500D01*
X110614587Y-110873207D01*
X110705913Y-110820480D01*
X110780480Y-110745913D01*
X110833207Y-110654587D01*
X110860500Y-110552727D01*
X110860500Y-110447273D01*
X110833207Y-110345413D01*
X110794040Y-110277573D01*
X114698100Y-110277573D01*
X114698100Y-110383027D01*
X114725393Y-110484887D01*
X114778120Y-110576213D01*
X114852687Y-110650780D01*
X114944013Y-110703507D01*
X115045873Y-110730800D01*
X115045875Y-110730800D01*
X115151325Y-110730800D01*
X115151327Y-110730800D01*
X115253187Y-110703507D01*
X115344513Y-110650780D01*
X115419080Y-110576213D01*
X115471807Y-110484887D01*
X115481886Y-110447273D01*
X121512000Y-110447273D01*
X121512000Y-110552727D01*
X121539293Y-110654587D01*
X121592020Y-110745913D01*
X121666587Y-110820480D01*
X121757913Y-110873207D01*
X121859773Y-110900500D01*
X121859775Y-110900500D01*
X121965225Y-110900500D01*
X121965227Y-110900500D01*
X122067087Y-110873207D01*
X122158413Y-110820480D01*
X122232980Y-110745913D01*
X122285707Y-110654587D01*
X122313000Y-110552727D01*
X122313000Y-110447273D01*
X122285707Y-110345413D01*
X122232980Y-110254087D01*
X122158413Y-110179520D01*
X122067087Y-110126793D01*
X121965227Y-110099500D01*
X121859773Y-110099500D01*
X121757913Y-110126793D01*
X121757910Y-110126794D01*
X121666585Y-110179521D01*
X121592021Y-110254085D01*
X121539294Y-110345410D01*
X121539293Y-110345413D01*
X121512000Y-110447273D01*
X115481886Y-110447273D01*
X115499100Y-110383027D01*
X115499100Y-110277573D01*
X115471807Y-110175713D01*
X115419080Y-110084387D01*
X115344513Y-110009820D01*
X115277659Y-109971222D01*
X115253189Y-109957094D01*
X115253188Y-109957093D01*
X115253187Y-109957093D01*
X115151327Y-109929800D01*
X115045873Y-109929800D01*
X114944013Y-109957093D01*
X114944010Y-109957094D01*
X114852685Y-110009821D01*
X114778121Y-110084385D01*
X114725394Y-110175710D01*
X114725393Y-110175713D01*
X114698100Y-110277573D01*
X110794040Y-110277573D01*
X110780480Y-110254087D01*
X110705913Y-110179520D01*
X110614587Y-110126793D01*
X110512727Y-110099500D01*
X110407273Y-110099500D01*
X110305413Y-110126793D01*
X110305410Y-110126794D01*
X110214085Y-110179521D01*
X110139521Y-110254085D01*
X110086794Y-110345410D01*
X110086793Y-110345413D01*
X110059500Y-110447273D01*
X100250500Y-110447273D01*
X100250500Y-109537073D01*
X126514200Y-109537073D01*
X126514200Y-109642527D01*
X126541493Y-109744387D01*
X126594220Y-109835713D01*
X126668787Y-109910280D01*
X126760113Y-109963007D01*
X126861973Y-109990300D01*
X126861975Y-109990300D01*
X126967425Y-109990300D01*
X126967427Y-109990300D01*
X127069287Y-109963007D01*
X127160613Y-109910280D01*
X127235180Y-109835713D01*
X127287907Y-109744387D01*
X127315200Y-109642527D01*
X127315200Y-109537073D01*
X127287907Y-109435213D01*
X127235180Y-109343887D01*
X127160613Y-109269320D01*
X127069287Y-109216593D01*
X126967427Y-109189300D01*
X126861973Y-109189300D01*
X126760113Y-109216593D01*
X126760110Y-109216594D01*
X126668785Y-109269321D01*
X126594221Y-109343885D01*
X126541494Y-109435210D01*
X126541493Y-109435213D01*
X126514200Y-109537073D01*
X100250500Y-109537073D01*
X100250500Y-108447273D01*
X113579500Y-108447273D01*
X113579500Y-108552727D01*
X113606793Y-108654587D01*
X113659520Y-108745913D01*
X113734087Y-108820480D01*
X113825413Y-108873207D01*
X113927273Y-108900500D01*
X113927275Y-108900500D01*
X114032725Y-108900500D01*
X114032727Y-108900500D01*
X114134587Y-108873207D01*
X114225913Y-108820480D01*
X114300480Y-108745913D01*
X114353207Y-108654587D01*
X114380500Y-108552727D01*
X114380500Y-108447273D01*
X114353207Y-108345413D01*
X114300480Y-108254087D01*
X114225913Y-108179520D01*
X114134587Y-108126793D01*
X114032727Y-108099500D01*
X113927273Y-108099500D01*
X113825413Y-108126793D01*
X113825410Y-108126794D01*
X113734085Y-108179521D01*
X113659521Y-108254085D01*
X113606794Y-108345410D01*
X113606793Y-108345413D01*
X113579500Y-108447273D01*
X100250500Y-108447273D01*
X100250500Y-107447273D01*
X116559500Y-107447273D01*
X116559500Y-107552727D01*
X116586793Y-107654587D01*
X116639520Y-107745913D01*
X116714087Y-107820480D01*
X116805413Y-107873207D01*
X116907273Y-107900500D01*
X116907275Y-107900500D01*
X117012725Y-107900500D01*
X117012727Y-107900500D01*
X117114587Y-107873207D01*
X117205913Y-107820480D01*
X117280480Y-107745913D01*
X117333207Y-107654587D01*
X117360500Y-107552727D01*
X117360500Y-107447273D01*
X117333207Y-107345413D01*
X117296003Y-107280973D01*
X126698900Y-107280973D01*
X126698900Y-107386427D01*
X126726193Y-107488287D01*
X126778920Y-107579613D01*
X126853487Y-107654180D01*
X126944813Y-107706907D01*
X127046673Y-107734200D01*
X127046675Y-107734200D01*
X127152125Y-107734200D01*
X127152127Y-107734200D01*
X127253987Y-107706907D01*
X127345313Y-107654180D01*
X127419880Y-107579613D01*
X127472607Y-107488287D01*
X127499900Y-107386427D01*
X127499900Y-107280973D01*
X127472607Y-107179113D01*
X127419880Y-107087787D01*
X127345313Y-107013220D01*
X127253987Y-106960493D01*
X127152127Y-106933200D01*
X127046673Y-106933200D01*
X126944813Y-106960493D01*
X126944810Y-106960494D01*
X126853485Y-107013221D01*
X126778921Y-107087785D01*
X126726194Y-107179110D01*
X126726193Y-107179113D01*
X126698900Y-107280973D01*
X117296003Y-107280973D01*
X117280480Y-107254087D01*
X117205913Y-107179520D01*
X117114587Y-107126793D01*
X117012727Y-107099500D01*
X116907273Y-107099500D01*
X116805413Y-107126793D01*
X116805410Y-107126794D01*
X116714085Y-107179521D01*
X116639521Y-107254085D01*
X116586794Y-107345410D01*
X116586793Y-107345413D01*
X116559500Y-107447273D01*
X100250500Y-107447273D01*
X100250500Y-104651379D01*
X104434500Y-104651379D01*
X104434500Y-104838620D01*
X104471025Y-105022243D01*
X104471027Y-105022251D01*
X104542676Y-105195228D01*
X104542681Y-105195237D01*
X104646697Y-105350907D01*
X104646700Y-105350911D01*
X104779088Y-105483299D01*
X104779092Y-105483302D01*
X104934762Y-105587318D01*
X104934768Y-105587321D01*
X104934769Y-105587322D01*
X105107749Y-105658973D01*
X105291379Y-105695499D01*
X105291383Y-105695500D01*
X105291384Y-105695500D01*
X105478617Y-105695500D01*
X105478618Y-105695499D01*
X105662251Y-105658973D01*
X105835231Y-105587322D01*
X105990908Y-105483302D01*
X106123302Y-105350908D01*
X106227322Y-105195231D01*
X106298973Y-105022251D01*
X106335500Y-104838616D01*
X106335500Y-104651384D01*
X106335499Y-104651379D01*
X106974500Y-104651379D01*
X106974500Y-104838620D01*
X107011025Y-105022243D01*
X107011027Y-105022251D01*
X107082676Y-105195228D01*
X107082681Y-105195237D01*
X107186697Y-105350907D01*
X107186700Y-105350911D01*
X107319088Y-105483299D01*
X107319092Y-105483302D01*
X107474762Y-105587318D01*
X107474768Y-105587321D01*
X107474769Y-105587322D01*
X107647749Y-105658973D01*
X107831379Y-105695499D01*
X107831383Y-105695500D01*
X107831384Y-105695500D01*
X108018617Y-105695500D01*
X108018618Y-105695499D01*
X108202251Y-105658973D01*
X108375231Y-105587322D01*
X108530908Y-105483302D01*
X108663302Y-105350908D01*
X108767322Y-105195231D01*
X108838973Y-105022251D01*
X108875500Y-104838616D01*
X108875500Y-104651384D01*
X108875499Y-104651379D01*
X109514500Y-104651379D01*
X109514500Y-104838620D01*
X109551025Y-105022243D01*
X109551027Y-105022251D01*
X109622676Y-105195228D01*
X109622681Y-105195237D01*
X109726697Y-105350907D01*
X109726700Y-105350911D01*
X109859088Y-105483299D01*
X109859092Y-105483302D01*
X110014762Y-105587318D01*
X110014768Y-105587321D01*
X110014769Y-105587322D01*
X110187749Y-105658973D01*
X110371379Y-105695499D01*
X110371383Y-105695500D01*
X110371384Y-105695500D01*
X110558617Y-105695500D01*
X110558618Y-105695499D01*
X110742251Y-105658973D01*
X110915231Y-105587322D01*
X111070908Y-105483302D01*
X111203302Y-105350908D01*
X111307322Y-105195231D01*
X111378973Y-105022251D01*
X111415500Y-104838616D01*
X111415500Y-104651384D01*
X111415499Y-104651379D01*
X112054500Y-104651379D01*
X112054500Y-104838620D01*
X112091025Y-105022243D01*
X112091027Y-105022251D01*
X112162676Y-105195228D01*
X112162681Y-105195237D01*
X112266697Y-105350907D01*
X112266700Y-105350911D01*
X112399088Y-105483299D01*
X112399092Y-105483302D01*
X112554762Y-105587318D01*
X112554768Y-105587321D01*
X112554769Y-105587322D01*
X112727749Y-105658973D01*
X112911379Y-105695499D01*
X112911383Y-105695500D01*
X112911384Y-105695500D01*
X113098617Y-105695500D01*
X113098618Y-105695499D01*
X113282251Y-105658973D01*
X113455231Y-105587322D01*
X113610908Y-105483302D01*
X113743302Y-105350908D01*
X113847322Y-105195231D01*
X113918973Y-105022251D01*
X113955500Y-104838616D01*
X113955500Y-104651384D01*
X113955499Y-104651379D01*
X114594500Y-104651379D01*
X114594500Y-104838620D01*
X114631025Y-105022243D01*
X114631027Y-105022251D01*
X114702676Y-105195228D01*
X114702681Y-105195237D01*
X114806697Y-105350907D01*
X114806700Y-105350911D01*
X114939088Y-105483299D01*
X114939092Y-105483302D01*
X115094762Y-105587318D01*
X115094768Y-105587321D01*
X115094769Y-105587322D01*
X115267749Y-105658973D01*
X115451379Y-105695499D01*
X115451383Y-105695500D01*
X115451384Y-105695500D01*
X115638617Y-105695500D01*
X115638618Y-105695499D01*
X115822251Y-105658973D01*
X115995231Y-105587322D01*
X116150908Y-105483302D01*
X116283302Y-105350908D01*
X116387322Y-105195231D01*
X116458973Y-105022251D01*
X116495500Y-104838616D01*
X116495500Y-104651384D01*
X116495499Y-104651379D01*
X117134500Y-104651379D01*
X117134500Y-104838620D01*
X117171025Y-105022243D01*
X117171027Y-105022251D01*
X117242676Y-105195228D01*
X117242681Y-105195237D01*
X117346697Y-105350907D01*
X117346700Y-105350911D01*
X117479088Y-105483299D01*
X117479092Y-105483302D01*
X117634762Y-105587318D01*
X117634768Y-105587321D01*
X117634769Y-105587322D01*
X117807749Y-105658973D01*
X117991379Y-105695499D01*
X117991383Y-105695500D01*
X117991384Y-105695500D01*
X118178617Y-105695500D01*
X118178618Y-105695499D01*
X118362251Y-105658973D01*
X118535231Y-105587322D01*
X118690908Y-105483302D01*
X118823302Y-105350908D01*
X118927322Y-105195231D01*
X118998973Y-105022251D01*
X119035500Y-104838616D01*
X119035500Y-104651384D01*
X119035499Y-104651379D01*
X119674500Y-104651379D01*
X119674500Y-104838620D01*
X119711025Y-105022243D01*
X119711027Y-105022251D01*
X119782676Y-105195228D01*
X119782681Y-105195237D01*
X119886697Y-105350907D01*
X119886700Y-105350911D01*
X120019088Y-105483299D01*
X120019092Y-105483302D01*
X120174762Y-105587318D01*
X120174768Y-105587321D01*
X120174769Y-105587322D01*
X120347749Y-105658973D01*
X120531379Y-105695499D01*
X120531383Y-105695500D01*
X120531384Y-105695500D01*
X120718617Y-105695500D01*
X120718618Y-105695499D01*
X120902251Y-105658973D01*
X121075231Y-105587322D01*
X121230908Y-105483302D01*
X121363302Y-105350908D01*
X121467322Y-105195231D01*
X121538973Y-105022251D01*
X121575500Y-104838616D01*
X121575500Y-104651384D01*
X121575499Y-104651379D01*
X122214500Y-104651379D01*
X122214500Y-104838620D01*
X122251025Y-105022243D01*
X122251027Y-105022251D01*
X122322676Y-105195228D01*
X122322681Y-105195237D01*
X122426697Y-105350907D01*
X122426700Y-105350911D01*
X122559088Y-105483299D01*
X122559092Y-105483302D01*
X122714762Y-105587318D01*
X122714768Y-105587321D01*
X122714769Y-105587322D01*
X122887749Y-105658973D01*
X123071379Y-105695499D01*
X123071383Y-105695500D01*
X123071384Y-105695500D01*
X123258617Y-105695500D01*
X123258618Y-105695499D01*
X123442251Y-105658973D01*
X123615231Y-105587322D01*
X123770908Y-105483302D01*
X123903302Y-105350908D01*
X124007322Y-105195231D01*
X124078973Y-105022251D01*
X124115500Y-104838616D01*
X124115500Y-104651384D01*
X124115499Y-104651379D01*
X124754500Y-104651379D01*
X124754500Y-104838620D01*
X124791025Y-105022243D01*
X124791027Y-105022251D01*
X124862676Y-105195228D01*
X124862681Y-105195237D01*
X124966697Y-105350907D01*
X124966700Y-105350911D01*
X125099088Y-105483299D01*
X125099092Y-105483302D01*
X125254762Y-105587318D01*
X125254768Y-105587321D01*
X125254769Y-105587322D01*
X125427749Y-105658973D01*
X125611379Y-105695499D01*
X125611383Y-105695500D01*
X125611384Y-105695500D01*
X125798617Y-105695500D01*
X125798618Y-105695499D01*
X125982251Y-105658973D01*
X126155231Y-105587322D01*
X126310908Y-105483302D01*
X126443302Y-105350908D01*
X126547322Y-105195231D01*
X126618973Y-105022251D01*
X126655500Y-104838616D01*
X126655500Y-104651384D01*
X126655499Y-104651379D01*
X127294500Y-104651379D01*
X127294500Y-104838620D01*
X127331025Y-105022243D01*
X127331027Y-105022251D01*
X127402676Y-105195228D01*
X127402681Y-105195237D01*
X127506697Y-105350907D01*
X127506700Y-105350911D01*
X127639088Y-105483299D01*
X127639092Y-105483302D01*
X127794762Y-105587318D01*
X127794768Y-105587321D01*
X127794769Y-105587322D01*
X127967749Y-105658973D01*
X128151379Y-105695499D01*
X128151383Y-105695500D01*
X128151384Y-105695500D01*
X128338617Y-105695500D01*
X128338618Y-105695499D01*
X128522251Y-105658973D01*
X128695231Y-105587322D01*
X128850908Y-105483302D01*
X128983302Y-105350908D01*
X129087322Y-105195231D01*
X129158973Y-105022251D01*
X129195500Y-104838616D01*
X129195500Y-104651384D01*
X129158973Y-104467749D01*
X129087322Y-104294769D01*
X129087321Y-104294768D01*
X129087318Y-104294762D01*
X128983302Y-104139092D01*
X128983299Y-104139088D01*
X128850911Y-104006700D01*
X128850907Y-104006697D01*
X128695237Y-103902681D01*
X128695228Y-103902676D01*
X128522251Y-103831027D01*
X128522243Y-103831025D01*
X128338620Y-103794500D01*
X128338616Y-103794500D01*
X128151384Y-103794500D01*
X128151379Y-103794500D01*
X127967756Y-103831025D01*
X127967748Y-103831027D01*
X127794771Y-103902676D01*
X127794762Y-103902681D01*
X127639092Y-104006697D01*
X127639088Y-104006700D01*
X127506700Y-104139088D01*
X127506697Y-104139092D01*
X127402681Y-104294762D01*
X127402676Y-104294771D01*
X127331027Y-104467748D01*
X127331025Y-104467756D01*
X127294500Y-104651379D01*
X126655499Y-104651379D01*
X126618973Y-104467749D01*
X126547322Y-104294769D01*
X126547321Y-104294768D01*
X126547318Y-104294762D01*
X126443302Y-104139092D01*
X126443299Y-104139088D01*
X126310911Y-104006700D01*
X126310907Y-104006697D01*
X126155237Y-103902681D01*
X126155228Y-103902676D01*
X125982251Y-103831027D01*
X125982243Y-103831025D01*
X125798620Y-103794500D01*
X125798616Y-103794500D01*
X125611384Y-103794500D01*
X125611379Y-103794500D01*
X125427756Y-103831025D01*
X125427748Y-103831027D01*
X125254771Y-103902676D01*
X125254762Y-103902681D01*
X125099092Y-104006697D01*
X125099088Y-104006700D01*
X124966700Y-104139088D01*
X124966697Y-104139092D01*
X124862681Y-104294762D01*
X124862676Y-104294771D01*
X124791027Y-104467748D01*
X124791025Y-104467756D01*
X124754500Y-104651379D01*
X124115499Y-104651379D01*
X124078973Y-104467749D01*
X124007322Y-104294769D01*
X124007321Y-104294768D01*
X124007318Y-104294762D01*
X123903302Y-104139092D01*
X123903299Y-104139088D01*
X123770911Y-104006700D01*
X123770907Y-104006697D01*
X123615237Y-103902681D01*
X123615228Y-103902676D01*
X123442251Y-103831027D01*
X123442243Y-103831025D01*
X123258620Y-103794500D01*
X123258616Y-103794500D01*
X123071384Y-103794500D01*
X123071379Y-103794500D01*
X122887756Y-103831025D01*
X122887748Y-103831027D01*
X122714771Y-103902676D01*
X122714762Y-103902681D01*
X122559092Y-104006697D01*
X122559088Y-104006700D01*
X122426700Y-104139088D01*
X122426697Y-104139092D01*
X122322681Y-104294762D01*
X122322676Y-104294771D01*
X122251027Y-104467748D01*
X122251025Y-104467756D01*
X122214500Y-104651379D01*
X121575499Y-104651379D01*
X121538973Y-104467749D01*
X121467322Y-104294769D01*
X121467321Y-104294768D01*
X121467318Y-104294762D01*
X121363302Y-104139092D01*
X121363299Y-104139088D01*
X121230911Y-104006700D01*
X121230907Y-104006697D01*
X121075237Y-103902681D01*
X121075228Y-103902676D01*
X120902251Y-103831027D01*
X120902243Y-103831025D01*
X120718620Y-103794500D01*
X120718616Y-103794500D01*
X120531384Y-103794500D01*
X120531379Y-103794500D01*
X120347756Y-103831025D01*
X120347748Y-103831027D01*
X120174771Y-103902676D01*
X120174762Y-103902681D01*
X120019092Y-104006697D01*
X120019088Y-104006700D01*
X119886700Y-104139088D01*
X119886697Y-104139092D01*
X119782681Y-104294762D01*
X119782676Y-104294771D01*
X119711027Y-104467748D01*
X119711025Y-104467756D01*
X119674500Y-104651379D01*
X119035499Y-104651379D01*
X118998973Y-104467749D01*
X118927322Y-104294769D01*
X118927321Y-104294768D01*
X118927318Y-104294762D01*
X118823302Y-104139092D01*
X118823299Y-104139088D01*
X118690911Y-104006700D01*
X118690907Y-104006697D01*
X118535237Y-103902681D01*
X118535228Y-103902676D01*
X118362251Y-103831027D01*
X118362243Y-103831025D01*
X118178620Y-103794500D01*
X118178616Y-103794500D01*
X117991384Y-103794500D01*
X117991379Y-103794500D01*
X117807756Y-103831025D01*
X117807748Y-103831027D01*
X117634771Y-103902676D01*
X117634762Y-103902681D01*
X117479092Y-104006697D01*
X117479088Y-104006700D01*
X117346700Y-104139088D01*
X117346697Y-104139092D01*
X117242681Y-104294762D01*
X117242676Y-104294771D01*
X117171027Y-104467748D01*
X117171025Y-104467756D01*
X117134500Y-104651379D01*
X116495499Y-104651379D01*
X116458973Y-104467749D01*
X116387322Y-104294769D01*
X116387321Y-104294768D01*
X116387318Y-104294762D01*
X116283302Y-104139092D01*
X116283299Y-104139088D01*
X116150911Y-104006700D01*
X116150907Y-104006697D01*
X115995237Y-103902681D01*
X115995228Y-103902676D01*
X115822251Y-103831027D01*
X115822243Y-103831025D01*
X115638620Y-103794500D01*
X115638616Y-103794500D01*
X115451384Y-103794500D01*
X115451379Y-103794500D01*
X115267756Y-103831025D01*
X115267748Y-103831027D01*
X115094771Y-103902676D01*
X115094762Y-103902681D01*
X114939092Y-104006697D01*
X114939088Y-104006700D01*
X114806700Y-104139088D01*
X114806697Y-104139092D01*
X114702681Y-104294762D01*
X114702676Y-104294771D01*
X114631027Y-104467748D01*
X114631025Y-104467756D01*
X114594500Y-104651379D01*
X113955499Y-104651379D01*
X113918973Y-104467749D01*
X113847322Y-104294769D01*
X113847321Y-104294768D01*
X113847318Y-104294762D01*
X113743302Y-104139092D01*
X113743299Y-104139088D01*
X113610911Y-104006700D01*
X113610907Y-104006697D01*
X113455237Y-103902681D01*
X113455228Y-103902676D01*
X113282251Y-103831027D01*
X113282243Y-103831025D01*
X113098620Y-103794500D01*
X113098616Y-103794500D01*
X112911384Y-103794500D01*
X112911379Y-103794500D01*
X112727756Y-103831025D01*
X112727748Y-103831027D01*
X112554771Y-103902676D01*
X112554762Y-103902681D01*
X112399092Y-104006697D01*
X112399088Y-104006700D01*
X112266700Y-104139088D01*
X112266697Y-104139092D01*
X112162681Y-104294762D01*
X112162676Y-104294771D01*
X112091027Y-104467748D01*
X112091025Y-104467756D01*
X112054500Y-104651379D01*
X111415499Y-104651379D01*
X111378973Y-104467749D01*
X111307322Y-104294769D01*
X111307321Y-104294768D01*
X111307318Y-104294762D01*
X111203302Y-104139092D01*
X111203299Y-104139088D01*
X111070911Y-104006700D01*
X111070907Y-104006697D01*
X110915237Y-103902681D01*
X110915228Y-103902676D01*
X110742251Y-103831027D01*
X110742243Y-103831025D01*
X110558620Y-103794500D01*
X110558616Y-103794500D01*
X110371384Y-103794500D01*
X110371379Y-103794500D01*
X110187756Y-103831025D01*
X110187748Y-103831027D01*
X110014771Y-103902676D01*
X110014762Y-103902681D01*
X109859092Y-104006697D01*
X109859088Y-104006700D01*
X109726700Y-104139088D01*
X109726697Y-104139092D01*
X109622681Y-104294762D01*
X109622676Y-104294771D01*
X109551027Y-104467748D01*
X109551025Y-104467756D01*
X109514500Y-104651379D01*
X108875499Y-104651379D01*
X108838973Y-104467749D01*
X108767322Y-104294769D01*
X108767321Y-104294768D01*
X108767318Y-104294762D01*
X108663302Y-104139092D01*
X108663299Y-104139088D01*
X108530911Y-104006700D01*
X108530907Y-104006697D01*
X108375237Y-103902681D01*
X108375228Y-103902676D01*
X108202251Y-103831027D01*
X108202243Y-103831025D01*
X108018620Y-103794500D01*
X108018616Y-103794500D01*
X107831384Y-103794500D01*
X107831379Y-103794500D01*
X107647756Y-103831025D01*
X107647748Y-103831027D01*
X107474771Y-103902676D01*
X107474762Y-103902681D01*
X107319092Y-104006697D01*
X107319088Y-104006700D01*
X107186700Y-104139088D01*
X107186697Y-104139092D01*
X107082681Y-104294762D01*
X107082676Y-104294771D01*
X107011027Y-104467748D01*
X107011025Y-104467756D01*
X106974500Y-104651379D01*
X106335499Y-104651379D01*
X106298973Y-104467749D01*
X106227322Y-104294769D01*
X106227321Y-104294768D01*
X106227318Y-104294762D01*
X106123302Y-104139092D01*
X106123299Y-104139088D01*
X105990911Y-104006700D01*
X105990907Y-104006697D01*
X105835237Y-103902681D01*
X105835228Y-103902676D01*
X105662251Y-103831027D01*
X105662243Y-103831025D01*
X105478620Y-103794500D01*
X105478616Y-103794500D01*
X105291384Y-103794500D01*
X105291379Y-103794500D01*
X105107756Y-103831025D01*
X105107748Y-103831027D01*
X104934771Y-103902676D01*
X104934762Y-103902681D01*
X104779092Y-104006697D01*
X104779088Y-104006700D01*
X104646700Y-104139088D01*
X104646697Y-104139092D01*
X104542681Y-104294762D01*
X104542676Y-104294771D01*
X104471027Y-104467748D01*
X104471025Y-104467756D01*
X104434500Y-104651379D01*
X100250500Y-104651379D01*
X100250500Y-102503750D01*
X100250726Y-102496263D01*
X100258119Y-102374038D01*
X100899500Y-102374038D01*
X100899500Y-102625961D01*
X100938910Y-102874785D01*
X101016760Y-103114383D01*
X101056658Y-103192686D01*
X101114809Y-103306814D01*
X101131132Y-103338848D01*
X101279201Y-103542649D01*
X101279205Y-103542654D01*
X101457345Y-103720794D01*
X101457350Y-103720798D01*
X101558793Y-103794500D01*
X101661155Y-103868870D01*
X101804184Y-103941747D01*
X101885616Y-103983239D01*
X101885618Y-103983239D01*
X101885621Y-103983241D01*
X102125215Y-104061090D01*
X102374038Y-104100500D01*
X102374039Y-104100500D01*
X102625961Y-104100500D01*
X102625962Y-104100500D01*
X102874785Y-104061090D01*
X103114379Y-103983241D01*
X103338845Y-103868870D01*
X103542656Y-103720793D01*
X103720793Y-103542656D01*
X103868870Y-103338845D01*
X103983241Y-103114379D01*
X104061090Y-102874785D01*
X104100500Y-102625962D01*
X104100500Y-102374038D01*
X104061090Y-102125215D01*
X104056594Y-102111379D01*
X104434500Y-102111379D01*
X104434500Y-102298620D01*
X104471025Y-102482243D01*
X104471027Y-102482251D01*
X104542676Y-102655228D01*
X104542681Y-102655237D01*
X104646697Y-102810907D01*
X104646700Y-102810911D01*
X104779088Y-102943299D01*
X104779092Y-102943302D01*
X104934762Y-103047318D01*
X104934768Y-103047321D01*
X104934769Y-103047322D01*
X105107749Y-103118973D01*
X105291379Y-103155499D01*
X105291383Y-103155500D01*
X105291384Y-103155500D01*
X105478617Y-103155500D01*
X105478618Y-103155499D01*
X105662251Y-103118973D01*
X105835231Y-103047322D01*
X105990908Y-102943302D01*
X106123302Y-102810908D01*
X106227322Y-102655231D01*
X106298973Y-102482251D01*
X106335500Y-102298616D01*
X106335500Y-102111384D01*
X106335499Y-102111379D01*
X106974500Y-102111379D01*
X106974500Y-102298620D01*
X107011025Y-102482243D01*
X107011027Y-102482251D01*
X107082676Y-102655228D01*
X107082681Y-102655237D01*
X107186697Y-102810907D01*
X107186700Y-102810911D01*
X107319088Y-102943299D01*
X107319092Y-102943302D01*
X107474762Y-103047318D01*
X107474768Y-103047321D01*
X107474769Y-103047322D01*
X107647749Y-103118973D01*
X107831379Y-103155499D01*
X107831383Y-103155500D01*
X107831384Y-103155500D01*
X108018617Y-103155500D01*
X108018618Y-103155499D01*
X108202251Y-103118973D01*
X108375231Y-103047322D01*
X108530908Y-102943302D01*
X108663302Y-102810908D01*
X108767322Y-102655231D01*
X108838973Y-102482251D01*
X108875500Y-102298616D01*
X108875500Y-102111384D01*
X108875499Y-102111379D01*
X109514500Y-102111379D01*
X109514500Y-102298620D01*
X109551025Y-102482243D01*
X109551027Y-102482251D01*
X109622676Y-102655228D01*
X109622681Y-102655237D01*
X109726697Y-102810907D01*
X109726700Y-102810911D01*
X109859088Y-102943299D01*
X109859092Y-102943302D01*
X110014762Y-103047318D01*
X110014768Y-103047321D01*
X110014769Y-103047322D01*
X110187749Y-103118973D01*
X110371379Y-103155499D01*
X110371383Y-103155500D01*
X110371384Y-103155500D01*
X110558617Y-103155500D01*
X110558618Y-103155499D01*
X110742251Y-103118973D01*
X110915231Y-103047322D01*
X111070908Y-102943302D01*
X111203302Y-102810908D01*
X111307322Y-102655231D01*
X111378973Y-102482251D01*
X111415500Y-102298616D01*
X111415500Y-102111384D01*
X111415499Y-102111379D01*
X112054500Y-102111379D01*
X112054500Y-102298620D01*
X112091025Y-102482243D01*
X112091027Y-102482251D01*
X112162676Y-102655228D01*
X112162681Y-102655237D01*
X112266697Y-102810907D01*
X112266700Y-102810911D01*
X112399088Y-102943299D01*
X112399092Y-102943302D01*
X112554762Y-103047318D01*
X112554768Y-103047321D01*
X112554769Y-103047322D01*
X112727749Y-103118973D01*
X112911379Y-103155499D01*
X112911383Y-103155500D01*
X112911384Y-103155500D01*
X113098617Y-103155500D01*
X113098618Y-103155499D01*
X113282251Y-103118973D01*
X113455231Y-103047322D01*
X113610908Y-102943302D01*
X113743302Y-102810908D01*
X113847322Y-102655231D01*
X113918973Y-102482251D01*
X113955500Y-102298616D01*
X113955500Y-102111384D01*
X113955499Y-102111379D01*
X114594500Y-102111379D01*
X114594500Y-102298620D01*
X114631025Y-102482243D01*
X114631027Y-102482251D01*
X114702676Y-102655228D01*
X114702681Y-102655237D01*
X114806697Y-102810907D01*
X114806700Y-102810911D01*
X114939088Y-102943299D01*
X114939092Y-102943302D01*
X115094762Y-103047318D01*
X115094768Y-103047321D01*
X115094769Y-103047322D01*
X115267749Y-103118973D01*
X115451379Y-103155499D01*
X115451383Y-103155500D01*
X115451384Y-103155500D01*
X115638617Y-103155500D01*
X115638618Y-103155499D01*
X115822251Y-103118973D01*
X115995231Y-103047322D01*
X116150908Y-102943302D01*
X116283302Y-102810908D01*
X116387322Y-102655231D01*
X116458973Y-102482251D01*
X116495500Y-102298616D01*
X116495500Y-102111384D01*
X116495499Y-102111379D01*
X117134500Y-102111379D01*
X117134500Y-102298620D01*
X117171025Y-102482243D01*
X117171027Y-102482251D01*
X117242676Y-102655228D01*
X117242681Y-102655237D01*
X117346697Y-102810907D01*
X117346700Y-102810911D01*
X117479088Y-102943299D01*
X117479092Y-102943302D01*
X117634762Y-103047318D01*
X117634768Y-103047321D01*
X117634769Y-103047322D01*
X117807749Y-103118973D01*
X117991379Y-103155499D01*
X117991383Y-103155500D01*
X117991384Y-103155500D01*
X118178617Y-103155500D01*
X118178618Y-103155499D01*
X118362251Y-103118973D01*
X118535231Y-103047322D01*
X118690908Y-102943302D01*
X118823302Y-102810908D01*
X118927322Y-102655231D01*
X118998973Y-102482251D01*
X119035500Y-102298616D01*
X119035500Y-102111384D01*
X119035499Y-102111379D01*
X119674500Y-102111379D01*
X119674500Y-102298620D01*
X119711025Y-102482243D01*
X119711027Y-102482251D01*
X119782676Y-102655228D01*
X119782681Y-102655237D01*
X119886697Y-102810907D01*
X119886700Y-102810911D01*
X120019088Y-102943299D01*
X120019092Y-102943302D01*
X120174762Y-103047318D01*
X120174768Y-103047321D01*
X120174769Y-103047322D01*
X120347749Y-103118973D01*
X120531379Y-103155499D01*
X120531383Y-103155500D01*
X120531384Y-103155500D01*
X120718617Y-103155500D01*
X120718618Y-103155499D01*
X120902251Y-103118973D01*
X121075231Y-103047322D01*
X121230908Y-102943302D01*
X121363302Y-102810908D01*
X121467322Y-102655231D01*
X121538973Y-102482251D01*
X121575500Y-102298616D01*
X121575500Y-102111384D01*
X121575499Y-102111379D01*
X122214500Y-102111379D01*
X122214500Y-102298620D01*
X122251025Y-102482243D01*
X122251027Y-102482251D01*
X122322676Y-102655228D01*
X122322681Y-102655237D01*
X122426697Y-102810907D01*
X122426700Y-102810911D01*
X122559088Y-102943299D01*
X122559092Y-102943302D01*
X122714762Y-103047318D01*
X122714768Y-103047321D01*
X122714769Y-103047322D01*
X122887749Y-103118973D01*
X123071379Y-103155499D01*
X123071383Y-103155500D01*
X123071384Y-103155500D01*
X123258617Y-103155500D01*
X123258618Y-103155499D01*
X123442251Y-103118973D01*
X123615231Y-103047322D01*
X123770908Y-102943302D01*
X123903302Y-102810908D01*
X124007322Y-102655231D01*
X124078973Y-102482251D01*
X124115500Y-102298616D01*
X124115500Y-102111384D01*
X124115499Y-102111379D01*
X124754500Y-102111379D01*
X124754500Y-102298620D01*
X124791025Y-102482243D01*
X124791027Y-102482251D01*
X124862676Y-102655228D01*
X124862681Y-102655237D01*
X124966697Y-102810907D01*
X124966700Y-102810911D01*
X125099088Y-102943299D01*
X125099092Y-102943302D01*
X125254762Y-103047318D01*
X125254768Y-103047321D01*
X125254769Y-103047322D01*
X125427749Y-103118973D01*
X125611379Y-103155499D01*
X125611383Y-103155500D01*
X125611384Y-103155500D01*
X125798617Y-103155500D01*
X125798618Y-103155499D01*
X125982251Y-103118973D01*
X126155231Y-103047322D01*
X126310908Y-102943302D01*
X126443302Y-102810908D01*
X126547322Y-102655231D01*
X126618973Y-102482251D01*
X126655500Y-102298616D01*
X126655500Y-102111384D01*
X126655499Y-102111379D01*
X127294500Y-102111379D01*
X127294500Y-102298620D01*
X127331025Y-102482243D01*
X127331027Y-102482251D01*
X127402676Y-102655228D01*
X127402681Y-102655237D01*
X127506697Y-102810907D01*
X127506700Y-102810911D01*
X127639088Y-102943299D01*
X127639092Y-102943302D01*
X127794762Y-103047318D01*
X127794768Y-103047321D01*
X127794769Y-103047322D01*
X127967749Y-103118973D01*
X128151379Y-103155499D01*
X128151383Y-103155500D01*
X128151384Y-103155500D01*
X128338617Y-103155500D01*
X128338618Y-103155499D01*
X128522251Y-103118973D01*
X128695231Y-103047322D01*
X128850908Y-102943302D01*
X128983302Y-102810908D01*
X129087322Y-102655231D01*
X129158973Y-102482251D01*
X129195500Y-102298616D01*
X129195500Y-102111384D01*
X129158973Y-101927749D01*
X129087322Y-101754769D01*
X129087321Y-101754768D01*
X129087318Y-101754762D01*
X128983302Y-101599092D01*
X128983299Y-101599088D01*
X128850911Y-101466700D01*
X128850907Y-101466697D01*
X128695237Y-101362681D01*
X128695228Y-101362676D01*
X128522251Y-101291027D01*
X128522243Y-101291025D01*
X128338620Y-101254500D01*
X128338616Y-101254500D01*
X128151384Y-101254500D01*
X128151379Y-101254500D01*
X127967756Y-101291025D01*
X127967748Y-101291027D01*
X127794771Y-101362676D01*
X127794762Y-101362681D01*
X127639092Y-101466697D01*
X127639088Y-101466700D01*
X127506700Y-101599088D01*
X127506697Y-101599092D01*
X127402681Y-101754762D01*
X127402676Y-101754771D01*
X127331027Y-101927748D01*
X127331025Y-101927756D01*
X127294500Y-102111379D01*
X126655499Y-102111379D01*
X126618973Y-101927749D01*
X126547322Y-101754769D01*
X126547321Y-101754768D01*
X126547318Y-101754762D01*
X126443302Y-101599092D01*
X126443299Y-101599088D01*
X126310911Y-101466700D01*
X126310907Y-101466697D01*
X126155237Y-101362681D01*
X126155228Y-101362676D01*
X125982251Y-101291027D01*
X125982243Y-101291025D01*
X125798620Y-101254500D01*
X125798616Y-101254500D01*
X125611384Y-101254500D01*
X125611379Y-101254500D01*
X125427756Y-101291025D01*
X125427748Y-101291027D01*
X125254771Y-101362676D01*
X125254762Y-101362681D01*
X125099092Y-101466697D01*
X125099088Y-101466700D01*
X124966700Y-101599088D01*
X124966697Y-101599092D01*
X124862681Y-101754762D01*
X124862676Y-101754771D01*
X124791027Y-101927748D01*
X124791025Y-101927756D01*
X124754500Y-102111379D01*
X124115499Y-102111379D01*
X124078973Y-101927749D01*
X124007322Y-101754769D01*
X124007321Y-101754768D01*
X124007318Y-101754762D01*
X123903302Y-101599092D01*
X123903299Y-101599088D01*
X123770911Y-101466700D01*
X123770907Y-101466697D01*
X123615237Y-101362681D01*
X123615228Y-101362676D01*
X123442251Y-101291027D01*
X123442243Y-101291025D01*
X123258620Y-101254500D01*
X123258616Y-101254500D01*
X123071384Y-101254500D01*
X123071379Y-101254500D01*
X122887756Y-101291025D01*
X122887748Y-101291027D01*
X122714771Y-101362676D01*
X122714762Y-101362681D01*
X122559092Y-101466697D01*
X122559088Y-101466700D01*
X122426700Y-101599088D01*
X122426697Y-101599092D01*
X122322681Y-101754762D01*
X122322676Y-101754771D01*
X122251027Y-101927748D01*
X122251025Y-101927756D01*
X122214500Y-102111379D01*
X121575499Y-102111379D01*
X121538973Y-101927749D01*
X121467322Y-101754769D01*
X121467321Y-101754768D01*
X121467318Y-101754762D01*
X121363302Y-101599092D01*
X121363299Y-101599088D01*
X121230911Y-101466700D01*
X121230907Y-101466697D01*
X121075237Y-101362681D01*
X121075228Y-101362676D01*
X120902251Y-101291027D01*
X120902243Y-101291025D01*
X120718620Y-101254500D01*
X120718616Y-101254500D01*
X120531384Y-101254500D01*
X120531379Y-101254500D01*
X120347756Y-101291025D01*
X120347748Y-101291027D01*
X120174771Y-101362676D01*
X120174762Y-101362681D01*
X120019092Y-101466697D01*
X120019088Y-101466700D01*
X119886700Y-101599088D01*
X119886697Y-101599092D01*
X119782681Y-101754762D01*
X119782676Y-101754771D01*
X119711027Y-101927748D01*
X119711025Y-101927756D01*
X119674500Y-102111379D01*
X119035499Y-102111379D01*
X118998973Y-101927749D01*
X118927322Y-101754769D01*
X118927321Y-101754768D01*
X118927318Y-101754762D01*
X118823302Y-101599092D01*
X118823299Y-101599088D01*
X118690911Y-101466700D01*
X118690907Y-101466697D01*
X118535237Y-101362681D01*
X118535228Y-101362676D01*
X118362251Y-101291027D01*
X118362243Y-101291025D01*
X118178620Y-101254500D01*
X118178616Y-101254500D01*
X117991384Y-101254500D01*
X117991379Y-101254500D01*
X117807756Y-101291025D01*
X117807748Y-101291027D01*
X117634771Y-101362676D01*
X117634762Y-101362681D01*
X117479092Y-101466697D01*
X117479088Y-101466700D01*
X117346700Y-101599088D01*
X117346697Y-101599092D01*
X117242681Y-101754762D01*
X117242676Y-101754771D01*
X117171027Y-101927748D01*
X117171025Y-101927756D01*
X117134500Y-102111379D01*
X116495499Y-102111379D01*
X116458973Y-101927749D01*
X116387322Y-101754769D01*
X116387321Y-101754768D01*
X116387318Y-101754762D01*
X116283302Y-101599092D01*
X116283299Y-101599088D01*
X116150911Y-101466700D01*
X116150907Y-101466697D01*
X115995237Y-101362681D01*
X115995228Y-101362676D01*
X115822251Y-101291027D01*
X115822243Y-101291025D01*
X115638620Y-101254500D01*
X115638616Y-101254500D01*
X115451384Y-101254500D01*
X115451379Y-101254500D01*
X115267756Y-101291025D01*
X115267748Y-101291027D01*
X115094771Y-101362676D01*
X115094762Y-101362681D01*
X114939092Y-101466697D01*
X114939088Y-101466700D01*
X114806700Y-101599088D01*
X114806697Y-101599092D01*
X114702681Y-101754762D01*
X114702676Y-101754771D01*
X114631027Y-101927748D01*
X114631025Y-101927756D01*
X114594500Y-102111379D01*
X113955499Y-102111379D01*
X113918973Y-101927749D01*
X113847322Y-101754769D01*
X113847321Y-101754768D01*
X113847318Y-101754762D01*
X113743302Y-101599092D01*
X113743299Y-101599088D01*
X113610911Y-101466700D01*
X113610907Y-101466697D01*
X113455237Y-101362681D01*
X113455228Y-101362676D01*
X113282251Y-101291027D01*
X113282243Y-101291025D01*
X113098620Y-101254500D01*
X113098616Y-101254500D01*
X112911384Y-101254500D01*
X112911379Y-101254500D01*
X112727756Y-101291025D01*
X112727748Y-101291027D01*
X112554771Y-101362676D01*
X112554762Y-101362681D01*
X112399092Y-101466697D01*
X112399088Y-101466700D01*
X112266700Y-101599088D01*
X112266697Y-101599092D01*
X112162681Y-101754762D01*
X112162676Y-101754771D01*
X112091027Y-101927748D01*
X112091025Y-101927756D01*
X112054500Y-102111379D01*
X111415499Y-102111379D01*
X111378973Y-101927749D01*
X111307322Y-101754769D01*
X111307321Y-101754768D01*
X111307318Y-101754762D01*
X111203302Y-101599092D01*
X111203299Y-101599088D01*
X111070911Y-101466700D01*
X111070907Y-101466697D01*
X110915237Y-101362681D01*
X110915228Y-101362676D01*
X110742251Y-101291027D01*
X110742243Y-101291025D01*
X110558620Y-101254500D01*
X110558616Y-101254500D01*
X110371384Y-101254500D01*
X110371379Y-101254500D01*
X110187756Y-101291025D01*
X110187748Y-101291027D01*
X110014771Y-101362676D01*
X110014762Y-101362681D01*
X109859092Y-101466697D01*
X109859088Y-101466700D01*
X109726700Y-101599088D01*
X109726697Y-101599092D01*
X109622681Y-101754762D01*
X109622676Y-101754771D01*
X109551027Y-101927748D01*
X109551025Y-101927756D01*
X109514500Y-102111379D01*
X108875499Y-102111379D01*
X108838973Y-101927749D01*
X108767322Y-101754769D01*
X108767321Y-101754768D01*
X108767318Y-101754762D01*
X108663302Y-101599092D01*
X108663299Y-101599088D01*
X108530911Y-101466700D01*
X108530907Y-101466697D01*
X108375237Y-101362681D01*
X108375228Y-101362676D01*
X108202251Y-101291027D01*
X108202243Y-101291025D01*
X108018620Y-101254500D01*
X108018616Y-101254500D01*
X107831384Y-101254500D01*
X107831379Y-101254500D01*
X107647756Y-101291025D01*
X107647748Y-101291027D01*
X107474771Y-101362676D01*
X107474762Y-101362681D01*
X107319092Y-101466697D01*
X107319088Y-101466700D01*
X107186700Y-101599088D01*
X107186697Y-101599092D01*
X107082681Y-101754762D01*
X107082676Y-101754771D01*
X107011027Y-101927748D01*
X107011025Y-101927756D01*
X106974500Y-102111379D01*
X106335499Y-102111379D01*
X106298973Y-101927749D01*
X106227322Y-101754769D01*
X106227321Y-101754768D01*
X106227318Y-101754762D01*
X106123302Y-101599092D01*
X106123299Y-101599088D01*
X105990911Y-101466700D01*
X105990907Y-101466697D01*
X105835237Y-101362681D01*
X105835228Y-101362676D01*
X105662251Y-101291027D01*
X105662243Y-101291025D01*
X105478620Y-101254500D01*
X105478616Y-101254500D01*
X105291384Y-101254500D01*
X105291379Y-101254500D01*
X105107756Y-101291025D01*
X105107748Y-101291027D01*
X104934771Y-101362676D01*
X104934762Y-101362681D01*
X104779092Y-101466697D01*
X104779088Y-101466700D01*
X104646700Y-101599088D01*
X104646697Y-101599092D01*
X104542681Y-101754762D01*
X104542676Y-101754771D01*
X104471027Y-101927748D01*
X104471025Y-101927756D01*
X104434500Y-102111379D01*
X104056594Y-102111379D01*
X104024970Y-102014049D01*
X103983241Y-101885621D01*
X103983239Y-101885618D01*
X103983239Y-101885616D01*
X103941747Y-101804184D01*
X103868870Y-101661155D01*
X103793427Y-101557316D01*
X103720798Y-101457350D01*
X103720794Y-101457345D01*
X103542654Y-101279205D01*
X103542649Y-101279201D01*
X103338848Y-101131132D01*
X103338847Y-101131131D01*
X103338845Y-101131130D01*
X103268747Y-101095413D01*
X103114383Y-101016760D01*
X102874785Y-100938910D01*
X102625962Y-100899500D01*
X102374038Y-100899500D01*
X102333902Y-100905857D01*
X102125214Y-100938910D01*
X101885616Y-101016760D01*
X101661151Y-101131132D01*
X101457350Y-101279201D01*
X101457345Y-101279205D01*
X101279205Y-101457345D01*
X101279201Y-101457350D01*
X101131132Y-101661151D01*
X101016760Y-101885616D01*
X100938910Y-102125214D01*
X100899500Y-102374038D01*
X100258119Y-102374038D01*
X100258867Y-102361679D01*
X100258867Y-102361678D01*
X100266448Y-102236340D01*
X100268253Y-102221475D01*
X100285893Y-102125215D01*
X100314515Y-101969026D01*
X100318095Y-101954505D01*
X100394451Y-101709471D01*
X100399753Y-101695489D01*
X100505095Y-101461430D01*
X100512040Y-101448197D01*
X100644826Y-101228542D01*
X100653313Y-101216246D01*
X100811608Y-101014198D01*
X100821523Y-101003007D01*
X101003007Y-100821523D01*
X101014198Y-100811608D01*
X101216246Y-100653313D01*
X101228542Y-100644826D01*
X101448197Y-100512040D01*
X101461430Y-100505095D01*
X101695489Y-100399753D01*
X101709471Y-100394451D01*
X101954505Y-100318095D01*
X101969026Y-100314515D01*
X102221476Y-100268252D01*
X102236335Y-100266448D01*
X102496264Y-100250726D01*
X102503751Y-100250500D01*
X129876000Y-100250500D01*
X129943039Y-100270185D01*
G37*
%TD.AperFunction*%
%TD*%
M02*
