M48
; DRILL file {KiCad 9.0.2+dfsg-1} date 2026-07-26T23:39:39-0400
; FORMAT={-:-/ absolute / metric / decimal}
; #@! TF.CreationDate,2026-07-26T23:39:39-04:00
; #@! TF.GenerationSoftware,Kicad,Pcbnew,9.0.2+dfsg-1
; #@! TF.FileFunction,MixedPlating,1,4
FMAT,2
METRIC
; #@! TA.AperFunction,Plated,PTH,ViaDrill
T1C0.300
; #@! TA.AperFunction,Plated,PTH,ViaDrill
T2C0.400
; #@! TA.AperFunction,Plated,PTH,ComponentDrill
T3C0.500
; #@! TA.AperFunction,Plated,PTH,ComponentDrill
T4C0.900
; #@! TA.AperFunction,Plated,PTH,ComponentDrill
T5C1.000
; #@! TA.AperFunction,NonPlated,NPTH,ComponentDrill
T6C2.700
%
G90
G05
T1
X105.223Y-113.235
X105.777Y-114.765
X107.123Y-113.235
X107.677Y-114.765
X107.975Y-118.0
X108.55Y-125.0
X109.46Y-120.5
X109.48Y-122.0
X110.46Y-110.5
X113.0Y-121.5
X113.25Y-125.0
X113.3Y-117.55
X113.98Y-108.5
X115.099Y-110.33
X115.275Y-120.55
X115.371Y-111.921
X115.61Y-112.778
X116.96Y-107.5
X117.222Y-125.212
X119.52Y-125.0
X119.637Y-116.95
X120.01Y-126.5
X120.137Y-115.05
X121.35Y-121.5
X121.473Y-124.115
X121.48Y-119.0
X121.912Y-110.5
X122.25Y-124.0
X122.491Y-123.034
X123.579Y-123.024
X123.98Y-126.88
X124.229Y-113.667
X124.249Y-111.333
X124.926Y-124.883
X126.25Y-123.3
X126.5Y-114.4
X126.915Y-109.59
X127.099Y-107.334
X128.48Y-116.52
X128.5Y-124.54
X129.38Y-117.48
X129.4Y-120.46
X129.4Y-122.02
X131.5Y-114.0
X132.98Y-123.5
X135.96Y-123.5
X137.46Y-113.0
X137.46Y-117.0
X137.5Y-118.5
X137.52Y-120.5
X138.5Y-124.0
X138.568Y-122.5
X139.6Y-123.7
X140.02Y-121.0
X140.7Y-111.65
X140.98Y-121.0
X141.01Y-124.0
X141.623Y-110.885
X144.0Y-112.5
X144.9Y-121.85
X145.01Y-112.777
X145.4Y-122.5
X146.723Y-121.085
X147.277Y-122.615
X148.623Y-121.085
X148.8Y-117.0
X149.177Y-122.615
T2
X130.0Y-101.25
X130.0Y-103.5
X130.0Y-106.25
X130.0Y-108.75
X130.0Y-111.25
X130.0Y-113.75
X130.0Y-116.25
X130.0Y-118.75
X130.0Y-121.25
X130.0Y-123.75
X130.0Y-126.25
X130.0Y-128.75
X130.0Y-131.45
X130.0Y-134.0
X132.0Y-109.5
X132.0Y-125.0
X135.78Y-109.5
X136.0Y-125.0
X140.0Y-109.5
X140.0Y-125.0
X144.0Y-109.5
X144.0Y-125.0
T3
X124.5Y-120.0
T4
X152.5Y-112.46
T5
X105.385Y-102.205
X105.385Y-104.745
X105.385Y-130.205
X105.385Y-132.745
X107.925Y-102.205
X107.925Y-104.745
X107.925Y-130.205
X107.925Y-132.745
X110.465Y-102.205
X110.465Y-104.745
X110.465Y-130.205
X110.465Y-132.745
X113.005Y-102.205
X113.005Y-104.745
X113.005Y-130.205
X113.005Y-132.745
X115.545Y-102.205
X115.545Y-104.745
X115.545Y-130.205
X115.545Y-132.745
X118.085Y-102.205
X118.085Y-104.745
X118.085Y-130.205
X118.085Y-132.745
X120.625Y-102.205
X120.625Y-104.745
X120.625Y-130.205
X120.625Y-132.745
X123.165Y-102.205
X123.165Y-104.745
X123.165Y-130.205
X123.165Y-132.745
X125.705Y-102.205
X125.705Y-104.745
X125.705Y-130.205
X125.705Y-132.745
X128.245Y-102.205
X128.245Y-104.745
X128.245Y-130.205
X128.245Y-132.745
X130.785Y-102.205
X130.785Y-104.745
X130.785Y-130.205
X130.785Y-132.745
X133.325Y-102.205
X133.325Y-104.745
X133.325Y-130.205
X133.325Y-132.745
X135.865Y-102.205
X135.865Y-104.745
X135.865Y-130.205
X135.865Y-132.745
X138.405Y-102.205
X138.405Y-104.745
X138.405Y-130.205
X138.405Y-132.745
X140.945Y-102.205
X140.945Y-104.745
X140.945Y-130.205
X140.945Y-132.745
X143.485Y-102.205
X143.485Y-104.745
X143.485Y-130.205
X143.485Y-132.745
X146.025Y-102.205
X146.025Y-104.745
X146.025Y-130.205
X146.025Y-132.745
X148.565Y-102.205
X148.565Y-104.745
X148.565Y-130.205
X148.565Y-132.745
X152.5Y-109.92
X152.5Y-115.0
T6
X102.5Y-102.5
X102.5Y-132.5
X152.5Y-102.5
X152.5Y-132.5
M30
