%TF.GenerationSoftware,KiCad,Pcbnew,9.0.2+dfsg-1*%
%TF.CreationDate,2026-06-04T20:16:11-04:00*%
%TF.ProjectId,XCVR-49MHZ-2,58435652-2d34-4394-9d48-5a2d322e6b69,2*%
%TF.SameCoordinates,Original*%
%TF.FileFunction,Legend,Bot*%
%TF.FilePolarity,Positive*%
%FSLAX46Y46*%
G04 Gerber Fmt 4.6, Leading zero omitted, Abs format (unit mm)*
G04 Created by KiCad (PCBNEW 9.0.2+dfsg-1) date 2026-06-04 20:16:11*
%MOMM*%
%LPD*%
G01*
G04 APERTURE LIST*
%ADD10C,0.120000*%
%ADD11C,0.350000*%
G04 APERTURE END LIST*
D10*
X137600000Y-127990632D02*
X137133333Y-128690632D01*
X137133333Y-127990632D02*
X137600000Y-128690632D01*
X136466666Y-128623965D02*
X136499999Y-128657299D01*
X136499999Y-128657299D02*
X136599999Y-128690632D01*
X136599999Y-128690632D02*
X136666666Y-128690632D01*
X136666666Y-128690632D02*
X136766666Y-128657299D01*
X136766666Y-128657299D02*
X136833333Y-128590632D01*
X136833333Y-128590632D02*
X136866666Y-128523965D01*
X136866666Y-128523965D02*
X136899999Y-128390632D01*
X136899999Y-128390632D02*
X136899999Y-128290632D01*
X136899999Y-128290632D02*
X136866666Y-128157299D01*
X136866666Y-128157299D02*
X136833333Y-128090632D01*
X136833333Y-128090632D02*
X136766666Y-128023965D01*
X136766666Y-128023965D02*
X136666666Y-127990632D01*
X136666666Y-127990632D02*
X136599999Y-127990632D01*
X136599999Y-127990632D02*
X136499999Y-128023965D01*
X136499999Y-128023965D02*
X136466666Y-128057299D01*
X136266666Y-127990632D02*
X136033333Y-128690632D01*
X136033333Y-128690632D02*
X135799999Y-127990632D01*
X135166666Y-128690632D02*
X135399999Y-128357299D01*
X135566666Y-128690632D02*
X135566666Y-127990632D01*
X135566666Y-127990632D02*
X135299999Y-127990632D01*
X135299999Y-127990632D02*
X135233333Y-128023965D01*
X135233333Y-128023965D02*
X135199999Y-128057299D01*
X135199999Y-128057299D02*
X135166666Y-128123965D01*
X135166666Y-128123965D02*
X135166666Y-128223965D01*
X135166666Y-128223965D02*
X135199999Y-128290632D01*
X135199999Y-128290632D02*
X135233333Y-128323965D01*
X135233333Y-128323965D02*
X135299999Y-128357299D01*
X135299999Y-128357299D02*
X135566666Y-128357299D01*
X134866666Y-128423965D02*
X134333333Y-128423965D01*
X133699999Y-128223965D02*
X133699999Y-128690632D01*
X133866666Y-127957299D02*
X134033332Y-128457299D01*
X134033332Y-128457299D02*
X133599999Y-128457299D01*
X133299999Y-128690632D02*
X133166665Y-128690632D01*
X133166665Y-128690632D02*
X133099999Y-128657299D01*
X133099999Y-128657299D02*
X133066665Y-128623965D01*
X133066665Y-128623965D02*
X132999999Y-128523965D01*
X132999999Y-128523965D02*
X132966665Y-128390632D01*
X132966665Y-128390632D02*
X132966665Y-128123965D01*
X132966665Y-128123965D02*
X132999999Y-128057299D01*
X132999999Y-128057299D02*
X133033332Y-128023965D01*
X133033332Y-128023965D02*
X133099999Y-127990632D01*
X133099999Y-127990632D02*
X133233332Y-127990632D01*
X133233332Y-127990632D02*
X133299999Y-128023965D01*
X133299999Y-128023965D02*
X133333332Y-128057299D01*
X133333332Y-128057299D02*
X133366665Y-128123965D01*
X133366665Y-128123965D02*
X133366665Y-128290632D01*
X133366665Y-128290632D02*
X133333332Y-128357299D01*
X133333332Y-128357299D02*
X133299999Y-128390632D01*
X133299999Y-128390632D02*
X133233332Y-128423965D01*
X133233332Y-128423965D02*
X133099999Y-128423965D01*
X133099999Y-128423965D02*
X133033332Y-128390632D01*
X133033332Y-128390632D02*
X132999999Y-128357299D01*
X132999999Y-128357299D02*
X132966665Y-128290632D01*
X132666665Y-128690632D02*
X132666665Y-127990632D01*
X132666665Y-127990632D02*
X132433332Y-128490632D01*
X132433332Y-128490632D02*
X132199998Y-127990632D01*
X132199998Y-127990632D02*
X132199998Y-128690632D01*
X131866665Y-128690632D02*
X131866665Y-127990632D01*
X131866665Y-128323965D02*
X131466665Y-128323965D01*
X131466665Y-128690632D02*
X131466665Y-127990632D01*
X131199999Y-127990632D02*
X130733332Y-127990632D01*
X130733332Y-127990632D02*
X131199999Y-128690632D01*
X131199999Y-128690632D02*
X130733332Y-128690632D01*
X130466665Y-128423965D02*
X129933332Y-128423965D01*
X129633331Y-128057299D02*
X129599998Y-128023965D01*
X129599998Y-128023965D02*
X129533331Y-127990632D01*
X129533331Y-127990632D02*
X129366665Y-127990632D01*
X129366665Y-127990632D02*
X129299998Y-128023965D01*
X129299998Y-128023965D02*
X129266665Y-128057299D01*
X129266665Y-128057299D02*
X129233331Y-128123965D01*
X129233331Y-128123965D02*
X129233331Y-128190632D01*
X129233331Y-128190632D02*
X129266665Y-128290632D01*
X129266665Y-128290632D02*
X129666665Y-128690632D01*
X129666665Y-128690632D02*
X129233331Y-128690632D01*
X127999998Y-128690632D02*
X128233331Y-128357299D01*
X128399998Y-128690632D02*
X128399998Y-127990632D01*
X128399998Y-127990632D02*
X128133331Y-127990632D01*
X128133331Y-127990632D02*
X128066665Y-128023965D01*
X128066665Y-128023965D02*
X128033331Y-128057299D01*
X128033331Y-128057299D02*
X127999998Y-128123965D01*
X127999998Y-128123965D02*
X127999998Y-128223965D01*
X127999998Y-128223965D02*
X128033331Y-128290632D01*
X128033331Y-128290632D02*
X128066665Y-128323965D01*
X128066665Y-128323965D02*
X128133331Y-128357299D01*
X128133331Y-128357299D02*
X128399998Y-128357299D01*
X127433331Y-128657299D02*
X127499998Y-128690632D01*
X127499998Y-128690632D02*
X127633331Y-128690632D01*
X127633331Y-128690632D02*
X127699998Y-128657299D01*
X127699998Y-128657299D02*
X127733331Y-128590632D01*
X127733331Y-128590632D02*
X127733331Y-128323965D01*
X127733331Y-128323965D02*
X127699998Y-128257299D01*
X127699998Y-128257299D02*
X127633331Y-128223965D01*
X127633331Y-128223965D02*
X127499998Y-128223965D01*
X127499998Y-128223965D02*
X127433331Y-128257299D01*
X127433331Y-128257299D02*
X127399998Y-128323965D01*
X127399998Y-128323965D02*
X127399998Y-128390632D01*
X127399998Y-128390632D02*
X127733331Y-128457299D01*
X127166665Y-128223965D02*
X126999998Y-128690632D01*
X126999998Y-128690632D02*
X126833331Y-128223965D01*
X126066665Y-128057299D02*
X126033332Y-128023965D01*
X126033332Y-128023965D02*
X125966665Y-127990632D01*
X125966665Y-127990632D02*
X125799999Y-127990632D01*
X125799999Y-127990632D02*
X125733332Y-128023965D01*
X125733332Y-128023965D02*
X125699999Y-128057299D01*
X125699999Y-128057299D02*
X125666665Y-128123965D01*
X125666665Y-128123965D02*
X125666665Y-128190632D01*
X125666665Y-128190632D02*
X125699999Y-128290632D01*
X125699999Y-128290632D02*
X126099999Y-128690632D01*
X126099999Y-128690632D02*
X125666665Y-128690632D01*
X124133332Y-128923965D02*
X124133332Y-127923965D01*
X122166666Y-128623965D02*
X122199999Y-128657299D01*
X122199999Y-128657299D02*
X122299999Y-128690632D01*
X122299999Y-128690632D02*
X122366666Y-128690632D01*
X122366666Y-128690632D02*
X122466666Y-128657299D01*
X122466666Y-128657299D02*
X122533333Y-128590632D01*
X122533333Y-128590632D02*
X122566666Y-128523965D01*
X122566666Y-128523965D02*
X122599999Y-128390632D01*
X122599999Y-128390632D02*
X122599999Y-128290632D01*
X122599999Y-128290632D02*
X122566666Y-128157299D01*
X122566666Y-128157299D02*
X122533333Y-128090632D01*
X122533333Y-128090632D02*
X122466666Y-128023965D01*
X122466666Y-128023965D02*
X122366666Y-127990632D01*
X122366666Y-127990632D02*
X122299999Y-127990632D01*
X122299999Y-127990632D02*
X122199999Y-128023965D01*
X122199999Y-128023965D02*
X122166666Y-128057299D01*
X121466666Y-128623965D02*
X121499999Y-128657299D01*
X121499999Y-128657299D02*
X121599999Y-128690632D01*
X121599999Y-128690632D02*
X121666666Y-128690632D01*
X121666666Y-128690632D02*
X121766666Y-128657299D01*
X121766666Y-128657299D02*
X121833333Y-128590632D01*
X121833333Y-128590632D02*
X121866666Y-128523965D01*
X121866666Y-128523965D02*
X121899999Y-128390632D01*
X121899999Y-128390632D02*
X121899999Y-128290632D01*
X121899999Y-128290632D02*
X121866666Y-128157299D01*
X121866666Y-128157299D02*
X121833333Y-128090632D01*
X121833333Y-128090632D02*
X121766666Y-128023965D01*
X121766666Y-128023965D02*
X121666666Y-127990632D01*
X121666666Y-127990632D02*
X121599999Y-127990632D01*
X121599999Y-127990632D02*
X121499999Y-128023965D01*
X121499999Y-128023965D02*
X121466666Y-128057299D01*
X120400000Y-128323965D02*
X120300000Y-128357299D01*
X120300000Y-128357299D02*
X120266666Y-128390632D01*
X120266666Y-128390632D02*
X120233333Y-128457299D01*
X120233333Y-128457299D02*
X120233333Y-128557299D01*
X120233333Y-128557299D02*
X120266666Y-128623965D01*
X120266666Y-128623965D02*
X120300000Y-128657299D01*
X120300000Y-128657299D02*
X120366666Y-128690632D01*
X120366666Y-128690632D02*
X120633333Y-128690632D01*
X120633333Y-128690632D02*
X120633333Y-127990632D01*
X120633333Y-127990632D02*
X120400000Y-127990632D01*
X120400000Y-127990632D02*
X120333333Y-128023965D01*
X120333333Y-128023965D02*
X120300000Y-128057299D01*
X120300000Y-128057299D02*
X120266666Y-128123965D01*
X120266666Y-128123965D02*
X120266666Y-128190632D01*
X120266666Y-128190632D02*
X120300000Y-128257299D01*
X120300000Y-128257299D02*
X120333333Y-128290632D01*
X120333333Y-128290632D02*
X120400000Y-128323965D01*
X120400000Y-128323965D02*
X120633333Y-128323965D01*
X119800000Y-128357299D02*
X119800000Y-128690632D01*
X120033333Y-127990632D02*
X119800000Y-128357299D01*
X119800000Y-128357299D02*
X119566666Y-127990632D01*
X118500000Y-128223965D02*
X118500000Y-128690632D01*
X118666667Y-127957299D02*
X118833333Y-128457299D01*
X118833333Y-128457299D02*
X118400000Y-128457299D01*
X118133333Y-128623965D02*
X118100000Y-128657299D01*
X118100000Y-128657299D02*
X118133333Y-128690632D01*
X118133333Y-128690632D02*
X118166666Y-128657299D01*
X118166666Y-128657299D02*
X118133333Y-128623965D01*
X118133333Y-128623965D02*
X118133333Y-128690632D01*
X117666667Y-127990632D02*
X117600000Y-127990632D01*
X117600000Y-127990632D02*
X117533333Y-128023965D01*
X117533333Y-128023965D02*
X117500000Y-128057299D01*
X117500000Y-128057299D02*
X117466667Y-128123965D01*
X117466667Y-128123965D02*
X117433333Y-128257299D01*
X117433333Y-128257299D02*
X117433333Y-128423965D01*
X117433333Y-128423965D02*
X117466667Y-128557299D01*
X117466667Y-128557299D02*
X117500000Y-128623965D01*
X117500000Y-128623965D02*
X117533333Y-128657299D01*
X117533333Y-128657299D02*
X117600000Y-128690632D01*
X117600000Y-128690632D02*
X117666667Y-128690632D01*
X117666667Y-128690632D02*
X117733333Y-128657299D01*
X117733333Y-128657299D02*
X117766667Y-128623965D01*
X117766667Y-128623965D02*
X117800000Y-128557299D01*
X117800000Y-128557299D02*
X117833333Y-128423965D01*
X117833333Y-128423965D02*
X117833333Y-128257299D01*
X117833333Y-128257299D02*
X117800000Y-128123965D01*
X117800000Y-128123965D02*
X117766667Y-128057299D01*
X117766667Y-128057299D02*
X117733333Y-128023965D01*
X117733333Y-128023965D02*
X117666667Y-127990632D01*
X138416665Y-129784260D02*
X138316665Y-129817593D01*
X138316665Y-129817593D02*
X138149999Y-129817593D01*
X138149999Y-129817593D02*
X138083332Y-129784260D01*
X138083332Y-129784260D02*
X138049999Y-129750926D01*
X138049999Y-129750926D02*
X138016665Y-129684260D01*
X138016665Y-129684260D02*
X138016665Y-129617593D01*
X138016665Y-129617593D02*
X138049999Y-129550926D01*
X138049999Y-129550926D02*
X138083332Y-129517593D01*
X138083332Y-129517593D02*
X138149999Y-129484260D01*
X138149999Y-129484260D02*
X138283332Y-129450926D01*
X138283332Y-129450926D02*
X138349999Y-129417593D01*
X138349999Y-129417593D02*
X138383332Y-129384260D01*
X138383332Y-129384260D02*
X138416665Y-129317593D01*
X138416665Y-129317593D02*
X138416665Y-129250926D01*
X138416665Y-129250926D02*
X138383332Y-129184260D01*
X138383332Y-129184260D02*
X138349999Y-129150926D01*
X138349999Y-129150926D02*
X138283332Y-129117593D01*
X138283332Y-129117593D02*
X138116665Y-129117593D01*
X138116665Y-129117593D02*
X138016665Y-129150926D01*
X137816665Y-129350926D02*
X137549998Y-129350926D01*
X137716665Y-129117593D02*
X137716665Y-129717593D01*
X137716665Y-129717593D02*
X137683332Y-129784260D01*
X137683332Y-129784260D02*
X137616665Y-129817593D01*
X137616665Y-129817593D02*
X137549998Y-129817593D01*
X137049998Y-129784260D02*
X137116665Y-129817593D01*
X137116665Y-129817593D02*
X137249998Y-129817593D01*
X137249998Y-129817593D02*
X137316665Y-129784260D01*
X137316665Y-129784260D02*
X137349998Y-129717593D01*
X137349998Y-129717593D02*
X137349998Y-129450926D01*
X137349998Y-129450926D02*
X137316665Y-129384260D01*
X137316665Y-129384260D02*
X137249998Y-129350926D01*
X137249998Y-129350926D02*
X137116665Y-129350926D01*
X137116665Y-129350926D02*
X137049998Y-129384260D01*
X137049998Y-129384260D02*
X137016665Y-129450926D01*
X137016665Y-129450926D02*
X137016665Y-129517593D01*
X137016665Y-129517593D02*
X137349998Y-129584260D01*
X136783332Y-129350926D02*
X136616665Y-129817593D01*
X136616665Y-129817593D02*
X136449998Y-129350926D01*
X135916665Y-129784260D02*
X135983332Y-129817593D01*
X135983332Y-129817593D02*
X136116665Y-129817593D01*
X136116665Y-129817593D02*
X136183332Y-129784260D01*
X136183332Y-129784260D02*
X136216665Y-129717593D01*
X136216665Y-129717593D02*
X136216665Y-129450926D01*
X136216665Y-129450926D02*
X136183332Y-129384260D01*
X136183332Y-129384260D02*
X136116665Y-129350926D01*
X136116665Y-129350926D02*
X135983332Y-129350926D01*
X135983332Y-129350926D02*
X135916665Y-129384260D01*
X135916665Y-129384260D02*
X135883332Y-129450926D01*
X135883332Y-129450926D02*
X135883332Y-129517593D01*
X135883332Y-129517593D02*
X136216665Y-129584260D01*
X134683332Y-129150926D02*
X134749999Y-129117593D01*
X134749999Y-129117593D02*
X134849999Y-129117593D01*
X134849999Y-129117593D02*
X134949999Y-129150926D01*
X134949999Y-129150926D02*
X135016666Y-129217593D01*
X135016666Y-129217593D02*
X135049999Y-129284260D01*
X135049999Y-129284260D02*
X135083332Y-129417593D01*
X135083332Y-129417593D02*
X135083332Y-129517593D01*
X135083332Y-129517593D02*
X135049999Y-129650926D01*
X135049999Y-129650926D02*
X135016666Y-129717593D01*
X135016666Y-129717593D02*
X134949999Y-129784260D01*
X134949999Y-129784260D02*
X134849999Y-129817593D01*
X134849999Y-129817593D02*
X134783332Y-129817593D01*
X134783332Y-129817593D02*
X134683332Y-129784260D01*
X134683332Y-129784260D02*
X134649999Y-129750926D01*
X134649999Y-129750926D02*
X134649999Y-129517593D01*
X134649999Y-129517593D02*
X134783332Y-129517593D01*
X134349999Y-129817593D02*
X134349999Y-129350926D01*
X134349999Y-129484260D02*
X134316666Y-129417593D01*
X134316666Y-129417593D02*
X134283332Y-129384260D01*
X134283332Y-129384260D02*
X134216666Y-129350926D01*
X134216666Y-129350926D02*
X134149999Y-129350926D01*
X133916666Y-129817593D02*
X133916666Y-129350926D01*
X133916666Y-129117593D02*
X133949999Y-129150926D01*
X133949999Y-129150926D02*
X133916666Y-129184260D01*
X133916666Y-129184260D02*
X133883333Y-129150926D01*
X133883333Y-129150926D02*
X133916666Y-129117593D01*
X133916666Y-129117593D02*
X133916666Y-129184260D01*
X133683333Y-129350926D02*
X133416666Y-129350926D01*
X133583333Y-129817593D02*
X133583333Y-129217593D01*
X133583333Y-129217593D02*
X133550000Y-129150926D01*
X133550000Y-129150926D02*
X133483333Y-129117593D01*
X133483333Y-129117593D02*
X133416666Y-129117593D01*
X133283333Y-129350926D02*
X133016666Y-129350926D01*
X133183333Y-129817593D02*
X133183333Y-129217593D01*
X133183333Y-129217593D02*
X133150000Y-129150926D01*
X133150000Y-129150926D02*
X133083333Y-129117593D01*
X133083333Y-129117593D02*
X133016666Y-129117593D01*
X132783333Y-129817593D02*
X132783333Y-129350926D01*
X132783333Y-129117593D02*
X132816666Y-129150926D01*
X132816666Y-129150926D02*
X132783333Y-129184260D01*
X132783333Y-129184260D02*
X132750000Y-129150926D01*
X132750000Y-129150926D02*
X132783333Y-129117593D01*
X132783333Y-129117593D02*
X132783333Y-129184260D01*
X132450000Y-129350926D02*
X132450000Y-129817593D01*
X132450000Y-129417593D02*
X132416667Y-129384260D01*
X132416667Y-129384260D02*
X132350000Y-129350926D01*
X132350000Y-129350926D02*
X132250000Y-129350926D01*
X132250000Y-129350926D02*
X132183333Y-129384260D01*
X132183333Y-129384260D02*
X132150000Y-129450926D01*
X132150000Y-129450926D02*
X132150000Y-129817593D01*
X131516667Y-129350926D02*
X131516667Y-129917593D01*
X131516667Y-129917593D02*
X131550000Y-129984260D01*
X131550000Y-129984260D02*
X131583334Y-130017593D01*
X131583334Y-130017593D02*
X131650000Y-130050926D01*
X131650000Y-130050926D02*
X131750000Y-130050926D01*
X131750000Y-130050926D02*
X131816667Y-130017593D01*
X131516667Y-129784260D02*
X131583334Y-129817593D01*
X131583334Y-129817593D02*
X131716667Y-129817593D01*
X131716667Y-129817593D02*
X131783334Y-129784260D01*
X131783334Y-129784260D02*
X131816667Y-129750926D01*
X131816667Y-129750926D02*
X131850000Y-129684260D01*
X131850000Y-129684260D02*
X131850000Y-129484260D01*
X131850000Y-129484260D02*
X131816667Y-129417593D01*
X131816667Y-129417593D02*
X131783334Y-129384260D01*
X131783334Y-129384260D02*
X131716667Y-129350926D01*
X131716667Y-129350926D02*
X131583334Y-129350926D01*
X131583334Y-129350926D02*
X131516667Y-129384260D01*
X130650001Y-129817593D02*
X130650001Y-129117593D01*
X130650001Y-129117593D02*
X130383334Y-129117593D01*
X130383334Y-129117593D02*
X130316668Y-129150926D01*
X130316668Y-129150926D02*
X130283334Y-129184260D01*
X130283334Y-129184260D02*
X130250001Y-129250926D01*
X130250001Y-129250926D02*
X130250001Y-129350926D01*
X130250001Y-129350926D02*
X130283334Y-129417593D01*
X130283334Y-129417593D02*
X130316668Y-129450926D01*
X130316668Y-129450926D02*
X130383334Y-129484260D01*
X130383334Y-129484260D02*
X130650001Y-129484260D01*
X129950001Y-129450926D02*
X129716668Y-129450926D01*
X129616668Y-129817593D02*
X129950001Y-129817593D01*
X129950001Y-129817593D02*
X129950001Y-129117593D01*
X129950001Y-129117593D02*
X129616668Y-129117593D01*
X129116668Y-130084260D02*
X129150001Y-130050926D01*
X129150001Y-130050926D02*
X129216668Y-129950926D01*
X129216668Y-129950926D02*
X129250001Y-129884260D01*
X129250001Y-129884260D02*
X129283335Y-129784260D01*
X129283335Y-129784260D02*
X129316668Y-129617593D01*
X129316668Y-129617593D02*
X129316668Y-129484260D01*
X129316668Y-129484260D02*
X129283335Y-129317593D01*
X129283335Y-129317593D02*
X129250001Y-129217593D01*
X129250001Y-129217593D02*
X129216668Y-129150926D01*
X129216668Y-129150926D02*
X129150001Y-129050926D01*
X129150001Y-129050926D02*
X129116668Y-129017593D01*
X128450001Y-129750926D02*
X128483334Y-129784260D01*
X128483334Y-129784260D02*
X128583334Y-129817593D01*
X128583334Y-129817593D02*
X128650001Y-129817593D01*
X128650001Y-129817593D02*
X128750001Y-129784260D01*
X128750001Y-129784260D02*
X128816668Y-129717593D01*
X128816668Y-129717593D02*
X128850001Y-129650926D01*
X128850001Y-129650926D02*
X128883334Y-129517593D01*
X128883334Y-129517593D02*
X128883334Y-129417593D01*
X128883334Y-129417593D02*
X128850001Y-129284260D01*
X128850001Y-129284260D02*
X128816668Y-129217593D01*
X128816668Y-129217593D02*
X128750001Y-129150926D01*
X128750001Y-129150926D02*
X128650001Y-129117593D01*
X128650001Y-129117593D02*
X128583334Y-129117593D01*
X128583334Y-129117593D02*
X128483334Y-129150926D01*
X128483334Y-129150926D02*
X128450001Y-129184260D01*
X128183334Y-129784260D02*
X128083334Y-129817593D01*
X128083334Y-129817593D02*
X127916668Y-129817593D01*
X127916668Y-129817593D02*
X127850001Y-129784260D01*
X127850001Y-129784260D02*
X127816668Y-129750926D01*
X127816668Y-129750926D02*
X127783334Y-129684260D01*
X127783334Y-129684260D02*
X127783334Y-129617593D01*
X127783334Y-129617593D02*
X127816668Y-129550926D01*
X127816668Y-129550926D02*
X127850001Y-129517593D01*
X127850001Y-129517593D02*
X127916668Y-129484260D01*
X127916668Y-129484260D02*
X128050001Y-129450926D01*
X128050001Y-129450926D02*
X128116668Y-129417593D01*
X128116668Y-129417593D02*
X128150001Y-129384260D01*
X128150001Y-129384260D02*
X128183334Y-129317593D01*
X128183334Y-129317593D02*
X128183334Y-129250926D01*
X128183334Y-129250926D02*
X128150001Y-129184260D01*
X128150001Y-129184260D02*
X128116668Y-129150926D01*
X128116668Y-129150926D02*
X128050001Y-129117593D01*
X128050001Y-129117593D02*
X127883334Y-129117593D01*
X127883334Y-129117593D02*
X127783334Y-129150926D01*
X127483334Y-129450926D02*
X127250001Y-129450926D01*
X127150001Y-129817593D02*
X127483334Y-129817593D01*
X127483334Y-129817593D02*
X127483334Y-129117593D01*
X127483334Y-129117593D02*
X127150001Y-129117593D01*
X126916668Y-130084260D02*
X126883334Y-130050926D01*
X126883334Y-130050926D02*
X126816668Y-129950926D01*
X126816668Y-129950926D02*
X126783334Y-129884260D01*
X126783334Y-129884260D02*
X126750001Y-129784260D01*
X126750001Y-129784260D02*
X126716668Y-129617593D01*
X126716668Y-129617593D02*
X126716668Y-129484260D01*
X126716668Y-129484260D02*
X126750001Y-129317593D01*
X126750001Y-129317593D02*
X126783334Y-129217593D01*
X126783334Y-129217593D02*
X126816668Y-129150926D01*
X126816668Y-129150926D02*
X126883334Y-129050926D01*
X126883334Y-129050926D02*
X126916668Y-129017593D01*
X125450001Y-129750926D02*
X125483334Y-129784260D01*
X125483334Y-129784260D02*
X125583334Y-129817593D01*
X125583334Y-129817593D02*
X125650001Y-129817593D01*
X125650001Y-129817593D02*
X125750001Y-129784260D01*
X125750001Y-129784260D02*
X125816668Y-129717593D01*
X125816668Y-129717593D02*
X125850001Y-129650926D01*
X125850001Y-129650926D02*
X125883334Y-129517593D01*
X125883334Y-129517593D02*
X125883334Y-129417593D01*
X125883334Y-129417593D02*
X125850001Y-129284260D01*
X125850001Y-129284260D02*
X125816668Y-129217593D01*
X125816668Y-129217593D02*
X125750001Y-129150926D01*
X125750001Y-129150926D02*
X125650001Y-129117593D01*
X125650001Y-129117593D02*
X125583334Y-129117593D01*
X125583334Y-129117593D02*
X125483334Y-129150926D01*
X125483334Y-129150926D02*
X125450001Y-129184260D01*
X125150001Y-129817593D02*
X125150001Y-129117593D01*
X124850001Y-129784260D02*
X124750001Y-129817593D01*
X124750001Y-129817593D02*
X124583335Y-129817593D01*
X124583335Y-129817593D02*
X124516668Y-129784260D01*
X124516668Y-129784260D02*
X124483335Y-129750926D01*
X124483335Y-129750926D02*
X124450001Y-129684260D01*
X124450001Y-129684260D02*
X124450001Y-129617593D01*
X124450001Y-129617593D02*
X124483335Y-129550926D01*
X124483335Y-129550926D02*
X124516668Y-129517593D01*
X124516668Y-129517593D02*
X124583335Y-129484260D01*
X124583335Y-129484260D02*
X124716668Y-129450926D01*
X124716668Y-129450926D02*
X124783335Y-129417593D01*
X124783335Y-129417593D02*
X124816668Y-129384260D01*
X124816668Y-129384260D02*
X124850001Y-129317593D01*
X124850001Y-129317593D02*
X124850001Y-129250926D01*
X124850001Y-129250926D02*
X124816668Y-129184260D01*
X124816668Y-129184260D02*
X124783335Y-129150926D01*
X124783335Y-129150926D02*
X124716668Y-129117593D01*
X124716668Y-129117593D02*
X124550001Y-129117593D01*
X124550001Y-129117593D02*
X124450001Y-129150926D01*
X124183334Y-129784260D02*
X124083334Y-129817593D01*
X124083334Y-129817593D02*
X123916668Y-129817593D01*
X123916668Y-129817593D02*
X123850001Y-129784260D01*
X123850001Y-129784260D02*
X123816668Y-129750926D01*
X123816668Y-129750926D02*
X123783334Y-129684260D01*
X123783334Y-129684260D02*
X123783334Y-129617593D01*
X123783334Y-129617593D02*
X123816668Y-129550926D01*
X123816668Y-129550926D02*
X123850001Y-129517593D01*
X123850001Y-129517593D02*
X123916668Y-129484260D01*
X123916668Y-129484260D02*
X124050001Y-129450926D01*
X124050001Y-129450926D02*
X124116668Y-129417593D01*
X124116668Y-129417593D02*
X124150001Y-129384260D01*
X124150001Y-129384260D02*
X124183334Y-129317593D01*
X124183334Y-129317593D02*
X124183334Y-129250926D01*
X124183334Y-129250926D02*
X124150001Y-129184260D01*
X124150001Y-129184260D02*
X124116668Y-129150926D01*
X124116668Y-129150926D02*
X124050001Y-129117593D01*
X124050001Y-129117593D02*
X123883334Y-129117593D01*
X123883334Y-129117593D02*
X123783334Y-129150926D01*
X123483334Y-129817593D02*
X123483334Y-129117593D01*
X123483334Y-129117593D02*
X123216667Y-129117593D01*
X123216667Y-129117593D02*
X123150001Y-129150926D01*
X123150001Y-129150926D02*
X123116667Y-129184260D01*
X123116667Y-129184260D02*
X123083334Y-129250926D01*
X123083334Y-129250926D02*
X123083334Y-129350926D01*
X123083334Y-129350926D02*
X123116667Y-129417593D01*
X123116667Y-129417593D02*
X123150001Y-129450926D01*
X123150001Y-129450926D02*
X123216667Y-129484260D01*
X123216667Y-129484260D02*
X123483334Y-129484260D01*
X122783334Y-129550926D02*
X122250001Y-129550926D01*
X121916667Y-129817593D02*
X121916667Y-129117593D01*
X121616667Y-129784260D02*
X121516667Y-129817593D01*
X121516667Y-129817593D02*
X121350001Y-129817593D01*
X121350001Y-129817593D02*
X121283334Y-129784260D01*
X121283334Y-129784260D02*
X121250001Y-129750926D01*
X121250001Y-129750926D02*
X121216667Y-129684260D01*
X121216667Y-129684260D02*
X121216667Y-129617593D01*
X121216667Y-129617593D02*
X121250001Y-129550926D01*
X121250001Y-129550926D02*
X121283334Y-129517593D01*
X121283334Y-129517593D02*
X121350001Y-129484260D01*
X121350001Y-129484260D02*
X121483334Y-129450926D01*
X121483334Y-129450926D02*
X121550001Y-129417593D01*
X121550001Y-129417593D02*
X121583334Y-129384260D01*
X121583334Y-129384260D02*
X121616667Y-129317593D01*
X121616667Y-129317593D02*
X121616667Y-129250926D01*
X121616667Y-129250926D02*
X121583334Y-129184260D01*
X121583334Y-129184260D02*
X121550001Y-129150926D01*
X121550001Y-129150926D02*
X121483334Y-129117593D01*
X121483334Y-129117593D02*
X121316667Y-129117593D01*
X121316667Y-129117593D02*
X121216667Y-129150926D01*
X120950000Y-129784260D02*
X120850000Y-129817593D01*
X120850000Y-129817593D02*
X120683334Y-129817593D01*
X120683334Y-129817593D02*
X120616667Y-129784260D01*
X120616667Y-129784260D02*
X120583334Y-129750926D01*
X120583334Y-129750926D02*
X120550000Y-129684260D01*
X120550000Y-129684260D02*
X120550000Y-129617593D01*
X120550000Y-129617593D02*
X120583334Y-129550926D01*
X120583334Y-129550926D02*
X120616667Y-129517593D01*
X120616667Y-129517593D02*
X120683334Y-129484260D01*
X120683334Y-129484260D02*
X120816667Y-129450926D01*
X120816667Y-129450926D02*
X120883334Y-129417593D01*
X120883334Y-129417593D02*
X120916667Y-129384260D01*
X120916667Y-129384260D02*
X120950000Y-129317593D01*
X120950000Y-129317593D02*
X120950000Y-129250926D01*
X120950000Y-129250926D02*
X120916667Y-129184260D01*
X120916667Y-129184260D02*
X120883334Y-129150926D01*
X120883334Y-129150926D02*
X120816667Y-129117593D01*
X120816667Y-129117593D02*
X120650000Y-129117593D01*
X120650000Y-129117593D02*
X120550000Y-129150926D01*
X120250000Y-129450926D02*
X120016667Y-129450926D01*
X119916667Y-129817593D02*
X120250000Y-129817593D01*
X120250000Y-129817593D02*
X120250000Y-129117593D01*
X120250000Y-129117593D02*
X119916667Y-129117593D01*
X119616667Y-129817593D02*
X119616667Y-129117593D01*
X119616667Y-129117593D02*
X119350000Y-129117593D01*
X119350000Y-129117593D02*
X119283334Y-129150926D01*
X119283334Y-129150926D02*
X119250000Y-129184260D01*
X119250000Y-129184260D02*
X119216667Y-129250926D01*
X119216667Y-129250926D02*
X119216667Y-129350926D01*
X119216667Y-129350926D02*
X119250000Y-129417593D01*
X119250000Y-129417593D02*
X119283334Y-129450926D01*
X119283334Y-129450926D02*
X119350000Y-129484260D01*
X119350000Y-129484260D02*
X119616667Y-129484260D01*
X117983334Y-129750926D02*
X118016667Y-129784260D01*
X118016667Y-129784260D02*
X118116667Y-129817593D01*
X118116667Y-129817593D02*
X118183334Y-129817593D01*
X118183334Y-129817593D02*
X118283334Y-129784260D01*
X118283334Y-129784260D02*
X118350001Y-129717593D01*
X118350001Y-129717593D02*
X118383334Y-129650926D01*
X118383334Y-129650926D02*
X118416667Y-129517593D01*
X118416667Y-129517593D02*
X118416667Y-129417593D01*
X118416667Y-129417593D02*
X118383334Y-129284260D01*
X118383334Y-129284260D02*
X118350001Y-129217593D01*
X118350001Y-129217593D02*
X118283334Y-129150926D01*
X118283334Y-129150926D02*
X118183334Y-129117593D01*
X118183334Y-129117593D02*
X118116667Y-129117593D01*
X118116667Y-129117593D02*
X118016667Y-129150926D01*
X118016667Y-129150926D02*
X117983334Y-129184260D01*
X117683334Y-129817593D02*
X117683334Y-129117593D01*
X117683334Y-129117593D02*
X117416667Y-129117593D01*
X117416667Y-129117593D02*
X117350001Y-129150926D01*
X117350001Y-129150926D02*
X117316667Y-129184260D01*
X117316667Y-129184260D02*
X117283334Y-129250926D01*
X117283334Y-129250926D02*
X117283334Y-129350926D01*
X117283334Y-129350926D02*
X117316667Y-129417593D01*
X117316667Y-129417593D02*
X117350001Y-129450926D01*
X117350001Y-129450926D02*
X117416667Y-129484260D01*
X117416667Y-129484260D02*
X117683334Y-129484260D01*
X116983334Y-129817593D02*
X116983334Y-129117593D01*
X116983334Y-129117593D02*
X116716667Y-129117593D01*
X116716667Y-129117593D02*
X116650001Y-129150926D01*
X116650001Y-129150926D02*
X116616667Y-129184260D01*
X116616667Y-129184260D02*
X116583334Y-129250926D01*
X116583334Y-129250926D02*
X116583334Y-129350926D01*
X116583334Y-129350926D02*
X116616667Y-129417593D01*
X116616667Y-129417593D02*
X116650001Y-129450926D01*
X116650001Y-129450926D02*
X116716667Y-129484260D01*
X116716667Y-129484260D02*
X116983334Y-129484260D01*
X130900001Y-130311221D02*
X130866668Y-130277887D01*
X130866668Y-130277887D02*
X130800001Y-130244554D01*
X130800001Y-130244554D02*
X130633335Y-130244554D01*
X130633335Y-130244554D02*
X130566668Y-130277887D01*
X130566668Y-130277887D02*
X130533335Y-130311221D01*
X130533335Y-130311221D02*
X130500001Y-130377887D01*
X130500001Y-130377887D02*
X130500001Y-130444554D01*
X130500001Y-130444554D02*
X130533335Y-130544554D01*
X130533335Y-130544554D02*
X130933335Y-130944554D01*
X130933335Y-130944554D02*
X130500001Y-130944554D01*
X130066668Y-130244554D02*
X130000001Y-130244554D01*
X130000001Y-130244554D02*
X129933334Y-130277887D01*
X129933334Y-130277887D02*
X129900001Y-130311221D01*
X129900001Y-130311221D02*
X129866668Y-130377887D01*
X129866668Y-130377887D02*
X129833334Y-130511221D01*
X129833334Y-130511221D02*
X129833334Y-130677887D01*
X129833334Y-130677887D02*
X129866668Y-130811221D01*
X129866668Y-130811221D02*
X129900001Y-130877887D01*
X129900001Y-130877887D02*
X129933334Y-130911221D01*
X129933334Y-130911221D02*
X130000001Y-130944554D01*
X130000001Y-130944554D02*
X130066668Y-130944554D01*
X130066668Y-130944554D02*
X130133334Y-130911221D01*
X130133334Y-130911221D02*
X130166668Y-130877887D01*
X130166668Y-130877887D02*
X130200001Y-130811221D01*
X130200001Y-130811221D02*
X130233334Y-130677887D01*
X130233334Y-130677887D02*
X130233334Y-130511221D01*
X130233334Y-130511221D02*
X130200001Y-130377887D01*
X130200001Y-130377887D02*
X130166668Y-130311221D01*
X130166668Y-130311221D02*
X130133334Y-130277887D01*
X130133334Y-130277887D02*
X130066668Y-130244554D01*
X129566667Y-130311221D02*
X129533334Y-130277887D01*
X129533334Y-130277887D02*
X129466667Y-130244554D01*
X129466667Y-130244554D02*
X129300001Y-130244554D01*
X129300001Y-130244554D02*
X129233334Y-130277887D01*
X129233334Y-130277887D02*
X129200001Y-130311221D01*
X129200001Y-130311221D02*
X129166667Y-130377887D01*
X129166667Y-130377887D02*
X129166667Y-130444554D01*
X129166667Y-130444554D02*
X129200001Y-130544554D01*
X129200001Y-130544554D02*
X129600001Y-130944554D01*
X129600001Y-130944554D02*
X129166667Y-130944554D01*
X128566667Y-130244554D02*
X128700000Y-130244554D01*
X128700000Y-130244554D02*
X128766667Y-130277887D01*
X128766667Y-130277887D02*
X128800000Y-130311221D01*
X128800000Y-130311221D02*
X128866667Y-130411221D01*
X128866667Y-130411221D02*
X128900000Y-130544554D01*
X128900000Y-130544554D02*
X128900000Y-130811221D01*
X128900000Y-130811221D02*
X128866667Y-130877887D01*
X128866667Y-130877887D02*
X128833334Y-130911221D01*
X128833334Y-130911221D02*
X128766667Y-130944554D01*
X128766667Y-130944554D02*
X128633334Y-130944554D01*
X128633334Y-130944554D02*
X128566667Y-130911221D01*
X128566667Y-130911221D02*
X128533334Y-130877887D01*
X128533334Y-130877887D02*
X128500000Y-130811221D01*
X128500000Y-130811221D02*
X128500000Y-130644554D01*
X128500000Y-130644554D02*
X128533334Y-130577887D01*
X128533334Y-130577887D02*
X128566667Y-130544554D01*
X128566667Y-130544554D02*
X128633334Y-130511221D01*
X128633334Y-130511221D02*
X128766667Y-130511221D01*
X128766667Y-130511221D02*
X128833334Y-130544554D01*
X128833334Y-130544554D02*
X128866667Y-130577887D01*
X128866667Y-130577887D02*
X128900000Y-130644554D01*
X128200000Y-130677887D02*
X127666667Y-130677887D01*
X127200000Y-130244554D02*
X127133333Y-130244554D01*
X127133333Y-130244554D02*
X127066666Y-130277887D01*
X127066666Y-130277887D02*
X127033333Y-130311221D01*
X127033333Y-130311221D02*
X127000000Y-130377887D01*
X127000000Y-130377887D02*
X126966666Y-130511221D01*
X126966666Y-130511221D02*
X126966666Y-130677887D01*
X126966666Y-130677887D02*
X127000000Y-130811221D01*
X127000000Y-130811221D02*
X127033333Y-130877887D01*
X127033333Y-130877887D02*
X127066666Y-130911221D01*
X127066666Y-130911221D02*
X127133333Y-130944554D01*
X127133333Y-130944554D02*
X127200000Y-130944554D01*
X127200000Y-130944554D02*
X127266666Y-130911221D01*
X127266666Y-130911221D02*
X127300000Y-130877887D01*
X127300000Y-130877887D02*
X127333333Y-130811221D01*
X127333333Y-130811221D02*
X127366666Y-130677887D01*
X127366666Y-130677887D02*
X127366666Y-130511221D01*
X127366666Y-130511221D02*
X127333333Y-130377887D01*
X127333333Y-130377887D02*
X127300000Y-130311221D01*
X127300000Y-130311221D02*
X127266666Y-130277887D01*
X127266666Y-130277887D02*
X127200000Y-130244554D01*
X126366666Y-130244554D02*
X126499999Y-130244554D01*
X126499999Y-130244554D02*
X126566666Y-130277887D01*
X126566666Y-130277887D02*
X126599999Y-130311221D01*
X126599999Y-130311221D02*
X126666666Y-130411221D01*
X126666666Y-130411221D02*
X126699999Y-130544554D01*
X126699999Y-130544554D02*
X126699999Y-130811221D01*
X126699999Y-130811221D02*
X126666666Y-130877887D01*
X126666666Y-130877887D02*
X126633333Y-130911221D01*
X126633333Y-130911221D02*
X126566666Y-130944554D01*
X126566666Y-130944554D02*
X126433333Y-130944554D01*
X126433333Y-130944554D02*
X126366666Y-130911221D01*
X126366666Y-130911221D02*
X126333333Y-130877887D01*
X126333333Y-130877887D02*
X126299999Y-130811221D01*
X126299999Y-130811221D02*
X126299999Y-130644554D01*
X126299999Y-130644554D02*
X126333333Y-130577887D01*
X126333333Y-130577887D02*
X126366666Y-130544554D01*
X126366666Y-130544554D02*
X126433333Y-130511221D01*
X126433333Y-130511221D02*
X126566666Y-130511221D01*
X126566666Y-130511221D02*
X126633333Y-130544554D01*
X126633333Y-130544554D02*
X126666666Y-130577887D01*
X126666666Y-130577887D02*
X126699999Y-130644554D01*
X125999999Y-130677887D02*
X125466666Y-130677887D01*
X124999999Y-130244554D02*
X124933332Y-130244554D01*
X124933332Y-130244554D02*
X124866665Y-130277887D01*
X124866665Y-130277887D02*
X124833332Y-130311221D01*
X124833332Y-130311221D02*
X124799999Y-130377887D01*
X124799999Y-130377887D02*
X124766665Y-130511221D01*
X124766665Y-130511221D02*
X124766665Y-130677887D01*
X124766665Y-130677887D02*
X124799999Y-130811221D01*
X124799999Y-130811221D02*
X124833332Y-130877887D01*
X124833332Y-130877887D02*
X124866665Y-130911221D01*
X124866665Y-130911221D02*
X124933332Y-130944554D01*
X124933332Y-130944554D02*
X124999999Y-130944554D01*
X124999999Y-130944554D02*
X125066665Y-130911221D01*
X125066665Y-130911221D02*
X125099999Y-130877887D01*
X125099999Y-130877887D02*
X125133332Y-130811221D01*
X125133332Y-130811221D02*
X125166665Y-130677887D01*
X125166665Y-130677887D02*
X125166665Y-130511221D01*
X125166665Y-130511221D02*
X125133332Y-130377887D01*
X125133332Y-130377887D02*
X125099999Y-130311221D01*
X125099999Y-130311221D02*
X125066665Y-130277887D01*
X125066665Y-130277887D02*
X124999999Y-130244554D01*
X124533332Y-130244554D02*
X124099998Y-130244554D01*
X124099998Y-130244554D02*
X124333332Y-130511221D01*
X124333332Y-130511221D02*
X124233332Y-130511221D01*
X124233332Y-130511221D02*
X124166665Y-130544554D01*
X124166665Y-130544554D02*
X124133332Y-130577887D01*
X124133332Y-130577887D02*
X124099998Y-130644554D01*
X124099998Y-130644554D02*
X124099998Y-130811221D01*
X124099998Y-130811221D02*
X124133332Y-130877887D01*
X124133332Y-130877887D02*
X124166665Y-130911221D01*
X124166665Y-130911221D02*
X124233332Y-130944554D01*
X124233332Y-130944554D02*
X124433332Y-130944554D01*
X124433332Y-130944554D02*
X124499998Y-130911221D01*
X124499998Y-130911221D02*
X124533332Y-130877887D01*
X117547619Y-99678701D02*
X117547619Y-100212035D01*
X117738095Y-99373940D02*
X117928572Y-99945368D01*
X117928572Y-99945368D02*
X117433333Y-99945368D01*
X117090476Y-100212035D02*
X116938095Y-100212035D01*
X116938095Y-100212035D02*
X116861905Y-100173940D01*
X116861905Y-100173940D02*
X116823809Y-100135844D01*
X116823809Y-100135844D02*
X116747619Y-100021559D01*
X116747619Y-100021559D02*
X116709524Y-99869178D01*
X116709524Y-99869178D02*
X116709524Y-99564416D01*
X116709524Y-99564416D02*
X116747619Y-99488225D01*
X116747619Y-99488225D02*
X116785714Y-99450130D01*
X116785714Y-99450130D02*
X116861905Y-99412035D01*
X116861905Y-99412035D02*
X117014286Y-99412035D01*
X117014286Y-99412035D02*
X117090476Y-99450130D01*
X117090476Y-99450130D02*
X117128571Y-99488225D01*
X117128571Y-99488225D02*
X117166667Y-99564416D01*
X117166667Y-99564416D02*
X117166667Y-99754892D01*
X117166667Y-99754892D02*
X117128571Y-99831082D01*
X117128571Y-99831082D02*
X117090476Y-99869178D01*
X117090476Y-99869178D02*
X117014286Y-99907273D01*
X117014286Y-99907273D02*
X116861905Y-99907273D01*
X116861905Y-99907273D02*
X116785714Y-99869178D01*
X116785714Y-99869178D02*
X116747619Y-99831082D01*
X116747619Y-99831082D02*
X116709524Y-99754892D01*
X115757142Y-100212035D02*
X115757142Y-99412035D01*
X115757142Y-99412035D02*
X115490476Y-99983463D01*
X115490476Y-99983463D02*
X115223809Y-99412035D01*
X115223809Y-99412035D02*
X115223809Y-100212035D01*
X114842856Y-100212035D02*
X114842856Y-99412035D01*
X114842856Y-99792987D02*
X114385713Y-99792987D01*
X114385713Y-100212035D02*
X114385713Y-99412035D01*
X114080952Y-99678701D02*
X113661904Y-99678701D01*
X113661904Y-99678701D02*
X114080952Y-100212035D01*
X114080952Y-100212035D02*
X113661904Y-100212035D01*
X112785714Y-99983463D02*
X112404761Y-99983463D01*
X112861904Y-100212035D02*
X112595237Y-99412035D01*
X112595237Y-99412035D02*
X112328571Y-100212035D01*
X112138095Y-99412035D02*
X111604761Y-100212035D01*
X111604761Y-99412035D02*
X112138095Y-100212035D01*
X111299999Y-100135844D02*
X111261904Y-100173940D01*
X111261904Y-100173940D02*
X111299999Y-100212035D01*
X111299999Y-100212035D02*
X111338095Y-100173940D01*
X111338095Y-100173940D02*
X111299999Y-100135844D01*
X111299999Y-100135844D02*
X111299999Y-100212035D01*
X110957143Y-99488225D02*
X110919047Y-99450130D01*
X110919047Y-99450130D02*
X110842857Y-99412035D01*
X110842857Y-99412035D02*
X110652381Y-99412035D01*
X110652381Y-99412035D02*
X110576190Y-99450130D01*
X110576190Y-99450130D02*
X110538095Y-99488225D01*
X110538095Y-99488225D02*
X110500000Y-99564416D01*
X110500000Y-99564416D02*
X110500000Y-99640606D01*
X110500000Y-99640606D02*
X110538095Y-99754892D01*
X110538095Y-99754892D02*
X110995238Y-100212035D01*
X110995238Y-100212035D02*
X110500000Y-100212035D01*
X109776190Y-99412035D02*
X110157142Y-99412035D01*
X110157142Y-99412035D02*
X110195238Y-99792987D01*
X110195238Y-99792987D02*
X110157142Y-99754892D01*
X110157142Y-99754892D02*
X110080952Y-99716797D01*
X110080952Y-99716797D02*
X109890476Y-99716797D01*
X109890476Y-99716797D02*
X109814285Y-99754892D01*
X109814285Y-99754892D02*
X109776190Y-99792987D01*
X109776190Y-99792987D02*
X109738095Y-99869178D01*
X109738095Y-99869178D02*
X109738095Y-100059654D01*
X109738095Y-100059654D02*
X109776190Y-100135844D01*
X109776190Y-100135844D02*
X109814285Y-100173940D01*
X109814285Y-100173940D02*
X109890476Y-100212035D01*
X109890476Y-100212035D02*
X110080952Y-100212035D01*
X110080952Y-100212035D02*
X110157142Y-100173940D01*
X110157142Y-100173940D02*
X110195238Y-100135844D01*
X108785713Y-100212035D02*
X108785713Y-99412035D01*
X108328570Y-100212035D02*
X108671428Y-99754892D01*
X108328570Y-99412035D02*
X108785713Y-99869178D01*
X107985713Y-100212035D02*
X107985713Y-99412035D01*
X107642857Y-100173940D02*
X107528571Y-100212035D01*
X107528571Y-100212035D02*
X107338095Y-100212035D01*
X107338095Y-100212035D02*
X107261904Y-100173940D01*
X107261904Y-100173940D02*
X107223809Y-100135844D01*
X107223809Y-100135844D02*
X107185714Y-100059654D01*
X107185714Y-100059654D02*
X107185714Y-99983463D01*
X107185714Y-99983463D02*
X107223809Y-99907273D01*
X107223809Y-99907273D02*
X107261904Y-99869178D01*
X107261904Y-99869178D02*
X107338095Y-99831082D01*
X107338095Y-99831082D02*
X107490476Y-99792987D01*
X107490476Y-99792987D02*
X107566666Y-99754892D01*
X107566666Y-99754892D02*
X107604761Y-99716797D01*
X107604761Y-99716797D02*
X107642857Y-99640606D01*
X107642857Y-99640606D02*
X107642857Y-99564416D01*
X107642857Y-99564416D02*
X107604761Y-99488225D01*
X107604761Y-99488225D02*
X107566666Y-99450130D01*
X107566666Y-99450130D02*
X107490476Y-99412035D01*
X107490476Y-99412035D02*
X107299999Y-99412035D01*
X107299999Y-99412035D02*
X107185714Y-99450130D01*
X106880952Y-100173940D02*
X106766666Y-100212035D01*
X106766666Y-100212035D02*
X106576190Y-100212035D01*
X106576190Y-100212035D02*
X106499999Y-100173940D01*
X106499999Y-100173940D02*
X106461904Y-100135844D01*
X106461904Y-100135844D02*
X106423809Y-100059654D01*
X106423809Y-100059654D02*
X106423809Y-99983463D01*
X106423809Y-99983463D02*
X106461904Y-99907273D01*
X106461904Y-99907273D02*
X106499999Y-99869178D01*
X106499999Y-99869178D02*
X106576190Y-99831082D01*
X106576190Y-99831082D02*
X106728571Y-99792987D01*
X106728571Y-99792987D02*
X106804761Y-99754892D01*
X106804761Y-99754892D02*
X106842856Y-99716797D01*
X106842856Y-99716797D02*
X106880952Y-99640606D01*
X106880952Y-99640606D02*
X106880952Y-99564416D01*
X106880952Y-99564416D02*
X106842856Y-99488225D01*
X106842856Y-99488225D02*
X106804761Y-99450130D01*
X106804761Y-99450130D02*
X106728571Y-99412035D01*
X106728571Y-99412035D02*
X106538094Y-99412035D01*
X106538094Y-99412035D02*
X106423809Y-99450130D01*
X105585713Y-99412035D02*
X105128570Y-99412035D01*
X105357142Y-100212035D02*
X105357142Y-99412035D01*
X104861903Y-100212035D02*
X104861903Y-99678701D01*
X104861903Y-99831082D02*
X104823808Y-99754892D01*
X104823808Y-99754892D02*
X104785713Y-99716797D01*
X104785713Y-99716797D02*
X104709522Y-99678701D01*
X104709522Y-99678701D02*
X104633332Y-99678701D01*
X104023808Y-100212035D02*
X104023808Y-99792987D01*
X104023808Y-99792987D02*
X104061903Y-99716797D01*
X104061903Y-99716797D02*
X104138094Y-99678701D01*
X104138094Y-99678701D02*
X104290475Y-99678701D01*
X104290475Y-99678701D02*
X104366665Y-99716797D01*
X104023808Y-100173940D02*
X104099999Y-100212035D01*
X104099999Y-100212035D02*
X104290475Y-100212035D01*
X104290475Y-100212035D02*
X104366665Y-100173940D01*
X104366665Y-100173940D02*
X104404761Y-100097749D01*
X104404761Y-100097749D02*
X104404761Y-100021559D01*
X104404761Y-100021559D02*
X104366665Y-99945368D01*
X104366665Y-99945368D02*
X104290475Y-99907273D01*
X104290475Y-99907273D02*
X104099999Y-99907273D01*
X104099999Y-99907273D02*
X104023808Y-99869178D01*
X103642855Y-99678701D02*
X103642855Y-100212035D01*
X103642855Y-99754892D02*
X103604760Y-99716797D01*
X103604760Y-99716797D02*
X103528570Y-99678701D01*
X103528570Y-99678701D02*
X103414284Y-99678701D01*
X103414284Y-99678701D02*
X103338093Y-99716797D01*
X103338093Y-99716797D02*
X103299998Y-99792987D01*
X103299998Y-99792987D02*
X103299998Y-100212035D01*
X102957141Y-100173940D02*
X102880950Y-100212035D01*
X102880950Y-100212035D02*
X102728569Y-100212035D01*
X102728569Y-100212035D02*
X102652379Y-100173940D01*
X102652379Y-100173940D02*
X102614283Y-100097749D01*
X102614283Y-100097749D02*
X102614283Y-100059654D01*
X102614283Y-100059654D02*
X102652379Y-99983463D01*
X102652379Y-99983463D02*
X102728569Y-99945368D01*
X102728569Y-99945368D02*
X102842855Y-99945368D01*
X102842855Y-99945368D02*
X102919045Y-99907273D01*
X102919045Y-99907273D02*
X102957141Y-99831082D01*
X102957141Y-99831082D02*
X102957141Y-99792987D01*
X102957141Y-99792987D02*
X102919045Y-99716797D01*
X102919045Y-99716797D02*
X102842855Y-99678701D01*
X102842855Y-99678701D02*
X102728569Y-99678701D01*
X102728569Y-99678701D02*
X102652379Y-99716797D01*
X101928569Y-100173940D02*
X102004760Y-100212035D01*
X102004760Y-100212035D02*
X102157141Y-100212035D01*
X102157141Y-100212035D02*
X102233331Y-100173940D01*
X102233331Y-100173940D02*
X102271426Y-100135844D01*
X102271426Y-100135844D02*
X102309522Y-100059654D01*
X102309522Y-100059654D02*
X102309522Y-99831082D01*
X102309522Y-99831082D02*
X102271426Y-99754892D01*
X102271426Y-99754892D02*
X102233331Y-99716797D01*
X102233331Y-99716797D02*
X102157141Y-99678701D01*
X102157141Y-99678701D02*
X102004760Y-99678701D01*
X102004760Y-99678701D02*
X101928569Y-99716797D01*
X101280950Y-100173940D02*
X101357141Y-100212035D01*
X101357141Y-100212035D02*
X101509522Y-100212035D01*
X101509522Y-100212035D02*
X101585712Y-100173940D01*
X101585712Y-100173940D02*
X101623808Y-100097749D01*
X101623808Y-100097749D02*
X101623808Y-99792987D01*
X101623808Y-99792987D02*
X101585712Y-99716797D01*
X101585712Y-99716797D02*
X101509522Y-99678701D01*
X101509522Y-99678701D02*
X101357141Y-99678701D01*
X101357141Y-99678701D02*
X101280950Y-99716797D01*
X101280950Y-99716797D02*
X101242855Y-99792987D01*
X101242855Y-99792987D02*
X101242855Y-99869178D01*
X101242855Y-99869178D02*
X101623808Y-99945368D01*
X100899998Y-100212035D02*
X100899998Y-99678701D01*
X100899998Y-99412035D02*
X100938094Y-99450130D01*
X100938094Y-99450130D02*
X100899998Y-99488225D01*
X100899998Y-99488225D02*
X100861903Y-99450130D01*
X100861903Y-99450130D02*
X100899998Y-99412035D01*
X100899998Y-99412035D02*
X100899998Y-99488225D01*
X100595237Y-99678701D02*
X100404761Y-100212035D01*
X100404761Y-100212035D02*
X100214284Y-99678701D01*
X99604760Y-100173940D02*
X99680951Y-100212035D01*
X99680951Y-100212035D02*
X99833332Y-100212035D01*
X99833332Y-100212035D02*
X99909522Y-100173940D01*
X99909522Y-100173940D02*
X99947618Y-100097749D01*
X99947618Y-100097749D02*
X99947618Y-99792987D01*
X99947618Y-99792987D02*
X99909522Y-99716797D01*
X99909522Y-99716797D02*
X99833332Y-99678701D01*
X99833332Y-99678701D02*
X99680951Y-99678701D01*
X99680951Y-99678701D02*
X99604760Y-99716797D01*
X99604760Y-99716797D02*
X99566665Y-99792987D01*
X99566665Y-99792987D02*
X99566665Y-99869178D01*
X99566665Y-99869178D02*
X99947618Y-99945368D01*
X99223808Y-100212035D02*
X99223808Y-99678701D01*
X99223808Y-99831082D02*
X99185713Y-99754892D01*
X99185713Y-99754892D02*
X99147618Y-99716797D01*
X99147618Y-99716797D02*
X99071427Y-99678701D01*
X99071427Y-99678701D02*
X98995237Y-99678701D01*
X120709525Y-100699990D02*
X120176191Y-101499990D01*
X120176191Y-100699990D02*
X120709525Y-101499990D01*
X119414286Y-101423799D02*
X119452382Y-101461895D01*
X119452382Y-101461895D02*
X119566667Y-101499990D01*
X119566667Y-101499990D02*
X119642858Y-101499990D01*
X119642858Y-101499990D02*
X119757144Y-101461895D01*
X119757144Y-101461895D02*
X119833334Y-101385704D01*
X119833334Y-101385704D02*
X119871429Y-101309514D01*
X119871429Y-101309514D02*
X119909525Y-101157133D01*
X119909525Y-101157133D02*
X119909525Y-101042847D01*
X119909525Y-101042847D02*
X119871429Y-100890466D01*
X119871429Y-100890466D02*
X119833334Y-100814275D01*
X119833334Y-100814275D02*
X119757144Y-100738085D01*
X119757144Y-100738085D02*
X119642858Y-100699990D01*
X119642858Y-100699990D02*
X119566667Y-100699990D01*
X119566667Y-100699990D02*
X119452382Y-100738085D01*
X119452382Y-100738085D02*
X119414286Y-100776180D01*
X119185715Y-100699990D02*
X118919048Y-101499990D01*
X118919048Y-101499990D02*
X118652382Y-100699990D01*
X117928572Y-101499990D02*
X118195239Y-101119037D01*
X118385715Y-101499990D02*
X118385715Y-100699990D01*
X118385715Y-100699990D02*
X118080953Y-100699990D01*
X118080953Y-100699990D02*
X118004763Y-100738085D01*
X118004763Y-100738085D02*
X117966668Y-100776180D01*
X117966668Y-100776180D02*
X117928572Y-100852371D01*
X117928572Y-100852371D02*
X117928572Y-100966656D01*
X117928572Y-100966656D02*
X117966668Y-101042847D01*
X117966668Y-101042847D02*
X118004763Y-101080942D01*
X118004763Y-101080942D02*
X118080953Y-101119037D01*
X118080953Y-101119037D02*
X118385715Y-101119037D01*
X117585715Y-101195228D02*
X116976192Y-101195228D01*
X116252382Y-100966656D02*
X116252382Y-101499990D01*
X116442858Y-100661895D02*
X116633335Y-101233323D01*
X116633335Y-101233323D02*
X116138096Y-101233323D01*
X115795239Y-101499990D02*
X115642858Y-101499990D01*
X115642858Y-101499990D02*
X115566668Y-101461895D01*
X115566668Y-101461895D02*
X115528572Y-101423799D01*
X115528572Y-101423799D02*
X115452382Y-101309514D01*
X115452382Y-101309514D02*
X115414287Y-101157133D01*
X115414287Y-101157133D02*
X115414287Y-100852371D01*
X115414287Y-100852371D02*
X115452382Y-100776180D01*
X115452382Y-100776180D02*
X115490477Y-100738085D01*
X115490477Y-100738085D02*
X115566668Y-100699990D01*
X115566668Y-100699990D02*
X115719049Y-100699990D01*
X115719049Y-100699990D02*
X115795239Y-100738085D01*
X115795239Y-100738085D02*
X115833334Y-100776180D01*
X115833334Y-100776180D02*
X115871430Y-100852371D01*
X115871430Y-100852371D02*
X115871430Y-101042847D01*
X115871430Y-101042847D02*
X115833334Y-101119037D01*
X115833334Y-101119037D02*
X115795239Y-101157133D01*
X115795239Y-101157133D02*
X115719049Y-101195228D01*
X115719049Y-101195228D02*
X115566668Y-101195228D01*
X115566668Y-101195228D02*
X115490477Y-101157133D01*
X115490477Y-101157133D02*
X115452382Y-101119037D01*
X115452382Y-101119037D02*
X115414287Y-101042847D01*
X115071429Y-101499990D02*
X115071429Y-100699990D01*
X115071429Y-100699990D02*
X114804763Y-101271418D01*
X114804763Y-101271418D02*
X114538096Y-100699990D01*
X114538096Y-100699990D02*
X114538096Y-101499990D01*
X114157143Y-101499990D02*
X114157143Y-100699990D01*
X114157143Y-101080942D02*
X113700000Y-101080942D01*
X113700000Y-101499990D02*
X113700000Y-100699990D01*
X113395239Y-100699990D02*
X112861905Y-100699990D01*
X112861905Y-100699990D02*
X113395239Y-101499990D01*
X113395239Y-101499990D02*
X112861905Y-101499990D01*
X112557143Y-101195228D02*
X111947620Y-101195228D01*
X111604763Y-100776180D02*
X111566667Y-100738085D01*
X111566667Y-100738085D02*
X111490477Y-100699990D01*
X111490477Y-100699990D02*
X111300001Y-100699990D01*
X111300001Y-100699990D02*
X111223810Y-100738085D01*
X111223810Y-100738085D02*
X111185715Y-100776180D01*
X111185715Y-100776180D02*
X111147620Y-100852371D01*
X111147620Y-100852371D02*
X111147620Y-100928561D01*
X111147620Y-100928561D02*
X111185715Y-101042847D01*
X111185715Y-101042847D02*
X111642858Y-101499990D01*
X111642858Y-101499990D02*
X111147620Y-101499990D01*
X109738095Y-101499990D02*
X110004762Y-101119037D01*
X110195238Y-101499990D02*
X110195238Y-100699990D01*
X110195238Y-100699990D02*
X109890476Y-100699990D01*
X109890476Y-100699990D02*
X109814286Y-100738085D01*
X109814286Y-100738085D02*
X109776191Y-100776180D01*
X109776191Y-100776180D02*
X109738095Y-100852371D01*
X109738095Y-100852371D02*
X109738095Y-100966656D01*
X109738095Y-100966656D02*
X109776191Y-101042847D01*
X109776191Y-101042847D02*
X109814286Y-101080942D01*
X109814286Y-101080942D02*
X109890476Y-101119037D01*
X109890476Y-101119037D02*
X110195238Y-101119037D01*
X109090476Y-101461895D02*
X109166667Y-101499990D01*
X109166667Y-101499990D02*
X109319048Y-101499990D01*
X109319048Y-101499990D02*
X109395238Y-101461895D01*
X109395238Y-101461895D02*
X109433334Y-101385704D01*
X109433334Y-101385704D02*
X109433334Y-101080942D01*
X109433334Y-101080942D02*
X109395238Y-101004752D01*
X109395238Y-101004752D02*
X109319048Y-100966656D01*
X109319048Y-100966656D02*
X109166667Y-100966656D01*
X109166667Y-100966656D02*
X109090476Y-101004752D01*
X109090476Y-101004752D02*
X109052381Y-101080942D01*
X109052381Y-101080942D02*
X109052381Y-101157133D01*
X109052381Y-101157133D02*
X109433334Y-101233323D01*
X108785715Y-100966656D02*
X108595239Y-101499990D01*
X108595239Y-101499990D02*
X108404762Y-100966656D01*
X107528572Y-100776180D02*
X107490476Y-100738085D01*
X107490476Y-100738085D02*
X107414286Y-100699990D01*
X107414286Y-100699990D02*
X107223810Y-100699990D01*
X107223810Y-100699990D02*
X107147619Y-100738085D01*
X107147619Y-100738085D02*
X107109524Y-100776180D01*
X107109524Y-100776180D02*
X107071429Y-100852371D01*
X107071429Y-100852371D02*
X107071429Y-100928561D01*
X107071429Y-100928561D02*
X107109524Y-101042847D01*
X107109524Y-101042847D02*
X107566667Y-101499990D01*
X107566667Y-101499990D02*
X107071429Y-101499990D01*
X106195238Y-101233323D02*
X105509524Y-101233323D01*
X104595237Y-101080942D02*
X104328571Y-101080942D01*
X104214285Y-101499990D02*
X104595237Y-101499990D01*
X104595237Y-101499990D02*
X104595237Y-100699990D01*
X104595237Y-100699990D02*
X104214285Y-100699990D01*
X103871427Y-101499990D02*
X103871427Y-100699990D01*
X103871427Y-100699990D02*
X103604761Y-101271418D01*
X103604761Y-101271418D02*
X103338094Y-100699990D01*
X103338094Y-100699990D02*
X103338094Y-101499990D01*
X102957141Y-101499990D02*
X102957141Y-100699990D01*
X102576189Y-101195228D02*
X101966666Y-101195228D01*
X101585713Y-101499990D02*
X101585713Y-100699990D01*
X101585713Y-101080942D02*
X101128570Y-101080942D01*
X101128570Y-101499990D02*
X101128570Y-100699990D01*
X100404761Y-101499990D02*
X100404761Y-101080942D01*
X100404761Y-101080942D02*
X100442856Y-101004752D01*
X100442856Y-101004752D02*
X100519047Y-100966656D01*
X100519047Y-100966656D02*
X100671428Y-100966656D01*
X100671428Y-100966656D02*
X100747618Y-101004752D01*
X100404761Y-101461895D02*
X100480952Y-101499990D01*
X100480952Y-101499990D02*
X100671428Y-101499990D01*
X100671428Y-101499990D02*
X100747618Y-101461895D01*
X100747618Y-101461895D02*
X100785714Y-101385704D01*
X100785714Y-101385704D02*
X100785714Y-101309514D01*
X100785714Y-101309514D02*
X100747618Y-101233323D01*
X100747618Y-101233323D02*
X100671428Y-101195228D01*
X100671428Y-101195228D02*
X100480952Y-101195228D01*
X100480952Y-101195228D02*
X100404761Y-101157133D01*
X100023808Y-101499990D02*
X100023808Y-100966656D01*
X100023808Y-101119037D02*
X99985713Y-101042847D01*
X99985713Y-101042847D02*
X99947618Y-101004752D01*
X99947618Y-101004752D02*
X99871427Y-100966656D01*
X99871427Y-100966656D02*
X99795237Y-100966656D01*
X99185713Y-101499990D02*
X99185713Y-100699990D01*
X99185713Y-101461895D02*
X99261904Y-101499990D01*
X99261904Y-101499990D02*
X99414285Y-101499990D01*
X99414285Y-101499990D02*
X99490475Y-101461895D01*
X99490475Y-101461895D02*
X99528570Y-101423799D01*
X99528570Y-101423799D02*
X99566666Y-101347609D01*
X99566666Y-101347609D02*
X99566666Y-101119037D01*
X99566666Y-101119037D02*
X99528570Y-101042847D01*
X99528570Y-101042847D02*
X99490475Y-101004752D01*
X99490475Y-101004752D02*
X99414285Y-100966656D01*
X99414285Y-100966656D02*
X99261904Y-100966656D01*
X99261904Y-100966656D02*
X99185713Y-101004752D01*
X98499998Y-101461895D02*
X98576189Y-101499990D01*
X98576189Y-101499990D02*
X98728570Y-101499990D01*
X98728570Y-101499990D02*
X98804760Y-101461895D01*
X98804760Y-101461895D02*
X98842856Y-101385704D01*
X98842856Y-101385704D02*
X98842856Y-101080942D01*
X98842856Y-101080942D02*
X98804760Y-101004752D01*
X98804760Y-101004752D02*
X98728570Y-100966656D01*
X98728570Y-100966656D02*
X98576189Y-100966656D01*
X98576189Y-100966656D02*
X98499998Y-101004752D01*
X98499998Y-101004752D02*
X98461903Y-101080942D01*
X98461903Y-101080942D02*
X98461903Y-101157133D01*
X98461903Y-101157133D02*
X98842856Y-101233323D01*
X98119046Y-100966656D02*
X98119046Y-101499990D01*
X98119046Y-101042847D02*
X98080951Y-101004752D01*
X98080951Y-101004752D02*
X98004761Y-100966656D01*
X98004761Y-100966656D02*
X97890475Y-100966656D01*
X97890475Y-100966656D02*
X97814284Y-101004752D01*
X97814284Y-101004752D02*
X97776189Y-101080942D01*
X97776189Y-101080942D02*
X97776189Y-101499990D01*
X97090474Y-101461895D02*
X97166665Y-101499990D01*
X97166665Y-101499990D02*
X97319046Y-101499990D01*
X97319046Y-101499990D02*
X97395236Y-101461895D01*
X97395236Y-101461895D02*
X97433332Y-101385704D01*
X97433332Y-101385704D02*
X97433332Y-101080942D01*
X97433332Y-101080942D02*
X97395236Y-101004752D01*
X97395236Y-101004752D02*
X97319046Y-100966656D01*
X97319046Y-100966656D02*
X97166665Y-100966656D01*
X97166665Y-100966656D02*
X97090474Y-101004752D01*
X97090474Y-101004752D02*
X97052379Y-101080942D01*
X97052379Y-101080942D02*
X97052379Y-101157133D01*
X97052379Y-101157133D02*
X97433332Y-101233323D01*
X96366665Y-101499990D02*
X96366665Y-100699990D01*
X96366665Y-101461895D02*
X96442856Y-101499990D01*
X96442856Y-101499990D02*
X96595237Y-101499990D01*
X96595237Y-101499990D02*
X96671427Y-101461895D01*
X96671427Y-101461895D02*
X96709522Y-101423799D01*
X96709522Y-101423799D02*
X96747618Y-101347609D01*
X96747618Y-101347609D02*
X96747618Y-101119037D01*
X96747618Y-101119037D02*
X96709522Y-101042847D01*
X96709522Y-101042847D02*
X96671427Y-101004752D01*
X96671427Y-101004752D02*
X96595237Y-100966656D01*
X96595237Y-100966656D02*
X96442856Y-100966656D01*
X96442856Y-100966656D02*
X96366665Y-101004752D01*
X115109525Y-102368897D02*
X115376191Y-102368897D01*
X115376191Y-102787945D02*
X115376191Y-101987945D01*
X115376191Y-101987945D02*
X114995239Y-101987945D01*
X114233334Y-102711754D02*
X114271430Y-102749850D01*
X114271430Y-102749850D02*
X114385715Y-102787945D01*
X114385715Y-102787945D02*
X114461906Y-102787945D01*
X114461906Y-102787945D02*
X114576192Y-102749850D01*
X114576192Y-102749850D02*
X114652382Y-102673659D01*
X114652382Y-102673659D02*
X114690477Y-102597469D01*
X114690477Y-102597469D02*
X114728573Y-102445088D01*
X114728573Y-102445088D02*
X114728573Y-102330802D01*
X114728573Y-102330802D02*
X114690477Y-102178421D01*
X114690477Y-102178421D02*
X114652382Y-102102230D01*
X114652382Y-102102230D02*
X114576192Y-102026040D01*
X114576192Y-102026040D02*
X114461906Y-101987945D01*
X114461906Y-101987945D02*
X114385715Y-101987945D01*
X114385715Y-101987945D02*
X114271430Y-102026040D01*
X114271430Y-102026040D02*
X114233334Y-102064135D01*
X113433334Y-102711754D02*
X113471430Y-102749850D01*
X113471430Y-102749850D02*
X113585715Y-102787945D01*
X113585715Y-102787945D02*
X113661906Y-102787945D01*
X113661906Y-102787945D02*
X113776192Y-102749850D01*
X113776192Y-102749850D02*
X113852382Y-102673659D01*
X113852382Y-102673659D02*
X113890477Y-102597469D01*
X113890477Y-102597469D02*
X113928573Y-102445088D01*
X113928573Y-102445088D02*
X113928573Y-102330802D01*
X113928573Y-102330802D02*
X113890477Y-102178421D01*
X113890477Y-102178421D02*
X113852382Y-102102230D01*
X113852382Y-102102230D02*
X113776192Y-102026040D01*
X113776192Y-102026040D02*
X113661906Y-101987945D01*
X113661906Y-101987945D02*
X113585715Y-101987945D01*
X113585715Y-101987945D02*
X113471430Y-102026040D01*
X113471430Y-102026040D02*
X113433334Y-102064135D01*
X112480953Y-102787945D02*
X112480953Y-101987945D01*
X112480953Y-101987945D02*
X112176191Y-101987945D01*
X112176191Y-101987945D02*
X112100001Y-102026040D01*
X112100001Y-102026040D02*
X112061906Y-102064135D01*
X112061906Y-102064135D02*
X112023810Y-102140326D01*
X112023810Y-102140326D02*
X112023810Y-102254611D01*
X112023810Y-102254611D02*
X112061906Y-102330802D01*
X112061906Y-102330802D02*
X112100001Y-102368897D01*
X112100001Y-102368897D02*
X112176191Y-102406992D01*
X112176191Y-102406992D02*
X112480953Y-102406992D01*
X111338096Y-102787945D02*
X111338096Y-102368897D01*
X111338096Y-102368897D02*
X111376191Y-102292707D01*
X111376191Y-102292707D02*
X111452382Y-102254611D01*
X111452382Y-102254611D02*
X111604763Y-102254611D01*
X111604763Y-102254611D02*
X111680953Y-102292707D01*
X111338096Y-102749850D02*
X111414287Y-102787945D01*
X111414287Y-102787945D02*
X111604763Y-102787945D01*
X111604763Y-102787945D02*
X111680953Y-102749850D01*
X111680953Y-102749850D02*
X111719049Y-102673659D01*
X111719049Y-102673659D02*
X111719049Y-102597469D01*
X111719049Y-102597469D02*
X111680953Y-102521278D01*
X111680953Y-102521278D02*
X111604763Y-102483183D01*
X111604763Y-102483183D02*
X111414287Y-102483183D01*
X111414287Y-102483183D02*
X111338096Y-102445088D01*
X110957143Y-102787945D02*
X110957143Y-102254611D01*
X110957143Y-102406992D02*
X110919048Y-102330802D01*
X110919048Y-102330802D02*
X110880953Y-102292707D01*
X110880953Y-102292707D02*
X110804762Y-102254611D01*
X110804762Y-102254611D02*
X110728572Y-102254611D01*
X110576191Y-102254611D02*
X110271429Y-102254611D01*
X110461905Y-101987945D02*
X110461905Y-102673659D01*
X110461905Y-102673659D02*
X110423810Y-102749850D01*
X110423810Y-102749850D02*
X110347620Y-102787945D01*
X110347620Y-102787945D02*
X110271429Y-102787945D01*
X109357143Y-102787945D02*
X109204762Y-102787945D01*
X109204762Y-102787945D02*
X109128572Y-102749850D01*
X109128572Y-102749850D02*
X109090476Y-102711754D01*
X109090476Y-102711754D02*
X109014286Y-102597469D01*
X109014286Y-102597469D02*
X108976191Y-102445088D01*
X108976191Y-102445088D02*
X108976191Y-102140326D01*
X108976191Y-102140326D02*
X109014286Y-102064135D01*
X109014286Y-102064135D02*
X109052381Y-102026040D01*
X109052381Y-102026040D02*
X109128572Y-101987945D01*
X109128572Y-101987945D02*
X109280953Y-101987945D01*
X109280953Y-101987945D02*
X109357143Y-102026040D01*
X109357143Y-102026040D02*
X109395238Y-102064135D01*
X109395238Y-102064135D02*
X109433334Y-102140326D01*
X109433334Y-102140326D02*
X109433334Y-102330802D01*
X109433334Y-102330802D02*
X109395238Y-102406992D01*
X109395238Y-102406992D02*
X109357143Y-102445088D01*
X109357143Y-102445088D02*
X109280953Y-102483183D01*
X109280953Y-102483183D02*
X109128572Y-102483183D01*
X109128572Y-102483183D02*
X109052381Y-102445088D01*
X109052381Y-102445088D02*
X109014286Y-102406992D01*
X109014286Y-102406992D02*
X108976191Y-102330802D01*
X108252381Y-101987945D02*
X108633333Y-101987945D01*
X108633333Y-101987945D02*
X108671429Y-102368897D01*
X108671429Y-102368897D02*
X108633333Y-102330802D01*
X108633333Y-102330802D02*
X108557143Y-102292707D01*
X108557143Y-102292707D02*
X108366667Y-102292707D01*
X108366667Y-102292707D02*
X108290476Y-102330802D01*
X108290476Y-102330802D02*
X108252381Y-102368897D01*
X108252381Y-102368897D02*
X108214286Y-102445088D01*
X108214286Y-102445088D02*
X108214286Y-102635564D01*
X108214286Y-102635564D02*
X108252381Y-102711754D01*
X108252381Y-102711754D02*
X108290476Y-102749850D01*
X108290476Y-102749850D02*
X108366667Y-102787945D01*
X108366667Y-102787945D02*
X108557143Y-102787945D01*
X108557143Y-102787945D02*
X108633333Y-102749850D01*
X108633333Y-102749850D02*
X108671429Y-102711754D01*
X107300000Y-102749850D02*
X107185714Y-102787945D01*
X107185714Y-102787945D02*
X106995238Y-102787945D01*
X106995238Y-102787945D02*
X106919047Y-102749850D01*
X106919047Y-102749850D02*
X106880952Y-102711754D01*
X106880952Y-102711754D02*
X106842857Y-102635564D01*
X106842857Y-102635564D02*
X106842857Y-102559373D01*
X106842857Y-102559373D02*
X106880952Y-102483183D01*
X106880952Y-102483183D02*
X106919047Y-102445088D01*
X106919047Y-102445088D02*
X106995238Y-102406992D01*
X106995238Y-102406992D02*
X107147619Y-102368897D01*
X107147619Y-102368897D02*
X107223809Y-102330802D01*
X107223809Y-102330802D02*
X107261904Y-102292707D01*
X107261904Y-102292707D02*
X107300000Y-102216516D01*
X107300000Y-102216516D02*
X107300000Y-102140326D01*
X107300000Y-102140326D02*
X107261904Y-102064135D01*
X107261904Y-102064135D02*
X107223809Y-102026040D01*
X107223809Y-102026040D02*
X107147619Y-101987945D01*
X107147619Y-101987945D02*
X106957142Y-101987945D01*
X106957142Y-101987945D02*
X106842857Y-102026040D01*
X106157142Y-102254611D02*
X106157142Y-102787945D01*
X106499999Y-102254611D02*
X106499999Y-102673659D01*
X106499999Y-102673659D02*
X106461904Y-102749850D01*
X106461904Y-102749850D02*
X106385714Y-102787945D01*
X106385714Y-102787945D02*
X106271428Y-102787945D01*
X106271428Y-102787945D02*
X106195237Y-102749850D01*
X106195237Y-102749850D02*
X106157142Y-102711754D01*
X105776189Y-102787945D02*
X105776189Y-101987945D01*
X105776189Y-102292707D02*
X105699999Y-102254611D01*
X105699999Y-102254611D02*
X105547618Y-102254611D01*
X105547618Y-102254611D02*
X105471427Y-102292707D01*
X105471427Y-102292707D02*
X105433332Y-102330802D01*
X105433332Y-102330802D02*
X105395237Y-102406992D01*
X105395237Y-102406992D02*
X105395237Y-102635564D01*
X105395237Y-102635564D02*
X105433332Y-102711754D01*
X105433332Y-102711754D02*
X105471427Y-102749850D01*
X105471427Y-102749850D02*
X105547618Y-102787945D01*
X105547618Y-102787945D02*
X105699999Y-102787945D01*
X105699999Y-102787945D02*
X105776189Y-102749850D01*
X105052379Y-102254611D02*
X105052379Y-103054611D01*
X105052379Y-102292707D02*
X104976189Y-102254611D01*
X104976189Y-102254611D02*
X104823808Y-102254611D01*
X104823808Y-102254611D02*
X104747617Y-102292707D01*
X104747617Y-102292707D02*
X104709522Y-102330802D01*
X104709522Y-102330802D02*
X104671427Y-102406992D01*
X104671427Y-102406992D02*
X104671427Y-102635564D01*
X104671427Y-102635564D02*
X104709522Y-102711754D01*
X104709522Y-102711754D02*
X104747617Y-102749850D01*
X104747617Y-102749850D02*
X104823808Y-102787945D01*
X104823808Y-102787945D02*
X104976189Y-102787945D01*
X104976189Y-102787945D02*
X105052379Y-102749850D01*
X103985712Y-102787945D02*
X103985712Y-102368897D01*
X103985712Y-102368897D02*
X104023807Y-102292707D01*
X104023807Y-102292707D02*
X104099998Y-102254611D01*
X104099998Y-102254611D02*
X104252379Y-102254611D01*
X104252379Y-102254611D02*
X104328569Y-102292707D01*
X103985712Y-102749850D02*
X104061903Y-102787945D01*
X104061903Y-102787945D02*
X104252379Y-102787945D01*
X104252379Y-102787945D02*
X104328569Y-102749850D01*
X104328569Y-102749850D02*
X104366665Y-102673659D01*
X104366665Y-102673659D02*
X104366665Y-102597469D01*
X104366665Y-102597469D02*
X104328569Y-102521278D01*
X104328569Y-102521278D02*
X104252379Y-102483183D01*
X104252379Y-102483183D02*
X104061903Y-102483183D01*
X104061903Y-102483183D02*
X103985712Y-102445088D01*
X103604759Y-102787945D02*
X103604759Y-102254611D01*
X103604759Y-102406992D02*
X103566664Y-102330802D01*
X103566664Y-102330802D02*
X103528569Y-102292707D01*
X103528569Y-102292707D02*
X103452378Y-102254611D01*
X103452378Y-102254611D02*
X103376188Y-102254611D01*
X103223807Y-102254611D02*
X102919045Y-102254611D01*
X103109521Y-101987945D02*
X103109521Y-102673659D01*
X103109521Y-102673659D02*
X103071426Y-102749850D01*
X103071426Y-102749850D02*
X102995236Y-102787945D01*
X102995236Y-102787945D02*
X102919045Y-102787945D01*
X102042854Y-102787945D02*
X102042854Y-101987945D01*
X102042854Y-101987945D02*
X101852378Y-101987945D01*
X101852378Y-101987945D02*
X101738092Y-102026040D01*
X101738092Y-102026040D02*
X101661902Y-102102230D01*
X101661902Y-102102230D02*
X101623807Y-102178421D01*
X101623807Y-102178421D02*
X101585711Y-102330802D01*
X101585711Y-102330802D02*
X101585711Y-102445088D01*
X101585711Y-102445088D02*
X101623807Y-102597469D01*
X101623807Y-102597469D02*
X101661902Y-102673659D01*
X101661902Y-102673659D02*
X101738092Y-102749850D01*
X101738092Y-102749850D02*
X101852378Y-102787945D01*
X101852378Y-102787945D02*
X102042854Y-102787945D01*
X118785715Y-103542566D02*
X118785715Y-104075900D01*
X118976191Y-103237805D02*
X119166668Y-103809233D01*
X119166668Y-103809233D02*
X118671429Y-103809233D01*
X118328572Y-104075900D02*
X118176191Y-104075900D01*
X118176191Y-104075900D02*
X118100001Y-104037805D01*
X118100001Y-104037805D02*
X118061905Y-103999709D01*
X118061905Y-103999709D02*
X117985715Y-103885424D01*
X117985715Y-103885424D02*
X117947620Y-103733043D01*
X117947620Y-103733043D02*
X117947620Y-103428281D01*
X117947620Y-103428281D02*
X117985715Y-103352090D01*
X117985715Y-103352090D02*
X118023810Y-103313995D01*
X118023810Y-103313995D02*
X118100001Y-103275900D01*
X118100001Y-103275900D02*
X118252382Y-103275900D01*
X118252382Y-103275900D02*
X118328572Y-103313995D01*
X118328572Y-103313995D02*
X118366667Y-103352090D01*
X118366667Y-103352090D02*
X118404763Y-103428281D01*
X118404763Y-103428281D02*
X118404763Y-103618757D01*
X118404763Y-103618757D02*
X118366667Y-103694947D01*
X118366667Y-103694947D02*
X118328572Y-103733043D01*
X118328572Y-103733043D02*
X118252382Y-103771138D01*
X118252382Y-103771138D02*
X118100001Y-103771138D01*
X118100001Y-103771138D02*
X118023810Y-103733043D01*
X118023810Y-103733043D02*
X117985715Y-103694947D01*
X117985715Y-103694947D02*
X117947620Y-103618757D01*
X117604762Y-103999709D02*
X117566667Y-104037805D01*
X117566667Y-104037805D02*
X117604762Y-104075900D01*
X117604762Y-104075900D02*
X117642858Y-104037805D01*
X117642858Y-104037805D02*
X117604762Y-103999709D01*
X117604762Y-103999709D02*
X117604762Y-104075900D01*
X117109525Y-103618757D02*
X117185715Y-103580662D01*
X117185715Y-103580662D02*
X117223810Y-103542566D01*
X117223810Y-103542566D02*
X117261906Y-103466376D01*
X117261906Y-103466376D02*
X117261906Y-103428281D01*
X117261906Y-103428281D02*
X117223810Y-103352090D01*
X117223810Y-103352090D02*
X117185715Y-103313995D01*
X117185715Y-103313995D02*
X117109525Y-103275900D01*
X117109525Y-103275900D02*
X116957144Y-103275900D01*
X116957144Y-103275900D02*
X116880953Y-103313995D01*
X116880953Y-103313995D02*
X116842858Y-103352090D01*
X116842858Y-103352090D02*
X116804763Y-103428281D01*
X116804763Y-103428281D02*
X116804763Y-103466376D01*
X116804763Y-103466376D02*
X116842858Y-103542566D01*
X116842858Y-103542566D02*
X116880953Y-103580662D01*
X116880953Y-103580662D02*
X116957144Y-103618757D01*
X116957144Y-103618757D02*
X117109525Y-103618757D01*
X117109525Y-103618757D02*
X117185715Y-103656852D01*
X117185715Y-103656852D02*
X117223810Y-103694947D01*
X117223810Y-103694947D02*
X117261906Y-103771138D01*
X117261906Y-103771138D02*
X117261906Y-103923519D01*
X117261906Y-103923519D02*
X117223810Y-103999709D01*
X117223810Y-103999709D02*
X117185715Y-104037805D01*
X117185715Y-104037805D02*
X117109525Y-104075900D01*
X117109525Y-104075900D02*
X116957144Y-104075900D01*
X116957144Y-104075900D02*
X116880953Y-104037805D01*
X116880953Y-104037805D02*
X116842858Y-103999709D01*
X116842858Y-103999709D02*
X116804763Y-103923519D01*
X116804763Y-103923519D02*
X116804763Y-103771138D01*
X116804763Y-103771138D02*
X116842858Y-103694947D01*
X116842858Y-103694947D02*
X116880953Y-103656852D01*
X116880953Y-103656852D02*
X116957144Y-103618757D01*
X116538096Y-103275900D02*
X116042858Y-103275900D01*
X116042858Y-103275900D02*
X116309524Y-103580662D01*
X116309524Y-103580662D02*
X116195239Y-103580662D01*
X116195239Y-103580662D02*
X116119048Y-103618757D01*
X116119048Y-103618757D02*
X116080953Y-103656852D01*
X116080953Y-103656852D02*
X116042858Y-103733043D01*
X116042858Y-103733043D02*
X116042858Y-103923519D01*
X116042858Y-103923519D02*
X116080953Y-103999709D01*
X116080953Y-103999709D02*
X116119048Y-104037805D01*
X116119048Y-104037805D02*
X116195239Y-104075900D01*
X116195239Y-104075900D02*
X116423810Y-104075900D01*
X116423810Y-104075900D02*
X116500001Y-104037805D01*
X116500001Y-104037805D02*
X116538096Y-103999709D01*
X115547619Y-103275900D02*
X115471429Y-103275900D01*
X115471429Y-103275900D02*
X115395238Y-103313995D01*
X115395238Y-103313995D02*
X115357143Y-103352090D01*
X115357143Y-103352090D02*
X115319048Y-103428281D01*
X115319048Y-103428281D02*
X115280953Y-103580662D01*
X115280953Y-103580662D02*
X115280953Y-103771138D01*
X115280953Y-103771138D02*
X115319048Y-103923519D01*
X115319048Y-103923519D02*
X115357143Y-103999709D01*
X115357143Y-103999709D02*
X115395238Y-104037805D01*
X115395238Y-104037805D02*
X115471429Y-104075900D01*
X115471429Y-104075900D02*
X115547619Y-104075900D01*
X115547619Y-104075900D02*
X115623810Y-104037805D01*
X115623810Y-104037805D02*
X115661905Y-103999709D01*
X115661905Y-103999709D02*
X115700000Y-103923519D01*
X115700000Y-103923519D02*
X115738096Y-103771138D01*
X115738096Y-103771138D02*
X115738096Y-103580662D01*
X115738096Y-103580662D02*
X115700000Y-103428281D01*
X115700000Y-103428281D02*
X115661905Y-103352090D01*
X115661905Y-103352090D02*
X115623810Y-103313995D01*
X115623810Y-103313995D02*
X115547619Y-103275900D01*
X114938095Y-103771138D02*
X114328572Y-103771138D01*
X113604762Y-103542566D02*
X113604762Y-104075900D01*
X113795238Y-103237805D02*
X113985715Y-103809233D01*
X113985715Y-103809233D02*
X113490476Y-103809233D01*
X113147619Y-104075900D02*
X112995238Y-104075900D01*
X112995238Y-104075900D02*
X112919048Y-104037805D01*
X112919048Y-104037805D02*
X112880952Y-103999709D01*
X112880952Y-103999709D02*
X112804762Y-103885424D01*
X112804762Y-103885424D02*
X112766667Y-103733043D01*
X112766667Y-103733043D02*
X112766667Y-103428281D01*
X112766667Y-103428281D02*
X112804762Y-103352090D01*
X112804762Y-103352090D02*
X112842857Y-103313995D01*
X112842857Y-103313995D02*
X112919048Y-103275900D01*
X112919048Y-103275900D02*
X113071429Y-103275900D01*
X113071429Y-103275900D02*
X113147619Y-103313995D01*
X113147619Y-103313995D02*
X113185714Y-103352090D01*
X113185714Y-103352090D02*
X113223810Y-103428281D01*
X113223810Y-103428281D02*
X113223810Y-103618757D01*
X113223810Y-103618757D02*
X113185714Y-103694947D01*
X113185714Y-103694947D02*
X113147619Y-103733043D01*
X113147619Y-103733043D02*
X113071429Y-103771138D01*
X113071429Y-103771138D02*
X112919048Y-103771138D01*
X112919048Y-103771138D02*
X112842857Y-103733043D01*
X112842857Y-103733043D02*
X112804762Y-103694947D01*
X112804762Y-103694947D02*
X112766667Y-103618757D01*
X112423809Y-103999709D02*
X112385714Y-104037805D01*
X112385714Y-104037805D02*
X112423809Y-104075900D01*
X112423809Y-104075900D02*
X112461905Y-104037805D01*
X112461905Y-104037805D02*
X112423809Y-103999709D01*
X112423809Y-103999709D02*
X112423809Y-104075900D01*
X111928572Y-103618757D02*
X112004762Y-103580662D01*
X112004762Y-103580662D02*
X112042857Y-103542566D01*
X112042857Y-103542566D02*
X112080953Y-103466376D01*
X112080953Y-103466376D02*
X112080953Y-103428281D01*
X112080953Y-103428281D02*
X112042857Y-103352090D01*
X112042857Y-103352090D02*
X112004762Y-103313995D01*
X112004762Y-103313995D02*
X111928572Y-103275900D01*
X111928572Y-103275900D02*
X111776191Y-103275900D01*
X111776191Y-103275900D02*
X111700000Y-103313995D01*
X111700000Y-103313995D02*
X111661905Y-103352090D01*
X111661905Y-103352090D02*
X111623810Y-103428281D01*
X111623810Y-103428281D02*
X111623810Y-103466376D01*
X111623810Y-103466376D02*
X111661905Y-103542566D01*
X111661905Y-103542566D02*
X111700000Y-103580662D01*
X111700000Y-103580662D02*
X111776191Y-103618757D01*
X111776191Y-103618757D02*
X111928572Y-103618757D01*
X111928572Y-103618757D02*
X112004762Y-103656852D01*
X112004762Y-103656852D02*
X112042857Y-103694947D01*
X112042857Y-103694947D02*
X112080953Y-103771138D01*
X112080953Y-103771138D02*
X112080953Y-103923519D01*
X112080953Y-103923519D02*
X112042857Y-103999709D01*
X112042857Y-103999709D02*
X112004762Y-104037805D01*
X112004762Y-104037805D02*
X111928572Y-104075900D01*
X111928572Y-104075900D02*
X111776191Y-104075900D01*
X111776191Y-104075900D02*
X111700000Y-104037805D01*
X111700000Y-104037805D02*
X111661905Y-103999709D01*
X111661905Y-103999709D02*
X111623810Y-103923519D01*
X111623810Y-103923519D02*
X111623810Y-103771138D01*
X111623810Y-103771138D02*
X111661905Y-103694947D01*
X111661905Y-103694947D02*
X111700000Y-103656852D01*
X111700000Y-103656852D02*
X111776191Y-103618757D01*
X111242857Y-104075900D02*
X111090476Y-104075900D01*
X111090476Y-104075900D02*
X111014286Y-104037805D01*
X111014286Y-104037805D02*
X110976190Y-103999709D01*
X110976190Y-103999709D02*
X110900000Y-103885424D01*
X110900000Y-103885424D02*
X110861905Y-103733043D01*
X110861905Y-103733043D02*
X110861905Y-103428281D01*
X110861905Y-103428281D02*
X110900000Y-103352090D01*
X110900000Y-103352090D02*
X110938095Y-103313995D01*
X110938095Y-103313995D02*
X111014286Y-103275900D01*
X111014286Y-103275900D02*
X111166667Y-103275900D01*
X111166667Y-103275900D02*
X111242857Y-103313995D01*
X111242857Y-103313995D02*
X111280952Y-103352090D01*
X111280952Y-103352090D02*
X111319048Y-103428281D01*
X111319048Y-103428281D02*
X111319048Y-103618757D01*
X111319048Y-103618757D02*
X111280952Y-103694947D01*
X111280952Y-103694947D02*
X111242857Y-103733043D01*
X111242857Y-103733043D02*
X111166667Y-103771138D01*
X111166667Y-103771138D02*
X111014286Y-103771138D01*
X111014286Y-103771138D02*
X110938095Y-103733043D01*
X110938095Y-103733043D02*
X110900000Y-103694947D01*
X110900000Y-103694947D02*
X110861905Y-103618757D01*
X110366666Y-103275900D02*
X110290476Y-103275900D01*
X110290476Y-103275900D02*
X110214285Y-103313995D01*
X110214285Y-103313995D02*
X110176190Y-103352090D01*
X110176190Y-103352090D02*
X110138095Y-103428281D01*
X110138095Y-103428281D02*
X110100000Y-103580662D01*
X110100000Y-103580662D02*
X110100000Y-103771138D01*
X110100000Y-103771138D02*
X110138095Y-103923519D01*
X110138095Y-103923519D02*
X110176190Y-103999709D01*
X110176190Y-103999709D02*
X110214285Y-104037805D01*
X110214285Y-104037805D02*
X110290476Y-104075900D01*
X110290476Y-104075900D02*
X110366666Y-104075900D01*
X110366666Y-104075900D02*
X110442857Y-104037805D01*
X110442857Y-104037805D02*
X110480952Y-103999709D01*
X110480952Y-103999709D02*
X110519047Y-103923519D01*
X110519047Y-103923519D02*
X110557143Y-103771138D01*
X110557143Y-103771138D02*
X110557143Y-103580662D01*
X110557143Y-103580662D02*
X110519047Y-103428281D01*
X110519047Y-103428281D02*
X110480952Y-103352090D01*
X110480952Y-103352090D02*
X110442857Y-103313995D01*
X110442857Y-103313995D02*
X110366666Y-103275900D01*
X109147618Y-104075900D02*
X109147618Y-103275900D01*
X109147618Y-103275900D02*
X108880952Y-103847328D01*
X108880952Y-103847328D02*
X108614285Y-103275900D01*
X108614285Y-103275900D02*
X108614285Y-104075900D01*
X108233332Y-104075900D02*
X108233332Y-103275900D01*
X108233332Y-103656852D02*
X107776189Y-103656852D01*
X107776189Y-104075900D02*
X107776189Y-103275900D01*
X107471428Y-103542566D02*
X107052380Y-103542566D01*
X107052380Y-103542566D02*
X107471428Y-104075900D01*
X107471428Y-104075900D02*
X107052380Y-104075900D01*
X105566666Y-103847328D02*
X105185713Y-103847328D01*
X105642856Y-104075900D02*
X105376189Y-103275900D01*
X105376189Y-103275900D02*
X105109523Y-104075900D01*
X104576190Y-103656852D02*
X104842856Y-103656852D01*
X104842856Y-104075900D02*
X104842856Y-103275900D01*
X104842856Y-103275900D02*
X104461904Y-103275900D01*
X104195238Y-104037805D02*
X104080952Y-104075900D01*
X104080952Y-104075900D02*
X103890476Y-104075900D01*
X103890476Y-104075900D02*
X103814285Y-104037805D01*
X103814285Y-104037805D02*
X103776190Y-103999709D01*
X103776190Y-103999709D02*
X103738095Y-103923519D01*
X103738095Y-103923519D02*
X103738095Y-103847328D01*
X103738095Y-103847328D02*
X103776190Y-103771138D01*
X103776190Y-103771138D02*
X103814285Y-103733043D01*
X103814285Y-103733043D02*
X103890476Y-103694947D01*
X103890476Y-103694947D02*
X104042857Y-103656852D01*
X104042857Y-103656852D02*
X104119047Y-103618757D01*
X104119047Y-103618757D02*
X104157142Y-103580662D01*
X104157142Y-103580662D02*
X104195238Y-103504471D01*
X104195238Y-103504471D02*
X104195238Y-103428281D01*
X104195238Y-103428281D02*
X104157142Y-103352090D01*
X104157142Y-103352090D02*
X104119047Y-103313995D01*
X104119047Y-103313995D02*
X104042857Y-103275900D01*
X104042857Y-103275900D02*
X103852380Y-103275900D01*
X103852380Y-103275900D02*
X103738095Y-103313995D01*
X103395237Y-104075900D02*
X103395237Y-103275900D01*
X102938094Y-104075900D02*
X103280952Y-103618757D01*
X102938094Y-103275900D02*
X103395237Y-103733043D01*
X101566666Y-104075900D02*
X102023809Y-104075900D01*
X101795237Y-104075900D02*
X101795237Y-103275900D01*
X101795237Y-103275900D02*
X101871428Y-103390185D01*
X101871428Y-103390185D02*
X101947618Y-103466376D01*
X101947618Y-103466376D02*
X102023809Y-103504471D01*
X101261904Y-103352090D02*
X101223808Y-103313995D01*
X101223808Y-103313995D02*
X101147618Y-103275900D01*
X101147618Y-103275900D02*
X100957142Y-103275900D01*
X100957142Y-103275900D02*
X100880951Y-103313995D01*
X100880951Y-103313995D02*
X100842856Y-103352090D01*
X100842856Y-103352090D02*
X100804761Y-103428281D01*
X100804761Y-103428281D02*
X100804761Y-103504471D01*
X100804761Y-103504471D02*
X100842856Y-103618757D01*
X100842856Y-103618757D02*
X101299999Y-104075900D01*
X101299999Y-104075900D02*
X100804761Y-104075900D01*
X100309522Y-103275900D02*
X100233332Y-103275900D01*
X100233332Y-103275900D02*
X100157141Y-103313995D01*
X100157141Y-103313995D02*
X100119046Y-103352090D01*
X100119046Y-103352090D02*
X100080951Y-103428281D01*
X100080951Y-103428281D02*
X100042856Y-103580662D01*
X100042856Y-103580662D02*
X100042856Y-103771138D01*
X100042856Y-103771138D02*
X100080951Y-103923519D01*
X100080951Y-103923519D02*
X100119046Y-103999709D01*
X100119046Y-103999709D02*
X100157141Y-104037805D01*
X100157141Y-104037805D02*
X100233332Y-104075900D01*
X100233332Y-104075900D02*
X100309522Y-104075900D01*
X100309522Y-104075900D02*
X100385713Y-104037805D01*
X100385713Y-104037805D02*
X100423808Y-103999709D01*
X100423808Y-103999709D02*
X100461903Y-103923519D01*
X100461903Y-103923519D02*
X100499999Y-103771138D01*
X100499999Y-103771138D02*
X100499999Y-103580662D01*
X100499999Y-103580662D02*
X100461903Y-103428281D01*
X100461903Y-103428281D02*
X100423808Y-103352090D01*
X100423808Y-103352090D02*
X100385713Y-103313995D01*
X100385713Y-103313995D02*
X100309522Y-103275900D01*
X99547617Y-103275900D02*
X99471427Y-103275900D01*
X99471427Y-103275900D02*
X99395236Y-103313995D01*
X99395236Y-103313995D02*
X99357141Y-103352090D01*
X99357141Y-103352090D02*
X99319046Y-103428281D01*
X99319046Y-103428281D02*
X99280951Y-103580662D01*
X99280951Y-103580662D02*
X99280951Y-103771138D01*
X99280951Y-103771138D02*
X99319046Y-103923519D01*
X99319046Y-103923519D02*
X99357141Y-103999709D01*
X99357141Y-103999709D02*
X99395236Y-104037805D01*
X99395236Y-104037805D02*
X99471427Y-104075900D01*
X99471427Y-104075900D02*
X99547617Y-104075900D01*
X99547617Y-104075900D02*
X99623808Y-104037805D01*
X99623808Y-104037805D02*
X99661903Y-103999709D01*
X99661903Y-103999709D02*
X99699998Y-103923519D01*
X99699998Y-103923519D02*
X99738094Y-103771138D01*
X99738094Y-103771138D02*
X99738094Y-103580662D01*
X99738094Y-103580662D02*
X99699998Y-103428281D01*
X99699998Y-103428281D02*
X99661903Y-103352090D01*
X99661903Y-103352090D02*
X99623808Y-103313995D01*
X99623808Y-103313995D02*
X99547617Y-103275900D01*
X98938093Y-104075900D02*
X98938093Y-103275900D01*
X98938093Y-103580662D02*
X98861903Y-103542566D01*
X98861903Y-103542566D02*
X98709522Y-103542566D01*
X98709522Y-103542566D02*
X98633331Y-103580662D01*
X98633331Y-103580662D02*
X98595236Y-103618757D01*
X98595236Y-103618757D02*
X98557141Y-103694947D01*
X98557141Y-103694947D02*
X98557141Y-103923519D01*
X98557141Y-103923519D02*
X98595236Y-103999709D01*
X98595236Y-103999709D02*
X98633331Y-104037805D01*
X98633331Y-104037805D02*
X98709522Y-104075900D01*
X98709522Y-104075900D02*
X98861903Y-104075900D01*
X98861903Y-104075900D02*
X98938093Y-104037805D01*
X97871426Y-104075900D02*
X97871426Y-103275900D01*
X97871426Y-104037805D02*
X97947617Y-104075900D01*
X97947617Y-104075900D02*
X98099998Y-104075900D01*
X98099998Y-104075900D02*
X98176188Y-104037805D01*
X98176188Y-104037805D02*
X98214283Y-103999709D01*
X98214283Y-103999709D02*
X98252379Y-103923519D01*
X98252379Y-103923519D02*
X98252379Y-103694947D01*
X98252379Y-103694947D02*
X98214283Y-103618757D01*
X98214283Y-103618757D02*
X98176188Y-103580662D01*
X98176188Y-103580662D02*
X98099998Y-103542566D01*
X98099998Y-103542566D02*
X97947617Y-103542566D01*
X97947617Y-103542566D02*
X97871426Y-103580662D01*
X115223810Y-105287664D02*
X115261906Y-105325760D01*
X115261906Y-105325760D02*
X115376191Y-105363855D01*
X115376191Y-105363855D02*
X115452382Y-105363855D01*
X115452382Y-105363855D02*
X115566668Y-105325760D01*
X115566668Y-105325760D02*
X115642858Y-105249569D01*
X115642858Y-105249569D02*
X115680953Y-105173379D01*
X115680953Y-105173379D02*
X115719049Y-105020998D01*
X115719049Y-105020998D02*
X115719049Y-104906712D01*
X115719049Y-104906712D02*
X115680953Y-104754331D01*
X115680953Y-104754331D02*
X115642858Y-104678140D01*
X115642858Y-104678140D02*
X115566668Y-104601950D01*
X115566668Y-104601950D02*
X115452382Y-104563855D01*
X115452382Y-104563855D02*
X115376191Y-104563855D01*
X115376191Y-104563855D02*
X115261906Y-104601950D01*
X115261906Y-104601950D02*
X115223810Y-104640045D01*
X114423810Y-105287664D02*
X114461906Y-105325760D01*
X114461906Y-105325760D02*
X114576191Y-105363855D01*
X114576191Y-105363855D02*
X114652382Y-105363855D01*
X114652382Y-105363855D02*
X114766668Y-105325760D01*
X114766668Y-105325760D02*
X114842858Y-105249569D01*
X114842858Y-105249569D02*
X114880953Y-105173379D01*
X114880953Y-105173379D02*
X114919049Y-105020998D01*
X114919049Y-105020998D02*
X114919049Y-104906712D01*
X114919049Y-104906712D02*
X114880953Y-104754331D01*
X114880953Y-104754331D02*
X114842858Y-104678140D01*
X114842858Y-104678140D02*
X114766668Y-104601950D01*
X114766668Y-104601950D02*
X114652382Y-104563855D01*
X114652382Y-104563855D02*
X114576191Y-104563855D01*
X114576191Y-104563855D02*
X114461906Y-104601950D01*
X114461906Y-104601950D02*
X114423810Y-104640045D01*
X113204763Y-104944807D02*
X113090477Y-104982902D01*
X113090477Y-104982902D02*
X113052382Y-105020998D01*
X113052382Y-105020998D02*
X113014286Y-105097188D01*
X113014286Y-105097188D02*
X113014286Y-105211474D01*
X113014286Y-105211474D02*
X113052382Y-105287664D01*
X113052382Y-105287664D02*
X113090477Y-105325760D01*
X113090477Y-105325760D02*
X113166667Y-105363855D01*
X113166667Y-105363855D02*
X113471429Y-105363855D01*
X113471429Y-105363855D02*
X113471429Y-104563855D01*
X113471429Y-104563855D02*
X113204763Y-104563855D01*
X113204763Y-104563855D02*
X113128572Y-104601950D01*
X113128572Y-104601950D02*
X113090477Y-104640045D01*
X113090477Y-104640045D02*
X113052382Y-104716236D01*
X113052382Y-104716236D02*
X113052382Y-104792426D01*
X113052382Y-104792426D02*
X113090477Y-104868617D01*
X113090477Y-104868617D02*
X113128572Y-104906712D01*
X113128572Y-104906712D02*
X113204763Y-104944807D01*
X113204763Y-104944807D02*
X113471429Y-104944807D01*
X112519048Y-104982902D02*
X112519048Y-105363855D01*
X112785715Y-104563855D02*
X112519048Y-104982902D01*
X112519048Y-104982902D02*
X112252382Y-104563855D01*
X111033334Y-104830521D02*
X111033334Y-105363855D01*
X111223810Y-104525760D02*
X111414287Y-105097188D01*
X111414287Y-105097188D02*
X110919048Y-105097188D01*
X110614286Y-105287664D02*
X110576191Y-105325760D01*
X110576191Y-105325760D02*
X110614286Y-105363855D01*
X110614286Y-105363855D02*
X110652382Y-105325760D01*
X110652382Y-105325760D02*
X110614286Y-105287664D01*
X110614286Y-105287664D02*
X110614286Y-105363855D01*
X110080953Y-104563855D02*
X110004763Y-104563855D01*
X110004763Y-104563855D02*
X109928572Y-104601950D01*
X109928572Y-104601950D02*
X109890477Y-104640045D01*
X109890477Y-104640045D02*
X109852382Y-104716236D01*
X109852382Y-104716236D02*
X109814287Y-104868617D01*
X109814287Y-104868617D02*
X109814287Y-105059093D01*
X109814287Y-105059093D02*
X109852382Y-105211474D01*
X109852382Y-105211474D02*
X109890477Y-105287664D01*
X109890477Y-105287664D02*
X109928572Y-105325760D01*
X109928572Y-105325760D02*
X110004763Y-105363855D01*
X110004763Y-105363855D02*
X110080953Y-105363855D01*
X110080953Y-105363855D02*
X110157144Y-105325760D01*
X110157144Y-105325760D02*
X110195239Y-105287664D01*
X110195239Y-105287664D02*
X110233334Y-105211474D01*
X110233334Y-105211474D02*
X110271430Y-105059093D01*
X110271430Y-105059093D02*
X110271430Y-104868617D01*
X110271430Y-104868617D02*
X110233334Y-104716236D01*
X110233334Y-104716236D02*
X110195239Y-104640045D01*
X110195239Y-104640045D02*
X110157144Y-104601950D01*
X110157144Y-104601950D02*
X110080953Y-104563855D01*
X108938096Y-105097188D02*
X108252382Y-105097188D01*
X107109524Y-104563855D02*
X107109524Y-105135283D01*
X107109524Y-105135283D02*
X107147619Y-105249569D01*
X107147619Y-105249569D02*
X107223810Y-105325760D01*
X107223810Y-105325760D02*
X107338095Y-105363855D01*
X107338095Y-105363855D02*
X107414286Y-105363855D01*
X106385714Y-104830521D02*
X106385714Y-105363855D01*
X106728571Y-104830521D02*
X106728571Y-105249569D01*
X106728571Y-105249569D02*
X106690476Y-105325760D01*
X106690476Y-105325760D02*
X106614286Y-105363855D01*
X106614286Y-105363855D02*
X106500000Y-105363855D01*
X106500000Y-105363855D02*
X106423809Y-105325760D01*
X106423809Y-105325760D02*
X106385714Y-105287664D01*
X106004761Y-104830521D02*
X106004761Y-105363855D01*
X106004761Y-104906712D02*
X105966666Y-104868617D01*
X105966666Y-104868617D02*
X105890476Y-104830521D01*
X105890476Y-104830521D02*
X105776190Y-104830521D01*
X105776190Y-104830521D02*
X105699999Y-104868617D01*
X105699999Y-104868617D02*
X105661904Y-104944807D01*
X105661904Y-104944807D02*
X105661904Y-105363855D01*
X104976189Y-105325760D02*
X105052380Y-105363855D01*
X105052380Y-105363855D02*
X105204761Y-105363855D01*
X105204761Y-105363855D02*
X105280951Y-105325760D01*
X105280951Y-105325760D02*
X105319047Y-105249569D01*
X105319047Y-105249569D02*
X105319047Y-104944807D01*
X105319047Y-104944807D02*
X105280951Y-104868617D01*
X105280951Y-104868617D02*
X105204761Y-104830521D01*
X105204761Y-104830521D02*
X105052380Y-104830521D01*
X105052380Y-104830521D02*
X104976189Y-104868617D01*
X104976189Y-104868617D02*
X104938094Y-104944807D01*
X104938094Y-104944807D02*
X104938094Y-105020998D01*
X104938094Y-105020998D02*
X105319047Y-105097188D01*
X104023809Y-104640045D02*
X103985713Y-104601950D01*
X103985713Y-104601950D02*
X103909523Y-104563855D01*
X103909523Y-104563855D02*
X103719047Y-104563855D01*
X103719047Y-104563855D02*
X103642856Y-104601950D01*
X103642856Y-104601950D02*
X103604761Y-104640045D01*
X103604761Y-104640045D02*
X103566666Y-104716236D01*
X103566666Y-104716236D02*
X103566666Y-104792426D01*
X103566666Y-104792426D02*
X103604761Y-104906712D01*
X103604761Y-104906712D02*
X104061904Y-105363855D01*
X104061904Y-105363855D02*
X103566666Y-105363855D01*
X103071427Y-104563855D02*
X102995237Y-104563855D01*
X102995237Y-104563855D02*
X102919046Y-104601950D01*
X102919046Y-104601950D02*
X102880951Y-104640045D01*
X102880951Y-104640045D02*
X102842856Y-104716236D01*
X102842856Y-104716236D02*
X102804761Y-104868617D01*
X102804761Y-104868617D02*
X102804761Y-105059093D01*
X102804761Y-105059093D02*
X102842856Y-105211474D01*
X102842856Y-105211474D02*
X102880951Y-105287664D01*
X102880951Y-105287664D02*
X102919046Y-105325760D01*
X102919046Y-105325760D02*
X102995237Y-105363855D01*
X102995237Y-105363855D02*
X103071427Y-105363855D01*
X103071427Y-105363855D02*
X103147618Y-105325760D01*
X103147618Y-105325760D02*
X103185713Y-105287664D01*
X103185713Y-105287664D02*
X103223808Y-105211474D01*
X103223808Y-105211474D02*
X103261904Y-105059093D01*
X103261904Y-105059093D02*
X103261904Y-104868617D01*
X103261904Y-104868617D02*
X103223808Y-104716236D01*
X103223808Y-104716236D02*
X103185713Y-104640045D01*
X103185713Y-104640045D02*
X103147618Y-104601950D01*
X103147618Y-104601950D02*
X103071427Y-104563855D01*
X102499999Y-104640045D02*
X102461903Y-104601950D01*
X102461903Y-104601950D02*
X102385713Y-104563855D01*
X102385713Y-104563855D02*
X102195237Y-104563855D01*
X102195237Y-104563855D02*
X102119046Y-104601950D01*
X102119046Y-104601950D02*
X102080951Y-104640045D01*
X102080951Y-104640045D02*
X102042856Y-104716236D01*
X102042856Y-104716236D02*
X102042856Y-104792426D01*
X102042856Y-104792426D02*
X102080951Y-104906712D01*
X102080951Y-104906712D02*
X102538094Y-105363855D01*
X102538094Y-105363855D02*
X102042856Y-105363855D01*
X101357141Y-104563855D02*
X101509522Y-104563855D01*
X101509522Y-104563855D02*
X101585713Y-104601950D01*
X101585713Y-104601950D02*
X101623808Y-104640045D01*
X101623808Y-104640045D02*
X101699998Y-104754331D01*
X101699998Y-104754331D02*
X101738094Y-104906712D01*
X101738094Y-104906712D02*
X101738094Y-105211474D01*
X101738094Y-105211474D02*
X101699998Y-105287664D01*
X101699998Y-105287664D02*
X101661903Y-105325760D01*
X101661903Y-105325760D02*
X101585713Y-105363855D01*
X101585713Y-105363855D02*
X101433332Y-105363855D01*
X101433332Y-105363855D02*
X101357141Y-105325760D01*
X101357141Y-105325760D02*
X101319046Y-105287664D01*
X101319046Y-105287664D02*
X101280951Y-105211474D01*
X101280951Y-105211474D02*
X101280951Y-105020998D01*
X101280951Y-105020998D02*
X101319046Y-104944807D01*
X101319046Y-104944807D02*
X101357141Y-104906712D01*
X101357141Y-104906712D02*
X101433332Y-104868617D01*
X101433332Y-104868617D02*
X101585713Y-104868617D01*
X101585713Y-104868617D02*
X101661903Y-104906712D01*
X101661903Y-104906712D02*
X101699998Y-104944807D01*
X101699998Y-104944807D02*
X101738094Y-105020998D01*
X112461905Y-106613715D02*
X112347619Y-106651810D01*
X112347619Y-106651810D02*
X112157143Y-106651810D01*
X112157143Y-106651810D02*
X112080952Y-106613715D01*
X112080952Y-106613715D02*
X112042857Y-106575619D01*
X112042857Y-106575619D02*
X112004762Y-106499429D01*
X112004762Y-106499429D02*
X112004762Y-106423238D01*
X112004762Y-106423238D02*
X112042857Y-106347048D01*
X112042857Y-106347048D02*
X112080952Y-106308953D01*
X112080952Y-106308953D02*
X112157143Y-106270857D01*
X112157143Y-106270857D02*
X112309524Y-106232762D01*
X112309524Y-106232762D02*
X112385714Y-106194667D01*
X112385714Y-106194667D02*
X112423809Y-106156572D01*
X112423809Y-106156572D02*
X112461905Y-106080381D01*
X112461905Y-106080381D02*
X112461905Y-106004191D01*
X112461905Y-106004191D02*
X112423809Y-105928000D01*
X112423809Y-105928000D02*
X112385714Y-105889905D01*
X112385714Y-105889905D02*
X112309524Y-105851810D01*
X112309524Y-105851810D02*
X112119047Y-105851810D01*
X112119047Y-105851810D02*
X112004762Y-105889905D01*
X111776190Y-106118476D02*
X111471428Y-106118476D01*
X111661904Y-105851810D02*
X111661904Y-106537524D01*
X111661904Y-106537524D02*
X111623809Y-106613715D01*
X111623809Y-106613715D02*
X111547619Y-106651810D01*
X111547619Y-106651810D02*
X111471428Y-106651810D01*
X110899999Y-106613715D02*
X110976190Y-106651810D01*
X110976190Y-106651810D02*
X111128571Y-106651810D01*
X111128571Y-106651810D02*
X111204761Y-106613715D01*
X111204761Y-106613715D02*
X111242857Y-106537524D01*
X111242857Y-106537524D02*
X111242857Y-106232762D01*
X111242857Y-106232762D02*
X111204761Y-106156572D01*
X111204761Y-106156572D02*
X111128571Y-106118476D01*
X111128571Y-106118476D02*
X110976190Y-106118476D01*
X110976190Y-106118476D02*
X110899999Y-106156572D01*
X110899999Y-106156572D02*
X110861904Y-106232762D01*
X110861904Y-106232762D02*
X110861904Y-106308953D01*
X110861904Y-106308953D02*
X111242857Y-106385143D01*
X110595238Y-106118476D02*
X110404762Y-106651810D01*
X110404762Y-106651810D02*
X110214285Y-106118476D01*
X109604761Y-106613715D02*
X109680952Y-106651810D01*
X109680952Y-106651810D02*
X109833333Y-106651810D01*
X109833333Y-106651810D02*
X109909523Y-106613715D01*
X109909523Y-106613715D02*
X109947619Y-106537524D01*
X109947619Y-106537524D02*
X109947619Y-106232762D01*
X109947619Y-106232762D02*
X109909523Y-106156572D01*
X109909523Y-106156572D02*
X109833333Y-106118476D01*
X109833333Y-106118476D02*
X109680952Y-106118476D01*
X109680952Y-106118476D02*
X109604761Y-106156572D01*
X109604761Y-106156572D02*
X109566666Y-106232762D01*
X109566666Y-106232762D02*
X109566666Y-106308953D01*
X109566666Y-106308953D02*
X109947619Y-106385143D01*
X108195238Y-105889905D02*
X108271428Y-105851810D01*
X108271428Y-105851810D02*
X108385714Y-105851810D01*
X108385714Y-105851810D02*
X108500000Y-105889905D01*
X108500000Y-105889905D02*
X108576190Y-105966095D01*
X108576190Y-105966095D02*
X108614285Y-106042286D01*
X108614285Y-106042286D02*
X108652381Y-106194667D01*
X108652381Y-106194667D02*
X108652381Y-106308953D01*
X108652381Y-106308953D02*
X108614285Y-106461334D01*
X108614285Y-106461334D02*
X108576190Y-106537524D01*
X108576190Y-106537524D02*
X108500000Y-106613715D01*
X108500000Y-106613715D02*
X108385714Y-106651810D01*
X108385714Y-106651810D02*
X108309523Y-106651810D01*
X108309523Y-106651810D02*
X108195238Y-106613715D01*
X108195238Y-106613715D02*
X108157142Y-106575619D01*
X108157142Y-106575619D02*
X108157142Y-106308953D01*
X108157142Y-106308953D02*
X108309523Y-106308953D01*
X107814285Y-106651810D02*
X107814285Y-106118476D01*
X107814285Y-106270857D02*
X107776190Y-106194667D01*
X107776190Y-106194667D02*
X107738095Y-106156572D01*
X107738095Y-106156572D02*
X107661904Y-106118476D01*
X107661904Y-106118476D02*
X107585714Y-106118476D01*
X107319047Y-106651810D02*
X107319047Y-106118476D01*
X107319047Y-105851810D02*
X107357143Y-105889905D01*
X107357143Y-105889905D02*
X107319047Y-105928000D01*
X107319047Y-105928000D02*
X107280952Y-105889905D01*
X107280952Y-105889905D02*
X107319047Y-105851810D01*
X107319047Y-105851810D02*
X107319047Y-105928000D01*
X107052381Y-106118476D02*
X106747619Y-106118476D01*
X106938095Y-106651810D02*
X106938095Y-105966095D01*
X106938095Y-105966095D02*
X106900000Y-105889905D01*
X106900000Y-105889905D02*
X106823810Y-105851810D01*
X106823810Y-105851810D02*
X106747619Y-105851810D01*
X106595238Y-106118476D02*
X106290476Y-106118476D01*
X106480952Y-106651810D02*
X106480952Y-105966095D01*
X106480952Y-105966095D02*
X106442857Y-105889905D01*
X106442857Y-105889905D02*
X106366667Y-105851810D01*
X106366667Y-105851810D02*
X106290476Y-105851810D01*
X106023809Y-106651810D02*
X106023809Y-106118476D01*
X106023809Y-105851810D02*
X106061905Y-105889905D01*
X106061905Y-105889905D02*
X106023809Y-105928000D01*
X106023809Y-105928000D02*
X105985714Y-105889905D01*
X105985714Y-105889905D02*
X106023809Y-105851810D01*
X106023809Y-105851810D02*
X106023809Y-105928000D01*
X105642857Y-106118476D02*
X105642857Y-106651810D01*
X105642857Y-106194667D02*
X105604762Y-106156572D01*
X105604762Y-106156572D02*
X105528572Y-106118476D01*
X105528572Y-106118476D02*
X105414286Y-106118476D01*
X105414286Y-106118476D02*
X105338095Y-106156572D01*
X105338095Y-106156572D02*
X105300000Y-106232762D01*
X105300000Y-106232762D02*
X105300000Y-106651810D01*
X104576190Y-106118476D02*
X104576190Y-106766095D01*
X104576190Y-106766095D02*
X104614285Y-106842286D01*
X104614285Y-106842286D02*
X104652381Y-106880381D01*
X104652381Y-106880381D02*
X104728571Y-106918476D01*
X104728571Y-106918476D02*
X104842857Y-106918476D01*
X104842857Y-106918476D02*
X104919047Y-106880381D01*
X104576190Y-106613715D02*
X104652381Y-106651810D01*
X104652381Y-106651810D02*
X104804762Y-106651810D01*
X104804762Y-106651810D02*
X104880952Y-106613715D01*
X104880952Y-106613715D02*
X104919047Y-106575619D01*
X104919047Y-106575619D02*
X104957143Y-106499429D01*
X104957143Y-106499429D02*
X104957143Y-106270857D01*
X104957143Y-106270857D02*
X104919047Y-106194667D01*
X104919047Y-106194667D02*
X104880952Y-106156572D01*
X104880952Y-106156572D02*
X104804762Y-106118476D01*
X104804762Y-106118476D02*
X104652381Y-106118476D01*
X104652381Y-106118476D02*
X104576190Y-106156572D01*
X116899999Y-107939765D02*
X116899999Y-107139765D01*
X116899999Y-107139765D02*
X116595237Y-107139765D01*
X116595237Y-107139765D02*
X116519047Y-107177860D01*
X116519047Y-107177860D02*
X116480952Y-107215955D01*
X116480952Y-107215955D02*
X116442856Y-107292146D01*
X116442856Y-107292146D02*
X116442856Y-107406431D01*
X116442856Y-107406431D02*
X116480952Y-107482622D01*
X116480952Y-107482622D02*
X116519047Y-107520717D01*
X116519047Y-107520717D02*
X116595237Y-107558812D01*
X116595237Y-107558812D02*
X116899999Y-107558812D01*
X116099999Y-107520717D02*
X115833333Y-107520717D01*
X115719047Y-107939765D02*
X116099999Y-107939765D01*
X116099999Y-107939765D02*
X116099999Y-107139765D01*
X116099999Y-107139765D02*
X115719047Y-107139765D01*
X115147618Y-108244527D02*
X115185713Y-108206431D01*
X115185713Y-108206431D02*
X115261904Y-108092146D01*
X115261904Y-108092146D02*
X115299999Y-108015955D01*
X115299999Y-108015955D02*
X115338094Y-107901670D01*
X115338094Y-107901670D02*
X115376189Y-107711193D01*
X115376189Y-107711193D02*
X115376189Y-107558812D01*
X115376189Y-107558812D02*
X115338094Y-107368336D01*
X115338094Y-107368336D02*
X115299999Y-107254050D01*
X115299999Y-107254050D02*
X115261904Y-107177860D01*
X115261904Y-107177860D02*
X115185713Y-107063574D01*
X115185713Y-107063574D02*
X115147618Y-107025479D01*
X114385713Y-107863574D02*
X114423809Y-107901670D01*
X114423809Y-107901670D02*
X114538094Y-107939765D01*
X114538094Y-107939765D02*
X114614285Y-107939765D01*
X114614285Y-107939765D02*
X114728571Y-107901670D01*
X114728571Y-107901670D02*
X114804761Y-107825479D01*
X114804761Y-107825479D02*
X114842856Y-107749289D01*
X114842856Y-107749289D02*
X114880952Y-107596908D01*
X114880952Y-107596908D02*
X114880952Y-107482622D01*
X114880952Y-107482622D02*
X114842856Y-107330241D01*
X114842856Y-107330241D02*
X114804761Y-107254050D01*
X114804761Y-107254050D02*
X114728571Y-107177860D01*
X114728571Y-107177860D02*
X114614285Y-107139765D01*
X114614285Y-107139765D02*
X114538094Y-107139765D01*
X114538094Y-107139765D02*
X114423809Y-107177860D01*
X114423809Y-107177860D02*
X114385713Y-107215955D01*
X114080952Y-107901670D02*
X113966666Y-107939765D01*
X113966666Y-107939765D02*
X113776190Y-107939765D01*
X113776190Y-107939765D02*
X113699999Y-107901670D01*
X113699999Y-107901670D02*
X113661904Y-107863574D01*
X113661904Y-107863574D02*
X113623809Y-107787384D01*
X113623809Y-107787384D02*
X113623809Y-107711193D01*
X113623809Y-107711193D02*
X113661904Y-107635003D01*
X113661904Y-107635003D02*
X113699999Y-107596908D01*
X113699999Y-107596908D02*
X113776190Y-107558812D01*
X113776190Y-107558812D02*
X113928571Y-107520717D01*
X113928571Y-107520717D02*
X114004761Y-107482622D01*
X114004761Y-107482622D02*
X114042856Y-107444527D01*
X114042856Y-107444527D02*
X114080952Y-107368336D01*
X114080952Y-107368336D02*
X114080952Y-107292146D01*
X114080952Y-107292146D02*
X114042856Y-107215955D01*
X114042856Y-107215955D02*
X114004761Y-107177860D01*
X114004761Y-107177860D02*
X113928571Y-107139765D01*
X113928571Y-107139765D02*
X113738094Y-107139765D01*
X113738094Y-107139765D02*
X113623809Y-107177860D01*
X113280951Y-107520717D02*
X113014285Y-107520717D01*
X112899999Y-107939765D02*
X113280951Y-107939765D01*
X113280951Y-107939765D02*
X113280951Y-107139765D01*
X113280951Y-107139765D02*
X112899999Y-107139765D01*
X112633332Y-108244527D02*
X112595237Y-108206431D01*
X112595237Y-108206431D02*
X112519046Y-108092146D01*
X112519046Y-108092146D02*
X112480951Y-108015955D01*
X112480951Y-108015955D02*
X112442856Y-107901670D01*
X112442856Y-107901670D02*
X112404760Y-107711193D01*
X112404760Y-107711193D02*
X112404760Y-107558812D01*
X112404760Y-107558812D02*
X112442856Y-107368336D01*
X112442856Y-107368336D02*
X112480951Y-107254050D01*
X112480951Y-107254050D02*
X112519046Y-107177860D01*
X112519046Y-107177860D02*
X112595237Y-107063574D01*
X112595237Y-107063574D02*
X112633332Y-107025479D01*
X111985713Y-107901670D02*
X111985713Y-107939765D01*
X111985713Y-107939765D02*
X112023808Y-108015955D01*
X112023808Y-108015955D02*
X112061904Y-108054050D01*
X110576189Y-107863574D02*
X110614285Y-107901670D01*
X110614285Y-107901670D02*
X110728570Y-107939765D01*
X110728570Y-107939765D02*
X110804761Y-107939765D01*
X110804761Y-107939765D02*
X110919047Y-107901670D01*
X110919047Y-107901670D02*
X110995237Y-107825479D01*
X110995237Y-107825479D02*
X111033332Y-107749289D01*
X111033332Y-107749289D02*
X111071428Y-107596908D01*
X111071428Y-107596908D02*
X111071428Y-107482622D01*
X111071428Y-107482622D02*
X111033332Y-107330241D01*
X111033332Y-107330241D02*
X110995237Y-107254050D01*
X110995237Y-107254050D02*
X110919047Y-107177860D01*
X110919047Y-107177860D02*
X110804761Y-107139765D01*
X110804761Y-107139765D02*
X110728570Y-107139765D01*
X110728570Y-107139765D02*
X110614285Y-107177860D01*
X110614285Y-107177860D02*
X110576189Y-107215955D01*
X110233332Y-107939765D02*
X110233332Y-107139765D01*
X109890476Y-107901670D02*
X109776190Y-107939765D01*
X109776190Y-107939765D02*
X109585714Y-107939765D01*
X109585714Y-107939765D02*
X109509523Y-107901670D01*
X109509523Y-107901670D02*
X109471428Y-107863574D01*
X109471428Y-107863574D02*
X109433333Y-107787384D01*
X109433333Y-107787384D02*
X109433333Y-107711193D01*
X109433333Y-107711193D02*
X109471428Y-107635003D01*
X109471428Y-107635003D02*
X109509523Y-107596908D01*
X109509523Y-107596908D02*
X109585714Y-107558812D01*
X109585714Y-107558812D02*
X109738095Y-107520717D01*
X109738095Y-107520717D02*
X109814285Y-107482622D01*
X109814285Y-107482622D02*
X109852380Y-107444527D01*
X109852380Y-107444527D02*
X109890476Y-107368336D01*
X109890476Y-107368336D02*
X109890476Y-107292146D01*
X109890476Y-107292146D02*
X109852380Y-107215955D01*
X109852380Y-107215955D02*
X109814285Y-107177860D01*
X109814285Y-107177860D02*
X109738095Y-107139765D01*
X109738095Y-107139765D02*
X109547618Y-107139765D01*
X109547618Y-107139765D02*
X109433333Y-107177860D01*
X109128571Y-107901670D02*
X109014285Y-107939765D01*
X109014285Y-107939765D02*
X108823809Y-107939765D01*
X108823809Y-107939765D02*
X108747618Y-107901670D01*
X108747618Y-107901670D02*
X108709523Y-107863574D01*
X108709523Y-107863574D02*
X108671428Y-107787384D01*
X108671428Y-107787384D02*
X108671428Y-107711193D01*
X108671428Y-107711193D02*
X108709523Y-107635003D01*
X108709523Y-107635003D02*
X108747618Y-107596908D01*
X108747618Y-107596908D02*
X108823809Y-107558812D01*
X108823809Y-107558812D02*
X108976190Y-107520717D01*
X108976190Y-107520717D02*
X109052380Y-107482622D01*
X109052380Y-107482622D02*
X109090475Y-107444527D01*
X109090475Y-107444527D02*
X109128571Y-107368336D01*
X109128571Y-107368336D02*
X109128571Y-107292146D01*
X109128571Y-107292146D02*
X109090475Y-107215955D01*
X109090475Y-107215955D02*
X109052380Y-107177860D01*
X109052380Y-107177860D02*
X108976190Y-107139765D01*
X108976190Y-107139765D02*
X108785713Y-107139765D01*
X108785713Y-107139765D02*
X108671428Y-107177860D01*
X108328570Y-107939765D02*
X108328570Y-107139765D01*
X108328570Y-107139765D02*
X108023808Y-107139765D01*
X108023808Y-107139765D02*
X107947618Y-107177860D01*
X107947618Y-107177860D02*
X107909523Y-107215955D01*
X107909523Y-107215955D02*
X107871427Y-107292146D01*
X107871427Y-107292146D02*
X107871427Y-107406431D01*
X107871427Y-107406431D02*
X107909523Y-107482622D01*
X107909523Y-107482622D02*
X107947618Y-107520717D01*
X107947618Y-107520717D02*
X108023808Y-107558812D01*
X108023808Y-107558812D02*
X108328570Y-107558812D01*
X107528570Y-107635003D02*
X106919047Y-107635003D01*
X106538094Y-107939765D02*
X106538094Y-107139765D01*
X106195238Y-107901670D02*
X106080952Y-107939765D01*
X106080952Y-107939765D02*
X105890476Y-107939765D01*
X105890476Y-107939765D02*
X105814285Y-107901670D01*
X105814285Y-107901670D02*
X105776190Y-107863574D01*
X105776190Y-107863574D02*
X105738095Y-107787384D01*
X105738095Y-107787384D02*
X105738095Y-107711193D01*
X105738095Y-107711193D02*
X105776190Y-107635003D01*
X105776190Y-107635003D02*
X105814285Y-107596908D01*
X105814285Y-107596908D02*
X105890476Y-107558812D01*
X105890476Y-107558812D02*
X106042857Y-107520717D01*
X106042857Y-107520717D02*
X106119047Y-107482622D01*
X106119047Y-107482622D02*
X106157142Y-107444527D01*
X106157142Y-107444527D02*
X106195238Y-107368336D01*
X106195238Y-107368336D02*
X106195238Y-107292146D01*
X106195238Y-107292146D02*
X106157142Y-107215955D01*
X106157142Y-107215955D02*
X106119047Y-107177860D01*
X106119047Y-107177860D02*
X106042857Y-107139765D01*
X106042857Y-107139765D02*
X105852380Y-107139765D01*
X105852380Y-107139765D02*
X105738095Y-107177860D01*
X105433333Y-107901670D02*
X105319047Y-107939765D01*
X105319047Y-107939765D02*
X105128571Y-107939765D01*
X105128571Y-107939765D02*
X105052380Y-107901670D01*
X105052380Y-107901670D02*
X105014285Y-107863574D01*
X105014285Y-107863574D02*
X104976190Y-107787384D01*
X104976190Y-107787384D02*
X104976190Y-107711193D01*
X104976190Y-107711193D02*
X105014285Y-107635003D01*
X105014285Y-107635003D02*
X105052380Y-107596908D01*
X105052380Y-107596908D02*
X105128571Y-107558812D01*
X105128571Y-107558812D02*
X105280952Y-107520717D01*
X105280952Y-107520717D02*
X105357142Y-107482622D01*
X105357142Y-107482622D02*
X105395237Y-107444527D01*
X105395237Y-107444527D02*
X105433333Y-107368336D01*
X105433333Y-107368336D02*
X105433333Y-107292146D01*
X105433333Y-107292146D02*
X105395237Y-107215955D01*
X105395237Y-107215955D02*
X105357142Y-107177860D01*
X105357142Y-107177860D02*
X105280952Y-107139765D01*
X105280952Y-107139765D02*
X105090475Y-107139765D01*
X105090475Y-107139765D02*
X104976190Y-107177860D01*
X104633332Y-107520717D02*
X104366666Y-107520717D01*
X104252380Y-107939765D02*
X104633332Y-107939765D01*
X104633332Y-107939765D02*
X104633332Y-107139765D01*
X104633332Y-107139765D02*
X104252380Y-107139765D01*
X103909522Y-107939765D02*
X103909522Y-107139765D01*
X103909522Y-107139765D02*
X103604760Y-107139765D01*
X103604760Y-107139765D02*
X103528570Y-107177860D01*
X103528570Y-107177860D02*
X103490475Y-107215955D01*
X103490475Y-107215955D02*
X103452379Y-107292146D01*
X103452379Y-107292146D02*
X103452379Y-107406431D01*
X103452379Y-107406431D02*
X103490475Y-107482622D01*
X103490475Y-107482622D02*
X103528570Y-107520717D01*
X103528570Y-107520717D02*
X103604760Y-107558812D01*
X103604760Y-107558812D02*
X103909522Y-107558812D01*
X103071427Y-107901670D02*
X103071427Y-107939765D01*
X103071427Y-107939765D02*
X103109522Y-108015955D01*
X103109522Y-108015955D02*
X103147618Y-108054050D01*
X101661903Y-107863574D02*
X101699999Y-107901670D01*
X101699999Y-107901670D02*
X101814284Y-107939765D01*
X101814284Y-107939765D02*
X101890475Y-107939765D01*
X101890475Y-107939765D02*
X102004761Y-107901670D01*
X102004761Y-107901670D02*
X102080951Y-107825479D01*
X102080951Y-107825479D02*
X102119046Y-107749289D01*
X102119046Y-107749289D02*
X102157142Y-107596908D01*
X102157142Y-107596908D02*
X102157142Y-107482622D01*
X102157142Y-107482622D02*
X102119046Y-107330241D01*
X102119046Y-107330241D02*
X102080951Y-107254050D01*
X102080951Y-107254050D02*
X102004761Y-107177860D01*
X102004761Y-107177860D02*
X101890475Y-107139765D01*
X101890475Y-107139765D02*
X101814284Y-107139765D01*
X101814284Y-107139765D02*
X101699999Y-107177860D01*
X101699999Y-107177860D02*
X101661903Y-107215955D01*
X101319046Y-107939765D02*
X101319046Y-107139765D01*
X101319046Y-107139765D02*
X101014284Y-107139765D01*
X101014284Y-107139765D02*
X100938094Y-107177860D01*
X100938094Y-107177860D02*
X100899999Y-107215955D01*
X100899999Y-107215955D02*
X100861903Y-107292146D01*
X100861903Y-107292146D02*
X100861903Y-107406431D01*
X100861903Y-107406431D02*
X100899999Y-107482622D01*
X100899999Y-107482622D02*
X100938094Y-107520717D01*
X100938094Y-107520717D02*
X101014284Y-107558812D01*
X101014284Y-107558812D02*
X101319046Y-107558812D01*
X100519046Y-107939765D02*
X100519046Y-107139765D01*
X100519046Y-107139765D02*
X100214284Y-107139765D01*
X100214284Y-107139765D02*
X100138094Y-107177860D01*
X100138094Y-107177860D02*
X100099999Y-107215955D01*
X100099999Y-107215955D02*
X100061903Y-107292146D01*
X100061903Y-107292146D02*
X100061903Y-107406431D01*
X100061903Y-107406431D02*
X100099999Y-107482622D01*
X100099999Y-107482622D02*
X100138094Y-107520717D01*
X100138094Y-107520717D02*
X100214284Y-107558812D01*
X100214284Y-107558812D02*
X100519046Y-107558812D01*
X115071430Y-108465815D02*
X115147620Y-108427720D01*
X115147620Y-108427720D02*
X115261906Y-108427720D01*
X115261906Y-108427720D02*
X115376192Y-108465815D01*
X115376192Y-108465815D02*
X115452382Y-108542005D01*
X115452382Y-108542005D02*
X115490477Y-108618196D01*
X115490477Y-108618196D02*
X115528573Y-108770577D01*
X115528573Y-108770577D02*
X115528573Y-108884863D01*
X115528573Y-108884863D02*
X115490477Y-109037244D01*
X115490477Y-109037244D02*
X115452382Y-109113434D01*
X115452382Y-109113434D02*
X115376192Y-109189625D01*
X115376192Y-109189625D02*
X115261906Y-109227720D01*
X115261906Y-109227720D02*
X115185715Y-109227720D01*
X115185715Y-109227720D02*
X115071430Y-109189625D01*
X115071430Y-109189625D02*
X115033334Y-109151529D01*
X115033334Y-109151529D02*
X115033334Y-108884863D01*
X115033334Y-108884863D02*
X115185715Y-108884863D01*
X114690477Y-109227720D02*
X114690477Y-108694386D01*
X114690477Y-108846767D02*
X114652382Y-108770577D01*
X114652382Y-108770577D02*
X114614287Y-108732482D01*
X114614287Y-108732482D02*
X114538096Y-108694386D01*
X114538096Y-108694386D02*
X114461906Y-108694386D01*
X114195239Y-109227720D02*
X114195239Y-108694386D01*
X114195239Y-108427720D02*
X114233335Y-108465815D01*
X114233335Y-108465815D02*
X114195239Y-108503910D01*
X114195239Y-108503910D02*
X114157144Y-108465815D01*
X114157144Y-108465815D02*
X114195239Y-108427720D01*
X114195239Y-108427720D02*
X114195239Y-108503910D01*
X113928573Y-108694386D02*
X113623811Y-108694386D01*
X113814287Y-109227720D02*
X113814287Y-108542005D01*
X113814287Y-108542005D02*
X113776192Y-108465815D01*
X113776192Y-108465815D02*
X113700002Y-108427720D01*
X113700002Y-108427720D02*
X113623811Y-108427720D01*
X113471430Y-108694386D02*
X113166668Y-108694386D01*
X113357144Y-109227720D02*
X113357144Y-108542005D01*
X113357144Y-108542005D02*
X113319049Y-108465815D01*
X113319049Y-108465815D02*
X113242859Y-108427720D01*
X113242859Y-108427720D02*
X113166668Y-108427720D01*
X112900001Y-109227720D02*
X112900001Y-108694386D01*
X112900001Y-108427720D02*
X112938097Y-108465815D01*
X112938097Y-108465815D02*
X112900001Y-108503910D01*
X112900001Y-108503910D02*
X112861906Y-108465815D01*
X112861906Y-108465815D02*
X112900001Y-108427720D01*
X112900001Y-108427720D02*
X112900001Y-108503910D01*
X112519049Y-108694386D02*
X112519049Y-109227720D01*
X112519049Y-108770577D02*
X112480954Y-108732482D01*
X112480954Y-108732482D02*
X112404764Y-108694386D01*
X112404764Y-108694386D02*
X112290478Y-108694386D01*
X112290478Y-108694386D02*
X112214287Y-108732482D01*
X112214287Y-108732482D02*
X112176192Y-108808672D01*
X112176192Y-108808672D02*
X112176192Y-109227720D01*
X111452382Y-108694386D02*
X111452382Y-109342005D01*
X111452382Y-109342005D02*
X111490477Y-109418196D01*
X111490477Y-109418196D02*
X111528573Y-109456291D01*
X111528573Y-109456291D02*
X111604763Y-109494386D01*
X111604763Y-109494386D02*
X111719049Y-109494386D01*
X111719049Y-109494386D02*
X111795239Y-109456291D01*
X111452382Y-109189625D02*
X111528573Y-109227720D01*
X111528573Y-109227720D02*
X111680954Y-109227720D01*
X111680954Y-109227720D02*
X111757144Y-109189625D01*
X111757144Y-109189625D02*
X111795239Y-109151529D01*
X111795239Y-109151529D02*
X111833335Y-109075339D01*
X111833335Y-109075339D02*
X111833335Y-108846767D01*
X111833335Y-108846767D02*
X111795239Y-108770577D01*
X111795239Y-108770577D02*
X111757144Y-108732482D01*
X111757144Y-108732482D02*
X111680954Y-108694386D01*
X111680954Y-108694386D02*
X111528573Y-108694386D01*
X111528573Y-108694386D02*
X111452382Y-108732482D01*
X110576191Y-108427720D02*
X110119048Y-108427720D01*
X110347620Y-109227720D02*
X110347620Y-108427720D01*
X109547619Y-109189625D02*
X109623810Y-109227720D01*
X109623810Y-109227720D02*
X109776191Y-109227720D01*
X109776191Y-109227720D02*
X109852381Y-109189625D01*
X109852381Y-109189625D02*
X109890477Y-109113434D01*
X109890477Y-109113434D02*
X109890477Y-108808672D01*
X109890477Y-108808672D02*
X109852381Y-108732482D01*
X109852381Y-108732482D02*
X109776191Y-108694386D01*
X109776191Y-108694386D02*
X109623810Y-108694386D01*
X109623810Y-108694386D02*
X109547619Y-108732482D01*
X109547619Y-108732482D02*
X109509524Y-108808672D01*
X109509524Y-108808672D02*
X109509524Y-108884863D01*
X109509524Y-108884863D02*
X109890477Y-108961053D01*
X108823810Y-109189625D02*
X108900001Y-109227720D01*
X108900001Y-109227720D02*
X109052382Y-109227720D01*
X109052382Y-109227720D02*
X109128572Y-109189625D01*
X109128572Y-109189625D02*
X109166667Y-109151529D01*
X109166667Y-109151529D02*
X109204763Y-109075339D01*
X109204763Y-109075339D02*
X109204763Y-108846767D01*
X109204763Y-108846767D02*
X109166667Y-108770577D01*
X109166667Y-108770577D02*
X109128572Y-108732482D01*
X109128572Y-108732482D02*
X109052382Y-108694386D01*
X109052382Y-108694386D02*
X108900001Y-108694386D01*
X108900001Y-108694386D02*
X108823810Y-108732482D01*
X108480953Y-109227720D02*
X108480953Y-108427720D01*
X108138096Y-109227720D02*
X108138096Y-108808672D01*
X108138096Y-108808672D02*
X108176191Y-108732482D01*
X108176191Y-108732482D02*
X108252382Y-108694386D01*
X108252382Y-108694386D02*
X108366668Y-108694386D01*
X108366668Y-108694386D02*
X108442858Y-108732482D01*
X108442858Y-108732482D02*
X108480953Y-108770577D01*
X107757143Y-108694386D02*
X107757143Y-109227720D01*
X107757143Y-108770577D02*
X107719048Y-108732482D01*
X107719048Y-108732482D02*
X107642858Y-108694386D01*
X107642858Y-108694386D02*
X107528572Y-108694386D01*
X107528572Y-108694386D02*
X107452381Y-108732482D01*
X107452381Y-108732482D02*
X107414286Y-108808672D01*
X107414286Y-108808672D02*
X107414286Y-109227720D01*
X106919048Y-109227720D02*
X106995238Y-109189625D01*
X106995238Y-109189625D02*
X107033333Y-109151529D01*
X107033333Y-109151529D02*
X107071429Y-109075339D01*
X107071429Y-109075339D02*
X107071429Y-108846767D01*
X107071429Y-108846767D02*
X107033333Y-108770577D01*
X107033333Y-108770577D02*
X106995238Y-108732482D01*
X106995238Y-108732482D02*
X106919048Y-108694386D01*
X106919048Y-108694386D02*
X106804762Y-108694386D01*
X106804762Y-108694386D02*
X106728571Y-108732482D01*
X106728571Y-108732482D02*
X106690476Y-108770577D01*
X106690476Y-108770577D02*
X106652381Y-108846767D01*
X106652381Y-108846767D02*
X106652381Y-109075339D01*
X106652381Y-109075339D02*
X106690476Y-109151529D01*
X106690476Y-109151529D02*
X106728571Y-109189625D01*
X106728571Y-109189625D02*
X106804762Y-109227720D01*
X106804762Y-109227720D02*
X106919048Y-109227720D01*
X106195238Y-109227720D02*
X106271428Y-109189625D01*
X106271428Y-109189625D02*
X106309523Y-109113434D01*
X106309523Y-109113434D02*
X106309523Y-108427720D01*
X105776190Y-109227720D02*
X105852380Y-109189625D01*
X105852380Y-109189625D02*
X105890475Y-109151529D01*
X105890475Y-109151529D02*
X105928571Y-109075339D01*
X105928571Y-109075339D02*
X105928571Y-108846767D01*
X105928571Y-108846767D02*
X105890475Y-108770577D01*
X105890475Y-108770577D02*
X105852380Y-108732482D01*
X105852380Y-108732482D02*
X105776190Y-108694386D01*
X105776190Y-108694386D02*
X105661904Y-108694386D01*
X105661904Y-108694386D02*
X105585713Y-108732482D01*
X105585713Y-108732482D02*
X105547618Y-108770577D01*
X105547618Y-108770577D02*
X105509523Y-108846767D01*
X105509523Y-108846767D02*
X105509523Y-109075339D01*
X105509523Y-109075339D02*
X105547618Y-109151529D01*
X105547618Y-109151529D02*
X105585713Y-109189625D01*
X105585713Y-109189625D02*
X105661904Y-109227720D01*
X105661904Y-109227720D02*
X105776190Y-109227720D01*
X104823808Y-108694386D02*
X104823808Y-109342005D01*
X104823808Y-109342005D02*
X104861903Y-109418196D01*
X104861903Y-109418196D02*
X104899999Y-109456291D01*
X104899999Y-109456291D02*
X104976189Y-109494386D01*
X104976189Y-109494386D02*
X105090475Y-109494386D01*
X105090475Y-109494386D02*
X105166665Y-109456291D01*
X104823808Y-109189625D02*
X104899999Y-109227720D01*
X104899999Y-109227720D02*
X105052380Y-109227720D01*
X105052380Y-109227720D02*
X105128570Y-109189625D01*
X105128570Y-109189625D02*
X105166665Y-109151529D01*
X105166665Y-109151529D02*
X105204761Y-109075339D01*
X105204761Y-109075339D02*
X105204761Y-108846767D01*
X105204761Y-108846767D02*
X105166665Y-108770577D01*
X105166665Y-108770577D02*
X105128570Y-108732482D01*
X105128570Y-108732482D02*
X105052380Y-108694386D01*
X105052380Y-108694386D02*
X104899999Y-108694386D01*
X104899999Y-108694386D02*
X104823808Y-108732482D01*
X104519046Y-108694386D02*
X104328570Y-109227720D01*
X104138093Y-108694386D02*
X104328570Y-109227720D01*
X104328570Y-109227720D02*
X104404760Y-109418196D01*
X104404760Y-109418196D02*
X104442855Y-109456291D01*
X104442855Y-109456291D02*
X104519046Y-109494386D01*
X102842855Y-109227720D02*
X103223807Y-109227720D01*
X103223807Y-109227720D02*
X103223807Y-108427720D01*
X102195236Y-109227720D02*
X102576188Y-109227720D01*
X102576188Y-109227720D02*
X102576188Y-108427720D01*
X101471426Y-109151529D02*
X101509522Y-109189625D01*
X101509522Y-109189625D02*
X101623807Y-109227720D01*
X101623807Y-109227720D02*
X101699998Y-109227720D01*
X101699998Y-109227720D02*
X101814284Y-109189625D01*
X101814284Y-109189625D02*
X101890474Y-109113434D01*
X101890474Y-109113434D02*
X101928569Y-109037244D01*
X101928569Y-109037244D02*
X101966665Y-108884863D01*
X101966665Y-108884863D02*
X101966665Y-108770577D01*
X101966665Y-108770577D02*
X101928569Y-108618196D01*
X101928569Y-108618196D02*
X101890474Y-108542005D01*
X101890474Y-108542005D02*
X101814284Y-108465815D01*
X101814284Y-108465815D02*
X101699998Y-108427720D01*
X101699998Y-108427720D02*
X101623807Y-108427720D01*
X101623807Y-108427720D02*
X101509522Y-108465815D01*
X101509522Y-108465815D02*
X101471426Y-108503910D01*
X117947621Y-109982341D02*
X117947621Y-110629960D01*
X117947621Y-110629960D02*
X117985716Y-110706151D01*
X117985716Y-110706151D02*
X118023812Y-110744246D01*
X118023812Y-110744246D02*
X118100002Y-110782341D01*
X118100002Y-110782341D02*
X118214288Y-110782341D01*
X118214288Y-110782341D02*
X118290478Y-110744246D01*
X117947621Y-110477580D02*
X118023812Y-110515675D01*
X118023812Y-110515675D02*
X118176193Y-110515675D01*
X118176193Y-110515675D02*
X118252383Y-110477580D01*
X118252383Y-110477580D02*
X118290478Y-110439484D01*
X118290478Y-110439484D02*
X118328574Y-110363294D01*
X118328574Y-110363294D02*
X118328574Y-110134722D01*
X118328574Y-110134722D02*
X118290478Y-110058532D01*
X118290478Y-110058532D02*
X118252383Y-110020437D01*
X118252383Y-110020437D02*
X118176193Y-109982341D01*
X118176193Y-109982341D02*
X118023812Y-109982341D01*
X118023812Y-109982341D02*
X117947621Y-110020437D01*
X117566668Y-110515675D02*
X117566668Y-109982341D01*
X117566668Y-109715675D02*
X117604764Y-109753770D01*
X117604764Y-109753770D02*
X117566668Y-109791865D01*
X117566668Y-109791865D02*
X117528573Y-109753770D01*
X117528573Y-109753770D02*
X117566668Y-109715675D01*
X117566668Y-109715675D02*
X117566668Y-109791865D01*
X117300002Y-109982341D02*
X116995240Y-109982341D01*
X117185716Y-109715675D02*
X117185716Y-110401389D01*
X117185716Y-110401389D02*
X117147621Y-110477580D01*
X117147621Y-110477580D02*
X117071431Y-110515675D01*
X117071431Y-110515675D02*
X116995240Y-110515675D01*
X116728573Y-110515675D02*
X116728573Y-109715675D01*
X116385716Y-110515675D02*
X116385716Y-110096627D01*
X116385716Y-110096627D02*
X116423811Y-110020437D01*
X116423811Y-110020437D02*
X116500002Y-109982341D01*
X116500002Y-109982341D02*
X116614288Y-109982341D01*
X116614288Y-109982341D02*
X116690478Y-110020437D01*
X116690478Y-110020437D02*
X116728573Y-110058532D01*
X115661906Y-109982341D02*
X115661906Y-110515675D01*
X116004763Y-109982341D02*
X116004763Y-110401389D01*
X116004763Y-110401389D02*
X115966668Y-110477580D01*
X115966668Y-110477580D02*
X115890478Y-110515675D01*
X115890478Y-110515675D02*
X115776192Y-110515675D01*
X115776192Y-110515675D02*
X115700001Y-110477580D01*
X115700001Y-110477580D02*
X115661906Y-110439484D01*
X115280953Y-110515675D02*
X115280953Y-109715675D01*
X115280953Y-110020437D02*
X115204763Y-109982341D01*
X115204763Y-109982341D02*
X115052382Y-109982341D01*
X115052382Y-109982341D02*
X114976191Y-110020437D01*
X114976191Y-110020437D02*
X114938096Y-110058532D01*
X114938096Y-110058532D02*
X114900001Y-110134722D01*
X114900001Y-110134722D02*
X114900001Y-110363294D01*
X114900001Y-110363294D02*
X114938096Y-110439484D01*
X114938096Y-110439484D02*
X114976191Y-110477580D01*
X114976191Y-110477580D02*
X115052382Y-110515675D01*
X115052382Y-110515675D02*
X115204763Y-110515675D01*
X115204763Y-110515675D02*
X115280953Y-110477580D01*
X114557143Y-110439484D02*
X114519048Y-110477580D01*
X114519048Y-110477580D02*
X114557143Y-110515675D01*
X114557143Y-110515675D02*
X114595239Y-110477580D01*
X114595239Y-110477580D02*
X114557143Y-110439484D01*
X114557143Y-110439484D02*
X114557143Y-110515675D01*
X113833334Y-110477580D02*
X113909525Y-110515675D01*
X113909525Y-110515675D02*
X114061906Y-110515675D01*
X114061906Y-110515675D02*
X114138096Y-110477580D01*
X114138096Y-110477580D02*
X114176191Y-110439484D01*
X114176191Y-110439484D02*
X114214287Y-110363294D01*
X114214287Y-110363294D02*
X114214287Y-110134722D01*
X114214287Y-110134722D02*
X114176191Y-110058532D01*
X114176191Y-110058532D02*
X114138096Y-110020437D01*
X114138096Y-110020437D02*
X114061906Y-109982341D01*
X114061906Y-109982341D02*
X113909525Y-109982341D01*
X113909525Y-109982341D02*
X113833334Y-110020437D01*
X113376192Y-110515675D02*
X113452382Y-110477580D01*
X113452382Y-110477580D02*
X113490477Y-110439484D01*
X113490477Y-110439484D02*
X113528573Y-110363294D01*
X113528573Y-110363294D02*
X113528573Y-110134722D01*
X113528573Y-110134722D02*
X113490477Y-110058532D01*
X113490477Y-110058532D02*
X113452382Y-110020437D01*
X113452382Y-110020437D02*
X113376192Y-109982341D01*
X113376192Y-109982341D02*
X113261906Y-109982341D01*
X113261906Y-109982341D02*
X113185715Y-110020437D01*
X113185715Y-110020437D02*
X113147620Y-110058532D01*
X113147620Y-110058532D02*
X113109525Y-110134722D01*
X113109525Y-110134722D02*
X113109525Y-110363294D01*
X113109525Y-110363294D02*
X113147620Y-110439484D01*
X113147620Y-110439484D02*
X113185715Y-110477580D01*
X113185715Y-110477580D02*
X113261906Y-110515675D01*
X113261906Y-110515675D02*
X113376192Y-110515675D01*
X112766667Y-110515675D02*
X112766667Y-109982341D01*
X112766667Y-110058532D02*
X112728572Y-110020437D01*
X112728572Y-110020437D02*
X112652382Y-109982341D01*
X112652382Y-109982341D02*
X112538096Y-109982341D01*
X112538096Y-109982341D02*
X112461905Y-110020437D01*
X112461905Y-110020437D02*
X112423810Y-110096627D01*
X112423810Y-110096627D02*
X112423810Y-110515675D01*
X112423810Y-110096627D02*
X112385715Y-110020437D01*
X112385715Y-110020437D02*
X112309524Y-109982341D01*
X112309524Y-109982341D02*
X112195239Y-109982341D01*
X112195239Y-109982341D02*
X112119048Y-110020437D01*
X112119048Y-110020437D02*
X112080953Y-110096627D01*
X112080953Y-110096627D02*
X112080953Y-110515675D01*
X111128572Y-109677580D02*
X111814286Y-110706151D01*
X110900001Y-110477580D02*
X110785715Y-110515675D01*
X110785715Y-110515675D02*
X110595239Y-110515675D01*
X110595239Y-110515675D02*
X110519048Y-110477580D01*
X110519048Y-110477580D02*
X110480953Y-110439484D01*
X110480953Y-110439484D02*
X110442858Y-110363294D01*
X110442858Y-110363294D02*
X110442858Y-110287103D01*
X110442858Y-110287103D02*
X110480953Y-110210913D01*
X110480953Y-110210913D02*
X110519048Y-110172818D01*
X110519048Y-110172818D02*
X110595239Y-110134722D01*
X110595239Y-110134722D02*
X110747620Y-110096627D01*
X110747620Y-110096627D02*
X110823810Y-110058532D01*
X110823810Y-110058532D02*
X110861905Y-110020437D01*
X110861905Y-110020437D02*
X110900001Y-109944246D01*
X110900001Y-109944246D02*
X110900001Y-109868056D01*
X110900001Y-109868056D02*
X110861905Y-109791865D01*
X110861905Y-109791865D02*
X110823810Y-109753770D01*
X110823810Y-109753770D02*
X110747620Y-109715675D01*
X110747620Y-109715675D02*
X110557143Y-109715675D01*
X110557143Y-109715675D02*
X110442858Y-109753770D01*
X110214286Y-109982341D02*
X109909524Y-109982341D01*
X110100000Y-109715675D02*
X110100000Y-110401389D01*
X110100000Y-110401389D02*
X110061905Y-110477580D01*
X110061905Y-110477580D02*
X109985715Y-110515675D01*
X109985715Y-110515675D02*
X109909524Y-110515675D01*
X109300000Y-110515675D02*
X109300000Y-110096627D01*
X109300000Y-110096627D02*
X109338095Y-110020437D01*
X109338095Y-110020437D02*
X109414286Y-109982341D01*
X109414286Y-109982341D02*
X109566667Y-109982341D01*
X109566667Y-109982341D02*
X109642857Y-110020437D01*
X109300000Y-110477580D02*
X109376191Y-110515675D01*
X109376191Y-110515675D02*
X109566667Y-110515675D01*
X109566667Y-110515675D02*
X109642857Y-110477580D01*
X109642857Y-110477580D02*
X109680953Y-110401389D01*
X109680953Y-110401389D02*
X109680953Y-110325199D01*
X109680953Y-110325199D02*
X109642857Y-110249008D01*
X109642857Y-110249008D02*
X109566667Y-110210913D01*
X109566667Y-110210913D02*
X109376191Y-110210913D01*
X109376191Y-110210913D02*
X109300000Y-110172818D01*
X108919047Y-110515675D02*
X108919047Y-109715675D01*
X108919047Y-110020437D02*
X108842857Y-109982341D01*
X108842857Y-109982341D02*
X108690476Y-109982341D01*
X108690476Y-109982341D02*
X108614285Y-110020437D01*
X108614285Y-110020437D02*
X108576190Y-110058532D01*
X108576190Y-110058532D02*
X108538095Y-110134722D01*
X108538095Y-110134722D02*
X108538095Y-110363294D01*
X108538095Y-110363294D02*
X108576190Y-110439484D01*
X108576190Y-110439484D02*
X108614285Y-110477580D01*
X108614285Y-110477580D02*
X108690476Y-110515675D01*
X108690476Y-110515675D02*
X108842857Y-110515675D01*
X108842857Y-110515675D02*
X108919047Y-110477580D01*
X108195237Y-110210913D02*
X107585714Y-110210913D01*
X106747618Y-110515675D02*
X107014285Y-110134722D01*
X107204761Y-110515675D02*
X107204761Y-109715675D01*
X107204761Y-109715675D02*
X106899999Y-109715675D01*
X106899999Y-109715675D02*
X106823809Y-109753770D01*
X106823809Y-109753770D02*
X106785714Y-109791865D01*
X106785714Y-109791865D02*
X106747618Y-109868056D01*
X106747618Y-109868056D02*
X106747618Y-109982341D01*
X106747618Y-109982341D02*
X106785714Y-110058532D01*
X106785714Y-110058532D02*
X106823809Y-110096627D01*
X106823809Y-110096627D02*
X106899999Y-110134722D01*
X106899999Y-110134722D02*
X107204761Y-110134722D01*
X106061904Y-110515675D02*
X106061904Y-110096627D01*
X106061904Y-110096627D02*
X106099999Y-110020437D01*
X106099999Y-110020437D02*
X106176190Y-109982341D01*
X106176190Y-109982341D02*
X106328571Y-109982341D01*
X106328571Y-109982341D02*
X106404761Y-110020437D01*
X106061904Y-110477580D02*
X106138095Y-110515675D01*
X106138095Y-110515675D02*
X106328571Y-110515675D01*
X106328571Y-110515675D02*
X106404761Y-110477580D01*
X106404761Y-110477580D02*
X106442857Y-110401389D01*
X106442857Y-110401389D02*
X106442857Y-110325199D01*
X106442857Y-110325199D02*
X106404761Y-110249008D01*
X106404761Y-110249008D02*
X106328571Y-110210913D01*
X106328571Y-110210913D02*
X106138095Y-110210913D01*
X106138095Y-110210913D02*
X106061904Y-110172818D01*
X105680951Y-110515675D02*
X105680951Y-109715675D01*
X105680951Y-110020437D02*
X105604761Y-109982341D01*
X105604761Y-109982341D02*
X105452380Y-109982341D01*
X105452380Y-109982341D02*
X105376189Y-110020437D01*
X105376189Y-110020437D02*
X105338094Y-110058532D01*
X105338094Y-110058532D02*
X105299999Y-110134722D01*
X105299999Y-110134722D02*
X105299999Y-110363294D01*
X105299999Y-110363294D02*
X105338094Y-110439484D01*
X105338094Y-110439484D02*
X105376189Y-110477580D01*
X105376189Y-110477580D02*
X105452380Y-110515675D01*
X105452380Y-110515675D02*
X105604761Y-110515675D01*
X105604761Y-110515675D02*
X105680951Y-110477580D01*
X104957141Y-110515675D02*
X104957141Y-109715675D01*
X104957141Y-110020437D02*
X104880951Y-109982341D01*
X104880951Y-109982341D02*
X104728570Y-109982341D01*
X104728570Y-109982341D02*
X104652379Y-110020437D01*
X104652379Y-110020437D02*
X104614284Y-110058532D01*
X104614284Y-110058532D02*
X104576189Y-110134722D01*
X104576189Y-110134722D02*
X104576189Y-110363294D01*
X104576189Y-110363294D02*
X104614284Y-110439484D01*
X104614284Y-110439484D02*
X104652379Y-110477580D01*
X104652379Y-110477580D02*
X104728570Y-110515675D01*
X104728570Y-110515675D02*
X104880951Y-110515675D01*
X104880951Y-110515675D02*
X104957141Y-110477580D01*
X104233331Y-110515675D02*
X104233331Y-109982341D01*
X104233331Y-109715675D02*
X104271427Y-109753770D01*
X104271427Y-109753770D02*
X104233331Y-109791865D01*
X104233331Y-109791865D02*
X104195236Y-109753770D01*
X104195236Y-109753770D02*
X104233331Y-109715675D01*
X104233331Y-109715675D02*
X104233331Y-109791865D01*
X103966665Y-109982341D02*
X103661903Y-109982341D01*
X103852379Y-109715675D02*
X103852379Y-110401389D01*
X103852379Y-110401389D02*
X103814284Y-110477580D01*
X103814284Y-110477580D02*
X103738094Y-110515675D01*
X103738094Y-110515675D02*
X103661903Y-110515675D01*
X103395236Y-110210913D02*
X102785713Y-110210913D01*
X101947617Y-110439484D02*
X101985713Y-110477580D01*
X101985713Y-110477580D02*
X102099998Y-110515675D01*
X102099998Y-110515675D02*
X102176189Y-110515675D01*
X102176189Y-110515675D02*
X102290475Y-110477580D01*
X102290475Y-110477580D02*
X102366665Y-110401389D01*
X102366665Y-110401389D02*
X102404760Y-110325199D01*
X102404760Y-110325199D02*
X102442856Y-110172818D01*
X102442856Y-110172818D02*
X102442856Y-110058532D01*
X102442856Y-110058532D02*
X102404760Y-109906151D01*
X102404760Y-109906151D02*
X102366665Y-109829960D01*
X102366665Y-109829960D02*
X102290475Y-109753770D01*
X102290475Y-109753770D02*
X102176189Y-109715675D01*
X102176189Y-109715675D02*
X102099998Y-109715675D01*
X102099998Y-109715675D02*
X101985713Y-109753770D01*
X101985713Y-109753770D02*
X101947617Y-109791865D01*
X101490475Y-110515675D02*
X101566665Y-110477580D01*
X101566665Y-110477580D02*
X101604760Y-110439484D01*
X101604760Y-110439484D02*
X101642856Y-110363294D01*
X101642856Y-110363294D02*
X101642856Y-110134722D01*
X101642856Y-110134722D02*
X101604760Y-110058532D01*
X101604760Y-110058532D02*
X101566665Y-110020437D01*
X101566665Y-110020437D02*
X101490475Y-109982341D01*
X101490475Y-109982341D02*
X101376189Y-109982341D01*
X101376189Y-109982341D02*
X101299998Y-110020437D01*
X101299998Y-110020437D02*
X101261903Y-110058532D01*
X101261903Y-110058532D02*
X101223808Y-110134722D01*
X101223808Y-110134722D02*
X101223808Y-110363294D01*
X101223808Y-110363294D02*
X101261903Y-110439484D01*
X101261903Y-110439484D02*
X101299998Y-110477580D01*
X101299998Y-110477580D02*
X101376189Y-110515675D01*
X101376189Y-110515675D02*
X101490475Y-110515675D01*
X100538093Y-110515675D02*
X100538093Y-109715675D01*
X100538093Y-110477580D02*
X100614284Y-110515675D01*
X100614284Y-110515675D02*
X100766665Y-110515675D01*
X100766665Y-110515675D02*
X100842855Y-110477580D01*
X100842855Y-110477580D02*
X100880950Y-110439484D01*
X100880950Y-110439484D02*
X100919046Y-110363294D01*
X100919046Y-110363294D02*
X100919046Y-110134722D01*
X100919046Y-110134722D02*
X100880950Y-110058532D01*
X100880950Y-110058532D02*
X100842855Y-110020437D01*
X100842855Y-110020437D02*
X100766665Y-109982341D01*
X100766665Y-109982341D02*
X100614284Y-109982341D01*
X100614284Y-109982341D02*
X100538093Y-110020437D01*
X100157140Y-110515675D02*
X100157140Y-109982341D01*
X100157140Y-109715675D02*
X100195236Y-109753770D01*
X100195236Y-109753770D02*
X100157140Y-109791865D01*
X100157140Y-109791865D02*
X100119045Y-109753770D01*
X100119045Y-109753770D02*
X100157140Y-109715675D01*
X100157140Y-109715675D02*
X100157140Y-109791865D01*
X99776188Y-109982341D02*
X99776188Y-110515675D01*
X99776188Y-110058532D02*
X99738093Y-110020437D01*
X99738093Y-110020437D02*
X99661903Y-109982341D01*
X99661903Y-109982341D02*
X99547617Y-109982341D01*
X99547617Y-109982341D02*
X99471426Y-110020437D01*
X99471426Y-110020437D02*
X99433331Y-110096627D01*
X99433331Y-110096627D02*
X99433331Y-110515675D01*
X98709521Y-109982341D02*
X98709521Y-110629960D01*
X98709521Y-110629960D02*
X98747616Y-110706151D01*
X98747616Y-110706151D02*
X98785712Y-110744246D01*
X98785712Y-110744246D02*
X98861902Y-110782341D01*
X98861902Y-110782341D02*
X98976188Y-110782341D01*
X98976188Y-110782341D02*
X99052378Y-110744246D01*
X98709521Y-110477580D02*
X98785712Y-110515675D01*
X98785712Y-110515675D02*
X98938093Y-110515675D01*
X98938093Y-110515675D02*
X99014283Y-110477580D01*
X99014283Y-110477580D02*
X99052378Y-110439484D01*
X99052378Y-110439484D02*
X99090474Y-110363294D01*
X99090474Y-110363294D02*
X99090474Y-110134722D01*
X99090474Y-110134722D02*
X99052378Y-110058532D01*
X99052378Y-110058532D02*
X99014283Y-110020437D01*
X99014283Y-110020437D02*
X98938093Y-109982341D01*
X98938093Y-109982341D02*
X98785712Y-109982341D01*
X98785712Y-109982341D02*
X98709521Y-110020437D01*
D11*
X154000000Y-112500000D03*
X154000000Y-109960000D03*
X154000000Y-115040000D03*
X102500000Y-102500000D03*
X152500000Y-102500000D03*
X102500000Y-132500000D03*
X152500000Y-132500000D03*
M02*
