solid OpenSCAD_Model
  facet normal -1 0 0
    outer loop
      vertex 22 0 27
      vertex 22 8.5 29
      vertex 22 8.5 27
    endloop
  endfacet
  facet normal -1 -0 0
    outer loop
      vertex 22 8.5 29
      vertex 22 0 27
      vertex 22 0 29
    endloop
  endfacet
  facet normal 0 0 -1
    outer loop
      vertex 14 0 29
      vertex 22 8.5 29
      vertex 22 0 29
    endloop
  endfacet
  facet normal -0 0 -1
    outer loop
      vertex 22 8.5 29
      vertex 14 0 29
      vertex 14 8.5 29
    endloop
  endfacet
  facet normal -0 0 1
    outer loop
      vertex 14 8.5 27
      vertex 22 0 27
      vertex 22 8.5 27
    endloop
  endfacet
  facet normal 0 0 1
    outer loop
      vertex 22 0 27
      vertex 14 8.5 27
      vertex 14 0 27
    endloop
  endfacet
  facet normal 1 -0 0
    outer loop
      vertex 14 0 29
      vertex 14 8.5 27
      vertex 14 8.5 29
    endloop
  endfacet
  facet normal 1 0 0
    outer loop
      vertex 14 8.5 27
      vertex 14 0 29
      vertex 14 0 27
    endloop
  endfacet
  facet normal -1 0 0
    outer loop
      vertex 61.3333 0 27
      vertex 61.3333 8.5 29
      vertex 61.3333 8.5 27
    endloop
  endfacet
  facet normal -1 -0 0
    outer loop
      vertex 61.3333 8.5 29
      vertex 61.3333 0 27
      vertex 61.3333 0 29
    endloop
  endfacet
  facet normal 0 0 -1
    outer loop
      vertex 53.3333 0 29
      vertex 61.3333 8.5 29
      vertex 61.3333 0 29
    endloop
  endfacet
  facet normal -0 0 -1
    outer loop
      vertex 61.3333 8.5 29
      vertex 53.3333 0 29
      vertex 53.3333 8.5 29
    endloop
  endfacet
  facet normal -0 0 1
    outer loop
      vertex 53.3333 8.5 27
      vertex 61.3333 0 27
      vertex 61.3333 8.5 27
    endloop
  endfacet
  facet normal 0 0 1
    outer loop
      vertex 61.3333 0 27
      vertex 53.3333 8.5 27
      vertex 53.3333 0 27
    endloop
  endfacet
  facet normal 1 -0 0
    outer loop
      vertex 53.3333 0 29
      vertex 53.3333 8.5 27
      vertex 53.3333 8.5 29
    endloop
  endfacet
  facet normal 1 0 0
    outer loop
      vertex 53.3333 8.5 27
      vertex 53.3333 0 29
      vertex 53.3333 0 27
    endloop
  endfacet
  facet normal -1 0 0
    outer loop
      vertex 100.667 0 27
      vertex 100.667 8.5 29
      vertex 100.667 8.5 27
    endloop
  endfacet
  facet normal -1 -0 0
    outer loop
      vertex 100.667 8.5 29
      vertex 100.667 0 27
      vertex 100.667 0 29
    endloop
  endfacet
  facet normal 0 0 -1
    outer loop
      vertex 92.6667 0 29
      vertex 100.667 8.5 29
      vertex 100.667 0 29
    endloop
  endfacet
  facet normal -0 0 -1
    outer loop
      vertex 100.667 8.5 29
      vertex 92.6667 0 29
      vertex 92.6667 8.5 29
    endloop
  endfacet
  facet normal -0 0 1
    outer loop
      vertex 92.6667 8.5 27
      vertex 100.667 0 27
      vertex 100.667 8.5 27
    endloop
  endfacet
  facet normal 0 0 1
    outer loop
      vertex 100.667 0 27
      vertex 92.6667 8.5 27
      vertex 92.6667 0 27
    endloop
  endfacet
  facet normal 1 -0 0
    outer loop
      vertex 92.6667 0 29
      vertex 92.6667 8.5 27
      vertex 92.6667 8.5 29
    endloop
  endfacet
  facet normal 1 0 0
    outer loop
      vertex 92.6667 8.5 27
      vertex 92.6667 0 29
      vertex 92.6667 0 27
    endloop
  endfacet
  facet normal -1 0 0
    outer loop
      vertex 140 0 27
      vertex 140 8.5 29
      vertex 140 8.5 27
    endloop
  endfacet
  facet normal -1 -0 0
    outer loop
      vertex 140 8.5 29
      vertex 140 0 27
      vertex 140 0 29
    endloop
  endfacet
  facet normal 0 0 -1
    outer loop
      vertex 132 0 29
      vertex 140 8.5 29
      vertex 140 0 29
    endloop
  endfacet
  facet normal -0 0 -1
    outer loop
      vertex 140 8.5 29
      vertex 132 0 29
      vertex 132 8.5 29
    endloop
  endfacet
  facet normal -0 0 1
    outer loop
      vertex 132 8.5 27
      vertex 140 0 27
      vertex 140 8.5 27
    endloop
  endfacet
  facet normal 0 0 1
    outer loop
      vertex 140 0 27
      vertex 132 8.5 27
      vertex 132 0 27
    endloop
  endfacet
  facet normal 1 -0 0
    outer loop
      vertex 132 0 29
      vertex 132 8.5 27
      vertex 132 8.5 29
    endloop
  endfacet
  facet normal 1 0 0
    outer loop
      vertex 132 8.5 27
      vertex 132 0 29
      vertex 132 0 27
    endloop
  endfacet
  facet normal 1 0 0
    outer loop
      vertex 154 0 9.75
      vertex 154 11.5 24
      vertex 154 0 52.25
    endloop
  endfacet
  facet normal 1 0 0
    outer loop
      vertex 154 11.5 24
      vertex 154 0 9.75
      vertex 154 6.5 9.75
    endloop
  endfacet
  facet normal 1 0 0
    outer loop
      vertex 154 49.5 62
      vertex 154 21.5 38
      vertex 154 49.5 0
    endloop
  endfacet
  facet normal 1 -0 0
    outer loop
      vertex 154 6.5 55.75
      vertex 154 21.5 38
      vertex 154 49.5 62
    endloop
  endfacet
  facet normal 1 0 0
    outer loop
      vertex 154 21.5 38
      vertex 154 6.5 52.25
      vertex 154 11.5 38
    endloop
  endfacet
  facet normal 1 0 0
    outer loop
      vertex 154 21.5 38
      vertex 154 6.5 55.75
      vertex 154 6.5 52.25
    endloop
  endfacet
  facet normal 1 -0 0
    outer loop
      vertex 154 0 62
      vertex 154 6.5 55.75
      vertex 154 49.5 62
    endloop
  endfacet
  facet normal 1 0 0
    outer loop
      vertex 154 6.5 55.75
      vertex 154 0 62
      vertex 154 0 55.75
    endloop
  endfacet
  facet normal 1 -0 0
    outer loop
      vertex 154 21.5 24
      vertex 154 49.5 0
      vertex 154 21.5 38
    endloop
  endfacet
  facet normal 1 0 0
    outer loop
      vertex 154 6.5 9.75
      vertex 154 21.5 24
      vertex 154 11.5 24
    endloop
  endfacet
  facet normal 1 -0 0
    outer loop
      vertex 154 0 52.25
      vertex 154 11.5 38
      vertex 154 6.5 52.25
    endloop
  endfacet
  facet normal 1 0 0
    outer loop
      vertex 154 11.5 38
      vertex 154 0 52.25
      vertex 154 11.5 24
    endloop
  endfacet
  facet normal 1 0 0
    outer loop
      vertex 154 6.5 6.25
      vertex 154 21.5 24
      vertex 154 6.5 9.75
    endloop
  endfacet
  facet normal 1 0 0
    outer loop
      vertex 154 21.5 24
      vertex 154 6.5 6.25
      vertex 154 49.5 0
    endloop
  endfacet
  facet normal 1 0 0
    outer loop
      vertex 154 0 0
      vertex 154 6.5 6.25
      vertex 154 0 6.25
    endloop
  endfacet
  facet normal 1 0 0
    outer loop
      vertex 154 6.5 6.25
      vertex 154 0 0
      vertex 154 49.5 0
    endloop
  endfacet
  facet normal 0 0 1
    outer loop
      vertex 154 49.5 62
      vertex 103.667 31.5 62
      vertex 154 0 62
    endloop
  endfacet
  facet normal 0 0 1
    outer loop
      vertex 154 49.5 62
      vertex 99.6667 31.5 62
      vertex 103.667 31.5 62
    endloop
  endfacet
  facet normal 0 0 1
    outer loop
      vertex 99.6667 31.5 62
      vertex 54.3333 31.5 62
      vertex 99.6667 11.5 62
    endloop
  endfacet
  facet normal 0 0 1
    outer loop
      vertex 154 49.5 62
      vertex 54.3333 31.5 62
      vertex 99.6667 31.5 62
    endloop
  endfacet
  facet normal -0 0 1
    outer loop
      vertex 0 49.5 62
      vertex 54.3333 31.5 62
      vertex 154 49.5 62
    endloop
  endfacet
  facet normal 0 0 1
    outer loop
      vertex 0 0 62
      vertex 50.3333 31.5 62
      vertex 0 49.5 62
    endloop
  endfacet
  facet normal 0 0 1
    outer loop
      vertex 54.3333 31.5 62
      vertex 0 49.5 62
      vertex 50.3333 31.5 62
    endloop
  endfacet
  facet normal -0 0 1
    outer loop
      vertex 103.667 11.5 62
      vertex 154 0 62
      vertex 103.667 31.5 62
    endloop
  endfacet
  facet normal -0 0 1
    outer loop
      vertex 99.6667 11.5 62
      vertex 154 0 62
      vertex 103.667 11.5 62
    endloop
  endfacet
  facet normal 0 0 1
    outer loop
      vertex 54.3333 11.5 62
      vertex 99.6667 11.5 62
      vertex 54.3333 31.5 62
    endloop
  endfacet
  facet normal -0 0 1
    outer loop
      vertex 54.3333 11.5 62
      vertex 154 0 62
      vertex 99.6667 11.5 62
    endloop
  endfacet
  facet normal 0 0 1
    outer loop
      vertex 0 0 62
      vertex 54.3333 11.5 62
      vertex 50.3333 11.5 62
    endloop
  endfacet
  facet normal 0 0 1
    outer loop
      vertex 54.3333 11.5 62
      vertex 0 0 62
      vertex 154 0 62
    endloop
  endfacet
  facet normal 0 0 1
    outer loop
      vertex 50.3333 31.5 62
      vertex 0 0 62
      vertex 50.3333 11.5 62
    endloop
  endfacet
  facet normal 0 0 -1
    outer loop
      vertex 103.667 31.5 0
      vertex 154 0 0
      vertex 103.667 11.5 0
    endloop
  endfacet
  facet normal 0 0 -1
    outer loop
      vertex 154 0 0
      vertex 99.6667 11.5 0
      vertex 103.667 11.5 0
    endloop
  endfacet
  facet normal 0 0 -1
    outer loop
      vertex 99.6667 11.5 0
      vertex 54.3333 11.5 0
      vertex 99.6667 31.5 0
    endloop
  endfacet
  facet normal 0 0 -1
    outer loop
      vertex 154 0 0
      vertex 54.3333 11.5 0
      vertex 99.6667 11.5 0
    endloop
  endfacet
  facet normal 0 0 -1
    outer loop
      vertex 0 0 0
      vertex 54.3333 11.5 0
      vertex 154 0 0
    endloop
  endfacet
  facet normal -0 0 -1
    outer loop
      vertex 50.3333 11.5 0
      vertex 0 0 0
      vertex 50.3333 31.5 0
    endloop
  endfacet
  facet normal -0 0 -1
    outer loop
      vertex 54.3333 11.5 0
      vertex 0 0 0
      vertex 50.3333 11.5 0
    endloop
  endfacet
  facet normal 0 0 -1
    outer loop
      vertex 154 0 0
      vertex 103.667 31.5 0
      vertex 154 49.5 0
    endloop
  endfacet
  facet normal 0 0 -1
    outer loop
      vertex 99.6667 31.5 0
      vertex 154 49.5 0
      vertex 103.667 31.5 0
    endloop
  endfacet
  facet normal 0 0 -1
    outer loop
      vertex 54.3333 31.5 0
      vertex 99.6667 31.5 0
      vertex 54.3333 11.5 0
    endloop
  endfacet
  facet normal 0 0 -1
    outer loop
      vertex 54.3333 31.5 0
      vertex 154 49.5 0
      vertex 99.6667 31.5 0
    endloop
  endfacet
  facet normal 0 0 -1
    outer loop
      vertex 0 49.5 0
      vertex 54.3333 31.5 0
      vertex 50.3333 31.5 0
    endloop
  endfacet
  facet normal 0 0 -1
    outer loop
      vertex 54.3333 31.5 0
      vertex 0 49.5 0
      vertex 154 49.5 0
    endloop
  endfacet
  facet normal 0 0 -1
    outer loop
      vertex 0 49.5 0
      vertex 50.3333 31.5 0
      vertex 0 0 0
    endloop
  endfacet
  facet normal -1 0 0
    outer loop
      vertex 0 0 9.75
      vertex 0 6.5 52.25
      vertex 0 6.5 9.75
    endloop
  endfacet
  facet normal -1 -0 0
    outer loop
      vertex 0 6.5 52.25
      vertex 0 0 9.75
      vertex 0 0 52.25
    endloop
  endfacet
  facet normal -1 0 0
    outer loop
      vertex 0 6.5 9.75
      vertex 0 49.5 0
      vertex 0 6.5 6.25
    endloop
  endfacet
  facet normal -1 0 0
    outer loop
      vertex 0 0 0
      vertex 0 6.5 6.25
      vertex 0 49.5 0
    endloop
  endfacet
  facet normal -1 -0 0
    outer loop
      vertex 0 6.5 6.25
      vertex 0 0 0
      vertex 0 0 6.25
    endloop
  endfacet
  facet normal -1 0 0
    outer loop
      vertex 0 49.5 0
      vertex 0 6.5 9.75
      vertex 0 49.5 62
    endloop
  endfacet
  facet normal -1 0 0
    outer loop
      vertex 0 6.5 52.25
      vertex 0 49.5 62
      vertex 0 6.5 9.75
    endloop
  endfacet
  facet normal -1 0 0
    outer loop
      vertex 0 6.5 55.75
      vertex 0 49.5 62
      vertex 0 6.5 52.25
    endloop
  endfacet
  facet normal -1 0 0
    outer loop
      vertex 0 0 62
      vertex 0 6.5 55.75
      vertex 0 0 55.75
    endloop
  endfacet
  facet normal -1 0 0
    outer loop
      vertex 0 6.5 55.75
      vertex 0 0 62
      vertex 0 49.5 62
    endloop
  endfacet
  facet normal 0 1 0
    outer loop
      vertex 7 49.5 59
      vertex 154 49.5 62
      vertex 151 49.5 59
    endloop
  endfacet
  facet normal 0 1 0
    outer loop
      vertex 154 49.5 62
      vertex 151 49.5 3
      vertex 151 49.5 59
    endloop
  endfacet
  facet normal 0 1 0
    outer loop
      vertex 154 49.5 0
      vertex 7 49.5 3
      vertex 151 49.5 3
    endloop
  endfacet
  facet normal 0 1 0
    outer loop
      vertex 0 49.5 0
      vertex 7 49.5 3
      vertex 154 49.5 0
    endloop
  endfacet
  facet normal 0 1 -0
    outer loop
      vertex 154 49.5 0
      vertex 151 49.5 3
      vertex 154 49.5 62
    endloop
  endfacet
  facet normal 0 1 0
    outer loop
      vertex 154 49.5 62
      vertex 7 49.5 59
      vertex 0 49.5 62
    endloop
  endfacet
  facet normal 0 1 -0
    outer loop
      vertex 3 49.5 59
      vertex 0 49.5 62
      vertex 7 49.5 59
    endloop
  endfacet
  facet normal 0 1 -0
    outer loop
      vertex 3 49.5 3
      vertex 0 49.5 62
      vertex 3 49.5 59
    endloop
  endfacet
  facet normal 0 1 0
    outer loop
      vertex 3 49.5 3
      vertex 0 49.5 0
      vertex 0 49.5 62
    endloop
  endfacet
  facet normal 0 1 0
    outer loop
      vertex 7 49.5 3
      vertex 0 49.5 0
      vertex 3 49.5 3
    endloop
  endfacet
  facet normal 0 -1 0
    outer loop
      vertex 0 0 55.75
      vertex 154 0 62
      vertex 0 0 62
    endloop
  endfacet
  facet normal 0 -1 -0
    outer loop
      vertex 154 0 62
      vertex 0 0 55.75
      vertex 154 0 55.75
    endloop
  endfacet
  facet normal 0 -1 0
    outer loop
      vertex 0 0 0
      vertex 154 0 6.25
      vertex 0 0 6.25
    endloop
  endfacet
  facet normal 0 -1 -0
    outer loop
      vertex 154 0 6.25
      vertex 0 0 0
      vertex 154 0 0
    endloop
  endfacet
  facet normal 0 -1 0
    outer loop
      vertex 100.667 0 27
      vertex 132 0 29
      vertex 100.667 0 29
    endloop
  endfacet
  facet normal 0 -1 -0
    outer loop
      vertex 132 0 29
      vertex 100.667 0 27
      vertex 132 0 27
    endloop
  endfacet
  facet normal 0 -1 0
    outer loop
      vertex 61.3333 0 27
      vertex 92.6667 0 29
      vertex 61.3333 0 29
    endloop
  endfacet
  facet normal 0 -1 -0
    outer loop
      vertex 92.6667 0 29
      vertex 61.3333 0 27
      vertex 92.6667 0 27
    endloop
  endfacet
  facet normal 0 -1 0
    outer loop
      vertex 22 0 27
      vertex 53.3333 0 29
      vertex 22 0 29
    endloop
  endfacet
  facet normal 0 -1 -0
    outer loop
      vertex 53.3333 0 29
      vertex 22 0 27
      vertex 53.3333 0 27
    endloop
  endfacet
  facet normal 0 -1 0
    outer loop
      vertex 22 0 29
      vertex 0 0 52.25
      vertex 14 0 29
    endloop
  endfacet
  facet normal 0 -1 0
    outer loop
      vertex 0 0 9.75
      vertex 14 0 29
      vertex 0 0 52.25
    endloop
  endfacet
  facet normal 0 -1 0
    outer loop
      vertex 0 0 9.75
      vertex 22 0 27
      vertex 14 0 27
    endloop
  endfacet
  facet normal 0 -1 -0
    outer loop
      vertex 22 0 27
      vertex 0 0 9.75
      vertex 53.3333 0 27
    endloop
  endfacet
  facet normal 0 -1 -0
    outer loop
      vertex 53.3333 0 27
      vertex 0 0 9.75
      vertex 61.3333 0 27
    endloop
  endfacet
  facet normal 0 -1 -0
    outer loop
      vertex 61.3333 0 27
      vertex 0 0 9.75
      vertex 92.6667 0 27
    endloop
  endfacet
  facet normal 0 -1 0
    outer loop
      vertex 154 0 9.75
      vertex 92.6667 0 27
      vertex 0 0 9.75
    endloop
  endfacet
  facet normal 0 -1 0
    outer loop
      vertex 92.6667 0 27
      vertex 154 0 9.75
      vertex 100.667 0 27
    endloop
  endfacet
  facet normal 0 -1 0
    outer loop
      vertex 100.667 0 27
      vertex 154 0 9.75
      vertex 132 0 27
    endloop
  endfacet
  facet normal 0 -1 -0
    outer loop
      vertex 14 0 29
      vertex 0 0 9.75
      vertex 14 0 27
    endloop
  endfacet
  facet normal 0 -1 0
    outer loop
      vertex 53.3333 0 29
      vertex 0 0 52.25
      vertex 22 0 29
    endloop
  endfacet
  facet normal 0 -1 0
    outer loop
      vertex 61.3333 0 29
      vertex 0 0 52.25
      vertex 53.3333 0 29
    endloop
  endfacet
  facet normal 0 -1 0
    outer loop
      vertex 0 0 52.25
      vertex 61.3333 0 29
      vertex 154 0 52.25
    endloop
  endfacet
  facet normal 0 -1 0
    outer loop
      vertex 92.6667 0 29
      vertex 154 0 52.25
      vertex 61.3333 0 29
    endloop
  endfacet
  facet normal 0 -1 0
    outer loop
      vertex 100.667 0 29
      vertex 154 0 52.25
      vertex 92.6667 0 29
    endloop
  endfacet
  facet normal 0 -1 0
    outer loop
      vertex 132 0 29
      vertex 154 0 52.25
      vertex 100.667 0 29
    endloop
  endfacet
  facet normal 0 -1 0
    outer loop
      vertex 140 0 29
      vertex 154 0 52.25
      vertex 132 0 29
    endloop
  endfacet
  facet normal 0 -1 0
    outer loop
      vertex 154 0 9.75
      vertex 140 0 29
      vertex 140 0 27
    endloop
  endfacet
  facet normal 0 -1 0
    outer loop
      vertex 140 0 29
      vertex 154 0 9.75
      vertex 154 0 52.25
    endloop
  endfacet
  facet normal 0 -1 0
    outer loop
      vertex 132 0 27
      vertex 154 0 9.75
      vertex 140 0 27
    endloop
  endfacet
  facet normal -1 0 0
    outer loop
      vertex 151 49.5 3
      vertex 151 21.5 24
      vertex 151 49.5 59
    endloop
  endfacet
  facet normal -1 0 0
    outer loop
      vertex 151 8.5 3
      vertex 151 21.5 24
      vertex 151 49.5 3
    endloop
  endfacet
  facet normal -1 -0 0
    outer loop
      vertex 151 11.5 24
      vertex 151 8.5 3
      vertex 151 11.5 38
    endloop
  endfacet
  facet normal -1 -0 0
    outer loop
      vertex 151 21.5 24
      vertex 151 8.5 3
      vertex 151 11.5 24
    endloop
  endfacet
  facet normal -1 0 0
    outer loop
      vertex 151 21.5 38
      vertex 151 49.5 59
      vertex 151 21.5 24
    endloop
  endfacet
  facet normal -1 0 0
    outer loop
      vertex 151 8.5 59
      vertex 151 21.5 38
      vertex 151 11.5 38
    endloop
  endfacet
  facet normal -1 0 0
    outer loop
      vertex 151 21.5 38
      vertex 151 8.5 59
      vertex 151 49.5 59
    endloop
  endfacet
  facet normal -1 0 0
    outer loop
      vertex 151 8.5 59
      vertex 151 11.5 38
      vertex 151 8.5 3
    endloop
  endfacet
  facet normal -0 0 1
    outer loop
      vertex 3 51.5 59
      vertex 7 49.5 59
      vertex 7 51.5 59
    endloop
  endfacet
  facet normal 0 0 1
    outer loop
      vertex 7 49.5 59
      vertex 3 51.5 59
      vertex 3 49.5 59
    endloop
  endfacet
  facet normal 0 0 -1
    outer loop
      vertex 103.667 31.5 59
      vertex 151 8.5 59
      vertex 103.667 11.5 59
    endloop
  endfacet
  facet normal 0 0 -1
    outer loop
      vertex 151 8.5 59
      vertex 99.6667 11.5 59
      vertex 103.667 11.5 59
    endloop
  endfacet
  facet normal 0 0 -1
    outer loop
      vertex 99.6667 11.5 59
      vertex 54.3333 11.5 59
      vertex 99.6667 31.5 59
    endloop
  endfacet
  facet normal 0 0 -1
    outer loop
      vertex 151 8.5 59
      vertex 54.3333 11.5 59
      vertex 99.6667 11.5 59
    endloop
  endfacet
  facet normal 0 0 -1
    outer loop
      vertex 7 8.5 59
      vertex 54.3333 11.5 59
      vertex 151 8.5 59
    endloop
  endfacet
  facet normal -0 0 -1
    outer loop
      vertex 50.3333 11.5 59
      vertex 7 8.5 59
      vertex 50.3333 31.5 59
    endloop
  endfacet
  facet normal -0 0 -1
    outer loop
      vertex 54.3333 11.5 59
      vertex 7 8.5 59
      vertex 50.3333 11.5 59
    endloop
  endfacet
  facet normal 0 0 -1
    outer loop
      vertex 151 8.5 59
      vertex 103.667 31.5 59
      vertex 151 49.5 59
    endloop
  endfacet
  facet normal 0 0 -1
    outer loop
      vertex 99.6667 31.5 59
      vertex 151 49.5 59
      vertex 103.667 31.5 59
    endloop
  endfacet
  facet normal 0 0 -1
    outer loop
      vertex 54.3333 31.5 59
      vertex 99.6667 31.5 59
      vertex 54.3333 11.5 59
    endloop
  endfacet
  facet normal 0 0 -1
    outer loop
      vertex 7 49.5 59
      vertex 99.6667 31.5 59
      vertex 54.3333 31.5 59
    endloop
  endfacet
  facet normal 0 0 -1
    outer loop
      vertex 7 49.5 59
      vertex 54.3333 31.5 59
      vertex 50.3333 31.5 59
    endloop
  endfacet
  facet normal 0 0 -1
    outer loop
      vertex 99.6667 31.5 59
      vertex 7 49.5 59
      vertex 151 49.5 59
    endloop
  endfacet
  facet normal 0 0 -1
    outer loop
      vertex 7 49.5 59
      vertex 50.3333 31.5 59
      vertex 7 8.5 59
    endloop
  endfacet
  facet normal 0 0 -1
    outer loop
      vertex 3 49.5 3
      vertex 7 51.5 3
      vertex 7 49.5 3
    endloop
  endfacet
  facet normal -0 0 -1
    outer loop
      vertex 7 51.5 3
      vertex 3 49.5 3
      vertex 3 51.5 3
    endloop
  endfacet
  facet normal 0 0 1
    outer loop
      vertex 151 49.5 3
      vertex 103.667 31.5 3
      vertex 151 8.5 3
    endloop
  endfacet
  facet normal 0 0 1
    outer loop
      vertex 151 49.5 3
      vertex 99.6667 31.5 3
      vertex 103.667 31.5 3
    endloop
  endfacet
  facet normal 0 0 1
    outer loop
      vertex 99.6667 31.5 3
      vertex 54.3333 31.5 3
      vertex 99.6667 11.5 3
    endloop
  endfacet
  facet normal -0 0 1
    outer loop
      vertex 7 49.5 3
      vertex 99.6667 31.5 3
      vertex 151 49.5 3
    endloop
  endfacet
  facet normal 0 0 1
    outer loop
      vertex 99.6667 31.5 3
      vertex 7 49.5 3
      vertex 54.3333 31.5 3
    endloop
  endfacet
  facet normal 0 0 1
    outer loop
      vertex 7 8.5 3
      vertex 50.3333 31.5 3
      vertex 7 49.5 3
    endloop
  endfacet
  facet normal 0 0 1
    outer loop
      vertex 54.3333 31.5 3
      vertex 7 49.5 3
      vertex 50.3333 31.5 3
    endloop
  endfacet
  facet normal -0 0 1
    outer loop
      vertex 103.667 11.5 3
      vertex 151 8.5 3
      vertex 103.667 31.5 3
    endloop
  endfacet
  facet normal -0 0 1
    outer loop
      vertex 99.6667 11.5 3
      vertex 151 8.5 3
      vertex 103.667 11.5 3
    endloop
  endfacet
  facet normal 0 0 1
    outer loop
      vertex 54.3333 11.5 3
      vertex 99.6667 11.5 3
      vertex 54.3333 31.5 3
    endloop
  endfacet
  facet normal -0 0 1
    outer loop
      vertex 54.3333 11.5 3
      vertex 151 8.5 3
      vertex 99.6667 11.5 3
    endloop
  endfacet
  facet normal 0 0 1
    outer loop
      vertex 7 8.5 3
      vertex 54.3333 11.5 3
      vertex 50.3333 11.5 3
    endloop
  endfacet
  facet normal 0 0 1
    outer loop
      vertex 54.3333 11.5 3
      vertex 7 8.5 3
      vertex 151 8.5 3
    endloop
  endfacet
  facet normal 0 0 1
    outer loop
      vertex 50.3333 31.5 3
      vertex 7 8.5 3
      vertex 50.3333 11.5 3
    endloop
  endfacet
  facet normal -1 0 0
    outer loop
      vertex 3 49.5 3
      vertex 3 51.5 59
      vertex 3 51.5 3
    endloop
  endfacet
  facet normal -1 -0 0
    outer loop
      vertex 3 51.5 59
      vertex 3 49.5 3
      vertex 3 49.5 59
    endloop
  endfacet
  facet normal 0 1 -0
    outer loop
      vertex 53.3333 8.5 27
      vertex 22 8.5 29
      vertex 53.3333 8.5 29
    endloop
  endfacet
  facet normal 0 1 0
    outer loop
      vertex 22 8.5 29
      vertex 53.3333 8.5 27
      vertex 22 8.5 27
    endloop
  endfacet
  facet normal 0 1 -0
    outer loop
      vertex 92.6667 8.5 27
      vertex 61.3333 8.5 29
      vertex 92.6667 8.5 29
    endloop
  endfacet
  facet normal 0 1 0
    outer loop
      vertex 61.3333 8.5 29
      vertex 92.6667 8.5 27
      vertex 61.3333 8.5 27
    endloop
  endfacet
  facet normal 0 1 -0
    outer loop
      vertex 132 8.5 27
      vertex 100.667 8.5 29
      vertex 132 8.5 29
    endloop
  endfacet
  facet normal 0 1 0
    outer loop
      vertex 100.667 8.5 29
      vertex 132 8.5 27
      vertex 100.667 8.5 27
    endloop
  endfacet
  facet normal 0 1 0
    outer loop
      vertex 132 8.5 29
      vertex 151 8.5 59
      vertex 140 8.5 29
    endloop
  endfacet
  facet normal 0 1 -0
    outer loop
      vertex 151 8.5 3
      vertex 140 8.5 29
      vertex 151 8.5 59
    endloop
  endfacet
  facet normal 0 1 0
    outer loop
      vertex 151 8.5 3
      vertex 132 8.5 27
      vertex 140 8.5 27
    endloop
  endfacet
  facet normal 0 1 0
    outer loop
      vertex 132 8.5 27
      vertex 151 8.5 3
      vertex 100.667 8.5 27
    endloop
  endfacet
  facet normal 0 1 0
    outer loop
      vertex 100.667 8.5 27
      vertex 151 8.5 3
      vertex 92.6667 8.5 27
    endloop
  endfacet
  facet normal 0 1 0
    outer loop
      vertex 7 8.5 3
      vertex 92.6667 8.5 27
      vertex 151 8.5 3
    endloop
  endfacet
  facet normal 0 1 0
    outer loop
      vertex 92.6667 8.5 27
      vertex 7 8.5 3
      vertex 61.3333 8.5 27
    endloop
  endfacet
  facet normal 0 1 0
    outer loop
      vertex 61.3333 8.5 27
      vertex 7 8.5 3
      vertex 53.3333 8.5 27
    endloop
  endfacet
  facet normal 0 1 0
    outer loop
      vertex 53.3333 8.5 27
      vertex 7 8.5 3
      vertex 22 8.5 27
    endloop
  endfacet
  facet normal 0 1 0
    outer loop
      vertex 140 8.5 29
      vertex 151 8.5 3
      vertex 140 8.5 27
    endloop
  endfacet
  facet normal 0 1 0
    outer loop
      vertex 100.667 8.5 29
      vertex 151 8.5 59
      vertex 132 8.5 29
    endloop
  endfacet
  facet normal 0 1 0
    outer loop
      vertex 92.6667 8.5 29
      vertex 151 8.5 59
      vertex 100.667 8.5 29
    endloop
  endfacet
  facet normal 0 1 0
    outer loop
      vertex 151 8.5 59
      vertex 92.6667 8.5 29
      vertex 7 8.5 59
    endloop
  endfacet
  facet normal 0 1 -0
    outer loop
      vertex 61.3333 8.5 29
      vertex 7 8.5 59
      vertex 92.6667 8.5 29
    endloop
  endfacet
  facet normal 0 1 -0
    outer loop
      vertex 53.3333 8.5 29
      vertex 7 8.5 59
      vertex 61.3333 8.5 29
    endloop
  endfacet
  facet normal 0 1 -0
    outer loop
      vertex 22 8.5 29
      vertex 7 8.5 59
      vertex 53.3333 8.5 29
    endloop
  endfacet
  facet normal 0 1 -0
    outer loop
      vertex 14 8.5 29
      vertex 7 8.5 59
      vertex 22 8.5 29
    endloop
  endfacet
  facet normal 0 1 0
    outer loop
      vertex 7 8.5 3
      vertex 14 8.5 29
      vertex 14 8.5 27
    endloop
  endfacet
  facet normal 0 1 0
    outer loop
      vertex 14 8.5 29
      vertex 7 8.5 3
      vertex 7 8.5 59
    endloop
  endfacet
  facet normal 0 1 0
    outer loop
      vertex 22 8.5 27
      vertex 7 8.5 3
      vertex 14 8.5 27
    endloop
  endfacet
  facet normal 0 0 -1
    outer loop
      vertex 151 11.5 38
      vertex 154 21.5 38
      vertex 154 11.5 38
    endloop
  endfacet
  facet normal -0 0 -1
    outer loop
      vertex 154 21.5 38
      vertex 151 11.5 38
      vertex 151 21.5 38
    endloop
  endfacet
  facet normal -0 0 1
    outer loop
      vertex 151 21.5 24
      vertex 154 11.5 24
      vertex 154 21.5 24
    endloop
  endfacet
  facet normal 0 0 1
    outer loop
      vertex 154 11.5 24
      vertex 151 21.5 24
      vertex 151 11.5 24
    endloop
  endfacet
  facet normal 0 -1 0
    outer loop
      vertex 151 21.5 24
      vertex 154 21.5 38
      vertex 151 21.5 38
    endloop
  endfacet
  facet normal 0 -1 -0
    outer loop
      vertex 154 21.5 38
      vertex 151 21.5 24
      vertex 154 21.5 24
    endloop
  endfacet
  facet normal 0 1 -0
    outer loop
      vertex 154 11.5 24
      vertex 151 11.5 38
      vertex 154 11.5 38
    endloop
  endfacet
  facet normal 0 1 0
    outer loop
      vertex 151 11.5 38
      vertex 154 11.5 24
      vertex 151 11.5 24
    endloop
  endfacet
  facet normal 0 0 -1
    outer loop
      vertex 0 0 9.75
      vertex 154 6.5 9.75
      vertex 154 0 9.75
    endloop
  endfacet
  facet normal -0 0 -1
    outer loop
      vertex 154 6.5 9.75
      vertex 0 0 9.75
      vertex 0 6.5 9.75
    endloop
  endfacet
  facet normal -0 0 1
    outer loop
      vertex 0 6.5 6.25
      vertex 154 0 6.25
      vertex 154 6.5 6.25
    endloop
  endfacet
  facet normal 0 0 1
    outer loop
      vertex 154 0 6.25
      vertex 0 6.5 6.25
      vertex 0 0 6.25
    endloop
  endfacet
  facet normal 0 -1 0
    outer loop
      vertex 0 6.5 6.25
      vertex 154 6.5 9.75
      vertex 0 6.5 9.75
    endloop
  endfacet
  facet normal 0 -1 -0
    outer loop
      vertex 154 6.5 9.75
      vertex 0 6.5 6.25
      vertex 154 6.5 6.25
    endloop
  endfacet
  facet normal 0 0 -1
    outer loop
      vertex 0 0 55.75
      vertex 154 6.5 55.75
      vertex 154 0 55.75
    endloop
  endfacet
  facet normal -0 0 -1
    outer loop
      vertex 154 6.5 55.75
      vertex 0 0 55.75
      vertex 0 6.5 55.75
    endloop
  endfacet
  facet normal -0 0 1
    outer loop
      vertex 0 6.5 52.25
      vertex 154 0 52.25
      vertex 154 6.5 52.25
    endloop
  endfacet
  facet normal 0 0 1
    outer loop
      vertex 154 0 52.25
      vertex 0 6.5 52.25
      vertex 0 0 52.25
    endloop
  endfacet
  facet normal 0 -1 0
    outer loop
      vertex 0 6.5 52.25
      vertex 154 6.5 55.75
      vertex 0 6.5 55.75
    endloop
  endfacet
  facet normal 0 -1 -0
    outer loop
      vertex 154 6.5 55.75
      vertex 0 6.5 52.25
      vertex 154 6.5 52.25
    endloop
  endfacet
  facet normal -1 0 0
    outer loop
      vertex 54.3333 11.5 0
      vertex 54.3333 31.5 3
      vertex 54.3333 31.5 0
    endloop
  endfacet
  facet normal -1 -0 0
    outer loop
      vertex 54.3333 31.5 3
      vertex 54.3333 11.5 0
      vertex 54.3333 11.5 3
    endloop
  endfacet
  facet normal 1 -0 0
    outer loop
      vertex 50.3333 11.5 3
      vertex 50.3333 31.5 0
      vertex 50.3333 31.5 3
    endloop
  endfacet
  facet normal 1 0 0
    outer loop
      vertex 50.3333 31.5 0
      vertex 50.3333 11.5 3
      vertex 50.3333 11.5 0
    endloop
  endfacet
  facet normal 0 -1 0
    outer loop
      vertex 50.3333 31.5 0
      vertex 54.3333 31.5 3
      vertex 50.3333 31.5 3
    endloop
  endfacet
  facet normal 0 -1 -0
    outer loop
      vertex 54.3333 31.5 3
      vertex 50.3333 31.5 0
      vertex 54.3333 31.5 0
    endloop
  endfacet
  facet normal 0 1 -0
    outer loop
      vertex 54.3333 11.5 0
      vertex 50.3333 11.5 3
      vertex 54.3333 11.5 3
    endloop
  endfacet
  facet normal 0 1 0
    outer loop
      vertex 50.3333 11.5 3
      vertex 54.3333 11.5 0
      vertex 50.3333 11.5 0
    endloop
  endfacet
  facet normal -1 0 0
    outer loop
      vertex 103.667 11.5 0
      vertex 103.667 31.5 3
      vertex 103.667 31.5 0
    endloop
  endfacet
  facet normal -1 -0 0
    outer loop
      vertex 103.667 31.5 3
      vertex 103.667 11.5 0
      vertex 103.667 11.5 3
    endloop
  endfacet
  facet normal 1 -0 0
    outer loop
      vertex 99.6667 11.5 3
      vertex 99.6667 31.5 0
      vertex 99.6667 31.5 3
    endloop
  endfacet
  facet normal 1 0 0
    outer loop
      vertex 99.6667 31.5 0
      vertex 99.6667 11.5 3
      vertex 99.6667 11.5 0
    endloop
  endfacet
  facet normal 0 -1 0
    outer loop
      vertex 99.6667 31.5 0
      vertex 103.667 31.5 3
      vertex 99.6667 31.5 3
    endloop
  endfacet
  facet normal 0 -1 -0
    outer loop
      vertex 103.667 31.5 3
      vertex 99.6667 31.5 0
      vertex 103.667 31.5 0
    endloop
  endfacet
  facet normal 0 1 -0
    outer loop
      vertex 103.667 11.5 0
      vertex 99.6667 11.5 3
      vertex 103.667 11.5 3
    endloop
  endfacet
  facet normal 0 1 0
    outer loop
      vertex 99.6667 11.5 3
      vertex 103.667 11.5 0
      vertex 99.6667 11.5 0
    endloop
  endfacet
  facet normal -1 0 0
    outer loop
      vertex 54.3333 11.5 59
      vertex 54.3333 31.5 62
      vertex 54.3333 31.5 59
    endloop
  endfacet
  facet normal -1 -0 0
    outer loop
      vertex 54.3333 31.5 62
      vertex 54.3333 11.5 59
      vertex 54.3333 11.5 62
    endloop
  endfacet
  facet normal 1 -0 0
    outer loop
      vertex 50.3333 11.5 62
      vertex 50.3333 31.5 59
      vertex 50.3333 31.5 62
    endloop
  endfacet
  facet normal 1 0 0
    outer loop
      vertex 50.3333 31.5 59
      vertex 50.3333 11.5 62
      vertex 50.3333 11.5 59
    endloop
  endfacet
  facet normal 0 -1 0
    outer loop
      vertex 50.3333 31.5 59
      vertex 54.3333 31.5 62
      vertex 50.3333 31.5 62
    endloop
  endfacet
  facet normal 0 -1 -0
    outer loop
      vertex 54.3333 31.5 62
      vertex 50.3333 31.5 59
      vertex 54.3333 31.5 59
    endloop
  endfacet
  facet normal 0 1 -0
    outer loop
      vertex 54.3333 11.5 59
      vertex 50.3333 11.5 62
      vertex 54.3333 11.5 62
    endloop
  endfacet
  facet normal 0 1 0
    outer loop
      vertex 50.3333 11.5 62
      vertex 54.3333 11.5 59
      vertex 50.3333 11.5 59
    endloop
  endfacet
  facet normal -1 0 0
    outer loop
      vertex 103.667 11.5 59
      vertex 103.667 31.5 62
      vertex 103.667 31.5 59
    endloop
  endfacet
  facet normal -1 -0 0
    outer loop
      vertex 103.667 31.5 62
      vertex 103.667 11.5 59
      vertex 103.667 11.5 62
    endloop
  endfacet
  facet normal 1 -0 0
    outer loop
      vertex 99.6667 11.5 62
      vertex 99.6667 31.5 59
      vertex 99.6667 31.5 62
    endloop
  endfacet
  facet normal 1 0 0
    outer loop
      vertex 99.6667 31.5 59
      vertex 99.6667 11.5 62
      vertex 99.6667 11.5 59
    endloop
  endfacet
  facet normal 0 -1 0
    outer loop
      vertex 99.6667 31.5 59
      vertex 103.667 31.5 62
      vertex 99.6667 31.5 62
    endloop
  endfacet
  facet normal 0 -1 -0
    outer loop
      vertex 103.667 31.5 62
      vertex 99.6667 31.5 59
      vertex 103.667 31.5 59
    endloop
  endfacet
  facet normal 0 1 -0
    outer loop
      vertex 103.667 11.5 59
      vertex 99.6667 11.5 62
      vertex 103.667 11.5 62
    endloop
  endfacet
  facet normal 0 1 0
    outer loop
      vertex 99.6667 11.5 62
      vertex 103.667 11.5 59
      vertex 99.6667 11.5 59
    endloop
  endfacet
  facet normal 1 -0 0
    outer loop
      vertex 7 49.5 59
      vertex 7 51.5 3
      vertex 7 51.5 59
    endloop
  endfacet
  facet normal 1 0 0
    outer loop
      vertex 7 49.5 59
      vertex 7 49.5 3
      vertex 7 51.5 3
    endloop
  endfacet
  facet normal 1 -0 0
    outer loop
      vertex 7 8.5 59
      vertex 7 49.5 3
      vertex 7 49.5 59
    endloop
  endfacet
  facet normal 1 0 0
    outer loop
      vertex 7 49.5 3
      vertex 7 8.5 59
      vertex 7 8.5 3
    endloop
  endfacet
  facet normal 0 1 -0
    outer loop
      vertex 7 51.5 3
      vertex 3 51.5 59
      vertex 7 51.5 59
    endloop
  endfacet
  facet normal 0 1 0
    outer loop
      vertex 3 51.5 59
      vertex 7 51.5 3
      vertex 3 51.5 3
    endloop
  endfacet
endsolid OpenSCAD_Model
