%TF.GenerationSoftware,KiCad,Pcbnew,9.0.2+dfsg-1*%
%TF.CreationDate,2026-06-04T19:35:09-04:00*%
%TF.ProjectId,CAPE-B-1,43415045-2d42-42d3-912e-6b696361645f,M*%
%TF.SameCoordinates,Original*%
%TF.FileFunction,Copper,L2,Inr*%
%TF.FilePolarity,Positive*%
%FSLAX46Y46*%
G04 Gerber Fmt 4.6, Leading zero omitted, Abs format (unit mm)*
G04 Created by KiCad (PCBNEW 9.0.2+dfsg-1) date 2026-06-04 19:35:09*
%MOMM*%
%LPD*%
G01*
G04 APERTURE LIST*
%TA.AperFunction,ComponentPad*%
%ADD10R,1.700000X1.700000*%
%TD*%
%TA.AperFunction,ComponentPad*%
%ADD11C,1.700000*%
%TD*%
%TA.AperFunction,ComponentPad*%
%ADD12R,1.500000X1.500000*%
%TD*%
%TA.AperFunction,ComponentPad*%
%ADD13C,1.500000*%
%TD*%
%TA.AperFunction,ViaPad*%
%ADD14C,0.800000*%
%TD*%
%ADD15C,0.350000*%
G04 APERTURE END LIST*
D10*
%TO.N,N/C*%
%TO.C,NAV-LIGHT PWM*%
X174000000Y-95460000D03*
D11*
X174000000Y-98000000D03*
X174000000Y-100540000D03*
X174000000Y-103080000D03*
X174000000Y-105620000D03*
X174000000Y-108160000D03*
X174000000Y-110700000D03*
X174000000Y-113240000D03*
%TD*%
D12*
%TO.N,N/C*%
%TO.C,PWR-IN*%
X123000000Y-116000000D03*
D13*
X125500000Y-116000000D03*
X128000000Y-116000000D03*
X130500000Y-116000000D03*
%TD*%
D11*
%TO.N,SERVO7*%
%TO.C,PB2-P2*%
X126910000Y-118690000D03*
%TO.N,SERVO6*%
X126910000Y-121230000D03*
%TO.N,PWM_CH3*%
X129450000Y-118690000D03*
%TO.N,PWM_CH2*%
X129450000Y-121230000D03*
%TO.N,PWM_CH1*%
X131990000Y-118690000D03*
%TO.N,PWM_CH0*%
X131990000Y-121230000D03*
%TO.N,LOAD_CELL_DOUT*%
X134530000Y-118690000D03*
%TO.N,LOAD_CELL_SCK*%
X134530000Y-121230000D03*
%TO.N,WINCH_IN2*%
X137070000Y-118690000D03*
%TO.N,WINCH_IN1*%
X137070000Y-121230000D03*
%TO.N,TPM_RSTN*%
X139610000Y-118690000D03*
%TO.N,TPM_IRQN*%
X139610000Y-121230000D03*
%TO.N,PHY2_RSTN*%
X142150000Y-118690000D03*
%TO.N,PHY2_INTRN*%
X142150000Y-121230000D03*
%TO.N,PHY1_RSTN*%
X144690000Y-118690000D03*
%TO.N,PHY1_INTRN*%
X144690000Y-121230000D03*
%TO.N,MDIO*%
X147230000Y-118690000D03*
%TO.N,MDC*%
X147230000Y-121230000D03*
%TO.N,RMII1_REF_CLK*%
X149770000Y-118690000D03*
%TO.N,RMII1_RX_ER*%
X149770000Y-121230000D03*
%TO.N,RMII1_CRS_DV*%
X152310000Y-118690000D03*
%TO.N,RMII1_RXD1*%
X152310000Y-121230000D03*
%TO.N,RMII1_RXD0*%
X154850000Y-118690000D03*
%TO.N,RMII1_TX_EN*%
X154850000Y-121230000D03*
%TO.N,RMII1_TXD1*%
X157390000Y-118690000D03*
%TO.N,RMII1_TXD0*%
X157390000Y-121230000D03*
%TO.N,RMII0_REF_CLK*%
X159930000Y-118690000D03*
%TO.N,RMII0_RX_ER*%
X159930000Y-121230000D03*
%TO.N,RMII0_CRS_DV*%
X162470000Y-118690000D03*
%TO.N,RMII0_RXD1*%
X162470000Y-121230000D03*
%TO.N,RMII0_RXD0*%
X165010000Y-118690000D03*
%TO.N,RMII0_TX_EN*%
X165010000Y-121230000D03*
%TO.N,RMII0_TXD1*%
X167550000Y-118690000D03*
%TO.N,RMII0_TXD0*%
X167550000Y-121230000D03*
%TO.N,+5V*%
X170090000Y-118690000D03*
%TO.N,GND*%
X170090000Y-121230000D03*
%TD*%
%TO.N,GND*%
%TO.C,PB2-P1*%
X126910000Y-88770000D03*
X126910000Y-91310000D03*
%TO.N,I2C0_SDA*%
X129450000Y-88770000D03*
%TO.N,I2C0_SCL*%
X129450000Y-91310000D03*
%TO.N,PRU_1553_RX_N*%
X131990000Y-88770000D03*
%TO.N,PRU_1553_RX_P*%
X131990000Y-91310000D03*
%TO.N,PRU_1553_TX_N*%
X134530000Y-88770000D03*
%TO.N,PRU_1553_TX_P*%
X134530000Y-91310000D03*
%TO.N,RS485_DE*%
X137070000Y-88770000D03*
%TO.N,RS485_RX*%
X137070000Y-91310000D03*
%TO.N,RS485_TX*%
X139610000Y-88770000D03*
%TO.N,CAN_STB*%
X139610000Y-91310000D03*
%TO.N,MCAN1_RX*%
X142150000Y-88770000D03*
%TO.N,MCAN1_TX*%
X142150000Y-91310000D03*
%TO.N,UART_RCRS_RX*%
X144690000Y-88770000D03*
%TO.N,UART_RCRS_TX*%
X144690000Y-91310000D03*
%TO.N,UART_SIK_RX*%
X147230000Y-88770000D03*
%TO.N,UART_SIK_TX*%
X147230000Y-91310000D03*
%TO.N,LORA_RESETN*%
X149770000Y-88770000D03*
%TO.N,LORA_DIO0*%
X149770000Y-91310000D03*
%TO.N,SPI1_CS_TPM*%
X152310000Y-88770000D03*
%TO.N,SPI1_CS_NOR*%
X152310000Y-91310000D03*
%TO.N,SPI1_MISO*%
X154850000Y-88770000D03*
%TO.N,SPI1_MOSI*%
X154850000Y-91310000D03*
%TO.N,SPI1_CLK*%
X157390000Y-88770000D03*
%TO.N,SPI1_CS_LORA*%
X157390000Y-91310000D03*
%TO.N,SDIO_D3*%
X159930000Y-88770000D03*
%TO.N,SDIO_D2*%
X159930000Y-91310000D03*
%TO.N,SDIO_D1*%
X162470000Y-88770000D03*
%TO.N,SDIO_D0*%
X162470000Y-91310000D03*
%TO.N,SDIO_CMD*%
X165010000Y-88770000D03*
%TO.N,SDIO_CLK*%
X165010000Y-91310000D03*
%TO.N,+3V3*%
X167550000Y-88770000D03*
X167550000Y-91310000D03*
%TO.N,+5V*%
X170090000Y-88770000D03*
%TO.N,GND*%
X170090000Y-91310000D03*
%TD*%
D14*
%TO.N,TMESH_P*%
X171000000Y-117000000D03*
X126000000Y-93000000D03*
%TO.N,TMESH_N*%
X126250000Y-93000000D03*
X170750000Y-93000000D03*
%TD*%
D15*
X171000000Y-117000000D03*
X126000000Y-93000000D03*
X126250000Y-93000000D03*
X170750000Y-93000000D03*
X174000000Y-95460000D03*
X174000000Y-98000000D03*
X174000000Y-100540000D03*
X174000000Y-103080000D03*
X174000000Y-105620000D03*
X174000000Y-108160000D03*
X174000000Y-110700000D03*
X174000000Y-113240000D03*
X173000000Y-119500000D03*
X173000000Y-90500000D03*
X124000000Y-119500000D03*
X123000000Y-116000000D03*
X125500000Y-116000000D03*
X128000000Y-116000000D03*
X130500000Y-116000000D03*
X124000000Y-90500000D03*
X126910000Y-118690000D03*
X126910000Y-121230000D03*
X129450000Y-118690000D03*
X129450000Y-121230000D03*
X131990000Y-118690000D03*
X131990000Y-121230000D03*
X134530000Y-118690000D03*
X134530000Y-121230000D03*
X137070000Y-118690000D03*
X137070000Y-121230000D03*
X139610000Y-118690000D03*
X139610000Y-121230000D03*
X142150000Y-118690000D03*
X142150000Y-121230000D03*
X144690000Y-118690000D03*
X144690000Y-121230000D03*
X147230000Y-118690000D03*
X147230000Y-121230000D03*
X149770000Y-118690000D03*
X149770000Y-121230000D03*
X152310000Y-118690000D03*
X152310000Y-121230000D03*
X154850000Y-118690000D03*
X154850000Y-121230000D03*
X157390000Y-118690000D03*
X157390000Y-121230000D03*
X159930000Y-118690000D03*
X159930000Y-121230000D03*
X162470000Y-118690000D03*
X162470000Y-121230000D03*
X165010000Y-118690000D03*
X165010000Y-121230000D03*
X167550000Y-118690000D03*
X167550000Y-121230000D03*
X170090000Y-118690000D03*
X170090000Y-121230000D03*
X126910000Y-88770000D03*
X126910000Y-91310000D03*
X129450000Y-88770000D03*
X129450000Y-91310000D03*
X131990000Y-88770000D03*
X131990000Y-91310000D03*
X134530000Y-88770000D03*
X134530000Y-91310000D03*
X137070000Y-88770000D03*
X137070000Y-91310000D03*
X139610000Y-88770000D03*
X139610000Y-91310000D03*
X142150000Y-88770000D03*
X142150000Y-91310000D03*
X144690000Y-88770000D03*
X144690000Y-91310000D03*
X147230000Y-88770000D03*
X147230000Y-91310000D03*
X149770000Y-88770000D03*
X149770000Y-91310000D03*
X152310000Y-88770000D03*
X152310000Y-91310000D03*
X154850000Y-88770000D03*
X154850000Y-91310000D03*
X157390000Y-88770000D03*
X157390000Y-91310000D03*
X159930000Y-88770000D03*
X159930000Y-91310000D03*
X162470000Y-88770000D03*
X162470000Y-91310000D03*
X165010000Y-88770000D03*
X165010000Y-91310000D03*
X167550000Y-88770000D03*
X167550000Y-91310000D03*
X170090000Y-88770000D03*
X170090000Y-91310000D03*
M02*
