%TF.GenerationSoftware,KiCad,Pcbnew,9.0.2+dfsg-1*%
%TF.CreationDate,2026-06-04T19:35:09-04:00*%
%TF.ProjectId,CAPE-B-1,43415045-2d42-42d3-912e-6b696361645f,M*%
%TF.SameCoordinates,Original*%
%TF.FileFunction,Soldermask,Top*%
%TF.FilePolarity,Negative*%
%FSLAX46Y46*%
G04 Gerber Fmt 4.6, Leading zero omitted, Abs format (unit mm)*
G04 Created by KiCad (PCBNEW 9.0.2+dfsg-1) date 2026-06-04 19:35:09*
%MOMM*%
%LPD*%
G01*
G04 APERTURE LIST*
G04 Aperture macros list*
%AMRoundRect*
0 Rectangle with rounded corners*
0 $1 Rounding radius*
0 $2 $3 $4 $5 $6 $7 $8 $9 X,Y pos of 4 corners*
0 Add a 4 corners polygon primitive as box body*
4,1,4,$2,$3,$4,$5,$6,$7,$8,$9,$2,$3,0*
0 Add four circle primitives for the rounded corners*
1,1,$1+$1,$2,$3*
1,1,$1+$1,$4,$5*
1,1,$1+$1,$6,$7*
1,1,$1+$1,$8,$9*
0 Add four rect primitives between the rounded corners*
20,1,$1+$1,$2,$3,$4,$5,0*
20,1,$1+$1,$4,$5,$6,$7,0*
20,1,$1+$1,$6,$7,$8,$9,0*
20,1,$1+$1,$8,$9,$2,$3,0*%
G04 Aperture macros list end*
%ADD10R,1.700000X1.700000*%
%ADD11C,1.700000*%
%ADD12R,1.925000X0.700000*%
%ADD13R,0.700000X1.925000*%
%ADD14RoundRect,0.150000X-0.150000X0.825000X-0.150000X-0.825000X0.150000X-0.825000X0.150000X0.825000X0*%
%ADD15RoundRect,0.150000X0.150000X-0.825000X0.150000X0.825000X-0.150000X0.825000X-0.150000X-0.825000X0*%
%ADD16R,0.800000X1.600000*%
%ADD17R,0.500000X0.500000*%
%ADD18R,4.800000X3.360000*%
%ADD19C,2.700000*%
%ADD20RoundRect,0.100000X-0.100000X0.675000X-0.100000X-0.675000X0.100000X-0.675000X0.100000X0.675000X0*%
%ADD21R,6.200000X2.750000*%
%ADD22R,1.050000X0.450000*%
%ADD23R,3.400000X5.000000*%
%ADD24RoundRect,0.075000X-0.662500X-0.075000X0.662500X-0.075000X0.662500X0.075000X-0.662500X0.075000X0*%
%ADD25RoundRect,0.075000X-0.075000X-0.662500X0.075000X-0.662500X0.075000X0.662500X-0.075000X0.662500X0*%
%ADD26R,1.500000X1.500000*%
%ADD27C,1.500000*%
G04 APERTURE END LIST*
D10*
%TO.C,NAV-LIGHT PWM*%
X174000000Y-95460000D03*
D11*
X174000000Y-98000000D03*
X174000000Y-100540000D03*
X174000000Y-103080000D03*
X174000000Y-105620000D03*
X174000000Y-108160000D03*
X174000000Y-110700000D03*
X174000000Y-113240000D03*
%TD*%
D12*
%TO.C,uSD-X-Blk*%
X129895000Y-103960000D03*
X129895000Y-105230000D03*
X129895000Y-106500000D03*
D13*
X131407500Y-108012500D03*
X132677500Y-108012500D03*
X133947500Y-108012500D03*
X135217500Y-108012500D03*
X136487500Y-108012500D03*
D12*
X138000000Y-106500000D03*
X138000000Y-105230000D03*
X138000000Y-103960000D03*
X138000000Y-102690000D03*
X138000000Y-101420000D03*
D13*
X136487500Y-99907500D03*
X135217500Y-99907500D03*
X133947500Y-99907500D03*
X132677500Y-99907500D03*
X131407500Y-99907500D03*
D12*
X129895000Y-101420000D03*
X129895000Y-102690000D03*
%TD*%
D14*
%TO.C,1553-RCV*%
X169945000Y-111025000D03*
X168675000Y-111025000D03*
X167405000Y-111025000D03*
X166135000Y-111025000D03*
X164865000Y-111025000D03*
X163595000Y-111025000D03*
X162325000Y-111025000D03*
X161055000Y-111025000D03*
X161055000Y-115975000D03*
X162325000Y-115975000D03*
X163595000Y-115975000D03*
X164865000Y-115975000D03*
X166135000Y-115975000D03*
X167405000Y-115975000D03*
X168675000Y-115975000D03*
X169945000Y-115975000D03*
%TD*%
D15*
%TO.C,RS485*%
X132095000Y-116475000D03*
X133365000Y-116475000D03*
X134635000Y-116475000D03*
X135905000Y-116475000D03*
X135905000Y-111525000D03*
X134635000Y-111525000D03*
X133365000Y-111525000D03*
X132095000Y-111525000D03*
%TD*%
D16*
%TO.C,ETH2*%
X122375000Y-112500000D03*
X123625000Y-112500000D03*
X124875000Y-112500000D03*
X126125000Y-112500000D03*
X127375000Y-112500000D03*
X128625000Y-112500000D03*
%TD*%
%TO.C,ETH1*%
X122375000Y-109500000D03*
X123625000Y-109500000D03*
X124875000Y-109500000D03*
X126125000Y-109500000D03*
X127375000Y-109500000D03*
X128625000Y-109500000D03*
%TD*%
D14*
%TO.C,1553-DRV*%
X159000000Y-111000000D03*
X157730000Y-111000000D03*
X156460000Y-111000000D03*
X155190000Y-111000000D03*
X153920000Y-111000000D03*
X152650000Y-111000000D03*
X151380000Y-111000000D03*
X150110000Y-111000000D03*
X150110000Y-115950000D03*
X151380000Y-115950000D03*
X152650000Y-115950000D03*
X153920000Y-115950000D03*
X155190000Y-115950000D03*
X156460000Y-115950000D03*
X157730000Y-115950000D03*
X159000000Y-115950000D03*
%TD*%
D17*
%TO.C,1553-XFM*%
X146000000Y-109500000D03*
D18*
X146000000Y-113500000D03*
%TD*%
D19*
%TO.C,*%
X173000000Y-119500000D03*
%TD*%
D16*
%TO.C,LOAD-CELL*%
X143750000Y-96000000D03*
X145000000Y-96000000D03*
X146250000Y-96000000D03*
X147500000Y-96000000D03*
%TD*%
D20*
%TO.C,PWM-I2C*%
X170000000Y-101250000D03*
X169350000Y-101250000D03*
X168700000Y-101250000D03*
X168050000Y-101250000D03*
X167400000Y-101250000D03*
X166750000Y-101250000D03*
X166100000Y-101250000D03*
X165450000Y-101250000D03*
X164800000Y-101250000D03*
X164150000Y-101250000D03*
X163500000Y-101250000D03*
X162850000Y-101250000D03*
X162200000Y-101250000D03*
X161550000Y-101250000D03*
X161550000Y-107000000D03*
X162200000Y-107000000D03*
X162850000Y-107000000D03*
X163500000Y-107000000D03*
X164150000Y-107000000D03*
X164800000Y-107000000D03*
X165450000Y-107000000D03*
X166100000Y-107000000D03*
X166750000Y-107000000D03*
X167400000Y-107000000D03*
X168050000Y-107000000D03*
X168700000Y-107000000D03*
X169350000Y-107000000D03*
X170000000Y-107000000D03*
D21*
X165775000Y-104125000D03*
%TD*%
D16*
%TO.C,WINCH*%
X137500000Y-96000000D03*
X138750000Y-96000000D03*
X140000000Y-96000000D03*
X141250000Y-96000000D03*
%TD*%
D19*
%TO.C,*%
X173000000Y-90500000D03*
%TD*%
D16*
%TO.C,MIL-1553*%
X122375000Y-106500000D03*
X123625000Y-106500000D03*
X124875000Y-106500000D03*
X126125000Y-106500000D03*
%TD*%
D15*
%TO.C,CAN-TR*%
X138595000Y-116475000D03*
X139865000Y-116475000D03*
X141135000Y-116475000D03*
X142405000Y-116475000D03*
X142405000Y-111525000D03*
X141135000Y-111525000D03*
X139865000Y-111525000D03*
X138595000Y-111525000D03*
%TD*%
D19*
%TO.C,*%
X124000000Y-119500000D03*
%TD*%
D16*
%TO.C,RS-485*%
X122375000Y-103500000D03*
X123625000Y-103500000D03*
X124875000Y-103500000D03*
X126125000Y-103500000D03*
%TD*%
D15*
%TO.C,LOAD-ADC*%
X160960000Y-98950000D03*
X162230000Y-98950000D03*
X163500000Y-98950000D03*
X164770000Y-98950000D03*
X166040000Y-98950000D03*
X167310000Y-98950000D03*
X168580000Y-98950000D03*
X169850000Y-98950000D03*
X169850000Y-94000000D03*
X168580000Y-94000000D03*
X167310000Y-94000000D03*
X166040000Y-94000000D03*
X164770000Y-94000000D03*
X163500000Y-94000000D03*
X162230000Y-94000000D03*
X160960000Y-94000000D03*
%TD*%
D22*
%TO.C,WINCH DRV*%
X129591600Y-93350000D03*
X129591600Y-94000000D03*
X129591600Y-94650000D03*
X129591600Y-95300000D03*
X129591600Y-95950000D03*
X129591600Y-96600000D03*
X129591600Y-97250000D03*
X129591600Y-97900000D03*
X135141600Y-97900000D03*
X135141600Y-97250000D03*
X135141600Y-96600000D03*
X135141600Y-95950000D03*
X135141600Y-95300000D03*
X135141600Y-94650000D03*
X135141600Y-94000000D03*
X135141600Y-93350000D03*
D23*
X132366600Y-95625000D03*
%TD*%
D24*
%TO.C,ETH1-PHY*%
X140675000Y-101000000D03*
X140675000Y-101500000D03*
X140675000Y-102000000D03*
X140675000Y-102500000D03*
X140675000Y-103000000D03*
X140675000Y-103500000D03*
X140675000Y-104000000D03*
X140675000Y-104500000D03*
X140675000Y-105000000D03*
X140675000Y-105500000D03*
X140675000Y-106000000D03*
X140675000Y-106500000D03*
D25*
X142087500Y-107912500D03*
X142587500Y-107912500D03*
X143087500Y-107912500D03*
X143587500Y-107912500D03*
X144087500Y-107912500D03*
X144587500Y-107912500D03*
X145087500Y-107912500D03*
X145587500Y-107912500D03*
X146087500Y-107912500D03*
X146587500Y-107912500D03*
X147087500Y-107912500D03*
X147587500Y-107912500D03*
D24*
X149000000Y-106500000D03*
X149000000Y-106000000D03*
X149000000Y-105500000D03*
X149000000Y-105000000D03*
X149000000Y-104500000D03*
X149000000Y-104000000D03*
X149000000Y-103500000D03*
X149000000Y-103000000D03*
X149000000Y-102500000D03*
X149000000Y-102000000D03*
X149000000Y-101500000D03*
X149000000Y-101000000D03*
D25*
X147587500Y-99587500D03*
X147087500Y-99587500D03*
X146587500Y-99587500D03*
X146087500Y-99587500D03*
X145587500Y-99587500D03*
X145087500Y-99587500D03*
X144587500Y-99587500D03*
X144087500Y-99587500D03*
X143587500Y-99587500D03*
X143087500Y-99587500D03*
X142587500Y-99587500D03*
X142087500Y-99587500D03*
%TD*%
D16*
%TO.C,CAN-FD*%
X122375000Y-100500000D03*
X123625000Y-100500000D03*
X124875000Y-100500000D03*
X126125000Y-100500000D03*
%TD*%
D26*
%TO.C,PWR-IN*%
X123000000Y-116000000D03*
D27*
X125500000Y-116000000D03*
X128000000Y-116000000D03*
X130500000Y-116000000D03*
%TD*%
D24*
%TO.C,ETH2-PHY*%
X151175000Y-101000000D03*
X151175000Y-101500000D03*
X151175000Y-102000000D03*
X151175000Y-102500000D03*
X151175000Y-103000000D03*
X151175000Y-103500000D03*
X151175000Y-104000000D03*
X151175000Y-104500000D03*
X151175000Y-105000000D03*
X151175000Y-105500000D03*
X151175000Y-106000000D03*
X151175000Y-106500000D03*
D25*
X152587500Y-107912500D03*
X153087500Y-107912500D03*
X153587500Y-107912500D03*
X154087500Y-107912500D03*
X154587500Y-107912500D03*
X155087500Y-107912500D03*
X155587500Y-107912500D03*
X156087500Y-107912500D03*
X156587500Y-107912500D03*
X157087500Y-107912500D03*
X157587500Y-107912500D03*
X158087500Y-107912500D03*
D24*
X159500000Y-106500000D03*
X159500000Y-106000000D03*
X159500000Y-105500000D03*
X159500000Y-105000000D03*
X159500000Y-104500000D03*
X159500000Y-104000000D03*
X159500000Y-103500000D03*
X159500000Y-103000000D03*
X159500000Y-102500000D03*
X159500000Y-102000000D03*
X159500000Y-101500000D03*
X159500000Y-101000000D03*
D25*
X158087500Y-99587500D03*
X157587500Y-99587500D03*
X157087500Y-99587500D03*
X156587500Y-99587500D03*
X156087500Y-99587500D03*
X155587500Y-99587500D03*
X155087500Y-99587500D03*
X154587500Y-99587500D03*
X154087500Y-99587500D03*
X153587500Y-99587500D03*
X153087500Y-99587500D03*
X152587500Y-99587500D03*
%TD*%
D16*
%TO.C,SIK-TLM*%
X122250000Y-94500000D03*
X123500000Y-94500000D03*
X124750000Y-94500000D03*
%TD*%
D19*
%TO.C,*%
X124000000Y-90500000D03*
%TD*%
D16*
%TO.C,VHF-XCVR*%
X122500000Y-97500000D03*
X123750000Y-97500000D03*
X125000000Y-97500000D03*
%TD*%
D11*
%TO.C,PB2-P2*%
X126910000Y-118690000D03*
X126910000Y-121230000D03*
X129450000Y-118690000D03*
X129450000Y-121230000D03*
X131990000Y-118690000D03*
X131990000Y-121230000D03*
X134530000Y-118690000D03*
X134530000Y-121230000D03*
X137070000Y-118690000D03*
X137070000Y-121230000D03*
X139610000Y-118690000D03*
X139610000Y-121230000D03*
X142150000Y-118690000D03*
X142150000Y-121230000D03*
X144690000Y-118690000D03*
X144690000Y-121230000D03*
X147230000Y-118690000D03*
X147230000Y-121230000D03*
X149770000Y-118690000D03*
X149770000Y-121230000D03*
X152310000Y-118690000D03*
X152310000Y-121230000D03*
X154850000Y-118690000D03*
X154850000Y-121230000D03*
X157390000Y-118690000D03*
X157390000Y-121230000D03*
X159930000Y-118690000D03*
X159930000Y-121230000D03*
X162470000Y-118690000D03*
X162470000Y-121230000D03*
X165010000Y-118690000D03*
X165010000Y-121230000D03*
X167550000Y-118690000D03*
X167550000Y-121230000D03*
X170090000Y-118690000D03*
X170090000Y-121230000D03*
%TD*%
%TO.C,PB2-P1*%
X126910000Y-88770000D03*
X126910000Y-91310000D03*
X129450000Y-88770000D03*
X129450000Y-91310000D03*
X131990000Y-88770000D03*
X131990000Y-91310000D03*
X134530000Y-88770000D03*
X134530000Y-91310000D03*
X137070000Y-88770000D03*
X137070000Y-91310000D03*
X139610000Y-88770000D03*
X139610000Y-91310000D03*
X142150000Y-88770000D03*
X142150000Y-91310000D03*
X144690000Y-88770000D03*
X144690000Y-91310000D03*
X147230000Y-88770000D03*
X147230000Y-91310000D03*
X149770000Y-88770000D03*
X149770000Y-91310000D03*
X152310000Y-88770000D03*
X152310000Y-91310000D03*
X154850000Y-88770000D03*
X154850000Y-91310000D03*
X157390000Y-88770000D03*
X157390000Y-91310000D03*
X159930000Y-88770000D03*
X159930000Y-91310000D03*
X162470000Y-88770000D03*
X162470000Y-91310000D03*
X165010000Y-88770000D03*
X165010000Y-91310000D03*
X167550000Y-88770000D03*
X167550000Y-91310000D03*
X170090000Y-88770000D03*
X170090000Y-91310000D03*
%TD*%
M02*
