G04 #@! TF.GenerationSoftware,KiCad,Pcbnew,9.0.2+dfsg-1*
G04 #@! TF.CreationDate,2026-05-22T15:58:05-04:00*
G04 #@! TF.ProjectId,CAPE-B-1,43415045-2d42-42d3-912e-6b696361645f,M*
G04 #@! TF.SameCoordinates,Original*
G04 #@! TF.FileFunction,Paste,Top*
G04 #@! TF.FilePolarity,Positive*
%FSLAX46Y46*%
G04 Gerber Fmt 4.6, Leading zero omitted, Abs format (unit mm)*
G04 Created by KiCad (PCBNEW 9.0.2+dfsg-1) date 2026-05-22 15:58:05*
%MOMM*%
%LPD*%
G01*
G04 APERTURE LIST*
%ADD10R,0.500000X0.500000*%
%ADD11R,3.000000X2.400000*%
%ADD12R,2.400000X8.000000*%
%ADD13R,0.800000X1.600000*%
%ADD14R,4.800000X3.360000*%
%ADD15R,5.500000X5.500000*%
%ADD16R,5.940000X3.600000*%
%ADD17R,2.800000X8.500000*%
%ADD18R,2.400000X3.000000*%
G04 APERTURE END LIST*
D10*
G04 #@! TO.C,RS485*
X132500000Y-110500000D03*
D11*
X135000000Y-110500000D03*
G04 #@! TD*
D10*
G04 #@! TO.C,TPM*
X171200000Y-110500000D03*
D12*
X168500000Y-110500000D03*
G04 #@! TD*
D13*
G04 #@! TO.C,ETH2*
X123875000Y-112500000D03*
X125125000Y-112500000D03*
X126375000Y-112500000D03*
X127625000Y-112500000D03*
X128875000Y-112500000D03*
X130125000Y-112500000D03*
G04 #@! TD*
G04 #@! TO.C,ETH1*
X123875000Y-108000000D03*
X125125000Y-108000000D03*
X126375000Y-108000000D03*
X127625000Y-108000000D03*
X128875000Y-108000000D03*
X130125000Y-108000000D03*
G04 #@! TD*
D10*
G04 #@! TO.C,1553-XFM*
X141500000Y-116500000D03*
D14*
X141500000Y-112500000D03*
G04 #@! TD*
D13*
G04 #@! TO.C,LOAD-CELL*
X159125000Y-95000000D03*
X160375000Y-95000000D03*
X161625000Y-95000000D03*
X162875000Y-95000000D03*
G04 #@! TD*
D10*
G04 #@! TO.C,ETH2-PHY*
X142750000Y-102500000D03*
D15*
X147000000Y-102500000D03*
G04 #@! TD*
D10*
G04 #@! TO.C,LOAD-ADC*
X142050000Y-95000000D03*
D16*
X147000000Y-95000000D03*
G04 #@! TD*
D13*
G04 #@! TO.C,WINCH*
X153125000Y-95000000D03*
X154375000Y-95000000D03*
X155625000Y-95000000D03*
X156875000Y-95000000D03*
G04 #@! TD*
D10*
G04 #@! TO.C,CAN-TR*
X132500000Y-115000000D03*
D11*
X135000000Y-115000000D03*
G04 #@! TD*
D10*
G04 #@! TO.C,1553-RCV*
X155050000Y-113000000D03*
D16*
X160000000Y-113000000D03*
G04 #@! TD*
D13*
G04 #@! TO.C,MIL-1553*
X125125000Y-103000000D03*
X126375000Y-103000000D03*
X127625000Y-103000000D03*
X128875000Y-103000000D03*
G04 #@! TD*
D10*
G04 #@! TO.C,ETH1-PHY*
X132750000Y-103000000D03*
D15*
X137000000Y-103000000D03*
G04 #@! TD*
D13*
G04 #@! TO.C,RS-485*
X125125000Y-98500000D03*
X126375000Y-98500000D03*
X127625000Y-98500000D03*
X128875000Y-98500000D03*
G04 #@! TD*
G04 #@! TO.C,CAN-FD*
X125125000Y-94000000D03*
X126375000Y-94000000D03*
X127625000Y-94000000D03*
X128875000Y-94000000D03*
G04 #@! TD*
D10*
G04 #@! TO.C,PWM-I2C*
X151850000Y-104000000D03*
D17*
X155000000Y-104000000D03*
G04 #@! TD*
D13*
G04 #@! TO.C,SIK-TLM*
X162250000Y-106000000D03*
X163500000Y-106000000D03*
X164750000Y-106000000D03*
G04 #@! TD*
D10*
G04 #@! TO.C,1553-DRV*
X154450000Y-113000000D03*
D16*
X149500000Y-113000000D03*
G04 #@! TD*
D13*
G04 #@! TO.C,RC-RCVR*
X162250000Y-108500000D03*
X163500000Y-108500000D03*
X164750000Y-108500000D03*
G04 #@! TD*
D10*
G04 #@! TO.C,WINCH-DRV*
X131300000Y-95000000D03*
D18*
X134000000Y-95000000D03*
G04 #@! TD*
M02*
