%TF.GenerationSoftware,KiCad,Pcbnew,9.0.2+dfsg-1*%
%TF.CreationDate,2026-05-22T15:58:14-04:00*%
%TF.ProjectId,CAPE-B-1,43415045-2d42-42d3-912e-6b696361645f,M*%
%TF.SameCoordinates,Original*%
%TF.FileFunction,Drillmap*%
%TF.FilePolarity,Positive*%
%FSLAX45Y45*%
G04 Gerber Fmt 4.5, Leading zero omitted, Abs format (unit mm)*
G04 Created by KiCad (PCBNEW 9.0.2+dfsg-1) date 2026-05-22 15:58:14*
%MOMM*%
%LPD*%
G01*
G04 APERTURE LIST*
%ADD10C,0.050000*%
%ADD11C,0.200000*%
%ADD12C,0.100000*%
G04 APERTURE END LIST*
D10*
X17600000Y-12250000D02*
X12100000Y-12250000D01*
X12100000Y-12250000D02*
X12100000Y-8750000D01*
X12100000Y-8750000D02*
X17600000Y-8750000D01*
X17600000Y-8750000D02*
X17600000Y-12250000D01*
D11*
D12*
X12250000Y-11550000D02*
X12350000Y-11650000D01*
X12350000Y-11550000D02*
X12250000Y-11650000D01*
X12500000Y-11550000D02*
X12600000Y-11650000D01*
X12600000Y-11550000D02*
X12500000Y-11650000D01*
X12641000Y-8827000D02*
X12741000Y-8927000D01*
X12741000Y-8827000D02*
X12641000Y-8927000D01*
X12641000Y-9081000D02*
X12741000Y-9181000D01*
X12741000Y-9081000D02*
X12641000Y-9181000D01*
X12641000Y-11819000D02*
X12741000Y-11919000D01*
X12741000Y-11819000D02*
X12641000Y-11919000D01*
X12641000Y-12073000D02*
X12741000Y-12173000D01*
X12741000Y-12073000D02*
X12641000Y-12173000D01*
X12750000Y-11550000D02*
X12850000Y-11650000D01*
X12850000Y-11550000D02*
X12750000Y-11650000D01*
X12895000Y-8827000D02*
X12995000Y-8927000D01*
X12995000Y-8827000D02*
X12895000Y-8927000D01*
X12895000Y-9081000D02*
X12995000Y-9181000D01*
X12995000Y-9081000D02*
X12895000Y-9181000D01*
X12895000Y-11819000D02*
X12995000Y-11919000D01*
X12995000Y-11819000D02*
X12895000Y-11919000D01*
X12895000Y-12073000D02*
X12995000Y-12173000D01*
X12995000Y-12073000D02*
X12895000Y-12173000D01*
X13000000Y-11550000D02*
X13100000Y-11650000D01*
X13100000Y-11550000D02*
X13000000Y-11650000D01*
X13149000Y-8827000D02*
X13249000Y-8927000D01*
X13249000Y-8827000D02*
X13149000Y-8927000D01*
X13149000Y-9081000D02*
X13249000Y-9181000D01*
X13249000Y-9081000D02*
X13149000Y-9181000D01*
X13149000Y-11819000D02*
X13249000Y-11919000D01*
X13249000Y-11819000D02*
X13149000Y-11919000D01*
X13149000Y-12073000D02*
X13249000Y-12173000D01*
X13249000Y-12073000D02*
X13149000Y-12173000D01*
X13403000Y-8827000D02*
X13503000Y-8927000D01*
X13503000Y-8827000D02*
X13403000Y-8927000D01*
X13403000Y-9081000D02*
X13503000Y-9181000D01*
X13503000Y-9081000D02*
X13403000Y-9181000D01*
X13403000Y-11819000D02*
X13503000Y-11919000D01*
X13503000Y-11819000D02*
X13403000Y-11919000D01*
X13403000Y-12073000D02*
X13503000Y-12173000D01*
X13503000Y-12073000D02*
X13403000Y-12173000D01*
X13657000Y-8827000D02*
X13757000Y-8927000D01*
X13757000Y-8827000D02*
X13657000Y-8927000D01*
X13657000Y-9081000D02*
X13757000Y-9181000D01*
X13757000Y-9081000D02*
X13657000Y-9181000D01*
X13657000Y-11819000D02*
X13757000Y-11919000D01*
X13757000Y-11819000D02*
X13657000Y-11919000D01*
X13657000Y-12073000D02*
X13757000Y-12173000D01*
X13757000Y-12073000D02*
X13657000Y-12173000D01*
X13911000Y-8827000D02*
X14011000Y-8927000D01*
X14011000Y-8827000D02*
X13911000Y-8927000D01*
X13911000Y-9081000D02*
X14011000Y-9181000D01*
X14011000Y-9081000D02*
X13911000Y-9181000D01*
X13911000Y-11819000D02*
X14011000Y-11919000D01*
X14011000Y-11819000D02*
X13911000Y-11919000D01*
X13911000Y-12073000D02*
X14011000Y-12173000D01*
X14011000Y-12073000D02*
X13911000Y-12173000D01*
X14165000Y-8827000D02*
X14265000Y-8927000D01*
X14265000Y-8827000D02*
X14165000Y-8927000D01*
X14165000Y-9081000D02*
X14265000Y-9181000D01*
X14265000Y-9081000D02*
X14165000Y-9181000D01*
X14165000Y-11819000D02*
X14265000Y-11919000D01*
X14265000Y-11819000D02*
X14165000Y-11919000D01*
X14165000Y-12073000D02*
X14265000Y-12173000D01*
X14265000Y-12073000D02*
X14165000Y-12173000D01*
X14419000Y-8827000D02*
X14519000Y-8927000D01*
X14519000Y-8827000D02*
X14419000Y-8927000D01*
X14419000Y-9081000D02*
X14519000Y-9181000D01*
X14519000Y-9081000D02*
X14419000Y-9181000D01*
X14419000Y-11819000D02*
X14519000Y-11919000D01*
X14519000Y-11819000D02*
X14419000Y-11919000D01*
X14419000Y-12073000D02*
X14519000Y-12173000D01*
X14519000Y-12073000D02*
X14419000Y-12173000D01*
X14673000Y-8827000D02*
X14773000Y-8927000D01*
X14773000Y-8827000D02*
X14673000Y-8927000D01*
X14673000Y-9081000D02*
X14773000Y-9181000D01*
X14773000Y-9081000D02*
X14673000Y-9181000D01*
X14673000Y-11819000D02*
X14773000Y-11919000D01*
X14773000Y-11819000D02*
X14673000Y-11919000D01*
X14673000Y-12073000D02*
X14773000Y-12173000D01*
X14773000Y-12073000D02*
X14673000Y-12173000D01*
X14927000Y-8827000D02*
X15027000Y-8927000D01*
X15027000Y-8827000D02*
X14927000Y-8927000D01*
X14927000Y-9081000D02*
X15027000Y-9181000D01*
X15027000Y-9081000D02*
X14927000Y-9181000D01*
X14927000Y-11819000D02*
X15027000Y-11919000D01*
X15027000Y-11819000D02*
X14927000Y-11919000D01*
X14927000Y-12073000D02*
X15027000Y-12173000D01*
X15027000Y-12073000D02*
X14927000Y-12173000D01*
X15181000Y-8827000D02*
X15281000Y-8927000D01*
X15281000Y-8827000D02*
X15181000Y-8927000D01*
X15181000Y-9081000D02*
X15281000Y-9181000D01*
X15281000Y-9081000D02*
X15181000Y-9181000D01*
X15181000Y-11819000D02*
X15281000Y-11919000D01*
X15281000Y-11819000D02*
X15181000Y-11919000D01*
X15181000Y-12073000D02*
X15281000Y-12173000D01*
X15281000Y-12073000D02*
X15181000Y-12173000D01*
X15435000Y-8827000D02*
X15535000Y-8927000D01*
X15535000Y-8827000D02*
X15435000Y-8927000D01*
X15435000Y-9081000D02*
X15535000Y-9181000D01*
X15535000Y-9081000D02*
X15435000Y-9181000D01*
X15435000Y-11819000D02*
X15535000Y-11919000D01*
X15535000Y-11819000D02*
X15435000Y-11919000D01*
X15435000Y-12073000D02*
X15535000Y-12173000D01*
X15535000Y-12073000D02*
X15435000Y-12173000D01*
X15689000Y-8827000D02*
X15789000Y-8927000D01*
X15789000Y-8827000D02*
X15689000Y-8927000D01*
X15689000Y-9081000D02*
X15789000Y-9181000D01*
X15789000Y-9081000D02*
X15689000Y-9181000D01*
X15689000Y-11819000D02*
X15789000Y-11919000D01*
X15789000Y-11819000D02*
X15689000Y-11919000D01*
X15689000Y-12073000D02*
X15789000Y-12173000D01*
X15789000Y-12073000D02*
X15689000Y-12173000D01*
X15943000Y-8827000D02*
X16043000Y-8927000D01*
X16043000Y-8827000D02*
X15943000Y-8927000D01*
X15943000Y-9081000D02*
X16043000Y-9181000D01*
X16043000Y-9081000D02*
X15943000Y-9181000D01*
X15943000Y-11819000D02*
X16043000Y-11919000D01*
X16043000Y-11819000D02*
X15943000Y-11919000D01*
X15943000Y-12073000D02*
X16043000Y-12173000D01*
X16043000Y-12073000D02*
X15943000Y-12173000D01*
X16197000Y-8827000D02*
X16297000Y-8927000D01*
X16297000Y-8827000D02*
X16197000Y-8927000D01*
X16197000Y-9081000D02*
X16297000Y-9181000D01*
X16297000Y-9081000D02*
X16197000Y-9181000D01*
X16197000Y-11819000D02*
X16297000Y-11919000D01*
X16297000Y-11819000D02*
X16197000Y-11919000D01*
X16197000Y-12073000D02*
X16297000Y-12173000D01*
X16297000Y-12073000D02*
X16197000Y-12173000D01*
X16451000Y-8827000D02*
X16551000Y-8927000D01*
X16551000Y-8827000D02*
X16451000Y-8927000D01*
X16451000Y-9081000D02*
X16551000Y-9181000D01*
X16551000Y-9081000D02*
X16451000Y-9181000D01*
X16451000Y-11819000D02*
X16551000Y-11919000D01*
X16551000Y-11819000D02*
X16451000Y-11919000D01*
X16451000Y-12073000D02*
X16551000Y-12173000D01*
X16551000Y-12073000D02*
X16451000Y-12173000D01*
X16705000Y-8827000D02*
X16805000Y-8927000D01*
X16805000Y-8827000D02*
X16705000Y-8927000D01*
X16705000Y-9081000D02*
X16805000Y-9181000D01*
X16805000Y-9081000D02*
X16705000Y-9181000D01*
X16705000Y-11819000D02*
X16805000Y-11919000D01*
X16805000Y-11819000D02*
X16705000Y-11919000D01*
X16705000Y-12073000D02*
X16805000Y-12173000D01*
X16805000Y-12073000D02*
X16705000Y-12173000D01*
X16959000Y-8827000D02*
X17059000Y-8927000D01*
X17059000Y-8827000D02*
X16959000Y-8927000D01*
X16959000Y-9081000D02*
X17059000Y-9181000D01*
X17059000Y-9081000D02*
X16959000Y-9181000D01*
X16959000Y-11819000D02*
X17059000Y-11919000D01*
X17059000Y-11819000D02*
X16959000Y-11919000D01*
X16959000Y-12073000D02*
X17059000Y-12173000D01*
X17059000Y-12073000D02*
X16959000Y-12173000D01*
X17350000Y-9496000D02*
X17450000Y-9596000D01*
X17450000Y-9496000D02*
X17350000Y-9596000D01*
X17350000Y-9750000D02*
X17450000Y-9850000D01*
X17450000Y-9750000D02*
X17350000Y-9850000D01*
X17350000Y-10004000D02*
X17450000Y-10104000D01*
X17450000Y-10004000D02*
X17350000Y-10104000D01*
X17350000Y-10258000D02*
X17450000Y-10358000D01*
X17450000Y-10258000D02*
X17350000Y-10358000D01*
X17350000Y-10512000D02*
X17450000Y-10612000D01*
X17450000Y-10512000D02*
X17350000Y-10612000D01*
X17350000Y-10766000D02*
X17450000Y-10866000D01*
X17450000Y-10766000D02*
X17350000Y-10866000D01*
X17350000Y-11020000D02*
X17450000Y-11120000D01*
X17450000Y-11020000D02*
X17350000Y-11120000D01*
X17350000Y-11274000D02*
X17450000Y-11374000D01*
X17450000Y-11274000D02*
X17350000Y-11374000D01*
D11*
X12358277Y-12563984D02*
X12358277Y-12363984D01*
X12358277Y-12363984D02*
X12405896Y-12363984D01*
X12405896Y-12363984D02*
X12434467Y-12373508D01*
X12434467Y-12373508D02*
X12453515Y-12392555D01*
X12453515Y-12392555D02*
X12463039Y-12411603D01*
X12463039Y-12411603D02*
X12472562Y-12449698D01*
X12472562Y-12449698D02*
X12472562Y-12478269D01*
X12472562Y-12478269D02*
X12463039Y-12516365D01*
X12463039Y-12516365D02*
X12453515Y-12535412D01*
X12453515Y-12535412D02*
X12434467Y-12554460D01*
X12434467Y-12554460D02*
X12405896Y-12563984D01*
X12405896Y-12563984D02*
X12358277Y-12563984D01*
X12558277Y-12563984D02*
X12558277Y-12430650D01*
X12558277Y-12468746D02*
X12567801Y-12449698D01*
X12567801Y-12449698D02*
X12577324Y-12440174D01*
X12577324Y-12440174D02*
X12596372Y-12430650D01*
X12596372Y-12430650D02*
X12615420Y-12430650D01*
X12682086Y-12563984D02*
X12682086Y-12430650D01*
X12682086Y-12363984D02*
X12672562Y-12373508D01*
X12672562Y-12373508D02*
X12682086Y-12383031D01*
X12682086Y-12383031D02*
X12691610Y-12373508D01*
X12691610Y-12373508D02*
X12682086Y-12363984D01*
X12682086Y-12363984D02*
X12682086Y-12383031D01*
X12805896Y-12563984D02*
X12786848Y-12554460D01*
X12786848Y-12554460D02*
X12777324Y-12535412D01*
X12777324Y-12535412D02*
X12777324Y-12363984D01*
X12910658Y-12563984D02*
X12891610Y-12554460D01*
X12891610Y-12554460D02*
X12882086Y-12535412D01*
X12882086Y-12535412D02*
X12882086Y-12363984D01*
X13139229Y-12563984D02*
X13139229Y-12363984D01*
X13139229Y-12363984D02*
X13205896Y-12506841D01*
X13205896Y-12506841D02*
X13272562Y-12363984D01*
X13272562Y-12363984D02*
X13272562Y-12563984D01*
X13453515Y-12563984D02*
X13453515Y-12459222D01*
X13453515Y-12459222D02*
X13443991Y-12440174D01*
X13443991Y-12440174D02*
X13424943Y-12430650D01*
X13424943Y-12430650D02*
X13386848Y-12430650D01*
X13386848Y-12430650D02*
X13367801Y-12440174D01*
X13453515Y-12554460D02*
X13434467Y-12563984D01*
X13434467Y-12563984D02*
X13386848Y-12563984D01*
X13386848Y-12563984D02*
X13367801Y-12554460D01*
X13367801Y-12554460D02*
X13358277Y-12535412D01*
X13358277Y-12535412D02*
X13358277Y-12516365D01*
X13358277Y-12516365D02*
X13367801Y-12497317D01*
X13367801Y-12497317D02*
X13386848Y-12487793D01*
X13386848Y-12487793D02*
X13434467Y-12487793D01*
X13434467Y-12487793D02*
X13453515Y-12478269D01*
X13548753Y-12430650D02*
X13548753Y-12630650D01*
X13548753Y-12440174D02*
X13567801Y-12430650D01*
X13567801Y-12430650D02*
X13605896Y-12430650D01*
X13605896Y-12430650D02*
X13624943Y-12440174D01*
X13624943Y-12440174D02*
X13634467Y-12449698D01*
X13634467Y-12449698D02*
X13643991Y-12468746D01*
X13643991Y-12468746D02*
X13643991Y-12525888D01*
X13643991Y-12525888D02*
X13634467Y-12544936D01*
X13634467Y-12544936D02*
X13624943Y-12554460D01*
X13624943Y-12554460D02*
X13605896Y-12563984D01*
X13605896Y-12563984D02*
X13567801Y-12563984D01*
X13567801Y-12563984D02*
X13548753Y-12554460D01*
X13729705Y-12544936D02*
X13739229Y-12554460D01*
X13739229Y-12554460D02*
X13729705Y-12563984D01*
X13729705Y-12563984D02*
X13720182Y-12554460D01*
X13720182Y-12554460D02*
X13729705Y-12544936D01*
X13729705Y-12544936D02*
X13729705Y-12563984D01*
X13729705Y-12440174D02*
X13739229Y-12449698D01*
X13739229Y-12449698D02*
X13729705Y-12459222D01*
X13729705Y-12459222D02*
X13720182Y-12449698D01*
X13720182Y-12449698D02*
X13729705Y-12440174D01*
X13729705Y-12440174D02*
X13729705Y-12459222D01*
D12*
X11997500Y-12842500D02*
X12097500Y-12942500D01*
X12097500Y-12842500D02*
X11997500Y-12942500D01*
D11*
X12463039Y-12983984D02*
X12348753Y-12983984D01*
X12405896Y-12983984D02*
X12405896Y-12783984D01*
X12405896Y-12783984D02*
X12386848Y-12812555D01*
X12386848Y-12812555D02*
X12367801Y-12831603D01*
X12367801Y-12831603D02*
X12348753Y-12841127D01*
X12548753Y-12964936D02*
X12558277Y-12974460D01*
X12558277Y-12974460D02*
X12548753Y-12983984D01*
X12548753Y-12983984D02*
X12539229Y-12974460D01*
X12539229Y-12974460D02*
X12548753Y-12964936D01*
X12548753Y-12964936D02*
X12548753Y-12983984D01*
X12682086Y-12783984D02*
X12701134Y-12783984D01*
X12701134Y-12783984D02*
X12720182Y-12793508D01*
X12720182Y-12793508D02*
X12729705Y-12803031D01*
X12729705Y-12803031D02*
X12739229Y-12822079D01*
X12739229Y-12822079D02*
X12748753Y-12860174D01*
X12748753Y-12860174D02*
X12748753Y-12907793D01*
X12748753Y-12907793D02*
X12739229Y-12945888D01*
X12739229Y-12945888D02*
X12729705Y-12964936D01*
X12729705Y-12964936D02*
X12720182Y-12974460D01*
X12720182Y-12974460D02*
X12701134Y-12983984D01*
X12701134Y-12983984D02*
X12682086Y-12983984D01*
X12682086Y-12983984D02*
X12663039Y-12974460D01*
X12663039Y-12974460D02*
X12653515Y-12964936D01*
X12653515Y-12964936D02*
X12643991Y-12945888D01*
X12643991Y-12945888D02*
X12634467Y-12907793D01*
X12634467Y-12907793D02*
X12634467Y-12860174D01*
X12634467Y-12860174D02*
X12643991Y-12822079D01*
X12643991Y-12822079D02*
X12653515Y-12803031D01*
X12653515Y-12803031D02*
X12663039Y-12793508D01*
X12663039Y-12793508D02*
X12682086Y-12783984D01*
X12872562Y-12783984D02*
X12891610Y-12783984D01*
X12891610Y-12783984D02*
X12910658Y-12793508D01*
X12910658Y-12793508D02*
X12920182Y-12803031D01*
X12920182Y-12803031D02*
X12929705Y-12822079D01*
X12929705Y-12822079D02*
X12939229Y-12860174D01*
X12939229Y-12860174D02*
X12939229Y-12907793D01*
X12939229Y-12907793D02*
X12929705Y-12945888D01*
X12929705Y-12945888D02*
X12920182Y-12964936D01*
X12920182Y-12964936D02*
X12910658Y-12974460D01*
X12910658Y-12974460D02*
X12891610Y-12983984D01*
X12891610Y-12983984D02*
X12872562Y-12983984D01*
X12872562Y-12983984D02*
X12853515Y-12974460D01*
X12853515Y-12974460D02*
X12843991Y-12964936D01*
X12843991Y-12964936D02*
X12834467Y-12945888D01*
X12834467Y-12945888D02*
X12824943Y-12907793D01*
X12824943Y-12907793D02*
X12824943Y-12860174D01*
X12824943Y-12860174D02*
X12834467Y-12822079D01*
X12834467Y-12822079D02*
X12843991Y-12803031D01*
X12843991Y-12803031D02*
X12853515Y-12793508D01*
X12853515Y-12793508D02*
X12872562Y-12783984D01*
X13063039Y-12783984D02*
X13082086Y-12783984D01*
X13082086Y-12783984D02*
X13101134Y-12793508D01*
X13101134Y-12793508D02*
X13110658Y-12803031D01*
X13110658Y-12803031D02*
X13120182Y-12822079D01*
X13120182Y-12822079D02*
X13129705Y-12860174D01*
X13129705Y-12860174D02*
X13129705Y-12907793D01*
X13129705Y-12907793D02*
X13120182Y-12945888D01*
X13120182Y-12945888D02*
X13110658Y-12964936D01*
X13110658Y-12964936D02*
X13101134Y-12974460D01*
X13101134Y-12974460D02*
X13082086Y-12983984D01*
X13082086Y-12983984D02*
X13063039Y-12983984D01*
X13063039Y-12983984D02*
X13043991Y-12974460D01*
X13043991Y-12974460D02*
X13034467Y-12964936D01*
X13034467Y-12964936D02*
X13024943Y-12945888D01*
X13024943Y-12945888D02*
X13015420Y-12907793D01*
X13015420Y-12907793D02*
X13015420Y-12860174D01*
X13015420Y-12860174D02*
X13024943Y-12822079D01*
X13024943Y-12822079D02*
X13034467Y-12803031D01*
X13034467Y-12803031D02*
X13043991Y-12793508D01*
X13043991Y-12793508D02*
X13063039Y-12783984D01*
X13215420Y-12983984D02*
X13215420Y-12850650D01*
X13215420Y-12869698D02*
X13224943Y-12860174D01*
X13224943Y-12860174D02*
X13243991Y-12850650D01*
X13243991Y-12850650D02*
X13272563Y-12850650D01*
X13272563Y-12850650D02*
X13291610Y-12860174D01*
X13291610Y-12860174D02*
X13301134Y-12879222D01*
X13301134Y-12879222D02*
X13301134Y-12983984D01*
X13301134Y-12879222D02*
X13310658Y-12860174D01*
X13310658Y-12860174D02*
X13329705Y-12850650D01*
X13329705Y-12850650D02*
X13358277Y-12850650D01*
X13358277Y-12850650D02*
X13377324Y-12860174D01*
X13377324Y-12860174D02*
X13386848Y-12879222D01*
X13386848Y-12879222D02*
X13386848Y-12983984D01*
X13482086Y-12983984D02*
X13482086Y-12850650D01*
X13482086Y-12869698D02*
X13491610Y-12860174D01*
X13491610Y-12860174D02*
X13510658Y-12850650D01*
X13510658Y-12850650D02*
X13539229Y-12850650D01*
X13539229Y-12850650D02*
X13558277Y-12860174D01*
X13558277Y-12860174D02*
X13567801Y-12879222D01*
X13567801Y-12879222D02*
X13567801Y-12983984D01*
X13567801Y-12879222D02*
X13577324Y-12860174D01*
X13577324Y-12860174D02*
X13596372Y-12850650D01*
X13596372Y-12850650D02*
X13624943Y-12850650D01*
X13624943Y-12850650D02*
X13643991Y-12860174D01*
X13643991Y-12860174D02*
X13653515Y-12879222D01*
X13653515Y-12879222D02*
X13653515Y-12983984D01*
X14043991Y-12774460D02*
X13872563Y-13031603D01*
X14301134Y-12783984D02*
X14320182Y-12783984D01*
X14320182Y-12783984D02*
X14339229Y-12793508D01*
X14339229Y-12793508D02*
X14348753Y-12803031D01*
X14348753Y-12803031D02*
X14358277Y-12822079D01*
X14358277Y-12822079D02*
X14367801Y-12860174D01*
X14367801Y-12860174D02*
X14367801Y-12907793D01*
X14367801Y-12907793D02*
X14358277Y-12945888D01*
X14358277Y-12945888D02*
X14348753Y-12964936D01*
X14348753Y-12964936D02*
X14339229Y-12974460D01*
X14339229Y-12974460D02*
X14320182Y-12983984D01*
X14320182Y-12983984D02*
X14301134Y-12983984D01*
X14301134Y-12983984D02*
X14282086Y-12974460D01*
X14282086Y-12974460D02*
X14272563Y-12964936D01*
X14272563Y-12964936D02*
X14263039Y-12945888D01*
X14263039Y-12945888D02*
X14253515Y-12907793D01*
X14253515Y-12907793D02*
X14253515Y-12860174D01*
X14253515Y-12860174D02*
X14263039Y-12822079D01*
X14263039Y-12822079D02*
X14272563Y-12803031D01*
X14272563Y-12803031D02*
X14282086Y-12793508D01*
X14282086Y-12793508D02*
X14301134Y-12783984D01*
X14453515Y-12964936D02*
X14463039Y-12974460D01*
X14463039Y-12974460D02*
X14453515Y-12983984D01*
X14453515Y-12983984D02*
X14443991Y-12974460D01*
X14443991Y-12974460D02*
X14453515Y-12964936D01*
X14453515Y-12964936D02*
X14453515Y-12983984D01*
X14586848Y-12783984D02*
X14605896Y-12783984D01*
X14605896Y-12783984D02*
X14624944Y-12793508D01*
X14624944Y-12793508D02*
X14634467Y-12803031D01*
X14634467Y-12803031D02*
X14643991Y-12822079D01*
X14643991Y-12822079D02*
X14653515Y-12860174D01*
X14653515Y-12860174D02*
X14653515Y-12907793D01*
X14653515Y-12907793D02*
X14643991Y-12945888D01*
X14643991Y-12945888D02*
X14634467Y-12964936D01*
X14634467Y-12964936D02*
X14624944Y-12974460D01*
X14624944Y-12974460D02*
X14605896Y-12983984D01*
X14605896Y-12983984D02*
X14586848Y-12983984D01*
X14586848Y-12983984D02*
X14567801Y-12974460D01*
X14567801Y-12974460D02*
X14558277Y-12964936D01*
X14558277Y-12964936D02*
X14548753Y-12945888D01*
X14548753Y-12945888D02*
X14539229Y-12907793D01*
X14539229Y-12907793D02*
X14539229Y-12860174D01*
X14539229Y-12860174D02*
X14548753Y-12822079D01*
X14548753Y-12822079D02*
X14558277Y-12803031D01*
X14558277Y-12803031D02*
X14567801Y-12793508D01*
X14567801Y-12793508D02*
X14586848Y-12783984D01*
X14720182Y-12783984D02*
X14843991Y-12783984D01*
X14843991Y-12783984D02*
X14777325Y-12860174D01*
X14777325Y-12860174D02*
X14805896Y-12860174D01*
X14805896Y-12860174D02*
X14824944Y-12869698D01*
X14824944Y-12869698D02*
X14834467Y-12879222D01*
X14834467Y-12879222D02*
X14843991Y-12898269D01*
X14843991Y-12898269D02*
X14843991Y-12945888D01*
X14843991Y-12945888D02*
X14834467Y-12964936D01*
X14834467Y-12964936D02*
X14824944Y-12974460D01*
X14824944Y-12974460D02*
X14805896Y-12983984D01*
X14805896Y-12983984D02*
X14748753Y-12983984D01*
X14748753Y-12983984D02*
X14729706Y-12974460D01*
X14729706Y-12974460D02*
X14720182Y-12964936D01*
X14939229Y-12983984D02*
X14977325Y-12983984D01*
X14977325Y-12983984D02*
X14996372Y-12974460D01*
X14996372Y-12974460D02*
X15005896Y-12964936D01*
X15005896Y-12964936D02*
X15024944Y-12936365D01*
X15024944Y-12936365D02*
X15034467Y-12898269D01*
X15034467Y-12898269D02*
X15034467Y-12822079D01*
X15034467Y-12822079D02*
X15024944Y-12803031D01*
X15024944Y-12803031D02*
X15015420Y-12793508D01*
X15015420Y-12793508D02*
X14996372Y-12783984D01*
X14996372Y-12783984D02*
X14958277Y-12783984D01*
X14958277Y-12783984D02*
X14939229Y-12793508D01*
X14939229Y-12793508D02*
X14929706Y-12803031D01*
X14929706Y-12803031D02*
X14920182Y-12822079D01*
X14920182Y-12822079D02*
X14920182Y-12869698D01*
X14920182Y-12869698D02*
X14929706Y-12888746D01*
X14929706Y-12888746D02*
X14939229Y-12898269D01*
X14939229Y-12898269D02*
X14958277Y-12907793D01*
X14958277Y-12907793D02*
X14996372Y-12907793D01*
X14996372Y-12907793D02*
X15015420Y-12898269D01*
X15015420Y-12898269D02*
X15024944Y-12888746D01*
X15024944Y-12888746D02*
X15034467Y-12869698D01*
X15205896Y-12850650D02*
X15205896Y-12983984D01*
X15158277Y-12774460D02*
X15110658Y-12917317D01*
X15110658Y-12917317D02*
X15234467Y-12917317D01*
X15301134Y-12783984D02*
X15301134Y-12822079D01*
X15377325Y-12783984D02*
X15377325Y-12822079D01*
X15672563Y-13060174D02*
X15663039Y-13050650D01*
X15663039Y-13050650D02*
X15643991Y-13022079D01*
X15643991Y-13022079D02*
X15634468Y-13003031D01*
X15634468Y-13003031D02*
X15624944Y-12974460D01*
X15624944Y-12974460D02*
X15615420Y-12926841D01*
X15615420Y-12926841D02*
X15615420Y-12888746D01*
X15615420Y-12888746D02*
X15624944Y-12841127D01*
X15624944Y-12841127D02*
X15634468Y-12812555D01*
X15634468Y-12812555D02*
X15643991Y-12793508D01*
X15643991Y-12793508D02*
X15663039Y-12764936D01*
X15663039Y-12764936D02*
X15672563Y-12755412D01*
X15777325Y-12869698D02*
X15758277Y-12860174D01*
X15758277Y-12860174D02*
X15748753Y-12850650D01*
X15748753Y-12850650D02*
X15739229Y-12831603D01*
X15739229Y-12831603D02*
X15739229Y-12822079D01*
X15739229Y-12822079D02*
X15748753Y-12803031D01*
X15748753Y-12803031D02*
X15758277Y-12793508D01*
X15758277Y-12793508D02*
X15777325Y-12783984D01*
X15777325Y-12783984D02*
X15815420Y-12783984D01*
X15815420Y-12783984D02*
X15834468Y-12793508D01*
X15834468Y-12793508D02*
X15843991Y-12803031D01*
X15843991Y-12803031D02*
X15853515Y-12822079D01*
X15853515Y-12822079D02*
X15853515Y-12831603D01*
X15853515Y-12831603D02*
X15843991Y-12850650D01*
X15843991Y-12850650D02*
X15834468Y-12860174D01*
X15834468Y-12860174D02*
X15815420Y-12869698D01*
X15815420Y-12869698D02*
X15777325Y-12869698D01*
X15777325Y-12869698D02*
X15758277Y-12879222D01*
X15758277Y-12879222D02*
X15748753Y-12888746D01*
X15748753Y-12888746D02*
X15739229Y-12907793D01*
X15739229Y-12907793D02*
X15739229Y-12945888D01*
X15739229Y-12945888D02*
X15748753Y-12964936D01*
X15748753Y-12964936D02*
X15758277Y-12974460D01*
X15758277Y-12974460D02*
X15777325Y-12983984D01*
X15777325Y-12983984D02*
X15815420Y-12983984D01*
X15815420Y-12983984D02*
X15834468Y-12974460D01*
X15834468Y-12974460D02*
X15843991Y-12964936D01*
X15843991Y-12964936D02*
X15853515Y-12945888D01*
X15853515Y-12945888D02*
X15853515Y-12907793D01*
X15853515Y-12907793D02*
X15843991Y-12888746D01*
X15843991Y-12888746D02*
X15834468Y-12879222D01*
X15834468Y-12879222D02*
X15815420Y-12869698D01*
X16024944Y-12850650D02*
X16024944Y-12983984D01*
X15977325Y-12774460D02*
X15929706Y-12917317D01*
X15929706Y-12917317D02*
X16053515Y-12917317D01*
X16282087Y-12983984D02*
X16282087Y-12783984D01*
X16367801Y-12983984D02*
X16367801Y-12879222D01*
X16367801Y-12879222D02*
X16358277Y-12860174D01*
X16358277Y-12860174D02*
X16339230Y-12850650D01*
X16339230Y-12850650D02*
X16310658Y-12850650D01*
X16310658Y-12850650D02*
X16291610Y-12860174D01*
X16291610Y-12860174D02*
X16282087Y-12869698D01*
X16491610Y-12983984D02*
X16472563Y-12974460D01*
X16472563Y-12974460D02*
X16463039Y-12964936D01*
X16463039Y-12964936D02*
X16453515Y-12945888D01*
X16453515Y-12945888D02*
X16453515Y-12888746D01*
X16453515Y-12888746D02*
X16463039Y-12869698D01*
X16463039Y-12869698D02*
X16472563Y-12860174D01*
X16472563Y-12860174D02*
X16491610Y-12850650D01*
X16491610Y-12850650D02*
X16520182Y-12850650D01*
X16520182Y-12850650D02*
X16539230Y-12860174D01*
X16539230Y-12860174D02*
X16548753Y-12869698D01*
X16548753Y-12869698D02*
X16558277Y-12888746D01*
X16558277Y-12888746D02*
X16558277Y-12945888D01*
X16558277Y-12945888D02*
X16548753Y-12964936D01*
X16548753Y-12964936D02*
X16539230Y-12974460D01*
X16539230Y-12974460D02*
X16520182Y-12983984D01*
X16520182Y-12983984D02*
X16491610Y-12983984D01*
X16672563Y-12983984D02*
X16653515Y-12974460D01*
X16653515Y-12974460D02*
X16643991Y-12955412D01*
X16643991Y-12955412D02*
X16643991Y-12783984D01*
X16824944Y-12974460D02*
X16805896Y-12983984D01*
X16805896Y-12983984D02*
X16767801Y-12983984D01*
X16767801Y-12983984D02*
X16748753Y-12974460D01*
X16748753Y-12974460D02*
X16739230Y-12955412D01*
X16739230Y-12955412D02*
X16739230Y-12879222D01*
X16739230Y-12879222D02*
X16748753Y-12860174D01*
X16748753Y-12860174D02*
X16767801Y-12850650D01*
X16767801Y-12850650D02*
X16805896Y-12850650D01*
X16805896Y-12850650D02*
X16824944Y-12860174D01*
X16824944Y-12860174D02*
X16834468Y-12879222D01*
X16834468Y-12879222D02*
X16834468Y-12898269D01*
X16834468Y-12898269D02*
X16739230Y-12917317D01*
X16910658Y-12974460D02*
X16929706Y-12983984D01*
X16929706Y-12983984D02*
X16967801Y-12983984D01*
X16967801Y-12983984D02*
X16986849Y-12974460D01*
X16986849Y-12974460D02*
X16996373Y-12955412D01*
X16996373Y-12955412D02*
X16996373Y-12945888D01*
X16996373Y-12945888D02*
X16986849Y-12926841D01*
X16986849Y-12926841D02*
X16967801Y-12917317D01*
X16967801Y-12917317D02*
X16939230Y-12917317D01*
X16939230Y-12917317D02*
X16920182Y-12907793D01*
X16920182Y-12907793D02*
X16910658Y-12888746D01*
X16910658Y-12888746D02*
X16910658Y-12879222D01*
X16910658Y-12879222D02*
X16920182Y-12860174D01*
X16920182Y-12860174D02*
X16939230Y-12850650D01*
X16939230Y-12850650D02*
X16967801Y-12850650D01*
X16967801Y-12850650D02*
X16986849Y-12860174D01*
X17063039Y-13060174D02*
X17072563Y-13050650D01*
X17072563Y-13050650D02*
X17091611Y-13022079D01*
X17091611Y-13022079D02*
X17101134Y-13003031D01*
X17101134Y-13003031D02*
X17110658Y-12974460D01*
X17110658Y-12974460D02*
X17120182Y-12926841D01*
X17120182Y-12926841D02*
X17120182Y-12888746D01*
X17120182Y-12888746D02*
X17110658Y-12841127D01*
X17110658Y-12841127D02*
X17101134Y-12812555D01*
X17101134Y-12812555D02*
X17091611Y-12793508D01*
X17091611Y-12793508D02*
X17072563Y-12764936D01*
X17072563Y-12764936D02*
X17063039Y-12755412D01*
M02*
