G04 #@! TF.GenerationSoftware,KiCad,Pcbnew,9.0.2+dfsg-1*
G04 #@! TF.CreationDate,2026-05-22T15:58:05-04:00*
G04 #@! TF.ProjectId,CAPE-B-1,43415045-2d42-42d3-912e-6b696361645f,M*
G04 #@! TF.SameCoordinates,Original*
G04 #@! TF.FileFunction,Soldermask,Top*
G04 #@! TF.FilePolarity,Negative*
%FSLAX46Y46*%
G04 Gerber Fmt 4.6, Leading zero omitted, Abs format (unit mm)*
G04 Created by KiCad (PCBNEW 9.0.2+dfsg-1) date 2026-05-22 15:58:05*
%MOMM*%
%LPD*%
G01*
G04 APERTURE LIST*
%ADD10R,1.700000X1.700000*%
%ADD11C,1.700000*%
%ADD12R,0.500000X0.500000*%
%ADD13R,3.000000X2.400000*%
%ADD14R,2.400000X8.000000*%
%ADD15R,0.800000X1.600000*%
%ADD16R,4.800000X3.360000*%
%ADD17C,2.700000*%
%ADD18R,5.500000X5.500000*%
%ADD19R,5.940000X3.600000*%
%ADD20R,2.800000X8.500000*%
%ADD21R,1.500000X1.500000*%
%ADD22C,1.500000*%
%ADD23R,2.400000X3.000000*%
G04 APERTURE END LIST*
D10*
G04 #@! TO.C,NAV-LIGHT*
X174000000Y-95460000D03*
D11*
X174000000Y-98000000D03*
X174000000Y-100540000D03*
X174000000Y-103080000D03*
X174000000Y-105620000D03*
X174000000Y-108160000D03*
X174000000Y-110700000D03*
X174000000Y-113240000D03*
G04 #@! TD*
D12*
G04 #@! TO.C,RS485*
X132500000Y-110500000D03*
D13*
X135000000Y-110500000D03*
G04 #@! TD*
D12*
G04 #@! TO.C,TPM*
X171200000Y-110500000D03*
D14*
X168500000Y-110500000D03*
G04 #@! TD*
D15*
G04 #@! TO.C,ETH2*
X123875000Y-112500000D03*
X125125000Y-112500000D03*
X126375000Y-112500000D03*
X127625000Y-112500000D03*
X128875000Y-112500000D03*
X130125000Y-112500000D03*
G04 #@! TD*
G04 #@! TO.C,ETH1*
X123875000Y-108000000D03*
X125125000Y-108000000D03*
X126375000Y-108000000D03*
X127625000Y-108000000D03*
X128875000Y-108000000D03*
X130125000Y-108000000D03*
G04 #@! TD*
D12*
G04 #@! TO.C,1553-XFM*
X141500000Y-116500000D03*
D16*
X141500000Y-112500000D03*
G04 #@! TD*
D17*
G04 #@! TO.C,*
X173000000Y-119500000D03*
G04 #@! TD*
D15*
G04 #@! TO.C,LOAD-CELL*
X159125000Y-95000000D03*
X160375000Y-95000000D03*
X161625000Y-95000000D03*
X162875000Y-95000000D03*
G04 #@! TD*
D12*
G04 #@! TO.C,ETH2-PHY*
X142750000Y-102500000D03*
D18*
X147000000Y-102500000D03*
G04 #@! TD*
D12*
G04 #@! TO.C,LOAD-ADC*
X142050000Y-95000000D03*
D19*
X147000000Y-95000000D03*
G04 #@! TD*
D15*
G04 #@! TO.C,WINCH*
X153125000Y-95000000D03*
X154375000Y-95000000D03*
X155625000Y-95000000D03*
X156875000Y-95000000D03*
G04 #@! TD*
D12*
G04 #@! TO.C,CAN-TR*
X132500000Y-115000000D03*
D13*
X135000000Y-115000000D03*
G04 #@! TD*
D12*
G04 #@! TO.C,1553-RCV*
X155050000Y-113000000D03*
D19*
X160000000Y-113000000D03*
G04 #@! TD*
D17*
G04 #@! TO.C,*
X173000000Y-90500000D03*
G04 #@! TD*
D15*
G04 #@! TO.C,MIL-1553*
X125125000Y-103000000D03*
X126375000Y-103000000D03*
X127625000Y-103000000D03*
X128875000Y-103000000D03*
G04 #@! TD*
D12*
G04 #@! TO.C,ETH1-PHY*
X132750000Y-103000000D03*
D18*
X137000000Y-103000000D03*
G04 #@! TD*
D17*
G04 #@! TO.C,*
X124000000Y-119500000D03*
G04 #@! TD*
D15*
G04 #@! TO.C,RS-485*
X125125000Y-98500000D03*
X126375000Y-98500000D03*
X127625000Y-98500000D03*
X128875000Y-98500000D03*
G04 #@! TD*
G04 #@! TO.C,CAN-FD*
X125125000Y-94000000D03*
X126375000Y-94000000D03*
X127625000Y-94000000D03*
X128875000Y-94000000D03*
G04 #@! TD*
D12*
G04 #@! TO.C,PWM-I2C*
X151850000Y-104000000D03*
D20*
X155000000Y-104000000D03*
G04 #@! TD*
D21*
G04 #@! TO.C,PWR-IN*
X123000000Y-116000000D03*
D22*
X125500000Y-116000000D03*
X128000000Y-116000000D03*
X130500000Y-116000000D03*
G04 #@! TD*
D15*
G04 #@! TO.C,SIK-TLM*
X162250000Y-106000000D03*
X163500000Y-106000000D03*
X164750000Y-106000000D03*
G04 #@! TD*
D12*
G04 #@! TO.C,1553-DRV*
X154450000Y-113000000D03*
D19*
X149500000Y-113000000D03*
G04 #@! TD*
D17*
G04 #@! TO.C,*
X124000000Y-90500000D03*
G04 #@! TD*
D15*
G04 #@! TO.C,RC-RCVR*
X162250000Y-108500000D03*
X163500000Y-108500000D03*
X164750000Y-108500000D03*
G04 #@! TD*
D12*
G04 #@! TO.C,WINCH-DRV*
X131300000Y-95000000D03*
D23*
X134000000Y-95000000D03*
G04 #@! TD*
D11*
G04 #@! TO.C,PB2-P2*
X126910000Y-118690000D03*
X126910000Y-121230000D03*
X129450000Y-118690000D03*
X129450000Y-121230000D03*
X131990000Y-118690000D03*
X131990000Y-121230000D03*
X134530000Y-118690000D03*
X134530000Y-121230000D03*
X137070000Y-118690000D03*
X137070000Y-121230000D03*
X139610000Y-118690000D03*
X139610000Y-121230000D03*
X142150000Y-118690000D03*
X142150000Y-121230000D03*
X144690000Y-118690000D03*
X144690000Y-121230000D03*
X147230000Y-118690000D03*
X147230000Y-121230000D03*
X149770000Y-118690000D03*
X149770000Y-121230000D03*
X152310000Y-118690000D03*
X152310000Y-121230000D03*
X154850000Y-118690000D03*
X154850000Y-121230000D03*
X157390000Y-118690000D03*
X157390000Y-121230000D03*
X159930000Y-118690000D03*
X159930000Y-121230000D03*
X162470000Y-118690000D03*
X162470000Y-121230000D03*
X165010000Y-118690000D03*
X165010000Y-121230000D03*
X167550000Y-118690000D03*
X167550000Y-121230000D03*
X170090000Y-118690000D03*
X170090000Y-121230000D03*
G04 #@! TD*
G04 #@! TO.C,PB2-P1*
X126910000Y-88770000D03*
X126910000Y-91310000D03*
X129450000Y-88770000D03*
X129450000Y-91310000D03*
X131990000Y-88770000D03*
X131990000Y-91310000D03*
X134530000Y-88770000D03*
X134530000Y-91310000D03*
X137070000Y-88770000D03*
X137070000Y-91310000D03*
X139610000Y-88770000D03*
X139610000Y-91310000D03*
X142150000Y-88770000D03*
X142150000Y-91310000D03*
X144690000Y-88770000D03*
X144690000Y-91310000D03*
X147230000Y-88770000D03*
X147230000Y-91310000D03*
X149770000Y-88770000D03*
X149770000Y-91310000D03*
X152310000Y-88770000D03*
X152310000Y-91310000D03*
X154850000Y-88770000D03*
X154850000Y-91310000D03*
X157390000Y-88770000D03*
X157390000Y-91310000D03*
X159930000Y-88770000D03*
X159930000Y-91310000D03*
X162470000Y-88770000D03*
X162470000Y-91310000D03*
X165010000Y-88770000D03*
X165010000Y-91310000D03*
X167550000Y-88770000D03*
X167550000Y-91310000D03*
X170090000Y-88770000D03*
X170090000Y-91310000D03*
G04 #@! TD*
M02*
