G04 #@! TF.GenerationSoftware,KiCad,Pcbnew,9.0.2+dfsg-1*
G04 #@! TF.CreationDate,2026-05-22T15:58:05-04:00*
G04 #@! TF.ProjectId,CAPE-B-1,43415045-2d42-42d3-912e-6b696361645f,M*
G04 #@! TF.SameCoordinates,Original*
G04 #@! TF.FileFunction,Legend,Bot*
G04 #@! TF.FilePolarity,Positive*
%FSLAX46Y46*%
G04 Gerber Fmt 4.6, Leading zero omitted, Abs format (unit mm)*
G04 Created by KiCad (PCBNEW 9.0.2+dfsg-1) date 2026-05-22 15:58:05*
%MOMM*%
%LPD*%
G01*
G04 APERTURE LIST*
%ADD10C,0.120000*%
%ADD11C,0.150000*%
G04 APERTURE END LIST*
D10*
X123699990Y-93990475D02*
X124347609Y-93990475D01*
X124347609Y-93990475D02*
X124423799Y-94028570D01*
X124423799Y-94028570D02*
X124461895Y-94066665D01*
X124461895Y-94066665D02*
X124499990Y-94142856D01*
X124499990Y-94142856D02*
X124499990Y-94295237D01*
X124499990Y-94295237D02*
X124461895Y-94371427D01*
X124461895Y-94371427D02*
X124423799Y-94409522D01*
X124423799Y-94409522D02*
X124347609Y-94447618D01*
X124347609Y-94447618D02*
X123699990Y-94447618D01*
X124271418Y-94790474D02*
X124271418Y-95171427D01*
X124499990Y-94714284D02*
X123699990Y-94980951D01*
X123699990Y-94980951D02*
X124499990Y-95247617D01*
X123699990Y-95399998D02*
X124499990Y-95666665D01*
X124499990Y-95666665D02*
X123699990Y-95933331D01*
X124499990Y-97266665D02*
X124119037Y-96999998D01*
X124499990Y-96809522D02*
X123699990Y-96809522D01*
X123699990Y-96809522D02*
X123699990Y-97114284D01*
X123699990Y-97114284D02*
X123738085Y-97190474D01*
X123738085Y-97190474D02*
X123776180Y-97228569D01*
X123776180Y-97228569D02*
X123852371Y-97266665D01*
X123852371Y-97266665D02*
X123966656Y-97266665D01*
X123966656Y-97266665D02*
X124042847Y-97228569D01*
X124042847Y-97228569D02*
X124080942Y-97190474D01*
X124080942Y-97190474D02*
X124119037Y-97114284D01*
X124119037Y-97114284D02*
X124119037Y-96809522D01*
X124461895Y-97914284D02*
X124499990Y-97838093D01*
X124499990Y-97838093D02*
X124499990Y-97685712D01*
X124499990Y-97685712D02*
X124461895Y-97609522D01*
X124461895Y-97609522D02*
X124385704Y-97571426D01*
X124385704Y-97571426D02*
X124080942Y-97571426D01*
X124080942Y-97571426D02*
X124004752Y-97609522D01*
X124004752Y-97609522D02*
X123966656Y-97685712D01*
X123966656Y-97685712D02*
X123966656Y-97838093D01*
X123966656Y-97838093D02*
X124004752Y-97914284D01*
X124004752Y-97914284D02*
X124080942Y-97952379D01*
X124080942Y-97952379D02*
X124157133Y-97952379D01*
X124157133Y-97952379D02*
X124233323Y-97571426D01*
X124461895Y-98257140D02*
X124499990Y-98333331D01*
X124499990Y-98333331D02*
X124499990Y-98485712D01*
X124499990Y-98485712D02*
X124461895Y-98561902D01*
X124461895Y-98561902D02*
X124385704Y-98599998D01*
X124385704Y-98599998D02*
X124347609Y-98599998D01*
X124347609Y-98599998D02*
X124271418Y-98561902D01*
X124271418Y-98561902D02*
X124233323Y-98485712D01*
X124233323Y-98485712D02*
X124233323Y-98371426D01*
X124233323Y-98371426D02*
X124195228Y-98295236D01*
X124195228Y-98295236D02*
X124119037Y-98257140D01*
X124119037Y-98257140D02*
X124080942Y-98257140D01*
X124080942Y-98257140D02*
X124004752Y-98295236D01*
X124004752Y-98295236D02*
X123966656Y-98371426D01*
X123966656Y-98371426D02*
X123966656Y-98485712D01*
X123966656Y-98485712D02*
X124004752Y-98561902D01*
X124499990Y-98942855D02*
X123966656Y-98942855D01*
X123699990Y-98942855D02*
X123738085Y-98904759D01*
X123738085Y-98904759D02*
X123776180Y-98942855D01*
X123776180Y-98942855D02*
X123738085Y-98980950D01*
X123738085Y-98980950D02*
X123699990Y-98942855D01*
X123699990Y-98942855D02*
X123776180Y-98942855D01*
X124499990Y-99438092D02*
X124461895Y-99361902D01*
X124461895Y-99361902D02*
X124385704Y-99323807D01*
X124385704Y-99323807D02*
X123699990Y-99323807D01*
X124499990Y-99857140D02*
X124461895Y-99780950D01*
X124461895Y-99780950D02*
X124385704Y-99742855D01*
X124385704Y-99742855D02*
X123699990Y-99742855D01*
X124499990Y-100161903D02*
X123966656Y-100161903D01*
X123699990Y-100161903D02*
X123738085Y-100123807D01*
X123738085Y-100123807D02*
X123776180Y-100161903D01*
X123776180Y-100161903D02*
X123738085Y-100199998D01*
X123738085Y-100199998D02*
X123699990Y-100161903D01*
X123699990Y-100161903D02*
X123776180Y-100161903D01*
X124461895Y-100847617D02*
X124499990Y-100771426D01*
X124499990Y-100771426D02*
X124499990Y-100619045D01*
X124499990Y-100619045D02*
X124461895Y-100542855D01*
X124461895Y-100542855D02*
X124385704Y-100504759D01*
X124385704Y-100504759D02*
X124080942Y-100504759D01*
X124080942Y-100504759D02*
X124004752Y-100542855D01*
X124004752Y-100542855D02*
X123966656Y-100619045D01*
X123966656Y-100619045D02*
X123966656Y-100771426D01*
X123966656Y-100771426D02*
X124004752Y-100847617D01*
X124004752Y-100847617D02*
X124080942Y-100885712D01*
X124080942Y-100885712D02*
X124157133Y-100885712D01*
X124157133Y-100885712D02*
X124233323Y-100504759D01*
X123966656Y-101228569D02*
X124499990Y-101228569D01*
X124042847Y-101228569D02*
X124004752Y-101266664D01*
X124004752Y-101266664D02*
X123966656Y-101342854D01*
X123966656Y-101342854D02*
X123966656Y-101457140D01*
X123966656Y-101457140D02*
X124004752Y-101533331D01*
X124004752Y-101533331D02*
X124080942Y-101571426D01*
X124080942Y-101571426D02*
X124499990Y-101571426D01*
X123966656Y-101838093D02*
X123966656Y-102142855D01*
X123699990Y-101952379D02*
X124385704Y-101952379D01*
X124385704Y-101952379D02*
X124461895Y-101990474D01*
X124461895Y-101990474D02*
X124499990Y-102066664D01*
X124499990Y-102066664D02*
X124499990Y-102142855D01*
X124423799Y-103476189D02*
X124461895Y-103438093D01*
X124461895Y-103438093D02*
X124499990Y-103323808D01*
X124499990Y-103323808D02*
X124499990Y-103247617D01*
X124499990Y-103247617D02*
X124461895Y-103133331D01*
X124461895Y-103133331D02*
X124385704Y-103057141D01*
X124385704Y-103057141D02*
X124309514Y-103019046D01*
X124309514Y-103019046D02*
X124157133Y-102980950D01*
X124157133Y-102980950D02*
X124042847Y-102980950D01*
X124042847Y-102980950D02*
X123890466Y-103019046D01*
X123890466Y-103019046D02*
X123814275Y-103057141D01*
X123814275Y-103057141D02*
X123738085Y-103133331D01*
X123738085Y-103133331D02*
X123699990Y-103247617D01*
X123699990Y-103247617D02*
X123699990Y-103323808D01*
X123699990Y-103323808D02*
X123738085Y-103438093D01*
X123738085Y-103438093D02*
X123776180Y-103476189D01*
X124499990Y-103933331D02*
X124461895Y-103857141D01*
X124461895Y-103857141D02*
X124423799Y-103819046D01*
X124423799Y-103819046D02*
X124347609Y-103780950D01*
X124347609Y-103780950D02*
X124119037Y-103780950D01*
X124119037Y-103780950D02*
X124042847Y-103819046D01*
X124042847Y-103819046D02*
X124004752Y-103857141D01*
X124004752Y-103857141D02*
X123966656Y-103933331D01*
X123966656Y-103933331D02*
X123966656Y-104047617D01*
X123966656Y-104047617D02*
X124004752Y-104123808D01*
X124004752Y-104123808D02*
X124042847Y-104161903D01*
X124042847Y-104161903D02*
X124119037Y-104199998D01*
X124119037Y-104199998D02*
X124347609Y-104199998D01*
X124347609Y-104199998D02*
X124423799Y-104161903D01*
X124423799Y-104161903D02*
X124461895Y-104123808D01*
X124461895Y-104123808D02*
X124499990Y-104047617D01*
X124499990Y-104047617D02*
X124499990Y-103933331D01*
X124499990Y-104542856D02*
X123966656Y-104542856D01*
X124042847Y-104542856D02*
X124004752Y-104580951D01*
X124004752Y-104580951D02*
X123966656Y-104657141D01*
X123966656Y-104657141D02*
X123966656Y-104771427D01*
X123966656Y-104771427D02*
X124004752Y-104847618D01*
X124004752Y-104847618D02*
X124080942Y-104885713D01*
X124080942Y-104885713D02*
X124499990Y-104885713D01*
X124080942Y-104885713D02*
X124004752Y-104923808D01*
X124004752Y-104923808D02*
X123966656Y-104999999D01*
X123966656Y-104999999D02*
X123966656Y-105114284D01*
X123966656Y-105114284D02*
X124004752Y-105190475D01*
X124004752Y-105190475D02*
X124080942Y-105228570D01*
X124080942Y-105228570D02*
X124499990Y-105228570D01*
X124499990Y-105609523D02*
X123966656Y-105609523D01*
X124042847Y-105609523D02*
X124004752Y-105647618D01*
X124004752Y-105647618D02*
X123966656Y-105723808D01*
X123966656Y-105723808D02*
X123966656Y-105838094D01*
X123966656Y-105838094D02*
X124004752Y-105914285D01*
X124004752Y-105914285D02*
X124080942Y-105952380D01*
X124080942Y-105952380D02*
X124499990Y-105952380D01*
X124080942Y-105952380D02*
X124004752Y-105990475D01*
X124004752Y-105990475D02*
X123966656Y-106066666D01*
X123966656Y-106066666D02*
X123966656Y-106180951D01*
X123966656Y-106180951D02*
X124004752Y-106257142D01*
X124004752Y-106257142D02*
X124080942Y-106295237D01*
X124080942Y-106295237D02*
X124499990Y-106295237D01*
X123966656Y-107019047D02*
X124499990Y-107019047D01*
X123966656Y-106676190D02*
X124385704Y-106676190D01*
X124385704Y-106676190D02*
X124461895Y-106714285D01*
X124461895Y-106714285D02*
X124499990Y-106790475D01*
X124499990Y-106790475D02*
X124499990Y-106904761D01*
X124499990Y-106904761D02*
X124461895Y-106980952D01*
X124461895Y-106980952D02*
X124423799Y-107019047D01*
X123966656Y-107400000D02*
X124499990Y-107400000D01*
X124042847Y-107400000D02*
X124004752Y-107438095D01*
X124004752Y-107438095D02*
X123966656Y-107514285D01*
X123966656Y-107514285D02*
X123966656Y-107628571D01*
X123966656Y-107628571D02*
X124004752Y-107704762D01*
X124004752Y-107704762D02*
X124080942Y-107742857D01*
X124080942Y-107742857D02*
X124499990Y-107742857D01*
X124499990Y-108123810D02*
X123966656Y-108123810D01*
X123699990Y-108123810D02*
X123738085Y-108085714D01*
X123738085Y-108085714D02*
X123776180Y-108123810D01*
X123776180Y-108123810D02*
X123738085Y-108161905D01*
X123738085Y-108161905D02*
X123699990Y-108123810D01*
X123699990Y-108123810D02*
X123776180Y-108123810D01*
X124461895Y-108847619D02*
X124499990Y-108771428D01*
X124499990Y-108771428D02*
X124499990Y-108619047D01*
X124499990Y-108619047D02*
X124461895Y-108542857D01*
X124461895Y-108542857D02*
X124423799Y-108504762D01*
X124423799Y-108504762D02*
X124347609Y-108466666D01*
X124347609Y-108466666D02*
X124119037Y-108466666D01*
X124119037Y-108466666D02*
X124042847Y-108504762D01*
X124042847Y-108504762D02*
X124004752Y-108542857D01*
X124004752Y-108542857D02*
X123966656Y-108619047D01*
X123966656Y-108619047D02*
X123966656Y-108771428D01*
X123966656Y-108771428D02*
X124004752Y-108847619D01*
X124499990Y-109533333D02*
X124080942Y-109533333D01*
X124080942Y-109533333D02*
X124004752Y-109495238D01*
X124004752Y-109495238D02*
X123966656Y-109419047D01*
X123966656Y-109419047D02*
X123966656Y-109266666D01*
X123966656Y-109266666D02*
X124004752Y-109190476D01*
X124461895Y-109533333D02*
X124499990Y-109457142D01*
X124499990Y-109457142D02*
X124499990Y-109266666D01*
X124499990Y-109266666D02*
X124461895Y-109190476D01*
X124461895Y-109190476D02*
X124385704Y-109152380D01*
X124385704Y-109152380D02*
X124309514Y-109152380D01*
X124309514Y-109152380D02*
X124233323Y-109190476D01*
X124233323Y-109190476D02*
X124195228Y-109266666D01*
X124195228Y-109266666D02*
X124195228Y-109457142D01*
X124195228Y-109457142D02*
X124157133Y-109533333D01*
X123966656Y-109800000D02*
X123966656Y-110104762D01*
X123699990Y-109914286D02*
X124385704Y-109914286D01*
X124385704Y-109914286D02*
X124461895Y-109952381D01*
X124461895Y-109952381D02*
X124499990Y-110028571D01*
X124499990Y-110028571D02*
X124499990Y-110104762D01*
X124499990Y-110371429D02*
X123966656Y-110371429D01*
X123699990Y-110371429D02*
X123738085Y-110333333D01*
X123738085Y-110333333D02*
X123776180Y-110371429D01*
X123776180Y-110371429D02*
X123738085Y-110409524D01*
X123738085Y-110409524D02*
X123699990Y-110371429D01*
X123699990Y-110371429D02*
X123776180Y-110371429D01*
X124499990Y-110866666D02*
X124461895Y-110790476D01*
X124461895Y-110790476D02*
X124423799Y-110752381D01*
X124423799Y-110752381D02*
X124347609Y-110714285D01*
X124347609Y-110714285D02*
X124119037Y-110714285D01*
X124119037Y-110714285D02*
X124042847Y-110752381D01*
X124042847Y-110752381D02*
X124004752Y-110790476D01*
X124004752Y-110790476D02*
X123966656Y-110866666D01*
X123966656Y-110866666D02*
X123966656Y-110980952D01*
X123966656Y-110980952D02*
X124004752Y-111057143D01*
X124004752Y-111057143D02*
X124042847Y-111095238D01*
X124042847Y-111095238D02*
X124119037Y-111133333D01*
X124119037Y-111133333D02*
X124347609Y-111133333D01*
X124347609Y-111133333D02*
X124423799Y-111095238D01*
X124423799Y-111095238D02*
X124461895Y-111057143D01*
X124461895Y-111057143D02*
X124499990Y-110980952D01*
X124499990Y-110980952D02*
X124499990Y-110866666D01*
X123966656Y-111476191D02*
X124499990Y-111476191D01*
X124042847Y-111476191D02*
X124004752Y-111514286D01*
X124004752Y-111514286D02*
X123966656Y-111590476D01*
X123966656Y-111590476D02*
X123966656Y-111704762D01*
X123966656Y-111704762D02*
X124004752Y-111780953D01*
X124004752Y-111780953D02*
X124080942Y-111819048D01*
X124080942Y-111819048D02*
X124499990Y-111819048D01*
X124461895Y-112161905D02*
X124499990Y-112238096D01*
X124499990Y-112238096D02*
X124499990Y-112390477D01*
X124499990Y-112390477D02*
X124461895Y-112466667D01*
X124461895Y-112466667D02*
X124385704Y-112504763D01*
X124385704Y-112504763D02*
X124347609Y-112504763D01*
X124347609Y-112504763D02*
X124271418Y-112466667D01*
X124271418Y-112466667D02*
X124233323Y-112390477D01*
X124233323Y-112390477D02*
X124233323Y-112276191D01*
X124233323Y-112276191D02*
X124195228Y-112200001D01*
X124195228Y-112200001D02*
X124119037Y-112161905D01*
X124119037Y-112161905D02*
X124080942Y-112161905D01*
X124080942Y-112161905D02*
X124004752Y-112200001D01*
X124004752Y-112200001D02*
X123966656Y-112276191D01*
X123966656Y-112276191D02*
X123966656Y-112390477D01*
X123966656Y-112390477D02*
X124004752Y-112466667D01*
X124423799Y-113914287D02*
X124461895Y-113876191D01*
X124461895Y-113876191D02*
X124499990Y-113761906D01*
X124499990Y-113761906D02*
X124499990Y-113685715D01*
X124499990Y-113685715D02*
X124461895Y-113571429D01*
X124461895Y-113571429D02*
X124385704Y-113495239D01*
X124385704Y-113495239D02*
X124309514Y-113457144D01*
X124309514Y-113457144D02*
X124157133Y-113419048D01*
X124157133Y-113419048D02*
X124042847Y-113419048D01*
X124042847Y-113419048D02*
X123890466Y-113457144D01*
X123890466Y-113457144D02*
X123814275Y-113495239D01*
X123814275Y-113495239D02*
X123738085Y-113571429D01*
X123738085Y-113571429D02*
X123699990Y-113685715D01*
X123699990Y-113685715D02*
X123699990Y-113761906D01*
X123699990Y-113761906D02*
X123738085Y-113876191D01*
X123738085Y-113876191D02*
X123776180Y-113914287D01*
X124499990Y-114600001D02*
X124080942Y-114600001D01*
X124080942Y-114600001D02*
X124004752Y-114561906D01*
X124004752Y-114561906D02*
X123966656Y-114485715D01*
X123966656Y-114485715D02*
X123966656Y-114333334D01*
X123966656Y-114333334D02*
X124004752Y-114257144D01*
X124461895Y-114600001D02*
X124499990Y-114523810D01*
X124499990Y-114523810D02*
X124499990Y-114333334D01*
X124499990Y-114333334D02*
X124461895Y-114257144D01*
X124461895Y-114257144D02*
X124385704Y-114219048D01*
X124385704Y-114219048D02*
X124309514Y-114219048D01*
X124309514Y-114219048D02*
X124233323Y-114257144D01*
X124233323Y-114257144D02*
X124195228Y-114333334D01*
X124195228Y-114333334D02*
X124195228Y-114523810D01*
X124195228Y-114523810D02*
X124157133Y-114600001D01*
X123966656Y-114980954D02*
X124766656Y-114980954D01*
X124004752Y-114980954D02*
X123966656Y-115057144D01*
X123966656Y-115057144D02*
X123966656Y-115209525D01*
X123966656Y-115209525D02*
X124004752Y-115285716D01*
X124004752Y-115285716D02*
X124042847Y-115323811D01*
X124042847Y-115323811D02*
X124119037Y-115361906D01*
X124119037Y-115361906D02*
X124347609Y-115361906D01*
X124347609Y-115361906D02*
X124423799Y-115323811D01*
X124423799Y-115323811D02*
X124461895Y-115285716D01*
X124461895Y-115285716D02*
X124499990Y-115209525D01*
X124499990Y-115209525D02*
X124499990Y-115057144D01*
X124499990Y-115057144D02*
X124461895Y-114980954D01*
X124461895Y-116009526D02*
X124499990Y-115933335D01*
X124499990Y-115933335D02*
X124499990Y-115780954D01*
X124499990Y-115780954D02*
X124461895Y-115704764D01*
X124461895Y-115704764D02*
X124385704Y-115666668D01*
X124385704Y-115666668D02*
X124080942Y-115666668D01*
X124080942Y-115666668D02*
X124004752Y-115704764D01*
X124004752Y-115704764D02*
X123966656Y-115780954D01*
X123966656Y-115780954D02*
X123966656Y-115933335D01*
X123966656Y-115933335D02*
X124004752Y-116009526D01*
X124004752Y-116009526D02*
X124080942Y-116047621D01*
X124080942Y-116047621D02*
X124157133Y-116047621D01*
X124157133Y-116047621D02*
X124233323Y-115666668D01*
X125368897Y-98866665D02*
X125368897Y-98599999D01*
X125787945Y-98599999D02*
X124987945Y-98599999D01*
X124987945Y-98599999D02*
X124987945Y-98980951D01*
X125787945Y-99399998D02*
X125749850Y-99323808D01*
X125749850Y-99323808D02*
X125711754Y-99285713D01*
X125711754Y-99285713D02*
X125635564Y-99247617D01*
X125635564Y-99247617D02*
X125406992Y-99247617D01*
X125406992Y-99247617D02*
X125330802Y-99285713D01*
X125330802Y-99285713D02*
X125292707Y-99323808D01*
X125292707Y-99323808D02*
X125254611Y-99399998D01*
X125254611Y-99399998D02*
X125254611Y-99514284D01*
X125254611Y-99514284D02*
X125292707Y-99590475D01*
X125292707Y-99590475D02*
X125330802Y-99628570D01*
X125330802Y-99628570D02*
X125406992Y-99666665D01*
X125406992Y-99666665D02*
X125635564Y-99666665D01*
X125635564Y-99666665D02*
X125711754Y-99628570D01*
X125711754Y-99628570D02*
X125749850Y-99590475D01*
X125749850Y-99590475D02*
X125787945Y-99514284D01*
X125787945Y-99514284D02*
X125787945Y-99399998D01*
X125787945Y-100009523D02*
X125254611Y-100009523D01*
X125406992Y-100009523D02*
X125330802Y-100047618D01*
X125330802Y-100047618D02*
X125292707Y-100085713D01*
X125292707Y-100085713D02*
X125254611Y-100161904D01*
X125254611Y-100161904D02*
X125254611Y-100238094D01*
X125254611Y-100999999D02*
X125254611Y-101304761D01*
X124987945Y-101114285D02*
X125673659Y-101114285D01*
X125673659Y-101114285D02*
X125749850Y-101152380D01*
X125749850Y-101152380D02*
X125787945Y-101228570D01*
X125787945Y-101228570D02*
X125787945Y-101304761D01*
X125787945Y-101571428D02*
X124987945Y-101571428D01*
X125787945Y-101914285D02*
X125368897Y-101914285D01*
X125368897Y-101914285D02*
X125292707Y-101876190D01*
X125292707Y-101876190D02*
X125254611Y-101799999D01*
X125254611Y-101799999D02*
X125254611Y-101685713D01*
X125254611Y-101685713D02*
X125292707Y-101609523D01*
X125292707Y-101609523D02*
X125330802Y-101571428D01*
X125749850Y-102600000D02*
X125787945Y-102523809D01*
X125787945Y-102523809D02*
X125787945Y-102371428D01*
X125787945Y-102371428D02*
X125749850Y-102295238D01*
X125749850Y-102295238D02*
X125673659Y-102257142D01*
X125673659Y-102257142D02*
X125368897Y-102257142D01*
X125368897Y-102257142D02*
X125292707Y-102295238D01*
X125292707Y-102295238D02*
X125254611Y-102371428D01*
X125254611Y-102371428D02*
X125254611Y-102523809D01*
X125254611Y-102523809D02*
X125292707Y-102600000D01*
X125292707Y-102600000D02*
X125368897Y-102638095D01*
X125368897Y-102638095D02*
X125445088Y-102638095D01*
X125445088Y-102638095D02*
X125521278Y-102257142D01*
X125787945Y-103590476D02*
X124987945Y-103590476D01*
X124987945Y-103590476D02*
X124987945Y-103895238D01*
X124987945Y-103895238D02*
X125026040Y-103971428D01*
X125026040Y-103971428D02*
X125064135Y-104009523D01*
X125064135Y-104009523D02*
X125140326Y-104047619D01*
X125140326Y-104047619D02*
X125254611Y-104047619D01*
X125254611Y-104047619D02*
X125330802Y-104009523D01*
X125330802Y-104009523D02*
X125368897Y-103971428D01*
X125368897Y-103971428D02*
X125406992Y-103895238D01*
X125406992Y-103895238D02*
X125406992Y-103590476D01*
X125787945Y-104504761D02*
X125749850Y-104428571D01*
X125749850Y-104428571D02*
X125711754Y-104390476D01*
X125711754Y-104390476D02*
X125635564Y-104352380D01*
X125635564Y-104352380D02*
X125406992Y-104352380D01*
X125406992Y-104352380D02*
X125330802Y-104390476D01*
X125330802Y-104390476D02*
X125292707Y-104428571D01*
X125292707Y-104428571D02*
X125254611Y-104504761D01*
X125254611Y-104504761D02*
X125254611Y-104619047D01*
X125254611Y-104619047D02*
X125292707Y-104695238D01*
X125292707Y-104695238D02*
X125330802Y-104733333D01*
X125330802Y-104733333D02*
X125406992Y-104771428D01*
X125406992Y-104771428D02*
X125635564Y-104771428D01*
X125635564Y-104771428D02*
X125711754Y-104733333D01*
X125711754Y-104733333D02*
X125749850Y-104695238D01*
X125749850Y-104695238D02*
X125787945Y-104619047D01*
X125787945Y-104619047D02*
X125787945Y-104504761D01*
X125749850Y-105457143D02*
X125787945Y-105380952D01*
X125787945Y-105380952D02*
X125787945Y-105228571D01*
X125787945Y-105228571D02*
X125749850Y-105152381D01*
X125749850Y-105152381D02*
X125711754Y-105114286D01*
X125711754Y-105114286D02*
X125635564Y-105076190D01*
X125635564Y-105076190D02*
X125406992Y-105076190D01*
X125406992Y-105076190D02*
X125330802Y-105114286D01*
X125330802Y-105114286D02*
X125292707Y-105152381D01*
X125292707Y-105152381D02*
X125254611Y-105228571D01*
X125254611Y-105228571D02*
X125254611Y-105380952D01*
X125254611Y-105380952D02*
X125292707Y-105457143D01*
X125787945Y-105800000D02*
X124987945Y-105800000D01*
X125483183Y-105876190D02*
X125787945Y-106104762D01*
X125254611Y-106104762D02*
X125559373Y-105800000D01*
X125749850Y-106752381D02*
X125787945Y-106676190D01*
X125787945Y-106676190D02*
X125787945Y-106523809D01*
X125787945Y-106523809D02*
X125749850Y-106447619D01*
X125749850Y-106447619D02*
X125673659Y-106409523D01*
X125673659Y-106409523D02*
X125368897Y-106409523D01*
X125368897Y-106409523D02*
X125292707Y-106447619D01*
X125292707Y-106447619D02*
X125254611Y-106523809D01*
X125254611Y-106523809D02*
X125254611Y-106676190D01*
X125254611Y-106676190D02*
X125292707Y-106752381D01*
X125292707Y-106752381D02*
X125368897Y-106790476D01*
X125368897Y-106790476D02*
X125445088Y-106790476D01*
X125445088Y-106790476D02*
X125521278Y-106409523D01*
X125254611Y-107019047D02*
X125254611Y-107323809D01*
X124987945Y-107133333D02*
X125673659Y-107133333D01*
X125673659Y-107133333D02*
X125749850Y-107171428D01*
X125749850Y-107171428D02*
X125787945Y-107247618D01*
X125787945Y-107247618D02*
X125787945Y-107323809D01*
X125368897Y-107857142D02*
X125406992Y-107971428D01*
X125406992Y-107971428D02*
X125445088Y-108009523D01*
X125445088Y-108009523D02*
X125521278Y-108047619D01*
X125521278Y-108047619D02*
X125635564Y-108047619D01*
X125635564Y-108047619D02*
X125711754Y-108009523D01*
X125711754Y-108009523D02*
X125749850Y-107971428D01*
X125749850Y-107971428D02*
X125787945Y-107895238D01*
X125787945Y-107895238D02*
X125787945Y-107590476D01*
X125787945Y-107590476D02*
X124987945Y-107590476D01*
X124987945Y-107590476D02*
X124987945Y-107857142D01*
X124987945Y-107857142D02*
X125026040Y-107933333D01*
X125026040Y-107933333D02*
X125064135Y-107971428D01*
X125064135Y-107971428D02*
X125140326Y-108009523D01*
X125140326Y-108009523D02*
X125216516Y-108009523D01*
X125216516Y-108009523D02*
X125292707Y-107971428D01*
X125292707Y-107971428D02*
X125330802Y-107933333D01*
X125330802Y-107933333D02*
X125368897Y-107857142D01*
X125368897Y-107857142D02*
X125368897Y-107590476D01*
X125749850Y-108695238D02*
X125787945Y-108619047D01*
X125787945Y-108619047D02*
X125787945Y-108466666D01*
X125787945Y-108466666D02*
X125749850Y-108390476D01*
X125749850Y-108390476D02*
X125673659Y-108352380D01*
X125673659Y-108352380D02*
X125368897Y-108352380D01*
X125368897Y-108352380D02*
X125292707Y-108390476D01*
X125292707Y-108390476D02*
X125254611Y-108466666D01*
X125254611Y-108466666D02*
X125254611Y-108619047D01*
X125254611Y-108619047D02*
X125292707Y-108695238D01*
X125292707Y-108695238D02*
X125368897Y-108733333D01*
X125368897Y-108733333D02*
X125445088Y-108733333D01*
X125445088Y-108733333D02*
X125521278Y-108352380D01*
X125787945Y-109419047D02*
X125368897Y-109419047D01*
X125368897Y-109419047D02*
X125292707Y-109380952D01*
X125292707Y-109380952D02*
X125254611Y-109304761D01*
X125254611Y-109304761D02*
X125254611Y-109152380D01*
X125254611Y-109152380D02*
X125292707Y-109076190D01*
X125749850Y-109419047D02*
X125787945Y-109342856D01*
X125787945Y-109342856D02*
X125787945Y-109152380D01*
X125787945Y-109152380D02*
X125749850Y-109076190D01*
X125749850Y-109076190D02*
X125673659Y-109038094D01*
X125673659Y-109038094D02*
X125597469Y-109038094D01*
X125597469Y-109038094D02*
X125521278Y-109076190D01*
X125521278Y-109076190D02*
X125483183Y-109152380D01*
X125483183Y-109152380D02*
X125483183Y-109342856D01*
X125483183Y-109342856D02*
X125445088Y-109419047D01*
X125254611Y-110142857D02*
X125902230Y-110142857D01*
X125902230Y-110142857D02*
X125978421Y-110104762D01*
X125978421Y-110104762D02*
X126016516Y-110066666D01*
X126016516Y-110066666D02*
X126054611Y-109990476D01*
X126054611Y-109990476D02*
X126054611Y-109876190D01*
X126054611Y-109876190D02*
X126016516Y-109800000D01*
X125749850Y-110142857D02*
X125787945Y-110066666D01*
X125787945Y-110066666D02*
X125787945Y-109914285D01*
X125787945Y-109914285D02*
X125749850Y-109838095D01*
X125749850Y-109838095D02*
X125711754Y-109800000D01*
X125711754Y-109800000D02*
X125635564Y-109761904D01*
X125635564Y-109761904D02*
X125406992Y-109761904D01*
X125406992Y-109761904D02*
X125330802Y-109800000D01*
X125330802Y-109800000D02*
X125292707Y-109838095D01*
X125292707Y-109838095D02*
X125254611Y-109914285D01*
X125254611Y-109914285D02*
X125254611Y-110066666D01*
X125254611Y-110066666D02*
X125292707Y-110142857D01*
X125787945Y-110638095D02*
X125749850Y-110561905D01*
X125749850Y-110561905D02*
X125673659Y-110523810D01*
X125673659Y-110523810D02*
X124987945Y-110523810D01*
X125749850Y-111247620D02*
X125787945Y-111171429D01*
X125787945Y-111171429D02*
X125787945Y-111019048D01*
X125787945Y-111019048D02*
X125749850Y-110942858D01*
X125749850Y-110942858D02*
X125673659Y-110904762D01*
X125673659Y-110904762D02*
X125368897Y-110904762D01*
X125368897Y-110904762D02*
X125292707Y-110942858D01*
X125292707Y-110942858D02*
X125254611Y-111019048D01*
X125254611Y-111019048D02*
X125254611Y-111171429D01*
X125254611Y-111171429D02*
X125292707Y-111247620D01*
X125292707Y-111247620D02*
X125368897Y-111285715D01*
X125368897Y-111285715D02*
X125445088Y-111285715D01*
X125445088Y-111285715D02*
X125521278Y-110904762D01*
X125064135Y-111590476D02*
X125026040Y-111628572D01*
X125026040Y-111628572D02*
X124987945Y-111704762D01*
X124987945Y-111704762D02*
X124987945Y-111895238D01*
X124987945Y-111895238D02*
X125026040Y-111971429D01*
X125026040Y-111971429D02*
X125064135Y-112009524D01*
X125064135Y-112009524D02*
X125140326Y-112047619D01*
X125140326Y-112047619D02*
X125216516Y-112047619D01*
X125216516Y-112047619D02*
X125330802Y-112009524D01*
X125330802Y-112009524D02*
X125787945Y-111552381D01*
X125787945Y-111552381D02*
X125787945Y-112047619D01*
X126999709Y-98523808D02*
X127037805Y-98485712D01*
X127037805Y-98485712D02*
X127075900Y-98371427D01*
X127075900Y-98371427D02*
X127075900Y-98295236D01*
X127075900Y-98295236D02*
X127037805Y-98180950D01*
X127037805Y-98180950D02*
X126961614Y-98104760D01*
X126961614Y-98104760D02*
X126885424Y-98066665D01*
X126885424Y-98066665D02*
X126733043Y-98028569D01*
X126733043Y-98028569D02*
X126618757Y-98028569D01*
X126618757Y-98028569D02*
X126466376Y-98066665D01*
X126466376Y-98066665D02*
X126390185Y-98104760D01*
X126390185Y-98104760D02*
X126313995Y-98180950D01*
X126313995Y-98180950D02*
X126275900Y-98295236D01*
X126275900Y-98295236D02*
X126275900Y-98371427D01*
X126275900Y-98371427D02*
X126313995Y-98485712D01*
X126313995Y-98485712D02*
X126352090Y-98523808D01*
X126999709Y-99323808D02*
X127037805Y-99285712D01*
X127037805Y-99285712D02*
X127075900Y-99171427D01*
X127075900Y-99171427D02*
X127075900Y-99095236D01*
X127075900Y-99095236D02*
X127037805Y-98980950D01*
X127037805Y-98980950D02*
X126961614Y-98904760D01*
X126961614Y-98904760D02*
X126885424Y-98866665D01*
X126885424Y-98866665D02*
X126733043Y-98828569D01*
X126733043Y-98828569D02*
X126618757Y-98828569D01*
X126618757Y-98828569D02*
X126466376Y-98866665D01*
X126466376Y-98866665D02*
X126390185Y-98904760D01*
X126390185Y-98904760D02*
X126313995Y-98980950D01*
X126313995Y-98980950D02*
X126275900Y-99095236D01*
X126275900Y-99095236D02*
X126275900Y-99171427D01*
X126275900Y-99171427D02*
X126313995Y-99285712D01*
X126313995Y-99285712D02*
X126352090Y-99323808D01*
X126656852Y-100542855D02*
X126694947Y-100657141D01*
X126694947Y-100657141D02*
X126733043Y-100695236D01*
X126733043Y-100695236D02*
X126809233Y-100733332D01*
X126809233Y-100733332D02*
X126923519Y-100733332D01*
X126923519Y-100733332D02*
X126999709Y-100695236D01*
X126999709Y-100695236D02*
X127037805Y-100657141D01*
X127037805Y-100657141D02*
X127075900Y-100580951D01*
X127075900Y-100580951D02*
X127075900Y-100276189D01*
X127075900Y-100276189D02*
X126275900Y-100276189D01*
X126275900Y-100276189D02*
X126275900Y-100542855D01*
X126275900Y-100542855D02*
X126313995Y-100619046D01*
X126313995Y-100619046D02*
X126352090Y-100657141D01*
X126352090Y-100657141D02*
X126428281Y-100695236D01*
X126428281Y-100695236D02*
X126504471Y-100695236D01*
X126504471Y-100695236D02*
X126580662Y-100657141D01*
X126580662Y-100657141D02*
X126618757Y-100619046D01*
X126618757Y-100619046D02*
X126656852Y-100542855D01*
X126656852Y-100542855D02*
X126656852Y-100276189D01*
X126694947Y-101228570D02*
X127075900Y-101228570D01*
X126275900Y-100961903D02*
X126694947Y-101228570D01*
X126694947Y-101228570D02*
X126275900Y-101495236D01*
X126542566Y-102714284D02*
X127075900Y-102714284D01*
X126237805Y-102523808D02*
X126809233Y-102333331D01*
X126809233Y-102333331D02*
X126809233Y-102828570D01*
X126999709Y-103133332D02*
X127037805Y-103171427D01*
X127037805Y-103171427D02*
X127075900Y-103133332D01*
X127075900Y-103133332D02*
X127037805Y-103095236D01*
X127037805Y-103095236D02*
X126999709Y-103133332D01*
X126999709Y-103133332D02*
X127075900Y-103133332D01*
X126275900Y-103666665D02*
X126275900Y-103742855D01*
X126275900Y-103742855D02*
X126313995Y-103819046D01*
X126313995Y-103819046D02*
X126352090Y-103857141D01*
X126352090Y-103857141D02*
X126428281Y-103895236D01*
X126428281Y-103895236D02*
X126580662Y-103933331D01*
X126580662Y-103933331D02*
X126771138Y-103933331D01*
X126771138Y-103933331D02*
X126923519Y-103895236D01*
X126923519Y-103895236D02*
X126999709Y-103857141D01*
X126999709Y-103857141D02*
X127037805Y-103819046D01*
X127037805Y-103819046D02*
X127075900Y-103742855D01*
X127075900Y-103742855D02*
X127075900Y-103666665D01*
X127075900Y-103666665D02*
X127037805Y-103590474D01*
X127037805Y-103590474D02*
X126999709Y-103552379D01*
X126999709Y-103552379D02*
X126923519Y-103514284D01*
X126923519Y-103514284D02*
X126771138Y-103476188D01*
X126771138Y-103476188D02*
X126580662Y-103476188D01*
X126580662Y-103476188D02*
X126428281Y-103514284D01*
X126428281Y-103514284D02*
X126352090Y-103552379D01*
X126352090Y-103552379D02*
X126313995Y-103590474D01*
X126313995Y-103590474D02*
X126275900Y-103666665D01*
X126809233Y-104809522D02*
X126809233Y-105495237D01*
X127075900Y-106409523D02*
X126275900Y-106409523D01*
X126275900Y-106409523D02*
X126847328Y-106676189D01*
X126847328Y-106676189D02*
X126275900Y-106942856D01*
X126275900Y-106942856D02*
X127075900Y-106942856D01*
X127075900Y-107666666D02*
X126656852Y-107666666D01*
X126656852Y-107666666D02*
X126580662Y-107628571D01*
X126580662Y-107628571D02*
X126542566Y-107552380D01*
X126542566Y-107552380D02*
X126542566Y-107399999D01*
X126542566Y-107399999D02*
X126580662Y-107323809D01*
X127037805Y-107666666D02*
X127075900Y-107590475D01*
X127075900Y-107590475D02*
X127075900Y-107399999D01*
X127075900Y-107399999D02*
X127037805Y-107323809D01*
X127037805Y-107323809D02*
X126961614Y-107285713D01*
X126961614Y-107285713D02*
X126885424Y-107285713D01*
X126885424Y-107285713D02*
X126809233Y-107323809D01*
X126809233Y-107323809D02*
X126771138Y-107399999D01*
X126771138Y-107399999D02*
X126771138Y-107590475D01*
X126771138Y-107590475D02*
X126733043Y-107666666D01*
X126542566Y-107971428D02*
X127075900Y-108161904D01*
X126542566Y-108352381D02*
X127075900Y-108161904D01*
X127075900Y-108161904D02*
X127266376Y-108085714D01*
X127266376Y-108085714D02*
X127304471Y-108047619D01*
X127304471Y-108047619D02*
X127342566Y-107971428D01*
X126352090Y-109228571D02*
X126313995Y-109266667D01*
X126313995Y-109266667D02*
X126275900Y-109342857D01*
X126275900Y-109342857D02*
X126275900Y-109533333D01*
X126275900Y-109533333D02*
X126313995Y-109609524D01*
X126313995Y-109609524D02*
X126352090Y-109647619D01*
X126352090Y-109647619D02*
X126428281Y-109685714D01*
X126428281Y-109685714D02*
X126504471Y-109685714D01*
X126504471Y-109685714D02*
X126618757Y-109647619D01*
X126618757Y-109647619D02*
X127075900Y-109190476D01*
X127075900Y-109190476D02*
X127075900Y-109685714D01*
X126275900Y-110180953D02*
X126275900Y-110257143D01*
X126275900Y-110257143D02*
X126313995Y-110333334D01*
X126313995Y-110333334D02*
X126352090Y-110371429D01*
X126352090Y-110371429D02*
X126428281Y-110409524D01*
X126428281Y-110409524D02*
X126580662Y-110447619D01*
X126580662Y-110447619D02*
X126771138Y-110447619D01*
X126771138Y-110447619D02*
X126923519Y-110409524D01*
X126923519Y-110409524D02*
X126999709Y-110371429D01*
X126999709Y-110371429D02*
X127037805Y-110333334D01*
X127037805Y-110333334D02*
X127075900Y-110257143D01*
X127075900Y-110257143D02*
X127075900Y-110180953D01*
X127075900Y-110180953D02*
X127037805Y-110104762D01*
X127037805Y-110104762D02*
X126999709Y-110066667D01*
X126999709Y-110066667D02*
X126923519Y-110028572D01*
X126923519Y-110028572D02*
X126771138Y-109990476D01*
X126771138Y-109990476D02*
X126580662Y-109990476D01*
X126580662Y-109990476D02*
X126428281Y-110028572D01*
X126428281Y-110028572D02*
X126352090Y-110066667D01*
X126352090Y-110066667D02*
X126313995Y-110104762D01*
X126313995Y-110104762D02*
X126275900Y-110180953D01*
X126352090Y-110752381D02*
X126313995Y-110790477D01*
X126313995Y-110790477D02*
X126275900Y-110866667D01*
X126275900Y-110866667D02*
X126275900Y-111057143D01*
X126275900Y-111057143D02*
X126313995Y-111133334D01*
X126313995Y-111133334D02*
X126352090Y-111171429D01*
X126352090Y-111171429D02*
X126428281Y-111209524D01*
X126428281Y-111209524D02*
X126504471Y-111209524D01*
X126504471Y-111209524D02*
X126618757Y-111171429D01*
X126618757Y-111171429D02*
X127075900Y-110714286D01*
X127075900Y-110714286D02*
X127075900Y-111209524D01*
X126275900Y-111895239D02*
X126275900Y-111742858D01*
X126275900Y-111742858D02*
X126313995Y-111666667D01*
X126313995Y-111666667D02*
X126352090Y-111628572D01*
X126352090Y-111628572D02*
X126466376Y-111552382D01*
X126466376Y-111552382D02*
X126618757Y-111514286D01*
X126618757Y-111514286D02*
X126923519Y-111514286D01*
X126923519Y-111514286D02*
X126999709Y-111552382D01*
X126999709Y-111552382D02*
X127037805Y-111590477D01*
X127037805Y-111590477D02*
X127075900Y-111666667D01*
X127075900Y-111666667D02*
X127075900Y-111819048D01*
X127075900Y-111819048D02*
X127037805Y-111895239D01*
X127037805Y-111895239D02*
X126999709Y-111933334D01*
X126999709Y-111933334D02*
X126923519Y-111971429D01*
X126923519Y-111971429D02*
X126733043Y-111971429D01*
X126733043Y-111971429D02*
X126656852Y-111933334D01*
X126656852Y-111933334D02*
X126618757Y-111895239D01*
X126618757Y-111895239D02*
X126580662Y-111819048D01*
X126580662Y-111819048D02*
X126580662Y-111666667D01*
X126580662Y-111666667D02*
X126618757Y-111590477D01*
X126618757Y-111590477D02*
X126656852Y-111552382D01*
X126656852Y-111552382D02*
X126733043Y-111514286D01*
X128325760Y-101038094D02*
X128363855Y-101152380D01*
X128363855Y-101152380D02*
X128363855Y-101342856D01*
X128363855Y-101342856D02*
X128325760Y-101419047D01*
X128325760Y-101419047D02*
X128287664Y-101457142D01*
X128287664Y-101457142D02*
X128211474Y-101495237D01*
X128211474Y-101495237D02*
X128135283Y-101495237D01*
X128135283Y-101495237D02*
X128059093Y-101457142D01*
X128059093Y-101457142D02*
X128020998Y-101419047D01*
X128020998Y-101419047D02*
X127982902Y-101342856D01*
X127982902Y-101342856D02*
X127944807Y-101190475D01*
X127944807Y-101190475D02*
X127906712Y-101114285D01*
X127906712Y-101114285D02*
X127868617Y-101076190D01*
X127868617Y-101076190D02*
X127792426Y-101038094D01*
X127792426Y-101038094D02*
X127716236Y-101038094D01*
X127716236Y-101038094D02*
X127640045Y-101076190D01*
X127640045Y-101076190D02*
X127601950Y-101114285D01*
X127601950Y-101114285D02*
X127563855Y-101190475D01*
X127563855Y-101190475D02*
X127563855Y-101380952D01*
X127563855Y-101380952D02*
X127601950Y-101495237D01*
X127830521Y-101723809D02*
X127830521Y-102028571D01*
X127563855Y-101838095D02*
X128249569Y-101838095D01*
X128249569Y-101838095D02*
X128325760Y-101876190D01*
X128325760Y-101876190D02*
X128363855Y-101952380D01*
X128363855Y-101952380D02*
X128363855Y-102028571D01*
X128325760Y-102600000D02*
X128363855Y-102523809D01*
X128363855Y-102523809D02*
X128363855Y-102371428D01*
X128363855Y-102371428D02*
X128325760Y-102295238D01*
X128325760Y-102295238D02*
X128249569Y-102257142D01*
X128249569Y-102257142D02*
X127944807Y-102257142D01*
X127944807Y-102257142D02*
X127868617Y-102295238D01*
X127868617Y-102295238D02*
X127830521Y-102371428D01*
X127830521Y-102371428D02*
X127830521Y-102523809D01*
X127830521Y-102523809D02*
X127868617Y-102600000D01*
X127868617Y-102600000D02*
X127944807Y-102638095D01*
X127944807Y-102638095D02*
X128020998Y-102638095D01*
X128020998Y-102638095D02*
X128097188Y-102257142D01*
X127830521Y-102904761D02*
X128363855Y-103095237D01*
X128363855Y-103095237D02*
X127830521Y-103285714D01*
X128325760Y-103895238D02*
X128363855Y-103819047D01*
X128363855Y-103819047D02*
X128363855Y-103666666D01*
X128363855Y-103666666D02*
X128325760Y-103590476D01*
X128325760Y-103590476D02*
X128249569Y-103552380D01*
X128249569Y-103552380D02*
X127944807Y-103552380D01*
X127944807Y-103552380D02*
X127868617Y-103590476D01*
X127868617Y-103590476D02*
X127830521Y-103666666D01*
X127830521Y-103666666D02*
X127830521Y-103819047D01*
X127830521Y-103819047D02*
X127868617Y-103895238D01*
X127868617Y-103895238D02*
X127944807Y-103933333D01*
X127944807Y-103933333D02*
X128020998Y-103933333D01*
X128020998Y-103933333D02*
X128097188Y-103552380D01*
X127601950Y-105304761D02*
X127563855Y-105228571D01*
X127563855Y-105228571D02*
X127563855Y-105114285D01*
X127563855Y-105114285D02*
X127601950Y-104999999D01*
X127601950Y-104999999D02*
X127678140Y-104923809D01*
X127678140Y-104923809D02*
X127754331Y-104885714D01*
X127754331Y-104885714D02*
X127906712Y-104847618D01*
X127906712Y-104847618D02*
X128020998Y-104847618D01*
X128020998Y-104847618D02*
X128173379Y-104885714D01*
X128173379Y-104885714D02*
X128249569Y-104923809D01*
X128249569Y-104923809D02*
X128325760Y-104999999D01*
X128325760Y-104999999D02*
X128363855Y-105114285D01*
X128363855Y-105114285D02*
X128363855Y-105190476D01*
X128363855Y-105190476D02*
X128325760Y-105304761D01*
X128325760Y-105304761D02*
X128287664Y-105342857D01*
X128287664Y-105342857D02*
X128020998Y-105342857D01*
X128020998Y-105342857D02*
X128020998Y-105190476D01*
X128363855Y-105685714D02*
X127830521Y-105685714D01*
X127982902Y-105685714D02*
X127906712Y-105723809D01*
X127906712Y-105723809D02*
X127868617Y-105761904D01*
X127868617Y-105761904D02*
X127830521Y-105838095D01*
X127830521Y-105838095D02*
X127830521Y-105914285D01*
X128363855Y-106180952D02*
X127830521Y-106180952D01*
X127563855Y-106180952D02*
X127601950Y-106142856D01*
X127601950Y-106142856D02*
X127640045Y-106180952D01*
X127640045Y-106180952D02*
X127601950Y-106219047D01*
X127601950Y-106219047D02*
X127563855Y-106180952D01*
X127563855Y-106180952D02*
X127640045Y-106180952D01*
X127830521Y-106447618D02*
X127830521Y-106752380D01*
X128363855Y-106561904D02*
X127678140Y-106561904D01*
X127678140Y-106561904D02*
X127601950Y-106599999D01*
X127601950Y-106599999D02*
X127563855Y-106676189D01*
X127563855Y-106676189D02*
X127563855Y-106752380D01*
X127830521Y-106904761D02*
X127830521Y-107209523D01*
X128363855Y-107019047D02*
X127678140Y-107019047D01*
X127678140Y-107019047D02*
X127601950Y-107057142D01*
X127601950Y-107057142D02*
X127563855Y-107133332D01*
X127563855Y-107133332D02*
X127563855Y-107209523D01*
X128363855Y-107476190D02*
X127830521Y-107476190D01*
X127563855Y-107476190D02*
X127601950Y-107438094D01*
X127601950Y-107438094D02*
X127640045Y-107476190D01*
X127640045Y-107476190D02*
X127601950Y-107514285D01*
X127601950Y-107514285D02*
X127563855Y-107476190D01*
X127563855Y-107476190D02*
X127640045Y-107476190D01*
X127830521Y-107857142D02*
X128363855Y-107857142D01*
X127906712Y-107857142D02*
X127868617Y-107895237D01*
X127868617Y-107895237D02*
X127830521Y-107971427D01*
X127830521Y-107971427D02*
X127830521Y-108085713D01*
X127830521Y-108085713D02*
X127868617Y-108161904D01*
X127868617Y-108161904D02*
X127944807Y-108199999D01*
X127944807Y-108199999D02*
X128363855Y-108199999D01*
X127830521Y-108923809D02*
X128478140Y-108923809D01*
X128478140Y-108923809D02*
X128554331Y-108885714D01*
X128554331Y-108885714D02*
X128592426Y-108847618D01*
X128592426Y-108847618D02*
X128630521Y-108771428D01*
X128630521Y-108771428D02*
X128630521Y-108657142D01*
X128630521Y-108657142D02*
X128592426Y-108580952D01*
X128325760Y-108923809D02*
X128363855Y-108847618D01*
X128363855Y-108847618D02*
X128363855Y-108695237D01*
X128363855Y-108695237D02*
X128325760Y-108619047D01*
X128325760Y-108619047D02*
X128287664Y-108580952D01*
X128287664Y-108580952D02*
X128211474Y-108542856D01*
X128211474Y-108542856D02*
X127982902Y-108542856D01*
X127982902Y-108542856D02*
X127906712Y-108580952D01*
X127906712Y-108580952D02*
X127868617Y-108619047D01*
X127868617Y-108619047D02*
X127830521Y-108695237D01*
X127830521Y-108695237D02*
X127830521Y-108847618D01*
X127830521Y-108847618D02*
X127868617Y-108923809D01*
X129651810Y-96600000D02*
X128851810Y-96600000D01*
X128851810Y-96600000D02*
X128851810Y-96904762D01*
X128851810Y-96904762D02*
X128889905Y-96980952D01*
X128889905Y-96980952D02*
X128928000Y-97019047D01*
X128928000Y-97019047D02*
X129004191Y-97057143D01*
X129004191Y-97057143D02*
X129118476Y-97057143D01*
X129118476Y-97057143D02*
X129194667Y-97019047D01*
X129194667Y-97019047D02*
X129232762Y-96980952D01*
X129232762Y-96980952D02*
X129270857Y-96904762D01*
X129270857Y-96904762D02*
X129270857Y-96600000D01*
X129232762Y-97400000D02*
X129232762Y-97666666D01*
X129651810Y-97780952D02*
X129651810Y-97400000D01*
X129651810Y-97400000D02*
X128851810Y-97400000D01*
X128851810Y-97400000D02*
X128851810Y-97780952D01*
X129956572Y-98352381D02*
X129918476Y-98314286D01*
X129918476Y-98314286D02*
X129804191Y-98238095D01*
X129804191Y-98238095D02*
X129728000Y-98200000D01*
X129728000Y-98200000D02*
X129613715Y-98161905D01*
X129613715Y-98161905D02*
X129423238Y-98123810D01*
X129423238Y-98123810D02*
X129270857Y-98123810D01*
X129270857Y-98123810D02*
X129080381Y-98161905D01*
X129080381Y-98161905D02*
X128966095Y-98200000D01*
X128966095Y-98200000D02*
X128889905Y-98238095D01*
X128889905Y-98238095D02*
X128775619Y-98314286D01*
X128775619Y-98314286D02*
X128737524Y-98352381D01*
X129575619Y-99114286D02*
X129613715Y-99076190D01*
X129613715Y-99076190D02*
X129651810Y-98961905D01*
X129651810Y-98961905D02*
X129651810Y-98885714D01*
X129651810Y-98885714D02*
X129613715Y-98771428D01*
X129613715Y-98771428D02*
X129537524Y-98695238D01*
X129537524Y-98695238D02*
X129461334Y-98657143D01*
X129461334Y-98657143D02*
X129308953Y-98619047D01*
X129308953Y-98619047D02*
X129194667Y-98619047D01*
X129194667Y-98619047D02*
X129042286Y-98657143D01*
X129042286Y-98657143D02*
X128966095Y-98695238D01*
X128966095Y-98695238D02*
X128889905Y-98771428D01*
X128889905Y-98771428D02*
X128851810Y-98885714D01*
X128851810Y-98885714D02*
X128851810Y-98961905D01*
X128851810Y-98961905D02*
X128889905Y-99076190D01*
X128889905Y-99076190D02*
X128928000Y-99114286D01*
X129613715Y-99419047D02*
X129651810Y-99533333D01*
X129651810Y-99533333D02*
X129651810Y-99723809D01*
X129651810Y-99723809D02*
X129613715Y-99800000D01*
X129613715Y-99800000D02*
X129575619Y-99838095D01*
X129575619Y-99838095D02*
X129499429Y-99876190D01*
X129499429Y-99876190D02*
X129423238Y-99876190D01*
X129423238Y-99876190D02*
X129347048Y-99838095D01*
X129347048Y-99838095D02*
X129308953Y-99800000D01*
X129308953Y-99800000D02*
X129270857Y-99723809D01*
X129270857Y-99723809D02*
X129232762Y-99571428D01*
X129232762Y-99571428D02*
X129194667Y-99495238D01*
X129194667Y-99495238D02*
X129156572Y-99457143D01*
X129156572Y-99457143D02*
X129080381Y-99419047D01*
X129080381Y-99419047D02*
X129004191Y-99419047D01*
X129004191Y-99419047D02*
X128928000Y-99457143D01*
X128928000Y-99457143D02*
X128889905Y-99495238D01*
X128889905Y-99495238D02*
X128851810Y-99571428D01*
X128851810Y-99571428D02*
X128851810Y-99761905D01*
X128851810Y-99761905D02*
X128889905Y-99876190D01*
X129232762Y-100219048D02*
X129232762Y-100485714D01*
X129651810Y-100600000D02*
X129651810Y-100219048D01*
X129651810Y-100219048D02*
X128851810Y-100219048D01*
X128851810Y-100219048D02*
X128851810Y-100600000D01*
X129956572Y-100866667D02*
X129918476Y-100904762D01*
X129918476Y-100904762D02*
X129804191Y-100980953D01*
X129804191Y-100980953D02*
X129728000Y-101019048D01*
X129728000Y-101019048D02*
X129613715Y-101057143D01*
X129613715Y-101057143D02*
X129423238Y-101095239D01*
X129423238Y-101095239D02*
X129270857Y-101095239D01*
X129270857Y-101095239D02*
X129080381Y-101057143D01*
X129080381Y-101057143D02*
X128966095Y-101019048D01*
X128966095Y-101019048D02*
X128889905Y-100980953D01*
X128889905Y-100980953D02*
X128775619Y-100904762D01*
X128775619Y-100904762D02*
X128737524Y-100866667D01*
X129613715Y-101514286D02*
X129651810Y-101514286D01*
X129651810Y-101514286D02*
X129728000Y-101476191D01*
X129728000Y-101476191D02*
X129766095Y-101438095D01*
X129575619Y-102923810D02*
X129613715Y-102885714D01*
X129613715Y-102885714D02*
X129651810Y-102771429D01*
X129651810Y-102771429D02*
X129651810Y-102695238D01*
X129651810Y-102695238D02*
X129613715Y-102580952D01*
X129613715Y-102580952D02*
X129537524Y-102504762D01*
X129537524Y-102504762D02*
X129461334Y-102466667D01*
X129461334Y-102466667D02*
X129308953Y-102428571D01*
X129308953Y-102428571D02*
X129194667Y-102428571D01*
X129194667Y-102428571D02*
X129042286Y-102466667D01*
X129042286Y-102466667D02*
X128966095Y-102504762D01*
X128966095Y-102504762D02*
X128889905Y-102580952D01*
X128889905Y-102580952D02*
X128851810Y-102695238D01*
X128851810Y-102695238D02*
X128851810Y-102771429D01*
X128851810Y-102771429D02*
X128889905Y-102885714D01*
X128889905Y-102885714D02*
X128928000Y-102923810D01*
X129651810Y-103266667D02*
X128851810Y-103266667D01*
X129613715Y-103609523D02*
X129651810Y-103723809D01*
X129651810Y-103723809D02*
X129651810Y-103914285D01*
X129651810Y-103914285D02*
X129613715Y-103990476D01*
X129613715Y-103990476D02*
X129575619Y-104028571D01*
X129575619Y-104028571D02*
X129499429Y-104066666D01*
X129499429Y-104066666D02*
X129423238Y-104066666D01*
X129423238Y-104066666D02*
X129347048Y-104028571D01*
X129347048Y-104028571D02*
X129308953Y-103990476D01*
X129308953Y-103990476D02*
X129270857Y-103914285D01*
X129270857Y-103914285D02*
X129232762Y-103761904D01*
X129232762Y-103761904D02*
X129194667Y-103685714D01*
X129194667Y-103685714D02*
X129156572Y-103647619D01*
X129156572Y-103647619D02*
X129080381Y-103609523D01*
X129080381Y-103609523D02*
X129004191Y-103609523D01*
X129004191Y-103609523D02*
X128928000Y-103647619D01*
X128928000Y-103647619D02*
X128889905Y-103685714D01*
X128889905Y-103685714D02*
X128851810Y-103761904D01*
X128851810Y-103761904D02*
X128851810Y-103952381D01*
X128851810Y-103952381D02*
X128889905Y-104066666D01*
X129613715Y-104371428D02*
X129651810Y-104485714D01*
X129651810Y-104485714D02*
X129651810Y-104676190D01*
X129651810Y-104676190D02*
X129613715Y-104752381D01*
X129613715Y-104752381D02*
X129575619Y-104790476D01*
X129575619Y-104790476D02*
X129499429Y-104828571D01*
X129499429Y-104828571D02*
X129423238Y-104828571D01*
X129423238Y-104828571D02*
X129347048Y-104790476D01*
X129347048Y-104790476D02*
X129308953Y-104752381D01*
X129308953Y-104752381D02*
X129270857Y-104676190D01*
X129270857Y-104676190D02*
X129232762Y-104523809D01*
X129232762Y-104523809D02*
X129194667Y-104447619D01*
X129194667Y-104447619D02*
X129156572Y-104409524D01*
X129156572Y-104409524D02*
X129080381Y-104371428D01*
X129080381Y-104371428D02*
X129004191Y-104371428D01*
X129004191Y-104371428D02*
X128928000Y-104409524D01*
X128928000Y-104409524D02*
X128889905Y-104447619D01*
X128889905Y-104447619D02*
X128851810Y-104523809D01*
X128851810Y-104523809D02*
X128851810Y-104714286D01*
X128851810Y-104714286D02*
X128889905Y-104828571D01*
X129651810Y-105171429D02*
X128851810Y-105171429D01*
X128851810Y-105171429D02*
X128851810Y-105476191D01*
X128851810Y-105476191D02*
X128889905Y-105552381D01*
X128889905Y-105552381D02*
X128928000Y-105590476D01*
X128928000Y-105590476D02*
X129004191Y-105628572D01*
X129004191Y-105628572D02*
X129118476Y-105628572D01*
X129118476Y-105628572D02*
X129194667Y-105590476D01*
X129194667Y-105590476D02*
X129232762Y-105552381D01*
X129232762Y-105552381D02*
X129270857Y-105476191D01*
X129270857Y-105476191D02*
X129270857Y-105171429D01*
X129347048Y-105971429D02*
X129347048Y-106580953D01*
X129651810Y-106961905D02*
X128851810Y-106961905D01*
X129613715Y-107304761D02*
X129651810Y-107419047D01*
X129651810Y-107419047D02*
X129651810Y-107609523D01*
X129651810Y-107609523D02*
X129613715Y-107685714D01*
X129613715Y-107685714D02*
X129575619Y-107723809D01*
X129575619Y-107723809D02*
X129499429Y-107761904D01*
X129499429Y-107761904D02*
X129423238Y-107761904D01*
X129423238Y-107761904D02*
X129347048Y-107723809D01*
X129347048Y-107723809D02*
X129308953Y-107685714D01*
X129308953Y-107685714D02*
X129270857Y-107609523D01*
X129270857Y-107609523D02*
X129232762Y-107457142D01*
X129232762Y-107457142D02*
X129194667Y-107380952D01*
X129194667Y-107380952D02*
X129156572Y-107342857D01*
X129156572Y-107342857D02*
X129080381Y-107304761D01*
X129080381Y-107304761D02*
X129004191Y-107304761D01*
X129004191Y-107304761D02*
X128928000Y-107342857D01*
X128928000Y-107342857D02*
X128889905Y-107380952D01*
X128889905Y-107380952D02*
X128851810Y-107457142D01*
X128851810Y-107457142D02*
X128851810Y-107647619D01*
X128851810Y-107647619D02*
X128889905Y-107761904D01*
X129613715Y-108066666D02*
X129651810Y-108180952D01*
X129651810Y-108180952D02*
X129651810Y-108371428D01*
X129651810Y-108371428D02*
X129613715Y-108447619D01*
X129613715Y-108447619D02*
X129575619Y-108485714D01*
X129575619Y-108485714D02*
X129499429Y-108523809D01*
X129499429Y-108523809D02*
X129423238Y-108523809D01*
X129423238Y-108523809D02*
X129347048Y-108485714D01*
X129347048Y-108485714D02*
X129308953Y-108447619D01*
X129308953Y-108447619D02*
X129270857Y-108371428D01*
X129270857Y-108371428D02*
X129232762Y-108219047D01*
X129232762Y-108219047D02*
X129194667Y-108142857D01*
X129194667Y-108142857D02*
X129156572Y-108104762D01*
X129156572Y-108104762D02*
X129080381Y-108066666D01*
X129080381Y-108066666D02*
X129004191Y-108066666D01*
X129004191Y-108066666D02*
X128928000Y-108104762D01*
X128928000Y-108104762D02*
X128889905Y-108142857D01*
X128889905Y-108142857D02*
X128851810Y-108219047D01*
X128851810Y-108219047D02*
X128851810Y-108409524D01*
X128851810Y-108409524D02*
X128889905Y-108523809D01*
X129232762Y-108866667D02*
X129232762Y-109133333D01*
X129651810Y-109247619D02*
X129651810Y-108866667D01*
X129651810Y-108866667D02*
X128851810Y-108866667D01*
X128851810Y-108866667D02*
X128851810Y-109247619D01*
X129651810Y-109590477D02*
X128851810Y-109590477D01*
X128851810Y-109590477D02*
X128851810Y-109895239D01*
X128851810Y-109895239D02*
X128889905Y-109971429D01*
X128889905Y-109971429D02*
X128928000Y-110009524D01*
X128928000Y-110009524D02*
X129004191Y-110047620D01*
X129004191Y-110047620D02*
X129118476Y-110047620D01*
X129118476Y-110047620D02*
X129194667Y-110009524D01*
X129194667Y-110009524D02*
X129232762Y-109971429D01*
X129232762Y-109971429D02*
X129270857Y-109895239D01*
X129270857Y-109895239D02*
X129270857Y-109590477D01*
X129613715Y-110428572D02*
X129651810Y-110428572D01*
X129651810Y-110428572D02*
X129728000Y-110390477D01*
X129728000Y-110390477D02*
X129766095Y-110352381D01*
X129575619Y-111838096D02*
X129613715Y-111800000D01*
X129613715Y-111800000D02*
X129651810Y-111685715D01*
X129651810Y-111685715D02*
X129651810Y-111609524D01*
X129651810Y-111609524D02*
X129613715Y-111495238D01*
X129613715Y-111495238D02*
X129537524Y-111419048D01*
X129537524Y-111419048D02*
X129461334Y-111380953D01*
X129461334Y-111380953D02*
X129308953Y-111342857D01*
X129308953Y-111342857D02*
X129194667Y-111342857D01*
X129194667Y-111342857D02*
X129042286Y-111380953D01*
X129042286Y-111380953D02*
X128966095Y-111419048D01*
X128966095Y-111419048D02*
X128889905Y-111495238D01*
X128889905Y-111495238D02*
X128851810Y-111609524D01*
X128851810Y-111609524D02*
X128851810Y-111685715D01*
X128851810Y-111685715D02*
X128889905Y-111800000D01*
X128889905Y-111800000D02*
X128928000Y-111838096D01*
X129651810Y-112180953D02*
X128851810Y-112180953D01*
X128851810Y-112180953D02*
X128851810Y-112485715D01*
X128851810Y-112485715D02*
X128889905Y-112561905D01*
X128889905Y-112561905D02*
X128928000Y-112600000D01*
X128928000Y-112600000D02*
X129004191Y-112638096D01*
X129004191Y-112638096D02*
X129118476Y-112638096D01*
X129118476Y-112638096D02*
X129194667Y-112600000D01*
X129194667Y-112600000D02*
X129232762Y-112561905D01*
X129232762Y-112561905D02*
X129270857Y-112485715D01*
X129270857Y-112485715D02*
X129270857Y-112180953D01*
X129651810Y-112980953D02*
X128851810Y-112980953D01*
X128851810Y-112980953D02*
X128851810Y-113285715D01*
X128851810Y-113285715D02*
X128889905Y-113361905D01*
X128889905Y-113361905D02*
X128928000Y-113400000D01*
X128928000Y-113400000D02*
X129004191Y-113438096D01*
X129004191Y-113438096D02*
X129118476Y-113438096D01*
X129118476Y-113438096D02*
X129194667Y-113400000D01*
X129194667Y-113400000D02*
X129232762Y-113361905D01*
X129232762Y-113361905D02*
X129270857Y-113285715D01*
X129270857Y-113285715D02*
X129270857Y-112980953D01*
X130177860Y-98428569D02*
X130139765Y-98352379D01*
X130139765Y-98352379D02*
X130139765Y-98238093D01*
X130139765Y-98238093D02*
X130177860Y-98123807D01*
X130177860Y-98123807D02*
X130254050Y-98047617D01*
X130254050Y-98047617D02*
X130330241Y-98009522D01*
X130330241Y-98009522D02*
X130482622Y-97971426D01*
X130482622Y-97971426D02*
X130596908Y-97971426D01*
X130596908Y-97971426D02*
X130749289Y-98009522D01*
X130749289Y-98009522D02*
X130825479Y-98047617D01*
X130825479Y-98047617D02*
X130901670Y-98123807D01*
X130901670Y-98123807D02*
X130939765Y-98238093D01*
X130939765Y-98238093D02*
X130939765Y-98314284D01*
X130939765Y-98314284D02*
X130901670Y-98428569D01*
X130901670Y-98428569D02*
X130863574Y-98466665D01*
X130863574Y-98466665D02*
X130596908Y-98466665D01*
X130596908Y-98466665D02*
X130596908Y-98314284D01*
X130939765Y-98809522D02*
X130406431Y-98809522D01*
X130558812Y-98809522D02*
X130482622Y-98847617D01*
X130482622Y-98847617D02*
X130444527Y-98885712D01*
X130444527Y-98885712D02*
X130406431Y-98961903D01*
X130406431Y-98961903D02*
X130406431Y-99038093D01*
X130939765Y-99304760D02*
X130406431Y-99304760D01*
X130139765Y-99304760D02*
X130177860Y-99266664D01*
X130177860Y-99266664D02*
X130215955Y-99304760D01*
X130215955Y-99304760D02*
X130177860Y-99342855D01*
X130177860Y-99342855D02*
X130139765Y-99304760D01*
X130139765Y-99304760D02*
X130215955Y-99304760D01*
X130406431Y-99571426D02*
X130406431Y-99876188D01*
X130939765Y-99685712D02*
X130254050Y-99685712D01*
X130254050Y-99685712D02*
X130177860Y-99723807D01*
X130177860Y-99723807D02*
X130139765Y-99799997D01*
X130139765Y-99799997D02*
X130139765Y-99876188D01*
X130406431Y-100028569D02*
X130406431Y-100333331D01*
X130939765Y-100142855D02*
X130254050Y-100142855D01*
X130254050Y-100142855D02*
X130177860Y-100180950D01*
X130177860Y-100180950D02*
X130139765Y-100257140D01*
X130139765Y-100257140D02*
X130139765Y-100333331D01*
X130939765Y-100599998D02*
X130406431Y-100599998D01*
X130139765Y-100599998D02*
X130177860Y-100561902D01*
X130177860Y-100561902D02*
X130215955Y-100599998D01*
X130215955Y-100599998D02*
X130177860Y-100638093D01*
X130177860Y-100638093D02*
X130139765Y-100599998D01*
X130139765Y-100599998D02*
X130215955Y-100599998D01*
X130406431Y-100980950D02*
X130939765Y-100980950D01*
X130482622Y-100980950D02*
X130444527Y-101019045D01*
X130444527Y-101019045D02*
X130406431Y-101095235D01*
X130406431Y-101095235D02*
X130406431Y-101209521D01*
X130406431Y-101209521D02*
X130444527Y-101285712D01*
X130444527Y-101285712D02*
X130520717Y-101323807D01*
X130520717Y-101323807D02*
X130939765Y-101323807D01*
X130406431Y-102047617D02*
X131054050Y-102047617D01*
X131054050Y-102047617D02*
X131130241Y-102009522D01*
X131130241Y-102009522D02*
X131168336Y-101971426D01*
X131168336Y-101971426D02*
X131206431Y-101895236D01*
X131206431Y-101895236D02*
X131206431Y-101780950D01*
X131206431Y-101780950D02*
X131168336Y-101704760D01*
X130901670Y-102047617D02*
X130939765Y-101971426D01*
X130939765Y-101971426D02*
X130939765Y-101819045D01*
X130939765Y-101819045D02*
X130901670Y-101742855D01*
X130901670Y-101742855D02*
X130863574Y-101704760D01*
X130863574Y-101704760D02*
X130787384Y-101666664D01*
X130787384Y-101666664D02*
X130558812Y-101666664D01*
X130558812Y-101666664D02*
X130482622Y-101704760D01*
X130482622Y-101704760D02*
X130444527Y-101742855D01*
X130444527Y-101742855D02*
X130406431Y-101819045D01*
X130406431Y-101819045D02*
X130406431Y-101971426D01*
X130406431Y-101971426D02*
X130444527Y-102047617D01*
X130139765Y-102923808D02*
X130139765Y-103380951D01*
X130939765Y-103152379D02*
X130139765Y-103152379D01*
X130901670Y-103952380D02*
X130939765Y-103876189D01*
X130939765Y-103876189D02*
X130939765Y-103723808D01*
X130939765Y-103723808D02*
X130901670Y-103647618D01*
X130901670Y-103647618D02*
X130825479Y-103609522D01*
X130825479Y-103609522D02*
X130520717Y-103609522D01*
X130520717Y-103609522D02*
X130444527Y-103647618D01*
X130444527Y-103647618D02*
X130406431Y-103723808D01*
X130406431Y-103723808D02*
X130406431Y-103876189D01*
X130406431Y-103876189D02*
X130444527Y-103952380D01*
X130444527Y-103952380D02*
X130520717Y-103990475D01*
X130520717Y-103990475D02*
X130596908Y-103990475D01*
X130596908Y-103990475D02*
X130673098Y-103609522D01*
X130901670Y-104676189D02*
X130939765Y-104599998D01*
X130939765Y-104599998D02*
X130939765Y-104447617D01*
X130939765Y-104447617D02*
X130901670Y-104371427D01*
X130901670Y-104371427D02*
X130863574Y-104333332D01*
X130863574Y-104333332D02*
X130787384Y-104295236D01*
X130787384Y-104295236D02*
X130558812Y-104295236D01*
X130558812Y-104295236D02*
X130482622Y-104333332D01*
X130482622Y-104333332D02*
X130444527Y-104371427D01*
X130444527Y-104371427D02*
X130406431Y-104447617D01*
X130406431Y-104447617D02*
X130406431Y-104599998D01*
X130406431Y-104599998D02*
X130444527Y-104676189D01*
X130939765Y-105019046D02*
X130139765Y-105019046D01*
X130939765Y-105361903D02*
X130520717Y-105361903D01*
X130520717Y-105361903D02*
X130444527Y-105323808D01*
X130444527Y-105323808D02*
X130406431Y-105247617D01*
X130406431Y-105247617D02*
X130406431Y-105133331D01*
X130406431Y-105133331D02*
X130444527Y-105057141D01*
X130444527Y-105057141D02*
X130482622Y-105019046D01*
X130406431Y-105742856D02*
X130939765Y-105742856D01*
X130482622Y-105742856D02*
X130444527Y-105780951D01*
X130444527Y-105780951D02*
X130406431Y-105857141D01*
X130406431Y-105857141D02*
X130406431Y-105971427D01*
X130406431Y-105971427D02*
X130444527Y-106047618D01*
X130444527Y-106047618D02*
X130520717Y-106085713D01*
X130520717Y-106085713D02*
X130939765Y-106085713D01*
X130939765Y-106580951D02*
X130901670Y-106504761D01*
X130901670Y-106504761D02*
X130863574Y-106466666D01*
X130863574Y-106466666D02*
X130787384Y-106428570D01*
X130787384Y-106428570D02*
X130558812Y-106428570D01*
X130558812Y-106428570D02*
X130482622Y-106466666D01*
X130482622Y-106466666D02*
X130444527Y-106504761D01*
X130444527Y-106504761D02*
X130406431Y-106580951D01*
X130406431Y-106580951D02*
X130406431Y-106695237D01*
X130406431Y-106695237D02*
X130444527Y-106771428D01*
X130444527Y-106771428D02*
X130482622Y-106809523D01*
X130482622Y-106809523D02*
X130558812Y-106847618D01*
X130558812Y-106847618D02*
X130787384Y-106847618D01*
X130787384Y-106847618D02*
X130863574Y-106809523D01*
X130863574Y-106809523D02*
X130901670Y-106771428D01*
X130901670Y-106771428D02*
X130939765Y-106695237D01*
X130939765Y-106695237D02*
X130939765Y-106580951D01*
X130939765Y-107304761D02*
X130901670Y-107228571D01*
X130901670Y-107228571D02*
X130825479Y-107190476D01*
X130825479Y-107190476D02*
X130139765Y-107190476D01*
X130939765Y-107723809D02*
X130901670Y-107647619D01*
X130901670Y-107647619D02*
X130863574Y-107609524D01*
X130863574Y-107609524D02*
X130787384Y-107571428D01*
X130787384Y-107571428D02*
X130558812Y-107571428D01*
X130558812Y-107571428D02*
X130482622Y-107609524D01*
X130482622Y-107609524D02*
X130444527Y-107647619D01*
X130444527Y-107647619D02*
X130406431Y-107723809D01*
X130406431Y-107723809D02*
X130406431Y-107838095D01*
X130406431Y-107838095D02*
X130444527Y-107914286D01*
X130444527Y-107914286D02*
X130482622Y-107952381D01*
X130482622Y-107952381D02*
X130558812Y-107990476D01*
X130558812Y-107990476D02*
X130787384Y-107990476D01*
X130787384Y-107990476D02*
X130863574Y-107952381D01*
X130863574Y-107952381D02*
X130901670Y-107914286D01*
X130901670Y-107914286D02*
X130939765Y-107838095D01*
X130939765Y-107838095D02*
X130939765Y-107723809D01*
X130406431Y-108676191D02*
X131054050Y-108676191D01*
X131054050Y-108676191D02*
X131130241Y-108638096D01*
X131130241Y-108638096D02*
X131168336Y-108600000D01*
X131168336Y-108600000D02*
X131206431Y-108523810D01*
X131206431Y-108523810D02*
X131206431Y-108409524D01*
X131206431Y-108409524D02*
X131168336Y-108333334D01*
X130901670Y-108676191D02*
X130939765Y-108600000D01*
X130939765Y-108600000D02*
X130939765Y-108447619D01*
X130939765Y-108447619D02*
X130901670Y-108371429D01*
X130901670Y-108371429D02*
X130863574Y-108333334D01*
X130863574Y-108333334D02*
X130787384Y-108295238D01*
X130787384Y-108295238D02*
X130558812Y-108295238D01*
X130558812Y-108295238D02*
X130482622Y-108333334D01*
X130482622Y-108333334D02*
X130444527Y-108371429D01*
X130444527Y-108371429D02*
X130406431Y-108447619D01*
X130406431Y-108447619D02*
X130406431Y-108600000D01*
X130406431Y-108600000D02*
X130444527Y-108676191D01*
X130406431Y-108980953D02*
X130939765Y-109171429D01*
X130406431Y-109361906D02*
X130939765Y-109171429D01*
X130939765Y-109171429D02*
X131130241Y-109095239D01*
X131130241Y-109095239D02*
X131168336Y-109057144D01*
X131168336Y-109057144D02*
X131206431Y-108980953D01*
X130939765Y-110657144D02*
X130939765Y-110276192D01*
X130939765Y-110276192D02*
X130139765Y-110276192D01*
X130939765Y-111304763D02*
X130939765Y-110923811D01*
X130939765Y-110923811D02*
X130139765Y-110923811D01*
X130863574Y-112028573D02*
X130901670Y-111990477D01*
X130901670Y-111990477D02*
X130939765Y-111876192D01*
X130939765Y-111876192D02*
X130939765Y-111800001D01*
X130939765Y-111800001D02*
X130901670Y-111685715D01*
X130901670Y-111685715D02*
X130825479Y-111609525D01*
X130825479Y-111609525D02*
X130749289Y-111571430D01*
X130749289Y-111571430D02*
X130596908Y-111533334D01*
X130596908Y-111533334D02*
X130482622Y-111533334D01*
X130482622Y-111533334D02*
X130330241Y-111571430D01*
X130330241Y-111571430D02*
X130254050Y-111609525D01*
X130254050Y-111609525D02*
X130177860Y-111685715D01*
X130177860Y-111685715D02*
X130139765Y-111800001D01*
X130139765Y-111800001D02*
X130139765Y-111876192D01*
X130139765Y-111876192D02*
X130177860Y-111990477D01*
X130177860Y-111990477D02*
X130215955Y-112028573D01*
X131694386Y-93685712D02*
X132227720Y-93838093D01*
X132227720Y-93838093D02*
X131846767Y-93990474D01*
X131846767Y-93990474D02*
X132227720Y-94142855D01*
X132227720Y-94142855D02*
X131694386Y-94295236D01*
X131694386Y-94523807D02*
X132227720Y-94676188D01*
X132227720Y-94676188D02*
X131846767Y-94828569D01*
X131846767Y-94828569D02*
X132227720Y-94980950D01*
X132227720Y-94980950D02*
X131694386Y-95133331D01*
X131694386Y-95361902D02*
X132227720Y-95514283D01*
X132227720Y-95514283D02*
X131846767Y-95666664D01*
X131846767Y-95666664D02*
X132227720Y-95819045D01*
X132227720Y-95819045D02*
X131694386Y-95971426D01*
X132151529Y-96276188D02*
X132189625Y-96314283D01*
X132189625Y-96314283D02*
X132227720Y-96276188D01*
X132227720Y-96276188D02*
X132189625Y-96238092D01*
X132189625Y-96238092D02*
X132151529Y-96276188D01*
X132151529Y-96276188D02*
X132227720Y-96276188D01*
X131694386Y-96999997D02*
X132342005Y-96999997D01*
X132342005Y-96999997D02*
X132418196Y-96961902D01*
X132418196Y-96961902D02*
X132456291Y-96923806D01*
X132456291Y-96923806D02*
X132494386Y-96847616D01*
X132494386Y-96847616D02*
X132494386Y-96733330D01*
X132494386Y-96733330D02*
X132456291Y-96657140D01*
X132189625Y-96999997D02*
X132227720Y-96923806D01*
X132227720Y-96923806D02*
X132227720Y-96771425D01*
X132227720Y-96771425D02*
X132189625Y-96695235D01*
X132189625Y-96695235D02*
X132151529Y-96657140D01*
X132151529Y-96657140D02*
X132075339Y-96619044D01*
X132075339Y-96619044D02*
X131846767Y-96619044D01*
X131846767Y-96619044D02*
X131770577Y-96657140D01*
X131770577Y-96657140D02*
X131732482Y-96695235D01*
X131732482Y-96695235D02*
X131694386Y-96771425D01*
X131694386Y-96771425D02*
X131694386Y-96923806D01*
X131694386Y-96923806D02*
X131732482Y-96999997D01*
X132227720Y-97380950D02*
X131694386Y-97380950D01*
X131427720Y-97380950D02*
X131465815Y-97342854D01*
X131465815Y-97342854D02*
X131503910Y-97380950D01*
X131503910Y-97380950D02*
X131465815Y-97419045D01*
X131465815Y-97419045D02*
X131427720Y-97380950D01*
X131427720Y-97380950D02*
X131503910Y-97380950D01*
X131694386Y-97647616D02*
X131694386Y-97952378D01*
X131427720Y-97761902D02*
X132113434Y-97761902D01*
X132113434Y-97761902D02*
X132189625Y-97799997D01*
X132189625Y-97799997D02*
X132227720Y-97876187D01*
X132227720Y-97876187D02*
X132227720Y-97952378D01*
X132227720Y-98219045D02*
X131427720Y-98219045D01*
X132227720Y-98561902D02*
X131808672Y-98561902D01*
X131808672Y-98561902D02*
X131732482Y-98523807D01*
X131732482Y-98523807D02*
X131694386Y-98447616D01*
X131694386Y-98447616D02*
X131694386Y-98333330D01*
X131694386Y-98333330D02*
X131732482Y-98257140D01*
X131732482Y-98257140D02*
X131770577Y-98219045D01*
X131694386Y-99285712D02*
X132227720Y-99285712D01*
X131694386Y-98942855D02*
X132113434Y-98942855D01*
X132113434Y-98942855D02*
X132189625Y-98980950D01*
X132189625Y-98980950D02*
X132227720Y-99057140D01*
X132227720Y-99057140D02*
X132227720Y-99171426D01*
X132227720Y-99171426D02*
X132189625Y-99247617D01*
X132189625Y-99247617D02*
X132151529Y-99285712D01*
X132227720Y-99666665D02*
X131427720Y-99666665D01*
X131732482Y-99666665D02*
X131694386Y-99742855D01*
X131694386Y-99742855D02*
X131694386Y-99895236D01*
X131694386Y-99895236D02*
X131732482Y-99971427D01*
X131732482Y-99971427D02*
X131770577Y-100009522D01*
X131770577Y-100009522D02*
X131846767Y-100047617D01*
X131846767Y-100047617D02*
X132075339Y-100047617D01*
X132075339Y-100047617D02*
X132151529Y-100009522D01*
X132151529Y-100009522D02*
X132189625Y-99971427D01*
X132189625Y-99971427D02*
X132227720Y-99895236D01*
X132227720Y-99895236D02*
X132227720Y-99742855D01*
X132227720Y-99742855D02*
X132189625Y-99666665D01*
X132151529Y-100390475D02*
X132189625Y-100428570D01*
X132189625Y-100428570D02*
X132227720Y-100390475D01*
X132227720Y-100390475D02*
X132189625Y-100352379D01*
X132189625Y-100352379D02*
X132151529Y-100390475D01*
X132151529Y-100390475D02*
X132227720Y-100390475D01*
X132189625Y-101114284D02*
X132227720Y-101038093D01*
X132227720Y-101038093D02*
X132227720Y-100885712D01*
X132227720Y-100885712D02*
X132189625Y-100809522D01*
X132189625Y-100809522D02*
X132151529Y-100771427D01*
X132151529Y-100771427D02*
X132075339Y-100733331D01*
X132075339Y-100733331D02*
X131846767Y-100733331D01*
X131846767Y-100733331D02*
X131770577Y-100771427D01*
X131770577Y-100771427D02*
X131732482Y-100809522D01*
X131732482Y-100809522D02*
X131694386Y-100885712D01*
X131694386Y-100885712D02*
X131694386Y-101038093D01*
X131694386Y-101038093D02*
X131732482Y-101114284D01*
X132227720Y-101571426D02*
X132189625Y-101495236D01*
X132189625Y-101495236D02*
X132151529Y-101457141D01*
X132151529Y-101457141D02*
X132075339Y-101419045D01*
X132075339Y-101419045D02*
X131846767Y-101419045D01*
X131846767Y-101419045D02*
X131770577Y-101457141D01*
X131770577Y-101457141D02*
X131732482Y-101495236D01*
X131732482Y-101495236D02*
X131694386Y-101571426D01*
X131694386Y-101571426D02*
X131694386Y-101685712D01*
X131694386Y-101685712D02*
X131732482Y-101761903D01*
X131732482Y-101761903D02*
X131770577Y-101799998D01*
X131770577Y-101799998D02*
X131846767Y-101838093D01*
X131846767Y-101838093D02*
X132075339Y-101838093D01*
X132075339Y-101838093D02*
X132151529Y-101799998D01*
X132151529Y-101799998D02*
X132189625Y-101761903D01*
X132189625Y-101761903D02*
X132227720Y-101685712D01*
X132227720Y-101685712D02*
X132227720Y-101571426D01*
X132227720Y-102180951D02*
X131694386Y-102180951D01*
X131770577Y-102180951D02*
X131732482Y-102219046D01*
X131732482Y-102219046D02*
X131694386Y-102295236D01*
X131694386Y-102295236D02*
X131694386Y-102409522D01*
X131694386Y-102409522D02*
X131732482Y-102485713D01*
X131732482Y-102485713D02*
X131808672Y-102523808D01*
X131808672Y-102523808D02*
X132227720Y-102523808D01*
X131808672Y-102523808D02*
X131732482Y-102561903D01*
X131732482Y-102561903D02*
X131694386Y-102638094D01*
X131694386Y-102638094D02*
X131694386Y-102752379D01*
X131694386Y-102752379D02*
X131732482Y-102828570D01*
X131732482Y-102828570D02*
X131808672Y-102866665D01*
X131808672Y-102866665D02*
X132227720Y-102866665D01*
X131389625Y-103819046D02*
X132418196Y-103133332D01*
X132189625Y-104047617D02*
X132227720Y-104161903D01*
X132227720Y-104161903D02*
X132227720Y-104352379D01*
X132227720Y-104352379D02*
X132189625Y-104428570D01*
X132189625Y-104428570D02*
X132151529Y-104466665D01*
X132151529Y-104466665D02*
X132075339Y-104504760D01*
X132075339Y-104504760D02*
X131999148Y-104504760D01*
X131999148Y-104504760D02*
X131922958Y-104466665D01*
X131922958Y-104466665D02*
X131884863Y-104428570D01*
X131884863Y-104428570D02*
X131846767Y-104352379D01*
X131846767Y-104352379D02*
X131808672Y-104199998D01*
X131808672Y-104199998D02*
X131770577Y-104123808D01*
X131770577Y-104123808D02*
X131732482Y-104085713D01*
X131732482Y-104085713D02*
X131656291Y-104047617D01*
X131656291Y-104047617D02*
X131580101Y-104047617D01*
X131580101Y-104047617D02*
X131503910Y-104085713D01*
X131503910Y-104085713D02*
X131465815Y-104123808D01*
X131465815Y-104123808D02*
X131427720Y-104199998D01*
X131427720Y-104199998D02*
X131427720Y-104390475D01*
X131427720Y-104390475D02*
X131465815Y-104504760D01*
X131694386Y-104733332D02*
X131694386Y-105038094D01*
X131427720Y-104847618D02*
X132113434Y-104847618D01*
X132113434Y-104847618D02*
X132189625Y-104885713D01*
X132189625Y-104885713D02*
X132227720Y-104961903D01*
X132227720Y-104961903D02*
X132227720Y-105038094D01*
X132227720Y-105647618D02*
X131808672Y-105647618D01*
X131808672Y-105647618D02*
X131732482Y-105609523D01*
X131732482Y-105609523D02*
X131694386Y-105533332D01*
X131694386Y-105533332D02*
X131694386Y-105380951D01*
X131694386Y-105380951D02*
X131732482Y-105304761D01*
X132189625Y-105647618D02*
X132227720Y-105571427D01*
X132227720Y-105571427D02*
X132227720Y-105380951D01*
X132227720Y-105380951D02*
X132189625Y-105304761D01*
X132189625Y-105304761D02*
X132113434Y-105266665D01*
X132113434Y-105266665D02*
X132037244Y-105266665D01*
X132037244Y-105266665D02*
X131961053Y-105304761D01*
X131961053Y-105304761D02*
X131922958Y-105380951D01*
X131922958Y-105380951D02*
X131922958Y-105571427D01*
X131922958Y-105571427D02*
X131884863Y-105647618D01*
X132227720Y-106028571D02*
X131427720Y-106028571D01*
X131732482Y-106028571D02*
X131694386Y-106104761D01*
X131694386Y-106104761D02*
X131694386Y-106257142D01*
X131694386Y-106257142D02*
X131732482Y-106333333D01*
X131732482Y-106333333D02*
X131770577Y-106371428D01*
X131770577Y-106371428D02*
X131846767Y-106409523D01*
X131846767Y-106409523D02*
X132075339Y-106409523D01*
X132075339Y-106409523D02*
X132151529Y-106371428D01*
X132151529Y-106371428D02*
X132189625Y-106333333D01*
X132189625Y-106333333D02*
X132227720Y-106257142D01*
X132227720Y-106257142D02*
X132227720Y-106104761D01*
X132227720Y-106104761D02*
X132189625Y-106028571D01*
X131922958Y-106752381D02*
X131922958Y-107361905D01*
X132227720Y-108200000D02*
X131846767Y-107933333D01*
X132227720Y-107742857D02*
X131427720Y-107742857D01*
X131427720Y-107742857D02*
X131427720Y-108047619D01*
X131427720Y-108047619D02*
X131465815Y-108123809D01*
X131465815Y-108123809D02*
X131503910Y-108161904D01*
X131503910Y-108161904D02*
X131580101Y-108200000D01*
X131580101Y-108200000D02*
X131694386Y-108200000D01*
X131694386Y-108200000D02*
X131770577Y-108161904D01*
X131770577Y-108161904D02*
X131808672Y-108123809D01*
X131808672Y-108123809D02*
X131846767Y-108047619D01*
X131846767Y-108047619D02*
X131846767Y-107742857D01*
X132227720Y-108885714D02*
X131808672Y-108885714D01*
X131808672Y-108885714D02*
X131732482Y-108847619D01*
X131732482Y-108847619D02*
X131694386Y-108771428D01*
X131694386Y-108771428D02*
X131694386Y-108619047D01*
X131694386Y-108619047D02*
X131732482Y-108542857D01*
X132189625Y-108885714D02*
X132227720Y-108809523D01*
X132227720Y-108809523D02*
X132227720Y-108619047D01*
X132227720Y-108619047D02*
X132189625Y-108542857D01*
X132189625Y-108542857D02*
X132113434Y-108504761D01*
X132113434Y-108504761D02*
X132037244Y-108504761D01*
X132037244Y-108504761D02*
X131961053Y-108542857D01*
X131961053Y-108542857D02*
X131922958Y-108619047D01*
X131922958Y-108619047D02*
X131922958Y-108809523D01*
X131922958Y-108809523D02*
X131884863Y-108885714D01*
X132227720Y-109266667D02*
X131427720Y-109266667D01*
X131732482Y-109266667D02*
X131694386Y-109342857D01*
X131694386Y-109342857D02*
X131694386Y-109495238D01*
X131694386Y-109495238D02*
X131732482Y-109571429D01*
X131732482Y-109571429D02*
X131770577Y-109609524D01*
X131770577Y-109609524D02*
X131846767Y-109647619D01*
X131846767Y-109647619D02*
X132075339Y-109647619D01*
X132075339Y-109647619D02*
X132151529Y-109609524D01*
X132151529Y-109609524D02*
X132189625Y-109571429D01*
X132189625Y-109571429D02*
X132227720Y-109495238D01*
X132227720Y-109495238D02*
X132227720Y-109342857D01*
X132227720Y-109342857D02*
X132189625Y-109266667D01*
X132227720Y-109990477D02*
X131427720Y-109990477D01*
X131732482Y-109990477D02*
X131694386Y-110066667D01*
X131694386Y-110066667D02*
X131694386Y-110219048D01*
X131694386Y-110219048D02*
X131732482Y-110295239D01*
X131732482Y-110295239D02*
X131770577Y-110333334D01*
X131770577Y-110333334D02*
X131846767Y-110371429D01*
X131846767Y-110371429D02*
X132075339Y-110371429D01*
X132075339Y-110371429D02*
X132151529Y-110333334D01*
X132151529Y-110333334D02*
X132189625Y-110295239D01*
X132189625Y-110295239D02*
X132227720Y-110219048D01*
X132227720Y-110219048D02*
X132227720Y-110066667D01*
X132227720Y-110066667D02*
X132189625Y-109990477D01*
X132227720Y-110714287D02*
X131694386Y-110714287D01*
X131427720Y-110714287D02*
X131465815Y-110676191D01*
X131465815Y-110676191D02*
X131503910Y-110714287D01*
X131503910Y-110714287D02*
X131465815Y-110752382D01*
X131465815Y-110752382D02*
X131427720Y-110714287D01*
X131427720Y-110714287D02*
X131503910Y-110714287D01*
X131694386Y-110980953D02*
X131694386Y-111285715D01*
X131427720Y-111095239D02*
X132113434Y-111095239D01*
X132113434Y-111095239D02*
X132189625Y-111133334D01*
X132189625Y-111133334D02*
X132227720Y-111209524D01*
X132227720Y-111209524D02*
X132227720Y-111285715D01*
X131922958Y-111552382D02*
X131922958Y-112161906D01*
X132151529Y-113000001D02*
X132189625Y-112961905D01*
X132189625Y-112961905D02*
X132227720Y-112847620D01*
X132227720Y-112847620D02*
X132227720Y-112771429D01*
X132227720Y-112771429D02*
X132189625Y-112657143D01*
X132189625Y-112657143D02*
X132113434Y-112580953D01*
X132113434Y-112580953D02*
X132037244Y-112542858D01*
X132037244Y-112542858D02*
X131884863Y-112504762D01*
X131884863Y-112504762D02*
X131770577Y-112504762D01*
X131770577Y-112504762D02*
X131618196Y-112542858D01*
X131618196Y-112542858D02*
X131542005Y-112580953D01*
X131542005Y-112580953D02*
X131465815Y-112657143D01*
X131465815Y-112657143D02*
X131427720Y-112771429D01*
X131427720Y-112771429D02*
X131427720Y-112847620D01*
X131427720Y-112847620D02*
X131465815Y-112961905D01*
X131465815Y-112961905D02*
X131503910Y-113000001D01*
X132227720Y-113457143D02*
X132189625Y-113380953D01*
X132189625Y-113380953D02*
X132151529Y-113342858D01*
X132151529Y-113342858D02*
X132075339Y-113304762D01*
X132075339Y-113304762D02*
X131846767Y-113304762D01*
X131846767Y-113304762D02*
X131770577Y-113342858D01*
X131770577Y-113342858D02*
X131732482Y-113380953D01*
X131732482Y-113380953D02*
X131694386Y-113457143D01*
X131694386Y-113457143D02*
X131694386Y-113571429D01*
X131694386Y-113571429D02*
X131732482Y-113647620D01*
X131732482Y-113647620D02*
X131770577Y-113685715D01*
X131770577Y-113685715D02*
X131846767Y-113723810D01*
X131846767Y-113723810D02*
X132075339Y-113723810D01*
X132075339Y-113723810D02*
X132151529Y-113685715D01*
X132151529Y-113685715D02*
X132189625Y-113647620D01*
X132189625Y-113647620D02*
X132227720Y-113571429D01*
X132227720Y-113571429D02*
X132227720Y-113457143D01*
X132227720Y-114409525D02*
X131427720Y-114409525D01*
X132189625Y-114409525D02*
X132227720Y-114333334D01*
X132227720Y-114333334D02*
X132227720Y-114180953D01*
X132227720Y-114180953D02*
X132189625Y-114104763D01*
X132189625Y-114104763D02*
X132151529Y-114066668D01*
X132151529Y-114066668D02*
X132075339Y-114028572D01*
X132075339Y-114028572D02*
X131846767Y-114028572D01*
X131846767Y-114028572D02*
X131770577Y-114066668D01*
X131770577Y-114066668D02*
X131732482Y-114104763D01*
X131732482Y-114104763D02*
X131694386Y-114180953D01*
X131694386Y-114180953D02*
X131694386Y-114333334D01*
X131694386Y-114333334D02*
X131732482Y-114409525D01*
X132227720Y-114790478D02*
X131694386Y-114790478D01*
X131427720Y-114790478D02*
X131465815Y-114752382D01*
X131465815Y-114752382D02*
X131503910Y-114790478D01*
X131503910Y-114790478D02*
X131465815Y-114828573D01*
X131465815Y-114828573D02*
X131427720Y-114790478D01*
X131427720Y-114790478D02*
X131503910Y-114790478D01*
X131694386Y-115171430D02*
X132227720Y-115171430D01*
X131770577Y-115171430D02*
X131732482Y-115209525D01*
X131732482Y-115209525D02*
X131694386Y-115285715D01*
X131694386Y-115285715D02*
X131694386Y-115400001D01*
X131694386Y-115400001D02*
X131732482Y-115476192D01*
X131732482Y-115476192D02*
X131808672Y-115514287D01*
X131808672Y-115514287D02*
X132227720Y-115514287D01*
X131694386Y-116238097D02*
X132342005Y-116238097D01*
X132342005Y-116238097D02*
X132418196Y-116200002D01*
X132418196Y-116200002D02*
X132456291Y-116161906D01*
X132456291Y-116161906D02*
X132494386Y-116085716D01*
X132494386Y-116085716D02*
X132494386Y-115971430D01*
X132494386Y-115971430D02*
X132456291Y-115895240D01*
X132189625Y-116238097D02*
X132227720Y-116161906D01*
X132227720Y-116161906D02*
X132227720Y-116009525D01*
X132227720Y-116009525D02*
X132189625Y-115933335D01*
X132189625Y-115933335D02*
X132151529Y-115895240D01*
X132151529Y-115895240D02*
X132075339Y-115857144D01*
X132075339Y-115857144D02*
X131846767Y-115857144D01*
X131846767Y-115857144D02*
X131770577Y-115895240D01*
X131770577Y-115895240D02*
X131732482Y-115933335D01*
X131732482Y-115933335D02*
X131694386Y-116009525D01*
X131694386Y-116009525D02*
X131694386Y-116161906D01*
X131694386Y-116161906D02*
X131732482Y-116238097D01*
D11*
X151333332Y-116954819D02*
X151333332Y-115954819D01*
X151333332Y-115954819D02*
X150952380Y-115954819D01*
X150952380Y-115954819D02*
X150857142Y-116002438D01*
X150857142Y-116002438D02*
X150809523Y-116050057D01*
X150809523Y-116050057D02*
X150761904Y-116145295D01*
X150761904Y-116145295D02*
X150761904Y-116288152D01*
X150761904Y-116288152D02*
X150809523Y-116383390D01*
X150809523Y-116383390D02*
X150857142Y-116431009D01*
X150857142Y-116431009D02*
X150952380Y-116478628D01*
X150952380Y-116478628D02*
X151333332Y-116478628D01*
X149999999Y-116431009D02*
X149857142Y-116478628D01*
X149857142Y-116478628D02*
X149809523Y-116526247D01*
X149809523Y-116526247D02*
X149761904Y-116621485D01*
X149761904Y-116621485D02*
X149761904Y-116764342D01*
X149761904Y-116764342D02*
X149809523Y-116859580D01*
X149809523Y-116859580D02*
X149857142Y-116907200D01*
X149857142Y-116907200D02*
X149952380Y-116954819D01*
X149952380Y-116954819D02*
X150333332Y-116954819D01*
X150333332Y-116954819D02*
X150333332Y-115954819D01*
X150333332Y-115954819D02*
X149999999Y-115954819D01*
X149999999Y-115954819D02*
X149904761Y-116002438D01*
X149904761Y-116002438D02*
X149857142Y-116050057D01*
X149857142Y-116050057D02*
X149809523Y-116145295D01*
X149809523Y-116145295D02*
X149809523Y-116240533D01*
X149809523Y-116240533D02*
X149857142Y-116335771D01*
X149857142Y-116335771D02*
X149904761Y-116383390D01*
X149904761Y-116383390D02*
X149999999Y-116431009D01*
X149999999Y-116431009D02*
X150333332Y-116431009D01*
X149380951Y-116050057D02*
X149333332Y-116002438D01*
X149333332Y-116002438D02*
X149238094Y-115954819D01*
X149238094Y-115954819D02*
X148999999Y-115954819D01*
X148999999Y-115954819D02*
X148904761Y-116002438D01*
X148904761Y-116002438D02*
X148857142Y-116050057D01*
X148857142Y-116050057D02*
X148809523Y-116145295D01*
X148809523Y-116145295D02*
X148809523Y-116240533D01*
X148809523Y-116240533D02*
X148857142Y-116383390D01*
X148857142Y-116383390D02*
X149428570Y-116954819D01*
X149428570Y-116954819D02*
X148809523Y-116954819D01*
X148380951Y-116573866D02*
X147619047Y-116573866D01*
X147142856Y-116954819D02*
X147142856Y-115954819D01*
X147142856Y-115954819D02*
X146761904Y-115954819D01*
X146761904Y-115954819D02*
X146666666Y-116002438D01*
X146666666Y-116002438D02*
X146619047Y-116050057D01*
X146619047Y-116050057D02*
X146571428Y-116145295D01*
X146571428Y-116145295D02*
X146571428Y-116288152D01*
X146571428Y-116288152D02*
X146619047Y-116383390D01*
X146619047Y-116383390D02*
X146666666Y-116431009D01*
X146666666Y-116431009D02*
X146761904Y-116478628D01*
X146761904Y-116478628D02*
X147142856Y-116478628D01*
X146190475Y-116050057D02*
X146142856Y-116002438D01*
X146142856Y-116002438D02*
X146047618Y-115954819D01*
X146047618Y-115954819D02*
X145809523Y-115954819D01*
X145809523Y-115954819D02*
X145714285Y-116002438D01*
X145714285Y-116002438D02*
X145666666Y-116050057D01*
X145666666Y-116050057D02*
X145619047Y-116145295D01*
X145619047Y-116145295D02*
X145619047Y-116240533D01*
X145619047Y-116240533D02*
X145666666Y-116383390D01*
X145666666Y-116383390D02*
X146238094Y-116954819D01*
X146238094Y-116954819D02*
X145619047Y-116954819D01*
X154824200Y-94019047D02*
X154862295Y-94133333D01*
X154862295Y-94133333D02*
X154862295Y-94323809D01*
X154862295Y-94323809D02*
X154824200Y-94400000D01*
X154824200Y-94400000D02*
X154786104Y-94438095D01*
X154786104Y-94438095D02*
X154709914Y-94476190D01*
X154709914Y-94476190D02*
X154633723Y-94476190D01*
X154633723Y-94476190D02*
X154557533Y-94438095D01*
X154557533Y-94438095D02*
X154519438Y-94400000D01*
X154519438Y-94400000D02*
X154481342Y-94323809D01*
X154481342Y-94323809D02*
X154443247Y-94171428D01*
X154443247Y-94171428D02*
X154405152Y-94095238D01*
X154405152Y-94095238D02*
X154367057Y-94057143D01*
X154367057Y-94057143D02*
X154290866Y-94019047D01*
X154290866Y-94019047D02*
X154214676Y-94019047D01*
X154214676Y-94019047D02*
X154138485Y-94057143D01*
X154138485Y-94057143D02*
X154100390Y-94095238D01*
X154100390Y-94095238D02*
X154062295Y-94171428D01*
X154062295Y-94171428D02*
X154062295Y-94361905D01*
X154062295Y-94361905D02*
X154100390Y-94476190D01*
X154862295Y-94819048D02*
X154062295Y-94819048D01*
X154062295Y-94819048D02*
X154062295Y-95009524D01*
X154062295Y-95009524D02*
X154100390Y-95123810D01*
X154100390Y-95123810D02*
X154176580Y-95200000D01*
X154176580Y-95200000D02*
X154252771Y-95238095D01*
X154252771Y-95238095D02*
X154405152Y-95276191D01*
X154405152Y-95276191D02*
X154519438Y-95276191D01*
X154519438Y-95276191D02*
X154671819Y-95238095D01*
X154671819Y-95238095D02*
X154748009Y-95200000D01*
X154748009Y-95200000D02*
X154824200Y-95123810D01*
X154824200Y-95123810D02*
X154862295Y-95009524D01*
X154862295Y-95009524D02*
X154862295Y-94819048D01*
X154557533Y-95619048D02*
X154557533Y-96228572D01*
X154062295Y-96533333D02*
X154862295Y-96723809D01*
X154862295Y-96723809D02*
X154290866Y-96876190D01*
X154290866Y-96876190D02*
X154862295Y-97028571D01*
X154862295Y-97028571D02*
X154062295Y-97219048D01*
X154443247Y-97790476D02*
X154481342Y-97904762D01*
X154481342Y-97904762D02*
X154519438Y-97942857D01*
X154519438Y-97942857D02*
X154595628Y-97980953D01*
X154595628Y-97980953D02*
X154709914Y-97980953D01*
X154709914Y-97980953D02*
X154786104Y-97942857D01*
X154786104Y-97942857D02*
X154824200Y-97904762D01*
X154824200Y-97904762D02*
X154862295Y-97828572D01*
X154862295Y-97828572D02*
X154862295Y-97523810D01*
X154862295Y-97523810D02*
X154062295Y-97523810D01*
X154062295Y-97523810D02*
X154062295Y-97790476D01*
X154062295Y-97790476D02*
X154100390Y-97866667D01*
X154100390Y-97866667D02*
X154138485Y-97904762D01*
X154138485Y-97904762D02*
X154214676Y-97942857D01*
X154214676Y-97942857D02*
X154290866Y-97942857D01*
X154290866Y-97942857D02*
X154367057Y-97904762D01*
X154367057Y-97904762D02*
X154405152Y-97866667D01*
X154405152Y-97866667D02*
X154443247Y-97790476D01*
X154443247Y-97790476D02*
X154443247Y-97523810D01*
X144852379Y-93862295D02*
X144852379Y-93062295D01*
X144852379Y-93062295D02*
X144395236Y-93862295D01*
X144395236Y-93862295D02*
X144395236Y-93062295D01*
X143861903Y-93062295D02*
X143709522Y-93062295D01*
X143709522Y-93062295D02*
X143633332Y-93100390D01*
X143633332Y-93100390D02*
X143557141Y-93176580D01*
X143557141Y-93176580D02*
X143519046Y-93328961D01*
X143519046Y-93328961D02*
X143519046Y-93595628D01*
X143519046Y-93595628D02*
X143557141Y-93748009D01*
X143557141Y-93748009D02*
X143633332Y-93824200D01*
X143633332Y-93824200D02*
X143709522Y-93862295D01*
X143709522Y-93862295D02*
X143861903Y-93862295D01*
X143861903Y-93862295D02*
X143938094Y-93824200D01*
X143938094Y-93824200D02*
X144014284Y-93748009D01*
X144014284Y-93748009D02*
X144052380Y-93595628D01*
X144052380Y-93595628D02*
X144052380Y-93328961D01*
X144052380Y-93328961D02*
X144014284Y-93176580D01*
X144014284Y-93176580D02*
X143938094Y-93100390D01*
X143938094Y-93100390D02*
X143861903Y-93062295D01*
X142719046Y-93862295D02*
X142985713Y-93481342D01*
X143176189Y-93862295D02*
X143176189Y-93062295D01*
X143176189Y-93062295D02*
X142871427Y-93062295D01*
X142871427Y-93062295D02*
X142795237Y-93100390D01*
X142795237Y-93100390D02*
X142757142Y-93138485D01*
X142757142Y-93138485D02*
X142719046Y-93214676D01*
X142719046Y-93214676D02*
X142719046Y-93328961D01*
X142719046Y-93328961D02*
X142757142Y-93405152D01*
X142757142Y-93405152D02*
X142795237Y-93443247D01*
X142795237Y-93443247D02*
X142871427Y-93481342D01*
X142871427Y-93481342D02*
X143176189Y-93481342D01*
X142376189Y-93557533D02*
X141766666Y-93557533D01*
X141119047Y-93443247D02*
X141385713Y-93443247D01*
X141385713Y-93862295D02*
X141385713Y-93062295D01*
X141385713Y-93062295D02*
X141004761Y-93062295D01*
X140319047Y-93862295D02*
X140699999Y-93862295D01*
X140699999Y-93862295D02*
X140699999Y-93062295D01*
X140090476Y-93633723D02*
X139709523Y-93633723D01*
X140166666Y-93862295D02*
X139899999Y-93062295D01*
X139899999Y-93062295D02*
X139633333Y-93862295D01*
X139404762Y-93824200D02*
X139290476Y-93862295D01*
X139290476Y-93862295D02*
X139100000Y-93862295D01*
X139100000Y-93862295D02*
X139023809Y-93824200D01*
X139023809Y-93824200D02*
X138985714Y-93786104D01*
X138985714Y-93786104D02*
X138947619Y-93709914D01*
X138947619Y-93709914D02*
X138947619Y-93633723D01*
X138947619Y-93633723D02*
X138985714Y-93557533D01*
X138985714Y-93557533D02*
X139023809Y-93519438D01*
X139023809Y-93519438D02*
X139100000Y-93481342D01*
X139100000Y-93481342D02*
X139252381Y-93443247D01*
X139252381Y-93443247D02*
X139328571Y-93405152D01*
X139328571Y-93405152D02*
X139366666Y-93367057D01*
X139366666Y-93367057D02*
X139404762Y-93290866D01*
X139404762Y-93290866D02*
X139404762Y-93214676D01*
X139404762Y-93214676D02*
X139366666Y-93138485D01*
X139366666Y-93138485D02*
X139328571Y-93100390D01*
X139328571Y-93100390D02*
X139252381Y-93062295D01*
X139252381Y-93062295D02*
X139061904Y-93062295D01*
X139061904Y-93062295D02*
X138947619Y-93100390D01*
X138604761Y-93862295D02*
X138604761Y-93062295D01*
X138604761Y-93443247D02*
X138147618Y-93443247D01*
X138147618Y-93862295D02*
X138147618Y-93062295D01*
X148914285Y-97862295D02*
X149295237Y-97862295D01*
X149295237Y-97862295D02*
X149295237Y-97062295D01*
X148495237Y-97062295D02*
X148342856Y-97062295D01*
X148342856Y-97062295D02*
X148266666Y-97100390D01*
X148266666Y-97100390D02*
X148190475Y-97176580D01*
X148190475Y-97176580D02*
X148152380Y-97328961D01*
X148152380Y-97328961D02*
X148152380Y-97595628D01*
X148152380Y-97595628D02*
X148190475Y-97748009D01*
X148190475Y-97748009D02*
X148266666Y-97824200D01*
X148266666Y-97824200D02*
X148342856Y-97862295D01*
X148342856Y-97862295D02*
X148495237Y-97862295D01*
X148495237Y-97862295D02*
X148571428Y-97824200D01*
X148571428Y-97824200D02*
X148647618Y-97748009D01*
X148647618Y-97748009D02*
X148685714Y-97595628D01*
X148685714Y-97595628D02*
X148685714Y-97328961D01*
X148685714Y-97328961D02*
X148647618Y-97176580D01*
X148647618Y-97176580D02*
X148571428Y-97100390D01*
X148571428Y-97100390D02*
X148495237Y-97062295D01*
X147352380Y-97862295D02*
X147619047Y-97481342D01*
X147809523Y-97862295D02*
X147809523Y-97062295D01*
X147809523Y-97062295D02*
X147504761Y-97062295D01*
X147504761Y-97062295D02*
X147428571Y-97100390D01*
X147428571Y-97100390D02*
X147390476Y-97138485D01*
X147390476Y-97138485D02*
X147352380Y-97214676D01*
X147352380Y-97214676D02*
X147352380Y-97328961D01*
X147352380Y-97328961D02*
X147390476Y-97405152D01*
X147390476Y-97405152D02*
X147428571Y-97443247D01*
X147428571Y-97443247D02*
X147504761Y-97481342D01*
X147504761Y-97481342D02*
X147809523Y-97481342D01*
X147047619Y-97633723D02*
X146666666Y-97633723D01*
X147123809Y-97862295D02*
X146857142Y-97062295D01*
X146857142Y-97062295D02*
X146590476Y-97862295D01*
X169766666Y-98062295D02*
X169576190Y-98862295D01*
X169576190Y-98862295D02*
X169423809Y-98290866D01*
X169423809Y-98290866D02*
X169271428Y-98862295D01*
X169271428Y-98862295D02*
X169080952Y-98062295D01*
X168776189Y-98862295D02*
X168776189Y-98062295D01*
X168128571Y-98443247D02*
X168395237Y-98443247D01*
X168395237Y-98862295D02*
X168395237Y-98062295D01*
X168395237Y-98062295D02*
X168014285Y-98062295D01*
X167709523Y-98862295D02*
X167709523Y-98062295D01*
X167328571Y-98557533D02*
X166719048Y-98557533D01*
X166071429Y-98443247D02*
X165957143Y-98481342D01*
X165957143Y-98481342D02*
X165919048Y-98519438D01*
X165919048Y-98519438D02*
X165880952Y-98595628D01*
X165880952Y-98595628D02*
X165880952Y-98709914D01*
X165880952Y-98709914D02*
X165919048Y-98786104D01*
X165919048Y-98786104D02*
X165957143Y-98824200D01*
X165957143Y-98824200D02*
X166033333Y-98862295D01*
X166033333Y-98862295D02*
X166338095Y-98862295D01*
X166338095Y-98862295D02*
X166338095Y-98062295D01*
X166338095Y-98062295D02*
X166071429Y-98062295D01*
X166071429Y-98062295D02*
X165995238Y-98100390D01*
X165995238Y-98100390D02*
X165957143Y-98138485D01*
X165957143Y-98138485D02*
X165919048Y-98214676D01*
X165919048Y-98214676D02*
X165919048Y-98290866D01*
X165919048Y-98290866D02*
X165957143Y-98367057D01*
X165957143Y-98367057D02*
X165995238Y-98405152D01*
X165995238Y-98405152D02*
X166071429Y-98443247D01*
X166071429Y-98443247D02*
X166338095Y-98443247D01*
X165652381Y-98062295D02*
X165195238Y-98062295D01*
X165423810Y-98862295D02*
X165423810Y-98062295D01*
X130562295Y-103528571D02*
X131133723Y-103528571D01*
X131133723Y-103528571D02*
X131248009Y-103490476D01*
X131248009Y-103490476D02*
X131324200Y-103414285D01*
X131324200Y-103414285D02*
X131362295Y-103300000D01*
X131362295Y-103300000D02*
X131362295Y-103223809D01*
X131438485Y-103719048D02*
X131438485Y-104328571D01*
X131324200Y-104480952D02*
X131362295Y-104595238D01*
X131362295Y-104595238D02*
X131362295Y-104785714D01*
X131362295Y-104785714D02*
X131324200Y-104861905D01*
X131324200Y-104861905D02*
X131286104Y-104900000D01*
X131286104Y-104900000D02*
X131209914Y-104938095D01*
X131209914Y-104938095D02*
X131133723Y-104938095D01*
X131133723Y-104938095D02*
X131057533Y-104900000D01*
X131057533Y-104900000D02*
X131019438Y-104861905D01*
X131019438Y-104861905D02*
X130981342Y-104785714D01*
X130981342Y-104785714D02*
X130943247Y-104633333D01*
X130943247Y-104633333D02*
X130905152Y-104557143D01*
X130905152Y-104557143D02*
X130867057Y-104519048D01*
X130867057Y-104519048D02*
X130790866Y-104480952D01*
X130790866Y-104480952D02*
X130714676Y-104480952D01*
X130714676Y-104480952D02*
X130638485Y-104519048D01*
X130638485Y-104519048D02*
X130600390Y-104557143D01*
X130600390Y-104557143D02*
X130562295Y-104633333D01*
X130562295Y-104633333D02*
X130562295Y-104823810D01*
X130562295Y-104823810D02*
X130600390Y-104938095D01*
X131362295Y-105280953D02*
X130562295Y-105280953D01*
X130562295Y-105280953D02*
X130562295Y-105471429D01*
X130562295Y-105471429D02*
X130600390Y-105585715D01*
X130600390Y-105585715D02*
X130676580Y-105661905D01*
X130676580Y-105661905D02*
X130752771Y-105700000D01*
X130752771Y-105700000D02*
X130905152Y-105738096D01*
X130905152Y-105738096D02*
X131019438Y-105738096D01*
X131019438Y-105738096D02*
X131171819Y-105700000D01*
X131171819Y-105700000D02*
X131248009Y-105661905D01*
X131248009Y-105661905D02*
X131324200Y-105585715D01*
X131324200Y-105585715D02*
X131362295Y-105471429D01*
X131362295Y-105471429D02*
X131362295Y-105280953D01*
X151833332Y-93954819D02*
X151833332Y-92954819D01*
X151833332Y-92954819D02*
X151452380Y-92954819D01*
X151452380Y-92954819D02*
X151357142Y-93002438D01*
X151357142Y-93002438D02*
X151309523Y-93050057D01*
X151309523Y-93050057D02*
X151261904Y-93145295D01*
X151261904Y-93145295D02*
X151261904Y-93288152D01*
X151261904Y-93288152D02*
X151309523Y-93383390D01*
X151309523Y-93383390D02*
X151357142Y-93431009D01*
X151357142Y-93431009D02*
X151452380Y-93478628D01*
X151452380Y-93478628D02*
X151833332Y-93478628D01*
X150499999Y-93431009D02*
X150357142Y-93478628D01*
X150357142Y-93478628D02*
X150309523Y-93526247D01*
X150309523Y-93526247D02*
X150261904Y-93621485D01*
X150261904Y-93621485D02*
X150261904Y-93764342D01*
X150261904Y-93764342D02*
X150309523Y-93859580D01*
X150309523Y-93859580D02*
X150357142Y-93907200D01*
X150357142Y-93907200D02*
X150452380Y-93954819D01*
X150452380Y-93954819D02*
X150833332Y-93954819D01*
X150833332Y-93954819D02*
X150833332Y-92954819D01*
X150833332Y-92954819D02*
X150499999Y-92954819D01*
X150499999Y-92954819D02*
X150404761Y-93002438D01*
X150404761Y-93002438D02*
X150357142Y-93050057D01*
X150357142Y-93050057D02*
X150309523Y-93145295D01*
X150309523Y-93145295D02*
X150309523Y-93240533D01*
X150309523Y-93240533D02*
X150357142Y-93335771D01*
X150357142Y-93335771D02*
X150404761Y-93383390D01*
X150404761Y-93383390D02*
X150499999Y-93431009D01*
X150499999Y-93431009D02*
X150833332Y-93431009D01*
X149880951Y-93050057D02*
X149833332Y-93002438D01*
X149833332Y-93002438D02*
X149738094Y-92954819D01*
X149738094Y-92954819D02*
X149499999Y-92954819D01*
X149499999Y-92954819D02*
X149404761Y-93002438D01*
X149404761Y-93002438D02*
X149357142Y-93050057D01*
X149357142Y-93050057D02*
X149309523Y-93145295D01*
X149309523Y-93145295D02*
X149309523Y-93240533D01*
X149309523Y-93240533D02*
X149357142Y-93383390D01*
X149357142Y-93383390D02*
X149928570Y-93954819D01*
X149928570Y-93954819D02*
X149309523Y-93954819D01*
X148880951Y-93573866D02*
X148119047Y-93573866D01*
X147642856Y-93954819D02*
X147642856Y-92954819D01*
X147642856Y-92954819D02*
X147261904Y-92954819D01*
X147261904Y-92954819D02*
X147166666Y-93002438D01*
X147166666Y-93002438D02*
X147119047Y-93050057D01*
X147119047Y-93050057D02*
X147071428Y-93145295D01*
X147071428Y-93145295D02*
X147071428Y-93288152D01*
X147071428Y-93288152D02*
X147119047Y-93383390D01*
X147119047Y-93383390D02*
X147166666Y-93431009D01*
X147166666Y-93431009D02*
X147261904Y-93478628D01*
X147261904Y-93478628D02*
X147642856Y-93478628D01*
X146119047Y-93954819D02*
X146690475Y-93954819D01*
X146404761Y-93954819D02*
X146404761Y-92954819D01*
X146404761Y-92954819D02*
X146499999Y-93097676D01*
X146499999Y-93097676D02*
X146595237Y-93192914D01*
X146595237Y-93192914D02*
X146690475Y-93240533D01*
M02*
