solid OpenSCAD_Model
  facet normal 0.991445 0.130523 0
    outer loop
      vertex 2.98858 0.261467 -1.90012e-07
      vertex 2.95442 0.520944 -1.67157
      vertex 2.95442 0.520944 -1.90012e-07
    endloop
  endfacet
  facet normal 0.991445 0.130523 0
    outer loop
      vertex 2.95442 0.520944 -1.67157
      vertex 2.98858 0.261467 -1.90012e-07
      vertex 2.98858 0.261467 -1.67157
    endloop
  endfacet
  facet normal 0.999048 0.043635 0
    outer loop
      vertex 3 0 -1.90012e-07
      vertex 2.98858 0.261467 -1.67157
      vertex 2.98858 0.261467 -1.90012e-07
    endloop
  endfacet
  facet normal 0.999048 0.043635 0
    outer loop
      vertex 2.98858 0.261467 -1.67157
      vertex 3 0 -1.90012e-07
      vertex 3 0 -1.67157
    endloop
  endfacet
  facet normal 0.976301 0.216418 0
    outer loop
      vertex 2.95442 0.520944 -1.90012e-07
      vertex 2.89778 0.776457 -1.67157
      vertex 2.89778 0.776457 -1.90012e-07
    endloop
  endfacet
  facet normal 0.976301 0.216418 0
    outer loop
      vertex 2.89778 0.776457 -1.67157
      vertex 2.95442 0.520944 -1.90012e-07
      vertex 2.95442 0.520944 -1.67157
    endloop
  endfacet
  facet normal -0.675579 -0.737287 0
    outer loop
      vertex -2.12132 -2.12132 -1.67157
      vertex -1.92836 -2.29813 -1.90012e-07
      vertex -2.12132 -2.12132 -1.90012e-07
    endloop
  endfacet
  facet normal -0.675579 -0.737287 -0
    outer loop
      vertex -1.92836 -2.29813 -1.90012e-07
      vertex -2.12132 -2.12132 -1.67157
      vertex -1.92836 -2.29813 -1.67157
    endloop
  endfacet
  facet normal -0.216418 0.976301 0
    outer loop
      vertex -0.520944 2.95442 -1.67157
      vertex -0.776457 2.89778 -1.90012e-07
      vertex -0.520944 2.95442 -1.90012e-07
    endloop
  endfacet
  facet normal -0.216418 0.976301 0
    outer loop
      vertex -0.776457 2.89778 -1.90012e-07
      vertex -0.520944 2.95442 -1.67157
      vertex -0.776457 2.89778 -1.67157
    endloop
  endfacet
  facet normal 0.216418 -0.976301 0
    outer loop
      vertex 0.520944 -2.95442 -1.67157
      vertex 0.776457 -2.89778 -1.90012e-07
      vertex 0.520944 -2.95442 -1.90012e-07
    endloop
  endfacet
  facet normal 0.216418 -0.976301 0
    outer loop
      vertex 0.776457 -2.89778 -1.90012e-07
      vertex 0.520944 -2.95442 -1.67157
      vertex 0.776457 -2.89778 -1.67157
    endloop
  endfacet
  facet normal 0.130523 0.991445 -0
    outer loop
      vertex 0.520944 2.95442 -1.67157
      vertex 0.261467 2.98858 -1.90012e-07
      vertex 0.520944 2.95442 -1.90012e-07
    endloop
  endfacet
  facet normal 0.130523 0.991445 0
    outer loop
      vertex 0.261467 2.98858 -1.90012e-07
      vertex 0.520944 2.95442 -1.67157
      vertex 0.261467 2.98858 -1.67157
    endloop
  endfacet
  facet normal 0.737287 -0.675579 0
    outer loop
      vertex 2.12132 -2.12132 -1.90012e-07
      vertex 2.29813 -1.92836 -1.67157
      vertex 2.29813 -1.92836 -1.90012e-07
    endloop
  endfacet
  facet normal 0.737287 -0.675579 0
    outer loop
      vertex 2.29813 -1.92836 -1.67157
      vertex 2.12132 -2.12132 -1.90012e-07
      vertex 2.12132 -2.12132 -1.67157
    endloop
  endfacet
  facet normal -0.46172 0.887026 0
    outer loop
      vertex -1.26785 2.71892 -1.67157
      vertex -1.5 2.59808 -1.90012e-07
      vertex -1.26785 2.71892 -1.90012e-07
    endloop
  endfacet
  facet normal -0.46172 0.887026 0
    outer loop
      vertex -1.5 2.59808 -1.90012e-07
      vertex -1.26785 2.71892 -1.67157
      vertex -1.5 2.59808 -1.67157
    endloop
  endfacet
  facet normal 0.130523 -0.991445 0
    outer loop
      vertex 0.261467 -2.98858 -1.67157
      vertex 0.520944 -2.95442 -1.90012e-07
      vertex 0.261467 -2.98858 -1.90012e-07
    endloop
  endfacet
  facet normal 0.130523 -0.991445 0
    outer loop
      vertex 0.520944 -2.95442 -1.90012e-07
      vertex 0.261467 -2.98858 -1.67157
      vertex 0.520944 -2.95442 -1.67157
    endloop
  endfacet
  facet normal -0.953716 0.300707 0
    outer loop
      vertex -2.89778 0.776457 -1.67157
      vertex -2.81908 1.02606 -1.90012e-07
      vertex -2.81908 1.02606 -1.67157
    endloop
  endfacet
  facet normal -0.953716 0.300707 0
    outer loop
      vertex -2.81908 1.02606 -1.90012e-07
      vertex -2.89778 0.776457 -1.67157
      vertex -2.89778 0.776457 -1.90012e-07
    endloop
  endfacet
  facet normal -0.537298 -0.843392 0
    outer loop
      vertex -1.72073 -2.45746 -1.67157
      vertex -1.5 -2.59808 -1.90012e-07
      vertex -1.72073 -2.45746 -1.90012e-07
    endloop
  endfacet
  facet normal -0.537298 -0.843392 -0
    outer loop
      vertex -1.5 -2.59808 -1.90012e-07
      vertex -1.72073 -2.45746 -1.67157
      vertex -1.5 -2.59808 -1.67157
    endloop
  endfacet
  facet normal 0.991445 -0.130523 0
    outer loop
      vertex 2.95442 -0.520944 -1.90012e-07
      vertex 2.98858 -0.261467 -1.67157
      vertex 2.98858 -0.261467 -1.90012e-07
    endloop
  endfacet
  facet normal 0.991445 -0.130523 0
    outer loop
      vertex 2.98858 -0.261467 -1.67157
      vertex 2.95442 -0.520944 -1.90012e-07
      vertex 2.95442 -0.520944 -1.67157
    endloop
  endfacet
  facet normal 0.608785 0.793335 -0
    outer loop
      vertex 1.92836 2.29813 -1.67157
      vertex 1.72073 2.45746 -1.90012e-07
      vertex 1.92836 2.29813 -1.90012e-07
    endloop
  endfacet
  facet normal 0.608785 0.793335 0
    outer loop
      vertex 1.72073 2.45746 -1.90012e-07
      vertex 1.92836 2.29813 -1.67157
      vertex 1.72073 2.45746 -1.67157
    endloop
  endfacet
  facet normal -0.953716 -0.300707 0
    outer loop
      vertex -2.81908 -1.02606 -1.67157
      vertex -2.89778 -0.776457 -1.90012e-07
      vertex -2.89778 -0.776457 -1.67157
    endloop
  endfacet
  facet normal -0.953716 -0.300707 0
    outer loop
      vertex -2.89778 -0.776457 -1.90012e-07
      vertex -2.81908 -1.02606 -1.67157
      vertex -2.81908 -1.02606 -1.90012e-07
    endloop
  endfacet
  facet normal -0.887026 0.46172 0
    outer loop
      vertex -2.71892 1.26785 -1.67157
      vertex -2.59808 1.5 -1.90012e-07
      vertex -2.59808 1.5 -1.67157
    endloop
  endfacet
  facet normal -0.887026 0.46172 0
    outer loop
      vertex -2.59808 1.5 -1.90012e-07
      vertex -2.71892 1.26785 -1.67157
      vertex -2.71892 1.26785 -1.90012e-07
    endloop
  endfacet
  facet normal -0.976301 -0.216418 0
    outer loop
      vertex -2.89778 -0.776457 -1.67157
      vertex -2.95442 -0.520944 -1.90012e-07
      vertex -2.95442 -0.520944 -1.67157
    endloop
  endfacet
  facet normal -0.976301 -0.216418 0
    outer loop
      vertex -2.95442 -0.520944 -1.90012e-07
      vertex -2.89778 -0.776457 -1.67157
      vertex -2.89778 -0.776457 -1.90012e-07
    endloop
  endfacet
  facet normal 0.976301 -0.216418 0
    outer loop
      vertex 2.89778 -0.776457 -1.90012e-07
      vertex 2.95442 -0.520944 -1.67157
      vertex 2.95442 -0.520944 -1.90012e-07
    endloop
  endfacet
  facet normal 0.976301 -0.216418 0
    outer loop
      vertex 2.95442 -0.520944 -1.67157
      vertex 2.89778 -0.776457 -1.90012e-07
      vertex 2.89778 -0.776457 -1.67157
    endloop
  endfacet
  facet normal 0.953716 0.300707 0
    outer loop
      vertex 2.89778 0.776457 -1.90012e-07
      vertex 2.81908 1.02606 -1.67157
      vertex 2.81908 1.02606 -1.90012e-07
    endloop
  endfacet
  facet normal 0.953716 0.300707 0
    outer loop
      vertex 2.81908 1.02606 -1.67157
      vertex 2.89778 0.776457 -1.90012e-07
      vertex 2.89778 0.776457 -1.67157
    endloop
  endfacet
  facet normal 0.608785 -0.793335 0
    outer loop
      vertex 1.72073 -2.45746 -1.67157
      vertex 1.92836 -2.29813 -1.90012e-07
      vertex 1.72073 -2.45746 -1.90012e-07
    endloop
  endfacet
  facet normal 0.608785 -0.793335 0
    outer loop
      vertex 1.92836 -2.29813 -1.90012e-07
      vertex 1.72073 -2.45746 -1.67157
      vertex 1.92836 -2.29813 -1.67157
    endloop
  endfacet
  facet normal -0.991445 -0.130523 0
    outer loop
      vertex -2.95442 -0.520944 -1.67157
      vertex -2.98858 -0.261467 -1.90012e-07
      vertex -2.98858 -0.261467 -1.67157
    endloop
  endfacet
  facet normal -0.991445 -0.130523 0
    outer loop
      vertex -2.98858 -0.261467 -1.90012e-07
      vertex -2.95442 -0.520944 -1.67157
      vertex -2.95442 -0.520944 -1.90012e-07
    endloop
  endfacet
  facet normal -0.92387 0.382707 0
    outer loop
      vertex -2.81908 1.02606 -1.67157
      vertex -2.71892 1.26785 -1.90012e-07
      vertex -2.71892 1.26785 -1.67157
    endloop
  endfacet
  facet normal -0.92387 0.382707 0
    outer loop
      vertex -2.71892 1.26785 -1.90012e-07
      vertex -2.81908 1.02606 -1.67157
      vertex -2.81908 1.02606 -1.90012e-07
    endloop
  endfacet
  facet normal 0.843392 0.537298 0
    outer loop
      vertex 2.59808 1.5 -1.90012e-07
      vertex 2.45746 1.72073 -1.67157
      vertex 2.45746 1.72073 -1.90012e-07
    endloop
  endfacet
  facet normal 0.843392 0.537298 0
    outer loop
      vertex 2.45746 1.72073 -1.67157
      vertex 2.59808 1.5 -1.90012e-07
      vertex 2.59808 1.5 -1.67157
    endloop
  endfacet
  facet normal 0.675579 -0.737287 0
    outer loop
      vertex 1.92836 -2.29813 -1.67157
      vertex 2.12132 -2.12132 -1.90012e-07
      vertex 1.92836 -2.29813 -1.90012e-07
    endloop
  endfacet
  facet normal 0.675579 -0.737287 0
    outer loop
      vertex 2.12132 -2.12132 -1.90012e-07
      vertex 1.92836 -2.29813 -1.67157
      vertex 2.12132 -2.12132 -1.67157
    endloop
  endfacet
  facet normal 0.737287 0.675579 0
    outer loop
      vertex 2.29813 1.92836 -1.90012e-07
      vertex 2.12132 2.12132 -1.67157
      vertex 2.12132 2.12132 -1.90012e-07
    endloop
  endfacet
  facet normal 0.737287 0.675579 0
    outer loop
      vertex 2.12132 2.12132 -1.67157
      vertex 2.29813 1.92836 -1.90012e-07
      vertex 2.29813 1.92836 -1.67157
    endloop
  endfacet
  facet normal 0.953716 -0.300707 0
    outer loop
      vertex 2.81908 -1.02606 -1.90012e-07
      vertex 2.89778 -0.776457 -1.67157
      vertex 2.89778 -0.776457 -1.90012e-07
    endloop
  endfacet
  facet normal 0.953716 -0.300707 0
    outer loop
      vertex 2.89778 -0.776457 -1.67157
      vertex 2.81908 -1.02606 -1.90012e-07
      vertex 2.81908 -1.02606 -1.67157
    endloop
  endfacet
  facet normal 0.382707 -0.92387 0
    outer loop
      vertex 1.02606 -2.81908 -1.67157
      vertex 1.26785 -2.71892 -1.90012e-07
      vertex 1.02606 -2.81908 -1.90012e-07
    endloop
  endfacet
  facet normal 0.382707 -0.92387 0
    outer loop
      vertex 1.26785 -2.71892 -1.90012e-07
      vertex 1.02606 -2.81908 -1.67157
      vertex 1.26785 -2.71892 -1.67157
    endloop
  endfacet
  facet normal -0.737287 0.675579 0
    outer loop
      vertex -2.29813 1.92836 -1.67157
      vertex -2.12132 2.12132 -1.90012e-07
      vertex -2.12132 2.12132 -1.67157
    endloop
  endfacet
  facet normal -0.737287 0.675579 0
    outer loop
      vertex -2.12132 2.12132 -1.90012e-07
      vertex -2.29813 1.92836 -1.67157
      vertex -2.29813 1.92836 -1.90012e-07
    endloop
  endfacet
  facet normal -0.382707 0.92387 0
    outer loop
      vertex -1.02606 2.81908 -1.67157
      vertex -1.26785 2.71892 -1.90012e-07
      vertex -1.02606 2.81908 -1.90012e-07
    endloop
  endfacet
  facet normal -0.382707 0.92387 0
    outer loop
      vertex -1.26785 2.71892 -1.90012e-07
      vertex -1.02606 2.81908 -1.67157
      vertex -1.26785 2.71892 -1.67157
    endloop
  endfacet
  facet normal -0.537298 0.843392 0
    outer loop
      vertex -1.5 2.59808 -1.67157
      vertex -1.72073 2.45746 -1.90012e-07
      vertex -1.5 2.59808 -1.90012e-07
    endloop
  endfacet
  facet normal -0.537298 0.843392 0
    outer loop
      vertex -1.72073 2.45746 -1.90012e-07
      vertex -1.5 2.59808 -1.67157
      vertex -1.72073 2.45746 -1.67157
    endloop
  endfacet
  facet normal 0.216418 0.976301 -0
    outer loop
      vertex 0.776457 2.89778 -1.67157
      vertex 0.520944 2.95442 -1.90012e-07
      vertex 0.776457 2.89778 -1.90012e-07
    endloop
  endfacet
  facet normal 0.216418 0.976301 0
    outer loop
      vertex 0.520944 2.95442 -1.90012e-07
      vertex 0.776457 2.89778 -1.67157
      vertex 0.520944 2.95442 -1.67157
    endloop
  endfacet
  facet normal 0.382707 0.92387 -0
    outer loop
      vertex 1.26785 2.71892 -1.67157
      vertex 1.02606 2.81908 -1.90012e-07
      vertex 1.26785 2.71892 -1.90012e-07
    endloop
  endfacet
  facet normal 0.382707 0.92387 0
    outer loop
      vertex 1.02606 2.81908 -1.90012e-07
      vertex 1.26785 2.71892 -1.67157
      vertex 1.02606 2.81908 -1.67157
    endloop
  endfacet
  facet normal 0.043635 0.999048 -0
    outer loop
      vertex 0.261467 2.98858 -1.67157
      vertex 0 3 -1.90012e-07
      vertex 0.261467 2.98858 -1.90012e-07
    endloop
  endfacet
  facet normal 0.043635 0.999048 0
    outer loop
      vertex 0 3 -1.90012e-07
      vertex 0.261467 2.98858 -1.67157
      vertex 0 3 -1.67157
    endloop
  endfacet
  facet normal 0.46172 -0.887026 0
    outer loop
      vertex 1.26785 -2.71892 -1.67157
      vertex 1.5 -2.59808 -1.90012e-07
      vertex 1.26785 -2.71892 -1.90012e-07
    endloop
  endfacet
  facet normal 0.46172 -0.887026 0
    outer loop
      vertex 1.5 -2.59808 -1.90012e-07
      vertex 1.26785 -2.71892 -1.67157
      vertex 1.5 -2.59808 -1.67157
    endloop
  endfacet
  facet normal 0.537298 0.843392 -0
    outer loop
      vertex 1.72073 2.45746 -1.67157
      vertex 1.5 2.59808 -1.90012e-07
      vertex 1.72073 2.45746 -1.90012e-07
    endloop
  endfacet
  facet normal 0.537298 0.843392 0
    outer loop
      vertex 1.5 2.59808 -1.90012e-07
      vertex 1.72073 2.45746 -1.67157
      vertex 1.5 2.59808 -1.67157
    endloop
  endfacet
  facet normal 0.46172 0.887026 -0
    outer loop
      vertex 1.5 2.59808 -1.67157
      vertex 1.26785 2.71892 -1.90012e-07
      vertex 1.5 2.59808 -1.90012e-07
    endloop
  endfacet
  facet normal 0.46172 0.887026 0
    outer loop
      vertex 1.26785 2.71892 -1.90012e-07
      vertex 1.5 2.59808 -1.67157
      vertex 1.26785 2.71892 -1.67157
    endloop
  endfacet
  facet normal 0.043635 -0.999048 0
    outer loop
      vertex 0 -3 -1.67157
      vertex 0.261467 -2.98858 -1.90012e-07
      vertex 0 -3 -1.90012e-07
    endloop
  endfacet
  facet normal 0.043635 -0.999048 0
    outer loop
      vertex 0.261467 -2.98858 -1.90012e-07
      vertex 0 -3 -1.67157
      vertex 0.261467 -2.98858 -1.67157
    endloop
  endfacet
  facet normal 0.843392 -0.537298 0
    outer loop
      vertex 2.45746 -1.72073 -1.90012e-07
      vertex 2.59808 -1.5 -1.67157
      vertex 2.59808 -1.5 -1.90012e-07
    endloop
  endfacet
  facet normal 0.843392 -0.537298 0
    outer loop
      vertex 2.59808 -1.5 -1.67157
      vertex 2.45746 -1.72073 -1.90012e-07
      vertex 2.45746 -1.72073 -1.67157
    endloop
  endfacet
  facet normal 0.999048 -0.043635 0
    outer loop
      vertex 2.98858 -0.261467 -1.90012e-07
      vertex 3 0 -1.67157
      vertex 3 0 -1.90012e-07
    endloop
  endfacet
  facet normal 0.999048 -0.043635 0
    outer loop
      vertex 3 0 -1.67157
      vertex 2.98858 -0.261467 -1.90012e-07
      vertex 2.98858 -0.261467 -1.67157
    endloop
  endfacet
  facet normal 0.793335 -0.608785 0
    outer loop
      vertex 2.29813 -1.92836 -1.90012e-07
      vertex 2.45746 -1.72073 -1.67157
      vertex 2.45746 -1.72073 -1.90012e-07
    endloop
  endfacet
  facet normal 0.793335 -0.608785 0
    outer loop
      vertex 2.45746 -1.72073 -1.67157
      vertex 2.29813 -1.92836 -1.90012e-07
      vertex 2.29813 -1.92836 -1.67157
    endloop
  endfacet
  facet normal -0.300707 0.953716 0
    outer loop
      vertex -0.776457 2.89778 -1.67157
      vertex -1.02606 2.81908 -1.90012e-07
      vertex -0.776457 2.89778 -1.90012e-07
    endloop
  endfacet
  facet normal -0.300707 0.953716 0
    outer loop
      vertex -1.02606 2.81908 -1.90012e-07
      vertex -0.776457 2.89778 -1.67157
      vertex -1.02606 2.81908 -1.67157
    endloop
  endfacet
  facet normal -0.843392 0.537298 0
    outer loop
      vertex -2.59808 1.5 -1.67157
      vertex -2.45746 1.72073 -1.90012e-07
      vertex -2.45746 1.72073 -1.67157
    endloop
  endfacet
  facet normal -0.843392 0.537298 0
    outer loop
      vertex -2.45746 1.72073 -1.90012e-07
      vertex -2.59808 1.5 -1.67157
      vertex -2.59808 1.5 -1.90012e-07
    endloop
  endfacet
  facet normal -0.130523 -0.991445 0
    outer loop
      vertex -0.520944 -2.95442 -1.67157
      vertex -0.261467 -2.98858 -1.90012e-07
      vertex -0.520944 -2.95442 -1.90012e-07
    endloop
  endfacet
  facet normal -0.130523 -0.991445 -0
    outer loop
      vertex -0.261467 -2.98858 -1.90012e-07
      vertex -0.520944 -2.95442 -1.67157
      vertex -0.261467 -2.98858 -1.67157
    endloop
  endfacet
  facet normal -0.793335 -0.608785 0
    outer loop
      vertex -2.29813 -1.92836 -1.67157
      vertex -2.45746 -1.72073 -1.90012e-07
      vertex -2.45746 -1.72073 -1.67157
    endloop
  endfacet
  facet normal -0.793335 -0.608785 0
    outer loop
      vertex -2.45746 -1.72073 -1.90012e-07
      vertex -2.29813 -1.92836 -1.67157
      vertex -2.29813 -1.92836 -1.90012e-07
    endloop
  endfacet
  facet normal 0.92387 0.382707 0
    outer loop
      vertex 2.81908 1.02606 -1.90012e-07
      vertex 2.71892 1.26785 -1.67157
      vertex 2.71892 1.26785 -1.90012e-07
    endloop
  endfacet
  facet normal 0.92387 0.382707 0
    outer loop
      vertex 2.71892 1.26785 -1.67157
      vertex 2.81908 1.02606 -1.90012e-07
      vertex 2.81908 1.02606 -1.67157
    endloop
  endfacet
  facet normal 0.887026 0.46172 0
    outer loop
      vertex 2.71892 1.26785 -1.90012e-07
      vertex 2.59808 1.5 -1.67157
      vertex 2.59808 1.5 -1.90012e-07
    endloop
  endfacet
  facet normal 0.887026 0.46172 0
    outer loop
      vertex 2.59808 1.5 -1.67157
      vertex 2.71892 1.26785 -1.90012e-07
      vertex 2.71892 1.26785 -1.67157
    endloop
  endfacet
  facet normal -0.843392 -0.537298 0
    outer loop
      vertex -2.45746 -1.72073 -1.67157
      vertex -2.59808 -1.5 -1.90012e-07
      vertex -2.59808 -1.5 -1.67157
    endloop
  endfacet
  facet normal -0.843392 -0.537298 0
    outer loop
      vertex -2.59808 -1.5 -1.90012e-07
      vertex -2.45746 -1.72073 -1.67157
      vertex -2.45746 -1.72073 -1.90012e-07
    endloop
  endfacet
  facet normal -0.043635 0.999048 0
    outer loop
      vertex 0 3 -1.67157
      vertex -0.261467 2.98858 -1.90012e-07
      vertex 0 3 -1.90012e-07
    endloop
  endfacet
  facet normal -0.043635 0.999048 0
    outer loop
      vertex -0.261467 2.98858 -1.90012e-07
      vertex 0 3 -1.67157
      vertex -0.261467 2.98858 -1.67157
    endloop
  endfacet
  facet normal -0.999048 -0.043635 0
    outer loop
      vertex -2.98858 -0.261467 -1.67157
      vertex -3 0 -1.90012e-07
      vertex -3 0 -1.67157
    endloop
  endfacet
  facet normal -0.999048 -0.043635 0
    outer loop
      vertex -3 0 -1.90012e-07
      vertex -2.98858 -0.261467 -1.67157
      vertex -2.98858 -0.261467 -1.90012e-07
    endloop
  endfacet
  facet normal -0.216418 -0.976301 0
    outer loop
      vertex -0.776457 -2.89778 -1.67157
      vertex -0.520944 -2.95442 -1.90012e-07
      vertex -0.776457 -2.89778 -1.90012e-07
    endloop
  endfacet
  facet normal -0.216418 -0.976301 -0
    outer loop
      vertex -0.520944 -2.95442 -1.90012e-07
      vertex -0.776457 -2.89778 -1.67157
      vertex -0.520944 -2.95442 -1.67157
    endloop
  endfacet
  facet normal -0.130523 0.991445 0
    outer loop
      vertex -0.261467 2.98858 -1.67157
      vertex -0.520944 2.95442 -1.90012e-07
      vertex -0.261467 2.98858 -1.90012e-07
    endloop
  endfacet
  facet normal -0.130523 0.991445 0
    outer loop
      vertex -0.520944 2.95442 -1.90012e-07
      vertex -0.261467 2.98858 -1.67157
      vertex -0.520944 2.95442 -1.67157
    endloop
  endfacet
  facet normal -0.793335 0.608785 0
    outer loop
      vertex -2.45746 1.72073 -1.67157
      vertex -2.29813 1.92836 -1.90012e-07
      vertex -2.29813 1.92836 -1.67157
    endloop
  endfacet
  facet normal -0.793335 0.608785 0
    outer loop
      vertex -2.29813 1.92836 -1.90012e-07
      vertex -2.45746 1.72073 -1.67157
      vertex -2.45746 1.72073 -1.90012e-07
    endloop
  endfacet
  facet normal -0.675579 0.737287 0
    outer loop
      vertex -1.92836 2.29813 -1.67157
      vertex -2.12132 2.12132 -1.90012e-07
      vertex -1.92836 2.29813 -1.90012e-07
    endloop
  endfacet
  facet normal -0.675579 0.737287 0
    outer loop
      vertex -2.12132 2.12132 -1.90012e-07
      vertex -1.92836 2.29813 -1.67157
      vertex -2.12132 2.12132 -1.67157
    endloop
  endfacet
  facet normal -0.608785 -0.793335 0
    outer loop
      vertex -1.92836 -2.29813 -1.67157
      vertex -1.72073 -2.45746 -1.90012e-07
      vertex -1.92836 -2.29813 -1.90012e-07
    endloop
  endfacet
  facet normal -0.608785 -0.793335 -0
    outer loop
      vertex -1.72073 -2.45746 -1.90012e-07
      vertex -1.92836 -2.29813 -1.67157
      vertex -1.72073 -2.45746 -1.67157
    endloop
  endfacet
  facet normal -0.737287 -0.675579 0
    outer loop
      vertex -2.12132 -2.12132 -1.67157
      vertex -2.29813 -1.92836 -1.90012e-07
      vertex -2.29813 -1.92836 -1.67157
    endloop
  endfacet
  facet normal -0.737287 -0.675579 0
    outer loop
      vertex -2.29813 -1.92836 -1.90012e-07
      vertex -2.12132 -2.12132 -1.67157
      vertex -2.12132 -2.12132 -1.90012e-07
    endloop
  endfacet
  facet normal -0.46172 -0.887026 0
    outer loop
      vertex -1.5 -2.59808 -1.67157
      vertex -1.26785 -2.71892 -1.90012e-07
      vertex -1.5 -2.59808 -1.90012e-07
    endloop
  endfacet
  facet normal -0.46172 -0.887026 -0
    outer loop
      vertex -1.26785 -2.71892 -1.90012e-07
      vertex -1.5 -2.59808 -1.67157
      vertex -1.26785 -2.71892 -1.67157
    endloop
  endfacet
  facet normal -0.608785 0.793335 0
    outer loop
      vertex -1.72073 2.45746 -1.67157
      vertex -1.92836 2.29813 -1.90012e-07
      vertex -1.72073 2.45746 -1.90012e-07
    endloop
  endfacet
  facet normal -0.608785 0.793335 0
    outer loop
      vertex -1.92836 2.29813 -1.90012e-07
      vertex -1.72073 2.45746 -1.67157
      vertex -1.92836 2.29813 -1.67157
    endloop
  endfacet
  facet normal -0.976301 0.216418 0
    outer loop
      vertex -2.95442 0.520944 -1.67157
      vertex -2.89778 0.776457 -1.90012e-07
      vertex -2.89778 0.776457 -1.67157
    endloop
  endfacet
  facet normal -0.976301 0.216418 0
    outer loop
      vertex -2.89778 0.776457 -1.90012e-07
      vertex -2.95442 0.520944 -1.67157
      vertex -2.95442 0.520944 -1.90012e-07
    endloop
  endfacet
  facet normal -0.382707 -0.92387 0
    outer loop
      vertex -1.26785 -2.71892 -1.67157
      vertex -1.02606 -2.81908 -1.90012e-07
      vertex -1.26785 -2.71892 -1.90012e-07
    endloop
  endfacet
  facet normal -0.382707 -0.92387 -0
    outer loop
      vertex -1.02606 -2.81908 -1.90012e-07
      vertex -1.26785 -2.71892 -1.67157
      vertex -1.02606 -2.81908 -1.67157
    endloop
  endfacet
  facet normal 0.300707 -0.953716 0
    outer loop
      vertex 0.776457 -2.89778 -1.67157
      vertex 1.02606 -2.81908 -1.90012e-07
      vertex 0.776457 -2.89778 -1.90012e-07
    endloop
  endfacet
  facet normal 0.300707 -0.953716 0
    outer loop
      vertex 1.02606 -2.81908 -1.90012e-07
      vertex 0.776457 -2.89778 -1.67157
      vertex 1.02606 -2.81908 -1.67157
    endloop
  endfacet
  facet normal 0.92387 -0.382707 0
    outer loop
      vertex 2.71892 -1.26785 -1.90012e-07
      vertex 2.81908 -1.02606 -1.67157
      vertex 2.81908 -1.02606 -1.90012e-07
    endloop
  endfacet
  facet normal 0.92387 -0.382707 0
    outer loop
      vertex 2.81908 -1.02606 -1.67157
      vertex 2.71892 -1.26785 -1.90012e-07
      vertex 2.71892 -1.26785 -1.67157
    endloop
  endfacet
  facet normal 0.887026 -0.46172 0
    outer loop
      vertex 2.59808 -1.5 -1.90012e-07
      vertex 2.71892 -1.26785 -1.67157
      vertex 2.71892 -1.26785 -1.90012e-07
    endloop
  endfacet
  facet normal 0.887026 -0.46172 0
    outer loop
      vertex 2.71892 -1.26785 -1.67157
      vertex 2.59808 -1.5 -1.90012e-07
      vertex 2.59808 -1.5 -1.67157
    endloop
  endfacet
  facet normal 0.675579 0.737287 -0
    outer loop
      vertex 2.12132 2.12132 -1.67157
      vertex 1.92836 2.29813 -1.90012e-07
      vertex 2.12132 2.12132 -1.90012e-07
    endloop
  endfacet
  facet normal 0.675579 0.737287 0
    outer loop
      vertex 1.92836 2.29813 -1.90012e-07
      vertex 2.12132 2.12132 -1.67157
      vertex 1.92836 2.29813 -1.67157
    endloop
  endfacet
  facet normal 0.793335 0.608785 0
    outer loop
      vertex 2.45746 1.72073 -1.90012e-07
      vertex 2.29813 1.92836 -1.67157
      vertex 2.29813 1.92836 -1.90012e-07
    endloop
  endfacet
  facet normal 0.793335 0.608785 0
    outer loop
      vertex 2.29813 1.92836 -1.67157
      vertex 2.45746 1.72073 -1.90012e-07
      vertex 2.45746 1.72073 -1.67157
    endloop
  endfacet
  facet normal -0.300707 -0.953716 0
    outer loop
      vertex -1.02606 -2.81908 -1.67157
      vertex -0.776457 -2.89778 -1.90012e-07
      vertex -1.02606 -2.81908 -1.90012e-07
    endloop
  endfacet
  facet normal -0.300707 -0.953716 -0
    outer loop
      vertex -0.776457 -2.89778 -1.90012e-07
      vertex -1.02606 -2.81908 -1.67157
      vertex -0.776457 -2.89778 -1.67157
    endloop
  endfacet
  facet normal 0.537298 -0.843392 0
    outer loop
      vertex 1.5 -2.59808 -1.67157
      vertex 1.72073 -2.45746 -1.90012e-07
      vertex 1.5 -2.59808 -1.90012e-07
    endloop
  endfacet
  facet normal 0.537298 -0.843392 0
    outer loop
      vertex 1.72073 -2.45746 -1.90012e-07
      vertex 1.5 -2.59808 -1.67157
      vertex 1.72073 -2.45746 -1.67157
    endloop
  endfacet
  facet normal -0.043635 -0.999048 0
    outer loop
      vertex -0.261467 -2.98858 -1.67157
      vertex 0 -3 -1.90012e-07
      vertex -0.261467 -2.98858 -1.90012e-07
    endloop
  endfacet
  facet normal -0.043635 -0.999048 -0
    outer loop
      vertex 0 -3 -1.90012e-07
      vertex -0.261467 -2.98858 -1.67157
      vertex 0 -3 -1.67157
    endloop
  endfacet
  facet normal -0.887026 -0.46172 0
    outer loop
      vertex -2.59808 -1.5 -1.67157
      vertex -2.71892 -1.26785 -1.90012e-07
      vertex -2.71892 -1.26785 -1.67157
    endloop
  endfacet
  facet normal -0.887026 -0.46172 0
    outer loop
      vertex -2.71892 -1.26785 -1.90012e-07
      vertex -2.59808 -1.5 -1.67157
      vertex -2.59808 -1.5 -1.90012e-07
    endloop
  endfacet
  facet normal -0.92387 -0.382707 0
    outer loop
      vertex -2.71892 -1.26785 -1.67157
      vertex -2.81908 -1.02606 -1.90012e-07
      vertex -2.81908 -1.02606 -1.67157
    endloop
  endfacet
  facet normal -0.92387 -0.382707 0
    outer loop
      vertex -2.81908 -1.02606 -1.90012e-07
      vertex -2.71892 -1.26785 -1.67157
      vertex -2.71892 -1.26785 -1.90012e-07
    endloop
  endfacet
  facet normal -0.991445 0.130523 0
    outer loop
      vertex -2.98858 0.261467 -1.67157
      vertex -2.95442 0.520944 -1.90012e-07
      vertex -2.95442 0.520944 -1.67157
    endloop
  endfacet
  facet normal -0.991445 0.130523 0
    outer loop
      vertex -2.95442 0.520944 -1.90012e-07
      vertex -2.98858 0.261467 -1.67157
      vertex -2.98858 0.261467 -1.90012e-07
    endloop
  endfacet
  facet normal -0.999048 0.043635 0
    outer loop
      vertex -3 0 -1.67157
      vertex -2.98858 0.261467 -1.90012e-07
      vertex -2.98858 0.261467 -1.67157
    endloop
  endfacet
  facet normal -0.999048 0.043635 0
    outer loop
      vertex -2.98858 0.261467 -1.90012e-07
      vertex -3 0 -1.67157
      vertex -3 0 -1.90012e-07
    endloop
  endfacet
  facet normal 0.300707 0.953716 -0
    outer loop
      vertex 1.02606 2.81908 -1.67157
      vertex 0.776457 2.89778 -1.90012e-07
      vertex 1.02606 2.81908 -1.90012e-07
    endloop
  endfacet
  facet normal 0.300707 0.953716 0
    outer loop
      vertex 0.776457 2.89778 -1.90012e-07
      vertex 1.02606 2.81908 -1.67157
      vertex 0.776457 2.89778 -1.67157
    endloop
  endfacet
  facet normal -0 0 1
    outer loop
      vertex -2.98858 0.261467 -1.90012e-07
      vertex -1.59391 0.139449 -1.90012e-07
      vertex -1.7 0.599999 -1.90012e-07
    endloop
  endfacet
  facet normal 0 0 1
    outer loop
      vertex -1.57569 0.277837 -1.90012e-07
      vertex -1.7 0.599999 -1.90012e-07
      vertex -1.59391 0.139449 -1.90012e-07
    endloop
  endfacet
  facet normal 0 0 1
    outer loop
      vertex -1.54548 0.41411 -1.90012e-07
      vertex -1.7 0.599999 -1.90012e-07
      vertex -1.57569 0.277837 -1.90012e-07
    endloop
  endfacet
  facet normal 0 0 1
    outer loop
      vertex -1.50351 0.547232 -1.90012e-07
      vertex -1.7 0.599999 -1.90012e-07
      vertex -1.54548 0.41411 -1.90012e-07
    endloop
  endfacet
  facet normal -0 0 1
    outer loop
      vertex -1.7 0.599999 -1.90012e-07
      vertex -1.50351 0.547232 -1.90012e-07
      vertex -1.48165 0.599999 -1.90012e-07
    endloop
  endfacet
  facet normal 0 0 1
    outer loop
      vertex 2.98858 0.261467 -1.90012e-07
      vertex 1.59391 0.139449 -1.90012e-07
      vertex 1.6 0 -1.90012e-07
    endloop
  endfacet
  facet normal 0 0 1
    outer loop
      vertex 1.7 0.599999 -1.90012e-07
      vertex 1.57569 0.277837 -1.90012e-07
      vertex 1.59391 0.139449 -1.90012e-07
    endloop
  endfacet
  facet normal 0 0 1
    outer loop
      vertex 1.7 0.599999 -1.90012e-07
      vertex 1.54548 0.41411 -1.90012e-07
      vertex 1.57569 0.277837 -1.90012e-07
    endloop
  endfacet
  facet normal 0 0 1
    outer loop
      vertex 1.7 0.599999 -1.90012e-07
      vertex 1.50351 0.547232 -1.90012e-07
      vertex 1.54548 0.41411 -1.90012e-07
    endloop
  endfacet
  facet normal 0 -0 1
    outer loop
      vertex 1.50351 0.547232 -1.90012e-07
      vertex 1.7 0.599999 -1.90012e-07
      vertex 1.48165 0.599999 -1.90012e-07
    endloop
  endfacet
  facet normal 0 0 1
    outer loop
      vertex 1.6 0 -1.90012e-07
      vertex 3 0 -1.90012e-07
      vertex 2.98858 0.261467 -1.90012e-07
    endloop
  endfacet
  facet normal 0 0 1
    outer loop
      vertex 1.7 0.599999 -1.90012e-07
      vertex 2.98858 0.261467 -1.90012e-07
      vertex 2.95442 0.520944 -1.90012e-07
    endloop
  endfacet
  facet normal 0 0 1
    outer loop
      vertex 3 0 -1.90012e-07
      vertex 1.6 0 -1.90012e-07
      vertex 2.98858 -0.261467 -1.90012e-07
    endloop
  endfacet
  facet normal -0 0 1
    outer loop
      vertex 1.7 0.599999 -1.90012e-07
      vertex 2.95442 0.520944 -1.90012e-07
      vertex 2.89778 0.776457 -1.90012e-07
    endloop
  endfacet
  facet normal -0 0 1
    outer loop
      vertex 1.59391 -0.139449 -1.90012e-07
      vertex 2.98858 -0.261467 -1.90012e-07
      vertex 1.6 0 -1.90012e-07
    endloop
  endfacet
  facet normal 0 0 1
    outer loop
      vertex 1.7 0.599999 -1.90012e-07
      vertex 2.89778 0.776457 -1.90012e-07
      vertex 2.81908 1.02606 -1.90012e-07
    endloop
  endfacet
  facet normal 0 0 1
    outer loop
      vertex 2.98858 -0.261467 -1.90012e-07
      vertex 1.59391 -0.139449 -1.90012e-07
      vertex 2.95442 -0.520944 -1.90012e-07
    endloop
  endfacet
  facet normal 0 0 1
    outer loop
      vertex 1.7 0.599999 -1.90012e-07
      vertex 2.81908 1.02606 -1.90012e-07
      vertex 2.71892 1.26785 -1.90012e-07
    endloop
  endfacet
  facet normal -0 0 1
    outer loop
      vertex 1.57569 -0.277837 -1.90012e-07
      vertex 2.95442 -0.520944 -1.90012e-07
      vertex 1.59391 -0.139449 -1.90012e-07
    endloop
  endfacet
  facet normal 0 0 1
    outer loop
      vertex 1.7 0.599999 -1.90012e-07
      vertex 2.71892 1.26785 -1.90012e-07
      vertex 2.59808 1.5 -1.90012e-07
    endloop
  endfacet
  facet normal 0 0 1
    outer loop
      vertex 1.59391 0.139449 -1.90012e-07
      vertex 2.98858 0.261467 -1.90012e-07
      vertex 1.7 0.599999 -1.90012e-07
    endloop
  endfacet
  facet normal -0 0 1
    outer loop
      vertex 1.7 1.6 -1.90012e-07
      vertex 2.59808 1.5 -1.90012e-07
      vertex 2.45746 1.72073 -1.90012e-07
    endloop
  endfacet
  facet normal 0 0 1
    outer loop
      vertex 2.95442 -0.520944 -1.90012e-07
      vertex 1.57569 -0.277837 -1.90012e-07
      vertex 2.89778 -0.776457 -1.90012e-07
    endloop
  endfacet
  facet normal 0 0 1
    outer loop
      vertex 1.7 1.6 -1.90012e-07
      vertex 2.45746 1.72073 -1.90012e-07
      vertex 2.29813 1.92836 -1.90012e-07
    endloop
  endfacet
  facet normal -0 0 1
    outer loop
      vertex 1.54548 -0.41411 -1.90012e-07
      vertex 2.89778 -0.776457 -1.90012e-07
      vertex 1.57569 -0.277837 -1.90012e-07
    endloop
  endfacet
  facet normal 0 0 1
    outer loop
      vertex 1.7 1.6 -1.90012e-07
      vertex 2.29813 1.92836 -1.90012e-07
      vertex 2.12132 2.12132 -1.90012e-07
    endloop
  endfacet
  facet normal 0 0 1
    outer loop
      vertex 2.89778 -0.776457 -1.90012e-07
      vertex 1.54548 -0.41411 -1.90012e-07
      vertex 2.81908 -1.02606 -1.90012e-07
    endloop
  endfacet
  facet normal 0 0 1
    outer loop
      vertex 1.7 1.6 -1.90012e-07
      vertex 2.12132 2.12132 -1.90012e-07
      vertex 1.92836 2.29813 -1.90012e-07
    endloop
  endfacet
  facet normal -0 0 1
    outer loop
      vertex 1.50351 -0.547232 -1.90012e-07
      vertex 2.81908 -1.02606 -1.90012e-07
      vertex 1.54548 -0.41411 -1.90012e-07
    endloop
  endfacet
  facet normal 0 0 1
    outer loop
      vertex 1.7 1.6 -1.90012e-07
      vertex 1.92836 2.29813 -1.90012e-07
      vertex 1.72073 2.45746 -1.90012e-07
    endloop
  endfacet
  facet normal 0 0 1
    outer loop
      vertex 2.59808 1.5 -1.90012e-07
      vertex 1.7 1.6 -1.90012e-07
      vertex 1.7 0.599999 -1.90012e-07
    endloop
  endfacet
  facet normal -0 0 1
    outer loop
      vertex 1.45009 -0.676188 -1.90012e-07
      vertex 2.71892 -1.26785 -1.90012e-07
      vertex 1.50351 -0.547232 -1.90012e-07
    endloop
  endfacet
  facet normal 0 0 1
    outer loop
      vertex 1.5 2.59808 -1.90012e-07
      vertex 1.7 1.6 -1.90012e-07
      vertex 1.72073 2.45746 -1.90012e-07
    endloop
  endfacet
  facet normal 0 0 1
    outer loop
      vertex 1.26785 2.71892 -1.90012e-07
      vertex 1.7 1.6 -1.90012e-07
      vertex 1.5 2.59808 -1.90012e-07
    endloop
  endfacet
  facet normal 0 0 1
    outer loop
      vertex 1.02606 2.81908 -1.90012e-07
      vertex 1.7 1.6 -1.90012e-07
      vertex 1.26785 2.71892 -1.90012e-07
    endloop
  endfacet
  facet normal 0 0 1
    outer loop
      vertex 0.776457 2.89778 -1.90012e-07
      vertex 1.7 1.6 -1.90012e-07
      vertex 1.02606 2.81908 -1.90012e-07
    endloop
  endfacet
  facet normal 0 0 1
    outer loop
      vertex 0.520944 2.95442 -1.90012e-07
      vertex 1.7 1.6 -1.90012e-07
      vertex 0.776457 2.89778 -1.90012e-07
    endloop
  endfacet
  facet normal 0 0 1
    outer loop
      vertex 0.261467 2.98858 -1.90012e-07
      vertex 1.7 1.6 -1.90012e-07
      vertex 0.520944 2.95442 -1.90012e-07
    endloop
  endfacet
  facet normal 0 0 1
    outer loop
      vertex 0 3 -1.90012e-07
      vertex 1.7 1.6 -1.90012e-07
      vertex 0.261467 2.98858 -1.90012e-07
    endloop
  endfacet
  facet normal 0 0 1
    outer loop
      vertex -1.7 1.6 -1.90012e-07
      vertex 0 3 -1.90012e-07
      vertex -0.261467 2.98858 -1.90012e-07
    endloop
  endfacet
  facet normal 0 0 1
    outer loop
      vertex -1.7 1.6 -1.90012e-07
      vertex -0.261467 2.98858 -1.90012e-07
      vertex -0.520944 2.95442 -1.90012e-07
    endloop
  endfacet
  facet normal 0 0 1
    outer loop
      vertex -1.7 1.6 -1.90012e-07
      vertex -0.520944 2.95442 -1.90012e-07
      vertex -0.776457 2.89778 -1.90012e-07
    endloop
  endfacet
  facet normal 0 0 1
    outer loop
      vertex -1.7 1.6 -1.90012e-07
      vertex -0.776457 2.89778 -1.90012e-07
      vertex -1.02606 2.81908 -1.90012e-07
    endloop
  endfacet
  facet normal 0 0 1
    outer loop
      vertex -1.7 1.6 -1.90012e-07
      vertex -1.02606 2.81908 -1.90012e-07
      vertex -1.26785 2.71892 -1.90012e-07
    endloop
  endfacet
  facet normal 0 0 1
    outer loop
      vertex -1.7 1.6 -1.90012e-07
      vertex -1.26785 2.71892 -1.90012e-07
      vertex -1.5 2.59808 -1.90012e-07
    endloop
  endfacet
  facet normal 0 0 1
    outer loop
      vertex 0 3 -1.90012e-07
      vertex -1.7 1.6 -1.90012e-07
      vertex 1.7 1.6 -1.90012e-07
    endloop
  endfacet
  facet normal -0 0 1
    outer loop
      vertex -1.92836 2.29813 -1.90012e-07
      vertex -1.7 1.6 -1.90012e-07
      vertex -1.72073 2.45746 -1.90012e-07
    endloop
  endfacet
  facet normal -0 0 1
    outer loop
      vertex -1.72073 2.45746 -1.90012e-07
      vertex -1.7 1.6 -1.90012e-07
      vertex -1.5 2.59808 -1.90012e-07
    endloop
  endfacet
  facet normal 0 0 1
    outer loop
      vertex 2.71892 -1.26785 -1.90012e-07
      vertex 1.45009 -0.676188 -1.90012e-07
      vertex 2.59808 -1.5 -1.90012e-07
    endloop
  endfacet
  facet normal 0 0 1
    outer loop
      vertex 2.81908 -1.02606 -1.90012e-07
      vertex 1.50351 -0.547232 -1.90012e-07
      vertex 2.71892 -1.26785 -1.90012e-07
    endloop
  endfacet
  facet normal -0 0 1
    outer loop
      vertex 1.38564 -0.799999 -1.90012e-07
      vertex 2.59808 -1.5 -1.90012e-07
      vertex 1.45009 -0.676188 -1.90012e-07
    endloop
  endfacet
  facet normal 0 0 1
    outer loop
      vertex 2.59808 -1.5 -1.90012e-07
      vertex 1.38564 -0.799999 -1.90012e-07
      vertex 2.45746 -1.72073 -1.90012e-07
    endloop
  endfacet
  facet normal -0 0 1
    outer loop
      vertex 1.31064 -0.917722 -1.90012e-07
      vertex 2.45746 -1.72073 -1.90012e-07
      vertex 1.38564 -0.799999 -1.90012e-07
    endloop
  endfacet
  facet normal 0 0 1
    outer loop
      vertex 2.45746 -1.72073 -1.90012e-07
      vertex 1.31064 -0.917722 -1.90012e-07
      vertex 2.29813 -1.92836 -1.90012e-07
    endloop
  endfacet
  facet normal -0 0 1
    outer loop
      vertex 1.22567 -1.02846 -1.90012e-07
      vertex 2.29813 -1.92836 -1.90012e-07
      vertex 1.31064 -0.917722 -1.90012e-07
    endloop
  endfacet
  facet normal 0 0 1
    outer loop
      vertex 2.29813 -1.92836 -1.90012e-07
      vertex 1.22567 -1.02846 -1.90012e-07
      vertex 2.12132 -2.12132 -1.90012e-07
    endloop
  endfacet
  facet normal -0 0 1
    outer loop
      vertex 1.13137 -1.13137 -1.90012e-07
      vertex 2.12132 -2.12132 -1.90012e-07
      vertex 1.22567 -1.02846 -1.90012e-07
    endloop
  endfacet
  facet normal 0 0 1
    outer loop
      vertex 2.12132 -2.12132 -1.90012e-07
      vertex 1.13137 -1.13137 -1.90012e-07
      vertex 1.92836 -2.29813 -1.90012e-07
    endloop
  endfacet
  facet normal -0 0 1
    outer loop
      vertex 1.02846 -1.22567 -1.90012e-07
      vertex 1.92836 -2.29813 -1.90012e-07
      vertex 1.13137 -1.13137 -1.90012e-07
    endloop
  endfacet
  facet normal 0 0 1
    outer loop
      vertex 1.92836 -2.29813 -1.90012e-07
      vertex 1.02846 -1.22567 -1.90012e-07
      vertex 1.72073 -2.45746 -1.90012e-07
    endloop
  endfacet
  facet normal -0 0 1
    outer loop
      vertex 0.917722 -1.31064 -1.90012e-07
      vertex 1.72073 -2.45746 -1.90012e-07
      vertex 1.02846 -1.22567 -1.90012e-07
    endloop
  endfacet
  facet normal 0 0 1
    outer loop
      vertex 1.72073 -2.45746 -1.90012e-07
      vertex 0.917722 -1.31064 -1.90012e-07
      vertex 1.5 -2.59808 -1.90012e-07
    endloop
  endfacet
  facet normal -0 0 1
    outer loop
      vertex 0.799999 -1.38564 -1.90012e-07
      vertex 1.5 -2.59808 -1.90012e-07
      vertex 0.917722 -1.31064 -1.90012e-07
    endloop
  endfacet
  facet normal 0 0 1
    outer loop
      vertex 1.5 -2.59808 -1.90012e-07
      vertex 0.799999 -1.38564 -1.90012e-07
      vertex 1.26785 -2.71892 -1.90012e-07
    endloop
  endfacet
  facet normal -0 0 1
    outer loop
      vertex 0.676188 -1.45009 -1.90012e-07
      vertex 1.26785 -2.71892 -1.90012e-07
      vertex 0.799999 -1.38564 -1.90012e-07
    endloop
  endfacet
  facet normal 0 0 1
    outer loop
      vertex 1.26785 -2.71892 -1.90012e-07
      vertex 0.676188 -1.45009 -1.90012e-07
      vertex 1.02606 -2.81908 -1.90012e-07
    endloop
  endfacet
  facet normal -0 0 1
    outer loop
      vertex 0.547232 -1.50351 -1.90012e-07
      vertex 1.02606 -2.81908 -1.90012e-07
      vertex 0.676188 -1.45009 -1.90012e-07
    endloop
  endfacet
  facet normal 0 0 1
    outer loop
      vertex 1.02606 -2.81908 -1.90012e-07
      vertex 0.547232 -1.50351 -1.90012e-07
      vertex 0.776457 -2.89778 -1.90012e-07
    endloop
  endfacet
  facet normal -0 0 1
    outer loop
      vertex 0.41411 -1.54548 -1.90012e-07
      vertex 0.776457 -2.89778 -1.90012e-07
      vertex 0.547232 -1.50351 -1.90012e-07
    endloop
  endfacet
  facet normal 0 0 1
    outer loop
      vertex 0.776457 -2.89778 -1.90012e-07
      vertex 0.41411 -1.54548 -1.90012e-07
      vertex 0.520944 -2.95442 -1.90012e-07
    endloop
  endfacet
  facet normal -0 0 1
    outer loop
      vertex 0.277837 -1.57569 -1.90012e-07
      vertex 0.520944 -2.95442 -1.90012e-07
      vertex 0.41411 -1.54548 -1.90012e-07
    endloop
  endfacet
  facet normal 0 0 1
    outer loop
      vertex 0.277837 -1.57569 -1.90012e-07
      vertex 0.261467 -2.98858 -1.90012e-07
      vertex 0.520944 -2.95442 -1.90012e-07
    endloop
  endfacet
  facet normal -0 0 1
    outer loop
      vertex 0.139449 -1.59391 -1.90012e-07
      vertex 0.261467 -2.98858 -1.90012e-07
      vertex 0.277837 -1.57569 -1.90012e-07
    endloop
  endfacet
  facet normal -0 0 1
    outer loop
      vertex 0 -1.6 -1.90012e-07
      vertex 0.261467 -2.98858 -1.90012e-07
      vertex 0.139449 -1.59391 -1.90012e-07
    endloop
  endfacet
  facet normal 0 0 1
    outer loop
      vertex 0 -1.6 -1.90012e-07
      vertex 0 -3 -1.90012e-07
      vertex 0.261467 -2.98858 -1.90012e-07
    endloop
  endfacet
  facet normal 0 0 1
    outer loop
      vertex -0.139449 -1.59391 -1.90012e-07
      vertex 0 -3 -1.90012e-07
      vertex 0 -1.6 -1.90012e-07
    endloop
  endfacet
  facet normal 0 0 1
    outer loop
      vertex -0.139449 -1.59391 -1.90012e-07
      vertex -0.261467 -2.98858 -1.90012e-07
      vertex 0 -3 -1.90012e-07
    endloop
  endfacet
  facet normal 0 0 1
    outer loop
      vertex -0.277837 -1.57569 -1.90012e-07
      vertex -0.261467 -2.98858 -1.90012e-07
      vertex -0.139449 -1.59391 -1.90012e-07
    endloop
  endfacet
  facet normal 0 0 1
    outer loop
      vertex -0.520944 -2.95442 -1.90012e-07
      vertex -0.277837 -1.57569 -1.90012e-07
      vertex -0.41411 -1.54548 -1.90012e-07
    endloop
  endfacet
  facet normal 0 0 1
    outer loop
      vertex -0.277837 -1.57569 -1.90012e-07
      vertex -0.520944 -2.95442 -1.90012e-07
      vertex -0.261467 -2.98858 -1.90012e-07
    endloop
  endfacet
  facet normal 0 0 1
    outer loop
      vertex -0.776457 -2.89778 -1.90012e-07
      vertex -0.41411 -1.54548 -1.90012e-07
      vertex -0.547232 -1.50351 -1.90012e-07
    endloop
  endfacet
  facet normal 0 0 1
    outer loop
      vertex -1.02606 -2.81908 -1.90012e-07
      vertex -0.547232 -1.50351 -1.90012e-07
      vertex -0.676188 -1.45009 -1.90012e-07
    endloop
  endfacet
  facet normal 0 0 1
    outer loop
      vertex -0.41411 -1.54548 -1.90012e-07
      vertex -0.776457 -2.89778 -1.90012e-07
      vertex -0.520944 -2.95442 -1.90012e-07
    endloop
  endfacet
  facet normal 0 0 1
    outer loop
      vertex -1.26785 -2.71892 -1.90012e-07
      vertex -0.676188 -1.45009 -1.90012e-07
      vertex -0.799999 -1.38564 -1.90012e-07
    endloop
  endfacet
  facet normal 0 0 1
    outer loop
      vertex -1.5 -2.59808 -1.90012e-07
      vertex -0.799999 -1.38564 -1.90012e-07
      vertex -0.917722 -1.31064 -1.90012e-07
    endloop
  endfacet
  facet normal 0 0 1
    outer loop
      vertex -0.547232 -1.50351 -1.90012e-07
      vertex -1.02606 -2.81908 -1.90012e-07
      vertex -0.776457 -2.89778 -1.90012e-07
    endloop
  endfacet
  facet normal 0 0 1
    outer loop
      vertex -1.72073 -2.45746 -1.90012e-07
      vertex -0.917722 -1.31064 -1.90012e-07
      vertex -1.02846 -1.22567 -1.90012e-07
    endloop
  endfacet
  facet normal 0 0 1
    outer loop
      vertex -1.92836 -2.29813 -1.90012e-07
      vertex -1.02846 -1.22567 -1.90012e-07
      vertex -1.13137 -1.13137 -1.90012e-07
    endloop
  endfacet
  facet normal 0 0 1
    outer loop
      vertex -2.12132 -2.12132 -1.90012e-07
      vertex -1.13137 -1.13137 -1.90012e-07
      vertex -1.22567 -1.02846 -1.90012e-07
    endloop
  endfacet
  facet normal 0 0 1
    outer loop
      vertex -0.676188 -1.45009 -1.90012e-07
      vertex -1.26785 -2.71892 -1.90012e-07
      vertex -1.02606 -2.81908 -1.90012e-07
    endloop
  endfacet
  facet normal 0 0 1
    outer loop
      vertex -2.29813 -1.92836 -1.90012e-07
      vertex -1.22567 -1.02846 -1.90012e-07
      vertex -1.31064 -0.917722 -1.90012e-07
    endloop
  endfacet
  facet normal 0 0 1
    outer loop
      vertex -2.45746 -1.72073 -1.90012e-07
      vertex -1.31064 -0.917722 -1.90012e-07
      vertex -1.38564 -0.799999 -1.90012e-07
    endloop
  endfacet
  facet normal 0 0 1
    outer loop
      vertex -2.59808 -1.5 -1.90012e-07
      vertex -1.38564 -0.799999 -1.90012e-07
      vertex -1.45009 -0.676188 -1.90012e-07
    endloop
  endfacet
  facet normal 0 0 1
    outer loop
      vertex -0.799999 -1.38564 -1.90012e-07
      vertex -1.5 -2.59808 -1.90012e-07
      vertex -1.26785 -2.71892 -1.90012e-07
    endloop
  endfacet
  facet normal 0 0 1
    outer loop
      vertex -2.71892 -1.26785 -1.90012e-07
      vertex -1.45009 -0.676188 -1.90012e-07
      vertex -1.50351 -0.547232 -1.90012e-07
    endloop
  endfacet
  facet normal 0 0 1
    outer loop
      vertex -2.81908 -1.02606 -1.90012e-07
      vertex -1.50351 -0.547232 -1.90012e-07
      vertex -1.54548 -0.41411 -1.90012e-07
    endloop
  endfacet
  facet normal 0 0 1
    outer loop
      vertex -2.89778 -0.776457 -1.90012e-07
      vertex -1.54548 -0.41411 -1.90012e-07
      vertex -1.57569 -0.277837 -1.90012e-07
    endloop
  endfacet
  facet normal 0 0 1
    outer loop
      vertex -2.95442 -0.520944 -1.90012e-07
      vertex -1.57569 -0.277837 -1.90012e-07
      vertex -1.59391 -0.139449 -1.90012e-07
    endloop
  endfacet
  facet normal 0 0 1
    outer loop
      vertex -2.98858 -0.261467 -1.90012e-07
      vertex -1.59391 -0.139449 -1.90012e-07
      vertex -1.6 0 -1.90012e-07
    endloop
  endfacet
  facet normal 0 0 1
    outer loop
      vertex -1.59391 0.139449 -1.90012e-07
      vertex -2.98858 0.261467 -1.90012e-07
      vertex -1.6 0 -1.90012e-07
    endloop
  endfacet
  facet normal 0 0 1
    outer loop
      vertex -0.917722 -1.31064 -1.90012e-07
      vertex -1.72073 -2.45746 -1.90012e-07
      vertex -1.5 -2.59808 -1.90012e-07
    endloop
  endfacet
  facet normal -0 0 1
    outer loop
      vertex -2.12132 2.12132 -1.90012e-07
      vertex -1.7 1.6 -1.90012e-07
      vertex -1.92836 2.29813 -1.90012e-07
    endloop
  endfacet
  facet normal -0 0 1
    outer loop
      vertex -2.29813 1.92836 -1.90012e-07
      vertex -1.7 1.6 -1.90012e-07
      vertex -2.12132 2.12132 -1.90012e-07
    endloop
  endfacet
  facet normal 0 0 1
    outer loop
      vertex -1.02846 -1.22567 -1.90012e-07
      vertex -1.92836 -2.29813 -1.90012e-07
      vertex -1.72073 -2.45746 -1.90012e-07
    endloop
  endfacet
  facet normal -0 0 1
    outer loop
      vertex -2.45746 1.72073 -1.90012e-07
      vertex -1.7 1.6 -1.90012e-07
      vertex -2.29813 1.92836 -1.90012e-07
    endloop
  endfacet
  facet normal 0 0 1
    outer loop
      vertex -1.13137 -1.13137 -1.90012e-07
      vertex -2.12132 -2.12132 -1.90012e-07
      vertex -1.92836 -2.29813 -1.90012e-07
    endloop
  endfacet
  facet normal 0 0 1
    outer loop
      vertex -2.59808 1.5 -1.90012e-07
      vertex -1.7 1.6 -1.90012e-07
      vertex -2.45746 1.72073 -1.90012e-07
    endloop
  endfacet
  facet normal 0 0 1
    outer loop
      vertex -1.22567 -1.02846 -1.90012e-07
      vertex -2.29813 -1.92836 -1.90012e-07
      vertex -2.12132 -2.12132 -1.90012e-07
    endloop
  endfacet
  facet normal 0 0 1
    outer loop
      vertex -1.7 1.6 -1.90012e-07
      vertex -2.59808 1.5 -1.90012e-07
      vertex -1.7 0.599999 -1.90012e-07
    endloop
  endfacet
  facet normal 0 0 1
    outer loop
      vertex -1.31064 -0.917722 -1.90012e-07
      vertex -2.45746 -1.72073 -1.90012e-07
      vertex -2.29813 -1.92836 -1.90012e-07
    endloop
  endfacet
  facet normal -0 0 1
    outer loop
      vertex -2.71892 1.26785 -1.90012e-07
      vertex -1.7 0.599999 -1.90012e-07
      vertex -2.59808 1.5 -1.90012e-07
    endloop
  endfacet
  facet normal 0 0 1
    outer loop
      vertex -1.38564 -0.799999 -1.90012e-07
      vertex -2.59808 -1.5 -1.90012e-07
      vertex -2.45746 -1.72073 -1.90012e-07
    endloop
  endfacet
  facet normal -0 0 1
    outer loop
      vertex -2.81908 1.02606 -1.90012e-07
      vertex -1.7 0.599999 -1.90012e-07
      vertex -2.71892 1.26785 -1.90012e-07
    endloop
  endfacet
  facet normal 0 0 1
    outer loop
      vertex -1.45009 -0.676188 -1.90012e-07
      vertex -2.71892 -1.26785 -1.90012e-07
      vertex -2.59808 -1.5 -1.90012e-07
    endloop
  endfacet
  facet normal -0 0 1
    outer loop
      vertex -2.89778 0.776457 -1.90012e-07
      vertex -1.7 0.599999 -1.90012e-07
      vertex -2.81908 1.02606 -1.90012e-07
    endloop
  endfacet
  facet normal 0 0 1
    outer loop
      vertex -1.50351 -0.547232 -1.90012e-07
      vertex -2.81908 -1.02606 -1.90012e-07
      vertex -2.71892 -1.26785 -1.90012e-07
    endloop
  endfacet
  facet normal 0 0 1
    outer loop
      vertex -2.95442 0.520944 -1.90012e-07
      vertex -1.7 0.599999 -1.90012e-07
      vertex -2.89778 0.776457 -1.90012e-07
    endloop
  endfacet
  facet normal 0 0 1
    outer loop
      vertex -1.54548 -0.41411 -1.90012e-07
      vertex -2.89778 -0.776457 -1.90012e-07
      vertex -2.81908 -1.02606 -1.90012e-07
    endloop
  endfacet
  facet normal 0 0 1
    outer loop
      vertex -2.98858 0.261467 -1.90012e-07
      vertex -1.7 0.599999 -1.90012e-07
      vertex -2.95442 0.520944 -1.90012e-07
    endloop
  endfacet
  facet normal 0 0 1
    outer loop
      vertex -1.57569 -0.277837 -1.90012e-07
      vertex -2.95442 -0.520944 -1.90012e-07
      vertex -2.89778 -0.776457 -1.90012e-07
    endloop
  endfacet
  facet normal 0 0 1
    outer loop
      vertex -1.6 0 -1.90012e-07
      vertex -2.98858 0.261467 -1.90012e-07
      vertex -3 0 -1.90012e-07
    endloop
  endfacet
  facet normal 0 0 1
    outer loop
      vertex -1.59391 -0.139449 -1.90012e-07
      vertex -2.98858 -0.261467 -1.90012e-07
      vertex -2.95442 -0.520944 -1.90012e-07
    endloop
  endfacet
  facet normal 0 0 1
    outer loop
      vertex -1.6 0 -1.90012e-07
      vertex -3 0 -1.90012e-07
      vertex -2.98858 -0.261467 -1.90012e-07
    endloop
  endfacet
  facet normal 0 0 -1
    outer loop
      vertex 1.6 0 -1.67157
      vertex 3 0 -1.67157
      vertex 2.98858 -0.261467 -1.67157
    endloop
  endfacet
  facet normal 0 0 -1
    outer loop
      vertex 1.59391 -0.139449 -1.67157
      vertex 2.98858 -0.261467 -1.67157
      vertex 2.95442 -0.520944 -1.67157
    endloop
  endfacet
  facet normal 0 0 -1
    outer loop
      vertex 3 0 -1.67157
      vertex 1.6 0 -1.67157
      vertex 2.98858 0.261467 -1.67157
    endloop
  endfacet
  facet normal 0 0 -1
    outer loop
      vertex 1.57569 -0.277837 -1.67157
      vertex 2.95442 -0.520944 -1.67157
      vertex 2.89778 -0.776457 -1.67157
    endloop
  endfacet
  facet normal 0 0 -1
    outer loop
      vertex 1.59391 0.139449 -1.67157
      vertex 2.98858 0.261467 -1.67157
      vertex 1.6 0 -1.67157
    endloop
  endfacet
  facet normal 0 0 -1
    outer loop
      vertex 1.54548 -0.41411 -1.67157
      vertex 2.89778 -0.776457 -1.67157
      vertex 2.81908 -1.02606 -1.67157
    endloop
  endfacet
  facet normal 0 -0 -1
    outer loop
      vertex 1.7 0.599999 -1.67157
      vertex 2.98858 0.261467 -1.67157
      vertex 1.59391 0.139449 -1.67157
    endloop
  endfacet
  facet normal 0 0 -1
    outer loop
      vertex 1.50351 -0.547232 -1.67157
      vertex 2.81908 -1.02606 -1.67157
      vertex 2.71892 -1.26785 -1.67157
    endloop
  endfacet
  facet normal 0 0 -1
    outer loop
      vertex 2.98858 0.261467 -1.67157
      vertex 1.7 0.599999 -1.67157
      vertex 2.95442 0.520944 -1.67157
    endloop
  endfacet
  facet normal 0 0 -1
    outer loop
      vertex 1.45009 -0.676188 -1.67157
      vertex 2.71892 -1.26785 -1.67157
      vertex 2.59808 -1.5 -1.67157
    endloop
  endfacet
  facet normal 0 0 -1
    outer loop
      vertex 2.95442 0.520944 -1.67157
      vertex 1.7 0.599999 -1.67157
      vertex 2.89778 0.776457 -1.67157
    endloop
  endfacet
  facet normal 0 0 -1
    outer loop
      vertex 1.38564 -0.799999 -1.67157
      vertex 2.59808 -1.5 -1.67157
      vertex 2.45746 -1.72073 -1.67157
    endloop
  endfacet
  facet normal -0 0 -1
    outer loop
      vertex 2.81908 1.02606 -1.67157
      vertex 1.7 0.599999 -1.67157
      vertex 2.71892 1.26785 -1.67157
    endloop
  endfacet
  facet normal 0 0 -1
    outer loop
      vertex 1.31064 -0.917722 -1.67157
      vertex 2.45746 -1.72073 -1.67157
      vertex 2.29813 -1.92836 -1.67157
    endloop
  endfacet
  facet normal -0 0 -1
    outer loop
      vertex 2.71892 1.26785 -1.67157
      vertex 1.7 0.599999 -1.67157
      vertex 2.59808 1.5 -1.67157
    endloop
  endfacet
  facet normal 0 0 -1
    outer loop
      vertex 1.22567 -1.02846 -1.67157
      vertex 2.29813 -1.92836 -1.67157
      vertex 2.12132 -2.12132 -1.67157
    endloop
  endfacet
  facet normal 0 0 -1
    outer loop
      vertex 2.59808 1.5 -1.67157
      vertex 1.7 1.6 -1.67157
      vertex 2.45746 1.72073 -1.67157
    endloop
  endfacet
  facet normal 0 0 -1
    outer loop
      vertex 1.13137 -1.13137 -1.67157
      vertex 2.12132 -2.12132 -1.67157
      vertex 1.92836 -2.29813 -1.67157
    endloop
  endfacet
  facet normal -0 0 -1
    outer loop
      vertex 2.45746 1.72073 -1.67157
      vertex 1.7 1.6 -1.67157
      vertex 2.29813 1.92836 -1.67157
    endloop
  endfacet
  facet normal 0 0 -1
    outer loop
      vertex 1.02846 -1.22567 -1.67157
      vertex 1.92836 -2.29813 -1.67157
      vertex 1.72073 -2.45746 -1.67157
    endloop
  endfacet
  facet normal -0 0 -1
    outer loop
      vertex 2.29813 1.92836 -1.67157
      vertex 1.7 1.6 -1.67157
      vertex 2.12132 2.12132 -1.67157
    endloop
  endfacet
  facet normal -0 0 -1
    outer loop
      vertex 2.12132 2.12132 -1.67157
      vertex 1.7 1.6 -1.67157
      vertex 1.92836 2.29813 -1.67157
    endloop
  endfacet
  facet normal 0 0 -1
    outer loop
      vertex 2.98858 -0.261467 -1.67157
      vertex 1.59391 -0.139449 -1.67157
      vertex 1.6 0 -1.67157
    endloop
  endfacet
  facet normal 0 0 -1
    outer loop
      vertex 1.7 1.6 -1.67157
      vertex 2.59808 1.5 -1.67157
      vertex 1.7 0.599999 -1.67157
    endloop
  endfacet
  facet normal 0 0 -1
    outer loop
      vertex 2.95442 -0.520944 -1.67157
      vertex 1.57569 -0.277837 -1.67157
      vertex 1.59391 -0.139449 -1.67157
    endloop
  endfacet
  facet normal 0 0 -1
    outer loop
      vertex 2.89778 -0.776457 -1.67157
      vertex 1.54548 -0.41411 -1.67157
      vertex 1.57569 -0.277837 -1.67157
    endloop
  endfacet
  facet normal 0 0 -1
    outer loop
      vertex 2.81908 -1.02606 -1.67157
      vertex 1.50351 -0.547232 -1.67157
      vertex 1.54548 -0.41411 -1.67157
    endloop
  endfacet
  facet normal 0 0 -1
    outer loop
      vertex 0.917722 -1.31064 -1.67157
      vertex 1.72073 -2.45746 -1.67157
      vertex 1.5 -2.59808 -1.67157
    endloop
  endfacet
  facet normal 0 0 -1
    outer loop
      vertex 2.71892 -1.26785 -1.67157
      vertex 1.45009 -0.676188 -1.67157
      vertex 1.50351 -0.547232 -1.67157
    endloop
  endfacet
  facet normal 0 0 -1
    outer loop
      vertex 2.59808 -1.5 -1.67157
      vertex 1.38564 -0.799999 -1.67157
      vertex 1.45009 -0.676188 -1.67157
    endloop
  endfacet
  facet normal 0 0 -1
    outer loop
      vertex 2.45746 -1.72073 -1.67157
      vertex 1.31064 -0.917722 -1.67157
      vertex 1.38564 -0.799999 -1.67157
    endloop
  endfacet
  facet normal 0 0 -1
    outer loop
      vertex 0.799999 -1.38564 -1.67157
      vertex 1.5 -2.59808 -1.67157
      vertex 1.26785 -2.71892 -1.67157
    endloop
  endfacet
  facet normal 0 0 -1
    outer loop
      vertex 2.29813 -1.92836 -1.67157
      vertex 1.22567 -1.02846 -1.67157
      vertex 1.31064 -0.917722 -1.67157
    endloop
  endfacet
  facet normal 0 0 -1
    outer loop
      vertex 2.12132 -2.12132 -1.67157
      vertex 1.13137 -1.13137 -1.67157
      vertex 1.22567 -1.02846 -1.67157
    endloop
  endfacet
  facet normal 0 0 -1
    outer loop
      vertex 1.92836 -2.29813 -1.67157
      vertex 1.02846 -1.22567 -1.67157
      vertex 1.13137 -1.13137 -1.67157
    endloop
  endfacet
  facet normal 0 0 -1
    outer loop
      vertex 0.676188 -1.45009 -1.67157
      vertex 1.26785 -2.71892 -1.67157
      vertex 1.02606 -2.81908 -1.67157
    endloop
  endfacet
  facet normal 0 0 -1
    outer loop
      vertex 1.72073 -2.45746 -1.67157
      vertex 0.917722 -1.31064 -1.67157
      vertex 1.02846 -1.22567 -1.67157
    endloop
  endfacet
  facet normal 0 0 -1
    outer loop
      vertex 1.5 -2.59808 -1.67157
      vertex 0.799999 -1.38564 -1.67157
      vertex 0.917722 -1.31064 -1.67157
    endloop
  endfacet
  facet normal 0 0 -1
    outer loop
      vertex 0.547232 -1.50351 -1.67157
      vertex 1.02606 -2.81908 -1.67157
      vertex 0.776457 -2.89778 -1.67157
    endloop
  endfacet
  facet normal 0 0 -1
    outer loop
      vertex 1.26785 -2.71892 -1.67157
      vertex 0.676188 -1.45009 -1.67157
      vertex 0.799999 -1.38564 -1.67157
    endloop
  endfacet
  facet normal 0 0 -1
    outer loop
      vertex 1.02606 -2.81908 -1.67157
      vertex 0.547232 -1.50351 -1.67157
      vertex 0.676188 -1.45009 -1.67157
    endloop
  endfacet
  facet normal 0 0 -1
    outer loop
      vertex 0.41411 -1.54548 -1.67157
      vertex 0.776457 -2.89778 -1.67157
      vertex 0.520944 -2.95442 -1.67157
    endloop
  endfacet
  facet normal 0 0 -1
    outer loop
      vertex 0.776457 -2.89778 -1.67157
      vertex 0.41411 -1.54548 -1.67157
      vertex 0.547232 -1.50351 -1.67157
    endloop
  endfacet
  facet normal 0 0 -1
    outer loop
      vertex 0.520944 -2.95442 -1.67157
      vertex 0.277837 -1.57569 -1.67157
      vertex 0.41411 -1.54548 -1.67157
    endloop
  endfacet
  facet normal 0 0 -1
    outer loop
      vertex 0.261467 -2.98858 -1.67157
      vertex 0.277837 -1.57569 -1.67157
      vertex 0.520944 -2.95442 -1.67157
    endloop
  endfacet
  facet normal 0 0 -1
    outer loop
      vertex 0.261467 -2.98858 -1.67157
      vertex 0.139449 -1.59391 -1.67157
      vertex 0.277837 -1.57569 -1.67157
    endloop
  endfacet
  facet normal 0 0 -1
    outer loop
      vertex 0 -3 -1.67157
      vertex 0.139449 -1.59391 -1.67157
      vertex 0.261467 -2.98858 -1.67157
    endloop
  endfacet
  facet normal 0 0 -1
    outer loop
      vertex 0 -3 -1.67157
      vertex 0 -1.6 -1.67157
      vertex 0.139449 -1.59391 -1.67157
    endloop
  endfacet
  facet normal 0 0 -1
    outer loop
      vertex 0 -3 -1.67157
      vertex -0.139449 -1.59391 -1.67157
      vertex 0 -1.6 -1.67157
    endloop
  endfacet
  facet normal 0 0 -1
    outer loop
      vertex -0.261467 -2.98858 -1.67157
      vertex -0.139449 -1.59391 -1.67157
      vertex 0 -3 -1.67157
    endloop
  endfacet
  facet normal 0 0 -1
    outer loop
      vertex -0.261467 -2.98858 -1.67157
      vertex -0.277837 -1.57569 -1.67157
      vertex -0.139449 -1.59391 -1.67157
    endloop
  endfacet
  facet normal 0 0 -1
    outer loop
      vertex -0.520944 -2.95442 -1.67157
      vertex -0.277837 -1.57569 -1.67157
      vertex -0.261467 -2.98858 -1.67157
    endloop
  endfacet
  facet normal -0 0 -1
    outer loop
      vertex -0.277837 -1.57569 -1.67157
      vertex -0.520944 -2.95442 -1.67157
      vertex -0.41411 -1.54548 -1.67157
    endloop
  endfacet
  facet normal 0 0 -1
    outer loop
      vertex -0.776457 -2.89778 -1.67157
      vertex -0.41411 -1.54548 -1.67157
      vertex -0.520944 -2.95442 -1.67157
    endloop
  endfacet
  facet normal -0 0 -1
    outer loop
      vertex -0.41411 -1.54548 -1.67157
      vertex -0.776457 -2.89778 -1.67157
      vertex -0.547232 -1.50351 -1.67157
    endloop
  endfacet
  facet normal 0 0 -1
    outer loop
      vertex -1.02606 -2.81908 -1.67157
      vertex -0.547232 -1.50351 -1.67157
      vertex -0.776457 -2.89778 -1.67157
    endloop
  endfacet
  facet normal -0 0 -1
    outer loop
      vertex -0.547232 -1.50351 -1.67157
      vertex -1.02606 -2.81908 -1.67157
      vertex -0.676188 -1.45009 -1.67157
    endloop
  endfacet
  facet normal 0 0 -1
    outer loop
      vertex -1.26785 -2.71892 -1.67157
      vertex -0.676188 -1.45009 -1.67157
      vertex -1.02606 -2.81908 -1.67157
    endloop
  endfacet
  facet normal -0 0 -1
    outer loop
      vertex -0.676188 -1.45009 -1.67157
      vertex -1.26785 -2.71892 -1.67157
      vertex -0.799999 -1.38564 -1.67157
    endloop
  endfacet
  facet normal 0 0 -1
    outer loop
      vertex -1.5 -2.59808 -1.67157
      vertex -0.799999 -1.38564 -1.67157
      vertex -1.26785 -2.71892 -1.67157
    endloop
  endfacet
  facet normal -0 0 -1
    outer loop
      vertex -0.799999 -1.38564 -1.67157
      vertex -1.5 -2.59808 -1.67157
      vertex -0.917722 -1.31064 -1.67157
    endloop
  endfacet
  facet normal 0 0 -1
    outer loop
      vertex -1.72073 -2.45746 -1.67157
      vertex -0.917722 -1.31064 -1.67157
      vertex -1.5 -2.59808 -1.67157
    endloop
  endfacet
  facet normal -0 0 -1
    outer loop
      vertex -0.917722 -1.31064 -1.67157
      vertex -1.72073 -2.45746 -1.67157
      vertex -1.02846 -1.22567 -1.67157
    endloop
  endfacet
  facet normal 0 0 -1
    outer loop
      vertex -1.92836 -2.29813 -1.67157
      vertex -1.02846 -1.22567 -1.67157
      vertex -1.72073 -2.45746 -1.67157
    endloop
  endfacet
  facet normal -0 0 -1
    outer loop
      vertex -1.02846 -1.22567 -1.67157
      vertex -1.92836 -2.29813 -1.67157
      vertex -1.13137 -1.13137 -1.67157
    endloop
  endfacet
  facet normal 0 0 -1
    outer loop
      vertex -2.12132 -2.12132 -1.67157
      vertex -1.13137 -1.13137 -1.67157
      vertex -1.92836 -2.29813 -1.67157
    endloop
  endfacet
  facet normal -0 0 -1
    outer loop
      vertex -1.13137 -1.13137 -1.67157
      vertex -2.12132 -2.12132 -1.67157
      vertex -1.22567 -1.02846 -1.67157
    endloop
  endfacet
  facet normal 0 0 -1
    outer loop
      vertex -2.29813 -1.92836 -1.67157
      vertex -1.22567 -1.02846 -1.67157
      vertex -2.12132 -2.12132 -1.67157
    endloop
  endfacet
  facet normal -0 0 -1
    outer loop
      vertex -1.22567 -1.02846 -1.67157
      vertex -2.29813 -1.92836 -1.67157
      vertex -1.31064 -0.917722 -1.67157
    endloop
  endfacet
  facet normal 0 0 -1
    outer loop
      vertex -2.45746 -1.72073 -1.67157
      vertex -1.31064 -0.917722 -1.67157
      vertex -2.29813 -1.92836 -1.67157
    endloop
  endfacet
  facet normal -0 0 -1
    outer loop
      vertex -1.31064 -0.917722 -1.67157
      vertex -2.45746 -1.72073 -1.67157
      vertex -1.38564 -0.799999 -1.67157
    endloop
  endfacet
  facet normal 0 0 -1
    outer loop
      vertex -2.59808 -1.5 -1.67157
      vertex -1.38564 -0.799999 -1.67157
      vertex -2.45746 -1.72073 -1.67157
    endloop
  endfacet
  facet normal -0 0 -1
    outer loop
      vertex -1.38564 -0.799999 -1.67157
      vertex -2.59808 -1.5 -1.67157
      vertex -1.45009 -0.676188 -1.67157
    endloop
  endfacet
  facet normal -0 0 -1
    outer loop
      vertex -1.45009 -0.676188 -1.67157
      vertex -2.71892 -1.26785 -1.67157
      vertex -1.50351 -0.547232 -1.67157
    endloop
  endfacet
  facet normal 0 0 -1
    outer loop
      vertex -2.71892 -1.26785 -1.67157
      vertex -1.45009 -0.676188 -1.67157
      vertex -2.59808 -1.5 -1.67157
    endloop
  endfacet
  facet normal -0 0 -1
    outer loop
      vertex 1.92836 2.29813 -1.67157
      vertex 1.7 1.6 -1.67157
      vertex 1.72073 2.45746 -1.67157
    endloop
  endfacet
  facet normal 0 0 -1
    outer loop
      vertex 1.7 1.6 -1.67157
      vertex 1.5 2.59808 -1.67157
      vertex 1.72073 2.45746 -1.67157
    endloop
  endfacet
  facet normal 0 0 -1
    outer loop
      vertex 1.7 1.6 -1.67157
      vertex 1.26785 2.71892 -1.67157
      vertex 1.5 2.59808 -1.67157
    endloop
  endfacet
  facet normal 0 0 -1
    outer loop
      vertex 1.7 1.6 -1.67157
      vertex 1.02606 2.81908 -1.67157
      vertex 1.26785 2.71892 -1.67157
    endloop
  endfacet
  facet normal 0 0 -1
    outer loop
      vertex 1.7 1.6 -1.67157
      vertex 0.776457 2.89778 -1.67157
      vertex 1.02606 2.81908 -1.67157
    endloop
  endfacet
  facet normal 0 0 -1
    outer loop
      vertex 1.7 1.6 -1.67157
      vertex 0.520944 2.95442 -1.67157
      vertex 0.776457 2.89778 -1.67157
    endloop
  endfacet
  facet normal 0 0 -1
    outer loop
      vertex 1.7 1.6 -1.67157
      vertex 0.261467 2.98858 -1.67157
      vertex 0.520944 2.95442 -1.67157
    endloop
  endfacet
  facet normal 0 0 -1
    outer loop
      vertex 1.7 1.6 -1.67157
      vertex 0 3 -1.67157
      vertex 0.261467 2.98858 -1.67157
    endloop
  endfacet
  facet normal 0 0 -1
    outer loop
      vertex -1.7 1.6 -1.67157
      vertex 0 3 -1.67157
      vertex 1.7 1.6 -1.67157
    endloop
  endfacet
  facet normal 0 0 -1
    outer loop
      vertex 0 3 -1.67157
      vertex -1.7 1.6 -1.67157
      vertex -0.261467 2.98858 -1.67157
    endloop
  endfacet
  facet normal 0 0 -1
    outer loop
      vertex -0.261467 2.98858 -1.67157
      vertex -1.7 1.6 -1.67157
      vertex -0.520944 2.95442 -1.67157
    endloop
  endfacet
  facet normal 0 0 -1
    outer loop
      vertex -0.520944 2.95442 -1.67157
      vertex -1.7 1.6 -1.67157
      vertex -0.776457 2.89778 -1.67157
    endloop
  endfacet
  facet normal 0 0 -1
    outer loop
      vertex -0.776457 2.89778 -1.67157
      vertex -1.7 1.6 -1.67157
      vertex -1.02606 2.81908 -1.67157
    endloop
  endfacet
  facet normal 0 0 -1
    outer loop
      vertex -1.02606 2.81908 -1.67157
      vertex -1.7 1.6 -1.67157
      vertex -1.26785 2.71892 -1.67157
    endloop
  endfacet
  facet normal 0 0 -1
    outer loop
      vertex -1.26785 2.71892 -1.67157
      vertex -1.7 1.6 -1.67157
      vertex -1.5 2.59808 -1.67157
    endloop
  endfacet
  facet normal 0 0 -1
    outer loop
      vertex -1.7 1.6 -1.67157
      vertex -1.72073 2.45746 -1.67157
      vertex -1.5 2.59808 -1.67157
    endloop
  endfacet
  facet normal 0 0 -1
    outer loop
      vertex -2.81908 -1.02606 -1.67157
      vertex -1.50351 -0.547232 -1.67157
      vertex -2.71892 -1.26785 -1.67157
    endloop
  endfacet
  facet normal -0 0 -1
    outer loop
      vertex -1.50351 -0.547232 -1.67157
      vertex -2.81908 -1.02606 -1.67157
      vertex -1.54548 -0.41411 -1.67157
    endloop
  endfacet
  facet normal 0 0 -1
    outer loop
      vertex -1.7 1.6 -1.67157
      vertex -1.92836 2.29813 -1.67157
      vertex -1.72073 2.45746 -1.67157
    endloop
  endfacet
  facet normal 0 0 -1
    outer loop
      vertex -2.89778 -0.776457 -1.67157
      vertex -1.54548 -0.41411 -1.67157
      vertex -2.81908 -1.02606 -1.67157
    endloop
  endfacet
  facet normal 0 0 -1
    outer loop
      vertex -1.7 1.6 -1.67157
      vertex -2.12132 2.12132 -1.67157
      vertex -1.92836 2.29813 -1.67157
    endloop
  endfacet
  facet normal -0 0 -1
    outer loop
      vertex -1.54548 -0.41411 -1.67157
      vertex -2.89778 -0.776457 -1.67157
      vertex -1.57569 -0.277837 -1.67157
    endloop
  endfacet
  facet normal 0 0 -1
    outer loop
      vertex -1.7 1.6 -1.67157
      vertex -2.29813 1.92836 -1.67157
      vertex -2.12132 2.12132 -1.67157
    endloop
  endfacet
  facet normal 0 0 -1
    outer loop
      vertex -2.95442 -0.520944 -1.67157
      vertex -1.57569 -0.277837 -1.67157
      vertex -2.89778 -0.776457 -1.67157
    endloop
  endfacet
  facet normal 0 0 -1
    outer loop
      vertex -1.7 1.6 -1.67157
      vertex -2.45746 1.72073 -1.67157
      vertex -2.29813 1.92836 -1.67157
    endloop
  endfacet
  facet normal -0 0 -1
    outer loop
      vertex -1.57569 -0.277837 -1.67157
      vertex -2.95442 -0.520944 -1.67157
      vertex -1.59391 -0.139449 -1.67157
    endloop
  endfacet
  facet normal -0 0 -1
    outer loop
      vertex -1.7 1.6 -1.67157
      vertex -2.59808 1.5 -1.67157
      vertex -2.45746 1.72073 -1.67157
    endloop
  endfacet
  facet normal 0 0 -1
    outer loop
      vertex -2.98858 -0.261467 -1.67157
      vertex -1.59391 -0.139449 -1.67157
      vertex -2.95442 -0.520944 -1.67157
    endloop
  endfacet
  facet normal 0 0 -1
    outer loop
      vertex -1.7 0.599999 -1.67157
      vertex -2.59808 1.5 -1.67157
      vertex -1.7 1.6 -1.67157
    endloop
  endfacet
  facet normal -0 0 -1
    outer loop
      vertex -1.59391 -0.139449 -1.67157
      vertex -2.98858 -0.261467 -1.67157
      vertex -1.6 0 -1.67157
    endloop
  endfacet
  facet normal 0 -0 -1
    outer loop
      vertex -2.59808 1.5 -1.67157
      vertex -1.7 0.599999 -1.67157
      vertex -2.71892 1.26785 -1.67157
    endloop
  endfacet
  facet normal 0 0 -1
    outer loop
      vertex -3 0 -1.67157
      vertex -1.6 0 -1.67157
      vertex -2.98858 -0.261467 -1.67157
    endloop
  endfacet
  facet normal 0 -0 -1
    outer loop
      vertex -2.71892 1.26785 -1.67157
      vertex -1.7 0.599999 -1.67157
      vertex -2.81908 1.02606 -1.67157
    endloop
  endfacet
  facet normal 0 -0 -1
    outer loop
      vertex -2.98858 0.261467 -1.67157
      vertex -1.6 0 -1.67157
      vertex -3 0 -1.67157
    endloop
  endfacet
  facet normal 0 -0 -1
    outer loop
      vertex -2.81908 1.02606 -1.67157
      vertex -1.7 0.599999 -1.67157
      vertex -2.89778 0.776457 -1.67157
    endloop
  endfacet
  facet normal 0 0 -1
    outer loop
      vertex -1.6 0 -1.67157
      vertex -2.98858 0.261467 -1.67157
      vertex -1.7 0.599999 -1.67157
    endloop
  endfacet
  facet normal 0 -0 -1
    outer loop
      vertex -2.89778 0.776457 -1.67157
      vertex -1.7 0.599999 -1.67157
      vertex -2.95442 0.520944 -1.67157
    endloop
  endfacet
  facet normal 0 -0 -1
    outer loop
      vertex -2.95442 0.520944 -1.67157
      vertex -1.7 0.599999 -1.67157
      vertex -2.98858 0.261467 -1.67157
    endloop
  endfacet
  facet normal -0 0 -1
    outer loop
      vertex 2.89778 0.776457 -1.67157
      vertex 1.7 0.599999 -1.67157
      vertex 2.81908 1.02606 -1.67157
    endloop
  endfacet
  facet normal 0 0 -1
    outer loop
      vertex 1.57569 0.277837 -1.67157
      vertex 1.7 0.599999 -1.67157
      vertex 1.59391 0.139449 -1.67157
    endloop
  endfacet
  facet normal 0 0 -1
    outer loop
      vertex 1.54548 0.41411 -1.67157
      vertex 1.7 0.599999 -1.67157
      vertex 1.57569 0.277837 -1.67157
    endloop
  endfacet
  facet normal 0 0 -1
    outer loop
      vertex 1.50351 0.547232 -1.67157
      vertex 1.7 0.599999 -1.67157
      vertex 1.54548 0.41411 -1.67157
    endloop
  endfacet
  facet normal -0 0 -1
    outer loop
      vertex 1.7 0.599999 -1.67157
      vertex 1.50351 0.547232 -1.67157
      vertex 1.48165 0.599999 -1.67157
    endloop
  endfacet
  facet normal 0 0 -1
    outer loop
      vertex -1.50351 0.547232 -1.67157
      vertex -1.7 0.599999 -1.67157
      vertex -1.48165 0.599999 -1.67157
    endloop
  endfacet
  facet normal 0 0 -1
    outer loop
      vertex -1.54548 0.41411 -1.67157
      vertex -1.7 0.599999 -1.67157
      vertex -1.50351 0.547232 -1.67157
    endloop
  endfacet
  facet normal 0 0 -1
    outer loop
      vertex -1.57569 0.277837 -1.67157
      vertex -1.7 0.599999 -1.67157
      vertex -1.54548 0.41411 -1.67157
    endloop
  endfacet
  facet normal 0 0 -1
    outer loop
      vertex -1.59391 0.139449 -1.67157
      vertex -1.7 0.599999 -1.67157
      vertex -1.57569 0.277837 -1.67157
    endloop
  endfacet
  facet normal 0 0 -1
    outer loop
      vertex -1.7 0.599999 -1.67157
      vertex -1.59391 0.139449 -1.67157
      vertex -1.6 0 -1.67157
    endloop
  endfacet
  facet normal 0.999048 0.0436303 0
    outer loop
      vertex -1.59391 -0.139449 -1.90012e-07
      vertex -1.6 0 -1.67157
      vertex -1.6 0 -1.90012e-07
    endloop
  endfacet
  facet normal 0.999048 0.0436303 0
    outer loop
      vertex -1.6 0 -1.67157
      vertex -1.59391 -0.139449 -1.90012e-07
      vertex -1.59391 -0.139449 -1.67157
    endloop
  endfacet
  facet normal -0.793361 0.608751 0
    outer loop
      vertex 1.22567 -1.02846 -1.67157
      vertex 1.31064 -0.917722 -1.90012e-07
      vertex 1.31064 -0.917722 -1.67157
    endloop
  endfacet
  facet normal -0.793361 0.608751 0
    outer loop
      vertex 1.31064 -0.917722 -1.90012e-07
      vertex 1.22567 -1.02846 -1.67157
      vertex 1.22567 -1.02846 -1.90012e-07
    endloop
  endfacet
  facet normal -0.300685 0.953724 0
    outer loop
      vertex 0.547232 -1.50351 -1.67157
      vertex 0.41411 -1.54548 -1.90012e-07
      vertex 0.547232 -1.50351 -1.90012e-07
    endloop
  endfacet
  facet normal -0.300685 0.953724 0
    outer loop
      vertex 0.41411 -1.54548 -1.90012e-07
      vertex 0.547232 -1.50351 -1.67157
      vertex 0.41411 -1.54548 -1.67157
    endloop
  endfacet
  facet normal -0.887016 0.461738 0
    outer loop
      vertex 1.38564 -0.799999 -1.67157
      vertex 1.45009 -0.676188 -1.90012e-07
      vertex 1.45009 -0.676188 -1.67157
    endloop
  endfacet
  facet normal -0.887016 0.461738 0
    outer loop
      vertex 1.45009 -0.676188 -1.90012e-07
      vertex 1.38564 -0.799999 -1.67157
      vertex 1.38564 -0.799999 -1.90012e-07
    endloop
  endfacet
  facet normal -0.216433 0.976298 0
    outer loop
      vertex 0.41411 -1.54548 -1.67157
      vertex 0.277837 -1.57569 -1.90012e-07
      vertex 0.41411 -1.54548 -1.90012e-07
    endloop
  endfacet
  facet normal -0.216433 0.976298 0
    outer loop
      vertex 0.277837 -1.57569 -1.90012e-07
      vertex 0.41411 -1.54548 -1.67157
      vertex 0.277837 -1.57569 -1.67157
    endloop
  endfacet
  facet normal -0.991444 -0.130532 0
    outer loop
      vertex 1.59391 0.139449 -1.67157
      vertex 1.57569 0.277837 -1.90012e-07
      vertex 1.57569 0.277837 -1.67157
    endloop
  endfacet
  facet normal -0.991444 -0.130532 0
    outer loop
      vertex 1.57569 0.277837 -1.90012e-07
      vertex 1.59391 0.139449 -1.67157
      vertex 1.59391 0.139449 -1.90012e-07
    endloop
  endfacet
  facet normal 0.216433 0.976298 -0
    outer loop
      vertex -0.277837 -1.57569 -1.67157
      vertex -0.41411 -1.54548 -1.90012e-07
      vertex -0.277837 -1.57569 -1.90012e-07
    endloop
  endfacet
  facet normal 0.216433 0.976298 0
    outer loop
      vertex -0.41411 -1.54548 -1.90012e-07
      vertex -0.277837 -1.57569 -1.67157
      vertex -0.41411 -1.54548 -1.67157
    endloop
  endfacet
  facet normal -0.991444 0.130532 0
    outer loop
      vertex 1.57569 -0.277837 -1.67157
      vertex 1.59391 -0.139449 -1.90012e-07
      vertex 1.59391 -0.139449 -1.67157
    endloop
  endfacet
  facet normal -0.991444 0.130532 0
    outer loop
      vertex 1.59391 -0.139449 -1.90012e-07
      vertex 1.57569 -0.277837 -1.67157
      vertex 1.57569 -0.277837 -1.90012e-07
    endloop
  endfacet
  facet normal 0.976298 -0.216433 0
    outer loop
      vertex -1.57569 0.277837 -1.90012e-07
      vertex -1.54548 0.41411 -1.67157
      vertex -1.54548 0.41411 -1.90012e-07
    endloop
  endfacet
  facet normal 0.976298 -0.216433 0
    outer loop
      vertex -1.54548 0.41411 -1.67157
      vertex -1.57569 0.277837 -1.90012e-07
      vertex -1.57569 0.277837 -1.67157
    endloop
  endfacet
  facet normal -0.923868 0.382712 0
    outer loop
      vertex 1.45009 -0.676188 -1.67157
      vertex 1.50351 -0.547232 -1.90012e-07
      vertex 1.50351 -0.547232 -1.67157
    endloop
  endfacet
  facet normal -0.923868 0.382712 0
    outer loop
      vertex 1.50351 -0.547232 -1.90012e-07
      vertex 1.45009 -0.676188 -1.67157
      vertex 1.45009 -0.676188 -1.90012e-07
    endloop
  endfacet
  facet normal -0.999048 -0.0436303 0
    outer loop
      vertex 1.6 0 -1.67157
      vertex 1.59391 0.139449 -1.90012e-07
      vertex 1.59391 0.139449 -1.67157
    endloop
  endfacet
  facet normal -0.999048 -0.0436303 0
    outer loop
      vertex 1.59391 0.139449 -1.90012e-07
      vertex 1.6 0 -1.67157
      vertex 1.6 0 -1.90012e-07
    endloop
  endfacet
  facet normal -0.953724 -0.300685 0
    outer loop
      vertex 1.54548 0.41411 -1.67157
      vertex 1.50351 0.547232 -1.90012e-07
      vertex 1.50351 0.547232 -1.67157
    endloop
  endfacet
  facet normal -0.953724 -0.300685 0
    outer loop
      vertex 1.50351 0.547232 -1.90012e-07
      vertex 1.54548 0.41411 -1.67157
      vertex 1.54548 0.41411 -1.90012e-07
    endloop
  endfacet
  facet normal 0.843384 0.537311 0
    outer loop
      vertex -1.31064 -0.917722 -1.90012e-07
      vertex -1.38564 -0.799999 -1.67157
      vertex -1.38564 -0.799999 -1.90012e-07
    endloop
  endfacet
  facet normal 0.843384 0.537311 0
    outer loop
      vertex -1.38564 -0.799999 -1.67157
      vertex -1.31064 -0.917722 -1.90012e-07
      vertex -1.31064 -0.917722 -1.67157
    endloop
  endfacet
  facet normal 0.300685 0.953724 -0
    outer loop
      vertex -0.41411 -1.54548 -1.67157
      vertex -0.547232 -1.50351 -1.90012e-07
      vertex -0.41411 -1.54548 -1.90012e-07
    endloop
  endfacet
  facet normal 0.300685 0.953724 0
    outer loop
      vertex -0.547232 -1.50351 -1.90012e-07
      vertex -0.41411 -1.54548 -1.67157
      vertex -0.547232 -1.50351 -1.67157
    endloop
  endfacet
  facet normal -0.976298 0.216433 0
    outer loop
      vertex 1.54548 -0.41411 -1.67157
      vertex 1.57569 -0.277837 -1.90012e-07
      vertex 1.57569 -0.277837 -1.67157
    endloop
  endfacet
  facet normal -0.976298 0.216433 0
    outer loop
      vertex 1.57569 -0.277837 -1.90012e-07
      vertex 1.54548 -0.41411 -1.67157
      vertex 1.54548 -0.41411 -1.90012e-07
    endloop
  endfacet
  facet normal -0.999048 0.0436303 0
    outer loop
      vertex 1.59391 -0.139449 -1.67157
      vertex 1.6 0 -1.90012e-07
      vertex 1.6 0 -1.67157
    endloop
  endfacet
  facet normal -0.999048 0.0436303 0
    outer loop
      vertex 1.6 0 -1.90012e-07
      vertex 1.59391 -0.139449 -1.67157
      vertex 1.59391 -0.139449 -1.90012e-07
    endloop
  endfacet
  facet normal -0.976298 -0.216433 0
    outer loop
      vertex 1.57569 0.277837 -1.67157
      vertex 1.54548 0.41411 -1.90012e-07
      vertex 1.54548 0.41411 -1.67157
    endloop
  endfacet
  facet normal -0.976298 -0.216433 0
    outer loop
      vertex 1.54548 0.41411 -1.90012e-07
      vertex 1.57569 0.277837 -1.67157
      vertex 1.57569 0.277837 -1.90012e-07
    endloop
  endfacet
  facet normal 0.991444 0.130532 0
    outer loop
      vertex -1.57569 -0.277837 -1.90012e-07
      vertex -1.59391 -0.139449 -1.67157
      vertex -1.59391 -0.139449 -1.90012e-07
    endloop
  endfacet
  facet normal 0.991444 0.130532 0
    outer loop
      vertex -1.59391 -0.139449 -1.67157
      vertex -1.57569 -0.277837 -1.90012e-07
      vertex -1.57569 -0.277837 -1.67157
    endloop
  endfacet
  facet normal -0.130532 0.991444 0
    outer loop
      vertex 0.277837 -1.57569 -1.67157
      vertex 0.139449 -1.59391 -1.90012e-07
      vertex 0.277837 -1.57569 -1.90012e-07
    endloop
  endfacet
  facet normal -0.130532 0.991444 0
    outer loop
      vertex 0.139449 -1.59391 -1.90012e-07
      vertex 0.277837 -1.57569 -1.67157
      vertex 0.139449 -1.59391 -1.67157
    endloop
  endfacet
  facet normal -0.92386 -0.382731 0
    outer loop
      vertex 1.50351 0.547232 -1.67157
      vertex 1.48165 0.599999 -1.90012e-07
      vertex 1.48165 0.599999 -1.67157
    endloop
  endfacet
  facet normal -0.92386 -0.382731 0
    outer loop
      vertex 1.48165 0.599999 -1.90012e-07
      vertex 1.50351 0.547232 -1.67157
      vertex 1.50351 0.547232 -1.90012e-07
    endloop
  endfacet
  facet normal 0.92386 -0.382731 0
    outer loop
      vertex -1.50351 0.547232 -1.90012e-07
      vertex -1.48165 0.599999 -1.67157
      vertex -1.48165 0.599999 -1.90012e-07
    endloop
  endfacet
  facet normal 0.92386 -0.382731 0
    outer loop
      vertex -1.48165 0.599999 -1.67157
      vertex -1.50351 0.547232 -1.90012e-07
      vertex -1.50351 0.547232 -1.67157
    endloop
  endfacet
  facet normal 0.0436303 0.999048 -0
    outer loop
      vertex 0 -1.6 -1.67157
      vertex -0.139449 -1.59391 -1.90012e-07
      vertex 0 -1.6 -1.90012e-07
    endloop
  endfacet
  facet normal 0.0436303 0.999048 0
    outer loop
      vertex -0.139449 -1.59391 -1.90012e-07
      vertex 0 -1.6 -1.67157
      vertex -0.139449 -1.59391 -1.67157
    endloop
  endfacet
  facet normal 0.130532 0.991444 -0
    outer loop
      vertex -0.139449 -1.59391 -1.67157
      vertex -0.277837 -1.57569 -1.90012e-07
      vertex -0.139449 -1.59391 -1.90012e-07
    endloop
  endfacet
  facet normal 0.130532 0.991444 0
    outer loop
      vertex -0.277837 -1.57569 -1.90012e-07
      vertex -0.139449 -1.59391 -1.67157
      vertex -0.277837 -1.57569 -1.67157
    endloop
  endfacet
  facet normal 0.923868 0.382712 0
    outer loop
      vertex -1.45009 -0.676188 -1.90012e-07
      vertex -1.50351 -0.547232 -1.67157
      vertex -1.50351 -0.547232 -1.90012e-07
    endloop
  endfacet
  facet normal 0.923868 0.382712 0
    outer loop
      vertex -1.50351 -0.547232 -1.67157
      vertex -1.45009 -0.676188 -1.90012e-07
      vertex -1.45009 -0.676188 -1.67157
    endloop
  endfacet
  facet normal 0.999048 -0.0436303 0
    outer loop
      vertex -1.6 0 -1.90012e-07
      vertex -1.59391 0.139449 -1.67157
      vertex -1.59391 0.139449 -1.90012e-07
    endloop
  endfacet
  facet normal 0.999048 -0.0436303 0
    outer loop
      vertex -1.59391 0.139449 -1.67157
      vertex -1.6 0 -1.90012e-07
      vertex -1.6 0 -1.67157
    endloop
  endfacet
  facet normal 0.953724 0.300685 0
    outer loop
      vertex -1.50351 -0.547232 -1.90012e-07
      vertex -1.54548 -0.41411 -1.67157
      vertex -1.54548 -0.41411 -1.90012e-07
    endloop
  endfacet
  facet normal 0.953724 0.300685 0
    outer loop
      vertex -1.54548 -0.41411 -1.67157
      vertex -1.50351 -0.547232 -1.90012e-07
      vertex -1.50351 -0.547232 -1.67157
    endloop
  endfacet
  facet normal 0.991444 -0.130532 0
    outer loop
      vertex -1.59391 0.139449 -1.90012e-07
      vertex -1.57569 0.277837 -1.67157
      vertex -1.57569 0.277837 -1.90012e-07
    endloop
  endfacet
  facet normal 0.991444 -0.130532 0
    outer loop
      vertex -1.57569 0.277837 -1.67157
      vertex -1.59391 0.139449 -1.90012e-07
      vertex -1.59391 0.139449 -1.67157
    endloop
  endfacet
  facet normal 0.737276 0.675592 0
    outer loop
      vertex -1.13137 -1.13137 -1.90012e-07
      vertex -1.22567 -1.02846 -1.67157
      vertex -1.22567 -1.02846 -1.90012e-07
    endloop
  endfacet
  facet normal 0.737276 0.675592 0
    outer loop
      vertex -1.22567 -1.02846 -1.67157
      vertex -1.13137 -1.13137 -1.90012e-07
      vertex -1.13137 -1.13137 -1.67157
    endloop
  endfacet
  facet normal 0.793361 0.608751 0
    outer loop
      vertex -1.22567 -1.02846 -1.90012e-07
      vertex -1.31064 -0.917722 -1.67157
      vertex -1.31064 -0.917722 -1.90012e-07
    endloop
  endfacet
  facet normal 0.793361 0.608751 0
    outer loop
      vertex -1.31064 -0.917722 -1.67157
      vertex -1.22567 -1.02846 -1.90012e-07
      vertex -1.22567 -1.02846 -1.67157
    endloop
  endfacet
  facet normal 0.887016 0.461738 0
    outer loop
      vertex -1.38564 -0.799999 -1.90012e-07
      vertex -1.45009 -0.676188 -1.67157
      vertex -1.45009 -0.676188 -1.90012e-07
    endloop
  endfacet
  facet normal 0.887016 0.461738 0
    outer loop
      vertex -1.45009 -0.676188 -1.67157
      vertex -1.38564 -0.799999 -1.90012e-07
      vertex -1.38564 -0.799999 -1.67157
    endloop
  endfacet
  facet normal -0.461738 0.887016 0
    outer loop
      vertex 0.799999 -1.38564 -1.67157
      vertex 0.676188 -1.45009 -1.90012e-07
      vertex 0.799999 -1.38564 -1.90012e-07
    endloop
  endfacet
  facet normal -0.461738 0.887016 0
    outer loop
      vertex 0.676188 -1.45009 -1.90012e-07
      vertex 0.799999 -1.38564 -1.67157
      vertex 0.676188 -1.45009 -1.67157
    endloop
  endfacet
  facet normal -0.675592 0.737276 0
    outer loop
      vertex 1.13137 -1.13137 -1.67157
      vertex 1.02846 -1.22567 -1.90012e-07
      vertex 1.13137 -1.13137 -1.90012e-07
    endloop
  endfacet
  facet normal -0.675592 0.737276 0
    outer loop
      vertex 1.02846 -1.22567 -1.90012e-07
      vertex 1.13137 -1.13137 -1.67157
      vertex 1.02846 -1.22567 -1.67157
    endloop
  endfacet
  facet normal 0.675592 0.737276 -0
    outer loop
      vertex -1.02846 -1.22567 -1.67157
      vertex -1.13137 -1.13137 -1.90012e-07
      vertex -1.02846 -1.22567 -1.90012e-07
    endloop
  endfacet
  facet normal 0.675592 0.737276 0
    outer loop
      vertex -1.13137 -1.13137 -1.90012e-07
      vertex -1.02846 -1.22567 -1.67157
      vertex -1.13137 -1.13137 -1.67157
    endloop
  endfacet
  facet normal -0.953724 0.300685 0
    outer loop
      vertex 1.50351 -0.547232 -1.67157
      vertex 1.54548 -0.41411 -1.90012e-07
      vertex 1.54548 -0.41411 -1.67157
    endloop
  endfacet
  facet normal -0.953724 0.300685 0
    outer loop
      vertex 1.54548 -0.41411 -1.90012e-07
      vertex 1.50351 -0.547232 -1.67157
      vertex 1.50351 -0.547232 -1.90012e-07
    endloop
  endfacet
  facet normal -0.537311 0.843384 0
    outer loop
      vertex 0.917722 -1.31064 -1.67157
      vertex 0.799999 -1.38564 -1.90012e-07
      vertex 0.917722 -1.31064 -1.90012e-07
    endloop
  endfacet
  facet normal -0.537311 0.843384 0
    outer loop
      vertex 0.799999 -1.38564 -1.90012e-07
      vertex 0.917722 -1.31064 -1.67157
      vertex 0.799999 -1.38564 -1.67157
    endloop
  endfacet
  facet normal -0.382712 0.923868 0
    outer loop
      vertex 0.676188 -1.45009 -1.67157
      vertex 0.547232 -1.50351 -1.90012e-07
      vertex 0.676188 -1.45009 -1.90012e-07
    endloop
  endfacet
  facet normal -0.382712 0.923868 0
    outer loop
      vertex 0.547232 -1.50351 -1.90012e-07
      vertex 0.676188 -1.45009 -1.67157
      vertex 0.547232 -1.50351 -1.67157
    endloop
  endfacet
  facet normal 0.976298 0.216433 0
    outer loop
      vertex -1.54548 -0.41411 -1.90012e-07
      vertex -1.57569 -0.277837 -1.67157
      vertex -1.57569 -0.277837 -1.90012e-07
    endloop
  endfacet
  facet normal 0.976298 0.216433 0
    outer loop
      vertex -1.57569 -0.277837 -1.67157
      vertex -1.54548 -0.41411 -1.90012e-07
      vertex -1.54548 -0.41411 -1.67157
    endloop
  endfacet
  facet normal 0.608751 0.793361 -0
    outer loop
      vertex -0.917722 -1.31064 -1.67157
      vertex -1.02846 -1.22567 -1.90012e-07
      vertex -0.917722 -1.31064 -1.90012e-07
    endloop
  endfacet
  facet normal 0.608751 0.793361 0
    outer loop
      vertex -1.02846 -1.22567 -1.90012e-07
      vertex -0.917722 -1.31064 -1.67157
      vertex -1.02846 -1.22567 -1.67157
    endloop
  endfacet
  facet normal 0.953724 -0.300685 0
    outer loop
      vertex -1.54548 0.41411 -1.90012e-07
      vertex -1.50351 0.547232 -1.67157
      vertex -1.50351 0.547232 -1.90012e-07
    endloop
  endfacet
  facet normal 0.953724 -0.300685 0
    outer loop
      vertex -1.50351 0.547232 -1.67157
      vertex -1.54548 0.41411 -1.90012e-07
      vertex -1.54548 0.41411 -1.67157
    endloop
  endfacet
  facet normal 0.537311 0.843384 -0
    outer loop
      vertex -0.799999 -1.38564 -1.67157
      vertex -0.917722 -1.31064 -1.90012e-07
      vertex -0.799999 -1.38564 -1.90012e-07
    endloop
  endfacet
  facet normal 0.537311 0.843384 0
    outer loop
      vertex -0.917722 -1.31064 -1.90012e-07
      vertex -0.799999 -1.38564 -1.67157
      vertex -0.917722 -1.31064 -1.67157
    endloop
  endfacet
  facet normal -0.843384 0.537311 0
    outer loop
      vertex 1.31064 -0.917722 -1.67157
      vertex 1.38564 -0.799999 -1.90012e-07
      vertex 1.38564 -0.799999 -1.67157
    endloop
  endfacet
  facet normal -0.843384 0.537311 0
    outer loop
      vertex 1.38564 -0.799999 -1.90012e-07
      vertex 1.31064 -0.917722 -1.67157
      vertex 1.31064 -0.917722 -1.90012e-07
    endloop
  endfacet
  facet normal -0.737276 0.675592 0
    outer loop
      vertex 1.13137 -1.13137 -1.67157
      vertex 1.22567 -1.02846 -1.90012e-07
      vertex 1.22567 -1.02846 -1.67157
    endloop
  endfacet
  facet normal -0.737276 0.675592 0
    outer loop
      vertex 1.22567 -1.02846 -1.90012e-07
      vertex 1.13137 -1.13137 -1.67157
      vertex 1.13137 -1.13137 -1.90012e-07
    endloop
  endfacet
  facet normal -0.0436303 0.999048 0
    outer loop
      vertex 0.139449 -1.59391 -1.67157
      vertex 0 -1.6 -1.90012e-07
      vertex 0.139449 -1.59391 -1.90012e-07
    endloop
  endfacet
  facet normal -0.0436303 0.999048 0
    outer loop
      vertex 0 -1.6 -1.90012e-07
      vertex 0.139449 -1.59391 -1.67157
      vertex 0 -1.6 -1.67157
    endloop
  endfacet
  facet normal 0.382712 0.923868 -0
    outer loop
      vertex -0.547232 -1.50351 -1.67157
      vertex -0.676188 -1.45009 -1.90012e-07
      vertex -0.547232 -1.50351 -1.90012e-07
    endloop
  endfacet
  facet normal 0.382712 0.923868 0
    outer loop
      vertex -0.676188 -1.45009 -1.90012e-07
      vertex -0.547232 -1.50351 -1.67157
      vertex -0.676188 -1.45009 -1.67157
    endloop
  endfacet
  facet normal -0.608751 0.793361 0
    outer loop
      vertex 1.02846 -1.22567 -1.67157
      vertex 0.917722 -1.31064 -1.90012e-07
      vertex 1.02846 -1.22567 -1.90012e-07
    endloop
  endfacet
  facet normal -0.608751 0.793361 0
    outer loop
      vertex 0.917722 -1.31064 -1.90012e-07
      vertex 1.02846 -1.22567 -1.67157
      vertex 0.917722 -1.31064 -1.67157
    endloop
  endfacet
  facet normal 0.461738 0.887016 -0
    outer loop
      vertex -0.676188 -1.45009 -1.67157
      vertex -0.799999 -1.38564 -1.90012e-07
      vertex -0.676188 -1.45009 -1.90012e-07
    endloop
  endfacet
  facet normal 0.461738 0.887016 0
    outer loop
      vertex -0.799999 -1.38564 -1.90012e-07
      vertex -0.676188 -1.45009 -1.67157
      vertex -0.799999 -1.38564 -1.67157
    endloop
  endfacet
  facet normal -1 0 0
    outer loop
      vertex 1.7 0.599999 -1.67157
      vertex 1.7 1.6 -1.90012e-07
      vertex 1.7 1.6 -1.67157
    endloop
  endfacet
  facet normal -1 -0 0
    outer loop
      vertex 1.7 1.6 -1.90012e-07
      vertex 1.7 0.599999 -1.67157
      vertex 1.7 0.599999 -1.90012e-07
    endloop
  endfacet
  facet normal 1 -0 0
    outer loop
      vertex -1.7 0.599999 -1.90012e-07
      vertex -1.7 1.6 -1.67157
      vertex -1.7 1.6 -1.90012e-07
    endloop
  endfacet
  facet normal 1 0 0
    outer loop
      vertex -1.7 1.6 -1.67157
      vertex -1.7 0.599999 -1.90012e-07
      vertex -1.7 0.599999 -1.67157
    endloop
  endfacet
  facet normal 0 -1 0
    outer loop
      vertex -1.7 1.6 -1.67157
      vertex 1.7 1.6 -1.90012e-07
      vertex -1.7 1.6 -1.90012e-07
    endloop
  endfacet
  facet normal 0 -1 -0
    outer loop
      vertex 1.7 1.6 -1.90012e-07
      vertex -1.7 1.6 -1.67157
      vertex 1.7 1.6 -1.67157
    endloop
  endfacet
  facet normal 0 1 -0
    outer loop
      vertex -1.48165 0.599999 -1.67157
      vertex -1.7 0.599999 -1.90012e-07
      vertex -1.48165 0.599999 -1.90012e-07
    endloop
  endfacet
  facet normal 0 1 0
    outer loop
      vertex -1.7 0.599999 -1.90012e-07
      vertex -1.48165 0.599999 -1.67157
      vertex -1.7 0.599999 -1.67157
    endloop
  endfacet
  facet normal 0 1 -0
    outer loop
      vertex 1.7 0.599999 -1.67157
      vertex 1.48165 0.599999 -1.90012e-07
      vertex 1.7 0.599999 -1.90012e-07
    endloop
  endfacet
  facet normal 0 1 0
    outer loop
      vertex 1.48165 0.599999 -1.90012e-07
      vertex 1.7 0.599999 -1.67157
      vertex 1.48165 0.599999 -1.67157
    endloop
  endfacet
endsolid OpenSCAD_Model
