M48
; DRILL file {KiCad 9.0.2+dfsg-1} date 2026-06-04T19:35:05-0400
; FORMAT={3:3/ absolute / metric / suppress leading zeros}
; #@! TF.CreationDate,2026-06-04T19:35:05-04:00
; #@! TF.GenerationSoftware,Kicad,Pcbnew,9.0.2+dfsg-1
; #@! TF.FileFunction,MixedPlating,1,4
FMAT,2
METRIC,TZ
; #@! TA.AperFunction,Plated,PTH,ViaDrill
T1C0.400
; #@! TA.AperFunction,Plated,PTH,ComponentDrill
T2C0.500
; #@! TA.AperFunction,Plated,PTH,ComponentDrill
T3C1.000
; #@! TA.AperFunction,NonPlated,NPTH,ComponentDrill
T4C2.700
%
G90
G05
T1
X126000Y-93000
X126250Y-93000
X170750Y-93000
X171000Y-117000
T2
X143000Y-103000
T3
X123000Y-116000
X125500Y-116000
X126910Y-88770
X126910Y-91310
X126910Y-118690
X126910Y-121230
X128000Y-116000
X129450Y-88770
X129450Y-91310
X129450Y-118690
X129450Y-121230
X130500Y-116000
X131990Y-88770
X131990Y-91310
X131990Y-118690
X131990Y-121230
X134530Y-88770
X134530Y-91310
X134530Y-118690
X134530Y-121230
X137070Y-88770
X137070Y-91310
X137070Y-118690
X137070Y-121230
X139610Y-88770
X139610Y-91310
X139610Y-118690
X139610Y-121230
X142150Y-88770
X142150Y-91310
X142150Y-118690
X142150Y-121230
X144690Y-88770
X144690Y-91310
X144690Y-118690
X144690Y-121230
X147230Y-88770
X147230Y-91310
X147230Y-118690
X147230Y-121230
X149770Y-88770
X149770Y-91310
X149770Y-118690
X149770Y-121230
X152310Y-88770
X152310Y-91310
X152310Y-118690
X152310Y-121230
X154850Y-88770
X154850Y-91310
X154850Y-118690
X154850Y-121230
X157390Y-88770
X157390Y-91310
X157390Y-118690
X157390Y-121230
X159930Y-88770
X159930Y-91310
X159930Y-118690
X159930Y-121230
X162470Y-88770
X162470Y-91310
X162470Y-118690
X162470Y-121230
X165010Y-88770
X165010Y-91310
X165010Y-118690
X165010Y-121230
X167550Y-88770
X167550Y-91310
X167550Y-118690
X167550Y-121230
X170090Y-88770
X170090Y-91310
X170090Y-118690
X170090Y-121230
X174000Y-95460
X174000Y-98000
X174000Y-100540
X174000Y-103080
X174000Y-105620
X174000Y-108160
X174000Y-110700
X174000Y-113240
T4
X124000Y-90500
X124000Y-119500
X173000Y-90500
X173000Y-119500
M30
