%TF.GenerationSoftware,KiCad,Pcbnew,9.0.2+dfsg-1*%
%TF.CreationDate,2026-06-04T19:35:04-04:00*%
%TF.ProjectId,CAPE-A-2,43415045-2d41-42d3-922e-6b696361645f,A-STUB*%
%TF.SameCoordinates,Original*%
%TF.FileFunction,Soldermask,Top*%
%TF.FilePolarity,Negative*%
%FSLAX46Y46*%
G04 Gerber Fmt 4.6, Leading zero omitted, Abs format (unit mm)*
G04 Created by KiCad (PCBNEW 9.0.2+dfsg-1) date 2026-06-04 19:35:04*
%MOMM*%
%LPD*%
G01*
G04 APERTURE LIST*
G04 Aperture macros list*
%AMRoundRect*
0 Rectangle with rounded corners*
0 $1 Rounding radius*
0 $2 $3 $4 $5 $6 $7 $8 $9 X,Y pos of 4 corners*
0 Add a 4 corners polygon primitive as box body*
4,1,4,$2,$3,$4,$5,$6,$7,$8,$9,$2,$3,0*
0 Add four circle primitives for the rounded corners*
1,1,$1+$1,$2,$3*
1,1,$1+$1,$4,$5*
1,1,$1+$1,$6,$7*
1,1,$1+$1,$8,$9*
0 Add four rect primitives between the rounded corners*
20,1,$1+$1,$2,$3,$4,$5,0*
20,1,$1+$1,$4,$5,$6,$7,0*
20,1,$1+$1,$6,$7,$8,$9,0*
20,1,$1+$1,$8,$9,$2,$3,0*%
%AMFreePoly0*
4,1,14,0.314644,0.085355,0.385355,0.014644,0.400000,-0.020711,0.400000,-0.050000,0.385355,-0.085355,0.350000,-0.100000,-0.350000,-0.100000,-0.385355,-0.085355,-0.400000,-0.050000,-0.400000,0.050000,-0.385355,0.085355,-0.350000,0.100000,0.279289,0.100000,0.314644,0.085355,0.314644,0.085355,$1*%
%AMFreePoly1*
4,1,14,0.385355,0.085355,0.400000,0.050000,0.400000,0.020711,0.385355,-0.014644,0.314644,-0.085355,0.279289,-0.100000,-0.350000,-0.100000,-0.385355,-0.085355,-0.400000,-0.050000,-0.400000,0.050000,-0.385355,0.085355,-0.350000,0.100000,0.350000,0.100000,0.385355,0.085355,0.385355,0.085355,$1*%
%AMFreePoly2*
4,1,14,0.085355,0.385355,0.100000,0.350000,0.100000,-0.350000,0.085355,-0.385355,0.050000,-0.400000,-0.050000,-0.400000,-0.085355,-0.385355,-0.100000,-0.350000,-0.100000,0.279289,-0.085355,0.314644,-0.014644,0.385355,0.020711,0.400000,0.050000,0.400000,0.085355,0.385355,0.085355,0.385355,$1*%
%AMFreePoly3*
4,1,14,0.014644,0.385355,0.085355,0.314644,0.100000,0.279289,0.100000,-0.350000,0.085355,-0.385355,0.050000,-0.400000,-0.050000,-0.400000,-0.085355,-0.385355,-0.100000,-0.350000,-0.100000,0.350000,-0.085355,0.385355,-0.050000,0.400000,-0.020711,0.400000,0.014644,0.385355,0.014644,0.385355,$1*%
%AMFreePoly4*
4,1,14,0.385355,0.085355,0.400000,0.050000,0.400000,-0.050000,0.385355,-0.085355,0.350000,-0.100000,-0.279289,-0.100000,-0.314644,-0.085355,-0.385355,-0.014644,-0.400000,0.020711,-0.400000,0.050000,-0.385355,0.085355,-0.350000,0.100000,0.350000,0.100000,0.385355,0.085355,0.385355,0.085355,$1*%
%AMFreePoly5*
4,1,14,0.385355,0.085355,0.400000,0.050000,0.400000,-0.050000,0.385355,-0.085355,0.350000,-0.100000,-0.350000,-0.100000,-0.385355,-0.085355,-0.400000,-0.050000,-0.400000,-0.020711,-0.385355,0.014644,-0.314644,0.085355,-0.279289,0.100000,0.350000,0.100000,0.385355,0.085355,0.385355,0.085355,$1*%
%AMFreePoly6*
4,1,14,0.085355,0.385355,0.100000,0.350000,0.100000,-0.279289,0.085355,-0.314644,0.014644,-0.385355,-0.020711,-0.400000,-0.050000,-0.400000,-0.085355,-0.385355,-0.100000,-0.350000,-0.100000,0.350000,-0.085355,0.385355,-0.050000,0.400000,0.050000,0.400000,0.085355,0.385355,0.085355,0.385355,$1*%
%AMFreePoly7*
4,1,14,0.085355,0.385355,0.100000,0.350000,0.100000,-0.350000,0.085355,-0.385355,0.050000,-0.400000,0.020711,-0.400000,-0.014644,-0.385355,-0.085355,-0.314644,-0.100000,-0.279289,-0.100000,0.350000,-0.085355,0.385355,-0.050000,0.400000,0.050000,0.400000,0.085355,0.385355,0.085355,0.385355,$1*%
G04 Aperture macros list end*
%ADD10R,0.800000X1.600000*%
%ADD11C,2.700000*%
%ADD12RoundRect,0.087500X-0.225000X-0.087500X0.225000X-0.087500X0.225000X0.087500X-0.225000X0.087500X0*%
%ADD13RoundRect,0.087500X-0.087500X-0.225000X0.087500X-0.225000X0.087500X0.225000X-0.087500X0.225000X0*%
%ADD14R,0.350000X0.500000*%
%ADD15R,0.500000X0.500000*%
%ADD16R,8.000000X8.000000*%
%ADD17R,1.600000X0.800000*%
%ADD18RoundRect,0.150000X0.825000X0.150000X-0.825000X0.150000X-0.825000X-0.150000X0.825000X-0.150000X0*%
%ADD19R,1.700000X1.700000*%
%ADD20C,1.700000*%
%ADD21R,3.360000X4.800000*%
%ADD22RoundRect,0.150000X-0.825000X-0.150000X0.825000X-0.150000X0.825000X0.150000X-0.825000X0.150000X0*%
%ADD23FreePoly0,180.000000*%
%ADD24RoundRect,0.050000X0.350000X0.050000X-0.350000X0.050000X-0.350000X-0.050000X0.350000X-0.050000X0*%
%ADD25FreePoly1,180.000000*%
%ADD26FreePoly2,180.000000*%
%ADD27RoundRect,0.050000X0.050000X0.350000X-0.050000X0.350000X-0.050000X-0.350000X0.050000X-0.350000X0*%
%ADD28FreePoly3,180.000000*%
%ADD29FreePoly4,180.000000*%
%ADD30FreePoly5,180.000000*%
%ADD31FreePoly6,180.000000*%
%ADD32FreePoly7,180.000000*%
%ADD33R,2.650000X2.650000*%
%ADD34R,1.500000X1.500000*%
%ADD35C,1.500000*%
%ADD36RoundRect,0.075000X-0.075000X-0.250000X0.075000X-0.250000X0.075000X0.250000X-0.075000X0.250000X0*%
%ADD37RoundRect,0.075000X-0.250000X-0.075000X0.250000X-0.075000X0.250000X0.075000X-0.250000X0.075000X0*%
%ADD38RoundRect,0.000000X-2.825000X-2.825000X2.825000X-2.825000X2.825000X2.825000X-2.825000X2.825000X0*%
%ADD39RoundRect,0.150000X-0.450000X-0.150000X0.450000X-0.150000X0.450000X0.150000X-0.450000X0.150000X0*%
%ADD40RoundRect,0.125000X-0.325000X-0.125000X0.325000X-0.125000X0.325000X0.125000X-0.325000X0.125000X0*%
%ADD41RoundRect,0.137500X-0.312500X-0.137500X0.312500X-0.137500X0.312500X0.137500X-0.312500X0.137500X0*%
%ADD42RoundRect,0.500000X-0.500000X-0.850000X0.500000X-0.850000X0.500000X0.850000X-0.500000X0.850000X0*%
%ADD43RoundRect,0.350000X-0.425000X-0.350000X0.425000X-0.350000X0.425000X0.350000X-0.425000X0.350000X0*%
%ADD44RoundRect,0.137500X-0.162500X-0.137500X0.162500X-0.137500X0.162500X0.137500X-0.162500X0.137500X0*%
%ADD45RoundRect,0.100000X-0.175000X-0.100000X0.175000X-0.100000X0.175000X0.100000X-0.175000X0.100000X0*%
G04 APERTURE END LIST*
D10*
%TO.C,CAN-FD*%
X125125000Y-94000000D03*
X126375000Y-94000000D03*
X127625000Y-94000000D03*
X128875000Y-94000000D03*
%TD*%
D11*
%TO.C,*%
X173000000Y-119500000D03*
%TD*%
D12*
%TO.C,IMU*%
X132837500Y-94750000D03*
X132837500Y-95250000D03*
X132837500Y-95750000D03*
X132837500Y-96250000D03*
D13*
X133500000Y-96412500D03*
X134000000Y-96412500D03*
X134500000Y-96412500D03*
D12*
X135162500Y-96250000D03*
X135162500Y-95750000D03*
X135162500Y-95250000D03*
X135162500Y-94750000D03*
D13*
X134500000Y-94587500D03*
X134000000Y-94587500D03*
X133500000Y-94587500D03*
%TD*%
D14*
%TO.C,BARO*%
X137525000Y-94700000D03*
X138175000Y-94700000D03*
X138825000Y-94700000D03*
X139475000Y-94700000D03*
X139475000Y-96300000D03*
X138825000Y-96300000D03*
X138175000Y-96300000D03*
X137525000Y-96300000D03*
%TD*%
D11*
%TO.C,*%
X124000000Y-119500000D03*
%TD*%
D15*
%TO.C,GPS*%
X153600000Y-103000000D03*
D16*
X159000000Y-103000000D03*
%TD*%
D17*
%TO.C,GPIO-F*%
X170500000Y-94500000D03*
X170500000Y-95750000D03*
X170500000Y-97000000D03*
%TD*%
D18*
%TO.C,1553-DRV*%
X151975000Y-117445000D03*
X151975000Y-116175000D03*
X151975000Y-114905000D03*
X151975000Y-113635000D03*
X151975000Y-112365000D03*
X151975000Y-111095000D03*
X151975000Y-109825000D03*
X151975000Y-108555000D03*
X147025000Y-108555000D03*
X147025000Y-109825000D03*
X147025000Y-111095000D03*
X147025000Y-112365000D03*
X147025000Y-113635000D03*
X147025000Y-114905000D03*
X147025000Y-116175000D03*
X147025000Y-117445000D03*
%TD*%
D10*
%TO.C,MIL-1553*%
X125125000Y-103000000D03*
X126375000Y-103000000D03*
X127625000Y-103000000D03*
X128875000Y-103000000D03*
%TD*%
%TO.C,RS-485*%
X125125000Y-98500000D03*
X126375000Y-98500000D03*
X127625000Y-98500000D03*
X128875000Y-98500000D03*
%TD*%
D19*
%TO.C,SERVO-PWM*%
X174000000Y-95460000D03*
D20*
X174000000Y-98000000D03*
X174000000Y-100540000D03*
X174000000Y-103080000D03*
X174000000Y-105620000D03*
X174000000Y-108160000D03*
X174000000Y-110700000D03*
X174000000Y-113240000D03*
%TD*%
D10*
%TO.C,GPIO-D*%
X159750000Y-95000000D03*
X161000000Y-95000000D03*
X162250000Y-95000000D03*
%TD*%
%TO.C,GPIO-A*%
X143000000Y-95000000D03*
X144250000Y-95000000D03*
X145500000Y-95000000D03*
%TD*%
D15*
%TO.C,1553-XFM*%
X141500000Y-116500000D03*
D21*
X141500000Y-112500000D03*
%TD*%
D11*
%TO.C,*%
X124000000Y-90500000D03*
%TD*%
D10*
%TO.C,GPIO-C*%
X154500000Y-95000000D03*
X155750000Y-95000000D03*
X157000000Y-95000000D03*
%TD*%
D22*
%TO.C,RS485*%
X129900000Y-104785000D03*
X129900000Y-106055000D03*
X129900000Y-107325000D03*
X129900000Y-108595000D03*
X129900000Y-109865000D03*
X129900000Y-111135000D03*
X129900000Y-112405000D03*
X129900000Y-113675000D03*
X129900000Y-114945000D03*
X129900000Y-116215000D03*
X140100000Y-116215000D03*
X140100000Y-114945000D03*
X140100000Y-113675000D03*
X140100000Y-112405000D03*
X140100000Y-111135000D03*
X140100000Y-109865000D03*
X140100000Y-108595000D03*
X140100000Y-107325000D03*
X140100000Y-106055000D03*
X140100000Y-104785000D03*
%TD*%
D11*
%TO.C,*%
X173000000Y-90500000D03*
%TD*%
D23*
%TO.C,TPM*%
X170450000Y-111900000D03*
D24*
X170450000Y-111500000D03*
X170450000Y-111100000D03*
X170450000Y-110700000D03*
X170450000Y-110300000D03*
X170450000Y-109900000D03*
X170450000Y-109500000D03*
D25*
X170450000Y-109100000D03*
D26*
X169900000Y-108550000D03*
D27*
X169500000Y-108550000D03*
X169100000Y-108550000D03*
X168700000Y-108550000D03*
X168300000Y-108550000D03*
X167900000Y-108550000D03*
X167500000Y-108550000D03*
D28*
X167100000Y-108550000D03*
D29*
X166550000Y-109100000D03*
D24*
X166550000Y-109500000D03*
X166550000Y-109900000D03*
X166550000Y-110300000D03*
X166550000Y-110700000D03*
X166550000Y-111100000D03*
X166550000Y-111500000D03*
D30*
X166550000Y-111900000D03*
D31*
X167100000Y-112450000D03*
D27*
X167500000Y-112450000D03*
X167900000Y-112450000D03*
X168300000Y-112450000D03*
X168700000Y-112450000D03*
X169100000Y-112450000D03*
X169500000Y-112450000D03*
D32*
X169900000Y-112450000D03*
D33*
X168500000Y-110500000D03*
%TD*%
D10*
%TO.C,ESC-TLM*%
X167250000Y-100000000D03*
X168500000Y-100000000D03*
X169750000Y-100000000D03*
%TD*%
D17*
%TO.C,GPIO-E*%
X167000000Y-94500000D03*
X167000000Y-95750000D03*
X167000000Y-97000000D03*
%TD*%
D34*
%TO.C,PWR-IN*%
X123000000Y-116000000D03*
D35*
X125500000Y-116000000D03*
X128000000Y-116000000D03*
X130500000Y-116000000D03*
%TD*%
D10*
%TO.C,GPIO-B*%
X149000000Y-95000000D03*
X150250000Y-95000000D03*
X151500000Y-95000000D03*
%TD*%
D22*
%TO.C,CAN-TR*%
X129900000Y-110555000D03*
X129900000Y-111825000D03*
X129900000Y-113095000D03*
X129900000Y-114365000D03*
X129900000Y-115635000D03*
X129900000Y-116905000D03*
X129900000Y-118175000D03*
X129900000Y-119445000D03*
X140100000Y-119445000D03*
X140100000Y-118175000D03*
X140100000Y-116905000D03*
X140100000Y-115635000D03*
X140100000Y-114365000D03*
X140100000Y-113095000D03*
X140100000Y-111825000D03*
X140100000Y-110555000D03*
%TD*%
%TO.C,1553-RCV*%
X157525000Y-108555000D03*
X157525000Y-109825000D03*
X157525000Y-111095000D03*
X157525000Y-112365000D03*
X157525000Y-113635000D03*
X157525000Y-114905000D03*
X157525000Y-116175000D03*
X157525000Y-117445000D03*
X162475000Y-117445000D03*
X162475000Y-116175000D03*
X162475000Y-114905000D03*
X162475000Y-113635000D03*
X162475000Y-112365000D03*
X162475000Y-111095000D03*
X162475000Y-109825000D03*
X162475000Y-108555000D03*
%TD*%
D20*
%TO.C,PB2-P2*%
X126910000Y-118690000D03*
X126910000Y-121230000D03*
X129450000Y-118690000D03*
X129450000Y-121230000D03*
X131990000Y-118690000D03*
X131990000Y-121230000D03*
X134530000Y-118690000D03*
X134530000Y-121230000D03*
X137070000Y-118690000D03*
X137070000Y-121230000D03*
X139610000Y-118690000D03*
X139610000Y-121230000D03*
X142150000Y-118690000D03*
X142150000Y-121230000D03*
X144690000Y-118690000D03*
X144690000Y-121230000D03*
X147230000Y-118690000D03*
X147230000Y-121230000D03*
X149770000Y-118690000D03*
X149770000Y-121230000D03*
X152310000Y-118690000D03*
X152310000Y-121230000D03*
X154850000Y-118690000D03*
X154850000Y-121230000D03*
X157390000Y-118690000D03*
X157390000Y-121230000D03*
X159930000Y-118690000D03*
X159930000Y-121230000D03*
X162470000Y-118690000D03*
X162470000Y-121230000D03*
X165010000Y-118690000D03*
X165010000Y-121230000D03*
X167550000Y-118690000D03*
X167550000Y-121230000D03*
X170090000Y-118690000D03*
X170090000Y-121230000D03*
%TD*%
%TO.C,PB2-P1*%
X126910000Y-88770000D03*
X126910000Y-91310000D03*
X129450000Y-88770000D03*
X129450000Y-91310000D03*
X131990000Y-88770000D03*
X131990000Y-91310000D03*
X134530000Y-88770000D03*
X134530000Y-91310000D03*
X137070000Y-88770000D03*
X137070000Y-91310000D03*
X139610000Y-88770000D03*
X139610000Y-91310000D03*
X142150000Y-88770000D03*
X142150000Y-91310000D03*
X144690000Y-88770000D03*
X144690000Y-91310000D03*
X147230000Y-88770000D03*
X147230000Y-91310000D03*
X149770000Y-88770000D03*
X149770000Y-91310000D03*
X152310000Y-88770000D03*
X152310000Y-91310000D03*
X154850000Y-88770000D03*
X154850000Y-91310000D03*
X157390000Y-88770000D03*
X157390000Y-91310000D03*
X159930000Y-88770000D03*
X159930000Y-91310000D03*
X162470000Y-88770000D03*
X162470000Y-91310000D03*
X165010000Y-88770000D03*
X165010000Y-91310000D03*
X167550000Y-88770000D03*
X167550000Y-91310000D03*
X170090000Y-88770000D03*
X170090000Y-91310000D03*
%TD*%
D22*
%TO.C,U-ISO-TX*%
X127900000Y-98555000D03*
X127900000Y-99825000D03*
X127900000Y-101095000D03*
X127900000Y-102365000D03*
X127900000Y-103635000D03*
X127900000Y-104905000D03*
X127900000Y-106175000D03*
X127900000Y-107445000D03*
X138100000Y-107445000D03*
X138100000Y-106175000D03*
X138100000Y-104905000D03*
X138100000Y-103635000D03*
X138100000Y-102365000D03*
X138100000Y-101095000D03*
X138100000Y-99825000D03*
X138100000Y-98555000D03*
%TD*%
D36*
%TO.C,ETH-PHY*%
X140250000Y-107000000D03*
X140750000Y-107000000D03*
X141250000Y-107000000D03*
X141750000Y-107000000D03*
X142250000Y-107000000D03*
X142750000Y-107000000D03*
X143250000Y-107000000D03*
X143750000Y-107000000D03*
X144250000Y-107000000D03*
X144750000Y-107000000D03*
X145250000Y-107000000D03*
X145750000Y-107000000D03*
D37*
X139000000Y-105750000D03*
X139000000Y-105250000D03*
X139000000Y-104750000D03*
X139000000Y-104250000D03*
X139000000Y-103750000D03*
X139000000Y-103250000D03*
X139000000Y-102750000D03*
X139000000Y-102250000D03*
X139000000Y-101750000D03*
X139000000Y-101250000D03*
X139000000Y-100750000D03*
X139000000Y-100250000D03*
D36*
X145750000Y-99000000D03*
X145250000Y-99000000D03*
X144750000Y-99000000D03*
X144250000Y-99000000D03*
X143750000Y-99000000D03*
X143250000Y-99000000D03*
X142750000Y-99000000D03*
X142250000Y-99000000D03*
X141750000Y-99000000D03*
X141250000Y-99000000D03*
X140750000Y-99000000D03*
X140250000Y-99000000D03*
D37*
X147000000Y-100250000D03*
X147000000Y-100750000D03*
X147000000Y-101250000D03*
X147000000Y-101750000D03*
X147000000Y-102250000D03*
X147000000Y-102750000D03*
X147000000Y-103250000D03*
X147000000Y-103750000D03*
X147000000Y-104250000D03*
X147000000Y-104750000D03*
X147000000Y-105250000D03*
X147000000Y-105750000D03*
D38*
X143000000Y-103000000D03*
%TD*%
D22*
%TO.C,U-ISO-RX*%
X148900000Y-98555000D03*
X148900000Y-99825000D03*
X148900000Y-101095000D03*
X148900000Y-102365000D03*
X148900000Y-103635000D03*
X148900000Y-104905000D03*
X148900000Y-106175000D03*
X148900000Y-107445000D03*
X159100000Y-107445000D03*
X159100000Y-106175000D03*
X159100000Y-104905000D03*
X159100000Y-103635000D03*
X159100000Y-102365000D03*
X159100000Y-101095000D03*
X159100000Y-99825000D03*
X159100000Y-98555000D03*
%TD*%
D39*
%TO.C,T-ETH*%
X157500000Y-101500000D03*
X157500000Y-102500000D03*
X157500000Y-103500000D03*
X157500000Y-104500000D03*
X162500000Y-101500000D03*
X162500000Y-102500000D03*
X162500000Y-103500000D03*
X162500000Y-104500000D03*
%TD*%
D10*
%TO.C,J-ETH*%
X163125000Y-103000000D03*
X164375000Y-103000000D03*
X165625000Y-103000000D03*
X166875000Y-103000000D03*
%TD*%
D40*
%TO.C,CMC-CAN*%
X125850000Y-96150000D03*
X125850000Y-96850000D03*
X129150000Y-96150000D03*
X129150000Y-96850000D03*
%TD*%
D41*
%TO.C,TVS-CAN*%
X129700000Y-95850000D03*
X129700000Y-96500000D03*
X129700000Y-97150000D03*
X132300000Y-97150000D03*
X132300000Y-96500000D03*
X132300000Y-95850000D03*
%TD*%
D40*
%TO.C,CMC-RS485*%
X125850000Y-99150000D03*
X125850000Y-99850000D03*
X129150000Y-99150000D03*
X129150000Y-99850000D03*
%TD*%
D41*
%TO.C,TVS-RS485*%
X129700000Y-98850000D03*
X129700000Y-99500000D03*
X129700000Y-100150000D03*
X132300000Y-100150000D03*
X132300000Y-99500000D03*
X132300000Y-98850000D03*
%TD*%
D42*
%TO.C,TVS-1553*%
X146300000Y-119000000D03*
X151700000Y-119000000D03*
%TD*%
D43*
%TO.C,FB1*%
X126850000Y-122000000D03*
X129150000Y-122000000D03*
%TD*%
D44*
%TO.C,X2Y-CAN*%
X131200000Y-113500000D03*
X132800000Y-113500000D03*
D45*
X132000000Y-113100000D03*
X132000000Y-113900000D03*
%TD*%
D44*
%TO.C,X2Y-RS485*%
X131200000Y-109500000D03*
X132800000Y-109500000D03*
D45*
X132000000Y-109100000D03*
X132000000Y-109900000D03*
%TD*%
M02*
