%TF.GenerationSoftware,KiCad,Pcbnew,9.0.2+dfsg-1*%
%TF.CreationDate,2026-06-04T19:35:04-04:00*%
%TF.ProjectId,CAPE-A-2,43415045-2d41-42d3-922e-6b696361645f,A-STUB*%
%TF.SameCoordinates,Original*%
%TF.FileFunction,Copper,L1,Top*%
%TF.FilePolarity,Positive*%
%FSLAX46Y46*%
G04 Gerber Fmt 4.6, Leading zero omitted, Abs format (unit mm)*
G04 Created by KiCad (PCBNEW 9.0.2+dfsg-1) date 2026-06-04 19:35:04*
%MOMM*%
%LPD*%
G01*
G04 APERTURE LIST*
G04 Aperture macros list*
%AMRoundRect*
0 Rectangle with rounded corners*
0 $1 Rounding radius*
0 $2 $3 $4 $5 $6 $7 $8 $9 X,Y pos of 4 corners*
0 Add a 4 corners polygon primitive as box body*
4,1,4,$2,$3,$4,$5,$6,$7,$8,$9,$2,$3,0*
0 Add four circle primitives for the rounded corners*
1,1,$1+$1,$2,$3*
1,1,$1+$1,$4,$5*
1,1,$1+$1,$6,$7*
1,1,$1+$1,$8,$9*
0 Add four rect primitives between the rounded corners*
20,1,$1+$1,$2,$3,$4,$5,0*
20,1,$1+$1,$4,$5,$6,$7,0*
20,1,$1+$1,$6,$7,$8,$9,0*
20,1,$1+$1,$8,$9,$2,$3,0*%
%AMFreePoly0*
4,1,14,0.314644,0.085355,0.385355,0.014644,0.400000,-0.020711,0.400000,-0.050000,0.385355,-0.085355,0.350000,-0.100000,-0.350000,-0.100000,-0.385355,-0.085355,-0.400000,-0.050000,-0.400000,0.050000,-0.385355,0.085355,-0.350000,0.100000,0.279289,0.100000,0.314644,0.085355,0.314644,0.085355,$1*%
%AMFreePoly1*
4,1,14,0.385355,0.085355,0.400000,0.050000,0.400000,0.020711,0.385355,-0.014644,0.314644,-0.085355,0.279289,-0.100000,-0.350000,-0.100000,-0.385355,-0.085355,-0.400000,-0.050000,-0.400000,0.050000,-0.385355,0.085355,-0.350000,0.100000,0.350000,0.100000,0.385355,0.085355,0.385355,0.085355,$1*%
%AMFreePoly2*
4,1,14,0.085355,0.385355,0.100000,0.350000,0.100000,-0.350000,0.085355,-0.385355,0.050000,-0.400000,-0.050000,-0.400000,-0.085355,-0.385355,-0.100000,-0.350000,-0.100000,0.279289,-0.085355,0.314644,-0.014644,0.385355,0.020711,0.400000,0.050000,0.400000,0.085355,0.385355,0.085355,0.385355,$1*%
%AMFreePoly3*
4,1,14,0.014644,0.385355,0.085355,0.314644,0.100000,0.279289,0.100000,-0.350000,0.085355,-0.385355,0.050000,-0.400000,-0.050000,-0.400000,-0.085355,-0.385355,-0.100000,-0.350000,-0.100000,0.350000,-0.085355,0.385355,-0.050000,0.400000,-0.020711,0.400000,0.014644,0.385355,0.014644,0.385355,$1*%
%AMFreePoly4*
4,1,14,0.385355,0.085355,0.400000,0.050000,0.400000,-0.050000,0.385355,-0.085355,0.350000,-0.100000,-0.279289,-0.100000,-0.314644,-0.085355,-0.385355,-0.014644,-0.400000,0.020711,-0.400000,0.050000,-0.385355,0.085355,-0.350000,0.100000,0.350000,0.100000,0.385355,0.085355,0.385355,0.085355,$1*%
%AMFreePoly5*
4,1,14,0.385355,0.085355,0.400000,0.050000,0.400000,-0.050000,0.385355,-0.085355,0.350000,-0.100000,-0.350000,-0.100000,-0.385355,-0.085355,-0.400000,-0.050000,-0.400000,-0.020711,-0.385355,0.014644,-0.314644,0.085355,-0.279289,0.100000,0.350000,0.100000,0.385355,0.085355,0.385355,0.085355,$1*%
%AMFreePoly6*
4,1,14,0.085355,0.385355,0.100000,0.350000,0.100000,-0.279289,0.085355,-0.314644,0.014644,-0.385355,-0.020711,-0.400000,-0.050000,-0.400000,-0.085355,-0.385355,-0.100000,-0.350000,-0.100000,0.350000,-0.085355,0.385355,-0.050000,0.400000,0.050000,0.400000,0.085355,0.385355,0.085355,0.385355,$1*%
%AMFreePoly7*
4,1,14,0.085355,0.385355,0.100000,0.350000,0.100000,-0.350000,0.085355,-0.385355,0.050000,-0.400000,0.020711,-0.400000,-0.014644,-0.385355,-0.085355,-0.314644,-0.100000,-0.279289,-0.100000,0.350000,-0.085355,0.385355,-0.050000,0.400000,0.050000,0.400000,0.085355,0.385355,0.085355,0.385355,$1*%
G04 Aperture macros list end*
%TA.AperFunction,SMDPad,CuDef*%
%ADD10R,0.800000X1.600000*%
%TD*%
%TA.AperFunction,SMDPad,CuDef*%
%ADD11RoundRect,0.087500X-0.225000X-0.087500X0.225000X-0.087500X0.225000X0.087500X-0.225000X0.087500X0*%
%TD*%
%TA.AperFunction,SMDPad,CuDef*%
%ADD12RoundRect,0.087500X-0.087500X-0.225000X0.087500X-0.225000X0.087500X0.225000X-0.087500X0.225000X0*%
%TD*%
%TA.AperFunction,SMDPad,CuDef*%
%ADD13R,0.350000X0.500000*%
%TD*%
%TA.AperFunction,SMDPad,CuDef*%
%ADD14R,0.500000X0.500000*%
%TD*%
%TA.AperFunction,SMDPad,CuDef*%
%ADD15R,8.000000X8.000000*%
%TD*%
%TA.AperFunction,SMDPad,CuDef*%
%ADD16R,1.600000X0.800000*%
%TD*%
%TA.AperFunction,SMDPad,CuDef*%
%ADD17RoundRect,0.150000X0.825000X0.150000X-0.825000X0.150000X-0.825000X-0.150000X0.825000X-0.150000X0*%
%TD*%
%TA.AperFunction,ComponentPad*%
%ADD18R,1.700000X1.700000*%
%TD*%
%TA.AperFunction,ComponentPad*%
%ADD19C,1.700000*%
%TD*%
%TA.AperFunction,SMDPad,CuDef*%
%ADD20R,3.360000X4.800000*%
%TD*%
%TA.AperFunction,SMDPad,CuDef*%
%ADD21RoundRect,0.150000X-0.825000X-0.150000X0.825000X-0.150000X0.825000X0.150000X-0.825000X0.150000X0*%
%TD*%
%TA.AperFunction,SMDPad,CuDef*%
%ADD22FreePoly0,180.000000*%
%TD*%
%TA.AperFunction,SMDPad,CuDef*%
%ADD23RoundRect,0.050000X0.350000X0.050000X-0.350000X0.050000X-0.350000X-0.050000X0.350000X-0.050000X0*%
%TD*%
%TA.AperFunction,SMDPad,CuDef*%
%ADD24FreePoly1,180.000000*%
%TD*%
%TA.AperFunction,SMDPad,CuDef*%
%ADD25FreePoly2,180.000000*%
%TD*%
%TA.AperFunction,SMDPad,CuDef*%
%ADD26RoundRect,0.050000X0.050000X0.350000X-0.050000X0.350000X-0.050000X-0.350000X0.050000X-0.350000X0*%
%TD*%
%TA.AperFunction,SMDPad,CuDef*%
%ADD27FreePoly3,180.000000*%
%TD*%
%TA.AperFunction,SMDPad,CuDef*%
%ADD28FreePoly4,180.000000*%
%TD*%
%TA.AperFunction,SMDPad,CuDef*%
%ADD29FreePoly5,180.000000*%
%TD*%
%TA.AperFunction,SMDPad,CuDef*%
%ADD30FreePoly6,180.000000*%
%TD*%
%TA.AperFunction,SMDPad,CuDef*%
%ADD31FreePoly7,180.000000*%
%TD*%
%TA.AperFunction,HeatsinkPad*%
%ADD32R,2.650000X2.650000*%
%TD*%
%TA.AperFunction,ComponentPad*%
%ADD33R,1.500000X1.500000*%
%TD*%
%TA.AperFunction,ComponentPad*%
%ADD34C,1.500000*%
%TD*%
%TA.AperFunction,SMDPad,CuDef*%
%ADD35RoundRect,0.075000X-0.075000X-0.250000X0.075000X-0.250000X0.075000X0.250000X-0.075000X0.250000X0*%
%TD*%
%TA.AperFunction,SMDPad,CuDef*%
%ADD36RoundRect,0.075000X-0.250000X-0.075000X0.250000X-0.075000X0.250000X0.075000X-0.250000X0.075000X0*%
%TD*%
%TA.AperFunction,ComponentPad*%
%ADD37RoundRect,0.000000X-2.825000X-2.825000X2.825000X-2.825000X2.825000X2.825000X-2.825000X2.825000X0*%
%TD*%
%TA.AperFunction,SMDPad,CuDef*%
%ADD38RoundRect,0.150000X-0.450000X-0.150000X0.450000X-0.150000X0.450000X0.150000X-0.450000X0.150000X0*%
%TD*%
%TA.AperFunction,SMDPad,CuDef*%
%ADD39RoundRect,0.125000X-0.325000X-0.125000X0.325000X-0.125000X0.325000X0.125000X-0.325000X0.125000X0*%
%TD*%
%TA.AperFunction,SMDPad,CuDef*%
%ADD40RoundRect,0.137500X-0.312500X-0.137500X0.312500X-0.137500X0.312500X0.137500X-0.312500X0.137500X0*%
%TD*%
%TA.AperFunction,SMDPad,CuDef*%
%ADD41RoundRect,0.500000X-0.500000X-0.850000X0.500000X-0.850000X0.500000X0.850000X-0.500000X0.850000X0*%
%TD*%
%TA.AperFunction,SMDPad,CuDef*%
%ADD42RoundRect,0.350000X-0.425000X-0.350000X0.425000X-0.350000X0.425000X0.350000X-0.425000X0.350000X0*%
%TD*%
%TA.AperFunction,SMDPad,CuDef*%
%ADD43RoundRect,0.137500X-0.162500X-0.137500X0.162500X-0.137500X0.162500X0.137500X-0.162500X0.137500X0*%
%TD*%
%TA.AperFunction,SMDPad,CuDef*%
%ADD44RoundRect,0.100000X-0.175000X-0.100000X0.175000X-0.100000X0.175000X0.100000X-0.175000X0.100000X0*%
%TD*%
%TA.AperFunction,ViaPad*%
%ADD45C,0.800000*%
%TD*%
%TA.AperFunction,Conductor*%
%ADD46C,0.100000*%
%TD*%
%ADD47C,0.350000*%
%ADD48O,0.500000X0.500000*%
G04 APERTURE END LIST*
D10*
%TO.P,CAN-FD,1*%
%TO.N,N/C*%
X125125000Y-94000000D03*
%TO.P,CAN-FD,2*%
X126375000Y-94000000D03*
%TO.P,CAN-FD,3*%
X127625000Y-94000000D03*
%TO.P,CAN-FD,4*%
X128875000Y-94000000D03*
%TD*%
D11*
%TO.P,IMU,1*%
%TO.N,SPI0_MOSI*%
X132837500Y-94750000D03*
%TO.P,IMU,2*%
%TO.N,SPI0_CLK*%
X132837500Y-95250000D03*
%TO.P,IMU,3*%
%TO.N,SPI0_CS_IMU*%
X132837500Y-95750000D03*
%TO.P,IMU,4*%
%TO.N,N/C*%
X132837500Y-96250000D03*
D12*
%TO.P,IMU,5*%
%TO.N,SPI0_MISO*%
X133500000Y-96412500D03*
%TO.P,IMU,6*%
%TO.N,N/C*%
X134000000Y-96412500D03*
%TO.P,IMU,7*%
X134500000Y-96412500D03*
D11*
%TO.P,IMU,8*%
X135162500Y-96250000D03*
%TO.P,IMU,9*%
X135162500Y-95750000D03*
%TO.P,IMU,10*%
X135162500Y-95250000D03*
%TO.P,IMU,11*%
X135162500Y-94750000D03*
D12*
%TO.P,IMU,12*%
X134500000Y-94587500D03*
%TO.P,IMU,13*%
X134000000Y-94587500D03*
%TO.P,IMU,14*%
%TO.N,IMU_INT2*%
X133500000Y-94587500D03*
%TD*%
D13*
%TO.P,BARO,1*%
%TO.N,N/C*%
X137525000Y-94700000D03*
%TO.P,BARO,2*%
X138175000Y-94700000D03*
%TO.P,BARO,3*%
%TO.N,SPI0_MISO*%
X138825000Y-94700000D03*
%TO.P,BARO,4*%
%TO.N,N/C*%
X139475000Y-94700000D03*
%TO.P,BARO,5*%
%TO.N,SPI0_MOSI*%
X139475000Y-96300000D03*
%TO.P,BARO,6*%
%TO.N,SPI0_CLK*%
X138825000Y-96300000D03*
%TO.P,BARO,7*%
%TO.N,SPI0_CS_BARO*%
X138175000Y-96300000D03*
%TO.P,BARO,8*%
%TO.N,N/C*%
X137525000Y-96300000D03*
%TD*%
D14*
%TO.P,GPS,1*%
%TO.N,N/C*%
X153600000Y-103000000D03*
D15*
%TO.P,GPS,SAM-M10Q-00B*%
X159000000Y-103000000D03*
%TD*%
D16*
%TO.P,GPIO-F,1*%
%TO.N,N/C*%
X170500000Y-94500000D03*
%TO.P,GPIO-F,2*%
X170500000Y-95750000D03*
%TO.P,GPIO-F,3*%
X170500000Y-97000000D03*
%TD*%
D17*
%TO.P,1553-DRV,1*%
%TO.N,N/C*%
X151975000Y-117445000D03*
%TO.P,1553-DRV,2*%
X151975000Y-116175000D03*
%TO.P,1553-DRV,3*%
X151975000Y-114905000D03*
%TO.P,1553-DRV,4*%
X151975000Y-113635000D03*
%TO.P,1553-DRV,5*%
X151975000Y-112365000D03*
%TO.P,1553-DRV,6*%
%TO.N,PRU_1553_TX_N*%
X151975000Y-111095000D03*
%TO.P,1553-DRV,7*%
%TO.N,N/C*%
X151975000Y-109825000D03*
%TO.P,1553-DRV,8*%
X151975000Y-108555000D03*
%TO.P,1553-DRV,9*%
X147025000Y-108555000D03*
%TO.P,1553-DRV,10*%
%TO.N,PRU_1553_TX_P*%
X147025000Y-109825000D03*
%TO.P,1553-DRV,11*%
%TO.N,N/C*%
X147025000Y-111095000D03*
%TO.P,1553-DRV,12*%
X147025000Y-112365000D03*
%TO.P,1553-DRV,13*%
X147025000Y-113635000D03*
%TO.P,1553-DRV,14*%
X147025000Y-114905000D03*
%TO.P,1553-DRV,15*%
X147025000Y-116175000D03*
%TO.P,1553-DRV,16*%
%TO.N,M1553_TX_N*%
X147025000Y-117445000D03*
%TD*%
D10*
%TO.P,MIL-1553,1*%
%TO.N,N/C*%
X125125000Y-103000000D03*
%TO.P,MIL-1553,2*%
X126375000Y-103000000D03*
%TO.P,MIL-1553,3*%
X127625000Y-103000000D03*
%TO.P,MIL-1553,4*%
X128875000Y-103000000D03*
%TD*%
%TO.P,RS-485,1*%
%TO.N,N/C*%
X125125000Y-98500000D03*
%TO.P,RS-485,2*%
X126375000Y-98500000D03*
%TO.P,RS-485,3*%
X127625000Y-98500000D03*
%TO.P,RS-485,4*%
X128875000Y-98500000D03*
%TD*%
D18*
%TO.P,SERVO-PWM,1*%
%TO.N,N/C*%
X174000000Y-95460000D03*
D19*
%TO.P,SERVO-PWM,2*%
X174000000Y-98000000D03*
%TO.P,SERVO-PWM,3*%
X174000000Y-100540000D03*
%TO.P,SERVO-PWM,4*%
X174000000Y-103080000D03*
%TO.P,SERVO-PWM,5*%
X174000000Y-105620000D03*
%TO.P,SERVO-PWM,6*%
X174000000Y-108160000D03*
%TO.P,SERVO-PWM,7*%
X174000000Y-110700000D03*
%TO.P,SERVO-PWM,8*%
X174000000Y-113240000D03*
%TD*%
D10*
%TO.P,GPIO-D,1*%
%TO.N,N/C*%
X159750000Y-95000000D03*
%TO.P,GPIO-D,2*%
X161000000Y-95000000D03*
%TO.P,GPIO-D,3*%
X162250000Y-95000000D03*
%TD*%
%TO.P,GPIO-A,1*%
%TO.N,N/C*%
X143000000Y-95000000D03*
%TO.P,GPIO-A,2*%
X144250000Y-95000000D03*
%TO.P,GPIO-A,3*%
X145500000Y-95000000D03*
%TD*%
D14*
%TO.P,1553-XFM,1*%
%TO.N,N/C*%
X141500000Y-116500000D03*
D20*
%TO.P,1553-XFM,SM-1553-11*%
X141500000Y-112500000D03*
%TD*%
D10*
%TO.P,GPIO-C,1*%
%TO.N,N/C*%
X154500000Y-95000000D03*
%TO.P,GPIO-C,2*%
X155750000Y-95000000D03*
%TO.P,GPIO-C,3*%
X157000000Y-95000000D03*
%TD*%
D21*
%TO.P,RS485,1*%
%TO.N,+3V3*%
X129900000Y-104785000D03*
%TO.P,RS485,2*%
%TO.N,GND*%
X129900000Y-106055000D03*
%TO.P,RS485,3*%
%TO.N,RS485_TX*%
X129900000Y-107325000D03*
%TO.P,RS485,4*%
%TO.N,RS485_DE*%
X129900000Y-108595000D03*
%TO.P,RS485,5*%
X129900000Y-109865000D03*
%TO.P,RS485,6*%
%TO.N,RS485_RX*%
X129900000Y-111135000D03*
%TO.P,RS485,7*%
%TO.N,GND*%
X129900000Y-112405000D03*
%TO.P,RS485,8*%
X129900000Y-113675000D03*
%TO.P,RS485,9*%
%TO.N,N/C*%
X129900000Y-114945000D03*
%TO.P,RS485,10*%
X129900000Y-116215000D03*
%TO.P,RS485,11*%
X140100000Y-116215000D03*
%TO.P,RS485,12*%
X140100000Y-114945000D03*
%TO.P,RS485,13*%
X140100000Y-113675000D03*
%TO.P,RS485,14*%
X140100000Y-112405000D03*
%TO.P,RS485,15*%
%TO.N,RS485_B*%
X140100000Y-111135000D03*
%TO.P,RS485,16*%
%TO.N,N/C*%
X140100000Y-109865000D03*
%TO.P,RS485,17*%
X140100000Y-108595000D03*
%TO.P,RS485,18*%
X140100000Y-107325000D03*
%TO.P,RS485,19*%
X140100000Y-106055000D03*
%TO.P,RS485,20*%
X140100000Y-104785000D03*
%TD*%
D22*
%TO.P,TPM,1*%
%TO.N,TPM_RSTN*%
X170450000Y-111900000D03*
D23*
%TO.P,TPM,2*%
%TO.N,N/C*%
X170450000Y-111500000D03*
%TO.P,TPM,3*%
X170450000Y-111100000D03*
%TO.P,TPM,4*%
X170450000Y-110700000D03*
%TO.P,TPM,5*%
X170450000Y-110300000D03*
%TO.P,TPM,6*%
X170450000Y-109900000D03*
%TO.P,TPM,7*%
X170450000Y-109500000D03*
D24*
%TO.P,TPM,8*%
X170450000Y-109100000D03*
D25*
%TO.P,TPM,9*%
X169900000Y-108550000D03*
D26*
%TO.P,TPM,10*%
X169500000Y-108550000D03*
%TO.P,TPM,11*%
X169100000Y-108550000D03*
%TO.P,TPM,12*%
X168700000Y-108550000D03*
%TO.P,TPM,13*%
X168300000Y-108550000D03*
%TO.P,TPM,14*%
X167900000Y-108550000D03*
%TO.P,TPM,15*%
X167500000Y-108550000D03*
D27*
%TO.P,TPM,16*%
X167100000Y-108550000D03*
D28*
%TO.P,TPM,17*%
X166550000Y-109100000D03*
D23*
%TO.P,TPM,18*%
X166550000Y-109500000D03*
%TO.P,TPM,19*%
X166550000Y-109900000D03*
%TO.P,TPM,20*%
X166550000Y-110300000D03*
%TO.P,TPM,21*%
%TO.N,SPI0_MOSI*%
X166550000Y-110700000D03*
%TO.P,TPM,22*%
%TO.N,SPI0_MISO*%
X166550000Y-111100000D03*
%TO.P,TPM,23*%
%TO.N,SPI0_CLK*%
X166550000Y-111500000D03*
D29*
%TO.P,TPM,24*%
%TO.N,TPM_IRQN*%
X166550000Y-111900000D03*
D30*
%TO.P,TPM,25*%
%TO.N,N/C*%
X167100000Y-112450000D03*
D26*
%TO.P,TPM,26*%
X167500000Y-112450000D03*
%TO.P,TPM,27*%
X167900000Y-112450000D03*
%TO.P,TPM,28*%
%TO.N,SPI0_CS_TPM*%
X168300000Y-112450000D03*
%TO.P,TPM,29*%
%TO.N,N/C*%
X168700000Y-112450000D03*
%TO.P,TPM,30*%
X169100000Y-112450000D03*
%TO.P,TPM,31*%
X169500000Y-112450000D03*
D31*
%TO.P,TPM,32*%
X169900000Y-112450000D03*
D32*
%TO.P,TPM,33*%
X168500000Y-110500000D03*
%TD*%
D10*
%TO.P,ESC-TLM,1*%
%TO.N,N/C*%
X167250000Y-100000000D03*
%TO.P,ESC-TLM,2*%
X168500000Y-100000000D03*
%TO.P,ESC-TLM,3*%
X169750000Y-100000000D03*
%TD*%
D16*
%TO.P,GPIO-E,1*%
%TO.N,N/C*%
X167000000Y-94500000D03*
%TO.P,GPIO-E,2*%
X167000000Y-95750000D03*
%TO.P,GPIO-E,3*%
X167000000Y-97000000D03*
%TD*%
D33*
%TO.P,PWR-IN,1*%
%TO.N,N/C*%
X123000000Y-116000000D03*
D34*
%TO.P,PWR-IN,2*%
X125500000Y-116000000D03*
%TO.P,PWR-IN,3*%
X128000000Y-116000000D03*
%TO.P,PWR-IN,4*%
X130500000Y-116000000D03*
%TD*%
D10*
%TO.P,GPIO-B,1*%
%TO.N,N/C*%
X149000000Y-95000000D03*
%TO.P,GPIO-B,2*%
X150250000Y-95000000D03*
%TO.P,GPIO-B,3*%
X151500000Y-95000000D03*
%TD*%
D21*
%TO.P,CAN-TR,1*%
%TO.N,+3V3*%
X129900000Y-110555000D03*
%TO.P,CAN-TR,2*%
%TO.N,MCAN0_TX*%
X129900000Y-111825000D03*
%TO.P,CAN-TR,3*%
%TO.N,CAN_STB*%
X129900000Y-113095000D03*
%TO.P,CAN-TR,4*%
%TO.N,MCAN0_RX*%
X129900000Y-114365000D03*
%TO.P,CAN-TR,5*%
%TO.N,N/C*%
X129900000Y-115635000D03*
%TO.P,CAN-TR,6*%
X129900000Y-116905000D03*
%TO.P,CAN-TR,7*%
X129900000Y-118175000D03*
%TO.P,CAN-TR,8*%
%TO.N,GND*%
X129900000Y-119445000D03*
%TO.P,CAN-TR,9*%
%TO.N,N/C*%
X140100000Y-119445000D03*
%TO.P,CAN-TR,10*%
%TO.N,CAN_L*%
X140100000Y-118175000D03*
%TO.P,CAN-TR,11*%
%TO.N,N/C*%
X140100000Y-116905000D03*
%TO.P,CAN-TR,12*%
X140100000Y-115635000D03*
%TO.P,CAN-TR,13*%
X140100000Y-114365000D03*
%TO.P,CAN-TR,14*%
X140100000Y-113095000D03*
%TO.P,CAN-TR,15*%
X140100000Y-111825000D03*
%TO.P,CAN-TR,16*%
X140100000Y-110555000D03*
%TD*%
%TO.P,1553-RCV,1*%
%TO.N,N/C*%
X157525000Y-108555000D03*
%TO.P,1553-RCV,2*%
X157525000Y-109825000D03*
%TO.P,1553-RCV,3*%
X157525000Y-111095000D03*
%TO.P,1553-RCV,4*%
X157525000Y-112365000D03*
%TO.P,1553-RCV,5*%
X157525000Y-113635000D03*
%TO.P,1553-RCV,6*%
X157525000Y-114905000D03*
%TO.P,1553-RCV,7*%
X157525000Y-116175000D03*
%TO.P,1553-RCV,8*%
X157525000Y-117445000D03*
%TO.P,1553-RCV,9*%
%TO.N,M1553_RX_P*%
X162475000Y-117445000D03*
%TO.P,1553-RCV,10*%
%TO.N,N/C*%
X162475000Y-116175000D03*
%TO.P,1553-RCV,11*%
X162475000Y-114905000D03*
%TO.P,1553-RCV,12*%
%TO.N,M1553_RX_N*%
X162475000Y-113635000D03*
%TO.P,1553-RCV,13*%
%TO.N,PRU_1553_RX_N*%
X162475000Y-112365000D03*
%TO.P,1553-RCV,14*%
%TO.N,N/C*%
X162475000Y-111095000D03*
%TO.P,1553-RCV,15*%
X162475000Y-109825000D03*
%TO.P,1553-RCV,16*%
X162475000Y-108555000D03*
%TD*%
D19*
%TO.P,PB2-P2,1*%
%TO.N,SERVO7*%
X126910000Y-118690000D03*
%TO.P,PB2-P2,2*%
%TO.N,SERVO6*%
X126910000Y-121230000D03*
%TO.P,PB2-P2,3*%
%TO.N,SERVO5*%
X129450000Y-118690000D03*
%TO.P,PB2-P2,4*%
%TO.N,SERVO4*%
X129450000Y-121230000D03*
%TO.P,PB2-P2,5*%
%TO.N,SERVO3*%
X131990000Y-118690000D03*
%TO.P,PB2-P2,6*%
%TO.N,SERVO2*%
X131990000Y-121230000D03*
%TO.P,PB2-P2,7*%
%TO.N,SERVO1*%
X134530000Y-118690000D03*
%TO.P,PB2-P2,8*%
%TO.N,SERVO0*%
X134530000Y-121230000D03*
%TO.P,PB2-P2,9*%
%TO.N,GPS_RESETN*%
X137070000Y-118690000D03*
%TO.P,PB2-P2,10*%
%TO.N,GPS_TIMEPULSE*%
X137070000Y-121230000D03*
%TO.P,PB2-P2,11*%
%TO.N,TPM_RSTN*%
X139610000Y-118690000D03*
%TO.P,PB2-P2,12*%
%TO.N,TPM_IRQN*%
X139610000Y-121230000D03*
%TO.P,PB2-P2,13*%
%TO.N,PHY2_RSTN*%
X142150000Y-118690000D03*
%TO.P,PB2-P2,14*%
%TO.N,PHY2_INTRN*%
X142150000Y-121230000D03*
%TO.P,PB2-P2,15*%
%TO.N,PHY1_RSTN*%
X144690000Y-118690000D03*
%TO.P,PB2-P2,16*%
%TO.N,PHY1_INTRN*%
X144690000Y-121230000D03*
%TO.P,PB2-P2,17*%
%TO.N,MDIO*%
X147230000Y-118690000D03*
%TO.P,PB2-P2,18*%
%TO.N,MDC*%
X147230000Y-121230000D03*
%TO.P,PB2-P2,19*%
%TO.N,RMII1_REF_CLK*%
X149770000Y-118690000D03*
%TO.P,PB2-P2,20*%
%TO.N,RMII1_RX_ER*%
X149770000Y-121230000D03*
%TO.P,PB2-P2,21*%
%TO.N,RMII1_CRS_DV*%
X152310000Y-118690000D03*
%TO.P,PB2-P2,22*%
%TO.N,RMII1_RXD1*%
X152310000Y-121230000D03*
%TO.P,PB2-P2,23*%
%TO.N,RMII1_RXD0*%
X154850000Y-118690000D03*
%TO.P,PB2-P2,24*%
%TO.N,RMII1_TX_EN*%
X154850000Y-121230000D03*
%TO.P,PB2-P2,25*%
%TO.N,RMII1_TXD1*%
X157390000Y-118690000D03*
%TO.P,PB2-P2,26*%
%TO.N,RMII1_TXD0*%
X157390000Y-121230000D03*
%TO.P,PB2-P2,27*%
%TO.N,RMII0_REF_CLK*%
X159930000Y-118690000D03*
%TO.P,PB2-P2,28*%
%TO.N,RMII0_RX_ER*%
X159930000Y-121230000D03*
%TO.P,PB2-P2,29*%
%TO.N,RMII0_CRS_DV*%
X162470000Y-118690000D03*
%TO.P,PB2-P2,30*%
%TO.N,RMII0_RXD1*%
X162470000Y-121230000D03*
%TO.P,PB2-P2,31*%
%TO.N,RMII0_RXD0*%
X165010000Y-118690000D03*
%TO.P,PB2-P2,32*%
%TO.N,RMII0_TX_EN*%
X165010000Y-121230000D03*
%TO.P,PB2-P2,33*%
%TO.N,RMII0_TXD1*%
X167550000Y-118690000D03*
%TO.P,PB2-P2,34*%
%TO.N,RMII0_TXD0*%
X167550000Y-121230000D03*
%TO.P,PB2-P2,35*%
%TO.N,+5V*%
X170090000Y-118690000D03*
%TO.P,PB2-P2,36*%
%TO.N,GND*%
X170090000Y-121230000D03*
%TD*%
%TO.P,PB2-P1,1*%
%TO.N,GND*%
X126910000Y-88770000D03*
%TO.P,PB2-P1,2*%
X126910000Y-91310000D03*
%TO.P,PB2-P1,3*%
%TO.N,DSHOT3*%
X129450000Y-88770000D03*
%TO.P,PB2-P1,4*%
%TO.N,DSHOT2*%
X129450000Y-91310000D03*
%TO.P,PB2-P1,5*%
%TO.N,DSHOT1*%
X131990000Y-88770000D03*
%TO.P,PB2-P1,6*%
%TO.N,DSHOT0*%
X131990000Y-91310000D03*
%TO.P,PB2-P1,7*%
%TO.N,PRU_1553_RX_N*%
X134530000Y-88770000D03*
%TO.P,PB2-P1,8*%
%TO.N,PRU_1553_RX_P*%
X134530000Y-91310000D03*
%TO.P,PB2-P1,9*%
%TO.N,PRU_1553_TX_N*%
X137070000Y-88770000D03*
%TO.P,PB2-P1,10*%
%TO.N,PRU_1553_TX_P*%
X137070000Y-91310000D03*
%TO.P,PB2-P1,11*%
%TO.N,RS485_DE*%
X139610000Y-88770000D03*
%TO.P,PB2-P1,12*%
%TO.N,RS485_RX*%
X139610000Y-91310000D03*
%TO.P,PB2-P1,13*%
%TO.N,RS485_TX*%
X142150000Y-88770000D03*
%TO.P,PB2-P1,14*%
%TO.N,CAN_STB*%
X142150000Y-91310000D03*
%TO.P,PB2-P1,15*%
%TO.N,MCAN0_RX*%
X144690000Y-88770000D03*
%TO.P,PB2-P1,16*%
%TO.N,MCAN0_TX*%
X144690000Y-91310000D03*
%TO.P,PB2-P1,17*%
%TO.N,BARO_INT*%
X147230000Y-88770000D03*
%TO.P,PB2-P1,18*%
%TO.N,IMU_INT2*%
X147230000Y-91310000D03*
%TO.P,PB2-P1,19*%
%TO.N,IMU_INT1*%
X149770000Y-88770000D03*
%TO.P,PB2-P1,20*%
%TO.N,SPI0_CS_1553*%
X149770000Y-91310000D03*
%TO.P,PB2-P1,21*%
%TO.N,SPI0_CS_TPM*%
X152310000Y-88770000D03*
%TO.P,PB2-P1,22*%
%TO.N,SPI0_CS_BARO*%
X152310000Y-91310000D03*
%TO.P,PB2-P1,23*%
%TO.N,SPI0_MISO*%
X154850000Y-88770000D03*
%TO.P,PB2-P1,24*%
%TO.N,SPI0_MOSI*%
X154850000Y-91310000D03*
%TO.P,PB2-P1,25*%
%TO.N,SPI0_CLK*%
X157390000Y-88770000D03*
%TO.P,PB2-P1,26*%
%TO.N,SPI0_CS_IMU*%
X157390000Y-91310000D03*
%TO.P,PB2-P1,27*%
%TO.N,I2C1_SDA*%
X159930000Y-88770000D03*
%TO.P,PB2-P1,28*%
%TO.N,I2C1_SCL*%
X159930000Y-91310000D03*
%TO.P,PB2-P1,29*%
%TO.N,UART_ESC_RX*%
X162470000Y-88770000D03*
%TO.P,PB2-P1,30*%
%TO.N,UART_ESC_TX*%
X162470000Y-91310000D03*
%TO.P,PB2-P1,31*%
%TO.N,UART_GPS_RX*%
X165010000Y-88770000D03*
%TO.P,PB2-P1,32*%
%TO.N,UART_GPS_TX*%
X165010000Y-91310000D03*
%TO.P,PB2-P1,33*%
%TO.N,+3V3*%
X167550000Y-88770000D03*
%TO.P,PB2-P1,34*%
X167550000Y-91310000D03*
%TO.P,PB2-P1,35*%
%TO.N,+5V*%
X170090000Y-88770000D03*
%TO.P,PB2-P1,36*%
%TO.N,GND*%
X170090000Y-91310000D03*
%TD*%
D21*
%TO.P,U-ISO-TX,1*%
%TO.N,+3V3*%
X127900000Y-98555000D03*
%TO.P,U-ISO-TX,2*%
%TO.N,RMII0_REF_CLK*%
X127900000Y-99825000D03*
%TO.P,U-ISO-TX,3*%
%TO.N,RMII0_TXD0*%
X127900000Y-101095000D03*
%TO.P,U-ISO-TX,4*%
%TO.N,RMII0_TXD1*%
X127900000Y-102365000D03*
%TO.P,U-ISO-TX,5*%
%TO.N,RMII0_TX_EN*%
X127900000Y-103635000D03*
%TO.P,U-ISO-TX,6*%
%TO.N,MDC*%
X127900000Y-104905000D03*
%TO.P,U-ISO-TX,7*%
%TO.N,PHY1_RSTN*%
X127900000Y-106175000D03*
%TO.P,U-ISO-TX,8*%
%TO.N,GND*%
X127900000Y-107445000D03*
%TO.P,U-ISO-TX,9*%
%TO.N,GND2_ETH*%
X138100000Y-107445000D03*
%TO.P,U-ISO-TX,10*%
%TO.N,PHY1_RSTN*%
X138100000Y-106175000D03*
%TO.P,U-ISO-TX,11*%
%TO.N,MDC*%
X138100000Y-104905000D03*
%TO.P,U-ISO-TX,12*%
%TO.N,RMII0_TX_EN*%
X138100000Y-103635000D03*
%TO.P,U-ISO-TX,13*%
%TO.N,RMII0_TXD1*%
X138100000Y-102365000D03*
%TO.P,U-ISO-TX,14*%
%TO.N,RMII0_TXD0*%
X138100000Y-101095000D03*
%TO.P,U-ISO-TX,15*%
%TO.N,RMII0_REF_CLK*%
X138100000Y-99825000D03*
%TO.P,U-ISO-TX,16*%
%TO.N,VCC2_ETH*%
X138100000Y-98555000D03*
%TD*%
D35*
%TO.P,ETH-PHY,1*%
%TO.N,ETH_TXP*%
X140250000Y-107000000D03*
%TO.P,ETH-PHY,2*%
%TO.N,ETH_TXN*%
X140750000Y-107000000D03*
%TO.P,ETH-PHY,3*%
%TO.N,GND*%
X141250000Y-107000000D03*
%TO.P,ETH-PHY,4*%
%TO.N,ETH_RXP*%
X141750000Y-107000000D03*
%TO.P,ETH-PHY,5*%
%TO.N,ETH_RXN*%
X142250000Y-107000000D03*
%TO.P,ETH-PHY,6*%
%TO.N,GND*%
X142750000Y-107000000D03*
%TO.P,ETH-PHY,7*%
%TO.N,VCC2_ETH*%
X143250000Y-107000000D03*
%TO.P,ETH-PHY,8*%
X143750000Y-107000000D03*
%TO.P,ETH-PHY,9*%
X144250000Y-107000000D03*
%TO.P,ETH-PHY,10*%
%TO.N,GND*%
X144750000Y-107000000D03*
%TO.P,ETH-PHY,11*%
X145250000Y-107000000D03*
%TO.P,ETH-PHY,12*%
X145750000Y-107000000D03*
D36*
%TO.P,ETH-PHY,13*%
%TO.N,N/C*%
X139000000Y-105750000D03*
%TO.P,ETH-PHY,14*%
X139000000Y-105250000D03*
%TO.P,ETH-PHY,15*%
X139000000Y-104750000D03*
%TO.P,ETH-PHY,16*%
X139000000Y-104250000D03*
%TO.P,ETH-PHY,17*%
X139000000Y-103750000D03*
%TO.P,ETH-PHY,18*%
%TO.N,MDIO*%
X139000000Y-103250000D03*
%TO.P,ETH-PHY,19*%
%TO.N,MDC*%
X139000000Y-102750000D03*
%TO.P,ETH-PHY,20*%
%TO.N,PHY1_INTRN*%
X139000000Y-102250000D03*
%TO.P,ETH-PHY,21*%
%TO.N,GND2_ETH*%
X139000000Y-101750000D03*
%TO.P,ETH-PHY,22*%
X139000000Y-101250000D03*
%TO.P,ETH-PHY,23*%
%TO.N,N/C*%
X139000000Y-100750000D03*
%TO.P,ETH-PHY,24*%
X139000000Y-100250000D03*
D35*
%TO.P,ETH-PHY,25*%
%TO.N,GND2_ETH*%
X145750000Y-99000000D03*
%TO.P,ETH-PHY,26*%
%TO.N,RMII0_TX_EN*%
X145250000Y-99000000D03*
%TO.P,ETH-PHY,27*%
%TO.N,RMII0_TXD1*%
X144750000Y-99000000D03*
%TO.P,ETH-PHY,28*%
%TO.N,RMII0_TXD0*%
X144250000Y-99000000D03*
%TO.P,ETH-PHY,29*%
%TO.N,RMII0_REF_CLK*%
X143750000Y-99000000D03*
%TO.P,ETH-PHY,30*%
%TO.N,RMII0_RXD0*%
X143250000Y-99000000D03*
%TO.P,ETH-PHY,31*%
%TO.N,RMII0_RXD1*%
X142750000Y-99000000D03*
%TO.P,ETH-PHY,32*%
%TO.N,RMII0_CRS_DV*%
X142250000Y-99000000D03*
%TO.P,ETH-PHY,33*%
%TO.N,RMII0_RX_ER*%
X141750000Y-99000000D03*
%TO.P,ETH-PHY,34*%
%TO.N,GND2_ETH*%
X141250000Y-99000000D03*
%TO.P,ETH-PHY,35*%
%TO.N,PHY1_RSTN*%
X140750000Y-99000000D03*
%TO.P,ETH-PHY,36*%
%TO.N,GND2_ETH*%
X140250000Y-99000000D03*
D36*
%TO.P,ETH-PHY,37*%
%TO.N,N/C*%
X147000000Y-100250000D03*
%TO.P,ETH-PHY,38*%
X147000000Y-100750000D03*
%TO.P,ETH-PHY,39*%
X147000000Y-101250000D03*
%TO.P,ETH-PHY,40*%
%TO.N,VCC2_ETH*%
X147000000Y-101750000D03*
%TO.P,ETH-PHY,41*%
X147000000Y-102250000D03*
%TO.P,ETH-PHY,42*%
%TO.N,N/C*%
X147000000Y-102750000D03*
%TO.P,ETH-PHY,43*%
X147000000Y-103250000D03*
%TO.P,ETH-PHY,44*%
X147000000Y-103750000D03*
%TO.P,ETH-PHY,45*%
X147000000Y-104250000D03*
%TO.P,ETH-PHY,46*%
X147000000Y-104750000D03*
%TO.P,ETH-PHY,47*%
X147000000Y-105250000D03*
%TO.P,ETH-PHY,48*%
X147000000Y-105750000D03*
D37*
%TO.P,ETH-PHY,49*%
%TO.N,GND*%
X143000000Y-103000000D03*
%TD*%
D21*
%TO.P,U-ISO-RX,1*%
%TO.N,VCC2_ETH*%
X148900000Y-98555000D03*
%TO.P,U-ISO-RX,2*%
%TO.N,RMII0_RXD0*%
X148900000Y-99825000D03*
%TO.P,U-ISO-RX,3*%
%TO.N,RMII0_RXD1*%
X148900000Y-101095000D03*
%TO.P,U-ISO-RX,4*%
%TO.N,RMII0_CRS_DV*%
X148900000Y-102365000D03*
%TO.P,U-ISO-RX,5*%
%TO.N,RMII0_RX_ER*%
X148900000Y-103635000D03*
%TO.P,U-ISO-RX,6*%
%TO.N,PHY1_INTRN*%
X148900000Y-104905000D03*
%TO.P,U-ISO-RX,7*%
%TO.N,MDIO*%
X148900000Y-106175000D03*
%TO.P,U-ISO-RX,8*%
%TO.N,GND2_ETH*%
X148900000Y-107445000D03*
%TO.P,U-ISO-RX,9*%
%TO.N,GND*%
X159100000Y-107445000D03*
%TO.P,U-ISO-RX,10*%
%TO.N,MDIO*%
X159100000Y-106175000D03*
%TO.P,U-ISO-RX,11*%
%TO.N,PHY1_INTRN*%
X159100000Y-104905000D03*
%TO.P,U-ISO-RX,12*%
%TO.N,RMII0_RX_ER*%
X159100000Y-103635000D03*
%TO.P,U-ISO-RX,13*%
%TO.N,RMII0_CRS_DV*%
X159100000Y-102365000D03*
%TO.P,U-ISO-RX,14*%
%TO.N,RMII0_RXD1*%
X159100000Y-101095000D03*
%TO.P,U-ISO-RX,15*%
%TO.N,RMII0_RXD0*%
X159100000Y-99825000D03*
%TO.P,U-ISO-RX,16*%
%TO.N,+3V3*%
X159100000Y-98555000D03*
%TD*%
D38*
%TO.P,T-ETH,1*%
%TO.N,ETH_TXP*%
X157500000Y-101500000D03*
%TO.P,T-ETH,2*%
%TO.N,ETH_TXN*%
X157500000Y-102500000D03*
%TO.P,T-ETH,3*%
%TO.N,ETH_RXP*%
X157500000Y-103500000D03*
%TO.P,T-ETH,4*%
%TO.N,ETH_RXN*%
X157500000Y-104500000D03*
%TO.P,T-ETH,5*%
%TO.N,ETH_LINE_TXP*%
X162500000Y-101500000D03*
%TO.P,T-ETH,6*%
%TO.N,ETH_LINE_TXN*%
X162500000Y-102500000D03*
%TO.P,T-ETH,7*%
%TO.N,ETH_LINE_RXP*%
X162500000Y-103500000D03*
%TO.P,T-ETH,8*%
%TO.N,ETH_LINE_RXN*%
X162500000Y-104500000D03*
%TD*%
D10*
%TO.P,J-ETH,1*%
%TO.N,ETH_LINE_TXP*%
X163125000Y-103000000D03*
%TO.P,J-ETH,2*%
%TO.N,ETH_LINE_TXN*%
X164375000Y-103000000D03*
%TO.P,J-ETH,3*%
%TO.N,ETH_LINE_RXP*%
X165625000Y-103000000D03*
%TO.P,J-ETH,4*%
%TO.N,ETH_LINE_RXN*%
X166875000Y-103000000D03*
%TD*%
D39*
%TO.P,CMC-CAN,1*%
%TO.N,CAN_H*%
X125850000Y-96150000D03*
%TO.P,CMC-CAN,2*%
%TO.N,CAN_L*%
X125850000Y-96850000D03*
%TO.P,CMC-CAN,3*%
%TO.N,CAN_H*%
X129150000Y-96150000D03*
%TO.P,CMC-CAN,4*%
%TO.N,CAN_L*%
X129150000Y-96850000D03*
%TD*%
D40*
%TO.P,TVS-CAN,1*%
%TO.N,CAN_H*%
X129700000Y-95850000D03*
%TO.P,TVS-CAN,2*%
%TO.N,GND2_CAN*%
X129700000Y-96500000D03*
%TO.P,TVS-CAN,3*%
%TO.N,CAN_L*%
X129700000Y-97150000D03*
%TO.P,TVS-CAN,4*%
%TO.N,N/C*%
X132300000Y-97150000D03*
%TO.P,TVS-CAN,5*%
%TO.N,VCC2_CAN*%
X132300000Y-96500000D03*
%TO.P,TVS-CAN,6*%
%TO.N,N/C*%
X132300000Y-95850000D03*
%TD*%
D39*
%TO.P,CMC-RS485,1*%
%TO.N,RS485_A*%
X125850000Y-99150000D03*
%TO.P,CMC-RS485,2*%
%TO.N,RS485_B*%
X125850000Y-99850000D03*
%TO.P,CMC-RS485,3*%
%TO.N,RS485_A*%
X129150000Y-99150000D03*
%TO.P,CMC-RS485,4*%
%TO.N,RS485_B*%
X129150000Y-99850000D03*
%TD*%
D40*
%TO.P,TVS-RS485,1*%
%TO.N,RS485_A*%
X129700000Y-98850000D03*
%TO.P,TVS-RS485,2*%
%TO.N,GND2_RS485*%
X129700000Y-99500000D03*
%TO.P,TVS-RS485,3*%
%TO.N,RS485_B*%
X129700000Y-100150000D03*
%TO.P,TVS-RS485,4*%
%TO.N,N/C*%
X132300000Y-100150000D03*
%TO.P,TVS-RS485,5*%
%TO.N,VCC2_RS485*%
X132300000Y-99500000D03*
%TO.P,TVS-RS485,6*%
%TO.N,N/C*%
X132300000Y-98850000D03*
%TD*%
D41*
%TO.P,TVS-1553,1*%
%TO.N,GND*%
X146300000Y-119000000D03*
%TO.P,TVS-1553,2*%
%TO.N,N/C*%
X151700000Y-119000000D03*
%TD*%
D42*
%TO.P,FB1,1*%
%TO.N,+5V*%
X126850000Y-122000000D03*
%TO.P,FB1,2*%
X129150000Y-122000000D03*
%TD*%
D43*
%TO.P,X2Y-CAN,1*%
%TO.N,GND*%
X131200000Y-113500000D03*
%TO.P,X2Y-CAN,2*%
X132800000Y-113500000D03*
D44*
%TO.P,X2Y-CAN,3*%
X132000000Y-113100000D03*
%TO.P,X2Y-CAN,4*%
%TO.N,GND2_CAN*%
X132000000Y-113900000D03*
%TD*%
D43*
%TO.P,X2Y-RS485,1*%
%TO.N,GND*%
X131200000Y-109500000D03*
%TO.P,X2Y-RS485,2*%
X132800000Y-109500000D03*
D44*
%TO.P,X2Y-RS485,3*%
X132000000Y-109100000D03*
%TO.P,X2Y-RS485,4*%
%TO.N,GND2_RS485*%
X132000000Y-109900000D03*
%TD*%
D45*
%TO.N,TMESH_P*%
X126000000Y-93000000D03*
X171000000Y-117000000D03*
%TO.N,TMESH_N*%
X126250000Y-93000000D03*
X170750000Y-93000000D03*
%TD*%
D46*
%TO.N,TMESH_P*%
X126000000Y-93000000D02*
X171000000Y-93000000D01*
X171000000Y-93000000D02*
X171000000Y-93500000D01*
X171000000Y-93500000D02*
X126000000Y-93500000D01*
X126000000Y-93500000D02*
X126000000Y-94000000D01*
X126000000Y-94000000D02*
X171000000Y-94000000D01*
X171000000Y-94000000D02*
X171000000Y-94500000D01*
X171000000Y-94500000D02*
X126000000Y-94500000D01*
X126000000Y-94500000D02*
X126000000Y-95000000D01*
X126000000Y-95000000D02*
X171000000Y-95000000D01*
X171000000Y-95000000D02*
X171000000Y-95500000D01*
X171000000Y-95500000D02*
X126000000Y-95500000D01*
X126000000Y-95500000D02*
X126000000Y-96000000D01*
X126000000Y-96000000D02*
X171000000Y-96000000D01*
X171000000Y-96000000D02*
X171000000Y-96500000D01*
X171000000Y-96500000D02*
X126000000Y-96500000D01*
X126000000Y-96500000D02*
X126000000Y-97000000D01*
X126000000Y-97000000D02*
X171000000Y-97000000D01*
X171000000Y-97000000D02*
X171000000Y-97500000D01*
X171000000Y-97500000D02*
X126000000Y-97500000D01*
X126000000Y-97500000D02*
X126000000Y-98000000D01*
X126000000Y-98000000D02*
X171000000Y-98000000D01*
X171000000Y-98000000D02*
X171000000Y-98500000D01*
X171000000Y-98500000D02*
X126000000Y-98500000D01*
X126000000Y-98500000D02*
X126000000Y-99000000D01*
X126000000Y-99000000D02*
X171000000Y-99000000D01*
X171000000Y-99000000D02*
X171000000Y-99500000D01*
X171000000Y-99500000D02*
X126000000Y-99500000D01*
X126000000Y-99500000D02*
X126000000Y-100000000D01*
X126000000Y-100000000D02*
X171000000Y-100000000D01*
X171000000Y-100000000D02*
X171000000Y-100500000D01*
X171000000Y-100500000D02*
X126000000Y-100500000D01*
X126000000Y-100500000D02*
X126000000Y-101000000D01*
X126000000Y-101000000D02*
X171000000Y-101000000D01*
X171000000Y-101000000D02*
X171000000Y-101500000D01*
X171000000Y-101500000D02*
X126000000Y-101500000D01*
X126000000Y-101500000D02*
X126000000Y-102000000D01*
X126000000Y-102000000D02*
X171000000Y-102000000D01*
X171000000Y-102000000D02*
X171000000Y-102500000D01*
X171000000Y-102500000D02*
X126000000Y-102500000D01*
X126000000Y-102500000D02*
X126000000Y-103000000D01*
X126000000Y-103000000D02*
X171000000Y-103000000D01*
X171000000Y-103000000D02*
X171000000Y-103500000D01*
X171000000Y-103500000D02*
X126000000Y-103500000D01*
X126000000Y-103500000D02*
X126000000Y-104000000D01*
X126000000Y-104000000D02*
X171000000Y-104000000D01*
X171000000Y-104000000D02*
X171000000Y-104500000D01*
X171000000Y-104500000D02*
X126000000Y-104500000D01*
X126000000Y-104500000D02*
X126000000Y-105000000D01*
X126000000Y-105000000D02*
X171000000Y-105000000D01*
X171000000Y-105000000D02*
X171000000Y-105500000D01*
X171000000Y-105500000D02*
X126000000Y-105500000D01*
X126000000Y-105500000D02*
X126000000Y-106000000D01*
X126000000Y-106000000D02*
X171000000Y-106000000D01*
X171000000Y-106000000D02*
X171000000Y-106500000D01*
X171000000Y-106500000D02*
X126000000Y-106500000D01*
X126000000Y-106500000D02*
X126000000Y-107000000D01*
X126000000Y-107000000D02*
X171000000Y-107000000D01*
X171000000Y-107000000D02*
X171000000Y-107500000D01*
X171000000Y-107500000D02*
X126000000Y-107500000D01*
X126000000Y-107500000D02*
X126000000Y-108000000D01*
X126000000Y-108000000D02*
X171000000Y-108000000D01*
X171000000Y-108000000D02*
X171000000Y-108500000D01*
X171000000Y-108500000D02*
X126000000Y-108500000D01*
X126000000Y-108500000D02*
X126000000Y-109000000D01*
X126000000Y-109000000D02*
X171000000Y-109000000D01*
X171000000Y-109000000D02*
X171000000Y-109500000D01*
X171000000Y-109500000D02*
X126000000Y-109500000D01*
X126000000Y-109500000D02*
X126000000Y-110000000D01*
X126000000Y-110000000D02*
X171000000Y-110000000D01*
X171000000Y-110000000D02*
X171000000Y-110500000D01*
X171000000Y-110500000D02*
X126000000Y-110500000D01*
X126000000Y-110500000D02*
X126000000Y-111000000D01*
X126000000Y-111000000D02*
X171000000Y-111000000D01*
X171000000Y-111000000D02*
X171000000Y-111500000D01*
X171000000Y-111500000D02*
X126000000Y-111500000D01*
X126000000Y-111500000D02*
X126000000Y-112000000D01*
X126000000Y-112000000D02*
X171000000Y-112000000D01*
X171000000Y-112000000D02*
X171000000Y-112500000D01*
X171000000Y-112500000D02*
X126000000Y-112500000D01*
X126000000Y-112500000D02*
X126000000Y-113000000D01*
X126000000Y-113000000D02*
X171000000Y-113000000D01*
X171000000Y-113000000D02*
X171000000Y-113500000D01*
X171000000Y-113500000D02*
X126000000Y-113500000D01*
X126000000Y-113500000D02*
X126000000Y-114000000D01*
X126000000Y-114000000D02*
X171000000Y-114000000D01*
X171000000Y-114000000D02*
X171000000Y-114500000D01*
X171000000Y-114500000D02*
X126000000Y-114500000D01*
X126000000Y-114500000D02*
X126000000Y-115000000D01*
X126000000Y-115000000D02*
X171000000Y-115000000D01*
X171000000Y-115000000D02*
X171000000Y-115500000D01*
X171000000Y-115500000D02*
X126000000Y-115500000D01*
X126000000Y-115500000D02*
X126000000Y-116000000D01*
X126000000Y-116000000D02*
X171000000Y-116000000D01*
X171000000Y-116000000D02*
X171000000Y-116500000D01*
X171000000Y-116500000D02*
X126000000Y-116500000D01*
X126000000Y-116500000D02*
X126000000Y-117000000D01*
X126000000Y-117000000D02*
X171000000Y-117000000D01*
%TD*%
D47*
X126000000Y-93000000D03*
X171000000Y-117000000D03*
X126250000Y-93000000D03*
X170750000Y-93000000D03*
X173000000Y-119500000D03*
X124000000Y-119500000D03*
X174000000Y-95460000D03*
X174000000Y-98000000D03*
X174000000Y-100540000D03*
X174000000Y-103080000D03*
X174000000Y-105620000D03*
X174000000Y-108160000D03*
X174000000Y-110700000D03*
X174000000Y-113240000D03*
X124000000Y-90500000D03*
X173000000Y-90500000D03*
X123000000Y-116000000D03*
X125500000Y-116000000D03*
X128000000Y-116000000D03*
X130500000Y-116000000D03*
X126910000Y-118690000D03*
X126910000Y-121230000D03*
X129450000Y-118690000D03*
X129450000Y-121230000D03*
X131990000Y-118690000D03*
X131990000Y-121230000D03*
X134530000Y-118690000D03*
X134530000Y-121230000D03*
X137070000Y-118690000D03*
X137070000Y-121230000D03*
X139610000Y-118690000D03*
X139610000Y-121230000D03*
X142150000Y-118690000D03*
X142150000Y-121230000D03*
X144690000Y-118690000D03*
X144690000Y-121230000D03*
X147230000Y-118690000D03*
X147230000Y-121230000D03*
X149770000Y-118690000D03*
X149770000Y-121230000D03*
X152310000Y-118690000D03*
X152310000Y-121230000D03*
X154850000Y-118690000D03*
X154850000Y-121230000D03*
X157390000Y-118690000D03*
X157390000Y-121230000D03*
X159930000Y-118690000D03*
X159930000Y-121230000D03*
X162470000Y-118690000D03*
X162470000Y-121230000D03*
X165010000Y-118690000D03*
X165010000Y-121230000D03*
X167550000Y-118690000D03*
X167550000Y-121230000D03*
X170090000Y-118690000D03*
X170090000Y-121230000D03*
X126910000Y-88770000D03*
X126910000Y-91310000D03*
X129450000Y-88770000D03*
X129450000Y-91310000D03*
X131990000Y-88770000D03*
X131990000Y-91310000D03*
X134530000Y-88770000D03*
X134530000Y-91310000D03*
X137070000Y-88770000D03*
X137070000Y-91310000D03*
X139610000Y-88770000D03*
X139610000Y-91310000D03*
X142150000Y-88770000D03*
X142150000Y-91310000D03*
X144690000Y-88770000D03*
X144690000Y-91310000D03*
X147230000Y-88770000D03*
X147230000Y-91310000D03*
X149770000Y-88770000D03*
X149770000Y-91310000D03*
X152310000Y-88770000D03*
X152310000Y-91310000D03*
X154850000Y-88770000D03*
X154850000Y-91310000D03*
X157390000Y-88770000D03*
X157390000Y-91310000D03*
X159930000Y-88770000D03*
X159930000Y-91310000D03*
X162470000Y-88770000D03*
X162470000Y-91310000D03*
X165010000Y-88770000D03*
X165010000Y-91310000D03*
X167550000Y-88770000D03*
X167550000Y-91310000D03*
X170090000Y-88770000D03*
X170090000Y-91310000D03*
D48*
X143000000Y-103000000D03*
M02*
