solid OpenSCAD_Model
  facet normal 0.215316 0.976544 -0
    outer loop
      vertex 65 0 -0.00999928
      vertex 47.5 3.85853 0
      vertex 65 0 0
    endloop
  endfacet
  facet normal 0.215316 0.976544 0
    outer loop
      vertex 47.5 3.85853 0
      vertex 65 0 -0.00999928
      vertex 47.5 3.85853 -0.00999928
    endloop
  endfacet
  facet normal -0.0675861 0.997352 -0.0268563
    outer loop
      vertex 21.8746 6.44556 -126
      vertex 17.8783 9.56493 -0.0999994
      vertex 22.9818 6.52059 -126
    endloop
  endfacet
  facet normal -0.0675807 0.997353 -0.0268177
    outer loop
      vertex 17.5 9.5393 -0.0999994
      vertex 16.25 9.45702 -0.00999928
      vertex 17.5 9.54172 -0.00999928
    endloop
  endfacet
  facet normal -0.0675711 0.997353 -0.0268558
    outer loop
      vertex 17.8783 9.56493 -0.0999994
      vertex 21.8746 6.44556 -126
      vertex 17.5 9.5393 -0.0999994
    endloop
  endfacet
  facet normal -0.0675834 0.997352 -0.0268562
    outer loop
      vertex 17.5 9.5393 -0.0999994
      vertex 21.8746 6.44556 -126
      vertex 16.25 9.45702 -0.00999928
    endloop
  endfacet
  facet normal -0.358485 0.933535 0
    outer loop
      vertex 11.3742 8.35213 -0.00999928
      vertex 9.7496 7.72827 0
      vertex 11.3742 8.35213 0
    endloop
  endfacet
  facet normal -0.358485 0.933535 0
    outer loop
      vertex 9.7496 7.72827 0
      vertex 11.3742 8.35213 -0.00999928
      vertex 9.7496 7.72827 -0.00999928
    endloop
  endfacet
  facet normal 0.212887 -0.977077 0
    outer loop
      vertex 61.7498 -0.70816 -0.00999928
      vertex 65 0 0
      vertex 61.7498 -0.70816 0
    endloop
  endfacet
  facet normal 0.212887 -0.977077 0
    outer loop
      vertex 65 0 0
      vertex 61.7498 -0.70816 -0.00999928
      vertex 65 0 -0.00999928
    endloop
  endfacet
  facet normal -0.532418 0.845011 -0.0498832
    outer loop
      vertex 14.3427 3.58815 -126
      vertex 6.4994 6.08383 -0.00999928
      vertex 15.2289 4.14652 -126
    endloop
  endfacet
  facet normal -0.532407 0.845018 -0.0498827
    outer loop
      vertex 6.4994 6.08383 -0.00999928
      vertex 14.3427 3.58815 -126
      vertex 5.19913 5.26459 -0.00999928
    endloop
  endfacet
  facet normal -0.294261 0.955011 -0.036923
    outer loop
      vertex 18.5514 5.69251 -126
      vertex 12.9998 8.853 -0.00999928
      vertex 19.6593 6.03388 -126
    endloop
  endfacet
  facet normal -0.294253 0.955014 -0.0369227
    outer loop
      vertex 12.9998 8.853 -0.00999928
      vertex 18.5514 5.69251 -126
      vertex 11.3742 8.35213 -0.00999928
    endloop
  endfacet
  facet normal 0.173619 0.984646 -0.0181034
    outer loop
      vertex 26.3043 6.29955 -126
      vertex 24.3772 8.95411 -0.0999994
      vertex 27.4123 6.10418 -126
    endloop
  endfacet
  facet normal 0.173611 0.984648 -0.0181036
    outer loop
      vertex 24.3772 8.95411 -0.0999994
      vertex 26.3043 6.29955 -126
      vertex 22.7519 9.24068 -0.0999994
    endloop
  endfacet
  facet normal -0.825349 -0.564622 0
    outer loop
      vertex 0.324326 -0.474091 -0.00999928
      vertex 0 0 0
      vertex 0 0 -0.00999928
    endloop
  endfacet
  facet normal -0.825349 -0.564622 0
    outer loop
      vertex 0 0 0
      vertex 0.324326 -0.474091 -0.00999928
      vertex 0.324326 -0.474091 0
    endloop
  endfacet
  facet normal -0.222034 0.975039 0
    outer loop
      vertex 14.6244 9.22295 -0.00999928
      vertex 12.9998 8.853 0
      vertex 14.6244 9.22295 0
    endloop
  endfacet
  facet normal -0.222034 0.975039 0
    outer loop
      vertex 12.9998 8.853 0
      vertex 14.6244 9.22295 -0.00999928
      vertex 12.9998 8.853 -0.00999928
    endloop
  endfacet
  facet normal -0.00373351 -0.999992 -0.00152716
    outer loop
      vertex 25.6612 -0.573285 -0.0999994
      vertex 26.6277 -0.536007 -26.8727
      vertex 47.5 -0.654821 -0.0999994
    endloop
  endfacet
  facet normal -0.0037335 -0.999992 -0.00152221
    outer loop
      vertex 47.5 -0.654821 -0.0999994
      vertex 61.7498 -0.70816 -0.00999928
      vertex 47.5 -0.654958 -0.00999928
    endloop
  endfacet
  facet normal -0.00373346 -0.999992 -0.00152719
    outer loop
      vertex 26.6277 -0.536007 -26.8727
      vertex 61.7498 -0.70816 -0.00999928
      vertex 47.5 -0.654821 -0.0999994
    endloop
  endfacet
  facet normal -0.00373345 -0.999992 -0.00152716
    outer loop
      vertex 52.8856 -0.482656 -126
      vertex 26.6277 -0.536007 -26.8727
      vertex 30.1939 -0.397937 -126
    endloop
  endfacet
  facet normal -0.00373348 -0.999992 -0.00152717
    outer loop
      vertex 26.6277 -0.536007 -26.8727
      vertex 52.8856 -0.482656 -126
      vertex 61.7498 -0.70816 -0.00999928
    endloop
  endfacet
  facet normal -0.00373346 -0.999992 -0.00152718
    outer loop
      vertex 0.649643 -0.480042 -0.00999928
      vertex 17.0437 -0.386432 -101.384
      vertex 13.409 -0.527679 -0.00999928
    endloop
  endfacet
  facet normal -0.00373334 -0.999992 -0.00152715
    outer loop
      vertex 11.2419 -0.327179 -126
      vertex 17.0437 -0.386432 -101.384
      vertex 0.649643 -0.480042 -0.00999928
    endloop
  endfacet
  facet normal -0.00373344 -0.999992 -0.00152713
    outer loop
      vertex 17.0437 -0.386432 -101.384
      vertex 11.2419 -0.327179 -126
      vertex 17.9263 -0.352135 -126
    endloop
  endfacet
  facet normal -0.0037335 -0.999993 0
    outer loop
      vertex 47.5 -0.654958 -0.00999928
      vertex 61.7498 -0.70816 0
      vertex 47.5 -0.654958 0
    endloop
  endfacet
  facet normal -0.0037335 -0.999993 -0
    outer loop
      vertex 61.7498 -0.70816 0
      vertex 47.5 -0.654958 -0.00999928
      vertex 61.7498 -0.70816 -0.00999928
    endloop
  endfacet
  facet normal -0.00373343 -0.999993 0
    outer loop
      vertex 0.649643 -0.480042 -0.00999928
      vertex 13.4086 -0.527677 0
      vertex 0.649643 -0.480042 0
    endloop
  endfacet
  facet normal -0.00373347 -0.999993 5.06635e-05
    outer loop
      vertex 13.4086 -0.527677 0
      vertex 0.649643 -0.480042 -0.00999928
      vertex 13.409 -0.527679 -0.00999928
    endloop
  endfacet
  facet normal 0.214634 0.976548 -0.0169314
    outer loop
      vertex 27.4123 6.10418 -126
      vertex 26.0014 8.59713 -0.0999994
      vertex 28.5195 5.86083 -126
    endloop
  endfacet
  facet normal 0.214634 0.976548 -0.0169314
    outer loop
      vertex 26.0014 8.59713 -0.0999994
      vertex 27.4123 6.10418 -126
      vertex 24.3772 8.95411 -0.0999994
    endloop
  endfacet
  facet normal 0.212859 -0.97694 -0.0167246
    outer loop
      vertex 55.1008 0 -126
      vertex 61.7498 -0.70816 -0.00999928
      vertex 52.8856 -0.482656 -126
    endloop
  endfacet
  facet normal 0.212858 -0.97694 -0.0167245
    outer loop
      vertex 61.7498 -0.70816 -0.00999928
      vertex 55.1008 0 -126
      vertex 65 0 -0.00999928
    endloop
  endfacet
  facet normal -0.0182899 -0.999833 0
    outer loop
      vertex 0.324326 -0.474091 -0.00999928
      vertex 0.649643 -0.480042 0
      vertex 0.324326 -0.474091 0
    endloop
  endfacet
  facet normal -0.0182899 -0.999833 -0
    outer loop
      vertex 0.649643 -0.480042 0
      vertex 0.324326 -0.474091 -0.00999928
      vertex 0.649643 -0.480042 -0.00999928
    endloop
  endfacet
  facet normal 0.00365647 0.999705 -0.0240252
    outer loop
      vertex 22.9818 6.52059 -126
      vertex 19.5025 9.55898 -0.0999994
      vertex 24.0891 6.51654 -126
    endloop
  endfacet
  facet normal 0.00366226 0.999705 -0.024025
    outer loop
      vertex 19.5025 9.55898 -0.0999994
      vertex 22.9818 6.52059 -126
      vertex 17.8783 9.56493 -0.0999994
    endloop
  endfacet
  facet normal -0.95297 0.291848 -0.0816834
    outer loop
      vertex 10.7991 0 -126
      vertex 0.324326 1.05927 -0.00999928
      vertex 11.0202 0.721957 -126
    endloop
  endfacet
  facet normal -0.95299 0.291785 -0.0816845
    outer loop
      vertex 0.324326 1.05927 -0.00999928
      vertex 10.7991 0 -126
      vertex 0 0 -0.00999928
    endloop
  endfacet
  facet normal -0.294454 0.955666 0
    outer loop
      vertex 12.9998 8.853 -0.00999928
      vertex 11.3742 8.35213 0
      vertex 12.9998 8.853 0
    endloop
  endfacet
  facet normal -0.294454 0.955666 0
    outer loop
      vertex 11.3742 8.35213 0
      vertex 12.9998 8.853 -0.00999928
      vertex 11.3742 8.35213 -0.00999928
    endloop
  endfacet
  facet normal -0.803004 0.591877 -0.0697552
    outer loop
      vertex 11.2419 1.02277 -126
      vertex 0.324326 1.05927 -0.00999928
      vertex 0.649643 1.50063 -0.00999928
    endloop
  endfacet
  facet normal -0.803033 0.591838 -0.0697577
    outer loop
      vertex 0.324326 1.05927 -0.00999928
      vertex 11.2419 1.02277 -126
      vertex 11.0202 0.721957 -126
    endloop
  endfacet
  facet normal -0.694732 0.716662 -0.0611799
    outer loop
      vertex 11.4636 1.25802 -126
      vertex 1.6246 2.47559 -0.00999928
      vertex 11.9064 1.68727 -126
    endloop
  endfacet
  facet normal -0.69476 0.716635 -0.0611818
    outer loop
      vertex 1.6246 2.47559 -0.00999928
      vertex 11.4636 1.25802 -126
      vertex 0.97496 1.84578 -0.00999928
    endloop
  endfacet
  facet normal -0.479992 0.876027 -0.0467275
    outer loop
      vertex 15.2289 4.14652 -126
      vertex 8.125 6.97449 -0.00999928
      vertex 16.3368 4.75356 -126
    endloop
  endfacet
  facet normal -0.479977 0.876036 -0.0467268
    outer loop
      vertex 8.125 6.97449 -0.00999928
      vertex 15.2289 4.14652 -126
      vertex 6.4994 6.08383 -0.00999928
    endloop
  endfacet
  facet normal -0.598305 0.801268 0
    outer loop
      vertex 4.22417 4.58817 -0.00999928
      vertex 3.24921 3.86017 0
      vertex 4.22417 4.58817 0
    endloop
  endfacet
  facet normal -0.598305 0.801268 0
    outer loop
      vertex 3.24921 3.86017 0
      vertex 4.22417 4.58817 -0.00999928
      vertex 3.24921 3.86017 -0.00999928
    endloop
  endfacet
  facet normal -0.358188 0.932788 -0.0400956
    outer loop
      vertex 17.4441 5.26731 -126
      vertex 11.3742 8.35213 -0.00999928
      vertex 18.5514 5.69251 -126
    endloop
  endfacet
  facet normal -0.358197 0.932785 -0.040096
    outer loop
      vertex 11.3742 8.35213 -0.00999928
      vertex 17.4441 5.26731 -126
      vertex 9.7496 7.72827 -0.00999928
    endloop
  endfacet
  facet normal -0.420477 0.906266 -0.0433816
    outer loop
      vertex 16.3368 4.75356 -126
      vertex 9.7496 7.72827 -0.00999928
      vertex 17.4441 5.26731 -126
    endloop
  endfacet
  facet normal -0.420486 0.906261 -0.0433819
    outer loop
      vertex 9.7496 7.72827 -0.00999928
      vertex 16.3368 4.75356 -126
      vertex 8.125 6.97449 -0.00999928
    endloop
  endfacet
  facet normal -0.0182898 -0.999829 -0.00275075
    outer loop
      vertex 11.0202 -0.323123 -126
      vertex 0.649643 -0.480042 -0.00999928
      vertex 0.324326 -0.474091 -0.00999928
    endloop
  endfacet
  facet normal -0.0182919 -0.999829 -0.00275092
    outer loop
      vertex 0.649643 -0.480042 -0.00999928
      vertex 11.0202 -0.323123 -126
      vertex 11.2419 -0.327179 -126
    endloop
  endfacet
  facet normal -0.823231 -0.563304 -0.0705624
    outer loop
      vertex 11.0202 -0.323123 -126
      vertex 0 0 -0.00999928
      vertex 10.7991 0 -126
    endloop
  endfacet
  facet normal -0.823292 -0.563215 -0.0705679
    outer loop
      vertex 0 0 -0.00999928
      vertex 11.0202 -0.323123 -126
      vertex 0.324326 -0.474091 -0.00999928
    endloop
  endfacet
  facet normal 0.0681616 0.99744 -0.0216205
    outer loop
      vertex 24.0891 6.51654 -126
      vertex 21.1277 9.44792 -0.0999994
      vertex 25.197 6.44083 -126
    endloop
  endfacet
  facet normal 0.0681613 0.99744 -0.0216205
    outer loop
      vertex 21.1277 9.44792 -0.0999994
      vertex 24.0891 6.51654 -126
      vertex 19.5025 9.55898 -0.0999994
    endloop
  endfacet
  facet normal -0.420882 0.907115 0
    outer loop
      vertex 9.7496 7.72827 -0.00999928
      vertex 8.125 6.97449 0
      vertex 9.7496 7.72827 0
    endloop
  endfacet
  facet normal -0.420882 0.907115 0
    outer loop
      vertex 8.125 6.97449 0
      vertex 9.7496 7.72827 -0.00999928
      vertex 8.125 6.97449 -0.00999928
    endloop
  endfacet
  facet normal -0.067605 0.997712 0
    outer loop
      vertex 17.5 9.54172 -0.00999928
      vertex 16.25 9.45702 0
      vertex 17.5 9.54172 0
    endloop
  endfacet
  facet normal -0.067605 0.997712 0
    outer loop
      vertex 16.25 9.45702 0
      vertex 17.5 9.54172 -0.00999928
      vertex 16.25 9.45702 -0.00999928
    endloop
  endfacet
  facet normal -0 0 1
    outer loop
      vertex 16.25 9.45702 0
      vertex 17.5 5.80051 0
      vertex 17.5 9.54172 0
    endloop
  endfacet
  facet normal 0 0 1
    outer loop
      vertex 17.5 5.80051 0
      vertex 16.25 9.45702 0
      vertex 17.4321 5.77911 0
    endloop
  endfacet
  facet normal 0 0 1
    outer loop
      vertex 17.4321 5.77911 0
      vertex 16.25 9.45702 0
      vertex 16.9399 5.57522 0
    endloop
  endfacet
  facet normal 0 0 1
    outer loop
      vertex 16.9399 5.57522 0
      vertex 16.25 9.45702 0
      vertex 16.9365 5.57379 0
    endloop
  endfacet
  facet normal 0 0 1
    outer loop
      vertex 16.9365 5.57379 0
      vertex 16.25 9.45702 0
      vertex 16.4606 5.32606 0
    endloop
  endfacet
  facet normal -0 0 1
    outer loop
      vertex 14.6244 9.22295 0
      vertex 16.4606 5.32606 0
      vertex 16.25 9.45702 0
    endloop
  endfacet
  facet normal 0 0 1
    outer loop
      vertex 16.4606 5.32606 0
      vertex 14.6244 9.22295 0
      vertex 16.4574 5.32405 0
    endloop
  endfacet
  facet normal 0 0 1
    outer loop
      vertex 16.4574 5.32405 0
      vertex 14.6244 9.22295 0
      vertex 16.0081 5.03778 0
    endloop
  endfacet
  facet normal 0 0 1
    outer loop
      vertex 16.0081 5.03778 0
      vertex 14.6244 9.22295 0
      vertex 15.5824 4.71117 0
    endloop
  endfacet
  facet normal -0 0 1
    outer loop
      vertex 12.9998 8.853 0
      vertex 15.5824 4.71117 0
      vertex 14.6244 9.22295 0
    endloop
  endfacet
  facet normal 0 0 1
    outer loop
      vertex 15.5824 4.71117 0
      vertex 12.9998 8.853 0
      vertex 15.1896 4.35123 0
    endloop
  endfacet
  facet normal 0 0 1
    outer loop
      vertex 15.1896 4.35123 0
      vertex 12.9998 8.853 0
      vertex 15.1868 4.34871 0
    endloop
  endfacet
  facet normal -0 0 1
    outer loop
      vertex 11.3742 8.35213 0
      vertex 15.1868 4.34871 0
      vertex 12.9998 8.853 0
    endloop
  endfacet
  facet normal 0 0 1
    outer loop
      vertex 15.1868 4.34871 0
      vertex 11.3742 8.35213 0
      vertex 14.8244 3.95314 0
    endloop
  endfacet
  facet normal 0 0 1
    outer loop
      vertex 14.8244 3.95314 0
      vertex 11.3742 8.35213 0
      vertex 14.4978 3.52749 0
    endloop
  endfacet
  facet normal 0 0 1
    outer loop
      vertex 14.4978 3.52749 0
      vertex 11.3742 8.35213 0
      vertex 14.4958 3.52434 0
    endloop
  endfacet
  facet normal -0 0 1
    outer loop
      vertex 9.7496 7.72827 0
      vertex 14.4958 3.52434 0
      vertex 11.3742 8.35213 0
    endloop
  endfacet
  facet normal 0 0 1
    outer loop
      vertex 14.4958 3.52434 0
      vertex 9.7496 7.72827 0
      vertex 14.2095 3.075 0
    endloop
  endfacet
  facet normal 0 0 1
    outer loop
      vertex 14.2095 3.075 0
      vertex 9.7496 7.72827 0
      vertex 13.9635 2.60242 0
    endloop
  endfacet
  facet normal 0 0 1
    outer loop
      vertex 13.9635 2.60242 0
      vertex 9.7496 7.72827 0
      vertex 13.9618 2.5991 0
    endloop
  endfacet
  facet normal 0 0 1
    outer loop
      vertex 13.9618 2.5991 0
      vertex 9.7496 7.72827 0
      vertex 13.9603 2.59565 0
    endloop
  endfacet
  facet normal -0 0 1
    outer loop
      vertex 8.125 6.97449 0
      vertex 13.9603 2.59565 0
      vertex 9.7496 7.72827 0
    endloop
  endfacet
  facet normal 0 0 1
    outer loop
      vertex 13.4798 1.07159 0
      vertex 6.4994 6.08383 0
      vertex 13.479 1.06794 0
    endloop
  endfacet
  facet normal 0 0 1
    outer loop
      vertex 13.5951 1.59174 0
      vertex 6.4994 6.08383 0
      vertex 13.4798 1.07159 0
    endloop
  endfacet
  facet normal -0 0 1
    outer loop
      vertex 6.4994 6.08383 0
      vertex 13.5951 1.59174 0
      vertex 8.125 6.97449 0
    endloop
  endfacet
  facet normal 0 0 1
    outer loop
      vertex 13.7564 2.10342 0
      vertex 8.125 6.97449 0
      vertex 13.5951 1.59174 0
    endloop
  endfacet
  facet normal 0 0 1
    outer loop
      vertex 13.9603 2.59565 0
      vertex 8.125 6.97449 0
      vertex 13.7564 2.10342 0
    endloop
  endfacet
  facet normal 0 0 1
    outer loop
      vertex 13.479 1.06794 0
      vertex 6.4994 6.08383 0
      vertex 13.4785 1.06423 0
    endloop
  endfacet
  facet normal 0 0 1
    outer loop
      vertex 13.4785 1.06423 0
      vertex 6.4994 6.08383 0
      vertex 13.409 0.536007 0
    endloop
  endfacet
  facet normal -0 0 1
    outer loop
      vertex 5.19913 5.26459 0
      vertex 13.409 0.536007 0
      vertex 6.4994 6.08383 0
    endloop
  endfacet
  facet normal 0 0 1
    outer loop
      vertex 13.409 0.536007 0
      vertex 5.19913 5.26459 0
      vertex 13.3857 0.00373695 0
    endloop
  endfacet
  facet normal -0 0 1
    outer loop
      vertex 4.22417 4.58817 0
      vertex 13.3857 0.00373695 0
      vertex 5.19913 5.26459 0
    endloop
  endfacet
  facet normal 0 0 1
    outer loop
      vertex 13.3857 0.00373695 0
      vertex 4.22417 4.58817 0
      vertex 13.3856 0 0
    endloop
  endfacet
  facet normal 0 0 1
    outer loop
      vertex 13.3856 0 0
      vertex 4.22417 4.58817 0
      vertex 13.3857 -0.00373695 0
    endloop
  endfacet
  facet normal 0 0 1
    outer loop
      vertex 13.3857 -0.00373695 0
      vertex 4.22417 4.58817 0
      vertex 13.4086 -0.527677 0
    endloop
  endfacet
  facet normal -0 0 1
    outer loop
      vertex 3.24921 3.86017 0
      vertex 13.4086 -0.527677 0
      vertex 4.22417 4.58817 0
    endloop
  endfacet
  facet normal 0 0 1
    outer loop
      vertex 0.649643 -0.480042 0
      vertex 3.24921 3.86017 0
      vertex 2.27425 3.0677 0
    endloop
  endfacet
  facet normal 0 0 1
    outer loop
      vertex 0.649643 -0.480042 0
      vertex 2.27425 3.0677 0
      vertex 1.6246 2.47559 0
    endloop
  endfacet
  facet normal 0 0 1
    outer loop
      vertex 0.649643 -0.480042 0
      vertex 1.6246 2.47559 0
      vertex 0.97496 1.84578 0
    endloop
  endfacet
  facet normal 0 0 1
    outer loop
      vertex 0.649643 -0.480042 0
      vertex 0.97496 1.84578 0
      vertex 0.649643 1.50063 0
    endloop
  endfacet
  facet normal 0 0 1
    outer loop
      vertex 3.24921 3.86017 0
      vertex 0.649643 -0.480042 0
      vertex 13.4086 -0.527677 0
    endloop
  endfacet
  facet normal -0 0 1
    outer loop
      vertex 0.324326 1.05927 0
      vertex 0.649643 -0.480042 0
      vertex 0.649643 1.50063 0
    endloop
  endfacet
  facet normal -0 0 1
    outer loop
      vertex 0 0 0
      vertex 0.649643 -0.480042 0
      vertex 0.324326 1.05927 0
    endloop
  endfacet
  facet normal 0 0 1
    outer loop
      vertex 0.649643 -0.480042 0
      vertex 0 0 0
      vertex 0.324326 -0.474091 0
    endloop
  endfacet
  facet normal 0 0 1
    outer loop
      vertex 47.5 3.85853 0
      vertex 61.7498 -0.70816 0
      vertex 65 0 0
    endloop
  endfacet
  facet normal 0 0 1
    outer loop
      vertex 61.7498 -0.70816 0
      vertex 47.5 3.85853 0
      vertex 47.5 -0.654958 0
    endloop
  endfacet
  facet normal -0.804965 0.593322 0
    outer loop
      vertex 0.324326 1.05927 -0.00999928
      vertex 0.649643 1.50063 0
      vertex 0.649643 1.50063 -0.00999928
    endloop
  endfacet
  facet normal -0.804965 0.593322 0
    outer loop
      vertex 0.649643 1.50063 0
      vertex 0.324326 1.05927 -0.00999928
      vertex 0.324326 1.05927 0
    endloop
  endfacet
  facet normal -0.597428 0.800095 -0.0541081
    outer loop
      vertex 13.0137 2.63095 -126
      vertex 4.22417 4.58817 -0.00999928
      vertex 13.6782 3.12713 -126
    endloop
  endfacet
  facet normal -0.597429 0.800095 -0.0541081
    outer loop
      vertex 4.22417 4.58817 -0.00999928
      vertex 13.0137 2.63095 -126
      vertex 3.24921 3.86017 -0.00999928
    endloop
  endfacet
  facet normal 0.215285 0.976405 -0.0169243
    outer loop
      vertex 65 0 -0.00999928
      vertex 47.5 3.85697 -0.0999994
      vertex 47.5 3.85853 -0.00999928
    endloop
  endfacet
  facet normal 0.215285 0.976405 -0.0169152
    outer loop
      vertex 55.1008 0 -126
      vertex 47.5 3.85697 -0.0999994
      vertex 65 0 -0.00999928
    endloop
  endfacet
  facet normal 0.215285 0.976405 -0.0169152
    outer loop
      vertex 28.5195 5.86083 -126
      vertex 47.5 3.85697 -0.0999994
      vertex 55.1008 0 -126
    endloop
  endfacet
  facet normal 0.215284 0.976405 -0.0169152
    outer loop
      vertex 47.5 3.85697 -0.0999994
      vertex 28.5195 5.86083 -126
      vertex 26.0014 8.59713 -0.0999994
    endloop
  endfacet
  facet normal 0.126539 0.991768 -0.0195981
    outer loop
      vertex 25.197 6.44083 -126
      vertex 22.7519 9.24068 -0.0999994
      vertex 26.3043 6.29955 -126
    endloop
  endfacet
  facet normal 0.126545 0.991767 -0.019598
    outer loop
      vertex 22.7519 9.24068 -0.0999994
      vertex 25.197 6.44083 -126
      vertex 21.1277 9.44792 -0.0999994
    endloop
  endfacet
  facet normal -0.72623 0.684499 -0.0636517
    outer loop
      vertex 11.4636 1.25802 -126
      vertex 0.649643 1.50063 -0.00999928
      vertex 0.97496 1.84578 -0.00999928
    endloop
  endfacet
  facet normal -0.726279 0.684446 -0.0636559
    outer loop
      vertex 0.649643 1.50063 -0.00999928
      vertex 11.4636 1.25802 -126
      vertex 11.2419 1.02277 -126
    endloop
  endfacet
  facet normal -0.727705 0.68589 0
    outer loop
      vertex 0.649643 1.50063 -0.00999928
      vertex 0.97496 1.84578 0
      vertex 0.97496 1.84578 -0.00999928
    endloop
  endfacet
  facet normal -0.727705 0.68589 0
    outer loop
      vertex 0.97496 1.84578 0
      vertex 0.649643 1.50063 -0.00999928
      vertex 0.649643 1.50063 0
    endloop
  endfacet
  facet normal -0.956185 0.292764 0
    outer loop
      vertex 0 0 -0.00999928
      vertex 0.324326 1.05927 0
      vertex 0.324326 1.05927 -0.00999928
    endloop
  endfacet
  facet normal -0.956185 0.292764 0
    outer loop
      vertex 0.324326 1.05927 0
      vertex 0 0 -0.00999928
      vertex 0 0 0
    endloop
  endfacet
  facet normal -0.630744 0.775991 0
    outer loop
      vertex 3.24921 3.86017 -0.00999928
      vertex 2.27425 3.0677 0
      vertex 3.24921 3.86017 0
    endloop
  endfacet
  facet normal -0.630744 0.775991 0
    outer loop
      vertex 2.27425 3.0677 0
      vertex 3.24921 3.86017 -0.00999928
      vertex 2.27425 3.0677 -0.00999928
    endloop
  endfacet
  facet normal -0.14252 0.989792 0
    outer loop
      vertex 16.25 9.45702 -0.00999928
      vertex 14.6244 9.22295 0
      vertex 16.25 9.45702 0
    endloop
  endfacet
  facet normal -0.14252 0.989792 0
    outer loop
      vertex 14.6244 9.22295 0
      vertex 16.25 9.45702 -0.00999928
      vertex 14.6244 9.22295 -0.00999928
    endloop
  endfacet
  facet normal -0.53307 0.846071 0
    outer loop
      vertex 6.4994 6.08383 -0.00999928
      vertex 5.19913 5.26459 0
      vertex 6.4994 6.08383 0
    endloop
  endfacet
  facet normal -0.53307 0.846071 0
    outer loop
      vertex 5.19913 5.26459 0
      vertex 6.4994 6.08383 -0.00999928
      vertex 5.19913 5.26459 -0.00999928
    endloop
  endfacet
  facet normal -0.221907 0.974491 -0.0335344
    outer loop
      vertex 19.6593 6.03388 -126
      vertex 14.6244 9.22295 -0.00999928
      vertex 20.7666 6.28603 -126
    endloop
  endfacet
  facet normal -0.221909 0.974491 -0.0335345
    outer loop
      vertex 14.6244 9.22295 -0.00999928
      vertex 19.6593 6.03388 -126
      vertex 12.9998 8.853 -0.00999928
    endloop
  endfacet
  facet normal -0.696064 0.71798 0
    outer loop
      vertex 1.6246 2.47559 -0.00999928
      vertex 0.97496 1.84578 0
      vertex 1.6246 2.47559 0
    endloop
  endfacet
  facet normal -0.696064 0.71798 0
    outer loop
      vertex 0.97496 1.84578 0
      vertex 1.6246 2.47559 -0.00999928
      vertex 0.97496 1.84578 -0.00999928
    endloop
  endfacet
  facet normal -0.142446 0.989348 -0.030007
    outer loop
      vertex 20.7666 6.28603 -126
      vertex 16.25 9.45702 -0.00999928
      vertex 21.8746 6.44556 -126
    endloop
  endfacet
  facet normal -0.142456 0.989346 -0.0300073
    outer loop
      vertex 16.25 9.45702 -0.00999928
      vertex 20.7666 6.28603 -126
      vertex 14.6244 9.22295 -0.00999928
    endloop
  endfacet
  facet normal -0.480502 0.876994 0
    outer loop
      vertex 8.125 6.97449 -0.00999928
      vertex 6.4994 6.08383 0
      vertex 8.125 6.97449 0
    endloop
  endfacet
  facet normal -0.480502 0.876994 0
    outer loop
      vertex 6.4994 6.08383 0
      vertex 8.125 6.97449 -0.00999928
      vertex 6.4994 6.08383 -0.00999928
    endloop
  endfacet
  facet normal -0.569252 0.820502 -0.0522305
    outer loop
      vertex 13.6782 3.12713 -126
      vertex 5.19913 5.26459 -0.00999928
      vertex 14.3427 3.58815 -126
    endloop
  endfacet
  facet normal -0.569256 0.820499 -0.0522307
    outer loop
      vertex 5.19913 5.26459 -0.00999928
      vertex 13.6782 3.12713 -126
      vertex 4.22417 4.58817 -0.00999928
    endloop
  endfacet
  facet normal -0.570034 0.821621 0
    outer loop
      vertex 5.19913 5.26459 -0.00999928
      vertex 4.22417 4.58817 0
      vertex 5.19913 5.26459 0
    endloop
  endfacet
  facet normal -0.570034 0.821621 0
    outer loop
      vertex 4.22417 4.58817 0
      vertex 5.19913 5.26459 -0.00999928
      vertex 4.22417 4.58817 -0.00999928
    endloop
  endfacet
  facet normal -0.629733 0.774764 -0.0563646
    outer loop
      vertex 12.3492 2.09084 -126
      vertex 3.24921 3.86017 -0.00999928
      vertex 13.0137 2.63095 -126
    endloop
  endfacet
  facet normal -0.629741 0.774758 -0.0563651
    outer loop
      vertex 3.24921 3.86017 -0.00999928
      vertex 12.3492 2.09084 -126
      vertex 2.27425 3.0677 -0.00999928
    endloop
  endfacet
  facet normal -0.673618 0.739079 0
    outer loop
      vertex 2.27425 3.0677 -0.00999928
      vertex 1.6246 2.47559 0
      vertex 2.27425 3.0677 0
    endloop
  endfacet
  facet normal -0.673618 0.739079 0
    outer loop
      vertex 1.6246 2.47559 0
      vertex 2.27425 3.0677 -0.00999928
      vertex 1.6246 2.47559 -0.00999928
    endloop
  endfacet
  facet normal -0.672415 0.737779 -0.0594909
    outer loop
      vertex 11.9064 1.68727 -126
      vertex 2.27425 3.0677 -0.00999928
      vertex 12.3492 2.09084 -126
    endloop
  endfacet
  facet normal -0.672425 0.73777 -0.0594916
    outer loop
      vertex 2.27425 3.0677 -0.00999928
      vertex 11.9064 1.68727 -126
      vertex 1.6246 2.47559 -0.00999928
    endloop
  endfacet
  facet normal 1 0 0
    outer loop
      vertex 47.5 10 12
      vertex 47.5 3.85853 0
      vertex 47.5 10 -0.0999994
    endloop
  endfacet
  facet normal 1 0 0
    outer loop
      vertex 47.5 10 12
      vertex 47.5 -0.654958 0
      vertex 47.5 3.85853 0
    endloop
  endfacet
  facet normal 1 0 0
    outer loop
      vertex 47.5 -10 -0.0999994
      vertex 47.5 -0.654958 0
      vertex 47.5 -10 12
    endloop
  endfacet
  facet normal 1 -0 0
    outer loop
      vertex 47.5 -10 12
      vertex 47.5 -0.654958 0
      vertex 47.5 10 12
    endloop
  endfacet
  facet normal 1 -0 0
    outer loop
      vertex 47.5 3.85853 -0.00999928
      vertex 47.5 10 -0.0999994
      vertex 47.5 3.85853 0
    endloop
  endfacet
  facet normal 1 0 0
    outer loop
      vertex 47.5 10 -0.0999994
      vertex 47.5 3.85853 -0.00999928
      vertex 47.5 3.85697 -0.0999994
    endloop
  endfacet
  facet normal 1 0 0
    outer loop
      vertex 47.5 -0.654958 0
      vertex 47.5 -10 -0.0999994
      vertex 47.5 -0.654958 -0.00999928
    endloop
  endfacet
  facet normal 1 0 0
    outer loop
      vertex 47.5 -0.654958 -0.00999928
      vertex 47.5 -10 -0.0999994
      vertex 47.5 -0.654821 -0.0999994
    endloop
  endfacet
  facet normal 0 0 -1
    outer loop
      vertex 26.0014 8.59713 -0.0999994
      vertex 47.5 10 -0.0999994
      vertex 47.5 3.85697 -0.0999994
    endloop
  endfacet
  facet normal 0 0 -1
    outer loop
      vertex 24.3772 8.95411 -0.0999994
      vertex 47.5 10 -0.0999994
      vertex 26.0014 8.59713 -0.0999994
    endloop
  endfacet
  facet normal 0 0 -1
    outer loop
      vertex 22.7519 9.24068 -0.0999994
      vertex 47.5 10 -0.0999994
      vertex 24.3772 8.95411 -0.0999994
    endloop
  endfacet
  facet normal 0 0 -1
    outer loop
      vertex 21.1277 9.44792 -0.0999994
      vertex 47.5 10 -0.0999994
      vertex 22.7519 9.24068 -0.0999994
    endloop
  endfacet
  facet normal 0 0 -1
    outer loop
      vertex 17.5 10 -0.0999994
      vertex 21.1277 9.44792 -0.0999994
      vertex 19.5025 9.55898 -0.0999994
    endloop
  endfacet
  facet normal 0 0 -1
    outer loop
      vertex 17.5 10 -0.0999994
      vertex 19.5025 9.55898 -0.0999994
      vertex 17.8783 9.56493 -0.0999994
    endloop
  endfacet
  facet normal 0 0 -1
    outer loop
      vertex 21.1277 9.44792 -0.0999994
      vertex 17.5 10 -0.0999994
      vertex 47.5 10 -0.0999994
    endloop
  endfacet
  facet normal 0 0 -1
    outer loop
      vertex 17.5 10 -0.0999994
      vertex 17.8783 9.56493 -0.0999994
      vertex 17.5 9.5393 -0.0999994
    endloop
  endfacet
  facet normal 0 0 -1
    outer loop
      vertex 25.4799 -1.59174 -0.0999994
      vertex 47.5 -0.654821 -0.0999994
      vertex 47.5 -10 -0.0999994
    endloop
  endfacet
  facet normal -0 0 -1
    outer loop
      vertex 47.5 -0.654821 -0.0999994
      vertex 25.5961 -1.06794 -0.0999994
      vertex 25.6612 -0.573285 -0.0999994
    endloop
  endfacet
  facet normal 0 0 -1
    outer loop
      vertex 47.5 -0.654821 -0.0999994
      vertex 25.4799 -1.59174 -0.0999994
      vertex 25.5961 -1.06794 -0.0999994
    endloop
  endfacet
  facet normal 0 0 -1
    outer loop
      vertex 47.5 -10 -0.0999994
      vertex 25.3186 -2.10342 -0.0999994
      vertex 25.4799 -1.59174 -0.0999994
    endloop
  endfacet
  facet normal 0 0 -1
    outer loop
      vertex 47.5 -10 -0.0999994
      vertex 25.1133 -2.5991 -0.0999994
      vertex 25.3186 -2.10342 -0.0999994
    endloop
  endfacet
  facet normal 0 0 -1
    outer loop
      vertex 47.5 -10 -0.0999994
      vertex 24.8656 -3.075 -0.0999994
      vertex 25.1133 -2.5991 -0.0999994
    endloop
  endfacet
  facet normal 0 0 -1
    outer loop
      vertex 47.5 -10 -0.0999994
      vertex 24.5773 -3.52749 -0.0999994
      vertex 24.8656 -3.075 -0.0999994
    endloop
  endfacet
  facet normal 0 0 -1
    outer loop
      vertex 47.5 -10 -0.0999994
      vertex 24.2532 -3.94985 -0.0999994
      vertex 24.5773 -3.52749 -0.0999994
    endloop
  endfacet
  facet normal 0 0 -1
    outer loop
      vertex 47.5 -10 -0.0999994
      vertex 24.2507 -3.95314 -0.0999994
      vertex 24.2532 -3.94985 -0.0999994
    endloop
  endfacet
  facet normal 0 0 -1
    outer loop
      vertex 47.5 -10 -0.0999994
      vertex 24.2479 -3.95621 -0.0999994
      vertex 24.2507 -3.95314 -0.0999994
    endloop
  endfacet
  facet normal 0 0 -1
    outer loop
      vertex 47.5 -10 -0.0999994
      vertex 23.8882 -4.34871 -0.0999994
      vertex 24.2479 -3.95621 -0.0999994
    endloop
  endfacet
  facet normal 0 0 -1
    outer loop
      vertex 47.5 -10 -0.0999994
      vertex 23.4927 -4.71117 -0.0999994
      vertex 23.8882 -4.34871 -0.0999994
    endloop
  endfacet
  facet normal 0 0 -1
    outer loop
      vertex 47.5 -10 -0.0999994
      vertex 23.067 -5.03778 -0.0999994
      vertex 23.4927 -4.71117 -0.0999994
    endloop
  endfacet
  facet normal 0 0 -1
    outer loop
      vertex 47.5 -10 -0.0999994
      vertex 22.618 -5.32382 -0.0999994
      vertex 23.067 -5.03778 -0.0999994
    endloop
  endfacet
  facet normal 0 0 -1
    outer loop
      vertex 47.5 -10 -0.0999994
      vertex 22.6145 -5.32606 -0.0999994
      vertex 22.618 -5.32382 -0.0999994
    endloop
  endfacet
  facet normal 0 0 -1
    outer loop
      vertex 17.5 -10 -0.0999994
      vertex 22.6145 -5.32606 -0.0999994
      vertex 47.5 -10 -0.0999994
    endloop
  endfacet
  facet normal 0 0 -1
    outer loop
      vertex 22.6145 -5.32606 -0.0999994
      vertex 17.5 -10 -0.0999994
      vertex 22.1386 -5.57379 -0.0999994
    endloop
  endfacet
  facet normal 0 0 -1
    outer loop
      vertex 22.1386 -5.57379 -0.0999994
      vertex 17.5 -10 -0.0999994
      vertex 22.1348 -5.57538 -0.0999994
    endloop
  endfacet
  facet normal 0 0 -1
    outer loop
      vertex 22.1348 -5.57538 -0.0999994
      vertex 17.5 -10 -0.0999994
      vertex 21.6429 -5.77911 -0.0999994
    endloop
  endfacet
  facet normal 0 0 -1
    outer loop
      vertex 21.6429 -5.77911 -0.0999994
      vertex 17.5 -10 -0.0999994
      vertex 21.1352 -5.93919 -0.0999994
    endloop
  endfacet
  facet normal 0 0 -1
    outer loop
      vertex 21.1352 -5.93919 -0.0999994
      vertex 17.5 -10 -0.0999994
      vertex 21.1312 -5.94044 -0.0999994
    endloop
  endfacet
  facet normal 0 0 -1
    outer loop
      vertex 21.1312 -5.94044 -0.0999994
      vertex 17.5 -10 -0.0999994
      vertex 20.6074 -6.05657 -0.0999994
    endloop
  endfacet
  facet normal 0 0 -1
    outer loop
      vertex 20.6074 -6.05657 -0.0999994
      vertex 17.5 -10 -0.0999994
      vertex 20.6033 -6.05711 -0.0999994
    endloop
  endfacet
  facet normal 0 0 -1
    outer loop
      vertex 20.6033 -6.05711 -0.0999994
      vertex 17.5 -10 -0.0999994
      vertex 20.0755 -6.1266 -0.0999994
    endloop
  endfacet
  facet normal 0 0 -1
    outer loop
      vertex 20.0755 -6.1266 -0.0999994
      vertex 17.5 -10 -0.0999994
      vertex 19.5437 -6.14982 -0.0999994
    endloop
  endfacet
  facet normal 0 0 -1
    outer loop
      vertex 19.5437 -6.14982 -0.0999994
      vertex 17.5 -10 -0.0999994
      vertex 19.5395 -6.15 -0.0999994
    endloop
  endfacet
  facet normal -0 0 -1
    outer loop
      vertex 19.5395 -6.15 -0.0999994
      vertex 17.5 -10 -0.0999994
      vertex 19.5391 -6.15 -0.0999994
    endloop
  endfacet
  facet normal -0 0 -1
    outer loop
      vertex 19.5391 -6.15 -0.0999994
      vertex 17.5 -10 -0.0999994
      vertex 19.0031 -6.1266 -0.0999994
    endloop
  endfacet
  facet normal -0 0 -1
    outer loop
      vertex 19.0031 -6.1266 -0.0999994
      vertex 17.5 -10 -0.0999994
      vertex 18.4753 -6.0571 -0.0999994
    endloop
  endfacet
  facet normal -0 0 -1
    outer loop
      vertex 18.4753 -6.0571 -0.0999994
      vertex 17.5 -10 -0.0999994
      vertex 18.4712 -6.05657 -0.0999994
    endloop
  endfacet
  facet normal 0 0 -1
    outer loop
      vertex 17.5 -10 -0.0999994
      vertex 17.9474 -5.94044 -0.0999994
      vertex 18.4712 -6.05657 -0.0999994
    endloop
  endfacet
  facet normal 0 0 -1
    outer loop
      vertex 17.5 -10 -0.0999994
      vertex 17.9435 -5.9392 -0.0999994
      vertex 17.9474 -5.94044 -0.0999994
    endloop
  endfacet
  facet normal -0 0 -1
    outer loop
      vertex 17.9435 -5.9392 -0.0999994
      vertex 17.5 -10 -0.0999994
      vertex 17.5 -5.79938 -0.0999994
    endloop
  endfacet
  facet normal -0 0 1
    outer loop
      vertex 17.5 10 12
      vertex 47.5 -10 12
      vertex 47.5 10 12
    endloop
  endfacet
  facet normal 0 0 1
    outer loop
      vertex 47.5 -10 12
      vertex 17.5 10 12
      vertex 17.5 -10 12
    endloop
  endfacet
  facet normal -1 -0 0
    outer loop
      vertex 17.5 -5.81172 0.99
      vertex 17.5 -10 -0.0999994
      vertex 17.5 -5.81172 1
    endloop
  endfacet
  facet normal -1 0 0
    outer loop
      vertex 17.5 -10 -0.0999994
      vertex 17.5 -5.81172 0.99
      vertex 17.5 -5.79938 -0.0999994
    endloop
  endfacet
  facet normal -1 0 0
    outer loop
      vertex 17.5 9.54172 0
      vertex 17.5 5.80051 0
      vertex 17.5 5.81172 0.99
    endloop
  endfacet
  facet normal -1 0 0
    outer loop
      vertex 17.5 9.54172 0
      vertex 17.5 10 -0.0999994
      vertex 17.5 9.54172 -0.00999928
    endloop
  endfacet
  facet normal -1 0 -0
    outer loop
      vertex 17.5 9.54172 -0.00999928
      vertex 17.5 10 -0.0999994
      vertex 17.5 9.5393 -0.0999994
    endloop
  endfacet
  facet normal -1 0 0
    outer loop
      vertex 17.5 10 -0.0999994
      vertex 17.5 9.54172 0
      vertex 17.5 10 12
    endloop
  endfacet
  facet normal -1 0 0
    outer loop
      vertex 17.5 5.81172 1
      vertex 17.5 9.54172 0
      vertex 17.5 5.81172 0.99
    endloop
  endfacet
  facet normal -1 0 0
    outer loop
      vertex 17.5 9.54172 0
      vertex 17.5 5.81172 1
      vertex 17.5 10 12
    endloop
  endfacet
  facet normal -1 0 0
    outer loop
      vertex 17.5 -5.81172 1
      vertex 17.5 10 12
      vertex 17.5 5.81172 1
    endloop
  endfacet
  facet normal -1 0 0
    outer loop
      vertex 17.5 -10 12
      vertex 17.5 -5.81172 1
      vertex 17.5 -10 -0.0999994
    endloop
  endfacet
  facet normal -1 0 0
    outer loop
      vertex 17.5 -5.81172 1
      vertex 17.5 -10 12
      vertex 17.5 10 12
    endloop
  endfacet
  facet normal 0 1 -0
    outer loop
      vertex 47.5 10 -0.0999994
      vertex 17.5 10 12
      vertex 47.5 10 12
    endloop
  endfacet
  facet normal 0 1 0
    outer loop
      vertex 17.5 10 12
      vertex 47.5 10 -0.0999994
      vertex 17.5 10 -0.0999994
    endloop
  endfacet
  facet normal 0 -1 0
    outer loop
      vertex 17.5 -10 -0.0999994
      vertex 47.5 -10 12
      vertex 17.5 -10 12
    endloop
  endfacet
  facet normal 0 -1 -0
    outer loop
      vertex 47.5 -10 12
      vertex 17.5 -10 -0.0999994
      vertex 47.5 -10 -0.0999994
    endloop
  endfacet
  facet normal 0 0 -1
    outer loop
      vertex 12.3492 2.09084 -126
      vertex 17.9109 0 -126
      vertex 17.9263 -0.352135 -126
    endloop
  endfacet
  facet normal 0 0 -1
    outer loop
      vertex 17.9109 0 -126
      vertex 16.3368 4.75356 -126
      vertex 17.4441 5.26731 -126
    endloop
  endfacet
  facet normal 0 0 -1
    outer loop
      vertex 17.9109 0 -126
      vertex 15.2289 4.14652 -126
      vertex 16.3368 4.75356 -126
    endloop
  endfacet
  facet normal 0 0 -1
    outer loop
      vertex 17.9109 0 -126
      vertex 14.3427 3.58815 -126
      vertex 15.2289 4.14652 -126
    endloop
  endfacet
  facet normal 0 0 -1
    outer loop
      vertex 17.9109 0 -126
      vertex 13.6782 3.12713 -126
      vertex 14.3427 3.58815 -126
    endloop
  endfacet
  facet normal 0 0 -1
    outer loop
      vertex 17.9109 0 -126
      vertex 13.0137 2.63095 -126
      vertex 13.6782 3.12713 -126
    endloop
  endfacet
  facet normal 0 0 -1
    outer loop
      vertex 17.9109 0 -126
      vertex 12.3492 2.09084 -126
      vertex 13.0137 2.63095 -126
    endloop
  endfacet
  facet normal 0 0 -1
    outer loop
      vertex 11.2419 -0.327179 -126
      vertex 12.3492 2.09084 -126
      vertex 17.9263 -0.352135 -126
    endloop
  endfacet
  facet normal 0 0 -1
    outer loop
      vertex 12.3492 2.09084 -126
      vertex 11.2419 -0.327179 -126
      vertex 11.9064 1.68727 -126
    endloop
  endfacet
  facet normal 0 0 -1
    outer loop
      vertex 11.9064 1.68727 -126
      vertex 11.2419 -0.327179 -126
      vertex 11.4636 1.25802 -126
    endloop
  endfacet
  facet normal 0 0 -1
    outer loop
      vertex 11.2419 -0.327179 -126
      vertex 11.2419 1.02277 -126
      vertex 11.4636 1.25802 -126
    endloop
  endfacet
  facet normal 0 0 -1
    outer loop
      vertex 10.7991 0 -126
      vertex 11.2419 -0.327179 -126
      vertex 11.0202 -0.323123 -126
    endloop
  endfacet
  facet normal 0 0 -1
    outer loop
      vertex 11.2419 -0.327179 -126
      vertex 11.0202 0.721957 -126
      vertex 11.2419 1.02277 -126
    endloop
  endfacet
  facet normal 0 0 -1
    outer loop
      vertex 11.2419 -0.327179 -126
      vertex 10.7991 0 -126
      vertex 11.0202 0.721957 -126
    endloop
  endfacet
  facet normal 0 0 -1
    outer loop
      vertex 52.8856 -0.482656 -126
      vertex 30.1939 -0.397937 -126
      vertex 30.2113 0 -126
    endloop
  endfacet
  facet normal 0 0 -1
    outer loop
      vertex 30.1879 0.536007 -126
      vertex 52.8856 -0.482656 -126
      vertex 30.2113 0 -126
    endloop
  endfacet
  facet normal 0 0 -1
    outer loop
      vertex 30.1178 1.06794 -126
      vertex 52.8856 -0.482656 -126
      vertex 30.1879 0.536007 -126
    endloop
  endfacet
  facet normal 0 0 -1
    outer loop
      vertex 30.0017 1.59174 -126
      vertex 52.8856 -0.482656 -126
      vertex 30.1178 1.06794 -126
    endloop
  endfacet
  facet normal 0 0 -1
    outer loop
      vertex 29.8404 2.10342 -126
      vertex 52.8856 -0.482656 -126
      vertex 30.0017 1.59174 -126
    endloop
  endfacet
  facet normal 0 0 -1
    outer loop
      vertex 29.6351 2.5991 -126
      vertex 52.8856 -0.482656 -126
      vertex 29.8404 2.10342 -126
    endloop
  endfacet
  facet normal 0 0 -1
    outer loop
      vertex 28.5195 5.86083 -126
      vertex 52.8856 -0.482656 -126
      vertex 29.6351 2.5991 -126
    endloop
  endfacet
  facet normal 0 0 -1
    outer loop
      vertex 28.5195 5.86083 -126
      vertex 29.6351 2.5991 -126
      vertex 29.3873 3.075 -126
    endloop
  endfacet
  facet normal 0 0 -1
    outer loop
      vertex 28.5195 5.86083 -126
      vertex 29.3873 3.075 -126
      vertex 29.0991 3.52749 -126
    endloop
  endfacet
  facet normal 0 0 -1
    outer loop
      vertex 28.5195 5.86083 -126
      vertex 29.0991 3.52749 -126
      vertex 29.0646 3.57246 -126
    endloop
  endfacet
  facet normal 0 0 -1
    outer loop
      vertex 28.5195 5.86083 -126
      vertex 29.0646 3.57246 -126
      vertex 28.7724 3.95314 -126
    endloop
  endfacet
  facet normal 0 0 -1
    outer loop
      vertex 52.8856 -0.482656 -126
      vertex 28.5195 5.86083 -126
      vertex 55.1008 0 -126
    endloop
  endfacet
  facet normal 0 0 -1
    outer loop
      vertex 28.4483 4.30692 -126
      vertex 28.5195 5.86083 -126
      vertex 28.7724 3.95314 -126
    endloop
  endfacet
  facet normal 0 0 -1
    outer loop
      vertex 28.41 4.34871 -126
      vertex 28.5195 5.86083 -126
      vertex 28.4483 4.30692 -126
    endloop
  endfacet
  facet normal 0 0 -1
    outer loop
      vertex 28.0144 4.71117 -126
      vertex 28.5195 5.86083 -126
      vertex 28.41 4.34871 -126
    endloop
  endfacet
  facet normal 0 0 -1
    outer loop
      vertex 27.5888 5.03778 -126
      vertex 28.5195 5.86083 -126
      vertex 28.0144 4.71117 -126
    endloop
  endfacet
  facet normal 0 0 -1
    outer loop
      vertex 27.541 5.06824 -126
      vertex 28.5195 5.86083 -126
      vertex 27.5888 5.03778 -126
    endloop
  endfacet
  facet normal 0 0 -1
    outer loop
      vertex 27.541 5.06824 -126
      vertex 27.4123 6.10418 -126
      vertex 28.5195 5.86083 -126
    endloop
  endfacet
  facet normal 0 0 -1
    outer loop
      vertex 27.1363 5.32606 -126
      vertex 27.4123 6.10418 -126
      vertex 27.541 5.06824 -126
    endloop
  endfacet
  facet normal 0 0 -1
    outer loop
      vertex 26.6604 5.57379 -126
      vertex 27.4123 6.10418 -126
      vertex 27.1363 5.32606 -126
    endloop
  endfacet
  facet normal 0 0 -1
    outer loop
      vertex 26.6604 5.57379 -126
      vertex 26.3043 6.29955 -126
      vertex 27.4123 6.10418 -126
    endloop
  endfacet
  facet normal 0 0 -1
    outer loop
      vertex 26.2171 5.75742 -126
      vertex 26.3043 6.29955 -126
      vertex 26.6604 5.57379 -126
    endloop
  endfacet
  facet normal 0 0 -1
    outer loop
      vertex 26.1647 5.77911 -126
      vertex 26.3043 6.29955 -126
      vertex 26.2171 5.75742 -126
    endloop
  endfacet
  facet normal 0 0 -1
    outer loop
      vertex 26.1106 5.79615 -126
      vertex 26.3043 6.29955 -126
      vertex 26.1647 5.77911 -126
    endloop
  endfacet
  facet normal 0 0 -1
    outer loop
      vertex 25.653 5.94044 -126
      vertex 26.3043 6.29955 -126
      vertex 26.1106 5.79615 -126
    endloop
  endfacet
  facet normal 0 0 -1
    outer loop
      vertex 25.653 5.94044 -126
      vertex 25.197 6.44083 -126
      vertex 26.3043 6.29955 -126
    endloop
  endfacet
  facet normal 0 0 -1
    outer loop
      vertex 25.1292 6.05657 -126
      vertex 25.197 6.44083 -126
      vertex 25.653 5.94044 -126
    endloop
  endfacet
  facet normal 0 0 -1
    outer loop
      vertex 24.6535 6.1192 -126
      vertex 25.197 6.44083 -126
      vertex 25.1292 6.05657 -126
    endloop
  endfacet
  facet normal 0 0 -1
    outer loop
      vertex 24.5973 6.1266 -126
      vertex 25.197 6.44083 -126
      vertex 24.6535 6.1192 -126
    endloop
  endfacet
  facet normal 0 0 -1
    outer loop
      vertex 24.0891 6.51654 -126
      vertex 24.5973 6.1266 -126
      vertex 24.5407 6.12907 -126
    endloop
  endfacet
  facet normal 0 0 -1
    outer loop
      vertex 24.5973 6.1266 -126
      vertex 24.0891 6.51654 -126
      vertex 25.197 6.44083 -126
    endloop
  endfacet
  facet normal 0 0 -1
    outer loop
      vertex 24.0613 6.15 -126
      vertex 24.0891 6.51654 -126
      vertex 24.5407 6.12907 -126
    endloop
  endfacet
  facet normal 0 0 -1
    outer loop
      vertex 24.0609 6.15 -126
      vertex 24.0891 6.51654 -126
      vertex 24.0613 6.15 -126
    endloop
  endfacet
  facet normal 0 0 -1
    outer loop
      vertex 23.5249 6.1266 -126
      vertex 24.0891 6.51654 -126
      vertex 24.0609 6.15 -126
    endloop
  endfacet
  facet normal 0 0 -1
    outer loop
      vertex 22.9818 6.52059 -126
      vertex 23.5249 6.1266 -126
      vertex 23.4687 6.11919 -126
    endloop
  endfacet
  facet normal 0 0 -1
    outer loop
      vertex 22.9818 6.52059 -126
      vertex 23.4687 6.11919 -126
      vertex 22.993 6.05657 -126
    endloop
  endfacet
  facet normal 0 0 -1
    outer loop
      vertex 23.5249 6.1266 -126
      vertex 22.9818 6.52059 -126
      vertex 24.0891 6.51654 -126
    endloop
  endfacet
  facet normal 0 0 -1
    outer loop
      vertex 22.4692 5.94044 -126
      vertex 22.9818 6.52059 -126
      vertex 22.993 6.05657 -126
    endloop
  endfacet
  facet normal 0 0 -1
    outer loop
      vertex 21.8746 6.44556 -126
      vertex 22.4692 5.94044 -126
      vertex 22.0116 5.79616 -126
    endloop
  endfacet
  facet normal 0 0 -1
    outer loop
      vertex 21.8746 6.44556 -126
      vertex 22.0116 5.79616 -126
      vertex 21.9575 5.77911 -126
    endloop
  endfacet
  facet normal 0 0 -1
    outer loop
      vertex 21.8746 6.44556 -126
      vertex 21.9575 5.77911 -126
      vertex 21.9051 5.75741 -126
    endloop
  endfacet
  facet normal 0 0 -1
    outer loop
      vertex 22.4692 5.94044 -126
      vertex 21.8746 6.44556 -126
      vertex 22.9818 6.52059 -126
    endloop
  endfacet
  facet normal 0 0 -1
    outer loop
      vertex 21.4618 5.57379 -126
      vertex 21.8746 6.44556 -126
      vertex 21.9051 5.75741 -126
    endloop
  endfacet
  facet normal 0 0 -1
    outer loop
      vertex 20.7666 6.28603 -126
      vertex 21.4618 5.57379 -126
      vertex 20.9859 5.32606 -126
    endloop
  endfacet
  facet normal 0 0 -1
    outer loop
      vertex 21.4618 5.57379 -126
      vertex 20.7666 6.28603 -126
      vertex 21.8746 6.44556 -126
    endloop
  endfacet
  facet normal 0 0 -1
    outer loop
      vertex 20.5812 5.06826 -126
      vertex 20.7666 6.28603 -126
      vertex 20.9859 5.32606 -126
    endloop
  endfacet
  facet normal 0 0 -1
    outer loop
      vertex 19.6593 6.03388 -126
      vertex 20.5812 5.06826 -126
      vertex 20.5334 5.03778 -126
    endloop
  endfacet
  facet normal 0 0 -1
    outer loop
      vertex 19.6593 6.03388 -126
      vertex 20.5334 5.03778 -126
      vertex 20.1078 4.71117 -126
    endloop
  endfacet
  facet normal 0 0 -1
    outer loop
      vertex 19.6593 6.03388 -126
      vertex 20.1078 4.71117 -126
      vertex 20.066 4.67286 -126
    endloop
  endfacet
  facet normal 0 0 -1
    outer loop
      vertex 18.5514 5.69251 -126
      vertex 20.066 4.67286 -126
      vertex 19.7122 4.34871 -126
    endloop
  endfacet
  facet normal 0 0 -1
    outer loop
      vertex 20.5812 5.06826 -126
      vertex 19.6593 6.03388 -126
      vertex 20.7666 6.28603 -126
    endloop
  endfacet
  facet normal 0 0 -1
    outer loop
      vertex 18.5514 5.69251 -126
      vertex 19.7122 4.34871 -126
      vertex 19.3497 3.95314 -126
    endloop
  endfacet
  facet normal 0 0 -1
    outer loop
      vertex 17.4441 5.26731 -126
      vertex 19.3497 3.95314 -126
      vertex 19.0231 3.52749 -126
    endloop
  endfacet
  facet normal 0 0 -1
    outer loop
      vertex 17.4441 5.26731 -126
      vertex 19.0231 3.52749 -126
      vertex 18.7653 3.12283 -126
    endloop
  endfacet
  facet normal 0 0 -1
    outer loop
      vertex 17.4441 5.26731 -126
      vertex 18.7653 3.12283 -126
      vertex 18.7349 3.075 -126
    endloop
  endfacet
  facet normal 0 0 -1
    outer loop
      vertex 17.4441 5.26731 -126
      vertex 18.7349 3.075 -126
      vertex 18.7087 3.0247 -126
    endloop
  endfacet
  facet normal 0 0 -1
    outer loop
      vertex 20.066 4.67286 -126
      vertex 18.5514 5.69251 -126
      vertex 19.6593 6.03388 -126
    endloop
  endfacet
  facet normal 0 0 -1
    outer loop
      vertex 17.4441 5.26731 -126
      vertex 18.7087 3.0247 -126
      vertex 18.4871 2.5991 -126
    endloop
  endfacet
  facet normal 0 0 -1
    outer loop
      vertex 17.4441 5.26731 -126
      vertex 18.4871 2.5991 -126
      vertex 18.3035 2.15582 -126
    endloop
  endfacet
  facet normal 0 0 -1
    outer loop
      vertex 17.4441 5.26731 -126
      vertex 18.3035 2.15582 -126
      vertex 18.2818 2.10342 -126
    endloop
  endfacet
  facet normal 0 0 -1
    outer loop
      vertex 17.4441 5.26731 -126
      vertex 18.2818 2.10342 -126
      vertex 18.1205 1.59174 -126
    endloop
  endfacet
  facet normal 0 0 -1
    outer loop
      vertex 17.4441 5.26731 -126
      vertex 18.1205 1.59174 -126
      vertex 18.1082 1.53637 -126
    endloop
  endfacet
  facet normal 0 0 -1
    outer loop
      vertex 17.4441 5.26731 -126
      vertex 18.1082 1.53637 -126
      vertex 18.0043 1.06794 -126
    endloop
  endfacet
  facet normal 0 0 -1
    outer loop
      vertex 17.4441 5.26731 -126
      vertex 18.0043 1.06794 -126
      vertex 17.9417 0.592234 -126
    endloop
  endfacet
  facet normal 0 0 -1
    outer loop
      vertex 17.4441 5.26731 -126
      vertex 17.9417 0.592234 -126
      vertex 17.9343 0.536007 -126
    endloop
  endfacet
  facet normal 0 0 -1
    outer loop
      vertex 19.3497 3.95314 -126
      vertex 17.4441 5.26731 -126
      vertex 18.5514 5.69251 -126
    endloop
  endfacet
  facet normal 0 0 -1
    outer loop
      vertex 17.9318 0.479349 -126
      vertex 17.4441 5.26731 -126
      vertex 17.9343 0.536007 -126
    endloop
  endfacet
  facet normal 0 0 -1
    outer loop
      vertex 17.4441 5.26731 -126
      vertex 17.9318 0.479349 -126
      vertex 17.9109 0 -126
    endloop
  endfacet
  facet normal -0.0436151 -0.999047 -0.00156646
    outer loop
      vertex 24.5407 6.12907 -126
      vertex 20.036 6.1266 1
      vertex 19.5 6.15 1
    endloop
  endfacet
  facet normal -0.043598 -0.999048 -0.00156586
    outer loop
      vertex 20.036 6.1266 1
      vertex 24.5407 6.12907 -126
      vertex 24.5973 6.1266 -126
    endloop
  endfacet
  facet normal 0.0436151 0.999047 0.00156454
    outer loop
      vertex 19.0031 -6.1266 -0.0999994
      vertex 19.5 -6.15 0.99
      vertex 19.5391 -6.15 -0.0999994
    endloop
  endfacet
  facet normal 0.0436151 0.999047 0.00156454
    outer loop
      vertex 19.5 -6.15 0.99
      vertex 19.0031 -6.1266 -0.0999994
      vertex 18.964 -6.1266 0.99
    endloop
  endfacet
  facet normal -0.990814 0.130464 -0.0355869
    outer loop
      vertex 25.6612 -0.573285 -0.0999994
      vertex 25.6266 -0.536007 1
      vertex 26.6277 -0.536007 -26.8727
    endloop
  endfacet
  facet normal -0.990823 0.130399 -0.0355796
    outer loop
      vertex 25.5566 -1.06794 1
      vertex 25.6612 -0.573285 -0.0999994
      vertex 25.5961 -1.06794 -0.0999994
    endloop
  endfacet
  facet normal -0.990824 0.130388 -0.0355847
    outer loop
      vertex 25.6612 -0.573285 -0.0999994
      vertex 25.5566 -1.06794 1
      vertex 25.6266 -0.536007 1
    endloop
  endfacet
  facet normal -0.130532 -0.991433 -0.00468816
    outer loop
      vertex 24.5973 6.1266 -126
      vertex 20.5679 6.05657 1
      vertex 20.036 6.1266 1
    endloop
  endfacet
  facet normal -0.130544 -0.991431 -0.00468855
    outer loop
      vertex 20.5679 6.05657 1
      vertex 24.5973 6.1266 -126
      vertex 24.6535 6.1192 -126
    endloop
  endfacet
  facet normal -0.975706 -0.216265 -0.0350432
    outer loop
      vertex 30.1178 1.06794 -126
      vertex 25.4404 1.59174 1
      vertex 30.0017 1.59174 -126
    endloop
  endfacet
  facet normal -0.975666 -0.216442 -0.035041
    outer loop
      vertex 25.4404 1.59174 1
      vertex 30.1178 1.06794 -126
      vertex 25.5566 1.06794 1
    endloop
  endfacet
  facet normal -0.537196 -0.843237 -0.0192938
    outer loop
      vertex 22.575 5.32606 1
      vertex 27.1363 5.32606 -126
      vertex 27.541 5.06824 -126
    endloop
  endfacet
  facet normal -0.923383 0.382445 -0.0331579
    outer loop
      vertex 25.1133 -2.5991 -0.0999994
      vertex 25.2791 -2.10342 1
      vertex 25.3186 -2.10342 -0.0999994
    endloop
  endfacet
  facet normal -0.923383 0.382445 -0.0331579
    outer loop
      vertex 25.2791 -2.10342 1
      vertex 25.1133 -2.5991 -0.0999994
      vertex 25.0738 -2.5991 1
    endloop
  endfacet
  facet normal -0.975667 0.216442 -0.0350353
    outer loop
      vertex 25.4799 -1.59174 -0.0999994
      vertex 25.5566 -1.06794 1
      vertex 25.5961 -1.06794 -0.0999994
    endloop
  endfacet
  facet normal -0.975667 0.216442 -0.0350353
    outer loop
      vertex 25.5566 -1.06794 1
      vertex 25.4799 -1.59174 -0.0999994
      vertex 25.4404 -1.59174 1
    endloop
  endfacet
  facet normal -0.675443 0.737013 -0.0242546
    outer loop
      vertex 23.4927 -4.71117 -0.0999994
      vertex 23.8487 -4.34871 1
      vertex 23.8882 -4.34871 -0.0999994
    endloop
  endfacet
  facet normal -0.675349 0.737097 -0.0243126
    outer loop
      vertex 23.8487 -4.34871 1
      vertex 23.4927 -4.71117 -0.0999994
      vertex 23.4531 -4.71117 1
    endloop
  endfacet
  facet normal -0.0436171 -0.999047 -0.00156654
    outer loop
      vertex 19.5 6.15 1
      vertex 24.0613 6.15 -126
      vertex 24.5407 6.12907 -126
    endloop
  endfacet
  facet normal -0.300706 -0.953656 -0.0108001
    outer loop
      vertex 21.0917 5.94044 1
      vertex 25.653 5.94044 -126
      vertex 26.1106 5.79615 -126
    endloop
  endfacet
  facet normal 0.990413 -0.133479 0.0355708
    outer loop
      vertex 13.4785 1.06423 0
      vertex 18.0043 1.06794 -126
      vertex 13.479 1.06794 0
    endloop
  endfacet
  facet normal 0.990824 -0.130386 0.0355856
    outer loop
      vertex 18.0043 1.06794 -126
      vertex 13.4785 1.06423 0
      vertex 17.9417 0.592234 -126
    endloop
  endfacet
  facet normal 0.461674 -0.886895 0.016581
    outer loop
      vertex 20.9859 5.32606 -126
      vertex 16.9365 5.57379 0
      vertex 16.4606 5.32606 0
    endloop
  endfacet
  facet normal 0.461674 -0.886895 0.016581
    outer loop
      vertex 16.9365 5.57379 0
      vertex 20.9859 5.32606 -126
      vertex 21.4618 5.57379 -126
    endloop
  endfacet
  facet normal 0.300659 0.953671 0.0107943
    outer loop
      vertex 17.5 -5.79938 -0.0999994
      vertex 17.9083 -5.94044 0.99
      vertex 17.9435 -5.9392 -0.0999994
    endloop
  endfacet
  facet normal 0.300653 0.953672 0.0107966
    outer loop
      vertex 17.9083 -5.94044 0.99
      vertex 17.5 -5.79938 -0.0999994
      vertex 17.5 -5.81172 0.99
    endloop
  endfacet
  facet normal 0.216444 -0.976264 0.00777369
    outer loop
      vertex 22.4692 5.94044 -126
      vertex 18.4321 6.05657 0.99
      vertex 17.9083 5.94044 0.99
    endloop
  endfacet
  facet normal 0.216444 -0.976264 0.00777369
    outer loop
      vertex 18.4321 6.05657 0.99
      vertex 22.4692 5.94044 -126
      vertex 22.993 6.05657 -126
    endloop
  endfacet
  facet normal 0.531803 -0.846652 0.0191239
    outer loop
      vertex 20.5812 5.06826 -126
      vertex 16.4606 5.32606 0
      vertex 16.4574 5.32405 0
    endloop
  endfacet
  facet normal 0.537167 -0.843256 0.0192924
    outer loop
      vertex 16.4606 5.32606 0
      vertex 20.5812 5.06826 -126
      vertex 20.9859 5.32606 -126
    endloop
  endfacet
  facet normal -0.842978 0.537096 -0.0302706
    outer loop
      vertex 24.5773 -3.52749 -0.0999994
      vertex 24.8261 -3.075 1
      vertex 24.8656 -3.075 -0.0999994
    endloop
  endfacet
  facet normal -0.842978 0.537096 -0.0302706
    outer loop
      vertex 24.8261 -3.075 1
      vertex 24.5773 -3.52749 -0.0999994
      vertex 24.5378 -3.52749 1
    endloop
  endfacet
  facet normal 0.130534 -0.991444 0
    outer loop
      vertex 18.4321 6.05657 0.99
      vertex 18.964 6.1266 1
      vertex 18.4321 6.05657 1
    endloop
  endfacet
  facet normal 0.130534 -0.991444 0
    outer loop
      vertex 18.964 6.1266 1
      vertex 18.4321 6.05657 0.99
      vertex 18.964 6.1266 0.99
    endloop
  endfacet
  facet normal -0.130578 0.991427 -0.00468895
    outer loop
      vertex 20.5679 -6.05657 1
      vertex 20.6074 -6.05657 -0.0999994
      vertex 20.6033 -6.05711 -0.0999994
    endloop
  endfacet
  facet normal -0.793021 0.608528 -0.0284767
    outer loop
      vertex 24.2532 -3.94985 -0.0999994
      vertex 24.5378 -3.52749 1
      vertex 24.5773 -3.52749 -0.0999994
    endloop
  endfacet
  facet normal -0.793043 0.6085 -0.0284599
    outer loop
      vertex 24.5378 -3.52749 1
      vertex 24.2532 -3.94985 -0.0999994
      vertex 24.2112 -3.95314 1
    endloop
  endfacet
  facet normal 0 1 0
    outer loop
      vertex 19.5395 -6.15 -0.0999994
      vertex 19.5 -6.15 0.99
      vertex 19.5 -6.15 1
    endloop
  endfacet
  facet normal 0 1 0
    outer loop
      vertex 19.5 -6.15 0.99
      vertex 19.5395 -6.15 -0.0999994
      vertex 19.5391 -6.15 -0.0999994
    endloop
  endfacet
  facet normal 0.130532 -0.991433 0.0046882
    outer loop
      vertex 23.4687 6.11919 -126
      vertex 18.964 6.1266 0.99
      vertex 18.4321 6.05657 0.99
    endloop
  endfacet
  facet normal 0.130718 -0.991409 0.00469478
    outer loop
      vertex 18.964 6.1266 0.99
      vertex 23.4687 6.11919 -126
      vertex 23.5249 6.1266 -126
    endloop
  endfacet
  facet normal -0.736982 0.675394 -0.0264734
    outer loop
      vertex 23.8882 -4.34871 -0.0999994
      vertex 24.2112 -3.95314 1
      vertex 24.2479 -3.95621 -0.0999994
    endloop
  endfacet
  facet normal -0.736994 0.675381 -0.0264648
    outer loop
      vertex 24.2112 -3.95314 1
      vertex 23.8882 -4.34871 -0.0999994
      vertex 23.8487 -4.34871 1
    endloop
  endfacet
  facet normal -0.998403 0.0436557 -0.0358577
    outer loop
      vertex 26.6277 -0.536007 -26.8727
      vertex 30.2113 0 -126
      vertex 30.1939 -0.397937 -126
    endloop
  endfacet
  facet normal -0.998408 0.0435287 -0.0358586
    outer loop
      vertex 30.2113 0 -126
      vertex 26.6277 -0.536007 -26.8727
      vertex 25.65 0 1
    endloop
  endfacet
  facet normal -0.998406 0.0435866 -0.0358596
    outer loop
      vertex 25.65 0 1
      vertex 26.6277 -0.536007 -26.8727
      vertex 25.6266 -0.536007 1
    endloop
  endfacet
  facet normal -0.382664 -0.923786 -0.0137436
    outer loop
      vertex 22.0991 5.57379 1
      vertex 26.2171 5.75742 -126
      vertex 26.6604 5.57379 -126
    endloop
  endfacet
  facet normal -0.300674 -0.953666 -0.0107988
    outer loop
      vertex 26.1106 5.79615 -126
      vertex 21.6034 5.77911 1
      vertex 21.0917 5.94044 1
    endloop
  endfacet
  facet normal -0.300405 -0.953751 -0.0107893
    outer loop
      vertex 21.6034 5.77911 1
      vertex 26.1106 5.79615 -126
      vertex 26.1647 5.77911 -126
    endloop
  endfacet
  facet normal 0.300671 0.953728 -0
    outer loop
      vertex 17.9083 -5.94044 0.99
      vertex 17.5 -5.81172 1
      vertex 17.9083 -5.94044 1
    endloop
  endfacet
  facet normal 0.300671 0.953728 0
    outer loop
      vertex 17.5 -5.81172 1
      vertex 17.9083 -5.94044 0.99
      vertex 17.5 -5.81172 0.99
    endloop
  endfacet
  facet normal 0.130534 0.991444 -0
    outer loop
      vertex 18.964 -6.1266 0.99
      vertex 18.4321 -6.05657 1
      vertex 18.964 -6.1266 1
    endloop
  endfacet
  facet normal 0.130534 0.991444 0
    outer loop
      vertex 18.4321 -6.05657 1
      vertex 18.964 -6.1266 0.99
      vertex 18.4321 -6.05657 0.99
    endloop
  endfacet
  facet normal -0.216444 -0.976264 -0.00777376
    outer loop
      vertex 25.1292 6.05657 -126
      vertex 21.0917 5.94044 1
      vertex 20.5679 6.05657 1
    endloop
  endfacet
  facet normal -0.216444 -0.976264 -0.00777376
    outer loop
      vertex 21.0917 5.94044 1
      vertex 25.1292 6.05657 -126
      vertex 25.653 5.94044 -126
    endloop
  endfacet
  facet normal 0.99825 0.0436308 0.0399241
    outer loop
      vertex 13.409 -0.527679 -0.00999928
      vertex 13.3857 -0.00373695 0
      vertex 13.4086 -0.527677 0
    endloop
  endfacet
  facet normal 0.9984 0.0437151 0.0358579
    outer loop
      vertex 13.3857 -0.00373695 0
      vertex 13.409 -0.527679 -0.00999928
      vertex 17.0437 -0.386432 -101.384
    endloop
  endfacet
  facet normal -0.130532 0.991433 -0.00468746
    outer loop
      vertex 20.0755 -6.1266 -0.0999994
      vertex 20.5679 -6.05657 1
      vertex 20.6033 -6.05711 -0.0999994
    endloop
  endfacet
  facet normal -0.130532 0.991433 -0.00468729
    outer loop
      vertex 20.5679 -6.05657 1
      vertex 20.0755 -6.1266 -0.0999994
      vertex 20.036 -6.1266 1
    endloop
  endfacet
  facet normal 0.886449 -0.461729 0.0318376
    outer loop
      vertex 14.2095 3.075 0
      vertex 18.7087 3.0247 -126
      vertex 18.7349 3.075 -126
    endloop
  endfacet
  facet normal 0.886568 -0.4615 0.0318418
    outer loop
      vertex 18.7087 3.0247 -126
      vertex 14.2095 3.075 0
      vertex 13.9635 2.60242 0
    endloop
  endfacet
  facet normal 0.13055 0.991431 0.00468304
    outer loop
      vertex 18.4753 -6.0571 -0.0999994
      vertex 18.964 -6.1266 0.99
      vertex 19.0031 -6.1266 -0.0999994
    endloop
  endfacet
  facet normal 0.130532 0.991433 0.00469131
    outer loop
      vertex 18.964 -6.1266 0.99
      vertex 18.4753 -6.0571 -0.0999994
      vertex 18.4321 -6.05657 0.99
    endloop
  endfacet
  facet normal 0.998996 0.0267329 0.0359435
    outer loop
      vertex 17.0437 -0.386432 -101.384
      vertex 13.3856 0 0
      vertex 13.3857 -0.00373695 0
    endloop
  endfacet
  facet normal 0.998404 0.0436264 0.0358578
    outer loop
      vertex 13.3856 0 0
      vertex 17.0437 -0.386432 -101.384
      vertex 17.9109 0 -126
    endloop
  endfacet
  facet normal 0.998403 0.0436634 0.0358583
    outer loop
      vertex 17.9109 0 -126
      vertex 17.0437 -0.386432 -101.384
      vertex 17.9263 -0.352135 -126
    endloop
  endfacet
  facet normal 0.0436152 -0.999048 0
    outer loop
      vertex 18.964 6.1266 0.99
      vertex 19.5 6.15 1
      vertex 18.964 6.1266 1
    endloop
  endfacet
  facet normal 0.0436152 -0.999048 0
    outer loop
      vertex 19.5 6.15 1
      vertex 18.964 6.1266 0.99
      vertex 19.5 6.15 0.99
    endloop
  endfacet
  facet normal -0.88659 0.461459 -0.0318367
    outer loop
      vertex 24.8656 -3.075 -0.0999994
      vertex 25.0738 -2.5991 1
      vertex 25.1133 -2.5991 -0.0999994
    endloop
  endfacet
  facet normal -0.88659 0.461459 -0.0318367
    outer loop
      vertex 25.0738 -2.5991 1
      vertex 24.8656 -3.075 -0.0999994
      vertex 24.8261 -3.075 1
    endloop
  endfacet
  facet normal -0.953175 0.300475 -0.0342277
    outer loop
      vertex 25.3186 -2.10342 -0.0999994
      vertex 25.4404 -1.59174 1
      vertex 25.4799 -1.59174 -0.0999994
    endloop
  endfacet
  facet normal -0.953175 0.300475 -0.0342277
    outer loop
      vertex 25.4404 -1.59174 1
      vertex 25.3186 -2.10342 -0.0999994
      vertex 25.2791 -2.10342 1
    endloop
  endfacet
  facet normal 0.998385 -0.0440532 0.0358571
    outer loop
      vertex 13.409 0.536007 0
      vertex 17.9318 0.479349 -126
      vertex 17.9343 0.536007 -126
    endloop
  endfacet
  facet normal 0.998401 -0.0437048 0.0358575
    outer loop
      vertex 17.9318 0.479349 -126
      vertex 13.409 0.536007 0
      vertex 13.3857 0.00373695 0
    endloop
  endfacet
  facet normal 0.0436152 0.999048 -0
    outer loop
      vertex 19.5 -6.15 0.99
      vertex 18.964 -6.1266 1
      vertex 19.5 -6.15 1
    endloop
  endfacet
  facet normal 0.0436152 0.999048 0
    outer loop
      vertex 18.964 -6.1266 1
      vertex 19.5 -6.15 0.99
      vertex 18.964 -6.1266 0.99
    endloop
  endfacet
  facet normal 0.737087 -0.675279 0.0264731
    outer loop
      vertex 14.8244 3.95314 0
      vertex 19.7122 4.34871 -126
      vertex 15.1868 4.34871 0
    endloop
  endfacet
  facet normal 0.736994 -0.675381 0.0264692
    outer loop
      vertex 19.7122 4.34871 -126
      vertex 14.8244 3.95314 0
      vertex 19.3497 3.95314 -126
    endloop
  endfacet
  facet normal 0.976212 -0.213964 0.0350703
    outer loop
      vertex 13.479 1.06794 0
      vertex 18.1082 1.53637 -126
      vertex 13.4798 1.07159 0
    endloop
  endfacet
  facet normal 0.975674 -0.216409 0.0350414
    outer loop
      vertex 18.1082 1.53637 -126
      vertex 13.479 1.06794 0
      vertex 18.0043 1.06794 -126
    endloop
  endfacet
  facet normal -0.998406 -0.0435866 -0.0358585
    outer loop
      vertex 30.2113 0 -126
      vertex 25.6266 0.536007 1
      vertex 30.1879 0.536007 -126
    endloop
  endfacet
  facet normal -0.998406 -0.0435866 -0.0358585
    outer loop
      vertex 25.6266 0.536007 1
      vertex 30.2113 0 -126
      vertex 25.65 0 1
    endloop
  endfacet
  facet normal -0.886514 -0.461606 -0.0318391
    outer loop
      vertex 29.6351 2.5991 -126
      vertex 24.8261 3.075 1
      vertex 29.3873 3.075 -126
    endloop
  endfacet
  facet normal -0.88659 -0.461459 -0.0318425
    outer loop
      vertex 24.8261 3.075 1
      vertex 29.6351 2.5991 -126
      vertex 25.0738 2.5991 1
    endloop
  endfacet
  facet normal 0.990827 -0.130366 0.0355856
    outer loop
      vertex 13.409 0.536007 0
      vertex 17.9417 0.592234 -126
      vertex 13.4785 1.06423 0
    endloop
  endfacet
  facet normal 0.990822 -0.130402 0.0355855
    outer loop
      vertex 17.9417 0.592234 -126
      vertex 13.409 0.536007 0
      vertex 17.9343 0.536007 -126
    endloop
  endfacet
  facet normal 0.302984 0.952934 0.0108685
    outer loop
      vertex 17.9083 -5.94044 0.99
      vertex 17.9474 -5.94044 -0.0999994
      vertex 17.9435 -5.9392 -0.0999994
    endloop
  endfacet
  facet normal 0.953175 -0.300475 0.0342341
    outer loop
      vertex 13.5951 1.59174 0
      vertex 18.2818 2.10342 -126
      vertex 13.7564 2.10342 0
    endloop
  endfacet
  facet normal 0.953175 -0.300475 0.0342341
    outer loop
      vertex 18.2818 2.10342 -126
      vertex 13.5951 1.59174 0
      vertex 18.1205 1.59174 -126
    endloop
  endfacet
  facet normal 0.608568 -0.793201 0.0218572
    outer loop
      vertex 20.1078 4.71117 -126
      vertex 16.0081 5.03778 0
      vertex 15.5824 4.71117 0
    endloop
  endfacet
  facet normal 0.608658 -0.793132 0.02186
    outer loop
      vertex 16.0081 5.03778 0
      vertex 20.1078 4.71117 -126
      vertex 20.5334 5.03778 -126
    endloop
  endfacet
  facet normal 0.975604 -0.216723 0.0350397
    outer loop
      vertex 13.5951 1.59174 0
      vertex 18.1082 1.53637 -126
      vertex 18.1205 1.59174 -126
    endloop
  endfacet
  facet normal 0.975702 -0.216281 0.035043
    outer loop
      vertex 18.1082 1.53637 -126
      vertex 13.5951 1.59174 0
      vertex 13.4798 1.07159 0
    endloop
  endfacet
  facet normal -0.0436214 0.999047 -0.00156641
    outer loop
      vertex 19.5437 -6.14982 -0.0999994
      vertex 20.036 -6.1266 1
      vertex 20.0755 -6.1266 -0.0999994
    endloop
  endfacet
  facet normal -0.0436151 0.999047 -0.00156923
    outer loop
      vertex 20.036 -6.1266 1
      vertex 19.5437 -6.14982 -0.0999994
      vertex 19.5 -6.15 1
    endloop
  endfacet
  facet normal 0.889641 -0.455539 0.0319775
    outer loop
      vertex 13.9618 2.5991 0
      vertex 18.7087 3.0247 -126
      vertex 13.9635 2.60242 0
    endloop
  endfacet
  facet normal 0.886521 -0.461591 0.0318395
    outer loop
      vertex 18.7087 3.0247 -126
      vertex 13.9618 2.5991 0
      vertex 18.4871 2.5991 -126
    endloop
  endfacet
  facet normal 0.0436151 -0.999047 0.00156646
    outer loop
      vertex 23.5249 6.1266 -126
      vertex 19.5 6.15 0.99
      vertex 18.964 6.1266 0.99
    endloop
  endfacet
  facet normal 0.0436151 -0.999047 0.00156646
    outer loop
      vertex 19.5 6.15 0.99
      vertex 23.5249 6.1266 -126
      vertex 24.0609 6.15 -126
    endloop
  endfacet
  facet normal -0.300693 0.95366 -0.0107976
    outer loop
      vertex 21.1352 -5.93919 -0.0999994
      vertex 21.6034 -5.77911 1
      vertex 21.6429 -5.77911 -0.0999994
    endloop
  endfacet
  facet normal -0.300674 0.953666 -0.0108066
    outer loop
      vertex 21.6034 -5.77911 1
      vertex 21.1352 -5.93919 -0.0999994
      vertex 21.0917 -5.94044 1
    endloop
  endfacet
  facet normal -0.0428178 0.999082 -0.00153755
    outer loop
      vertex 19.5 -6.15 1
      vertex 19.5437 -6.14982 -0.0999994
      vertex 19.5395 -6.15 -0.0999994
    endloop
  endfacet
  facet normal 0.998996 -0.0267329 0.035943
    outer loop
      vertex 13.3856 0 0
      vertex 17.9318 0.479349 -126
      vertex 13.3857 0.00373695 0
    endloop
  endfacet
  facet normal 0.998408 -0.0435314 0.0358579
    outer loop
      vertex 17.9318 0.479349 -126
      vertex 13.3856 0 0
      vertex 17.9109 0 -126
    endloop
  endfacet
  facet normal 0.843825 -0.535762 0.030306
    outer loop
      vertex 14.4958 3.52434 0
      vertex 19.0231 3.52749 -126
      vertex 14.4978 3.52749 0
    endloop
  endfacet
  facet normal 0.843002 -0.537058 0.0302764
    outer loop
      vertex 19.0231 3.52749 -126
      vertex 14.4958 3.52434 0
      vertex 18.7653 3.12283 -126
    endloop
  endfacet
  facet normal -0.216444 0.976264 -0.00777232
    outer loop
      vertex 20.6074 -6.05657 -0.0999994
      vertex 21.0917 -5.94044 1
      vertex 21.1312 -5.94044 -0.0999994
    endloop
  endfacet
  facet normal -0.216444 0.976264 -0.00777232
    outer loop
      vertex 21.0917 -5.94044 1
      vertex 20.6074 -6.05657 -0.0999994
      vertex 20.5679 -6.05657 1
    endloop
  endfacet
  facet normal 0.842972 -0.537105 0.0302756
    outer loop
      vertex 14.2095 3.075 0
      vertex 18.7653 3.12283 -126
      vertex 14.4958 3.52434 0
    endloop
  endfacet
  facet normal 0.843572 -0.536161 0.0302976
    outer loop
      vertex 18.7653 3.12283 -126
      vertex 14.2095 3.075 0
      vertex 18.7349 3.075 -126
    endloop
  endfacet
  facet normal 0.537245 -0.843205 0.0192952
    outer loop
      vertex 20.5334 5.03778 -126
      vertex 16.4574 5.32405 0
      vertex 16.0081 5.03778 0
    endloop
  endfacet
  facet normal 0.537551 -0.84301 0.0193047
    outer loop
      vertex 16.4574 5.32405 0
      vertex 20.5334 5.03778 -126
      vertex 20.5812 5.06826 -126
    endloop
  endfacet
  facet normal -0.382638 -0.923796 -0.0137427
    outer loop
      vertex 26.1647 5.77911 -126
      vertex 22.0991 5.57379 1
      vertex 21.6034 5.77911 1
    endloop
  endfacet
  facet normal -0.382425 -0.923885 -0.013736
    outer loop
      vertex 22.0991 5.57379 1
      vertex 26.1647 5.77911 -126
      vertex 26.2171 5.75742 -126
    endloop
  endfacet
  facet normal 0 0 -1
    outer loop
      vertex 25.6266 -0.536007 1
      vertex 25.6266 0.536007 1
      vertex 25.65 0 1
    endloop
  endfacet
  facet normal 0 0 -1
    outer loop
      vertex 25.5566 -1.06794 1
      vertex 25.6266 0.536007 1
      vertex 25.6266 -0.536007 1
    endloop
  endfacet
  facet normal 0 0 -1
    outer loop
      vertex 25.5566 -1.06794 1
      vertex 25.5566 1.06794 1
      vertex 25.6266 0.536007 1
    endloop
  endfacet
  facet normal 0 0 -1
    outer loop
      vertex 25.4404 -1.59174 1
      vertex 25.5566 1.06794 1
      vertex 25.5566 -1.06794 1
    endloop
  endfacet
  facet normal 0 0 -1
    outer loop
      vertex 25.4404 -1.59174 1
      vertex 25.4404 1.59174 1
      vertex 25.5566 1.06794 1
    endloop
  endfacet
  facet normal 0 0 -1
    outer loop
      vertex 25.2791 -2.10342 1
      vertex 25.4404 1.59174 1
      vertex 25.4404 -1.59174 1
    endloop
  endfacet
  facet normal 0 0 -1
    outer loop
      vertex 25.2791 -2.10342 1
      vertex 25.2791 2.10342 1
      vertex 25.4404 1.59174 1
    endloop
  endfacet
  facet normal 0 0 -1
    outer loop
      vertex 25.0738 -2.5991 1
      vertex 25.2791 2.10342 1
      vertex 25.2791 -2.10342 1
    endloop
  endfacet
  facet normal 0 0 -1
    outer loop
      vertex 25.0738 -2.5991 1
      vertex 25.0738 2.5991 1
      vertex 25.2791 2.10342 1
    endloop
  endfacet
  facet normal 0 0 -1
    outer loop
      vertex 24.8261 -3.075 1
      vertex 25.0738 2.5991 1
      vertex 25.0738 -2.5991 1
    endloop
  endfacet
  facet normal 0 0 -1
    outer loop
      vertex 24.8261 -3.075 1
      vertex 24.8261 3.075 1
      vertex 25.0738 2.5991 1
    endloop
  endfacet
  facet normal 0 0 -1
    outer loop
      vertex 24.5378 -3.52749 1
      vertex 24.8261 3.075 1
      vertex 24.8261 -3.075 1
    endloop
  endfacet
  facet normal 0 0 -1
    outer loop
      vertex 24.5378 -3.52749 1
      vertex 24.5378 3.52749 1
      vertex 24.8261 3.075 1
    endloop
  endfacet
  facet normal 0 0 -1
    outer loop
      vertex 24.2112 -3.95314 1
      vertex 24.5378 3.52749 1
      vertex 24.5378 -3.52749 1
    endloop
  endfacet
  facet normal 0 0 -1
    outer loop
      vertex 24.2112 -3.95314 1
      vertex 24.2112 3.95314 1
      vertex 24.5378 3.52749 1
    endloop
  endfacet
  facet normal 0 0 -1
    outer loop
      vertex 23.8487 -4.34871 1
      vertex 24.2112 3.95314 1
      vertex 24.2112 -3.95314 1
    endloop
  endfacet
  facet normal 0 0 -1
    outer loop
      vertex 23.8487 -4.34871 1
      vertex 23.8487 4.34871 1
      vertex 24.2112 3.95314 1
    endloop
  endfacet
  facet normal 0 0 -1
    outer loop
      vertex 23.4531 -4.71117 1
      vertex 23.8487 4.34871 1
      vertex 23.8487 -4.34871 1
    endloop
  endfacet
  facet normal 0 0 -1
    outer loop
      vertex 23.4531 -4.71117 1
      vertex 23.4531 4.71117 1
      vertex 23.8487 4.34871 1
    endloop
  endfacet
  facet normal 0 0 -1
    outer loop
      vertex 23.0275 -5.03778 1
      vertex 23.4531 4.71117 1
      vertex 23.4531 -4.71117 1
    endloop
  endfacet
  facet normal 0 0 -1
    outer loop
      vertex 23.0275 -5.03778 1
      vertex 23.0275 5.03778 1
      vertex 23.4531 4.71117 1
    endloop
  endfacet
  facet normal 0 0 -1
    outer loop
      vertex 22.575 -5.32606 1
      vertex 23.0275 5.03778 1
      vertex 23.0275 -5.03778 1
    endloop
  endfacet
  facet normal 0 0 -1
    outer loop
      vertex 22.575 -5.32606 1
      vertex 22.575 5.32606 1
      vertex 23.0275 5.03778 1
    endloop
  endfacet
  facet normal 0 0 -1
    outer loop
      vertex 22.0991 -5.57379 1
      vertex 22.575 5.32606 1
      vertex 22.575 -5.32606 1
    endloop
  endfacet
  facet normal 0 0 -1
    outer loop
      vertex 22.0991 -5.57379 1
      vertex 22.0991 5.57379 1
      vertex 22.575 5.32606 1
    endloop
  endfacet
  facet normal 0 0 -1
    outer loop
      vertex 21.6034 -5.77911 1
      vertex 22.0991 5.57379 1
      vertex 22.0991 -5.57379 1
    endloop
  endfacet
  facet normal 0 0 -1
    outer loop
      vertex 21.6034 -5.77911 1
      vertex 21.6034 5.77911 1
      vertex 22.0991 5.57379 1
    endloop
  endfacet
  facet normal 0 0 -1
    outer loop
      vertex 21.0917 -5.94044 1
      vertex 21.6034 5.77911 1
      vertex 21.6034 -5.77911 1
    endloop
  endfacet
  facet normal 0 0 -1
    outer loop
      vertex 21.0917 -5.94044 1
      vertex 21.0917 5.94044 1
      vertex 21.6034 5.77911 1
    endloop
  endfacet
  facet normal 0 0 -1
    outer loop
      vertex 20.5679 -6.05657 1
      vertex 21.0917 5.94044 1
      vertex 21.0917 -5.94044 1
    endloop
  endfacet
  facet normal 0 0 -1
    outer loop
      vertex 20.5679 -6.05657 1
      vertex 20.5679 6.05657 1
      vertex 21.0917 5.94044 1
    endloop
  endfacet
  facet normal 0 0 -1
    outer loop
      vertex 20.036 -6.1266 1
      vertex 20.5679 6.05657 1
      vertex 20.5679 -6.05657 1
    endloop
  endfacet
  facet normal 0 0 -1
    outer loop
      vertex 20.036 -6.1266 1
      vertex 20.036 6.1266 1
      vertex 20.5679 6.05657 1
    endloop
  endfacet
  facet normal 0 0 -1
    outer loop
      vertex 19.5 -6.15 1
      vertex 20.036 6.1266 1
      vertex 20.036 -6.1266 1
    endloop
  endfacet
  facet normal 0 0 -1
    outer loop
      vertex 19.5 -6.15 1
      vertex 19.5 6.15 1
      vertex 20.036 6.1266 1
    endloop
  endfacet
  facet normal 0 0 -1
    outer loop
      vertex 18.964 -6.1266 1
      vertex 19.5 6.15 1
      vertex 19.5 -6.15 1
    endloop
  endfacet
  facet normal 0 0 -1
    outer loop
      vertex 18.964 -6.1266 1
      vertex 18.964 6.1266 1
      vertex 19.5 6.15 1
    endloop
  endfacet
  facet normal 0 0 -1
    outer loop
      vertex 18.4321 -6.05657 1
      vertex 18.964 6.1266 1
      vertex 18.964 -6.1266 1
    endloop
  endfacet
  facet normal 0 0 -1
    outer loop
      vertex 18.4321 -6.05657 1
      vertex 18.4321 6.05657 1
      vertex 18.964 6.1266 1
    endloop
  endfacet
  facet normal 0 0 -1
    outer loop
      vertex 17.9083 -5.94044 1
      vertex 18.4321 6.05657 1
      vertex 18.4321 -6.05657 1
    endloop
  endfacet
  facet normal 0 0 -1
    outer loop
      vertex 17.9083 -5.94044 1
      vertex 17.9083 5.94044 1
      vertex 18.4321 6.05657 1
    endloop
  endfacet
  facet normal 0 0 -1
    outer loop
      vertex 17.5 -5.81172 1
      vertex 17.9083 5.94044 1
      vertex 17.9083 -5.94044 1
    endloop
  endfacet
  facet normal 0 0 -1
    outer loop
      vertex 17.9083 5.94044 1
      vertex 17.5 -5.81172 1
      vertex 17.5 5.81172 1
    endloop
  endfacet
  facet normal 0.216451 -0.976294 0
    outer loop
      vertex 17.9083 5.94044 0.99
      vertex 18.4321 6.05657 1
      vertex 17.9083 5.94044 1
    endloop
  endfacet
  facet normal 0.216451 -0.976294 0
    outer loop
      vertex 18.4321 6.05657 1
      vertex 17.9083 5.94044 0.99
      vertex 18.4321 6.05657 0.99
    endloop
  endfacet
  facet normal 0 -1 0
    outer loop
      vertex 24.0613 6.15 -126
      vertex 19.5 6.15 0.99
      vertex 24.0609 6.15 -126
    endloop
  endfacet
  facet normal 0 -1 0
    outer loop
      vertex 19.5 6.15 0.99
      vertex 24.0613 6.15 -126
      vertex 19.5 6.15 1
    endloop
  endfacet
  facet normal -0.538953 0.842114 -0.0193533
    outer loop
      vertex 22.575 -5.32606 1
      vertex 22.618 -5.32382 -0.0999994
      vertex 22.6145 -5.32606 -0.0999994
    endloop
  endfacet
  facet normal -0.953175 -0.300475 -0.034234
    outer loop
      vertex 30.0017 1.59174 -126
      vertex 25.2791 2.10342 1
      vertex 29.8404 2.10342 -126
    endloop
  endfacet
  facet normal -0.953175 -0.300475 -0.034234
    outer loop
      vertex 25.2791 2.10342 1
      vertex 30.0017 1.59174 -126
      vertex 25.4404 1.59174 1
    endloop
  endfacet
  facet normal 0.216451 0.976294 -0
    outer loop
      vertex 18.4321 -6.05657 0.99
      vertex 17.9083 -5.94044 1
      vertex 18.4321 -6.05657 1
    endloop
  endfacet
  facet normal 0.216451 0.976294 0
    outer loop
      vertex 17.9083 -5.94044 1
      vertex 18.4321 -6.05657 0.99
      vertex 17.9083 -5.94044 0.99
    endloop
  endfacet
  facet normal 0.216444 0.976264 0.0077642
    outer loop
      vertex 17.9474 -5.94044 -0.0999994
      vertex 18.4321 -6.05657 0.99
      vertex 18.4712 -6.05657 -0.0999994
    endloop
  endfacet
  facet normal 0.216444 0.976264 0.0077642
    outer loop
      vertex 18.4321 -6.05657 0.99
      vertex 17.9474 -5.94044 -0.0999994
      vertex 17.9083 -5.94044 0.99
    endloop
  endfacet
  facet normal 0.13051 -0.991436 0.00468733
    outer loop
      vertex 18.4321 6.05657 0.99
      vertex 22.993 6.05657 -126
      vertex 23.4687 6.11919 -126
    endloop
  endfacet
  facet normal -0.537194 0.843238 -0.0192901
    outer loop
      vertex 22.618 -5.32382 -0.0999994
      vertex 23.0275 -5.03778 1
      vertex 23.067 -5.03778 -0.0999994
    endloop
  endfacet
  facet normal -0.537207 0.84323 -0.0192828
    outer loop
      vertex 23.0275 -5.03778 1
      vertex 22.618 -5.32382 -0.0999994
      vertex 22.575 -5.32606 1
    endloop
  endfacet
  facet normal -0.608567 0.7932 -0.0219084
    outer loop
      vertex 23.067 -5.03778 -0.0999994
      vertex 23.4531 -4.71117 1
      vertex 23.4927 -4.71117 -0.0999994
    endloop
  endfacet
  facet normal -0.608658 0.793132 -0.0218564
    outer loop
      vertex 23.4531 -4.71117 1
      vertex 23.067 -5.03778 -0.0999994
      vertex 23.0275 -5.03778 1
    endloop
  endfacet
  facet normal -0.73859 0.673633 -0.0265221
    outer loop
      vertex 24.2112 -3.95314 1
      vertex 24.2507 -3.95314 -0.0999994
      vertex 24.2479 -3.95621 -0.0999994
    endloop
  endfacet
  facet normal -0.795884 0.604775 -0.0285795
    outer loop
      vertex 24.2112 -3.95314 1
      vertex 24.2532 -3.94985 -0.0999994
      vertex 24.2507 -3.95314 -0.0999994
    endloop
  endfacet
  facet normal 0.1282 0.991738 0.00459874
    outer loop
      vertex 18.4321 -6.05657 0.99
      vertex 18.4753 -6.0571 -0.0999994
      vertex 18.4712 -6.05657 -0.0999994
    endloop
  endfacet
  facet normal -0.9908 -0.130571 -0.0355845
    outer loop
      vertex 30.1879 0.536007 -126
      vertex 25.5566 1.06794 1
      vertex 30.1178 1.06794 -126
    endloop
  endfacet
  facet normal -0.990824 -0.130388 -0.0355862
    outer loop
      vertex 25.5566 1.06794 1
      vertex 30.1879 0.536007 -126
      vertex 25.6266 0.536007 1
    endloop
  endfacet
  facet normal 0.668772 -0.74308 0.0240195
    outer loop
      vertex 19.7122 4.34871 -126
      vertex 15.1896 4.35123 0
      vertex 15.1868 4.34871 0
    endloop
  endfacet
  facet normal 0.675337 -0.73711 0.0242551
    outer loop
      vertex 15.1896 4.35123 0
      vertex 19.7122 4.34871 -126
      vertex 20.066 4.67286 -126
    endloop
  endfacet
  facet normal 0.793043 -0.6085 0.0284822
    outer loop
      vertex 14.4978 3.52749 0
      vertex 19.3497 3.95314 -126
      vertex 14.8244 3.95314 0
    endloop
  endfacet
  facet normal 0.793043 -0.6085 0.0284822
    outer loop
      vertex 19.3497 3.95314 -126
      vertex 14.4978 3.52749 0
      vertex 19.0231 3.52749 -126
    endloop
  endfacet
  facet normal -0.461674 -0.886895 -0.0165814
    outer loop
      vertex 26.6604 5.57379 -126
      vertex 22.575 5.32606 1
      vertex 22.0991 5.57379 1
    endloop
  endfacet
  facet normal -0.461674 -0.886895 -0.0165814
    outer loop
      vertex 22.575 5.32606 1
      vertex 26.6604 5.57379 -126
      vertex 27.1363 5.32606 -126
    endloop
  endfacet
  facet normal -0.385957 0.922413 -0.0138594
    outer loop
      vertex 22.0991 -5.57379 1
      vertex 22.1386 -5.57379 -0.0999994
      vertex 22.1348 -5.57538 -0.0999994
    endloop
  endfacet
  facet normal 0.300687 -0.953662 0.0107993
    outer loop
      vertex 17.9083 5.94044 0.99
      vertex 22.0116 5.79616 -126
      vertex 22.4692 5.94044 -126
    endloop
  endfacet
  facet normal -0.382613 0.923807 -0.0137528
    outer loop
      vertex 21.6429 -5.77911 -0.0999994
      vertex 22.0991 -5.57379 1
      vertex 22.1348 -5.57538 -0.0999994
    endloop
  endfacet
  facet normal -0.382638 0.923796 -0.0137402
    outer loop
      vertex 22.0991 -5.57379 1
      vertex 21.6429 -5.77911 -0.0999994
      vertex 21.6034 -5.77911 1
    endloop
  endfacet
  facet normal -0.461674 0.886895 -0.0165783
    outer loop
      vertex 22.1386 -5.57379 -0.0999994
      vertex 22.575 -5.32606 1
      vertex 22.6145 -5.32606 -0.0999994
    endloop
  endfacet
  facet normal -0.461674 0.886895 -0.0165783
    outer loop
      vertex 22.575 -5.32606 1
      vertex 22.1386 -5.57379 -0.0999994
      vertex 22.0991 -5.57379 1
    endloop
  endfacet
  facet normal 0.923364 -0.382492 0.0331634
    outer loop
      vertex 13.7564 2.10342 0
      vertex 18.3035 2.15582 -126
      vertex 13.9603 2.59565 0
    endloop
  endfacet
  facet normal 0.923401 -0.382401 0.0331648
    outer loop
      vertex 18.3035 2.15582 -126
      vertex 13.7564 2.10342 0
      vertex 18.2818 2.10342 -126
    endloop
  endfacet
  facet normal 0.916573 -0.39851 0.0329188
    outer loop
      vertex 13.9603 2.59565 0
      vertex 18.4871 2.5991 -126
      vertex 13.9618 2.5991 0
    endloop
  endfacet
  facet normal 0.923381 -0.382451 0.0331638
    outer loop
      vertex 18.4871 2.5991 -126
      vertex 13.9603 2.59565 0
      vertex 18.3035 2.15582 -126
    endloop
  endfacet
  facet normal 0.675397 -0.737056 0.0242575
    outer loop
      vertex 20.066 4.67286 -126
      vertex 15.5824 4.71117 0
      vertex 15.1896 4.35123 0
    endloop
  endfacet
  facet normal 0.675462 -0.736996 0.0242598
    outer loop
      vertex 15.5824 4.71117 0
      vertex 20.066 4.67286 -126
      vertex 20.1078 4.71117 -126
    endloop
  endfacet
  facet normal 0.387656 -0.921699 0.0139227
    outer loop
      vertex 21.4618 5.57379 -126
      vertex 16.9399 5.57522 0
      vertex 16.9365 5.57379 0
    endloop
  endfacet
  facet normal 0.382646 -0.923793 0.0137429
    outer loop
      vertex 16.9399 5.57522 0
      vertex 21.4618 5.57379 -126
      vertex 21.9051 5.75741 -126
    endloop
  endfacet
  facet normal 0.300671 -0.953728 0
    outer loop
      vertex 17.5 5.81172 0.99
      vertex 17.9083 5.94044 1
      vertex 17.5 5.81172 1
    endloop
  endfacet
  facet normal 0.300671 -0.953728 0
    outer loop
      vertex 17.9083 5.94044 1
      vertex 17.5 5.81172 0.99
      vertex 17.9083 5.94044 0.99
    endloop
  endfacet
  facet normal -0.793088 -0.60844 -0.0284847
    outer loop
      vertex 29.0991 3.52749 -126
      vertex 24.2112 3.95314 1
      vertex 29.0646 3.57246 -126
    endloop
  endfacet
  facet normal -0.793043 -0.6085 -0.0284827
    outer loop
      vertex 24.2112 3.95314 1
      vertex 29.0991 3.52749 -126
      vertex 24.5378 3.52749 1
    endloop
  endfacet
  facet normal -0.130531 -0.991433 -0.00468811
    outer loop
      vertex 20.5679 6.05657 1
      vertex 24.6535 6.1192 -126
      vertex 25.1292 6.05657 -126
    endloop
  endfacet
  facet normal -0.792937 -0.608638 -0.0284783
    outer loop
      vertex 24.2112 3.95314 1
      vertex 28.7724 3.95314 -126
      vertex 29.0646 3.57246 -126
    endloop
  endfacet
  facet normal -0.737102 -0.675263 -0.026473
    outer loop
      vertex 24.2112 3.95314 1
      vertex 28.4483 4.30692 -126
      vertex 28.7724 3.95314 -126
    endloop
  endfacet
  facet normal -0.843062 -0.536963 -0.0302792
    outer loop
      vertex 29.3873 3.075 -126
      vertex 24.5378 3.52749 1
      vertex 29.0991 3.52749 -126
    endloop
  endfacet
  facet normal -0.842978 -0.537096 -0.0302755
    outer loop
      vertex 24.5378 3.52749 1
      vertex 29.3873 3.075 -126
      vertex 24.8261 3.075 1
    endloop
  endfacet
  facet normal -0.923383 -0.382445 -0.033164
    outer loop
      vertex 29.8404 2.10342 -126
      vertex 25.0738 2.5991 1
      vertex 29.6351 2.5991 -126
    endloop
  endfacet
  facet normal -0.923383 -0.382445 -0.033164
    outer loop
      vertex 25.0738 2.5991 1
      vertex 29.8404 2.10342 -126
      vertex 25.2791 2.10342 1
    endloop
  endfacet
  facet normal -0.298258 0.954425 -0.0107102
    outer loop
      vertex 21.0917 -5.94044 1
      vertex 21.1352 -5.93919 -0.0999994
      vertex 21.1312 -5.94044 -0.0999994
    endloop
  endfacet
  facet normal -0.537207 -0.84323 -0.0192942
    outer loop
      vertex 27.541 5.06824 -126
      vertex 23.0275 5.03778 1
      vertex 22.575 5.32606 1
    endloop
  endfacet
  facet normal -0.5373 -0.84317 -0.0192975
    outer loop
      vertex 23.0275 5.03778 1
      vertex 27.541 5.06824 -126
      vertex 27.5888 5.03778 -126
    endloop
  endfacet
  facet normal -0.608658 -0.793132 -0.0218604
    outer loop
      vertex 27.5888 5.03778 -126
      vertex 23.4531 4.71117 1
      vertex 23.0275 5.03778 1
    endloop
  endfacet
  facet normal -0.608658 -0.793132 -0.0218604
    outer loop
      vertex 23.4531 4.71117 1
      vertex 27.5888 5.03778 -126
      vertex 28.0144 4.71117 -126
    endloop
  endfacet
  facet normal -0.67535 -0.737098 -0.0242557
    outer loop
      vertex 28.0144 4.71117 -126
      vertex 23.8487 4.34871 1
      vertex 23.4531 4.71117 1
    endloop
  endfacet
  facet normal -0.67535 -0.737098 -0.0242557
    outer loop
      vertex 23.8487 4.34871 1
      vertex 28.0144 4.71117 -126
      vertex 28.41 4.34871 -126
    endloop
  endfacet
  facet normal -0.736962 -0.675416 -0.0264685
    outer loop
      vertex 28.4483 4.30692 -126
      vertex 23.8487 4.34871 1
      vertex 28.41 4.34871 -126
    endloop
  endfacet
  facet normal -0.736994 -0.675381 -0.0264697
    outer loop
      vertex 23.8487 4.34871 1
      vertex 28.4483 4.30692 -126
      vertex 24.2112 3.95314 1
    endloop
  endfacet
  facet normal 0.38267 -0.923783 0.0137439
    outer loop
      vertex 21.9051 5.75741 -126
      vertex 17.4321 5.77911 0
      vertex 16.9399 5.57522 0
    endloop
  endfacet
  facet normal 0.382575 -0.923822 0.0137405
    outer loop
      vertex 17.4321 5.77911 0
      vertex 21.9051 5.75741 -126
      vertex 21.9575 5.77911 -126
    endloop
  endfacet
  facet normal 0.300576 -0.953697 0.0107954
    outer loop
      vertex 17.4321 5.77911 0
      vertex 21.9575 5.77911 -126
      vertex 17.5 5.80051 0
    endloop
  endfacet
  facet normal 0.300653 -0.953672 0.0107987
    outer loop
      vertex 17.5 5.80051 0
      vertex 17.9083 5.94044 0.99
      vertex 17.5 5.81172 0.99
    endloop
  endfacet
  facet normal 0.300565 -0.9537 0.0107951
    outer loop
      vertex 22.0116 5.79616 -126
      vertex 17.5 5.80051 0
      vertex 21.9575 5.77911 -126
    endloop
  endfacet
  facet normal 0.300654 -0.953672 0.0107983
    outer loop
      vertex 17.5 5.80051 0
      vertex 22.0116 5.79616 -126
      vertex 17.9083 5.94044 0.99
    endloop
  endfacet
endsolid OpenSCAD_Model
