%TF.GenerationSoftware,KiCad,Pcbnew,9.0.2+dfsg-1*%
%TF.CreationDate,2026-07-29T09:35:34-04:00*%
%TF.ProjectId,Kaylee,4b61796c-6565-42e6-9b69-6361645f7063,A*%
%TF.SameCoordinates,Original*%
%TF.FileFunction,Paste,Bot*%
%TF.FilePolarity,Positive*%
%FSLAX46Y46*%
G04 Gerber Fmt 4.6, Leading zero omitted, Abs format (unit mm)*
G04 Created by KiCad (PCBNEW 9.0.2+dfsg-1) date 2026-07-29 09:35:34*
%MOMM*%
%LPD*%
G01*
G04 APERTURE LIST*
G04 Aperture macros list*
%AMRoundRect*
0 Rectangle with rounded corners*
0 $1 Rounding radius*
0 $2 $3 $4 $5 $6 $7 $8 $9 X,Y pos of 4 corners*
0 Add a 4 corners polygon primitive as box body*
4,1,4,$2,$3,$4,$5,$6,$7,$8,$9,$2,$3,0*
0 Add four circle primitives for the rounded corners*
1,1,$1+$1,$2,$3*
1,1,$1+$1,$4,$5*
1,1,$1+$1,$6,$7*
1,1,$1+$1,$8,$9*
0 Add four rect primitives between the rounded corners*
20,1,$1+$1,$2,$3,$4,$5,0*
20,1,$1+$1,$4,$5,$6,$7,0*
20,1,$1+$1,$6,$7,$8,$9,0*
20,1,$1+$1,$8,$9,$2,$3,0*%
G04 Aperture macros list end*
%ADD10RoundRect,0.140000X0.140000X0.170000X-0.140000X0.170000X-0.140000X-0.170000X0.140000X-0.170000X0*%
%ADD11RoundRect,0.150000X0.150000X0.700000X-0.150000X0.700000X-0.150000X-0.700000X0.150000X-0.700000X0*%
%ADD12RoundRect,0.250000X0.250000X1.150000X-0.250000X1.150000X-0.250000X-1.150000X0.250000X-1.150000X0*%
%ADD13RoundRect,0.150000X-0.150000X0.875000X-0.150000X-0.875000X0.150000X-0.875000X0.150000X0.875000X0*%
%ADD14RoundRect,0.250000X0.375000X1.075000X-0.375000X1.075000X-0.375000X-1.075000X0.375000X-1.075000X0*%
%ADD15RoundRect,0.135000X0.135000X0.185000X-0.135000X0.185000X-0.135000X-0.185000X0.135000X-0.185000X0*%
%ADD16RoundRect,0.062500X0.212500X0.062500X-0.212500X0.062500X-0.212500X-0.062500X0.212500X-0.062500X0*%
%ADD17RoundRect,0.110000X0.690000X0.165000X-0.690000X0.165000X-0.690000X-0.165000X0.690000X-0.165000X0*%
%ADD18RoundRect,0.062500X0.062500X0.212500X-0.062500X0.212500X-0.062500X-0.212500X0.062500X-0.212500X0*%
%ADD19RoundRect,0.250000X0.270000X0.270000X-0.270000X0.270000X-0.270000X-0.270000X0.270000X-0.270000X0*%
%ADD20RoundRect,0.062500X0.375000X0.062500X-0.375000X0.062500X-0.375000X-0.062500X0.375000X-0.062500X0*%
%ADD21RoundRect,0.062500X0.062500X0.375000X-0.062500X0.375000X-0.062500X-0.375000X0.062500X-0.375000X0*%
%ADD22RoundRect,0.150000X0.825000X0.150000X-0.825000X0.150000X-0.825000X-0.150000X0.825000X-0.150000X0*%
%ADD23RoundRect,0.500000X0.500000X0.750000X-0.500000X0.750000X-0.500000X-0.750000X0.500000X-0.750000X0*%
%ADD24RoundRect,0.200000X0.200000X0.800000X-0.200000X0.800000X-0.200000X-0.800000X0.200000X-0.800000X0*%
%ADD25RoundRect,0.087500X0.725000X0.087500X-0.725000X0.087500X-0.725000X-0.087500X0.725000X-0.087500X0*%
%ADD26RoundRect,0.182500X0.182500X0.272500X-0.182500X0.272500X-0.182500X-0.272500X0.182500X-0.272500X0*%
%ADD27RoundRect,0.062500X0.450000X0.062500X-0.450000X0.062500X-0.450000X-0.062500X0.450000X-0.062500X0*%
%ADD28RoundRect,0.062500X0.062500X0.325000X-0.062500X0.325000X-0.062500X-0.325000X0.062500X-0.325000X0*%
G04 APERTURE END LIST*
D10*
%TO.C,C_N_BOOT*%
X140460000Y-99500000D03*
X139500000Y-99500000D03*
%TD*%
%TO.C,C_FFSV*%
X172960000Y-76000000D03*
X172000000Y-76000000D03*
%TD*%
%TO.C,C_BIAS2*%
X174960000Y-74000000D03*
X174000000Y-74000000D03*
%TD*%
%TO.C,C_BOOT1*%
X176960000Y-72000000D03*
X176000000Y-72000000D03*
%TD*%
D11*
%TO.C,J_CAN_IN_H*%
X130975000Y-114050000D03*
X129725000Y-114050000D03*
X128475000Y-114050000D03*
D12*
X132825000Y-110700000D03*
X126625000Y-110700000D03*
%TD*%
D13*
%TO.C,U_RS485*%
X175960000Y-108700000D03*
X177230000Y-108700000D03*
X178500000Y-108700000D03*
X179770000Y-108700000D03*
X181040000Y-108700000D03*
X182310000Y-108700000D03*
X183580000Y-108700000D03*
X184850000Y-108700000D03*
X186120000Y-108700000D03*
X187390000Y-108700000D03*
X187390000Y-118000000D03*
X186120000Y-118000000D03*
X184850000Y-118000000D03*
X183580000Y-118000000D03*
X182310000Y-118000000D03*
X181040000Y-118000000D03*
X179770000Y-118000000D03*
X178500000Y-118000000D03*
X177230000Y-118000000D03*
X175960000Y-118000000D03*
%TD*%
D10*
%TO.C,C_BOOT_SV*%
X172960000Y-72000000D03*
X172000000Y-72000000D03*
%TD*%
%TO.C,C_FF2*%
X174960000Y-76000000D03*
X174000000Y-76000000D03*
%TD*%
D11*
%TO.C,J_CAN_OUT_H*%
X140975000Y-114050000D03*
X139725000Y-114050000D03*
X138475000Y-114050000D03*
D12*
X142825000Y-110700000D03*
X136625000Y-110700000D03*
%TD*%
D14*
%TO.C,L_RCS*%
X165300000Y-72500000D03*
X162500000Y-72500000D03*
%TD*%
D15*
%TO.C,R_FB_N1*%
X140490000Y-93500000D03*
X139470000Y-93500000D03*
%TD*%
D10*
%TO.C,C_N_VCC*%
X136460000Y-99500000D03*
X135500000Y-99500000D03*
%TD*%
D11*
%TO.C,J_RS485_IN_H*%
X120075000Y-113950000D03*
X118825000Y-113950000D03*
X117575000Y-113950000D03*
D12*
X121925000Y-110600000D03*
X115725000Y-110600000D03*
%TD*%
D16*
%TO.C,U_BEC_5V_2*%
X183713000Y-79500000D03*
X183713000Y-79000000D03*
X183713000Y-78500000D03*
X183713000Y-78000000D03*
X183713000Y-77500000D03*
D17*
X181963000Y-76625000D03*
D16*
X180213000Y-77500000D03*
X180213000Y-78000000D03*
X180213000Y-78500000D03*
X180213000Y-79000000D03*
X180213000Y-79500000D03*
D18*
X180525500Y-80375000D03*
X181100500Y-80375000D03*
X181675500Y-80375000D03*
X182250500Y-80375000D03*
X182825500Y-80375000D03*
X183400500Y-80375000D03*
%TD*%
D11*
%TO.C,J_SWD_H*%
X153875000Y-114450000D03*
X152625000Y-114450000D03*
X151375000Y-114450000D03*
X150125000Y-114450000D03*
D12*
X155725000Y-111100000D03*
X148275000Y-111100000D03*
%TD*%
D10*
%TO.C,C_FF1*%
X176960000Y-76000000D03*
X176000000Y-76000000D03*
%TD*%
D15*
%TO.C,R_FBRCS_2*%
X134990000Y-72500000D03*
X133970000Y-72500000D03*
%TD*%
D16*
%TO.C,U_BEC_RCS_6V*%
X183387500Y-86625000D03*
X183387500Y-86125000D03*
X183387500Y-85625000D03*
X183387500Y-85125000D03*
X183387500Y-84625000D03*
D17*
X181637500Y-83750000D03*
D16*
X179887500Y-84625000D03*
X179887500Y-85125000D03*
X179887500Y-85625000D03*
X179887500Y-86125000D03*
X179887500Y-86625000D03*
D18*
X180200000Y-87500000D03*
X180775000Y-87500000D03*
X181350000Y-87500000D03*
X181925000Y-87500000D03*
X182500000Y-87500000D03*
X183075000Y-87500000D03*
%TD*%
D19*
%TO.C,U_MCU*%
X176080000Y-103185000D03*
X176080000Y-101895000D03*
X176080000Y-100605000D03*
X176080000Y-99315000D03*
X174790000Y-103185000D03*
X174790000Y-101895000D03*
X174790000Y-100605000D03*
X174790000Y-99315000D03*
X173500000Y-103185000D03*
X173500000Y-101895000D03*
X173500000Y-100605000D03*
X173500000Y-99315000D03*
X172210000Y-103185000D03*
X172210000Y-101895000D03*
X172210000Y-100605000D03*
X172210000Y-99315000D03*
D20*
X177582500Y-98500000D03*
X177582500Y-99000000D03*
X177582500Y-99500000D03*
X177582500Y-100000000D03*
X177582500Y-100500000D03*
X177582500Y-101000000D03*
X177582500Y-101500000D03*
X177582500Y-102000000D03*
X177582500Y-102500000D03*
X177582500Y-103000000D03*
X177582500Y-103500000D03*
X177582500Y-104000000D03*
D21*
X176895000Y-104687500D03*
X176395000Y-104687500D03*
X175895000Y-104687500D03*
X175395000Y-104687500D03*
X174895000Y-104687500D03*
X174395000Y-104687500D03*
X173895000Y-104687500D03*
X173395000Y-104687500D03*
X172895000Y-104687500D03*
X172395000Y-104687500D03*
X171895000Y-104687500D03*
X171395000Y-104687500D03*
D20*
X170707500Y-104000000D03*
X170707500Y-103500000D03*
X170707500Y-103000000D03*
X170707500Y-102500000D03*
X170707500Y-102000000D03*
X170707500Y-101500000D03*
X170707500Y-101000000D03*
X170707500Y-100500000D03*
X170707500Y-100000000D03*
X170707500Y-99500000D03*
X170707500Y-99000000D03*
X170707500Y-98500000D03*
D21*
X171395000Y-97812500D03*
X171895000Y-97812500D03*
X172395000Y-97812500D03*
X172895000Y-97812500D03*
X173395000Y-97812500D03*
X173895000Y-97812500D03*
X174395000Y-97812500D03*
X174895000Y-97812500D03*
X175395000Y-97812500D03*
X175895000Y-97812500D03*
X176395000Y-97812500D03*
X176895000Y-97812500D03*
%TD*%
D13*
%TO.C,U_ISOCAN*%
X161285000Y-108350000D03*
X162555000Y-108350000D03*
X163825000Y-108350000D03*
X165095000Y-108350000D03*
X166365000Y-108350000D03*
X167635000Y-108350000D03*
X168905000Y-108350000D03*
X170175000Y-108350000D03*
X171445000Y-108350000D03*
X172715000Y-108350000D03*
X172715000Y-117650000D03*
X171445000Y-117650000D03*
X170175000Y-117650000D03*
X168905000Y-117650000D03*
X167635000Y-117650000D03*
X166365000Y-117650000D03*
X165095000Y-117650000D03*
X163825000Y-117650000D03*
X162555000Y-117650000D03*
X161285000Y-117650000D03*
%TD*%
D16*
%TO.C,U_BEC_5V_1*%
X163750000Y-83500000D03*
X163750000Y-83000000D03*
X163750000Y-82500000D03*
X163750000Y-82000000D03*
X163750000Y-81500000D03*
D17*
X162000000Y-80625000D03*
D16*
X160250000Y-81500000D03*
X160250000Y-82000000D03*
X160250000Y-82500000D03*
X160250000Y-83000000D03*
X160250000Y-83500000D03*
D18*
X160562500Y-84375000D03*
X161137500Y-84375000D03*
X161712500Y-84375000D03*
X162287500Y-84375000D03*
X162862500Y-84375000D03*
X163437500Y-84375000D03*
%TD*%
D15*
%TO.C,R_FBRCS_1*%
X138990000Y-72500000D03*
X137970000Y-72500000D03*
%TD*%
D22*
%TO.C,Q_BATT_DSG*%
X132475000Y-92095000D03*
X132475000Y-93365000D03*
X132475000Y-94635000D03*
X132475000Y-95905000D03*
X127525000Y-95905000D03*
X127525000Y-94635000D03*
X127525000Y-93365000D03*
X127525000Y-92095000D03*
%TD*%
D15*
%TO.C,R_DSG_G*%
X119829524Y-88500000D03*
X118809524Y-88500000D03*
%TD*%
%TO.C,R_CHGND*%
X122299524Y-86500000D03*
X121279524Y-86500000D03*
%TD*%
D23*
%TO.C,RS_MAIN*%
X168900000Y-87000000D03*
D24*
X167000000Y-87000000D03*
X165720000Y-87000000D03*
D23*
X163820000Y-87000000D03*
%TD*%
D25*
%TO.C,U_IS_MAIN*%
X177000000Y-86500000D03*
X177000000Y-87000000D03*
X177000000Y-87500000D03*
X177000000Y-88000000D03*
X177000000Y-88500000D03*
X172775000Y-88500000D03*
X172775000Y-88000000D03*
X172775000Y-87500000D03*
X172775000Y-87000000D03*
X172775000Y-86500000D03*
%TD*%
D23*
%TO.C,RS1*%
X169180000Y-94000000D03*
D24*
X167280000Y-94000000D03*
X166000000Y-94000000D03*
D23*
X164100000Y-94000000D03*
%TD*%
D25*
%TO.C,U_IS1*%
X177000000Y-93000000D03*
X177000000Y-93500000D03*
X177000000Y-94000000D03*
X177000000Y-94500000D03*
X177000000Y-95000000D03*
X172775000Y-95000000D03*
X172775000Y-94500000D03*
X172775000Y-94000000D03*
X172775000Y-93500000D03*
X172775000Y-93000000D03*
%TD*%
D23*
%TO.C,RS2*%
X159400000Y-87000000D03*
D24*
X157500000Y-87000000D03*
X156220000Y-87000000D03*
D23*
X154320000Y-87000000D03*
%TD*%
D25*
%TO.C,U_IS2*%
X158612500Y-74000000D03*
X158612500Y-74500000D03*
X158612500Y-75000000D03*
X158612500Y-75500000D03*
X158612500Y-76000000D03*
X154387500Y-76000000D03*
X154387500Y-75500000D03*
X154387500Y-75000000D03*
X154387500Y-74500000D03*
X154387500Y-74000000D03*
%TD*%
D23*
%TO.C,RS3*%
X151580000Y-93500000D03*
D24*
X149680000Y-93500000D03*
X148400000Y-93500000D03*
D23*
X146500000Y-93500000D03*
%TD*%
D25*
%TO.C,U_IS3*%
X159612500Y-92500000D03*
X159612500Y-93000000D03*
X159612500Y-93500000D03*
X159612500Y-94000000D03*
X159612500Y-94500000D03*
X155387500Y-94500000D03*
X155387500Y-94000000D03*
X155387500Y-93500000D03*
X155387500Y-93000000D03*
X155387500Y-92500000D03*
%TD*%
D23*
%TO.C,RS4*%
X149900000Y-86500000D03*
D24*
X148000000Y-86500000D03*
X146720000Y-86500000D03*
D23*
X144820000Y-86500000D03*
%TD*%
D25*
%TO.C,U_IS4*%
X150500000Y-74000000D03*
X150500000Y-74500000D03*
X150500000Y-75000000D03*
X150500000Y-75500000D03*
X150500000Y-76000000D03*
X146275000Y-76000000D03*
X146275000Y-75500000D03*
X146275000Y-75000000D03*
X146275000Y-74500000D03*
X146275000Y-74000000D03*
%TD*%
D26*
%TO.C,U_BEC_NACELLE_12V*%
X164812500Y-102680000D03*
X164812500Y-101560000D03*
X164812500Y-100440000D03*
X164812500Y-99320000D03*
X163912500Y-102680000D03*
X163912500Y-101560000D03*
X163912500Y-100440000D03*
X163912500Y-99320000D03*
D27*
X166225000Y-98500000D03*
X166225000Y-99000000D03*
X166225000Y-99500000D03*
X166225000Y-100000000D03*
X166225000Y-100500000D03*
X166225000Y-101000000D03*
X166225000Y-101500000D03*
X166225000Y-102000000D03*
X166225000Y-102500000D03*
X166225000Y-103000000D03*
X166225000Y-103500000D03*
D28*
X165112500Y-103987500D03*
X164612500Y-103987500D03*
X164112500Y-103987500D03*
X163612500Y-103987500D03*
D27*
X162500000Y-103500000D03*
X162500000Y-103000000D03*
X162500000Y-102500000D03*
X162500000Y-102000000D03*
X162500000Y-101500000D03*
X162500000Y-101000000D03*
X162500000Y-100500000D03*
X162500000Y-100000000D03*
X162500000Y-99500000D03*
X162500000Y-99000000D03*
X162500000Y-98500000D03*
D28*
X163612500Y-98012500D03*
X164112500Y-98012500D03*
X164612500Y-98012500D03*
X165112500Y-98012500D03*
%TD*%
D10*
%TO.C,C_FFRCS*%
X136960000Y-86500000D03*
X136000000Y-86500000D03*
%TD*%
%TO.C,C_BOOT_RCS*%
X138960000Y-76500000D03*
X138000000Y-76500000D03*
%TD*%
%TO.C,C_BIAS1*%
X176960000Y-74000000D03*
X176000000Y-74000000D03*
%TD*%
%TO.C,C_BIAS_RCS*%
X134960000Y-76500000D03*
X134000000Y-76500000D03*
%TD*%
D11*
%TO.C,J_RS485_OUT_H*%
X110475000Y-114050000D03*
X109225000Y-114050000D03*
X107975000Y-114050000D03*
D12*
X112325000Y-110700000D03*
X106125000Y-110700000D03*
%TD*%
D14*
%TO.C,L_N*%
X168300000Y-76950000D03*
X165500000Y-76950000D03*
%TD*%
D10*
%TO.C,C_BOOT2*%
X174960000Y-72000000D03*
X174000000Y-72000000D03*
%TD*%
%TO.C,C_BIASSV*%
X172960000Y-74000000D03*
X172000000Y-74000000D03*
%TD*%
D15*
%TO.C,R_FB_N2*%
X136490000Y-93500000D03*
X135470000Y-93500000D03*
%TD*%
M02*
