M48
; DRILL file {KiCad 9.0.2+dfsg-1} date 2026-07-29T09:35:36-0400
; FORMAT={-:-/ absolute / metric / decimal}
; #@! TF.CreationDate,2026-07-29T09:35:36-04:00
; #@! TF.GenerationSoftware,Kicad,Pcbnew,9.0.2+dfsg-1
; #@! TF.FileFunction,MixedPlating,1,4
FMAT,2
METRIC
; #@! TA.AperFunction,Plated,PTH,ComponentDrill
T1C1.000
; #@! TA.AperFunction,Plated,PTH,ComponentDrill
T2C1.200
; #@! TA.AperFunction,Plated,PTH,ComponentDrill
T3C1.780
; #@! TA.AperFunction,Plated,PTH,ComponentDrill
T4C1.800
; #@! TA.AperFunction,Plated,PTH,ComponentDrill
T5C2.000
; #@! TA.AperFunction,Plated,PTH,ComponentDrill
T6C2.500
; #@! TA.AperFunction,Plated,PTH,ComponentDrill
T7C3.200
; #@! TA.AperFunction,NonPlated,NPTH,ComponentDrill
T8C1.200
; #@! TA.AperFunction,NonPlated,NPTH,ComponentDrill
T9C1.300
; #@! TA.AperFunction,NonPlated,NPTH,ComponentDrill
T10C1.500
; #@! TA.AperFunction,NonPlated,NPTH,ComponentDrill
T11C3.200
%
G90
G05
T1
X115.0Y-90.132
X115.0Y-95.132
X124.632Y-93.0
X129.632Y-93.0
X135.5Y-81.0
X137.5Y-90.632
X137.5Y-95.632
X140.5Y-81.0
X146.0Y-90.5
X149.5Y-81.0
X151.0Y-90.5
X151.5Y-97.0
X154.5Y-81.0
X156.0Y-68.0
X156.5Y-97.0
X161.0Y-68.0
X163.5Y-81.0
X167.0Y-106.5
X168.5Y-81.0
X170.0Y-68.0
X172.0Y-106.5
X173.5Y-120.0
X175.0Y-68.0
X176.132Y-81.0
X178.5Y-120.0
X181.0Y-106.5
X181.132Y-81.0
X186.0Y-106.5
T2
X131.46Y-64.96
X131.46Y-70.04
X136.54Y-64.96
X136.54Y-70.04
X142.96Y-64.96
X142.96Y-70.04
X148.04Y-64.96
X148.04Y-70.04
X185.925Y-91.25
X185.925Y-93.75
X185.925Y-96.25
X185.925Y-98.75
X191.4Y-96.25
X191.4Y-98.75
X191.4Y-101.25
X191.4Y-103.75
X191.425Y-69.75
X191.425Y-72.25
X191.425Y-74.75
X191.425Y-77.25
X191.425Y-81.75
X191.425Y-84.25
X191.425Y-86.75
X191.425Y-89.25
X191.5Y-107.5
X191.5Y-110.0
X191.5Y-112.5
X191.5Y-115.0
T3
X103.58Y-102.0
X103.58Y-105.4
X113.5Y-102.0
X113.5Y-105.4
X117.58Y-102.0
X117.58Y-105.4
X127.5Y-102.0
X127.5Y-105.4
X131.58Y-102.0
X131.58Y-105.4
X141.5Y-102.0
X141.5Y-105.4
X145.58Y-102.0
X145.58Y-105.4
X155.5Y-102.0
X155.5Y-105.4
T4
X149.05Y-107.5
X158.95Y-107.5
T5
X108.58Y-122.5
X113.58Y-122.5
X122.58Y-122.5
X127.58Y-122.5
X136.58Y-122.5
X141.58Y-122.5
X150.58Y-122.5
X155.58Y-122.5
T6
X121.712Y-79.75
X128.912Y-79.75
T7
X105.58Y-81.5
X105.58Y-93.5
T8
X105.58Y-117.5
X116.58Y-117.5
X119.58Y-117.5
X130.58Y-117.5
X133.58Y-117.5
X144.58Y-117.5
X147.58Y-117.5
X158.58Y-117.5
T9
X184.585Y-95.0
X190.085Y-73.5
X190.085Y-85.5
X193.5Y-100.0
X193.6Y-111.25
T10
X111.362Y-73.75
X124.862Y-73.75
T11
X104.58Y-65.5
X104.58Y-122.5
X191.0Y-65.5
X191.0Y-122.5
M30
