%TF.GenerationSoftware,KiCad,Pcbnew,9.0.2+dfsg-1*%
%TF.CreationDate,2026-07-29T09:35:34-04:00*%
%TF.ProjectId,Kaylee,4b61796c-6565-42e6-9b69-6361645f7063,A*%
%TF.SameCoordinates,Original*%
%TF.FileFunction,Soldermask,Top*%
%TF.FilePolarity,Negative*%
%FSLAX46Y46*%
G04 Gerber Fmt 4.6, Leading zero omitted, Abs format (unit mm)*
G04 Created by KiCad (PCBNEW 9.0.2+dfsg-1) date 2026-07-29 09:35:34*
%MOMM*%
%LPD*%
G01*
G04 APERTURE LIST*
G04 Aperture macros list*
%AMRoundRect*
0 Rectangle with rounded corners*
0 $1 Rounding radius*
0 $2 $3 $4 $5 $6 $7 $8 $9 X,Y pos of 4 corners*
0 Add a 4 corners polygon primitive as box body*
4,1,4,$2,$3,$4,$5,$6,$7,$8,$9,$2,$3,0*
0 Add four circle primitives for the rounded corners*
1,1,$1+$1,$2,$3*
1,1,$1+$1,$4,$5*
1,1,$1+$1,$6,$7*
1,1,$1+$1,$8,$9*
0 Add four rect primitives between the rounded corners*
20,1,$1+$1,$2,$3,$4,$5,0*
20,1,$1+$1,$4,$5,$6,$7,0*
20,1,$1+$1,$6,$7,$8,$9,0*
20,1,$1+$1,$8,$9,$2,$3,0*%
G04 Aperture macros list end*
%ADD10RoundRect,0.140000X-0.140000X-0.170000X0.140000X-0.170000X0.140000X0.170000X-0.140000X0.170000X0*%
%ADD11RoundRect,0.135000X-0.135000X-0.185000X0.135000X-0.185000X0.135000X0.185000X-0.135000X0.185000X0*%
%ADD12RoundRect,0.250000X-0.750000X0.750000X-0.750000X-0.750000X0.750000X-0.750000X0.750000X0.750000X0*%
%ADD13C,2.000000*%
%ADD14RoundRect,0.250000X-0.750000X-0.750000X0.750000X-0.750000X0.750000X0.750000X-0.750000X0.750000X0*%
%ADD15RoundRect,0.150000X-0.512500X-0.150000X0.512500X-0.150000X0.512500X0.150000X-0.512500X0.150000X0*%
%ADD16C,3.200000*%
%ADD17C,1.500000*%
%ADD18RoundRect,1.000000X-1.000000X-1.000000X1.000000X-1.000000X1.000000X1.000000X-1.000000X1.000000X0*%
%ADD19C,4.000000*%
%ADD20RoundRect,0.475000X-0.475000X-0.475000X0.475000X-0.475000X0.475000X0.475000X-0.475000X0.475000X0*%
%ADD21C,1.900000*%
%ADD22RoundRect,0.750000X-0.750000X-0.750000X0.750000X-0.750000X0.750000X0.750000X-0.750000X0.750000X0*%
%ADD23C,3.000000*%
%ADD24RoundRect,0.500000X-0.500000X-0.500000X0.500000X-0.500000X0.500000X0.500000X-0.500000X0.500000X0*%
%ADD25RoundRect,0.575000X0.675000X0.575000X-0.675000X0.575000X-0.675000X-0.575000X0.675000X-0.575000X0*%
%ADD26RoundRect,0.450000X-0.450000X-0.450000X0.450000X-0.450000X0.450000X0.450000X-0.450000X0.450000X0*%
%ADD27C,1.800000*%
%ADD28RoundRect,0.312500X-0.312500X-1.012500X0.312500X-1.012500X0.312500X1.012500X-0.312500X1.012500X0*%
%ADD29RoundRect,0.250000X-0.250000X-0.475000X0.250000X-0.475000X0.250000X0.475000X-0.250000X0.475000X0*%
%ADD30C,6.000000*%
%ADD31RoundRect,0.695000X-0.695000X-0.695000X0.695000X-0.695000X0.695000X0.695000X-0.695000X0.695000X0*%
%ADD32C,2.780000*%
%ADD33C,1.200000*%
%ADD34RoundRect,0.875000X-0.875000X-0.875000X0.875000X-0.875000X0.875000X0.875000X-0.875000X0.875000X0*%
%ADD35C,3.500000*%
%ADD36RoundRect,0.300000X-0.800000X-0.300000X0.800000X-0.300000X0.800000X0.300000X-0.800000X0.300000X0*%
%ADD37RoundRect,0.249997X-2.950003X-2.650003X2.950003X-2.650003X2.950003X2.650003X-2.950003X2.650003X0*%
%ADD38RoundRect,0.135000X0.185000X-0.135000X0.185000X0.135000X-0.185000X0.135000X-0.185000X-0.135000X0*%
%ADD39RoundRect,0.100000X-0.225000X-0.100000X0.225000X-0.100000X0.225000X0.100000X-0.225000X0.100000X0*%
%ADD40RoundRect,0.135000X-0.185000X0.135000X-0.185000X-0.135000X0.185000X-0.135000X0.185000X0.135000X0*%
%ADD41RoundRect,0.150000X-0.150000X-0.700000X0.150000X-0.700000X0.150000X0.700000X-0.150000X0.700000X0*%
%ADD42RoundRect,0.250000X-0.250000X-1.150000X0.250000X-1.150000X0.250000X1.150000X-0.250000X1.150000X0*%
%ADD43R,0.650000X2.000000*%
%ADD44RoundRect,0.062500X-0.212500X-0.062500X0.212500X-0.062500X0.212500X0.062500X-0.212500X0.062500X0*%
%ADD45RoundRect,0.110000X-0.690000X-0.165000X0.690000X-0.165000X0.690000X0.165000X-0.690000X0.165000X0*%
%ADD46RoundRect,0.062500X-0.062500X-0.212500X0.062500X-0.212500X0.062500X0.212500X-0.062500X0.212500X0*%
%ADD47RoundRect,0.062500X-0.375000X-0.062500X0.375000X-0.062500X0.375000X0.062500X-0.375000X0.062500X0*%
%ADD48RoundRect,0.062500X-0.062500X-0.375000X0.062500X-0.375000X0.062500X0.375000X-0.062500X0.375000X0*%
%ADD49R,3.450000X3.450000*%
%ADD50C,1.300000*%
%ADD51RoundRect,0.250000X-0.850000X-0.600000X0.850000X-0.600000X0.850000X0.600000X-0.850000X0.600000X0*%
%ADD52O,2.200000X1.700000*%
%ADD53RoundRect,0.425000X0.675000X0.425000X-0.675000X0.425000X-0.675000X-0.425000X0.675000X-0.425000X0*%
G04 APERTURE END LIST*
D10*
%TO.C,C_H_ADM2*%
X106820000Y-99400000D03*
X107780000Y-99400000D03*
%TD*%
%TO.C,C_H_ADM1*%
X106820000Y-98000000D03*
X107780000Y-98000000D03*
%TD*%
D11*
%TO.C,R_H_CANTERM*%
X101990000Y-110800000D03*
X103010000Y-110800000D03*
%TD*%
D12*
%TO.C,C_N_OUT*%
X137500000Y-90632323D03*
D13*
X137500000Y-95632323D03*
%TD*%
D10*
%TO.C,C_H_OUT*%
X102020000Y-115000000D03*
X102980000Y-115000000D03*
%TD*%
%TO.C,C_H_VCORE*%
X102020000Y-116400000D03*
X102980000Y-116400000D03*
%TD*%
D14*
%TO.C,C_RCS_OUT*%
X176132323Y-81000000D03*
D13*
X181132323Y-81000000D03*
%TD*%
D15*
%TO.C,U_REG_3V3_H*%
X102562500Y-86250000D03*
X102562500Y-87200000D03*
X102562500Y-88150000D03*
X104837500Y-88150000D03*
X104837500Y-87200000D03*
X104837500Y-86250000D03*
%TD*%
D11*
%TO.C,R_H_FBT*%
X101990000Y-98000000D03*
X103010000Y-98000000D03*
%TD*%
D14*
%TO.C,C_N_IN*%
X124632323Y-93000000D03*
D13*
X129632323Y-93000000D03*
%TD*%
D16*
%TO.C,H1*%
X104580000Y-65500000D03*
%TD*%
%TO.C,H2*%
X191000000Y-65500000D03*
%TD*%
%TO.C,H3*%
X104580000Y-122500000D03*
%TD*%
%TO.C,H4*%
X191000000Y-122500000D03*
%TD*%
D17*
%TO.C,J_BATT*%
X111362500Y-73750000D03*
X124862500Y-73750000D03*
D18*
X121712500Y-79750000D03*
D19*
X128912500Y-79750000D03*
%TD*%
D20*
%TO.C,CM1*%
X136540000Y-64960000D03*
D21*
X136540000Y-70040000D03*
X131460000Y-64960000D03*
X131460000Y-70040000D03*
%TD*%
D20*
%TO.C,CM2*%
X148040000Y-64960000D03*
D21*
X148040000Y-70040000D03*
X142960000Y-64960000D03*
X142960000Y-70040000D03*
%TD*%
D22*
%TO.C,F1*%
X149050000Y-107500000D03*
D23*
X158950000Y-107500000D03*
%TD*%
D24*
%TO.C,C1*%
X135500000Y-81000000D03*
D13*
X140500000Y-81000000D03*
%TD*%
D24*
%TO.C,C2*%
X170000000Y-68000000D03*
D13*
X175000000Y-68000000D03*
%TD*%
D25*
%TO.C,D1*%
X167150000Y-97500000D03*
X162850000Y-97500000D03*
%TD*%
D26*
%TO.C,C_Y1*%
X151500000Y-97000000D03*
D27*
X156500000Y-97000000D03*
%TD*%
D26*
%TO.C,C_Y2*%
X146000000Y-90500000D03*
D27*
X151000000Y-90500000D03*
%TD*%
D28*
%TO.C,C_DM1*%
X154100000Y-89500000D03*
X156900000Y-89500000D03*
%TD*%
D29*
%TO.C,C3*%
X154600000Y-93000000D03*
X156500000Y-93000000D03*
%TD*%
D30*
%TO.C,J_PGND_BATT*%
X105580000Y-81500000D03*
%TD*%
%TO.C,J_CHASSIS*%
X105580000Y-93500000D03*
%TD*%
D31*
%TO.C,F_ESC1*%
X103580000Y-102000000D03*
D32*
X103580000Y-105400000D03*
X113500000Y-102000000D03*
X113500000Y-105400000D03*
%TD*%
D33*
%TO.C,J_ESC1*%
X105580000Y-117500000D03*
X116580000Y-117500000D03*
D34*
X108580000Y-122500000D03*
D35*
X113580000Y-122500000D03*
%TD*%
D31*
%TO.C,F_ESC2*%
X117580000Y-102000000D03*
D32*
X117580000Y-105400000D03*
X127500000Y-102000000D03*
X127500000Y-105400000D03*
%TD*%
D33*
%TO.C,J_ESC2*%
X119580000Y-117500000D03*
X130580000Y-117500000D03*
D34*
X122580000Y-122500000D03*
D35*
X127580000Y-122500000D03*
%TD*%
D31*
%TO.C,F_ESC3*%
X131580000Y-102000000D03*
D32*
X131580000Y-105400000D03*
X141500000Y-102000000D03*
X141500000Y-105400000D03*
%TD*%
D33*
%TO.C,J_ESC3*%
X133580000Y-117500000D03*
X144580000Y-117500000D03*
D34*
X136580000Y-122500000D03*
D35*
X141580000Y-122500000D03*
%TD*%
D31*
%TO.C,F_ESC4*%
X145580000Y-102000000D03*
D32*
X145580000Y-105400000D03*
X155500000Y-102000000D03*
X155500000Y-105400000D03*
%TD*%
D33*
%TO.C,J_ESC4*%
X147580000Y-117500000D03*
X158580000Y-117500000D03*
D34*
X150580000Y-122500000D03*
D35*
X155580000Y-122500000D03*
%TD*%
D24*
%TO.C,C_BEC1_IN*%
X156000000Y-68000000D03*
D13*
X161000000Y-68000000D03*
%TD*%
D28*
%TO.C,L1*%
X185600000Y-72000000D03*
X188400000Y-72000000D03*
%TD*%
D11*
%TO.C,R_FB1_1*%
X182990000Y-75000000D03*
X184010000Y-75000000D03*
%TD*%
%TO.C,R_FB1_2*%
X180480000Y-75000000D03*
X181500000Y-75000000D03*
%TD*%
D24*
%TO.C,C_BEC1_OUT*%
X149500000Y-81000000D03*
D13*
X154500000Y-81000000D03*
%TD*%
D36*
%TO.C,D_OR1*%
X160200000Y-89220000D03*
X160200000Y-91500000D03*
D37*
X166500000Y-91500000D03*
D36*
X160200000Y-93780000D03*
%TD*%
D24*
%TO.C,C_BEC2_IN*%
X163500000Y-81000000D03*
D13*
X168500000Y-81000000D03*
%TD*%
D28*
%TO.C,L2*%
X181100000Y-72000000D03*
X183900000Y-72000000D03*
%TD*%
D38*
%TO.C,R_FB2_1*%
X178500000Y-98000000D03*
X178500000Y-96980000D03*
%TD*%
%TO.C,R_FB2_2*%
X176500000Y-98000000D03*
X176500000Y-96980000D03*
%TD*%
D24*
%TO.C,C_BEC2_OUT*%
X167000000Y-106500000D03*
D13*
X172000000Y-106500000D03*
%TD*%
D36*
%TO.C,D_OR2*%
X172700000Y-89220000D03*
X172700000Y-91500000D03*
D37*
X179000000Y-91500000D03*
D36*
X172700000Y-93780000D03*
%TD*%
D24*
%TO.C,C_BEC_SV_IN*%
X181000000Y-106500000D03*
D13*
X186000000Y-106500000D03*
%TD*%
D28*
%TO.C,L4*%
X180700000Y-97500000D03*
X183500000Y-97500000D03*
%TD*%
D11*
%TO.C,R_FBSV_1*%
X180070000Y-110500000D03*
X181090000Y-110500000D03*
%TD*%
%TO.C,R_FBSV_2*%
X184570000Y-110500000D03*
X185590000Y-110500000D03*
%TD*%
D24*
%TO.C,C_BEC_SV_OUT*%
X173500000Y-120000000D03*
D13*
X178500000Y-120000000D03*
%TD*%
D39*
%TO.C,D_I2C*%
X172100000Y-96700000D03*
X172100000Y-97350000D03*
X172100000Y-98000000D03*
X174000000Y-98000000D03*
X174000000Y-97350000D03*
X174000000Y-96700000D03*
%TD*%
D40*
%TO.C,R_ALERT*%
X161000000Y-117490000D03*
X161000000Y-118510000D03*
%TD*%
D41*
%TO.C,J_I2C*%
X162525000Y-124850000D03*
X163775000Y-124850000D03*
X165025000Y-124850000D03*
X166275000Y-124850000D03*
D42*
X161300000Y-121500000D03*
X167500000Y-121500000D03*
%TD*%
D41*
%TO.C,J_ALERT*%
X186500000Y-117000000D03*
X187750000Y-117000000D03*
D42*
X184650000Y-113650000D03*
X189600000Y-113650000D03*
%TD*%
D43*
%TO.C,L_H1*%
X107225000Y-87200000D03*
X108575000Y-87200000D03*
%TD*%
D44*
%TO.C,U_BEC_SERVO_5V*%
X163750000Y-117500000D03*
X163750000Y-117000000D03*
X163750000Y-116500000D03*
X163750000Y-116000000D03*
X163750000Y-115500000D03*
D45*
X165500000Y-114625000D03*
D44*
X167250000Y-115500000D03*
X167250000Y-116000000D03*
X167250000Y-116500000D03*
X167250000Y-117000000D03*
X167250000Y-117500000D03*
D46*
X166937500Y-118375000D03*
X166362500Y-118375000D03*
X165787500Y-118375000D03*
X165212500Y-118375000D03*
X164637500Y-118375000D03*
X164062500Y-118375000D03*
%TD*%
D10*
%TO.C,C_H_ISO1*%
X104420000Y-98000000D03*
X105380000Y-98000000D03*
%TD*%
%TO.C,C_H_ISO2*%
X104420000Y-99400000D03*
X105380000Y-99400000D03*
%TD*%
D11*
%TO.C,R_H_TPM_RST*%
X101990000Y-109400000D03*
X103010000Y-109400000D03*
%TD*%
D10*
%TO.C,C_H_IN*%
X102020000Y-113600000D03*
X102980000Y-113600000D03*
%TD*%
%TO.C,C_H_TPM1*%
X102020000Y-117800000D03*
X102980000Y-117800000D03*
%TD*%
D12*
%TO.C,C_RCS_IN*%
X115000000Y-90132323D03*
D13*
X115000000Y-95132323D03*
%TD*%
D11*
%TO.C,R_H_485TERM*%
X101990000Y-112200000D03*
X103010000Y-112200000D03*
%TD*%
D47*
%TO.C,U_TPM*%
X102662500Y-71250000D03*
X102662500Y-71750000D03*
X102662500Y-72250000D03*
X102662500Y-72750000D03*
X102662500Y-73250000D03*
X102662500Y-73750000D03*
X102662500Y-74250000D03*
X102662500Y-74750000D03*
D48*
X103350000Y-75437500D03*
X103850000Y-75437500D03*
X104350000Y-75437500D03*
X104850000Y-75437500D03*
X105350000Y-75437500D03*
X105850000Y-75437500D03*
X106350000Y-75437500D03*
X106850000Y-75437500D03*
D47*
X107537500Y-74750000D03*
X107537500Y-74250000D03*
X107537500Y-73750000D03*
X107537500Y-73250000D03*
X107537500Y-72750000D03*
X107537500Y-72250000D03*
X107537500Y-71750000D03*
X107537500Y-71250000D03*
D48*
X106850000Y-70562500D03*
X106350000Y-70562500D03*
X105850000Y-70562500D03*
X105350000Y-70562500D03*
X104850000Y-70562500D03*
X104350000Y-70562500D03*
X103850000Y-70562500D03*
X103350000Y-70562500D03*
D49*
X105100000Y-73000000D03*
%TD*%
D11*
%TO.C,R_H_NRST*%
X101990000Y-108000000D03*
X103010000Y-108000000D03*
%TD*%
%TO.C,R_H_FBB*%
X101990000Y-99400000D03*
X103010000Y-99400000D03*
%TD*%
D50*
%TO.C,J_NACELLE_12V*%
X190085000Y-85500000D03*
D51*
X191425000Y-89250000D03*
D52*
X191425000Y-86750000D03*
X191425000Y-84250000D03*
X191425000Y-81750000D03*
%TD*%
D50*
%TO.C,J_RCS_6V*%
X184585000Y-95000000D03*
D51*
X185925000Y-98750000D03*
D52*
X185925000Y-96250000D03*
X185925000Y-93750000D03*
X185925000Y-91250000D03*
%TD*%
D50*
%TO.C,J_5V*%
X193500000Y-100000000D03*
D53*
X191400000Y-96250000D03*
D52*
X191400000Y-98750000D03*
X191400000Y-101250000D03*
X191400000Y-103750000D03*
%TD*%
D50*
%TO.C,J_SERVO_5V*%
X193600000Y-111250000D03*
D53*
X191500000Y-107500000D03*
D52*
X191500000Y-110000000D03*
X191500000Y-112500000D03*
X191500000Y-115000000D03*
%TD*%
D50*
%TO.C,J_WINCH_6V*%
X190085000Y-73500000D03*
D51*
X191425000Y-77250000D03*
D52*
X191425000Y-74750000D03*
X191425000Y-72250000D03*
X191425000Y-69750000D03*
%TD*%
M02*
