%TF.GenerationSoftware,KiCad,Pcbnew,9.0.2+dfsg-1*%
%TF.CreationDate,2026-07-28T10:12:06-04:00*%
%TF.ProjectId,Kaylee,4b61796c-6565-42e6-9b69-6361645f7063,A*%
%TF.SameCoordinates,Original*%
%TF.FileFunction,Legend,Bot*%
%TF.FilePolarity,Positive*%
%FSLAX46Y46*%
G04 Gerber Fmt 4.6, Leading zero omitted, Abs format (unit mm)*
G04 Created by KiCad (PCBNEW 9.0.2+dfsg-1) date 2026-07-28 10:12:06*
%MOMM*%
%LPD*%
G01*
G04 APERTURE LIST*
%ADD10C,0.150000*%
G04 APERTURE END LIST*
D10*
X168669523Y-83954819D02*
X169002856Y-83478628D01*
X169240951Y-83954819D02*
X169240951Y-82954819D01*
X169240951Y-82954819D02*
X168859999Y-82954819D01*
X168859999Y-82954819D02*
X168764761Y-83002438D01*
X168764761Y-83002438D02*
X168717142Y-83050057D01*
X168717142Y-83050057D02*
X168669523Y-83145295D01*
X168669523Y-83145295D02*
X168669523Y-83288152D01*
X168669523Y-83288152D02*
X168717142Y-83383390D01*
X168717142Y-83383390D02*
X168764761Y-83431009D01*
X168764761Y-83431009D02*
X168859999Y-83478628D01*
X168859999Y-83478628D02*
X169240951Y-83478628D01*
X168288570Y-83907200D02*
X168145713Y-83954819D01*
X168145713Y-83954819D02*
X167907618Y-83954819D01*
X167907618Y-83954819D02*
X167812380Y-83907200D01*
X167812380Y-83907200D02*
X167764761Y-83859580D01*
X167764761Y-83859580D02*
X167717142Y-83764342D01*
X167717142Y-83764342D02*
X167717142Y-83669104D01*
X167717142Y-83669104D02*
X167764761Y-83573866D01*
X167764761Y-83573866D02*
X167812380Y-83526247D01*
X167812380Y-83526247D02*
X167907618Y-83478628D01*
X167907618Y-83478628D02*
X168098094Y-83431009D01*
X168098094Y-83431009D02*
X168193332Y-83383390D01*
X168193332Y-83383390D02*
X168240951Y-83335771D01*
X168240951Y-83335771D02*
X168288570Y-83240533D01*
X168288570Y-83240533D02*
X168288570Y-83145295D01*
X168288570Y-83145295D02*
X168240951Y-83050057D01*
X168240951Y-83050057D02*
X168193332Y-83002438D01*
X168193332Y-83002438D02*
X168098094Y-82954819D01*
X168098094Y-82954819D02*
X167859999Y-82954819D01*
X167859999Y-82954819D02*
X167717142Y-83002438D01*
X167526666Y-84050057D02*
X166764761Y-84050057D01*
X166526665Y-83954819D02*
X166526665Y-82954819D01*
X166526665Y-82954819D02*
X166193332Y-83669104D01*
X166193332Y-83669104D02*
X165859999Y-82954819D01*
X165859999Y-82954819D02*
X165859999Y-83954819D01*
X165431427Y-83669104D02*
X164955237Y-83669104D01*
X165526665Y-83954819D02*
X165193332Y-82954819D01*
X165193332Y-82954819D02*
X164859999Y-83954819D01*
X164526665Y-83954819D02*
X164526665Y-82954819D01*
X164050475Y-83954819D02*
X164050475Y-82954819D01*
X164050475Y-82954819D02*
X163479047Y-83954819D01*
X163479047Y-83954819D02*
X163479047Y-82954819D01*
X178411308Y-83454819D02*
X178411308Y-84264342D01*
X178411308Y-84264342D02*
X178363689Y-84359580D01*
X178363689Y-84359580D02*
X178316070Y-84407200D01*
X178316070Y-84407200D02*
X178220832Y-84454819D01*
X178220832Y-84454819D02*
X178030356Y-84454819D01*
X178030356Y-84454819D02*
X177935118Y-84407200D01*
X177935118Y-84407200D02*
X177887499Y-84359580D01*
X177887499Y-84359580D02*
X177839880Y-84264342D01*
X177839880Y-84264342D02*
X177839880Y-83454819D01*
X177601785Y-84550057D02*
X176839880Y-84550057D01*
X176601784Y-84454819D02*
X176601784Y-83454819D01*
X176173213Y-84407200D02*
X176030356Y-84454819D01*
X176030356Y-84454819D02*
X175792261Y-84454819D01*
X175792261Y-84454819D02*
X175697023Y-84407200D01*
X175697023Y-84407200D02*
X175649404Y-84359580D01*
X175649404Y-84359580D02*
X175601785Y-84264342D01*
X175601785Y-84264342D02*
X175601785Y-84169104D01*
X175601785Y-84169104D02*
X175649404Y-84073866D01*
X175649404Y-84073866D02*
X175697023Y-84026247D01*
X175697023Y-84026247D02*
X175792261Y-83978628D01*
X175792261Y-83978628D02*
X175982737Y-83931009D01*
X175982737Y-83931009D02*
X176077975Y-83883390D01*
X176077975Y-83883390D02*
X176125594Y-83835771D01*
X176125594Y-83835771D02*
X176173213Y-83740533D01*
X176173213Y-83740533D02*
X176173213Y-83645295D01*
X176173213Y-83645295D02*
X176125594Y-83550057D01*
X176125594Y-83550057D02*
X176077975Y-83502438D01*
X176077975Y-83502438D02*
X175982737Y-83454819D01*
X175982737Y-83454819D02*
X175744642Y-83454819D01*
X175744642Y-83454819D02*
X175601785Y-83502438D01*
X175411309Y-84550057D02*
X174649404Y-84550057D01*
X174411308Y-84454819D02*
X174411308Y-83454819D01*
X174411308Y-83454819D02*
X174077975Y-84169104D01*
X174077975Y-84169104D02*
X173744642Y-83454819D01*
X173744642Y-83454819D02*
X173744642Y-84454819D01*
X173316070Y-84169104D02*
X172839880Y-84169104D01*
X173411308Y-84454819D02*
X173077975Y-83454819D01*
X173077975Y-83454819D02*
X172744642Y-84454819D01*
X172411308Y-84454819D02*
X172411308Y-83454819D01*
X171935118Y-84454819D02*
X171935118Y-83454819D01*
X171935118Y-83454819D02*
X171363690Y-84454819D01*
X171363690Y-84454819D02*
X171363690Y-83454819D01*
X167142857Y-90954819D02*
X167476190Y-90478628D01*
X167714285Y-90954819D02*
X167714285Y-89954819D01*
X167714285Y-89954819D02*
X167333333Y-89954819D01*
X167333333Y-89954819D02*
X167238095Y-90002438D01*
X167238095Y-90002438D02*
X167190476Y-90050057D01*
X167190476Y-90050057D02*
X167142857Y-90145295D01*
X167142857Y-90145295D02*
X167142857Y-90288152D01*
X167142857Y-90288152D02*
X167190476Y-90383390D01*
X167190476Y-90383390D02*
X167238095Y-90431009D01*
X167238095Y-90431009D02*
X167333333Y-90478628D01*
X167333333Y-90478628D02*
X167714285Y-90478628D01*
X166761904Y-90907200D02*
X166619047Y-90954819D01*
X166619047Y-90954819D02*
X166380952Y-90954819D01*
X166380952Y-90954819D02*
X166285714Y-90907200D01*
X166285714Y-90907200D02*
X166238095Y-90859580D01*
X166238095Y-90859580D02*
X166190476Y-90764342D01*
X166190476Y-90764342D02*
X166190476Y-90669104D01*
X166190476Y-90669104D02*
X166238095Y-90573866D01*
X166238095Y-90573866D02*
X166285714Y-90526247D01*
X166285714Y-90526247D02*
X166380952Y-90478628D01*
X166380952Y-90478628D02*
X166571428Y-90431009D01*
X166571428Y-90431009D02*
X166666666Y-90383390D01*
X166666666Y-90383390D02*
X166714285Y-90335771D01*
X166714285Y-90335771D02*
X166761904Y-90240533D01*
X166761904Y-90240533D02*
X166761904Y-90145295D01*
X166761904Y-90145295D02*
X166714285Y-90050057D01*
X166714285Y-90050057D02*
X166666666Y-90002438D01*
X166666666Y-90002438D02*
X166571428Y-89954819D01*
X166571428Y-89954819D02*
X166333333Y-89954819D01*
X166333333Y-89954819D02*
X166190476Y-90002438D01*
X165238095Y-90954819D02*
X165809523Y-90954819D01*
X165523809Y-90954819D02*
X165523809Y-89954819D01*
X165523809Y-89954819D02*
X165619047Y-90097676D01*
X165619047Y-90097676D02*
X165714285Y-90192914D01*
X165714285Y-90192914D02*
X165809523Y-90240533D01*
X176744642Y-89954819D02*
X176744642Y-90764342D01*
X176744642Y-90764342D02*
X176697023Y-90859580D01*
X176697023Y-90859580D02*
X176649404Y-90907200D01*
X176649404Y-90907200D02*
X176554166Y-90954819D01*
X176554166Y-90954819D02*
X176363690Y-90954819D01*
X176363690Y-90954819D02*
X176268452Y-90907200D01*
X176268452Y-90907200D02*
X176220833Y-90859580D01*
X176220833Y-90859580D02*
X176173214Y-90764342D01*
X176173214Y-90764342D02*
X176173214Y-89954819D01*
X175935119Y-91050057D02*
X175173214Y-91050057D01*
X174935118Y-90954819D02*
X174935118Y-89954819D01*
X174506547Y-90907200D02*
X174363690Y-90954819D01*
X174363690Y-90954819D02*
X174125595Y-90954819D01*
X174125595Y-90954819D02*
X174030357Y-90907200D01*
X174030357Y-90907200D02*
X173982738Y-90859580D01*
X173982738Y-90859580D02*
X173935119Y-90764342D01*
X173935119Y-90764342D02*
X173935119Y-90669104D01*
X173935119Y-90669104D02*
X173982738Y-90573866D01*
X173982738Y-90573866D02*
X174030357Y-90526247D01*
X174030357Y-90526247D02*
X174125595Y-90478628D01*
X174125595Y-90478628D02*
X174316071Y-90431009D01*
X174316071Y-90431009D02*
X174411309Y-90383390D01*
X174411309Y-90383390D02*
X174458928Y-90335771D01*
X174458928Y-90335771D02*
X174506547Y-90240533D01*
X174506547Y-90240533D02*
X174506547Y-90145295D01*
X174506547Y-90145295D02*
X174458928Y-90050057D01*
X174458928Y-90050057D02*
X174411309Y-90002438D01*
X174411309Y-90002438D02*
X174316071Y-89954819D01*
X174316071Y-89954819D02*
X174077976Y-89954819D01*
X174077976Y-89954819D02*
X173935119Y-90002438D01*
X172982738Y-90954819D02*
X173554166Y-90954819D01*
X173268452Y-90954819D02*
X173268452Y-89954819D01*
X173268452Y-89954819D02*
X173363690Y-90097676D01*
X173363690Y-90097676D02*
X173458928Y-90192914D01*
X173458928Y-90192914D02*
X173554166Y-90240533D01*
X157502857Y-83954819D02*
X157836190Y-83478628D01*
X158074285Y-83954819D02*
X158074285Y-82954819D01*
X158074285Y-82954819D02*
X157693333Y-82954819D01*
X157693333Y-82954819D02*
X157598095Y-83002438D01*
X157598095Y-83002438D02*
X157550476Y-83050057D01*
X157550476Y-83050057D02*
X157502857Y-83145295D01*
X157502857Y-83145295D02*
X157502857Y-83288152D01*
X157502857Y-83288152D02*
X157550476Y-83383390D01*
X157550476Y-83383390D02*
X157598095Y-83431009D01*
X157598095Y-83431009D02*
X157693333Y-83478628D01*
X157693333Y-83478628D02*
X158074285Y-83478628D01*
X157121904Y-83907200D02*
X156979047Y-83954819D01*
X156979047Y-83954819D02*
X156740952Y-83954819D01*
X156740952Y-83954819D02*
X156645714Y-83907200D01*
X156645714Y-83907200D02*
X156598095Y-83859580D01*
X156598095Y-83859580D02*
X156550476Y-83764342D01*
X156550476Y-83764342D02*
X156550476Y-83669104D01*
X156550476Y-83669104D02*
X156598095Y-83573866D01*
X156598095Y-83573866D02*
X156645714Y-83526247D01*
X156645714Y-83526247D02*
X156740952Y-83478628D01*
X156740952Y-83478628D02*
X156931428Y-83431009D01*
X156931428Y-83431009D02*
X157026666Y-83383390D01*
X157026666Y-83383390D02*
X157074285Y-83335771D01*
X157074285Y-83335771D02*
X157121904Y-83240533D01*
X157121904Y-83240533D02*
X157121904Y-83145295D01*
X157121904Y-83145295D02*
X157074285Y-83050057D01*
X157074285Y-83050057D02*
X157026666Y-83002438D01*
X157026666Y-83002438D02*
X156931428Y-82954819D01*
X156931428Y-82954819D02*
X156693333Y-82954819D01*
X156693333Y-82954819D02*
X156550476Y-83002438D01*
X156169523Y-83050057D02*
X156121904Y-83002438D01*
X156121904Y-83002438D02*
X156026666Y-82954819D01*
X156026666Y-82954819D02*
X155788571Y-82954819D01*
X155788571Y-82954819D02*
X155693333Y-83002438D01*
X155693333Y-83002438D02*
X155645714Y-83050057D01*
X155645714Y-83050057D02*
X155598095Y-83145295D01*
X155598095Y-83145295D02*
X155598095Y-83240533D01*
X155598095Y-83240533D02*
X155645714Y-83383390D01*
X155645714Y-83383390D02*
X156217142Y-83954819D01*
X156217142Y-83954819D02*
X155598095Y-83954819D01*
X158357142Y-70954819D02*
X158357142Y-71764342D01*
X158357142Y-71764342D02*
X158309523Y-71859580D01*
X158309523Y-71859580D02*
X158261904Y-71907200D01*
X158261904Y-71907200D02*
X158166666Y-71954819D01*
X158166666Y-71954819D02*
X157976190Y-71954819D01*
X157976190Y-71954819D02*
X157880952Y-71907200D01*
X157880952Y-71907200D02*
X157833333Y-71859580D01*
X157833333Y-71859580D02*
X157785714Y-71764342D01*
X157785714Y-71764342D02*
X157785714Y-70954819D01*
X157547619Y-72050057D02*
X156785714Y-72050057D01*
X156547618Y-71954819D02*
X156547618Y-70954819D01*
X156119047Y-71907200D02*
X155976190Y-71954819D01*
X155976190Y-71954819D02*
X155738095Y-71954819D01*
X155738095Y-71954819D02*
X155642857Y-71907200D01*
X155642857Y-71907200D02*
X155595238Y-71859580D01*
X155595238Y-71859580D02*
X155547619Y-71764342D01*
X155547619Y-71764342D02*
X155547619Y-71669104D01*
X155547619Y-71669104D02*
X155595238Y-71573866D01*
X155595238Y-71573866D02*
X155642857Y-71526247D01*
X155642857Y-71526247D02*
X155738095Y-71478628D01*
X155738095Y-71478628D02*
X155928571Y-71431009D01*
X155928571Y-71431009D02*
X156023809Y-71383390D01*
X156023809Y-71383390D02*
X156071428Y-71335771D01*
X156071428Y-71335771D02*
X156119047Y-71240533D01*
X156119047Y-71240533D02*
X156119047Y-71145295D01*
X156119047Y-71145295D02*
X156071428Y-71050057D01*
X156071428Y-71050057D02*
X156023809Y-71002438D01*
X156023809Y-71002438D02*
X155928571Y-70954819D01*
X155928571Y-70954819D02*
X155690476Y-70954819D01*
X155690476Y-70954819D02*
X155547619Y-71002438D01*
X155166666Y-71050057D02*
X155119047Y-71002438D01*
X155119047Y-71002438D02*
X155023809Y-70954819D01*
X155023809Y-70954819D02*
X154785714Y-70954819D01*
X154785714Y-70954819D02*
X154690476Y-71002438D01*
X154690476Y-71002438D02*
X154642857Y-71050057D01*
X154642857Y-71050057D02*
X154595238Y-71145295D01*
X154595238Y-71145295D02*
X154595238Y-71240533D01*
X154595238Y-71240533D02*
X154642857Y-71383390D01*
X154642857Y-71383390D02*
X155214285Y-71954819D01*
X155214285Y-71954819D02*
X154595238Y-71954819D01*
X148062857Y-91954819D02*
X148396190Y-91478628D01*
X148634285Y-91954819D02*
X148634285Y-90954819D01*
X148634285Y-90954819D02*
X148253333Y-90954819D01*
X148253333Y-90954819D02*
X148158095Y-91002438D01*
X148158095Y-91002438D02*
X148110476Y-91050057D01*
X148110476Y-91050057D02*
X148062857Y-91145295D01*
X148062857Y-91145295D02*
X148062857Y-91288152D01*
X148062857Y-91288152D02*
X148110476Y-91383390D01*
X148110476Y-91383390D02*
X148158095Y-91431009D01*
X148158095Y-91431009D02*
X148253333Y-91478628D01*
X148253333Y-91478628D02*
X148634285Y-91478628D01*
X147681904Y-91907200D02*
X147539047Y-91954819D01*
X147539047Y-91954819D02*
X147300952Y-91954819D01*
X147300952Y-91954819D02*
X147205714Y-91907200D01*
X147205714Y-91907200D02*
X147158095Y-91859580D01*
X147158095Y-91859580D02*
X147110476Y-91764342D01*
X147110476Y-91764342D02*
X147110476Y-91669104D01*
X147110476Y-91669104D02*
X147158095Y-91573866D01*
X147158095Y-91573866D02*
X147205714Y-91526247D01*
X147205714Y-91526247D02*
X147300952Y-91478628D01*
X147300952Y-91478628D02*
X147491428Y-91431009D01*
X147491428Y-91431009D02*
X147586666Y-91383390D01*
X147586666Y-91383390D02*
X147634285Y-91335771D01*
X147634285Y-91335771D02*
X147681904Y-91240533D01*
X147681904Y-91240533D02*
X147681904Y-91145295D01*
X147681904Y-91145295D02*
X147634285Y-91050057D01*
X147634285Y-91050057D02*
X147586666Y-91002438D01*
X147586666Y-91002438D02*
X147491428Y-90954819D01*
X147491428Y-90954819D02*
X147253333Y-90954819D01*
X147253333Y-90954819D02*
X147110476Y-91002438D01*
X146777142Y-90954819D02*
X146158095Y-90954819D01*
X146158095Y-90954819D02*
X146491428Y-91335771D01*
X146491428Y-91335771D02*
X146348571Y-91335771D01*
X146348571Y-91335771D02*
X146253333Y-91383390D01*
X146253333Y-91383390D02*
X146205714Y-91431009D01*
X146205714Y-91431009D02*
X146158095Y-91526247D01*
X146158095Y-91526247D02*
X146158095Y-91764342D01*
X146158095Y-91764342D02*
X146205714Y-91859580D01*
X146205714Y-91859580D02*
X146253333Y-91907200D01*
X146253333Y-91907200D02*
X146348571Y-91954819D01*
X146348571Y-91954819D02*
X146634285Y-91954819D01*
X146634285Y-91954819D02*
X146729523Y-91907200D01*
X146729523Y-91907200D02*
X146777142Y-91859580D01*
X158744642Y-90454819D02*
X158744642Y-91264342D01*
X158744642Y-91264342D02*
X158697023Y-91359580D01*
X158697023Y-91359580D02*
X158649404Y-91407200D01*
X158649404Y-91407200D02*
X158554166Y-91454819D01*
X158554166Y-91454819D02*
X158363690Y-91454819D01*
X158363690Y-91454819D02*
X158268452Y-91407200D01*
X158268452Y-91407200D02*
X158220833Y-91359580D01*
X158220833Y-91359580D02*
X158173214Y-91264342D01*
X158173214Y-91264342D02*
X158173214Y-90454819D01*
X157935119Y-91550057D02*
X157173214Y-91550057D01*
X156935118Y-91454819D02*
X156935118Y-90454819D01*
X156506547Y-91407200D02*
X156363690Y-91454819D01*
X156363690Y-91454819D02*
X156125595Y-91454819D01*
X156125595Y-91454819D02*
X156030357Y-91407200D01*
X156030357Y-91407200D02*
X155982738Y-91359580D01*
X155982738Y-91359580D02*
X155935119Y-91264342D01*
X155935119Y-91264342D02*
X155935119Y-91169104D01*
X155935119Y-91169104D02*
X155982738Y-91073866D01*
X155982738Y-91073866D02*
X156030357Y-91026247D01*
X156030357Y-91026247D02*
X156125595Y-90978628D01*
X156125595Y-90978628D02*
X156316071Y-90931009D01*
X156316071Y-90931009D02*
X156411309Y-90883390D01*
X156411309Y-90883390D02*
X156458928Y-90835771D01*
X156458928Y-90835771D02*
X156506547Y-90740533D01*
X156506547Y-90740533D02*
X156506547Y-90645295D01*
X156506547Y-90645295D02*
X156458928Y-90550057D01*
X156458928Y-90550057D02*
X156411309Y-90502438D01*
X156411309Y-90502438D02*
X156316071Y-90454819D01*
X156316071Y-90454819D02*
X156077976Y-90454819D01*
X156077976Y-90454819D02*
X155935119Y-90502438D01*
X155601785Y-90454819D02*
X154982738Y-90454819D01*
X154982738Y-90454819D02*
X155316071Y-90835771D01*
X155316071Y-90835771D02*
X155173214Y-90835771D01*
X155173214Y-90835771D02*
X155077976Y-90883390D01*
X155077976Y-90883390D02*
X155030357Y-90931009D01*
X155030357Y-90931009D02*
X154982738Y-91026247D01*
X154982738Y-91026247D02*
X154982738Y-91264342D01*
X154982738Y-91264342D02*
X155030357Y-91359580D01*
X155030357Y-91359580D02*
X155077976Y-91407200D01*
X155077976Y-91407200D02*
X155173214Y-91454819D01*
X155173214Y-91454819D02*
X155458928Y-91454819D01*
X155458928Y-91454819D02*
X155554166Y-91407200D01*
X155554166Y-91407200D02*
X155601785Y-91359580D01*
X148002857Y-83454819D02*
X148336190Y-82978628D01*
X148574285Y-83454819D02*
X148574285Y-82454819D01*
X148574285Y-82454819D02*
X148193333Y-82454819D01*
X148193333Y-82454819D02*
X148098095Y-82502438D01*
X148098095Y-82502438D02*
X148050476Y-82550057D01*
X148050476Y-82550057D02*
X148002857Y-82645295D01*
X148002857Y-82645295D02*
X148002857Y-82788152D01*
X148002857Y-82788152D02*
X148050476Y-82883390D01*
X148050476Y-82883390D02*
X148098095Y-82931009D01*
X148098095Y-82931009D02*
X148193333Y-82978628D01*
X148193333Y-82978628D02*
X148574285Y-82978628D01*
X147621904Y-83407200D02*
X147479047Y-83454819D01*
X147479047Y-83454819D02*
X147240952Y-83454819D01*
X147240952Y-83454819D02*
X147145714Y-83407200D01*
X147145714Y-83407200D02*
X147098095Y-83359580D01*
X147098095Y-83359580D02*
X147050476Y-83264342D01*
X147050476Y-83264342D02*
X147050476Y-83169104D01*
X147050476Y-83169104D02*
X147098095Y-83073866D01*
X147098095Y-83073866D02*
X147145714Y-83026247D01*
X147145714Y-83026247D02*
X147240952Y-82978628D01*
X147240952Y-82978628D02*
X147431428Y-82931009D01*
X147431428Y-82931009D02*
X147526666Y-82883390D01*
X147526666Y-82883390D02*
X147574285Y-82835771D01*
X147574285Y-82835771D02*
X147621904Y-82740533D01*
X147621904Y-82740533D02*
X147621904Y-82645295D01*
X147621904Y-82645295D02*
X147574285Y-82550057D01*
X147574285Y-82550057D02*
X147526666Y-82502438D01*
X147526666Y-82502438D02*
X147431428Y-82454819D01*
X147431428Y-82454819D02*
X147193333Y-82454819D01*
X147193333Y-82454819D02*
X147050476Y-82502438D01*
X146193333Y-82788152D02*
X146193333Y-83454819D01*
X146431428Y-82407200D02*
X146669523Y-83121485D01*
X146669523Y-83121485D02*
X146050476Y-83121485D01*
X150244642Y-70954819D02*
X150244642Y-71764342D01*
X150244642Y-71764342D02*
X150197023Y-71859580D01*
X150197023Y-71859580D02*
X150149404Y-71907200D01*
X150149404Y-71907200D02*
X150054166Y-71954819D01*
X150054166Y-71954819D02*
X149863690Y-71954819D01*
X149863690Y-71954819D02*
X149768452Y-71907200D01*
X149768452Y-71907200D02*
X149720833Y-71859580D01*
X149720833Y-71859580D02*
X149673214Y-71764342D01*
X149673214Y-71764342D02*
X149673214Y-70954819D01*
X149435119Y-72050057D02*
X148673214Y-72050057D01*
X148435118Y-71954819D02*
X148435118Y-70954819D01*
X148006547Y-71907200D02*
X147863690Y-71954819D01*
X147863690Y-71954819D02*
X147625595Y-71954819D01*
X147625595Y-71954819D02*
X147530357Y-71907200D01*
X147530357Y-71907200D02*
X147482738Y-71859580D01*
X147482738Y-71859580D02*
X147435119Y-71764342D01*
X147435119Y-71764342D02*
X147435119Y-71669104D01*
X147435119Y-71669104D02*
X147482738Y-71573866D01*
X147482738Y-71573866D02*
X147530357Y-71526247D01*
X147530357Y-71526247D02*
X147625595Y-71478628D01*
X147625595Y-71478628D02*
X147816071Y-71431009D01*
X147816071Y-71431009D02*
X147911309Y-71383390D01*
X147911309Y-71383390D02*
X147958928Y-71335771D01*
X147958928Y-71335771D02*
X148006547Y-71240533D01*
X148006547Y-71240533D02*
X148006547Y-71145295D01*
X148006547Y-71145295D02*
X147958928Y-71050057D01*
X147958928Y-71050057D02*
X147911309Y-71002438D01*
X147911309Y-71002438D02*
X147816071Y-70954819D01*
X147816071Y-70954819D02*
X147577976Y-70954819D01*
X147577976Y-70954819D02*
X147435119Y-71002438D01*
X146577976Y-71288152D02*
X146577976Y-71954819D01*
X146816071Y-70907200D02*
X147054166Y-71621485D01*
X147054166Y-71621485D02*
X146435119Y-71621485D01*
M02*
