%TF.GenerationSoftware,KiCad,Pcbnew,9.0.2+dfsg-1*%
%TF.CreationDate,2026-07-28T10:12:06-04:00*%
%TF.ProjectId,Kaylee,4b61796c-6565-42e6-9b69-6361645f7063,A*%
%TF.SameCoordinates,Original*%
%TF.FileFunction,Other,User*%
%FSLAX46Y46*%
G04 Gerber Fmt 4.6, Leading zero omitted, Abs format (unit mm)*
G04 Created by KiCad (PCBNEW 9.0.2+dfsg-1) date 2026-07-28 10:12:06*
%MOMM*%
%LPD*%
G01*
G04 APERTURE LIST*
%ADD10C,0.050000*%
G04 APERTURE END LIST*
D10*
%TO.C,C_H_ADM2*%
X106390000Y-98940000D02*
X108210000Y-98940000D01*
X106390000Y-99860000D02*
X106390000Y-98940000D01*
X108210000Y-98940000D02*
X108210000Y-99860000D01*
X108210000Y-99860000D02*
X106390000Y-99860000D01*
%TO.C,C_H_ADM1*%
X106390000Y-97540000D02*
X108210000Y-97540000D01*
X106390000Y-98460000D02*
X106390000Y-97540000D01*
X108210000Y-97540000D02*
X108210000Y-98460000D01*
X108210000Y-98460000D02*
X106390000Y-98460000D01*
%TO.C,R_H_CANTERM*%
X101570000Y-110330000D02*
X103430000Y-110330000D01*
X101570000Y-111270000D02*
X101570000Y-110330000D01*
X103430000Y-110330000D02*
X103430000Y-111270000D01*
X103430000Y-111270000D02*
X101570000Y-111270000D01*
%TO.C,C_H_OUT*%
X101590000Y-114540000D02*
X103410000Y-114540000D01*
X101590000Y-115460000D02*
X101590000Y-114540000D01*
X103410000Y-114540000D02*
X103410000Y-115460000D01*
X103410000Y-115460000D02*
X101590000Y-115460000D01*
%TO.C,J_CAN_IN_H*%
X225900000Y-61700000D02*
X225900000Y-68300000D01*
X225900000Y-68300000D02*
X234100000Y-68300000D01*
X234100000Y-61700000D02*
X225900000Y-61700000D01*
X234100000Y-68300000D02*
X234100000Y-61700000D01*
%TO.C,U_RS485*%
X209070000Y-58730000D02*
X211000000Y-58730000D01*
X209070000Y-71270000D02*
X209070000Y-58730000D01*
X211000000Y-58350000D02*
X219000000Y-58350000D01*
X211000000Y-58730000D02*
X211000000Y-58350000D01*
X211000000Y-71270000D02*
X209070000Y-71270000D01*
X211000000Y-71650000D02*
X211000000Y-71270000D01*
X219000000Y-58350000D02*
X219000000Y-58730000D01*
X219000000Y-58730000D02*
X220930000Y-58730000D01*
X219000000Y-71270000D02*
X219000000Y-71650000D01*
X219000000Y-71650000D02*
X211000000Y-71650000D01*
X220930000Y-58730000D02*
X220930000Y-71270000D01*
X220930000Y-71270000D02*
X219000000Y-71270000D01*
%TO.C,C_H_VCORE*%
X101590000Y-115940000D02*
X103410000Y-115940000D01*
X101590000Y-116860000D02*
X101590000Y-115940000D01*
X103410000Y-115940000D02*
X103410000Y-116860000D01*
X103410000Y-116860000D02*
X101590000Y-116860000D01*
%TO.C,J_CAN_OUT_H*%
X195900000Y-76700000D02*
X195900000Y-83300000D01*
X195900000Y-83300000D02*
X204100000Y-83300000D01*
X204100000Y-76700000D02*
X195900000Y-76700000D01*
X204100000Y-83300000D02*
X204100000Y-76700000D01*
%TO.C,U_BEC_SERVO_5V*%
X162900000Y-113900000D02*
X168100000Y-113900000D01*
X168100000Y-119100000D01*
X162900000Y-119100000D01*
X162900000Y-113900000D01*
%TO.C,SJ_H_485*%
X124850000Y-85350000D02*
X124850000Y-87850000D01*
X124850000Y-85350000D02*
X128150000Y-85350000D01*
X128150000Y-87850000D02*
X124850000Y-87850000D01*
X128150000Y-87850000D02*
X128150000Y-85350000D01*
%TO.C,J_RS485_IN_H*%
X210900000Y-76700000D02*
X210900000Y-83300000D01*
X210900000Y-83300000D02*
X219100000Y-83300000D01*
X219100000Y-76700000D02*
X210900000Y-76700000D01*
X219100000Y-83300000D02*
X219100000Y-76700000D01*
%TO.C,U_REG_3V3_H*%
X101650000Y-85700000D02*
X102650000Y-85700000D01*
X101650000Y-88700000D02*
X101650000Y-85700000D01*
X102650000Y-85500000D02*
X104750000Y-85500000D01*
X102650000Y-85700000D02*
X102650000Y-85500000D01*
X102650000Y-88700000D02*
X101650000Y-88700000D01*
X102650000Y-88900000D02*
X102650000Y-88700000D01*
X104750000Y-85500000D02*
X104750000Y-85700000D01*
X104750000Y-85700000D02*
X105750000Y-85700000D01*
X104750000Y-88700000D02*
X104750000Y-88900000D01*
X104750000Y-88900000D02*
X102650000Y-88900000D01*
X105750000Y-85700000D02*
X105750000Y-88700000D01*
X105750000Y-88700000D02*
X104750000Y-88700000D01*
%TO.C,J_SWD_H*%
X210270000Y-91700000D02*
X210270000Y-98300000D01*
X210270000Y-98300000D02*
X219730000Y-98300000D01*
X219730000Y-91700000D02*
X210270000Y-91700000D01*
X219730000Y-98300000D02*
X219730000Y-91700000D01*
%TO.C,R_H_FBT*%
X101570000Y-97530000D02*
X103430000Y-97530000D01*
X101570000Y-98470000D02*
X101570000Y-97530000D01*
X103430000Y-97530000D02*
X103430000Y-98470000D01*
X103430000Y-98470000D02*
X101570000Y-98470000D01*
%TO.C,U_MCU*%
X118170000Y-90470000D02*
X118550000Y-90470000D01*
X118170000Y-96730000D02*
X118170000Y-90470000D01*
X118550000Y-89850000D02*
X119170000Y-89850000D01*
X118550000Y-90470000D02*
X118550000Y-89850000D01*
X118550000Y-96730000D02*
X118170000Y-96730000D01*
X118550000Y-97350000D02*
X118550000Y-96730000D01*
X119170000Y-89470000D02*
X125430000Y-89470000D01*
X119170000Y-89850000D02*
X119170000Y-89470000D01*
X119170000Y-97350000D02*
X118550000Y-97350000D01*
X119170000Y-97730000D02*
X119170000Y-97350000D01*
X125430000Y-89470000D02*
X125430000Y-89850000D01*
X125430000Y-89850000D02*
X126050000Y-89850000D01*
X125430000Y-97350000D02*
X125430000Y-97730000D01*
X125430000Y-97730000D02*
X119170000Y-97730000D01*
X126050000Y-89850000D02*
X126050000Y-90470000D01*
X126050000Y-90470000D02*
X126430000Y-90470000D01*
X126050000Y-96730000D02*
X126050000Y-97350000D01*
X126050000Y-97350000D02*
X125430000Y-97350000D01*
X126430000Y-90470000D02*
X126430000Y-96730000D01*
X126430000Y-96730000D02*
X126050000Y-96730000D01*
%TO.C,U_ISOCAN*%
X194070000Y-58730000D02*
X196000000Y-58730000D01*
X194070000Y-71270000D02*
X194070000Y-58730000D01*
X196000000Y-58350000D02*
X204000000Y-58350000D01*
X196000000Y-58730000D02*
X196000000Y-58350000D01*
X196000000Y-71270000D02*
X194070000Y-71270000D01*
X196000000Y-71650000D02*
X196000000Y-71270000D01*
X204000000Y-58350000D02*
X204000000Y-58730000D01*
X204000000Y-58730000D02*
X205930000Y-58730000D01*
X204000000Y-71270000D02*
X204000000Y-71650000D01*
X204000000Y-71650000D02*
X196000000Y-71650000D01*
X205930000Y-58730000D02*
X205930000Y-71270000D01*
X205930000Y-71270000D02*
X204000000Y-71270000D01*
%TO.C,H1*%
X101080000Y-62000000D02*
X108080000Y-62000000D01*
X108080000Y-69000000D01*
X101080000Y-69000000D01*
X101080000Y-62000000D01*
%TO.C,H2*%
X183080000Y-62000000D02*
X190080000Y-62000000D01*
X190080000Y-69000000D01*
X183080000Y-69000000D01*
X183080000Y-62000000D01*
%TO.C,H3*%
X101080000Y-119000000D02*
X108080000Y-119000000D01*
X108080000Y-126000000D01*
X101080000Y-126000000D01*
X101080000Y-119000000D01*
%TO.C,H4*%
X183080000Y-119000000D02*
X190080000Y-119000000D01*
X190080000Y-126000000D01*
X183080000Y-126000000D01*
X183080000Y-119000000D01*
%TO.C,J_BATT*%
X110112500Y-62250000D02*
X127512500Y-62250000D01*
X127512500Y-84750000D01*
X110112500Y-84750000D01*
X110112500Y-62250000D01*
%TO.C,CM1*%
X128460000Y-61960000D02*
X139540000Y-61960000D01*
X139540000Y-73040000D01*
X128460000Y-73040000D01*
X128460000Y-61960000D01*
%TO.C,CM2*%
X139960000Y-61960000D02*
X151040000Y-61960000D01*
X151040000Y-73040000D01*
X139960000Y-73040000D01*
X139960000Y-61960000D01*
%TO.C,F1*%
X146850000Y-100000000D02*
X161150000Y-100000000D01*
X161150000Y-115000000D01*
X146850000Y-115000000D01*
X146850000Y-100000000D01*
%TO.C,C1*%
X131000000Y-74500000D02*
X145000000Y-74500000D01*
X145000000Y-87500000D01*
X131000000Y-87500000D01*
X131000000Y-74500000D01*
%TO.C,C2*%
X165500000Y-61500000D02*
X179500000Y-61500000D01*
X179500000Y-74500000D01*
X165500000Y-74500000D01*
X165500000Y-61500000D01*
%TO.C,D1*%
X156080000Y-94450000D02*
X148920000Y-94450000D01*
X148920000Y-90550000D01*
X156080000Y-90550000D01*
X156080000Y-94450000D01*
%TO.C,C_Y1*%
X128200000Y-88300000D02*
X135800000Y-88300000D01*
X135800000Y-93700000D01*
X128200000Y-93700000D01*
X128200000Y-88300000D01*
%TO.C,C_Y2*%
X136200000Y-88300000D02*
X143800000Y-88300000D01*
X143800000Y-93700000D01*
X136200000Y-93700000D01*
X136200000Y-88300000D01*
%TO.C,C_DM1*%
X144270000Y-87620000D02*
X148730000Y-87620000D01*
X148730000Y-91380000D01*
X144270000Y-91380000D01*
X144270000Y-87620000D01*
%TO.C,C3*%
X144120000Y-91400000D02*
X147880000Y-91400000D01*
X147880000Y-93600000D01*
X144120000Y-93600000D01*
X144120000Y-91400000D01*
%TO.C,J_PGND_BATT*%
X102080000Y-78000000D02*
X109080000Y-78000000D01*
X109080000Y-85000000D01*
X102080000Y-85000000D01*
X102080000Y-78000000D01*
%TO.C,J_CHASSIS*%
X102080000Y-90000000D02*
X109080000Y-90000000D01*
X109080000Y-97000000D01*
X102080000Y-97000000D01*
X102080000Y-90000000D01*
%TO.C,Q_BATT_DSG*%
X110620000Y-84870000D02*
X117380000Y-84870000D01*
X117380000Y-91130000D01*
X110620000Y-91130000D01*
X110620000Y-84870000D01*
%TO.C,R_DSG_G*%
X118510000Y-87270000D02*
X120470000Y-87270000D01*
X120470000Y-88730000D01*
X118510000Y-88730000D01*
X118510000Y-87270000D01*
%TO.C,R_CHGND*%
X118530000Y-85770000D02*
X120490000Y-85770000D01*
X120490000Y-87230000D01*
X118530000Y-87230000D01*
X118530000Y-85770000D01*
%TO.C,F_ESC1*%
X101880000Y-100300000D02*
X115180000Y-100300000D01*
X115180000Y-107100000D01*
X101880000Y-107100000D01*
X101880000Y-100300000D01*
%TO.C,J_ESC1*%
X104080000Y-106000000D02*
X118080000Y-106000000D01*
X118080000Y-127000000D01*
X104080000Y-127000000D01*
X104080000Y-106000000D01*
%TO.C,F_ESC2*%
X115880000Y-100300000D02*
X129180000Y-100300000D01*
X129180000Y-107100000D01*
X115880000Y-107100000D01*
X115880000Y-100300000D01*
%TO.C,J_ESC2*%
X118080000Y-106000000D02*
X132080000Y-106000000D01*
X132080000Y-127000000D01*
X118080000Y-127000000D01*
X118080000Y-106000000D01*
%TO.C,F_ESC3*%
X129880000Y-100300000D02*
X143180000Y-100300000D01*
X143180000Y-107100000D01*
X129880000Y-107100000D01*
X129880000Y-100300000D01*
%TO.C,J_ESC3*%
X132080000Y-106000000D02*
X146080000Y-106000000D01*
X146080000Y-127000000D01*
X132080000Y-127000000D01*
X132080000Y-106000000D01*
%TO.C,F_ESC4*%
X143880000Y-100300000D02*
X157180000Y-100300000D01*
X157180000Y-107100000D01*
X143880000Y-107100000D01*
X143880000Y-100300000D01*
%TO.C,J_ESC4*%
X146080000Y-106000000D02*
X160080000Y-106000000D01*
X160080000Y-127000000D01*
X146080000Y-127000000D01*
X146080000Y-106000000D01*
%TO.C,FB_5V1*%
X160120000Y-85400000D02*
X163880000Y-85400000D01*
X163880000Y-87600000D01*
X160120000Y-87600000D01*
X160120000Y-85400000D01*
%TO.C,C_BEC1_IN*%
X151500000Y-61500000D02*
X165500000Y-61500000D01*
X165500000Y-74500000D01*
X151500000Y-74500000D01*
X151500000Y-61500000D01*
%TO.C,L1*%
X159770000Y-75120000D02*
X164230000Y-75120000D01*
X164230000Y-78880000D01*
X159770000Y-78880000D01*
X159770000Y-75120000D01*
%TO.C,U_BEC_5V_1*%
X159400000Y-79900000D02*
X164600000Y-79900000D01*
X164600000Y-85100000D01*
X159400000Y-85100000D01*
X159400000Y-79900000D01*
%TO.C,R_FB1_1*%
X182520000Y-74270000D02*
X184480000Y-74270000D01*
X184480000Y-75730000D01*
X182520000Y-75730000D01*
X182520000Y-74270000D01*
%TO.C,R_FB1_2*%
X180010000Y-74270000D02*
X181970000Y-74270000D01*
X181970000Y-75730000D01*
X180010000Y-75730000D01*
X180010000Y-74270000D01*
%TO.C,C_BEC1_OUT*%
X145000000Y-74500000D02*
X159000000Y-74500000D01*
X159000000Y-87500000D01*
X145000000Y-87500000D01*
X145000000Y-74500000D01*
%TO.C,D_OR1*%
X158490000Y-87670000D02*
X170740000Y-87670000D01*
X170740000Y-95330000D01*
X158490000Y-95330000D01*
X158490000Y-87670000D01*
%TO.C,FB_5V2*%
X149120000Y-87900000D02*
X152880000Y-87900000D01*
X152880000Y-90100000D01*
X149120000Y-90100000D01*
X149120000Y-87900000D01*
%TO.C,C_BEC2_IN*%
X165080000Y-74500000D02*
X179080000Y-74500000D01*
X179080000Y-87500000D01*
X165080000Y-87500000D01*
X165080000Y-74500000D01*
%TO.C,L2*%
X180270000Y-70120000D02*
X184730000Y-70120000D01*
X184730000Y-73880000D01*
X180270000Y-73880000D01*
X180270000Y-70120000D01*
%TO.C,U_BEC_5V_2*%
X179362500Y-75900000D02*
X184562500Y-75900000D01*
X184562500Y-81100000D01*
X179362500Y-81100000D01*
X179362500Y-75900000D01*
%TO.C,R_FB2_1*%
X181770000Y-83970000D02*
X183230000Y-83970000D01*
X183230000Y-82010000D01*
X181770000Y-82010000D01*
X181770000Y-83970000D01*
%TO.C,R_FB2_2*%
X179770000Y-83970000D02*
X181230000Y-83970000D01*
X181230000Y-82010000D01*
X179770000Y-82010000D01*
X179770000Y-83970000D01*
%TO.C,C_BEC2_OUT*%
X162500000Y-100000000D02*
X176500000Y-100000000D01*
X176500000Y-113000000D01*
X162500000Y-113000000D01*
X162500000Y-100000000D01*
%TO.C,D_OR2*%
X170990000Y-87670000D02*
X183240000Y-87670000D01*
X183240000Y-95330000D01*
X170990000Y-95330000D01*
X170990000Y-87670000D01*
%TO.C,J_5V*%
X185250000Y-76200000D02*
X190750000Y-76200000D01*
X190750000Y-87300000D01*
X185250000Y-87300000D01*
X185250000Y-76200000D01*
%TO.C,FB_SERVO*%
X175170000Y-95900000D02*
X178930000Y-95900000D01*
X178930000Y-98100000D01*
X175170000Y-98100000D01*
X175170000Y-95900000D01*
%TO.C,C_BEC_SV_IN*%
X176500000Y-100000000D02*
X190500000Y-100000000D01*
X190500000Y-113000000D01*
X176500000Y-113000000D01*
X176500000Y-100000000D01*
%TO.C,L4*%
X179870000Y-95620000D02*
X184330000Y-95620000D01*
X184330000Y-99380000D01*
X179870000Y-99380000D01*
X179870000Y-95620000D01*
%TO.C,R_FBSV_1*%
X179600000Y-109770000D02*
X181560000Y-109770000D01*
X181560000Y-111230000D01*
X179600000Y-111230000D01*
X179600000Y-109770000D01*
%TO.C,R_FBSV_2*%
X184100000Y-109770000D02*
X186060000Y-109770000D01*
X186060000Y-111230000D01*
X184100000Y-111230000D01*
X184100000Y-109770000D01*
%TO.C,C_BEC_SV_OUT*%
X169000000Y-113500000D02*
X183000000Y-113500000D01*
X183000000Y-126500000D01*
X169000000Y-126500000D01*
X169000000Y-113500000D01*
%TO.C,J_SERVO_5V*%
X184850000Y-87450000D02*
X190350000Y-87450000D01*
X190350000Y-98550000D01*
X184850000Y-98550000D01*
X184850000Y-87450000D01*
%TO.C,D_I2C*%
X171350000Y-96100000D02*
X174750000Y-96100000D01*
X174750000Y-98600000D01*
X171350000Y-98600000D01*
X171350000Y-96100000D01*
%TO.C,R_ALERT*%
X161730000Y-117020000D02*
X160270000Y-117020000D01*
X160270000Y-118980000D01*
X161730000Y-118980000D01*
X161730000Y-117020000D01*
%TO.C,J_I2C*%
X160400000Y-121100000D02*
X168400000Y-121100000D01*
X168400000Y-126200000D01*
X160400000Y-126200000D01*
X160400000Y-121100000D01*
%TO.C,J_ALERT*%
X183925000Y-113250000D02*
X190325000Y-113250000D01*
X190325000Y-118350000D01*
X183925000Y-118350000D01*
X183925000Y-113250000D01*
%TO.C,SJ_H_CAN*%
X121050000Y-85350000D02*
X121050000Y-87850000D01*
X121050000Y-85350000D02*
X124350000Y-85350000D01*
X124350000Y-87850000D02*
X121050000Y-87850000D01*
X124350000Y-87850000D02*
X124350000Y-85350000D01*
%TO.C,L_H1*%
X106600000Y-85900000D02*
X106600000Y-88500000D01*
X106600000Y-88500000D02*
X109200000Y-88500000D01*
X109200000Y-85900000D02*
X106600000Y-85900000D01*
X109200000Y-88500000D02*
X109200000Y-85900000D01*
%TO.C,C_H_ISO1*%
X103990000Y-97540000D02*
X105810000Y-97540000D01*
X103990000Y-98460000D02*
X103990000Y-97540000D01*
X105810000Y-97540000D02*
X105810000Y-98460000D01*
X105810000Y-98460000D02*
X103990000Y-98460000D01*
%TO.C,C_H_ISO2*%
X103990000Y-98940000D02*
X105810000Y-98940000D01*
X103990000Y-99860000D02*
X103990000Y-98940000D01*
X105810000Y-98940000D02*
X105810000Y-99860000D01*
X105810000Y-99860000D02*
X103990000Y-99860000D01*
%TO.C,R_H_TPM_RST*%
X101570000Y-108930000D02*
X103430000Y-108930000D01*
X101570000Y-109870000D02*
X101570000Y-108930000D01*
X103430000Y-108930000D02*
X103430000Y-109870000D01*
X103430000Y-109870000D02*
X101570000Y-109870000D01*
%TO.C,J_RS485_OUT_H*%
X225900000Y-76700000D02*
X225900000Y-83300000D01*
X225900000Y-83300000D02*
X234100000Y-83300000D01*
X234100000Y-76700000D02*
X225900000Y-76700000D01*
X234100000Y-83300000D02*
X234100000Y-76700000D01*
%TO.C,C_H_IN*%
X101590000Y-113140000D02*
X103410000Y-113140000D01*
X101590000Y-114060000D02*
X101590000Y-113140000D01*
X103410000Y-113140000D02*
X103410000Y-114060000D01*
X103410000Y-114060000D02*
X101590000Y-114060000D01*
%TO.C,C_H_TPM1*%
X101590000Y-117340000D02*
X103410000Y-117340000D01*
X101590000Y-118260000D02*
X101590000Y-117340000D01*
X103410000Y-117340000D02*
X103410000Y-118260000D01*
X103410000Y-118260000D02*
X101590000Y-118260000D01*
%TO.C,R_H_485TERM*%
X101570000Y-111730000D02*
X103430000Y-111730000D01*
X101570000Y-112670000D02*
X101570000Y-111730000D01*
X103430000Y-111730000D02*
X103430000Y-112670000D01*
X103430000Y-112670000D02*
X101570000Y-112670000D01*
%TO.C,U_TPM*%
X101970000Y-70870000D02*
X102350000Y-70870000D01*
X101970000Y-75130000D02*
X101970000Y-70870000D01*
X102350000Y-70250000D02*
X102970000Y-70250000D01*
X102350000Y-70870000D02*
X102350000Y-70250000D01*
X102350000Y-75130000D02*
X101970000Y-75130000D01*
X102350000Y-75750000D02*
X102350000Y-75130000D01*
X102970000Y-69870000D02*
X107230000Y-69870000D01*
X102970000Y-70250000D02*
X102970000Y-69870000D01*
X102970000Y-75750000D02*
X102350000Y-75750000D01*
X102970000Y-76130000D02*
X102970000Y-75750000D01*
X107230000Y-69870000D02*
X107230000Y-70250000D01*
X107230000Y-70250000D02*
X107850000Y-70250000D01*
X107230000Y-75750000D02*
X107230000Y-76130000D01*
X107230000Y-76130000D02*
X102970000Y-76130000D01*
X107850000Y-70250000D02*
X107850000Y-70870000D01*
X107850000Y-70870000D02*
X108230000Y-70870000D01*
X107850000Y-75130000D02*
X107850000Y-75750000D01*
X107850000Y-75750000D02*
X107230000Y-75750000D01*
X108230000Y-70870000D02*
X108230000Y-75130000D01*
X108230000Y-75130000D02*
X107850000Y-75130000D01*
%TO.C,R_H_NRST*%
X101570000Y-107530000D02*
X103430000Y-107530000D01*
X101570000Y-108470000D02*
X101570000Y-107530000D01*
X103430000Y-107530000D02*
X103430000Y-108470000D01*
X103430000Y-108470000D02*
X101570000Y-108470000D01*
%TO.C,R_H_FBB*%
X101570000Y-98930000D02*
X103430000Y-98930000D01*
X101570000Y-99870000D02*
X101570000Y-98930000D01*
X103430000Y-98930000D02*
X103430000Y-99870000D01*
X103430000Y-99870000D02*
X101570000Y-99870000D01*
%TD*%
M02*
