%TF.GenerationSoftware,KiCad,Pcbnew,9.0.2+dfsg-1*%
%TF.CreationDate,2026-07-28T10:12:06-04:00*%
%TF.ProjectId,Kaylee,4b61796c-6565-42e6-9b69-6361645f7063,A*%
%TF.SameCoordinates,Original*%
%TF.FileFunction,Paste,Bot*%
%TF.FilePolarity,Positive*%
%FSLAX46Y46*%
G04 Gerber Fmt 4.6, Leading zero omitted, Abs format (unit mm)*
G04 Created by KiCad (PCBNEW 9.0.2+dfsg-1) date 2026-07-28 10:12:06*
%MOMM*%
%LPD*%
G01*
G04 APERTURE LIST*
G04 Aperture macros list*
%AMRoundRect*
0 Rectangle with rounded corners*
0 $1 Rounding radius*
0 $2 $3 $4 $5 $6 $7 $8 $9 X,Y pos of 4 corners*
0 Add a 4 corners polygon primitive as box body*
4,1,4,$2,$3,$4,$5,$6,$7,$8,$9,$2,$3,0*
0 Add four circle primitives for the rounded corners*
1,1,$1+$1,$2,$3*
1,1,$1+$1,$4,$5*
1,1,$1+$1,$6,$7*
1,1,$1+$1,$8,$9*
0 Add four rect primitives between the rounded corners*
20,1,$1+$1,$2,$3,$4,$5,0*
20,1,$1+$1,$4,$5,$6,$7,0*
20,1,$1+$1,$6,$7,$8,$9,0*
20,1,$1+$1,$8,$9,$2,$3,0*%
G04 Aperture macros list end*
%ADD10RoundRect,0.500000X0.500000X0.750000X-0.500000X0.750000X-0.500000X-0.750000X0.500000X-0.750000X0*%
%ADD11RoundRect,0.200000X0.200000X0.800000X-0.200000X0.800000X-0.200000X-0.800000X0.200000X-0.800000X0*%
%ADD12RoundRect,0.087500X0.725000X0.087500X-0.725000X0.087500X-0.725000X-0.087500X0.725000X-0.087500X0*%
G04 APERTURE END LIST*
D10*
%TO.C,RS_MAIN*%
X168900000Y-87000000D03*
D11*
X167000000Y-87000000D03*
X165720000Y-87000000D03*
D10*
X163820000Y-87000000D03*
%TD*%
D12*
%TO.C,U_IS_MAIN*%
X177000000Y-86500000D03*
X177000000Y-87000000D03*
X177000000Y-87500000D03*
X177000000Y-88000000D03*
X177000000Y-88500000D03*
X172775000Y-88500000D03*
X172775000Y-88000000D03*
X172775000Y-87500000D03*
X172775000Y-87000000D03*
X172775000Y-86500000D03*
%TD*%
D10*
%TO.C,RS1*%
X169180000Y-94000000D03*
D11*
X167280000Y-94000000D03*
X166000000Y-94000000D03*
D10*
X164100000Y-94000000D03*
%TD*%
D12*
%TO.C,U_IS1*%
X177000000Y-93000000D03*
X177000000Y-93500000D03*
X177000000Y-94000000D03*
X177000000Y-94500000D03*
X177000000Y-95000000D03*
X172775000Y-95000000D03*
X172775000Y-94500000D03*
X172775000Y-94000000D03*
X172775000Y-93500000D03*
X172775000Y-93000000D03*
%TD*%
D10*
%TO.C,RS2*%
X159400000Y-87000000D03*
D11*
X157500000Y-87000000D03*
X156220000Y-87000000D03*
D10*
X154320000Y-87000000D03*
%TD*%
D12*
%TO.C,U_IS2*%
X158612500Y-74000000D03*
X158612500Y-74500000D03*
X158612500Y-75000000D03*
X158612500Y-75500000D03*
X158612500Y-76000000D03*
X154387500Y-76000000D03*
X154387500Y-75500000D03*
X154387500Y-75000000D03*
X154387500Y-74500000D03*
X154387500Y-74000000D03*
%TD*%
D10*
%TO.C,RS3*%
X150500000Y-94500000D03*
D11*
X148600000Y-94500000D03*
X147320000Y-94500000D03*
D10*
X145420000Y-94500000D03*
%TD*%
D12*
%TO.C,U_IS3*%
X159000000Y-93500000D03*
X159000000Y-94000000D03*
X159000000Y-94500000D03*
X159000000Y-95000000D03*
X159000000Y-95500000D03*
X154775000Y-95500000D03*
X154775000Y-95000000D03*
X154775000Y-94500000D03*
X154775000Y-94000000D03*
X154775000Y-93500000D03*
%TD*%
D10*
%TO.C,RS4*%
X149900000Y-86500000D03*
D11*
X148000000Y-86500000D03*
X146720000Y-86500000D03*
D10*
X144820000Y-86500000D03*
%TD*%
D12*
%TO.C,U_IS4*%
X150500000Y-74000000D03*
X150500000Y-74500000D03*
X150500000Y-75000000D03*
X150500000Y-75500000D03*
X150500000Y-76000000D03*
X146275000Y-76000000D03*
X146275000Y-75500000D03*
X146275000Y-75000000D03*
X146275000Y-74500000D03*
X146275000Y-74000000D03*
%TD*%
M02*
