%TF.GenerationSoftware,KiCad,Pcbnew,9.0.2+dfsg-1*%
%TF.CreationDate,2026-07-28T10:12:06-04:00*%
%TF.ProjectId,Kaylee,4b61796c-6565-42e6-9b69-6361645f7063,A*%
%TF.SameCoordinates,Original*%
%TF.FileFunction,Copper,L4,Bot*%
%TF.FilePolarity,Positive*%
%FSLAX46Y46*%
G04 Gerber Fmt 4.6, Leading zero omitted, Abs format (unit mm)*
G04 Created by KiCad (PCBNEW 9.0.2+dfsg-1) date 2026-07-28 10:12:06*
%MOMM*%
%LPD*%
G01*
G04 APERTURE LIST*
G04 Aperture macros list*
%AMRoundRect*
0 Rectangle with rounded corners*
0 $1 Rounding radius*
0 $2 $3 $4 $5 $6 $7 $8 $9 X,Y pos of 4 corners*
0 Add a 4 corners polygon primitive as box body*
4,1,4,$2,$3,$4,$5,$6,$7,$8,$9,$2,$3,0*
0 Add four circle primitives for the rounded corners*
1,1,$1+$1,$2,$3*
1,1,$1+$1,$4,$5*
1,1,$1+$1,$6,$7*
1,1,$1+$1,$8,$9*
0 Add four rect primitives between the rounded corners*
20,1,$1+$1,$2,$3,$4,$5,0*
20,1,$1+$1,$4,$5,$6,$7,0*
20,1,$1+$1,$6,$7,$8,$9,0*
20,1,$1+$1,$8,$9,$2,$3,0*%
G04 Aperture macros list end*
%TA.AperFunction,ComponentPad*%
%ADD10RoundRect,1.000000X-1.000000X-1.000000X1.000000X-1.000000X1.000000X1.000000X-1.000000X1.000000X0*%
%TD*%
%TA.AperFunction,ComponentPad*%
%ADD11C,4.000000*%
%TD*%
%TA.AperFunction,ComponentPad*%
%ADD12RoundRect,0.475000X-0.475000X-0.475000X0.475000X-0.475000X0.475000X0.475000X-0.475000X0.475000X0*%
%TD*%
%TA.AperFunction,ComponentPad*%
%ADD13C,1.900000*%
%TD*%
%TA.AperFunction,ComponentPad*%
%ADD14RoundRect,0.750000X-0.750000X-0.750000X0.750000X-0.750000X0.750000X0.750000X-0.750000X0.750000X0*%
%TD*%
%TA.AperFunction,ComponentPad*%
%ADD15C,3.000000*%
%TD*%
%TA.AperFunction,ComponentPad*%
%ADD16RoundRect,0.500000X-0.500000X-0.500000X0.500000X-0.500000X0.500000X0.500000X-0.500000X0.500000X0*%
%TD*%
%TA.AperFunction,ComponentPad*%
%ADD17C,2.000000*%
%TD*%
%TA.AperFunction,ComponentPad*%
%ADD18RoundRect,0.450000X-0.450000X-0.450000X0.450000X-0.450000X0.450000X0.450000X-0.450000X0.450000X0*%
%TD*%
%TA.AperFunction,ComponentPad*%
%ADD19C,1.800000*%
%TD*%
%TA.AperFunction,ComponentPad*%
%ADD20C,6.000000*%
%TD*%
%TA.AperFunction,ComponentPad*%
%ADD21RoundRect,0.695000X-0.695000X-0.695000X0.695000X-0.695000X0.695000X0.695000X-0.695000X0.695000X0*%
%TD*%
%TA.AperFunction,ComponentPad*%
%ADD22C,2.780000*%
%TD*%
%TA.AperFunction,ComponentPad*%
%ADD23RoundRect,0.875000X-0.875000X-0.875000X0.875000X-0.875000X0.875000X0.875000X-0.875000X0.875000X0*%
%TD*%
%TA.AperFunction,ComponentPad*%
%ADD24C,3.500000*%
%TD*%
%TA.AperFunction,ComponentPad*%
%ADD25RoundRect,0.425000X-0.675000X-0.425000X0.675000X-0.425000X0.675000X0.425000X-0.675000X0.425000X0*%
%TD*%
%TA.AperFunction,ComponentPad*%
%ADD26O,2.200000X1.700000*%
%TD*%
%TA.AperFunction,SMDPad,CuDef*%
%ADD27RoundRect,0.500000X0.500000X0.750000X-0.500000X0.750000X-0.500000X-0.750000X0.500000X-0.750000X0*%
%TD*%
%TA.AperFunction,SMDPad,CuDef*%
%ADD28RoundRect,0.200000X0.200000X0.800000X-0.200000X0.800000X-0.200000X-0.800000X0.200000X-0.800000X0*%
%TD*%
%TA.AperFunction,SMDPad,CuDef*%
%ADD29RoundRect,0.087500X0.725000X0.087500X-0.725000X0.087500X-0.725000X-0.087500X0.725000X-0.087500X0*%
%TD*%
G04 APERTURE END LIST*
D10*
%TO.P,J_BATT,1*%
%TO.N,VBAT_IN_P*%
X121712500Y-79750000D03*
D11*
%TO.P,J_BATT,2*%
%TO.N,VBAT_IN_N*%
X128912500Y-79750000D03*
%TD*%
D12*
%TO.P,CM1,1*%
%TO.N,VBAT_IN_P*%
X136540000Y-64960000D03*
D13*
%TO.P,CM1,2*%
%TO.N,VBAT_IN_N*%
X136540000Y-70040000D03*
%TO.P,CM1,3*%
%TO.N,CM1_OUT_P*%
X131460000Y-64960000D03*
%TO.P,CM1,4*%
%TO.N,CM1_OUT_N*%
X131460000Y-70040000D03*
%TD*%
D12*
%TO.P,CM2,1*%
%TO.N,CM1_OUT_P*%
X148040000Y-64960000D03*
D13*
%TO.P,CM2,2*%
%TO.N,CM1_OUT_N*%
X148040000Y-70040000D03*
%TO.P,CM2,3*%
%TO.N,CM2_OUT_P*%
X142960000Y-64960000D03*
%TO.P,CM2,4*%
%TO.N,CM2_OUT_N*%
X142960000Y-70040000D03*
%TD*%
D14*
%TO.P,F1,1*%
%TO.N,CM2_OUT_P*%
X149050000Y-107500000D03*
D15*
%TO.P,F1,2*%
%TO.N,VBAT*%
X158950000Y-107500000D03*
%TD*%
D16*
%TO.P,C1,1*%
%TO.N,VBAT*%
X135500000Y-81000000D03*
D17*
%TO.P,C1,2*%
%TO.N,CM2_OUT_N*%
X140500000Y-81000000D03*
%TD*%
D16*
%TO.P,C2,1*%
%TO.N,VBAT*%
X170000000Y-68000000D03*
D17*
%TO.P,C2,2*%
%TO.N,CM2_OUT_N*%
X175000000Y-68000000D03*
%TD*%
D18*
%TO.P,C_Y1,1*%
%TO.N,VBAT*%
X129500000Y-91000000D03*
D19*
%TO.P,C_Y1,2*%
%TO.N,CHASSIS*%
X134500000Y-91000000D03*
%TD*%
D18*
%TO.P,C_Y2,1*%
%TO.N,CM2_OUT_N*%
X137500000Y-91000000D03*
D19*
%TO.P,C_Y2,2*%
%TO.N,CHASSIS*%
X142500000Y-91000000D03*
%TD*%
D20*
%TO.P,J_PGND_BATT,*%
%TO.N,CHASSIS*%
X105580000Y-81500000D03*
%TD*%
%TO.P,J_CHASSIS,*%
%TO.N,CHASSIS*%
X105580000Y-93500000D03*
%TD*%
D21*
%TO.P,F_ESC1,1*%
%TO.N,VDIS*%
X103580000Y-102000000D03*
D22*
X103580000Y-105400000D03*
%TO.P,F_ESC1,2*%
%TO.N,ESC1_FUSED*%
X113500000Y-102000000D03*
X113500000Y-105400000D03*
%TD*%
D23*
%TO.P,J_ESC1,1*%
%TO.N,ESC1_RS_OUT*%
X108580000Y-122500000D03*
D24*
%TO.P,J_ESC1,2*%
%TO.N,CM2_OUT_N*%
X113580000Y-122500000D03*
%TD*%
D21*
%TO.P,F_ESC2,1*%
%TO.N,VDIS*%
X117580000Y-102000000D03*
D22*
X117580000Y-105400000D03*
%TO.P,F_ESC2,2*%
%TO.N,ESC2_FUSED*%
X127500000Y-102000000D03*
X127500000Y-105400000D03*
%TD*%
D23*
%TO.P,J_ESC2,1*%
%TO.N,ESC2_RS_OUT*%
X122580000Y-122500000D03*
D24*
%TO.P,J_ESC2,2*%
%TO.N,CM2_OUT_N*%
X127580000Y-122500000D03*
%TD*%
D21*
%TO.P,F_ESC3,1*%
%TO.N,VDIS*%
X131580000Y-102000000D03*
D22*
X131580000Y-105400000D03*
%TO.P,F_ESC3,2*%
%TO.N,ESC3_FUSED*%
X141500000Y-102000000D03*
X141500000Y-105400000D03*
%TD*%
D23*
%TO.P,J_ESC3,1*%
%TO.N,ESC3_RS_OUT*%
X136580000Y-122500000D03*
D24*
%TO.P,J_ESC3,2*%
%TO.N,CM2_OUT_N*%
X141580000Y-122500000D03*
%TD*%
D21*
%TO.P,F_ESC4,1*%
%TO.N,VDIS*%
X145580000Y-102000000D03*
D22*
X145580000Y-105400000D03*
%TO.P,F_ESC4,2*%
%TO.N,ESC4_FUSED*%
X155500000Y-102000000D03*
X155500000Y-105400000D03*
%TD*%
D23*
%TO.P,J_ESC4,1*%
%TO.N,ESC4_RS_OUT*%
X150580000Y-122500000D03*
D24*
%TO.P,J_ESC4,2*%
%TO.N,CM2_OUT_N*%
X155580000Y-122500000D03*
%TD*%
D16*
%TO.P,C_BEC1_IN,1*%
%TO.N,FB5V1_OUT*%
X156000000Y-68000000D03*
D17*
%TO.P,C_BEC1_IN,2*%
%TO.N,CM2_OUT_N*%
X161000000Y-68000000D03*
%TD*%
D16*
%TO.P,C_BEC1_OUT,1*%
%TO.N,BEC5V1_RAW*%
X149500000Y-81000000D03*
D17*
%TO.P,C_BEC1_OUT,2*%
%TO.N,CM2_OUT_N*%
X154500000Y-81000000D03*
%TD*%
D16*
%TO.P,C_BEC2_IN,1*%
%TO.N,FB5V2_OUT*%
X169580000Y-81000000D03*
D17*
%TO.P,C_BEC2_IN,2*%
%TO.N,CM2_OUT_N*%
X174580000Y-81000000D03*
%TD*%
D16*
%TO.P,C_BEC2_OUT,1*%
%TO.N,BEC5V2_RAW*%
X167000000Y-106500000D03*
D17*
%TO.P,C_BEC2_OUT,2*%
%TO.N,CM2_OUT_N*%
X172000000Y-106500000D03*
%TD*%
D25*
%TO.P,J_5V,1*%
%TO.N,5V_AVIONICS*%
X188000000Y-77500000D03*
D26*
%TO.P,J_5V,2*%
X188000000Y-80000000D03*
%TO.P,J_5V,3*%
%TO.N,CM2_OUT_N*%
X188000000Y-82500000D03*
%TO.P,J_5V,4*%
X188000000Y-85000000D03*
%TD*%
D16*
%TO.P,C_BEC_SV_IN,1*%
%TO.N,FBSV_OUT*%
X181000000Y-106500000D03*
D17*
%TO.P,C_BEC_SV_IN,2*%
%TO.N,CM2_OUT_N*%
X186000000Y-106500000D03*
%TD*%
D16*
%TO.P,C_BEC_SV_OUT,1*%
%TO.N,5V_SERVO*%
X173500000Y-120000000D03*
D17*
%TO.P,C_BEC_SV_OUT,2*%
%TO.N,CM2_OUT_N*%
X178500000Y-120000000D03*
%TD*%
D25*
%TO.P,J_SERVO_5V,1*%
%TO.N,CM2_OUT_N*%
X187600000Y-88750000D03*
D26*
%TO.P,J_SERVO_5V,2*%
X187600000Y-91250000D03*
%TO.P,J_SERVO_5V,3*%
%TO.N,5V_SERVO*%
X187600000Y-93750000D03*
%TO.P,J_SERVO_5V,4*%
X187600000Y-96250000D03*
%TD*%
D27*
%TO.P,RS_MAIN,1*%
%TO.N,VBAT*%
X168900000Y-87000000D03*
D28*
%TO.P,RS_MAIN,2*%
%TO.N,RS_MAIN_SP*%
X167000000Y-87000000D03*
%TO.P,RS_MAIN,3*%
%TO.N,RS_MAIN_SN*%
X165720000Y-87000000D03*
D27*
%TO.P,RS_MAIN,4*%
%TO.N,VDIS*%
X163820000Y-87000000D03*
%TD*%
D29*
%TO.P,U_IS_MAIN,1*%
%TO.N,RS_MAIN_SP*%
X177000000Y-86500000D03*
%TO.P,U_IS_MAIN,2*%
%TO.N,RS_MAIN_SN*%
X177000000Y-87000000D03*
%TO.P,U_IS_MAIN,3*%
%TO.N,CM2_OUT_N*%
X177000000Y-87500000D03*
%TO.P,U_IS_MAIN,4*%
%TO.N,+5V*%
X177000000Y-88000000D03*
%TO.P,U_IS_MAIN,5*%
%TO.N,PDB_SDA*%
X177000000Y-88500000D03*
%TO.P,U_IS_MAIN,6*%
%TO.N,PDB_SCL*%
X172775000Y-88500000D03*
%TO.P,U_IS_MAIN,7*%
%TO.N,PDB_ALERT_N*%
X172775000Y-88000000D03*
%TO.P,U_IS_MAIN,8*%
%TO.N,+5V*%
X172775000Y-87500000D03*
%TO.P,U_IS_MAIN,9*%
%TO.N,CM2_OUT_N*%
X172775000Y-87000000D03*
%TO.P,U_IS_MAIN,10*%
%TO.N,VDIS_SENSE*%
X172775000Y-86500000D03*
%TD*%
D27*
%TO.P,RS1,1*%
%TO.N,ESC1_CM_OUT*%
X169180000Y-94000000D03*
D28*
%TO.P,RS1,2*%
%TO.N,ESC1_RS_SP*%
X167280000Y-94000000D03*
%TO.P,RS1,3*%
%TO.N,ESC1_RS_SN*%
X166000000Y-94000000D03*
D27*
%TO.P,RS1,4*%
%TO.N,ESC1_RS_OUT*%
X164100000Y-94000000D03*
%TD*%
D29*
%TO.P,U_IS1,1*%
%TO.N,ESC1_RS_SP*%
X177000000Y-93000000D03*
%TO.P,U_IS1,2*%
%TO.N,ESC1_RS_SN*%
X177000000Y-93500000D03*
%TO.P,U_IS1,3*%
%TO.N,CM2_OUT_N*%
X177000000Y-94000000D03*
%TO.P,U_IS1,4*%
%TO.N,+5V*%
X177000000Y-94500000D03*
%TO.P,U_IS1,5*%
%TO.N,PDB_SDA*%
X177000000Y-95000000D03*
%TO.P,U_IS1,6*%
%TO.N,PDB_SCL*%
X172775000Y-95000000D03*
%TO.P,U_IS1,7*%
%TO.N,PDB_ALERT_N*%
X172775000Y-94500000D03*
%TO.P,U_IS1,8*%
%TO.N,CM2_OUT_N*%
X172775000Y-94000000D03*
%TO.P,U_IS1,9*%
X172775000Y-93500000D03*
%TO.P,U_IS1,10*%
%TO.N,ESC1_RS_OUT*%
X172775000Y-93000000D03*
%TD*%
D27*
%TO.P,RS2,1*%
%TO.N,ESC2_CM_OUT*%
X159400000Y-87000000D03*
D28*
%TO.P,RS2,2*%
%TO.N,ESC2_RS_SP*%
X157500000Y-87000000D03*
%TO.P,RS2,3*%
%TO.N,ESC2_RS_SN*%
X156220000Y-87000000D03*
D27*
%TO.P,RS2,4*%
%TO.N,ESC2_RS_OUT*%
X154320000Y-87000000D03*
%TD*%
D29*
%TO.P,U_IS2,1*%
%TO.N,ESC2_RS_SP*%
X158612500Y-74000000D03*
%TO.P,U_IS2,2*%
%TO.N,ESC2_RS_SN*%
X158612500Y-74500000D03*
%TO.P,U_IS2,3*%
%TO.N,CM2_OUT_N*%
X158612500Y-75000000D03*
%TO.P,U_IS2,4*%
%TO.N,+5V*%
X158612500Y-75500000D03*
%TO.P,U_IS2,5*%
%TO.N,PDB_SDA*%
X158612500Y-76000000D03*
%TO.P,U_IS2,6*%
%TO.N,PDB_SCL*%
X154387500Y-76000000D03*
%TO.P,U_IS2,7*%
%TO.N,PDB_ALERT_N*%
X154387500Y-75500000D03*
%TO.P,U_IS2,8*%
%TO.N,CM2_OUT_N*%
X154387500Y-75000000D03*
%TO.P,U_IS2,9*%
%TO.N,+5V*%
X154387500Y-74500000D03*
%TO.P,U_IS2,10*%
%TO.N,ESC2_RS_OUT*%
X154387500Y-74000000D03*
%TD*%
D27*
%TO.P,RS3,1*%
%TO.N,ESC3_CM_OUT*%
X150500000Y-94500000D03*
D28*
%TO.P,RS3,2*%
%TO.N,ESC3_RS_SP*%
X148600000Y-94500000D03*
%TO.P,RS3,3*%
%TO.N,ESC3_RS_SN*%
X147320000Y-94500000D03*
D27*
%TO.P,RS3,4*%
%TO.N,ESC3_RS_OUT*%
X145420000Y-94500000D03*
%TD*%
D29*
%TO.P,U_IS3,1*%
%TO.N,ESC3_RS_SP*%
X159000000Y-93500000D03*
%TO.P,U_IS3,2*%
%TO.N,ESC3_RS_SN*%
X159000000Y-94000000D03*
%TO.P,U_IS3,3*%
%TO.N,CM2_OUT_N*%
X159000000Y-94500000D03*
%TO.P,U_IS3,4*%
%TO.N,+5V*%
X159000000Y-95000000D03*
%TO.P,U_IS3,5*%
%TO.N,PDB_SDA*%
X159000000Y-95500000D03*
%TO.P,U_IS3,6*%
%TO.N,PDB_SCL*%
X154775000Y-95500000D03*
%TO.P,U_IS3,7*%
%TO.N,PDB_ALERT_N*%
X154775000Y-95000000D03*
%TO.P,U_IS3,8*%
%TO.N,CM2_OUT_N*%
X154775000Y-94500000D03*
%TO.P,U_IS3,9*%
%TO.N,PDB_SDA*%
X154775000Y-94000000D03*
%TO.P,U_IS3,10*%
%TO.N,ESC3_RS_OUT*%
X154775000Y-93500000D03*
%TD*%
D27*
%TO.P,RS4,1*%
%TO.N,ESC4_CM_OUT*%
X149900000Y-86500000D03*
D28*
%TO.P,RS4,2*%
%TO.N,ESC4_RS_SP*%
X148000000Y-86500000D03*
%TO.P,RS4,3*%
%TO.N,ESC4_RS_SN*%
X146720000Y-86500000D03*
D27*
%TO.P,RS4,4*%
%TO.N,ESC4_RS_OUT*%
X144820000Y-86500000D03*
%TD*%
D29*
%TO.P,U_IS4,1*%
%TO.N,ESC4_RS_SP*%
X150500000Y-74000000D03*
%TO.P,U_IS4,2*%
%TO.N,ESC4_RS_SN*%
X150500000Y-74500000D03*
%TO.P,U_IS4,3*%
%TO.N,CM2_OUT_N*%
X150500000Y-75000000D03*
%TO.P,U_IS4,4*%
%TO.N,+5V*%
X150500000Y-75500000D03*
%TO.P,U_IS4,5*%
%TO.N,PDB_SDA*%
X150500000Y-76000000D03*
%TO.P,U_IS4,6*%
%TO.N,PDB_SCL*%
X146275000Y-76000000D03*
%TO.P,U_IS4,7*%
%TO.N,PDB_ALERT_N*%
X146275000Y-75500000D03*
%TO.P,U_IS4,8*%
%TO.N,CM2_OUT_N*%
X146275000Y-75000000D03*
%TO.P,U_IS4,9*%
%TO.N,PDB_SCL*%
X146275000Y-74500000D03*
%TO.P,U_IS4,10*%
%TO.N,ESC4_RS_OUT*%
X146275000Y-74000000D03*
%TD*%
M02*
