%TF.GenerationSoftware,KiCad,Pcbnew,9.0.2+dfsg-1*%
%TF.CreationDate,2026-07-29T09:35:34-04:00*%
%TF.ProjectId,Kaylee,4b61796c-6565-42e6-9b69-6361645f7063,A*%
%TF.SameCoordinates,Original*%
%TF.FileFunction,Other,User*%
%FSLAX46Y46*%
G04 Gerber Fmt 4.6, Leading zero omitted, Abs format (unit mm)*
G04 Created by KiCad (PCBNEW 9.0.2+dfsg-1) date 2026-07-29 09:35:34*
%MOMM*%
%LPD*%
G01*
G04 APERTURE LIST*
%ADD10C,0.050000*%
G04 APERTURE END LIST*
D10*
%TO.C,C_N_BOOT*%
X139070000Y-99040000D02*
X139070000Y-99960000D01*
X139070000Y-99960000D02*
X140890000Y-99960000D01*
X140890000Y-99040000D02*
X139070000Y-99040000D01*
X140890000Y-99960000D02*
X140890000Y-99040000D01*
%TO.C,C_FFSV*%
X171570000Y-75540000D02*
X171570000Y-76460000D01*
X171570000Y-76460000D02*
X173390000Y-76460000D01*
X173390000Y-75540000D02*
X171570000Y-75540000D01*
X173390000Y-76460000D02*
X173390000Y-75540000D01*
%TO.C,C_BIAS2*%
X173570000Y-73540000D02*
X173570000Y-74460000D01*
X173570000Y-74460000D02*
X175390000Y-74460000D01*
X175390000Y-73540000D02*
X173570000Y-73540000D01*
X175390000Y-74460000D02*
X175390000Y-73540000D01*
%TO.C,J_NACELLE_12V*%
X186325000Y-82400000D02*
X186325000Y-85500000D01*
X186325000Y-88600000D02*
X186325000Y-85500000D01*
X189175000Y-79530000D02*
X189175000Y-82400000D01*
X189175000Y-82400000D02*
X186325000Y-82400000D01*
X189175000Y-88600000D02*
X186325000Y-88600000D01*
X189175000Y-91470000D02*
X189175000Y-88600000D01*
X193675000Y-79530000D02*
X189175000Y-79530000D01*
X193675000Y-85500000D02*
X193675000Y-79530000D01*
X193675000Y-85500000D02*
X193675000Y-91470000D01*
X193675000Y-91470000D02*
X189175000Y-91470000D01*
%TO.C,C_BOOT1*%
X175570000Y-71540000D02*
X175570000Y-72460000D01*
X175570000Y-72460000D02*
X177390000Y-72460000D01*
X177390000Y-71540000D02*
X175570000Y-71540000D01*
X177390000Y-72460000D02*
X177390000Y-71540000D01*
%TO.C,J_CAN_IN_H*%
X125625000Y-108800000D02*
X133825000Y-108800000D01*
X125625000Y-115400000D02*
X125625000Y-108800000D01*
X133825000Y-108800000D02*
X133825000Y-115400000D01*
X133825000Y-115400000D02*
X125625000Y-115400000D01*
%TO.C,J_RCS_6V*%
X180825000Y-91900000D02*
X180825000Y-95000000D01*
X180825000Y-98100000D02*
X180825000Y-95000000D01*
X183675000Y-89030000D02*
X183675000Y-91900000D01*
X183675000Y-91900000D02*
X180825000Y-91900000D01*
X183675000Y-98100000D02*
X180825000Y-98100000D01*
X183675000Y-100970000D02*
X183675000Y-98100000D01*
X188175000Y-89030000D02*
X183675000Y-89030000D01*
X188175000Y-95000000D02*
X188175000Y-89030000D01*
X188175000Y-95000000D02*
X188175000Y-100970000D01*
X188175000Y-100970000D02*
X183675000Y-100970000D01*
%TO.C,U_RS485*%
X175025000Y-109350000D02*
X175025000Y-117350000D01*
X175025000Y-117350000D02*
X175405000Y-117350000D01*
X175405000Y-107420000D02*
X175405000Y-109350000D01*
X175405000Y-109350000D02*
X175025000Y-109350000D01*
X175405000Y-117350000D02*
X175405000Y-119280000D01*
X175405000Y-119280000D02*
X187945000Y-119280000D01*
X187945000Y-107420000D02*
X175405000Y-107420000D01*
X187945000Y-109350000D02*
X187945000Y-107420000D01*
X187945000Y-117350000D02*
X188325000Y-117350000D01*
X187945000Y-119280000D02*
X187945000Y-117350000D01*
X188325000Y-109350000D02*
X187945000Y-109350000D01*
X188325000Y-117350000D02*
X188325000Y-109350000D01*
%TO.C,C_BOOT_SV*%
X171570000Y-71540000D02*
X171570000Y-72460000D01*
X171570000Y-72460000D02*
X173390000Y-72460000D01*
X173390000Y-71540000D02*
X171570000Y-71540000D01*
X173390000Y-72460000D02*
X173390000Y-71540000D01*
%TO.C,C_FF2*%
X173570000Y-75540000D02*
X173570000Y-76460000D01*
X173570000Y-76460000D02*
X175390000Y-76460000D01*
X175390000Y-75540000D02*
X173570000Y-75540000D01*
X175390000Y-76460000D02*
X175390000Y-75540000D01*
%TO.C,J_CAN_OUT_H*%
X135625000Y-108800000D02*
X143825000Y-108800000D01*
X135625000Y-115400000D02*
X135625000Y-108800000D01*
X143825000Y-108800000D02*
X143825000Y-115400000D01*
X143825000Y-115400000D02*
X135625000Y-115400000D01*
%TO.C,L_RCS*%
X161620000Y-70920000D02*
X161620000Y-74080000D01*
X161620000Y-74080000D02*
X166180000Y-74080000D01*
X166180000Y-70920000D02*
X161620000Y-70920000D01*
X166180000Y-74080000D02*
X166180000Y-70920000D01*
%TO.C,R_FB_N1*%
X139050000Y-93030000D02*
X139050000Y-93970000D01*
X139050000Y-93970000D02*
X140910000Y-93970000D01*
X140910000Y-93030000D02*
X139050000Y-93030000D01*
X140910000Y-93970000D02*
X140910000Y-93030000D01*
%TO.C,SJ_H_485*%
X124850000Y-87850000D02*
X124850000Y-85350000D01*
X124850000Y-87850000D02*
X128150000Y-87850000D01*
X128150000Y-85350000D02*
X124850000Y-85350000D01*
X128150000Y-85350000D02*
X128150000Y-87850000D01*
%TO.C,C_N_VCC*%
X135070000Y-99040000D02*
X135070000Y-99960000D01*
X135070000Y-99960000D02*
X136890000Y-99960000D01*
X136890000Y-99040000D02*
X135070000Y-99040000D01*
X136890000Y-99960000D02*
X136890000Y-99040000D01*
%TO.C,J_RS485_IN_H*%
X114725000Y-108700000D02*
X122925000Y-108700000D01*
X114725000Y-115300000D02*
X114725000Y-108700000D01*
X122925000Y-108700000D02*
X122925000Y-115300000D01*
X122925000Y-115300000D02*
X114725000Y-115300000D01*
%TO.C,U_BEC_5V_2*%
X183713000Y-76625000D02*
X180213000Y-76625000D01*
X180213000Y-80375000D01*
X183713000Y-80375000D01*
X183713000Y-76625000D01*
%TO.C,J_SWD_H*%
X147270000Y-109200000D02*
X156730000Y-109200000D01*
X147270000Y-115800000D02*
X147270000Y-109200000D01*
X156730000Y-109200000D02*
X156730000Y-115800000D01*
X156730000Y-115800000D02*
X147270000Y-115800000D01*
%TO.C,C_FF1*%
X175570000Y-75540000D02*
X175570000Y-76460000D01*
X175570000Y-76460000D02*
X177390000Y-76460000D01*
X177390000Y-75540000D02*
X175570000Y-75540000D01*
X177390000Y-76460000D02*
X177390000Y-75540000D01*
%TO.C,R_FBRCS_2*%
X133550000Y-72030000D02*
X133550000Y-72970000D01*
X133550000Y-72970000D02*
X135410000Y-72970000D01*
X135410000Y-72030000D02*
X133550000Y-72030000D01*
X135410000Y-72970000D02*
X135410000Y-72030000D01*
%TO.C,U_BEC_RCS_6V*%
X183387500Y-83750000D02*
X179887500Y-83750000D01*
X179887500Y-87500000D01*
X183387500Y-87500000D01*
X183387500Y-83750000D01*
%TO.C,U_MCU*%
X170015000Y-98120000D02*
X170015000Y-104380000D01*
X170015000Y-104380000D02*
X170395000Y-104380000D01*
X170395000Y-97500000D02*
X170395000Y-98120000D01*
X170395000Y-98120000D02*
X170015000Y-98120000D01*
X170395000Y-104380000D02*
X170395000Y-105000000D01*
X170395000Y-105000000D02*
X171015000Y-105000000D01*
X171015000Y-97120000D02*
X171015000Y-97500000D01*
X171015000Y-97500000D02*
X170395000Y-97500000D01*
X171015000Y-105000000D02*
X171015000Y-105380000D01*
X171015000Y-105380000D02*
X177275000Y-105380000D01*
X177275000Y-97120000D02*
X171015000Y-97120000D01*
X177275000Y-97500000D02*
X177275000Y-97120000D01*
X177275000Y-105000000D02*
X177895000Y-105000000D01*
X177275000Y-105380000D02*
X177275000Y-105000000D01*
X177895000Y-97500000D02*
X177275000Y-97500000D01*
X177895000Y-98120000D02*
X177895000Y-97500000D01*
X177895000Y-104380000D02*
X178275000Y-104380000D01*
X177895000Y-105000000D02*
X177895000Y-104380000D01*
X178275000Y-98120000D02*
X177895000Y-98120000D01*
X178275000Y-104380000D02*
X178275000Y-98120000D01*
%TO.C,U_ISOCAN*%
X160350000Y-109000000D02*
X160350000Y-117000000D01*
X160350000Y-117000000D02*
X160730000Y-117000000D01*
X160730000Y-107070000D02*
X160730000Y-109000000D01*
X160730000Y-109000000D02*
X160350000Y-109000000D01*
X160730000Y-117000000D02*
X160730000Y-118930000D01*
X160730000Y-118930000D02*
X173270000Y-118930000D01*
X173270000Y-107070000D02*
X160730000Y-107070000D01*
X173270000Y-109000000D02*
X173270000Y-107070000D01*
X173270000Y-117000000D02*
X173650000Y-117000000D01*
X173270000Y-118930000D02*
X173270000Y-117000000D01*
X173650000Y-109000000D02*
X173270000Y-109000000D01*
X173650000Y-117000000D02*
X173650000Y-109000000D01*
%TO.C,U_BEC_5V_1*%
X163750000Y-80625000D02*
X160250000Y-80625000D01*
X160250000Y-84375000D01*
X163750000Y-84375000D01*
X163750000Y-80625000D01*
%TO.C,R_FBRCS_1*%
X137550000Y-72030000D02*
X137550000Y-72970000D01*
X137550000Y-72970000D02*
X139410000Y-72970000D01*
X139410000Y-72030000D02*
X137550000Y-72030000D01*
X139410000Y-72970000D02*
X139410000Y-72030000D01*
%TO.C,Q_BATT_DSG*%
X133380000Y-90870000D02*
X126620000Y-90870000D01*
X126620000Y-97130000D01*
X133380000Y-97130000D01*
X133380000Y-90870000D01*
%TO.C,R_DSG_G*%
X120299524Y-87770000D02*
X118339524Y-87770000D01*
X118339524Y-89230000D01*
X120299524Y-89230000D01*
X120299524Y-87770000D01*
%TO.C,R_CHGND*%
X122769524Y-85770000D02*
X120809524Y-85770000D01*
X120809524Y-87230000D01*
X122769524Y-87230000D01*
X122769524Y-85770000D01*
%TO.C,RS_MAIN*%
X170640000Y-84500000D02*
X162080000Y-84500000D01*
X162080000Y-89500000D01*
X170640000Y-89500000D01*
X170640000Y-84500000D01*
%TO.C,U_IS_MAIN*%
X177837500Y-85620000D02*
X171937500Y-85620000D01*
X171937500Y-89380000D01*
X177837500Y-89380000D01*
X177837500Y-85620000D01*
%TO.C,RS1*%
X170920000Y-91500000D02*
X162360000Y-91500000D01*
X162360000Y-96500000D01*
X170920000Y-96500000D01*
X170920000Y-91500000D01*
%TO.C,U_IS1*%
X177837500Y-92120000D02*
X171937500Y-92120000D01*
X171937500Y-95880000D01*
X177837500Y-95880000D01*
X177837500Y-92120000D01*
%TO.C,RS2*%
X161140000Y-84500000D02*
X152580000Y-84500000D01*
X152580000Y-89500000D01*
X161140000Y-89500000D01*
X161140000Y-84500000D01*
%TO.C,U_IS2*%
X159450000Y-73120000D02*
X153550000Y-73120000D01*
X153550000Y-76880000D01*
X159450000Y-76880000D01*
X159450000Y-73120000D01*
%TO.C,RS3*%
X153320000Y-91000000D02*
X144760000Y-91000000D01*
X144760000Y-96000000D01*
X153320000Y-96000000D01*
X153320000Y-91000000D01*
%TO.C,U_IS3*%
X160450000Y-91620000D02*
X154550000Y-91620000D01*
X154550000Y-95380000D01*
X160450000Y-95380000D01*
X160450000Y-91620000D01*
%TO.C,RS4*%
X151640000Y-84000000D02*
X143080000Y-84000000D01*
X143080000Y-89000000D01*
X151640000Y-89000000D01*
X151640000Y-84000000D01*
%TO.C,U_IS4*%
X151337500Y-73120000D02*
X145437500Y-73120000D01*
X145437500Y-76880000D01*
X151337500Y-76880000D01*
X151337500Y-73120000D01*
%TO.C,J_5V*%
X194150000Y-94950000D02*
X188650000Y-94950000D01*
X188650000Y-106050000D01*
X194150000Y-106050000D01*
X194150000Y-94950000D01*
%TO.C,J_SERVO_5V*%
X194250000Y-106200000D02*
X188750000Y-106200000D01*
X188750000Y-117300000D01*
X194250000Y-117300000D01*
X194250000Y-106200000D01*
%TO.C,U_BEC_NACELLE_12V*%
X161732500Y-98120000D02*
X161732500Y-103880000D01*
X161732500Y-103880000D02*
X162112500Y-103880000D01*
X162112500Y-97750000D02*
X162112500Y-98120000D01*
X162112500Y-98120000D02*
X161732500Y-98120000D01*
X162112500Y-103880000D02*
X162112500Y-104250000D01*
X162112500Y-104250000D02*
X163232500Y-104250000D01*
X163232500Y-97370000D02*
X163232500Y-97750000D01*
X163232500Y-97750000D02*
X162112500Y-97750000D01*
X163232500Y-104250000D02*
X163232500Y-104630000D01*
X163232500Y-104630000D02*
X165492500Y-104630000D01*
X165492500Y-97370000D02*
X163232500Y-97370000D01*
X165492500Y-97750000D02*
X165492500Y-97370000D01*
X165492500Y-104250000D02*
X166612500Y-104250000D01*
X165492500Y-104630000D02*
X165492500Y-104250000D01*
X166612500Y-97750000D02*
X165492500Y-97750000D01*
X166612500Y-98120000D02*
X166612500Y-97750000D01*
X166612500Y-103880000D02*
X166992500Y-103880000D01*
X166612500Y-104250000D02*
X166612500Y-103880000D01*
X166992500Y-98120000D02*
X166612500Y-98120000D01*
X166992500Y-103880000D02*
X166992500Y-98120000D01*
%TO.C,C_FFRCS*%
X135570000Y-86040000D02*
X135570000Y-86960000D01*
X135570000Y-86960000D02*
X137390000Y-86960000D01*
X137390000Y-86040000D02*
X135570000Y-86040000D01*
X137390000Y-86960000D02*
X137390000Y-86040000D01*
%TO.C,SJ_H_CAN*%
X121050000Y-87850000D02*
X121050000Y-85350000D01*
X121050000Y-87850000D02*
X124350000Y-87850000D01*
X124350000Y-85350000D02*
X121050000Y-85350000D01*
X124350000Y-85350000D02*
X124350000Y-87850000D01*
%TO.C,C_BOOT_RCS*%
X137570000Y-76040000D02*
X137570000Y-76960000D01*
X137570000Y-76960000D02*
X139390000Y-76960000D01*
X139390000Y-76040000D02*
X137570000Y-76040000D01*
X139390000Y-76960000D02*
X139390000Y-76040000D01*
%TO.C,J_WINCH_6V*%
X186325000Y-70400000D02*
X186325000Y-73500000D01*
X186325000Y-76600000D02*
X186325000Y-73500000D01*
X189175000Y-67530000D02*
X189175000Y-70400000D01*
X189175000Y-70400000D02*
X186325000Y-70400000D01*
X189175000Y-76600000D02*
X186325000Y-76600000D01*
X189175000Y-79470000D02*
X189175000Y-76600000D01*
X193675000Y-67530000D02*
X189175000Y-67530000D01*
X193675000Y-73500000D02*
X193675000Y-67530000D01*
X193675000Y-73500000D02*
X193675000Y-79470000D01*
X193675000Y-79470000D02*
X189175000Y-79470000D01*
%TO.C,C_BIAS1*%
X175570000Y-73540000D02*
X175570000Y-74460000D01*
X175570000Y-74460000D02*
X177390000Y-74460000D01*
X177390000Y-73540000D02*
X175570000Y-73540000D01*
X177390000Y-74460000D02*
X177390000Y-73540000D01*
%TO.C,C_BIAS_RCS*%
X133570000Y-76040000D02*
X133570000Y-76960000D01*
X133570000Y-76960000D02*
X135390000Y-76960000D01*
X135390000Y-76040000D02*
X133570000Y-76040000D01*
X135390000Y-76960000D02*
X135390000Y-76040000D01*
%TO.C,J_RS485_OUT_H*%
X105125000Y-108800000D02*
X113325000Y-108800000D01*
X105125000Y-115400000D02*
X105125000Y-108800000D01*
X113325000Y-108800000D02*
X113325000Y-115400000D01*
X113325000Y-115400000D02*
X105125000Y-115400000D01*
%TO.C,L_N*%
X164620000Y-75370000D02*
X164620000Y-78530000D01*
X164620000Y-78530000D02*
X169180000Y-78530000D01*
X169180000Y-75370000D02*
X164620000Y-75370000D01*
X169180000Y-78530000D02*
X169180000Y-75370000D01*
%TO.C,C_BOOT2*%
X173570000Y-71540000D02*
X173570000Y-72460000D01*
X173570000Y-72460000D02*
X175390000Y-72460000D01*
X175390000Y-71540000D02*
X173570000Y-71540000D01*
X175390000Y-72460000D02*
X175390000Y-71540000D01*
%TO.C,C_BIASSV*%
X171570000Y-73540000D02*
X171570000Y-74460000D01*
X171570000Y-74460000D02*
X173390000Y-74460000D01*
X173390000Y-73540000D02*
X171570000Y-73540000D01*
X173390000Y-74460000D02*
X173390000Y-73540000D01*
%TO.C,R_FB_N2*%
X135050000Y-93030000D02*
X135050000Y-93970000D01*
X135050000Y-93970000D02*
X136910000Y-93970000D01*
X136910000Y-93030000D02*
X135050000Y-93030000D01*
X136910000Y-93970000D02*
X136910000Y-93030000D01*
%TD*%
M02*
