%TF.GenerationSoftware,KiCad,Pcbnew,9.0.2+dfsg-1*%
%TF.CreationDate,2026-07-29T09:35:34-04:00*%
%TF.ProjectId,Kaylee,4b61796c-6565-42e6-9b69-6361645f7063,A*%
%TF.SameCoordinates,Original*%
%TF.FileFunction,Soldermask,Bot*%
%TF.FilePolarity,Negative*%
%FSLAX46Y46*%
G04 Gerber Fmt 4.6, Leading zero omitted, Abs format (unit mm)*
G04 Created by KiCad (PCBNEW 9.0.2+dfsg-1) date 2026-07-29 09:35:34*
%MOMM*%
%LPD*%
G01*
G04 APERTURE LIST*
G04 Aperture macros list*
%AMRoundRect*
0 Rectangle with rounded corners*
0 $1 Rounding radius*
0 $2 $3 $4 $5 $6 $7 $8 $9 X,Y pos of 4 corners*
0 Add a 4 corners polygon primitive as box body*
4,1,4,$2,$3,$4,$5,$6,$7,$8,$9,$2,$3,0*
0 Add four circle primitives for the rounded corners*
1,1,$1+$1,$2,$3*
1,1,$1+$1,$4,$5*
1,1,$1+$1,$6,$7*
1,1,$1+$1,$8,$9*
0 Add four rect primitives between the rounded corners*
20,1,$1+$1,$2,$3,$4,$5,0*
20,1,$1+$1,$4,$5,$6,$7,0*
20,1,$1+$1,$6,$7,$8,$9,0*
20,1,$1+$1,$8,$9,$2,$3,0*%
G04 Aperture macros list end*
%ADD10RoundRect,0.250000X-0.750000X0.750000X-0.750000X-0.750000X0.750000X-0.750000X0.750000X0.750000X0*%
%ADD11C,2.000000*%
%ADD12RoundRect,0.250000X-0.750000X-0.750000X0.750000X-0.750000X0.750000X0.750000X-0.750000X0.750000X0*%
%ADD13C,3.200000*%
%ADD14C,1.500000*%
%ADD15RoundRect,1.000000X-1.000000X-1.000000X1.000000X-1.000000X1.000000X1.000000X-1.000000X1.000000X0*%
%ADD16C,4.000000*%
%ADD17RoundRect,0.475000X-0.475000X-0.475000X0.475000X-0.475000X0.475000X0.475000X-0.475000X0.475000X0*%
%ADD18C,1.900000*%
%ADD19RoundRect,0.750000X-0.750000X-0.750000X0.750000X-0.750000X0.750000X0.750000X-0.750000X0.750000X0*%
%ADD20C,3.000000*%
%ADD21RoundRect,0.500000X-0.500000X-0.500000X0.500000X-0.500000X0.500000X0.500000X-0.500000X0.500000X0*%
%ADD22RoundRect,0.450000X-0.450000X-0.450000X0.450000X-0.450000X0.450000X0.450000X-0.450000X0.450000X0*%
%ADD23C,1.800000*%
%ADD24C,6.000000*%
%ADD25RoundRect,0.695000X-0.695000X-0.695000X0.695000X-0.695000X0.695000X0.695000X-0.695000X0.695000X0*%
%ADD26C,2.780000*%
%ADD27C,1.200000*%
%ADD28RoundRect,0.875000X-0.875000X-0.875000X0.875000X-0.875000X0.875000X0.875000X-0.875000X0.875000X0*%
%ADD29C,3.500000*%
%ADD30RoundRect,0.140000X0.140000X0.170000X-0.140000X0.170000X-0.140000X-0.170000X0.140000X-0.170000X0*%
%ADD31C,1.300000*%
%ADD32RoundRect,0.250000X-0.850000X-0.600000X0.850000X-0.600000X0.850000X0.600000X-0.850000X0.600000X0*%
%ADD33O,2.200000X1.700000*%
%ADD34RoundRect,0.150000X0.150000X0.700000X-0.150000X0.700000X-0.150000X-0.700000X0.150000X-0.700000X0*%
%ADD35RoundRect,0.250000X0.250000X1.150000X-0.250000X1.150000X-0.250000X-1.150000X0.250000X-1.150000X0*%
%ADD36RoundRect,0.150000X-0.150000X0.875000X-0.150000X-0.875000X0.150000X-0.875000X0.150000X0.875000X0*%
%ADD37RoundRect,0.250000X0.375000X1.075000X-0.375000X1.075000X-0.375000X-1.075000X0.375000X-1.075000X0*%
%ADD38RoundRect,0.135000X0.135000X0.185000X-0.135000X0.185000X-0.135000X-0.185000X0.135000X-0.185000X0*%
%ADD39R,1.000000X1.500000*%
%ADD40RoundRect,0.062500X0.212500X0.062500X-0.212500X0.062500X-0.212500X-0.062500X0.212500X-0.062500X0*%
%ADD41RoundRect,0.110000X0.690000X0.165000X-0.690000X0.165000X-0.690000X-0.165000X0.690000X-0.165000X0*%
%ADD42RoundRect,0.062500X0.062500X0.212500X-0.062500X0.212500X-0.062500X-0.212500X0.062500X-0.212500X0*%
%ADD43RoundRect,0.062500X0.375000X0.062500X-0.375000X0.062500X-0.375000X-0.062500X0.375000X-0.062500X0*%
%ADD44RoundRect,0.062500X0.062500X0.375000X-0.062500X0.375000X-0.062500X-0.375000X0.062500X-0.375000X0*%
%ADD45R,5.150000X5.150000*%
%ADD46RoundRect,0.150000X0.825000X0.150000X-0.825000X0.150000X-0.825000X-0.150000X0.825000X-0.150000X0*%
%ADD47RoundRect,0.500000X0.500000X0.750000X-0.500000X0.750000X-0.500000X-0.750000X0.500000X-0.750000X0*%
%ADD48RoundRect,0.200000X0.200000X0.800000X-0.200000X0.800000X-0.200000X-0.800000X0.200000X-0.800000X0*%
%ADD49RoundRect,0.087500X0.725000X0.087500X-0.725000X0.087500X-0.725000X-0.087500X0.725000X-0.087500X0*%
%ADD50RoundRect,0.425000X0.675000X0.425000X-0.675000X0.425000X-0.675000X-0.425000X0.675000X-0.425000X0*%
%ADD51RoundRect,0.062500X0.450000X0.062500X-0.450000X0.062500X-0.450000X-0.062500X0.450000X-0.062500X0*%
%ADD52RoundRect,0.062500X0.062500X0.325000X-0.062500X0.325000X-0.062500X-0.325000X0.062500X-0.325000X0*%
%ADD53R,1.800000X4.500000*%
G04 APERTURE END LIST*
%TO.C,SJ_H_485*%
G36*
X126650000Y-85850000D02*
G01*
X126350000Y-85850000D01*
X126350000Y-87350000D01*
X126650000Y-87350000D01*
X126650000Y-85850000D01*
G37*
%TO.C,SJ_H_CAN*%
G36*
X122850000Y-85850000D02*
G01*
X122550000Y-85850000D01*
X122550000Y-87350000D01*
X122850000Y-87350000D01*
X122850000Y-85850000D01*
G37*
%TD*%
D10*
%TO.C,C_N_OUT*%
X137500000Y-90632323D03*
D11*
X137500000Y-95632323D03*
%TD*%
D12*
%TO.C,C_RCS_OUT*%
X176132323Y-81000000D03*
D11*
X181132323Y-81000000D03*
%TD*%
D12*
%TO.C,C_N_IN*%
X124632323Y-93000000D03*
D11*
X129632323Y-93000000D03*
%TD*%
D13*
%TO.C,H1*%
X104580000Y-65500000D03*
%TD*%
%TO.C,H2*%
X191000000Y-65500000D03*
%TD*%
%TO.C,H3*%
X104580000Y-122500000D03*
%TD*%
%TO.C,H4*%
X191000000Y-122500000D03*
%TD*%
D14*
%TO.C,J_BATT*%
X111362500Y-73750000D03*
X124862500Y-73750000D03*
D15*
X121712500Y-79750000D03*
D16*
X128912500Y-79750000D03*
%TD*%
D17*
%TO.C,CM1*%
X136540000Y-64960000D03*
D18*
X136540000Y-70040000D03*
X131460000Y-64960000D03*
X131460000Y-70040000D03*
%TD*%
D17*
%TO.C,CM2*%
X148040000Y-64960000D03*
D18*
X148040000Y-70040000D03*
X142960000Y-64960000D03*
X142960000Y-70040000D03*
%TD*%
D19*
%TO.C,F1*%
X149050000Y-107500000D03*
D20*
X158950000Y-107500000D03*
%TD*%
D21*
%TO.C,C1*%
X135500000Y-81000000D03*
D11*
X140500000Y-81000000D03*
%TD*%
D21*
%TO.C,C2*%
X170000000Y-68000000D03*
D11*
X175000000Y-68000000D03*
%TD*%
D22*
%TO.C,C_Y1*%
X151500000Y-97000000D03*
D23*
X156500000Y-97000000D03*
%TD*%
D22*
%TO.C,C_Y2*%
X146000000Y-90500000D03*
D23*
X151000000Y-90500000D03*
%TD*%
D24*
%TO.C,J_PGND_BATT*%
X105580000Y-81500000D03*
%TD*%
%TO.C,J_CHASSIS*%
X105580000Y-93500000D03*
%TD*%
D25*
%TO.C,F_ESC1*%
X103580000Y-102000000D03*
D26*
X103580000Y-105400000D03*
X113500000Y-102000000D03*
X113500000Y-105400000D03*
%TD*%
D27*
%TO.C,J_ESC1*%
X105580000Y-117500000D03*
X116580000Y-117500000D03*
D28*
X108580000Y-122500000D03*
D29*
X113580000Y-122500000D03*
%TD*%
D25*
%TO.C,F_ESC2*%
X117580000Y-102000000D03*
D26*
X117580000Y-105400000D03*
X127500000Y-102000000D03*
X127500000Y-105400000D03*
%TD*%
D27*
%TO.C,J_ESC2*%
X119580000Y-117500000D03*
X130580000Y-117500000D03*
D28*
X122580000Y-122500000D03*
D29*
X127580000Y-122500000D03*
%TD*%
D25*
%TO.C,F_ESC3*%
X131580000Y-102000000D03*
D26*
X131580000Y-105400000D03*
X141500000Y-102000000D03*
X141500000Y-105400000D03*
%TD*%
D27*
%TO.C,J_ESC3*%
X133580000Y-117500000D03*
X144580000Y-117500000D03*
D28*
X136580000Y-122500000D03*
D29*
X141580000Y-122500000D03*
%TD*%
D25*
%TO.C,F_ESC4*%
X145580000Y-102000000D03*
D26*
X145580000Y-105400000D03*
X155500000Y-102000000D03*
X155500000Y-105400000D03*
%TD*%
D27*
%TO.C,J_ESC4*%
X147580000Y-117500000D03*
X158580000Y-117500000D03*
D28*
X150580000Y-122500000D03*
D29*
X155580000Y-122500000D03*
%TD*%
D21*
%TO.C,C_BEC1_IN*%
X156000000Y-68000000D03*
D11*
X161000000Y-68000000D03*
%TD*%
D21*
%TO.C,C_BEC1_OUT*%
X149500000Y-81000000D03*
D11*
X154500000Y-81000000D03*
%TD*%
D21*
%TO.C,C_BEC2_IN*%
X163500000Y-81000000D03*
D11*
X168500000Y-81000000D03*
%TD*%
D21*
%TO.C,C_BEC2_OUT*%
X167000000Y-106500000D03*
D11*
X172000000Y-106500000D03*
%TD*%
D21*
%TO.C,C_BEC_SV_IN*%
X181000000Y-106500000D03*
D11*
X186000000Y-106500000D03*
%TD*%
D21*
%TO.C,C_BEC_SV_OUT*%
X173500000Y-120000000D03*
D11*
X178500000Y-120000000D03*
%TD*%
D10*
%TO.C,C_RCS_IN*%
X115000000Y-90132323D03*
D11*
X115000000Y-95132323D03*
%TD*%
D30*
%TO.C,C_N_BOOT*%
X140460000Y-99500000D03*
X139500000Y-99500000D03*
%TD*%
%TO.C,C_FFSV*%
X172960000Y-76000000D03*
X172000000Y-76000000D03*
%TD*%
%TO.C,C_BIAS2*%
X174960000Y-74000000D03*
X174000000Y-74000000D03*
%TD*%
D31*
%TO.C,J_NACELLE_12V*%
X190085000Y-85500000D03*
D32*
X191425000Y-89250000D03*
D33*
X191425000Y-86750000D03*
X191425000Y-84250000D03*
X191425000Y-81750000D03*
%TD*%
D30*
%TO.C,C_BOOT1*%
X176960000Y-72000000D03*
X176000000Y-72000000D03*
%TD*%
D34*
%TO.C,J_CAN_IN_H*%
X130975000Y-114050000D03*
X129725000Y-114050000D03*
X128475000Y-114050000D03*
D35*
X132825000Y-110700000D03*
X126625000Y-110700000D03*
%TD*%
D31*
%TO.C,J_RCS_6V*%
X184585000Y-95000000D03*
D32*
X185925000Y-98750000D03*
D33*
X185925000Y-96250000D03*
X185925000Y-93750000D03*
X185925000Y-91250000D03*
%TD*%
D36*
%TO.C,U_RS485*%
X175960000Y-108700000D03*
X177230000Y-108700000D03*
X178500000Y-108700000D03*
X179770000Y-108700000D03*
X181040000Y-108700000D03*
X182310000Y-108700000D03*
X183580000Y-108700000D03*
X184850000Y-108700000D03*
X186120000Y-108700000D03*
X187390000Y-108700000D03*
X187390000Y-118000000D03*
X186120000Y-118000000D03*
X184850000Y-118000000D03*
X183580000Y-118000000D03*
X182310000Y-118000000D03*
X181040000Y-118000000D03*
X179770000Y-118000000D03*
X178500000Y-118000000D03*
X177230000Y-118000000D03*
X175960000Y-118000000D03*
%TD*%
D30*
%TO.C,C_BOOT_SV*%
X172960000Y-72000000D03*
X172000000Y-72000000D03*
%TD*%
%TO.C,C_FF2*%
X174960000Y-76000000D03*
X174000000Y-76000000D03*
%TD*%
D34*
%TO.C,J_CAN_OUT_H*%
X140975000Y-114050000D03*
X139725000Y-114050000D03*
X138475000Y-114050000D03*
D35*
X142825000Y-110700000D03*
X136625000Y-110700000D03*
%TD*%
D37*
%TO.C,L_RCS*%
X165300000Y-72500000D03*
X162500000Y-72500000D03*
%TD*%
D38*
%TO.C,R_FB_N1*%
X140490000Y-93500000D03*
X139470000Y-93500000D03*
%TD*%
D39*
%TO.C,SJ_H_485*%
X127150000Y-86600000D03*
X125850000Y-86600000D03*
%TD*%
D30*
%TO.C,C_N_VCC*%
X136460000Y-99500000D03*
X135500000Y-99500000D03*
%TD*%
D34*
%TO.C,J_RS485_IN_H*%
X120075000Y-113950000D03*
X118825000Y-113950000D03*
X117575000Y-113950000D03*
D35*
X121925000Y-110600000D03*
X115725000Y-110600000D03*
%TD*%
D40*
%TO.C,U_BEC_5V_2*%
X183713000Y-79500000D03*
X183713000Y-79000000D03*
X183713000Y-78500000D03*
X183713000Y-78000000D03*
X183713000Y-77500000D03*
D41*
X181963000Y-76625000D03*
D40*
X180213000Y-77500000D03*
X180213000Y-78000000D03*
X180213000Y-78500000D03*
X180213000Y-79000000D03*
X180213000Y-79500000D03*
D42*
X180525500Y-80375000D03*
X181100500Y-80375000D03*
X181675500Y-80375000D03*
X182250500Y-80375000D03*
X182825500Y-80375000D03*
X183400500Y-80375000D03*
%TD*%
D34*
%TO.C,J_SWD_H*%
X153875000Y-114450000D03*
X152625000Y-114450000D03*
X151375000Y-114450000D03*
X150125000Y-114450000D03*
D35*
X155725000Y-111100000D03*
X148275000Y-111100000D03*
%TD*%
D30*
%TO.C,C_FF1*%
X176960000Y-76000000D03*
X176000000Y-76000000D03*
%TD*%
D38*
%TO.C,R_FBRCS_2*%
X134990000Y-72500000D03*
X133970000Y-72500000D03*
%TD*%
D40*
%TO.C,U_BEC_RCS_6V*%
X183387500Y-86625000D03*
X183387500Y-86125000D03*
X183387500Y-85625000D03*
X183387500Y-85125000D03*
X183387500Y-84625000D03*
D41*
X181637500Y-83750000D03*
D40*
X179887500Y-84625000D03*
X179887500Y-85125000D03*
X179887500Y-85625000D03*
X179887500Y-86125000D03*
X179887500Y-86625000D03*
D42*
X180200000Y-87500000D03*
X180775000Y-87500000D03*
X181350000Y-87500000D03*
X181925000Y-87500000D03*
X182500000Y-87500000D03*
X183075000Y-87500000D03*
%TD*%
D43*
%TO.C,U_MCU*%
X177582500Y-98500000D03*
X177582500Y-99000000D03*
X177582500Y-99500000D03*
X177582500Y-100000000D03*
X177582500Y-100500000D03*
X177582500Y-101000000D03*
X177582500Y-101500000D03*
X177582500Y-102000000D03*
X177582500Y-102500000D03*
X177582500Y-103000000D03*
X177582500Y-103500000D03*
X177582500Y-104000000D03*
D44*
X176895000Y-104687500D03*
X176395000Y-104687500D03*
X175895000Y-104687500D03*
X175395000Y-104687500D03*
X174895000Y-104687500D03*
X174395000Y-104687500D03*
X173895000Y-104687500D03*
X173395000Y-104687500D03*
X172895000Y-104687500D03*
X172395000Y-104687500D03*
X171895000Y-104687500D03*
X171395000Y-104687500D03*
D43*
X170707500Y-104000000D03*
X170707500Y-103500000D03*
X170707500Y-103000000D03*
X170707500Y-102500000D03*
X170707500Y-102000000D03*
X170707500Y-101500000D03*
X170707500Y-101000000D03*
X170707500Y-100500000D03*
X170707500Y-100000000D03*
X170707500Y-99500000D03*
X170707500Y-99000000D03*
X170707500Y-98500000D03*
D44*
X171395000Y-97812500D03*
X171895000Y-97812500D03*
X172395000Y-97812500D03*
X172895000Y-97812500D03*
X173395000Y-97812500D03*
X173895000Y-97812500D03*
X174395000Y-97812500D03*
X174895000Y-97812500D03*
X175395000Y-97812500D03*
X175895000Y-97812500D03*
X176395000Y-97812500D03*
X176895000Y-97812500D03*
D45*
X174145000Y-101250000D03*
%TD*%
D36*
%TO.C,U_ISOCAN*%
X161285000Y-108350000D03*
X162555000Y-108350000D03*
X163825000Y-108350000D03*
X165095000Y-108350000D03*
X166365000Y-108350000D03*
X167635000Y-108350000D03*
X168905000Y-108350000D03*
X170175000Y-108350000D03*
X171445000Y-108350000D03*
X172715000Y-108350000D03*
X172715000Y-117650000D03*
X171445000Y-117650000D03*
X170175000Y-117650000D03*
X168905000Y-117650000D03*
X167635000Y-117650000D03*
X166365000Y-117650000D03*
X165095000Y-117650000D03*
X163825000Y-117650000D03*
X162555000Y-117650000D03*
X161285000Y-117650000D03*
%TD*%
D40*
%TO.C,U_BEC_5V_1*%
X163750000Y-83500000D03*
X163750000Y-83000000D03*
X163750000Y-82500000D03*
X163750000Y-82000000D03*
X163750000Y-81500000D03*
D41*
X162000000Y-80625000D03*
D40*
X160250000Y-81500000D03*
X160250000Y-82000000D03*
X160250000Y-82500000D03*
X160250000Y-83000000D03*
X160250000Y-83500000D03*
D42*
X160562500Y-84375000D03*
X161137500Y-84375000D03*
X161712500Y-84375000D03*
X162287500Y-84375000D03*
X162862500Y-84375000D03*
X163437500Y-84375000D03*
%TD*%
D38*
%TO.C,R_FBRCS_1*%
X138990000Y-72500000D03*
X137970000Y-72500000D03*
%TD*%
D46*
%TO.C,Q_BATT_DSG*%
X132475000Y-92095000D03*
X132475000Y-93365000D03*
X132475000Y-94635000D03*
X132475000Y-95905000D03*
X127525000Y-95905000D03*
X127525000Y-94635000D03*
X127525000Y-93365000D03*
X127525000Y-92095000D03*
%TD*%
D38*
%TO.C,R_DSG_G*%
X119829524Y-88500000D03*
X118809524Y-88500000D03*
%TD*%
%TO.C,R_CHGND*%
X122299524Y-86500000D03*
X121279524Y-86500000D03*
%TD*%
D47*
%TO.C,RS_MAIN*%
X168900000Y-87000000D03*
D48*
X167000000Y-87000000D03*
X165720000Y-87000000D03*
D47*
X163820000Y-87000000D03*
%TD*%
D49*
%TO.C,U_IS_MAIN*%
X177000000Y-86500000D03*
X177000000Y-87000000D03*
X177000000Y-87500000D03*
X177000000Y-88000000D03*
X177000000Y-88500000D03*
X172775000Y-88500000D03*
X172775000Y-88000000D03*
X172775000Y-87500000D03*
X172775000Y-87000000D03*
X172775000Y-86500000D03*
%TD*%
D47*
%TO.C,RS1*%
X169180000Y-94000000D03*
D48*
X167280000Y-94000000D03*
X166000000Y-94000000D03*
D47*
X164100000Y-94000000D03*
%TD*%
D49*
%TO.C,U_IS1*%
X177000000Y-93000000D03*
X177000000Y-93500000D03*
X177000000Y-94000000D03*
X177000000Y-94500000D03*
X177000000Y-95000000D03*
X172775000Y-95000000D03*
X172775000Y-94500000D03*
X172775000Y-94000000D03*
X172775000Y-93500000D03*
X172775000Y-93000000D03*
%TD*%
D47*
%TO.C,RS2*%
X159400000Y-87000000D03*
D48*
X157500000Y-87000000D03*
X156220000Y-87000000D03*
D47*
X154320000Y-87000000D03*
%TD*%
D49*
%TO.C,U_IS2*%
X158612500Y-74000000D03*
X158612500Y-74500000D03*
X158612500Y-75000000D03*
X158612500Y-75500000D03*
X158612500Y-76000000D03*
X154387500Y-76000000D03*
X154387500Y-75500000D03*
X154387500Y-75000000D03*
X154387500Y-74500000D03*
X154387500Y-74000000D03*
%TD*%
D47*
%TO.C,RS3*%
X151580000Y-93500000D03*
D48*
X149680000Y-93500000D03*
X148400000Y-93500000D03*
D47*
X146500000Y-93500000D03*
%TD*%
D49*
%TO.C,U_IS3*%
X159612500Y-92500000D03*
X159612500Y-93000000D03*
X159612500Y-93500000D03*
X159612500Y-94000000D03*
X159612500Y-94500000D03*
X155387500Y-94500000D03*
X155387500Y-94000000D03*
X155387500Y-93500000D03*
X155387500Y-93000000D03*
X155387500Y-92500000D03*
%TD*%
D47*
%TO.C,RS4*%
X149900000Y-86500000D03*
D48*
X148000000Y-86500000D03*
X146720000Y-86500000D03*
D47*
X144820000Y-86500000D03*
%TD*%
D49*
%TO.C,U_IS4*%
X150500000Y-74000000D03*
X150500000Y-74500000D03*
X150500000Y-75000000D03*
X150500000Y-75500000D03*
X150500000Y-76000000D03*
X146275000Y-76000000D03*
X146275000Y-75500000D03*
X146275000Y-75000000D03*
X146275000Y-74500000D03*
X146275000Y-74000000D03*
%TD*%
D31*
%TO.C,J_5V*%
X193500000Y-100000000D03*
D50*
X191400000Y-96250000D03*
D33*
X191400000Y-98750000D03*
X191400000Y-101250000D03*
X191400000Y-103750000D03*
%TD*%
D31*
%TO.C,J_SERVO_5V*%
X193600000Y-111250000D03*
D50*
X191500000Y-107500000D03*
D33*
X191500000Y-110000000D03*
X191500000Y-112500000D03*
X191500000Y-115000000D03*
%TD*%
D51*
%TO.C,U_BEC_NACELLE_12V*%
X166225000Y-98500000D03*
X166225000Y-99000000D03*
X166225000Y-99500000D03*
X166225000Y-100000000D03*
X166225000Y-100500000D03*
X166225000Y-101000000D03*
X166225000Y-101500000D03*
X166225000Y-102000000D03*
X166225000Y-102500000D03*
X166225000Y-103000000D03*
X166225000Y-103500000D03*
D52*
X165112500Y-103987500D03*
X164612500Y-103987500D03*
X164112500Y-103987500D03*
X163612500Y-103987500D03*
D51*
X162500000Y-103500000D03*
X162500000Y-103000000D03*
X162500000Y-102500000D03*
X162500000Y-102000000D03*
X162500000Y-101500000D03*
X162500000Y-101000000D03*
X162500000Y-100500000D03*
X162500000Y-100000000D03*
X162500000Y-99500000D03*
X162500000Y-99000000D03*
X162500000Y-98500000D03*
D52*
X163612500Y-98012500D03*
X164112500Y-98012500D03*
X164612500Y-98012500D03*
X165112500Y-98012500D03*
D53*
X164362500Y-101000000D03*
%TD*%
D30*
%TO.C,C_FFRCS*%
X136960000Y-86500000D03*
X136000000Y-86500000D03*
%TD*%
D39*
%TO.C,SJ_H_CAN*%
X123350000Y-86600000D03*
X122050000Y-86600000D03*
%TD*%
D30*
%TO.C,C_BOOT_RCS*%
X138960000Y-76500000D03*
X138000000Y-76500000D03*
%TD*%
D31*
%TO.C,J_WINCH_6V*%
X190085000Y-73500000D03*
D32*
X191425000Y-77250000D03*
D33*
X191425000Y-74750000D03*
X191425000Y-72250000D03*
X191425000Y-69750000D03*
%TD*%
D30*
%TO.C,C_BIAS1*%
X176960000Y-74000000D03*
X176000000Y-74000000D03*
%TD*%
%TO.C,C_BIAS_RCS*%
X134960000Y-76500000D03*
X134000000Y-76500000D03*
%TD*%
D34*
%TO.C,J_RS485_OUT_H*%
X110475000Y-114050000D03*
X109225000Y-114050000D03*
X107975000Y-114050000D03*
D35*
X112325000Y-110700000D03*
X106125000Y-110700000D03*
%TD*%
D37*
%TO.C,L_N*%
X168300000Y-76950000D03*
X165500000Y-76950000D03*
%TD*%
D30*
%TO.C,C_BOOT2*%
X174960000Y-72000000D03*
X174000000Y-72000000D03*
%TD*%
%TO.C,C_BIASSV*%
X172960000Y-74000000D03*
X172000000Y-74000000D03*
%TD*%
D38*
%TO.C,R_FB_N2*%
X136490000Y-93500000D03*
X135470000Y-93500000D03*
%TD*%
M02*
