%TF.GenerationSoftware,KiCad,Pcbnew,9.0.2+dfsg-1*%
%TF.CreationDate,2026-07-28T10:12:06-04:00*%
%TF.ProjectId,Kaylee,4b61796c-6565-42e6-9b69-6361645f7063,A*%
%TF.SameCoordinates,Original*%
%TF.FileFunction,Other,User*%
%FSLAX46Y46*%
G04 Gerber Fmt 4.6, Leading zero omitted, Abs format (unit mm)*
G04 Created by KiCad (PCBNEW 9.0.2+dfsg-1) date 2026-07-28 10:12:06*
%MOMM*%
%LPD*%
G01*
G04 APERTURE LIST*
%ADD10C,0.050000*%
G04 APERTURE END LIST*
%TO.C,RS_MAIN*%
D10*
X170640000Y-84500000D02*
X162080000Y-84500000D01*
X162080000Y-89500000D01*
X170640000Y-89500000D01*
X170640000Y-84500000D01*
%TO.C,U_IS_MAIN*%
X177837500Y-85620000D02*
X171937500Y-85620000D01*
X171937500Y-89380000D01*
X177837500Y-89380000D01*
X177837500Y-85620000D01*
%TO.C,RS1*%
X170920000Y-91500000D02*
X162360000Y-91500000D01*
X162360000Y-96500000D01*
X170920000Y-96500000D01*
X170920000Y-91500000D01*
%TO.C,U_IS1*%
X177837500Y-92120000D02*
X171937500Y-92120000D01*
X171937500Y-95880000D01*
X177837500Y-95880000D01*
X177837500Y-92120000D01*
%TO.C,RS2*%
X161140000Y-84500000D02*
X152580000Y-84500000D01*
X152580000Y-89500000D01*
X161140000Y-89500000D01*
X161140000Y-84500000D01*
%TO.C,U_IS2*%
X159450000Y-73120000D02*
X153550000Y-73120000D01*
X153550000Y-76880000D01*
X159450000Y-76880000D01*
X159450000Y-73120000D01*
%TO.C,RS3*%
X152240000Y-92000000D02*
X143680000Y-92000000D01*
X143680000Y-97000000D01*
X152240000Y-97000000D01*
X152240000Y-92000000D01*
%TO.C,U_IS3*%
X159837500Y-92620000D02*
X153937500Y-92620000D01*
X153937500Y-96380000D01*
X159837500Y-96380000D01*
X159837500Y-92620000D01*
%TO.C,RS4*%
X151640000Y-84000000D02*
X143080000Y-84000000D01*
X143080000Y-89000000D01*
X151640000Y-89000000D01*
X151640000Y-84000000D01*
%TO.C,U_IS4*%
X151337500Y-73120000D02*
X145437500Y-73120000D01*
X145437500Y-76880000D01*
X151337500Y-76880000D01*
X151337500Y-73120000D01*
%TD*%
M02*
