%TF.GenerationSoftware,KiCad,Pcbnew,9.0.2+dfsg-1*%
%TF.CreationDate,2026-07-29T09:35:34-04:00*%
%TF.ProjectId,Kaylee,4b61796c-6565-42e6-9b69-6361645f7063,A*%
%TF.SameCoordinates,Original*%
%TF.FileFunction,Copper,L1,Top*%
%TF.FilePolarity,Positive*%
%FSLAX46Y46*%
G04 Gerber Fmt 4.6, Leading zero omitted, Abs format (unit mm)*
G04 Created by KiCad (PCBNEW 9.0.2+dfsg-1) date 2026-07-29 09:35:34*
%MOMM*%
%LPD*%
G01*
G04 APERTURE LIST*
G04 Aperture macros list*
%AMRoundRect*
0 Rectangle with rounded corners*
0 $1 Rounding radius*
0 $2 $3 $4 $5 $6 $7 $8 $9 X,Y pos of 4 corners*
0 Add a 4 corners polygon primitive as box body*
4,1,4,$2,$3,$4,$5,$6,$7,$8,$9,$2,$3,0*
0 Add four circle primitives for the rounded corners*
1,1,$1+$1,$2,$3*
1,1,$1+$1,$4,$5*
1,1,$1+$1,$6,$7*
1,1,$1+$1,$8,$9*
0 Add four rect primitives between the rounded corners*
20,1,$1+$1,$2,$3,$4,$5,0*
20,1,$1+$1,$4,$5,$6,$7,0*
20,1,$1+$1,$6,$7,$8,$9,0*
20,1,$1+$1,$8,$9,$2,$3,0*%
G04 Aperture macros list end*
%TA.AperFunction,SMDPad,CuDef*%
%ADD10RoundRect,0.140000X-0.140000X-0.170000X0.140000X-0.170000X0.140000X0.170000X-0.140000X0.170000X0*%
%TD*%
%TA.AperFunction,SMDPad,CuDef*%
%ADD11RoundRect,0.135000X-0.135000X-0.185000X0.135000X-0.185000X0.135000X0.185000X-0.135000X0.185000X0*%
%TD*%
%TA.AperFunction,ComponentPad*%
%ADD12RoundRect,0.250000X-0.750000X0.750000X-0.750000X-0.750000X0.750000X-0.750000X0.750000X0.750000X0*%
%TD*%
%TA.AperFunction,ComponentPad*%
%ADD13C,2.000000*%
%TD*%
%TA.AperFunction,ComponentPad*%
%ADD14RoundRect,0.250000X-0.750000X-0.750000X0.750000X-0.750000X0.750000X0.750000X-0.750000X0.750000X0*%
%TD*%
%TA.AperFunction,SMDPad,CuDef*%
%ADD15RoundRect,0.150000X-0.512500X-0.150000X0.512500X-0.150000X0.512500X0.150000X-0.512500X0.150000X0*%
%TD*%
%TA.AperFunction,ComponentPad*%
%ADD16RoundRect,1.000000X-1.000000X-1.000000X1.000000X-1.000000X1.000000X1.000000X-1.000000X1.000000X0*%
%TD*%
%TA.AperFunction,ComponentPad*%
%ADD17C,4.000000*%
%TD*%
%TA.AperFunction,ComponentPad*%
%ADD18RoundRect,0.475000X-0.475000X-0.475000X0.475000X-0.475000X0.475000X0.475000X-0.475000X0.475000X0*%
%TD*%
%TA.AperFunction,ComponentPad*%
%ADD19C,1.900000*%
%TD*%
%TA.AperFunction,ComponentPad*%
%ADD20RoundRect,0.750000X-0.750000X-0.750000X0.750000X-0.750000X0.750000X0.750000X-0.750000X0.750000X0*%
%TD*%
%TA.AperFunction,ComponentPad*%
%ADD21C,3.000000*%
%TD*%
%TA.AperFunction,ComponentPad*%
%ADD22RoundRect,0.500000X-0.500000X-0.500000X0.500000X-0.500000X0.500000X0.500000X-0.500000X0.500000X0*%
%TD*%
%TA.AperFunction,SMDPad,CuDef*%
%ADD23RoundRect,0.575000X0.675000X0.575000X-0.675000X0.575000X-0.675000X-0.575000X0.675000X-0.575000X0*%
%TD*%
%TA.AperFunction,ComponentPad*%
%ADD24RoundRect,0.450000X-0.450000X-0.450000X0.450000X-0.450000X0.450000X0.450000X-0.450000X0.450000X0*%
%TD*%
%TA.AperFunction,ComponentPad*%
%ADD25C,1.800000*%
%TD*%
%TA.AperFunction,SMDPad,CuDef*%
%ADD26RoundRect,0.312500X-0.312500X-1.012500X0.312500X-1.012500X0.312500X1.012500X-0.312500X1.012500X0*%
%TD*%
%TA.AperFunction,SMDPad,CuDef*%
%ADD27RoundRect,0.250000X-0.250000X-0.475000X0.250000X-0.475000X0.250000X0.475000X-0.250000X0.475000X0*%
%TD*%
%TA.AperFunction,ComponentPad*%
%ADD28C,6.000000*%
%TD*%
%TA.AperFunction,ComponentPad*%
%ADD29RoundRect,0.695000X-0.695000X-0.695000X0.695000X-0.695000X0.695000X0.695000X-0.695000X0.695000X0*%
%TD*%
%TA.AperFunction,ComponentPad*%
%ADD30C,2.780000*%
%TD*%
%TA.AperFunction,ComponentPad*%
%ADD31RoundRect,0.875000X-0.875000X-0.875000X0.875000X-0.875000X0.875000X0.875000X-0.875000X0.875000X0*%
%TD*%
%TA.AperFunction,ComponentPad*%
%ADD32C,3.500000*%
%TD*%
%TA.AperFunction,SMDPad,CuDef*%
%ADD33RoundRect,0.300000X-0.800000X-0.300000X0.800000X-0.300000X0.800000X0.300000X-0.800000X0.300000X0*%
%TD*%
%TA.AperFunction,SMDPad,CuDef*%
%ADD34RoundRect,0.249997X-2.950003X-2.650003X2.950003X-2.650003X2.950003X2.650003X-2.950003X2.650003X0*%
%TD*%
%TA.AperFunction,SMDPad,CuDef*%
%ADD35RoundRect,0.135000X0.185000X-0.135000X0.185000X0.135000X-0.185000X0.135000X-0.185000X-0.135000X0*%
%TD*%
%TA.AperFunction,SMDPad,CuDef*%
%ADD36RoundRect,0.100000X-0.225000X-0.100000X0.225000X-0.100000X0.225000X0.100000X-0.225000X0.100000X0*%
%TD*%
%TA.AperFunction,SMDPad,CuDef*%
%ADD37RoundRect,0.135000X-0.185000X0.135000X-0.185000X-0.135000X0.185000X-0.135000X0.185000X0.135000X0*%
%TD*%
%TA.AperFunction,SMDPad,CuDef*%
%ADD38RoundRect,0.150000X-0.150000X-0.700000X0.150000X-0.700000X0.150000X0.700000X-0.150000X0.700000X0*%
%TD*%
%TA.AperFunction,SMDPad,CuDef*%
%ADD39RoundRect,0.250000X-0.250000X-1.150000X0.250000X-1.150000X0.250000X1.150000X-0.250000X1.150000X0*%
%TD*%
%TA.AperFunction,SMDPad,CuDef*%
%ADD40R,0.650000X2.000000*%
%TD*%
%TA.AperFunction,SMDPad,CuDef*%
%ADD41RoundRect,0.062500X-0.212500X-0.062500X0.212500X-0.062500X0.212500X0.062500X-0.212500X0.062500X0*%
%TD*%
%TA.AperFunction,SMDPad,CuDef*%
%ADD42RoundRect,0.110000X-0.690000X-0.165000X0.690000X-0.165000X0.690000X0.165000X-0.690000X0.165000X0*%
%TD*%
%TA.AperFunction,SMDPad,CuDef*%
%ADD43RoundRect,0.062500X-0.062500X-0.212500X0.062500X-0.212500X0.062500X0.212500X-0.062500X0.212500X0*%
%TD*%
%TA.AperFunction,SMDPad,CuDef*%
%ADD44RoundRect,0.062500X-0.375000X-0.062500X0.375000X-0.062500X0.375000X0.062500X-0.375000X0.062500X0*%
%TD*%
%TA.AperFunction,SMDPad,CuDef*%
%ADD45RoundRect,0.062500X-0.062500X-0.375000X0.062500X-0.375000X0.062500X0.375000X-0.062500X0.375000X0*%
%TD*%
%TA.AperFunction,HeatsinkPad*%
%ADD46R,3.450000X3.450000*%
%TD*%
%TA.AperFunction,ComponentPad*%
%ADD47RoundRect,0.250000X-0.850000X-0.600000X0.850000X-0.600000X0.850000X0.600000X-0.850000X0.600000X0*%
%TD*%
%TA.AperFunction,ComponentPad*%
%ADD48O,2.200000X1.700000*%
%TD*%
%TA.AperFunction,ComponentPad*%
%ADD49RoundRect,0.425000X0.675000X0.425000X-0.675000X0.425000X-0.675000X-0.425000X0.675000X-0.425000X0*%
%TD*%
G04 APERTURE END LIST*
D10*
%TO.P,C_H_ADM2,1*%
%TO.N,ISO_3V3_485*%
X106820000Y-99400000D03*
%TO.P,C_H_ADM2,2*%
%TO.N,ISO_GND_485*%
X107780000Y-99400000D03*
%TD*%
%TO.P,C_H_ADM1,1*%
%TO.N,+3V3*%
X106820000Y-98000000D03*
%TO.P,C_H_ADM1,2*%
%TO.N,CM2_OUT_N*%
X107780000Y-98000000D03*
%TD*%
D11*
%TO.P,R_H_CANTERM,1*%
%TO.N,CAN_H*%
X101990000Y-110800000D03*
%TO.P,R_H_CANTERM,2*%
%TO.N,CANTERM_MID_H*%
X103010000Y-110800000D03*
%TD*%
D12*
%TO.P,C_N_OUT,1*%
%TO.N,NACELLE_OUT*%
X137500000Y-90632323D03*
D13*
%TO.P,C_N_OUT,2*%
%TO.N,CM2_OUT_N*%
X137500000Y-95632323D03*
%TD*%
D10*
%TO.P,C_H_OUT,1*%
%TO.N,+3V3*%
X102020000Y-115000000D03*
%TO.P,C_H_OUT,2*%
%TO.N,CM2_OUT_N*%
X102980000Y-115000000D03*
%TD*%
%TO.P,C_H_VCORE,1*%
%TO.N,CM2_OUT_N*%
X102020000Y-116400000D03*
%TO.P,C_H_VCORE,2*%
X102980000Y-116400000D03*
%TD*%
D14*
%TO.P,C_RCS_OUT,1*%
%TO.N,RCS6V_RAW*%
X176132323Y-81000000D03*
D13*
%TO.P,C_RCS_OUT,2*%
%TO.N,CM2_OUT_N*%
X181132323Y-81000000D03*
%TD*%
D15*
%TO.P,U_REG_3V3_H,1*%
%TO.N,+5V*%
X102562500Y-86250000D03*
%TO.P,U_REG_3V3_H,2*%
%TO.N,CM2_OUT_N*%
X102562500Y-87200000D03*
%TO.P,U_REG_3V3_H,3*%
%TO.N,U_REG_H_SW*%
X102562500Y-88150000D03*
%TO.P,U_REG_3V3_H,4*%
%TO.N,+5V*%
X104837500Y-88150000D03*
%TO.P,U_REG_3V3_H,5*%
%TO.N,U_REG_H_FB*%
X104837500Y-87200000D03*
%TO.P,U_REG_3V3_H,6*%
%TO.N,N/C*%
X104837500Y-86250000D03*
%TD*%
D11*
%TO.P,R_H_FBT,1*%
%TO.N,+3V3*%
X101990000Y-98000000D03*
%TO.P,R_H_FBT,2*%
%TO.N,U_REG_H_FB*%
X103010000Y-98000000D03*
%TD*%
D14*
%TO.P,C_N_IN,1*%
%TO.N,VDIS*%
X124632323Y-93000000D03*
D13*
%TO.P,C_N_IN,2*%
%TO.N,CM2_OUT_N*%
X129632323Y-93000000D03*
%TD*%
D16*
%TO.P,J_BATT,1*%
%TO.N,VBAT_IN_P*%
X121712500Y-79750000D03*
D17*
%TO.P,J_BATT,2*%
%TO.N,VBAT_IN_N*%
X128912500Y-79750000D03*
%TD*%
D18*
%TO.P,CM1,1*%
%TO.N,VBAT_IN_P*%
X136540000Y-64960000D03*
D19*
%TO.P,CM1,2*%
%TO.N,VBAT_IN_N*%
X136540000Y-70040000D03*
%TO.P,CM1,3*%
%TO.N,CM1_OUT_P*%
X131460000Y-64960000D03*
%TO.P,CM1,4*%
%TO.N,CM1_OUT_N*%
X131460000Y-70040000D03*
%TD*%
D18*
%TO.P,CM2,1*%
%TO.N,CM1_OUT_P*%
X148040000Y-64960000D03*
D19*
%TO.P,CM2,2*%
%TO.N,CM1_OUT_N*%
X148040000Y-70040000D03*
%TO.P,CM2,3*%
%TO.N,CM2_OUT_P*%
X142960000Y-64960000D03*
%TO.P,CM2,4*%
%TO.N,CM2_OUT_N*%
X142960000Y-70040000D03*
%TD*%
D20*
%TO.P,F1,1*%
%TO.N,CM2_OUT_P*%
X149050000Y-107500000D03*
D21*
%TO.P,F1,2*%
%TO.N,VBAT*%
X158950000Y-107500000D03*
%TD*%
D22*
%TO.P,C1,1*%
%TO.N,VBAT*%
X135500000Y-81000000D03*
D13*
%TO.P,C1,2*%
%TO.N,CM2_OUT_N*%
X140500000Y-81000000D03*
%TD*%
D22*
%TO.P,C2,1*%
%TO.N,VBAT*%
X170000000Y-68000000D03*
D13*
%TO.P,C2,2*%
%TO.N,CM2_OUT_N*%
X175000000Y-68000000D03*
%TD*%
D23*
%TO.P,D1,1*%
%TO.N,VBAT*%
X167150000Y-97500000D03*
%TO.P,D1,2*%
%TO.N,CM2_OUT_N*%
X162850000Y-97500000D03*
%TD*%
D24*
%TO.P,C_Y1,1*%
%TO.N,VBAT*%
X151500000Y-97000000D03*
D25*
%TO.P,C_Y1,2*%
%TO.N,CHASSIS*%
X156500000Y-97000000D03*
%TD*%
D24*
%TO.P,C_Y2,1*%
%TO.N,CM2_OUT_N*%
X146000000Y-90500000D03*
D25*
%TO.P,C_Y2,2*%
%TO.N,CHASSIS*%
X151000000Y-90500000D03*
%TD*%
D26*
%TO.P,C_DM1,1*%
%TO.N,VBAT*%
X154100000Y-89500000D03*
%TO.P,C_DM1,2*%
%TO.N,CM2_OUT_N*%
X156900000Y-89500000D03*
%TD*%
D27*
%TO.P,C3,1*%
%TO.N,VBAT*%
X154600000Y-93000000D03*
%TO.P,C3,2*%
%TO.N,CM2_OUT_N*%
X156500000Y-93000000D03*
%TD*%
D28*
%TO.P,J_PGND_BATT,*%
%TO.N,CHASSIS*%
X105580000Y-81500000D03*
%TD*%
%TO.P,J_CHASSIS,*%
%TO.N,CHASSIS*%
X105580000Y-93500000D03*
%TD*%
D29*
%TO.P,F_ESC1,1*%
%TO.N,VDIS*%
X103580000Y-102000000D03*
D30*
X103580000Y-105400000D03*
%TO.P,F_ESC1,2*%
%TO.N,ESC1_FUSED*%
X113500000Y-102000000D03*
X113500000Y-105400000D03*
%TD*%
D31*
%TO.P,J_ESC1,1*%
%TO.N,ESC1_RS_OUT*%
X108580000Y-122500000D03*
D32*
%TO.P,J_ESC1,2*%
%TO.N,CM2_OUT_N*%
X113580000Y-122500000D03*
%TD*%
D29*
%TO.P,F_ESC2,1*%
%TO.N,VDIS*%
X117580000Y-102000000D03*
D30*
X117580000Y-105400000D03*
%TO.P,F_ESC2,2*%
%TO.N,ESC2_FUSED*%
X127500000Y-102000000D03*
X127500000Y-105400000D03*
%TD*%
D31*
%TO.P,J_ESC2,1*%
%TO.N,ESC2_RS_OUT*%
X122580000Y-122500000D03*
D32*
%TO.P,J_ESC2,2*%
%TO.N,CM2_OUT_N*%
X127580000Y-122500000D03*
%TD*%
D29*
%TO.P,F_ESC3,1*%
%TO.N,VDIS*%
X131580000Y-102000000D03*
D30*
X131580000Y-105400000D03*
%TO.P,F_ESC3,2*%
%TO.N,ESC3_FUSED*%
X141500000Y-102000000D03*
X141500000Y-105400000D03*
%TD*%
D31*
%TO.P,J_ESC3,1*%
%TO.N,ESC3_RS_OUT*%
X136580000Y-122500000D03*
D32*
%TO.P,J_ESC3,2*%
%TO.N,CM2_OUT_N*%
X141580000Y-122500000D03*
%TD*%
D29*
%TO.P,F_ESC4,1*%
%TO.N,VDIS*%
X145580000Y-102000000D03*
D30*
X145580000Y-105400000D03*
%TO.P,F_ESC4,2*%
%TO.N,ESC4_FUSED*%
X155500000Y-102000000D03*
X155500000Y-105400000D03*
%TD*%
D31*
%TO.P,J_ESC4,1*%
%TO.N,ESC4_RS_OUT*%
X150580000Y-122500000D03*
D32*
%TO.P,J_ESC4,2*%
%TO.N,CM2_OUT_N*%
X155580000Y-122500000D03*
%TD*%
D22*
%TO.P,C_BEC1_IN,1*%
%TO.N,VDIS*%
X156000000Y-68000000D03*
D13*
%TO.P,C_BEC1_IN,2*%
%TO.N,CM2_OUT_N*%
X161000000Y-68000000D03*
%TD*%
D26*
%TO.P,L1,1*%
%TO.N,U_BEC_5V_1_LX*%
X185600000Y-72000000D03*
%TO.P,L1,2*%
%TO.N,BEC5V1_RAW*%
X188400000Y-72000000D03*
%TD*%
D11*
%TO.P,R_FB1_1,1*%
%TO.N,BEC5V1_RAW*%
X182990000Y-75000000D03*
%TO.P,R_FB1_1,2*%
%TO.N,BEC1_FB*%
X184010000Y-75000000D03*
%TD*%
%TO.P,R_FB1_2,1*%
%TO.N,BEC1_FB*%
X180480000Y-75000000D03*
%TO.P,R_FB1_2,2*%
%TO.N,CM2_OUT_N*%
X181500000Y-75000000D03*
%TD*%
D22*
%TO.P,C_BEC1_OUT,1*%
%TO.N,BEC5V1_RAW*%
X149500000Y-81000000D03*
D13*
%TO.P,C_BEC1_OUT,2*%
%TO.N,CM2_OUT_N*%
X154500000Y-81000000D03*
%TD*%
D33*
%TO.P,D_OR1,1*%
%TO.N,BEC5V1_RAW*%
X160200000Y-89220000D03*
%TO.P,D_OR1,2*%
%TO.N,+5V*%
X160200000Y-91500000D03*
D34*
X166500000Y-91500000D03*
D33*
%TO.P,D_OR1,3*%
%TO.N,5V_AVIONICS*%
X160200000Y-93780000D03*
%TD*%
D22*
%TO.P,C_BEC2_IN,1*%
%TO.N,VDIS*%
X163500000Y-81000000D03*
D13*
%TO.P,C_BEC2_IN,2*%
%TO.N,CM2_OUT_N*%
X168500000Y-81000000D03*
%TD*%
D26*
%TO.P,L2,1*%
%TO.N,U_BEC_5V_2_LX*%
X181100000Y-72000000D03*
%TO.P,L2,2*%
%TO.N,BEC5V2_RAW*%
X183900000Y-72000000D03*
%TD*%
D35*
%TO.P,R_FB2_1,1*%
%TO.N,BEC5V2_RAW*%
X178500000Y-98000000D03*
%TO.P,R_FB2_1,2*%
%TO.N,BEC2_FB*%
X178500000Y-96980000D03*
%TD*%
%TO.P,R_FB2_2,1*%
%TO.N,BEC2_FB*%
X176500000Y-98000000D03*
%TO.P,R_FB2_2,2*%
%TO.N,CM2_OUT_N*%
X176500000Y-96980000D03*
%TD*%
D22*
%TO.P,C_BEC2_OUT,1*%
%TO.N,BEC5V2_RAW*%
X167000000Y-106500000D03*
D13*
%TO.P,C_BEC2_OUT,2*%
%TO.N,CM2_OUT_N*%
X172000000Y-106500000D03*
%TD*%
D33*
%TO.P,D_OR2,1*%
%TO.N,BEC5V2_RAW*%
X172700000Y-89220000D03*
%TO.P,D_OR2,2*%
%TO.N,+5V*%
X172700000Y-91500000D03*
D34*
X179000000Y-91500000D03*
D33*
%TO.P,D_OR2,3*%
%TO.N,5V_AVIONICS*%
X172700000Y-93780000D03*
%TD*%
D22*
%TO.P,C_BEC_SV_IN,1*%
%TO.N,VDIS*%
X181000000Y-106500000D03*
D13*
%TO.P,C_BEC_SV_IN,2*%
%TO.N,CM2_OUT_N*%
X186000000Y-106500000D03*
%TD*%
D26*
%TO.P,L4,1*%
%TO.N,U_BEC_SERVO_5V_LX*%
X180700000Y-97500000D03*
%TO.P,L4,2*%
%TO.N,SERVO_6V*%
X183500000Y-97500000D03*
%TD*%
D11*
%TO.P,R_FBSV_1,1*%
%TO.N,SERVO_6V*%
X180070000Y-110500000D03*
%TO.P,R_FBSV_1,2*%
%TO.N,BECSV_FB*%
X181090000Y-110500000D03*
%TD*%
%TO.P,R_FBSV_2,1*%
%TO.N,BECSV_FB*%
X184570000Y-110500000D03*
%TO.P,R_FBSV_2,2*%
%TO.N,CM2_OUT_N*%
X185590000Y-110500000D03*
%TD*%
D22*
%TO.P,C_BEC_SV_OUT,1*%
%TO.N,SERVO_6V*%
X173500000Y-120000000D03*
D13*
%TO.P,C_BEC_SV_OUT,2*%
%TO.N,CM2_OUT_N*%
X178500000Y-120000000D03*
%TD*%
D36*
%TO.P,D_I2C,1*%
%TO.N,CM2_OUT_N*%
X172100000Y-96700000D03*
%TO.P,D_I2C,2*%
%TO.N,PDB_SDA*%
X172100000Y-97350000D03*
%TO.P,D_I2C,3*%
%TO.N,PDB_SCL_RAW*%
X172100000Y-98000000D03*
%TO.P,D_I2C,4*%
%TO.N,+5V*%
X174000000Y-98000000D03*
%TO.P,D_I2C,5*%
%TO.N,PDB_SDA*%
X174000000Y-97350000D03*
%TO.P,D_I2C,6*%
%TO.N,PDB_SCL*%
X174000000Y-96700000D03*
%TD*%
D37*
%TO.P,R_ALERT,1*%
%TO.N,+5V*%
X161000000Y-117490000D03*
%TO.P,R_ALERT,2*%
%TO.N,PDB_ALERT_N*%
X161000000Y-118510000D03*
%TD*%
D38*
%TO.P,J_I2C,1*%
%TO.N,CM2_OUT_N*%
X162525000Y-124850000D03*
%TO.P,J_I2C,2*%
%TO.N,+5V*%
X163775000Y-124850000D03*
%TO.P,J_I2C,3*%
%TO.N,PDB_SCL*%
X165025000Y-124850000D03*
%TO.P,J_I2C,4*%
%TO.N,PDB_SDA*%
X166275000Y-124850000D03*
D39*
%TO.P,J_I2C,MP*%
%TO.N,N/C*%
X161300000Y-121500000D03*
X167500000Y-121500000D03*
%TD*%
D38*
%TO.P,J_ALERT,1*%
%TO.N,CM2_OUT_N*%
X186500000Y-117000000D03*
%TO.P,J_ALERT,2*%
%TO.N,PDB_ALERT_N*%
X187750000Y-117000000D03*
D39*
%TO.P,J_ALERT,MP*%
%TO.N,N/C*%
X184650000Y-113650000D03*
X189600000Y-113650000D03*
%TD*%
D40*
%TO.P,L_H1,1*%
%TO.N,U_REG_H_SW*%
X107225000Y-87200000D03*
%TO.P,L_H1,2*%
%TO.N,+3V3*%
X108575000Y-87200000D03*
%TD*%
D41*
%TO.P,U_BEC_SERVO_5V,1*%
%TO.N,VDIS*%
X163750000Y-117500000D03*
%TO.P,U_BEC_SERVO_5V,2*%
%TO.N,U_BEC_SERVO_5V_BST*%
X163750000Y-117000000D03*
%TO.P,U_BEC_SERVO_5V,3*%
%TO.N,VDIS*%
X163750000Y-116500000D03*
%TO.P,U_BEC_SERVO_5V,4*%
%TO.N,CM2_OUT_N*%
X163750000Y-116000000D03*
%TO.P,U_BEC_SERVO_5V,5*%
X163750000Y-115500000D03*
D42*
%TO.P,U_BEC_SERVO_5V,6*%
%TO.N,U_BEC_SERVO_5V_LX*%
X165500000Y-114625000D03*
D41*
%TO.P,U_BEC_SERVO_5V,7*%
%TO.N,CM2_OUT_N*%
X167250000Y-115500000D03*
%TO.P,U_BEC_SERVO_5V,8*%
X167250000Y-116000000D03*
%TO.P,U_BEC_SERVO_5V,9*%
%TO.N,VDIS*%
X167250000Y-116500000D03*
%TO.P,U_BEC_SERVO_5V,10*%
%TO.N,CM2_OUT_N*%
X167250000Y-117000000D03*
%TO.P,U_BEC_SERVO_5V,11*%
%TO.N,U_BEC_SERVO_5V_BIAS*%
X167250000Y-117500000D03*
D43*
%TO.P,U_BEC_SERVO_5V,12*%
%TO.N,BECSV_FB*%
X166937500Y-118375000D03*
%TO.P,U_BEC_SERVO_5V,13*%
%TO.N,SERVO_6V*%
X166362500Y-118375000D03*
%TO.P,U_BEC_SERVO_5V,14*%
%TO.N,N/C*%
X165787500Y-118375000D03*
%TO.P,U_BEC_SERVO_5V,15*%
X165212500Y-118375000D03*
%TO.P,U_BEC_SERVO_5V,16*%
%TO.N,CM2_OUT_N*%
X164637500Y-118375000D03*
%TO.P,U_BEC_SERVO_5V,17*%
%TO.N,N/C*%
X164062500Y-118375000D03*
%TD*%
D10*
%TO.P,C_H_ISO1,1*%
%TO.N,+3V3*%
X104420000Y-98000000D03*
%TO.P,C_H_ISO1,2*%
%TO.N,CM2_OUT_N*%
X105380000Y-98000000D03*
%TD*%
%TO.P,C_H_ISO2,1*%
%TO.N,ISO_5V_CAN*%
X104420000Y-99400000D03*
%TO.P,C_H_ISO2,2*%
%TO.N,ISO_GND_CAN*%
X105380000Y-99400000D03*
%TD*%
D11*
%TO.P,R_H_TPM_RST,1*%
%TO.N,+3V3*%
X101990000Y-109400000D03*
%TO.P,R_H_TPM_RST,2*%
%TO.N,TPM_RESET_N*%
X103010000Y-109400000D03*
%TD*%
D10*
%TO.P,C_H_IN,1*%
%TO.N,+5V*%
X102020000Y-113600000D03*
%TO.P,C_H_IN,2*%
%TO.N,CM2_OUT_N*%
X102980000Y-113600000D03*
%TD*%
%TO.P,C_H_TPM1,1*%
%TO.N,+3V3*%
X102020000Y-117800000D03*
%TO.P,C_H_TPM1,2*%
%TO.N,CM2_OUT_N*%
X102980000Y-117800000D03*
%TD*%
D12*
%TO.P,C_RCS_IN,1*%
%TO.N,VDIS*%
X115000000Y-90132323D03*
D13*
%TO.P,C_RCS_IN,2*%
%TO.N,CM2_OUT_N*%
X115000000Y-95132323D03*
%TD*%
D11*
%TO.P,R_H_485TERM,1*%
%TO.N,RS485_A*%
X101990000Y-112200000D03*
%TO.P,R_H_485TERM,2*%
%TO.N,TERM485_MID_H*%
X103010000Y-112200000D03*
%TD*%
D44*
%TO.P,U_TPM,1*%
%TO.N,+3V3*%
X102662500Y-71250000D03*
%TO.P,U_TPM,2*%
%TO.N,CM2_OUT_N*%
X102662500Y-71750000D03*
%TO.P,U_TPM,3*%
%TO.N,N/C*%
X102662500Y-72250000D03*
%TO.P,U_TPM,4*%
X102662500Y-72750000D03*
%TO.P,U_TPM,5*%
X102662500Y-73250000D03*
%TO.P,U_TPM,6*%
X102662500Y-73750000D03*
%TO.P,U_TPM,7*%
X102662500Y-74250000D03*
%TO.P,U_TPM,8*%
%TO.N,+3V3*%
X102662500Y-74750000D03*
D45*
%TO.P,U_TPM,9*%
%TO.N,CM2_OUT_N*%
X103350000Y-75437500D03*
%TO.P,U_TPM,10*%
%TO.N,N/C*%
X103850000Y-75437500D03*
%TO.P,U_TPM,11*%
X104350000Y-75437500D03*
%TO.P,U_TPM,12*%
X104850000Y-75437500D03*
%TO.P,U_TPM,13*%
X105350000Y-75437500D03*
%TO.P,U_TPM,14*%
%TO.N,+3V3*%
X105850000Y-75437500D03*
%TO.P,U_TPM,15*%
%TO.N,N/C*%
X106350000Y-75437500D03*
%TO.P,U_TPM,16*%
%TO.N,CM2_OUT_N*%
X106850000Y-75437500D03*
D44*
%TO.P,U_TPM,17*%
%TO.N,TPM_RESET_N*%
X107537500Y-74750000D03*
%TO.P,U_TPM,18*%
%TO.N,TPM_PIRQ*%
X107537500Y-74250000D03*
%TO.P,U_TPM,19*%
%TO.N,TPM_SPI_SCK*%
X107537500Y-73750000D03*
%TO.P,U_TPM,20*%
%TO.N,TPM_SPI_CS*%
X107537500Y-73250000D03*
%TO.P,U_TPM,21*%
%TO.N,TPM_SPI_MOSI*%
X107537500Y-72750000D03*
%TO.P,U_TPM,22*%
%TO.N,+3V3*%
X107537500Y-72250000D03*
%TO.P,U_TPM,23*%
%TO.N,CM2_OUT_N*%
X107537500Y-71750000D03*
%TO.P,U_TPM,24*%
%TO.N,TPM_SPI_MISO*%
X107537500Y-71250000D03*
D45*
%TO.P,U_TPM,25*%
%TO.N,N/C*%
X106850000Y-70562500D03*
%TO.P,U_TPM,26*%
X106350000Y-70562500D03*
%TO.P,U_TPM,27*%
X105850000Y-70562500D03*
%TO.P,U_TPM,28*%
X105350000Y-70562500D03*
%TO.P,U_TPM,29*%
X104850000Y-70562500D03*
%TO.P,U_TPM,30*%
X104350000Y-70562500D03*
%TO.P,U_TPM,31*%
X103850000Y-70562500D03*
%TO.P,U_TPM,32*%
%TO.N,CM2_OUT_N*%
X103350000Y-70562500D03*
D46*
%TO.P,U_TPM,33*%
%TO.N,N/C*%
X105100000Y-73000000D03*
%TD*%
D11*
%TO.P,R_H_NRST,1*%
%TO.N,+3V3*%
X101990000Y-108000000D03*
%TO.P,R_H_NRST,2*%
%TO.N,MCU_NRST*%
X103010000Y-108000000D03*
%TD*%
%TO.P,R_H_FBB,1*%
%TO.N,U_REG_H_FB*%
X101990000Y-99400000D03*
%TO.P,R_H_FBB,2*%
%TO.N,CM2_OUT_N*%
X103010000Y-99400000D03*
%TD*%
D47*
%TO.P,J_NACELLE_12V,1*%
%TO.N,CM2_OUT_N*%
X191425000Y-89250000D03*
D48*
%TO.P,J_NACELLE_12V,2*%
X191425000Y-86750000D03*
%TO.P,J_NACELLE_12V,3*%
%TO.N,NACELLE_OUT*%
X191425000Y-84250000D03*
%TO.P,J_NACELLE_12V,4*%
X191425000Y-81750000D03*
%TD*%
D47*
%TO.P,J_RCS_6V,1*%
%TO.N,CM2_OUT_N*%
X185925000Y-98750000D03*
D48*
%TO.P,J_RCS_6V,2*%
X185925000Y-96250000D03*
%TO.P,J_RCS_6V,3*%
%TO.N,RCS6V_RAW*%
X185925000Y-93750000D03*
%TO.P,J_RCS_6V,4*%
X185925000Y-91250000D03*
%TD*%
D49*
%TO.P,J_5V,1*%
%TO.N,5V_AVIONICS*%
X191400000Y-96250000D03*
D48*
%TO.P,J_5V,2*%
X191400000Y-98750000D03*
%TO.P,J_5V,3*%
%TO.N,CM2_OUT_N*%
X191400000Y-101250000D03*
%TO.P,J_5V,4*%
X191400000Y-103750000D03*
%TD*%
D49*
%TO.P,J_SERVO_5V,1*%
%TO.N,CM2_OUT_N*%
X191500000Y-107500000D03*
D48*
%TO.P,J_SERVO_5V,2*%
X191500000Y-110000000D03*
%TO.P,J_SERVO_5V,3*%
%TO.N,SERVO_6V*%
X191500000Y-112500000D03*
%TO.P,J_SERVO_5V,4*%
X191500000Y-115000000D03*
%TD*%
D47*
%TO.P,J_WINCH_6V,1*%
%TO.N,CM2_OUT_N*%
X191425000Y-77250000D03*
D48*
%TO.P,J_WINCH_6V,2*%
X191425000Y-74750000D03*
%TO.P,J_WINCH_6V,3*%
%TO.N,SERVO_6V*%
X191425000Y-72250000D03*
%TO.P,J_WINCH_6V,4*%
X191425000Y-69750000D03*
%TD*%
M02*
