%TF.GenerationSoftware,KiCad,Pcbnew,9.0.2+dfsg-1*%
%TF.CreationDate,2026-07-29T09:35:34-04:00*%
%TF.ProjectId,Kaylee,4b61796c-6565-42e6-9b69-6361645f7063,A*%
%TF.SameCoordinates,Original*%
%TF.FileFunction,Paste,Top*%
%TF.FilePolarity,Positive*%
%FSLAX46Y46*%
G04 Gerber Fmt 4.6, Leading zero omitted, Abs format (unit mm)*
G04 Created by KiCad (PCBNEW 9.0.2+dfsg-1) date 2026-07-29 09:35:34*
%MOMM*%
%LPD*%
G01*
G04 APERTURE LIST*
G04 Aperture macros list*
%AMRoundRect*
0 Rectangle with rounded corners*
0 $1 Rounding radius*
0 $2 $3 $4 $5 $6 $7 $8 $9 X,Y pos of 4 corners*
0 Add a 4 corners polygon primitive as box body*
4,1,4,$2,$3,$4,$5,$6,$7,$8,$9,$2,$3,0*
0 Add four circle primitives for the rounded corners*
1,1,$1+$1,$2,$3*
1,1,$1+$1,$4,$5*
1,1,$1+$1,$6,$7*
1,1,$1+$1,$8,$9*
0 Add four rect primitives between the rounded corners*
20,1,$1+$1,$2,$3,$4,$5,0*
20,1,$1+$1,$4,$5,$6,$7,0*
20,1,$1+$1,$6,$7,$8,$9,0*
20,1,$1+$1,$8,$9,$2,$3,0*%
G04 Aperture macros list end*
%ADD10RoundRect,0.140000X-0.140000X-0.170000X0.140000X-0.170000X0.140000X0.170000X-0.140000X0.170000X0*%
%ADD11RoundRect,0.135000X-0.135000X-0.185000X0.135000X-0.185000X0.135000X0.185000X-0.135000X0.185000X0*%
%ADD12RoundRect,0.150000X-0.512500X-0.150000X0.512500X-0.150000X0.512500X0.150000X-0.512500X0.150000X0*%
%ADD13RoundRect,0.575000X0.675000X0.575000X-0.675000X0.575000X-0.675000X-0.575000X0.675000X-0.575000X0*%
%ADD14RoundRect,0.312500X-0.312500X-1.012500X0.312500X-1.012500X0.312500X1.012500X-0.312500X1.012500X0*%
%ADD15RoundRect,0.250000X-0.250000X-0.475000X0.250000X-0.475000X0.250000X0.475000X-0.250000X0.475000X0*%
%ADD16RoundRect,0.300000X-0.800000X-0.300000X0.800000X-0.300000X0.800000X0.300000X-0.800000X0.300000X0*%
%ADD17RoundRect,0.135000X0.185000X-0.135000X0.185000X0.135000X-0.185000X0.135000X-0.185000X-0.135000X0*%
%ADD18RoundRect,0.100000X-0.225000X-0.100000X0.225000X-0.100000X0.225000X0.100000X-0.225000X0.100000X0*%
%ADD19RoundRect,0.135000X-0.185000X0.135000X-0.185000X-0.135000X0.185000X-0.135000X0.185000X0.135000X0*%
%ADD20RoundRect,0.150000X-0.150000X-0.700000X0.150000X-0.700000X0.150000X0.700000X-0.150000X0.700000X0*%
%ADD21RoundRect,0.250000X-0.250000X-1.150000X0.250000X-1.150000X0.250000X1.150000X-0.250000X1.150000X0*%
%ADD22R,0.650000X2.000000*%
%ADD23RoundRect,0.062500X-0.212500X-0.062500X0.212500X-0.062500X0.212500X0.062500X-0.212500X0.062500X0*%
%ADD24RoundRect,0.110000X-0.690000X-0.165000X0.690000X-0.165000X0.690000X0.165000X-0.690000X0.165000X0*%
%ADD25RoundRect,0.062500X-0.062500X-0.212500X0.062500X-0.212500X0.062500X0.212500X-0.062500X0.212500X0*%
%ADD26RoundRect,0.232500X-0.232500X-0.232500X0.232500X-0.232500X0.232500X0.232500X-0.232500X0.232500X0*%
%ADD27RoundRect,0.062500X-0.375000X-0.062500X0.375000X-0.062500X0.375000X0.062500X-0.375000X0.062500X0*%
%ADD28RoundRect,0.062500X-0.062500X-0.375000X0.062500X-0.375000X0.062500X0.375000X-0.062500X0.375000X0*%
G04 APERTURE END LIST*
D10*
%TO.C,C_H_ADM2*%
X106820000Y-99400000D03*
X107780000Y-99400000D03*
%TD*%
%TO.C,C_H_ADM1*%
X106820000Y-98000000D03*
X107780000Y-98000000D03*
%TD*%
D11*
%TO.C,R_H_CANTERM*%
X101990000Y-110800000D03*
X103010000Y-110800000D03*
%TD*%
D10*
%TO.C,C_H_OUT*%
X102020000Y-115000000D03*
X102980000Y-115000000D03*
%TD*%
%TO.C,C_H_VCORE*%
X102020000Y-116400000D03*
X102980000Y-116400000D03*
%TD*%
D12*
%TO.C,U_REG_3V3_H*%
X102562500Y-86250000D03*
X102562500Y-87200000D03*
X102562500Y-88150000D03*
X104837500Y-88150000D03*
X104837500Y-87200000D03*
X104837500Y-86250000D03*
%TD*%
D11*
%TO.C,R_H_FBT*%
X101990000Y-98000000D03*
X103010000Y-98000000D03*
%TD*%
D13*
%TO.C,D1*%
X167150000Y-97500000D03*
X162850000Y-97500000D03*
%TD*%
D14*
%TO.C,C_DM1*%
X154100000Y-89500000D03*
X156900000Y-89500000D03*
%TD*%
D15*
%TO.C,C3*%
X154600000Y-93000000D03*
X156500000Y-93000000D03*
%TD*%
D14*
%TO.C,L1*%
X185600000Y-72000000D03*
X188400000Y-72000000D03*
%TD*%
D11*
%TO.C,R_FB1_1*%
X182990000Y-75000000D03*
X184010000Y-75000000D03*
%TD*%
%TO.C,R_FB1_2*%
X180480000Y-75000000D03*
X181500000Y-75000000D03*
%TD*%
D16*
%TO.C,D_OR1*%
X160200000Y-89220000D03*
X160200000Y-91500000D03*
X160200000Y-93780000D03*
%TD*%
D14*
%TO.C,L2*%
X181100000Y-72000000D03*
X183900000Y-72000000D03*
%TD*%
D17*
%TO.C,R_FB2_1*%
X178500000Y-98000000D03*
X178500000Y-96980000D03*
%TD*%
%TO.C,R_FB2_2*%
X176500000Y-98000000D03*
X176500000Y-96980000D03*
%TD*%
D16*
%TO.C,D_OR2*%
X172700000Y-89220000D03*
X172700000Y-91500000D03*
X172700000Y-93780000D03*
%TD*%
D14*
%TO.C,L4*%
X180700000Y-97500000D03*
X183500000Y-97500000D03*
%TD*%
D11*
%TO.C,R_FBSV_1*%
X180070000Y-110500000D03*
X181090000Y-110500000D03*
%TD*%
%TO.C,R_FBSV_2*%
X184570000Y-110500000D03*
X185590000Y-110500000D03*
%TD*%
D18*
%TO.C,D_I2C*%
X172100000Y-96700000D03*
X172100000Y-97350000D03*
X172100000Y-98000000D03*
X174000000Y-98000000D03*
X174000000Y-97350000D03*
X174000000Y-96700000D03*
%TD*%
D19*
%TO.C,R_ALERT*%
X161000000Y-117490000D03*
X161000000Y-118510000D03*
%TD*%
D20*
%TO.C,J_I2C*%
X162525000Y-124850000D03*
X163775000Y-124850000D03*
X165025000Y-124850000D03*
X166275000Y-124850000D03*
D21*
X161300000Y-121500000D03*
X167500000Y-121500000D03*
%TD*%
D20*
%TO.C,J_ALERT*%
X186500000Y-117000000D03*
X187750000Y-117000000D03*
D21*
X184650000Y-113650000D03*
X189600000Y-113650000D03*
%TD*%
D22*
%TO.C,L_H1*%
X107225000Y-87200000D03*
X108575000Y-87200000D03*
%TD*%
D23*
%TO.C,U_BEC_SERVO_5V*%
X163750000Y-117500000D03*
X163750000Y-117000000D03*
X163750000Y-116500000D03*
X163750000Y-116000000D03*
X163750000Y-115500000D03*
D24*
X165500000Y-114625000D03*
D23*
X167250000Y-115500000D03*
X167250000Y-116000000D03*
X167250000Y-116500000D03*
X167250000Y-117000000D03*
X167250000Y-117500000D03*
D25*
X166937500Y-118375000D03*
X166362500Y-118375000D03*
X165787500Y-118375000D03*
X165212500Y-118375000D03*
X164637500Y-118375000D03*
X164062500Y-118375000D03*
%TD*%
D10*
%TO.C,C_H_ISO1*%
X104420000Y-98000000D03*
X105380000Y-98000000D03*
%TD*%
%TO.C,C_H_ISO2*%
X104420000Y-99400000D03*
X105380000Y-99400000D03*
%TD*%
D11*
%TO.C,R_H_TPM_RST*%
X101990000Y-109400000D03*
X103010000Y-109400000D03*
%TD*%
D10*
%TO.C,C_H_IN*%
X102020000Y-113600000D03*
X102980000Y-113600000D03*
%TD*%
%TO.C,C_H_TPM1*%
X102020000Y-117800000D03*
X102980000Y-117800000D03*
%TD*%
D11*
%TO.C,R_H_485TERM*%
X101990000Y-112200000D03*
X103010000Y-112200000D03*
%TD*%
D26*
%TO.C,U_TPM*%
X103950000Y-71850000D03*
X103950000Y-73000000D03*
X103950000Y-74150000D03*
X105100000Y-71850000D03*
X105100000Y-73000000D03*
X105100000Y-74150000D03*
X106250000Y-71850000D03*
X106250000Y-73000000D03*
X106250000Y-74150000D03*
D27*
X102662500Y-71250000D03*
X102662500Y-71750000D03*
X102662500Y-72250000D03*
X102662500Y-72750000D03*
X102662500Y-73250000D03*
X102662500Y-73750000D03*
X102662500Y-74250000D03*
X102662500Y-74750000D03*
D28*
X103350000Y-75437500D03*
X103850000Y-75437500D03*
X104350000Y-75437500D03*
X104850000Y-75437500D03*
X105350000Y-75437500D03*
X105850000Y-75437500D03*
X106350000Y-75437500D03*
X106850000Y-75437500D03*
D27*
X107537500Y-74750000D03*
X107537500Y-74250000D03*
X107537500Y-73750000D03*
X107537500Y-73250000D03*
X107537500Y-72750000D03*
X107537500Y-72250000D03*
X107537500Y-71750000D03*
X107537500Y-71250000D03*
D28*
X106850000Y-70562500D03*
X106350000Y-70562500D03*
X105850000Y-70562500D03*
X105350000Y-70562500D03*
X104850000Y-70562500D03*
X104350000Y-70562500D03*
X103850000Y-70562500D03*
X103350000Y-70562500D03*
%TD*%
D11*
%TO.C,R_H_NRST*%
X101990000Y-108000000D03*
X103010000Y-108000000D03*
%TD*%
%TO.C,R_H_FBB*%
X101990000Y-99400000D03*
X103010000Y-99400000D03*
%TD*%
M02*
