M48
; DRILL file {KiCad 9.0.2+dfsg-1} date 2026-07-28T10:12:08-0400
; FORMAT={-:-/ absolute / metric / decimal}
; #@! TF.CreationDate,2026-07-28T10:12:08-04:00
; #@! TF.GenerationSoftware,Kicad,Pcbnew,9.0.2+dfsg-1
; #@! TF.FileFunction,MixedPlating,1,4
FMAT,2
METRIC
; #@! TA.AperFunction,Plated,PTH,ComponentDrill
T1C1.000
; #@! TA.AperFunction,Plated,PTH,ComponentDrill
T2C1.200
; #@! TA.AperFunction,Plated,PTH,ComponentDrill
T3C1.780
; #@! TA.AperFunction,Plated,PTH,ComponentDrill
T4C1.800
; #@! TA.AperFunction,Plated,PTH,ComponentDrill
T5C2.000
; #@! TA.AperFunction,Plated,PTH,ComponentDrill
T6C2.500
; #@! TA.AperFunction,Plated,PTH,ComponentDrill
T7C3.200
; #@! TA.AperFunction,NonPlated,NPTH,ComponentDrill
T8C1.200
; #@! TA.AperFunction,NonPlated,NPTH,ComponentDrill
T9C1.300
; #@! TA.AperFunction,NonPlated,NPTH,ComponentDrill
T10C1.500
; #@! TA.AperFunction,NonPlated,NPTH,ComponentDrill
T11C3.200
%
G90
G05
T1
X129.5Y-91.0
X134.5Y-91.0
X135.5Y-81.0
X137.5Y-91.0
X140.5Y-81.0
X142.5Y-91.0
X149.5Y-81.0
X154.5Y-81.0
X156.0Y-68.0
X161.0Y-68.0
X167.0Y-106.5
X169.58Y-81.0
X170.0Y-68.0
X172.0Y-106.5
X173.5Y-120.0
X174.58Y-81.0
X175.0Y-68.0
X178.5Y-120.0
X181.0Y-106.5
X186.0Y-106.5
T2
X131.46Y-64.96
X131.46Y-70.04
X136.54Y-64.96
X136.54Y-70.04
X142.96Y-64.96
X142.96Y-70.04
X148.04Y-64.96
X148.04Y-70.04
X187.6Y-88.75
X187.6Y-91.25
X187.6Y-93.75
X187.6Y-96.25
X188.0Y-77.5
X188.0Y-80.0
X188.0Y-82.5
X188.0Y-85.0
T3
X103.58Y-102.0
X103.58Y-105.4
X113.5Y-102.0
X113.5Y-105.4
X117.58Y-102.0
X117.58Y-105.4
X127.5Y-102.0
X127.5Y-105.4
X131.58Y-102.0
X131.58Y-105.4
X141.5Y-102.0
X141.5Y-105.4
X145.58Y-102.0
X145.58Y-105.4
X155.5Y-102.0
X155.5Y-105.4
T4
X149.05Y-107.5
X158.95Y-107.5
T5
X108.58Y-122.5
X113.58Y-122.5
X122.58Y-122.5
X127.58Y-122.5
X136.58Y-122.5
X141.58Y-122.5
X150.58Y-122.5
X155.58Y-122.5
T6
X121.712Y-79.75
X128.912Y-79.75
T7
X105.58Y-81.5
X105.58Y-93.5
T8
X105.58Y-117.5
X116.58Y-117.5
X119.58Y-117.5
X130.58Y-117.5
X133.58Y-117.5
X144.58Y-117.5
X147.58Y-117.5
X158.58Y-117.5
T9
X185.5Y-92.5
X185.9Y-81.25
T10
X111.362Y-73.75
X124.862Y-73.75
T11
X104.58Y-65.5
X104.58Y-122.5
X186.58Y-65.5
X186.58Y-122.5
M30
