M48
; DRILL file {KiCad 9.0.2+dfsg-1} date 2026-07-26T23:47:21-0400
; FORMAT={-:-/ absolute / metric / decimal}
; #@! TF.CreationDate,2026-07-26T23:47:21-04:00
; #@! TF.GenerationSoftware,Kicad,Pcbnew,9.0.2+dfsg-1
; #@! TF.FileFunction,MixedPlating,1,2
FMAT,2
METRIC
; #@! TA.AperFunction,Plated,PTH,ViaDrill
T1C0.300
; #@! TA.AperFunction,Plated,PTH,ViaDrill
T2C0.400
; #@! TA.AperFunction,Plated,PTH,ComponentDrill
T3C1.000
%
G90
G05
T1
X132.501Y-110.42
X135.427Y-113.039
X140.385Y-115.825
X141.452Y-107.127
X142.779Y-104.031
X142.857Y-99.946
X144.294Y-100.265
X145.429Y-113.116
X146.259Y-107.235
X146.359Y-109.616
X146.376Y-95.13
X147.022Y-103.914
X147.098Y-111.79
X147.29Y-101.209
X147.567Y-102.947
X147.777Y-109.946
X151.617Y-96.337
X155.094Y-111.162
X159.251Y-107.878
X160.227Y-109.949
X160.236Y-105.758
X161.591Y-107.366
X162.189Y-106.467
X163.432Y-102.749
X163.982Y-107.309
X164.499Y-110.429
X165.479Y-108.766
X169.871Y-109.665
X171.438Y-106.379
X171.844Y-109.168
X172.318Y-103.726
X175.842Y-104.343
X177.834Y-104.354
X178.258Y-114.658
X179.05Y-102.847
X179.327Y-101.092
X182.323Y-95.495
X182.603Y-106.131
X186.218Y-113.9
X189.153Y-109.785
X194.505Y-104.196
X195.455Y-99.778
X196.008Y-103.806
X196.419Y-107.595
X197.158Y-109.67
X197.451Y-103.008
X198.149Y-111.182
X198.448Y-103.571
X198.762Y-109.281
X199.139Y-97.193
X201.032Y-100.552
X202.435Y-100.358
X202.498Y-112.717
X206.781Y-112.284
X208.553Y-102.894
X208.562Y-101.694
X209.648Y-107.465
X209.65Y-106.189
X209.992Y-102.994
X210.347Y-107.129
X210.37Y-103.698
X210.587Y-112.545
X210.78Y-108.674
X210.94Y-101.243
X211.336Y-105.878
X211.553Y-102.814
X211.824Y-109.647
X212.456Y-103.026
X212.983Y-108.886
X213.267Y-102.722
X215.083Y-105.44
X215.644Y-106.375
X219.176Y-108.431
X219.409Y-113.385
X219.632Y-103.557
X221.026Y-114.841
X221.519Y-103.557
X222.555Y-106.408
X222.915Y-114.063
X227.379Y-107.164
X227.601Y-100.95
X229.277Y-102.292
X241.679Y-100.164
X242.077Y-104.357
X243.229Y-107.04
X244.529Y-108.755
X246.887Y-108.626
X247.319Y-114.432
X247.388Y-111.571
X248.108Y-112.122
X248.133Y-104.056
X254.217Y-102.008
X256.058Y-110.916
X258.145Y-110.058
X259.319Y-105.773
X259.476Y-110.192
X261.281Y-105.748
X262.627Y-105.808
X262.851Y-107.764
X264.486Y-104.747
X264.531Y-109.77
X265.169Y-106.33
X265.61Y-108.268
X265.926Y-106.299
X269.98Y-104.805
X273.882Y-104.58
X275.178Y-103.465
X275.31Y-114.079
X275.79Y-104.685
X276.158Y-108.844
X276.262Y-109.681
X276.551Y-107.382
X277.328Y-107.382
X278.179Y-114.798
X283.853Y-102.773
X286.889Y-104.222
X289.316Y-110.01
X290.124Y-108.529
X291.229Y-109.76
X292.361Y-100.499
X292.362Y-109.603
X297.085Y-111.506
X298.687Y-107.21
X299.065Y-104.737
X299.755Y-108.633
X301.647Y-111.854
X303.145Y-112.539
X304.524Y-102.178
X305.954Y-112.053
X308.784Y-110.301
X309.089Y-105.662
X310.028Y-106.865
X311.053Y-107.402
X311.153Y-105.78
X311.781Y-107.358
X312.042Y-105.411
X312.364Y-103.631
X312.787Y-111.612
X313.129Y-108.441
X313.315Y-106.776
X313.628Y-110.715
X315.169Y-105.976
X315.835Y-116.312
X315.974Y-103.116
X315.974Y-112.467
X319.293Y-112.817
X320.613Y-104.636
X327.964Y-106.293
X329.485Y-109.23
X330.055Y-103.194
T2
X131.454Y-109.264
X136.193Y-109.302
X142.084Y-109.855
X142.086Y-108.599
X150.52Y-94.716
X158.934Y-95.117
X167.405Y-108.439
X172.555Y-106.504
X182.325Y-112.05
X200.193Y-97.967
X245.744Y-106.895
X257.918Y-95.073
X287.169Y-97.95
X301.68Y-96.78
X314.31Y-104.242
T3
X148.76Y-114.0
X151.3Y-114.0
X153.84Y-114.0
X156.38Y-114.0
X158.92Y-114.0
X161.46Y-114.0
X164.0Y-114.0
X166.54Y-114.0
X198.76Y-114.0
X201.3Y-114.0
X203.84Y-114.0
X206.38Y-114.0
X208.92Y-114.0
X211.46Y-114.0
X214.0Y-114.0
X216.54Y-114.0
X248.76Y-114.0
X251.3Y-114.0
X253.84Y-114.0
X256.38Y-114.0
X258.92Y-114.0
X261.46Y-114.0
X264.0Y-114.0
X266.54Y-114.0
X298.76Y-114.0
X301.3Y-114.0
X303.84Y-114.0
X306.38Y-114.0
X308.92Y-114.0
X311.46Y-114.0
X314.0Y-114.0
X316.54Y-114.0
M30
