G04 #@! TF.GenerationSoftware,KiCad,Pcbnew,9.0.2+dfsg-1*
G04 #@! TF.CreationDate,2026-05-22T15:58:04-04:00*
G04 #@! TF.ProjectId,CAPE-A-1,43415045-2d41-42d3-912e-6b696361645f,M*
G04 #@! TF.SameCoordinates,Original*
G04 #@! TF.FileFunction,Soldermask,Top*
G04 #@! TF.FilePolarity,Negative*
%FSLAX46Y46*%
G04 Gerber Fmt 4.6, Leading zero omitted, Abs format (unit mm)*
G04 Created by KiCad (PCBNEW 9.0.2+dfsg-1) date 2026-05-22 15:58:04*
%MOMM*%
%LPD*%
G01*
G04 APERTURE LIST*
%ADD10R,0.800000X1.600000*%
%ADD11C,2.700000*%
%ADD12R,0.500000X0.500000*%
%ADD13R,8.000000X8.000000*%
%ADD14R,5.500000X5.500000*%
%ADD15R,5.940000X3.600000*%
%ADD16R,1.600000X0.800000*%
%ADD17R,3.000000X2.400000*%
%ADD18R,1.700000X1.700000*%
%ADD19C,1.700000*%
%ADD20R,3.360000X4.800000*%
%ADD21R,2.100000X2.100000*%
%ADD22R,1.200000X1.200000*%
%ADD23R,1.500000X1.500000*%
%ADD24C,1.500000*%
%ADD25R,2.400000X8.000000*%
G04 APERTURE END LIST*
D10*
G04 #@! TO.C,CAN-FD*
X125125000Y-94000000D03*
X126375000Y-94000000D03*
X127625000Y-94000000D03*
X128875000Y-94000000D03*
G04 #@! TD*
D11*
G04 #@! TO.C,*
X173000000Y-119500000D03*
G04 #@! TD*
G04 #@! TO.C,*
X124000000Y-119500000D03*
G04 #@! TD*
D10*
G04 #@! TO.C,ETH1*
X123750000Y-108000000D03*
X125000000Y-108000000D03*
X126250000Y-108000000D03*
X127500000Y-108000000D03*
X128750000Y-108000000D03*
X130000000Y-108000000D03*
G04 #@! TD*
D12*
G04 #@! TO.C,GPS*
X153600000Y-103000000D03*
D13*
X159000000Y-103000000D03*
G04 #@! TD*
D12*
G04 #@! TO.C,ETH1-PHY*
X132750000Y-103000000D03*
D14*
X137000000Y-103000000D03*
G04 #@! TD*
D12*
G04 #@! TO.C,1553-DRV*
X154450000Y-113000000D03*
D15*
X149500000Y-113000000D03*
G04 #@! TD*
D10*
G04 #@! TO.C,ETH2*
X123750000Y-112500000D03*
X125000000Y-112500000D03*
X126250000Y-112500000D03*
X127500000Y-112500000D03*
X128750000Y-112500000D03*
X130000000Y-112500000D03*
G04 #@! TD*
D16*
G04 #@! TO.C,GPIO-F*
X170500000Y-94500000D03*
X170500000Y-95750000D03*
X170500000Y-97000000D03*
G04 #@! TD*
D10*
G04 #@! TO.C,MIL-1553*
X125125000Y-103000000D03*
X126375000Y-103000000D03*
X127625000Y-103000000D03*
X128875000Y-103000000D03*
G04 #@! TD*
G04 #@! TO.C,RS-485*
X125125000Y-98500000D03*
X126375000Y-98500000D03*
X127625000Y-98500000D03*
X128875000Y-98500000D03*
G04 #@! TD*
D12*
G04 #@! TO.C,CAN-TR*
X132500000Y-115000000D03*
D17*
X135000000Y-115000000D03*
G04 #@! TD*
D18*
G04 #@! TO.C,SERVO-PWM*
X174000000Y-95460000D03*
D19*
X174000000Y-98000000D03*
X174000000Y-100540000D03*
X174000000Y-103080000D03*
X174000000Y-105620000D03*
X174000000Y-108160000D03*
X174000000Y-110700000D03*
X174000000Y-113240000D03*
G04 #@! TD*
D10*
G04 #@! TO.C,GPIO-D*
X159750000Y-95000000D03*
X161000000Y-95000000D03*
X162250000Y-95000000D03*
G04 #@! TD*
D12*
G04 #@! TO.C,1553-RCV*
X155050000Y-113000000D03*
D15*
X160000000Y-113000000D03*
G04 #@! TD*
D10*
G04 #@! TO.C,GPIO-A*
X143000000Y-95000000D03*
X144250000Y-95000000D03*
X145500000Y-95000000D03*
G04 #@! TD*
D12*
G04 #@! TO.C,1553-XFM*
X141500000Y-116500000D03*
D20*
X141500000Y-112500000D03*
G04 #@! TD*
D11*
G04 #@! TO.C,*
X124000000Y-90500000D03*
G04 #@! TD*
D12*
G04 #@! TO.C,IMU*
X132250000Y-95500000D03*
D21*
X134000000Y-95500000D03*
G04 #@! TD*
D10*
G04 #@! TO.C,GPIO-C*
X154500000Y-95000000D03*
X155750000Y-95000000D03*
X157000000Y-95000000D03*
G04 #@! TD*
D12*
G04 #@! TO.C,RS485*
X132500000Y-110500000D03*
D17*
X135000000Y-110500000D03*
G04 #@! TD*
D11*
G04 #@! TO.C,*
X173000000Y-90500000D03*
G04 #@! TD*
D12*
G04 #@! TO.C,BARO*
X137000000Y-95500000D03*
D22*
X138500000Y-95500000D03*
G04 #@! TD*
D10*
G04 #@! TO.C,ESC-TLM*
X167250000Y-100000000D03*
X168500000Y-100000000D03*
X169750000Y-100000000D03*
G04 #@! TD*
D16*
G04 #@! TO.C,GPIO-E*
X167000000Y-94500000D03*
X167000000Y-95750000D03*
X167000000Y-97000000D03*
G04 #@! TD*
D12*
G04 #@! TO.C,ETH2-PHY*
X142750000Y-102500000D03*
D14*
X147000000Y-102500000D03*
G04 #@! TD*
D23*
G04 #@! TO.C,PWR-IN*
X123000000Y-116000000D03*
D24*
X125500000Y-116000000D03*
X128000000Y-116000000D03*
X130500000Y-116000000D03*
G04 #@! TD*
D10*
G04 #@! TO.C,GPIO-B*
X149000000Y-95000000D03*
X150250000Y-95000000D03*
X151500000Y-95000000D03*
G04 #@! TD*
D12*
G04 #@! TO.C,TPM*
X171200000Y-110500000D03*
D25*
X168500000Y-110500000D03*
G04 #@! TD*
D19*
G04 #@! TO.C,PB2-P2*
X126910000Y-118690000D03*
X126910000Y-121230000D03*
X129450000Y-118690000D03*
X129450000Y-121230000D03*
X131990000Y-118690000D03*
X131990000Y-121230000D03*
X134530000Y-118690000D03*
X134530000Y-121230000D03*
X137070000Y-118690000D03*
X137070000Y-121230000D03*
X139610000Y-118690000D03*
X139610000Y-121230000D03*
X142150000Y-118690000D03*
X142150000Y-121230000D03*
X144690000Y-118690000D03*
X144690000Y-121230000D03*
X147230000Y-118690000D03*
X147230000Y-121230000D03*
X149770000Y-118690000D03*
X149770000Y-121230000D03*
X152310000Y-118690000D03*
X152310000Y-121230000D03*
X154850000Y-118690000D03*
X154850000Y-121230000D03*
X157390000Y-118690000D03*
X157390000Y-121230000D03*
X159930000Y-118690000D03*
X159930000Y-121230000D03*
X162470000Y-118690000D03*
X162470000Y-121230000D03*
X165010000Y-118690000D03*
X165010000Y-121230000D03*
X167550000Y-118690000D03*
X167550000Y-121230000D03*
X170090000Y-118690000D03*
X170090000Y-121230000D03*
G04 #@! TD*
G04 #@! TO.C,PB2-P1*
X126910000Y-88770000D03*
X126910000Y-91310000D03*
X129450000Y-88770000D03*
X129450000Y-91310000D03*
X131990000Y-88770000D03*
X131990000Y-91310000D03*
X134530000Y-88770000D03*
X134530000Y-91310000D03*
X137070000Y-88770000D03*
X137070000Y-91310000D03*
X139610000Y-88770000D03*
X139610000Y-91310000D03*
X142150000Y-88770000D03*
X142150000Y-91310000D03*
X144690000Y-88770000D03*
X144690000Y-91310000D03*
X147230000Y-88770000D03*
X147230000Y-91310000D03*
X149770000Y-88770000D03*
X149770000Y-91310000D03*
X152310000Y-88770000D03*
X152310000Y-91310000D03*
X154850000Y-88770000D03*
X154850000Y-91310000D03*
X157390000Y-88770000D03*
X157390000Y-91310000D03*
X159930000Y-88770000D03*
X159930000Y-91310000D03*
X162470000Y-88770000D03*
X162470000Y-91310000D03*
X165010000Y-88770000D03*
X165010000Y-91310000D03*
X167550000Y-88770000D03*
X167550000Y-91310000D03*
X170090000Y-88770000D03*
X170090000Y-91310000D03*
G04 #@! TD*
M02*
