G04 #@! TF.GenerationSoftware,KiCad,Pcbnew,9.0.2+dfsg-1*
G04 #@! TF.CreationDate,2026-05-22T15:58:04-04:00*
G04 #@! TF.ProjectId,CAPE-A-1,43415045-2d41-42d3-912e-6b696361645f,M*
G04 #@! TF.SameCoordinates,Original*
G04 #@! TF.FileFunction,Legend,Bot*
G04 #@! TF.FilePolarity,Positive*
%FSLAX46Y46*%
G04 Gerber Fmt 4.6, Leading zero omitted, Abs format (unit mm)*
G04 Created by KiCad (PCBNEW 9.0.2+dfsg-1) date 2026-05-22 15:58:04*
%MOMM*%
%LPD*%
G01*
G04 APERTURE LIST*
%ADD10C,0.120000*%
%ADD11C,0.150000*%
G04 APERTURE END LIST*
D10*
X156766667Y-99699990D02*
X156766667Y-100347609D01*
X156766667Y-100347609D02*
X156728572Y-100423799D01*
X156728572Y-100423799D02*
X156690477Y-100461895D01*
X156690477Y-100461895D02*
X156614286Y-100499990D01*
X156614286Y-100499990D02*
X156461905Y-100499990D01*
X156461905Y-100499990D02*
X156385715Y-100461895D01*
X156385715Y-100461895D02*
X156347620Y-100423799D01*
X156347620Y-100423799D02*
X156309524Y-100347609D01*
X156309524Y-100347609D02*
X156309524Y-99699990D01*
X155966668Y-100271418D02*
X155585715Y-100271418D01*
X156042858Y-100499990D02*
X155776191Y-99699990D01*
X155776191Y-99699990D02*
X155509525Y-100499990D01*
X155357144Y-99699990D02*
X155090477Y-100499990D01*
X155090477Y-100499990D02*
X154823811Y-99699990D01*
X153490477Y-100499990D02*
X153757144Y-100119037D01*
X153947620Y-100499990D02*
X153947620Y-99699990D01*
X153947620Y-99699990D02*
X153642858Y-99699990D01*
X153642858Y-99699990D02*
X153566668Y-99738085D01*
X153566668Y-99738085D02*
X153528573Y-99776180D01*
X153528573Y-99776180D02*
X153490477Y-99852371D01*
X153490477Y-99852371D02*
X153490477Y-99966656D01*
X153490477Y-99966656D02*
X153528573Y-100042847D01*
X153528573Y-100042847D02*
X153566668Y-100080942D01*
X153566668Y-100080942D02*
X153642858Y-100119037D01*
X153642858Y-100119037D02*
X153947620Y-100119037D01*
X152842858Y-100461895D02*
X152919049Y-100499990D01*
X152919049Y-100499990D02*
X153071430Y-100499990D01*
X153071430Y-100499990D02*
X153147620Y-100461895D01*
X153147620Y-100461895D02*
X153185716Y-100385704D01*
X153185716Y-100385704D02*
X153185716Y-100080942D01*
X153185716Y-100080942D02*
X153147620Y-100004752D01*
X153147620Y-100004752D02*
X153071430Y-99966656D01*
X153071430Y-99966656D02*
X152919049Y-99966656D01*
X152919049Y-99966656D02*
X152842858Y-100004752D01*
X152842858Y-100004752D02*
X152804763Y-100080942D01*
X152804763Y-100080942D02*
X152804763Y-100157133D01*
X152804763Y-100157133D02*
X153185716Y-100233323D01*
X152500002Y-100461895D02*
X152423811Y-100499990D01*
X152423811Y-100499990D02*
X152271430Y-100499990D01*
X152271430Y-100499990D02*
X152195240Y-100461895D01*
X152195240Y-100461895D02*
X152157144Y-100385704D01*
X152157144Y-100385704D02*
X152157144Y-100347609D01*
X152157144Y-100347609D02*
X152195240Y-100271418D01*
X152195240Y-100271418D02*
X152271430Y-100233323D01*
X152271430Y-100233323D02*
X152385716Y-100233323D01*
X152385716Y-100233323D02*
X152461906Y-100195228D01*
X152461906Y-100195228D02*
X152500002Y-100119037D01*
X152500002Y-100119037D02*
X152500002Y-100080942D01*
X152500002Y-100080942D02*
X152461906Y-100004752D01*
X152461906Y-100004752D02*
X152385716Y-99966656D01*
X152385716Y-99966656D02*
X152271430Y-99966656D01*
X152271430Y-99966656D02*
X152195240Y-100004752D01*
X151814287Y-100499990D02*
X151814287Y-99966656D01*
X151814287Y-99699990D02*
X151852383Y-99738085D01*
X151852383Y-99738085D02*
X151814287Y-99776180D01*
X151814287Y-99776180D02*
X151776192Y-99738085D01*
X151776192Y-99738085D02*
X151814287Y-99699990D01*
X151814287Y-99699990D02*
X151814287Y-99776180D01*
X151319050Y-100499990D02*
X151395240Y-100461895D01*
X151395240Y-100461895D02*
X151433335Y-100385704D01*
X151433335Y-100385704D02*
X151433335Y-99699990D01*
X150900002Y-100499990D02*
X150976192Y-100461895D01*
X150976192Y-100461895D02*
X151014287Y-100385704D01*
X151014287Y-100385704D02*
X151014287Y-99699990D01*
X150595239Y-100499990D02*
X150595239Y-99966656D01*
X150595239Y-99699990D02*
X150633335Y-99738085D01*
X150633335Y-99738085D02*
X150595239Y-99776180D01*
X150595239Y-99776180D02*
X150557144Y-99738085D01*
X150557144Y-99738085D02*
X150595239Y-99699990D01*
X150595239Y-99699990D02*
X150595239Y-99776180D01*
X149909525Y-100461895D02*
X149985716Y-100499990D01*
X149985716Y-100499990D02*
X150138097Y-100499990D01*
X150138097Y-100499990D02*
X150214287Y-100461895D01*
X150214287Y-100461895D02*
X150252383Y-100385704D01*
X150252383Y-100385704D02*
X150252383Y-100080942D01*
X150252383Y-100080942D02*
X150214287Y-100004752D01*
X150214287Y-100004752D02*
X150138097Y-99966656D01*
X150138097Y-99966656D02*
X149985716Y-99966656D01*
X149985716Y-99966656D02*
X149909525Y-100004752D01*
X149909525Y-100004752D02*
X149871430Y-100080942D01*
X149871430Y-100080942D02*
X149871430Y-100157133D01*
X149871430Y-100157133D02*
X150252383Y-100233323D01*
X149528573Y-99966656D02*
X149528573Y-100499990D01*
X149528573Y-100042847D02*
X149490478Y-100004752D01*
X149490478Y-100004752D02*
X149414288Y-99966656D01*
X149414288Y-99966656D02*
X149300002Y-99966656D01*
X149300002Y-99966656D02*
X149223811Y-100004752D01*
X149223811Y-100004752D02*
X149185716Y-100080942D01*
X149185716Y-100080942D02*
X149185716Y-100499990D01*
X148919049Y-99966656D02*
X148614287Y-99966656D01*
X148804763Y-99699990D02*
X148804763Y-100385704D01*
X148804763Y-100385704D02*
X148766668Y-100461895D01*
X148766668Y-100461895D02*
X148690478Y-100499990D01*
X148690478Y-100499990D02*
X148614287Y-100499990D01*
X147280953Y-100423799D02*
X147319049Y-100461895D01*
X147319049Y-100461895D02*
X147433334Y-100499990D01*
X147433334Y-100499990D02*
X147509525Y-100499990D01*
X147509525Y-100499990D02*
X147623811Y-100461895D01*
X147623811Y-100461895D02*
X147700001Y-100385704D01*
X147700001Y-100385704D02*
X147738096Y-100309514D01*
X147738096Y-100309514D02*
X147776192Y-100157133D01*
X147776192Y-100157133D02*
X147776192Y-100042847D01*
X147776192Y-100042847D02*
X147738096Y-99890466D01*
X147738096Y-99890466D02*
X147700001Y-99814275D01*
X147700001Y-99814275D02*
X147623811Y-99738085D01*
X147623811Y-99738085D02*
X147509525Y-99699990D01*
X147509525Y-99699990D02*
X147433334Y-99699990D01*
X147433334Y-99699990D02*
X147319049Y-99738085D01*
X147319049Y-99738085D02*
X147280953Y-99776180D01*
X146823811Y-100499990D02*
X146900001Y-100461895D01*
X146900001Y-100461895D02*
X146938096Y-100423799D01*
X146938096Y-100423799D02*
X146976192Y-100347609D01*
X146976192Y-100347609D02*
X146976192Y-100119037D01*
X146976192Y-100119037D02*
X146938096Y-100042847D01*
X146938096Y-100042847D02*
X146900001Y-100004752D01*
X146900001Y-100004752D02*
X146823811Y-99966656D01*
X146823811Y-99966656D02*
X146709525Y-99966656D01*
X146709525Y-99966656D02*
X146633334Y-100004752D01*
X146633334Y-100004752D02*
X146595239Y-100042847D01*
X146595239Y-100042847D02*
X146557144Y-100119037D01*
X146557144Y-100119037D02*
X146557144Y-100347609D01*
X146557144Y-100347609D02*
X146595239Y-100423799D01*
X146595239Y-100423799D02*
X146633334Y-100461895D01*
X146633334Y-100461895D02*
X146709525Y-100499990D01*
X146709525Y-100499990D02*
X146823811Y-100499990D01*
X146214286Y-99966656D02*
X146214286Y-100499990D01*
X146214286Y-100042847D02*
X146176191Y-100004752D01*
X146176191Y-100004752D02*
X146100001Y-99966656D01*
X146100001Y-99966656D02*
X145985715Y-99966656D01*
X145985715Y-99966656D02*
X145909524Y-100004752D01*
X145909524Y-100004752D02*
X145871429Y-100080942D01*
X145871429Y-100080942D02*
X145871429Y-100499990D01*
X145604762Y-99966656D02*
X145300000Y-99966656D01*
X145490476Y-99699990D02*
X145490476Y-100385704D01*
X145490476Y-100385704D02*
X145452381Y-100461895D01*
X145452381Y-100461895D02*
X145376191Y-100499990D01*
X145376191Y-100499990D02*
X145300000Y-100499990D01*
X145033333Y-100499990D02*
X145033333Y-99966656D01*
X145033333Y-100119037D02*
X144995238Y-100042847D01*
X144995238Y-100042847D02*
X144957143Y-100004752D01*
X144957143Y-100004752D02*
X144880952Y-99966656D01*
X144880952Y-99966656D02*
X144804762Y-99966656D01*
X144423810Y-100499990D02*
X144500000Y-100461895D01*
X144500000Y-100461895D02*
X144538095Y-100423799D01*
X144538095Y-100423799D02*
X144576191Y-100347609D01*
X144576191Y-100347609D02*
X144576191Y-100119037D01*
X144576191Y-100119037D02*
X144538095Y-100042847D01*
X144538095Y-100042847D02*
X144500000Y-100004752D01*
X144500000Y-100004752D02*
X144423810Y-99966656D01*
X144423810Y-99966656D02*
X144309524Y-99966656D01*
X144309524Y-99966656D02*
X144233333Y-100004752D01*
X144233333Y-100004752D02*
X144195238Y-100042847D01*
X144195238Y-100042847D02*
X144157143Y-100119037D01*
X144157143Y-100119037D02*
X144157143Y-100347609D01*
X144157143Y-100347609D02*
X144195238Y-100423799D01*
X144195238Y-100423799D02*
X144233333Y-100461895D01*
X144233333Y-100461895D02*
X144309524Y-100499990D01*
X144309524Y-100499990D02*
X144423810Y-100499990D01*
X143700000Y-100499990D02*
X143776190Y-100461895D01*
X143776190Y-100461895D02*
X143814285Y-100385704D01*
X143814285Y-100385704D02*
X143814285Y-99699990D01*
X142328570Y-100423799D02*
X142366666Y-100461895D01*
X142366666Y-100461895D02*
X142480951Y-100499990D01*
X142480951Y-100499990D02*
X142557142Y-100499990D01*
X142557142Y-100499990D02*
X142671428Y-100461895D01*
X142671428Y-100461895D02*
X142747618Y-100385704D01*
X142747618Y-100385704D02*
X142785713Y-100309514D01*
X142785713Y-100309514D02*
X142823809Y-100157133D01*
X142823809Y-100157133D02*
X142823809Y-100042847D01*
X142823809Y-100042847D02*
X142785713Y-99890466D01*
X142785713Y-99890466D02*
X142747618Y-99814275D01*
X142747618Y-99814275D02*
X142671428Y-99738085D01*
X142671428Y-99738085D02*
X142557142Y-99699990D01*
X142557142Y-99699990D02*
X142480951Y-99699990D01*
X142480951Y-99699990D02*
X142366666Y-99738085D01*
X142366666Y-99738085D02*
X142328570Y-99776180D01*
X141642856Y-100499990D02*
X141642856Y-100080942D01*
X141642856Y-100080942D02*
X141680951Y-100004752D01*
X141680951Y-100004752D02*
X141757142Y-99966656D01*
X141757142Y-99966656D02*
X141909523Y-99966656D01*
X141909523Y-99966656D02*
X141985713Y-100004752D01*
X141642856Y-100461895D02*
X141719047Y-100499990D01*
X141719047Y-100499990D02*
X141909523Y-100499990D01*
X141909523Y-100499990D02*
X141985713Y-100461895D01*
X141985713Y-100461895D02*
X142023809Y-100385704D01*
X142023809Y-100385704D02*
X142023809Y-100309514D01*
X142023809Y-100309514D02*
X141985713Y-100233323D01*
X141985713Y-100233323D02*
X141909523Y-100195228D01*
X141909523Y-100195228D02*
X141719047Y-100195228D01*
X141719047Y-100195228D02*
X141642856Y-100157133D01*
X141261903Y-99966656D02*
X141261903Y-100766656D01*
X141261903Y-100004752D02*
X141185713Y-99966656D01*
X141185713Y-99966656D02*
X141033332Y-99966656D01*
X141033332Y-99966656D02*
X140957141Y-100004752D01*
X140957141Y-100004752D02*
X140919046Y-100042847D01*
X140919046Y-100042847D02*
X140880951Y-100119037D01*
X140880951Y-100119037D02*
X140880951Y-100347609D01*
X140880951Y-100347609D02*
X140919046Y-100423799D01*
X140919046Y-100423799D02*
X140957141Y-100461895D01*
X140957141Y-100461895D02*
X141033332Y-100499990D01*
X141033332Y-100499990D02*
X141185713Y-100499990D01*
X141185713Y-100499990D02*
X141261903Y-100461895D01*
X140233331Y-100461895D02*
X140309522Y-100499990D01*
X140309522Y-100499990D02*
X140461903Y-100499990D01*
X140461903Y-100499990D02*
X140538093Y-100461895D01*
X140538093Y-100461895D02*
X140576189Y-100385704D01*
X140576189Y-100385704D02*
X140576189Y-100080942D01*
X140576189Y-100080942D02*
X140538093Y-100004752D01*
X140538093Y-100004752D02*
X140461903Y-99966656D01*
X140461903Y-99966656D02*
X140309522Y-99966656D01*
X140309522Y-99966656D02*
X140233331Y-100004752D01*
X140233331Y-100004752D02*
X140195236Y-100080942D01*
X140195236Y-100080942D02*
X140195236Y-100157133D01*
X140195236Y-100157133D02*
X140576189Y-100233323D01*
X154633334Y-101368897D02*
X154900000Y-101368897D01*
X154900000Y-101787945D02*
X154900000Y-100987945D01*
X154900000Y-100987945D02*
X154519048Y-100987945D01*
X154100001Y-101787945D02*
X154176191Y-101749850D01*
X154176191Y-101749850D02*
X154214286Y-101711754D01*
X154214286Y-101711754D02*
X154252382Y-101635564D01*
X154252382Y-101635564D02*
X154252382Y-101406992D01*
X154252382Y-101406992D02*
X154214286Y-101330802D01*
X154214286Y-101330802D02*
X154176191Y-101292707D01*
X154176191Y-101292707D02*
X154100001Y-101254611D01*
X154100001Y-101254611D02*
X153985715Y-101254611D01*
X153985715Y-101254611D02*
X153909524Y-101292707D01*
X153909524Y-101292707D02*
X153871429Y-101330802D01*
X153871429Y-101330802D02*
X153833334Y-101406992D01*
X153833334Y-101406992D02*
X153833334Y-101635564D01*
X153833334Y-101635564D02*
X153871429Y-101711754D01*
X153871429Y-101711754D02*
X153909524Y-101749850D01*
X153909524Y-101749850D02*
X153985715Y-101787945D01*
X153985715Y-101787945D02*
X154100001Y-101787945D01*
X153490476Y-101787945D02*
X153490476Y-101254611D01*
X153490476Y-101406992D02*
X153452381Y-101330802D01*
X153452381Y-101330802D02*
X153414286Y-101292707D01*
X153414286Y-101292707D02*
X153338095Y-101254611D01*
X153338095Y-101254611D02*
X153261905Y-101254611D01*
X152500000Y-101254611D02*
X152195238Y-101254611D01*
X152385714Y-100987945D02*
X152385714Y-101673659D01*
X152385714Y-101673659D02*
X152347619Y-101749850D01*
X152347619Y-101749850D02*
X152271429Y-101787945D01*
X152271429Y-101787945D02*
X152195238Y-101787945D01*
X151928571Y-101787945D02*
X151928571Y-100987945D01*
X151585714Y-101787945D02*
X151585714Y-101368897D01*
X151585714Y-101368897D02*
X151623809Y-101292707D01*
X151623809Y-101292707D02*
X151700000Y-101254611D01*
X151700000Y-101254611D02*
X151814286Y-101254611D01*
X151814286Y-101254611D02*
X151890476Y-101292707D01*
X151890476Y-101292707D02*
X151928571Y-101330802D01*
X150899999Y-101749850D02*
X150976190Y-101787945D01*
X150976190Y-101787945D02*
X151128571Y-101787945D01*
X151128571Y-101787945D02*
X151204761Y-101749850D01*
X151204761Y-101749850D02*
X151242857Y-101673659D01*
X151242857Y-101673659D02*
X151242857Y-101368897D01*
X151242857Y-101368897D02*
X151204761Y-101292707D01*
X151204761Y-101292707D02*
X151128571Y-101254611D01*
X151128571Y-101254611D02*
X150976190Y-101254611D01*
X150976190Y-101254611D02*
X150899999Y-101292707D01*
X150899999Y-101292707D02*
X150861904Y-101368897D01*
X150861904Y-101368897D02*
X150861904Y-101445088D01*
X150861904Y-101445088D02*
X151242857Y-101521278D01*
X149909523Y-101787945D02*
X149909523Y-100987945D01*
X149909523Y-100987945D02*
X149604761Y-100987945D01*
X149604761Y-100987945D02*
X149528571Y-101026040D01*
X149528571Y-101026040D02*
X149490476Y-101064135D01*
X149490476Y-101064135D02*
X149452380Y-101140326D01*
X149452380Y-101140326D02*
X149452380Y-101254611D01*
X149452380Y-101254611D02*
X149490476Y-101330802D01*
X149490476Y-101330802D02*
X149528571Y-101368897D01*
X149528571Y-101368897D02*
X149604761Y-101406992D01*
X149604761Y-101406992D02*
X149909523Y-101406992D01*
X148995238Y-101787945D02*
X149071428Y-101749850D01*
X149071428Y-101749850D02*
X149109523Y-101711754D01*
X149109523Y-101711754D02*
X149147619Y-101635564D01*
X149147619Y-101635564D02*
X149147619Y-101406992D01*
X149147619Y-101406992D02*
X149109523Y-101330802D01*
X149109523Y-101330802D02*
X149071428Y-101292707D01*
X149071428Y-101292707D02*
X148995238Y-101254611D01*
X148995238Y-101254611D02*
X148880952Y-101254611D01*
X148880952Y-101254611D02*
X148804761Y-101292707D01*
X148804761Y-101292707D02*
X148766666Y-101330802D01*
X148766666Y-101330802D02*
X148728571Y-101406992D01*
X148728571Y-101406992D02*
X148728571Y-101635564D01*
X148728571Y-101635564D02*
X148766666Y-101711754D01*
X148766666Y-101711754D02*
X148804761Y-101749850D01*
X148804761Y-101749850D02*
X148880952Y-101787945D01*
X148880952Y-101787945D02*
X148995238Y-101787945D01*
X148042856Y-101749850D02*
X148119047Y-101787945D01*
X148119047Y-101787945D02*
X148271428Y-101787945D01*
X148271428Y-101787945D02*
X148347618Y-101749850D01*
X148347618Y-101749850D02*
X148385713Y-101711754D01*
X148385713Y-101711754D02*
X148423809Y-101635564D01*
X148423809Y-101635564D02*
X148423809Y-101406992D01*
X148423809Y-101406992D02*
X148385713Y-101330802D01*
X148385713Y-101330802D02*
X148347618Y-101292707D01*
X148347618Y-101292707D02*
X148271428Y-101254611D01*
X148271428Y-101254611D02*
X148119047Y-101254611D01*
X148119047Y-101254611D02*
X148042856Y-101292707D01*
X147699999Y-101787945D02*
X147699999Y-100987945D01*
X147623809Y-101483183D02*
X147395237Y-101787945D01*
X147395237Y-101254611D02*
X147699999Y-101559373D01*
X146747618Y-101749850D02*
X146823809Y-101787945D01*
X146823809Y-101787945D02*
X146976190Y-101787945D01*
X146976190Y-101787945D02*
X147052380Y-101749850D01*
X147052380Y-101749850D02*
X147090476Y-101673659D01*
X147090476Y-101673659D02*
X147090476Y-101368897D01*
X147090476Y-101368897D02*
X147052380Y-101292707D01*
X147052380Y-101292707D02*
X146976190Y-101254611D01*
X146976190Y-101254611D02*
X146823809Y-101254611D01*
X146823809Y-101254611D02*
X146747618Y-101292707D01*
X146747618Y-101292707D02*
X146709523Y-101368897D01*
X146709523Y-101368897D02*
X146709523Y-101445088D01*
X146709523Y-101445088D02*
X147090476Y-101521278D01*
X146480952Y-101254611D02*
X146176190Y-101254611D01*
X146366666Y-100987945D02*
X146366666Y-101673659D01*
X146366666Y-101673659D02*
X146328571Y-101749850D01*
X146328571Y-101749850D02*
X146252381Y-101787945D01*
X146252381Y-101787945D02*
X146176190Y-101787945D01*
X145642857Y-101368897D02*
X145528571Y-101406992D01*
X145528571Y-101406992D02*
X145490476Y-101445088D01*
X145490476Y-101445088D02*
X145452380Y-101521278D01*
X145452380Y-101521278D02*
X145452380Y-101635564D01*
X145452380Y-101635564D02*
X145490476Y-101711754D01*
X145490476Y-101711754D02*
X145528571Y-101749850D01*
X145528571Y-101749850D02*
X145604761Y-101787945D01*
X145604761Y-101787945D02*
X145909523Y-101787945D01*
X145909523Y-101787945D02*
X145909523Y-100987945D01*
X145909523Y-100987945D02*
X145642857Y-100987945D01*
X145642857Y-100987945D02*
X145566666Y-101026040D01*
X145566666Y-101026040D02*
X145528571Y-101064135D01*
X145528571Y-101064135D02*
X145490476Y-101140326D01*
X145490476Y-101140326D02*
X145490476Y-101216516D01*
X145490476Y-101216516D02*
X145528571Y-101292707D01*
X145528571Y-101292707D02*
X145566666Y-101330802D01*
X145566666Y-101330802D02*
X145642857Y-101368897D01*
X145642857Y-101368897D02*
X145909523Y-101368897D01*
X144804761Y-101749850D02*
X144880952Y-101787945D01*
X144880952Y-101787945D02*
X145033333Y-101787945D01*
X145033333Y-101787945D02*
X145109523Y-101749850D01*
X145109523Y-101749850D02*
X145147619Y-101673659D01*
X145147619Y-101673659D02*
X145147619Y-101368897D01*
X145147619Y-101368897D02*
X145109523Y-101292707D01*
X145109523Y-101292707D02*
X145033333Y-101254611D01*
X145033333Y-101254611D02*
X144880952Y-101254611D01*
X144880952Y-101254611D02*
X144804761Y-101292707D01*
X144804761Y-101292707D02*
X144766666Y-101368897D01*
X144766666Y-101368897D02*
X144766666Y-101445088D01*
X144766666Y-101445088D02*
X145147619Y-101521278D01*
X144080952Y-101787945D02*
X144080952Y-101368897D01*
X144080952Y-101368897D02*
X144119047Y-101292707D01*
X144119047Y-101292707D02*
X144195238Y-101254611D01*
X144195238Y-101254611D02*
X144347619Y-101254611D01*
X144347619Y-101254611D02*
X144423809Y-101292707D01*
X144080952Y-101749850D02*
X144157143Y-101787945D01*
X144157143Y-101787945D02*
X144347619Y-101787945D01*
X144347619Y-101787945D02*
X144423809Y-101749850D01*
X144423809Y-101749850D02*
X144461905Y-101673659D01*
X144461905Y-101673659D02*
X144461905Y-101597469D01*
X144461905Y-101597469D02*
X144423809Y-101521278D01*
X144423809Y-101521278D02*
X144347619Y-101483183D01*
X144347619Y-101483183D02*
X144157143Y-101483183D01*
X144157143Y-101483183D02*
X144080952Y-101445088D01*
X143357142Y-101254611D02*
X143357142Y-101902230D01*
X143357142Y-101902230D02*
X143395237Y-101978421D01*
X143395237Y-101978421D02*
X143433333Y-102016516D01*
X143433333Y-102016516D02*
X143509523Y-102054611D01*
X143509523Y-102054611D02*
X143623809Y-102054611D01*
X143623809Y-102054611D02*
X143699999Y-102016516D01*
X143357142Y-101749850D02*
X143433333Y-101787945D01*
X143433333Y-101787945D02*
X143585714Y-101787945D01*
X143585714Y-101787945D02*
X143661904Y-101749850D01*
X143661904Y-101749850D02*
X143699999Y-101711754D01*
X143699999Y-101711754D02*
X143738095Y-101635564D01*
X143738095Y-101635564D02*
X143738095Y-101406992D01*
X143738095Y-101406992D02*
X143699999Y-101330802D01*
X143699999Y-101330802D02*
X143661904Y-101292707D01*
X143661904Y-101292707D02*
X143585714Y-101254611D01*
X143585714Y-101254611D02*
X143433333Y-101254611D01*
X143433333Y-101254611D02*
X143357142Y-101292707D01*
X142861904Y-101787945D02*
X142938094Y-101749850D01*
X142938094Y-101749850D02*
X142976189Y-101673659D01*
X142976189Y-101673659D02*
X142976189Y-100987945D01*
X142252379Y-101749850D02*
X142328570Y-101787945D01*
X142328570Y-101787945D02*
X142480951Y-101787945D01*
X142480951Y-101787945D02*
X142557141Y-101749850D01*
X142557141Y-101749850D02*
X142595237Y-101673659D01*
X142595237Y-101673659D02*
X142595237Y-101368897D01*
X142595237Y-101368897D02*
X142557141Y-101292707D01*
X142557141Y-101292707D02*
X142480951Y-101254611D01*
X142480951Y-101254611D02*
X142328570Y-101254611D01*
X142328570Y-101254611D02*
X142252379Y-101292707D01*
X142252379Y-101292707D02*
X142214284Y-101368897D01*
X142214284Y-101368897D02*
X142214284Y-101445088D01*
X142214284Y-101445088D02*
X142595237Y-101521278D01*
X141909523Y-101064135D02*
X141871427Y-101026040D01*
X141871427Y-101026040D02*
X141795237Y-100987945D01*
X141795237Y-100987945D02*
X141604761Y-100987945D01*
X141604761Y-100987945D02*
X141528570Y-101026040D01*
X141528570Y-101026040D02*
X141490475Y-101064135D01*
X141490475Y-101064135D02*
X141452380Y-101140326D01*
X141452380Y-101140326D02*
X141452380Y-101216516D01*
X141452380Y-101216516D02*
X141490475Y-101330802D01*
X141490475Y-101330802D02*
X141947618Y-101787945D01*
X141947618Y-101787945D02*
X141452380Y-101787945D01*
X154976191Y-102999709D02*
X155014287Y-103037805D01*
X155014287Y-103037805D02*
X155128572Y-103075900D01*
X155128572Y-103075900D02*
X155204763Y-103075900D01*
X155204763Y-103075900D02*
X155319049Y-103037805D01*
X155319049Y-103037805D02*
X155395239Y-102961614D01*
X155395239Y-102961614D02*
X155433334Y-102885424D01*
X155433334Y-102885424D02*
X155471430Y-102733043D01*
X155471430Y-102733043D02*
X155471430Y-102618757D01*
X155471430Y-102618757D02*
X155433334Y-102466376D01*
X155433334Y-102466376D02*
X155395239Y-102390185D01*
X155395239Y-102390185D02*
X155319049Y-102313995D01*
X155319049Y-102313995D02*
X155204763Y-102275900D01*
X155204763Y-102275900D02*
X155128572Y-102275900D01*
X155128572Y-102275900D02*
X155014287Y-102313995D01*
X155014287Y-102313995D02*
X154976191Y-102352090D01*
X154176191Y-102999709D02*
X154214287Y-103037805D01*
X154214287Y-103037805D02*
X154328572Y-103075900D01*
X154328572Y-103075900D02*
X154404763Y-103075900D01*
X154404763Y-103075900D02*
X154519049Y-103037805D01*
X154519049Y-103037805D02*
X154595239Y-102961614D01*
X154595239Y-102961614D02*
X154633334Y-102885424D01*
X154633334Y-102885424D02*
X154671430Y-102733043D01*
X154671430Y-102733043D02*
X154671430Y-102618757D01*
X154671430Y-102618757D02*
X154633334Y-102466376D01*
X154633334Y-102466376D02*
X154595239Y-102390185D01*
X154595239Y-102390185D02*
X154519049Y-102313995D01*
X154519049Y-102313995D02*
X154404763Y-102275900D01*
X154404763Y-102275900D02*
X154328572Y-102275900D01*
X154328572Y-102275900D02*
X154214287Y-102313995D01*
X154214287Y-102313995D02*
X154176191Y-102352090D01*
X152957144Y-102656852D02*
X152842858Y-102694947D01*
X152842858Y-102694947D02*
X152804763Y-102733043D01*
X152804763Y-102733043D02*
X152766667Y-102809233D01*
X152766667Y-102809233D02*
X152766667Y-102923519D01*
X152766667Y-102923519D02*
X152804763Y-102999709D01*
X152804763Y-102999709D02*
X152842858Y-103037805D01*
X152842858Y-103037805D02*
X152919048Y-103075900D01*
X152919048Y-103075900D02*
X153223810Y-103075900D01*
X153223810Y-103075900D02*
X153223810Y-102275900D01*
X153223810Y-102275900D02*
X152957144Y-102275900D01*
X152957144Y-102275900D02*
X152880953Y-102313995D01*
X152880953Y-102313995D02*
X152842858Y-102352090D01*
X152842858Y-102352090D02*
X152804763Y-102428281D01*
X152804763Y-102428281D02*
X152804763Y-102504471D01*
X152804763Y-102504471D02*
X152842858Y-102580662D01*
X152842858Y-102580662D02*
X152880953Y-102618757D01*
X152880953Y-102618757D02*
X152957144Y-102656852D01*
X152957144Y-102656852D02*
X153223810Y-102656852D01*
X152271429Y-102694947D02*
X152271429Y-103075900D01*
X152538096Y-102275900D02*
X152271429Y-102694947D01*
X152271429Y-102694947D02*
X152004763Y-102275900D01*
X150785715Y-102542566D02*
X150785715Y-103075900D01*
X150976191Y-102237805D02*
X151166668Y-102809233D01*
X151166668Y-102809233D02*
X150671429Y-102809233D01*
X150366667Y-102999709D02*
X150328572Y-103037805D01*
X150328572Y-103037805D02*
X150366667Y-103075900D01*
X150366667Y-103075900D02*
X150404763Y-103037805D01*
X150404763Y-103037805D02*
X150366667Y-102999709D01*
X150366667Y-102999709D02*
X150366667Y-103075900D01*
X149833334Y-102275900D02*
X149757144Y-102275900D01*
X149757144Y-102275900D02*
X149680953Y-102313995D01*
X149680953Y-102313995D02*
X149642858Y-102352090D01*
X149642858Y-102352090D02*
X149604763Y-102428281D01*
X149604763Y-102428281D02*
X149566668Y-102580662D01*
X149566668Y-102580662D02*
X149566668Y-102771138D01*
X149566668Y-102771138D02*
X149604763Y-102923519D01*
X149604763Y-102923519D02*
X149642858Y-102999709D01*
X149642858Y-102999709D02*
X149680953Y-103037805D01*
X149680953Y-103037805D02*
X149757144Y-103075900D01*
X149757144Y-103075900D02*
X149833334Y-103075900D01*
X149833334Y-103075900D02*
X149909525Y-103037805D01*
X149909525Y-103037805D02*
X149947620Y-102999709D01*
X149947620Y-102999709D02*
X149985715Y-102923519D01*
X149985715Y-102923519D02*
X150023811Y-102771138D01*
X150023811Y-102771138D02*
X150023811Y-102580662D01*
X150023811Y-102580662D02*
X149985715Y-102428281D01*
X149985715Y-102428281D02*
X149947620Y-102352090D01*
X149947620Y-102352090D02*
X149909525Y-102313995D01*
X149909525Y-102313995D02*
X149833334Y-102275900D01*
X148690477Y-102809233D02*
X148004763Y-102809233D01*
X147090476Y-103075900D02*
X147090476Y-102275900D01*
X147090476Y-102275900D02*
X146823810Y-102847328D01*
X146823810Y-102847328D02*
X146557143Y-102275900D01*
X146557143Y-102275900D02*
X146557143Y-103075900D01*
X145833333Y-103075900D02*
X145833333Y-102656852D01*
X145833333Y-102656852D02*
X145871428Y-102580662D01*
X145871428Y-102580662D02*
X145947619Y-102542566D01*
X145947619Y-102542566D02*
X146100000Y-102542566D01*
X146100000Y-102542566D02*
X146176190Y-102580662D01*
X145833333Y-103037805D02*
X145909524Y-103075900D01*
X145909524Y-103075900D02*
X146100000Y-103075900D01*
X146100000Y-103075900D02*
X146176190Y-103037805D01*
X146176190Y-103037805D02*
X146214286Y-102961614D01*
X146214286Y-102961614D02*
X146214286Y-102885424D01*
X146214286Y-102885424D02*
X146176190Y-102809233D01*
X146176190Y-102809233D02*
X146100000Y-102771138D01*
X146100000Y-102771138D02*
X145909524Y-102771138D01*
X145909524Y-102771138D02*
X145833333Y-102733043D01*
X145528571Y-102542566D02*
X145338095Y-103075900D01*
X145147618Y-102542566D02*
X145338095Y-103075900D01*
X145338095Y-103075900D02*
X145414285Y-103266376D01*
X145414285Y-103266376D02*
X145452380Y-103304471D01*
X145452380Y-103304471D02*
X145528571Y-103342566D01*
X144271428Y-102352090D02*
X144233332Y-102313995D01*
X144233332Y-102313995D02*
X144157142Y-102275900D01*
X144157142Y-102275900D02*
X143966666Y-102275900D01*
X143966666Y-102275900D02*
X143890475Y-102313995D01*
X143890475Y-102313995D02*
X143852380Y-102352090D01*
X143852380Y-102352090D02*
X143814285Y-102428281D01*
X143814285Y-102428281D02*
X143814285Y-102504471D01*
X143814285Y-102504471D02*
X143852380Y-102618757D01*
X143852380Y-102618757D02*
X144309523Y-103075900D01*
X144309523Y-103075900D02*
X143814285Y-103075900D01*
X143319046Y-102275900D02*
X143242856Y-102275900D01*
X143242856Y-102275900D02*
X143166665Y-102313995D01*
X143166665Y-102313995D02*
X143128570Y-102352090D01*
X143128570Y-102352090D02*
X143090475Y-102428281D01*
X143090475Y-102428281D02*
X143052380Y-102580662D01*
X143052380Y-102580662D02*
X143052380Y-102771138D01*
X143052380Y-102771138D02*
X143090475Y-102923519D01*
X143090475Y-102923519D02*
X143128570Y-102999709D01*
X143128570Y-102999709D02*
X143166665Y-103037805D01*
X143166665Y-103037805D02*
X143242856Y-103075900D01*
X143242856Y-103075900D02*
X143319046Y-103075900D01*
X143319046Y-103075900D02*
X143395237Y-103037805D01*
X143395237Y-103037805D02*
X143433332Y-102999709D01*
X143433332Y-102999709D02*
X143471427Y-102923519D01*
X143471427Y-102923519D02*
X143509523Y-102771138D01*
X143509523Y-102771138D02*
X143509523Y-102580662D01*
X143509523Y-102580662D02*
X143471427Y-102428281D01*
X143471427Y-102428281D02*
X143433332Y-102352090D01*
X143433332Y-102352090D02*
X143395237Y-102313995D01*
X143395237Y-102313995D02*
X143319046Y-102275900D01*
X142747618Y-102352090D02*
X142709522Y-102313995D01*
X142709522Y-102313995D02*
X142633332Y-102275900D01*
X142633332Y-102275900D02*
X142442856Y-102275900D01*
X142442856Y-102275900D02*
X142366665Y-102313995D01*
X142366665Y-102313995D02*
X142328570Y-102352090D01*
X142328570Y-102352090D02*
X142290475Y-102428281D01*
X142290475Y-102428281D02*
X142290475Y-102504471D01*
X142290475Y-102504471D02*
X142328570Y-102618757D01*
X142328570Y-102618757D02*
X142785713Y-103075900D01*
X142785713Y-103075900D02*
X142290475Y-103075900D01*
X141604760Y-102275900D02*
X141757141Y-102275900D01*
X141757141Y-102275900D02*
X141833332Y-102313995D01*
X141833332Y-102313995D02*
X141871427Y-102352090D01*
X141871427Y-102352090D02*
X141947617Y-102466376D01*
X141947617Y-102466376D02*
X141985713Y-102618757D01*
X141985713Y-102618757D02*
X141985713Y-102923519D01*
X141985713Y-102923519D02*
X141947617Y-102999709D01*
X141947617Y-102999709D02*
X141909522Y-103037805D01*
X141909522Y-103037805D02*
X141833332Y-103075900D01*
X141833332Y-103075900D02*
X141680951Y-103075900D01*
X141680951Y-103075900D02*
X141604760Y-103037805D01*
X141604760Y-103037805D02*
X141566665Y-102999709D01*
X141566665Y-102999709D02*
X141528570Y-102923519D01*
X141528570Y-102923519D02*
X141528570Y-102733043D01*
X141528570Y-102733043D02*
X141566665Y-102656852D01*
X141566665Y-102656852D02*
X141604760Y-102618757D01*
X141604760Y-102618757D02*
X141680951Y-102580662D01*
X141680951Y-102580662D02*
X141833332Y-102580662D01*
X141833332Y-102580662D02*
X141909522Y-102618757D01*
X141909522Y-102618757D02*
X141947617Y-102656852D01*
X141947617Y-102656852D02*
X141985713Y-102733043D01*
X152461905Y-104325760D02*
X152347619Y-104363855D01*
X152347619Y-104363855D02*
X152157143Y-104363855D01*
X152157143Y-104363855D02*
X152080952Y-104325760D01*
X152080952Y-104325760D02*
X152042857Y-104287664D01*
X152042857Y-104287664D02*
X152004762Y-104211474D01*
X152004762Y-104211474D02*
X152004762Y-104135283D01*
X152004762Y-104135283D02*
X152042857Y-104059093D01*
X152042857Y-104059093D02*
X152080952Y-104020998D01*
X152080952Y-104020998D02*
X152157143Y-103982902D01*
X152157143Y-103982902D02*
X152309524Y-103944807D01*
X152309524Y-103944807D02*
X152385714Y-103906712D01*
X152385714Y-103906712D02*
X152423809Y-103868617D01*
X152423809Y-103868617D02*
X152461905Y-103792426D01*
X152461905Y-103792426D02*
X152461905Y-103716236D01*
X152461905Y-103716236D02*
X152423809Y-103640045D01*
X152423809Y-103640045D02*
X152385714Y-103601950D01*
X152385714Y-103601950D02*
X152309524Y-103563855D01*
X152309524Y-103563855D02*
X152119047Y-103563855D01*
X152119047Y-103563855D02*
X152004762Y-103601950D01*
X151776190Y-103830521D02*
X151471428Y-103830521D01*
X151661904Y-103563855D02*
X151661904Y-104249569D01*
X151661904Y-104249569D02*
X151623809Y-104325760D01*
X151623809Y-104325760D02*
X151547619Y-104363855D01*
X151547619Y-104363855D02*
X151471428Y-104363855D01*
X150899999Y-104325760D02*
X150976190Y-104363855D01*
X150976190Y-104363855D02*
X151128571Y-104363855D01*
X151128571Y-104363855D02*
X151204761Y-104325760D01*
X151204761Y-104325760D02*
X151242857Y-104249569D01*
X151242857Y-104249569D02*
X151242857Y-103944807D01*
X151242857Y-103944807D02*
X151204761Y-103868617D01*
X151204761Y-103868617D02*
X151128571Y-103830521D01*
X151128571Y-103830521D02*
X150976190Y-103830521D01*
X150976190Y-103830521D02*
X150899999Y-103868617D01*
X150899999Y-103868617D02*
X150861904Y-103944807D01*
X150861904Y-103944807D02*
X150861904Y-104020998D01*
X150861904Y-104020998D02*
X151242857Y-104097188D01*
X150595238Y-103830521D02*
X150404762Y-104363855D01*
X150404762Y-104363855D02*
X150214285Y-103830521D01*
X149604761Y-104325760D02*
X149680952Y-104363855D01*
X149680952Y-104363855D02*
X149833333Y-104363855D01*
X149833333Y-104363855D02*
X149909523Y-104325760D01*
X149909523Y-104325760D02*
X149947619Y-104249569D01*
X149947619Y-104249569D02*
X149947619Y-103944807D01*
X149947619Y-103944807D02*
X149909523Y-103868617D01*
X149909523Y-103868617D02*
X149833333Y-103830521D01*
X149833333Y-103830521D02*
X149680952Y-103830521D01*
X149680952Y-103830521D02*
X149604761Y-103868617D01*
X149604761Y-103868617D02*
X149566666Y-103944807D01*
X149566666Y-103944807D02*
X149566666Y-104020998D01*
X149566666Y-104020998D02*
X149947619Y-104097188D01*
X148195238Y-103601950D02*
X148271428Y-103563855D01*
X148271428Y-103563855D02*
X148385714Y-103563855D01*
X148385714Y-103563855D02*
X148500000Y-103601950D01*
X148500000Y-103601950D02*
X148576190Y-103678140D01*
X148576190Y-103678140D02*
X148614285Y-103754331D01*
X148614285Y-103754331D02*
X148652381Y-103906712D01*
X148652381Y-103906712D02*
X148652381Y-104020998D01*
X148652381Y-104020998D02*
X148614285Y-104173379D01*
X148614285Y-104173379D02*
X148576190Y-104249569D01*
X148576190Y-104249569D02*
X148500000Y-104325760D01*
X148500000Y-104325760D02*
X148385714Y-104363855D01*
X148385714Y-104363855D02*
X148309523Y-104363855D01*
X148309523Y-104363855D02*
X148195238Y-104325760D01*
X148195238Y-104325760D02*
X148157142Y-104287664D01*
X148157142Y-104287664D02*
X148157142Y-104020998D01*
X148157142Y-104020998D02*
X148309523Y-104020998D01*
X147814285Y-104363855D02*
X147814285Y-103830521D01*
X147814285Y-103982902D02*
X147776190Y-103906712D01*
X147776190Y-103906712D02*
X147738095Y-103868617D01*
X147738095Y-103868617D02*
X147661904Y-103830521D01*
X147661904Y-103830521D02*
X147585714Y-103830521D01*
X147319047Y-104363855D02*
X147319047Y-103830521D01*
X147319047Y-103563855D02*
X147357143Y-103601950D01*
X147357143Y-103601950D02*
X147319047Y-103640045D01*
X147319047Y-103640045D02*
X147280952Y-103601950D01*
X147280952Y-103601950D02*
X147319047Y-103563855D01*
X147319047Y-103563855D02*
X147319047Y-103640045D01*
X147052381Y-103830521D02*
X146747619Y-103830521D01*
X146938095Y-104363855D02*
X146938095Y-103678140D01*
X146938095Y-103678140D02*
X146900000Y-103601950D01*
X146900000Y-103601950D02*
X146823810Y-103563855D01*
X146823810Y-103563855D02*
X146747619Y-103563855D01*
X146595238Y-103830521D02*
X146290476Y-103830521D01*
X146480952Y-104363855D02*
X146480952Y-103678140D01*
X146480952Y-103678140D02*
X146442857Y-103601950D01*
X146442857Y-103601950D02*
X146366667Y-103563855D01*
X146366667Y-103563855D02*
X146290476Y-103563855D01*
X146023809Y-104363855D02*
X146023809Y-103830521D01*
X146023809Y-103563855D02*
X146061905Y-103601950D01*
X146061905Y-103601950D02*
X146023809Y-103640045D01*
X146023809Y-103640045D02*
X145985714Y-103601950D01*
X145985714Y-103601950D02*
X146023809Y-103563855D01*
X146023809Y-103563855D02*
X146023809Y-103640045D01*
X145642857Y-103830521D02*
X145642857Y-104363855D01*
X145642857Y-103906712D02*
X145604762Y-103868617D01*
X145604762Y-103868617D02*
X145528572Y-103830521D01*
X145528572Y-103830521D02*
X145414286Y-103830521D01*
X145414286Y-103830521D02*
X145338095Y-103868617D01*
X145338095Y-103868617D02*
X145300000Y-103944807D01*
X145300000Y-103944807D02*
X145300000Y-104363855D01*
X144576190Y-103830521D02*
X144576190Y-104478140D01*
X144576190Y-104478140D02*
X144614285Y-104554331D01*
X144614285Y-104554331D02*
X144652381Y-104592426D01*
X144652381Y-104592426D02*
X144728571Y-104630521D01*
X144728571Y-104630521D02*
X144842857Y-104630521D01*
X144842857Y-104630521D02*
X144919047Y-104592426D01*
X144576190Y-104325760D02*
X144652381Y-104363855D01*
X144652381Y-104363855D02*
X144804762Y-104363855D01*
X144804762Y-104363855D02*
X144880952Y-104325760D01*
X144880952Y-104325760D02*
X144919047Y-104287664D01*
X144919047Y-104287664D02*
X144957143Y-104211474D01*
X144957143Y-104211474D02*
X144957143Y-103982902D01*
X144957143Y-103982902D02*
X144919047Y-103906712D01*
X144919047Y-103906712D02*
X144880952Y-103868617D01*
X144880952Y-103868617D02*
X144804762Y-103830521D01*
X144804762Y-103830521D02*
X144652381Y-103830521D01*
X144652381Y-103830521D02*
X144576190Y-103868617D01*
X156899999Y-105651810D02*
X156899999Y-104851810D01*
X156899999Y-104851810D02*
X156595237Y-104851810D01*
X156595237Y-104851810D02*
X156519047Y-104889905D01*
X156519047Y-104889905D02*
X156480952Y-104928000D01*
X156480952Y-104928000D02*
X156442856Y-105004191D01*
X156442856Y-105004191D02*
X156442856Y-105118476D01*
X156442856Y-105118476D02*
X156480952Y-105194667D01*
X156480952Y-105194667D02*
X156519047Y-105232762D01*
X156519047Y-105232762D02*
X156595237Y-105270857D01*
X156595237Y-105270857D02*
X156899999Y-105270857D01*
X156099999Y-105232762D02*
X155833333Y-105232762D01*
X155719047Y-105651810D02*
X156099999Y-105651810D01*
X156099999Y-105651810D02*
X156099999Y-104851810D01*
X156099999Y-104851810D02*
X155719047Y-104851810D01*
X155147618Y-105956572D02*
X155185713Y-105918476D01*
X155185713Y-105918476D02*
X155261904Y-105804191D01*
X155261904Y-105804191D02*
X155299999Y-105728000D01*
X155299999Y-105728000D02*
X155338094Y-105613715D01*
X155338094Y-105613715D02*
X155376189Y-105423238D01*
X155376189Y-105423238D02*
X155376189Y-105270857D01*
X155376189Y-105270857D02*
X155338094Y-105080381D01*
X155338094Y-105080381D02*
X155299999Y-104966095D01*
X155299999Y-104966095D02*
X155261904Y-104889905D01*
X155261904Y-104889905D02*
X155185713Y-104775619D01*
X155185713Y-104775619D02*
X155147618Y-104737524D01*
X154385713Y-105575619D02*
X154423809Y-105613715D01*
X154423809Y-105613715D02*
X154538094Y-105651810D01*
X154538094Y-105651810D02*
X154614285Y-105651810D01*
X154614285Y-105651810D02*
X154728571Y-105613715D01*
X154728571Y-105613715D02*
X154804761Y-105537524D01*
X154804761Y-105537524D02*
X154842856Y-105461334D01*
X154842856Y-105461334D02*
X154880952Y-105308953D01*
X154880952Y-105308953D02*
X154880952Y-105194667D01*
X154880952Y-105194667D02*
X154842856Y-105042286D01*
X154842856Y-105042286D02*
X154804761Y-104966095D01*
X154804761Y-104966095D02*
X154728571Y-104889905D01*
X154728571Y-104889905D02*
X154614285Y-104851810D01*
X154614285Y-104851810D02*
X154538094Y-104851810D01*
X154538094Y-104851810D02*
X154423809Y-104889905D01*
X154423809Y-104889905D02*
X154385713Y-104928000D01*
X154080952Y-105613715D02*
X153966666Y-105651810D01*
X153966666Y-105651810D02*
X153776190Y-105651810D01*
X153776190Y-105651810D02*
X153699999Y-105613715D01*
X153699999Y-105613715D02*
X153661904Y-105575619D01*
X153661904Y-105575619D02*
X153623809Y-105499429D01*
X153623809Y-105499429D02*
X153623809Y-105423238D01*
X153623809Y-105423238D02*
X153661904Y-105347048D01*
X153661904Y-105347048D02*
X153699999Y-105308953D01*
X153699999Y-105308953D02*
X153776190Y-105270857D01*
X153776190Y-105270857D02*
X153928571Y-105232762D01*
X153928571Y-105232762D02*
X154004761Y-105194667D01*
X154004761Y-105194667D02*
X154042856Y-105156572D01*
X154042856Y-105156572D02*
X154080952Y-105080381D01*
X154080952Y-105080381D02*
X154080952Y-105004191D01*
X154080952Y-105004191D02*
X154042856Y-104928000D01*
X154042856Y-104928000D02*
X154004761Y-104889905D01*
X154004761Y-104889905D02*
X153928571Y-104851810D01*
X153928571Y-104851810D02*
X153738094Y-104851810D01*
X153738094Y-104851810D02*
X153623809Y-104889905D01*
X153280951Y-105232762D02*
X153014285Y-105232762D01*
X152899999Y-105651810D02*
X153280951Y-105651810D01*
X153280951Y-105651810D02*
X153280951Y-104851810D01*
X153280951Y-104851810D02*
X152899999Y-104851810D01*
X152633332Y-105956572D02*
X152595237Y-105918476D01*
X152595237Y-105918476D02*
X152519046Y-105804191D01*
X152519046Y-105804191D02*
X152480951Y-105728000D01*
X152480951Y-105728000D02*
X152442856Y-105613715D01*
X152442856Y-105613715D02*
X152404760Y-105423238D01*
X152404760Y-105423238D02*
X152404760Y-105270857D01*
X152404760Y-105270857D02*
X152442856Y-105080381D01*
X152442856Y-105080381D02*
X152480951Y-104966095D01*
X152480951Y-104966095D02*
X152519046Y-104889905D01*
X152519046Y-104889905D02*
X152595237Y-104775619D01*
X152595237Y-104775619D02*
X152633332Y-104737524D01*
X151985713Y-105613715D02*
X151985713Y-105651810D01*
X151985713Y-105651810D02*
X152023808Y-105728000D01*
X152023808Y-105728000D02*
X152061904Y-105766095D01*
X150576189Y-105575619D02*
X150614285Y-105613715D01*
X150614285Y-105613715D02*
X150728570Y-105651810D01*
X150728570Y-105651810D02*
X150804761Y-105651810D01*
X150804761Y-105651810D02*
X150919047Y-105613715D01*
X150919047Y-105613715D02*
X150995237Y-105537524D01*
X150995237Y-105537524D02*
X151033332Y-105461334D01*
X151033332Y-105461334D02*
X151071428Y-105308953D01*
X151071428Y-105308953D02*
X151071428Y-105194667D01*
X151071428Y-105194667D02*
X151033332Y-105042286D01*
X151033332Y-105042286D02*
X150995237Y-104966095D01*
X150995237Y-104966095D02*
X150919047Y-104889905D01*
X150919047Y-104889905D02*
X150804761Y-104851810D01*
X150804761Y-104851810D02*
X150728570Y-104851810D01*
X150728570Y-104851810D02*
X150614285Y-104889905D01*
X150614285Y-104889905D02*
X150576189Y-104928000D01*
X150233332Y-105651810D02*
X150233332Y-104851810D01*
X149890476Y-105613715D02*
X149776190Y-105651810D01*
X149776190Y-105651810D02*
X149585714Y-105651810D01*
X149585714Y-105651810D02*
X149509523Y-105613715D01*
X149509523Y-105613715D02*
X149471428Y-105575619D01*
X149471428Y-105575619D02*
X149433333Y-105499429D01*
X149433333Y-105499429D02*
X149433333Y-105423238D01*
X149433333Y-105423238D02*
X149471428Y-105347048D01*
X149471428Y-105347048D02*
X149509523Y-105308953D01*
X149509523Y-105308953D02*
X149585714Y-105270857D01*
X149585714Y-105270857D02*
X149738095Y-105232762D01*
X149738095Y-105232762D02*
X149814285Y-105194667D01*
X149814285Y-105194667D02*
X149852380Y-105156572D01*
X149852380Y-105156572D02*
X149890476Y-105080381D01*
X149890476Y-105080381D02*
X149890476Y-105004191D01*
X149890476Y-105004191D02*
X149852380Y-104928000D01*
X149852380Y-104928000D02*
X149814285Y-104889905D01*
X149814285Y-104889905D02*
X149738095Y-104851810D01*
X149738095Y-104851810D02*
X149547618Y-104851810D01*
X149547618Y-104851810D02*
X149433333Y-104889905D01*
X149128571Y-105613715D02*
X149014285Y-105651810D01*
X149014285Y-105651810D02*
X148823809Y-105651810D01*
X148823809Y-105651810D02*
X148747618Y-105613715D01*
X148747618Y-105613715D02*
X148709523Y-105575619D01*
X148709523Y-105575619D02*
X148671428Y-105499429D01*
X148671428Y-105499429D02*
X148671428Y-105423238D01*
X148671428Y-105423238D02*
X148709523Y-105347048D01*
X148709523Y-105347048D02*
X148747618Y-105308953D01*
X148747618Y-105308953D02*
X148823809Y-105270857D01*
X148823809Y-105270857D02*
X148976190Y-105232762D01*
X148976190Y-105232762D02*
X149052380Y-105194667D01*
X149052380Y-105194667D02*
X149090475Y-105156572D01*
X149090475Y-105156572D02*
X149128571Y-105080381D01*
X149128571Y-105080381D02*
X149128571Y-105004191D01*
X149128571Y-105004191D02*
X149090475Y-104928000D01*
X149090475Y-104928000D02*
X149052380Y-104889905D01*
X149052380Y-104889905D02*
X148976190Y-104851810D01*
X148976190Y-104851810D02*
X148785713Y-104851810D01*
X148785713Y-104851810D02*
X148671428Y-104889905D01*
X148328570Y-105651810D02*
X148328570Y-104851810D01*
X148328570Y-104851810D02*
X148023808Y-104851810D01*
X148023808Y-104851810D02*
X147947618Y-104889905D01*
X147947618Y-104889905D02*
X147909523Y-104928000D01*
X147909523Y-104928000D02*
X147871427Y-105004191D01*
X147871427Y-105004191D02*
X147871427Y-105118476D01*
X147871427Y-105118476D02*
X147909523Y-105194667D01*
X147909523Y-105194667D02*
X147947618Y-105232762D01*
X147947618Y-105232762D02*
X148023808Y-105270857D01*
X148023808Y-105270857D02*
X148328570Y-105270857D01*
X147528570Y-105347048D02*
X146919047Y-105347048D01*
X146538094Y-105651810D02*
X146538094Y-104851810D01*
X146195238Y-105613715D02*
X146080952Y-105651810D01*
X146080952Y-105651810D02*
X145890476Y-105651810D01*
X145890476Y-105651810D02*
X145814285Y-105613715D01*
X145814285Y-105613715D02*
X145776190Y-105575619D01*
X145776190Y-105575619D02*
X145738095Y-105499429D01*
X145738095Y-105499429D02*
X145738095Y-105423238D01*
X145738095Y-105423238D02*
X145776190Y-105347048D01*
X145776190Y-105347048D02*
X145814285Y-105308953D01*
X145814285Y-105308953D02*
X145890476Y-105270857D01*
X145890476Y-105270857D02*
X146042857Y-105232762D01*
X146042857Y-105232762D02*
X146119047Y-105194667D01*
X146119047Y-105194667D02*
X146157142Y-105156572D01*
X146157142Y-105156572D02*
X146195238Y-105080381D01*
X146195238Y-105080381D02*
X146195238Y-105004191D01*
X146195238Y-105004191D02*
X146157142Y-104928000D01*
X146157142Y-104928000D02*
X146119047Y-104889905D01*
X146119047Y-104889905D02*
X146042857Y-104851810D01*
X146042857Y-104851810D02*
X145852380Y-104851810D01*
X145852380Y-104851810D02*
X145738095Y-104889905D01*
X145433333Y-105613715D02*
X145319047Y-105651810D01*
X145319047Y-105651810D02*
X145128571Y-105651810D01*
X145128571Y-105651810D02*
X145052380Y-105613715D01*
X145052380Y-105613715D02*
X145014285Y-105575619D01*
X145014285Y-105575619D02*
X144976190Y-105499429D01*
X144976190Y-105499429D02*
X144976190Y-105423238D01*
X144976190Y-105423238D02*
X145014285Y-105347048D01*
X145014285Y-105347048D02*
X145052380Y-105308953D01*
X145052380Y-105308953D02*
X145128571Y-105270857D01*
X145128571Y-105270857D02*
X145280952Y-105232762D01*
X145280952Y-105232762D02*
X145357142Y-105194667D01*
X145357142Y-105194667D02*
X145395237Y-105156572D01*
X145395237Y-105156572D02*
X145433333Y-105080381D01*
X145433333Y-105080381D02*
X145433333Y-105004191D01*
X145433333Y-105004191D02*
X145395237Y-104928000D01*
X145395237Y-104928000D02*
X145357142Y-104889905D01*
X145357142Y-104889905D02*
X145280952Y-104851810D01*
X145280952Y-104851810D02*
X145090475Y-104851810D01*
X145090475Y-104851810D02*
X144976190Y-104889905D01*
X144633332Y-105232762D02*
X144366666Y-105232762D01*
X144252380Y-105651810D02*
X144633332Y-105651810D01*
X144633332Y-105651810D02*
X144633332Y-104851810D01*
X144633332Y-104851810D02*
X144252380Y-104851810D01*
X143909522Y-105651810D02*
X143909522Y-104851810D01*
X143909522Y-104851810D02*
X143604760Y-104851810D01*
X143604760Y-104851810D02*
X143528570Y-104889905D01*
X143528570Y-104889905D02*
X143490475Y-104928000D01*
X143490475Y-104928000D02*
X143452379Y-105004191D01*
X143452379Y-105004191D02*
X143452379Y-105118476D01*
X143452379Y-105118476D02*
X143490475Y-105194667D01*
X143490475Y-105194667D02*
X143528570Y-105232762D01*
X143528570Y-105232762D02*
X143604760Y-105270857D01*
X143604760Y-105270857D02*
X143909522Y-105270857D01*
X143071427Y-105613715D02*
X143071427Y-105651810D01*
X143071427Y-105651810D02*
X143109522Y-105728000D01*
X143109522Y-105728000D02*
X143147618Y-105766095D01*
X141661903Y-105575619D02*
X141699999Y-105613715D01*
X141699999Y-105613715D02*
X141814284Y-105651810D01*
X141814284Y-105651810D02*
X141890475Y-105651810D01*
X141890475Y-105651810D02*
X142004761Y-105613715D01*
X142004761Y-105613715D02*
X142080951Y-105537524D01*
X142080951Y-105537524D02*
X142119046Y-105461334D01*
X142119046Y-105461334D02*
X142157142Y-105308953D01*
X142157142Y-105308953D02*
X142157142Y-105194667D01*
X142157142Y-105194667D02*
X142119046Y-105042286D01*
X142119046Y-105042286D02*
X142080951Y-104966095D01*
X142080951Y-104966095D02*
X142004761Y-104889905D01*
X142004761Y-104889905D02*
X141890475Y-104851810D01*
X141890475Y-104851810D02*
X141814284Y-104851810D01*
X141814284Y-104851810D02*
X141699999Y-104889905D01*
X141699999Y-104889905D02*
X141661903Y-104928000D01*
X141319046Y-105651810D02*
X141319046Y-104851810D01*
X141319046Y-104851810D02*
X141014284Y-104851810D01*
X141014284Y-104851810D02*
X140938094Y-104889905D01*
X140938094Y-104889905D02*
X140899999Y-104928000D01*
X140899999Y-104928000D02*
X140861903Y-105004191D01*
X140861903Y-105004191D02*
X140861903Y-105118476D01*
X140861903Y-105118476D02*
X140899999Y-105194667D01*
X140899999Y-105194667D02*
X140938094Y-105232762D01*
X140938094Y-105232762D02*
X141014284Y-105270857D01*
X141014284Y-105270857D02*
X141319046Y-105270857D01*
X140519046Y-105651810D02*
X140519046Y-104851810D01*
X140519046Y-104851810D02*
X140214284Y-104851810D01*
X140214284Y-104851810D02*
X140138094Y-104889905D01*
X140138094Y-104889905D02*
X140099999Y-104928000D01*
X140099999Y-104928000D02*
X140061903Y-105004191D01*
X140061903Y-105004191D02*
X140061903Y-105118476D01*
X140061903Y-105118476D02*
X140099999Y-105194667D01*
X140099999Y-105194667D02*
X140138094Y-105232762D01*
X140138094Y-105232762D02*
X140214284Y-105270857D01*
X140214284Y-105270857D02*
X140519046Y-105270857D01*
X155071430Y-106177860D02*
X155147620Y-106139765D01*
X155147620Y-106139765D02*
X155261906Y-106139765D01*
X155261906Y-106139765D02*
X155376192Y-106177860D01*
X155376192Y-106177860D02*
X155452382Y-106254050D01*
X155452382Y-106254050D02*
X155490477Y-106330241D01*
X155490477Y-106330241D02*
X155528573Y-106482622D01*
X155528573Y-106482622D02*
X155528573Y-106596908D01*
X155528573Y-106596908D02*
X155490477Y-106749289D01*
X155490477Y-106749289D02*
X155452382Y-106825479D01*
X155452382Y-106825479D02*
X155376192Y-106901670D01*
X155376192Y-106901670D02*
X155261906Y-106939765D01*
X155261906Y-106939765D02*
X155185715Y-106939765D01*
X155185715Y-106939765D02*
X155071430Y-106901670D01*
X155071430Y-106901670D02*
X155033334Y-106863574D01*
X155033334Y-106863574D02*
X155033334Y-106596908D01*
X155033334Y-106596908D02*
X155185715Y-106596908D01*
X154690477Y-106939765D02*
X154690477Y-106406431D01*
X154690477Y-106558812D02*
X154652382Y-106482622D01*
X154652382Y-106482622D02*
X154614287Y-106444527D01*
X154614287Y-106444527D02*
X154538096Y-106406431D01*
X154538096Y-106406431D02*
X154461906Y-106406431D01*
X154195239Y-106939765D02*
X154195239Y-106406431D01*
X154195239Y-106139765D02*
X154233335Y-106177860D01*
X154233335Y-106177860D02*
X154195239Y-106215955D01*
X154195239Y-106215955D02*
X154157144Y-106177860D01*
X154157144Y-106177860D02*
X154195239Y-106139765D01*
X154195239Y-106139765D02*
X154195239Y-106215955D01*
X153928573Y-106406431D02*
X153623811Y-106406431D01*
X153814287Y-106939765D02*
X153814287Y-106254050D01*
X153814287Y-106254050D02*
X153776192Y-106177860D01*
X153776192Y-106177860D02*
X153700002Y-106139765D01*
X153700002Y-106139765D02*
X153623811Y-106139765D01*
X153471430Y-106406431D02*
X153166668Y-106406431D01*
X153357144Y-106939765D02*
X153357144Y-106254050D01*
X153357144Y-106254050D02*
X153319049Y-106177860D01*
X153319049Y-106177860D02*
X153242859Y-106139765D01*
X153242859Y-106139765D02*
X153166668Y-106139765D01*
X152900001Y-106939765D02*
X152900001Y-106406431D01*
X152900001Y-106139765D02*
X152938097Y-106177860D01*
X152938097Y-106177860D02*
X152900001Y-106215955D01*
X152900001Y-106215955D02*
X152861906Y-106177860D01*
X152861906Y-106177860D02*
X152900001Y-106139765D01*
X152900001Y-106139765D02*
X152900001Y-106215955D01*
X152519049Y-106406431D02*
X152519049Y-106939765D01*
X152519049Y-106482622D02*
X152480954Y-106444527D01*
X152480954Y-106444527D02*
X152404764Y-106406431D01*
X152404764Y-106406431D02*
X152290478Y-106406431D01*
X152290478Y-106406431D02*
X152214287Y-106444527D01*
X152214287Y-106444527D02*
X152176192Y-106520717D01*
X152176192Y-106520717D02*
X152176192Y-106939765D01*
X151452382Y-106406431D02*
X151452382Y-107054050D01*
X151452382Y-107054050D02*
X151490477Y-107130241D01*
X151490477Y-107130241D02*
X151528573Y-107168336D01*
X151528573Y-107168336D02*
X151604763Y-107206431D01*
X151604763Y-107206431D02*
X151719049Y-107206431D01*
X151719049Y-107206431D02*
X151795239Y-107168336D01*
X151452382Y-106901670D02*
X151528573Y-106939765D01*
X151528573Y-106939765D02*
X151680954Y-106939765D01*
X151680954Y-106939765D02*
X151757144Y-106901670D01*
X151757144Y-106901670D02*
X151795239Y-106863574D01*
X151795239Y-106863574D02*
X151833335Y-106787384D01*
X151833335Y-106787384D02*
X151833335Y-106558812D01*
X151833335Y-106558812D02*
X151795239Y-106482622D01*
X151795239Y-106482622D02*
X151757144Y-106444527D01*
X151757144Y-106444527D02*
X151680954Y-106406431D01*
X151680954Y-106406431D02*
X151528573Y-106406431D01*
X151528573Y-106406431D02*
X151452382Y-106444527D01*
X150576191Y-106139765D02*
X150119048Y-106139765D01*
X150347620Y-106939765D02*
X150347620Y-106139765D01*
X149547619Y-106901670D02*
X149623810Y-106939765D01*
X149623810Y-106939765D02*
X149776191Y-106939765D01*
X149776191Y-106939765D02*
X149852381Y-106901670D01*
X149852381Y-106901670D02*
X149890477Y-106825479D01*
X149890477Y-106825479D02*
X149890477Y-106520717D01*
X149890477Y-106520717D02*
X149852381Y-106444527D01*
X149852381Y-106444527D02*
X149776191Y-106406431D01*
X149776191Y-106406431D02*
X149623810Y-106406431D01*
X149623810Y-106406431D02*
X149547619Y-106444527D01*
X149547619Y-106444527D02*
X149509524Y-106520717D01*
X149509524Y-106520717D02*
X149509524Y-106596908D01*
X149509524Y-106596908D02*
X149890477Y-106673098D01*
X148823810Y-106901670D02*
X148900001Y-106939765D01*
X148900001Y-106939765D02*
X149052382Y-106939765D01*
X149052382Y-106939765D02*
X149128572Y-106901670D01*
X149128572Y-106901670D02*
X149166667Y-106863574D01*
X149166667Y-106863574D02*
X149204763Y-106787384D01*
X149204763Y-106787384D02*
X149204763Y-106558812D01*
X149204763Y-106558812D02*
X149166667Y-106482622D01*
X149166667Y-106482622D02*
X149128572Y-106444527D01*
X149128572Y-106444527D02*
X149052382Y-106406431D01*
X149052382Y-106406431D02*
X148900001Y-106406431D01*
X148900001Y-106406431D02*
X148823810Y-106444527D01*
X148480953Y-106939765D02*
X148480953Y-106139765D01*
X148138096Y-106939765D02*
X148138096Y-106520717D01*
X148138096Y-106520717D02*
X148176191Y-106444527D01*
X148176191Y-106444527D02*
X148252382Y-106406431D01*
X148252382Y-106406431D02*
X148366668Y-106406431D01*
X148366668Y-106406431D02*
X148442858Y-106444527D01*
X148442858Y-106444527D02*
X148480953Y-106482622D01*
X147757143Y-106406431D02*
X147757143Y-106939765D01*
X147757143Y-106482622D02*
X147719048Y-106444527D01*
X147719048Y-106444527D02*
X147642858Y-106406431D01*
X147642858Y-106406431D02*
X147528572Y-106406431D01*
X147528572Y-106406431D02*
X147452381Y-106444527D01*
X147452381Y-106444527D02*
X147414286Y-106520717D01*
X147414286Y-106520717D02*
X147414286Y-106939765D01*
X146919048Y-106939765D02*
X146995238Y-106901670D01*
X146995238Y-106901670D02*
X147033333Y-106863574D01*
X147033333Y-106863574D02*
X147071429Y-106787384D01*
X147071429Y-106787384D02*
X147071429Y-106558812D01*
X147071429Y-106558812D02*
X147033333Y-106482622D01*
X147033333Y-106482622D02*
X146995238Y-106444527D01*
X146995238Y-106444527D02*
X146919048Y-106406431D01*
X146919048Y-106406431D02*
X146804762Y-106406431D01*
X146804762Y-106406431D02*
X146728571Y-106444527D01*
X146728571Y-106444527D02*
X146690476Y-106482622D01*
X146690476Y-106482622D02*
X146652381Y-106558812D01*
X146652381Y-106558812D02*
X146652381Y-106787384D01*
X146652381Y-106787384D02*
X146690476Y-106863574D01*
X146690476Y-106863574D02*
X146728571Y-106901670D01*
X146728571Y-106901670D02*
X146804762Y-106939765D01*
X146804762Y-106939765D02*
X146919048Y-106939765D01*
X146195238Y-106939765D02*
X146271428Y-106901670D01*
X146271428Y-106901670D02*
X146309523Y-106825479D01*
X146309523Y-106825479D02*
X146309523Y-106139765D01*
X145776190Y-106939765D02*
X145852380Y-106901670D01*
X145852380Y-106901670D02*
X145890475Y-106863574D01*
X145890475Y-106863574D02*
X145928571Y-106787384D01*
X145928571Y-106787384D02*
X145928571Y-106558812D01*
X145928571Y-106558812D02*
X145890475Y-106482622D01*
X145890475Y-106482622D02*
X145852380Y-106444527D01*
X145852380Y-106444527D02*
X145776190Y-106406431D01*
X145776190Y-106406431D02*
X145661904Y-106406431D01*
X145661904Y-106406431D02*
X145585713Y-106444527D01*
X145585713Y-106444527D02*
X145547618Y-106482622D01*
X145547618Y-106482622D02*
X145509523Y-106558812D01*
X145509523Y-106558812D02*
X145509523Y-106787384D01*
X145509523Y-106787384D02*
X145547618Y-106863574D01*
X145547618Y-106863574D02*
X145585713Y-106901670D01*
X145585713Y-106901670D02*
X145661904Y-106939765D01*
X145661904Y-106939765D02*
X145776190Y-106939765D01*
X144823808Y-106406431D02*
X144823808Y-107054050D01*
X144823808Y-107054050D02*
X144861903Y-107130241D01*
X144861903Y-107130241D02*
X144899999Y-107168336D01*
X144899999Y-107168336D02*
X144976189Y-107206431D01*
X144976189Y-107206431D02*
X145090475Y-107206431D01*
X145090475Y-107206431D02*
X145166665Y-107168336D01*
X144823808Y-106901670D02*
X144899999Y-106939765D01*
X144899999Y-106939765D02*
X145052380Y-106939765D01*
X145052380Y-106939765D02*
X145128570Y-106901670D01*
X145128570Y-106901670D02*
X145166665Y-106863574D01*
X145166665Y-106863574D02*
X145204761Y-106787384D01*
X145204761Y-106787384D02*
X145204761Y-106558812D01*
X145204761Y-106558812D02*
X145166665Y-106482622D01*
X145166665Y-106482622D02*
X145128570Y-106444527D01*
X145128570Y-106444527D02*
X145052380Y-106406431D01*
X145052380Y-106406431D02*
X144899999Y-106406431D01*
X144899999Y-106406431D02*
X144823808Y-106444527D01*
X144519046Y-106406431D02*
X144328570Y-106939765D01*
X144138093Y-106406431D02*
X144328570Y-106939765D01*
X144328570Y-106939765D02*
X144404760Y-107130241D01*
X144404760Y-107130241D02*
X144442855Y-107168336D01*
X144442855Y-107168336D02*
X144519046Y-107206431D01*
X142842855Y-106939765D02*
X143223807Y-106939765D01*
X143223807Y-106939765D02*
X143223807Y-106139765D01*
X142195236Y-106939765D02*
X142576188Y-106939765D01*
X142576188Y-106939765D02*
X142576188Y-106139765D01*
X141471426Y-106863574D02*
X141509522Y-106901670D01*
X141509522Y-106901670D02*
X141623807Y-106939765D01*
X141623807Y-106939765D02*
X141699998Y-106939765D01*
X141699998Y-106939765D02*
X141814284Y-106901670D01*
X141814284Y-106901670D02*
X141890474Y-106825479D01*
X141890474Y-106825479D02*
X141928569Y-106749289D01*
X141928569Y-106749289D02*
X141966665Y-106596908D01*
X141966665Y-106596908D02*
X141966665Y-106482622D01*
X141966665Y-106482622D02*
X141928569Y-106330241D01*
X141928569Y-106330241D02*
X141890474Y-106254050D01*
X141890474Y-106254050D02*
X141814284Y-106177860D01*
X141814284Y-106177860D02*
X141699998Y-106139765D01*
X141699998Y-106139765D02*
X141623807Y-106139765D01*
X141623807Y-106139765D02*
X141509522Y-106177860D01*
X141509522Y-106177860D02*
X141471426Y-106215955D01*
X159814287Y-107694386D02*
X159661906Y-108227720D01*
X159661906Y-108227720D02*
X159509525Y-107846767D01*
X159509525Y-107846767D02*
X159357144Y-108227720D01*
X159357144Y-108227720D02*
X159204763Y-107694386D01*
X158976192Y-107694386D02*
X158823811Y-108227720D01*
X158823811Y-108227720D02*
X158671430Y-107846767D01*
X158671430Y-107846767D02*
X158519049Y-108227720D01*
X158519049Y-108227720D02*
X158366668Y-107694386D01*
X158138097Y-107694386D02*
X157985716Y-108227720D01*
X157985716Y-108227720D02*
X157833335Y-107846767D01*
X157833335Y-107846767D02*
X157680954Y-108227720D01*
X157680954Y-108227720D02*
X157528573Y-107694386D01*
X157223811Y-108151529D02*
X157185716Y-108189625D01*
X157185716Y-108189625D02*
X157223811Y-108227720D01*
X157223811Y-108227720D02*
X157261907Y-108189625D01*
X157261907Y-108189625D02*
X157223811Y-108151529D01*
X157223811Y-108151529D02*
X157223811Y-108227720D01*
X156500002Y-107694386D02*
X156500002Y-108342005D01*
X156500002Y-108342005D02*
X156538097Y-108418196D01*
X156538097Y-108418196D02*
X156576193Y-108456291D01*
X156576193Y-108456291D02*
X156652383Y-108494386D01*
X156652383Y-108494386D02*
X156766669Y-108494386D01*
X156766669Y-108494386D02*
X156842859Y-108456291D01*
X156500002Y-108189625D02*
X156576193Y-108227720D01*
X156576193Y-108227720D02*
X156728574Y-108227720D01*
X156728574Y-108227720D02*
X156804764Y-108189625D01*
X156804764Y-108189625D02*
X156842859Y-108151529D01*
X156842859Y-108151529D02*
X156880955Y-108075339D01*
X156880955Y-108075339D02*
X156880955Y-107846767D01*
X156880955Y-107846767D02*
X156842859Y-107770577D01*
X156842859Y-107770577D02*
X156804764Y-107732482D01*
X156804764Y-107732482D02*
X156728574Y-107694386D01*
X156728574Y-107694386D02*
X156576193Y-107694386D01*
X156576193Y-107694386D02*
X156500002Y-107732482D01*
X156119049Y-108227720D02*
X156119049Y-107694386D01*
X156119049Y-107427720D02*
X156157145Y-107465815D01*
X156157145Y-107465815D02*
X156119049Y-107503910D01*
X156119049Y-107503910D02*
X156080954Y-107465815D01*
X156080954Y-107465815D02*
X156119049Y-107427720D01*
X156119049Y-107427720D02*
X156119049Y-107503910D01*
X155852383Y-107694386D02*
X155547621Y-107694386D01*
X155738097Y-107427720D02*
X155738097Y-108113434D01*
X155738097Y-108113434D02*
X155700002Y-108189625D01*
X155700002Y-108189625D02*
X155623812Y-108227720D01*
X155623812Y-108227720D02*
X155547621Y-108227720D01*
X155280954Y-108227720D02*
X155280954Y-107427720D01*
X154938097Y-108227720D02*
X154938097Y-107808672D01*
X154938097Y-107808672D02*
X154976192Y-107732482D01*
X154976192Y-107732482D02*
X155052383Y-107694386D01*
X155052383Y-107694386D02*
X155166669Y-107694386D01*
X155166669Y-107694386D02*
X155242859Y-107732482D01*
X155242859Y-107732482D02*
X155280954Y-107770577D01*
X154214287Y-107694386D02*
X154214287Y-108227720D01*
X154557144Y-107694386D02*
X154557144Y-108113434D01*
X154557144Y-108113434D02*
X154519049Y-108189625D01*
X154519049Y-108189625D02*
X154442859Y-108227720D01*
X154442859Y-108227720D02*
X154328573Y-108227720D01*
X154328573Y-108227720D02*
X154252382Y-108189625D01*
X154252382Y-108189625D02*
X154214287Y-108151529D01*
X153833334Y-108227720D02*
X153833334Y-107427720D01*
X153833334Y-107732482D02*
X153757144Y-107694386D01*
X153757144Y-107694386D02*
X153604763Y-107694386D01*
X153604763Y-107694386D02*
X153528572Y-107732482D01*
X153528572Y-107732482D02*
X153490477Y-107770577D01*
X153490477Y-107770577D02*
X153452382Y-107846767D01*
X153452382Y-107846767D02*
X153452382Y-108075339D01*
X153452382Y-108075339D02*
X153490477Y-108151529D01*
X153490477Y-108151529D02*
X153528572Y-108189625D01*
X153528572Y-108189625D02*
X153604763Y-108227720D01*
X153604763Y-108227720D02*
X153757144Y-108227720D01*
X153757144Y-108227720D02*
X153833334Y-108189625D01*
X153109524Y-108151529D02*
X153071429Y-108189625D01*
X153071429Y-108189625D02*
X153109524Y-108227720D01*
X153109524Y-108227720D02*
X153147620Y-108189625D01*
X153147620Y-108189625D02*
X153109524Y-108151529D01*
X153109524Y-108151529D02*
X153109524Y-108227720D01*
X152385715Y-108189625D02*
X152461906Y-108227720D01*
X152461906Y-108227720D02*
X152614287Y-108227720D01*
X152614287Y-108227720D02*
X152690477Y-108189625D01*
X152690477Y-108189625D02*
X152728572Y-108151529D01*
X152728572Y-108151529D02*
X152766668Y-108075339D01*
X152766668Y-108075339D02*
X152766668Y-107846767D01*
X152766668Y-107846767D02*
X152728572Y-107770577D01*
X152728572Y-107770577D02*
X152690477Y-107732482D01*
X152690477Y-107732482D02*
X152614287Y-107694386D01*
X152614287Y-107694386D02*
X152461906Y-107694386D01*
X152461906Y-107694386D02*
X152385715Y-107732482D01*
X151928573Y-108227720D02*
X152004763Y-108189625D01*
X152004763Y-108189625D02*
X152042858Y-108151529D01*
X152042858Y-108151529D02*
X152080954Y-108075339D01*
X152080954Y-108075339D02*
X152080954Y-107846767D01*
X152080954Y-107846767D02*
X152042858Y-107770577D01*
X152042858Y-107770577D02*
X152004763Y-107732482D01*
X152004763Y-107732482D02*
X151928573Y-107694386D01*
X151928573Y-107694386D02*
X151814287Y-107694386D01*
X151814287Y-107694386D02*
X151738096Y-107732482D01*
X151738096Y-107732482D02*
X151700001Y-107770577D01*
X151700001Y-107770577D02*
X151661906Y-107846767D01*
X151661906Y-107846767D02*
X151661906Y-108075339D01*
X151661906Y-108075339D02*
X151700001Y-108151529D01*
X151700001Y-108151529D02*
X151738096Y-108189625D01*
X151738096Y-108189625D02*
X151814287Y-108227720D01*
X151814287Y-108227720D02*
X151928573Y-108227720D01*
X151319048Y-108227720D02*
X151319048Y-107694386D01*
X151319048Y-107770577D02*
X151280953Y-107732482D01*
X151280953Y-107732482D02*
X151204763Y-107694386D01*
X151204763Y-107694386D02*
X151090477Y-107694386D01*
X151090477Y-107694386D02*
X151014286Y-107732482D01*
X151014286Y-107732482D02*
X150976191Y-107808672D01*
X150976191Y-107808672D02*
X150976191Y-108227720D01*
X150976191Y-107808672D02*
X150938096Y-107732482D01*
X150938096Y-107732482D02*
X150861905Y-107694386D01*
X150861905Y-107694386D02*
X150747620Y-107694386D01*
X150747620Y-107694386D02*
X150671429Y-107732482D01*
X150671429Y-107732482D02*
X150633334Y-107808672D01*
X150633334Y-107808672D02*
X150633334Y-108227720D01*
X149680953Y-107389625D02*
X150366667Y-108418196D01*
X149452382Y-108189625D02*
X149338096Y-108227720D01*
X149338096Y-108227720D02*
X149147620Y-108227720D01*
X149147620Y-108227720D02*
X149071429Y-108189625D01*
X149071429Y-108189625D02*
X149033334Y-108151529D01*
X149033334Y-108151529D02*
X148995239Y-108075339D01*
X148995239Y-108075339D02*
X148995239Y-107999148D01*
X148995239Y-107999148D02*
X149033334Y-107922958D01*
X149033334Y-107922958D02*
X149071429Y-107884863D01*
X149071429Y-107884863D02*
X149147620Y-107846767D01*
X149147620Y-107846767D02*
X149300001Y-107808672D01*
X149300001Y-107808672D02*
X149376191Y-107770577D01*
X149376191Y-107770577D02*
X149414286Y-107732482D01*
X149414286Y-107732482D02*
X149452382Y-107656291D01*
X149452382Y-107656291D02*
X149452382Y-107580101D01*
X149452382Y-107580101D02*
X149414286Y-107503910D01*
X149414286Y-107503910D02*
X149376191Y-107465815D01*
X149376191Y-107465815D02*
X149300001Y-107427720D01*
X149300001Y-107427720D02*
X149109524Y-107427720D01*
X149109524Y-107427720D02*
X148995239Y-107465815D01*
X148766667Y-107694386D02*
X148461905Y-107694386D01*
X148652381Y-107427720D02*
X148652381Y-108113434D01*
X148652381Y-108113434D02*
X148614286Y-108189625D01*
X148614286Y-108189625D02*
X148538096Y-108227720D01*
X148538096Y-108227720D02*
X148461905Y-108227720D01*
X147852381Y-108227720D02*
X147852381Y-107808672D01*
X147852381Y-107808672D02*
X147890476Y-107732482D01*
X147890476Y-107732482D02*
X147966667Y-107694386D01*
X147966667Y-107694386D02*
X148119048Y-107694386D01*
X148119048Y-107694386D02*
X148195238Y-107732482D01*
X147852381Y-108189625D02*
X147928572Y-108227720D01*
X147928572Y-108227720D02*
X148119048Y-108227720D01*
X148119048Y-108227720D02*
X148195238Y-108189625D01*
X148195238Y-108189625D02*
X148233334Y-108113434D01*
X148233334Y-108113434D02*
X148233334Y-108037244D01*
X148233334Y-108037244D02*
X148195238Y-107961053D01*
X148195238Y-107961053D02*
X148119048Y-107922958D01*
X148119048Y-107922958D02*
X147928572Y-107922958D01*
X147928572Y-107922958D02*
X147852381Y-107884863D01*
X147471428Y-108227720D02*
X147471428Y-107427720D01*
X147471428Y-107732482D02*
X147395238Y-107694386D01*
X147395238Y-107694386D02*
X147242857Y-107694386D01*
X147242857Y-107694386D02*
X147166666Y-107732482D01*
X147166666Y-107732482D02*
X147128571Y-107770577D01*
X147128571Y-107770577D02*
X147090476Y-107846767D01*
X147090476Y-107846767D02*
X147090476Y-108075339D01*
X147090476Y-108075339D02*
X147128571Y-108151529D01*
X147128571Y-108151529D02*
X147166666Y-108189625D01*
X147166666Y-108189625D02*
X147242857Y-108227720D01*
X147242857Y-108227720D02*
X147395238Y-108227720D01*
X147395238Y-108227720D02*
X147471428Y-108189625D01*
X146747618Y-107922958D02*
X146138095Y-107922958D01*
X145299999Y-108227720D02*
X145566666Y-107846767D01*
X145757142Y-108227720D02*
X145757142Y-107427720D01*
X145757142Y-107427720D02*
X145452380Y-107427720D01*
X145452380Y-107427720D02*
X145376190Y-107465815D01*
X145376190Y-107465815D02*
X145338095Y-107503910D01*
X145338095Y-107503910D02*
X145299999Y-107580101D01*
X145299999Y-107580101D02*
X145299999Y-107694386D01*
X145299999Y-107694386D02*
X145338095Y-107770577D01*
X145338095Y-107770577D02*
X145376190Y-107808672D01*
X145376190Y-107808672D02*
X145452380Y-107846767D01*
X145452380Y-107846767D02*
X145757142Y-107846767D01*
X144614285Y-108227720D02*
X144614285Y-107808672D01*
X144614285Y-107808672D02*
X144652380Y-107732482D01*
X144652380Y-107732482D02*
X144728571Y-107694386D01*
X144728571Y-107694386D02*
X144880952Y-107694386D01*
X144880952Y-107694386D02*
X144957142Y-107732482D01*
X144614285Y-108189625D02*
X144690476Y-108227720D01*
X144690476Y-108227720D02*
X144880952Y-108227720D01*
X144880952Y-108227720D02*
X144957142Y-108189625D01*
X144957142Y-108189625D02*
X144995238Y-108113434D01*
X144995238Y-108113434D02*
X144995238Y-108037244D01*
X144995238Y-108037244D02*
X144957142Y-107961053D01*
X144957142Y-107961053D02*
X144880952Y-107922958D01*
X144880952Y-107922958D02*
X144690476Y-107922958D01*
X144690476Y-107922958D02*
X144614285Y-107884863D01*
X144233332Y-108227720D02*
X144233332Y-107427720D01*
X144233332Y-107732482D02*
X144157142Y-107694386D01*
X144157142Y-107694386D02*
X144004761Y-107694386D01*
X144004761Y-107694386D02*
X143928570Y-107732482D01*
X143928570Y-107732482D02*
X143890475Y-107770577D01*
X143890475Y-107770577D02*
X143852380Y-107846767D01*
X143852380Y-107846767D02*
X143852380Y-108075339D01*
X143852380Y-108075339D02*
X143890475Y-108151529D01*
X143890475Y-108151529D02*
X143928570Y-108189625D01*
X143928570Y-108189625D02*
X144004761Y-108227720D01*
X144004761Y-108227720D02*
X144157142Y-108227720D01*
X144157142Y-108227720D02*
X144233332Y-108189625D01*
X143509522Y-108227720D02*
X143509522Y-107427720D01*
X143509522Y-107732482D02*
X143433332Y-107694386D01*
X143433332Y-107694386D02*
X143280951Y-107694386D01*
X143280951Y-107694386D02*
X143204760Y-107732482D01*
X143204760Y-107732482D02*
X143166665Y-107770577D01*
X143166665Y-107770577D02*
X143128570Y-107846767D01*
X143128570Y-107846767D02*
X143128570Y-108075339D01*
X143128570Y-108075339D02*
X143166665Y-108151529D01*
X143166665Y-108151529D02*
X143204760Y-108189625D01*
X143204760Y-108189625D02*
X143280951Y-108227720D01*
X143280951Y-108227720D02*
X143433332Y-108227720D01*
X143433332Y-108227720D02*
X143509522Y-108189625D01*
X142785712Y-108227720D02*
X142785712Y-107694386D01*
X142785712Y-107427720D02*
X142823808Y-107465815D01*
X142823808Y-107465815D02*
X142785712Y-107503910D01*
X142785712Y-107503910D02*
X142747617Y-107465815D01*
X142747617Y-107465815D02*
X142785712Y-107427720D01*
X142785712Y-107427720D02*
X142785712Y-107503910D01*
X142519046Y-107694386D02*
X142214284Y-107694386D01*
X142404760Y-107427720D02*
X142404760Y-108113434D01*
X142404760Y-108113434D02*
X142366665Y-108189625D01*
X142366665Y-108189625D02*
X142290475Y-108227720D01*
X142290475Y-108227720D02*
X142214284Y-108227720D01*
X141947617Y-107922958D02*
X141338094Y-107922958D01*
X140499998Y-108151529D02*
X140538094Y-108189625D01*
X140538094Y-108189625D02*
X140652379Y-108227720D01*
X140652379Y-108227720D02*
X140728570Y-108227720D01*
X140728570Y-108227720D02*
X140842856Y-108189625D01*
X140842856Y-108189625D02*
X140919046Y-108113434D01*
X140919046Y-108113434D02*
X140957141Y-108037244D01*
X140957141Y-108037244D02*
X140995237Y-107884863D01*
X140995237Y-107884863D02*
X140995237Y-107770577D01*
X140995237Y-107770577D02*
X140957141Y-107618196D01*
X140957141Y-107618196D02*
X140919046Y-107542005D01*
X140919046Y-107542005D02*
X140842856Y-107465815D01*
X140842856Y-107465815D02*
X140728570Y-107427720D01*
X140728570Y-107427720D02*
X140652379Y-107427720D01*
X140652379Y-107427720D02*
X140538094Y-107465815D01*
X140538094Y-107465815D02*
X140499998Y-107503910D01*
X140042856Y-108227720D02*
X140119046Y-108189625D01*
X140119046Y-108189625D02*
X140157141Y-108151529D01*
X140157141Y-108151529D02*
X140195237Y-108075339D01*
X140195237Y-108075339D02*
X140195237Y-107846767D01*
X140195237Y-107846767D02*
X140157141Y-107770577D01*
X140157141Y-107770577D02*
X140119046Y-107732482D01*
X140119046Y-107732482D02*
X140042856Y-107694386D01*
X140042856Y-107694386D02*
X139928570Y-107694386D01*
X139928570Y-107694386D02*
X139852379Y-107732482D01*
X139852379Y-107732482D02*
X139814284Y-107770577D01*
X139814284Y-107770577D02*
X139776189Y-107846767D01*
X139776189Y-107846767D02*
X139776189Y-108075339D01*
X139776189Y-108075339D02*
X139814284Y-108151529D01*
X139814284Y-108151529D02*
X139852379Y-108189625D01*
X139852379Y-108189625D02*
X139928570Y-108227720D01*
X139928570Y-108227720D02*
X140042856Y-108227720D01*
X139090474Y-108227720D02*
X139090474Y-107427720D01*
X139090474Y-108189625D02*
X139166665Y-108227720D01*
X139166665Y-108227720D02*
X139319046Y-108227720D01*
X139319046Y-108227720D02*
X139395236Y-108189625D01*
X139395236Y-108189625D02*
X139433331Y-108151529D01*
X139433331Y-108151529D02*
X139471427Y-108075339D01*
X139471427Y-108075339D02*
X139471427Y-107846767D01*
X139471427Y-107846767D02*
X139433331Y-107770577D01*
X139433331Y-107770577D02*
X139395236Y-107732482D01*
X139395236Y-107732482D02*
X139319046Y-107694386D01*
X139319046Y-107694386D02*
X139166665Y-107694386D01*
X139166665Y-107694386D02*
X139090474Y-107732482D01*
X138709521Y-108227720D02*
X138709521Y-107694386D01*
X138709521Y-107427720D02*
X138747617Y-107465815D01*
X138747617Y-107465815D02*
X138709521Y-107503910D01*
X138709521Y-107503910D02*
X138671426Y-107465815D01*
X138671426Y-107465815D02*
X138709521Y-107427720D01*
X138709521Y-107427720D02*
X138709521Y-107503910D01*
X138328569Y-107694386D02*
X138328569Y-108227720D01*
X138328569Y-107770577D02*
X138290474Y-107732482D01*
X138290474Y-107732482D02*
X138214284Y-107694386D01*
X138214284Y-107694386D02*
X138099998Y-107694386D01*
X138099998Y-107694386D02*
X138023807Y-107732482D01*
X138023807Y-107732482D02*
X137985712Y-107808672D01*
X137985712Y-107808672D02*
X137985712Y-108227720D01*
X137261902Y-107694386D02*
X137261902Y-108342005D01*
X137261902Y-108342005D02*
X137299997Y-108418196D01*
X137299997Y-108418196D02*
X137338093Y-108456291D01*
X137338093Y-108456291D02*
X137414283Y-108494386D01*
X137414283Y-108494386D02*
X137528569Y-108494386D01*
X137528569Y-108494386D02*
X137604759Y-108456291D01*
X137261902Y-108189625D02*
X137338093Y-108227720D01*
X137338093Y-108227720D02*
X137490474Y-108227720D01*
X137490474Y-108227720D02*
X137566664Y-108189625D01*
X137566664Y-108189625D02*
X137604759Y-108151529D01*
X137604759Y-108151529D02*
X137642855Y-108075339D01*
X137642855Y-108075339D02*
X137642855Y-107846767D01*
X137642855Y-107846767D02*
X137604759Y-107770577D01*
X137604759Y-107770577D02*
X137566664Y-107732482D01*
X137566664Y-107732482D02*
X137490474Y-107694386D01*
X137490474Y-107694386D02*
X137338093Y-107694386D01*
X137338093Y-107694386D02*
X137261902Y-107732482D01*
D11*
X151333332Y-116414819D02*
X151333332Y-115414819D01*
X151333332Y-115414819D02*
X150952380Y-115414819D01*
X150952380Y-115414819D02*
X150857142Y-115462438D01*
X150857142Y-115462438D02*
X150809523Y-115510057D01*
X150809523Y-115510057D02*
X150761904Y-115605295D01*
X150761904Y-115605295D02*
X150761904Y-115748152D01*
X150761904Y-115748152D02*
X150809523Y-115843390D01*
X150809523Y-115843390D02*
X150857142Y-115891009D01*
X150857142Y-115891009D02*
X150952380Y-115938628D01*
X150952380Y-115938628D02*
X151333332Y-115938628D01*
X149999999Y-115891009D02*
X149857142Y-115938628D01*
X149857142Y-115938628D02*
X149809523Y-115986247D01*
X149809523Y-115986247D02*
X149761904Y-116081485D01*
X149761904Y-116081485D02*
X149761904Y-116224342D01*
X149761904Y-116224342D02*
X149809523Y-116319580D01*
X149809523Y-116319580D02*
X149857142Y-116367200D01*
X149857142Y-116367200D02*
X149952380Y-116414819D01*
X149952380Y-116414819D02*
X150333332Y-116414819D01*
X150333332Y-116414819D02*
X150333332Y-115414819D01*
X150333332Y-115414819D02*
X149999999Y-115414819D01*
X149999999Y-115414819D02*
X149904761Y-115462438D01*
X149904761Y-115462438D02*
X149857142Y-115510057D01*
X149857142Y-115510057D02*
X149809523Y-115605295D01*
X149809523Y-115605295D02*
X149809523Y-115700533D01*
X149809523Y-115700533D02*
X149857142Y-115795771D01*
X149857142Y-115795771D02*
X149904761Y-115843390D01*
X149904761Y-115843390D02*
X149999999Y-115891009D01*
X149999999Y-115891009D02*
X150333332Y-115891009D01*
X149380951Y-115510057D02*
X149333332Y-115462438D01*
X149333332Y-115462438D02*
X149238094Y-115414819D01*
X149238094Y-115414819D02*
X148999999Y-115414819D01*
X148999999Y-115414819D02*
X148904761Y-115462438D01*
X148904761Y-115462438D02*
X148857142Y-115510057D01*
X148857142Y-115510057D02*
X148809523Y-115605295D01*
X148809523Y-115605295D02*
X148809523Y-115700533D01*
X148809523Y-115700533D02*
X148857142Y-115843390D01*
X148857142Y-115843390D02*
X149428570Y-116414819D01*
X149428570Y-116414819D02*
X148809523Y-116414819D01*
X148380951Y-116033866D02*
X147619047Y-116033866D01*
X147142856Y-116414819D02*
X147142856Y-115414819D01*
X147142856Y-115414819D02*
X146761904Y-115414819D01*
X146761904Y-115414819D02*
X146666666Y-115462438D01*
X146666666Y-115462438D02*
X146619047Y-115510057D01*
X146619047Y-115510057D02*
X146571428Y-115605295D01*
X146571428Y-115605295D02*
X146571428Y-115748152D01*
X146571428Y-115748152D02*
X146619047Y-115843390D01*
X146619047Y-115843390D02*
X146666666Y-115891009D01*
X146666666Y-115891009D02*
X146761904Y-115938628D01*
X146761904Y-115938628D02*
X147142856Y-115938628D01*
X146190475Y-115510057D02*
X146142856Y-115462438D01*
X146142856Y-115462438D02*
X146047618Y-115414819D01*
X146047618Y-115414819D02*
X145809523Y-115414819D01*
X145809523Y-115414819D02*
X145714285Y-115462438D01*
X145714285Y-115462438D02*
X145666666Y-115510057D01*
X145666666Y-115510057D02*
X145619047Y-115605295D01*
X145619047Y-115605295D02*
X145619047Y-115700533D01*
X145619047Y-115700533D02*
X145666666Y-115843390D01*
X145666666Y-115843390D02*
X146238094Y-116414819D01*
X146238094Y-116414819D02*
X145619047Y-116414819D01*
X151333332Y-86494819D02*
X151333332Y-85494819D01*
X151333332Y-85494819D02*
X150952380Y-85494819D01*
X150952380Y-85494819D02*
X150857142Y-85542438D01*
X150857142Y-85542438D02*
X150809523Y-85590057D01*
X150809523Y-85590057D02*
X150761904Y-85685295D01*
X150761904Y-85685295D02*
X150761904Y-85828152D01*
X150761904Y-85828152D02*
X150809523Y-85923390D01*
X150809523Y-85923390D02*
X150857142Y-85971009D01*
X150857142Y-85971009D02*
X150952380Y-86018628D01*
X150952380Y-86018628D02*
X151333332Y-86018628D01*
X149999999Y-85971009D02*
X149857142Y-86018628D01*
X149857142Y-86018628D02*
X149809523Y-86066247D01*
X149809523Y-86066247D02*
X149761904Y-86161485D01*
X149761904Y-86161485D02*
X149761904Y-86304342D01*
X149761904Y-86304342D02*
X149809523Y-86399580D01*
X149809523Y-86399580D02*
X149857142Y-86447200D01*
X149857142Y-86447200D02*
X149952380Y-86494819D01*
X149952380Y-86494819D02*
X150333332Y-86494819D01*
X150333332Y-86494819D02*
X150333332Y-85494819D01*
X150333332Y-85494819D02*
X149999999Y-85494819D01*
X149999999Y-85494819D02*
X149904761Y-85542438D01*
X149904761Y-85542438D02*
X149857142Y-85590057D01*
X149857142Y-85590057D02*
X149809523Y-85685295D01*
X149809523Y-85685295D02*
X149809523Y-85780533D01*
X149809523Y-85780533D02*
X149857142Y-85875771D01*
X149857142Y-85875771D02*
X149904761Y-85923390D01*
X149904761Y-85923390D02*
X149999999Y-85971009D01*
X149999999Y-85971009D02*
X150333332Y-85971009D01*
X149380951Y-85590057D02*
X149333332Y-85542438D01*
X149333332Y-85542438D02*
X149238094Y-85494819D01*
X149238094Y-85494819D02*
X148999999Y-85494819D01*
X148999999Y-85494819D02*
X148904761Y-85542438D01*
X148904761Y-85542438D02*
X148857142Y-85590057D01*
X148857142Y-85590057D02*
X148809523Y-85685295D01*
X148809523Y-85685295D02*
X148809523Y-85780533D01*
X148809523Y-85780533D02*
X148857142Y-85923390D01*
X148857142Y-85923390D02*
X149428570Y-86494819D01*
X149428570Y-86494819D02*
X148809523Y-86494819D01*
X148380951Y-86113866D02*
X147619047Y-86113866D01*
X147142856Y-86494819D02*
X147142856Y-85494819D01*
X147142856Y-85494819D02*
X146761904Y-85494819D01*
X146761904Y-85494819D02*
X146666666Y-85542438D01*
X146666666Y-85542438D02*
X146619047Y-85590057D01*
X146619047Y-85590057D02*
X146571428Y-85685295D01*
X146571428Y-85685295D02*
X146571428Y-85828152D01*
X146571428Y-85828152D02*
X146619047Y-85923390D01*
X146619047Y-85923390D02*
X146666666Y-85971009D01*
X146666666Y-85971009D02*
X146761904Y-86018628D01*
X146761904Y-86018628D02*
X147142856Y-86018628D01*
X145619047Y-86494819D02*
X146190475Y-86494819D01*
X145904761Y-86494819D02*
X145904761Y-85494819D01*
X145904761Y-85494819D02*
X145999999Y-85637676D01*
X145999999Y-85637676D02*
X146095237Y-85732914D01*
X146095237Y-85732914D02*
X146190475Y-85780533D01*
M02*
