M48
; DRILL file {KiCad 9.0.2+dfsg-1} date 2026-05-22T15:58:13-0400
; FORMAT={-:-/ absolute / metric / decimal}
; #@! TF.CreationDate,2026-05-22T15:58:13-04:00
; #@! TF.GenerationSoftware,Kicad,Pcbnew,9.0.2+dfsg-1
; #@! TF.FileFunction,Plated,1,4,PTH
FMAT,2
METRIC
; #@! TA.AperFunction,Plated,PTH,ComponentDrill
T1C1.000
%
G90
G05
T1
X123.0Y-116.0
X125.5Y-116.0
X126.91Y-88.77
X126.91Y-91.31
X126.91Y-118.69
X126.91Y-121.23
X128.0Y-116.0
X129.45Y-88.77
X129.45Y-91.31
X129.45Y-118.69
X129.45Y-121.23
X130.5Y-116.0
X131.99Y-88.77
X131.99Y-91.31
X131.99Y-118.69
X131.99Y-121.23
X134.53Y-88.77
X134.53Y-91.31
X134.53Y-118.69
X134.53Y-121.23
X137.07Y-88.77
X137.07Y-91.31
X137.07Y-118.69
X137.07Y-121.23
X139.61Y-88.77
X139.61Y-91.31
X139.61Y-118.69
X139.61Y-121.23
X142.15Y-88.77
X142.15Y-91.31
X142.15Y-118.69
X142.15Y-121.23
X144.69Y-88.77
X144.69Y-91.31
X144.69Y-118.69
X144.69Y-121.23
X147.23Y-88.77
X147.23Y-91.31
X147.23Y-118.69
X147.23Y-121.23
X149.77Y-88.77
X149.77Y-91.31
X149.77Y-118.69
X149.77Y-121.23
X152.31Y-88.77
X152.31Y-91.31
X152.31Y-118.69
X152.31Y-121.23
X154.85Y-88.77
X154.85Y-91.31
X154.85Y-118.69
X154.85Y-121.23
X157.39Y-88.77
X157.39Y-91.31
X157.39Y-118.69
X157.39Y-121.23
X159.93Y-88.77
X159.93Y-91.31
X159.93Y-118.69
X159.93Y-121.23
X162.47Y-88.77
X162.47Y-91.31
X162.47Y-118.69
X162.47Y-121.23
X165.01Y-88.77
X165.01Y-91.31
X165.01Y-118.69
X165.01Y-121.23
X167.55Y-88.77
X167.55Y-91.31
X167.55Y-118.69
X167.55Y-121.23
X170.09Y-88.77
X170.09Y-91.31
X170.09Y-118.69
X170.09Y-121.23
X174.0Y-95.46
X174.0Y-98.0
X174.0Y-100.54
X174.0Y-103.08
X174.0Y-105.62
X174.0Y-108.16
X174.0Y-110.7
X174.0Y-113.24
M30
