G04 #@! TF.GenerationSoftware,KiCad,Pcbnew,9.0.2+dfsg-1*
G04 #@! TF.CreationDate,2026-05-22T15:58:04-04:00*
G04 #@! TF.ProjectId,CAPE-A-1,43415045-2d41-42d3-912e-6b696361645f,M*
G04 #@! TF.SameCoordinates,Original*
G04 #@! TF.FileFunction,Legend,Top*
G04 #@! TF.FilePolarity,Positive*
%FSLAX46Y46*%
G04 Gerber Fmt 4.6, Leading zero omitted, Abs format (unit mm)*
G04 Created by KiCad (PCBNEW 9.0.2+dfsg-1) date 2026-05-22 15:58:04*
%MOMM*%
%LPD*%
G01*
G04 APERTURE LIST*
%ADD10C,0.150000*%
G04 APERTURE END LIST*
D10*
X125247620Y-95786104D02*
X125209524Y-95824200D01*
X125209524Y-95824200D02*
X125095239Y-95862295D01*
X125095239Y-95862295D02*
X125019048Y-95862295D01*
X125019048Y-95862295D02*
X124904762Y-95824200D01*
X124904762Y-95824200D02*
X124828572Y-95748009D01*
X124828572Y-95748009D02*
X124790477Y-95671819D01*
X124790477Y-95671819D02*
X124752381Y-95519438D01*
X124752381Y-95519438D02*
X124752381Y-95405152D01*
X124752381Y-95405152D02*
X124790477Y-95252771D01*
X124790477Y-95252771D02*
X124828572Y-95176580D01*
X124828572Y-95176580D02*
X124904762Y-95100390D01*
X124904762Y-95100390D02*
X125019048Y-95062295D01*
X125019048Y-95062295D02*
X125095239Y-95062295D01*
X125095239Y-95062295D02*
X125209524Y-95100390D01*
X125209524Y-95100390D02*
X125247620Y-95138485D01*
X125552381Y-95633723D02*
X125933334Y-95633723D01*
X125476191Y-95862295D02*
X125742858Y-95062295D01*
X125742858Y-95062295D02*
X126009524Y-95862295D01*
X126276191Y-95862295D02*
X126276191Y-95062295D01*
X126276191Y-95062295D02*
X126733334Y-95862295D01*
X126733334Y-95862295D02*
X126733334Y-95062295D01*
X127114286Y-95557533D02*
X127723810Y-95557533D01*
X128371428Y-95443247D02*
X128104762Y-95443247D01*
X128104762Y-95862295D02*
X128104762Y-95062295D01*
X128104762Y-95062295D02*
X128485714Y-95062295D01*
X128790476Y-95862295D02*
X128790476Y-95062295D01*
X128790476Y-95062295D02*
X128980952Y-95062295D01*
X128980952Y-95062295D02*
X129095238Y-95100390D01*
X129095238Y-95100390D02*
X129171428Y-95176580D01*
X129171428Y-95176580D02*
X129209523Y-95252771D01*
X129209523Y-95252771D02*
X129247619Y-95405152D01*
X129247619Y-95405152D02*
X129247619Y-95519438D01*
X129247619Y-95519438D02*
X129209523Y-95671819D01*
X129209523Y-95671819D02*
X129171428Y-95748009D01*
X129171428Y-95748009D02*
X129095238Y-95824200D01*
X129095238Y-95824200D02*
X128980952Y-95862295D01*
X128980952Y-95862295D02*
X128790476Y-95862295D01*
X125723809Y-109443247D02*
X125990475Y-109443247D01*
X126104761Y-109862295D02*
X125723809Y-109862295D01*
X125723809Y-109862295D02*
X125723809Y-109062295D01*
X125723809Y-109062295D02*
X126104761Y-109062295D01*
X126333333Y-109062295D02*
X126790476Y-109062295D01*
X126561904Y-109862295D02*
X126561904Y-109062295D01*
X127057143Y-109862295D02*
X127057143Y-109062295D01*
X127057143Y-109443247D02*
X127514286Y-109443247D01*
X127514286Y-109862295D02*
X127514286Y-109062295D01*
X128314285Y-109862295D02*
X127857142Y-109862295D01*
X128085714Y-109862295D02*
X128085714Y-109062295D01*
X128085714Y-109062295D02*
X128009523Y-109176580D01*
X128009523Y-109176580D02*
X127933333Y-109252771D01*
X127933333Y-109252771D02*
X127857142Y-109290866D01*
X152600390Y-103071428D02*
X152562295Y-103147618D01*
X152562295Y-103147618D02*
X152562295Y-103261904D01*
X152562295Y-103261904D02*
X152600390Y-103376190D01*
X152600390Y-103376190D02*
X152676580Y-103452380D01*
X152676580Y-103452380D02*
X152752771Y-103490475D01*
X152752771Y-103490475D02*
X152905152Y-103528571D01*
X152905152Y-103528571D02*
X153019438Y-103528571D01*
X153019438Y-103528571D02*
X153171819Y-103490475D01*
X153171819Y-103490475D02*
X153248009Y-103452380D01*
X153248009Y-103452380D02*
X153324200Y-103376190D01*
X153324200Y-103376190D02*
X153362295Y-103261904D01*
X153362295Y-103261904D02*
X153362295Y-103185713D01*
X153362295Y-103185713D02*
X153324200Y-103071428D01*
X153324200Y-103071428D02*
X153286104Y-103033332D01*
X153286104Y-103033332D02*
X153019438Y-103033332D01*
X153019438Y-103033332D02*
X153019438Y-103185713D01*
X153362295Y-102690475D02*
X152562295Y-102690475D01*
X152562295Y-102690475D02*
X152562295Y-102385713D01*
X152562295Y-102385713D02*
X152600390Y-102309523D01*
X152600390Y-102309523D02*
X152638485Y-102271428D01*
X152638485Y-102271428D02*
X152714676Y-102233332D01*
X152714676Y-102233332D02*
X152828961Y-102233332D01*
X152828961Y-102233332D02*
X152905152Y-102271428D01*
X152905152Y-102271428D02*
X152943247Y-102309523D01*
X152943247Y-102309523D02*
X152981342Y-102385713D01*
X152981342Y-102385713D02*
X152981342Y-102690475D01*
X153324200Y-101928571D02*
X153362295Y-101814285D01*
X153362295Y-101814285D02*
X153362295Y-101623809D01*
X153362295Y-101623809D02*
X153324200Y-101547618D01*
X153324200Y-101547618D02*
X153286104Y-101509523D01*
X153286104Y-101509523D02*
X153209914Y-101471428D01*
X153209914Y-101471428D02*
X153133723Y-101471428D01*
X153133723Y-101471428D02*
X153057533Y-101509523D01*
X153057533Y-101509523D02*
X153019438Y-101547618D01*
X153019438Y-101547618D02*
X152981342Y-101623809D01*
X152981342Y-101623809D02*
X152943247Y-101776190D01*
X152943247Y-101776190D02*
X152905152Y-101852380D01*
X152905152Y-101852380D02*
X152867057Y-101890475D01*
X152867057Y-101890475D02*
X152790866Y-101928571D01*
X152790866Y-101928571D02*
X152714676Y-101928571D01*
X152714676Y-101928571D02*
X152638485Y-101890475D01*
X152638485Y-101890475D02*
X152600390Y-101852380D01*
X152600390Y-101852380D02*
X152562295Y-101776190D01*
X152562295Y-101776190D02*
X152562295Y-101585713D01*
X152562295Y-101585713D02*
X152600390Y-101471428D01*
X131943247Y-105933332D02*
X131943247Y-105666666D01*
X132362295Y-105552380D02*
X132362295Y-105933332D01*
X132362295Y-105933332D02*
X131562295Y-105933332D01*
X131562295Y-105933332D02*
X131562295Y-105552380D01*
X131562295Y-105323808D02*
X131562295Y-104866665D01*
X132362295Y-105095237D02*
X131562295Y-105095237D01*
X132362295Y-104599998D02*
X131562295Y-104599998D01*
X131943247Y-104599998D02*
X131943247Y-104142855D01*
X132362295Y-104142855D02*
X131562295Y-104142855D01*
X132362295Y-103342856D02*
X132362295Y-103799999D01*
X132362295Y-103571427D02*
X131562295Y-103571427D01*
X131562295Y-103571427D02*
X131676580Y-103647618D01*
X131676580Y-103647618D02*
X131752771Y-103723808D01*
X131752771Y-103723808D02*
X131790866Y-103799999D01*
X132057533Y-102999998D02*
X132057533Y-102390475D01*
X132362295Y-102009522D02*
X131562295Y-102009522D01*
X131562295Y-102009522D02*
X131562295Y-101704760D01*
X131562295Y-101704760D02*
X131600390Y-101628570D01*
X131600390Y-101628570D02*
X131638485Y-101590475D01*
X131638485Y-101590475D02*
X131714676Y-101552379D01*
X131714676Y-101552379D02*
X131828961Y-101552379D01*
X131828961Y-101552379D02*
X131905152Y-101590475D01*
X131905152Y-101590475D02*
X131943247Y-101628570D01*
X131943247Y-101628570D02*
X131981342Y-101704760D01*
X131981342Y-101704760D02*
X131981342Y-102009522D01*
X132362295Y-101209522D02*
X131562295Y-101209522D01*
X131943247Y-101209522D02*
X131943247Y-100752379D01*
X132362295Y-100752379D02*
X131562295Y-100752379D01*
X131981342Y-100219046D02*
X132362295Y-100219046D01*
X131562295Y-100485713D02*
X131981342Y-100219046D01*
X131981342Y-100219046D02*
X131562295Y-99952380D01*
X146447618Y-109862295D02*
X145990475Y-109862295D01*
X146219047Y-109862295D02*
X146219047Y-109062295D01*
X146219047Y-109062295D02*
X146142856Y-109176580D01*
X146142856Y-109176580D02*
X146066666Y-109252771D01*
X146066666Y-109252771D02*
X145990475Y-109290866D01*
X147171428Y-109062295D02*
X146790476Y-109062295D01*
X146790476Y-109062295D02*
X146752380Y-109443247D01*
X146752380Y-109443247D02*
X146790476Y-109405152D01*
X146790476Y-109405152D02*
X146866666Y-109367057D01*
X146866666Y-109367057D02*
X147057142Y-109367057D01*
X147057142Y-109367057D02*
X147133333Y-109405152D01*
X147133333Y-109405152D02*
X147171428Y-109443247D01*
X147171428Y-109443247D02*
X147209523Y-109519438D01*
X147209523Y-109519438D02*
X147209523Y-109709914D01*
X147209523Y-109709914D02*
X147171428Y-109786104D01*
X147171428Y-109786104D02*
X147133333Y-109824200D01*
X147133333Y-109824200D02*
X147057142Y-109862295D01*
X147057142Y-109862295D02*
X146866666Y-109862295D01*
X146866666Y-109862295D02*
X146790476Y-109824200D01*
X146790476Y-109824200D02*
X146752380Y-109786104D01*
X147933333Y-109062295D02*
X147552381Y-109062295D01*
X147552381Y-109062295D02*
X147514285Y-109443247D01*
X147514285Y-109443247D02*
X147552381Y-109405152D01*
X147552381Y-109405152D02*
X147628571Y-109367057D01*
X147628571Y-109367057D02*
X147819047Y-109367057D01*
X147819047Y-109367057D02*
X147895238Y-109405152D01*
X147895238Y-109405152D02*
X147933333Y-109443247D01*
X147933333Y-109443247D02*
X147971428Y-109519438D01*
X147971428Y-109519438D02*
X147971428Y-109709914D01*
X147971428Y-109709914D02*
X147933333Y-109786104D01*
X147933333Y-109786104D02*
X147895238Y-109824200D01*
X147895238Y-109824200D02*
X147819047Y-109862295D01*
X147819047Y-109862295D02*
X147628571Y-109862295D01*
X147628571Y-109862295D02*
X147552381Y-109824200D01*
X147552381Y-109824200D02*
X147514285Y-109786104D01*
X148238095Y-109062295D02*
X148733333Y-109062295D01*
X148733333Y-109062295D02*
X148466667Y-109367057D01*
X148466667Y-109367057D02*
X148580952Y-109367057D01*
X148580952Y-109367057D02*
X148657143Y-109405152D01*
X148657143Y-109405152D02*
X148695238Y-109443247D01*
X148695238Y-109443247D02*
X148733333Y-109519438D01*
X148733333Y-109519438D02*
X148733333Y-109709914D01*
X148733333Y-109709914D02*
X148695238Y-109786104D01*
X148695238Y-109786104D02*
X148657143Y-109824200D01*
X148657143Y-109824200D02*
X148580952Y-109862295D01*
X148580952Y-109862295D02*
X148352381Y-109862295D01*
X148352381Y-109862295D02*
X148276190Y-109824200D01*
X148276190Y-109824200D02*
X148238095Y-109786104D01*
X149076191Y-109557533D02*
X149685715Y-109557533D01*
X150066667Y-109862295D02*
X150066667Y-109062295D01*
X150066667Y-109062295D02*
X150257143Y-109062295D01*
X150257143Y-109062295D02*
X150371429Y-109100390D01*
X150371429Y-109100390D02*
X150447619Y-109176580D01*
X150447619Y-109176580D02*
X150485714Y-109252771D01*
X150485714Y-109252771D02*
X150523810Y-109405152D01*
X150523810Y-109405152D02*
X150523810Y-109519438D01*
X150523810Y-109519438D02*
X150485714Y-109671819D01*
X150485714Y-109671819D02*
X150447619Y-109748009D01*
X150447619Y-109748009D02*
X150371429Y-109824200D01*
X150371429Y-109824200D02*
X150257143Y-109862295D01*
X150257143Y-109862295D02*
X150066667Y-109862295D01*
X151323810Y-109862295D02*
X151057143Y-109481342D01*
X150866667Y-109862295D02*
X150866667Y-109062295D01*
X150866667Y-109062295D02*
X151171429Y-109062295D01*
X151171429Y-109062295D02*
X151247619Y-109100390D01*
X151247619Y-109100390D02*
X151285714Y-109138485D01*
X151285714Y-109138485D02*
X151323810Y-109214676D01*
X151323810Y-109214676D02*
X151323810Y-109328961D01*
X151323810Y-109328961D02*
X151285714Y-109405152D01*
X151285714Y-109405152D02*
X151247619Y-109443247D01*
X151247619Y-109443247D02*
X151171429Y-109481342D01*
X151171429Y-109481342D02*
X150866667Y-109481342D01*
X151552381Y-109062295D02*
X151819048Y-109862295D01*
X151819048Y-109862295D02*
X152085714Y-109062295D01*
X125598809Y-113943247D02*
X125865475Y-113943247D01*
X125979761Y-114362295D02*
X125598809Y-114362295D01*
X125598809Y-114362295D02*
X125598809Y-113562295D01*
X125598809Y-113562295D02*
X125979761Y-113562295D01*
X126208333Y-113562295D02*
X126665476Y-113562295D01*
X126436904Y-114362295D02*
X126436904Y-113562295D01*
X126932143Y-114362295D02*
X126932143Y-113562295D01*
X126932143Y-113943247D02*
X127389286Y-113943247D01*
X127389286Y-114362295D02*
X127389286Y-113562295D01*
X127732142Y-113638485D02*
X127770238Y-113600390D01*
X127770238Y-113600390D02*
X127846428Y-113562295D01*
X127846428Y-113562295D02*
X128036904Y-113562295D01*
X128036904Y-113562295D02*
X128113095Y-113600390D01*
X128113095Y-113600390D02*
X128151190Y-113638485D01*
X128151190Y-113638485D02*
X128189285Y-113714676D01*
X128189285Y-113714676D02*
X128189285Y-113790866D01*
X128189285Y-113790866D02*
X128151190Y-113905152D01*
X128151190Y-113905152D02*
X127694047Y-114362295D01*
X127694047Y-114362295D02*
X128189285Y-114362295D01*
X168600390Y-97638094D02*
X168562295Y-97714284D01*
X168562295Y-97714284D02*
X168562295Y-97828570D01*
X168562295Y-97828570D02*
X168600390Y-97942856D01*
X168600390Y-97942856D02*
X168676580Y-98019046D01*
X168676580Y-98019046D02*
X168752771Y-98057141D01*
X168752771Y-98057141D02*
X168905152Y-98095237D01*
X168905152Y-98095237D02*
X169019438Y-98095237D01*
X169019438Y-98095237D02*
X169171819Y-98057141D01*
X169171819Y-98057141D02*
X169248009Y-98019046D01*
X169248009Y-98019046D02*
X169324200Y-97942856D01*
X169324200Y-97942856D02*
X169362295Y-97828570D01*
X169362295Y-97828570D02*
X169362295Y-97752379D01*
X169362295Y-97752379D02*
X169324200Y-97638094D01*
X169324200Y-97638094D02*
X169286104Y-97599998D01*
X169286104Y-97599998D02*
X169019438Y-97599998D01*
X169019438Y-97599998D02*
X169019438Y-97752379D01*
X169362295Y-97257141D02*
X168562295Y-97257141D01*
X168562295Y-97257141D02*
X168562295Y-96952379D01*
X168562295Y-96952379D02*
X168600390Y-96876189D01*
X168600390Y-96876189D02*
X168638485Y-96838094D01*
X168638485Y-96838094D02*
X168714676Y-96799998D01*
X168714676Y-96799998D02*
X168828961Y-96799998D01*
X168828961Y-96799998D02*
X168905152Y-96838094D01*
X168905152Y-96838094D02*
X168943247Y-96876189D01*
X168943247Y-96876189D02*
X168981342Y-96952379D01*
X168981342Y-96952379D02*
X168981342Y-97257141D01*
X169362295Y-96457141D02*
X168562295Y-96457141D01*
X168562295Y-95923808D02*
X168562295Y-95771427D01*
X168562295Y-95771427D02*
X168600390Y-95695237D01*
X168600390Y-95695237D02*
X168676580Y-95619046D01*
X168676580Y-95619046D02*
X168828961Y-95580951D01*
X168828961Y-95580951D02*
X169095628Y-95580951D01*
X169095628Y-95580951D02*
X169248009Y-95619046D01*
X169248009Y-95619046D02*
X169324200Y-95695237D01*
X169324200Y-95695237D02*
X169362295Y-95771427D01*
X169362295Y-95771427D02*
X169362295Y-95923808D01*
X169362295Y-95923808D02*
X169324200Y-95999999D01*
X169324200Y-95999999D02*
X169248009Y-96076189D01*
X169248009Y-96076189D02*
X169095628Y-96114285D01*
X169095628Y-96114285D02*
X168828961Y-96114285D01*
X168828961Y-96114285D02*
X168676580Y-96076189D01*
X168676580Y-96076189D02*
X168600390Y-95999999D01*
X168600390Y-95999999D02*
X168562295Y-95923808D01*
X169057533Y-95238094D02*
X169057533Y-94628571D01*
X168943247Y-93980952D02*
X168943247Y-94247618D01*
X169362295Y-94247618D02*
X168562295Y-94247618D01*
X168562295Y-94247618D02*
X168562295Y-93866666D01*
X124200000Y-104862295D02*
X124200000Y-104062295D01*
X124200000Y-104062295D02*
X124466666Y-104633723D01*
X124466666Y-104633723D02*
X124733333Y-104062295D01*
X124733333Y-104062295D02*
X124733333Y-104862295D01*
X125114286Y-104862295D02*
X125114286Y-104062295D01*
X125876190Y-104862295D02*
X125495238Y-104862295D01*
X125495238Y-104862295D02*
X125495238Y-104062295D01*
X126142857Y-104557533D02*
X126752381Y-104557533D01*
X127552380Y-104862295D02*
X127095237Y-104862295D01*
X127323809Y-104862295D02*
X127323809Y-104062295D01*
X127323809Y-104062295D02*
X127247618Y-104176580D01*
X127247618Y-104176580D02*
X127171428Y-104252771D01*
X127171428Y-104252771D02*
X127095237Y-104290866D01*
X128276190Y-104062295D02*
X127895238Y-104062295D01*
X127895238Y-104062295D02*
X127857142Y-104443247D01*
X127857142Y-104443247D02*
X127895238Y-104405152D01*
X127895238Y-104405152D02*
X127971428Y-104367057D01*
X127971428Y-104367057D02*
X128161904Y-104367057D01*
X128161904Y-104367057D02*
X128238095Y-104405152D01*
X128238095Y-104405152D02*
X128276190Y-104443247D01*
X128276190Y-104443247D02*
X128314285Y-104519438D01*
X128314285Y-104519438D02*
X128314285Y-104709914D01*
X128314285Y-104709914D02*
X128276190Y-104786104D01*
X128276190Y-104786104D02*
X128238095Y-104824200D01*
X128238095Y-104824200D02*
X128161904Y-104862295D01*
X128161904Y-104862295D02*
X127971428Y-104862295D01*
X127971428Y-104862295D02*
X127895238Y-104824200D01*
X127895238Y-104824200D02*
X127857142Y-104786104D01*
X129038095Y-104062295D02*
X128657143Y-104062295D01*
X128657143Y-104062295D02*
X128619047Y-104443247D01*
X128619047Y-104443247D02*
X128657143Y-104405152D01*
X128657143Y-104405152D02*
X128733333Y-104367057D01*
X128733333Y-104367057D02*
X128923809Y-104367057D01*
X128923809Y-104367057D02*
X129000000Y-104405152D01*
X129000000Y-104405152D02*
X129038095Y-104443247D01*
X129038095Y-104443247D02*
X129076190Y-104519438D01*
X129076190Y-104519438D02*
X129076190Y-104709914D01*
X129076190Y-104709914D02*
X129038095Y-104786104D01*
X129038095Y-104786104D02*
X129000000Y-104824200D01*
X129000000Y-104824200D02*
X128923809Y-104862295D01*
X128923809Y-104862295D02*
X128733333Y-104862295D01*
X128733333Y-104862295D02*
X128657143Y-104824200D01*
X128657143Y-104824200D02*
X128619047Y-104786104D01*
X129342857Y-104062295D02*
X129838095Y-104062295D01*
X129838095Y-104062295D02*
X129571429Y-104367057D01*
X129571429Y-104367057D02*
X129685714Y-104367057D01*
X129685714Y-104367057D02*
X129761905Y-104405152D01*
X129761905Y-104405152D02*
X129800000Y-104443247D01*
X129800000Y-104443247D02*
X129838095Y-104519438D01*
X129838095Y-104519438D02*
X129838095Y-104709914D01*
X129838095Y-104709914D02*
X129800000Y-104786104D01*
X129800000Y-104786104D02*
X129761905Y-104824200D01*
X129761905Y-104824200D02*
X129685714Y-104862295D01*
X129685714Y-104862295D02*
X129457143Y-104862295D01*
X129457143Y-104862295D02*
X129380952Y-104824200D01*
X129380952Y-104824200D02*
X129342857Y-104786104D01*
X125228571Y-100362295D02*
X124961904Y-99981342D01*
X124771428Y-100362295D02*
X124771428Y-99562295D01*
X124771428Y-99562295D02*
X125076190Y-99562295D01*
X125076190Y-99562295D02*
X125152380Y-99600390D01*
X125152380Y-99600390D02*
X125190475Y-99638485D01*
X125190475Y-99638485D02*
X125228571Y-99714676D01*
X125228571Y-99714676D02*
X125228571Y-99828961D01*
X125228571Y-99828961D02*
X125190475Y-99905152D01*
X125190475Y-99905152D02*
X125152380Y-99943247D01*
X125152380Y-99943247D02*
X125076190Y-99981342D01*
X125076190Y-99981342D02*
X124771428Y-99981342D01*
X125533332Y-100324200D02*
X125647618Y-100362295D01*
X125647618Y-100362295D02*
X125838094Y-100362295D01*
X125838094Y-100362295D02*
X125914285Y-100324200D01*
X125914285Y-100324200D02*
X125952380Y-100286104D01*
X125952380Y-100286104D02*
X125990475Y-100209914D01*
X125990475Y-100209914D02*
X125990475Y-100133723D01*
X125990475Y-100133723D02*
X125952380Y-100057533D01*
X125952380Y-100057533D02*
X125914285Y-100019438D01*
X125914285Y-100019438D02*
X125838094Y-99981342D01*
X125838094Y-99981342D02*
X125685713Y-99943247D01*
X125685713Y-99943247D02*
X125609523Y-99905152D01*
X125609523Y-99905152D02*
X125571428Y-99867057D01*
X125571428Y-99867057D02*
X125533332Y-99790866D01*
X125533332Y-99790866D02*
X125533332Y-99714676D01*
X125533332Y-99714676D02*
X125571428Y-99638485D01*
X125571428Y-99638485D02*
X125609523Y-99600390D01*
X125609523Y-99600390D02*
X125685713Y-99562295D01*
X125685713Y-99562295D02*
X125876190Y-99562295D01*
X125876190Y-99562295D02*
X125990475Y-99600390D01*
X126333333Y-100057533D02*
X126942857Y-100057533D01*
X127666666Y-99828961D02*
X127666666Y-100362295D01*
X127476190Y-99524200D02*
X127285713Y-100095628D01*
X127285713Y-100095628D02*
X127780952Y-100095628D01*
X128199999Y-99905152D02*
X128123809Y-99867057D01*
X128123809Y-99867057D02*
X128085714Y-99828961D01*
X128085714Y-99828961D02*
X128047618Y-99752771D01*
X128047618Y-99752771D02*
X128047618Y-99714676D01*
X128047618Y-99714676D02*
X128085714Y-99638485D01*
X128085714Y-99638485D02*
X128123809Y-99600390D01*
X128123809Y-99600390D02*
X128199999Y-99562295D01*
X128199999Y-99562295D02*
X128352380Y-99562295D01*
X128352380Y-99562295D02*
X128428571Y-99600390D01*
X128428571Y-99600390D02*
X128466666Y-99638485D01*
X128466666Y-99638485D02*
X128504761Y-99714676D01*
X128504761Y-99714676D02*
X128504761Y-99752771D01*
X128504761Y-99752771D02*
X128466666Y-99828961D01*
X128466666Y-99828961D02*
X128428571Y-99867057D01*
X128428571Y-99867057D02*
X128352380Y-99905152D01*
X128352380Y-99905152D02*
X128199999Y-99905152D01*
X128199999Y-99905152D02*
X128123809Y-99943247D01*
X128123809Y-99943247D02*
X128085714Y-99981342D01*
X128085714Y-99981342D02*
X128047618Y-100057533D01*
X128047618Y-100057533D02*
X128047618Y-100209914D01*
X128047618Y-100209914D02*
X128085714Y-100286104D01*
X128085714Y-100286104D02*
X128123809Y-100324200D01*
X128123809Y-100324200D02*
X128199999Y-100362295D01*
X128199999Y-100362295D02*
X128352380Y-100362295D01*
X128352380Y-100362295D02*
X128428571Y-100324200D01*
X128428571Y-100324200D02*
X128466666Y-100286104D01*
X128466666Y-100286104D02*
X128504761Y-100209914D01*
X128504761Y-100209914D02*
X128504761Y-100057533D01*
X128504761Y-100057533D02*
X128466666Y-99981342D01*
X128466666Y-99981342D02*
X128428571Y-99943247D01*
X128428571Y-99943247D02*
X128352380Y-99905152D01*
X129228571Y-99562295D02*
X128847619Y-99562295D01*
X128847619Y-99562295D02*
X128809523Y-99943247D01*
X128809523Y-99943247D02*
X128847619Y-99905152D01*
X128847619Y-99905152D02*
X128923809Y-99867057D01*
X128923809Y-99867057D02*
X129114285Y-99867057D01*
X129114285Y-99867057D02*
X129190476Y-99905152D01*
X129190476Y-99905152D02*
X129228571Y-99943247D01*
X129228571Y-99943247D02*
X129266666Y-100019438D01*
X129266666Y-100019438D02*
X129266666Y-100209914D01*
X129266666Y-100209914D02*
X129228571Y-100286104D01*
X129228571Y-100286104D02*
X129190476Y-100324200D01*
X129190476Y-100324200D02*
X129114285Y-100362295D01*
X129114285Y-100362295D02*
X128923809Y-100362295D01*
X128923809Y-100362295D02*
X128847619Y-100324200D01*
X128847619Y-100324200D02*
X128809523Y-100286104D01*
X132286104Y-116714284D02*
X132324200Y-116752380D01*
X132324200Y-116752380D02*
X132362295Y-116866665D01*
X132362295Y-116866665D02*
X132362295Y-116942856D01*
X132362295Y-116942856D02*
X132324200Y-117057142D01*
X132324200Y-117057142D02*
X132248009Y-117133332D01*
X132248009Y-117133332D02*
X132171819Y-117171427D01*
X132171819Y-117171427D02*
X132019438Y-117209523D01*
X132019438Y-117209523D02*
X131905152Y-117209523D01*
X131905152Y-117209523D02*
X131752771Y-117171427D01*
X131752771Y-117171427D02*
X131676580Y-117133332D01*
X131676580Y-117133332D02*
X131600390Y-117057142D01*
X131600390Y-117057142D02*
X131562295Y-116942856D01*
X131562295Y-116942856D02*
X131562295Y-116866665D01*
X131562295Y-116866665D02*
X131600390Y-116752380D01*
X131600390Y-116752380D02*
X131638485Y-116714284D01*
X132133723Y-116409523D02*
X132133723Y-116028570D01*
X132362295Y-116485713D02*
X131562295Y-116219046D01*
X131562295Y-116219046D02*
X132362295Y-115952380D01*
X132362295Y-115685713D02*
X131562295Y-115685713D01*
X131562295Y-115685713D02*
X132362295Y-115228570D01*
X132362295Y-115228570D02*
X131562295Y-115228570D01*
X132057533Y-114847618D02*
X132057533Y-114238095D01*
X131562295Y-113971428D02*
X131562295Y-113514285D01*
X132362295Y-113742857D02*
X131562295Y-113742857D01*
X132362295Y-112790475D02*
X131981342Y-113057142D01*
X132362295Y-113247618D02*
X131562295Y-113247618D01*
X131562295Y-113247618D02*
X131562295Y-112942856D01*
X131562295Y-112942856D02*
X131600390Y-112866666D01*
X131600390Y-112866666D02*
X131638485Y-112828571D01*
X131638485Y-112828571D02*
X131714676Y-112790475D01*
X131714676Y-112790475D02*
X131828961Y-112790475D01*
X131828961Y-112790475D02*
X131905152Y-112828571D01*
X131905152Y-112828571D02*
X131943247Y-112866666D01*
X131943247Y-112866666D02*
X131981342Y-112942856D01*
X131981342Y-112942856D02*
X131981342Y-113247618D01*
X172324200Y-110561905D02*
X172362295Y-110447619D01*
X172362295Y-110447619D02*
X172362295Y-110257143D01*
X172362295Y-110257143D02*
X172324200Y-110180952D01*
X172324200Y-110180952D02*
X172286104Y-110142857D01*
X172286104Y-110142857D02*
X172209914Y-110104762D01*
X172209914Y-110104762D02*
X172133723Y-110104762D01*
X172133723Y-110104762D02*
X172057533Y-110142857D01*
X172057533Y-110142857D02*
X172019438Y-110180952D01*
X172019438Y-110180952D02*
X171981342Y-110257143D01*
X171981342Y-110257143D02*
X171943247Y-110409524D01*
X171943247Y-110409524D02*
X171905152Y-110485714D01*
X171905152Y-110485714D02*
X171867057Y-110523809D01*
X171867057Y-110523809D02*
X171790866Y-110561905D01*
X171790866Y-110561905D02*
X171714676Y-110561905D01*
X171714676Y-110561905D02*
X171638485Y-110523809D01*
X171638485Y-110523809D02*
X171600390Y-110485714D01*
X171600390Y-110485714D02*
X171562295Y-110409524D01*
X171562295Y-110409524D02*
X171562295Y-110219047D01*
X171562295Y-110219047D02*
X171600390Y-110104762D01*
X171943247Y-109761904D02*
X171943247Y-109495238D01*
X172362295Y-109380952D02*
X172362295Y-109761904D01*
X172362295Y-109761904D02*
X171562295Y-109761904D01*
X171562295Y-109761904D02*
X171562295Y-109380952D01*
X172362295Y-108580951D02*
X171981342Y-108847618D01*
X172362295Y-109038094D02*
X171562295Y-109038094D01*
X171562295Y-109038094D02*
X171562295Y-108733332D01*
X171562295Y-108733332D02*
X171600390Y-108657142D01*
X171600390Y-108657142D02*
X171638485Y-108619047D01*
X171638485Y-108619047D02*
X171714676Y-108580951D01*
X171714676Y-108580951D02*
X171828961Y-108580951D01*
X171828961Y-108580951D02*
X171905152Y-108619047D01*
X171905152Y-108619047D02*
X171943247Y-108657142D01*
X171943247Y-108657142D02*
X171981342Y-108733332D01*
X171981342Y-108733332D02*
X171981342Y-109038094D01*
X171562295Y-108352380D02*
X172362295Y-108085713D01*
X172362295Y-108085713D02*
X171562295Y-107819047D01*
X171562295Y-107399999D02*
X171562295Y-107247618D01*
X171562295Y-107247618D02*
X171600390Y-107171428D01*
X171600390Y-107171428D02*
X171676580Y-107095237D01*
X171676580Y-107095237D02*
X171828961Y-107057142D01*
X171828961Y-107057142D02*
X172095628Y-107057142D01*
X172095628Y-107057142D02*
X172248009Y-107095237D01*
X172248009Y-107095237D02*
X172324200Y-107171428D01*
X172324200Y-107171428D02*
X172362295Y-107247618D01*
X172362295Y-107247618D02*
X172362295Y-107399999D01*
X172362295Y-107399999D02*
X172324200Y-107476190D01*
X172324200Y-107476190D02*
X172248009Y-107552380D01*
X172248009Y-107552380D02*
X172095628Y-107590476D01*
X172095628Y-107590476D02*
X171828961Y-107590476D01*
X171828961Y-107590476D02*
X171676580Y-107552380D01*
X171676580Y-107552380D02*
X171600390Y-107476190D01*
X171600390Y-107476190D02*
X171562295Y-107399999D01*
X172057533Y-106714285D02*
X172057533Y-106104762D01*
X172362295Y-105723809D02*
X171562295Y-105723809D01*
X171562295Y-105723809D02*
X171562295Y-105419047D01*
X171562295Y-105419047D02*
X171600390Y-105342857D01*
X171600390Y-105342857D02*
X171638485Y-105304762D01*
X171638485Y-105304762D02*
X171714676Y-105266666D01*
X171714676Y-105266666D02*
X171828961Y-105266666D01*
X171828961Y-105266666D02*
X171905152Y-105304762D01*
X171905152Y-105304762D02*
X171943247Y-105342857D01*
X171943247Y-105342857D02*
X171981342Y-105419047D01*
X171981342Y-105419047D02*
X171981342Y-105723809D01*
X171562295Y-105000000D02*
X172362295Y-104809524D01*
X172362295Y-104809524D02*
X171790866Y-104657143D01*
X171790866Y-104657143D02*
X172362295Y-104504762D01*
X172362295Y-104504762D02*
X171562295Y-104314286D01*
X172362295Y-104009523D02*
X171562295Y-104009523D01*
X171562295Y-104009523D02*
X172133723Y-103742857D01*
X172133723Y-103742857D02*
X171562295Y-103476190D01*
X171562295Y-103476190D02*
X172362295Y-103476190D01*
X158100390Y-96695237D02*
X158062295Y-96771427D01*
X158062295Y-96771427D02*
X158062295Y-96885713D01*
X158062295Y-96885713D02*
X158100390Y-96999999D01*
X158100390Y-96999999D02*
X158176580Y-97076189D01*
X158176580Y-97076189D02*
X158252771Y-97114284D01*
X158252771Y-97114284D02*
X158405152Y-97152380D01*
X158405152Y-97152380D02*
X158519438Y-97152380D01*
X158519438Y-97152380D02*
X158671819Y-97114284D01*
X158671819Y-97114284D02*
X158748009Y-97076189D01*
X158748009Y-97076189D02*
X158824200Y-96999999D01*
X158824200Y-96999999D02*
X158862295Y-96885713D01*
X158862295Y-96885713D02*
X158862295Y-96809522D01*
X158862295Y-96809522D02*
X158824200Y-96695237D01*
X158824200Y-96695237D02*
X158786104Y-96657141D01*
X158786104Y-96657141D02*
X158519438Y-96657141D01*
X158519438Y-96657141D02*
X158519438Y-96809522D01*
X158862295Y-96314284D02*
X158062295Y-96314284D01*
X158062295Y-96314284D02*
X158062295Y-96009522D01*
X158062295Y-96009522D02*
X158100390Y-95933332D01*
X158100390Y-95933332D02*
X158138485Y-95895237D01*
X158138485Y-95895237D02*
X158214676Y-95857141D01*
X158214676Y-95857141D02*
X158328961Y-95857141D01*
X158328961Y-95857141D02*
X158405152Y-95895237D01*
X158405152Y-95895237D02*
X158443247Y-95933332D01*
X158443247Y-95933332D02*
X158481342Y-96009522D01*
X158481342Y-96009522D02*
X158481342Y-96314284D01*
X158862295Y-95514284D02*
X158062295Y-95514284D01*
X158062295Y-94980951D02*
X158062295Y-94828570D01*
X158062295Y-94828570D02*
X158100390Y-94752380D01*
X158100390Y-94752380D02*
X158176580Y-94676189D01*
X158176580Y-94676189D02*
X158328961Y-94638094D01*
X158328961Y-94638094D02*
X158595628Y-94638094D01*
X158595628Y-94638094D02*
X158748009Y-94676189D01*
X158748009Y-94676189D02*
X158824200Y-94752380D01*
X158824200Y-94752380D02*
X158862295Y-94828570D01*
X158862295Y-94828570D02*
X158862295Y-94980951D01*
X158862295Y-94980951D02*
X158824200Y-95057142D01*
X158824200Y-95057142D02*
X158748009Y-95133332D01*
X158748009Y-95133332D02*
X158595628Y-95171428D01*
X158595628Y-95171428D02*
X158328961Y-95171428D01*
X158328961Y-95171428D02*
X158176580Y-95133332D01*
X158176580Y-95133332D02*
X158100390Y-95057142D01*
X158100390Y-95057142D02*
X158062295Y-94980951D01*
X158557533Y-94295237D02*
X158557533Y-93685714D01*
X158862295Y-93304761D02*
X158062295Y-93304761D01*
X158062295Y-93304761D02*
X158062295Y-93114285D01*
X158062295Y-93114285D02*
X158100390Y-92999999D01*
X158100390Y-92999999D02*
X158176580Y-92923809D01*
X158176580Y-92923809D02*
X158252771Y-92885714D01*
X158252771Y-92885714D02*
X158405152Y-92847618D01*
X158405152Y-92847618D02*
X158519438Y-92847618D01*
X158519438Y-92847618D02*
X158671819Y-92885714D01*
X158671819Y-92885714D02*
X158748009Y-92923809D01*
X158748009Y-92923809D02*
X158824200Y-92999999D01*
X158824200Y-92999999D02*
X158862295Y-93114285D01*
X158862295Y-93114285D02*
X158862295Y-93304761D01*
X157447618Y-109362295D02*
X156990475Y-109362295D01*
X157219047Y-109362295D02*
X157219047Y-108562295D01*
X157219047Y-108562295D02*
X157142856Y-108676580D01*
X157142856Y-108676580D02*
X157066666Y-108752771D01*
X157066666Y-108752771D02*
X156990475Y-108790866D01*
X158171428Y-108562295D02*
X157790476Y-108562295D01*
X157790476Y-108562295D02*
X157752380Y-108943247D01*
X157752380Y-108943247D02*
X157790476Y-108905152D01*
X157790476Y-108905152D02*
X157866666Y-108867057D01*
X157866666Y-108867057D02*
X158057142Y-108867057D01*
X158057142Y-108867057D02*
X158133333Y-108905152D01*
X158133333Y-108905152D02*
X158171428Y-108943247D01*
X158171428Y-108943247D02*
X158209523Y-109019438D01*
X158209523Y-109019438D02*
X158209523Y-109209914D01*
X158209523Y-109209914D02*
X158171428Y-109286104D01*
X158171428Y-109286104D02*
X158133333Y-109324200D01*
X158133333Y-109324200D02*
X158057142Y-109362295D01*
X158057142Y-109362295D02*
X157866666Y-109362295D01*
X157866666Y-109362295D02*
X157790476Y-109324200D01*
X157790476Y-109324200D02*
X157752380Y-109286104D01*
X158933333Y-108562295D02*
X158552381Y-108562295D01*
X158552381Y-108562295D02*
X158514285Y-108943247D01*
X158514285Y-108943247D02*
X158552381Y-108905152D01*
X158552381Y-108905152D02*
X158628571Y-108867057D01*
X158628571Y-108867057D02*
X158819047Y-108867057D01*
X158819047Y-108867057D02*
X158895238Y-108905152D01*
X158895238Y-108905152D02*
X158933333Y-108943247D01*
X158933333Y-108943247D02*
X158971428Y-109019438D01*
X158971428Y-109019438D02*
X158971428Y-109209914D01*
X158971428Y-109209914D02*
X158933333Y-109286104D01*
X158933333Y-109286104D02*
X158895238Y-109324200D01*
X158895238Y-109324200D02*
X158819047Y-109362295D01*
X158819047Y-109362295D02*
X158628571Y-109362295D01*
X158628571Y-109362295D02*
X158552381Y-109324200D01*
X158552381Y-109324200D02*
X158514285Y-109286104D01*
X159238095Y-108562295D02*
X159733333Y-108562295D01*
X159733333Y-108562295D02*
X159466667Y-108867057D01*
X159466667Y-108867057D02*
X159580952Y-108867057D01*
X159580952Y-108867057D02*
X159657143Y-108905152D01*
X159657143Y-108905152D02*
X159695238Y-108943247D01*
X159695238Y-108943247D02*
X159733333Y-109019438D01*
X159733333Y-109019438D02*
X159733333Y-109209914D01*
X159733333Y-109209914D02*
X159695238Y-109286104D01*
X159695238Y-109286104D02*
X159657143Y-109324200D01*
X159657143Y-109324200D02*
X159580952Y-109362295D01*
X159580952Y-109362295D02*
X159352381Y-109362295D01*
X159352381Y-109362295D02*
X159276190Y-109324200D01*
X159276190Y-109324200D02*
X159238095Y-109286104D01*
X160076191Y-109057533D02*
X160685715Y-109057533D01*
X161523810Y-109362295D02*
X161257143Y-108981342D01*
X161066667Y-109362295D02*
X161066667Y-108562295D01*
X161066667Y-108562295D02*
X161371429Y-108562295D01*
X161371429Y-108562295D02*
X161447619Y-108600390D01*
X161447619Y-108600390D02*
X161485714Y-108638485D01*
X161485714Y-108638485D02*
X161523810Y-108714676D01*
X161523810Y-108714676D02*
X161523810Y-108828961D01*
X161523810Y-108828961D02*
X161485714Y-108905152D01*
X161485714Y-108905152D02*
X161447619Y-108943247D01*
X161447619Y-108943247D02*
X161371429Y-108981342D01*
X161371429Y-108981342D02*
X161066667Y-108981342D01*
X162323810Y-109286104D02*
X162285714Y-109324200D01*
X162285714Y-109324200D02*
X162171429Y-109362295D01*
X162171429Y-109362295D02*
X162095238Y-109362295D01*
X162095238Y-109362295D02*
X161980952Y-109324200D01*
X161980952Y-109324200D02*
X161904762Y-109248009D01*
X161904762Y-109248009D02*
X161866667Y-109171819D01*
X161866667Y-109171819D02*
X161828571Y-109019438D01*
X161828571Y-109019438D02*
X161828571Y-108905152D01*
X161828571Y-108905152D02*
X161866667Y-108752771D01*
X161866667Y-108752771D02*
X161904762Y-108676580D01*
X161904762Y-108676580D02*
X161980952Y-108600390D01*
X161980952Y-108600390D02*
X162095238Y-108562295D01*
X162095238Y-108562295D02*
X162171429Y-108562295D01*
X162171429Y-108562295D02*
X162285714Y-108600390D01*
X162285714Y-108600390D02*
X162323810Y-108638485D01*
X162552381Y-108562295D02*
X162819048Y-109362295D01*
X162819048Y-109362295D02*
X163085714Y-108562295D01*
X141350390Y-96638094D02*
X141312295Y-96714284D01*
X141312295Y-96714284D02*
X141312295Y-96828570D01*
X141312295Y-96828570D02*
X141350390Y-96942856D01*
X141350390Y-96942856D02*
X141426580Y-97019046D01*
X141426580Y-97019046D02*
X141502771Y-97057141D01*
X141502771Y-97057141D02*
X141655152Y-97095237D01*
X141655152Y-97095237D02*
X141769438Y-97095237D01*
X141769438Y-97095237D02*
X141921819Y-97057141D01*
X141921819Y-97057141D02*
X141998009Y-97019046D01*
X141998009Y-97019046D02*
X142074200Y-96942856D01*
X142074200Y-96942856D02*
X142112295Y-96828570D01*
X142112295Y-96828570D02*
X142112295Y-96752379D01*
X142112295Y-96752379D02*
X142074200Y-96638094D01*
X142074200Y-96638094D02*
X142036104Y-96599998D01*
X142036104Y-96599998D02*
X141769438Y-96599998D01*
X141769438Y-96599998D02*
X141769438Y-96752379D01*
X142112295Y-96257141D02*
X141312295Y-96257141D01*
X141312295Y-96257141D02*
X141312295Y-95952379D01*
X141312295Y-95952379D02*
X141350390Y-95876189D01*
X141350390Y-95876189D02*
X141388485Y-95838094D01*
X141388485Y-95838094D02*
X141464676Y-95799998D01*
X141464676Y-95799998D02*
X141578961Y-95799998D01*
X141578961Y-95799998D02*
X141655152Y-95838094D01*
X141655152Y-95838094D02*
X141693247Y-95876189D01*
X141693247Y-95876189D02*
X141731342Y-95952379D01*
X141731342Y-95952379D02*
X141731342Y-96257141D01*
X142112295Y-95457141D02*
X141312295Y-95457141D01*
X141312295Y-94923808D02*
X141312295Y-94771427D01*
X141312295Y-94771427D02*
X141350390Y-94695237D01*
X141350390Y-94695237D02*
X141426580Y-94619046D01*
X141426580Y-94619046D02*
X141578961Y-94580951D01*
X141578961Y-94580951D02*
X141845628Y-94580951D01*
X141845628Y-94580951D02*
X141998009Y-94619046D01*
X141998009Y-94619046D02*
X142074200Y-94695237D01*
X142074200Y-94695237D02*
X142112295Y-94771427D01*
X142112295Y-94771427D02*
X142112295Y-94923808D01*
X142112295Y-94923808D02*
X142074200Y-94999999D01*
X142074200Y-94999999D02*
X141998009Y-95076189D01*
X141998009Y-95076189D02*
X141845628Y-95114285D01*
X141845628Y-95114285D02*
X141578961Y-95114285D01*
X141578961Y-95114285D02*
X141426580Y-95076189D01*
X141426580Y-95076189D02*
X141350390Y-94999999D01*
X141350390Y-94999999D02*
X141312295Y-94923808D01*
X141807533Y-94238094D02*
X141807533Y-93628571D01*
X141883723Y-93285714D02*
X141883723Y-92904761D01*
X142112295Y-93361904D02*
X141312295Y-93095237D01*
X141312295Y-93095237D02*
X142112295Y-92828571D01*
X138909523Y-108362295D02*
X138452380Y-108362295D01*
X138680952Y-108362295D02*
X138680952Y-107562295D01*
X138680952Y-107562295D02*
X138604761Y-107676580D01*
X138604761Y-107676580D02*
X138528571Y-107752771D01*
X138528571Y-107752771D02*
X138452380Y-107790866D01*
X139633333Y-107562295D02*
X139252381Y-107562295D01*
X139252381Y-107562295D02*
X139214285Y-107943247D01*
X139214285Y-107943247D02*
X139252381Y-107905152D01*
X139252381Y-107905152D02*
X139328571Y-107867057D01*
X139328571Y-107867057D02*
X139519047Y-107867057D01*
X139519047Y-107867057D02*
X139595238Y-107905152D01*
X139595238Y-107905152D02*
X139633333Y-107943247D01*
X139633333Y-107943247D02*
X139671428Y-108019438D01*
X139671428Y-108019438D02*
X139671428Y-108209914D01*
X139671428Y-108209914D02*
X139633333Y-108286104D01*
X139633333Y-108286104D02*
X139595238Y-108324200D01*
X139595238Y-108324200D02*
X139519047Y-108362295D01*
X139519047Y-108362295D02*
X139328571Y-108362295D01*
X139328571Y-108362295D02*
X139252381Y-108324200D01*
X139252381Y-108324200D02*
X139214285Y-108286104D01*
X140395238Y-107562295D02*
X140014286Y-107562295D01*
X140014286Y-107562295D02*
X139976190Y-107943247D01*
X139976190Y-107943247D02*
X140014286Y-107905152D01*
X140014286Y-107905152D02*
X140090476Y-107867057D01*
X140090476Y-107867057D02*
X140280952Y-107867057D01*
X140280952Y-107867057D02*
X140357143Y-107905152D01*
X140357143Y-107905152D02*
X140395238Y-107943247D01*
X140395238Y-107943247D02*
X140433333Y-108019438D01*
X140433333Y-108019438D02*
X140433333Y-108209914D01*
X140433333Y-108209914D02*
X140395238Y-108286104D01*
X140395238Y-108286104D02*
X140357143Y-108324200D01*
X140357143Y-108324200D02*
X140280952Y-108362295D01*
X140280952Y-108362295D02*
X140090476Y-108362295D01*
X140090476Y-108362295D02*
X140014286Y-108324200D01*
X140014286Y-108324200D02*
X139976190Y-108286104D01*
X140700000Y-107562295D02*
X141195238Y-107562295D01*
X141195238Y-107562295D02*
X140928572Y-107867057D01*
X140928572Y-107867057D02*
X141042857Y-107867057D01*
X141042857Y-107867057D02*
X141119048Y-107905152D01*
X141119048Y-107905152D02*
X141157143Y-107943247D01*
X141157143Y-107943247D02*
X141195238Y-108019438D01*
X141195238Y-108019438D02*
X141195238Y-108209914D01*
X141195238Y-108209914D02*
X141157143Y-108286104D01*
X141157143Y-108286104D02*
X141119048Y-108324200D01*
X141119048Y-108324200D02*
X141042857Y-108362295D01*
X141042857Y-108362295D02*
X140814286Y-108362295D01*
X140814286Y-108362295D02*
X140738095Y-108324200D01*
X140738095Y-108324200D02*
X140700000Y-108286104D01*
X141538096Y-108057533D02*
X142147620Y-108057533D01*
X142452381Y-107562295D02*
X142985715Y-108362295D01*
X142985715Y-107562295D02*
X142452381Y-108362295D01*
X143557143Y-107943247D02*
X143290477Y-107943247D01*
X143290477Y-108362295D02*
X143290477Y-107562295D01*
X143290477Y-107562295D02*
X143671429Y-107562295D01*
X143976191Y-108362295D02*
X143976191Y-107562295D01*
X143976191Y-107562295D02*
X144242857Y-108133723D01*
X144242857Y-108133723D02*
X144509524Y-107562295D01*
X144509524Y-107562295D02*
X144509524Y-108362295D01*
X133123810Y-93362295D02*
X133123810Y-92562295D01*
X133504762Y-93362295D02*
X133504762Y-92562295D01*
X133504762Y-92562295D02*
X133771428Y-93133723D01*
X133771428Y-93133723D02*
X134038095Y-92562295D01*
X134038095Y-92562295D02*
X134038095Y-93362295D01*
X134419048Y-92562295D02*
X134419048Y-93209914D01*
X134419048Y-93209914D02*
X134457143Y-93286104D01*
X134457143Y-93286104D02*
X134495238Y-93324200D01*
X134495238Y-93324200D02*
X134571429Y-93362295D01*
X134571429Y-93362295D02*
X134723810Y-93362295D01*
X134723810Y-93362295D02*
X134800000Y-93324200D01*
X134800000Y-93324200D02*
X134838095Y-93286104D01*
X134838095Y-93286104D02*
X134876191Y-93209914D01*
X134876191Y-93209914D02*
X134876191Y-92562295D01*
X152850390Y-96695237D02*
X152812295Y-96771427D01*
X152812295Y-96771427D02*
X152812295Y-96885713D01*
X152812295Y-96885713D02*
X152850390Y-96999999D01*
X152850390Y-96999999D02*
X152926580Y-97076189D01*
X152926580Y-97076189D02*
X153002771Y-97114284D01*
X153002771Y-97114284D02*
X153155152Y-97152380D01*
X153155152Y-97152380D02*
X153269438Y-97152380D01*
X153269438Y-97152380D02*
X153421819Y-97114284D01*
X153421819Y-97114284D02*
X153498009Y-97076189D01*
X153498009Y-97076189D02*
X153574200Y-96999999D01*
X153574200Y-96999999D02*
X153612295Y-96885713D01*
X153612295Y-96885713D02*
X153612295Y-96809522D01*
X153612295Y-96809522D02*
X153574200Y-96695237D01*
X153574200Y-96695237D02*
X153536104Y-96657141D01*
X153536104Y-96657141D02*
X153269438Y-96657141D01*
X153269438Y-96657141D02*
X153269438Y-96809522D01*
X153612295Y-96314284D02*
X152812295Y-96314284D01*
X152812295Y-96314284D02*
X152812295Y-96009522D01*
X152812295Y-96009522D02*
X152850390Y-95933332D01*
X152850390Y-95933332D02*
X152888485Y-95895237D01*
X152888485Y-95895237D02*
X152964676Y-95857141D01*
X152964676Y-95857141D02*
X153078961Y-95857141D01*
X153078961Y-95857141D02*
X153155152Y-95895237D01*
X153155152Y-95895237D02*
X153193247Y-95933332D01*
X153193247Y-95933332D02*
X153231342Y-96009522D01*
X153231342Y-96009522D02*
X153231342Y-96314284D01*
X153612295Y-95514284D02*
X152812295Y-95514284D01*
X152812295Y-94980951D02*
X152812295Y-94828570D01*
X152812295Y-94828570D02*
X152850390Y-94752380D01*
X152850390Y-94752380D02*
X152926580Y-94676189D01*
X152926580Y-94676189D02*
X153078961Y-94638094D01*
X153078961Y-94638094D02*
X153345628Y-94638094D01*
X153345628Y-94638094D02*
X153498009Y-94676189D01*
X153498009Y-94676189D02*
X153574200Y-94752380D01*
X153574200Y-94752380D02*
X153612295Y-94828570D01*
X153612295Y-94828570D02*
X153612295Y-94980951D01*
X153612295Y-94980951D02*
X153574200Y-95057142D01*
X153574200Y-95057142D02*
X153498009Y-95133332D01*
X153498009Y-95133332D02*
X153345628Y-95171428D01*
X153345628Y-95171428D02*
X153078961Y-95171428D01*
X153078961Y-95171428D02*
X152926580Y-95133332D01*
X152926580Y-95133332D02*
X152850390Y-95057142D01*
X152850390Y-95057142D02*
X152812295Y-94980951D01*
X153307533Y-94295237D02*
X153307533Y-93685714D01*
X153536104Y-92847618D02*
X153574200Y-92885714D01*
X153574200Y-92885714D02*
X153612295Y-92999999D01*
X153612295Y-92999999D02*
X153612295Y-93076190D01*
X153612295Y-93076190D02*
X153574200Y-93190476D01*
X153574200Y-93190476D02*
X153498009Y-93266666D01*
X153498009Y-93266666D02*
X153421819Y-93304761D01*
X153421819Y-93304761D02*
X153269438Y-93342857D01*
X153269438Y-93342857D02*
X153155152Y-93342857D01*
X153155152Y-93342857D02*
X153002771Y-93304761D01*
X153002771Y-93304761D02*
X152926580Y-93266666D01*
X152926580Y-93266666D02*
X152850390Y-93190476D01*
X152850390Y-93190476D02*
X152812295Y-93076190D01*
X152812295Y-93076190D02*
X152812295Y-92999999D01*
X152812295Y-92999999D02*
X152850390Y-92885714D01*
X152850390Y-92885714D02*
X152888485Y-92847618D01*
X133723809Y-108362295D02*
X133457142Y-107981342D01*
X133266666Y-108362295D02*
X133266666Y-107562295D01*
X133266666Y-107562295D02*
X133571428Y-107562295D01*
X133571428Y-107562295D02*
X133647618Y-107600390D01*
X133647618Y-107600390D02*
X133685713Y-107638485D01*
X133685713Y-107638485D02*
X133723809Y-107714676D01*
X133723809Y-107714676D02*
X133723809Y-107828961D01*
X133723809Y-107828961D02*
X133685713Y-107905152D01*
X133685713Y-107905152D02*
X133647618Y-107943247D01*
X133647618Y-107943247D02*
X133571428Y-107981342D01*
X133571428Y-107981342D02*
X133266666Y-107981342D01*
X134028570Y-108324200D02*
X134142856Y-108362295D01*
X134142856Y-108362295D02*
X134333332Y-108362295D01*
X134333332Y-108362295D02*
X134409523Y-108324200D01*
X134409523Y-108324200D02*
X134447618Y-108286104D01*
X134447618Y-108286104D02*
X134485713Y-108209914D01*
X134485713Y-108209914D02*
X134485713Y-108133723D01*
X134485713Y-108133723D02*
X134447618Y-108057533D01*
X134447618Y-108057533D02*
X134409523Y-108019438D01*
X134409523Y-108019438D02*
X134333332Y-107981342D01*
X134333332Y-107981342D02*
X134180951Y-107943247D01*
X134180951Y-107943247D02*
X134104761Y-107905152D01*
X134104761Y-107905152D02*
X134066666Y-107867057D01*
X134066666Y-107867057D02*
X134028570Y-107790866D01*
X134028570Y-107790866D02*
X134028570Y-107714676D01*
X134028570Y-107714676D02*
X134066666Y-107638485D01*
X134066666Y-107638485D02*
X134104761Y-107600390D01*
X134104761Y-107600390D02*
X134180951Y-107562295D01*
X134180951Y-107562295D02*
X134371428Y-107562295D01*
X134371428Y-107562295D02*
X134485713Y-107600390D01*
X135171428Y-107828961D02*
X135171428Y-108362295D01*
X134980952Y-107524200D02*
X134790475Y-108095628D01*
X134790475Y-108095628D02*
X135285714Y-108095628D01*
X135704761Y-107905152D02*
X135628571Y-107867057D01*
X135628571Y-107867057D02*
X135590476Y-107828961D01*
X135590476Y-107828961D02*
X135552380Y-107752771D01*
X135552380Y-107752771D02*
X135552380Y-107714676D01*
X135552380Y-107714676D02*
X135590476Y-107638485D01*
X135590476Y-107638485D02*
X135628571Y-107600390D01*
X135628571Y-107600390D02*
X135704761Y-107562295D01*
X135704761Y-107562295D02*
X135857142Y-107562295D01*
X135857142Y-107562295D02*
X135933333Y-107600390D01*
X135933333Y-107600390D02*
X135971428Y-107638485D01*
X135971428Y-107638485D02*
X136009523Y-107714676D01*
X136009523Y-107714676D02*
X136009523Y-107752771D01*
X136009523Y-107752771D02*
X135971428Y-107828961D01*
X135971428Y-107828961D02*
X135933333Y-107867057D01*
X135933333Y-107867057D02*
X135857142Y-107905152D01*
X135857142Y-107905152D02*
X135704761Y-107905152D01*
X135704761Y-107905152D02*
X135628571Y-107943247D01*
X135628571Y-107943247D02*
X135590476Y-107981342D01*
X135590476Y-107981342D02*
X135552380Y-108057533D01*
X135552380Y-108057533D02*
X135552380Y-108209914D01*
X135552380Y-108209914D02*
X135590476Y-108286104D01*
X135590476Y-108286104D02*
X135628571Y-108324200D01*
X135628571Y-108324200D02*
X135704761Y-108362295D01*
X135704761Y-108362295D02*
X135857142Y-108362295D01*
X135857142Y-108362295D02*
X135933333Y-108324200D01*
X135933333Y-108324200D02*
X135971428Y-108286104D01*
X135971428Y-108286104D02*
X136009523Y-108209914D01*
X136009523Y-108209914D02*
X136009523Y-108057533D01*
X136009523Y-108057533D02*
X135971428Y-107981342D01*
X135971428Y-107981342D02*
X135933333Y-107943247D01*
X135933333Y-107943247D02*
X135857142Y-107905152D01*
X136733333Y-107562295D02*
X136352381Y-107562295D01*
X136352381Y-107562295D02*
X136314285Y-107943247D01*
X136314285Y-107943247D02*
X136352381Y-107905152D01*
X136352381Y-107905152D02*
X136428571Y-107867057D01*
X136428571Y-107867057D02*
X136619047Y-107867057D01*
X136619047Y-107867057D02*
X136695238Y-107905152D01*
X136695238Y-107905152D02*
X136733333Y-107943247D01*
X136733333Y-107943247D02*
X136771428Y-108019438D01*
X136771428Y-108019438D02*
X136771428Y-108209914D01*
X136771428Y-108209914D02*
X136733333Y-108286104D01*
X136733333Y-108286104D02*
X136695238Y-108324200D01*
X136695238Y-108324200D02*
X136619047Y-108362295D01*
X136619047Y-108362295D02*
X136428571Y-108362295D01*
X136428571Y-108362295D02*
X136352381Y-108324200D01*
X136352381Y-108324200D02*
X136314285Y-108286104D01*
X137395238Y-93443247D02*
X137509524Y-93481342D01*
X137509524Y-93481342D02*
X137547619Y-93519438D01*
X137547619Y-93519438D02*
X137585715Y-93595628D01*
X137585715Y-93595628D02*
X137585715Y-93709914D01*
X137585715Y-93709914D02*
X137547619Y-93786104D01*
X137547619Y-93786104D02*
X137509524Y-93824200D01*
X137509524Y-93824200D02*
X137433334Y-93862295D01*
X137433334Y-93862295D02*
X137128572Y-93862295D01*
X137128572Y-93862295D02*
X137128572Y-93062295D01*
X137128572Y-93062295D02*
X137395238Y-93062295D01*
X137395238Y-93062295D02*
X137471429Y-93100390D01*
X137471429Y-93100390D02*
X137509524Y-93138485D01*
X137509524Y-93138485D02*
X137547619Y-93214676D01*
X137547619Y-93214676D02*
X137547619Y-93290866D01*
X137547619Y-93290866D02*
X137509524Y-93367057D01*
X137509524Y-93367057D02*
X137471429Y-93405152D01*
X137471429Y-93405152D02*
X137395238Y-93443247D01*
X137395238Y-93443247D02*
X137128572Y-93443247D01*
X137890476Y-93633723D02*
X138271429Y-93633723D01*
X137814286Y-93862295D02*
X138080953Y-93062295D01*
X138080953Y-93062295D02*
X138347619Y-93862295D01*
X139071429Y-93862295D02*
X138804762Y-93481342D01*
X138614286Y-93862295D02*
X138614286Y-93062295D01*
X138614286Y-93062295D02*
X138919048Y-93062295D01*
X138919048Y-93062295D02*
X138995238Y-93100390D01*
X138995238Y-93100390D02*
X139033333Y-93138485D01*
X139033333Y-93138485D02*
X139071429Y-93214676D01*
X139071429Y-93214676D02*
X139071429Y-93328961D01*
X139071429Y-93328961D02*
X139033333Y-93405152D01*
X139033333Y-93405152D02*
X138995238Y-93443247D01*
X138995238Y-93443247D02*
X138919048Y-93481342D01*
X138919048Y-93481342D02*
X138614286Y-93481342D01*
X139566667Y-93062295D02*
X139719048Y-93062295D01*
X139719048Y-93062295D02*
X139795238Y-93100390D01*
X139795238Y-93100390D02*
X139871429Y-93176580D01*
X139871429Y-93176580D02*
X139909524Y-93328961D01*
X139909524Y-93328961D02*
X139909524Y-93595628D01*
X139909524Y-93595628D02*
X139871429Y-93748009D01*
X139871429Y-93748009D02*
X139795238Y-93824200D01*
X139795238Y-93824200D02*
X139719048Y-93862295D01*
X139719048Y-93862295D02*
X139566667Y-93862295D01*
X139566667Y-93862295D02*
X139490476Y-93824200D01*
X139490476Y-93824200D02*
X139414286Y-93748009D01*
X139414286Y-93748009D02*
X139376190Y-93595628D01*
X139376190Y-93595628D02*
X139376190Y-93328961D01*
X139376190Y-93328961D02*
X139414286Y-93176580D01*
X139414286Y-93176580D02*
X139490476Y-93100390D01*
X139490476Y-93100390D02*
X139566667Y-93062295D01*
X165966666Y-101443247D02*
X166233332Y-101443247D01*
X166347618Y-101862295D02*
X165966666Y-101862295D01*
X165966666Y-101862295D02*
X165966666Y-101062295D01*
X165966666Y-101062295D02*
X166347618Y-101062295D01*
X166652380Y-101824200D02*
X166766666Y-101862295D01*
X166766666Y-101862295D02*
X166957142Y-101862295D01*
X166957142Y-101862295D02*
X167033333Y-101824200D01*
X167033333Y-101824200D02*
X167071428Y-101786104D01*
X167071428Y-101786104D02*
X167109523Y-101709914D01*
X167109523Y-101709914D02*
X167109523Y-101633723D01*
X167109523Y-101633723D02*
X167071428Y-101557533D01*
X167071428Y-101557533D02*
X167033333Y-101519438D01*
X167033333Y-101519438D02*
X166957142Y-101481342D01*
X166957142Y-101481342D02*
X166804761Y-101443247D01*
X166804761Y-101443247D02*
X166728571Y-101405152D01*
X166728571Y-101405152D02*
X166690476Y-101367057D01*
X166690476Y-101367057D02*
X166652380Y-101290866D01*
X166652380Y-101290866D02*
X166652380Y-101214676D01*
X166652380Y-101214676D02*
X166690476Y-101138485D01*
X166690476Y-101138485D02*
X166728571Y-101100390D01*
X166728571Y-101100390D02*
X166804761Y-101062295D01*
X166804761Y-101062295D02*
X166995238Y-101062295D01*
X166995238Y-101062295D02*
X167109523Y-101100390D01*
X167909524Y-101786104D02*
X167871428Y-101824200D01*
X167871428Y-101824200D02*
X167757143Y-101862295D01*
X167757143Y-101862295D02*
X167680952Y-101862295D01*
X167680952Y-101862295D02*
X167566666Y-101824200D01*
X167566666Y-101824200D02*
X167490476Y-101748009D01*
X167490476Y-101748009D02*
X167452381Y-101671819D01*
X167452381Y-101671819D02*
X167414285Y-101519438D01*
X167414285Y-101519438D02*
X167414285Y-101405152D01*
X167414285Y-101405152D02*
X167452381Y-101252771D01*
X167452381Y-101252771D02*
X167490476Y-101176580D01*
X167490476Y-101176580D02*
X167566666Y-101100390D01*
X167566666Y-101100390D02*
X167680952Y-101062295D01*
X167680952Y-101062295D02*
X167757143Y-101062295D01*
X167757143Y-101062295D02*
X167871428Y-101100390D01*
X167871428Y-101100390D02*
X167909524Y-101138485D01*
X168252381Y-101557533D02*
X168861905Y-101557533D01*
X169128571Y-101062295D02*
X169585714Y-101062295D01*
X169357142Y-101862295D02*
X169357142Y-101062295D01*
X170233333Y-101862295D02*
X169852381Y-101862295D01*
X169852381Y-101862295D02*
X169852381Y-101062295D01*
X170500000Y-101862295D02*
X170500000Y-101062295D01*
X170500000Y-101062295D02*
X170766666Y-101633723D01*
X170766666Y-101633723D02*
X171033333Y-101062295D01*
X171033333Y-101062295D02*
X171033333Y-101862295D01*
X165100390Y-97157142D02*
X165062295Y-97233332D01*
X165062295Y-97233332D02*
X165062295Y-97347618D01*
X165062295Y-97347618D02*
X165100390Y-97461904D01*
X165100390Y-97461904D02*
X165176580Y-97538094D01*
X165176580Y-97538094D02*
X165252771Y-97576189D01*
X165252771Y-97576189D02*
X165405152Y-97614285D01*
X165405152Y-97614285D02*
X165519438Y-97614285D01*
X165519438Y-97614285D02*
X165671819Y-97576189D01*
X165671819Y-97576189D02*
X165748009Y-97538094D01*
X165748009Y-97538094D02*
X165824200Y-97461904D01*
X165824200Y-97461904D02*
X165862295Y-97347618D01*
X165862295Y-97347618D02*
X165862295Y-97271427D01*
X165862295Y-97271427D02*
X165824200Y-97157142D01*
X165824200Y-97157142D02*
X165786104Y-97119046D01*
X165786104Y-97119046D02*
X165519438Y-97119046D01*
X165519438Y-97119046D02*
X165519438Y-97271427D01*
X165862295Y-96776189D02*
X165062295Y-96776189D01*
X165062295Y-96776189D02*
X165062295Y-96471427D01*
X165062295Y-96471427D02*
X165100390Y-96395237D01*
X165100390Y-96395237D02*
X165138485Y-96357142D01*
X165138485Y-96357142D02*
X165214676Y-96319046D01*
X165214676Y-96319046D02*
X165328961Y-96319046D01*
X165328961Y-96319046D02*
X165405152Y-96357142D01*
X165405152Y-96357142D02*
X165443247Y-96395237D01*
X165443247Y-96395237D02*
X165481342Y-96471427D01*
X165481342Y-96471427D02*
X165481342Y-96776189D01*
X165862295Y-95976189D02*
X165062295Y-95976189D01*
X165062295Y-95442856D02*
X165062295Y-95290475D01*
X165062295Y-95290475D02*
X165100390Y-95214285D01*
X165100390Y-95214285D02*
X165176580Y-95138094D01*
X165176580Y-95138094D02*
X165328961Y-95099999D01*
X165328961Y-95099999D02*
X165595628Y-95099999D01*
X165595628Y-95099999D02*
X165748009Y-95138094D01*
X165748009Y-95138094D02*
X165824200Y-95214285D01*
X165824200Y-95214285D02*
X165862295Y-95290475D01*
X165862295Y-95290475D02*
X165862295Y-95442856D01*
X165862295Y-95442856D02*
X165824200Y-95519047D01*
X165824200Y-95519047D02*
X165748009Y-95595237D01*
X165748009Y-95595237D02*
X165595628Y-95633333D01*
X165595628Y-95633333D02*
X165328961Y-95633333D01*
X165328961Y-95633333D02*
X165176580Y-95595237D01*
X165176580Y-95595237D02*
X165100390Y-95519047D01*
X165100390Y-95519047D02*
X165062295Y-95442856D01*
X165557533Y-94757142D02*
X165557533Y-94147619D01*
X165443247Y-93766666D02*
X165443247Y-93500000D01*
X165862295Y-93385714D02*
X165862295Y-93766666D01*
X165862295Y-93766666D02*
X165062295Y-93766666D01*
X165062295Y-93766666D02*
X165062295Y-93385714D01*
X141943247Y-105433332D02*
X141943247Y-105166666D01*
X142362295Y-105052380D02*
X142362295Y-105433332D01*
X142362295Y-105433332D02*
X141562295Y-105433332D01*
X141562295Y-105433332D02*
X141562295Y-105052380D01*
X141562295Y-104823808D02*
X141562295Y-104366665D01*
X142362295Y-104595237D02*
X141562295Y-104595237D01*
X142362295Y-104099998D02*
X141562295Y-104099998D01*
X141943247Y-104099998D02*
X141943247Y-103642855D01*
X142362295Y-103642855D02*
X141562295Y-103642855D01*
X141638485Y-103299999D02*
X141600390Y-103261903D01*
X141600390Y-103261903D02*
X141562295Y-103185713D01*
X141562295Y-103185713D02*
X141562295Y-102995237D01*
X141562295Y-102995237D02*
X141600390Y-102919046D01*
X141600390Y-102919046D02*
X141638485Y-102880951D01*
X141638485Y-102880951D02*
X141714676Y-102842856D01*
X141714676Y-102842856D02*
X141790866Y-102842856D01*
X141790866Y-102842856D02*
X141905152Y-102880951D01*
X141905152Y-102880951D02*
X142362295Y-103338094D01*
X142362295Y-103338094D02*
X142362295Y-102842856D01*
X142057533Y-102499998D02*
X142057533Y-101890475D01*
X142362295Y-101509522D02*
X141562295Y-101509522D01*
X141562295Y-101509522D02*
X141562295Y-101204760D01*
X141562295Y-101204760D02*
X141600390Y-101128570D01*
X141600390Y-101128570D02*
X141638485Y-101090475D01*
X141638485Y-101090475D02*
X141714676Y-101052379D01*
X141714676Y-101052379D02*
X141828961Y-101052379D01*
X141828961Y-101052379D02*
X141905152Y-101090475D01*
X141905152Y-101090475D02*
X141943247Y-101128570D01*
X141943247Y-101128570D02*
X141981342Y-101204760D01*
X141981342Y-101204760D02*
X141981342Y-101509522D01*
X142362295Y-100709522D02*
X141562295Y-100709522D01*
X141943247Y-100709522D02*
X141943247Y-100252379D01*
X142362295Y-100252379D02*
X141562295Y-100252379D01*
X141981342Y-99719046D02*
X142362295Y-99719046D01*
X141562295Y-99985713D02*
X141981342Y-99719046D01*
X141981342Y-99719046D02*
X141562295Y-99452380D01*
X124578572Y-117362295D02*
X124578572Y-116562295D01*
X124578572Y-116562295D02*
X124883334Y-116562295D01*
X124883334Y-116562295D02*
X124959524Y-116600390D01*
X124959524Y-116600390D02*
X124997619Y-116638485D01*
X124997619Y-116638485D02*
X125035715Y-116714676D01*
X125035715Y-116714676D02*
X125035715Y-116828961D01*
X125035715Y-116828961D02*
X124997619Y-116905152D01*
X124997619Y-116905152D02*
X124959524Y-116943247D01*
X124959524Y-116943247D02*
X124883334Y-116981342D01*
X124883334Y-116981342D02*
X124578572Y-116981342D01*
X125302381Y-116562295D02*
X125492857Y-117362295D01*
X125492857Y-117362295D02*
X125645238Y-116790866D01*
X125645238Y-116790866D02*
X125797619Y-117362295D01*
X125797619Y-117362295D02*
X125988096Y-116562295D01*
X126750001Y-117362295D02*
X126483334Y-116981342D01*
X126292858Y-117362295D02*
X126292858Y-116562295D01*
X126292858Y-116562295D02*
X126597620Y-116562295D01*
X126597620Y-116562295D02*
X126673810Y-116600390D01*
X126673810Y-116600390D02*
X126711905Y-116638485D01*
X126711905Y-116638485D02*
X126750001Y-116714676D01*
X126750001Y-116714676D02*
X126750001Y-116828961D01*
X126750001Y-116828961D02*
X126711905Y-116905152D01*
X126711905Y-116905152D02*
X126673810Y-116943247D01*
X126673810Y-116943247D02*
X126597620Y-116981342D01*
X126597620Y-116981342D02*
X126292858Y-116981342D01*
X127092858Y-117057533D02*
X127702382Y-117057533D01*
X128083334Y-117362295D02*
X128083334Y-116562295D01*
X128464286Y-117362295D02*
X128464286Y-116562295D01*
X128464286Y-116562295D02*
X128921429Y-117362295D01*
X128921429Y-117362295D02*
X128921429Y-116562295D01*
X147350390Y-96695237D02*
X147312295Y-96771427D01*
X147312295Y-96771427D02*
X147312295Y-96885713D01*
X147312295Y-96885713D02*
X147350390Y-96999999D01*
X147350390Y-96999999D02*
X147426580Y-97076189D01*
X147426580Y-97076189D02*
X147502771Y-97114284D01*
X147502771Y-97114284D02*
X147655152Y-97152380D01*
X147655152Y-97152380D02*
X147769438Y-97152380D01*
X147769438Y-97152380D02*
X147921819Y-97114284D01*
X147921819Y-97114284D02*
X147998009Y-97076189D01*
X147998009Y-97076189D02*
X148074200Y-96999999D01*
X148074200Y-96999999D02*
X148112295Y-96885713D01*
X148112295Y-96885713D02*
X148112295Y-96809522D01*
X148112295Y-96809522D02*
X148074200Y-96695237D01*
X148074200Y-96695237D02*
X148036104Y-96657141D01*
X148036104Y-96657141D02*
X147769438Y-96657141D01*
X147769438Y-96657141D02*
X147769438Y-96809522D01*
X148112295Y-96314284D02*
X147312295Y-96314284D01*
X147312295Y-96314284D02*
X147312295Y-96009522D01*
X147312295Y-96009522D02*
X147350390Y-95933332D01*
X147350390Y-95933332D02*
X147388485Y-95895237D01*
X147388485Y-95895237D02*
X147464676Y-95857141D01*
X147464676Y-95857141D02*
X147578961Y-95857141D01*
X147578961Y-95857141D02*
X147655152Y-95895237D01*
X147655152Y-95895237D02*
X147693247Y-95933332D01*
X147693247Y-95933332D02*
X147731342Y-96009522D01*
X147731342Y-96009522D02*
X147731342Y-96314284D01*
X148112295Y-95514284D02*
X147312295Y-95514284D01*
X147312295Y-94980951D02*
X147312295Y-94828570D01*
X147312295Y-94828570D02*
X147350390Y-94752380D01*
X147350390Y-94752380D02*
X147426580Y-94676189D01*
X147426580Y-94676189D02*
X147578961Y-94638094D01*
X147578961Y-94638094D02*
X147845628Y-94638094D01*
X147845628Y-94638094D02*
X147998009Y-94676189D01*
X147998009Y-94676189D02*
X148074200Y-94752380D01*
X148074200Y-94752380D02*
X148112295Y-94828570D01*
X148112295Y-94828570D02*
X148112295Y-94980951D01*
X148112295Y-94980951D02*
X148074200Y-95057142D01*
X148074200Y-95057142D02*
X147998009Y-95133332D01*
X147998009Y-95133332D02*
X147845628Y-95171428D01*
X147845628Y-95171428D02*
X147578961Y-95171428D01*
X147578961Y-95171428D02*
X147426580Y-95133332D01*
X147426580Y-95133332D02*
X147350390Y-95057142D01*
X147350390Y-95057142D02*
X147312295Y-94980951D01*
X147807533Y-94295237D02*
X147807533Y-93685714D01*
X147693247Y-93038095D02*
X147731342Y-92923809D01*
X147731342Y-92923809D02*
X147769438Y-92885714D01*
X147769438Y-92885714D02*
X147845628Y-92847618D01*
X147845628Y-92847618D02*
X147959914Y-92847618D01*
X147959914Y-92847618D02*
X148036104Y-92885714D01*
X148036104Y-92885714D02*
X148074200Y-92923809D01*
X148074200Y-92923809D02*
X148112295Y-92999999D01*
X148112295Y-92999999D02*
X148112295Y-93304761D01*
X148112295Y-93304761D02*
X147312295Y-93304761D01*
X147312295Y-93304761D02*
X147312295Y-93038095D01*
X147312295Y-93038095D02*
X147350390Y-92961904D01*
X147350390Y-92961904D02*
X147388485Y-92923809D01*
X147388485Y-92923809D02*
X147464676Y-92885714D01*
X147464676Y-92885714D02*
X147540866Y-92885714D01*
X147540866Y-92885714D02*
X147617057Y-92923809D01*
X147617057Y-92923809D02*
X147655152Y-92961904D01*
X147655152Y-92961904D02*
X147693247Y-93038095D01*
X147693247Y-93038095D02*
X147693247Y-93304761D01*
X166914285Y-104562295D02*
X167371428Y-104562295D01*
X167142856Y-105362295D02*
X167142856Y-104562295D01*
X167638095Y-105362295D02*
X167638095Y-104562295D01*
X167638095Y-104562295D02*
X167942857Y-104562295D01*
X167942857Y-104562295D02*
X168019047Y-104600390D01*
X168019047Y-104600390D02*
X168057142Y-104638485D01*
X168057142Y-104638485D02*
X168095238Y-104714676D01*
X168095238Y-104714676D02*
X168095238Y-104828961D01*
X168095238Y-104828961D02*
X168057142Y-104905152D01*
X168057142Y-104905152D02*
X168019047Y-104943247D01*
X168019047Y-104943247D02*
X167942857Y-104981342D01*
X167942857Y-104981342D02*
X167638095Y-104981342D01*
X168438095Y-105362295D02*
X168438095Y-104562295D01*
X168438095Y-104562295D02*
X168704761Y-105133723D01*
X168704761Y-105133723D02*
X168971428Y-104562295D01*
X168971428Y-104562295D02*
X168971428Y-105362295D01*
M02*
