G04 #@! TF.GenerationSoftware,KiCad,Pcbnew,9.0.2+dfsg-1*
G04 #@! TF.CreationDate,2026-05-22T15:58:04-04:00*
G04 #@! TF.ProjectId,CAPE-A-1,43415045-2d41-42d3-912e-6b696361645f,M*
G04 #@! TF.SameCoordinates,Original*
G04 #@! TF.FileFunction,Copper,L3,Inr*
G04 #@! TF.FilePolarity,Positive*
%FSLAX46Y46*%
G04 Gerber Fmt 4.6, Leading zero omitted, Abs format (unit mm)*
G04 Created by KiCad (PCBNEW 9.0.2+dfsg-1) date 2026-05-22 15:58:04*
%MOMM*%
%LPD*%
G01*
G04 APERTURE LIST*
G04 #@! TA.AperFunction,ComponentPad*
%ADD10R,1.700000X1.700000*%
G04 #@! TD*
G04 #@! TA.AperFunction,ComponentPad*
%ADD11C,1.700000*%
G04 #@! TD*
G04 #@! TA.AperFunction,ComponentPad*
%ADD12R,1.500000X1.500000*%
G04 #@! TD*
G04 #@! TA.AperFunction,ComponentPad*
%ADD13C,1.500000*%
G04 #@! TD*
G04 APERTURE END LIST*
D10*
G04 #@! TO.N,N/C*
G04 #@! TO.C,SERVO-PWM*
X174000000Y-95460000D03*
D11*
X174000000Y-98000000D03*
X174000000Y-100540000D03*
X174000000Y-103080000D03*
X174000000Y-105620000D03*
X174000000Y-108160000D03*
X174000000Y-110700000D03*
X174000000Y-113240000D03*
G04 #@! TD*
D12*
G04 #@! TO.N,N/C*
G04 #@! TO.C,PWR-IN*
X123000000Y-116000000D03*
D13*
X125500000Y-116000000D03*
X128000000Y-116000000D03*
X130500000Y-116000000D03*
G04 #@! TD*
D11*
G04 #@! TO.N,N/C*
G04 #@! TO.C,PB2-P2*
X126910000Y-118690000D03*
X126910000Y-121230000D03*
X129450000Y-118690000D03*
X129450000Y-121230000D03*
X131990000Y-118690000D03*
X131990000Y-121230000D03*
X134530000Y-118690000D03*
X134530000Y-121230000D03*
X137070000Y-118690000D03*
X137070000Y-121230000D03*
X139610000Y-118690000D03*
X139610000Y-121230000D03*
X142150000Y-118690000D03*
X142150000Y-121230000D03*
X144690000Y-118690000D03*
X144690000Y-121230000D03*
X147230000Y-118690000D03*
X147230000Y-121230000D03*
X149770000Y-118690000D03*
X149770000Y-121230000D03*
X152310000Y-118690000D03*
X152310000Y-121230000D03*
X154850000Y-118690000D03*
X154850000Y-121230000D03*
X157390000Y-118690000D03*
X157390000Y-121230000D03*
X159930000Y-118690000D03*
X159930000Y-121230000D03*
X162470000Y-118690000D03*
X162470000Y-121230000D03*
X165010000Y-118690000D03*
X165010000Y-121230000D03*
X167550000Y-118690000D03*
X167550000Y-121230000D03*
X170090000Y-118690000D03*
X170090000Y-121230000D03*
G04 #@! TD*
G04 #@! TO.N,N/C*
G04 #@! TO.C,PB2-P1*
X126910000Y-88770000D03*
X126910000Y-91310000D03*
X129450000Y-88770000D03*
X129450000Y-91310000D03*
X131990000Y-88770000D03*
X131990000Y-91310000D03*
X134530000Y-88770000D03*
X134530000Y-91310000D03*
X137070000Y-88770000D03*
X137070000Y-91310000D03*
X139610000Y-88770000D03*
X139610000Y-91310000D03*
X142150000Y-88770000D03*
X142150000Y-91310000D03*
X144690000Y-88770000D03*
X144690000Y-91310000D03*
X147230000Y-88770000D03*
X147230000Y-91310000D03*
X149770000Y-88770000D03*
X149770000Y-91310000D03*
X152310000Y-88770000D03*
X152310000Y-91310000D03*
X154850000Y-88770000D03*
X154850000Y-91310000D03*
X157390000Y-88770000D03*
X157390000Y-91310000D03*
X159930000Y-88770000D03*
X159930000Y-91310000D03*
X162470000Y-88770000D03*
X162470000Y-91310000D03*
X165010000Y-88770000D03*
X165010000Y-91310000D03*
X167550000Y-88770000D03*
X167550000Y-91310000D03*
X170090000Y-88770000D03*
X170090000Y-91310000D03*
G04 #@! TD*
M02*
