G04 #@! TF.GenerationSoftware,KiCad,Pcbnew,9.0.2+dfsg-1*
G04 #@! TF.CreationDate,2026-05-22T15:58:04-04:00*
G04 #@! TF.ProjectId,CAPE-A-1,43415045-2d41-42d3-912e-6b696361645f,M*
G04 #@! TF.SameCoordinates,Original*
G04 #@! TF.FileFunction,Copper,L1,Top*
G04 #@! TF.FilePolarity,Positive*
%FSLAX46Y46*%
G04 Gerber Fmt 4.6, Leading zero omitted, Abs format (unit mm)*
G04 Created by KiCad (PCBNEW 9.0.2+dfsg-1) date 2026-05-22 15:58:04*
%MOMM*%
%LPD*%
G01*
G04 APERTURE LIST*
G04 #@! TA.AperFunction,SMDPad,CuDef*
%ADD10R,0.800000X1.600000*%
G04 #@! TD*
G04 #@! TA.AperFunction,SMDPad,CuDef*
%ADD11R,0.500000X0.500000*%
G04 #@! TD*
G04 #@! TA.AperFunction,SMDPad,CuDef*
%ADD12R,8.000000X8.000000*%
G04 #@! TD*
G04 #@! TA.AperFunction,SMDPad,CuDef*
%ADD13R,5.500000X5.500000*%
G04 #@! TD*
G04 #@! TA.AperFunction,SMDPad,CuDef*
%ADD14R,5.940000X3.600000*%
G04 #@! TD*
G04 #@! TA.AperFunction,SMDPad,CuDef*
%ADD15R,1.600000X0.800000*%
G04 #@! TD*
G04 #@! TA.AperFunction,SMDPad,CuDef*
%ADD16R,3.000000X2.400000*%
G04 #@! TD*
G04 #@! TA.AperFunction,ComponentPad*
%ADD17R,1.700000X1.700000*%
G04 #@! TD*
G04 #@! TA.AperFunction,ComponentPad*
%ADD18C,1.700000*%
G04 #@! TD*
G04 #@! TA.AperFunction,SMDPad,CuDef*
%ADD19R,3.360000X4.800000*%
G04 #@! TD*
G04 #@! TA.AperFunction,SMDPad,CuDef*
%ADD20R,2.100000X2.100000*%
G04 #@! TD*
G04 #@! TA.AperFunction,SMDPad,CuDef*
%ADD21R,1.200000X1.200000*%
G04 #@! TD*
G04 #@! TA.AperFunction,ComponentPad*
%ADD22R,1.500000X1.500000*%
G04 #@! TD*
G04 #@! TA.AperFunction,ComponentPad*
%ADD23C,1.500000*%
G04 #@! TD*
G04 #@! TA.AperFunction,SMDPad,CuDef*
%ADD24R,2.400000X8.000000*%
G04 #@! TD*
G04 APERTURE END LIST*
D10*
G04 #@! TO.P,CAN-FD,1*
G04 #@! TO.N,N/C*
X125125000Y-94000000D03*
G04 #@! TO.P,CAN-FD,2*
X126375000Y-94000000D03*
G04 #@! TO.P,CAN-FD,3*
X127625000Y-94000000D03*
G04 #@! TO.P,CAN-FD,4*
X128875000Y-94000000D03*
G04 #@! TD*
G04 #@! TO.P,ETH1,1*
G04 #@! TO.N,N/C*
X123750000Y-108000000D03*
G04 #@! TO.P,ETH1,2*
X125000000Y-108000000D03*
G04 #@! TO.P,ETH1,3*
X126250000Y-108000000D03*
G04 #@! TO.P,ETH1,4*
X127500000Y-108000000D03*
G04 #@! TO.P,ETH1,5*
X128750000Y-108000000D03*
G04 #@! TO.P,ETH1,6*
X130000000Y-108000000D03*
G04 #@! TD*
D11*
G04 #@! TO.P,GPS,1*
G04 #@! TO.N,N/C*
X153600000Y-103000000D03*
D12*
G04 #@! TO.P,GPS,SAM-M10Q-00B*
X159000000Y-103000000D03*
G04 #@! TD*
D11*
G04 #@! TO.P,ETH1-PHY,1*
G04 #@! TO.N,N/C*
X132750000Y-103000000D03*
D13*
G04 #@! TO.P,ETH1-PHY,DP83825I*
X137000000Y-103000000D03*
G04 #@! TD*
D11*
G04 #@! TO.P,1553-DRV,1*
G04 #@! TO.N,N/C*
X154450000Y-113000000D03*
D14*
G04 #@! TO.P,1553-DRV,DS26LV31*
X149500000Y-113000000D03*
G04 #@! TD*
D10*
G04 #@! TO.P,ETH2,1*
G04 #@! TO.N,N/C*
X123750000Y-112500000D03*
G04 #@! TO.P,ETH2,2*
X125000000Y-112500000D03*
G04 #@! TO.P,ETH2,3*
X126250000Y-112500000D03*
G04 #@! TO.P,ETH2,4*
X127500000Y-112500000D03*
G04 #@! TO.P,ETH2,5*
X128750000Y-112500000D03*
G04 #@! TO.P,ETH2,6*
X130000000Y-112500000D03*
G04 #@! TD*
D15*
G04 #@! TO.P,GPIO-F,1*
G04 #@! TO.N,N/C*
X170500000Y-94500000D03*
G04 #@! TO.P,GPIO-F,2*
X170500000Y-95750000D03*
G04 #@! TO.P,GPIO-F,3*
X170500000Y-97000000D03*
G04 #@! TD*
D10*
G04 #@! TO.P,MIL-1553,1*
G04 #@! TO.N,N/C*
X125125000Y-103000000D03*
G04 #@! TO.P,MIL-1553,2*
X126375000Y-103000000D03*
G04 #@! TO.P,MIL-1553,3*
X127625000Y-103000000D03*
G04 #@! TO.P,MIL-1553,4*
X128875000Y-103000000D03*
G04 #@! TD*
G04 #@! TO.P,RS-485,1*
G04 #@! TO.N,N/C*
X125125000Y-98500000D03*
G04 #@! TO.P,RS-485,2*
X126375000Y-98500000D03*
G04 #@! TO.P,RS-485,3*
X127625000Y-98500000D03*
G04 #@! TO.P,RS-485,4*
X128875000Y-98500000D03*
G04 #@! TD*
D11*
G04 #@! TO.P,CAN-TR,1*
G04 #@! TO.N,N/C*
X132500000Y-115000000D03*
D16*
G04 #@! TO.P,CAN-TR,ATA6561*
X135000000Y-115000000D03*
G04 #@! TD*
D17*
G04 #@! TO.P,SERVO-PWM,1*
G04 #@! TO.N,N/C*
X174000000Y-95460000D03*
D18*
G04 #@! TO.P,SERVO-PWM,2*
X174000000Y-98000000D03*
G04 #@! TO.P,SERVO-PWM,3*
X174000000Y-100540000D03*
G04 #@! TO.P,SERVO-PWM,4*
X174000000Y-103080000D03*
G04 #@! TO.P,SERVO-PWM,5*
X174000000Y-105620000D03*
G04 #@! TO.P,SERVO-PWM,6*
X174000000Y-108160000D03*
G04 #@! TO.P,SERVO-PWM,7*
X174000000Y-110700000D03*
G04 #@! TO.P,SERVO-PWM,8*
X174000000Y-113240000D03*
G04 #@! TD*
D10*
G04 #@! TO.P,GPIO-D,1*
G04 #@! TO.N,N/C*
X159750000Y-95000000D03*
G04 #@! TO.P,GPIO-D,2*
X161000000Y-95000000D03*
G04 #@! TO.P,GPIO-D,3*
X162250000Y-95000000D03*
G04 #@! TD*
D11*
G04 #@! TO.P,1553-RCV,1*
G04 #@! TO.N,N/C*
X155050000Y-113000000D03*
D14*
G04 #@! TO.P,1553-RCV,DS26LV32*
X160000000Y-113000000D03*
G04 #@! TD*
D10*
G04 #@! TO.P,GPIO-A,1*
G04 #@! TO.N,N/C*
X143000000Y-95000000D03*
G04 #@! TO.P,GPIO-A,2*
X144250000Y-95000000D03*
G04 #@! TO.P,GPIO-A,3*
X145500000Y-95000000D03*
G04 #@! TD*
D11*
G04 #@! TO.P,1553-XFM,1*
G04 #@! TO.N,N/C*
X141500000Y-116500000D03*
D19*
G04 #@! TO.P,1553-XFM,SM-1553-11*
X141500000Y-112500000D03*
G04 #@! TD*
D11*
G04 #@! TO.P,IMU,1*
G04 #@! TO.N,N/C*
X132250000Y-95500000D03*
D20*
G04 #@! TO.P,IMU,ICM-42688-P*
X134000000Y-95500000D03*
G04 #@! TD*
D10*
G04 #@! TO.P,GPIO-C,1*
G04 #@! TO.N,N/C*
X154500000Y-95000000D03*
G04 #@! TO.P,GPIO-C,2*
X155750000Y-95000000D03*
G04 #@! TO.P,GPIO-C,3*
X157000000Y-95000000D03*
G04 #@! TD*
D11*
G04 #@! TO.P,RS485,1*
G04 #@! TO.N,N/C*
X132500000Y-110500000D03*
D16*
G04 #@! TO.P,RS485,MAX3485E*
X135000000Y-110500000D03*
G04 #@! TD*
D11*
G04 #@! TO.P,BARO,1*
G04 #@! TO.N,N/C*
X137000000Y-95500000D03*
D21*
G04 #@! TO.P,BARO,BMP388*
X138500000Y-95500000D03*
G04 #@! TD*
D10*
G04 #@! TO.P,ESC-TLM,1*
G04 #@! TO.N,N/C*
X167250000Y-100000000D03*
G04 #@! TO.P,ESC-TLM,2*
X168500000Y-100000000D03*
G04 #@! TO.P,ESC-TLM,3*
X169750000Y-100000000D03*
G04 #@! TD*
D15*
G04 #@! TO.P,GPIO-E,1*
G04 #@! TO.N,N/C*
X167000000Y-94500000D03*
G04 #@! TO.P,GPIO-E,2*
X167000000Y-95750000D03*
G04 #@! TO.P,GPIO-E,3*
X167000000Y-97000000D03*
G04 #@! TD*
D11*
G04 #@! TO.P,ETH2-PHY,1*
G04 #@! TO.N,N/C*
X142750000Y-102500000D03*
D13*
G04 #@! TO.P,ETH2-PHY,DP83825I*
X147000000Y-102500000D03*
G04 #@! TD*
D22*
G04 #@! TO.P,PWR-IN,1*
G04 #@! TO.N,N/C*
X123000000Y-116000000D03*
D23*
G04 #@! TO.P,PWR-IN,2*
X125500000Y-116000000D03*
G04 #@! TO.P,PWR-IN,3*
X128000000Y-116000000D03*
G04 #@! TO.P,PWR-IN,4*
X130500000Y-116000000D03*
G04 #@! TD*
D10*
G04 #@! TO.P,GPIO-B,1*
G04 #@! TO.N,N/C*
X149000000Y-95000000D03*
G04 #@! TO.P,GPIO-B,2*
X150250000Y-95000000D03*
G04 #@! TO.P,GPIO-B,3*
X151500000Y-95000000D03*
G04 #@! TD*
D11*
G04 #@! TO.P,TPM,1*
G04 #@! TO.N,N/C*
X171200000Y-110500000D03*
D24*
G04 #@! TO.P,TPM,SLB9670*
X168500000Y-110500000D03*
G04 #@! TD*
D18*
G04 #@! TO.P,PB2-P2,1*
G04 #@! TO.N,N/C*
X126910000Y-118690000D03*
G04 #@! TO.P,PB2-P2,2*
X126910000Y-121230000D03*
G04 #@! TO.P,PB2-P2,3*
X129450000Y-118690000D03*
G04 #@! TO.P,PB2-P2,4*
X129450000Y-121230000D03*
G04 #@! TO.P,PB2-P2,5*
X131990000Y-118690000D03*
G04 #@! TO.P,PB2-P2,6*
X131990000Y-121230000D03*
G04 #@! TO.P,PB2-P2,7*
X134530000Y-118690000D03*
G04 #@! TO.P,PB2-P2,8*
X134530000Y-121230000D03*
G04 #@! TO.P,PB2-P2,9*
X137070000Y-118690000D03*
G04 #@! TO.P,PB2-P2,10*
X137070000Y-121230000D03*
G04 #@! TO.P,PB2-P2,11*
X139610000Y-118690000D03*
G04 #@! TO.P,PB2-P2,12*
X139610000Y-121230000D03*
G04 #@! TO.P,PB2-P2,13*
X142150000Y-118690000D03*
G04 #@! TO.P,PB2-P2,14*
X142150000Y-121230000D03*
G04 #@! TO.P,PB2-P2,15*
X144690000Y-118690000D03*
G04 #@! TO.P,PB2-P2,16*
X144690000Y-121230000D03*
G04 #@! TO.P,PB2-P2,17*
X147230000Y-118690000D03*
G04 #@! TO.P,PB2-P2,18*
X147230000Y-121230000D03*
G04 #@! TO.P,PB2-P2,19*
X149770000Y-118690000D03*
G04 #@! TO.P,PB2-P2,20*
X149770000Y-121230000D03*
G04 #@! TO.P,PB2-P2,21*
X152310000Y-118690000D03*
G04 #@! TO.P,PB2-P2,22*
X152310000Y-121230000D03*
G04 #@! TO.P,PB2-P2,23*
X154850000Y-118690000D03*
G04 #@! TO.P,PB2-P2,24*
X154850000Y-121230000D03*
G04 #@! TO.P,PB2-P2,25*
X157390000Y-118690000D03*
G04 #@! TO.P,PB2-P2,26*
X157390000Y-121230000D03*
G04 #@! TO.P,PB2-P2,27*
X159930000Y-118690000D03*
G04 #@! TO.P,PB2-P2,28*
X159930000Y-121230000D03*
G04 #@! TO.P,PB2-P2,29*
X162470000Y-118690000D03*
G04 #@! TO.P,PB2-P2,30*
X162470000Y-121230000D03*
G04 #@! TO.P,PB2-P2,31*
X165010000Y-118690000D03*
G04 #@! TO.P,PB2-P2,32*
X165010000Y-121230000D03*
G04 #@! TO.P,PB2-P2,33*
X167550000Y-118690000D03*
G04 #@! TO.P,PB2-P2,34*
X167550000Y-121230000D03*
G04 #@! TO.P,PB2-P2,35*
X170090000Y-118690000D03*
G04 #@! TO.P,PB2-P2,36*
X170090000Y-121230000D03*
G04 #@! TD*
G04 #@! TO.P,PB2-P1,1*
G04 #@! TO.N,N/C*
X126910000Y-88770000D03*
G04 #@! TO.P,PB2-P1,2*
X126910000Y-91310000D03*
G04 #@! TO.P,PB2-P1,3*
X129450000Y-88770000D03*
G04 #@! TO.P,PB2-P1,4*
X129450000Y-91310000D03*
G04 #@! TO.P,PB2-P1,5*
X131990000Y-88770000D03*
G04 #@! TO.P,PB2-P1,6*
X131990000Y-91310000D03*
G04 #@! TO.P,PB2-P1,7*
X134530000Y-88770000D03*
G04 #@! TO.P,PB2-P1,8*
X134530000Y-91310000D03*
G04 #@! TO.P,PB2-P1,9*
X137070000Y-88770000D03*
G04 #@! TO.P,PB2-P1,10*
X137070000Y-91310000D03*
G04 #@! TO.P,PB2-P1,11*
X139610000Y-88770000D03*
G04 #@! TO.P,PB2-P1,12*
X139610000Y-91310000D03*
G04 #@! TO.P,PB2-P1,13*
X142150000Y-88770000D03*
G04 #@! TO.P,PB2-P1,14*
X142150000Y-91310000D03*
G04 #@! TO.P,PB2-P1,15*
X144690000Y-88770000D03*
G04 #@! TO.P,PB2-P1,16*
X144690000Y-91310000D03*
G04 #@! TO.P,PB2-P1,17*
X147230000Y-88770000D03*
G04 #@! TO.P,PB2-P1,18*
X147230000Y-91310000D03*
G04 #@! TO.P,PB2-P1,19*
X149770000Y-88770000D03*
G04 #@! TO.P,PB2-P1,20*
X149770000Y-91310000D03*
G04 #@! TO.P,PB2-P1,21*
X152310000Y-88770000D03*
G04 #@! TO.P,PB2-P1,22*
X152310000Y-91310000D03*
G04 #@! TO.P,PB2-P1,23*
X154850000Y-88770000D03*
G04 #@! TO.P,PB2-P1,24*
X154850000Y-91310000D03*
G04 #@! TO.P,PB2-P1,25*
X157390000Y-88770000D03*
G04 #@! TO.P,PB2-P1,26*
X157390000Y-91310000D03*
G04 #@! TO.P,PB2-P1,27*
X159930000Y-88770000D03*
G04 #@! TO.P,PB2-P1,28*
X159930000Y-91310000D03*
G04 #@! TO.P,PB2-P1,29*
X162470000Y-88770000D03*
G04 #@! TO.P,PB2-P1,30*
X162470000Y-91310000D03*
G04 #@! TO.P,PB2-P1,31*
X165010000Y-88770000D03*
G04 #@! TO.P,PB2-P1,32*
X165010000Y-91310000D03*
G04 #@! TO.P,PB2-P1,33*
X167550000Y-88770000D03*
G04 #@! TO.P,PB2-P1,34*
X167550000Y-91310000D03*
G04 #@! TO.P,PB2-P1,35*
X170090000Y-88770000D03*
G04 #@! TO.P,PB2-P1,36*
X170090000Y-91310000D03*
G04 #@! TD*
M02*
