%TF.GenerationSoftware,KiCad,Pcbnew,9.0.2+dfsg-1*%
%TF.CreationDate,2026-06-04T19:35:04-04:00*%
%TF.ProjectId,CAPE-A-2,43415045-2d41-42d3-922e-6b696361645f,A-STUB*%
%TF.SameCoordinates,Original*%
%TF.FileFunction,Copper,L4,Bot*%
%TF.FilePolarity,Positive*%
%FSLAX46Y46*%
G04 Gerber Fmt 4.6, Leading zero omitted, Abs format (unit mm)*
G04 Created by KiCad (PCBNEW 9.0.2+dfsg-1) date 2026-06-04 19:35:04*
%MOMM*%
%LPD*%
G01*
G04 APERTURE LIST*
G04 Aperture macros list*
%AMRoundRect*
0 Rectangle with rounded corners*
0 $1 Rounding radius*
0 $2 $3 $4 $5 $6 $7 $8 $9 X,Y pos of 4 corners*
0 Add a 4 corners polygon primitive as box body*
4,1,4,$2,$3,$4,$5,$6,$7,$8,$9,$2,$3,0*
0 Add four circle primitives for the rounded corners*
1,1,$1+$1,$2,$3*
1,1,$1+$1,$4,$5*
1,1,$1+$1,$6,$7*
1,1,$1+$1,$8,$9*
0 Add four rect primitives between the rounded corners*
20,1,$1+$1,$2,$3,$4,$5,0*
20,1,$1+$1,$4,$5,$6,$7,0*
20,1,$1+$1,$6,$7,$8,$9,0*
20,1,$1+$1,$8,$9,$2,$3,0*%
G04 Aperture macros list end*
%TA.AperFunction,ComponentPad*%
%ADD10R,1.700000X1.700000*%
%TD*%
%TA.AperFunction,ComponentPad*%
%ADD11C,1.700000*%
%TD*%
%TA.AperFunction,ComponentPad*%
%ADD12R,1.500000X1.500000*%
%TD*%
%TA.AperFunction,ComponentPad*%
%ADD13C,1.500000*%
%TD*%
%TA.AperFunction,ComponentPad*%
%ADD14RoundRect,0.000000X-2.825000X-2.825000X2.825000X-2.825000X2.825000X2.825000X-2.825000X2.825000X0*%
%TD*%
%TA.AperFunction,ViaPad*%
%ADD15C,0.800000*%
%TD*%
%TA.AperFunction,Conductor*%
%ADD16C,0.100000*%
%TD*%
%ADD17C,0.350000*%
%ADD18O,0.500000X0.500000*%
G04 APERTURE END LIST*
D10*
%TO.P,SERVO-PWM,1*%
%TO.N,N/C*%
X174000000Y-95460000D03*
D11*
%TO.P,SERVO-PWM,2*%
X174000000Y-98000000D03*
%TO.P,SERVO-PWM,3*%
X174000000Y-100540000D03*
%TO.P,SERVO-PWM,4*%
X174000000Y-103080000D03*
%TO.P,SERVO-PWM,5*%
X174000000Y-105620000D03*
%TO.P,SERVO-PWM,6*%
X174000000Y-108160000D03*
%TO.P,SERVO-PWM,7*%
X174000000Y-110700000D03*
%TO.P,SERVO-PWM,8*%
X174000000Y-113240000D03*
%TD*%
D12*
%TO.P,PWR-IN,1*%
%TO.N,N/C*%
X123000000Y-116000000D03*
D13*
%TO.P,PWR-IN,2*%
X125500000Y-116000000D03*
%TO.P,PWR-IN,3*%
X128000000Y-116000000D03*
%TO.P,PWR-IN,4*%
X130500000Y-116000000D03*
%TD*%
D11*
%TO.P,PB2-P2,1*%
%TO.N,SERVO7*%
X126910000Y-118690000D03*
%TO.P,PB2-P2,2*%
%TO.N,SERVO6*%
X126910000Y-121230000D03*
%TO.P,PB2-P2,3*%
%TO.N,SERVO5*%
X129450000Y-118690000D03*
%TO.P,PB2-P2,4*%
%TO.N,SERVO4*%
X129450000Y-121230000D03*
%TO.P,PB2-P2,5*%
%TO.N,SERVO3*%
X131990000Y-118690000D03*
%TO.P,PB2-P2,6*%
%TO.N,SERVO2*%
X131990000Y-121230000D03*
%TO.P,PB2-P2,7*%
%TO.N,SERVO1*%
X134530000Y-118690000D03*
%TO.P,PB2-P2,8*%
%TO.N,SERVO0*%
X134530000Y-121230000D03*
%TO.P,PB2-P2,9*%
%TO.N,GPS_RESETN*%
X137070000Y-118690000D03*
%TO.P,PB2-P2,10*%
%TO.N,GPS_TIMEPULSE*%
X137070000Y-121230000D03*
%TO.P,PB2-P2,11*%
%TO.N,TPM_RSTN*%
X139610000Y-118690000D03*
%TO.P,PB2-P2,12*%
%TO.N,TPM_IRQN*%
X139610000Y-121230000D03*
%TO.P,PB2-P2,13*%
%TO.N,PHY2_RSTN*%
X142150000Y-118690000D03*
%TO.P,PB2-P2,14*%
%TO.N,PHY2_INTRN*%
X142150000Y-121230000D03*
%TO.P,PB2-P2,15*%
%TO.N,PHY1_RSTN*%
X144690000Y-118690000D03*
%TO.P,PB2-P2,16*%
%TO.N,PHY1_INTRN*%
X144690000Y-121230000D03*
%TO.P,PB2-P2,17*%
%TO.N,MDIO*%
X147230000Y-118690000D03*
%TO.P,PB2-P2,18*%
%TO.N,MDC*%
X147230000Y-121230000D03*
%TO.P,PB2-P2,19*%
%TO.N,RMII1_REF_CLK*%
X149770000Y-118690000D03*
%TO.P,PB2-P2,20*%
%TO.N,RMII1_RX_ER*%
X149770000Y-121230000D03*
%TO.P,PB2-P2,21*%
%TO.N,RMII1_CRS_DV*%
X152310000Y-118690000D03*
%TO.P,PB2-P2,22*%
%TO.N,RMII1_RXD1*%
X152310000Y-121230000D03*
%TO.P,PB2-P2,23*%
%TO.N,RMII1_RXD0*%
X154850000Y-118690000D03*
%TO.P,PB2-P2,24*%
%TO.N,RMII1_TX_EN*%
X154850000Y-121230000D03*
%TO.P,PB2-P2,25*%
%TO.N,RMII1_TXD1*%
X157390000Y-118690000D03*
%TO.P,PB2-P2,26*%
%TO.N,RMII1_TXD0*%
X157390000Y-121230000D03*
%TO.P,PB2-P2,27*%
%TO.N,RMII0_REF_CLK*%
X159930000Y-118690000D03*
%TO.P,PB2-P2,28*%
%TO.N,RMII0_RX_ER*%
X159930000Y-121230000D03*
%TO.P,PB2-P2,29*%
%TO.N,RMII0_CRS_DV*%
X162470000Y-118690000D03*
%TO.P,PB2-P2,30*%
%TO.N,RMII0_RXD1*%
X162470000Y-121230000D03*
%TO.P,PB2-P2,31*%
%TO.N,RMII0_RXD0*%
X165010000Y-118690000D03*
%TO.P,PB2-P2,32*%
%TO.N,RMII0_TX_EN*%
X165010000Y-121230000D03*
%TO.P,PB2-P2,33*%
%TO.N,RMII0_TXD1*%
X167550000Y-118690000D03*
%TO.P,PB2-P2,34*%
%TO.N,RMII0_TXD0*%
X167550000Y-121230000D03*
%TO.P,PB2-P2,35*%
%TO.N,+5V*%
X170090000Y-118690000D03*
%TO.P,PB2-P2,36*%
%TO.N,GND*%
X170090000Y-121230000D03*
%TD*%
%TO.P,PB2-P1,1*%
%TO.N,GND*%
X126910000Y-88770000D03*
%TO.P,PB2-P1,2*%
X126910000Y-91310000D03*
%TO.P,PB2-P1,3*%
%TO.N,DSHOT3*%
X129450000Y-88770000D03*
%TO.P,PB2-P1,4*%
%TO.N,DSHOT2*%
X129450000Y-91310000D03*
%TO.P,PB2-P1,5*%
%TO.N,DSHOT1*%
X131990000Y-88770000D03*
%TO.P,PB2-P1,6*%
%TO.N,DSHOT0*%
X131990000Y-91310000D03*
%TO.P,PB2-P1,7*%
%TO.N,PRU_1553_RX_N*%
X134530000Y-88770000D03*
%TO.P,PB2-P1,8*%
%TO.N,PRU_1553_RX_P*%
X134530000Y-91310000D03*
%TO.P,PB2-P1,9*%
%TO.N,PRU_1553_TX_N*%
X137070000Y-88770000D03*
%TO.P,PB2-P1,10*%
%TO.N,PRU_1553_TX_P*%
X137070000Y-91310000D03*
%TO.P,PB2-P1,11*%
%TO.N,RS485_DE*%
X139610000Y-88770000D03*
%TO.P,PB2-P1,12*%
%TO.N,RS485_RX*%
X139610000Y-91310000D03*
%TO.P,PB2-P1,13*%
%TO.N,RS485_TX*%
X142150000Y-88770000D03*
%TO.P,PB2-P1,14*%
%TO.N,CAN_STB*%
X142150000Y-91310000D03*
%TO.P,PB2-P1,15*%
%TO.N,MCAN0_RX*%
X144690000Y-88770000D03*
%TO.P,PB2-P1,16*%
%TO.N,MCAN0_TX*%
X144690000Y-91310000D03*
%TO.P,PB2-P1,17*%
%TO.N,BARO_INT*%
X147230000Y-88770000D03*
%TO.P,PB2-P1,18*%
%TO.N,IMU_INT2*%
X147230000Y-91310000D03*
%TO.P,PB2-P1,19*%
%TO.N,IMU_INT1*%
X149770000Y-88770000D03*
%TO.P,PB2-P1,20*%
%TO.N,SPI0_CS_1553*%
X149770000Y-91310000D03*
%TO.P,PB2-P1,21*%
%TO.N,SPI0_CS_TPM*%
X152310000Y-88770000D03*
%TO.P,PB2-P1,22*%
%TO.N,SPI0_CS_BARO*%
X152310000Y-91310000D03*
%TO.P,PB2-P1,23*%
%TO.N,SPI0_MISO*%
X154850000Y-88770000D03*
%TO.P,PB2-P1,24*%
%TO.N,SPI0_MOSI*%
X154850000Y-91310000D03*
%TO.P,PB2-P1,25*%
%TO.N,SPI0_CLK*%
X157390000Y-88770000D03*
%TO.P,PB2-P1,26*%
%TO.N,SPI0_CS_IMU*%
X157390000Y-91310000D03*
%TO.P,PB2-P1,27*%
%TO.N,I2C1_SDA*%
X159930000Y-88770000D03*
%TO.P,PB2-P1,28*%
%TO.N,I2C1_SCL*%
X159930000Y-91310000D03*
%TO.P,PB2-P1,29*%
%TO.N,UART_ESC_RX*%
X162470000Y-88770000D03*
%TO.P,PB2-P1,30*%
%TO.N,UART_ESC_TX*%
X162470000Y-91310000D03*
%TO.P,PB2-P1,31*%
%TO.N,UART_GPS_RX*%
X165010000Y-88770000D03*
%TO.P,PB2-P1,32*%
%TO.N,UART_GPS_TX*%
X165010000Y-91310000D03*
%TO.P,PB2-P1,33*%
%TO.N,+3V3*%
X167550000Y-88770000D03*
%TO.P,PB2-P1,34*%
X167550000Y-91310000D03*
%TO.P,PB2-P1,35*%
%TO.N,+5V*%
X170090000Y-88770000D03*
%TO.P,PB2-P1,36*%
%TO.N,GND*%
X170090000Y-91310000D03*
%TD*%
D14*
%TO.P,ETH-PHY,49*%
%TO.N,GND*%
X143000000Y-103000000D03*
%TD*%
D15*
%TO.N,TMESH_P*%
X126000000Y-93000000D03*
X171000000Y-117000000D03*
%TO.N,TMESH_N*%
X126250000Y-93000000D03*
X170750000Y-93000000D03*
%TD*%
D16*
%TO.N,TMESH_N*%
X126250000Y-93000000D02*
X126250000Y-117000000D01*
X126250000Y-117000000D02*
X126750000Y-117000000D01*
X126750000Y-117000000D02*
X126750000Y-93000000D01*
X126750000Y-93000000D02*
X127250000Y-93000000D01*
X127250000Y-93000000D02*
X127250000Y-117000000D01*
X127250000Y-117000000D02*
X127750000Y-117000000D01*
X127750000Y-117000000D02*
X127750000Y-93000000D01*
X127750000Y-93000000D02*
X128250000Y-93000000D01*
X128250000Y-93000000D02*
X128250000Y-117000000D01*
X128250000Y-117000000D02*
X128750000Y-117000000D01*
X128750000Y-117000000D02*
X128750000Y-93000000D01*
X128750000Y-93000000D02*
X129250000Y-93000000D01*
X129250000Y-93000000D02*
X129250000Y-117000000D01*
X129250000Y-117000000D02*
X129750000Y-117000000D01*
X129750000Y-117000000D02*
X129750000Y-93000000D01*
X129750000Y-93000000D02*
X130250000Y-93000000D01*
X130250000Y-93000000D02*
X130250000Y-117000000D01*
X130250000Y-117000000D02*
X130750000Y-117000000D01*
X130750000Y-117000000D02*
X130750000Y-93000000D01*
X130750000Y-93000000D02*
X131250000Y-93000000D01*
X131250000Y-93000000D02*
X131250000Y-117000000D01*
X131250000Y-117000000D02*
X131750000Y-117000000D01*
X131750000Y-117000000D02*
X131750000Y-93000000D01*
X131750000Y-93000000D02*
X132250000Y-93000000D01*
X132250000Y-93000000D02*
X132250000Y-117000000D01*
X132250000Y-117000000D02*
X132750000Y-117000000D01*
X132750000Y-117000000D02*
X132750000Y-93000000D01*
X132750000Y-93000000D02*
X133250000Y-93000000D01*
X133250000Y-93000000D02*
X133250000Y-117000000D01*
X133250000Y-117000000D02*
X133750000Y-117000000D01*
X133750000Y-117000000D02*
X133750000Y-93000000D01*
X133750000Y-93000000D02*
X134250000Y-93000000D01*
X134250000Y-93000000D02*
X134250000Y-117000000D01*
X134250000Y-117000000D02*
X134750000Y-117000000D01*
X134750000Y-117000000D02*
X134750000Y-93000000D01*
X134750000Y-93000000D02*
X135250000Y-93000000D01*
X135250000Y-93000000D02*
X135250000Y-117000000D01*
X135250000Y-117000000D02*
X135750000Y-117000000D01*
X135750000Y-117000000D02*
X135750000Y-93000000D01*
X135750000Y-93000000D02*
X136250000Y-93000000D01*
X136250000Y-93000000D02*
X136250000Y-117000000D01*
X136250000Y-117000000D02*
X136750000Y-117000000D01*
X136750000Y-117000000D02*
X136750000Y-93000000D01*
X136750000Y-93000000D02*
X137250000Y-93000000D01*
X137250000Y-93000000D02*
X137250000Y-117000000D01*
X137250000Y-117000000D02*
X137750000Y-117000000D01*
X137750000Y-117000000D02*
X137750000Y-93000000D01*
X137750000Y-93000000D02*
X138250000Y-93000000D01*
X138250000Y-93000000D02*
X138250000Y-117000000D01*
X138250000Y-117000000D02*
X138750000Y-117000000D01*
X138750000Y-117000000D02*
X138750000Y-93000000D01*
X138750000Y-93000000D02*
X139250000Y-93000000D01*
X139250000Y-93000000D02*
X139250000Y-117000000D01*
X139250000Y-117000000D02*
X139750000Y-117000000D01*
X139750000Y-117000000D02*
X139750000Y-93000000D01*
X139750000Y-93000000D02*
X140250000Y-93000000D01*
X140250000Y-93000000D02*
X140250000Y-117000000D01*
X140250000Y-117000000D02*
X140750000Y-117000000D01*
X140750000Y-117000000D02*
X140750000Y-93000000D01*
X140750000Y-93000000D02*
X141250000Y-93000000D01*
X141250000Y-93000000D02*
X141250000Y-117000000D01*
X141250000Y-117000000D02*
X141750000Y-117000000D01*
X141750000Y-117000000D02*
X141750000Y-93000000D01*
X141750000Y-93000000D02*
X142250000Y-93000000D01*
X142250000Y-93000000D02*
X142250000Y-117000000D01*
X142250000Y-117000000D02*
X142750000Y-117000000D01*
X142750000Y-117000000D02*
X142750000Y-93000000D01*
X142750000Y-93000000D02*
X143250000Y-93000000D01*
X143250000Y-93000000D02*
X143250000Y-117000000D01*
X143250000Y-117000000D02*
X143750000Y-117000000D01*
X143750000Y-117000000D02*
X143750000Y-93000000D01*
X143750000Y-93000000D02*
X144250000Y-93000000D01*
X144250000Y-93000000D02*
X144250000Y-117000000D01*
X144250000Y-117000000D02*
X144750000Y-117000000D01*
X144750000Y-117000000D02*
X144750000Y-93000000D01*
X144750000Y-93000000D02*
X145250000Y-93000000D01*
X145250000Y-93000000D02*
X145250000Y-117000000D01*
X145250000Y-117000000D02*
X145750000Y-117000000D01*
X145750000Y-117000000D02*
X145750000Y-93000000D01*
X145750000Y-93000000D02*
X146250000Y-93000000D01*
X146250000Y-93000000D02*
X146250000Y-117000000D01*
X146250000Y-117000000D02*
X146750000Y-117000000D01*
X146750000Y-117000000D02*
X146750000Y-93000000D01*
X146750000Y-93000000D02*
X147250000Y-93000000D01*
X147250000Y-93000000D02*
X147250000Y-117000000D01*
X147250000Y-117000000D02*
X147750000Y-117000000D01*
X147750000Y-117000000D02*
X147750000Y-93000000D01*
X147750000Y-93000000D02*
X148250000Y-93000000D01*
X148250000Y-93000000D02*
X148250000Y-117000000D01*
X148250000Y-117000000D02*
X148750000Y-117000000D01*
X148750000Y-117000000D02*
X148750000Y-93000000D01*
X148750000Y-93000000D02*
X149250000Y-93000000D01*
X149250000Y-93000000D02*
X149250000Y-117000000D01*
X149250000Y-117000000D02*
X149750000Y-117000000D01*
X149750000Y-117000000D02*
X149750000Y-93000000D01*
X149750000Y-93000000D02*
X150250000Y-93000000D01*
X150250000Y-93000000D02*
X150250000Y-117000000D01*
X150250000Y-117000000D02*
X150750000Y-117000000D01*
X150750000Y-117000000D02*
X150750000Y-93000000D01*
X150750000Y-93000000D02*
X151250000Y-93000000D01*
X151250000Y-93000000D02*
X151250000Y-117000000D01*
X151250000Y-117000000D02*
X151750000Y-117000000D01*
X151750000Y-117000000D02*
X151750000Y-93000000D01*
X151750000Y-93000000D02*
X152250000Y-93000000D01*
X152250000Y-93000000D02*
X152250000Y-117000000D01*
X152250000Y-117000000D02*
X152750000Y-117000000D01*
X152750000Y-117000000D02*
X152750000Y-93000000D01*
X152750000Y-93000000D02*
X153250000Y-93000000D01*
X153250000Y-93000000D02*
X153250000Y-117000000D01*
X153250000Y-117000000D02*
X153750000Y-117000000D01*
X153750000Y-117000000D02*
X153750000Y-93000000D01*
X153750000Y-93000000D02*
X154250000Y-93000000D01*
X154250000Y-93000000D02*
X154250000Y-117000000D01*
X154250000Y-117000000D02*
X154750000Y-117000000D01*
X154750000Y-117000000D02*
X154750000Y-93000000D01*
X154750000Y-93000000D02*
X155250000Y-93000000D01*
X155250000Y-93000000D02*
X155250000Y-117000000D01*
X155250000Y-117000000D02*
X155750000Y-117000000D01*
X155750000Y-117000000D02*
X155750000Y-93000000D01*
X155750000Y-93000000D02*
X156250000Y-93000000D01*
X156250000Y-93000000D02*
X156250000Y-117000000D01*
X156250000Y-117000000D02*
X156750000Y-117000000D01*
X156750000Y-117000000D02*
X156750000Y-93000000D01*
X156750000Y-93000000D02*
X157250000Y-93000000D01*
X157250000Y-93000000D02*
X157250000Y-117000000D01*
X157250000Y-117000000D02*
X157750000Y-117000000D01*
X157750000Y-117000000D02*
X157750000Y-93000000D01*
X157750000Y-93000000D02*
X158250000Y-93000000D01*
X158250000Y-93000000D02*
X158250000Y-117000000D01*
X158250000Y-117000000D02*
X158750000Y-117000000D01*
X158750000Y-117000000D02*
X158750000Y-93000000D01*
X158750000Y-93000000D02*
X159250000Y-93000000D01*
X159250000Y-93000000D02*
X159250000Y-117000000D01*
X159250000Y-117000000D02*
X159750000Y-117000000D01*
X159750000Y-117000000D02*
X159750000Y-93000000D01*
X159750000Y-93000000D02*
X160250000Y-93000000D01*
X160250000Y-93000000D02*
X160250000Y-117000000D01*
X160250000Y-117000000D02*
X160750000Y-117000000D01*
X160750000Y-117000000D02*
X160750000Y-93000000D01*
X160750000Y-93000000D02*
X161250000Y-93000000D01*
X161250000Y-93000000D02*
X161250000Y-117000000D01*
X161250000Y-117000000D02*
X161750000Y-117000000D01*
X161750000Y-117000000D02*
X161750000Y-93000000D01*
X161750000Y-93000000D02*
X162250000Y-93000000D01*
X162250000Y-93000000D02*
X162250000Y-117000000D01*
X162250000Y-117000000D02*
X162750000Y-117000000D01*
X162750000Y-117000000D02*
X162750000Y-93000000D01*
X162750000Y-93000000D02*
X163250000Y-93000000D01*
X163250000Y-93000000D02*
X163250000Y-117000000D01*
X163250000Y-117000000D02*
X163750000Y-117000000D01*
X163750000Y-117000000D02*
X163750000Y-93000000D01*
X163750000Y-93000000D02*
X164250000Y-93000000D01*
X164250000Y-93000000D02*
X164250000Y-117000000D01*
X164250000Y-117000000D02*
X164750000Y-117000000D01*
X164750000Y-117000000D02*
X164750000Y-93000000D01*
X164750000Y-93000000D02*
X165250000Y-93000000D01*
X165250000Y-93000000D02*
X165250000Y-117000000D01*
X165250000Y-117000000D02*
X165750000Y-117000000D01*
X165750000Y-117000000D02*
X165750000Y-93000000D01*
X165750000Y-93000000D02*
X166250000Y-93000000D01*
X166250000Y-93000000D02*
X166250000Y-117000000D01*
X166250000Y-117000000D02*
X166750000Y-117000000D01*
X166750000Y-117000000D02*
X166750000Y-93000000D01*
X166750000Y-93000000D02*
X167250000Y-93000000D01*
X167250000Y-93000000D02*
X167250000Y-117000000D01*
X167250000Y-117000000D02*
X167750000Y-117000000D01*
X167750000Y-117000000D02*
X167750000Y-93000000D01*
X167750000Y-93000000D02*
X168250000Y-93000000D01*
X168250000Y-93000000D02*
X168250000Y-117000000D01*
X168250000Y-117000000D02*
X168750000Y-117000000D01*
X168750000Y-117000000D02*
X168750000Y-93000000D01*
X168750000Y-93000000D02*
X169250000Y-93000000D01*
X169250000Y-93000000D02*
X169250000Y-117000000D01*
X169250000Y-117000000D02*
X169750000Y-117000000D01*
X169750000Y-117000000D02*
X169750000Y-93000000D01*
X169750000Y-93000000D02*
X170250000Y-93000000D01*
X170250000Y-93000000D02*
X170250000Y-117000000D01*
X170250000Y-117000000D02*
X170750000Y-117000000D01*
X170750000Y-117000000D02*
X170750000Y-93000000D01*
%TD*%
D17*
X126000000Y-93000000D03*
X171000000Y-117000000D03*
X126250000Y-93000000D03*
X170750000Y-93000000D03*
X173000000Y-119500000D03*
X124000000Y-119500000D03*
X174000000Y-95460000D03*
X174000000Y-98000000D03*
X174000000Y-100540000D03*
X174000000Y-103080000D03*
X174000000Y-105620000D03*
X174000000Y-108160000D03*
X174000000Y-110700000D03*
X174000000Y-113240000D03*
X124000000Y-90500000D03*
X173000000Y-90500000D03*
X123000000Y-116000000D03*
X125500000Y-116000000D03*
X128000000Y-116000000D03*
X130500000Y-116000000D03*
X126910000Y-118690000D03*
X126910000Y-121230000D03*
X129450000Y-118690000D03*
X129450000Y-121230000D03*
X131990000Y-118690000D03*
X131990000Y-121230000D03*
X134530000Y-118690000D03*
X134530000Y-121230000D03*
X137070000Y-118690000D03*
X137070000Y-121230000D03*
X139610000Y-118690000D03*
X139610000Y-121230000D03*
X142150000Y-118690000D03*
X142150000Y-121230000D03*
X144690000Y-118690000D03*
X144690000Y-121230000D03*
X147230000Y-118690000D03*
X147230000Y-121230000D03*
X149770000Y-118690000D03*
X149770000Y-121230000D03*
X152310000Y-118690000D03*
X152310000Y-121230000D03*
X154850000Y-118690000D03*
X154850000Y-121230000D03*
X157390000Y-118690000D03*
X157390000Y-121230000D03*
X159930000Y-118690000D03*
X159930000Y-121230000D03*
X162470000Y-118690000D03*
X162470000Y-121230000D03*
X165010000Y-118690000D03*
X165010000Y-121230000D03*
X167550000Y-118690000D03*
X167550000Y-121230000D03*
X170090000Y-118690000D03*
X170090000Y-121230000D03*
X126910000Y-88770000D03*
X126910000Y-91310000D03*
X129450000Y-88770000D03*
X129450000Y-91310000D03*
X131990000Y-88770000D03*
X131990000Y-91310000D03*
X134530000Y-88770000D03*
X134530000Y-91310000D03*
X137070000Y-88770000D03*
X137070000Y-91310000D03*
X139610000Y-88770000D03*
X139610000Y-91310000D03*
X142150000Y-88770000D03*
X142150000Y-91310000D03*
X144690000Y-88770000D03*
X144690000Y-91310000D03*
X147230000Y-88770000D03*
X147230000Y-91310000D03*
X149770000Y-88770000D03*
X149770000Y-91310000D03*
X152310000Y-88770000D03*
X152310000Y-91310000D03*
X154850000Y-88770000D03*
X154850000Y-91310000D03*
X157390000Y-88770000D03*
X157390000Y-91310000D03*
X159930000Y-88770000D03*
X159930000Y-91310000D03*
X162470000Y-88770000D03*
X162470000Y-91310000D03*
X165010000Y-88770000D03*
X165010000Y-91310000D03*
X167550000Y-88770000D03*
X167550000Y-91310000D03*
X170090000Y-88770000D03*
X170090000Y-91310000D03*
D18*
X143000000Y-103000000D03*
M02*
