0
SECTION
2
HEADER
9
$ACADVER
1
AC1009
9
$INSUNITS
70
4
0
ENDSEC
0
SECTION
2
ENTITIES
0
POLYLINE
8
RING_PROFILE
66
1
70
1
0
VERTEX
8
RING_PROFILE
10
-235.5981
20
93.1492
30
0.0
0
VERTEX
8
RING_PROFILE
10
-235.4091
20
93.4812
30
0.0
0
VERTEX
8
RING_PROFILE
10
-235.3510
20
93.5789
30
0.0
0
VERTEX
8
RING_PROFILE
10
-235.2161
20
93.7964
30
0.0
0
VERTEX
8
RING_PROFILE
10
-234.9647
20
94.3086
30
0.0
0
VERTEX
8
RING_PROFILE
10
-234.9484
20
94.3617
30
0.0
0
VERTEX
8
RING_PROFILE
10
-234.9207
20
94.5433
30
0.0
0
VERTEX
8
RING_PROFILE
10
-234.9080
20
94.6200
30
0.0
0
VERTEX
8
RING_PROFILE
10
-234.7810
20
95.3290
30
0.0
0
VERTEX
8
RING_PROFILE
10
-234.7711
20
95.3813
30
0.0
0
VERTEX
8
RING_PROFILE
10
-234.6248
20
96.1224
30
0.0
0
VERTEX
8
RING_PROFILE
10
-234.5150
20
96.8250
30
0.0
0
VERTEX
8
RING_PROFILE
10
-234.4303
20
97.4761
30
0.0
0
VERTEX
8
RING_PROFILE
10
-234.4103
20
97.8399
30
0.0
0
VERTEX
8
RING_PROFILE
10
-234.4697
20
98.2050
30
0.0
0
VERTEX
8
RING_PROFILE
10
-234.6365
20
98.8930
30
0.0
0
VERTEX
8
RING_PROFILE
10
-234.6939
20
99.1975
30
0.0
0
VERTEX
8
RING_PROFILE
10
-234.7195
20
99.5063
30
0.0
0
VERTEX
8
RING_PROFILE
10
-234.7132
20
99.8161
30
0.0
0
VERTEX
8
RING_PROFILE
10
-234.6749
20
100.1236
30
0.0
0
VERTEX
8
RING_PROFILE
10
-234.6052
20
100.4256
30
0.0
0
VERTEX
8
RING_PROFILE
10
-234.3702
20
101.2466
30
0.0
0
VERTEX
8
RING_PROFILE
10
-234.2817
20
101.5092
30
0.0
0
VERTEX
8
RING_PROFILE
10
-234.1693
20
101.7626
30
0.0
0
VERTEX
8
RING_PROFILE
10
-234.1673
20
101.7666
30
0.0
0
VERTEX
8
RING_PROFILE
10
-234.0110
20
102.0419
30
0.0
0
VERTEX
8
RING_PROFILE
10
-233.8266
20
102.2991
30
0.0
0
VERTEX
8
RING_PROFILE
10
-233.8186
20
102.3091
30
0.0
0
VERTEX
8
RING_PROFILE
10
-233.8167
20
102.3115
30
0.0
0
VERTEX
8
RING_PROFILE
10
-233.5337
20
102.6645
30
0.0
0
VERTEX
8
RING_PROFILE
10
-233.3870
20
102.8340
30
0.0
0
VERTEX
8
RING_PROFILE
10
-233.0273
20
103.2198
30
0.0
0
VERTEX
8
RING_PROFILE
10
-232.8683
20
103.4048
30
0.0
0
VERTEX
8
RING_PROFILE
10
-232.8545
20
103.4279
30
0.0
0
VERTEX
8
RING_PROFILE
10
-232.5960
20
103.9814
30
0.0
0
VERTEX
8
RING_PROFILE
10
-232.4710
20
104.3223
30
0.0
0
VERTEX
8
RING_PROFILE
10
-232.3809
20
104.5892
30
0.0
0
VERTEX
8
RING_PROFILE
10
-232.3771
20
104.6010
30
0.0
0
VERTEX
8
RING_PROFILE
10
-232.3615
20
104.6480
30
0.0
0
VERTEX
8
RING_PROFILE
10
-232.3494
20
104.6836
30
0.0
0
VERTEX
8
RING_PROFILE
10
-232.1266
20
105.3499
30
0.0
0
VERTEX
8
RING_PROFILE
10
-231.8550
20
106.1647
30
0.0
0
VERTEX
8
RING_PROFILE
10
-231.8464
20
106.1905
30
0.0
0
VERTEX
8
RING_PROFILE
10
-231.8346
20
106.2273
30
0.0
0
VERTEX
8
RING_PROFILE
10
-231.8227
20
106.2639
30
0.0
0
VERTEX
8
RING_PROFILE
10
-231.6857
20
106.6729
30
0.0
0
VERTEX
8
RING_PROFILE
10
-231.6818
20
106.6843
30
0.0
0
VERTEX
8
RING_PROFILE
10
-231.5781
20
106.9897
30
0.0
0
VERTEX
8
RING_PROFILE
10
-231.5751
20
106.9990
30
0.0
0
VERTEX
8
RING_PROFILE
10
-231.5526
20
107.0661
30
0.0
0
VERTEX
8
RING_PROFILE
10
-231.5421
20
107.0963
30
0.0
0
VERTEX
8
RING_PROFILE
10
-231.3164
20
107.7625
30
0.0
0
VERTEX
8
RING_PROFILE
10
-231.3154
20
107.7655
30
0.0
0
VERTEX
8
RING_PROFILE
10
-231.0404
20
108.5745
30
0.0
0
VERTEX
8
RING_PROFILE
10
-231.0290
20
108.6075
30
0.0
0
VERTEX
8
RING_PROFILE
10
-231.0221
20
108.6270
30
0.0
0
VERTEX
8
RING_PROFILE
10
-231.0130
20
108.6534
30
0.0
0
VERTEX
8
RING_PROFILE
10
-231.0095
20
108.6639
30
0.0
0
VERTEX
8
RING_PROFILE
10
-230.8685
20
109.0719
30
0.0
0
VERTEX
8
RING_PROFILE
10
-230.8410
20
109.1481
30
0.0
0
VERTEX
8
RING_PROFILE
10
-230.7150
20
109.4830
30
0.0
0
VERTEX
8
RING_PROFILE
10
-230.7010
20
109.5210
30
0.0
0
VERTEX
8
RING_PROFILE
10
-230.5921
20
109.7735
30
0.0
0
VERTEX
8
RING_PROFILE
10
-230.5924
20
109.7737
30
0.0
0
VERTEX
8
RING_PROFILE
10
-230.5873
20
109.7845
30
0.0
0
VERTEX
8
RING_PROFILE
10
-230.5747
20
109.8138
30
0.0
0
VERTEX
8
RING_PROFILE
10
-230.5672
20
109.8270
30
0.0
0
VERTEX
8
RING_PROFILE
10
-230.2314
20
110.5377
30
0.0
0
VERTEX
8
RING_PROFILE
10
-230.1269
20
110.7389
30
0.0
0
VERTEX
8
RING_PROFILE
10
-230.1260
20
110.7405
30
0.0
0
VERTEX
8
RING_PROFILE
10
-230.1122
20
110.7670
30
0.0
0
VERTEX
8
RING_PROFILE
10
-230.0964
20
110.7970
30
0.0
0
VERTEX
8
RING_PROFILE
10
-229.9154
20
111.1360
30
0.0
0
VERTEX
8
RING_PROFILE
10
-229.8943
20
111.1749
30
0.0
0
VERTEX
8
RING_PROFILE
10
-229.7483
20
111.4389
30
0.0
0
VERTEX
8
RING_PROFILE
10
-229.7277
20
111.4754
30
0.0
0
VERTEX
8
RING_PROFILE
10
-229.6957
20
111.5314
30
0.0
0
VERTEX
8
RING_PROFILE
10
-229.6945
20
111.5307
30
0.0
0
VERTEX
8
RING_PROFILE
10
-229.5699
20
111.7389
30
0.0
0
VERTEX
8
RING_PROFILE
10
-229.5391
20
111.7805
30
0.0
0
VERTEX
8
RING_PROFILE
10
-229.2935
20
112.1953
30
0.0
0
VERTEX
8
RING_PROFILE
10
-229.2783
20
112.2207
30
0.0
0
VERTEX
8
RING_PROFILE
10
-229.1893
20
112.3677
30
0.0
0
VERTEX
8
RING_PROFILE
10
-229.1880
20
112.3670
30
0.0
0
VERTEX
8
RING_PROFILE
10
-229.1158
20
112.4885
30
0.0
0
VERTEX
8
RING_PROFILE
10
-228.8998
20
112.8175
30
0.0
0
VERTEX
8
RING_PROFILE
10
-228.8420
20
112.9023
30
0.0
0
VERTEX
8
RING_PROFILE
10
-228.6036
20
113.2396
30
0.0
0
VERTEX
8
RING_PROFILE
10
-228.2675
20
113.7478
30
0.0
0
VERTEX
8
RING_PROFILE
10
-228.1021
20
114.0458
30
0.0
0
VERTEX
8
RING_PROFILE
10
-228.0940
20
114.0604
30
0.0
0
VERTEX
8
RING_PROFILE
10
-227.7707
20
114.6353
30
0.0
0
VERTEX
8
RING_PROFILE
10
-227.5337
20
115.0845
30
0.0
0
VERTEX
8
RING_PROFILE
10
-227.3596
20
115.4416
30
0.0
0
VERTEX
8
RING_PROFILE
10
-227.3067
20
115.5451
30
0.0
0
VERTEX
8
RING_PROFILE
10
-226.9508
20
116.2084
30
0.0
0
VERTEX
8
RING_PROFILE
10
-226.7121
20
116.6614
30
0.0
0
VERTEX
8
RING_PROFILE
10
-226.5333
20
117.0245
30
0.0
0
VERTEX
8
RING_PROFILE
10
-226.4401
20
117.1989
30
0.0
0
VERTEX
8
RING_PROFILE
10
-225.9921
20
117.9749
30
0.0
0
VERTEX
8
RING_PROFILE
10
-225.9598
20
118.0296
30
0.0
0
VERTEX
8
RING_PROFILE
10
-225.5678
20
118.6766
30
0.0
0
VERTEX
8
RING_PROFILE
10
-225.5460
20
118.7120
30
0.0
0
VERTEX
8
RING_PROFILE
10
-225.5410
20
118.7200
30
0.0
0
VERTEX
8
RING_PROFILE
10
-225.5134
20
118.7633
30
0.0
0
VERTEX
8
RING_PROFILE
10
-225.0714
20
119.4443
30
0.0
0
VERTEX
8
RING_PROFILE
10
-224.9176
20
119.6598
30
0.0
0
VERTEX
8
RING_PROFILE
10
-224.6046
20
120.0598
30
0.0
0
VERTEX
8
RING_PROFILE
10
-224.5754
20
120.0966
30
0.0
0
VERTEX
8
RING_PROFILE
10
-224.1754
20
120.5916
30
0.0
0
VERTEX
8
RING_PROFILE
10
-224.1561
20
120.6151
30
0.0
0
VERTEX
8
RING_PROFILE
10
-223.8949
20
120.9318
30
0.0
0
VERTEX
8
RING_PROFILE
10
-223.6539
20
121.2710
30
0.0
0
VERTEX
8
RING_PROFILE
10
-223.3979
20
121.6762
30
0.0
0
VERTEX
8
RING_PROFILE
10
-223.1661
20
122.0563
30
0.0
0
VERTEX
8
RING_PROFILE
10
-222.9946
20
122.3078
30
0.0
0
VERTEX
8
RING_PROFILE
10
-222.5946
20
122.8348
30
0.0
0
VERTEX
8
RING_PROFILE
10
-222.3692
20
123.0986
30
0.0
0
VERTEX
8
RING_PROFILE
10
-222.0624
20
123.4181
30
0.0
0
VERTEX
8
RING_PROFILE
10
-221.7972
20
123.7391
30
0.0
0
VERTEX
8
RING_PROFILE
10
-221.5988
20
124.0146
30
0.0
0
VERTEX
8
RING_PROFILE
10
-221.3864
20
124.3329
30
0.0
0
VERTEX
8
RING_PROFILE
10
-221.3413
20
124.4224
30
0.0
0
VERTEX
8
RING_PROFILE
10
-221.2873
20
124.5164
30
0.0
0
VERTEX
8
RING_PROFILE
10
-221.2139
20
124.6375
30
0.0
0
VERTEX
8
RING_PROFILE
10
-221.0209
20
124.9395
30
0.0
0
VERTEX
8
RING_PROFILE
10
-220.8082
20
125.2318
30
0.0
0
VERTEX
8
RING_PROFILE
10
-220.6162
20
125.4648
30
0.0
0
VERTEX
8
RING_PROFILE
10
-220.5587
20
125.5310
30
0.0
0
VERTEX
8
RING_PROFILE
10
-220.5053
20
125.5997
30
0.0
0
VERTEX
8
RING_PROFILE
10
-220.4072
20
125.7062
30
0.0
0
VERTEX
8
RING_PROFILE
10
-220.4079
20
125.7068
30
0.0
0
VERTEX
8
RING_PROFILE
10
-219.9829
20
126.1748
30
0.0
0
VERTEX
8
RING_PROFILE
10
-219.8465
20
126.3155
30
0.0
0
VERTEX
8
RING_PROFILE
10
-219.4325
20
126.7155
30
0.0
0
VERTEX
8
RING_PROFILE
10
-219.4228
20
126.7249
30
0.0
0
VERTEX
8
RING_PROFILE
10
-219.0238
20
127.1069
30
0.0
0
VERTEX
8
RING_PROFILE
10
-218.6096
20
127.5042
30
0.0
0
VERTEX
8
RING_PROFILE
10
-218.2174
20
127.8817
30
0.0
0
VERTEX
8
RING_PROFILE
10
-217.7899
20
128.2977
30
0.0
0
VERTEX
8
RING_PROFILE
10
-217.7733
20
128.3143
30
0.0
0
VERTEX
8
RING_PROFILE
10
-217.7136
20
128.3724
30
0.0
0
VERTEX
8
RING_PROFILE
10
-217.7004
20
128.3849
30
0.0
0
VERTEX
8
RING_PROFILE
10
-217.6387
20
128.4458
30
0.0
0
VERTEX
8
RING_PROFILE
10
-217.6205
20
128.4637
30
0.0
0
VERTEX
8
RING_PROFILE
10
-217.4125
20
128.6658
30
0.0
0
VERTEX
8
RING_PROFILE
10
-217.2030
20
128.8704
30
0.0
0
VERTEX
8
RING_PROFILE
10
-217.0715
20
129.0000
30
0.0
0
VERTEX
8
RING_PROFILE
10
-217.0453
20
129.0255
30
0.0
0
VERTEX
8
RING_PROFILE
10
-217.0038
20
129.0654
30
0.0
0
VERTEX
8
RING_PROFILE
10
-216.9632
20
129.1052
30
0.0
0
VERTEX
8
RING_PROFILE
10
-216.9594
20
129.1089
30
0.0
0
VERTEX
8
RING_PROFILE
10
-216.8322
20
129.2332
30
0.0
0
VERTEX
8
RING_PROFILE
10
-216.6129
20
129.4485
30
0.0
0
VERTEX
8
RING_PROFILE
10
-216.6090
20
129.4524
30
0.0
0
VERTEX
8
RING_PROFILE
10
-216.3811
20
129.6753
30
0.0
0
VERTEX
8
RING_PROFILE
10
-216.2583
20
129.7962
30
0.0
0
VERTEX
8
RING_PROFILE
10
-216.2529
20
129.8015
30
0.0
0
VERTEX
8
RING_PROFILE
10
-216.2044
20
129.8490
30
0.0
0
VERTEX
8
RING_PROFILE
10
-216.1574
20
129.8950
30
0.0
0
VERTEX
8
RING_PROFILE
10
-216.1535
20
129.8988
30
0.0
0
VERTEX
8
RING_PROFILE
10
-216.0345
20
130.0148
30
0.0
0
VERTEX
8
RING_PROFILE
10
-215.8097
20
130.2349
30
0.0
0
VERTEX
8
RING_PROFILE
10
-215.5831
20
130.4606
30
0.0
0
VERTEX
8
RING_PROFILE
10
-215.4673
20
130.5763
30
0.0
0
VERTEX
8
RING_PROFILE
10
-215.4459
20
130.5978
30
0.0
0
VERTEX
8
RING_PROFILE
10
-215.4249
20
130.6197
30
0.0
0
VERTEX
8
RING_PROFILE
10
-215.3961
20
130.6494
30
0.0
0
VERTEX
8
RING_PROFILE
10
-215.2781
20
130.7694
30
0.0
0
VERTEX
8
RING_PROFILE
10
-215.2736
20
130.7740
30
0.0
0
VERTEX
8
RING_PROFILE
10
-215.0906
20
130.9592
30
0.0
0
VERTEX
8
RING_PROFILE
10
-214.9337
20
131.1357
30
0.0
0
VERTEX
8
RING_PROFILE
10
-214.9048
20
131.1678
30
0.0
0
VERTEX
8
RING_PROFILE
10
-214.8787
20
131.1962
30
0.0
0
VERTEX
8
RING_PROFILE
10
-214.5607
20
131.5841
30
0.0
0
VERTEX
8
RING_PROFILE
10
-214.5020
20
131.6726
30
0.0
0
VERTEX
8
RING_PROFILE
10
-214.3510
20
131.9952
30
0.0
0
VERTEX
8
RING_PROFILE
10
-214.0857
20
132.6571
30
0.0
0
VERTEX
8
RING_PROFILE
10
-213.9462
20
132.9563
30
0.0
0
VERTEX
8
RING_PROFILE
10
-213.7747
20
133.2383
30
0.0
0
VERTEX
8
RING_PROFILE
10
-213.6809
20
133.3601
30
0.0
0
VERTEX
8
RING_PROFILE
10
-213.5719
20
133.5259
30
0.0
0
VERTEX
8
RING_PROFILE
10
-213.3857
20
133.7791
30
0.0
0
VERTEX
8
RING_PROFILE
10
-213.1741
20
134.0115
30
0.0
0
VERTEX
8
RING_PROFILE
10
-212.9393
20
134.2204
30
0.0
0
VERTEX
8
RING_PROFILE
10
-212.6840
20
134.4036
30
0.0
0
VERTEX
8
RING_PROFILE
10
-212.4109
20
134.5592
30
0.0
0
VERTEX
8
RING_PROFILE
10
-212.2949
20
134.6174
30
0.0
0
VERTEX
8
RING_PROFILE
10
-212.2501
20
134.6474
30
0.0
0
VERTEX
8
RING_PROFILE
10
-211.9434
20
134.8054
30
0.0
0
VERTEX
8
RING_PROFILE
10
-211.9254
20
134.8134
30
0.0
0
VERTEX
8
RING_PROFILE
10
-211.6955
20
134.9045
30
0.0
0
VERTEX
8
RING_PROFILE
10
-211.4589
20
134.9763
30
0.0
0
VERTEX
8
RING_PROFILE
10
-211.2171
20
135.0283
30
0.0
0
VERTEX
8
RING_PROFILE
10
-210.6197
20
135.1314
30
0.0
0
VERTEX
8
RING_PROFILE
10
-210.1806
20
135.2412
30
0.0
0
VERTEX
8
RING_PROFILE
10
-209.9658
20
135.3367
30
0.0
0
VERTEX
8
RING_PROFILE
10
-209.8078
20
135.4319
30
0.0
0
VERTEX
8
RING_PROFILE
10
-209.2340
20
135.8299
30
0.0
0
VERTEX
8
RING_PROFILE
10
-209.1869
20
135.8606
30
0.0
0
VERTEX
8
RING_PROFILE
10
-208.9293
20
136.0432
30
0.0
0
VERTEX
8
RING_PROFILE
10
-208.8257
20
136.1135
30
0.0
0
VERTEX
8
RING_PROFILE
10
-208.5783
20
136.2738
30
0.0
0
VERTEX
8
RING_PROFILE
10
-208.5371
20
136.3032
30
0.0
0
VERTEX
8
RING_PROFILE
10
-208.5071
20
136.3232
30
0.0
0
VERTEX
8
RING_PROFILE
10
-208.4553
20
136.3569
30
0.0
0
VERTEX
8
RING_PROFILE
10
-207.8099
20
136.7682
30
0.0
0
VERTEX
8
RING_PROFILE
10
-207.5368
20
136.9499
30
0.0
0
VERTEX
8
RING_PROFILE
10
-207.1727
20
137.2377
30
0.0
0
VERTEX
8
RING_PROFILE
10
-206.9516
20
137.4267
30
0.0
0
VERTEX
8
RING_PROFILE
10
-206.7511
20
137.6440
30
0.0
0
VERTEX
8
RING_PROFILE
10
-206.4088
20
138.0523
30
0.0
0
VERTEX
8
RING_PROFILE
10
-206.0936
20
138.4378
30
0.0
0
VERTEX
8
RING_PROFILE
10
-205.9908
20
138.5570
30
0.0
0
VERTEX
8
RING_PROFILE
10
-205.5908
20
138.9970
30
0.0
0
VERTEX
8
RING_PROFILE
10
-205.3798
20
139.2072
30
0.0
0
VERTEX
8
RING_PROFILE
10
-205.1490
20
139.3953
30
0.0
0
VERTEX
8
RING_PROFILE
10
-204.9007
20
139.5597
30
0.0
0
VERTEX
8
RING_PROFILE
10
-204.6373
20
139.6987
30
0.0
0
VERTEX
8
RING_PROFILE
10
-204.3614
20
139.8108
30
0.0
0
VERTEX
8
RING_PROFILE
10
-204.0758
20
139.8950
30
0.0
0
VERTEX
8
RING_PROFILE
10
-203.5048
20
140.0330
30
0.0
0
VERTEX
8
RING_PROFILE
10
-203.2365
20
140.0851
30
0.0
0
VERTEX
8
RING_PROFILE
10
-202.9646
20
140.1125
30
0.0
0
VERTEX
8
RING_PROFILE
10
-202.6913
20
140.1150
30
0.0
0
VERTEX
8
RING_PROFILE
10
-202.1641
20
140.0959
30
0.0
0
VERTEX
8
RING_PROFILE
10
-201.9175
20
140.1320
30
0.0
0
VERTEX
8
RING_PROFILE
10
-201.6152
20
140.2374
30
0.0
0
VERTEX
8
RING_PROFILE
10
-201.3556
20
140.3581
30
0.0
0
VERTEX
8
RING_PROFILE
10
-200.8765
20
140.5829
30
0.0
0
VERTEX
8
RING_PROFILE
10
-200.1162
20
140.9411
30
0.0
0
VERTEX
8
RING_PROFILE
10
-199.7176
20
141.1295
30
0.0
0
VERTEX
8
RING_PROFILE
10
-199.6345
20
141.1672
30
0.0
0
VERTEX
8
RING_PROFILE
10
-199.2863
20
141.3190
30
0.0
0
VERTEX
8
RING_PROFILE
10
-198.5854
20
141.6792
30
0.0
0
VERTEX
8
RING_PROFILE
10
-198.4961
20
141.7232
30
0.0
0
VERTEX
8
RING_PROFILE
10
-198.4411
20
141.7492
30
0.0
0
VERTEX
8
RING_PROFILE
10
-198.4403
20
141.7474
30
0.0
0
VERTEX
8
RING_PROFILE
10
-198.3786
20
141.7775
30
0.0
0
VERTEX
8
RING_PROFILE
10
-198.3697
20
141.7834
30
0.0
0
VERTEX
8
RING_PROFILE
10
-198.2105
20
141.9024
30
0.0
0
VERTEX
8
RING_PROFILE
10
-198.1749
20
141.9266
30
0.0
0
VERTEX
8
RING_PROFILE
10
-197.8314
20
142.1680
30
0.0
0
VERTEX
8
RING_PROFILE
10
-197.6310
20
142.3759
30
0.0
0
VERTEX
8
RING_PROFILE
10
-197.3612
20
142.6236
30
0.0
0
VERTEX
8
RING_PROFILE
10
-196.8682
20
143.0236
30
0.0
0
VERTEX
8
RING_PROFILE
10
-196.5960
20
143.2203
30
0.0
0
VERTEX
8
RING_PROFILE
10
-196.3035
20
143.3853
30
0.0
0
VERTEX
8
RING_PROFILE
10
-195.9035
20
143.5823
30
0.0
0
VERTEX
8
RING_PROFILE
10
-195.6405
20
143.6966
30
0.0
0
VERTEX
8
RING_PROFILE
10
-195.3677
20
143.7852
30
0.0
0
VERTEX
8
RING_PROFILE
10
-195.0878
20
143.8474
30
0.0
0
VERTEX
8
RING_PROFILE
10
-194.8032
20
143.8825
30
0.0
0
VERTEX
8
RING_PROFILE
10
-194.5165
20
143.8904
30
0.0
0
VERTEX
8
RING_PROFILE
10
-194.0285
20
143.8804
30
0.0
0
VERTEX
8
RING_PROFILE
10
-193.7424
20
143.8608
30
0.0
0
VERTEX
8
RING_PROFILE
10
-193.4595
20
143.8140
30
0.0
0
VERTEX
8
RING_PROFILE
10
-193.3252
20
143.7783
30
0.0
0
VERTEX
8
RING_PROFILE
10
-192.7466
20
143.6509
30
0.0
0
VERTEX
8
RING_PROFILE
10
-192.6347
20
143.6462
30
0.0
0
VERTEX
8
RING_PROFILE
10
-192.2904
20
143.6946
30
0.0
0
VERTEX
8
RING_PROFILE
10
-191.9673
20
143.8043
30
0.0
0
VERTEX
8
RING_PROFILE
10
-191.4266
20
144.0757
30
0.0
0
VERTEX
8
RING_PROFILE
10
-191.4080
20
144.0870
30
0.0
0
VERTEX
8
RING_PROFILE
10
-191.2864
20
144.1872
30
0.0
0
VERTEX
8
RING_PROFILE
10
-191.2617
20
144.2085
30
0.0
0
VERTEX
8
RING_PROFILE
10
-191.1407
20
144.3030
30
0.0
0
VERTEX
8
RING_PROFILE
10
-190.8720
20
144.5432
30
0.0
0
VERTEX
8
RING_PROFILE
10
-190.8429
20
144.5737
30
0.0
0
VERTEX
8
RING_PROFILE
10
-190.6229
20
144.7816
30
0.0
0
VERTEX
8
RING_PROFILE
10
-190.3830
20
144.9663
30
0.0
0
VERTEX
8
RING_PROFILE
10
-190.1258
20
145.1259
30
0.0
0
VERTEX
8
RING_PROFILE
10
-189.8538
20
145.2587
30
0.0
0
VERTEX
8
RING_PROFILE
10
-189.5784
20
145.3603
30
0.0
0
VERTEX
8
RING_PROFILE
10
-189.4118
20
145.5117
30
0.0
0
VERTEX
8
RING_PROFILE
10
-189.1841
20
145.6824
30
0.0
0
VERTEX
8
RING_PROFILE
10
-188.9413
20
145.8306
30
0.0
0
VERTEX
8
RING_PROFILE
10
-188.6855
20
145.9553
30
0.0
0
VERTEX
8
RING_PROFILE
10
-188.4191
20
146.0551
30
0.0
0
VERTEX
8
RING_PROFILE
10
-188.1444
20
146.1292
30
0.0
0
VERTEX
8
RING_PROFILE
10
-187.8639
20
146.1770
30
0.0
0
VERTEX
8
RING_PROFILE
10
-187.5802
20
146.1980
30
0.0
0
VERTEX
8
RING_PROFILE
10
-187.2957
20
146.1920
30
0.0
0
VERTEX
8
RING_PROFILE
10
-187.0131
20
146.1591
30
0.0
0
VERTEX
8
RING_PROFILE
10
-186.9234
20
146.1443
30
0.0
0
VERTEX
8
RING_PROFILE
10
-186.8637
20
146.1345
30
0.0
0
VERTEX
8
RING_PROFILE
10
-186.8477
20
146.1318
30
0.0
0
VERTEX
8
RING_PROFILE
10
-186.3167
20
146.0418
30
0.0
0
VERTEX
8
RING_PROFILE
10
-186.3168
20
146.0411
30
0.0
0
VERTEX
8
RING_PROFILE
10
-186.1146
20
146.0083
30
0.0
0
VERTEX
8
RING_PROFILE
10
-185.5373
20
145.8825
30
0.0
0
VERTEX
8
RING_PROFILE
10
-185.4070
20
145.8702
30
0.0
0
VERTEX
8
RING_PROFILE
10
-185.0749
20
145.9483
30
0.0
0
VERTEX
8
RING_PROFILE
10
-184.7601
20
146.0048
30
0.0
0
VERTEX
8
RING_PROFILE
10
-184.7121
20
146.0108
30
0.0
0
VERTEX
8
RING_PROFILE
10
-184.4491
20
146.0320
30
0.0
0
VERTEX
8
RING_PROFILE
10
-183.8171
20
146.0550
30
0.0
0
VERTEX
8
RING_PROFILE
10
-183.8170
20
146.0534
30
0.0
0
VERTEX
8
RING_PROFILE
10
-183.6015
20
146.0604
30
0.0
0
VERTEX
8
RING_PROFILE
10
-183.2882
20
146.0377
30
0.0
0
VERTEX
8
RING_PROFILE
10
-182.9790
20
145.9824
30
0.0
0
VERTEX
8
RING_PROFILE
10
-182.3113
20
145.8266
30
0.0
0
VERTEX
8
RING_PROFILE
10
-181.8466
20
145.7813
30
0.0
0
VERTEX
8
RING_PROFILE
10
-181.2992
20
145.7785
30
0.0
0
VERTEX
8
RING_PROFILE
10
-180.6652
20
145.8237
30
0.0
0
VERTEX
8
RING_PROFILE
10
-179.9170
20
145.9032
30
0.0
0
VERTEX
8
RING_PROFILE
10
-179.8856
20
145.9064
30
0.0
0
VERTEX
8
RING_PROFILE
10
-179.0199
20
145.9892
30
0.0
0
VERTEX
8
RING_PROFILE
10
-178.9492
20
145.9960
30
0.0
0
VERTEX
8
RING_PROFILE
10
-178.5672
20
146.0330
30
0.0
0
VERTEX
8
RING_PROFILE
10
-178.5600
20
146.0337
30
0.0
0
VERTEX
8
RING_PROFILE
10
-178.3517
20
146.0534
30
0.0
0
VERTEX
8
RING_PROFILE
10
-178.3313
20
146.0557
30
0.0
0
VERTEX
8
RING_PROFILE
10
-178.2876
20
146.0602
30
0.0
0
VERTEX
8
RING_PROFILE
10
-177.7159
20
146.1153
30
0.0
0
VERTEX
8
RING_PROFILE
10
-177.4869
20
146.1373
30
0.0
0
VERTEX
8
RING_PROFILE
10
-177.4497
20
146.1406
30
0.0
0
VERTEX
8
RING_PROFILE
10
-177.0194
20
146.1765
30
0.0
0
VERTEX
8
RING_PROFILE
10
-176.6511
20
146.2075
30
0.0
0
VERTEX
8
RING_PROFILE
10
-176.4708
20
146.2172
30
0.0
0
VERTEX
8
RING_PROFILE
10
-176.1318
20
146.2252
30
0.0
0
VERTEX
8
RING_PROFILE
10
-176.1261
20
146.2253
30
0.0
0
VERTEX
8
RING_PROFILE
10
-175.6651
20
146.2353
30
0.0
0
VERTEX
8
RING_PROFILE
10
-175.4200
20
146.2306
30
0.0
0
VERTEX
8
RING_PROFILE
10
-175.0577
20
146.2088
30
0.0
0
VERTEX
8
RING_PROFILE
10
-174.6275
20
146.1840
30
0.0
0
VERTEX
8
RING_PROFILE
10
-174.5138
20
146.1753
30
0.0
0
VERTEX
8
RING_PROFILE
10
-173.9648
20
146.1227
30
0.0
0
VERTEX
8
RING_PROFILE
10
-173.7219
20
146.1001
30
0.0
0
VERTEX
8
RING_PROFILE
10
-173.7009
20
146.0981
30
0.0
0
VERTEX
8
RING_PROFILE
10
-173.2127
20
146.0491
30
0.0
0
VERTEX
8
RING_PROFILE
10
-172.9024
20
146.0182
30
0.0
0
VERTEX
8
RING_PROFILE
10
-172.8859
20
146.0165
30
0.0
0
VERTEX
8
RING_PROFILE
10
-172.8373
20
146.0114
30
0.0
0
VERTEX
8
RING_PROFILE
10
-172.1015
20
145.9381
30
0.0
0
VERTEX
8
RING_PROFILE
10
-171.3015
20
145.8581
30
0.0
0
VERTEX
8
RING_PROFILE
10
-171.2793
20
145.8558
30
0.0
0
VERTEX
8
RING_PROFILE
10
-170.5664
20
145.7792
30
0.0
0
VERTEX
8
RING_PROFILE
10
-169.9981
20
145.7515
30
0.0
0
VERTEX
8
RING_PROFILE
10
-169.5493
20
145.7728
30
0.0
0
VERTEX
8
RING_PROFILE
10
-168.9848
20
145.8786
30
0.0
0
VERTEX
8
RING_PROFILE
10
-168.2166
20
146.0400
30
0.0
0
VERTEX
8
RING_PROFILE
10
-167.8880
20
146.0901
30
0.0
0
VERTEX
8
RING_PROFILE
10
-167.5559
20
146.1037
30
0.0
0
VERTEX
8
RING_PROFILE
10
-167.4879
20
146.1027
30
0.0
0
VERTEX
8
RING_PROFILE
10
-167.1722
20
146.0813
30
0.0
0
VERTEX
8
RING_PROFILE
10
-166.5762
20
146.0093
30
0.0
0
VERTEX
8
RING_PROFILE
10
-166.4500
20
145.9914
30
0.0
0
VERTEX
8
RING_PROFILE
10
-166.3830
20
145.9804
30
0.0
0
VERTEX
8
RING_PROFILE
10
-166.2735
20
145.9603
30
0.0
0
VERTEX
8
RING_PROFILE
10
-165.9539
20
145.8956
30
0.0
0
VERTEX
8
RING_PROFILE
10
-165.7064
20
145.9380
30
0.0
0
VERTEX
8
RING_PROFILE
10
-165.6164
20
145.9495
30
0.0
0
VERTEX
8
RING_PROFILE
10
-165.3242
20
146.0441
30
0.0
0
VERTEX
8
RING_PROFILE
10
-165.0273
20
146.1237
30
0.0
0
VERTEX
8
RING_PROFILE
10
-164.7237
20
146.1725
30
0.0
0
VERTEX
8
RING_PROFILE
10
-164.4657
20
146.2005
30
0.0
0
VERTEX
8
RING_PROFILE
10
-164.1921
20
146.2176
30
0.0
0
VERTEX
8
RING_PROFILE
10
-163.9181
20
146.2096
30
0.0
0
VERTEX
8
RING_PROFILE
10
-163.6459
20
146.1767
30
0.0
0
VERTEX
8
RING_PROFILE
10
-163.3779
20
146.1191
30
0.0
0
VERTEX
8
RING_PROFILE
10
-162.8919
20
145.9911
30
0.0
0
VERTEX
8
RING_PROFILE
10
-162.6179
20
145.9047
30
0.0
0
VERTEX
8
RING_PROFILE
10
-162.3533
20
145.7924
30
0.0
0
VERTEX
8
RING_PROFILE
10
-162.1007
20
145.6554
30
0.0
0
VERTEX
8
RING_PROFILE
10
-161.8624
20
145.4948
30
0.0
0
VERTEX
8
RING_PROFILE
10
-161.6406
20
145.3122
30
0.0
0
VERTEX
8
RING_PROFILE
10
-161.5976
20
145.2732
30
0.0
0
VERTEX
8
RING_PROFILE
10
-161.5707
20
145.2465
30
0.0
0
VERTEX
8
RING_PROFILE
10
-161.3628
20
145.0883
30
0.0
0
VERTEX
8
RING_PROFILE
10
-161.2450
20
144.9806
30
0.0
0
VERTEX
8
RING_PROFILE
10
-161.1980
20
144.9509
30
0.0
0
VERTEX
8
RING_PROFILE
10
-160.9564
20
144.7611
30
0.0
0
VERTEX
8
RING_PROFILE
10
-160.7355
20
144.5477
30
0.0
0
VERTEX
8
RING_PROFILE
10
-160.5163
20
144.3129
30
0.0
0
VERTEX
8
RING_PROFILE
10
-160.2770
20
144.0988
30
0.0
0
VERTEX
8
RING_PROFILE
10
-160.1642
20
144.0159
30
0.0
0
VERTEX
8
RING_PROFILE
10
-159.9618
20
143.9072
30
0.0
0
VERTEX
8
RING_PROFILE
10
-159.5501
20
143.7541
30
0.0
0
VERTEX
8
RING_PROFILE
10
-159.0117
20
143.6120
30
0.0
0
VERTEX
8
RING_PROFILE
10
-158.8236
20
143.5904
30
0.0
0
VERTEX
8
RING_PROFILE
10
-158.5531
20
143.6258
30
0.0
0
VERTEX
8
RING_PROFILE
10
-158.3077
20
143.6879
30
0.0
0
VERTEX
8
RING_PROFILE
10
-157.9078
20
143.7931
30
0.0
0
VERTEX
8
RING_PROFILE
10
-157.6807
20
143.8436
30
0.0
0
VERTEX
8
RING_PROFILE
10
-157.6697
20
143.8456
30
0.0
0
VERTEX
8
RING_PROFILE
10
-157.4024
20
143.8819
30
0.0
0
VERTEX
8
RING_PROFILE
10
-157.1330
20
143.8940
30
0.0
0
VERTEX
8
RING_PROFILE
10
-157.1310
20
143.8940
30
0.0
0
VERTEX
8
RING_PROFILE
10
-157.1112
20
143.8939
30
0.0
0
VERTEX
8
RING_PROFILE
10
-156.6572
20
143.8909
30
0.0
0
VERTEX
8
RING_PROFILE
10
-156.3701
20
143.8753
30
0.0
0
VERTEX
8
RING_PROFILE
10
-156.0858
20
143.8322
30
0.0
0
VERTEX
8
RING_PROFILE
10
-155.8069
20
143.7621
30
0.0
0
VERTEX
8
RING_PROFILE
10
-155.5361
20
143.6656
30
0.0
0
VERTEX
8
RING_PROFILE
10
-155.2757
20
143.5436
30
0.0
0
VERTEX
8
RING_PROFILE
10
-155.0282
20
143.3973
30
0.0
0
VERTEX
8
RING_PROFILE
10
-154.7958
20
143.2279
30
0.0
0
VERTEX
8
RING_PROFILE
10
-154.3958
20
142.9059
30
0.0
0
VERTEX
8
RING_PROFILE
10
-154.2132
20
142.7463
30
0.0
0
VERTEX
8
RING_PROFILE
10
-153.7912
20
142.3463
30
0.0
0
VERTEX
8
RING_PROFILE
10
-153.6826
20
142.2380
30
0.0
0
VERTEX
8
RING_PROFILE
10
-153.3964
20
141.9374
30
0.0
0
VERTEX
8
RING_PROFILE
10
-153.1936
20
141.7666
30
0.0
0
VERTEX
8
RING_PROFILE
10
-153.0830
20
141.6953
30
0.0
0
VERTEX
8
RING_PROFILE
10
-152.6873
20
141.4941
30
0.0
0
VERTEX
8
RING_PROFILE
10
-152.1094
20
141.2254
30
0.0
0
VERTEX
8
RING_PROFILE
10
-152.0924
20
141.2175
30
0.0
0
VERTEX
8
RING_PROFILE
10
-151.7783
20
141.0690
30
0.0
0
VERTEX
8
RING_PROFILE
10
-151.2925
20
140.8761
30
0.0
0
VERTEX
8
RING_PROFILE
10
-151.2760
20
140.8695
30
0.0
0
VERTEX
8
RING_PROFILE
10
-150.4940
20
140.5535
30
0.0
0
VERTEX
8
RING_PROFILE
10
-150.3812
20
140.5052
30
0.0
0
VERTEX
8
RING_PROFILE
10
-149.9812
20
140.3242
30
0.0
0
VERTEX
8
RING_PROFILE
10
-149.9766
20
140.3221
30
0.0
0
VERTEX
8
RING_PROFILE
10
-149.8122
20
140.2474
30
0.0
0
VERTEX
8
RING_PROFILE
10
-149.6545
20
140.2086
30
0.0
0
VERTEX
8
RING_PROFILE
10
-149.2375
20
140.2138
30
0.0
0
VERTEX
8
RING_PROFILE
10
-148.9540
20
140.2039
30
0.0
0
VERTEX
8
RING_PROFILE
10
-148.6728
20
140.1673
30
0.0
0
VERTEX
8
RING_PROFILE
10
-148.0427
20
140.0548
30
0.0
0
VERTEX
8
RING_PROFILE
10
-148.0040
20
140.0525
30
0.0
0
VERTEX
8
RING_PROFILE
10
-147.7251
20
140.0088
30
0.0
0
VERTEX
8
RING_PROFILE
10
-147.4515
20
139.9391
30
0.0
0
VERTEX
8
RING_PROFILE
10
-147.1857
20
139.8440
30
0.0
0
VERTEX
8
RING_PROFILE
10
-146.9300
20
139.7244
30
0.0
0
VERTEX
8
RING_PROFILE
10
-146.7800
20
139.6454
30
0.0
0
VERTEX
8
RING_PROFILE
10
-146.5626
20
139.5190
30
0.0
0
VERTEX
8
RING_PROFILE
10
-146.3566
20
139.3748
30
0.0
0
VERTEX
8
RING_PROFILE
10
-146.1633
20
139.2139
30
0.0
0
VERTEX
8
RING_PROFILE
10
-145.7683
20
138.8559
30
0.0
0
VERTEX
8
RING_PROFILE
10
-145.5145
20
138.5962
30
0.0
0
VERTEX
8
RING_PROFILE
10
-145.2940
20
138.3077
30
0.0
0
VERTEX
8
RING_PROFILE
10
-145.1850
20
138.1457
30
0.0
0
VERTEX
8
RING_PROFILE
10
-145.1153
20
138.0326
30
0.0
0
VERTEX
8
RING_PROFILE
10
-144.9421
20
137.7796
30
0.0
0
VERTEX
8
RING_PROFILE
10
-144.7725
20
137.5992
30
0.0
0
VERTEX
8
RING_PROFILE
10
-144.5714
20
137.4041
30
0.0
0
VERTEX
8
RING_PROFILE
10
-144.2548
20
137.1724
30
0.0
0
VERTEX
8
RING_PROFILE
10
-143.8531
20
136.8917
30
0.0
0
VERTEX
8
RING_PROFILE
10
-143.4624
20
136.6231
30
0.0
0
VERTEX
8
RING_PROFILE
10
-143.4568
20
136.6193
30
0.0
0
VERTEX
8
RING_PROFILE
10
-142.8827
20
136.2226
30
0.0
0
VERTEX
8
RING_PROFILE
10
-142.5432
20
135.9901
30
0.0
0
VERTEX
8
RING_PROFILE
10
-142.0365
20
135.6755
30
0.0
0
VERTEX
8
RING_PROFILE
10
-141.6316
20
135.4323
30
0.0
0
VERTEX
8
RING_PROFILE
10
-141.3884
20
135.2962
30
0.0
0
VERTEX
8
RING_PROFILE
10
-141.0781
20
135.1572
30
0.0
0
VERTEX
8
RING_PROFILE
10
-140.7181
20
135.0843
30
0.0
0
VERTEX
8
RING_PROFILE
10
-140.2651
20
135.0285
30
0.0
0
VERTEX
8
RING_PROFILE
10
-139.9651
20
134.9759
30
0.0
0
VERTEX
8
RING_PROFILE
10
-139.6720
20
134.8933
30
0.0
0
VERTEX
8
RING_PROFILE
10
-139.3888
20
134.7813
30
0.0
0
VERTEX
8
RING_PROFILE
10
-139.1185
20
134.6412
30
0.0
0
VERTEX
8
RING_PROFILE
10
-138.8637
20
134.4744
30
0.0
0
VERTEX
8
RING_PROFILE
10
-138.6271
20
134.2827
30
0.0
0
VERTEX
8
RING_PROFILE
10
-138.4112
20
134.0680
30
0.0
0
VERTEX
8
RING_PROFILE
10
-138.0352
20
133.6540
30
0.0
0
VERTEX
8
RING_PROFILE
10
-137.9782
20
133.5894
30
0.0
0
VERTEX
8
RING_PROFILE
10
-137.9542
20
133.5614
30
0.0
0
VERTEX
8
RING_PROFILE
10
-137.7327
20
133.2684
30
0.0
0
VERTEX
8
RING_PROFILE
10
-137.5487
20
132.9506
30
0.0
0
VERTEX
8
RING_PROFILE
10
-137.5117
20
132.8766
30
0.0
0
VERTEX
8
RING_PROFILE
10
-137.4277
20
132.6935
30
0.0
0
VERTEX
8
RING_PROFILE
10
-137.1418
20
132.0104
30
0.0
0
VERTEX
8
RING_PROFILE
10
-136.9039
20
131.5562
30
0.0
0
VERTEX
8
RING_PROFILE
10
-136.5632
20
131.0994
30
0.0
0
VERTEX
8
RING_PROFILE
10
-136.0214
20
130.5224
30
0.0
0
VERTEX
8
RING_PROFILE
10
-135.9460
20
130.4458
30
0.0
0
VERTEX
8
RING_PROFILE
10
-135.8525
20
130.3530
30
0.0
0
VERTEX
8
RING_PROFILE
10
-135.2699
20
129.7813
30
0.0
0
VERTEX
8
RING_PROFILE
10
-135.1645
20
129.6779
30
0.0
0
VERTEX
8
RING_PROFILE
10
-135.0707
20
129.5860
30
0.0
0
VERTEX
8
RING_PROFILE
10
-134.4524
20
128.9875
30
0.0
0
VERTEX
8
RING_PROFILE
10
-134.4428
20
128.9781
30
0.0
0
VERTEX
8
RING_PROFILE
10
-134.3647
20
128.9018
30
0.0
0
VERTEX
8
RING_PROFILE
10
-134.2947
20
128.8345
30
0.0
0
VERTEX
8
RING_PROFILE
10
-133.6243
20
128.1918
30
0.0
0
VERTEX
8
RING_PROFILE
10
-133.5734
20
128.1435
30
0.0
0
VERTEX
8
RING_PROFILE
10
-133.5221
20
128.0950
30
0.0
0
VERTEX
8
RING_PROFILE
10
-133.5113
20
128.0847
30
0.0
0
VERTEX
8
RING_PROFILE
10
-132.7733
20
127.3807
30
0.0
0
VERTEX
8
RING_PROFILE
10
-132.7631
20
127.3710
30
0.0
0
VERTEX
8
RING_PROFILE
10
-132.7377
20
127.3466
30
0.0
0
VERTEX
8
RING_PROFILE
10
-132.7144
20
127.3242
30
0.0
0
VERTEX
8
RING_PROFILE
10
-132.6889
20
127.2994
30
0.0
0
VERTEX
8
RING_PROFILE
10
-131.9239
20
126.5474
30
0.0
0
VERTEX
8
RING_PROFILE
10
-131.9057
20
126.5293
30
0.0
0
VERTEX
8
RING_PROFILE
10
-131.8877
20
126.5113
30
0.0
0
VERTEX
8
RING_PROFILE
10
-131.8340
20
126.4562
30
0.0
0
VERTEX
8
RING_PROFILE
10
-131.8150
20
126.4362
30
0.0
0
VERTEX
8
RING_PROFILE
10
-131.7625
20
126.3795
30
0.0
0
VERTEX
8
RING_PROFILE
10
-131.0895
20
125.6335
30
0.0
0
VERTEX
8
RING_PROFILE
10
-131.0312
20
125.5669
30
0.0
0
VERTEX
8
RING_PROFILE
10
-130.9632
20
125.4869
30
0.0
0
VERTEX
8
RING_PROFILE
10
-130.9558
20
125.4782
30
0.0
0
VERTEX
8
RING_PROFILE
10
-130.8588
20
125.3632
30
0.0
0
VERTEX
8
RING_PROFILE
10
-130.7895
20
125.2779
30
0.0
0
VERTEX
8
RING_PROFILE
10
-130.3395
20
124.7029
30
0.0
0
VERTEX
8
RING_PROFILE
10
-130.3051
20
124.6581
30
0.0
0
VERTEX
8
RING_PROFILE
10
-130.2351
20
124.5651
30
0.0
0
VERTEX
8
RING_PROFILE
10
-130.1249
20
124.4086
30
0.0
0
VERTEX
8
RING_PROFILE
10
-129.6859
20
123.7406
30
0.0
0
VERTEX
8
RING_PROFILE
10
-129.6433
20
123.6738
30
0.0
0
VERTEX
8
RING_PROFILE
10
-129.4342
20
123.3366
30
0.0
0
VERTEX
8
RING_PROFILE
10
-129.0989
20
122.8509
30
0.0
0
VERTEX
8
RING_PROFILE
10
-129.0708
20
122.8113
30
0.0
0
VERTEX
8
RING_PROFILE
10
-129.0368
20
122.7623
30
0.0
0
VERTEX
8
RING_PROFILE
10
-129.0015
20
122.7104
30
0.0
0
VERTEX
8
RING_PROFILE
10
-128.9169
20
122.5963
30
0.0
0
VERTEX
8
RING_PROFILE
10
-128.8439
20
122.5099
30
0.0
0
VERTEX
8
RING_PROFILE
10
-128.8076
20
122.4704
30
0.0
0
VERTEX
8
RING_PROFILE
10
-128.7402
20
122.3944
30
0.0
0
VERTEX
8
RING_PROFILE
10
-128.7102
20
122.3594
30
0.0
0
VERTEX
8
RING_PROFILE
10
-128.6402
20
122.2746
30
0.0
0
VERTEX
8
RING_PROFILE
10
-128.6080
20
122.2341
30
0.0
0
VERTEX
8
RING_PROFILE
10
-128.1898
20
121.7116
30
0.0
0
VERTEX
8
RING_PROFILE
10
-128.1464
20
121.6560
30
0.0
0
VERTEX
8
RING_PROFILE
10
-127.8414
20
121.2560
30
0.0
0
VERTEX
8
RING_PROFILE
10
-127.8147
20
121.2205
30
0.0
0
VERTEX
8
RING_PROFILE
10
-127.4147
20
120.6795
30
0.0
0
VERTEX
8
RING_PROFILE
10
-127.4039
20
120.6648
30
0.0
0
VERTEX
8
RING_PROFILE
10
-127.1119
20
120.2648
30
0.0
0
VERTEX
8
RING_PROFILE
10
-127.1003
20
120.2488
30
0.0
0
VERTEX
8
RING_PROFILE
10
-126.6980
20
119.6899
30
0.0
0
VERTEX
8
RING_PROFILE
10
-126.6750
20
119.6579
30
0.0
0
VERTEX
8
RING_PROFILE
10
-126.6302
20
119.5933
30
0.0
0
VERTEX
8
RING_PROFILE
10
-126.4433
20
119.3427
30
0.0
0
VERTEX
8
RING_PROFILE
10
-126.4110
20
119.2986
30
0.0
0
VERTEX
8
RING_PROFILE
10
-126.2728
20
119.1061
30
0.0
0
VERTEX
8
RING_PROFILE
10
-126.2584
20
119.0881
30
0.0
0
VERTEX
8
RING_PROFILE
10
-126.1246
20
118.9074
30
0.0
0
VERTEX
8
RING_PROFILE
10
-126.0481
20
118.7859
30
0.0
0
VERTEX
8
RING_PROFILE
10
-126.0477
20
118.7861
30
0.0
0
VERTEX
8
RING_PROFILE
10
-125.6317
20
118.1321
30
0.0
0
VERTEX
8
RING_PROFILE
10
-125.5371
20
117.9728
30
0.0
0
VERTEX
8
RING_PROFILE
10
-125.3161
20
117.5728
30
0.0
0
VERTEX
8
RING_PROFILE
10
-125.2941
20
117.5322
30
0.0
0
VERTEX
8
RING_PROFILE
10
-125.0161
20
117.0102
30
0.0
0
VERTEX
8
RING_PROFILE
10
-125.0108
20
117.0003
30
0.0
0
VERTEX
8
RING_PROFILE
10
-124.6688
20
116.3523
30
0.0
0
VERTEX
8
RING_PROFILE
10
-124.6227
20
116.2612
30
0.0
0
VERTEX
8
RING_PROFILE
10
-124.4562
20
115.9179
30
0.0
0
VERTEX
8
RING_PROFILE
10
-124.2079
20
115.4564
30
0.0
0
VERTEX
8
RING_PROFILE
10
-123.9007
20
114.9199
30
0.0
0
VERTEX
8
RING_PROFILE
10
-123.8809
20
114.8848
30
0.0
0
VERTEX
8
RING_PROFILE
10
-123.6780
20
114.5192
30
0.0
0
VERTEX
8
RING_PROFILE
10
-123.3490
20
113.9615
30
0.0
0
VERTEX
8
RING_PROFILE
10
-123.1197
20
113.5972
30
0.0
0
VERTEX
8
RING_PROFILE
10
-122.8781
20
113.2432
30
0.0
0
VERTEX
8
RING_PROFILE
10
-122.7920
20
113.1095
30
0.0
0
VERTEX
8
RING_PROFILE
10
-122.4649
20
112.5711
30
0.0
0
VERTEX
8
RING_PROFILE
10
-122.4041
20
112.4923
30
0.0
0
VERTEX
8
RING_PROFILE
10
-122.2637
20
112.2733
30
0.0
0
VERTEX
8
RING_PROFILE
10
-121.8693
20
111.5952
30
0.0
0
VERTEX
8
RING_PROFILE
10
-121.8279
20
111.5250
30
0.0
0
VERTEX
8
RING_PROFILE
10
-121.7970
20
111.4710
30
0.0
0
VERTEX
8
RING_PROFILE
10
-121.7969
20
111.4710
30
0.0
0
VERTEX
8
RING_PROFILE
10
-121.7799
20
111.4410
30
0.0
0
VERTEX
8
RING_PROFILE
10
-121.7526
20
111.3916
30
0.0
0
VERTEX
8
RING_PROFILE
10
-121.3466
20
110.6426
30
0.0
0
VERTEX
8
RING_PROFILE
10
-121.3358
20
110.6225
30
0.0
0
VERTEX
8
RING_PROFILE
10
-121.2698
20
110.4985
30
0.0
0
VERTEX
8
RING_PROFILE
10
-121.1645
20
110.2799
30
0.0
0
VERTEX
8
RING_PROFILE
10
-120.8665
20
109.5909
30
0.0
0
VERTEX
8
RING_PROFILE
10
-120.7952
20
109.4102
30
0.0
0
VERTEX
8
RING_PROFILE
10
-120.5202
20
108.6412
30
0.0
0
VERTEX
8
RING_PROFILE
10
-120.4990
20
108.5797
30
0.0
0
VERTEX
8
RING_PROFILE
10
-120.4970
20
108.5737
30
0.0
0
VERTEX
8
RING_PROFILE
10
-120.4862
20
108.5408
30
0.0
0
VERTEX
8
RING_PROFILE
10
-120.2102
20
107.6798
30
0.0
0
VERTEX
8
RING_PROFILE
10
-120.2080
20
107.6721
30
0.0
0
VERTEX
8
RING_PROFILE
10
-119.9683
20
106.9285
30
0.0
0
VERTEX
8
RING_PROFILE
10
-119.7179
20
106.1665
30
0.0
0
VERTEX
8
RING_PROFILE
10
-119.7149
20
106.1573
30
0.0
0
VERTEX
8
RING_PROFILE
10
-119.7057
20
106.1290
30
0.0
0
VERTEX
8
RING_PROFILE
10
-119.4292
20
105.3014
30
0.0
0
VERTEX
8
RING_PROFILE
10
-119.1882
20
104.5881
30
0.0
0
VERTEX
8
RING_PROFILE
10
-118.9685
20
103.9774
30
0.0
0
VERTEX
8
RING_PROFILE
10
-118.7507
20
103.5199
30
0.0
0
VERTEX
8
RING_PROFILE
10
-118.6516
20
103.3760
30
0.0
0
VERTEX
8
RING_PROFILE
10
-118.4510
20
103.1803
30
0.0
0
VERTEX
8
RING_PROFILE
10
-118.3761
20
103.1046
30
0.0
0
VERTEX
8
RING_PROFILE
10
-117.9761
20
102.6856
30
0.0
0
VERTEX
8
RING_PROFILE
10
-117.8127
20
102.4997
30
0.0
0
VERTEX
8
RING_PROFILE
10
-117.6652
20
102.3009
30
0.0
0
VERTEX
8
RING_PROFILE
10
-117.3932
20
101.9009
30
0.0
0
VERTEX
8
RING_PROFILE
10
-117.2286
20
101.6289
30
0.0
0
VERTEX
8
RING_PROFILE
10
-117.0938
20
101.3411
30
0.0
0
VERTEX
8
RING_PROFILE
10
-116.9901
20
101.0406
30
0.0
0
VERTEX
8
RING_PROFILE
10
-116.9188
20
100.7307
30
0.0
0
VERTEX
8
RING_PROFILE
10
-116.8808
20
100.4151
30
0.0
0
VERTEX
8
RING_PROFILE
10
-116.8763
20
100.0973
30
0.0
0
VERTEX
8
RING_PROFILE
10
-116.8983
20
99.5323
30
0.0
0
VERTEX
8
RING_PROFILE
10
-116.9404
20
99.1350
30
0.0
0
VERTEX
8
RING_PROFILE
10
-116.9444
20
99.1120
30
0.0
0
VERTEX
8
RING_PROFILE
10
-117.0084
20
98.8267
30
0.0
0
VERTEX
8
RING_PROFILE
10
-117.1000
20
98.5491
30
0.0
0
VERTEX
8
RING_PROFILE
10
-117.1126
20
98.5161
30
0.0
0
VERTEX
8
RING_PROFILE
10
-117.2223
20
98.2272
30
0.0
0
VERTEX
8
RING_PROFILE
10
-117.2330
20
98.1994
30
0.0
0
VERTEX
8
RING_PROFILE
10
-117.2663
20
98.1142
30
0.0
0
VERTEX
8
RING_PROFILE
10
-117.2149
20
97.8884
30
0.0
0
VERTEX
8
RING_PROFILE
10
-117.0985
20
97.4111
30
0.0
0
VERTEX
8
RING_PROFILE
10
-117.0420
20
97.1159
30
0.0
0
VERTEX
8
RING_PROFILE
10
-116.9947
20
96.7780
30
0.0
0
VERTEX
8
RING_PROFILE
10
-116.8779
20
96.1396
30
0.0
0
VERTEX
8
RING_PROFILE
10
-116.8684
20
96.0848
30
0.0
0
VERTEX
8
RING_PROFILE
10
-116.7374
20
95.2848
30
0.0
0
VERTEX
8
RING_PROFILE
10
-116.7198
20
95.1611
30
0.0
0
VERTEX
8
RING_PROFILE
10
-116.6388
20
94.4933
30
0.0
0
VERTEX
8
RING_PROFILE
10
-116.5426
20
94.0405
30
0.0
0
VERTEX
8
RING_PROFILE
10
-116.4713
20
93.9287
30
0.0
0
VERTEX
8
RING_PROFILE
10
-116.4574
20
93.9066
30
0.0
0
VERTEX
8
RING_PROFILE
10
-116.0296
20
93.2226
30
0.0
0
VERTEX
8
RING_PROFILE
10
-115.9811
20
93.1474
30
0.0
0
VERTEX
8
RING_PROFILE
10
-115.8045
20
92.8339
30
0.0
0
VERTEX
8
RING_PROFILE
10
-115.6668
20
92.5015
30
0.0
0
VERTEX
8
RING_PROFILE
10
-115.4638
20
91.9145
30
0.0
0
VERTEX
8
RING_PROFILE
10
-115.3694
20
91.5802
30
0.0
0
VERTEX
8
RING_PROFILE
10
-115.3394
20
91.4442
30
0.0
0
VERTEX
8
RING_PROFILE
10
-115.2915
20
91.1647
30
0.0
0
VERTEX
8
RING_PROFILE
10
-115.2702
20
90.8819
30
0.0
0
VERTEX
8
RING_PROFILE
10
-115.2757
20
90.5983
30
0.0
0
VERTEX
8
RING_PROFILE
10
-115.3079
20
90.3166
30
0.0
0
VERTEX
8
RING_PROFILE
10
-115.3205
20
90.2567
30
0.0
0
VERTEX
8
RING_PROFILE
10
-115.3429
20
90.0164
30
0.0
0
VERTEX
8
RING_PROFILE
10
-115.3887
20
89.7037
30
0.0
0
VERTEX
8
RING_PROFILE
10
-115.4671
20
89.3975
30
0.0
0
VERTEX
8
RING_PROFILE
10
-115.5773
20
89.1013
30
0.0
0
VERTEX
8
RING_PROFILE
10
-115.7181
20
88.8183
30
0.0
0
VERTEX
8
RING_PROFILE
10
-115.8326
20
88.6156
30
0.0
0
VERTEX
8
RING_PROFILE
10
-115.9136
20
88.4026
30
0.0
0
VERTEX
8
RING_PROFILE
10
-115.9722
20
88.0652
30
0.0
0
VERTEX
8
RING_PROFILE
10
-116.0012
20
87.5007
30
0.0
0
VERTEX
8
RING_PROFILE
10
-116.0121
20
86.7738
30
0.0
0
VERTEX
8
RING_PROFILE
10
-116.0140
20
85.9981
30
0.0
0
VERTEX
8
RING_PROFILE
10
-116.0130
20
85.2412
30
0.0
0
VERTEX
8
RING_PROFILE
10
-115.9970
20
84.6297
30
0.0
0
VERTEX
8
RING_PROFILE
10
-115.9508
20
84.2676
30
0.0
0
VERTEX
8
RING_PROFILE
10
-115.7879
20
83.7757
30
0.0
0
VERTEX
8
RING_PROFILE
10
-115.5953
20
83.2358
30
0.0
0
VERTEX
8
RING_PROFILE
10
-115.5359
20
83.0503
30
0.0
0
VERTEX
8
RING_PROFILE
10
-115.4219
20
82.6503
30
0.0
0
VERTEX
8
RING_PROFILE
10
-115.3615
20
82.3973
30
0.0
0
VERTEX
8
RING_PROFILE
10
-115.3233
20
82.1400
30
0.0
0
VERTEX
8
RING_PROFILE
10
-115.3075
20
81.8804
30
0.0
0
VERTEX
8
RING_PROFILE
10
-115.2975
20
81.3084
30
0.0
0
VERTEX
8
RING_PROFILE
10
-115.3107
20
80.9696
30
0.0
0
VERTEX
8
RING_PROFILE
10
-115.3621
20
80.6345
30
0.0
0
VERTEX
8
RING_PROFILE
10
-115.4050
20
80.4766
30
0.0
0
VERTEX
8
RING_PROFILE
10
-115.4013
20
80.4757
30
0.0
0
VERTEX
8
RING_PROFILE
10
-115.4791
20
80.1808
30
0.0
0
VERTEX
8
RING_PROFILE
10
-115.4890
20
80.1420
30
0.0
0
VERTEX
8
RING_PROFILE
10
-115.5787
20
79.8520
30
0.0
0
VERTEX
8
RING_PROFILE
10
-115.6973
20
79.5726
30
0.0
0
VERTEX
8
RING_PROFILE
10
-115.8436
20
79.3066
30
0.0
0
VERTEX
8
RING_PROFILE
10
-116.0160
20
79.0567
30
0.0
0
VERTEX
8
RING_PROFILE
10
-116.3590
20
78.6097
30
0.0
0
VERTEX
8
RING_PROFILE
10
-116.4403
20
78.5104
30
0.0
0
VERTEX
8
RING_PROFILE
10
-116.5159
20
78.4162
30
0.0
0
VERTEX
8
RING_PROFILE
10
-116.5419
20
78.3862
30
0.0
0
VERTEX
8
RING_PROFILE
10
-116.5462
20
78.3813
30
0.0
0
VERTEX
8
RING_PROFILE
10
-116.6248
20
78.2910
30
0.0
0
VERTEX
8
RING_PROFILE
10
-116.7143
20
78.0306
30
0.0
0
VERTEX
8
RING_PROFILE
10
-116.8253
20
77.4421
30
0.0
0
VERTEX
8
RING_PROFILE
10
-116.8284
20
77.4219
30
0.0
0
VERTEX
8
RING_PROFILE
10
-116.8319
20
77.3993
30
0.0
0
VERTEX
8
RING_PROFILE
10
-116.8754
20
77.1285
30
0.0
0
VERTEX
8
RING_PROFILE
10
-116.9259
20
76.8097
30
0.0
0
VERTEX
8
RING_PROFILE
10
-116.9288
20
76.7919
30
0.0
0
VERTEX
8
RING_PROFILE
10
-116.9408
20
76.7193
30
0.0
0
VERTEX
8
RING_PROFILE
10
-117.0127
20
76.2698
30
0.0
0
VERTEX
8
RING_PROFILE
10
-117.0140
20
76.2620
30
0.0
0
VERTEX
8
RING_PROFILE
10
-117.0698
20
75.9189
30
0.0
0
VERTEX
8
RING_PROFILE
10
-117.0991
20
75.7382
30
0.0
0
VERTEX
8
RING_PROFILE
10
-117.1726
20
75.2785
30
0.0
0
VERTEX
8
RING_PROFILE
10
-117.1740
20
75.2700
30
0.0
0
VERTEX
8
RING_PROFILE
10
-117.1950
20
75.1410
30
0.0
0
VERTEX
8
RING_PROFILE
10
-117.1988
20
75.1181
30
0.0
0
VERTEX
8
RING_PROFILE
10
-117.2034
20
75.0909
30
0.0
0
VERTEX
8
RING_PROFILE
10
-117.3273
20
74.3224
30
0.0
0
VERTEX
8
RING_PROFILE
10
-117.4563
20
73.5224
30
0.0
0
VERTEX
8
RING_PROFILE
10
-117.5853
20
72.7224
30
0.0
0
VERTEX
8
RING_PROFILE
10
-117.5958
20
72.6612
30
0.0
0
VERTEX
8
RING_PROFILE
10
-117.7298
20
71.9272
30
0.0
0
VERTEX
8
RING_PROFILE
10
-117.7673
20
71.7580
30
0.0
0
VERTEX
8
RING_PROFILE
10
-117.7663
20
71.7577
30
0.0
0
VERTEX
8
RING_PROFILE
10
-117.8693
20
71.3187
30
0.0
0
VERTEX
8
RING_PROFILE
10
-117.9096
20
71.1652
30
0.0
0
VERTEX
8
RING_PROFILE
10
-118.0386
20
70.7222
30
0.0
0
VERTEX
8
RING_PROFILE
10
-118.0730
20
70.6123
30
0.0
0
VERTEX
8
RING_PROFILE
10
-118.0790
20
70.5943
30
0.0
0
VERTEX
8
RING_PROFILE
10
-118.0828
20
70.5828
30
0.0
0
VERTEX
8
RING_PROFILE
10
-118.3338
20
69.8398
30
0.0
0
VERTEX
8
RING_PROFILE
10
-118.3657
20
69.7501
30
0.0
0
VERTEX
8
RING_PROFILE
10
-118.6627
20
68.9551
30
0.0
0
VERTEX
8
RING_PROFILE
10
-118.6904
20
68.8839
30
0.0
0
VERTEX
8
RING_PROFILE
10
-118.8294
20
68.5389
30
0.0
0
VERTEX
8
RING_PROFILE
10
-118.8790
20
68.4228
30
0.0
0
VERTEX
8
RING_PROFILE
10
-119.0481
20
68.0491
30
0.0
0
VERTEX
8
RING_PROFILE
10
-119.0545
20
68.0345
30
0.0
0
VERTEX
8
RING_PROFILE
10
-119.0907
20
67.9551
30
0.0
0
VERTEX
8
RING_PROFILE
10
-119.4263
20
67.2450
30
0.0
0
VERTEX
8
RING_PROFILE
10
-119.6609
20
66.6023
30
0.0
0
VERTEX
8
RING_PROFILE
10
-119.6776
20
66.5618
30
0.0
0
VERTEX
8
RING_PROFILE
10
-119.8778
20
65.9140
30
0.0
0
VERTEX
8
RING_PROFILE
10
-119.9279
20
65.7657
30
0.0
0
VERTEX
8
RING_PROFILE
10
-120.2240
20
64.9598
30
0.0
0
VERTEX
8
RING_PROFILE
10
-120.4569
20
64.2682
30
0.0
0
VERTEX
8
RING_PROFILE
10
-120.6937
20
63.5080
30
0.0
0
VERTEX
8
RING_PROFILE
10
-120.7431
20
63.3624
30
0.0
0
VERTEX
8
RING_PROFILE
10
-121.0545
20
62.5178
30
0.0
0
VERTEX
8
RING_PROFILE
10
-121.2870
20
61.8651
30
0.0
0
VERTEX
8
RING_PROFILE
10
-121.2872
20
61.8652
30
0.0
0
VERTEX
8
RING_PROFILE
10
-121.3099
20
61.7892
30
0.0
0
VERTEX
8
RING_PROFILE
10
-121.6219
20
60.9522
30
0.0
0
VERTEX
8
RING_PROFILE
10
-121.6618
20
60.8509
30
0.0
0
VERTEX
8
RING_PROFILE
10
-121.9388
20
60.1829
30
0.0
0
VERTEX
8
RING_PROFILE
10
-122.0556
20
59.9341
30
0.0
0
VERTEX
8
RING_PROFILE
10
-122.0606
20
59.9256
30
0.0
0
VERTEX
8
RING_PROFILE
10
-122.1493
20
59.7294
30
0.0
0
VERTEX
8
RING_PROFILE
10
-122.2677
20
59.4953
30
0.0
0
VERTEX
8
RING_PROFILE
10
-122.5897
20
58.9223
30
0.0
0
VERTEX
8
RING_PROFILE
10
-122.6377
20
58.8410
30
0.0
0
VERTEX
8
RING_PROFILE
10
-122.6375
20
58.8409
30
0.0
0
VERTEX
8
RING_PROFILE
10
-122.9105
20
58.3805
30
0.0
0
VERTEX
8
RING_PROFILE
10
-122.9760
20
58.2596
30
0.0
0
VERTEX
8
RING_PROFILE
10
-122.9800
20
58.2512
30
0.0
0
VERTEX
8
RING_PROFILE
10
-123.0426
20
58.1405
30
0.0
0
VERTEX
8
RING_PROFILE
10
-123.0417
20
58.1400
30
0.0
0
VERTEX
8
RING_PROFILE
10
-123.0557
20
58.1130
30
0.0
0
VERTEX
8
RING_PROFILE
10
-123.0715
20
58.0830
30
0.0
0
VERTEX
8
RING_PROFILE
10
-123.4619
20
57.3506
30
0.0
0
VERTEX
8
RING_PROFILE
10
-123.4793
20
57.3172
30
0.0
0
VERTEX
8
RING_PROFILE
10
-123.4823
20
57.3116
30
0.0
0
VERTEX
8
RING_PROFILE
10
-123.5127
20
57.2537
30
0.0
0
VERTEX
8
RING_PROFILE
10
-123.6875
20
56.9203
30
0.0
0
VERTEX
8
RING_PROFILE
10
-123.8188
20
56.6632
30
0.0
0
VERTEX
8
RING_PROFILE
10
-123.8225
20
56.6553
30
0.0
0
VERTEX
8
RING_PROFILE
10
-123.8872
20
56.5250
30
0.0
0
VERTEX
8
RING_PROFILE
10
-124.2804
20
55.7790
30
0.0
0
VERTEX
8
RING_PROFILE
10
-124.2897
20
55.7610
30
0.0
0
VERTEX
8
RING_PROFILE
10
-124.3037
20
55.7345
30
0.0
0
VERTEX
8
RING_PROFILE
10
-124.3189
20
55.7057
30
0.0
0
VERTEX
8
RING_PROFILE
10
-124.5143
20
55.3360
30
0.0
0
VERTEX
8
RING_PROFILE
10
-124.5202
20
55.3248
30
0.0
0
VERTEX
8
RING_PROFILE
10
-124.6952
20
54.9968
30
0.0
0
VERTEX
8
RING_PROFILE
10
-124.6954
20
54.9970
30
0.0
0
VERTEX
8
RING_PROFILE
10
-124.7325
20
54.9241
30
0.0
0
VERTEX
8
RING_PROFILE
10
-124.7388
20
54.9128
30
0.0
0
VERTEX
8
RING_PROFILE
10
-125.1423
20
54.1656
30
0.0
0
VERTEX
8
RING_PROFILE
10
-125.1678
20
54.1232
30
0.0
0
VERTEX
8
RING_PROFILE
10
-125.1664
20
54.1224
30
0.0
0
VERTEX
8
RING_PROFILE
10
-125.3814
20
53.7384
30
0.0
0
VERTEX
8
RING_PROFILE
10
-125.5028
20
53.5399
30
0.0
0
VERTEX
8
RING_PROFILE
10
-125.7628
20
53.1499
30
0.0
0
VERTEX
8
RING_PROFILE
10
-125.8230
20
53.0687
30
0.0
0
VERTEX
8
RING_PROFILE
10
-125.8205
20
53.0669
30
0.0
0
VERTEX
8
RING_PROFILE
10
-126.2335
20
52.4899
30
0.0
0
VERTEX
8
RING_PROFILE
10
-126.3132
20
52.3836
30
0.0
0
VERTEX
8
RING_PROFILE
10
-126.6272
20
51.9836
30
0.0
0
VERTEX
8
RING_PROFILE
10
-126.6333
20
51.9759
30
0.0
0
VERTEX
8
RING_PROFILE
10
-127.0548
20
51.4425
30
0.0
0
VERTEX
8
RING_PROFILE
10
-127.0844
20
51.4051
30
0.0
0
VERTEX
8
RING_PROFILE
10
-127.0964
20
51.3899
30
0.0
0
VERTEX
8
RING_PROFILE
10
-127.1156
20
51.3660
30
0.0
0
VERTEX
8
RING_PROFILE
10
-127.1659
20
51.3012
30
0.0
0
VERTEX
8
RING_PROFILE
10
-127.1839
20
51.2783
30
0.0
0
VERTEX
8
RING_PROFILE
10
-127.3494
20
51.0697
30
0.0
0
VERTEX
8
RING_PROFILE
10
-127.5817
20
50.7748
30
0.0
0
VERTEX
8
RING_PROFILE
10
-127.6754
20
50.6554
30
0.0
0
VERTEX
8
RING_PROFILE
10
-127.7047
20
50.6186
30
0.0
0
VERTEX
8
RING_PROFILE
10
-127.7081
20
50.6144
30
0.0
0
VERTEX
8
RING_PROFILE
10
-127.7228
20
50.5954
30
0.0
0
VERTEX
8
RING_PROFILE
10
-127.7808
20
50.5214
30
0.0
0
VERTEX
8
RING_PROFILE
10
-127.7856
20
50.5153
30
0.0
0
VERTEX
8
RING_PROFILE
10
-128.0535
20
50.1753
30
0.0
0
VERTEX
8
RING_PROFILE
10
-128.3454
20
49.7990
30
0.0
0
VERTEX
8
RING_PROFILE
10
-128.3528
20
49.7890
30
0.0
0
VERTEX
8
RING_PROFILE
10
-128.4105
20
49.7138
30
0.0
0
VERTEX
8
RING_PROFILE
10
-128.4335
20
49.6848
30
0.0
0
VERTEX
8
RING_PROFILE
10
-128.4685
20
49.6407
30
0.0
0
VERTEX
8
RING_PROFILE
10
-128.7524
20
49.2740
30
0.0
0
VERTEX
8
RING_PROFILE
10
-128.9297
20
49.0431
30
0.0
0
VERTEX
8
RING_PROFILE
10
-128.9538
20
49.0104
30
0.0
0
VERTEX
8
RING_PROFILE
10
-129.0100
20
48.9365
30
0.0
0
VERTEX
8
RING_PROFILE
10
-129.0163
20
48.9286
30
0.0
0
VERTEX
8
RING_PROFILE
10
-129.0229
20
48.9198
30
0.0
0
VERTEX
8
RING_PROFILE
10
-129.0345
20
48.9047
30
0.0
0
VERTEX
8
RING_PROFILE
10
-129.4558
20
48.3566
30
0.0
0
VERTEX
8
RING_PROFILE
10
-129.7621
20
47.9575
30
0.0
0
VERTEX
8
RING_PROFILE
10
-129.7662
20
47.9521
30
0.0
0
VERTEX
8
RING_PROFILE
10
-130.1872
20
47.4061
30
0.0
0
VERTEX
8
RING_PROFILE
10
-130.1949
20
47.3962
30
0.0
0
VERTEX
8
RING_PROFILE
10
-130.2138
20
47.3720
30
0.0
0
VERTEX
8
RING_PROFILE
10
-130.2367
20
47.3419
30
0.0
0
VERTEX
8
RING_PROFILE
10
-130.2523
20
47.3215
30
0.0
0
VERTEX
8
RING_PROFILE
10
-130.4790
20
47.0293
30
0.0
0
VERTEX
8
RING_PROFILE
10
-130.8286
20
46.5771
30
0.0
0
VERTEX
8
RING_PROFILE
10
-130.8594
20
46.5379
30
0.0
0
VERTEX
8
RING_PROFILE
10
-130.8618
20
46.5349
30
0.0
0
VERTEX
8
RING_PROFILE
10
-131.1993
20
46.1041
30
0.0
0
VERTEX
8
RING_PROFILE
10
-131.3068
20
45.9745
30
0.0
0
VERTEX
8
RING_PROFILE
10
-131.5842
20
45.6585
30
0.0
0
VERTEX
8
RING_PROFILE
10
-131.6341
20
45.6013
30
0.0
0
VERTEX
8
RING_PROFILE
10
-131.6418
20
45.5922
30
0.0
0
VERTEX
8
RING_PROFILE
10
-131.7773
20
45.4426
30
0.0
0
VERTEX
8
RING_PROFILE
10
-131.7785
20
45.4414
30
0.0
0
VERTEX
8
RING_PROFILE
10
-131.8350
20
45.3796
30
0.0
0
VERTEX
8
RING_PROFILE
10
-132.0994
20
45.0903
30
0.0
0
VERTEX
8
RING_PROFILE
10
-132.2374
20
44.9489
30
0.0
0
VERTEX
8
RING_PROFILE
10
-132.5055
20
44.6918
30
0.0
0
VERTEX
8
RING_PROFILE
10
-132.6001
20
44.6008
30
0.0
0
VERTEX
8
RING_PROFILE
10
-132.6298
20
44.5720
30
0.0
0
VERTEX
8
RING_PROFILE
10
-132.6611
20
44.5420
30
0.0
0
VERTEX
8
RING_PROFILE
10
-132.6845
20
44.5199
30
0.0
0
VERTEX
8
RING_PROFILE
10
-132.7619
20
44.4450
30
0.0
0
VERTEX
8
RING_PROFILE
10
-132.7842
20
44.4237
30
0.0
0
VERTEX
8
RING_PROFILE
10
-133.0647
20
44.1581
30
0.0
0
VERTEX
8
RING_PROFILE
10
-133.3703
20
43.8674
30
0.0
0
VERTEX
8
RING_PROFILE
10
-133.3748
20
43.8631
30
0.0
0
VERTEX
8
RING_PROFILE
10
-133.4508
20
43.7911
30
0.0
0
VERTEX
8
RING_PROFILE
10
-133.4726
20
43.7706
30
0.0
0
VERTEX
8
RING_PROFILE
10
-133.4855
20
43.7587
30
0.0
0
VERTEX
8
RING_PROFILE
10
-133.4908
20
43.7537
30
0.0
0
VERTEX
8
RING_PROFILE
10
-133.5599
20
43.6874
30
0.0
0
VERTEX
8
RING_PROFILE
10
-133.5695
20
43.6783
30
0.0
0
VERTEX
8
RING_PROFILE
10
-133.8872
20
43.3766
30
0.0
0
VERTEX
8
RING_PROFILE
10
-134.2284
20
43.0533
30
0.0
0
VERTEX
8
RING_PROFILE
10
-134.2686
20
43.0149
30
0.0
0
VERTEX
8
RING_PROFILE
10
-134.2687
20
43.0151
30
0.0
0
VERTEX
8
RING_PROFILE
10
-134.3146
20
42.9716
30
0.0
0
VERTEX
8
RING_PROFILE
10
-134.3144
20
42.9713
30
0.0
0
VERTEX
8
RING_PROFILE
10
-134.3553
20
42.9324
30
0.0
0
VERTEX
8
RING_PROFILE
10
-134.7022
20
42.6024
30
0.0
0
VERTEX
8
RING_PROFILE
10
-135.1001
20
42.2224
30
0.0
0
VERTEX
8
RING_PROFILE
10
-135.1058
20
42.2170
30
0.0
0
VERTEX
8
RING_PROFILE
10
-135.1258
20
42.1980
30
0.0
0
VERTEX
8
RING_PROFILE
10
-135.1288
20
42.1951
30
0.0
0
VERTEX
8
RING_PROFILE
10
-135.1418
20
42.1828
30
0.0
0
VERTEX
8
RING_PROFILE
10
-135.4901
20
41.8492
30
0.0
0
VERTEX
8
RING_PROFILE
10
-135.8405
20
41.4979
30
0.0
0
VERTEX
8
RING_PROFILE
10
-135.8438
20
41.4944
30
0.0
0
VERTEX
8
RING_PROFILE
10
-135.8591
20
41.4786
30
0.0
0
VERTEX
8
RING_PROFILE
10
-136.1589
20
41.1709
30
0.0
0
VERTEX
8
RING_PROFILE
10
-136.3743
20
40.9144
30
0.0
0
VERTEX
8
RING_PROFILE
10
-136.4071
20
40.8743
30
0.0
0
VERTEX
8
RING_PROFILE
10
-136.4341
20
40.8434
30
0.0
0
VERTEX
8
RING_PROFILE
10
-136.4349
20
40.8423
30
0.0
0
VERTEX
8
RING_PROFILE
10
-136.5085
20
40.7496
30
0.0
0
VERTEX
8
RING_PROFILE
10
-136.6669
20
40.5500
30
0.0
0
VERTEX
8
RING_PROFILE
10
-136.7152
20
40.4731
30
0.0
0
VERTEX
8
RING_PROFILE
10
-137.0378
20
39.8143
30
0.0
0
VERTEX
8
RING_PROFILE
10
-137.0410
20
39.8080
30
0.0
0
VERTEX
8
RING_PROFILE
10
-137.0523
20
39.7850
30
0.0
0
VERTEX
8
RING_PROFILE
10
-137.0741
20
39.7367
30
0.0
0
VERTEX
8
RING_PROFILE
10
-137.1960
20
39.4627
30
0.0
0
VERTEX
8
RING_PROFILE
10
-137.3185
20
39.2179
30
0.0
0
VERTEX
8
RING_PROFILE
10
-137.4628
20
38.9854
30
0.0
0
VERTEX
8
RING_PROFILE
10
-137.6277
20
38.7670
30
0.0
0
VERTEX
8
RING_PROFILE
10
-137.8119
20
38.5645
30
0.0
0
VERTEX
8
RING_PROFILE
10
-138.0137
20
38.3796
30
0.0
0
VERTEX
8
RING_PROFILE
10
-138.2390
20
38.1914
30
0.0
0
VERTEX
8
RING_PROFILE
10
-138.3087
20
38.1308
30
0.0
0
VERTEX
8
RING_PROFILE
10
-138.5225
20
37.9610
30
0.0
0
VERTEX
8
RING_PROFILE
10
-138.5765
20
37.9220
30
0.0
0
VERTEX
8
RING_PROFILE
10
-138.7952
20
37.7781
30
0.0
0
VERTEX
8
RING_PROFILE
10
-139.0255
20
37.6539
30
0.0
0
VERTEX
8
RING_PROFILE
10
-139.2658
20
37.5502
30
0.0
0
VERTEX
8
RING_PROFILE
10
-140.1328
20
37.2202
30
0.0
0
VERTEX
8
RING_PROFILE
10
-140.4381
20
37.1224
30
0.0
0
VERTEX
8
RING_PROFILE
10
-140.7521
20
37.0576
30
0.0
0
VERTEX
8
RING_PROFILE
10
-141.0132
20
37.0324
30
0.0
0
VERTEX
8
RING_PROFILE
10
-141.5103
20
36.8230
30
0.0
0
VERTEX
8
RING_PROFILE
10
-141.7364
20
36.7026
30
0.0
0
VERTEX
8
RING_PROFILE
10
-141.9964
20
36.5239
30
0.0
0
VERTEX
8
RING_PROFILE
10
-142.0338
20
36.4986
30
0.0
0
VERTEX
8
RING_PROFILE
10
-142.6331
20
36.0997
30
0.0
0
VERTEX
8
RING_PROFILE
10
-143.0315
20
35.8338
30
0.0
0
VERTEX
8
RING_PROFILE
10
-143.0654
20
35.8115
30
0.0
0
VERTEX
8
RING_PROFILE
10
-143.5665
20
35.4867
30
0.0
0
VERTEX
8
RING_PROFILE
10
-143.9744
20
35.2215
30
0.0
0
VERTEX
8
RING_PROFILE
10
-144.2211
20
35.0327
30
0.0
0
VERTEX
8
RING_PROFILE
10
-144.5258
20
34.7735
30
0.0
0
VERTEX
8
RING_PROFILE
10
-144.7629
20
34.5305
30
0.0
0
VERTEX
8
RING_PROFILE
10
-144.9393
20
34.3253
30
0.0
0
VERTEX
8
RING_PROFILE
10
-145.2772
20
33.8334
30
0.0
0
VERTEX
8
RING_PROFILE
10
-145.3517
20
33.7298
30
0.0
0
VERTEX
8
RING_PROFILE
10
-145.6117
20
33.3838
30
0.0
0
VERTEX
8
RING_PROFILE
10
-145.8138
20
33.1423
30
0.0
0
VERTEX
8
RING_PROFILE
10
-146.0400
20
32.9234
30
0.0
0
VERTEX
8
RING_PROFILE
10
-146.2880
20
32.7294
30
0.0
0
VERTEX
8
RING_PROFILE
10
-146.5550
20
32.5625
30
0.0
0
VERTEX
8
RING_PROFILE
10
-146.8379
20
32.4244
30
0.0
0
VERTEX
8
RING_PROFILE
10
-147.1819
20
32.2784
30
0.0
0
VERTEX
8
RING_PROFILE
10
-147.2771
20
32.2400
30
0.0
0
VERTEX
8
RING_PROFILE
10
-147.2901
20
32.2350
30
0.0
0
VERTEX
8
RING_PROFILE
10
-147.4183
20
32.1890
30
0.0
0
VERTEX
8
RING_PROFILE
10
-147.4273
20
32.1860
30
0.0
0
VERTEX
8
RING_PROFILE
10
-147.6689
20
32.1165
30
0.0
0
VERTEX
8
RING_PROFILE
10
-147.9155
20
32.0676
30
0.0
0
VERTEX
8
RING_PROFILE
10
-148.7395
20
31.9396
30
0.0
0
VERTEX
8
RING_PROFILE
10
-149.1250
20
31.9049
30
0.0
0
VERTEX
8
RING_PROFILE
10
-149.6841
20
31.8910
30
0.0
0
VERTEX
8
RING_PROFILE
10
-150.0036
20
31.8311
30
0.0
0
VERTEX
8
RING_PROFILE
10
-150.2808
20
31.7298
30
0.0
0
VERTEX
8
RING_PROFILE
10
-150.5677
20
31.5971
30
0.0
0
VERTEX
8
RING_PROFILE
10
-150.5795
20
31.5917
30
0.0
0
VERTEX
8
RING_PROFILE
10
-151.1511
20
31.3303
30
0.0
0
VERTEX
8
RING_PROFILE
10
-151.8404
20
31.0143
30
0.0
0
VERTEX
8
RING_PROFILE
10
-152.2318
20
30.8323
30
0.0
0
VERTEX
8
RING_PROFILE
10
-152.6794
20
30.6237
30
0.0
0
VERTEX
8
RING_PROFILE
10
-153.2194
20
30.3457
30
0.0
0
VERTEX
8
RING_PROFILE
10
-153.3158
20
30.2875
30
0.0
0
VERTEX
8
RING_PROFILE
10
-153.5283
20
30.1042
30
0.0
0
VERTEX
8
RING_PROFILE
10
-153.8585
20
29.7872
30
0.0
0
VERTEX
8
RING_PROFILE
10
-154.3288
20
29.3258
30
0.0
0
VERTEX
8
RING_PROFILE
10
-154.3668
20
29.2891
30
0.0
0
VERTEX
8
RING_PROFILE
10
-154.4048
20
29.2531
30
0.0
0
VERTEX
8
RING_PROFILE
10
-154.6118
20
29.0742
30
0.0
0
VERTEX
8
RING_PROFILE
10
-154.8343
20
28.9149
30
0.0
0
VERTEX
8
RING_PROFILE
10
-155.2563
20
28.6409
30
0.0
0
VERTEX
8
RING_PROFILE
10
-155.4993
20
28.4988
30
0.0
0
VERTEX
8
RING_PROFILE
10
-155.7545
20
28.3802
30
0.0
0
VERTEX
8
RING_PROFILE
10
-156.0197
20
28.2860
30
0.0
0
VERTEX
8
RING_PROFILE
10
-156.2925
20
28.2171
30
0.0
0
VERTEX
8
RING_PROFILE
10
-156.6025
20
28.1541
30
0.0
0
VERTEX
8
RING_PROFILE
10
-156.8897
20
28.1101
30
0.0
0
VERTEX
8
RING_PROFILE
10
-157.1797
20
28.0941
30
0.0
0
VERTEX
8
RING_PROFILE
10
-157.4700
20
28.1062
30
0.0
0
VERTEX
8
RING_PROFILE
10
-157.6360
20
28.1212
30
0.0
0
VERTEX
8
RING_PROFILE
10
-157.6766
20
28.1251
30
0.0
0
VERTEX
8
RING_PROFILE
10
-158.3106
20
28.1911
30
0.0
0
VERTEX
8
RING_PROFILE
10
-158.4424
20
28.2078
30
0.0
0
VERTEX
8
RING_PROFILE
10
-158.9424
20
28.2823
30
0.0
0
VERTEX
8
RING_PROFILE
10
-159.2038
20
28.2695
30
0.0
0
VERTEX
8
RING_PROFILE
10
-159.2659
20
28.2657
30
0.0
0
VERTEX
8
RING_PROFILE
10
-159.4081
20
28.2424
30
0.0
0
VERTEX
8
RING_PROFILE
10
-159.9097
20
28.1499
30
0.0
0
VERTEX
8
RING_PROFILE
10
-160.5945
20
28.0097
30
0.0
0
VERTEX
8
RING_PROFILE
10
-161.3860
20
27.8455
30
0.0
0
VERTEX
8
RING_PROFILE
10
-162.1607
20
27.6823
30
0.0
0
VERTEX
8
RING_PROFILE
10
-162.1754
20
27.6786
30
0.0
0
VERTEX
8
RING_PROFILE
10
-162.3114
20
27.6446
30
0.0
0
VERTEX
8
RING_PROFILE
10
-162.3214
20
27.6421
30
0.0
0
VERTEX
8
RING_PROFILE
10
-162.6881
20
27.5518
30
0.0
0
VERTEX
8
RING_PROFILE
10
-162.7449
20
27.5360
30
0.0
0
VERTEX
8
RING_PROFILE
10
-163.0153
20
27.4223
30
0.0
0
VERTEX
8
RING_PROFILE
10
-163.2028
20
27.3095
30
0.0
0
VERTEX
8
RING_PROFILE
10
-163.3120
20
27.2145
30
0.0
0
VERTEX
8
RING_PROFILE
10
-163.3899
20
27.1346
30
0.0
0
VERTEX
8
RING_PROFILE
10
-163.5286
20
26.9123
30
0.0
0
VERTEX
8
RING_PROFILE
10
-163.7022
20
26.6630
30
0.0
0
VERTEX
8
RING_PROFILE
10
-163.9001
20
26.4326
30
0.0
0
VERTEX
8
RING_PROFILE
10
-164.1204
20
26.2233
30
0.0
0
VERTEX
8
RING_PROFILE
10
-164.3607
20
26.0374
30
0.0
0
VERTEX
8
RING_PROFILE
10
-164.6185
20
25.8767
30
0.0
0
VERTEX
8
RING_PROFILE
10
-164.8913
20
25.7430
30
0.0
0
VERTEX
8
RING_PROFILE
10
-165.1762
20
25.6375
30
0.0
0
VERTEX
8
RING_PROFILE
10
-165.4703
20
25.5614
30
0.0
0
VERTEX
8
RING_PROFILE
10
-165.7706
20
25.5154
30
0.0
0
VERTEX
8
RING_PROFILE
10
-165.9076
20
25.5084
30
0.0
0
VERTEX
8
RING_PROFILE
10
-166.1291
20
25.4292
30
0.0
0
VERTEX
8
RING_PROFILE
10
-166.4147
20
25.3576
30
0.0
0
VERTEX
8
RING_PROFILE
10
-166.7059
20
25.3144
30
0.0
0
VERTEX
8
RING_PROFILE
10
-167.0000
20
25.3000
30
0.0
0
VERTEX
8
RING_PROFILE
10
-167.8010
20
25.3000
30
0.0
0
VERTEX
8
RING_PROFILE
10
-168.0877
20
25.3137
30
0.0
0
VERTEX
8
RING_PROFILE
10
-168.2500
20
25.3372
30
0.0
0
VERTEX
8
RING_PROFILE
10
-168.2500
20
31.3000
30
0.0
0
VERTEX
8
RING_PROFILE
10
-171.7500
20
31.3000
30
0.0
0
VERTEX
8
RING_PROFILE
10
-171.7500
20
26.2335
30
0.0
0
VERTEX
8
RING_PROFILE
10
-172.0426
20
26.1984
30
0.0
0
VERTEX
8
RING_PROFILE
10
-172.0757
20
26.1946
30
0.0
0
VERTEX
8
RING_PROFILE
10
-172.8757
20
26.1076
30
0.0
0
VERTEX
8
RING_PROFILE
10
-172.9052
20
26.1045
30
0.0
0
VERTEX
8
RING_PROFILE
10
-173.7052
20
26.0255
30
0.0
0
VERTEX
8
RING_PROFILE
10
-173.7207
20
26.0240
30
0.0
0
VERTEX
8
RING_PROFILE
10
-174.4907
20
25.9520
30
0.0
0
VERTEX
8
RING_PROFILE
10
-174.5903
20
25.9444
30
0.0
0
VERTEX
8
RING_PROFILE
10
-174.6393
20
25.9414
30
0.0
0
VERTEX
8
RING_PROFILE
10
-174.9136
20
25.9248
30
0.0
0
VERTEX
8
RING_PROFILE
10
-175.3011
20
25.9001
30
0.0
0
VERTEX
8
RING_PROFILE
10
-175.3533
20
25.8972
30
0.0
0
VERTEX
8
RING_PROFILE
10
-175.4613
20
25.8922
30
0.0
0
VERTEX
8
RING_PROFILE
10
-175.6624
20
25.8896
30
0.0
0
VERTEX
8
RING_PROFILE
10
-176.3354
20
25.9036
30
0.0
0
VERTEX
8
RING_PROFILE
10
-176.3438
20
25.9038
30
0.0
0
VERTEX
8
RING_PROFILE
10
-176.4708
20
25.9068
30
0.0
0
VERTEX
8
RING_PROFILE
10
-176.6540
20
25.9168
30
0.0
0
VERTEX
8
RING_PROFILE
10
-177.0076
20
25.9468
30
0.0
0
VERTEX
8
RING_PROFILE
10
-177.4186
20
25.9818
30
0.0
0
VERTEX
8
RING_PROFILE
10
-177.4902
20
25.9888
30
0.0
0
VERTEX
8
RING_PROFILE
10
-177.5419
20
25.9944
30
0.0
0
VERTEX
8
RING_PROFILE
10
-178.3016
20
26.0712
30
0.0
0
VERTEX
8
RING_PROFILE
10
-178.3207
20
26.0732
30
0.0
0
VERTEX
8
RING_PROFILE
10
-179.1207
20
26.1592
30
0.0
0
VERTEX
8
RING_PROFILE
10
-179.9207
20
26.2452
30
0.0
0
VERTEX
8
RING_PROFILE
10
-179.9427
20
26.2476
30
0.0
0
VERTEX
8
RING_PROFILE
10
-180.6465
20
26.3286
30
0.0
0
VERTEX
8
RING_PROFILE
10
-181.0435
20
26.3484
30
0.0
0
VERTEX
8
RING_PROFILE
10
-181.1852
20
26.3265
30
0.0
0
VERTEX
8
RING_PROFILE
10
-181.2142
20
26.3145
30
0.0
0
VERTEX
8
RING_PROFILE
10
-181.2148
20
26.3139
30
0.0
0
VERTEX
8
RING_PROFILE
10
-181.4419
20
26.0237
30
0.0
0
VERTEX
8
RING_PROFILE
10
-181.5855
20
25.8126
30
0.0
0
VERTEX
8
RING_PROFILE
10
-181.7613
20
25.5795
30
0.0
0
VERTEX
8
RING_PROFILE
10
-181.9588
20
25.3646
30
0.0
0
VERTEX
8
RING_PROFILE
10
-182.1763
20
25.1699
30
0.0
0
VERTEX
8
RING_PROFILE
10
-182.4118
20
24.9973
30
0.0
0
VERTEX
8
RING_PROFILE
10
-182.6628
20
24.8484
30
0.0
0
VERTEX
8
RING_PROFILE
10
-182.9272
20
24.7246
30
0.0
0
VERTEX
8
RING_PROFILE
10
-183.2023
20
24.6270
30
0.0
0
VERTEX
8
RING_PROFILE
10
-183.4856
20
24.5567
30
0.0
0
VERTEX
8
RING_PROFILE
10
-183.7744
20
24.5142
30
0.0
0
VERTEX
8
RING_PROFILE
10
-184.0660
20
24.5000
30
0.0
0
VERTEX
8
RING_PROFILE
10
-184.2000
20
24.5000
30
0.0
0
VERTEX
8
RING_PROFILE
10
-184.4941
20
24.5144
30
0.0
0
VERTEX
8
RING_PROFILE
10
-184.7853
20
24.5576
30
0.0
0
VERTEX
8
RING_PROFILE
10
-185.0709
20
24.6292
30
0.0
0
VERTEX
8
RING_PROFILE
10
-185.3481
20
24.7284
30
0.0
0
VERTEX
8
RING_PROFILE
10
-185.6142
20
24.8542
30
0.0
0
VERTEX
8
RING_PROFILE
10
-185.8667
20
25.0056
30
0.0
0
VERTEX
8
RING_PROFILE
10
-186.1032
20
25.1810
30
0.0
0
VERTEX
8
RING_PROFILE
10
-186.3213
20
25.3787
30
0.0
0
VERTEX
8
RING_PROFILE
10
-186.7213
20
25.7787
30
0.0
0
VERTEX
8
RING_PROFILE
10
-186.7557
20
25.8130
30
0.0
0
VERTEX
8
RING_PROFILE
10
-186.7800
20
25.8240
30
0.0
0
VERTEX
8
RING_PROFILE
10
-187.0247
20
25.9628
30
0.0
0
VERTEX
8
RING_PROFILE
10
-187.2554
20
26.1238
30
0.0
0
VERTEX
8
RING_PROFILE
10
-187.4699
20
26.3058
30
0.0
0
VERTEX
8
RING_PROFILE
10
-187.6664
20
26.5071
30
0.0
0
VERTEX
8
RING_PROFILE
10
-187.8432
20
26.7259
30
0.0
0
VERTEX
8
RING_PROFILE
10
-187.8532
20
26.7395
30
0.0
0
VERTEX
8
RING_PROFILE
10
-188.1634
20
27.1507
30
0.0
0
VERTEX
8
RING_PROFILE
10
-188.4226
20
27.3698
30
0.0
0
VERTEX
8
RING_PROFILE
10
-188.6686
20
27.4976
30
0.0
0
VERTEX
8
RING_PROFILE
10
-189.1075
20
27.6226
30
0.0
0
VERTEX
8
RING_PROFILE
10
-189.8108
20
27.7688
30
0.0
0
VERTEX
8
RING_PROFILE
10
-189.8166
20
27.7700
30
0.0
0
VERTEX
8
RING_PROFILE
10
-190.6166
20
27.9380
30
0.0
0
VERTEX
8
RING_PROFILE
10
-190.6386
20
27.9427
30
0.0
0
VERTEX
8
RING_PROFILE
10
-191.4006
20
28.1087
30
0.0
0
VERTEX
8
RING_PROFILE
10
-191.4128
20
28.1114
30
0.0
0
VERTEX
8
RING_PROFILE
10
-191.4398
20
28.1174
30
0.0
0
VERTEX
8
RING_PROFILE
10
-191.4431
20
28.1182
30
0.0
0
VERTEX
8
RING_PROFILE
10
-191.5270
20
28.1369
30
0.0
0
VERTEX
8
RING_PROFILE
10
-192.1071
20
28.2623
30
0.0
0
VERTEX
8
RING_PROFILE
10
-192.5292
20
28.3160
30
0.0
0
VERTEX
8
RING_PROFILE
10
-192.8851
20
28.3011
30
0.0
0
VERTEX
8
RING_PROFILE
10
-193.0076
20
28.2795
30
0.0
0
VERTEX
8
RING_PROFILE
10
-193.4177
20
28.1928
30
0.0
0
VERTEX
8
RING_PROFILE
10
-193.4179
20
28.1937
30
0.0
0
VERTEX
8
RING_PROFILE
10
-193.5574
20
28.1627
30
0.0
0
VERTEX
8
RING_PROFILE
10
-193.8172
20
28.1284
30
0.0
0
VERTEX
8
RING_PROFILE
10
-194.0567
20
28.1180
30
0.0
0
VERTEX
8
RING_PROFILE
10
-194.0567
20
28.1171
30
0.0
0
VERTEX
8
RING_PROFILE
10
-194.5317
20
28.1131
30
0.0
0
VERTEX
8
RING_PROFILE
10
-194.8550
20
28.1278
30
0.0
0
VERTEX
8
RING_PROFILE
10
-195.1748
20
28.1773
30
0.0
0
VERTEX
8
RING_PROFILE
10
-195.4874
20
28.2609
30
0.0
0
VERTEX
8
RING_PROFILE
10
-195.7892
20
28.3777
30
0.0
0
VERTEX
8
RING_PROFILE
10
-196.0766
20
28.5264
30
0.0
0
VERTEX
8
RING_PROFILE
10
-196.4766
20
28.7614
30
0.0
0
VERTEX
8
RING_PROFILE
10
-196.7046
20
28.9096
30
0.0
0
VERTEX
8
RING_PROFILE
10
-196.9182
20
29.0779
30
0.0
0
VERTEX
8
RING_PROFILE
10
-197.3812
20
29.4779
30
0.0
0
VERTEX
8
RING_PROFILE
10
-197.6352
20
29.7250
30
0.0
0
VERTEX
8
RING_PROFILE
10
-197.9321
20
30.0500
30
0.0
0
VERTEX
8
RING_PROFILE
10
-198.1758
20
30.2677
30
0.0
0
VERTEX
8
RING_PROFILE
10
-198.2832
20
30.3489
30
0.0
0
VERTEX
8
RING_PROFILE
10
-198.5449
20
30.4867
30
0.0
0
VERTEX
8
RING_PROFILE
10
-199.1436
20
30.7723
30
0.0
0
VERTEX
8
RING_PROFILE
10
-199.1666
20
30.7834
30
0.0
0
VERTEX
8
RING_PROFILE
10
-199.4782
20
30.9353
30
0.0
0
VERTEX
8
RING_PROFILE
10
-199.9168
20
31.1145
30
0.0
0
VERTEX
8
RING_PROFILE
10
-200.7193
20
31.4303
30
0.0
0
VERTEX
8
RING_PROFILE
10
-200.8153
20
31.4700
30
0.0
0
VERTEX
8
RING_PROFILE
10
-200.8683
20
31.4930
30
0.0
0
VERTEX
8
RING_PROFILE
10
-201.0570
20
31.5853
30
0.0
0
VERTEX
8
RING_PROFILE
10
-201.3452
20
31.7125
30
0.0
0
VERTEX
8
RING_PROFILE
10
-201.4303
20
31.7434
30
0.0
0
VERTEX
8
RING_PROFILE
10
-202.0072
20
31.9679
30
0.0
0
VERTEX
8
RING_PROFILE
10
-202.2866
20
32.0161
30
0.0
0
VERTEX
8
RING_PROFILE
10
-202.8600
20
32.0276
30
0.0
0
VERTEX
8
RING_PROFILE
10
-203.2828
20
32.0661
30
0.0
0
VERTEX
8
RING_PROFILE
10
-203.7918
20
32.1491
30
0.0
0
VERTEX
8
RING_PROFILE
10
-204.0922
20
32.2140
30
0.0
0
VERTEX
8
RING_PROFILE
10
-204.3844
20
32.3094
30
0.0
0
VERTEX
8
RING_PROFILE
10
-204.6653
20
32.4341
30
0.0
0
VERTEX
8
RING_PROFILE
10
-204.9319
20
32.5869
30
0.0
0
VERTEX
8
RING_PROFILE
10
-205.1815
20
32.7662
30
0.0
0
VERTEX
8
RING_PROFILE
10
-205.4115
20
32.9700
30
0.0
0
VERTEX
8
RING_PROFILE
10
-205.8115
20
33.3630
30
0.0
0
VERTEX
8
RING_PROFILE
10
-205.9361
20
33.4930
30
0.0
0
VERTEX
8
RING_PROFILE
10
-206.2971
20
33.8930
30
0.0
0
VERTEX
8
RING_PROFILE
10
-206.3587
20
33.9634
30
0.0
0
VERTEX
8
RING_PROFILE
10
-206.7365
20
34.4093
30
0.0
0
VERTEX
8
RING_PROFILE
10
-206.9529
20
34.6531
30
0.0
0
VERTEX
8
RING_PROFILE
10
-207.1974
20
34.8713
30
0.0
0
VERTEX
8
RING_PROFILE
10
-207.5240
20
35.1499
30
0.0
0
VERTEX
8
RING_PROFILE
10
-207.7978
20
35.3388
30
0.0
0
VERTEX
8
RING_PROFILE
10
-207.8132
20
35.3495
30
0.0
0
VERTEX
8
RING_PROFILE
10
-208.3852
20
35.7495
30
0.0
0
VERTEX
8
RING_PROFILE
10
-208.4189
20
35.7734
30
0.0
0
VERTEX
8
RING_PROFILE
10
-208.7751
20
36.0298
30
0.0
0
VERTEX
8
RING_PROFILE
10
-209.2449
20
36.3431
30
0.0
0
VERTEX
8
RING_PROFILE
10
-209.6526
20
36.6059
30
0.0
0
VERTEX
8
RING_PROFILE
10
-209.9080
20
36.7585
30
0.0
0
VERTEX
8
RING_PROFILE
10
-210.2326
20
36.9195
30
0.0
0
VERTEX
8
RING_PROFILE
10
-210.5990
20
37.0083
30
0.0
0
VERTEX
8
RING_PROFILE
10
-211.3151
20
37.1281
30
0.0
0
VERTEX
8
RING_PROFILE
10
-211.3269
20
37.1301
30
0.0
0
VERTEX
8
RING_PROFILE
10
-211.3619
20
37.1361
30
0.0
0
VERTEX
8
RING_PROFILE
10
-211.6508
20
37.2005
30
0.0
0
VERTEX
8
RING_PROFILE
10
-211.9320
20
37.2930
30
0.0
0
VERTEX
8
RING_PROFILE
10
-212.2027
20
37.4128
30
0.0
0
VERTEX
8
RING_PROFILE
10
-212.4603
20
37.5586
30
0.0
0
VERTEX
8
RING_PROFILE
10
-212.7023
20
37.7292
30
0.0
0
VERTEX
8
RING_PROFILE
10
-213.2423
20
38.1512
30
0.0
0
VERTEX
8
RING_PROFILE
10
-213.4769
20
38.3550
30
0.0
0
VERTEX
8
RING_PROFILE
10
-213.6892
20
38.5819
30
0.0
0
VERTEX
8
RING_PROFILE
10
-213.8768
20
38.8296
30
0.0
0
VERTEX
8
RING_PROFILE
10
-214.0379
20
39.0954
30
0.0
0
VERTEX
8
RING_PROFILE
10
-214.4139
20
39.7954
30
0.0
0
VERTEX
8
RING_PROFILE
10
-214.4822
20
39.9307
30
0.0
0
VERTEX
8
RING_PROFILE
10
-214.4912
20
39.9497
30
0.0
0
VERTEX
8
RING_PROFILE
10
-214.4959
20
39.9600
30
0.0
0
VERTEX
8
RING_PROFILE
10
-214.7349
20
40.4046
30
0.0
0
VERTEX
8
RING_PROFILE
10
-214.9732
20
40.7334
30
0.0
0
VERTEX
8
RING_PROFILE
10
-215.1916
20
40.9823
30
0.0
0
VERTEX
8
RING_PROFILE
10
-215.5229
20
41.3302
30
0.0
0
VERTEX
8
RING_PROFILE
10
-215.8777
20
41.6841
30
0.0
0
VERTEX
8
RING_PROFILE
10
-216.2553
20
42.0475
30
0.0
0
VERTEX
8
RING_PROFILE
10
-216.6708
20
42.4451
30
0.0
0
VERTEX
8
RING_PROFILE
10
-217.0692
20
42.8266
30
0.0
0
VERTEX
8
RING_PROFILE
10
-217.4869
20
43.2254
30
0.0
0
VERTEX
8
RING_PROFILE
10
-217.8867
20
43.6072
30
0.0
0
VERTEX
8
RING_PROFILE
10
-218.3043
20
44.0059
30
0.0
0
VERTEX
8
RING_PROFILE
10
-218.7031
20
44.3857
30
0.0
0
VERTEX
8
RING_PROFILE
10
-218.7159
20
44.3980
30
0.0
0
VERTEX
8
RING_PROFILE
10
-219.1309
20
44.7980
30
0.0
0
VERTEX
8
RING_PROFILE
10
-219.1756
20
44.8420
30
0.0
0
VERTEX
8
RING_PROFILE
10
-219.5756
20
45.2440
30
0.0
0
VERTEX
8
RING_PROFILE
10
-219.6844
20
45.3593
30
0.0
0
VERTEX
8
RING_PROFILE
10
-220.0424
20
45.7593
30
0.0
0
VERTEX
8
RING_PROFILE
10
-220.1195
20
45.8489
30
0.0
0
VERTEX
8
RING_PROFILE
10
-220.5195
20
46.3329
30
0.0
0
VERTEX
8
RING_PROFILE
10
-220.5610
20
46.3843
30
0.0
0
VERTEX
8
RING_PROFILE
10
-220.8770
20
46.7843
30
0.0
0
VERTEX
8
RING_PROFILE
10
-220.8802
20
46.7883
30
0.0
0
VERTEX
8
RING_PROFILE
10
-221.3032
20
47.3256
30
0.0
0
VERTEX
8
RING_PROFILE
10
-221.3260
20
47.3540
30
0.0
0
VERTEX
8
RING_PROFILE
10
-221.3496
20
47.3836
30
0.0
0
VERTEX
8
RING_PROFILE
10
-221.8296
20
47.9956
30
0.0
0
VERTEX
8
RING_PROFILE
10
-221.8328
20
47.9998
30
0.0
0
VERTEX
8
RING_PROFILE
10
-221.9450
20
48.1433
30
0.0
0
VERTEX
8
RING_PROFILE
10
-221.9581
20
48.1599
30
0.0
0
VERTEX
8
RING_PROFILE
10
-221.9672
20
48.1714
30
0.0
0
VERTEX
8
RING_PROFILE
10
-222.5400
20
48.9023
30
0.0
0
VERTEX
8
RING_PROFILE
10
-222.5758
20
48.9472
30
0.0
0
VERTEX
8
RING_PROFILE
10
-222.5897
20
48.9648
30
0.0
0
VERTEX
8
RING_PROFILE
10
-223.0252
20
49.5202
30
0.0
0
VERTEX
8
RING_PROFILE
10
-223.3386
20
49.9193
30
0.0
0
VERTEX
8
RING_PROFILE
10
-223.7884
20
50.4921
30
0.0
0
VERTEX
8
RING_PROFILE
10
-223.7947
20
50.5002
30
0.0
0
VERTEX
8
RING_PROFILE
10
-223.8774
20
50.6063
30
0.0
0
VERTEX
8
RING_PROFILE
10
-224.3035
20
51.1499
30
0.0
0
VERTEX
8
RING_PROFILE
10
-224.4018
20
51.2734
30
0.0
0
VERTEX
8
RING_PROFILE
10
-224.4330
20
51.3133
30
0.0
0
VERTEX
8
RING_PROFILE
10
-224.4886
20
51.3857
30
0.0
0
VERTEX
8
RING_PROFILE
10
-224.8179
20
51.8072
30
0.0
0
VERTEX
8
RING_PROFILE
10
-225.0705
20
52.1290
30
0.0
0
VERTEX
8
RING_PROFILE
10
-225.1176
20
52.1888
30
0.0
0
VERTEX
8
RING_PROFILE
10
-225.1600
20
52.2440
30
0.0
0
VERTEX
8
RING_PROFILE
10
-225.2380
20
52.3480
30
0.0
0
VERTEX
8
RING_PROFILE
10
-225.2704
20
52.3920
30
0.0
0
VERTEX
8
RING_PROFILE
10
-225.7144
20
53.0070
30
0.0
0
VERTEX
8
RING_PROFILE
10
-225.7863
20
53.1112
30
0.0
0
VERTEX
8
RING_PROFILE
10
-225.8483
20
53.2052
30
0.0
0
VERTEX
8
RING_PROFILE
10
-225.9509
20
53.3723
30
0.0
0
VERTEX
8
RING_PROFILE
10
-226.3769
20
54.1203
30
0.0
0
VERTEX
8
RING_PROFILE
10
-226.3925
20
54.1481
30
0.0
0
VERTEX
8
RING_PROFILE
10
-226.3975
20
54.1571
30
0.0
0
VERTEX
8
RING_PROFILE
10
-226.4325
20
54.2220
30
0.0
0
VERTEX
8
RING_PROFILE
10
-226.4435
20
54.2430
30
0.0
0
VERTEX
8
RING_PROFILE
10
-226.4464
20
54.2486
30
0.0
0
VERTEX
8
RING_PROFILE
10
-226.8414
20
55.0066
30
0.0
0
VERTEX
8
RING_PROFILE
10
-226.8560
20
55.0351
30
0.0
0
VERTEX
8
RING_PROFILE
10
-227.1253
20
55.5495
30
0.0
0
VERTEX
8
RING_PROFILE
10
-227.2613
20
55.8095
30
0.0
0
VERTEX
8
RING_PROFILE
10
-227.2696
20
55.8256
30
0.0
0
VERTEX
8
RING_PROFILE
10
-227.6676
20
56.5872
30
0.0
0
VERTEX
8
RING_PROFILE
10
-227.6781
20
56.6076
30
0.0
0
VERTEX
8
RING_PROFILE
10
-228.0846
20
57.3758
30
0.0
0
VERTEX
8
RING_PROFILE
10
-228.1017
20
57.4086
30
0.0
0
VERTEX
8
RING_PROFILE
10
-228.1149
20
57.4343
30
0.0
0
VERTEX
8
RING_PROFILE
10
-228.4760
20
58.1230
30
0.0
0
VERTEX
8
RING_PROFILE
10
-228.4951
20
58.1601
30
0.0
0
VERTEX
8
RING_PROFILE
10
-228.5238
20
58.2168
30
0.0
0
VERTEX
8
RING_PROFILE
10
-228.9183
20
58.9696
30
0.0
0
VERTEX
8
RING_PROFILE
10
-228.9525
20
59.0369
30
0.0
0
VERTEX
8
RING_PROFILE
10
-228.9842
20
59.1013
30
0.0
0
VERTEX
8
RING_PROFILE
10
-229.2959
20
59.7337
30
0.0
0
VERTEX
8
RING_PROFILE
10
-229.4089
20
59.9933
30
0.0
0
VERTEX
8
RING_PROFILE
10
-229.4439
20
60.0853
30
0.0
0
VERTEX
8
RING_PROFILE
10
-229.4532
20
60.1140
30
0.0
0
VERTEX
8
RING_PROFILE
10
-229.7431
20
60.7411
30
0.0
0
VERTEX
8
RING_PROFILE
10
-229.8153
20
60.9108
30
0.0
0
VERTEX
8
RING_PROFILE
10
-229.8972
20
61.1211
30
0.0
0
VERTEX
8
RING_PROFILE
10
-230.0131
20
61.3208
30
0.0
0
VERTEX
8
RING_PROFILE
10
-230.1840
20
61.6645
30
0.0
0
VERTEX
8
RING_PROFILE
10
-230.5090
20
62.4385
30
0.0
0
VERTEX
8
RING_PROFILE
10
-230.5939
20
62.6659
30
0.0
0
VERTEX
8
RING_PROFILE
10
-230.6600
20
62.8994
30
0.0
0
VERTEX
8
RING_PROFILE
10
-230.7594
20
63.3132
30
0.0
0
VERTEX
8
RING_PROFILE
10
-230.7782
20
63.3565
30
0.0
0
VERTEX
8
RING_PROFILE
10
-230.8643
20
63.6197
30
0.0
0
VERTEX
8
RING_PROFILE
10
-230.8765
20
63.6638
30
0.0
0
VERTEX
8
RING_PROFILE
10
-230.9338
20
63.8014
30
0.0
0
VERTEX
8
RING_PROFILE
10
-231.0337
20
64.0794
30
0.0
0
VERTEX
8
RING_PROFILE
10
-231.0657
20
64.1844
30
0.0
0
VERTEX
8
RING_PROFILE
10
-231.0703
20
64.2031
30
0.0
0
VERTEX
8
RING_PROFILE
10
-231.3413
20
64.8681
30
0.0
0
VERTEX
8
RING_PROFILE
10
-231.4246
20
65.0994
30
0.0
0
VERTEX
8
RING_PROFILE
10
-231.4888
20
65.3368
30
0.0
0
VERTEX
8
RING_PROFILE
10
-231.5816
20
65.7465
30
0.0
0
VERTEX
8
RING_PROFILE
10
-231.5994
20
65.7888
30
0.0
0
VERTEX
8
RING_PROFILE
10
-231.6796
20
66.0405
30
0.0
0
VERTEX
8
RING_PROFILE
10
-231.6844
20
66.0583
30
0.0
0
VERTEX
8
RING_PROFILE
10
-231.7311
20
66.1709
30
0.0
0
VERTEX
8
RING_PROFILE
10
-231.8244
20
66.4295
30
0.0
0
VERTEX
8
RING_PROFILE
10
-231.8489
20
66.5086
30
0.0
0
VERTEX
8
RING_PROFILE
10
-232.1389
20
67.1277
30
0.0
0
VERTEX
8
RING_PROFILE
10
-232.2419
20
67.3763
30
0.0
0
VERTEX
8
RING_PROFILE
10
-232.3699
20
67.7289
30
0.0
0
VERTEX
8
RING_PROFILE
10
-232.5054
20
68.0350
30
0.0
0
VERTEX
8
RING_PROFILE
10
-232.5389
20
68.1138
30
0.0
0
VERTEX
8
RING_PROFILE
10
-232.8459
20
68.8648
30
0.0
0
VERTEX
8
RING_PROFILE
10
-232.8913
20
68.9830
30
0.0
0
VERTEX
8
RING_PROFILE
10
-233.1403
20
69.6740
30
0.0
0
VERTEX
8
RING_PROFILE
10
-233.1515
20
69.7054
30
0.0
0
VERTEX
8
RING_PROFILE
10
-233.1755
20
69.7744
30
0.0
0
VERTEX
8
RING_PROFILE
10
-233.1806
20
69.7893
30
0.0
0
VERTEX
8
RING_PROFILE
10
-233.4186
20
70.4853
30
0.0
0
VERTEX
8
RING_PROFILE
10
-233.4285
20
70.5146
30
0.0
0
VERTEX
8
RING_PROFILE
10
-233.4675
20
70.6326
30
0.0
0
VERTEX
8
RING_PROFILE
10
-233.5294
20
70.8464
30
0.0
0
VERTEX
8
RING_PROFILE
10
-233.5374
20
70.8781
30
0.0
0
VERTEX
8
RING_PROFILE
10
-233.7370
20
71.6319
30
0.0
0
VERTEX
8
RING_PROFILE
10
-233.7939
20
71.8933
30
0.0
0
VERTEX
8
RING_PROFILE
10
-233.9229
20
72.6461
30
0.0
0
VERTEX
8
RING_PROFILE
10
-233.9313
20
72.6900
30
0.0
0
VERTEX
8
RING_PROFILE
10
-233.9525
20
72.8148
30
0.0
0
VERTEX
8
RING_PROFILE
10
-234.0063
20
73.1769
30
0.0
0
VERTEX
8
RING_PROFILE
10
-234.0622
20
73.5509
30
0.0
0
VERTEX
8
RING_PROFILE
10
-234.0994
20
73.7936
30
0.0
0
VERTEX
8
RING_PROFILE
10
-234.0999
20
73.7967
30
0.0
0
VERTEX
8
RING_PROFILE
10
-234.1828
20
74.3415
30
0.0
0
VERTEX
8
RING_PROFILE
10
-234.2914
20
75.0327
30
0.0
0
VERTEX
8
RING_PROFILE
10
-234.3131
20
75.1700
30
0.0
0
VERTEX
8
RING_PROFILE
10
-234.3161
20
75.1896
30
0.0
0
VERTEX
8
RING_PROFILE
10
-234.3188
20
75.2073
30
0.0
0
VERTEX
8
RING_PROFILE
10
-234.4340
20
75.9176
30
0.0
0
VERTEX
8
RING_PROFILE
10
-234.5640
20
76.7116
30
0.0
0
VERTEX
8
RING_PROFILE
10
-234.6901
20
77.4703
30
0.0
0
VERTEX
8
RING_PROFILE
10
-234.7861
20
77.9686
30
0.0
0
VERTEX
8
RING_PROFILE
10
-234.8998
20
78.2929
30
0.0
0
VERTEX
8
RING_PROFILE
10
-234.9800
20
78.4190
30
0.0
0
VERTEX
8
RING_PROFILE
10
-235.1683
20
78.6248
30
0.0
0
VERTEX
8
RING_PROFILE
10
-235.3627
20
78.8602
30
0.0
0
VERTEX
8
RING_PROFILE
10
-235.5321
20
79.1142
30
0.0
0
VERTEX
8
RING_PROFILE
10
-235.6748
20
79.3841
30
0.0
0
VERTEX
8
RING_PROFILE
10
-235.9308
20
79.9341
30
0.0
0
VERTEX
8
RING_PROFILE
10
-236.0432
20
80.2108
30
0.0
0
VERTEX
8
RING_PROFILE
10
-236.1276
20
80.4974
30
0.0
0
VERTEX
8
RING_PROFILE
10
-236.1830
20
80.7909
30
0.0
0
VERTEX
8
RING_PROFILE
10
-236.2089
20
81.0885
30
0.0
0
VERTEX
8
RING_PROFILE
10
-236.2052
20
81.3871
30
0.0
0
VERTEX
8
RING_PROFILE
10
-236.1552
20
82.1871
30
0.0
0
VERTEX
8
RING_PROFILE
10
-236.1171
20
82.5111
30
0.0
0
VERTEX
8
RING_PROFILE
10
-236.0442
20
82.8290
30
0.0
0
VERTEX
8
RING_PROFILE
10
-235.9371
20
83.1371
30
0.0
0
VERTEX
8
RING_PROFILE
10
-235.6811
20
83.7621
30
0.0
0
VERTEX
8
RING_PROFILE
10
-235.6382
20
83.8618
30
0.0
0
VERTEX
8
RING_PROFILE
10
-235.5344
20
84.0911
30
0.0
0
VERTEX
8
RING_PROFILE
10
-235.4878
20
84.2416
30
0.0
0
VERTEX
8
RING_PROFILE
10
-235.4420
20
84.5942
30
0.0
0
VERTEX
8
RING_PROFILE
10
-235.4420
20
85.1944
30
0.0
0
VERTEX
8
RING_PROFILE
10
-235.4450
20
85.9888
30
0.0
0
VERTEX
8
RING_PROFILE
10
-235.4450
20
86.0000
30
0.0
0
VERTEX
8
RING_PROFILE
10
-235.4450
20
86.8000
30
0.0
0
VERTEX
8
RING_PROFILE
10
-235.4450
20
86.8037
30
0.0
0
VERTEX
8
RING_PROFILE
10
-235.4441
20
87.5606
30
0.0
0
VERTEX
8
RING_PROFILE
10
-235.4578
20
88.0607
30
0.0
0
VERTEX
8
RING_PROFILE
10
-235.5115
20
88.3280
30
0.0
0
VERTEX
8
RING_PROFILE
10
-235.5755
20
88.4522
30
0.0
0
VERTEX
8
RING_PROFILE
10
-235.6393
20
88.5590
30
0.0
0
VERTEX
8
RING_PROFILE
10
-235.7510
20
88.7880
30
0.0
0
VERTEX
8
RING_PROFILE
10
-235.8428
20
89.0257
30
0.0
0
VERTEX
8
RING_PROFILE
10
-236.1178
20
89.8387
30
0.0
0
VERTEX
8
RING_PROFILE
10
-236.1938
20
90.1027
30
0.0
0
VERTEX
8
RING_PROFILE
10
-236.2454
20
90.3726
30
0.0
0
VERTEX
8
RING_PROFILE
10
-236.2720
20
90.6460
30
0.0
0
VERTEX
8
RING_PROFILE
10
-236.2736
20
90.9208
30
0.0
0
VERTEX
8
RING_PROFILE
10
-236.2499
20
91.1945
30
0.0
0
VERTEX
8
RING_PROFILE
10
-236.2014
20
91.4649
30
0.0
0
VERTEX
8
RING_PROFILE
10
-236.1283
20
91.7297
30
0.0
0
VERTEX
8
RING_PROFILE
10
-235.8483
20
92.5887
30
0.0
0
VERTEX
8
RING_PROFILE
10
-235.7520
20
92.8440
30
0.0
0
VERTEX
8
RING_PROFILE
10
-235.6330
20
93.0895
30
0.0
0
VERTEX
8
RING_PROFILE
10
-235.5973
20
93.1487
30
0.0
0
VERTEX
8
RING_PROFILE
10
-235.5981
20
93.1492
30
0.0
0
SEQEND
0
ENDSEC
0
EOF
