0
SECTION
2
HEADER
9
$ACADVER
1
AC1009
9
$INSUNITS
70
4
0
ENDSEC
0
SECTION
2
ENTITIES
0
POLYLINE
8
RING_PROFILE
66
1
70
1
0
VERTEX
8
RING_PROFILE
10
-168.2500
20
0.0473
30
0.0
0
VERTEX
8
RING_PROFILE
10
-168.2500
20
6.0000
30
0.0
0
VERTEX
8
RING_PROFILE
10
-171.7500
20
6.0000
30
0.0
0
VERTEX
8
RING_PROFILE
10
-171.7500
20
0.0506
30
0.0
0
VERTEX
8
RING_PROFILE
10
-222.5028
20
0.0980
30
0.0
0
VERTEX
8
RING_PROFILE
10
-222.7838
20
0.1115
30
0.0
0
VERTEX
8
RING_PROFILE
10
-223.0624
20
0.1512
30
0.0
0
VERTEX
8
RING_PROFILE
10
-223.1934
20
0.1762
30
0.0
0
VERTEX
8
RING_PROFILE
10
-223.4702
20
0.2428
30
0.0
0
VERTEX
8
RING_PROFILE
10
-223.7395
20
0.3353
30
0.0
0
VERTEX
8
RING_PROFILE
10
-223.9989
20
0.4530
30
0.0
0
VERTEX
8
RING_PROFILE
10
-224.2459
20
0.5947
30
0.0
0
VERTEX
8
RING_PROFILE
10
-224.4783
20
0.7592
30
0.0
0
VERTEX
8
RING_PROFILE
10
-224.6941
20
0.9450
30
0.0
0
VERTEX
8
RING_PROFILE
10
-252.5221
20
27.3050
30
0.0
0
VERTEX
8
RING_PROFILE
10
-252.7437
20
27.5388
30
0.0
0
VERTEX
8
RING_PROFILE
10
-252.9390
20
27.7950
30
0.0
0
VERTEX
8
RING_PROFILE
10
-253.1057
20
28.0706
30
0.0
0
VERTEX
8
RING_PROFILE
10
-253.2419
20
28.3625
30
0.0
0
VERTEX
8
RING_PROFILE
10
-257.3829
20
38.6475
30
0.0
0
VERTEX
8
RING_PROFILE
10
-257.4772
20
38.9186
30
0.0
0
VERTEX
8
RING_PROFILE
10
-257.5452
20
39.1973
30
0.0
0
VERTEX
8
RING_PROFILE
10
-257.5863
20
39.4814
30
0.0
0
VERTEX
8
RING_PROFILE
10
-257.6000
20
39.7680
30
0.0
0
VERTEX
8
RING_PROFILE
10
-257.6000
20
90.3350
30
0.0
0
VERTEX
8
RING_PROFILE
10
-257.5845
20
90.6395
30
0.0
0
VERTEX
8
RING_PROFILE
10
-257.5382
20
90.9408
30
0.0
0
VERTEX
8
RING_PROFILE
10
-257.4615
20
91.2359
30
0.0
0
VERTEX
8
RING_PROFILE
10
-257.3553
20
91.5217
30
0.0
0
VERTEX
8
RING_PROFILE
10
-257.2206
20
91.7952
30
0.0
0
VERTEX
8
RING_PROFILE
10
-233.0656
20
135.1452
30
0.0
0
VERTEX
8
RING_PROFILE
10
-232.8423
20
135.5458
30
0.0
0
VERTEX
8
RING_PROFILE
10
-232.8103
20
135.6018
30
0.0
0
VERTEX
8
RING_PROFILE
10
-232.3913
20
136.3168
30
0.0
0
VERTEX
8
RING_PROFILE
10
-232.3785
20
136.3384
30
0.0
0
VERTEX
8
RING_PROFILE
10
-232.1575
20
136.7084
30
0.0
0
VERTEX
8
RING_PROFILE
10
-232.1271
20
136.7583
30
0.0
0
VERTEX
8
RING_PROFILE
10
-231.8781
20
137.1573
30
0.0
0
VERTEX
8
RING_PROFILE
10
-231.8655
20
137.1772
30
0.0
0
VERTEX
8
RING_PROFILE
10
-231.6915
20
137.4512
30
0.0
0
VERTEX
8
RING_PROFILE
10
-231.4636
20
137.8097
30
0.0
0
VERTEX
8
RING_PROFILE
10
-231.4099
20
137.8912
30
0.0
0
VERTEX
8
RING_PROFILE
10
-231.1369
20
138.2912
30
0.0
0
VERTEX
8
RING_PROFILE
10
-231.0790
20
138.3730
30
0.0
0
VERTEX
8
RING_PROFILE
10
-230.6570
20
138.9490
30
0.0
0
VERTEX
8
RING_PROFILE
10
-230.6323
20
138.9822
30
0.0
0
VERTEX
8
RING_PROFILE
10
-230.3533
20
139.3522
30
0.0
0
VERTEX
8
RING_PROFILE
10
-230.3260
20
139.3879
30
0.0
0
VERTEX
8
RING_PROFILE
10
-229.1040
20
140.9589
30
0.0
0
VERTEX
8
RING_PROFILE
10
-229.0948
20
140.9707
30
0.0
0
VERTEX
8
RING_PROFILE
10
-228.7388
20
141.4237
30
0.0
0
VERTEX
8
RING_PROFILE
10
-228.7216
20
141.4453
30
0.0
0
VERTEX
8
RING_PROFILE
10
-228.3596
20
141.8973
30
0.0
0
VERTEX
8
RING_PROFILE
10
-228.3253
20
141.9394
30
0.0
0
VERTEX
8
RING_PROFILE
10
-227.9613
20
142.3774
30
0.0
0
VERTEX
8
RING_PROFILE
10
-227.9229
20
142.4226
30
0.0
0
VERTEX
8
RING_PROFILE
10
-227.7499
20
142.6226
30
0.0
0
VERTEX
8
RING_PROFILE
10
-227.7054
20
142.6730
30
0.0
0
VERTEX
8
RING_PROFILE
10
-227.5054
20
142.8940
30
0.0
0
VERTEX
8
RING_PROFILE
10
-227.4385
20
142.9655
30
0.0
0
VERTEX
8
RING_PROFILE
10
-227.2385
20
143.1725
30
0.0
0
VERTEX
8
RING_PROFILE
10
-227.2236
20
143.1878
30
0.0
0
VERTEX
8
RING_PROFILE
10
-227.0276
20
143.3878
30
0.0
0
VERTEX
8
RING_PROFILE
10
-226.9800
20
143.4353
30
0.0
0
VERTEX
8
RING_PROFILE
10
-226.7750
20
143.6353
30
0.0
0
VERTEX
8
RING_PROFILE
10
-226.7591
20
143.6507
30
0.0
0
VERTEX
8
RING_PROFILE
10
-225.1281
20
145.2187
30
0.0
0
VERTEX
8
RING_PROFILE
10
-225.0435
20
145.2970
30
0.0
0
VERTEX
8
RING_PROFILE
10
-224.8435
20
145.4750
30
0.0
0
VERTEX
8
RING_PROFILE
10
-224.7986
20
145.5142
30
0.0
0
VERTEX
8
RING_PROFILE
10
-224.5986
20
145.6852
30
0.0
0
VERTEX
8
RING_PROFILE
10
-224.4927
20
145.7716
30
0.0
0
VERTEX
8
RING_PROFILE
10
-224.2347
20
145.9726
30
0.0
0
VERTEX
8
RING_PROFILE
10
-224.1414
20
146.0424
30
0.0
0
VERTEX
8
RING_PROFILE
10
-223.8644
20
146.2414
30
0.0
0
VERTEX
8
RING_PROFILE
10
-223.8589
20
146.2454
30
0.0
0
VERTEX
8
RING_PROFILE
10
-223.6589
20
146.3884
30
0.0
0
VERTEX
8
RING_PROFILE
10
-223.5401
20
146.4691
30
0.0
0
VERTEX
8
RING_PROFILE
10
-223.3401
20
146.5981
30
0.0
0
VERTEX
8
RING_PROFILE
10
-223.3258
20
146.6072
30
0.0
0
VERTEX
8
RING_PROFILE
10
-223.0558
20
146.7792
30
0.0
0
VERTEX
8
RING_PROFILE
10
-222.9921
20
146.8187
30
0.0
0
VERTEX
8
RING_PROFILE
10
-222.7481
20
146.9657
30
0.0
0
VERTEX
8
RING_PROFILE
10
-222.7066
20
146.9902
30
0.0
0
VERTEX
8
RING_PROFILE
10
-222.4466
20
147.1412
30
0.0
0
VERTEX
8
RING_PROFILE
10
-222.3535
20
147.1931
30
0.0
0
VERTEX
8
RING_PROFILE
10
-222.0315
20
147.3651
30
0.0
0
VERTEX
8
RING_PROFILE
10
-222.0132
20
147.3748
30
0.0
0
VERTEX
8
RING_PROFILE
10
-212.6592
20
152.2888
30
0.0
0
VERTEX
8
RING_PROFILE
10
-212.4881
20
152.3719
30
0.0
0
VERTEX
8
RING_PROFILE
10
-212.0451
20
152.5699
30
0.0
0
VERTEX
8
RING_PROFILE
10
-212.0172
20
152.5822
30
0.0
0
VERTEX
8
RING_PROFILE
10
-210.3682
20
153.2992
30
0.0
0
VERTEX
8
RING_PROFILE
10
-210.3545
20
153.3051
30
0.0
0
VERTEX
8
RING_PROFILE
10
-209.9115
20
153.4951
30
0.0
0
VERTEX
8
RING_PROFILE
10
-209.8326
20
153.5276
30
0.0
0
VERTEX
8
RING_PROFILE
10
-209.4686
20
153.6716
30
0.0
0
VERTEX
8
RING_PROFILE
10
-209.3355
20
153.7207
30
0.0
0
VERTEX
8
RING_PROFILE
10
-208.9845
20
153.8407
30
0.0
0
VERTEX
8
RING_PROFILE
10
-208.8677
20
153.8780
30
0.0
0
VERTEX
8
RING_PROFILE
10
-208.5207
20
153.9810
30
0.0
0
VERTEX
8
RING_PROFILE
10
-208.4363
20
154.0047
30
0.0
0
VERTEX
8
RING_PROFILE
10
-199.7823
20
156.3007
30
0.0
0
VERTEX
8
RING_PROFILE
10
-195.9746
20
157.3099
30
0.0
0
VERTEX
8
RING_PROFILE
10
-195.9705
20
157.3109
30
0.0
0
VERTEX
8
RING_PROFILE
10
-195.5645
20
157.4179
30
0.0
0
VERTEX
8
RING_PROFILE
10
-195.5535
20
157.4208
30
0.0
0
VERTEX
8
RING_PROFILE
10
-194.7365
20
157.6328
30
0.0
0
VERTEX
8
RING_PROFILE
10
-194.7188
20
157.6374
30
0.0
0
VERTEX
8
RING_PROFILE
10
-193.9718
20
157.8264
30
0.0
0
VERTEX
8
RING_PROFILE
10
-193.9562
20
157.8303
30
0.0
0
VERTEX
8
RING_PROFILE
10
-193.2202
20
158.0123
30
0.0
0
VERTEX
8
RING_PROFILE
10
-193.2126
20
158.0141
30
0.0
0
VERTEX
8
RING_PROFILE
10
-192.7546
20
158.1261
30
0.0
0
VERTEX
8
RING_PROFILE
10
-192.3121
20
158.2343
30
0.0
0
VERTEX
8
RING_PROFILE
10
-192.3066
20
158.2356
30
0.0
0
VERTEX
8
RING_PROFILE
10
-191.4896
20
158.4336
30
0.0
0
VERTEX
8
RING_PROFILE
10
-191.4066
20
158.4525
30
0.0
0
VERTEX
8
RING_PROFILE
10
-190.6396
20
158.6155
30
0.0
0
VERTEX
8
RING_PROFILE
10
-190.5374
20
158.6354
30
0.0
0
VERTEX
8
RING_PROFILE
10
-189.7214
20
158.7794
30
0.0
0
VERTEX
8
RING_PROFILE
10
-189.7021
20
158.7827
30
0.0
0
VERTEX
8
RING_PROFILE
10
-188.2411
20
159.0307
30
0.0
0
VERTEX
8
RING_PROFILE
10
-188.0782
20
159.0582
30
0.0
0
VERTEX
8
RING_PROFILE
10
-187.8295
20
159.0895
30
0.0
0
VERTEX
8
RING_PROFILE
10
-187.5790
20
159.1000
30
0.0
0
VERTEX
8
RING_PROFILE
10
-151.7430
20
159.1000
30
0.0
0
VERTEX
8
RING_PROFILE
10
-151.4259
20
159.0832
30
0.0
0
VERTEX
8
RING_PROFILE
10
-151.1123
20
159.0330
30
0.0
0
VERTEX
8
RING_PROFILE
10
-148.5593
20
158.4840
30
0.0
0
VERTEX
8
RING_PROFILE
10
-148.1360
20
158.3929
30
0.0
0
VERTEX
8
RING_PROFILE
10
-148.1294
20
158.3915
30
0.0
0
VERTEX
8
RING_PROFILE
10
-106.5524
20
149.3485
30
0.0
0
VERTEX
8
RING_PROFILE
10
-106.2726
20
149.2733
30
0.0
0
VERTEX
8
RING_PROFILE
10
-106.0014
20
149.1715
30
0.0
0
VERTEX
8
RING_PROFILE
10
-105.7412
20
149.0440
30
0.0
0
VERTEX
8
RING_PROFILE
10
-105.4946
20
148.8920
30
0.0
0
VERTEX
8
RING_PROFILE
10
-105.2637
20
148.7169
30
0.0
0
VERTEX
8
RING_PROFILE
10
-105.0509
20
148.5203
30
0.0
0
VERTEX
8
RING_PROFILE
10
-104.8579
20
148.3042
30
0.0
0
VERTEX
8
RING_PROFILE
10
-104.6868
20
148.0704
30
0.0
0
VERTEX
8
RING_PROFILE
10
-104.5390
20
147.8213
30
0.0
0
VERTEX
8
RING_PROFILE
10
-104.4159
20
147.5590
30
0.0
0
VERTEX
8
RING_PROFILE
10
-81.3259
20
91.4680
30
0.0
0
VERTEX
8
RING_PROFILE
10
-81.2278
20
91.1921
30
0.0
0
VERTEX
8
RING_PROFILE
10
-81.1570
20
90.9081
30
0.0
0
VERTEX
8
RING_PROFILE
10
-81.1143
20
90.6184
30
0.0
0
VERTEX
8
RING_PROFILE
10
-81.1000
20
90.3260
30
0.0
0
VERTEX
8
RING_PROFILE
10
-81.1000
20
38.6800
30
0.0
0
VERTEX
8
RING_PROFILE
10
-81.1114
20
38.4186
30
0.0
0
VERTEX
8
RING_PROFILE
10
-81.1456
20
38.1591
30
0.0
0
VERTEX
8
RING_PROFILE
10
-81.2022
20
37.9036
30
0.0
0
VERTEX
8
RING_PROFILE
10
-81.2809
20
37.6541
30
0.0
0
VERTEX
8
RING_PROFILE
10
-83.5099
20
31.5291
30
0.0
0
VERTEX
8
RING_PROFILE
10
-83.6461
20
31.2126
30
0.0
0
VERTEX
8
RING_PROFILE
10
-83.8177
20
30.9138
30
0.0
0
VERTEX
8
RING_PROFILE
10
-83.9007
20
30.7868
30
0.0
0
VERTEX
8
RING_PROFILE
10
-84.0716
20
30.5512
30
0.0
0
VERTEX
8
RING_PROFILE
10
-84.2644
20
30.3333
30
0.0
0
VERTEX
8
RING_PROFILE
10
-112.9574
20
0.9153
30
0.0
0
VERTEX
8
RING_PROFILE
10
-113.2036
20
0.6895
30
0.0
0
VERTEX
8
RING_PROFILE
10
-113.4734
20
0.4925
30
0.0
0
VERTEX
8
RING_PROFILE
10
-113.7634
20
0.3267
30
0.0
0
VERTEX
8
RING_PROFILE
10
-113.7834
20
0.3167
30
0.0
0
VERTEX
8
RING_PROFILE
10
-114.0376
20
0.2040
30
0.0
0
VERTEX
8
RING_PROFILE
10
-114.3012
20
0.1153
30
0.0
0
VERTEX
8
RING_PROFILE
10
-114.5718
20
0.0514
30
0.0
0
VERTEX
8
RING_PROFILE
10
-114.8472
20
0.0129
30
0.0
0
VERTEX
8
RING_PROFILE
10
-115.1250
20
0.0000
30
0.0
0
VERTEX
8
RING_PROFILE
10
-117.6000
20
0.0000
30
0.0
0
VERTEX
8
RING_PROFILE
10
-168.2500
20
0.0473
30
0.0
0
SEQEND
0
ENDSEC
0
EOF
