%TF.GenerationSoftware,KiCad,Pcbnew,9.0.2+dfsg-1*%
%TF.CreationDate,2026-07-18T19:34:47-04:00*%
%TF.ProjectId,Emma,456d6d61-2e6b-4696-9361-645f70636258,2*%
%TF.SameCoordinates,Original*%
%TF.FileFunction,Other,User*%
%FSLAX46Y46*%
G04 Gerber Fmt 4.6, Leading zero omitted, Abs format (unit mm)*
G04 Created by KiCad (PCBNEW 9.0.2+dfsg-1) date 2026-07-18 19:34:47*
%MOMM*%
%LPD*%
G01*
G04 APERTURE LIST*
%ADD10C,0.050000*%
G04 APERTURE END LIST*
D10*
%TO.C,PGND 10n*%
X128020000Y-116090000D02*
X128940000Y-116090000D01*
X128020000Y-117910000D02*
X128020000Y-116090000D01*
X128940000Y-116090000D02*
X128940000Y-117910000D01*
X128940000Y-117910000D02*
X128020000Y-117910000D01*
%TO.C,SW By*%
X137177836Y-122040000D02*
X138997836Y-122040000D01*
X137177836Y-122960000D02*
X137177836Y-122040000D01*
X138997836Y-122040000D02*
X138997836Y-122960000D01*
X138997836Y-122960000D02*
X137177836Y-122960000D01*
%TO.C,J-ETH*%
X101000000Y-105825000D02*
X104000000Y-105825000D01*
X101000000Y-111425000D02*
X101000000Y-105825000D01*
X104000000Y-105825000D02*
X104000000Y-111425000D01*
X104000000Y-111425000D02*
X101000000Y-111425000D01*
%TO.C,PA By*%
X136070000Y-116540000D02*
X137890000Y-116540000D01*
X136070000Y-117460000D02*
X136070000Y-116540000D01*
X137890000Y-116540000D02*
X137890000Y-117460000D01*
X137890000Y-117460000D02*
X136070000Y-117460000D01*
%TO.C,DAC By*%
X122590000Y-113040000D02*
X124410000Y-113040000D01*
X122590000Y-113960000D02*
X122590000Y-113040000D01*
X124410000Y-113040000D02*
X124410000Y-113960000D01*
X124410000Y-113960000D02*
X122590000Y-113960000D01*
%TO.C,C2 180p*%
X134570000Y-123040000D02*
X136390000Y-123040000D01*
X134570000Y-123960000D02*
X134570000Y-123040000D01*
X136390000Y-123040000D02*
X136390000Y-123960000D01*
X136390000Y-123960000D02*
X134570000Y-123960000D01*
%TO.C,PA Re*%
X136080000Y-120030000D02*
X137940000Y-120030000D01*
X136080000Y-120970000D02*
X136080000Y-120030000D01*
X137940000Y-120030000D02*
X137940000Y-120970000D01*
X137940000Y-120970000D02*
X136080000Y-120970000D01*
%TO.C,TX Bead*%
X109555000Y-108030000D02*
X111415000Y-108030000D01*
X109555000Y-108970000D02*
X109555000Y-108030000D01*
X111415000Y-108030000D02*
X111415000Y-108970000D01*
X111415000Y-108970000D02*
X109555000Y-108970000D01*
%TO.C,PA Cb2*%
X136110000Y-118040000D02*
X137930000Y-118040000D01*
X136110000Y-118960000D02*
X136110000Y-118040000D01*
X137930000Y-118040000D02*
X137930000Y-118960000D01*
X137930000Y-118960000D02*
X136110000Y-118960000D01*
%TO.C,ANT CMC*%
X145800000Y-111800000D02*
X148200000Y-111800000D01*
X148200000Y-113200000D01*
X145800000Y-113200000D01*
X145800000Y-111800000D01*
%TO.C,ANT TVS*%
X146900000Y-120650000D02*
X149000000Y-120650000D01*
X149000000Y-123050000D01*
X146900000Y-123050000D01*
X146900000Y-120650000D01*
%TO.C,+5V Bead*%
X102800000Y-123000000D02*
X106200000Y-123000000D01*
X106200000Y-125000000D01*
X102800000Y-125000000D01*
X102800000Y-123000000D01*
%TO.C,GND X2Y*%
X143862500Y-112050000D02*
X145262500Y-112050000D01*
X145262500Y-112950000D01*
X143862500Y-112950000D01*
X143862500Y-112050000D01*
%TO.C,RSSI Hi*%
X139560000Y-122030000D02*
X141420000Y-122030000D01*
X139560000Y-122970000D02*
X139560000Y-122030000D01*
X141420000Y-122030000D02*
X141420000Y-122970000D01*
X141420000Y-122970000D02*
X139560000Y-122970000D01*
%TO.C,INV1*%
X107900000Y-123700000D02*
X111100000Y-123700000D01*
X107900000Y-126300000D02*
X107900000Y-123700000D01*
X111100000Y-123700000D02*
X111100000Y-126300000D01*
X111100000Y-126300000D02*
X107900000Y-126300000D01*
%TO.C,MUX1*%
X111900000Y-123600000D02*
X111900000Y-126400000D01*
X111900000Y-123600000D02*
X115100000Y-123600000D01*
X111900000Y-126400000D02*
X115100000Y-126400000D01*
X115100000Y-126400000D02*
X115100000Y-123600000D01*
%TO.C,S1*%
X103150000Y-126000000D02*
X106350000Y-126000000D01*
X103150000Y-128000000D02*
X103150000Y-126000000D01*
X106350000Y-126000000D02*
X106350000Y-128000000D01*
X106350000Y-128000000D02*
X103150000Y-128000000D01*
%TO.C,C_INV*%
X115570000Y-107040000D02*
X117390000Y-107040000D01*
X115570000Y-107960000D02*
X115570000Y-107040000D01*
X117390000Y-107040000D02*
X117390000Y-107960000D01*
X117390000Y-107960000D02*
X115570000Y-107960000D01*
%TO.C,C_MUX*%
X122590000Y-126420000D02*
X124410000Y-126420000D01*
X122590000Y-127340000D02*
X122590000Y-126420000D01*
X124410000Y-126420000D02*
X124410000Y-127340000D01*
X124410000Y-127340000D02*
X122590000Y-127340000D01*
%TO.C,R_MODE*%
X115570000Y-124530000D02*
X117430000Y-124530000D01*
X115570000Y-125470000D02*
X115570000Y-124530000D01*
X117430000Y-124530000D02*
X117430000Y-125470000D01*
X117430000Y-125470000D02*
X115570000Y-125470000D01*
%TO.C,UART CMC*%
X105285000Y-109580000D02*
X107685000Y-109580000D01*
X105285000Y-111420000D02*
X105285000Y-109580000D01*
X107685000Y-109580000D02*
X107685000Y-111420000D01*
X107685000Y-111420000D02*
X105285000Y-111420000D01*
%TO.C,UART TVS*%
X104850000Y-112600000D02*
X104850000Y-115400000D01*
X104850000Y-112600000D02*
X108050000Y-112600000D01*
X104850000Y-115400000D02*
X108050000Y-115400000D01*
X108050000Y-115400000D02*
X108050000Y-112600000D01*
%TO.C,RSSI Lo*%
X139570000Y-123530000D02*
X141430000Y-123530000D01*
X139570000Y-124470000D02*
X139570000Y-123530000D01*
X141430000Y-123530000D02*
X141430000Y-124470000D01*
X141430000Y-124470000D02*
X139570000Y-124470000D01*
%TO.C,C3 120p*%
X137110000Y-123540000D02*
X138930000Y-123540000D01*
X137110000Y-124460000D02*
X137110000Y-123540000D01*
X138930000Y-123540000D02*
X138930000Y-124460000D01*
X138930000Y-124460000D02*
X137110000Y-124460000D01*
%TO.C,+3V 10n*%
X128040000Y-121590000D02*
X128960000Y-121590000D01*
X128040000Y-123410000D02*
X128040000Y-121590000D01*
X128960000Y-121590000D02*
X128960000Y-123410000D01*
X128960000Y-123410000D02*
X128040000Y-123410000D01*
%TO.C,LDO By*%
X108070000Y-120040000D02*
X109890000Y-120040000D01*
X108070000Y-120960000D02*
X108070000Y-120040000D01*
X109890000Y-120040000D02*
X109890000Y-120960000D01*
X109890000Y-120960000D02*
X108070000Y-120960000D01*
%TO.C,Th Lo*%
X118570000Y-126030000D02*
X120430000Y-126030000D01*
X118570000Y-126970000D02*
X118570000Y-126030000D01*
X120430000Y-126030000D02*
X120430000Y-126970000D01*
X120430000Y-126970000D02*
X118570000Y-126970000D01*
%TO.C,+3V 100u*%
X116675000Y-119900000D02*
X121275000Y-119900000D01*
X116675000Y-123100000D02*
X116675000Y-119900000D01*
X121275000Y-119900000D02*
X121275000Y-123100000D01*
X121275000Y-123100000D02*
X116675000Y-123100000D01*
%TO.C,T/R Sw*%
X139350000Y-110250000D02*
X139350000Y-113050000D01*
X139350000Y-110250000D02*
X142550000Y-110250000D01*
X139350000Y-113050000D02*
X142550000Y-113050000D01*
X142550000Y-113050000D02*
X142550000Y-110250000D01*
%TO.C,RX Bead*%
X112070000Y-110030000D02*
X113930000Y-110030000D01*
X112070000Y-110970000D02*
X112070000Y-110030000D01*
X113930000Y-110030000D02*
X113930000Y-110970000D01*
X113930000Y-110970000D02*
X112070000Y-110970000D01*
%TO.C,+3V 10u*%
X125520000Y-111750000D02*
X127480000Y-111750000D01*
X125520000Y-115150000D02*
X125520000Y-111750000D01*
X127480000Y-111750000D02*
X127480000Y-115150000D01*
X127480000Y-115150000D02*
X125520000Y-115150000D01*
%TO.C,RX Demod*%
X116950000Y-114500000D02*
X117950000Y-114500000D01*
X116950000Y-117500000D02*
X116950000Y-114500000D01*
X117950000Y-114300000D02*
X120050000Y-114300000D01*
X117950000Y-114500000D02*
X117950000Y-114300000D01*
X117950000Y-117500000D02*
X116950000Y-117500000D01*
X117950000Y-117700000D02*
X117950000Y-117500000D01*
X120050000Y-114300000D02*
X120050000Y-114500000D01*
X120050000Y-114500000D02*
X121050000Y-114500000D01*
X120050000Y-117500000D02*
X120050000Y-117700000D01*
X120050000Y-117700000D02*
X117950000Y-117700000D01*
X121050000Y-114500000D02*
X121050000Y-117500000D01*
X121050000Y-117500000D02*
X120050000Y-117500000D01*
%TO.C,LNA By*%
X139590000Y-120540000D02*
X141410000Y-120540000D01*
X139590000Y-121460000D02*
X139590000Y-120540000D01*
X141410000Y-120540000D02*
X141410000Y-121460000D01*
X141410000Y-121460000D02*
X139590000Y-121460000D01*
%TO.C,TCXO 25M*%
X112550000Y-114800000D02*
X112550000Y-118200000D01*
X112550000Y-114800000D02*
X115450000Y-114800000D01*
X112550000Y-118200000D02*
X115450000Y-118200000D01*
X115450000Y-114800000D02*
X115450000Y-118200000D01*
%TO.C,L2 180n*%
X131750000Y-120650000D02*
X135250000Y-120650000D01*
X131750000Y-122350000D02*
X131750000Y-120650000D01*
X135250000Y-120650000D02*
X135250000Y-122350000D01*
X135250000Y-122350000D02*
X131750000Y-122350000D01*
%TO.C,PA By2*%
X136070000Y-112540000D02*
X137890000Y-112540000D01*
X136070000Y-113460000D02*
X136070000Y-112540000D01*
X137890000Y-112540000D02*
X137890000Y-113460000D01*
X137890000Y-113460000D02*
X136070000Y-113460000D01*
%TO.C,+5V 100u*%
X104200000Y-116400000D02*
X108800000Y-116400000D01*
X104200000Y-119600000D02*
X104200000Y-116400000D01*
X108800000Y-116400000D02*
X108800000Y-119600000D01*
X108800000Y-119600000D02*
X104200000Y-119600000D01*
%TO.C,PB2-P2*%
X149475000Y-133975000D02*
X104475000Y-133975000D01*
X104475000Y-128975000D01*
X149475000Y-128975000D01*
X149475000Y-133975000D01*
G36*
X149475000Y-133975000D02*
G01*
X104475000Y-133975000D01*
X104475000Y-128975000D01*
X149475000Y-128975000D01*
X149475000Y-133975000D01*
G37*
%TO.C,Th Hi*%
X118080000Y-124530000D02*
X119940000Y-124530000D01*
X118080000Y-125470000D02*
X118080000Y-124530000D01*
X119940000Y-124530000D02*
X119940000Y-125470000D01*
X119940000Y-125470000D02*
X118080000Y-125470000D01*
%TO.C,TX DAC*%
X123450000Y-107020000D02*
X124450000Y-107020000D01*
X123450000Y-109980000D02*
X123450000Y-107020000D01*
X124450000Y-106800000D02*
X126550000Y-106800000D01*
X124450000Y-107020000D02*
X124450000Y-106800000D01*
X124450000Y-109980000D02*
X123450000Y-109980000D01*
X124450000Y-110200000D02*
X124450000Y-109980000D01*
X126550000Y-106800000D02*
X126550000Y-107020000D01*
X126550000Y-107020000D02*
X127550000Y-107020000D01*
X126550000Y-109980000D02*
X126550000Y-110200000D01*
X126550000Y-110200000D02*
X124450000Y-110200000D01*
X127550000Y-107020000D02*
X127550000Y-109980000D01*
X127550000Y-109980000D02*
X126550000Y-109980000D01*
%TO.C,U1 ByA*%
X122610000Y-111040000D02*
X124430000Y-111040000D01*
X122610000Y-111960000D02*
X122610000Y-111040000D01*
X124430000Y-111040000D02*
X124430000Y-111960000D01*
X124430000Y-111960000D02*
X122610000Y-111960000D01*
%TO.C,C1 120p*%
X131590000Y-123040000D02*
X133410000Y-123040000D01*
X131590000Y-123960000D02*
X131590000Y-123040000D01*
X133410000Y-123040000D02*
X133410000Y-123960000D01*
X133410000Y-123960000D02*
X131590000Y-123960000D01*
%TO.C,1.2k C*%
X123540000Y-123610000D02*
X124460000Y-123610000D01*
X123540000Y-125430000D02*
X123540000Y-123610000D01*
X124460000Y-123610000D02*
X124460000Y-125430000D01*
X124460000Y-125430000D02*
X123540000Y-125430000D01*
%TO.C,SMA ESD*%
X145200000Y-115850000D02*
X145200000Y-118150000D01*
X145200000Y-115850000D02*
X149600000Y-115850000D01*
X149600000Y-115850000D02*
X149600000Y-118150000D01*
X149600000Y-118150000D02*
X145200000Y-118150000D01*
%TO.C,L3 180n*%
X131750000Y-116650000D02*
X135250000Y-116650000D01*
X131750000Y-118350000D02*
X131750000Y-116650000D01*
X135250000Y-116650000D02*
X135250000Y-118350000D01*
X135250000Y-118350000D02*
X131750000Y-118350000D01*
%TO.C,L1 100n*%
X131750000Y-118650000D02*
X135250000Y-118650000D01*
X131750000Y-120350000D02*
X131750000Y-118650000D01*
X135250000Y-118650000D02*
X135250000Y-120350000D01*
X135250000Y-120350000D02*
X131750000Y-120350000D01*
%TO.C,CMP By*%
X119590000Y-118540000D02*
X121410000Y-118540000D01*
X119590000Y-119460000D02*
X119590000Y-118540000D01*
X121410000Y-118540000D02*
X121410000Y-119460000D01*
X121410000Y-119460000D02*
X119590000Y-119460000D01*
%TO.C,1.2k R*%
X120560000Y-124530000D02*
X122420000Y-124530000D01*
X120560000Y-125470000D02*
X120560000Y-124530000D01*
X122420000Y-124530000D02*
X122420000Y-125470000D01*
X122420000Y-125470000D02*
X120560000Y-125470000D01*
%TO.C,2.2k C*%
X128040000Y-124110000D02*
X128960000Y-124110000D01*
X128040000Y-125930000D02*
X128040000Y-124110000D01*
X128960000Y-124110000D02*
X128960000Y-125930000D01*
X128960000Y-125930000D02*
X128040000Y-125930000D01*
%TO.C,PB2-P1*%
X149475000Y-105975000D02*
X104475000Y-105975000D01*
X104475000Y-100975000D01*
X149475000Y-100975000D01*
X149475000Y-105975000D01*
G36*
X149475000Y-105975000D02*
G01*
X104475000Y-105975000D01*
X104475000Y-100975000D01*
X149475000Y-100975000D01*
X149475000Y-105975000D01*
G37*
%TO.C,49M DDS*%
X115320000Y-109570000D02*
X116750000Y-109570000D01*
X115320000Y-112430000D02*
X115320000Y-109570000D01*
X116750000Y-109250000D02*
X120250000Y-109250000D01*
X116750000Y-109570000D02*
X116750000Y-109250000D01*
X116750000Y-112430000D02*
X115320000Y-112430000D01*
X116750000Y-112750000D02*
X116750000Y-112430000D01*
X120250000Y-109250000D02*
X120250000Y-109570000D01*
X120250000Y-109570000D02*
X121680000Y-109570000D01*
X120250000Y-112430000D02*
X120250000Y-112750000D01*
X120250000Y-112750000D02*
X116750000Y-112750000D01*
X121680000Y-109570000D02*
X121680000Y-112430000D01*
X121680000Y-112430000D02*
X120250000Y-112430000D01*
%TO.C,+3V 100n*%
X128040000Y-119070000D02*
X128960000Y-119070000D01*
X128040000Y-120890000D02*
X128040000Y-119070000D01*
X128960000Y-119070000D02*
X128960000Y-120890000D01*
X128960000Y-120890000D02*
X128040000Y-120890000D01*
%TO.C,2.2k R*%
X125530000Y-124060000D02*
X126470000Y-124060000D01*
X125530000Y-125920000D02*
X125530000Y-124060000D01*
X126470000Y-124060000D02*
X126470000Y-125920000D01*
X126470000Y-125920000D02*
X125530000Y-125920000D01*
%TO.C,+5V 100n*%
X108090000Y-121540000D02*
X109910000Y-121540000D01*
X108090000Y-122460000D02*
X108090000Y-121540000D01*
X109910000Y-121540000D02*
X109910000Y-122460000D01*
X109910000Y-122460000D02*
X108090000Y-122460000D01*
%TO.C,PA Cb1*%
X131570000Y-110540000D02*
X133390000Y-110540000D01*
X131570000Y-111460000D02*
X131570000Y-110540000D01*
X133390000Y-110540000D02*
X133390000Y-111460000D01*
X133390000Y-111460000D02*
X131570000Y-111460000D01*
%TO.C,PA Rc1*%
X134060000Y-110530000D02*
X135920000Y-110530000D01*
X134060000Y-111470000D02*
X134060000Y-110530000D01*
X135920000Y-110530000D02*
X135920000Y-111470000D01*
X135920000Y-111470000D02*
X134060000Y-111470000D01*
%TO.C,PA Drvr*%
X131632500Y-112500000D02*
X132662500Y-112500000D01*
X131632500Y-115500000D02*
X131632500Y-112500000D01*
X132662500Y-112300000D02*
X134462500Y-112300000D01*
X132662500Y-112500000D02*
X132662500Y-112300000D01*
X132662500Y-115500000D02*
X131632500Y-115500000D01*
X132662500Y-115700000D02*
X132662500Y-115500000D01*
X134462500Y-112300000D02*
X134462500Y-113450000D01*
X134462500Y-113450000D02*
X135492500Y-113450000D01*
X134462500Y-114550000D02*
X134462500Y-115700000D01*
X134462500Y-115700000D02*
X132662500Y-115700000D01*
X135492500Y-113450000D02*
X135492500Y-114550000D01*
X135492500Y-114550000D02*
X134462500Y-114550000D01*
%TO.C,LNA*%
X142350000Y-121100000D02*
X142350000Y-123900000D01*
X142350000Y-121100000D02*
X145550000Y-121100000D01*
X142350000Y-123900000D02*
X145550000Y-123900000D01*
X145550000Y-123900000D02*
X145550000Y-121100000D01*
%TO.C,PA Rb2*%
X136080000Y-114530000D02*
X137940000Y-114530000D01*
X136080000Y-115470000D02*
X136080000Y-114530000D01*
X137940000Y-114530000D02*
X137940000Y-115470000D01*
X137940000Y-115470000D02*
X136080000Y-115470000D01*
%TO.C,PA 100mW*%
X139650000Y-119500000D02*
X139650000Y-114500000D01*
X139650000Y-119500000D02*
X144750000Y-119500000D01*
X144750000Y-114500000D02*
X139650000Y-114500000D01*
X144750000Y-114500000D02*
X144750000Y-119500000D01*
%TO.C,LDO 3V3*%
X112087500Y-120000000D02*
X113087500Y-120000000D01*
X112087500Y-123000000D02*
X112087500Y-120000000D01*
X113087500Y-119800000D02*
X115187500Y-119800000D01*
X113087500Y-120000000D02*
X113087500Y-119800000D01*
X113087500Y-123000000D02*
X112087500Y-123000000D01*
X113087500Y-123200000D02*
X113087500Y-123000000D01*
X115187500Y-119800000D02*
X115187500Y-120000000D01*
X115187500Y-120000000D02*
X116187500Y-120000000D01*
X115187500Y-123000000D02*
X115187500Y-123200000D01*
X115187500Y-123200000D02*
X113087500Y-123200000D01*
X116187500Y-120000000D02*
X116187500Y-123000000D01*
X116187500Y-123000000D02*
X115187500Y-123000000D01*
%TO.C,OSC By*%
X112590000Y-108040000D02*
X114410000Y-108040000D01*
X112590000Y-108960000D02*
X112590000Y-108040000D01*
X114410000Y-108040000D02*
X114410000Y-108960000D01*
X114410000Y-108960000D02*
X112590000Y-108960000D01*
%TO.C,PA Rb1*%
X136560000Y-111030000D02*
X138420000Y-111030000D01*
X136560000Y-111970000D02*
X136560000Y-111030000D01*
X138420000Y-111030000D02*
X138420000Y-111970000D01*
X138420000Y-111970000D02*
X136560000Y-111970000D01*
%TO.C,U1 ByB*%
X109070000Y-110040000D02*
X110890000Y-110040000D01*
X109070000Y-110960000D02*
X109070000Y-110040000D01*
X110890000Y-110040000D02*
X110890000Y-110960000D01*
X110890000Y-110960000D02*
X109070000Y-110960000D01*
%TO.C,AFSK Cp*%
X122590000Y-115040000D02*
X124410000Y-115040000D01*
X122590000Y-115960000D02*
X122590000Y-115040000D01*
X124410000Y-115040000D02*
X124410000Y-115960000D01*
X124410000Y-115960000D02*
X122590000Y-115960000D01*
%TO.C,PTT Bead*%
X112070000Y-112530000D02*
X113930000Y-112530000D01*
X112070000Y-113470000D02*
X112070000Y-112530000D01*
X113930000Y-112530000D02*
X113930000Y-113470000D01*
X113930000Y-113470000D02*
X112070000Y-113470000D01*
%TD*%
M02*
