<?xml version="1.0" encoding="UTF-8"?>
<!-- Serenity-Class Tiltrotor UAV — Build Guide — Step 15 — Software -->
<!-- © 2026 Steve Griffing PE(CSE) CISSP-ISSEP CPP  CC BY 4.0 -->
<!-- Hull: Peter Farell CC BY 4.0 | Nozzle: BamJr CC BY 4.0 -->
<!-- Visual: Firefly/Serenity © Joss Whedon/Mutant Enemy/Universal -->
<svg xmlns="http://www.w3.org/2000/svg" viewBox="0 0 1200 900" width="1200" height="900">
<defs>
  <style>
    @import url('https://fonts.cdnfonts.com/css/opendyslexic');
    @media screen {
      text, tspan, .label, .note, .dim {
        font-family: 'OpenDyslexic','OpenDyslexicMono',sans-serif !important;
      }
    }
    @media print {
      svg { background: #ffffff !important; }
      text, tspan { fill: #111111 !important; font-family: 'OpenDyslexic',sans-serif !important; }
      rect[fill^="rgba"], rect[fill^="#0"] { fill: #f5f5f5 !important; }
    }
  </style>
</defs>
<rect width="1200" height="900" fill="#f5f0e8"/>
<rect x="0" y="0" width="1200" height="64" fill="#006db7"/>
<text x="24" y="24" font-family="'OpenDyslexic',sans-serif" font-weight="bold" font-size="14" fill="#ffffff" letter-spacing="2">SERENITY-CLASS TILTROTOR UAV</text>
<text x="24" y="46" font-family="'OpenDyslexic',sans-serif" font-size="11" fill="#c8dff0">Steve Griffing, PE(CSE), CISSP-ISSEP, CPP · CC BY 4.0 · 2026</text>
<rect x="1040" y="8" width="144" height="48" rx="6" fill="#ff7518"/>
<text x="1112" y="29" text-anchor="middle" font-family="'OpenDyslexic',sans-serif" font-weight="bold" font-size="11" fill="#ffffff">STEP</text>
<text x="1112" y="50" text-anchor="middle" font-family="'OpenDyslexic',sans-serif" font-weight="bold" font-size="22" fill="#ffffff">15 / 18</text>
<rect x="0" y="64" width="1200" height="40" fill="#dde4ea" rx="0"/>
<text x="24" y="90" font-family="'OpenDyslexic',sans-serif" font-weight="bold" font-size="16" fill="#006db7">PHASE 7 — SOFTWARE FLASH &amp; CONFIGURE</text>
<text x="500" y="90" font-family="'OpenDyslexic',sans-serif" font-size="12" fill="#607080">Pico 2 firmware · CM4 OS · packages · TPM</text>
<rect x="0" y="872" width="1200" height="28" fill="#006db7"/>
<text x="600" y="890" text-anchor="middle" font-family="'OpenDyslexic',sans-serif" font-size="9" fill="#c8dff0">Hull: Peter Farell CC BY 4.0 · Nozzle: BamJr CC BY 4.0 · Visual inspiration: Firefly/Serenity © Joss Whedon/Mutant Enemy/Universal — Fan engineering work</text>
<rect x="16" y="112" width="720" height="752" rx="8" fill="#fffdf6" stroke="#dde4ea" stroke-width="1.5"/>
<rect x="752" y="112" width="432" height="752" rx="8" fill="#fffdf6" stroke="#dde4ea" stroke-width="1.5"/>
<rect x="760" y="120" width="416" height="114" rx="8" fill="#fffdf6" stroke="#006db7" stroke-width="2"/>
<rect x="760" y="120" width="416" height="28" rx="8" fill="#006db7"/>
<rect x="760" y="136" width="416" height="12" fill="#006db7"/>
<text x="968" y="139" text-anchor="middle" font-family="'OpenDyslexic',sans-serif" font-weight="bold" font-size="11" fill="#ffffff">PARTS NEEDED</text>
<rect x="768" y="145" width="26" height="16" rx="4" fill="#607080" stroke="#222222" stroke-width="1"/>
<text x="781" y="158" text-anchor="middle" font-family="'OpenDyslexic',sans-serif" font-weight="bold" font-size="10" fill="#ffffff">1×</text>
<text x="800" y="158" font-family="'OpenDyslexic',sans-serif" font-size="10" fill="#222222">USB-C cable</text>
<rect x="768" y="167" width="26" height="16" rx="4" fill="#607080" stroke="#222222" stroke-width="1"/>
<text x="781" y="180" text-anchor="middle" font-family="'OpenDyslexic',sans-serif" font-weight="bold" font-size="10" fill="#ffffff">1×</text>
<text x="800" y="180" font-family="'OpenDyslexic',sans-serif" font-size="10" fill="#222222">microSD card reader</text>
<rect x="768" y="189" width="26" height="16" rx="4" fill="#006db7" stroke="#222222" stroke-width="1"/>
<text x="781" y="202" text-anchor="middle" font-family="'OpenDyslexic',sans-serif" font-weight="bold" font-size="10" fill="#ffffff">1×</text>
<text x="800" y="202" font-family="'OpenDyslexic',sans-serif" font-size="10" fill="#222222">rpi-imager (installed on PC)</text>
<rect x="760" y="242" width="416" height="216" rx="8" fill="#fffdf6" stroke="#607080" stroke-width="1.5"/>
<rect x="760" y="242" width="416" height="28" rx="8" fill="#607080"/>
<rect x="760" y="258" width="416" height="12" fill="#607080"/>
<text x="968" y="261" text-anchor="middle" font-family="'OpenDyslexic',sans-serif" font-weight="bold" font-size="11" fill="#ffffff">INSTRUCTIONS</text>
<circle cx="776" cy="277" r="9" fill="#006db7"/>
<text x="776" y="281" text-anchor="middle" font-family="'OpenDyslexic',sans-serif" font-weight="bold" font-size="10" fill="#ffffff">1</text>
<text x="792" y="282" font-family="'OpenDyslexic',sans-serif" font-size="10" fill="#222222">Flash Pico 2: hold BOOTSEL → USB → drag firmware.uf2 to drive</text>
<circle cx="776" cy="301" r="9" fill="#006db7"/>
<text x="776" y="305" text-anchor="middle" font-family="'OpenDyslexic',sans-serif" font-weight="bold" font-size="10" fill="#ffffff">2</text>
<text x="792" y="306" font-family="'OpenDyslexic',sans-serif" font-size="10" fill="#222222">Verify Pico 2: GP25 LED blinks 1Hz = firmware running</text>
<circle cx="776" cy="325" r="9" fill="#006db7"/>
<text x="776" y="329" text-anchor="middle" font-family="'OpenDyslexic',sans-serif" font-weight="bold" font-size="10" fill="#ffffff">3</text>
<text x="792" y="330" font-family="'OpenDyslexic',sans-serif" font-size="10" fill="#222222">Flash CM4 OS μSD: rpi-imager → RPi OS Lite 64-bit (bookworm)</text>
<circle cx="776" cy="349" r="9" fill="#006db7"/>
<text x="776" y="353" text-anchor="middle" font-family="'OpenDyslexic',sans-serif" font-weight="bold" font-size="10" fill="#ffffff">4</text>
<text x="792" y="354" font-family="'OpenDyslexic',sans-serif" font-size="10" fill="#222222">rpi-imager Advanced: set hostname=serenity · enable SSH · set WiFi</text>
<circle cx="776" cy="373" r="9" fill="#006db7"/>
<text x="776" y="377" text-anchor="middle" font-family="'OpenDyslexic',sans-serif" font-weight="bold" font-size="10" fill="#ffffff">5</text>
<text x="792" y="378" font-family="'OpenDyslexic',sans-serif" font-size="10" fill="#222222">Insert OS μSD in CM4-CARRIER-1 slot · boot CM4 · SSH in</text>
<circle cx="776" cy="397" r="9" fill="#006db7"/>
<text x="776" y="401" text-anchor="middle" font-family="'OpenDyslexic',sans-serif" font-weight="bold" font-size="10" fill="#ffffff">6</text>
<text x="792" y="402" font-family="'OpenDyslexic',sans-serif" font-size="10" fill="#222222">Run apt install and pip3 install commands shown below</text>
<circle cx="776" cy="421" r="9" fill="#006db7"/>
<text x="776" y="425" text-anchor="middle" font-family="'OpenDyslexic',sans-serif" font-weight="bold" font-size="10" fill="#ffffff">7</text>
<text x="792" y="426" font-family="'OpenDyslexic',sans-serif" font-size="10" fill="#222222">raspi-config: enable SPI, I2C, SSH, CAN · reboot</text>
<rect x="760" y="470" width="416" height="32" rx="6" fill="#b2ebf2" stroke="#00838f" stroke-width="1.5"/><text x="770" y="484" font-family="'OpenDyslexic',sans-serif" font-weight="bold" font-size="10" fill="#00838f">ℹ</text><text x="786" y="490" font-family="'OpenDyslexic',sans-serif" font-size="9.5" fill="#222222">CM4 boot time to SSH ready: ~25s after power-on</text>
<polygon points="56.0,438.0 194.6,358.0 99.3,303.0 -39.3,383.0"   fill="#e3f2fd"   stroke="#222222" stroke-width="2" stroke-linejoin="round"/>
<polygon points="56.0,428.0 194.6,348.0 194.6,358.0 56.0,438.0" fill="#90caf9" stroke="#222222" stroke-width="2" stroke-linejoin="round"/>
<polygon points="194.6,348.0 99.3,293.0 99.3,303.0 194.6,358.0" fill="#64b5f6" stroke="#222222" stroke-width="2" stroke-linejoin="round"/>
<polygon points="56.0,541.0 229.2,441.0 220.5,436.0 47.3,536.0"   fill="#dde4ea"   stroke="#222222" stroke-width="1.5" stroke-linejoin="round"/>
<polygon points="56.0,538.0 229.2,438.0 229.2,441.0 56.0,541.0" fill="#607080" stroke="#222222" stroke-width="1.5" stroke-linejoin="round"/>
<polygon points="229.2,438.0 220.5,433.0 220.5,436.0 229.2,441.0" fill="#607080" stroke="#222222" stroke-width="1.5" stroke-linejoin="round"/>
<text x="136" y="468" text-anchor="middle" font-family="'OpenDyslexic',sans-serif" font-weight="bold" font-size="11" fill="#006db7">LAPTOP / PC</text>
<text x="136" y="484" text-anchor="middle" font-family="'OpenDyslexic',sans-serif" font-size="9" fill="#607080">KiCad · QGroundControl</text>
<text x="136" y="500" text-anchor="middle" font-family="'OpenDyslexic',sans-serif" font-size="9" fill="#607080">STM32CubeProgrammer</text>
<line x1="221" y1="488" x2="316" y2="448" stroke="#607080" stroke-width="3" stroke-dasharray="6 3"/>
<text x="266" y="458" text-anchor="middle" font-family="'OpenDyslexic',sans-serif" font-size="8" fill="#607080">USB-C</text>
<polygon points="316.0,413.0 360.2,387.5 342.0,377.0 297.8,402.5"   fill="#c8e6c9"   stroke="#222222" stroke-width="2" stroke-linejoin="round"/>
<polygon points="316.0,408.0 360.2,382.5 360.2,387.5 316.0,413.0" fill="#2e7d32" stroke="#222222" stroke-width="2" stroke-linejoin="round"/>
<polygon points="360.2,382.5 342.0,372.0 342.0,377.0 360.2,387.5" fill="#2e7d32" stroke="#222222" stroke-width="2" stroke-linejoin="round"/>
<text x="341" y="423" text-anchor="middle" font-family="'OpenDyslexic',sans-serif" font-weight="bold" font-size="9" fill="#ffffff">PICO 2</text>
<circle cx="366" cy="398" r="18" fill="#ff7518" stroke="#222222" stroke-width="1.5"/>
<text x="366" y="402" text-anchor="middle" font-family="'OpenDyslexic',sans-serif" font-weight="bold" font-size="11" fill="#ffffff">1</text>
<text x="396" y="390" font-family="'OpenDyslexic',sans-serif" font-size="8" fill="#ff7518">Hold BOOTSEL · plug USB</text>
<text x="396" y="402" font-family="'OpenDyslexic',sans-serif" font-size="8" fill="#ff7518">Drag firmware.uf2</text>
<polygon points="436.0,413.0 492.3,380.5 447.3,354.5 391.0,387.0"   fill="#e8f5e9"   stroke="#222222" stroke-width="2" stroke-linejoin="round"/>
<polygon points="436.0,408.0 492.3,375.5 492.3,380.5 436.0,413.0" fill="#2e7d32" stroke="#222222" stroke-width="2" stroke-linejoin="round"/>
<polygon points="492.3,375.5 447.3,349.5 447.3,354.5 492.3,380.5" fill="#2e7d32" stroke="#222222" stroke-width="2" stroke-linejoin="round"/>
<text x="468" y="428" text-anchor="middle" font-family="'OpenDyslexic',sans-serif" font-weight="bold" font-size="9" fill="#ffffff">CM4 Lite</text>
<circle cx="516" cy="398" r="18" fill="#ff7518" stroke="#222222" stroke-width="1.5"/>
<text x="516" y="402" text-anchor="middle" font-family="'OpenDyslexic',sans-serif" font-weight="bold" font-size="11" fill="#ffffff">2</text>
<text x="541" y="390" font-family="'OpenDyslexic',sans-serif" font-size="8" fill="#ff7518">Flash OS μSD with rpi-imager</text>
<text x="541" y="402" font-family="'OpenDyslexic',sans-serif" font-size="8" fill="#ff7518">RPi OS Lite 64-bit bookworm</text>
<rect x="56" y="568" width="700" height="120" rx="6" fill="#1e1e2e" stroke="#006db7" stroke-width="1.5"/>
<text x="66" y="584" font-family="'OpenDyslexic',sans-serif" font-weight="bold" font-size="9" fill="#2e7d32">$ CM4 first-boot commands (SSH in after flash)</text>
<text x="68" y="600" font-family="'OpenDyslexic',sans-serif" font-size="8.5" fill="#2e7d32" >sudo apt install mavlink-router python3-pip tpm2-tools tpm2-tss</text>
<text x="68" y="618" font-family="'OpenDyslexic',sans-serif" font-size="8.5" fill="#f5c518" >pip3 install mavsdk pymavlink python-can dronecan</text>
<text x="68" y="636" font-family="'OpenDyslexic',sans-serif" font-size="8.5" fill="#c8dff0" >sudo raspi-config  # Enable SPI, I2C, SSH, CAN interfaces</text>
<text x="68" y="654" font-family="'OpenDyslexic',sans-serif" font-size="8.5" fill="#e1bee7" >tpm2_getcap properties-fixed  # Verify TPM detected</text>
<text x="68" y="672" font-family="'OpenDyslexic',sans-serif" font-size="8.5" fill="#c8e6c9" >systemctl enable mavlink-router  # Auto-start on boot</text>
</svg>
