<?xml version="1.0" encoding="UTF-8"?>
<svg xmlns="http://www.w3.org/2000/svg" width="1200" height="920" viewBox="0 0 1200 920">
  <defs>
    <style>
      @import url('https://fonts.cdnfonts.com/css/opendyslexic');
      text { font-family: 'OpenDyslexic', 'Arial', sans-serif; }
    </style>
    <marker id="arr" markerWidth="7" markerHeight="7" refX="6" refY="3.5" orient="auto">
      <polygon points="0 0, 7 3.5, 0 7" fill="#444444"/>
    </marker>
    <marker id="arrw" markerWidth="7" markerHeight="7" refX="6" refY="3.5" orient="auto">
      <polygon points="0 0, 7 3.5, 0 7" fill="#c62870"/>
    </marker>
  </defs>

  <!-- Background -->
  <rect width="1200" height="920" fill="#f5f0e8"/>

  <!-- Header -->
  <rect x="0" y="0" width="1200" height="52" fill="#006db7"/>
  <text x="600" y="34" text-anchor="middle" font-size="18" font-weight="bold" fill="#ffffff">SERENITY-CLASS TILTROTOR — BUILD GUIDE</text>

  <!-- Step badge -->
  <rect x="28" y="62" width="78" height="30" rx="4" fill="#006db7"/>
  <text x="67" y="82" text-anchor="middle" font-size="13" font-weight="bold" fill="#ffffff">26 / 27</text>

  <!-- Phase badge -->
  <rect x="116" y="62" width="390" height="30" rx="4" fill="#ad1457"/>
  <text x="311" y="82" text-anchor="middle" font-size="13" font-weight="bold" fill="#ffffff">PHASE 4 — CARGO BAY GONDOLA + WINCH CRADLE</text>

  <!-- CC badge -->
  <text x="1172" y="80" text-anchor="end" font-size="8" fill="#555555">© 2026 Steve Griffing PE(CSE) CISSP-ISSEP CPP · CC BY 4.0</text>

  <!-- ═══════════════════════════════════════════════════════════════════ -->
  <!-- LEFT: Cargo gondola cross-section                                   -->
  <!-- ═══════════════════════════════════════════════════════════════════ -->
  <rect x="18" y="102" width="560" height="310" rx="6" fill="#ffffff" stroke="#cccccc" stroke-width="1"/>
  <text x="298" y="120" text-anchor="middle" font-size="11" font-weight="bold" fill="#333333">CARGO GONDOLA — CROSS-SECTION (front view)</text>
  <text x="298" y="133" text-anchor="middle" font-size="8.5" fill="#555555">4.0&#x22; &#xD7; 3.0&#x22; &#xD7; 3.0&#x22; interior (101.6 &#xD7; 76.2 &#xD7; 76.2 mm)</text>

  <!-- Hull underside -->
  <rect x="100" y="155" width="396" height="30" rx="4" fill="#b3d4ff" stroke="#006db7" stroke-width="2"/>
  <text x="298" y="174" text-anchor="middle" font-size="9" fill="#003d7a">HULL BELLY — 1.2mm PETG + FOAM</text>

  <!-- Gondola outer shell -->
  <rect x="138" y="185" width="320" height="118" rx="6" fill="#ffd0e0" stroke="#ad1457" stroke-width="2"/>

  <!-- Gondola inner cavity (the 4"x3" footprint as seen from front = 3"x3") -->
  <rect x="178" y="198" width="240" height="90" rx="3" fill="#ffffff" stroke="#888888" stroke-width="1.2" stroke-dasharray="4,2"/>

  <!-- Dimension arrows -->
  <!-- Width 101.6mm -->
  <line x1="138" y1="315" x2="458" y2="315" stroke="#333333" stroke-width="1"/>
  <line x1="138" y1="308" x2="138" y2="322" stroke="#333333" stroke-width="1"/>
  <line x1="458" y1="308" x2="458" y2="322" stroke="#333333" stroke-width="1"/>
  <text x="298" y="330" text-anchor="middle" font-size="8.5" fill="#333333">112mm exterior (101.6mm interior / 4.0&#x22;)</text>

  <!-- Height 76.2mm + protrusion -->
  <line x1="468" y1="185" x2="468" y2="303" stroke="#333333" stroke-width="1"/>
  <line x1="461" y1="185" x2="475" y2="185" stroke="#333333" stroke-width="1"/>
  <line x1="461" y1="303" x2="475" y2="303" stroke="#333333" stroke-width="1"/>
  <text x="490" y="248" font-size="8.5" fill="#333333">98mm ext</text>
  <text x="490" y="260" font-size="8.5" fill="#333333">(76.2mm int</text>
  <text x="490" y="272" font-size="8.5" fill="#333333"> = 3.0&#x22;)</text>

  <!-- Protrusion dimension -->
  <line x1="86" y1="185" x2="86" y2="203" stroke="#ad1457" stroke-width="1.2"/>
  <line x1="79" y1="185" x2="93" y2="185" stroke="#ad1457" stroke-width="1.2"/>
  <line x1="79" y1="203" x2="93" y2="203" stroke="#ad1457" stroke-width="1.2"/>
  <text x="40" y="195" font-size="7.5" fill="#ad1457">18mm</text>
  <text x="40" y="206" font-size="7.5" fill="#ad1457">pod drop</text>

  <!-- Clamshell doors (OPEN position) -->
  <!-- Left door (swings down-left) -->
  <line x1="178" y1="288" x2="110" y2="330" stroke="#ad1457" stroke-width="3" stroke-linecap="round"/>
  <rect x="80" y="328" width="60" height="12" rx="3" fill="#ff80b0" stroke="#ad1457" stroke-width="1.5" transform="rotate(-35,110,330)"/>
  <text x="88" y="355" font-size="8" fill="#ad1457">DOOR-L</text>
  <text x="88" y="365" font-size="7.5" fill="#ad1457">(open)</text>

  <!-- Right door (swings down-right) -->
  <line x1="418" y1="288" x2="486" y2="330" stroke="#ad1457" stroke-width="3" stroke-linecap="round"/>
  <rect x="456" y="328" width="60" height="12" rx="3" fill="#ff80b0" stroke="#ad1457" stroke-width="1.5" transform="rotate(35,486,330)"/>
  <text x="488" y="355" font-size="8" fill="#ad1457">DOOR-R</text>
  <text x="488" y="365" font-size="7.5" fill="#ad1457">(open)</text>

  <!-- Hinge pins -->
  <circle cx="178" cy="288" r="5" fill="#666666" stroke="#333333" stroke-width="1"/>
  <circle cx="418" cy="288" r="5" fill="#666666" stroke="#333333" stroke-width="1"/>
  <text x="155" y="296" font-size="7.5" fill="#666666">3mm CF pin hinge</text>

  <!-- SG90 servo + bell-crank (schematic) -->
  <rect x="248" y="152" width="100" height="24" rx="3" fill="#ffd080" stroke="#cc8800" stroke-width="1.2"/>
  <text x="298" y="168" text-anchor="middle" font-size="8" fill="#555500">SG90 DOOR SERVO</text>
  <line x1="298" y1="176" x2="298" y2="185" stroke="#cc8800" stroke-width="1.5"/>
  <line x1="260" y1="185" x2="336" y2="185" stroke="#cc8800" stroke-width="1.5"/>
  <line x1="260" y1="185" x2="178" y2="200" stroke="#cc8800" stroke-width="1.2" stroke-dasharray="3,2"/>
  <line x1="336" y1="185" x2="418" y2="200" stroke="#cc8800" stroke-width="1.2" stroke-dasharray="3,2"/>
  <text x="195" y="208" font-size="7" fill="#cc8800">push-pull linkage</text>

  <!-- Winch motor + spool inside bay -->
  <rect x="243" y="218" width="110" height="50" rx="4" fill="#e8f5e9" stroke="#2e7d32" stroke-width="1.2"/>
  <text x="298" y="233" text-anchor="middle" font-size="8" font-weight="bold" fill="#1a5c1a">WINCH</text>
  <text x="298" y="244" text-anchor="middle" font-size="7.5" fill="#1a5c1a">N20 300:1 + DRV8833</text>
  <circle cx="298" cy="260" r="10" fill="#4caf50" stroke="#1a5c1a" stroke-width="1"/>
  <text x="298" y="264" text-anchor="middle" font-size="6.5" fill="#ffffff">SPOOL</text>

  <!-- Dyneema line -->
  <line x1="298" y1="270" x2="298" y2="370" stroke="#009090" stroke-width="2" stroke-dasharray="3,2"/>
  <text x="304" y="340" font-size="7.5" fill="#009090">Dyneema SK75</text>
  <text x="304" y="350" font-size="7.5" fill="#009090">0.5mm · 1.5m</text>

  <!-- Cargo cradle at bottom -->
  <rect x="238" y="370" width="120" height="46" rx="5" fill="#ffe0b2" stroke="#e65100" stroke-width="2"/>
  <text x="298" y="389" text-anchor="middle" font-size="8.5" font-weight="bold" fill="#6d3000">CARGO CRADLE</text>
  <!-- Cargo box inside cradle -->
  <rect x="248" y="393" width="100" height="18" rx="2" fill="#bbdefb" stroke="#1565c0" stroke-width="1.2"/>
  <text x="298" y="406" text-anchor="middle" font-size="7.5" fill="#003d7a">4&#x22;&#xD7;3&#x22;&#xD7;3&#x22; CARGO BOX</text>

  <!-- Auto-latch clips -->
  <rect x="234" y="393" width="12" height="14" rx="2" fill="#ff8a65" stroke="#bf360c" stroke-width="1"/>
  <rect x="350" y="393" width="12" height="14" rx="2" fill="#ff8a65" stroke="#bf360c" stroke-width="1"/>
  <text x="185" y="402" font-size="7.5" fill="#bf360c">auto-latch</text>
  <text x="365" y="402" font-size="7.5" fill="#bf360c">clips ×4</text>

  <!-- ═══════════════════════════════════════════════════════════════════ -->
  <!-- RIGHT TOP: Nacelle tilt rotation diagram                            -->
  <!-- ═══════════════════════════════════════════════════════════════════ -->
  <rect x="590" y="102" width="590" height="310" rx="6" fill="#ffffff" stroke="#cccccc" stroke-width="1"/>
  <text x="885" y="120" text-anchor="middle" font-size="11" font-weight="bold" fill="#333333">NACELLE TILT — 120&#xB0; RANGE (VTOL to REVERSE)</text>

  <!-- Tilt pivot point at 830, 300 -->
  <!-- Hub circle -->
  <circle cx="830" cy="300" r="14" fill="#dddddd" stroke="#555555" stroke-width="2"/>
  <text x="830" y="305" text-anchor="middle" font-size="7" fill="#333333">PIVOT</text>

  <!-- Arm (hull side) — horizontal left -->
  <rect x="710" y="293" width="116" height="14" rx="3" fill="#b3d4ff" stroke="#006db7" stroke-width="1.5"/>
  <text x="768" y="304" text-anchor="middle" font-size="7.5" fill="#003d7a">CF ARM</text>

  <!-- 0° position: EDF pointing straight up (nacelle horizontal, thrust vertical) -->
  <!-- Nacelle as ellipse rotated 0° from vertical (EDF axis vertical = VTOL) -->
  <g transform="translate(830,300)">
    <!-- 0° — VTOL: nacelle pointing up -->
    <ellipse cx="0" cy="-70" rx="20" ry="38" fill="#cce5ff" stroke="#006db7" stroke-width="1.5" opacity="0.7"/>
    <text x="0" y="-95" text-anchor="middle" font-size="8" fill="#006db7">0&#xB0;</text>
    <text x="0" y="-83" text-anchor="middle" font-size="7.5" fill="#006db7">VTOL</text>
    <line x1="0" y1="-14" x2="0" y2="-108" stroke="#006db7" stroke-width="1" stroke-dasharray="3,2"/>

    <!-- 90° — Forward: nacelle pointing forward (rotated 90° so EDF axis is horizontal) -->
    <ellipse cx="80" cy="0" rx="38" ry="20" fill="#c8e6c9" stroke="#2e7d32" stroke-width="1.5" opacity="0.7"/>
    <text x="110" y="-8" font-size="8" fill="#2e7d32">90&#xB0;</text>
    <text x="110" y="4" font-size="7.5" fill="#2e7d32">FWD</text>
    <line x1="14" y1="0" x2="120" y2="0" stroke="#2e7d32" stroke-width="1" stroke-dasharray="3,2"/>

    <!-- 115° — Reverse thrust mode -->
    <ellipse cx="60" cy="60" rx="38" ry="20" fill="#ffcdd2" stroke="#c62828" stroke-width="1.5" opacity="0.7"
      transform="rotate(25,60,60)"/>
    <text x="78" y="85" font-size="8" fill="#c62828">115&#xB0;</text>
    <text x="78" y="95" font-size="7.5" fill="#c62828">REVERSE</text>
    <line x1="14" y1="0" x2="108" y2="56" stroke="#c62828" stroke-width="1" stroke-dasharray="3,2"/>

    <!-- Arc showing travel range -->
    <path d="M 0,-86 A 86,86 0 0,1 86,0" fill="none" stroke="#2e7d32" stroke-width="2.5" opacity="0.6"/>
    <path d="M 86,0 A 86,86 0 0,1 73,46" fill="none" stroke="#c62828" stroke-width="2.5" opacity="0.6"/>

    <!-- Angle arcs labels -->
    <text x="-28" y="-65" font-size="7.5" fill="#555555">0–90&#xB0;</text>
    <text x="-28" y="-54" font-size="7" fill="#555555">normal</text>
  </g>

  <!-- Thrust vectors -->
  <text x="612" y="200" font-size="8.5" font-weight="bold" fill="#006db7">VTOL (0&#xB0;)</text>
  <text x="612" y="212" font-size="8" fill="#333333">Thrust: straight up</text>
  <text x="612" y="223" font-size="8" fill="#333333">Lift: 2&#xD7;1700g = 3400g</text>

  <text x="612" y="248" font-size="8.5" font-weight="bold" fill="#2e7d32">FORWARD (90&#xB0;)</text>
  <text x="612" y="260" font-size="8" fill="#333333">Thrust: forward only</text>
  <text x="612" y="271" font-size="8" fill="#333333">Altitude: fuselage EDF only</text>

  <text x="612" y="296" font-size="8.5" font-weight="bold" fill="#c62828">REVERSE (115&#xB0;)</text>
  <text x="612" y="308" font-size="8" fill="#333333">Reverse: 1700&#xD7;sin(25&#xB0;)&#xD7;2 = 1438g</text>
  <text x="612" y="319" font-size="8" fill="#333333">Lift retained: 1700&#xD7;cos(25&#xB0;)&#xD7;2 = 3080g</text>
  <text x="612" y="330" font-size="8" fill="#c62828">FC soft-limit: 90–115&#xB0; only in BRAKE mode</text>
  <text x="612" y="341" font-size="8" fill="#555555">Mechanical hard-stop: 120&#xB0; in tilt bracket</text>

  <!-- Bracket modification note -->
  <rect x="596" y="356" width="374" height="44" rx="4" fill="#fff9c4" stroke="#f9a825" stroke-width="1.2"/>
  <text x="783" y="370" text-anchor="middle" font-size="8.5" font-weight="bold" fill="#5c3d00">TILT BRACKET MODIFICATION — NO SERVO CHANGE</text>
  <text x="606" y="382" font-size="8" fill="#333333">Existing MG90S servo retained (9g, adequate torque for 120&#xB0; range).</text>
  <text x="606" y="393" font-size="8" fill="#333333">Reprint tilt_bracket_120deg.stl — extended slot adds 30&#xB0; travel. Hard-stop boss at 120&#xB0; prevents over-rotation.</text>

  <!-- ═══════════════════════════════════════════════════════════════════ -->
  <!-- BOTTOM LEFT: Cargo bay installation steps                           -->
  <!-- ═══════════════════════════════════════════════════════════════════ -->
  <rect x="18" y="422" width="560" height="388" rx="6" fill="#ffffff" stroke="#cccccc" stroke-width="1"/>
  <text x="298" y="440" text-anchor="middle" font-size="11" font-weight="bold" fill="#333333">CARGO BAY INSTALLATION STEPS</text>

  <circle cx="42" cy="458" r="9" fill="#ad1457"/>
  <text x="42" y="462" text-anchor="middle" font-size="9" font-weight="bold" fill="#ffffff">1</text>
  <text x="56" y="462" font-size="9" fill="#222222">Print cargo_gondola_shell.stl + 2&#xD7; clamshell_door_half.stl in PETG 40% infill.</text>

  <circle cx="42" cy="480" r="9" fill="#ad1457"/>
  <text x="42" y="484" text-anchor="middle" font-size="9" font-weight="bold" fill="#ffffff">2</text>
  <text x="56" y="484" font-size="9" fill="#222222">Print cargo_cradle_autolatch.stl in PETG 100% infill. Test latch springs — box click-in/click-out.</text>

  <circle cx="42" cy="502" r="9" fill="#ad1457"/>
  <text x="42" y="506" text-anchor="middle" font-size="9" font-weight="bold" fill="#ffffff">3</text>
  <text x="56" y="506" font-size="9" fill="#222222">Remove hull belly panel C. Cut gondola opening 108&#xD7;82mm in belly skin.</text>

  <circle cx="42" cy="522" r="9" fill="#ad1457"/>
  <text x="42" y="526" text-anchor="middle" font-size="9" font-weight="bold" fill="#ffffff">4</text>
  <text x="56" y="526" font-size="9" fill="#222222">Apply 5-min epoxy to gondola shell flange. Press onto hull opening. Clamp 30 min.</text>

  <circle cx="42" cy="542" r="9" fill="#ad1457"/>
  <text x="42" y="546" text-anchor="middle" font-size="9" font-weight="bold" fill="#ffffff">5</text>
  <text x="56" y="546" font-size="9" fill="#222222">Install 3mm CF hinge pins (&#xD7;2) through clamshell door knuckles and gondola flanges.</text>

  <circle cx="42" cy="562" r="9" fill="#ad1457"/>
  <text x="42" y="566" text-anchor="middle" font-size="9" font-weight="bold" fill="#ffffff">6</text>
  <text x="56" y="566" font-size="9" fill="#222222">Mount SG90 door servo on gondola top bracket. Connect push-pull linkage rods to each door half.</text>

  <circle cx="42" cy="582" r="9" fill="#ad1457"/>
  <text x="42" y="586" text-anchor="middle" font-size="9" font-weight="bold" fill="#ffffff">7</text>
  <text x="56" y="586" font-size="9" fill="#222222">Install N20 winch motor + DRV8833 on inner gondola back wall. Wind 1.5m Dyneema onto spool.</text>

  <circle cx="42" cy="602" r="9" fill="#ad1457"/>
  <text x="42" y="606" text-anchor="middle" font-size="9" font-weight="bold" fill="#ffffff">8</text>
  <text x="56" y="606" font-size="9" fill="#222222">Tie Dyneema to cradle eyelet with double-bowline. Thread line through door-frame guide eyelet.</text>

  <circle cx="42" cy="622" r="9" fill="#ad1457"/>
  <text x="42" y="626" text-anchor="middle" font-size="9" font-weight="bold" fill="#ffffff">9</text>
  <text x="56" y="626" font-size="9" fill="#222222">Connect door servo + winch motor to Node 3 (Panel D). Flash cargo_bay firmware.</text>

  <circle cx="42" cy="642" r="9" fill="#ad1457"/>
  <text x="42" y="646" text-anchor="middle" font-size="9" font-weight="bold" fill="#ffffff">10</text>
  <text x="56" y="646" font-size="9" fill="#222222">Seal door lips with 1.5mm closed-cell foam tape. Verify 100% door seal when closed.</text>

  <circle cx="42" cy="662" r="9" fill="#ad1457"/>
  <text x="42" y="666" text-anchor="middle" font-size="9" font-weight="bold" fill="#ffffff">11</text>
  <text x="56" y="666" font-size="9" fill="#222222">Functional test: command DOOR_OPEN → cradle descends 200mm → place test box → CRADLE_UP →</text>
  <text x="56" y="676" font-size="9" fill="#222222">   verify auto-latch click · DOOR_CLOSE → inspect seal. Repeat 5&#xD7;.</text>

  <circle cx="42" cy="690" r="9" fill="#ad1457"/>
  <text x="42" y="694" text-anchor="middle" font-size="9" font-weight="bold" fill="#ffffff">12</text>
  <text x="56" y="694" font-size="9" fill="#222222">Print tilt_bracket_120deg.stl (&#xD7;2) replacing tilt_bracket_cf_petg.stl. Reinstall nacelle servos.</text>
  <text x="56" y="704" font-size="9" fill="#222222">   Verify 0&#xB0; VTOL detent, 90&#xB0; forward stop, and 120&#xB0; hard-stop on bench before flight.</text>

  <circle cx="42" cy="720" r="9" fill="#ad1457"/>
  <text x="42" y="724" text-anchor="middle" font-size="9" font-weight="bold" fill="#ffffff">13</text>
  <text x="56" y="724" font-size="9" fill="#222222">In FC configurator: enable REVERSE_BRAKE mode. Set nacelle_max = 115&#xB0;. Set nacelle_reverse_rate = 20&#xB0;/s.</text>

  <circle cx="42" cy="740" r="9" fill="#ad1457"/>
  <text x="42" y="744" text-anchor="middle" font-size="9" font-weight="bold" fill="#ffffff">14</text>
  <text x="56" y="744" font-size="9" fill="#222222">Flight test: hover at 2m, command REVERSE → verify rearward motion at &#x2264;1m/s. Check altitude</text>
  <text x="56" y="754" font-size="9" fill="#222222">   hold (fuselage EDF maintains lift at 115&#xB0; nacelle). Cancel → nacelles return to 90&#xB0; in 2s.</text>

  <!-- Weight impact note -->
  <rect x="28" y="764" width="540" height="38" rx="4" fill="#e8f5e9" stroke="#2e7d32" stroke-width="1.2"/>
  <text x="298" y="777" text-anchor="middle" font-size="8.5" font-weight="bold" fill="#1a5c1a">MASS BUDGET IMPACT</text>
  <text x="38" y="789" font-size="8" fill="#333333">Cargo gondola +14g · door servo +9g · winch cradle +10g · Dyneema +1g · sensors +26g · mounts +11g = +71g total</text>
  <text x="38" y="799" font-size="8" fill="#333333">Dry mass 1473g · AUW empty 1883g (T/W 2.01) · AUW cargo w/ 6S 1800mAh: 1903g (T/W 1.99)</text>

  <!-- ═══════════════════════════════════════════════════════════════════ -->
  <!-- BOTTOM RIGHT: Winch operation sequence                              -->
  <!-- ═══════════════════════════════════════════════════════════════════ -->
  <rect x="590" y="422" width="590" height="388" rx="6" fill="#ffffff" stroke="#cccccc" stroke-width="1"/>
  <text x="885" y="440" text-anchor="middle" font-size="11" font-weight="bold" fill="#333333">WINCH OPERATION SEQUENCE</text>

  <!-- State 1: Doors closed, cargo bay -->
  <rect x="606" y="452" width="174" height="110" rx="5" fill="#f0f4ff" stroke="#1565c0" stroke-width="1.5"/>
  <text x="693" y="466" text-anchor="middle" font-size="8" font-weight="bold" fill="#1565c0">STATE 1: TRANSIT</text>
  <!-- Hull bottom -->
  <rect x="620" y="476" width="148" height="14" rx="2" fill="#b3d4ff" stroke="#006db7" stroke-width="1"/>
  <!-- Gondola closed -->
  <rect x="630" y="490" width="128" height="52" rx="4" fill="#ffe0b2" stroke="#e65100" stroke-width="1.5"/>
  <!-- Doors closed (flat bottom) -->
  <rect x="630" y="536" width="60" height="6" rx="1" fill="#ff80b0" stroke="#ad1457" stroke-width="1"/>
  <rect x="698" y="536" width="60" height="6" rx="1" fill="#ff80b0" stroke="#ad1457" stroke-width="1"/>
  <text x="693" y="520" text-anchor="middle" font-size="7.5" fill="#444444">cargo secured inside</text>
  <text x="693" y="553" text-anchor="middle" font-size="7.5" fill="#ad1457">doors CLOSED</text>
  <text x="693" y="563" text-anchor="middle" font-size="7.5" fill="#2e7d32">&#x2714; sealed for flight</text>

  <!-- Arrow 1→2 -->
  <line x1="784" y1="507" x2="810" y2="507" stroke="#555555" stroke-width="1.5" marker-end="url(#arr)"/>
  <text x="797" y="502" text-anchor="middle" font-size="7" fill="#333333">CMD:</text>
  <text x="797" y="512" text-anchor="middle" font-size="7" fill="#333333">DEPLOY</text>

  <!-- State 2: Doors open, cradle descending -->
  <rect x="814" y="452" width="174" height="110" rx="5" fill="#fff8e1" stroke="#f9a825" stroke-width="1.5"/>
  <text x="901" y="466" text-anchor="middle" font-size="8" font-weight="bold" fill="#c67e00">STATE 2: DEPLOY</text>
  <rect x="826" y="476" width="148" height="14" rx="2" fill="#b3d4ff" stroke="#006db7" stroke-width="1"/>
  <rect x="836" y="490" width="128" height="34" rx="4" fill="#ffe0b2" stroke="#e65100" stroke-width="1.5"/>
  <!-- Doors open (angled) -->
  <line x1="836" y1="524" x2="808" y2="548" stroke="#ad1457" stroke-width="3" stroke-linecap="round"/>
  <line x1="964" y1="524" x2="992" y2="548" stroke="#ad1457" stroke-width="3" stroke-linecap="round"/>
  <!-- Cradle on line -->
  <line x1="901" y1="524" x2="901" y2="554" stroke="#009090" stroke-width="2" stroke-dasharray="3,2"/>
  <rect x="876" y="554" width="50" height="24" rx="3" fill="#ffe0b2" stroke="#e65100" stroke-width="1.2"/>
  <text x="901" y="570" text-anchor="middle" font-size="7" fill="#6d3000">CRADLE</text>
  <text x="901" y="545" text-anchor="middle" font-size="7.5" fill="#c67e00">doors OPEN · lowering</text>

  <!-- Arrow 2→3 -->
  <line x1="784" y1="567" x2="810" y2="567" stroke="#555555" stroke-width="1.5" marker-end="url(#arr)"/>
  <text x="797" y="562" text-anchor="middle" font-size="7" fill="#333333">place</text>
  <text x="797" y="572" text-anchor="middle" font-size="7" fill="#333333">cargo</text>

  <!-- State 3: Cradle loaded, rising -->
  <rect x="606" y="576" width="174" height="110" rx="5" fill="#e8f5e9" stroke="#2e7d32" stroke-width="1.5"/>
  <text x="693" y="590" text-anchor="middle" font-size="8" font-weight="bold" fill="#2e7d32">STATE 3: RETRIEVE</text>
  <rect x="620" y="600" width="148" height="14" rx="2" fill="#b3d4ff" stroke="#006db7" stroke-width="1"/>
  <rect x="630" y="614" width="128" height="34" rx="4" fill="#ffe0b2" stroke="#e65100" stroke-width="1.5"/>
  <line x1="630" y1="648" x2="602" y2="672" stroke="#ad1457" stroke-width="3" stroke-linecap="round"/>
  <line x1="758" y1="648" x2="786" y2="672" stroke="#ad1457" stroke-width="3" stroke-linecap="round"/>
  <!-- Rising cradle with cargo -->
  <line x1="693" y1="648" x2="693" y2="666" stroke="#009090" stroke-width="2" stroke-dasharray="3,2"/>
  <rect x="668" y="666" width="50" height="24" rx="3" fill="#bbdefb" stroke="#1565c0" stroke-width="1.2"/>
  <rect x="668" y="654" width="50" height="12" rx="2" fill="#ffe0b2" stroke="#e65100" stroke-width="1"/>
  <text x="693" y="664" text-anchor="middle" font-size="6.5" fill="#6d3000">BOX</text>
  <text x="693" y="676" text-anchor="middle" font-size="6.5" fill="#003d7a">CRADLE</text>
  <text x="693" y="691" text-anchor="middle" font-size="7.5" fill="#2e7d32">winch UP · auto-latch</text>

  <!-- Arrow 3→4 -->
  <line x1="784" y1="637" x2="810" y2="637" stroke="#555555" stroke-width="1.5" marker-end="url(#arr)"/>
  <text x="797" y="632" text-anchor="middle" font-size="7" fill="#333333">cradle</text>
  <text x="797" y="642" text-anchor="middle" font-size="7" fill="#333333">seated</text>

  <!-- State 4: Doors closing, secured -->
  <rect x="814" y="576" width="174" height="110" rx="5" fill="#f3e5f5" stroke="#6a1b9a" stroke-width="1.5"/>
  <text x="901" y="590" text-anchor="middle" font-size="8" font-weight="bold" fill="#6a1b9a">STATE 4: SECURED</text>
  <rect x="826" y="600" width="148" height="14" rx="2" fill="#b3d4ff" stroke="#006db7" stroke-width="1"/>
  <rect x="836" y="614" width="128" height="52" rx="4" fill="#bbdefb" stroke="#1565c0" stroke-width="1.5"/>
  <rect x="836" y="660" width="60" height="6" rx="1" fill="#ff80b0" stroke="#ad1457" stroke-width="1"/>
  <rect x="904" y="660" width="60" height="6" rx="1" fill="#ff80b0" stroke="#ad1457" stroke-width="1"/>
  <text x="901" y="642" text-anchor="middle" font-size="7.5" fill="#003d7a">cargo + cradle locked</text>
  <text x="901" y="675" text-anchor="middle" font-size="7.5" fill="#ad1457">doors CLOSED + latched</text>
  <text x="901" y="686" text-anchor="middle" font-size="7.5" fill="#2e7d32">&#x2714; ready for transit</text>

  <!-- Cargo box spec table -->
  <rect x="606" y="700" width="374" height="58" rx="4" fill="#fff3e0" stroke="#e65100" stroke-width="1.2"/>
  <text x="793" y="714" text-anchor="middle" font-size="9" font-weight="bold" fill="#6d3000">CARGO SPECIFICATION</text>
  <text x="616" y="727" font-size="8.5" fill="#333333">Max box size:  4.0&#x22; &#xD7; 3.0&#x22; &#xD7; 3.0&#x22;  (101.6 &#xD7; 76.2 &#xD7; 76.2 mm)  ·  clearance 2mm each side</text>
  <text x="616" y="739" font-size="8.5" fill="#333333">Max cargo mass:  250g  ·  Winch rated load 350g (1.4&#xD7; safety margin at 8N line tension)</text>
  <text x="616" y="751" font-size="8.5" fill="#333333">Lower speed: 120mm/s  ·  Raise speed: 80mm/s  ·  Auto-latch load: 5N click force</text>

  <!-- Attribution -->
  <text x="600" y="908" text-anchor="middle" font-size="7.5" fill="#777777">© 2026 Steve Griffing, PE(CSE) CISSP-ISSEP CPP · CC BY 4.0 · Visual inspiration: Firefly/Serenity © Joss Whedon/Mutant Enemy/Universal — Fan engineering</text>
</svg>
