<?xml version="1.0" encoding="UTF-8"?>
<!-- Serenity-Class Tiltrotor UAV — Build Guide — Step 03 — Print Nacelles -->
<!-- © 2026 Steve Griffing PE(CSE) CISSP-ISSEP CPP  CC BY 4.0 -->
<!-- Hull: Peter Farell CC BY 4.0 | Nozzle: BamJr CC BY 4.0 -->
<!-- Visual: Firefly/Serenity © Joss Whedon/Mutant Enemy/Universal -->
<svg xmlns="http://www.w3.org/2000/svg" viewBox="0 0 1200 900" width="1200" height="900">
<defs>
  <style>
    @import url('https://fonts.cdnfonts.com/css/opendyslexic');
    @media screen {
      text, tspan, .label, .note, .dim {
        font-family: 'OpenDyslexic','OpenDyslexicMono',sans-serif !important;
      }
    }
    @media print {
      svg { background: #ffffff !important; }
      text, tspan { fill: #111111 !important; font-family: 'OpenDyslexic',sans-serif !important; }
      rect[fill^="rgba"], rect[fill^="#0"] { fill: #f5f5f5 !important; }
    }
  </style>
</defs>
<rect width="1200" height="900" fill="#f5f0e8"/>
<rect x="0" y="0" width="1200" height="64" fill="#006db7"/>
<text x="24" y="24" font-family="'OpenDyslexic',sans-serif" font-weight="bold" font-size="14" fill="#ffffff" letter-spacing="2">SERENITY-CLASS TILTROTOR UAV</text>
<text x="24" y="46" font-family="'OpenDyslexic',sans-serif" font-size="11" fill="#c8dff0">Steve Griffing, PE(CSE), CISSP-ISSEP, CPP · CC BY 4.0 · 2026</text>
<rect x="1040" y="8" width="144" height="48" rx="6" fill="#ff7518"/>
<text x="1112" y="29" text-anchor="middle" font-family="'OpenDyslexic',sans-serif" font-weight="bold" font-size="11" fill="#ffffff">STEP</text>
<text x="1112" y="50" text-anchor="middle" font-family="'OpenDyslexic',sans-serif" font-weight="bold" font-size="22" fill="#ffffff">3 / 26</text>
<rect x="0" y="64" width="1200" height="40" fill="#dde4ea" rx="0"/>
<text x="24" y="90" font-family="'OpenDyslexic',sans-serif" font-weight="bold" font-size="16" fill="#006db7">PHASE 1 — PRINT NACELLES &amp; NOZZLE</text>
<text x="500" y="90" font-family="'OpenDyslexic',sans-serif" font-size="12" fill="#607080">CF-PETG nacelle pods · PETG nozzle parts · gear</text>
<rect x="0" y="872" width="1200" height="28" fill="#006db7"/>
<text x="600" y="890" text-anchor="middle" font-family="'OpenDyslexic',sans-serif" font-size="9" fill="#c8dff0">Hull: Peter Farell CC BY 4.0 · Nozzle: BamJr CC BY 4.0 · Visual inspiration: Firefly/Serenity © Joss Whedon/Mutant Enemy/Universal — Fan engineering work</text>
<rect x="16" y="112" width="720" height="752" rx="8" fill="#fffdf6" stroke="#dde4ea" stroke-width="1.5"/>
<rect x="752" y="112" width="432" height="752" rx="8" fill="#fffdf6" stroke="#dde4ea" stroke-width="1.5"/>
<rect x="760" y="120" width="416" height="180" rx="8" fill="#fffdf6" stroke="#006db7" stroke-width="2"/>
<rect x="760" y="120" width="416" height="28" rx="8" fill="#006db7"/>
<rect x="760" y="136" width="416" height="12" fill="#006db7"/>
<text x="968" y="139" text-anchor="middle" font-family="'OpenDyslexic',sans-serif" font-weight="bold" font-size="11" fill="#ffffff">PARTS NEEDED</text>
<rect x="768" y="145" width="26" height="16" rx="4" fill="#ff7518" stroke="#222222" stroke-width="1"/>
<text x="781" y="158" text-anchor="middle" font-family="'OpenDyslexic',sans-serif" font-weight="bold" font-size="10" fill="#ffffff">2×</text>
<text x="800" y="158" font-family="'OpenDyslexic',sans-serif" font-size="10" fill="#222222">Nacelle pod 70mm</text>
<rect x="768" y="167" width="26" height="16" rx="4" fill="#607080" stroke="#222222" stroke-width="1"/>
<text x="781" y="180" text-anchor="middle" font-family="'OpenDyslexic',sans-serif" font-weight="bold" font-size="10" fill="#ffffff">2×</text>
<text x="800" y="180" font-family="'OpenDyslexic',sans-serif" font-size="10" fill="#222222">Nozzle outer housing</text>
<rect x="768" y="189" width="26" height="16" rx="4" fill="#006db7" stroke="#222222" stroke-width="1"/>
<text x="781" y="202" text-anchor="middle" font-family="'OpenDyslexic',sans-serif" font-weight="bold" font-size="10" fill="#ffffff">2×</text>
<text x="800" y="202" font-family="'OpenDyslexic',sans-serif" font-size="10" fill="#222222">Nozzle inner ring</text>
<rect x="768" y="211" width="26" height="16" rx="4" fill="#00838f" stroke="#222222" stroke-width="1"/>
<text x="781" y="224" text-anchor="middle" font-family="'OpenDyslexic',sans-serif" font-weight="bold" font-size="10" fill="#ffffff">16×</text>
<text x="800" y="224" font-family="'OpenDyslexic',sans-serif" font-size="10" fill="#222222">Flaps (8 per nacelle)</text>
<rect x="768" y="233" width="26" height="16" rx="4" fill="#f5c518" stroke="#222222" stroke-width="1"/>
<text x="781" y="246" text-anchor="middle" font-family="'OpenDyslexic',sans-serif" font-weight="bold" font-size="10" fill="#ffffff">2×</text>
<text x="800" y="246" font-family="'OpenDyslexic',sans-serif" font-size="10" fill="#222222">Sector gear 22mm</text>
<rect x="768" y="255" width="26" height="16" rx="4" fill="#37474f" stroke="#222222" stroke-width="1"/>
<text x="781" y="268" text-anchor="middle" font-family="'OpenDyslexic',sans-serif" font-weight="bold" font-size="10" fill="#ffffff">2×</text>
<text x="800" y="268" font-family="'OpenDyslexic',sans-serif" font-size="10" fill="#222222">Tilt bracket</text>
<rect x="760" y="308" width="416" height="192" rx="8" fill="#fffdf6" stroke="#607080" stroke-width="1.5"/>
<rect x="760" y="308" width="416" height="28" rx="8" fill="#607080"/>
<rect x="760" y="324" width="416" height="12" fill="#607080"/>
<text x="968" y="327" text-anchor="middle" font-family="'OpenDyslexic',sans-serif" font-weight="bold" font-size="11" fill="#ffffff">INSTRUCTIONS</text>
<circle cx="776" cy="343" r="9" fill="#006db7"/>
<text x="776" y="347" text-anchor="middle" font-family="'OpenDyslexic',sans-serif" font-weight="bold" font-size="10" fill="#ffffff">1</text>
<text x="792" y="348" font-family="'OpenDyslexic',sans-serif" font-size="10" fill="#222222">Print nacelle pods: CF-PETG, 40% gyroid, 0.15mm, 4 walls</text>
<circle cx="776" cy="367" r="9" fill="#006db7"/>
<text x="776" y="371" text-anchor="middle" font-family="'OpenDyslexic',sans-serif" font-weight="bold" font-size="10" fill="#ffffff">2</text>
<text x="792" y="372" font-family="'OpenDyslexic',sans-serif" font-size="10" fill="#222222">Print nozzle inner rings vertically (layer lines ⊥ to axis)</text>
<circle cx="776" cy="391" r="9" fill="#006db7"/>
<text x="776" y="395" text-anchor="middle" font-family="'OpenDyslexic',sans-serif" font-weight="bold" font-size="10" fill="#ffffff">3</text>
<text x="792" y="396" font-family="'OpenDyslexic',sans-serif" font-size="10" fill="#222222">Print nozzle flaps FLAT on bed (no support needed)</text>
<circle cx="776" cy="415" r="9" fill="#006db7"/>
<text x="776" y="419" text-anchor="middle" font-family="'OpenDyslexic',sans-serif" font-weight="bold" font-size="10" fill="#ffffff">4</text>
<text x="792" y="420" font-family="'OpenDyslexic',sans-serif" font-size="10" fill="#222222">Print sector gears at 0.12mm for tooth accuracy</text>
<circle cx="776" cy="439" r="9" fill="#006db7"/>
<text x="776" y="443" text-anchor="middle" font-family="'OpenDyslexic',sans-serif" font-weight="bold" font-size="10" fill="#ffffff">5</text>
<text x="792" y="444" font-family="'OpenDyslexic',sans-serif" font-size="10" fill="#222222">Print tilt brackets: CF-PETG, 4 walls, 40% infill</text>
<circle cx="776" cy="463" r="9" fill="#006db7"/>
<text x="776" y="467" text-anchor="middle" font-family="'OpenDyslexic',sans-serif" font-weight="bold" font-size="10" fill="#ffffff">6</text>
<text x="792" y="468" font-family="'OpenDyslexic',sans-serif" font-size="10" fill="#222222">Print M=1.0 sector/bevel/pinion/crown gears at 0.12mm</text>
<rect x="760" y="512" width="416" height="36" rx="6" fill="#fffac0" stroke="#ff7518" stroke-width="2"/><text x="778" y="527" font-family="'OpenDyslexic',sans-serif" font-weight="bold" font-size="14" fill="#ff7518">⚠</text><text x="796" y="534" font-family="'OpenDyslexic',sans-serif" font-size="10" fill="#222222">Sector gear tooth accuracy is critical — use 0.10mm layer if possible</text>
<rect x="760" y="556" width="416" height="32" rx="6" fill="#b2ebf2" stroke="#00838f" stroke-width="1.5"/><text x="770" y="570" font-family="'OpenDyslexic',sans-serif" font-weight="bold" font-size="10" fill="#00838f">ℹ</text><text x="786" y="576" font-family="'OpenDyslexic',sans-serif" font-size="9.5" fill="#222222">BamJr nozzle remix CC BY 4.0 — see LICENSE_AND_ATTRIBUTION.md</text>
<polygon points="183.7,412.0 173.8,407.8 173.8,487.8 183.7,492.0" fill="#ffe0c0" stroke="#ff7518" stroke-width="2"/>
<polygon points="173.8,407.8 162.1,405.7 162.1,485.7 173.8,487.8" fill="#ffe0c0" stroke="#ff7518" stroke-width="2"/>
<polygon points="162.1,405.7 149.9,405.7 149.9,485.7 162.1,485.7" fill="#ffe0c0" stroke="#ff7518" stroke-width="2"/>
<polygon points="149.9,405.7 138.2,407.8 138.2,487.8 149.9,485.7" fill="#ffe0c0" stroke="#ff7518" stroke-width="2"/>
<polygon points="138.2,407.8 128.3,412.0 128.3,492.0 138.2,487.8" fill="#ffe0c0" stroke="#ff7518" stroke-width="2"/>
<polygon points="128.3,412.0 121.1,417.7 121.1,497.7 128.3,492.0" fill="#ffe0c0" stroke="#ff7518" stroke-width="2"/>
<polygon points="121.1,417.7 117.3,424.5 117.3,504.5 121.1,497.7" fill="#ffe0c0" stroke="#ff7518" stroke-width="2"/>
<polygon points="117.3,424.5 117.3,431.5 117.3,511.5 117.3,504.5" fill="#ffe0c0" stroke="#ff7518" stroke-width="2"/>
<polygon points="117.3,431.5 121.1,438.3 121.1,518.3 117.3,511.5" fill="#ffe0c0" stroke="#ff7518" stroke-width="2"/>
<polygon points="121.1,438.3 128.3,444.0 128.3,524.0 121.1,518.3" fill="#ffe0c0" stroke="#ff7518" stroke-width="2"/>
<polygon points="128.3,444.0 138.2,448.2 138.2,528.2 128.3,524.0" fill="#ffe0c0" stroke="#ff7518" stroke-width="2"/>
<polygon points="138.2,448.2 149.9,450.3 149.9,530.3 138.2,528.2" fill="#ffe0c0" stroke="#ff7518" stroke-width="2"/>
<polygon points="149.9,450.3 162.1,450.3 162.1,530.3 149.9,530.3" fill="#ffe0c0" stroke="#ff7518" stroke-width="2"/>
<polygon points="162.1,450.3 173.8,448.2 173.8,528.2 162.1,530.3" fill="#ffe0c0" stroke="#ff7518" stroke-width="2"/>
<polygon points="173.8,448.2 183.7,444.0 183.7,524.0 173.8,528.2" fill="#ffe0c0" stroke="#ff7518" stroke-width="2"/>
<polygon points="183.7,444.0 190.9,438.3 190.9,518.3 183.7,524.0" fill="#ffe0c0" stroke="#ff7518" stroke-width="2"/>
<polygon points="190.9,438.3 194.7,431.5 194.7,511.5 190.9,518.3" fill="#ffe0c0" stroke="#ff7518" stroke-width="2"/>
<polygon points="194.7,431.5 194.7,424.5 194.7,504.5 194.7,511.5" fill="#ffe0c0" stroke="#ff7518" stroke-width="2"/>
<polygon points="194.7,424.5 190.9,417.7 190.9,497.7 194.7,504.5" fill="#ffe0c0" stroke="#ff7518" stroke-width="2"/>
<polygon points="190.9,417.7 183.7,412.0 183.7,492.0 190.9,497.7" fill="#ffe0c0" stroke="#ff7518" stroke-width="2"/>
<polygon points="183.7,492.0 173.8,487.8 162.1,485.7 149.9,485.7 138.2,487.8 128.3,492.0 121.1,497.7 117.3,504.5 117.3,511.5 121.1,518.3 128.3,524.0 138.2,528.2 149.9,530.3 162.1,530.3 173.8,528.2 183.7,524.0 190.9,518.3 194.7,511.5 194.7,504.5 190.9,497.7" fill="#ffffff" stroke="#ff7518" stroke-width="2"/>
<text x="156" y="528" text-anchor="middle" font-family="'OpenDyslexic',sans-serif" font-weight="bold" font-size="10" fill="#ff7518">NACELLE POD</text>
<text x="156" y="542" text-anchor="middle" font-family="'OpenDyslexic',sans-serif" font-size="8" fill="#607080">CF-PETG · 50mm bore · 148mm L</text>
<text x="156" y="554" text-anchor="middle" font-family="'OpenDyslexic',sans-serif" font-size="8" fill="#607080">25% infill · 0.15mm</text>
<polygon points="315.4,441.0 304.9,436.6 304.9,452.6 315.4,457.0" fill="#dde4ea" stroke="#607080" stroke-width="2"/>
<polygon points="304.9,436.6 292.5,434.3 292.5,450.3 304.9,452.6" fill="#dde4ea" stroke="#607080" stroke-width="2"/>
<polygon points="292.5,434.3 279.5,434.3 279.5,450.3 292.5,450.3" fill="#dde4ea" stroke="#607080" stroke-width="2"/>
<polygon points="279.5,434.3 267.1,436.6 267.1,452.6 279.5,450.3" fill="#dde4ea" stroke="#607080" stroke-width="2"/>
<polygon points="267.1,436.6 256.6,441.0 256.6,457.0 267.1,452.6" fill="#dde4ea" stroke="#607080" stroke-width="2"/>
<polygon points="256.6,441.0 248.9,447.1 248.9,463.1 256.6,457.0" fill="#dde4ea" stroke="#607080" stroke-width="2"/>
<polygon points="248.9,447.1 244.9,454.2 244.9,470.2 248.9,463.1" fill="#dde4ea" stroke="#607080" stroke-width="2"/>
<polygon points="244.9,454.2 244.9,461.8 244.9,477.8 244.9,470.2" fill="#dde4ea" stroke="#607080" stroke-width="2"/>
<polygon points="244.9,461.8 248.9,468.9 248.9,484.9 244.9,477.8" fill="#dde4ea" stroke="#607080" stroke-width="2"/>
<polygon points="248.9,468.9 256.6,475.0 256.6,491.0 248.9,484.9" fill="#dde4ea" stroke="#607080" stroke-width="2"/>
<polygon points="256.6,475.0 267.1,479.4 267.1,495.4 256.6,491.0" fill="#dde4ea" stroke="#607080" stroke-width="2"/>
<polygon points="267.1,479.4 279.5,481.7 279.5,497.7 267.1,495.4" fill="#dde4ea" stroke="#607080" stroke-width="2"/>
<polygon points="279.5,481.7 292.5,481.7 292.5,497.7 279.5,497.7" fill="#dde4ea" stroke="#607080" stroke-width="2"/>
<polygon points="292.5,481.7 304.9,479.4 304.9,495.4 292.5,497.7" fill="#dde4ea" stroke="#607080" stroke-width="2"/>
<polygon points="304.9,479.4 315.4,475.0 315.4,491.0 304.9,495.4" fill="#dde4ea" stroke="#607080" stroke-width="2"/>
<polygon points="315.4,475.0 323.1,468.9 323.1,484.9 315.4,491.0" fill="#dde4ea" stroke="#607080" stroke-width="2"/>
<polygon points="323.1,468.9 327.1,461.8 327.1,477.8 323.1,484.9" fill="#dde4ea" stroke="#607080" stroke-width="2"/>
<polygon points="327.1,461.8 327.1,454.2 327.1,470.2 327.1,477.8" fill="#dde4ea" stroke="#607080" stroke-width="2"/>
<polygon points="327.1,454.2 323.1,447.1 323.1,463.1 327.1,470.2" fill="#dde4ea" stroke="#607080" stroke-width="2"/>
<polygon points="323.1,447.1 315.4,441.0 315.4,457.0 323.1,463.1" fill="#dde4ea" stroke="#607080" stroke-width="2"/>
<polygon points="315.4,457.0 304.9,452.6 292.5,450.3 279.5,450.3 267.1,452.6 256.6,457.0 248.9,463.1 244.9,470.2 244.9,477.8 248.9,484.9 256.6,491.0 267.1,495.4 279.5,497.7 292.5,497.7 304.9,495.4 315.4,491.0 323.1,484.9 327.1,477.8 327.1,470.2 323.1,463.1" fill="#ffffff" stroke="#607080" stroke-width="2"/>
<polygon points="310.2,444.0 301.6,440.4 301.6,456.4 310.2,460.0" fill="rgba(200,220,255,0.3)" stroke="#006db7" stroke-width="1.5"/>
<polygon points="301.6,440.4 291.4,438.4 291.4,454.4 301.6,456.4" fill="rgba(200,220,255,0.3)" stroke="#006db7" stroke-width="1.5"/>
<polygon points="291.4,438.4 280.6,438.4 280.6,454.4 291.4,454.4" fill="rgba(200,220,255,0.3)" stroke="#006db7" stroke-width="1.5"/>
<polygon points="280.6,438.4 270.4,440.4 270.4,456.4 280.6,454.4" fill="rgba(200,220,255,0.3)" stroke="#006db7" stroke-width="1.5"/>
<polygon points="270.4,440.4 261.8,444.0 261.8,460.0 270.4,456.4" fill="rgba(200,220,255,0.3)" stroke="#006db7" stroke-width="1.5"/>
<polygon points="261.8,444.0 255.4,449.0 255.4,465.0 261.8,460.0" fill="rgba(200,220,255,0.3)" stroke="#006db7" stroke-width="1.5"/>
<polygon points="255.4,449.0 252.1,454.9 252.1,470.9 255.4,465.0" fill="rgba(200,220,255,0.3)" stroke="#006db7" stroke-width="1.5"/>
<polygon points="252.1,454.9 252.1,461.1 252.1,477.1 252.1,470.9" fill="rgba(200,220,255,0.3)" stroke="#006db7" stroke-width="1.5"/>
<polygon points="252.1,461.1 255.4,467.0 255.4,483.0 252.1,477.1" fill="rgba(200,220,255,0.3)" stroke="#006db7" stroke-width="1.5"/>
<polygon points="255.4,467.0 261.8,472.0 261.8,488.0 255.4,483.0" fill="rgba(200,220,255,0.3)" stroke="#006db7" stroke-width="1.5"/>
<polygon points="261.8,472.0 270.4,475.6 270.4,491.6 261.8,488.0" fill="rgba(200,220,255,0.3)" stroke="#006db7" stroke-width="1.5"/>
<polygon points="270.4,475.6 280.6,477.6 280.6,493.6 270.4,491.6" fill="rgba(200,220,255,0.3)" stroke="#006db7" stroke-width="1.5"/>
<polygon points="280.6,477.6 291.4,477.6 291.4,493.6 280.6,493.6" fill="rgba(200,220,255,0.3)" stroke="#006db7" stroke-width="1.5"/>
<polygon points="291.4,477.6 301.6,475.6 301.6,491.6 291.4,493.6" fill="rgba(200,220,255,0.3)" stroke="#006db7" stroke-width="1.5"/>
<polygon points="301.6,475.6 310.2,472.0 310.2,488.0 301.6,491.6" fill="rgba(200,220,255,0.3)" stroke="#006db7" stroke-width="1.5"/>
<polygon points="310.2,472.0 316.6,467.0 316.6,483.0 310.2,488.0" fill="rgba(200,220,255,0.3)" stroke="#006db7" stroke-width="1.5"/>
<polygon points="316.6,467.0 319.9,461.1 319.9,477.1 316.6,483.0" fill="rgba(200,220,255,0.3)" stroke="#006db7" stroke-width="1.5"/>
<polygon points="319.9,461.1 319.9,454.9 319.9,470.9 319.9,477.1" fill="rgba(200,220,255,0.3)" stroke="#006db7" stroke-width="1.5"/>
<polygon points="319.9,454.9 316.6,449.0 316.6,465.0 319.9,470.9" fill="rgba(200,220,255,0.3)" stroke="#006db7" stroke-width="1.5"/>
<polygon points="316.6,449.0 310.2,444.0 310.2,460.0 316.6,465.0" fill="rgba(200,220,255,0.3)" stroke="#006db7" stroke-width="1.5"/>
<polygon points="310.2,460.0 301.6,456.4 291.4,454.4 280.6,454.4 270.4,456.4 261.8,460.0 255.4,465.0 252.1,470.9 252.1,477.1 255.4,483.0 261.8,488.0 270.4,491.6 280.6,493.6 291.4,493.6 301.6,491.6 310.2,488.0 316.6,483.0 319.9,477.1 319.9,470.9 316.6,465.0" fill="rgba(200,220,255,0.6)" stroke="#006db7" stroke-width="1.5"/>
<text x="286" y="516" text-anchor="middle" font-family="'OpenDyslexic',sans-serif" font-weight="bold" font-size="10" fill="#607080">NOZZLE HOUSING</text>
<text x="286" y="528" text-anchor="middle" font-family="'OpenDyslexic',sans-serif" font-size="8" fill="#607080">PETG · 20% gyroid</text>
<polygon points="420.2,444.0 411.6,440.4 411.6,452.4 420.2,456.0" fill="#c8dff0" stroke="#006db7" stroke-width="2"/>
<polygon points="411.6,440.4 401.4,438.4 401.4,450.4 411.6,452.4" fill="#c8dff0" stroke="#006db7" stroke-width="2"/>
<polygon points="401.4,438.4 390.6,438.4 390.6,450.4 401.4,450.4" fill="#c8dff0" stroke="#006db7" stroke-width="2"/>
<polygon points="390.6,438.4 380.4,440.4 380.4,452.4 390.6,450.4" fill="#c8dff0" stroke="#006db7" stroke-width="2"/>
<polygon points="380.4,440.4 371.8,444.0 371.8,456.0 380.4,452.4" fill="#c8dff0" stroke="#006db7" stroke-width="2"/>
<polygon points="371.8,444.0 365.4,449.0 365.4,461.0 371.8,456.0" fill="#c8dff0" stroke="#006db7" stroke-width="2"/>
<polygon points="365.4,449.0 362.1,454.9 362.1,466.9 365.4,461.0" fill="#c8dff0" stroke="#006db7" stroke-width="2"/>
<polygon points="362.1,454.9 362.1,461.1 362.1,473.1 362.1,466.9" fill="#c8dff0" stroke="#006db7" stroke-width="2"/>
<polygon points="362.1,461.1 365.4,467.0 365.4,479.0 362.1,473.1" fill="#c8dff0" stroke="#006db7" stroke-width="2"/>
<polygon points="365.4,467.0 371.8,472.0 371.8,484.0 365.4,479.0" fill="#c8dff0" stroke="#006db7" stroke-width="2"/>
<polygon points="371.8,472.0 380.4,475.6 380.4,487.6 371.8,484.0" fill="#c8dff0" stroke="#006db7" stroke-width="2"/>
<polygon points="380.4,475.6 390.6,477.6 390.6,489.6 380.4,487.6" fill="#c8dff0" stroke="#006db7" stroke-width="2"/>
<polygon points="390.6,477.6 401.4,477.6 401.4,489.6 390.6,489.6" fill="#c8dff0" stroke="#006db7" stroke-width="2"/>
<polygon points="401.4,477.6 411.6,475.6 411.6,487.6 401.4,489.6" fill="#c8dff0" stroke="#006db7" stroke-width="2"/>
<polygon points="411.6,475.6 420.2,472.0 420.2,484.0 411.6,487.6" fill="#c8dff0" stroke="#006db7" stroke-width="2"/>
<polygon points="420.2,472.0 426.6,467.0 426.6,479.0 420.2,484.0" fill="#c8dff0" stroke="#006db7" stroke-width="2"/>
<polygon points="426.6,467.0 429.9,461.1 429.9,473.1 426.6,479.0" fill="#c8dff0" stroke="#006db7" stroke-width="2"/>
<polygon points="429.9,461.1 429.9,454.9 429.9,466.9 429.9,473.1" fill="#c8dff0" stroke="#006db7" stroke-width="2"/>
<polygon points="429.9,454.9 426.6,449.0 426.6,461.0 429.9,466.9" fill="#c8dff0" stroke="#006db7" stroke-width="2"/>
<polygon points="426.6,449.0 420.2,444.0 420.2,456.0 426.6,461.0" fill="#c8dff0" stroke="#006db7" stroke-width="2"/>
<polygon points="420.2,456.0 411.6,452.4 401.4,450.4 390.6,450.4 380.4,452.4 371.8,456.0 365.4,461.0 362.1,466.9 362.1,473.1 365.4,479.0 371.8,484.0 380.4,487.6 390.6,489.6 401.4,489.6 411.6,487.6 420.2,484.0 426.6,479.0 429.9,473.1 429.9,466.9 426.6,461.0" fill="#ffffff" stroke="#006db7" stroke-width="2"/>
<polygon points="415.1,447.0 408.2,444.1 408.2,456.1 415.1,459.0" fill="rgba(200,230,255,0.2)" stroke="#006db7" stroke-width="1"/>
<polygon points="408.2,444.1 400.2,442.6 400.2,454.6 408.2,456.1" fill="rgba(200,230,255,0.2)" stroke="#006db7" stroke-width="1"/>
<polygon points="400.2,442.6 391.8,442.6 391.8,454.6 400.2,454.6" fill="rgba(200,230,255,0.2)" stroke="#006db7" stroke-width="1"/>
<polygon points="391.8,442.6 383.8,444.1 383.8,456.1 391.8,454.6" fill="rgba(200,230,255,0.2)" stroke="#006db7" stroke-width="1"/>
<polygon points="383.8,444.1 376.9,447.0 376.9,459.0 383.8,456.1" fill="rgba(200,230,255,0.2)" stroke="#006db7" stroke-width="1"/>
<polygon points="376.9,447.0 372.0,450.9 372.0,462.9 376.9,459.0" fill="rgba(200,230,255,0.2)" stroke="#006db7" stroke-width="1"/>
<polygon points="372.0,450.9 369.4,455.6 369.4,467.6 372.0,462.9" fill="rgba(200,230,255,0.2)" stroke="#006db7" stroke-width="1"/>
<polygon points="369.4,455.6 369.4,460.4 369.4,472.4 369.4,467.6" fill="rgba(200,230,255,0.2)" stroke="#006db7" stroke-width="1"/>
<polygon points="369.4,460.4 372.0,465.1 372.0,477.1 369.4,472.4" fill="rgba(200,230,255,0.2)" stroke="#006db7" stroke-width="1"/>
<polygon points="372.0,465.1 376.9,469.0 376.9,481.0 372.0,477.1" fill="rgba(200,230,255,0.2)" stroke="#006db7" stroke-width="1"/>
<polygon points="376.9,469.0 383.8,471.9 383.8,483.9 376.9,481.0" fill="rgba(200,230,255,0.2)" stroke="#006db7" stroke-width="1"/>
<polygon points="383.8,471.9 391.8,473.4 391.8,485.4 383.8,483.9" fill="rgba(200,230,255,0.2)" stroke="#006db7" stroke-width="1"/>
<polygon points="391.8,473.4 400.2,473.4 400.2,485.4 391.8,485.4" fill="rgba(200,230,255,0.2)" stroke="#006db7" stroke-width="1"/>
<polygon points="400.2,473.4 408.2,471.9 408.2,483.9 400.2,485.4" fill="rgba(200,230,255,0.2)" stroke="#006db7" stroke-width="1"/>
<polygon points="408.2,471.9 415.1,469.0 415.1,481.0 408.2,483.9" fill="rgba(200,230,255,0.2)" stroke="#006db7" stroke-width="1"/>
<polygon points="415.1,469.0 420.0,465.1 420.0,477.1 415.1,481.0" fill="rgba(200,230,255,0.2)" stroke="#006db7" stroke-width="1"/>
<polygon points="420.0,465.1 422.6,460.4 422.6,472.4 420.0,477.1" fill="rgba(200,230,255,0.2)" stroke="#006db7" stroke-width="1"/>
<polygon points="422.6,460.4 422.6,455.6 422.6,467.6 422.6,472.4" fill="rgba(200,230,255,0.2)" stroke="#006db7" stroke-width="1"/>
<polygon points="422.6,455.6 420.0,450.9 420.0,462.9 422.6,467.6" fill="rgba(200,230,255,0.2)" stroke="#006db7" stroke-width="1"/>
<polygon points="420.0,450.9 415.1,447.0 415.1,459.0 420.0,462.9" fill="rgba(200,230,255,0.2)" stroke="#006db7" stroke-width="1"/>
<polygon points="415.1,459.0 408.2,456.1 400.2,454.6 391.8,454.6 383.8,456.1 376.9,459.0 372.0,462.9 369.4,467.6 369.4,472.4 372.0,477.1 376.9,481.0 383.8,483.9 391.8,485.4 400.2,485.4 408.2,483.9 415.1,481.0 420.0,477.1 422.6,472.4 422.6,467.6 420.0,462.9" fill="#c8dff0" stroke="#006db7" stroke-width="1"/>
<text x="396" y="512" text-anchor="middle" font-family="'OpenDyslexic',sans-serif" font-weight="bold" font-size="9" fill="#006db7">INNER RING</text>
<text x="396" y="524" text-anchor="middle" font-family="'OpenDyslexic',sans-serif" font-size="8" fill="#607080">CF-PETG vertical</text>
<polygon points="486.0,482.0 499.9,474.0 495.5,471.5 481.7,479.5"   fill="#b2ebf2"   stroke="#222222" stroke-width="1.2" stroke-linejoin="round"/>
<polygon points="486.0,478.0 499.9,470.0 499.9,474.0 486.0,482.0" fill="#00838f" stroke="#222222" stroke-width="1.2" stroke-linejoin="round"/>
<polygon points="499.9,470.0 495.5,467.5 495.5,471.5 499.9,474.0" fill="#00838f" stroke="#222222" stroke-width="1.2" stroke-linejoin="round"/>
<polygon points="514.0,482.0 527.9,474.0 523.5,471.5 509.7,479.5"   fill="#b2ebf2"   stroke="#222222" stroke-width="1.2" stroke-linejoin="round"/>
<polygon points="514.0,478.0 527.9,470.0 527.9,474.0 514.0,482.0" fill="#00838f" stroke="#222222" stroke-width="1.2" stroke-linejoin="round"/>
<polygon points="527.9,470.0 523.5,467.5 523.5,471.5 527.9,474.0" fill="#00838f" stroke="#222222" stroke-width="1.2" stroke-linejoin="round"/>
<polygon points="542.0,482.0 555.9,474.0 551.5,471.5 537.7,479.5"   fill="#b2ebf2"   stroke="#222222" stroke-width="1.2" stroke-linejoin="round"/>
<polygon points="542.0,478.0 555.9,470.0 555.9,474.0 542.0,482.0" fill="#00838f" stroke="#222222" stroke-width="1.2" stroke-linejoin="round"/>
<polygon points="555.9,470.0 551.5,467.5 551.5,471.5 555.9,474.0" fill="#00838f" stroke="#222222" stroke-width="1.2" stroke-linejoin="round"/>
<polygon points="570.0,482.0 583.9,474.0 579.5,471.5 565.7,479.5"   fill="#b2ebf2"   stroke="#222222" stroke-width="1.2" stroke-linejoin="round"/>
<polygon points="570.0,478.0 583.9,470.0 583.9,474.0 570.0,482.0" fill="#00838f" stroke="#222222" stroke-width="1.2" stroke-linejoin="round"/>
<polygon points="583.9,470.0 579.5,467.5 579.5,471.5 583.9,474.0" fill="#00838f" stroke="#222222" stroke-width="1.2" stroke-linejoin="round"/>
<text x="542" y="516" text-anchor="middle" font-family="'OpenDyslexic',sans-serif" font-weight="bold" font-size="9" fill="#00838f">8× FLAPS</text>
<text x="542" y="528" text-anchor="middle" font-family="'OpenDyslexic',sans-serif" font-size="8" fill="#607080">PETG · print flat</text>
<polygon points="655.1,447.0 648.2,444.1 648.2,448.1 655.1,451.0" fill="#fffac0" stroke="#ff7518" stroke-width="2"/>
<polygon points="648.2,444.1 640.2,442.6 640.2,446.6 648.2,448.1" fill="#fffac0" stroke="#ff7518" stroke-width="2"/>
<polygon points="640.2,442.6 631.8,442.6 631.8,446.6 640.2,446.6" fill="#fffac0" stroke="#ff7518" stroke-width="2"/>
<polygon points="631.8,442.6 623.8,444.1 623.8,448.1 631.8,446.6" fill="#fffac0" stroke="#ff7518" stroke-width="2"/>
<polygon points="623.8,444.1 616.9,447.0 616.9,451.0 623.8,448.1" fill="#fffac0" stroke="#ff7518" stroke-width="2"/>
<polygon points="616.9,447.0 612.0,450.9 612.0,454.9 616.9,451.0" fill="#fffac0" stroke="#ff7518" stroke-width="2"/>
<polygon points="612.0,450.9 609.4,455.6 609.4,459.6 612.0,454.9" fill="#fffac0" stroke="#ff7518" stroke-width="2"/>
<polygon points="609.4,455.6 609.4,460.4 609.4,464.4 609.4,459.6" fill="#fffac0" stroke="#ff7518" stroke-width="2"/>
<polygon points="609.4,460.4 612.0,465.1 612.0,469.1 609.4,464.4" fill="#fffac0" stroke="#ff7518" stroke-width="2"/>
<polygon points="612.0,465.1 616.9,469.0 616.9,473.0 612.0,469.1" fill="#fffac0" stroke="#ff7518" stroke-width="2"/>
<polygon points="616.9,469.0 623.8,471.9 623.8,475.9 616.9,473.0" fill="#fffac0" stroke="#ff7518" stroke-width="2"/>
<polygon points="623.8,471.9 631.8,473.4 631.8,477.4 623.8,475.9" fill="#fffac0" stroke="#ff7518" stroke-width="2"/>
<polygon points="631.8,473.4 640.2,473.4 640.2,477.4 631.8,477.4" fill="#fffac0" stroke="#ff7518" stroke-width="2"/>
<polygon points="640.2,473.4 648.2,471.9 648.2,475.9 640.2,477.4" fill="#fffac0" stroke="#ff7518" stroke-width="2"/>
<polygon points="648.2,471.9 655.1,469.0 655.1,473.0 648.2,475.9" fill="#fffac0" stroke="#ff7518" stroke-width="2"/>
<polygon points="655.1,469.0 660.0,465.1 660.0,469.1 655.1,473.0" fill="#fffac0" stroke="#ff7518" stroke-width="2"/>
<polygon points="660.0,465.1 662.6,460.4 662.6,464.4 660.0,469.1" fill="#fffac0" stroke="#ff7518" stroke-width="2"/>
<polygon points="662.6,460.4 662.6,455.6 662.6,459.6 662.6,464.4" fill="#fffac0" stroke="#ff7518" stroke-width="2"/>
<polygon points="662.6,455.6 660.0,450.9 660.0,454.9 662.6,459.6" fill="#fffac0" stroke="#ff7518" stroke-width="2"/>
<polygon points="660.0,450.9 655.1,447.0 655.1,451.0 660.0,454.9" fill="#fffac0" stroke="#ff7518" stroke-width="2"/>
<polygon points="655.1,451.0 648.2,448.1 640.2,446.6 631.8,446.6 623.8,448.1 616.9,451.0 612.0,454.9 609.4,459.6 609.4,464.4 612.0,469.1 616.9,473.0 623.8,475.9 631.8,477.4 640.2,477.4 648.2,475.9 655.1,473.0 660.0,469.1 662.6,464.4 662.6,459.6 660.0,454.9" fill="#f5c518" stroke="#ff7518" stroke-width="2"/>
<text x="636" y="510" text-anchor="middle" font-family="'OpenDyslexic',sans-serif" font-weight="bold" font-size="9" fill="#ff7518">SECTOR GEAR</text>
<text x="636" y="522" text-anchor="middle" font-family="'OpenDyslexic',sans-serif" font-size="8" fill="#607080">PETG · 40% · 0.12mm</text>
<circle cx="706" cy="428" r="22" fill="#ff7518" stroke="#222222" stroke-width="1.5"/>
<text x="706" y="432" text-anchor="middle" font-family="'OpenDyslexic',sans-serif" font-weight="bold" font-size="10" fill="#ffffff">M=1.0</text>
<text x="706" y="400" text-anchor="middle" font-family="'OpenDyslexic',sans-serif" font-size="9" fill="#ff7518">Gear module</text>
<polygon points="356.0,583.0 408.0,553.0 390.6,543.0 338.7,573.0"   fill="#90a4ae"   stroke="#222222" stroke-width="2" stroke-linejoin="round"/>
<polygon points="356.0,548.0 408.0,518.0 408.0,553.0 356.0,583.0" fill="#607d8b" stroke="#222222" stroke-width="2" stroke-linejoin="round"/>
<polygon points="408.0,518.0 390.6,508.0 390.6,543.0 408.0,553.0" fill="#546e7a" stroke="#222222" stroke-width="2" stroke-linejoin="round"/>
<text x="386" y="628" text-anchor="middle" font-family="'OpenDyslexic',sans-serif" font-weight="bold" font-size="9" fill="#37474f">TILT BRACKET</text>
<text x="386" y="640" text-anchor="middle" font-family="'OpenDyslexic',sans-serif" font-size="8" fill="#607080">CF-PETG · 40%</text>
</svg>
