<?xml version="1.0" encoding="UTF-8"?>
<!-- Serenity-Class Tiltrotor UAV — Build Guide — Step 18 — First Flight -->
<!-- © 2026 Steve Griffing PE(CSE) CISSP-ISSEP CPP  CC BY 4.0 -->
<!-- Hull: Peter Farell CC BY 4.0 | Nozzle: BamJr CC BY 4.0 -->
<!-- Visual: Firefly/Serenity © Joss Whedon/Mutant Enemy/Universal -->
<svg xmlns="http://www.w3.org/2000/svg" viewBox="0 0 1200 900" width="1200" height="900">
<rect width="1200" height="900" fill="#f5f0e8"/>
<rect x="0" y="0" width="1200" height="64" fill="#006db7"/>
<text x="24" y="24" font-family="'OpenDyslexic',sans-serif" font-weight="bold" font-size="14" fill="#ffffff" letter-spacing="2">SERENITY-CLASS TILTROTOR UAV</text>
<text x="24" y="46" font-family="'OpenDyslexic',sans-serif" font-size="11" fill="#c8dff0">Steve Griffing, PE(CSE), CISSP-ISSEP, CPP · CC BY 4.0 · 2026</text>
<rect x="1040" y="8" width="144" height="48" rx="6" fill="#ff7518"/>
<text x="1112" y="29" text-anchor="middle" font-family="'OpenDyslexic',sans-serif" font-weight="bold" font-size="11" fill="#ffffff">STEP</text>
<text x="1112" y="50" text-anchor="middle" font-family="'OpenDyslexic',sans-serif" font-weight="bold" font-size="22" fill="#ffffff">18 / 26</text>
<rect x="0" y="64" width="1200" height="40" fill="#dde4ea" rx="0"/>
<text x="24" y="90" font-family="'OpenDyslexic',sans-serif" font-weight="bold" font-size="16" fill="#006db7">PHASE 9 — FIRST FLIGHT</text>
<text x="500" y="90" font-family="'OpenDyslexic',sans-serif" font-size="12" fill="#607080">VTOL hover · transition test · cargo mission</text>
<rect x="0" y="872" width="1200" height="28" fill="#006db7"/>
<text x="600" y="890" text-anchor="middle" font-family="'OpenDyslexic',sans-serif" font-size="9" fill="#c8dff0">Hull: Peter Farell CC BY 4.0 · Nozzle: BamJr CC BY 4.0 · Visual inspiration: Firefly/Serenity © Joss Whedon/Mutant Enemy/Universal — Fan engineering work</text>
<rect x="16" y="112" width="720" height="752" rx="8" fill="#fffdf6" stroke="#dde4ea" stroke-width="1.5"/>
<rect x="752" y="112" width="432" height="752" rx="8" fill="#fffdf6" stroke="#dde4ea" stroke-width="1.5"/>
<rect x="760" y="120" width="416" height="114" rx="8" fill="#fffdf6" stroke="#006db7" stroke-width="2"/>
<rect x="760" y="120" width="416" height="28" rx="8" fill="#006db7"/>
<rect x="760" y="136" width="416" height="12" fill="#006db7"/>
<text x="968" y="139" text-anchor="middle" font-family="'OpenDyslexic',sans-serif" font-weight="bold" font-size="11" fill="#ffffff">PARTS NEEDED</text>
<rect x="768" y="145" width="26" height="16" rx="4" fill="#ff7518" stroke="#222222" stroke-width="1"/>
<text x="781" y="158" text-anchor="middle" font-family="'OpenDyslexic',sans-serif" font-weight="bold" font-size="10" fill="#ffffff">1×</text>
<text x="800" y="158" font-family="'OpenDyslexic',sans-serif" font-size="10" fill="#222222">Full battery (charged)</text>
<rect x="768" y="167" width="26" height="16" rx="4" fill="#006db7" stroke="#222222" stroke-width="1"/>
<text x="781" y="180" text-anchor="middle" font-family="'OpenDyslexic',sans-serif" font-weight="bold" font-size="10" fill="#ffffff">1×</text>
<text x="800" y="180" font-family="'OpenDyslexic',sans-serif" font-size="10" fill="#222222">QGC laptop + WiFi/SiK radio</text>
<rect x="768" y="189" width="26" height="16" rx="4" fill="#c2185b" stroke="#222222" stroke-width="1"/>
<text x="781" y="202" text-anchor="middle" font-family="'OpenDyslexic',sans-serif" font-weight="bold" font-size="10" fill="#ffffff">1×</text>
<text x="800" y="202" font-family="'OpenDyslexic',sans-serif" font-size="10" fill="#222222">RC transmitter (49MHz)</text>
<rect x="760" y="242" width="416" height="216" rx="8" fill="#fffdf6" stroke="#607080" stroke-width="1.5"/>
<rect x="760" y="242" width="416" height="28" rx="8" fill="#607080"/>
<rect x="760" y="258" width="416" height="12" fill="#607080"/>
<text x="968" y="261" text-anchor="middle" font-family="'OpenDyslexic',sans-serif" font-weight="bold" font-size="11" fill="#ffffff">INSTRUCTIONS</text>
<circle cx="776" cy="277" r="9" fill="#006db7"/>
<text x="776" y="281" text-anchor="middle" font-family="'OpenDyslexic',sans-serif" font-weight="bold" font-size="10" fill="#ffffff">1</text>
<text x="792" y="282" font-family="'OpenDyslexic',sans-serif" font-size="10" fill="#222222">Pre-flight ABCD: Airframe · Battery · Comms · Documentation</text>
<circle cx="776" cy="301" r="9" fill="#006db7"/>
<text x="776" y="305" text-anchor="middle" font-family="'OpenDyslexic',sans-serif" font-weight="bold" font-size="10" fill="#ffffff">2</text>
<text x="792" y="306" font-family="'OpenDyslexic',sans-serif" font-size="10" fill="#222222">Hover 1m AGL · hold 30s · land · inspect ESC temps &lt;60°C</text>
<circle cx="776" cy="325" r="9" fill="#006db7"/>
<text x="776" y="329" text-anchor="middle" font-family="'OpenDyslexic',sans-serif" font-weight="bold" font-size="10" fill="#ffffff">3</text>
<text x="792" y="330" font-family="'OpenDyslexic',sans-serif" font-size="10" fill="#222222">Hover 3m: test ±10° roll/pitch/yaw · verify altitude hold</text>
<circle cx="776" cy="349" r="9" fill="#006db7"/>
<text x="776" y="353" text-anchor="middle" font-family="'OpenDyslexic',sans-serif" font-weight="bold" font-size="10" fill="#ffffff">4</text>
<text x="792" y="354" font-family="'OpenDyslexic',sans-serif" font-size="10" fill="#222222">Transition ≥26ft AGL: monitor altitude ±5ft during nacelle sweep</text>
<circle cx="776" cy="373" r="9" fill="#006db7"/>
<text x="776" y="377" text-anchor="middle" font-family="'OpenDyslexic',sans-serif" font-weight="bold" font-size="10" fill="#ffffff">5</text>
<text x="792" y="378" font-family="'OpenDyslexic',sans-serif" font-size="10" fill="#222222">Verify nozzle closes automatically during sweep to cruise</text>
<circle cx="776" cy="397" r="9" fill="#006db7"/>
<text x="776" y="401" text-anchor="middle" font-family="'OpenDyslexic',sans-serif" font-weight="bold" font-size="10" fill="#ffffff">6</text>
<text x="792" y="402" font-family="'OpenDyslexic',sans-serif" font-size="10" fill="#222222">Record telemetry: hover amperage vs calculated (±10%)</text>
<circle cx="776" cy="421" r="9" fill="#006db7"/>
<text x="776" y="425" text-anchor="middle" font-family="'OpenDyslexic',sans-serif" font-weight="bold" font-size="10" fill="#ffffff">7</text>
<text x="792" y="426" font-family="'OpenDyslexic',sans-serif" font-size="10" fill="#222222">Cargo test: 250g payload · hover · winch deploy · retract · land</text>
<rect x="760" y="470" width="416" height="36" rx="6" fill="#fffac0" stroke="#ff7518" stroke-width="2"/><text x="778" y="485" font-family="'OpenDyslexic',sans-serif" font-weight="bold" font-size="14" fill="#ff7518">⚠</text><text x="796" y="492" font-family="'OpenDyslexic',sans-serif" font-size="10" fill="#222222">US: Part 107 required for commercial ops. Register aircraft (>250g AUW)</text>
<rect x="760" y="514" width="416" height="36" rx="6" fill="#fffac0" stroke="#ff7518" stroke-width="2"/><text x="778" y="529" font-family="'OpenDyslexic',sans-serif" font-weight="bold" font-size="14" fill="#ff7518">⚠</text><text x="796" y="536" font-family="'OpenDyslexic',sans-serif" font-size="10" fill="#222222">Maintain visual line of sight (VLOS) at all times per FAA Part 107</text>
<rect x="760" y="558" width="416" height="32" rx="6" fill="#b2ebf2" stroke="#00838f" stroke-width="1.5"/><text x="770" y="572" font-family="'OpenDyslexic',sans-serif" font-weight="bold" font-size="10" fill="#00838f">ℹ</text><text x="786" y="578" font-family="'OpenDyslexic',sans-serif" font-size="9.5" fill="#222222">First transition: have a spotter watching altitude during nacelle sweep</text>
<defs>
  <style>
    @import url('https://fonts.cdnfonts.com/css/opendyslexic');
    @media screen {
      text, tspan, .label, .note, .dim {
        font-family: 'OpenDyslexic','OpenDyslexicMono',sans-serif !important;
      }
    }
    @media print {
      svg { background: #ffffff !important; }
      text, tspan { fill: #111111 !important; font-family: 'OpenDyslexic',sans-serif !important; }
      rect[fill^="rgba"], rect[fill^="#0"] { fill: #f5f5f5 !important; }
    }
  </style><linearGradient id="sky" x1="0" y1="0" x2="0" y2="1"><stop offset="0" stop-color="#87ceeb"/><stop offset="1" stop-color="#e8f5e9"/></linearGradient></defs>
<rect x="16" y="112" width="720" height="752" rx="8" fill="url(#sky)"/>
<rect x="16" y="648" width="720" height="216" rx="8" fill="#a5d6a7"/>
<polygon points="96,428 112,417 140,410 162,409 201,406 238,410 261,414 285,421 304,419 325,417 370,421 370,433 325,435 304,434 285,433 261,438 238,440 201,442 162,441 140,440 112,435 96,428" fill="rgba(10,50,150,0.7)" stroke="#006db7" stroke-width="2"/>
<ellipse cx="212" cy="268" rx="8" ry="4" fill="rgba(150,200,255,0.2)" stroke="rgba(150,200,255,0.3)" stroke-width="1"/>
<ellipse cx="212" cy="260" rx="13" ry="6" fill="rgba(150,200,255,0.2)" stroke="rgba(150,200,255,0.3)" stroke-width="1"/>
<ellipse cx="212" cy="252" rx="18" ry="8" fill="rgba(150,200,255,0.2)" stroke="rgba(150,200,255,0.3)" stroke-width="1"/>
<ellipse cx="212" cy="588" rx="8" ry="4" fill="rgba(150,200,255,0.2)" stroke="rgba(150,200,255,0.3)" stroke-width="1"/>
<ellipse cx="212" cy="596" rx="13" ry="6" fill="rgba(150,200,255,0.2)" stroke="rgba(150,200,255,0.3)" stroke-width="1"/>
<ellipse cx="212" cy="604" rx="18" ry="8" fill="rgba(150,200,255,0.2)" stroke="rgba(150,200,255,0.3)" stroke-width="1"/>
<line x1="576" y1="628" x2="576" y2="408" stroke="#2e7d32" stroke-width="2" stroke-dasharray="5 3"/>
<line x1="576.0" y1="628.0" x2="576.0" y2="408.0" stroke="#2e7d32" stroke-width="2" stroke-dasharray="8 4"/><polygon points="576.0,408.0 580.7,419.1 571.3,419.1" fill="#2e7d32"/>
<text x="596" y="518" font-family="'OpenDyslexic',sans-serif" font-weight="bold" font-size="10" fill="#2e7d32">≥26 ft AGL</text>
<text x="596" y="532" font-family="'OpenDyslexic',sans-serif" font-size="8" fill="#607080">min transition altitude</text>
<path d="M196,428 Q376,308 536,428" fill="none" stroke="#ff7518" stroke-width="3" stroke-dasharray="8 4"/>
<text x="376" y="293" text-anchor="middle" font-family="'OpenDyslexic',sans-serif" font-weight="bold" font-size="10" fill="#ff7518">VTOL→CRUISE TRANSITION PATH</text>
<rect x="556" y="388" width="200" height="120" rx="8" fill="#fffdf6" stroke="#006db7" stroke-width="2"/>
<text x="656" y="406" text-anchor="middle" font-family="'OpenDyslexic',sans-serif" font-weight="bold" font-size="11" fill="#006db7">PRE-FLIGHT ABCD</text>
<circle cx="570" cy="428" r="10" fill="#2e7d32"/>
<text x="570" y="432" text-anchor="middle" font-family="'OpenDyslexic',sans-serif" font-weight="bold" font-size="9" fill="#ffffff">A</text>
<text x="586" y="432" font-family="'OpenDyslexic',sans-serif" font-size="9" fill="#222222">Airframe checks</text>
<circle cx="570" cy="450" r="10" fill="#f5c518"/>
<text x="570" y="454" text-anchor="middle" font-family="'OpenDyslexic',sans-serif" font-weight="bold" font-size="9" fill="#ffffff">B</text>
<text x="586" y="454" font-family="'OpenDyslexic',sans-serif" font-size="9" fill="#222222">Battery charged + secured</text>
<circle cx="570" cy="472" r="10" fill="#ff7518"/>
<text x="570" y="476" text-anchor="middle" font-family="'OpenDyslexic',sans-serif" font-weight="bold" font-size="9" fill="#ffffff">C</text>
<text x="586" y="476" font-family="'OpenDyslexic',sans-serif" font-size="9" fill="#222222">Comms: GCS + RC link</text>
<circle cx="570" cy="494" r="10" fill="#006db7"/>
<text x="570" y="498" text-anchor="middle" font-family="'OpenDyslexic',sans-serif" font-weight="bold" font-size="9" fill="#ffffff">D</text>
<text x="586" y="498" font-family="'OpenDyslexic',sans-serif" font-size="9" fill="#222222">Docs: Part 107 cert + NOTAM</text>
<text x="316" y="668" text-anchor="middle" font-family="'OpenDyslexic',sans-serif" font-weight="bold" font-size="16" fill="#006db7">🎉 BUILD COMPLETE  —  FLY SAFE!</text>
</svg>
