<?xml version="1.0" encoding="UTF-8"?>
<!-- Serenity-Class Tiltrotor UAV — Build Guide — Step 14 — Antennas -->
<!-- © 2026 Steve Griffing PE(CSE) CISSP-ISSEP CPP  CC BY 4.0 -->
<!-- Hull: Peter Farell CC BY 4.0 | Nozzle: BamJr CC BY 4.0 -->
<!-- Visual: Firefly/Serenity © Joss Whedon/Mutant Enemy/Universal -->
<svg xmlns="http://www.w3.org/2000/svg" viewBox="0 0 1200 900" width="1200" height="900">
<defs>
  <style>
    @import url('https://fonts.cdnfonts.com/css/opendyslexic');
    @media screen {
      text, tspan, .label, .note, .dim {
        font-family: 'OpenDyslexic','OpenDyslexicMono',sans-serif !important;
      }
    }
    @media print {
      svg { background: #ffffff !important; }
      text, tspan { fill: #111111 !important; font-family: 'OpenDyslexic',sans-serif !important; }
      rect[fill^="rgba"], rect[fill^="#0"] { fill: #f5f5f5 !important; }
    }
  </style>
</defs>
<rect width="1200" height="900" fill="#f5f0e8"/>
<rect x="0" y="0" width="1200" height="64" fill="#006db7"/>
<text x="24" y="24" font-family="'OpenDyslexic',sans-serif" font-weight="bold" font-size="14" fill="#ffffff" letter-spacing="2">SERENITY-CLASS TILTROTOR UAV</text>
<text x="24" y="46" font-family="'OpenDyslexic',sans-serif" font-size="11" fill="#c8dff0">Steve Griffing, PE(CSE), CISSP-ISSEP, CPP · CC BY 4.0 · 2026</text>
<rect x="1040" y="8" width="144" height="48" rx="6" fill="#ff7518"/>
<text x="1112" y="29" text-anchor="middle" font-family="'OpenDyslexic',sans-serif" font-weight="bold" font-size="11" fill="#ffffff">STEP</text>
<text x="1112" y="50" text-anchor="middle" font-family="'OpenDyslexic',sans-serif" font-weight="bold" font-size="22" fill="#ffffff">14 / 26</text>
<rect x="0" y="64" width="1200" height="40" fill="#dde4ea" rx="0"/>
<text x="24" y="90" font-family="'OpenDyslexic',sans-serif" font-weight="bold" font-size="16" fill="#006db7">PHASE 1 — ANTENNA + SENSOR INSTALLATION</text>
<text x="500" y="90" font-family="'OpenDyslexic',sans-serif" font-size="12" fill="#607080">GPS · 49MHz dorsal · SiK belly · WiFi SMA</text>
<rect x="0" y="872" width="1200" height="28" fill="#006db7"/>
<text x="600" y="890" text-anchor="middle" font-family="'OpenDyslexic',sans-serif" font-size="9" fill="#c8dff0">Hull: Peter Farell CC BY 4.0 · Nozzle: BamJr CC BY 4.0 · Visual inspiration: Firefly/Serenity © Joss Whedon/Mutant Enemy/Universal — Fan engineering work</text>
<rect x="16" y="112" width="720" height="752" rx="8" fill="#fffdf6" stroke="#dde4ea" stroke-width="1.5"/>
<rect x="752" y="112" width="432" height="752" rx="8" fill="#fffdf6" stroke="#dde4ea" stroke-width="1.5"/>
<rect x="760" y="120" width="416" height="136" rx="8" fill="#fffdf6" stroke="#006db7" stroke-width="2"/>
<rect x="760" y="120" width="416" height="28" rx="8" fill="#006db7"/>
<rect x="760" y="136" width="416" height="12" fill="#006db7"/>
<text x="968" y="139" text-anchor="middle" font-family="'OpenDyslexic',sans-serif" font-weight="bold" font-size="11" fill="#ffffff">PARTS NEEDED</text>
<rect x="768" y="145" width="26" height="16" rx="4" fill="#2e7d32" stroke="#222222" stroke-width="1"/>
<text x="781" y="158" text-anchor="middle" font-family="'OpenDyslexic',sans-serif" font-weight="bold" font-size="10" fill="#ffffff">1×</text>
<text x="800" y="158" font-family="'OpenDyslexic',sans-serif" font-size="10" fill="#222222">GPS 25×25mm patch + U.FL coax</text>
<rect x="768" y="167" width="26" height="16" rx="4" fill="#c2185b" stroke="#222222" stroke-width="1"/>
<text x="781" y="180" text-anchor="middle" font-family="'OpenDyslexic',sans-serif" font-weight="bold" font-size="10" fill="#ffffff">1×</text>
<text x="800" y="180" font-family="'OpenDyslexic',sans-serif" font-size="10" fill="#222222">49MHz whip + coil + radials</text>
<rect x="768" y="189" width="26" height="16" rx="4" fill="#ff7518" stroke="#222222" stroke-width="1"/>
<text x="781" y="202" text-anchor="middle" font-family="'OpenDyslexic',sans-serif" font-weight="bold" font-size="10" fill="#ffffff">1×</text>
<text x="800" y="202" font-family="'OpenDyslexic',sans-serif" font-size="10" fill="#222222">SMA-RP bulkhead + SiK pigtail</text>
<rect x="768" y="211" width="26" height="16" rx="4" fill="#6a1b9a" stroke="#222222" stroke-width="1"/>
<text x="781" y="224" text-anchor="middle" font-family="'OpenDyslexic',sans-serif" font-weight="bold" font-size="10" fill="#ffffff">2×</text>
<text x="800" y="224" font-family="'OpenDyslexic',sans-serif" font-size="10" fill="#222222">SMA external WiFi antennas</text>
<rect x="760" y="264" width="416" height="216" rx="8" fill="#fffdf6" stroke="#607080" stroke-width="1.5"/>
<rect x="760" y="264" width="416" height="28" rx="8" fill="#607080"/>
<rect x="760" y="280" width="416" height="12" fill="#607080"/>
<text x="968" y="283" text-anchor="middle" font-family="'OpenDyslexic',sans-serif" font-weight="bold" font-size="11" fill="#ffffff">INSTRUCTIONS</text>
<circle cx="776" cy="299" r="9" fill="#006db7"/>
<text x="776" y="303" text-anchor="middle" font-family="'OpenDyslexic',sans-serif" font-weight="bold" font-size="10" fill="#ffffff">1</text>
<text x="792" y="304" font-family="'OpenDyslexic',sans-serif" font-size="10" fill="#222222">Install SMA-RP bulkhead in flush cutout at belly port, sta 260mm</text>
<circle cx="776" cy="323" r="9" fill="#006db7"/>
<text x="776" y="327" text-anchor="middle" font-family="'OpenDyslexic',sans-serif" font-weight="bold" font-size="10" fill="#ffffff">2</text>
<text x="792" y="328" font-family="'OpenDyslexic',sans-serif" font-size="10" fill="#222222">Thread SiK 915MHz antenna to SMA-RP (belly port) · route coax to CAPE-B-1</text>
<circle cx="776" cy="347" r="9" fill="#006db7"/>
<text x="776" y="351" text-anchor="middle" font-family="'OpenDyslexic',sans-serif" font-weight="bold" font-size="10" fill="#ffffff">3</text>
<text x="792" y="352" font-family="'OpenDyslexic',sans-serif" font-size="10" fill="#222222">Install GPS 25×25mm patch in recess at mid-fuselage dorsal, sta 140mm</text>
<circle cx="776" cy="371" r="9" fill="#006db7"/>
<text x="776" y="375" text-anchor="middle" font-family="'OpenDyslexic',sans-serif" font-weight="bold" font-size="10" fill="#ffffff">4</text>
<text x="792" y="376" font-family="'OpenDyslexic',sans-serif" font-size="10" fill="#222222">Install 49MHz fwd wire post (PETG mast, ~10mm tall) at dorsal sta 120mm + LC pi-network</text>
<circle cx="776" cy="395" r="9" fill="#006db7"/>
<text x="776" y="399" text-anchor="middle" font-family="'OpenDyslexic',sans-serif" font-weight="bold" font-size="10" fill="#ffffff">5</text>
<text x="792" y="400" font-family="'OpenDyslexic',sans-serif" font-size="10" fill="#222222">String 0.3mm stainless wire ~470mm from fwd post to aft post at rear nozzle cone top</text>
<circle cx="776" cy="419" r="9" fill="#006db7"/>
<text x="776" y="423" text-anchor="middle" font-family="'OpenDyslexic',sans-serif" font-weight="bold" font-size="10" fill="#ffffff">6</text>
<text x="792" y="424" font-family="'OpenDyslexic',sans-serif" font-size="10" fill="#222222">Install LoRa RFM95W SMA-RP at belly stbd, sta 260mm</text>
<circle cx="776" cy="443" r="9" fill="#006db7"/>
<text x="776" y="447" text-anchor="middle" font-family="'OpenDyslexic',sans-serif" font-weight="bold" font-size="10" fill="#ffffff">7</text>
<text x="792" y="448" font-family="'OpenDyslexic',sans-serif" font-size="10" fill="#222222">Install WiFi/BT antenna at dorsal fwd, sta 140mm</text>
<rect x="760" y="492" width="416" height="36" rx="6" fill="#fffac0" stroke="#ff7518" stroke-width="2"/><text x="778" y="507" font-family="'OpenDyslexic',sans-serif" font-weight="bold" font-size="14" fill="#ff7518">⚠</text><text x="796" y="514" font-family="'OpenDyslexic',sans-serif" font-size="10" fill="#222222">Verify GPS HDOP ≤1.5 with all radios transmitting before first flight</text>
<rect x="760" y="536" width="416" height="32" rx="6" fill="#b2ebf2" stroke="#00838f" stroke-width="1.5"/><text x="770" y="550" font-family="'OpenDyslexic',sans-serif" font-weight="bold" font-size="10" fill="#00838f">ℹ</text><text x="786" y="556" font-family="'OpenDyslexic',sans-serif" font-size="9.5" fill="#222222">GPS at 140mm · 49MHz fwd post at 120mm · bench-verify GPS HDOP ≤1.5 with RCRS-49 TX before flight</text>
<path d="M 96,488 L 114,471 L 142,459 L 166,458 L 208,454 L 248,459 L 272,465 L 300,478 L 318,475 L 340,472 L 388,477 L 388,495 L 340,498 L 318,497 L 300,494 L 272,503 L 248,507 L 208,510 L 166,508 L 142,507 L 114,499 L 96,488 Z" fill="rgba(0,80,150,0.1)" stroke="#006db7" stroke-width="1.5"/>
<rect x="135" y="452" width="22" height="9" rx="2" fill="rgba(74,222,128,0.35)" stroke="#2e7d32" stroke-width="2"/>
<text x="146" y="448" text-anchor="middle" font-family="'OpenDyslexic',sans-serif" font-weight="bold" font-size="9" fill="#2e7d32">GPS PATCH</text>
<text x="146" y="437" text-anchor="middle" font-family="'OpenDyslexic',sans-serif" font-size="7" fill="#2e7d32">58mm from nose</text>
<text x="146" y="427" text-anchor="middle" font-family="'OpenDyslexic',sans-serif" font-size="7" fill="#2e7d32">25×25mm RHCP · 12mm standoff</text>
<circle cx="328" cy="475" r="5" fill="rgba(244,114,182,0.3)" stroke="#c2185b" stroke-width="1.5"/>
<line x1="328" y1="470" x2="328" y2="410" stroke="#c2185b" stroke-width="3" stroke-linecap="round"/>
<ellipse cx="328" cy="457" rx="5" ry="3" fill="none" stroke="#c2185b" stroke-width="1" opacity="0.8"/>
<ellipse cx="328" cy="447" rx="5" ry="3" fill="none" stroke="#c2185b" stroke-width="1" opacity="0.8"/>
<ellipse cx="328" cy="437" rx="5" ry="3" fill="none" stroke="#c2185b" stroke-width="1" opacity="0.8"/>
<ellipse cx="328" cy="427" rx="5" ry="3" fill="none" stroke="#c2185b" stroke-width="1" opacity="0.8"/>
<text x="346" y="410" font-family="'OpenDyslexic',sans-serif" font-weight="bold" font-size="9" fill="#c2185b">49MHz WHIP</text>
<text x="346" y="422" font-family="'OpenDyslexic',sans-serif" font-size="7" fill="#607080">290mm dorsal · 250mm element</text>
<text x="346" y="433" font-family="'OpenDyslexic',sans-serif" font-size="7" fill="#607080">+38μH coil + 4×150mm radials</text>
<rect x="282" y="510" width="8" height="3" rx="1" fill="#ff7518"/>
<line x1="286" y1="513" x2="286" y2="552" stroke="#ff7518" stroke-width="3" stroke-linecap="round"/>
<text x="286" y="566" text-anchor="middle" font-family="'OpenDyslexic',sans-serif" font-weight="bold" font-size="9" fill="#ff7518">SiK 915MHz↓</text>
<text x="286" y="578" text-anchor="middle" font-family="'OpenDyslexic',sans-serif" font-size="7" fill="#607080">238mm belly · 82mm (3.2") whip</text>
<text x="286" y="588" text-anchor="middle" font-family="'OpenDyslexic',sans-serif" font-size="7" fill="#607080">6.5mm hole · SMA-RP bulkhead</text>
<rect x="244" y="470" width="40" height="36" rx="3" fill="rgba(192,132,252,0.1)" stroke="#6a1b9a" stroke-width="1" stroke-dasharray="4 2"/>
<text x="264" y="486" text-anchor="middle" font-family="'OpenDyslexic',sans-serif" font-size="7" fill="#6a1b9a">WiFi internal</text>
<text x="264" y="498" text-anchor="middle" font-family="'OpenDyslexic',sans-serif" font-size="7" fill="#6a1b9a">SMA-1+SMA-2</text>
<line x1="146" y1="578" x2="328" y2="578" stroke="#f5c518" stroke-width="1.5" stroke-dasharray="4 2" opacity="0.7"/>
<text x="237" y="592" text-anchor="middle" font-family="'OpenDyslexic',sans-serif" font-size="8" fill="#f5c518">232mm separation GPS↔49MHz ✔ (min 150mm)</text>
<rect x="536" y="438" width="160" height="50" rx="6" fill="#fffac0" stroke="#ff7518" stroke-width="1.5"/>
<text x="616" y="454" text-anchor="middle" font-family="'OpenDyslexic',sans-serif" font-weight="bold" font-size="10" fill="#222222">49MHz SWR target</text>
<text x="616" y="470" text-anchor="middle" font-family="'OpenDyslexic',sans-serif" font-weight="bold" font-size="14" fill="#ff7518">≤ 2.5:1</text>
<text x="616" y="484" text-anchor="middle" font-family="'OpenDyslexic',sans-serif" font-size="8" fill="#607080">use nanoVNA to verify</text>
</svg>
