<?xml version="1.0" encoding="UTF-8"?>
<svg xmlns="http://www.w3.org/2000/svg" width="1200" height="920" viewBox="0 0 1200 920">
  <defs>
    <style>
      @import url('https://fonts.cdnfonts.com/css/opendyslexic');
      text { font-family: 'OpenDyslexic', 'Arial', sans-serif; }
    </style>
    <marker id="arr" markerWidth="7" markerHeight="7" refX="6" refY="3.5" orient="auto">
      <polygon points="0 0, 7 3.5, 0 7" fill="#444444"/>
    </marker>
    <marker id="arw" markerWidth="7" markerHeight="7" refX="6" refY="3.5" orient="auto">
      <polygon points="0 0, 7 3.5, 0 7" fill="#ffffff"/>
    </marker>
  </defs>

  <!-- Background -->
  <rect width="1200" height="920" fill="#f5f0e8"/>

  <!-- Header -->
  <rect x="0" y="0" width="1200" height="52" fill="#006db7"/>
  <text x="600" y="34" text-anchor="middle" font-size="18" font-weight="bold" fill="#ffffff">SERENITY-CLASS TILTROTOR — BUILD GUIDE</text>

  <!-- Step badge -->
  <rect x="28" y="62" width="78" height="30" rx="4" fill="#006db7"/>
  <text x="67" y="82" text-anchor="middle" font-size="13" font-weight="bold" fill="#ffffff">25 / 27</text>

  <!-- Phase badge -->
  <rect x="116" y="62" width="360" height="30" rx="4" fill="#2e7d32"/>
  <text x="296" y="82" text-anchor="middle" font-size="13" font-weight="bold" fill="#ffffff">PHASE 4 — OBSTACLE AVOIDANCE SENSORS</text>

  <!-- CC badge -->
  <text x="1172" y="80" text-anchor="end" font-size="8" fill="#555555">© 2026 Steve Griffing PE(CSE) CISSP-ISSEP CPP · CC BY 4.0</text>

  <!-- ═══════════════════════════════════════════════════════════════════ -->
  <!-- LEFT COLUMN: Hull top-view with sensor positions                   -->
  <!-- ═══════════════════════════════════════════════════════════════════ -->
  <rect x="18" y="102" width="560" height="290" rx="6" fill="#ffffff" stroke="#cccccc" stroke-width="1"/>
  <text x="298" y="120" text-anchor="middle" font-size="11" font-weight="bold" fill="#333333">SENSOR PLACEMENT — TOP VIEW (18&quot; hull, not to scale)</text>

  <!-- Hull top-view outline (simplified, port=upper, stbd=lower) -->
  <!-- Hull polygon: nose left at x=60, tail right at x=530, CL at y=247 -->
  <polygon points="60,247 72,234 92,225 118,216 150,212 200,210 250,213 310,215 350,218 390,222 430,230 455,240 468,247 455,254 430,264 390,272 350,277 310,280 250,282 200,285 150,283 118,278 92,269 72,260"
    fill="#e8f0ff" stroke="#006db7" stroke-width="2"/>
  <!-- Cockpit dome -->
  <ellipse cx="105" cy="247" rx="36" ry="18" fill="#b3d4ff" stroke="#006db7" stroke-width="1.2"/>
  <!-- Engine bell -->
  <circle cx="448" cy="247" r="22" fill="#fff3b0" stroke="#cc8800" stroke-width="1.5"/>
  <text x="448" y="251" text-anchor="middle" font-size="7.5" fill="#886600">EDF</text>

  <!-- Pitot -->
  <line x1="60" y1="247" x2="40" y2="247" stroke="#009090" stroke-width="3" stroke-linecap="round"/>

  <!-- Nacelle arms (port=up, stbd=down) -->
  <!-- Port arm: from hull at x≈210,y≈210 out to nacelle at x≈210,y=155 -->
  <line x1="210" y1="213" x2="210" y2="165" stroke="#006db7" stroke-width="5" stroke-linecap="round"/>
  <ellipse cx="210" cy="148" rx="55" ry="22" fill="#ffd0a0" stroke="#cc6600" stroke-width="2"/>
  <text x="210" y="152" text-anchor="middle" font-size="7" fill="#883300">PORT NAC</text>
  <!-- Stbd arm -->
  <line x1="210" y1="281" x2="210" y2="329" stroke="#006db7" stroke-width="5" stroke-linecap="round"/>
  <ellipse cx="210" cy="346" rx="55" ry="22" fill="#ffd0a0" stroke="#cc6600" stroke-width="2"/>
  <text x="210" y="350" text-anchor="middle" font-size="7" fill="#883300">STBD NAC</text>

  <!-- CG line -->
  <line x1="310" y1="200" x2="310" y2="294" stroke="#2e7d32" stroke-width="1" stroke-dasharray="5,3"/>
  <text x="310" y="197" text-anchor="middle" font-size="7" fill="#2e7d32">CG</text>

  <!-- Payload bay -->
  <rect x="230" y="228" width="88" height="38" rx="3" fill="none" stroke="#c62870" stroke-width="1.2" stroke-dasharray="4,2"/>
  <text x="274" y="250" text-anchor="middle" font-size="7" fill="#c62870">CARGO BAY</text>

  <!-- ── SENSOR POSITIONS ── -->
  <!-- S1 Forward (red) -->
  <circle cx="66" cy="247" r="8" fill="#c62828" stroke="#ffffff" stroke-width="1.5"/>
  <text x="66" y="251" text-anchor="middle" font-size="7.5" font-weight="bold" fill="#ffffff">S1</text>
  <text x="46" y="238" text-anchor="middle" font-size="8" fill="#c62828">FWD</text>

  <!-- S2 Aft (amber) -->
  <circle cx="455" cy="247" r="8" fill="#e65100" stroke="#ffffff" stroke-width="1.5"/>
  <text x="455" y="251" text-anchor="middle" font-size="7.5" font-weight="bold" fill="#ffffff">S2</text>
  <text x="474" y="238" font-size="8" fill="#e65100">AFT</text>

  <!-- S3 Port (blue) -->
  <circle cx="298" cy="210" r="8" fill="#1565c0" stroke="#ffffff" stroke-width="1.5"/>
  <text x="298" y="214" text-anchor="middle" font-size="7.5" font-weight="bold" fill="#ffffff">S3</text>
  <text x="298" y="202" text-anchor="middle" font-size="8" fill="#1565c0">PORT</text>

  <!-- S4 Starboard (green) -->
  <circle cx="298" cy="284" r="8" fill="#2e7d32" stroke="#ffffff" stroke-width="1.5"/>
  <text x="298" y="288" text-anchor="middle" font-size="7.5" font-weight="bold" fill="#ffffff">S4</text>
  <text x="298" y="298" text-anchor="middle" font-size="8" fill="#2e7d32">STBD</text>

  <!-- S5 Zenith (purple) — shown as star on top view -->
  <circle cx="260" cy="247" r="7" fill="#6a1b9a" stroke="#ffffff" stroke-width="1.5" stroke-dasharray="2,1"/>
  <text x="260" y="251" text-anchor="middle" font-size="6.5" font-weight="bold" fill="#ffffff">S5</text>
  <text x="248" y="240" font-size="7.5" fill="#6a1b9a">ZEN</text>

  <!-- S6 Nadir (teal) — shown on top view -->
  <circle cx="230" cy="247" r="7" fill="#00838f" stroke="#ffffff" stroke-width="1.5" stroke-dasharray="2,1"/>
  <text x="230" y="251" text-anchor="middle" font-size="6.5" font-weight="bold" fill="#ffffff">S6</text>
  <text x="218" y="240" font-size="7.5" fill="#00838f">NAD</text>

  <!-- Coverage cones (transparent wedges) -->
  <!-- S1 forward cone -->
  <polygon points="66,247 40,220 40,274" fill="#c62828" opacity="0.12"/>
  <!-- S2 aft cone -->
  <polygon points="455,247 530,210 530,284" fill="#e65100" opacity="0.12"/>
  <!-- S3 port cone -->
  <polygon points="298,210 262,165 334,165" fill="#1565c0" opacity="0.12"/>
  <!-- S4 stbd cone -->
  <polygon points="298,284 262,329 334,329" fill="#2e7d32" opacity="0.12"/>

  <!-- Sensor colour legend -->
  <text x="30" y="376" font-size="9" font-weight="bold" fill="#333333">SENSOR KEY:</text>
  <circle cx="42" cy="385" r="5" fill="#c62828"/><text x="52" y="389" font-size="8" fill="#333333">S1 Forward (sta 25mm nose)</text>
  <circle cx="180" cy="385" r="5" fill="#e65100"/><text x="190" y="389" font-size="8" fill="#333333">S2 Aft (sta 440mm bell)</text>
  <circle cx="305" cy="385" r="5" fill="#1565c0"/><text x="315" y="389" font-size="8" fill="#333333">S3 Port (sta 200mm side)</text>
  <circle cx="430" cy="385" r="5" fill="#2e7d32"/><text x="440" y="389" font-size="8" fill="#333333">S4 Stbd (sta 200mm side)</text>
  <circle cx="42" cy="398" r="5" fill="#6a1b9a" stroke-dasharray="2,1"/><text x="52" y="402" font-size="8" fill="#333333">S5 Zenith (sta 180mm dorsal apex)</text>
  <circle cx="180" cy="398" r="5" fill="#00838f" stroke-dasharray="2,1"/><text x="190" y="402" font-size="8" fill="#333333">S6 Nadir (sta 160mm belly blister)</text>

  <!-- ═══════════════════════════════════════════════════════════════════ -->
  <!-- RIGHT COLUMN: Side view + aperture detail                          -->
  <!-- ═══════════════════════════════════════════════════════════════════ -->
  <rect x="590" y="102" width="590" height="290" rx="6" fill="#ffffff" stroke="#cccccc" stroke-width="1"/>
  <text x="885" y="120" text-anchor="middle" font-size="11" font-weight="bold" fill="#333333">SENSOR PLACEMENT — SIDE VIEW</text>

  <!-- Side-view hull outline -->
  <!-- Hull silhouette: nose left x=640, tail x=1120, waterline y=247 -->
  <!-- Upper profile -->
  <path d="M640,247 C650,230 670,212 710,205 C760,198 820,196 880,198 C940,200 980,208 1010,218 C1040,228 1060,238 1080,247 C1080,247 1080,247 1120,247"
    fill="none" stroke="#006db7" stroke-width="2"/>
  <!-- Lower profile -->
  <path d="M640,247 C650,264 670,278 710,284 C760,290 820,292 880,290 C940,288 980,282 1010,272 C1040,262 1060,252 1080,247"
    fill="none" stroke="#006db7" stroke-width="2"/>
  <!-- Hull fill -->
  <path d="M640,247 C650,230 670,212 710,205 C760,198 820,196 880,198 C940,200 980,208 1010,218 C1040,228 1060,238 1080,247 C1080,247 1060,252 1040,262 C1010,272 980,282 940,288 C880,290 820,292 760,290 C710,284 670,278 640,247Z"
    fill="#e8f0ff" stroke="#006db7" stroke-width="1.5"/>

  <!-- Nose detail -->
  <ellipse cx="648" cy="247" rx="16" ry="24" fill="#b3d4ff" stroke="#006db7" stroke-width="1"/>

  <!-- Engine bell -->
  <circle cx="1095" cy="247" r="28" fill="#fff3b0" stroke="#cc8800" stroke-width="1.5"/>
  <text x="1095" y="251" text-anchor="middle" font-size="7" fill="#886600">40mm EDF</text>

  <!-- Cargo gondola belly -->
  <rect x="790" y="288" width="100" height="22" rx="4" fill="#ffd0e0" stroke="#c62870" stroke-width="1.5"/>
  <text x="840" y="303" text-anchor="middle" font-size="7" fill="#c62870">GONDOLA</text>

  <!-- Station markers -->
  <line x1="660" y1="310" x2="660" y2="326" stroke="#999999" stroke-width="0.8"/>
  <text x="660" y="336" text-anchor="middle" font-size="7" fill="#666666">0mm</text>
  <line x1="755" y1="310" x2="755" y2="326" stroke="#999999" stroke-width="0.8"/>
  <text x="755" y="336" text-anchor="middle" font-size="7" fill="#666666">160mm</text>
  <line x1="795" y1="310" x2="795" y2="326" stroke="#999999" stroke-width="0.8"/>
  <text x="795" y="336" text-anchor="middle" font-size="7" fill="#666666">200mm</text>
  <line x1="843" y1="310" x2="843" y2="326" stroke="#999999" stroke-width="0.8"/>
  <text x="843" y="336" text-anchor="middle" font-size="7" fill="#666666">270mm</text>
  <line x1="1085" y1="310" x2="1085" y2="326" stroke="#999999" stroke-width="0.8"/>
  <text x="1085" y="336" text-anchor="middle" font-size="7" fill="#666666">440mm</text>

  <!-- ── SENSOR POSITIONS (side view) ── -->
  <!-- S1 Forward -->
  <circle cx="666" cy="247" r="7" fill="#c62828" stroke="#ffffff" stroke-width="1.5"/>
  <text x="666" y="251" text-anchor="middle" font-size="6.5" font-weight="bold" fill="#ffffff">S1</text>
  <line x1="642" y1="247" x2="610" y2="247" stroke="#c62828" stroke-width="1" marker-end="url(#arr)"/>
  <text x="607" y="243" text-anchor="end" font-size="8" fill="#c62828">FWD cone</text>
  <text x="607" y="253" text-anchor="end" font-size="7" fill="#c62828">65° FoV</text>

  <!-- S2 Aft -->
  <circle cx="1090" cy="247" r="7" fill="#e65100" stroke="#ffffff" stroke-width="1.5"/>
  <text x="1090" y="251" text-anchor="middle" font-size="6.5" font-weight="bold" fill="#ffffff">S2</text>
  <line x1="1100" y1="247" x2="1130" y2="247" stroke="#e65100" stroke-width="1" marker-end="url(#arr)"/>
  <text x="1132" y="251" font-size="8" fill="#e65100">AFT</text>

  <!-- S3 Port (top of side view) -->
  <circle cx="795" cy="204" r="7" fill="#1565c0" stroke="#ffffff" stroke-width="1.5"/>
  <text x="795" y="208" text-anchor="middle" font-size="6.5" font-weight="bold" fill="#ffffff">S3</text>
  <line x1="795" y1="194" x2="795" y2="170" stroke="#1565c0" stroke-width="1" marker-end="url(#arr)"/>
  <text x="795" y="167" text-anchor="middle" font-size="8" fill="#1565c0">PORT</text>

  <!-- S4 Stbd (same position, other side — shown with dashes in side view) -->
  <circle cx="795" cy="290" r="7" fill="#2e7d32" stroke="#ffffff" stroke-width="1.5" stroke-dasharray="2,1"/>
  <text x="795" y="294" text-anchor="middle" font-size="6.5" font-weight="bold" fill="#ffffff">S4</text>
  <line x1="795" y1="300" x2="795" y2="320" stroke="#2e7d32" stroke-width="1" marker-end="url(#arr)"/>
  <text x="795" y="329" text-anchor="middle" font-size="8" fill="#2e7d32">STBD</text>

  <!-- S5 Zenith -->
  <circle cx="843" cy="198" r="7" fill="#6a1b9a" stroke="#ffffff" stroke-width="1.5"/>
  <text x="843" y="202" text-anchor="middle" font-size="6.5" font-weight="bold" fill="#ffffff">S5</text>
  <line x1="843" y1="188" x2="843" y2="165" stroke="#6a1b9a" stroke-width="1" marker-end="url(#arr)"/>
  <text x="843" y="162" text-anchor="middle" font-size="8" fill="#6a1b9a">ZENITH</text>

  <!-- S6 Nadir -->
  <circle cx="755" cy="286" r="7" fill="#00838f" stroke="#ffffff" stroke-width="1.5"/>
  <text x="755" y="290" text-anchor="middle" font-size="6.5" font-weight="bold" fill="#ffffff">S6</text>
  <line x1="755" y1="296" x2="755" y2="316" stroke="#00838f" stroke-width="1" marker-end="url(#arr)"/>
  <text x="755" y="325" text-anchor="middle" font-size="8" fill="#00838f">NADIR</text>

  <!-- Aperture detail inset -->
  <rect x="596" y="356" width="200" height="32" rx="4" fill="#fff8e8" stroke="#888888" stroke-width="1"/>
  <text x="696" y="369" text-anchor="middle" font-size="8.5" font-weight="bold" fill="#333333">FLUSH MOUNT DETAIL (cross-section)</text>
  <text x="606" y="381" font-size="7.5" fill="#333333">5mm PMMA disc → 0.5mm, UV-cured · sensor seats on 0.3mm PETG shoulder · M1.6×4 screws ×2</text>

  <!-- ═══════════════════════════════════════════════════════════════════ -->
  <!-- BOTTOM LEFT: Coverage map                                          -->
  <!-- ═══════════════════════════════════════════════════════════════════ -->
  <rect x="18" y="412" width="380" height="290" rx="6" fill="#ffffff" stroke="#cccccc" stroke-width="1"/>
  <text x="208" y="430" text-anchor="middle" font-size="11" font-weight="bold" fill="#333333">OMNIDIRECTIONAL COVERAGE MAP</text>
  <text x="208" y="442" text-anchor="middle" font-size="8" fill="#555555">(horizontal plane view, sensor at centre)</text>

  <!-- Coverage radial diagram -->
  <!-- Centre at 208, 570 -->
  <!-- Drone body (small hexagon) -->
  <polygon points="208,545 226,555 226,575 208,585 190,575 190,555" fill="#d0e8ff" stroke="#006db7" stroke-width="1.5"/>
  <text x="208" y="568" text-anchor="middle" font-size="7.5" fill="#006db7">UAV</text>

  <!-- S1 Forward wedge (red, 0° = right = east in top-down view) -->
  <path d="M208,565 L280,530 L308,565 L280,600 Z" fill="#c62828" opacity="0.20"/>
  <line x1="208" y1="565" x2="310" y2="565" stroke="#c62828" stroke-width="1.5" stroke-dasharray="4,2"/>
  <text x="320" y="569" font-size="9" font-weight="bold" fill="#c62828">S1</text>
  <text x="320" y="579" font-size="7.5" fill="#c62828">FWD</text>

  <!-- S2 Aft wedge (amber, 180°) -->
  <path d="M208,565 L136,530 L108,565 L136,600 Z" fill="#e65100" opacity="0.20"/>
  <line x1="208" y1="565" x2="106" y2="565" stroke="#e65100" stroke-width="1.5" stroke-dasharray="4,2"/>
  <text x="56" y="562" text-anchor="middle" font-size="9" font-weight="bold" fill="#e65100">S2</text>
  <text x="56" y="572" text-anchor="middle" font-size="7.5" fill="#e65100">AFT</text>

  <!-- S3 Port wedge (blue, 90° "up" in map) -->
  <path d="M208,565 L173,493 L208,465 L243,493 Z" fill="#1565c0" opacity="0.20"/>
  <line x1="208" y1="565" x2="208" y2="463" stroke="#1565c0" stroke-width="1.5" stroke-dasharray="4,2"/>
  <text x="208" y="455" text-anchor="middle" font-size="9" font-weight="bold" fill="#1565c0">S3 PORT</text>

  <!-- S4 Stbd wedge (green, 270°) -->
  <path d="M208,565 L173,637 L208,665 L243,637 Z" fill="#2e7d32" opacity="0.20"/>
  <line x1="208" y1="565" x2="208" y2="667" stroke="#2e7d32" stroke-width="1.5" stroke-dasharray="4,2"/>
  <text x="208" y="679" text-anchor="middle" font-size="9" font-weight="bold" fill="#2e7d32">S4 STBD</text>

  <!-- Range rings -->
  <circle cx="208" cy="565" r="40" fill="none" stroke="#cccccc" stroke-width="0.5" stroke-dasharray="3,2"/>
  <circle cx="208" cy="565" r="80" fill="none" stroke="#cccccc" stroke-width="0.5" stroke-dasharray="3,2"/>
  <circle cx="208" cy="565" r="120" fill="none" stroke="#aaaaaa" stroke-width="0.7" stroke-dasharray="3,2"/>
  <text x="252" y="528" font-size="7" fill="#888888">1m</text>
  <text x="292" y="498" font-size="7" fill="#888888">2m</text>
  <text x="332" y="470" font-size="7" fill="#888888">3m</text>

  <!-- Zenith/Nadir note -->
  <rect x="24" y="678" width="370" height="18" rx="3" fill="#f3e5f5"/>
  <text x="209" y="690" text-anchor="middle" font-size="8" fill="#6a1b9a">S5 Zenith + S6 Nadir not shown (vertical plane — 4m range each)</text>

  <!-- ═══════════════════════════════════════════════════════════════════ -->
  <!-- BOTTOM CENTRE: I²C wiring topology                                 -->
  <!-- ═══════════════════════════════════════════════════════════════════ -->
  <rect x="408" y="412" width="380" height="290" rx="6" fill="#ffffff" stroke="#cccccc" stroke-width="1"/>
  <text x="598" y="430" text-anchor="middle" font-size="11" font-weight="bold" fill="#333333">I&#xB2;C WIRING TOPOLOGY</text>
  <text x="598" y="444" text-anchor="middle" font-size="8" fill="#555555">Node 3 (Panel D) → TCA9548A mux → 6&#xD7; VL53L5CX</text>

  <!-- Node 3 box -->
  <rect x="440" y="456" width="120" height="38" rx="5" fill="#006db7" stroke="#003d7a" stroke-width="1.5"/>
  <text x="500" y="471" text-anchor="middle" font-size="9.5" font-weight="bold" fill="#ffffff">NODE 3</text>
  <text x="500" y="484" text-anchor="middle" font-size="7.5" fill="#b3d4ff">I&#xB2;C bus (SDA/SCL)</text>

  <!-- MUX box -->
  <rect x="440" y="520" width="120" height="38" rx="5" fill="#4a148c" stroke="#7b1fa2" stroke-width="1.5"/>
  <text x="500" y="535" text-anchor="middle" font-size="9" font-weight="bold" fill="#ffffff">TCA9548A</text>
  <text x="500" y="548" text-anchor="middle" font-size="7.5" fill="#e1bee7">I&#xB2;C mux ch 0–5</text>

  <!-- MCP23008 box -->
  <rect x="570" y="520" width="110" height="38" rx="5" fill="#1a237e" stroke="#3949ab" stroke-width="1.5"/>
  <text x="625" y="535" text-anchor="middle" font-size="8.5" font-weight="bold" fill="#ffffff">MCP23008</text>
  <text x="625" y="548" text-anchor="middle" font-size="7.5" fill="#c5cae9">XSHUT GP0–5</text>

  <!-- Connecting lines Node3 → mux -->
  <line x1="500" y1="494" x2="500" y2="520" stroke="#444444" stroke-width="1.5" marker-end="url(#arr)"/>
  <text x="474" y="511" font-size="7.5" fill="#333333">0x70</text>

  <!-- Node3 → MCP -->
  <line x1="560" y1="475" x2="625" y2="520" stroke="#444444" stroke-width="1.2" stroke-dasharray="4,2" marker-end="url(#arr)"/>
  <text x="600" y="507" font-size="7.5" fill="#333333">0x20</text>

  <!-- Sensor boxes -->
  <rect x="418" y="590" width="66" height="26" rx="3" fill="#c62828"/>
  <text x="451" y="607" text-anchor="middle" font-size="7.5" fill="#ffffff">S1 FWD</text>
  <rect x="494" y="590" width="66" height="26" rx="3" fill="#e65100"/>
  <text x="527" y="607" text-anchor="middle" font-size="7.5" fill="#ffffff">S2 AFT</text>
  <rect x="418" y="626" width="66" height="26" rx="3" fill="#1565c0"/>
  <text x="451" y="643" text-anchor="middle" font-size="7.5" fill="#ffffff">S3 PORT</text>
  <rect x="494" y="626" width="66" height="26" rx="3" fill="#2e7d32"/>
  <text x="527" y="643" text-anchor="middle" font-size="7.5" fill="#ffffff">S4 STBD</text>
  <rect x="418" y="662" width="66" height="26" rx="3" fill="#6a1b9a"/>
  <text x="451" y="679" text-anchor="middle" font-size="7.5" fill="#ffffff">S5 ZEN</text>
  <rect x="494" y="662" width="66" height="26" rx="3" fill="#00838f"/>
  <text x="527" y="679" text-anchor="middle" font-size="7.5" fill="#ffffff">S6 NAD</text>

  <!-- Mux → sensor lines -->
  <line x1="480" y1="558" x2="480" y2="590" stroke="#888888" stroke-width="1" marker-end="url(#arr)"/>
  <line x1="500" y1="558" x2="500" y2="590" stroke="#888888" stroke-width="1" marker-end="url(#arr)"/>
  <line x1="460" y1="558" x2="451" y2="590" stroke="#888888" stroke-width="1" marker-end="url(#arr)"/>
  <line x1="510" y1="558" x2="527" y2="590" stroke="#888888" stroke-width="1" marker-end="url(#arr)"/>
  <line x1="470" y1="558" x2="451" y2="626" stroke="#888888" stroke-width="1" marker-end="url(#arr)"/>
  <line x1="520" y1="558" x2="527" y2="626" stroke="#888888" stroke-width="1" marker-end="url(#arr)"/>

  <!-- I2C channel labels -->
  <text x="598" y="575" font-size="7.5" fill="#555555">ch0  ch1  ch2  ch3  ch4  ch5</text>

  <!-- VCC note -->
  <text x="416" y="700" font-size="7.5" fill="#444444">All sensors: 2.8V (on-board LDO) or 3.3V via SENSORHAT I/O rail</text>
  <text x="416" y="712" font-size="7.5" fill="#444444">XSHUT: active-LOW shutdown. Pulled HIGH via 10k on MCP23008 output.</text>

  <!-- ═══════════════════════════════════════════════════════════════════ -->
  <!-- BOTTOM RIGHT: Build steps                                          -->
  <!-- ═══════════════════════════════════════════════════════════════════ -->
  <rect x="798" y="412" width="382" height="290" rx="6" fill="#ffffff" stroke="#cccccc" stroke-width="1"/>
  <text x="989" y="430" text-anchor="middle" font-size="11" font-weight="bold" fill="#333333">INSTALLATION STEPS</text>

  <!-- Steps -->
  <circle cx="822" cy="448" r="9" fill="#2e7d32"/>
  <text x="822" y="452" text-anchor="middle" font-size="9" font-weight="bold" fill="#ffffff">1</text>
  <text x="836" y="452" font-size="9" fill="#222222">Print 6&#xD7; tof_flush_mount_5mm.stl in PETG (100% infill).</text>

  <circle cx="822" cy="469" r="9" fill="#2e7d32"/>
  <text x="822" y="473" text-anchor="middle" font-size="9" font-weight="bold" fill="#ffffff">2</text>
  <text x="836" y="473" font-size="9" fill="#222222">Cut 6&#xD7; PMMA discs (5mm dia, 0.5mm) from clear acrylic sheet.</text>

  <circle cx="822" cy="490" r="9" fill="#2e7d32"/>
  <text x="822" y="494" text-anchor="middle" font-size="9" font-weight="bold" fill="#ffffff">3</text>
  <text x="836" y="494" font-size="9" fill="#222222">Mark sensor positions on hull: S1@25mm, S2@440mm, S3/S4@200mm,</text>
  <text x="836" y="504" font-size="9" fill="#222222">   S5@180mm dorsal, S6@160mm belly.</text>

  <circle cx="822" cy="517" r="9" fill="#2e7d32"/>
  <text x="822" y="521" text-anchor="middle" font-size="9" font-weight="bold" fill="#ffffff">4</text>
  <text x="836" y="521" font-size="9" fill="#222222">Drill 6.5mm hole at each position. Deburr from inside.</text>

  <circle cx="822" cy="538" r="9" fill="#2e7d32"/>
  <text x="822" y="542" text-anchor="middle" font-size="9" font-weight="bold" fill="#ffffff">5</text>
  <text x="836" y="542" font-size="9" fill="#222222">Press-fit sensor mount into hole. Secure with 2&#xD7; M1.6&#xD7;4 screws.</text>

  <circle cx="822" cy="559" r="9" fill="#2e7d32"/>
  <text x="822" y="563" text-anchor="middle" font-size="9" font-weight="bold" fill="#ffffff">6</text>
  <text x="836" y="563" font-size="9" fill="#222222">Solder VL53L5CX onto breakout PCB. Attach 4-wire JST-SH1.0 cable.</text>

  <circle cx="822" cy="580" r="9" fill="#2e7d32"/>
  <text x="822" y="584" text-anchor="middle" font-size="9" font-weight="bold" fill="#ffffff">7</text>
  <text x="836" y="584" font-size="9" fill="#222222">Seat sensor PCB in mount shoulder. Apply UV adhesive to PMMA disc,</text>
  <text x="836" y="594" font-size="9" fill="#222222">   place over aperture, cure 60s with UV torch.</text>

  <circle cx="822" cy="607" r="9" fill="#2e7d32"/>
  <text x="822" y="611" text-anchor="middle" font-size="9" font-weight="bold" fill="#ffffff">8</text>
  <text x="836" y="611" font-size="9" fill="#222222">Route cables through foam conduits / hull ribs to Panel D bay.</text>

  <circle cx="822" cy="628" r="9" fill="#2e7d32"/>
  <text x="822" y="632" text-anchor="middle" font-size="9" font-weight="bold" fill="#ffffff">9</text>
  <text x="836" y="632" font-size="9" fill="#222222">Assemble TCA9548A + MCP23008 on shared PCB. Connect to Node 3 I&#xB2;C.</text>

  <circle cx="822" cy="649" r="9" fill="#2e7d32"/>
  <text x="822" y="653" text-anchor="middle" font-size="9" font-weight="bold" fill="#ffffff">10</text>
  <text x="836" y="653" font-size="9" fill="#222222">Connect 6 sensor SDA/SCL to TCA9548A ch 0–5. XSHUT to MCP23008 GP0–5.</text>

  <circle cx="822" cy="670" r="9" fill="#2e7d32"/>
  <text x="822" y="674" text-anchor="middle" font-size="9" font-weight="bold" fill="#ffffff">11</text>
  <text x="836" y="674" font-size="9" fill="#222222">Flash Node 3 with vl53l5cx_mux firmware. Boot assigns addresses</text>
  <text x="836" y="684" font-size="9" fill="#222222">   0x54–0x59 via XSHUT sequence. Verify 6&#xD7; &#x22;OK&#x22; in sensor_check log.</text>

  <circle cx="822" cy="697" r="9" fill="#2e7d32"/>
  <text x="822" y="701" text-anchor="middle" font-size="9" font-weight="bold" fill="#ffffff">12</text>
  <text x="836" y="701" font-size="9" fill="#222222">Indoor hover test: approach wall at 0.5m/s — verify FC holds 0.4m distance</text>
  <text x="836" y="711" font-size="9" fill="#222222">   on all axes. Check nadir reading during takeoff (&lt;0.5m AGL = hold).</text>

  <!-- ═══════════════════════════════════════════════════════════════════ -->
  <!-- Warning banner                                                      -->
  <!-- ═══════════════════════════════════════════════════════════════════ -->
  <rect x="18" y="710" width="560" height="32" rx="4" fill="#fff3cd" stroke="#cc8800" stroke-width="1.2"/>
  <text x="298" y="724" text-anchor="middle" font-size="9" font-weight="bold" fill="#7d4e00">&#x26A0; DO NOT obstruct apertures with paint, foam, or tape.</text>
  <text x="298" y="736" text-anchor="middle" font-size="8.5" fill="#7d4e00">Keep PMMA disc optically clear. VL53L5CX VCSEL is class 1 eye-safe.</text>

  <!-- Sensor spec table -->
  <rect x="18" y="750" width="560" height="62" rx="4" fill="#f0f4ff" stroke="#4060c0" stroke-width="1"/>
  <text x="298" y="765" text-anchor="middle" font-size="9" font-weight="bold" fill="#333333">VL53L5CX SPECIFICATIONS</text>
  <text x="28" y="778" font-size="8.5" fill="#333333">Sensor:  ST VL53L5CX multizone Time-of-Flight (SPAD array)</text>
  <text x="28" y="789" font-size="8.5" fill="#333333">Range:   0.4 – 4.0 m indoor · 65&#xB0; diagonal FoV · 8&#xD7;8 zones = 64 distance points/frame</text>
  <text x="28" y="800" font-size="8.5" fill="#333333">Rate:    15 Hz full-resolution · I&#xB2;C at 1 MHz · Package 6.4&#xD7;3.0&#xD7;1.5 mm · 2.8 V VDD · Class 1 VCSEL</text>

  <!-- Attribution -->
  <text x="600" y="908" text-anchor="middle" font-size="7.5" fill="#777777">© 2026 Steve Griffing, PE(CSE) CISSP-ISSEP CPP · CC BY 4.0 · Visual inspiration: Firefly/Serenity © Joss Whedon/Mutant Enemy/Universal — Fan engineering</text>
</svg>
