<?xml version="1.0" encoding="UTF-8"?>
<svg xmlns="http://www.w3.org/2000/svg" width="1200" height="920" viewBox="0 0 1200 920">
  <defs>
    <style>
      @import url('https://fonts.cdnfonts.com/css/opendyslexic');
      text { font-family: 'OpenDyslexic', 'Arial', sans-serif; }
    </style>
    <marker id="arr" markerWidth="7" markerHeight="7" refX="6" refY="3.5" orient="auto">
      <polygon points="0 0, 7 3.5, 0 7" fill="#444444"/>
    </marker>
  </defs>

  <!-- Background -->
  <rect width="1200" height="920" fill="#f5f0e8"/>

  <!-- Header -->
  <rect x="0" y="0" width="1200" height="52" fill="#006db7"/>
  <text x="600" y="34" text-anchor="middle" font-size="18" font-weight="bold" fill="#ffffff">SERENITY-CLASS TILTROTOR — BUILD GUIDE</text>

  <!-- Step badge -->
  <rect x="28" y="62" width="78" height="30" rx="4" fill="#006db7"/>
  <text x="67" y="82" text-anchor="middle" font-size="13" font-weight="bold" fill="#ffffff">25 / 27</text>

  <!-- Phase badge -->
  <rect x="116" y="62" width="480" height="30" rx="4" fill="#2e7d32"/>
  <text x="356" y="82" text-anchor="middle" font-size="13" font-weight="bold" fill="#ffffff">PHASE 4 — DUAL REDUNDANT OBSTACLE AVOIDANCE ARRAYS</text>

  <!-- CC badge -->
  <text x="1172" y="80" text-anchor="end" font-size="8" fill="#555555">© 2026 Steve Griffing PE(CSE) CISSP-ISSEP CPP · CC BY 4.0</text>

  <!-- ═══════════════════════════════════════════════════════════════════ -->
  <!-- LEFT PANEL: Hull top-view with dual-array sensor positions          -->
  <!-- ═══════════════════════════════════════════════════════════════════ -->
  <rect x="18" y="102" width="580" height="295" rx="6" fill="#ffffff" stroke="#cccccc" stroke-width="1"/>
  <text x="308" y="120" text-anchor="middle" font-size="11" font-weight="bold" fill="#333333">SENSOR PLACEMENT — TOP VIEW (18&quot; hull, not to scale)</text>
  <text x="308" y="132" text-anchor="middle" font-size="8" fill="#555555">● Array A (Node 3, solid) · ○ Array B (Node 2, hollow) — fully independent buses</text>

  <!-- Hull outline: nose left x=60, tail right ~x=468, CL y=247 -->
  <polygon points="60,247 72,234 92,225 118,216 150,212 200,210 250,213 310,215 350,218 390,222 430,230 455,240 468,247 455,254 430,264 390,272 350,277 310,280 250,282 200,285 150,283 118,278 92,269 72,260"
    fill="#e8f0ff" stroke="#006db7" stroke-width="2"/>
  <!-- Cockpit dome -->
  <ellipse cx="105" cy="247" rx="36" ry="18" fill="#b3d4ff" stroke="#006db7" stroke-width="1.2"/>
  <!-- Engine bell -->
  <circle cx="448" cy="247" r="22" fill="#fff3b0" stroke="#cc8800" stroke-width="1.5"/>
  <text x="448" y="251" text-anchor="middle" font-size="7.5" fill="#886600">EDF</text>
  <!-- Pitot -->
  <line x1="60" y1="247" x2="40" y2="247" stroke="#009090" stroke-width="3" stroke-linecap="round"/>
  <!-- Nacelle arms -->
  <line x1="210" y1="213" x2="210" y2="165" stroke="#006db7" stroke-width="5" stroke-linecap="round"/>
  <ellipse cx="210" cy="148" rx="55" ry="22" fill="#ffd0a0" stroke="#cc6600" stroke-width="2"/>
  <text x="210" y="152" text-anchor="middle" font-size="7" fill="#883300">PORT NAC</text>
  <line x1="210" y1="281" x2="210" y2="329" stroke="#006db7" stroke-width="5" stroke-linecap="round"/>
  <ellipse cx="210" cy="346" rx="55" ry="22" fill="#ffd0a0" stroke="#cc6600" stroke-width="2"/>
  <text x="210" y="350" text-anchor="middle" font-size="7" fill="#883300">STBD NAC</text>
  <!-- CG line -->
  <line x1="310" y1="200" x2="310" y2="294" stroke="#2e7d32" stroke-width="1" stroke-dasharray="5,3"/>
  <text x="310" y="197" text-anchor="middle" font-size="7" fill="#2e7d32">CG</text>
  <!-- Payload bay -->
  <rect x="230" y="228" width="88" height="38" rx="3" fill="none" stroke="#c62870" stroke-width="1.2" stroke-dasharray="4,2"/>
  <text x="274" y="250" text-anchor="middle" font-size="7" fill="#c62870">CARGO BAY</text>

  <!-- ── ARRAY B FoV CONES (behind, lighter) ── -->
  <!-- S1B fwd: apex cx=79,cy=247, range to left edge = 79-18=61px, hw=0.637×61=39 -->
  <polygon points="79,247 18,208 18,286" fill="#c62828" opacity="0.07"/>
  <!-- S2B aft: apex cx=442,cy=247, range to right = 578-442=136, hw=87 -->
  <polygon points="442,247 578,160 578,334" fill="#e65100" opacity="0.07"/>
  <!-- S3B port: apex cx=253,cy=208, range up = 208-102=106, hw=67 -->
  <polygon points="253,208 186,102 320,102" fill="#1565c0" opacity="0.07"/>
  <!-- S4B stbd: apex cx=253,cy=286, range down = 392-286=106, hw=67 -->
  <polygon points="253,286 186,392 320,392" fill="#2e7d32" opacity="0.07"/>

  <!-- ── ARRAY A FoV CONES (in front, stronger) ── -->
  <!-- S1A fwd: apex cx=66,cy=247, range=66-18=48, hw=0.637×48=31 -->
  <polygon points="66,247 18,216 18,278" fill="#c62828" opacity="0.14"/>
  <!-- S2A aft: apex cx=455,cy=247, range=578-455=123, hw=78 -->
  <polygon points="455,247 578,169 578,325" fill="#e65100" opacity="0.14"/>
  <!-- S3A port: apex cx=298,cy=210, range=210-102=108, hw=69 -->
  <polygon points="298,210 229,102 367,102" fill="#1565c0" opacity="0.14"/>
  <!-- S4A stbd: apex cx=298,cy=284, range=392-284=108, hw=69 -->
  <polygon points="298,284 229,392 367,392" fill="#2e7d32" opacity="0.14"/>
  <!-- Overlap annotation (forward) -->
  <rect x="18" y="228" width="40" height="14" rx="2" fill="#c62828" opacity="0.18"/>
  <text x="38" y="238" text-anchor="middle" font-size="6.5" fill="#c62828">A+B overlap</text>

  <!-- ── ARRAY B SENSORS (hollow dashed circles) ── -->
  <!-- S1B Forward (red hollow, sta 40mm) -->
  <circle cx="79" cy="247" r="8" fill="none" stroke="#c62828" stroke-width="1.8" stroke-dasharray="3,1.5"/>
  <text x="79" y="251" text-anchor="middle" font-size="6" font-weight="bold" fill="#c62828">S1B</text>
  <!-- S2B Aft (orange hollow, sta 425mm) -->
  <circle cx="442" cy="247" r="8" fill="none" stroke="#e65100" stroke-width="1.8" stroke-dasharray="3,1.5"/>
  <text x="442" y="251" text-anchor="middle" font-size="6" font-weight="bold" fill="#e65100">S2B</text>
  <!-- S3B Port (blue hollow, sta 150mm) -->
  <circle cx="253" cy="208" r="8" fill="none" stroke="#1565c0" stroke-width="1.8" stroke-dasharray="3,1.5"/>
  <text x="253" y="212" text-anchor="middle" font-size="6" font-weight="bold" fill="#1565c0">S3B</text>
  <!-- S4B Stbd (green hollow, sta 150mm) -->
  <circle cx="253" cy="286" r="8" fill="none" stroke="#2e7d32" stroke-width="1.8" stroke-dasharray="3,1.5"/>
  <text x="253" y="290" text-anchor="middle" font-size="6" font-weight="bold" fill="#2e7d32">S4B</text>
  <!-- S5B Zenith (purple hollow, sta 260mm) -->
  <circle cx="331" cy="247" r="7" fill="none" stroke="#6a1b9a" stroke-width="1.5" stroke-dasharray="2,1.5"/>
  <text x="331" y="251" text-anchor="middle" font-size="5.5" font-weight="bold" fill="#6a1b9a">S5B</text>
  <!-- S6B Nadir (teal hollow, sta 220mm) -->
  <circle cx="283" cy="247" r="7" fill="none" stroke="#00838f" stroke-width="1.5" stroke-dasharray="2,1.5"/>
  <text x="283" y="251" text-anchor="middle" font-size="5.5" font-weight="bold" fill="#00838f">S6B</text>

  <!-- ── ARRAY A SENSORS (solid circles) ── -->
  <!-- S1A Forward (red solid, sta 25mm) -->
  <circle cx="66" cy="247" r="8" fill="#c62828" stroke="#ffffff" stroke-width="1.5"/>
  <text x="66" y="251" text-anchor="middle" font-size="6.5" font-weight="bold" fill="#ffffff">S1A</text>
  <text x="46" y="236" text-anchor="middle" font-size="7.5" fill="#c62828">FWD</text>
  <!-- S2A Aft (amber solid, sta 440mm) -->
  <circle cx="455" cy="247" r="8" fill="#e65100" stroke="#ffffff" stroke-width="1.5"/>
  <text x="455" y="251" text-anchor="middle" font-size="6.5" font-weight="bold" fill="#ffffff">S2A</text>
  <text x="474" y="238" font-size="7.5" fill="#e65100">AFT</text>
  <!-- S3A Port (blue solid, sta 200mm) -->
  <circle cx="298" cy="210" r="8" fill="#1565c0" stroke="#ffffff" stroke-width="1.5"/>
  <text x="298" y="214" text-anchor="middle" font-size="6.5" font-weight="bold" fill="#ffffff">S3A</text>
  <text x="298" y="200" text-anchor="middle" font-size="7.5" fill="#1565c0">PORT</text>
  <!-- S4A Stbd (green solid, sta 200mm) -->
  <circle cx="298" cy="284" r="8" fill="#2e7d32" stroke="#ffffff" stroke-width="1.5"/>
  <text x="298" y="288" text-anchor="middle" font-size="6.5" font-weight="bold" fill="#ffffff">S4A</text>
  <text x="298" y="300" text-anchor="middle" font-size="7.5" fill="#2e7d32">STBD</text>
  <!-- S5A Zenith (purple solid, sta 180mm) -->
  <circle cx="260" cy="247" r="7" fill="#6a1b9a" stroke="#ffffff" stroke-width="1.5" stroke-dasharray="2,1"/>
  <text x="260" y="251" text-anchor="middle" font-size="5.5" font-weight="bold" fill="#ffffff">S5A</text>
  <text x="248" y="238" font-size="7" fill="#6a1b9a">ZEN</text>
  <!-- S6A Nadir (teal solid, sta 160mm) -->
  <circle cx="230" cy="247" r="7" fill="#00838f" stroke="#ffffff" stroke-width="1.5" stroke-dasharray="2,1"/>
  <text x="230" y="251" text-anchor="middle" font-size="5.5" font-weight="bold" fill="#ffffff">S6A</text>
  <text x="218" y="238" font-size="7" fill="#00838f">NAD</text>

  <!-- Legend row A -->
  <text x="28" y="373" font-size="8" font-weight="bold" fill="#333333">ARRAY A (Node 3) ●</text>
  <circle cx="142" cy="371" r="5" fill="#c62828"/><text x="150" y="375" font-size="7.5" fill="#333333">S1A Fwd 25mm</text>
  <circle cx="228" cy="371" r="5" fill="#e65100"/><text x="236" y="375" font-size="7.5" fill="#333333">S2A Aft 440mm</text>
  <circle cx="318" cy="371" r="5" fill="#1565c0"/><text x="326" y="375" font-size="7.5" fill="#333333">S3A Port 200mm</text>
  <circle cx="415" cy="371" r="5" fill="#2e7d32"/><text x="423" y="375" font-size="7.5" fill="#333333">S4A Stbd 200mm</text>
  <circle cx="510" cy="371" r="5" fill="#6a1b9a"/><text x="518" y="375" font-size="7.5" fill="#333333">S5A Zen 180mm</text>
  <!-- Legend row B -->
  <text x="28" y="389" font-size="8" font-weight="bold" fill="#333333">ARRAY B (Node 2) ○</text>
  <circle cx="142" cy="387" r="5" fill="none" stroke="#c62828" stroke-width="1.5"/><text x="150" y="391" font-size="7.5" fill="#333333">S1B Fwd 40mm</text>
  <circle cx="228" cy="387" r="5" fill="none" stroke="#e65100" stroke-width="1.5"/><text x="236" y="391" font-size="7.5" fill="#333333">S2B Aft 425mm</text>
  <circle cx="318" cy="387" r="5" fill="none" stroke="#1565c0" stroke-width="1.5"/><text x="326" y="391" font-size="7.5" fill="#333333">S3B Port 150mm</text>
  <circle cx="415" cy="387" r="5" fill="none" stroke="#2e7d32" stroke-width="1.5"/><text x="423" y="391" font-size="7.5" fill="#333333">S4B Stbd 150mm</text>
  <circle cx="510" cy="387" r="5" fill="none" stroke="#6a1b9a" stroke-width="1.5"/><text x="518" y="391" font-size="7.5" fill="#333333">S5B Zen 260mm</text>

  <!-- ═══════════════════════════════════════════════════════════════════ -->
  <!-- RIGHT PANEL: Side view with dual-array sensors                     -->
  <!-- ═══════════════════════════════════════════════════════════════════ -->
  <rect x="608" y="102" width="574" height="295" rx="6" fill="#ffffff" stroke="#cccccc" stroke-width="1"/>
  <text x="895" y="120" text-anchor="middle" font-size="11" font-weight="bold" fill="#333333">SENSOR PLACEMENT — SIDE VIEW</text>
  <text x="895" y="132" text-anchor="middle" font-size="8" fill="#555555">● Array A (solid) · ○ Array B (hollow dashed) — axial offset provides spatial diversity</text>

  <!-- Side-view hull fill -->
  <path d="M640,247 C650,230 670,212 710,205 C760,198 820,196 880,198 C940,200 980,208 1010,218 C1040,228 1060,238 1080,247 C1080,247 1060,252 1040,262 C1010,272 980,282 940,288 C880,290 820,292 760,290 C710,284 670,278 640,247Z"
    fill="#e8f0ff" stroke="#006db7" stroke-width="1.5"/>
  <!-- Upper/lower profile extended to engine bell -->
  <path d="M1080,247 C1080,247 1080,247 1120,247" fill="none" stroke="#006db7" stroke-width="2"/>
  <!-- Nose -->
  <ellipse cx="648" cy="247" rx="16" ry="24" fill="#b3d4ff" stroke="#006db7" stroke-width="1"/>
  <!-- Engine bell -->
  <circle cx="1095" cy="247" r="28" fill="#fff3b0" stroke="#cc8800" stroke-width="1.5"/>
  <text x="1095" y="246" text-anchor="middle" font-size="6" fill="#886600">AEORC</text>
  <text x="1095" y="254" text-anchor="middle" font-size="6" fill="#886600">XDF40</text>
  <text x="1095" y="262" text-anchor="middle" font-size="6" fill="#886600">4S tap</text>
  <!-- Cargo gondola -->
  <rect x="790" y="288" width="100" height="22" rx="4" fill="#ffd0e0" stroke="#c62870" stroke-width="1.5"/>
  <text x="840" y="303" text-anchor="middle" font-size="7" fill="#c62870">GONDOLA</text>

  <!-- Station tick marks (reference) -->
  <line x1="660" y1="312" x2="660" y2="326" stroke="#999999" stroke-width="0.8"/>
  <text x="660" y="334" text-anchor="middle" font-size="6.5" fill="#666666">sta 0</text>
  <line x1="681" y1="312" x2="681" y2="326" stroke="#c62828" stroke-width="1"/>
  <text x="681" y="334" text-anchor="middle" font-size="6.5" fill="#c62828">25</text>
  <line x1="697" y1="312" x2="697" y2="326" stroke="#c62828" stroke-width="0.8" stroke-dasharray="2,1"/>
  <text x="697" y="334" text-anchor="middle" font-size="6.5" fill="#c62828">40</text>
  <line x1="744" y1="312" x2="744" y2="326" stroke="#1565c0" stroke-width="0.8" stroke-dasharray="2,1"/>
  <text x="744" y="334" text-anchor="middle" font-size="6.5" fill="#1565c0">150</text>
  <line x1="795" y1="312" x2="795" y2="326" stroke="#1565c0" stroke-width="1"/>
  <text x="795" y="334" text-anchor="middle" font-size="6.5" fill="#1565c0">200</text>
  <line x1="843" y1="312" x2="843" y2="326" stroke="#6a1b9a" stroke-width="1"/>
  <text x="843" y="334" text-anchor="middle" font-size="6.5" fill="#6a1b9a">180</text>
  <line x1="921" y1="312" x2="921" y2="326" stroke="#6a1b9a" stroke-width="0.8" stroke-dasharray="2,1"/>
  <text x="921" y="334" text-anchor="middle" font-size="6.5" fill="#6a1b9a">260</text>
  <line x1="1075" y1="312" x2="1075" y2="326" stroke="#e65100" stroke-width="0.8" stroke-dasharray="2,1"/>
  <text x="1075" y="334" text-anchor="middle" font-size="6.5" fill="#e65100">425</text>
  <line x1="1090" y1="312" x2="1090" y2="326" stroke="#e65100" stroke-width="1"/>
  <text x="1090" y="334" text-anchor="middle" font-size="6.5" fill="#e65100">440</text>
  <text x="750" y="343" text-anchor="middle" font-size="6" fill="#888888">stations in mm from nose</text>

  <!-- ── ARRAY B sensors side view (hollow dashed, drawn first) ── -->
  <!-- S1B sta 40mm: x = 640+40×1.022 = 681 -->
  <circle cx="697" cy="247" r="7" fill="none" stroke="#c62828" stroke-width="1.5" stroke-dasharray="2.5,1.5"/>
  <text x="697" y="251" text-anchor="middle" font-size="5.5" font-weight="bold" fill="#c62828">S1B</text>
  <!-- S2B sta 425mm: 1090-15 = 1075 -->
  <circle cx="1075" cy="247" r="7" fill="none" stroke="#e65100" stroke-width="1.5" stroke-dasharray="2.5,1.5"/>
  <text x="1075" y="251" text-anchor="middle" font-size="5.5" font-weight="bold" fill="#e65100">S2B</text>
  <!-- S3B sta 150mm port (top hull) -->
  <circle cx="744" cy="204" r="7" fill="none" stroke="#1565c0" stroke-width="1.5" stroke-dasharray="2.5,1.5"/>
  <text x="744" y="208" text-anchor="middle" font-size="5.5" font-weight="bold" fill="#1565c0">S3B</text>
  <line x1="744" y1="196" x2="744" y2="172" stroke="#1565c0" stroke-width="0.8" stroke-dasharray="3,2" marker-end="url(#arr)"/>
  <text x="744" y="169" text-anchor="middle" font-size="7" fill="#1565c0">B-PORT</text>
  <!-- S4B sta 150mm stbd (bottom hull) -->
  <circle cx="744" cy="290" r="7" fill="none" stroke="#2e7d32" stroke-width="1.5" stroke-dasharray="2.5,1.5"/>
  <text x="744" y="294" text-anchor="middle" font-size="5.5" font-weight="bold" fill="#2e7d32">S4B</text>
  <!-- S5B sta 260mm zenith: S5A at sta 180mm is x=843; S5B at 260mm = 843+(260-180)×1.022 = 843+82 = 925 -->
  <circle cx="921" cy="198" r="7" fill="none" stroke="#6a1b9a" stroke-width="1.5" stroke-dasharray="2.5,1.5"/>
  <text x="921" y="202" text-anchor="middle" font-size="5.5" font-weight="bold" fill="#6a1b9a">S5B</text>
  <line x1="921" y1="190" x2="921" y2="167" stroke="#6a1b9a" stroke-width="0.8" stroke-dasharray="3,2" marker-end="url(#arr)"/>
  <text x="921" y="164" text-anchor="middle" font-size="7" fill="#6a1b9a">B-ZEN</text>
  <!-- S6B sta 220mm nadir: S6A at sta 160mm is x=755; S6B at 220 = 755+(220-160)×1.022=755+61=816 -->
  <circle cx="816" cy="286" r="7" fill="none" stroke="#00838f" stroke-width="1.5" stroke-dasharray="2.5,1.5"/>
  <text x="816" y="290" text-anchor="middle" font-size="5.5" font-weight="bold" fill="#00838f">S6B</text>
  <line x1="816" y1="296" x2="816" y2="316" stroke="#00838f" stroke-width="0.8" stroke-dasharray="3,2" marker-end="url(#arr)"/>
  <text x="816" y="325" text-anchor="middle" font-size="7" fill="#00838f">B-NAD</text>

  <!-- ── ARRAY A sensors side view (solid, drawn on top) ── -->
  <!-- S1A sta 25mm -->
  <circle cx="666" cy="247" r="7" fill="#c62828" stroke="#ffffff" stroke-width="1.5"/>
  <text x="666" y="251" text-anchor="middle" font-size="5.5" font-weight="bold" fill="#ffffff">S1A</text>
  <line x1="642" y1="247" x2="614" y2="247" stroke="#c62828" stroke-width="1" marker-end="url(#arr)"/>
  <text x="611" y="244" text-anchor="end" font-size="7.5" fill="#c62828">FWD 65°</text>
  <!-- S2A sta 440mm -->
  <circle cx="1090" cy="247" r="7" fill="#e65100" stroke="#ffffff" stroke-width="1.5"/>
  <text x="1090" y="251" text-anchor="middle" font-size="5.5" font-weight="bold" fill="#ffffff">S2A</text>
  <line x1="1100" y1="247" x2="1126" y2="247" stroke="#e65100" stroke-width="1" marker-end="url(#arr)"/>
  <text x="1128" y="244" font-size="7.5" fill="#e65100">AFT</text>
  <!-- S3A sta 200mm port (top) -->
  <circle cx="795" cy="204" r="7" fill="#1565c0" stroke="#ffffff" stroke-width="1.5"/>
  <text x="795" y="208" text-anchor="middle" font-size="5.5" font-weight="bold" fill="#ffffff">S3A</text>
  <line x1="795" y1="196" x2="795" y2="172" stroke="#1565c0" stroke-width="1" marker-end="url(#arr)"/>
  <text x="795" y="169" text-anchor="middle" font-size="7.5" fill="#1565c0">A-PORT</text>
  <!-- S4A sta 200mm stbd (bottom) -->
  <circle cx="795" cy="290" r="7" fill="#2e7d32" stroke="#ffffff" stroke-width="1.5"/>
  <text x="795" y="294" text-anchor="middle" font-size="5.5" font-weight="bold" fill="#ffffff">S4A</text>
  <line x1="795" y1="300" x2="795" y2="320" stroke="#2e7d32" stroke-width="1" marker-end="url(#arr)"/>
  <text x="795" y="329" text-anchor="middle" font-size="7.5" fill="#2e7d32">A-STBD</text>
  <!-- S5A sta 180mm zenith (top) -->
  <circle cx="843" cy="198" r="7" fill="#6a1b9a" stroke="#ffffff" stroke-width="1.5"/>
  <text x="843" y="202" text-anchor="middle" font-size="5.5" font-weight="bold" fill="#ffffff">S5A</text>
  <line x1="843" y1="190" x2="843" y2="167" stroke="#6a1b9a" stroke-width="1" marker-end="url(#arr)"/>
  <text x="843" y="164" text-anchor="middle" font-size="7.5" fill="#6a1b9a">A-ZEN</text>
  <!-- S6A sta 160mm nadir (bottom) -->
  <circle cx="755" cy="286" r="7" fill="#00838f" stroke="#ffffff" stroke-width="1.5"/>
  <text x="755" y="290" text-anchor="middle" font-size="5.5" font-weight="bold" fill="#ffffff">S6A</text>
  <line x1="755" y1="296" x2="755" y2="316" stroke="#00838f" stroke-width="1" marker-end="url(#arr)"/>
  <text x="755" y="325" text-anchor="middle" font-size="7.5" fill="#00838f">A-NAD</text>

  <!-- Aperture detail note -->
  <rect x="616" y="349" width="200" height="26" rx="3" fill="#fff8e8" stroke="#888888" stroke-width="0.8"/>
  <text x="716" y="361" text-anchor="middle" font-size="7.5" font-weight="bold" fill="#333333">APERTURE DETAIL</text>
  <text x="622" y="370" font-size="7" fill="#333333">5mm PMMA disc · 0.5mm · UV-cure · sensor on 0.3mm PETG shoulder</text>

  <!-- ═══════════════════════════════════════════════════════════════════ -->
  <!-- BOTTOM LEFT+CENTRE: Dual I²C topology                             -->
  <!-- ═══════════════════════════════════════════════════════════════════ -->
  <rect x="18" y="406" width="770" height="285" rx="6" fill="#ffffff" stroke="#cccccc" stroke-width="1"/>
  <text x="403" y="423" text-anchor="middle" font-size="11" font-weight="bold" fill="#333333">DUAL REDUNDANT I&#xB2;C BUS TOPOLOGY</text>
  <text x="403" y="435" text-anchor="middle" font-size="8" fill="#555555">Two fully independent buses — each node covers all 6 axes if the other fails</text>

  <!-- Center divider -->
  <line x1="403" y1="440" x2="403" y2="682" stroke="#dddddd" stroke-width="1.5" stroke-dasharray="6,3"/>
  <rect x="352" y="443" width="102" height="16" rx="3" fill="#f0f0f0" stroke="#dddddd" stroke-width="1"/>
  <text x="403" y="454" text-anchor="middle" font-size="7.5" font-weight="bold" fill="#888888">NO SPOF BOUNDARY</text>

  <!-- ── ARRAY A — LEFT HALF ── -->
  <text x="200" y="470" text-anchor="middle" font-size="9.5" font-weight="bold" fill="#006db7">ARRAY A</text>

  <!-- Node 3 box -->
  <rect x="120" y="476" width="160" height="38" rx="5" fill="#006db7" stroke="#003d7a" stroke-width="1.5"/>
  <text x="200" y="491" text-anchor="middle" font-size="9.5" font-weight="bold" fill="#ffffff">NODE 3 (Panel D)</text>
  <text x="200" y="504" text-anchor="middle" font-size="7.5" fill="#b3d4ff">CM3-CARRIER-1 · I&#xB2;C3 bus</text>

  <!-- Node 3 → TCA-A line -->
  <line x1="200" y1="514" x2="200" y2="532" stroke="#444444" stroke-width="1.5" marker-end="url(#arr)"/>
  <text x="157" y="526" font-size="7" fill="#333333">SDA/SCL</text>

  <!-- TCA9548A-A box -->
  <rect x="80" y="532" width="120" height="34" rx="4" fill="#4a148c" stroke="#7b1fa2" stroke-width="1.5"/>
  <text x="140" y="546" text-anchor="middle" font-size="9" font-weight="bold" fill="#ffffff">TCA9548A-A</text>
  <text x="140" y="558" text-anchor="middle" font-size="7.5" fill="#e1bee7">0x70 · ch 0–5</text>

  <!-- MCP23008-A box -->
  <rect x="230" y="532" width="110" height="34" rx="4" fill="#1a237e" stroke="#3949ab" stroke-width="1.5"/>
  <text x="285" y="546" text-anchor="middle" font-size="8.5" font-weight="bold" fill="#ffffff">MCP23008-A</text>
  <text x="285" y="558" text-anchor="middle" font-size="7.5" fill="#c5cae9">0x20 · GP0–5</text>

  <!-- Node3 → MCP dashed -->
  <line x1="240" y1="495" x2="285" y2="532" stroke="#444444" stroke-width="1.2" stroke-dasharray="4,2" marker-end="url(#arr)"/>
  <text x="270" y="518" font-size="7" fill="#333333">0x20</text>

  <!-- TCA-A → sensor rows -->
  <!-- Row 1 sensor boxes -->
  <rect x="28" y="584" width="60" height="22" rx="3" fill="#c62828"/>
  <text x="58" y="599" text-anchor="middle" font-size="7" fill="#ffffff">S1A FWD</text>
  <rect x="98" y="584" width="60" height="22" rx="3" fill="#e65100"/>
  <text x="128" y="599" text-anchor="middle" font-size="7" fill="#ffffff">S2A AFT</text>
  <rect x="168" y="584" width="60" height="22" rx="3" fill="#1565c0"/>
  <text x="198" y="599" text-anchor="middle" font-size="7" fill="#ffffff">S3A PORT</text>
  <!-- Row 2 -->
  <rect x="28" y="612" width="60" height="22" rx="3" fill="#2e7d32"/>
  <text x="58" y="627" text-anchor="middle" font-size="7" fill="#ffffff">S4A STBD</text>
  <rect x="98" y="612" width="60" height="22" rx="3" fill="#6a1b9a"/>
  <text x="128" y="627" text-anchor="middle" font-size="7" fill="#ffffff">S5A ZEN</text>
  <rect x="168" y="612" width="60" height="22" rx="3" fill="#00838f"/>
  <text x="198" y="627" text-anchor="middle" font-size="7" fill="#ffffff">S6A NAD</text>
  <!-- Connect TCA to sensors -->
  <line x1="115" y1="566" x2="58" y2="584" stroke="#888888" stroke-width="0.9" marker-end="url(#arr)"/>
  <line x1="127" y1="566" x2="128" y2="584" stroke="#888888" stroke-width="0.9" marker-end="url(#arr)"/>
  <line x1="140" y1="566" x2="198" y2="584" stroke="#888888" stroke-width="0.9" marker-end="url(#arr)"/>
  <line x1="118" y1="566" x2="58" y2="612" stroke="#888888" stroke-width="0.9" marker-end="url(#arr)"/>
  <line x1="130" y1="566" x2="128" y2="612" stroke="#888888" stroke-width="0.9" marker-end="url(#arr)"/>
  <line x1="143" y1="566" x2="198" y2="612" stroke="#888888" stroke-width="0.9" marker-end="url(#arr)"/>

  <text x="200" y="648" text-anchor="middle" font-size="8" font-weight="bold" fill="#006db7">ARRAY A · Panel D bay</text>
  <text x="200" y="660" text-anchor="middle" font-size="7.5" fill="#444444">Boot: XSHUT seq → 0x54–0x59</text>
  <text x="200" y="672" text-anchor="middle" font-size="7.5" fill="#2e7d32">Node 2 covers all axes on Node 3 fail</text>

  <!-- ── ARRAY B — RIGHT HALF ── -->
  <text x="600" y="470" text-anchor="middle" font-size="9.5" font-weight="bold" fill="#2e7d32">ARRAY B</text>

  <!-- Node 2 box -->
  <rect x="520" y="476" width="160" height="38" rx="5" fill="#2e7d32" stroke="#1b5e20" stroke-width="1.5"/>
  <text x="600" y="491" text-anchor="middle" font-size="9.5" font-weight="bold" fill="#ffffff">NODE 2 (Panel B)</text>
  <text x="600" y="504" text-anchor="middle" font-size="7.5" fill="#c8e6c9">CM3-CARRIER-1 · I&#xB2;C2 bus</text>

  <!-- Node 2 → TCA-B -->
  <line x1="600" y1="514" x2="600" y2="532" stroke="#444444" stroke-width="1.5" marker-end="url(#arr)"/>
  <text x="557" y="526" font-size="7" fill="#333333">SDA/SCL</text>

  <!-- TCA9548A-B box -->
  <rect x="480" y="532" width="120" height="34" rx="4" fill="#4a148c" stroke="#7b1fa2" stroke-width="1.5"/>
  <text x="540" y="546" text-anchor="middle" font-size="9" font-weight="bold" fill="#ffffff">TCA9548A-B</text>
  <text x="540" y="558" text-anchor="middle" font-size="7.5" fill="#e1bee7">0x70 · ch 0–5</text>

  <!-- MCP23008-B box -->
  <rect x="630" y="532" width="110" height="34" rx="4" fill="#1a237e" stroke="#3949ab" stroke-width="1.5"/>
  <text x="685" y="546" text-anchor="middle" font-size="8.5" font-weight="bold" fill="#ffffff">MCP23008-B</text>
  <text x="685" y="558" text-anchor="middle" font-size="7.5" fill="#c5cae9">0x20 · GP0–5</text>

  <!-- Node2 → MCP dashed -->
  <line x1="638" y1="495" x2="685" y2="532" stroke="#444444" stroke-width="1.2" stroke-dasharray="4,2" marker-end="url(#arr)"/>
  <text x="670" y="518" font-size="7" fill="#333333">0x20</text>

  <!-- B sensor boxes -->
  <rect x="428" y="584" width="60" height="22" rx="3" fill="#c62828" fill-opacity="0.15" stroke="#c62828" stroke-width="1.5"/>
  <text x="458" y="599" text-anchor="middle" font-size="7" fill="#c62828">S1B FWD</text>
  <rect x="498" y="584" width="60" height="22" rx="3" fill="#e65100" fill-opacity="0.15" stroke="#e65100" stroke-width="1.5"/>
  <text x="528" y="599" text-anchor="middle" font-size="7" fill="#e65100">S2B AFT</text>
  <rect x="568" y="584" width="60" height="22" rx="3" fill="#1565c0" fill-opacity="0.15" stroke="#1565c0" stroke-width="1.5"/>
  <text x="598" y="599" text-anchor="middle" font-size="7" fill="#1565c0">S3B PORT</text>
  <rect x="428" y="612" width="60" height="22" rx="3" fill="#2e7d32" fill-opacity="0.15" stroke="#2e7d32" stroke-width="1.5"/>
  <text x="458" y="627" text-anchor="middle" font-size="7" fill="#2e7d32">S4B STBD</text>
  <rect x="498" y="612" width="60" height="22" rx="3" fill="#6a1b9a" fill-opacity="0.15" stroke="#6a1b9a" stroke-width="1.5"/>
  <text x="528" y="627" text-anchor="middle" font-size="7" fill="#6a1b9a">S5B ZEN</text>
  <rect x="568" y="612" width="60" height="22" rx="3" fill="#00838f" fill-opacity="0.15" stroke="#00838f" stroke-width="1.5"/>
  <text x="598" y="627" text-anchor="middle" font-size="7" fill="#00838f">S6B NAD</text>
  <!-- Connect TCA-B to sensors -->
  <line x1="515" y1="566" x2="458" y2="584" stroke="#888888" stroke-width="0.9" marker-end="url(#arr)"/>
  <line x1="527" y1="566" x2="528" y2="584" stroke="#888888" stroke-width="0.9" marker-end="url(#arr)"/>
  <line x1="540" y1="566" x2="598" y2="584" stroke="#888888" stroke-width="0.9" marker-end="url(#arr)"/>
  <line x1="518" y1="566" x2="458" y2="612" stroke="#888888" stroke-width="0.9" marker-end="url(#arr)"/>
  <line x1="530" y1="566" x2="528" y2="612" stroke="#888888" stroke-width="0.9" marker-end="url(#arr)"/>
  <line x1="543" y1="566" x2="598" y2="612" stroke="#888888" stroke-width="0.9" marker-end="url(#arr)"/>

  <text x="600" y="648" text-anchor="middle" font-size="8" font-weight="bold" fill="#2e7d32">ARRAY B · Panel B bay</text>
  <text x="600" y="660" text-anchor="middle" font-size="7.5" fill="#444444">Boot: XSHUT seq → 0x54–0x59</text>
  <text x="600" y="672" text-anchor="middle" font-size="7.5" fill="#2e7d32">Node 3 covers all axes on Node 2 fail</text>

  <!-- Bottom note in I2C panel -->
  <rect x="26" y="679" width="754" height="7" rx="2" fill="#e8f5e9"/>
  <text x="403" y="685" text-anchor="middle" font-size="7" fill="#1b5e20">Same I&#xB2;C addresses (0x70 / 0x20 / 0x54–0x59) appear on both arrays — address collision is impossible because the buses are electrically isolated on separate CM3-CARRIER-1 nodes.</text>

  <!-- ═══════════════════════════════════════════════════════════════════ -->
  <!-- BOTTOM RIGHT: Build steps                                          -->
  <!-- ═══════════════════════════════════════════════════════════════════ -->
  <rect x="798" y="406" width="382" height="285" rx="6" fill="#ffffff" stroke="#cccccc" stroke-width="1"/>
  <text x="989" y="423" text-anchor="middle" font-size="11" font-weight="bold" fill="#333333">INSTALLATION STEPS</text>
  <text x="989" y="435" text-anchor="middle" font-size="8" fill="#555555">Array A (Panel D) then Array B (Panel B)</text>

  <circle cx="822" cy="447" r="9" fill="#006db7"/>
  <text x="822" y="451" text-anchor="middle" font-size="8.5" font-weight="bold" fill="#ffffff">1</text>
  <text x="836" y="451" font-size="8.5" fill="#222222">Print 12&#xD7; tof_flush_mount_5mm.stl (PETG, 100% infill).</text>

  <circle cx="822" cy="464" r="9" fill="#006db7"/>
  <text x="822" y="468" text-anchor="middle" font-size="8.5" font-weight="bold" fill="#ffffff">2</text>
  <text x="836" y="468" font-size="8.5" fill="#222222">Cut 12&#xD7; PMMA discs 5mm dia × 0.5mm from clear acrylic.</text>

  <circle cx="822" cy="481" r="9" fill="#2e7d32"/>
  <text x="822" y="485" text-anchor="middle" font-size="8.5" font-weight="bold" fill="#ffffff">3</text>
  <text x="836" y="485" font-size="8.5" fill="#222222">Mark Array A: S1A@25mm, S2A@440mm, S3A/S4A@200mm,</text>
  <text x="836" y="495" font-size="8.5" fill="#222222">   S5A@180mm dorsal, S6A@160mm belly.</text>

  <circle cx="822" cy="507" r="9" fill="#2e7d32"/>
  <text x="822" y="511" text-anchor="middle" font-size="8.5" font-weight="bold" fill="#ffffff">4</text>
  <text x="836" y="511" font-size="8.5" fill="#222222">Mark Array B: S1B@40mm, S2B@425mm, S3B/S4B@150mm,</text>
  <text x="836" y="521" font-size="8.5" fill="#222222">   S5B@260mm dorsal, S6B@220mm belly.</text>

  <circle cx="822" cy="533" r="9" fill="#2e7d32"/>
  <text x="822" y="537" text-anchor="middle" font-size="8.5" font-weight="bold" fill="#ffffff">5</text>
  <text x="836" y="537" font-size="8.5" fill="#222222">Drill 6.5mm at all 12 positions. Deburr from inside.</text>

  <circle cx="822" cy="550" r="9" fill="#2e7d32"/>
  <text x="822" y="554" text-anchor="middle" font-size="8.5" font-weight="bold" fill="#ffffff">6</text>
  <text x="836" y="554" font-size="8.5" fill="#222222">Press-fit mounts. Solder VL53L5CX on 12 breakout PCBs.</text>
  <text x="836" y="564" font-size="8.5" fill="#222222">   Attach 4-wire JST-SH1.0 300mm cable per sensor.</text>

  <circle cx="822" cy="576" r="9" fill="#2e7d32"/>
  <text x="822" y="580" text-anchor="middle" font-size="8.5" font-weight="bold" fill="#ffffff">7</text>
  <text x="836" y="580" font-size="8.5" fill="#222222">Seat PCBs. UV-adhesive PMMA discs over apertures. Cure 60s.</text>

  <circle cx="822" cy="593" r="9" fill="#006db7"/>
  <text x="822" y="597" text-anchor="middle" font-size="8.5" font-weight="bold" fill="#ffffff">8</text>
  <text x="836" y="597" font-size="8.5" fill="#222222">Route Array A cables → Panel D via separate conduit.</text>
  <text x="836" y="607" font-size="8.5" fill="#222222">   Route Array B cables → Panel B via separate conduit.</text>

  <circle cx="822" cy="619" r="9" fill="#006db7"/>
  <text x="822" y="623" text-anchor="middle" font-size="8.5" font-weight="bold" fill="#ffffff">9</text>
  <text x="836" y="623" font-size="8.5" fill="#222222">Assemble 2&#xD7; TCA9548A+MCP23008 PCBs. Connect Array A</text>
  <text x="836" y="633" font-size="8.5" fill="#222222">   to Node 3 I&#xB2;C3; Array B to Node 2 I&#xB2;C2.</text>

  <circle cx="822" cy="645" r="9" fill="#006db7"/>
  <text x="822" y="649" text-anchor="middle" font-size="8.5" font-weight="bold" fill="#ffffff">10</text>
  <text x="836" y="649" font-size="8.5" fill="#222222">Flash both nodes: vl53l5cx_mux firmware. Verify</text>
  <text x="836" y="659" font-size="8.5" fill="#222222">   12&#xD7; &#x22;OK&#x22; in sensor_check log (6 per node).</text>

  <circle cx="822" cy="671" r="9" fill="#c62828"/>
  <text x="822" y="675" text-anchor="middle" font-size="8.5" font-weight="bold" fill="#ffffff">11</text>
  <text x="836" y="675" font-size="8.5" fill="#222222">Failover test: disable Node 3 — verify Array B covers</text>
  <text x="836" y="685" font-size="8.5" fill="#222222">   all 6 axes. Then swap — Node 2 off, Array A holds.</text>

  <!-- ═══════════════════════════════════════════════════════════════════ -->
  <!-- Warning banner                                                      -->
  <!-- ═══════════════════════════════════════════════════════════════════ -->
  <rect x="18" y="700" width="1164" height="26" rx="4" fill="#fff3cd" stroke="#cc8800" stroke-width="1.2"/>
  <text x="600" y="711" text-anchor="middle" font-size="8.5" font-weight="bold" fill="#7d4e00">&#x26A0; Keep all 12 PMMA apertures clear of paint, foam and tape. Do NOT merge Arrays A and B onto the same I&#xB2;C bus — this defeats the no-SPOF design. Route harnesses through separate conduits.</text>
  <text x="600" y="721" text-anchor="middle" font-size="8" fill="#7d4e00">VL53L5CX VCSEL is Class 1 eye-safe. Condensation inside aperture = seal failure — re-apply UV adhesive.</text>

  <!-- Coverage redundancy matrix -->
  <rect x="18" y="733" width="1164" height="86" rx="4" fill="#f9f9f9" stroke="#cccccc" stroke-width="1"/>
  <text x="600" y="747" text-anchor="middle" font-size="9" font-weight="bold" fill="#333333">COVERAGE REDUNDANCY — 65° FoV (±32.5°) per sensor · 4.0m range indoor</text>
  <!-- Header row -->
  <rect x="26" y="752" width="1148" height="13" rx="2" fill="#37474f"/>
  <text x="110" y="762" text-anchor="middle" font-size="7" font-weight="bold" fill="#ffffff">DIRECTION</text>
  <text x="280" y="762" text-anchor="middle" font-size="7" font-weight="bold" fill="#ffffff">ARRAY A — Node 3</text>
  <text x="470" y="762" text-anchor="middle" font-size="7" font-weight="bold" fill="#ffffff">ARRAY B — Node 2</text>
  <text x="660" y="762" text-anchor="middle" font-size="7" font-weight="bold" fill="#ffffff">AXIAL OFFSET</text>
  <text x="840" y="762" text-anchor="middle" font-size="7" font-weight="bold" fill="#ffffff">NODE 3 FAIL</text>
  <text x="1020" y="762" text-anchor="middle" font-size="7" font-weight="bold" fill="#ffffff">NODE 2 FAIL</text>
  <!-- Data rows -->
  <rect x="26" y="765" width="1148" height="10" fill="rgba(198,40,40,0.06)"/>
  <text x="110" y="773" text-anchor="middle" font-size="7" fill="#c62828">Forward</text>
  <text x="280" y="773" text-anchor="middle" font-size="7" fill="#555555">S1A sta 25mm nose ring</text>
  <text x="470" y="773" text-anchor="middle" font-size="7" fill="#555555">S1B sta 40mm nose ring</text>
  <text x="660" y="773" text-anchor="middle" font-size="7" fill="#888888">15mm axial</text>
  <text x="840" y="773" text-anchor="middle" font-size="7" fill="#2e7d32">S1B active ✓</text>
  <text x="1020" y="773" text-anchor="middle" font-size="7" fill="#2e7d32">S1A active ✓</text>

  <rect x="26" y="775" width="1148" height="10" fill="rgba(230,81,0,0.06)"/>
  <text x="110" y="783" text-anchor="middle" font-size="7" fill="#e65100">Aft</text>
  <text x="280" y="783" text-anchor="middle" font-size="7" fill="#555555">S2A sta 440mm engine bell</text>
  <text x="470" y="783" text-anchor="middle" font-size="7" fill="#555555">S2B sta 425mm engine bell</text>
  <text x="660" y="783" text-anchor="middle" font-size="7" fill="#888888">15mm axial</text>
  <text x="840" y="783" text-anchor="middle" font-size="7" fill="#2e7d32">S2B active ✓</text>
  <text x="1020" y="783" text-anchor="middle" font-size="7" fill="#2e7d32">S2A active ✓</text>

  <rect x="26" y="785" width="1148" height="10" fill="rgba(21,101,192,0.06)"/>
  <text x="110" y="793" text-anchor="middle" font-size="7" fill="#1565c0">Port / Stbd</text>
  <text x="280" y="793" text-anchor="middle" font-size="7" fill="#555555">S3A/S4A sta 200mm hull side</text>
  <text x="470" y="793" text-anchor="middle" font-size="7" fill="#555555">S3B/S4B sta 150mm hull side</text>
  <text x="660" y="793" text-anchor="middle" font-size="7" fill="#888888">50mm axial</text>
  <text x="840" y="793" text-anchor="middle" font-size="7" fill="#2e7d32">S3B/S4B active ✓</text>
  <text x="1020" y="793" text-anchor="middle" font-size="7" fill="#2e7d32">S3A/S4A active ✓</text>

  <rect x="26" y="795" width="1148" height="10" fill="rgba(106,27,154,0.06)"/>
  <text x="110" y="803" text-anchor="middle" font-size="7" fill="#6a1b9a">Zenith</text>
  <text x="280" y="803" text-anchor="middle" font-size="7" fill="#555555">S5A sta 180mm dorsal apex</text>
  <text x="470" y="803" text-anchor="middle" font-size="7" fill="#555555">S5B sta 260mm dorsal keel</text>
  <text x="660" y="803" text-anchor="middle" font-size="7" fill="#888888">80mm axial</text>
  <text x="840" y="803" text-anchor="middle" font-size="7" fill="#2e7d32">S5B active ✓</text>
  <text x="1020" y="803" text-anchor="middle" font-size="7" fill="#2e7d32">S5A active ✓</text>

  <rect x="26" y="805" width="1148" height="10" fill="rgba(0,131,143,0.06)"/>
  <text x="110" y="813" text-anchor="middle" font-size="7" fill="#00838f">Nadir</text>
  <text x="280" y="813" text-anchor="middle" font-size="7" fill="#555555">S6A sta 160mm belly blister</text>
  <text x="470" y="813" text-anchor="middle" font-size="7" fill="#555555">S6B sta 220mm belly</text>
  <text x="660" y="813" text-anchor="middle" font-size="7" fill="#888888">60mm axial</text>
  <text x="840" y="813" text-anchor="middle" font-size="7" fill="#2e7d32">S6B active ✓</text>
  <text x="1020" y="813" text-anchor="middle" font-size="7" fill="#2e7d32">S6A active ✓</text>

  <!-- Spec summary -->
  <rect x="18" y="825" width="1164" height="46" rx="4" fill="#f0f4ff" stroke="#4060c0" stroke-width="1"/>
  <text x="600" y="838" text-anchor="middle" font-size="9" font-weight="bold" fill="#333333">VL53L5CX SPECIFICATIONS · 6S EDF UPGRADE</text>
  <text x="28" y="851" font-size="8" fill="#333333">Sensor: ST VL53L5CX · 8&#xD7;8 multizone ToF · 65° diagonal FoV · 0.4–4.0m indoor · 15 Hz · I&#xB2;C 1 MHz · 6.4&#xD7;3.0&#xD7;1.5mm · Class 1 VCSEL · $7 ea</text>
  <text x="28" y="863" font-size="8" fill="#333333">Arrays: 12 sensors total (2&#xD7;6) · Array A on Node 3 I&#xB2;C3 (Panel D) · Array B on Node 2 I&#xB2;C2 (Panel B) · Independent TCA9548A (0x70) + MCP23008 (0x20) per array · +52g total</text>
  <text x="28" y="875" font-size="8" fill="#555555">Fuselage EDF: AEORC XDF40 40mm 8-blade 6500KV 41g · 575g nominal / 698g peak @ 4S · powered via cells 1–4 balance tap · 50A 4S ESC · no 6S motor swap exists for 40mm EDFs</text>

  <!-- Attribution -->
  <text x="600" y="908" text-anchor="middle" font-size="7.5" fill="#777777">© 2026 Steve Griffing, PE(CSE) CISSP-ISSEP CPP · CC BY 4.0 · Visual inspiration: Firefly/Serenity © Joss Whedon/Mutant Enemy/Universal — Fan engineering</text>
</svg>
