<?xml version="1.0" encoding="UTF-8"?>
<svg xmlns="http://www.w3.org/2000/svg" viewBox="0 0 800 500" width="800" height="500">
<defs>
  <style>
    @import url('https://fonts.cdnfonts.com/css/opendyslexic');
    text, tspan { font-family: 'OpenDyslexic', 'OpenDyslexicMono', sans-serif; }
  </style>
</defs>
<rect width="800" height="500" fill="#f8f8f8"/>
<rect x="0" y="0" width="800" height="36" fill="#0d3d5c"/>
<text x="400" y="24" text-anchor="middle" font-family="'OpenDyslexic', 'OpenDyslexicMono', sans-serif" font-size="14" font-weight="bold" fill="#ffffff">SERENITY-CLASS TILTROTOR UAV — FRONT VIEW (FROM NOSE)  |  Rev O</text>
<path d="M 736.3,161.4 L 735.2,261.9 L 734.0,208.6 L 732.9,155.9 L 731.8,163.8 L 730.6,169.0 L 729.5,222.2 L 728.4,163.9 L 727.3,169.6 L 726.1,186.5 L 725.0,152.3 L 723.9,159.4 L 722.7,162.9 L 721.6,159.7 L 720.5,162.8 L 719.4,165.4 L 718.2,150.4 L 717.1,177.5 L 716.0,161.2 L 714.8,186.6 L 713.7,194.5 L 712.6,164.5 L 711.5,182.9 L 710.3,156.2 L 709.2,159.0 L 708.1,185.6 L 706.9,147.5 L 705.8,151.8 L 704.7,152.2 L 703.6,153.0 L 702.4,155.4 L 701.3,155.8 L 700.2,192.5 L 699.1,203.3 L 697.9,174.7 L 696.8,182.1 L 695.7,177.6 L 694.5,184.8 L 693.4,165.3 L 692.3,192.5 L 691.2,179.8 L 690.0,168.5 L 688.9,147.3 L 687.8,182.6 L 686.6,158.7 L 685.5,202.6 L 684.4,162.1 L 683.3,182.4 L 682.1,191.1 L 681.0,185.1 L 679.9,158.8 L 678.7,196.2 L 677.6,194.5 L 676.5,162.2 L 675.4,192.5 L 674.2,192.4 L 673.1,147.4 L 672.0,192.1 L 670.8,172.7 L 669.7,184.4 L 668.6,175.7 L 667.5,187.0 L 666.3,189.5 L 665.2,188.2 L 664.1,165.8 L 662.9,178.9 L 661.8,169.0 L 660.7,186.7 L 659.6,186.0 L 658.4,184.2 L 657.3,147.9 L 656.2,159.2 L 655.0,162.6 L 653.9,175.2 L 652.8,184.4 L 651.7,189.2 L 650.5,187.0 L 649.4,181.8 L 648.3,143.4 L 647.1,168.9 L 646.0,185.1 L 644.9,187.0 L 643.8,181.1 L 642.6,183.8 L 641.5,182.9 L 640.4,172.0 L 639.2,159.6 L 638.1,162.9 L 637.0,183.6 L 635.9,181.0 L 634.7,183.7 L 633.6,184.2 L 632.5,182.3 L 631.3,183.8 L 630.2,183.9 L 629.1,184.7 L 628.0,182.2 L 626.8,183.5 L 625.7,184.7 L 624.6,187.8 L 623.4,186.0 L 622.3,184.9 L 621.2,149.2 L 620.1,158.0 L 618.9,184.1 L 617.8,186.7 L 616.7,187.8 L 615.5,186.2 L 614.4,185.7 L 613.3,188.3 L 612.2,166.9 L 611.0,170.0 L 609.9,191.0 L 608.8,188.4 L 607.6,189.3 L 606.5,190.3 L 605.4,190.4 L 604.3,191.3 L 603.1,161.1 L 602.0,164.4 L 600.9,194.3 L 599.7,194.5 L 598.6,196.8 L 597.5,198.0 L 596.4,196.9 L 595.2,185.9 L 594.1,168.0 L 593.0,199.3 L 591.8,201.2 L 590.7,201.3 L 589.6,203.5 L 588.5,204.7 L 587.3,188.1 L 586.2,150.1 L 585.1,153.8 L 583.9,208.3 L 582.8,208.6 L 581.7,210.4 L 580.6,175.8 L 579.4,156.4 L 578.3,145.0 L 577.2,218.2 L 576.0,218.6 L 574.9,182.0 L 573.8,145.7 L 572.7,151.3 L 571.5,151.3 L 570.4,220.3 L 569.3,156.4 L 568.1,152.9 L 567.0,208.7 L 565.9,144.4 L 564.8,166.8 L 563.6,150.0 L 562.5,145.8 L 561.4,162.6 L 560.2,177.3 L 559.1,217.0 L 558.0,161.1 L 556.9,156.3 L 555.7,152.7 L 554.6,222.6 L 553.5,211.4 L 552.4,177.3 L 551.2,174.4 L 550.1,219.6 L 549.0,150.0 L 547.8,153.8 L 546.7,167.6 L 545.6,178.1 L 544.5,166.5 L 543.3,178.8 L 542.2,176.0 L 541.1,180.8 L 539.9,223.5 L 538.8,219.0 L 537.7,185.2 L 536.6,182.5 L 535.4,189.2 L 534.3,243.5 L 533.2,254.0 L 532.0,253.7 L 530.9,186.7 L 529.8,184.1 L 528.7,189.5 L 527.5,224.7 L 526.4,223.2 L 525.3,215.3 L 524.1,206.5 L 523.0,179.0 L 521.9,254.7 L 520.8,176.1 L 519.6,196.2 L 518.5,183.1 L 517.4,173.7 L 516.2,190.1 L 515.1,250.1 L 514.0,226.4 L 512.9,178.5 L 511.7,203.1 L 510.6,175.6 L 509.5,255.3 L 508.3,255.3 L 507.2,254.8 L 506.1,254.9 L 505.0,179.3 L 503.8,183.5 L 502.7,176.5 L 501.6,171.8 L 500.4,227.4 L 499.3,248.6 L 498.2,190.7 L 497.1,194.5 L 495.9,188.2 L 494.8,204.1 L 493.7,212.7 L 492.5,237.9 L 491.4,183.0 L 490.3,178.6 L 489.2,180.2 L 488.0,175.7 L 486.9,221.6 L 485.8,210.7 L 484.6,183.7 L 483.5,228.7 L 482.4,181.0 L 481.3,175.8 L 480.1,227.4 L 479.0,183.6 L 477.9,227.5 L 476.7,180.9 L 475.6,176.9 L 474.5,193.0 L 473.4,183.0 L 472.2,202.2 L 471.1,185.4 L 470.0,180.3 L 468.8,198.7 L 467.7,187.9 L 466.6,182.7 L 465.5,220.8 L 464.3,179.9 L 463.2,174.9 L 462.1,196.4 L 460.9,203.0 L 459.8,215.2 L 458.7,191.0 L 457.6,184.0 L 456.4,210.1 L 455.3,201.2 L 454.2,196.2 L 453.0,210.9 L 451.9,221.2 L 450.8,206.1 L 449.7,206.1 L 448.5,195.1 L 447.4,205.6 L 446.3,198.6 L 445.1,195.0 L 444.0,163.9 L 442.9,165.8 L 441.8,116.1 L 440.6,112.5 L 439.5,99.5 L 438.4,101.0 L 437.2,108.2 L 436.1,98.5 L 435.0,95.3 L 433.9,112.0 L 432.7,97.2 L 431.6,97.9 L 430.5,66.0 L 429.3,57.4 L 428.2,55.8 L 427.1,53.7 L 426.0,53.7 L 424.8,55.8 L 423.7,54.3 L 422.6,55.8 L 421.4,53.7 L 420.3,53.0 L 419.2,53.7 L 418.1,55.8 L 416.9,53.7 L 415.8,54.2 L 414.7,53.0 L 413.5,55.7 L 412.4,53.7 L 411.3,55.8 L 410.2,53.7 L 409.0,53.7 L 407.9,53.7 L 406.8,53.7 L 405.6,58.9 L 404.5,53.0 L 403.4,53.0 L 402.3,55.8 L 401.1,58.2 L 400.0,53.7 L 398.9,54.2 L 397.8,55.8 L 396.6,55.8 L 395.5,55.8 L 394.4,53.7 L 393.2,53.7 L 392.1,54.2 L 391.0,53.7 L 389.9,53.0 L 388.7,53.0 L 387.6,53.7 L 386.5,54.2 L 385.3,53.7 L 384.2,55.8 L 383.1,55.8 L 382.0,57.9 L 380.8,57.9 L 379.7,55.8 L 378.6,53.7 L 377.4,54.2 L 376.3,54.3 L 375.2,53.0 L 374.1,53.0 L 372.9,53.7 L 371.8,54.2 L 370.7,53.7 L 369.5,53.7 L 368.4,55.8 L 367.3,57.9 L 366.2,55.8 L 365.0,54.3 L 363.9,53.7 L 362.8,53.7 L 361.6,54.3 L 360.5,53.0 L 359.4,53.0 L 358.3,58.9 L 357.1,53.7 L 356.0,53.7 L 354.9,54.3 L 353.7,53.7 L 352.6,55.8 L 351.5,53.7 L 350.4,54.2 L 349.2,53.0 L 348.1,54.2 L 347.0,53.7 L 345.8,55.8 L 344.7,53.7 L 343.6,53.0 L 342.5,53.7 L 341.3,58.2 L 340.2,54.3 L 339.1,54.3 L 337.9,53.7 L 336.8,55.8 L 335.7,57.4 L 334.6,74.0 L 333.4,66.0 L 332.3,74.0 L 331.2,95.1 L 330.0,95.5 L 328.9,136.3 L 327.8,134.3 L 326.7,134.3 L 325.5,136.3 L 324.4,136.3 L 323.3,153.8 L 322.1,147.6 L 321.0,173.7 L 319.9,147.9 L 318.8,173.8 L 317.6,147.4 L 316.5,148.2 L 315.4,181.3 L 314.2,177.2 L 313.1,186.5 L 312.0,286.4 L 310.9,189.1 L 309.7,178.1 L 308.6,179.2 L 307.5,181.5 L 306.3,180.3 L 305.2,193.0 L 304.1,189.7 L 303.0,191.1 L 301.8,194.0 L 300.7,182.1 L 299.6,182.0 L 298.4,191.5 L 297.3,187.6 L 296.2,183.7 L 295.1,189.0 L 293.9,185.8 L 292.8,213.8 L 291.7,192.3 L 290.5,188.6 L 289.4,192.6 L 288.3,188.9 L 287.2,186.9 L 286.0,197.7 L 284.9,194.1 L 283.8,192.4 L 282.6,188.7 L 281.5,192.8 L 280.4,193.3 L 279.3,193.9 L 278.1,190.3 L 277.0,194.2 L 275.9,191.3 L 274.7,195.8 L 273.6,192.2 L 272.5,196.4 L 271.4,193.2 L 270.2,194.3 L 269.1,202.3 L 268.0,195.4 L 266.8,199.7 L 265.7,196.7 L 264.6,197.9 L 263.5,198.8 L 262.3,199.0 L 261.2,200.2 L 260.1,205.4 L 258.9,201.5 L 257.8,203.0 L 256.7,203.7 L 255.6,204.5 L 254.4,205.3 L 253.3,205.9 L 252.2,207.1 L 251.1,208.8 L 249.9,207.8 L 248.8,209.7 L 247.7,226.9 L 246.5,213.6 L 245.4,211.7 L 244.3,210.7 L 243.2,221.7 L 242.0,238.9 L 240.9,218.2 L 239.8,226.8 L 238.6,215.4 L 237.5,221.3 L 236.4,232.2 L 235.3,218.7 L 234.1,220.0 L 233.0,218.3 L 231.9,217.3 L 230.7,262.3 L 229.6,253.7 L 228.5,238.9 L 227.4,224.0 L 226.2,242.6 L 225.1,221.4 L 224.0,239.7 L 222.8,256.7 L 221.7,227.0 L 220.6,235.8 L 219.5,224.6 L 218.3,228.6 L 217.2,233.7 L 216.1,226.2 L 214.9,234.3 L 213.8,237.2 L 212.7,232.1 L 211.6,233.7 L 210.4,248.0 L 209.3,233.3 L 208.2,231.5 L 207.0,231.3 L 205.9,231.1 L 204.8,230.4 L 203.7,242.2 L 202.5,251.2 L 201.4,266.3 L 200.3,249.6 L 199.1,254.7 L 198.0,291.9 L 196.9,345.8 L 195.8,287.5 L 194.6,271.7 L 193.5,268.7 L 192.4,252.1 L 191.2,258.8 L 190.1,267.8 L 189.0,250.6 L 187.9,249.3 L 186.7,248.2 L 185.6,247.0 L 184.5,247.7 L 183.3,246.5 L 182.2,245.3 L 181.1,245.2 L 180.0,250.7 L 178.8,277.8 L 177.7,243.6 L 176.6,243.4 L 175.4,248.7 L 174.3,247.5 L 173.2,247.2 L 172.1,247.1 L 170.9,248.4 L 169.8,247.9 L 168.7,247.8 L 167.5,248.5 L 166.4,249.8 L 165.3,251.3 L 164.2,256.3 L 163.0,252.1 L 161.9,249.8 L 160.8,257.3 L 159.6,250.6 L 158.5,336.1 L 157.4,325.1 L 156.3,293.3 L 155.1,288.2 L 154.0,292.3 L 152.9,287.1 L 151.7,287.7 L 150.6,287.1 L 149.5,292.0 L 148.4,323.0 L 147.2,292.3 L 146.1,287.1 L 145.0,325.5 L 143.8,295.0 L 142.7,290.0 L 141.6,287.1 L 140.5,287.7 L 139.3,287.1 L 138.2,293.3 L 137.1,292.3 L 135.9,288.2 L 134.8,287.1 L 133.7,287.1 L 132.6,322.1 L 131.4,292.0 L 130.3,292.3 L 129.2,302.7 L 128.0,287.1 L 126.9,290.0 L 125.8,292.3 L 124.7,294.1 L 123.5,287.1 L 122.4,290.0 L 121.3,287.1 L 120.1,292.3 L 119.0,288.3 L 117.9,287.1 L 116.8,296.9 L 115.6,287.1 L 114.5,292.1 L 113.4,287.1 L 112.2,287.1 L 111.1,287.8 L 110.0,290.0 L 108.9,287.1 L 107.7,287.8 L 106.6,287.1 L 105.5,287.1 L 104.3,287.8 L 103.2,287.1 L 102.1,287.1 L 101.0,287.1 L 99.8,287.1 L 98.7,292.1 L 97.6,287.1 L 96.5,287.1 L 95.3,287.1 L 94.2,287.1 L 93.1,287.1 L 91.9,287.1 L 90.8,292.3 L 89.7,287.1 L 88.6,287.1 L 87.4,287.1 L 86.3,287.1 L 85.2,287.1 L 84.0,287.1 L 82.9,287.1 L 81.8,290.0 L 80.7,287.1 L 79.5,287.1 L 78.4,287.1 L 77.3,328.3 L 76.1,294.9 L 75.0,287.1 L 73.9,292.3 L 72.8,292.3 L 71.6,292.3 L 70.5,287.1 L 69.4,325.0 L 68.2,287.1 L 67.1,287.1 L 66.0,312.8 L 64.9,287.1 L 63.7,287.1 L 62.6,287.1 L 61.5,294.9 L 60.3,287.1 L 60.3,287.1 L 61.5,294.9 L 62.6,287.1 L 63.7,287.1 L 64.9,306.7 L 66.0,322.1 L 67.1,328.3 L 68.2,328.3 L 69.4,325.0 L 70.5,440.0 L 71.6,440.0 L 72.8,440.0 L 73.9,440.0 L 75.0,440.0 L 76.1,440.0 L 77.3,440.0 L 78.4,434.8 L 79.5,440.0 L 80.7,440.0 L 81.8,421.3 L 82.9,434.8 L 84.0,440.0 L 85.2,440.0 L 86.3,440.0 L 87.4,440.0 L 88.6,434.8 L 89.7,440.0 L 90.8,440.0 L 91.9,440.0 L 93.1,434.8 L 94.2,440.0 L 95.3,435.5 L 96.5,428.4 L 97.6,440.0 L 98.7,438.8 L 99.8,440.0 L 101.0,434.8 L 102.1,434.8 L 103.2,440.0 L 104.3,426.4 L 105.5,419.4 L 106.6,434.8 L 107.7,415.6 L 108.9,440.0 L 110.0,424.3 L 111.1,434.8 L 112.2,412.4 L 113.4,417.8 L 114.5,419.5 L 115.6,437.4 L 116.8,429.5 L 117.9,440.0 L 119.0,425.0 L 120.1,440.0 L 121.3,408.6 L 122.4,434.8 L 123.5,428.9 L 124.7,424.4 L 125.8,440.0 L 126.9,440.0 L 128.0,440.0 L 129.2,434.8 L 130.3,437.5 L 131.4,440.0 L 132.6,434.8 L 133.7,440.0 L 134.8,440.0 L 135.9,440.0 L 137.1,434.8 L 138.2,440.0 L 139.3,440.0 L 140.5,434.1 L 141.6,440.0 L 142.7,429.3 L 143.8,434.8 L 145.0,373.6 L 146.1,440.0 L 147.2,440.0 L 148.4,434.8 L 149.5,401.0 L 150.6,415.7 L 151.7,412.2 L 152.9,427.6 L 154.0,423.2 L 155.1,415.7 L 156.3,412.2 L 157.4,414.9 L 158.5,411.4 L 159.6,439.6 L 160.8,435.7 L 161.9,437.9 L 163.0,440.0 L 164.2,434.8 L 165.3,432.8 L 166.4,430.7 L 167.5,353.4 L 168.7,419.7 L 169.8,435.1 L 170.9,440.0 L 172.1,419.7 L 173.2,436.9 L 174.3,430.1 L 175.4,438.4 L 176.6,439.1 L 177.7,431.8 L 178.8,440.0 L 180.0,433.9 L 181.1,430.7 L 182.2,432.9 L 183.3,420.7 L 184.5,423.6 L 185.6,440.0 L 186.7,436.0 L 187.9,418.9 L 189.0,439.3 L 190.1,431.0 L 191.2,416.4 L 192.4,440.0 L 193.5,430.7 L 194.6,420.7 L 195.8,440.0 L 196.9,414.2 L 198.0,427.8 L 199.1,437.7 L 200.3,420.7 L 201.4,430.8 L 202.5,434.8 L 203.7,440.0 L 204.8,434.8 L 205.9,440.0 L 207.0,417.0 L 208.2,434.8 L 209.3,440.0 L 210.4,440.0 L 211.6,422.7 L 212.7,434.8 L 213.8,440.0 L 214.9,440.0 L 216.1,434.8 L 217.2,440.0 L 218.3,436.7 L 219.5,440.0 L 220.6,431.6 L 221.7,435.5 L 222.8,434.8 L 224.0,440.0 L 225.1,440.0 L 226.2,419.9 L 227.4,431.9 L 228.5,424.3 L 229.6,435.0 L 230.7,432.4 L 231.9,434.8 L 233.0,440.0 L 234.1,434.8 L 235.3,440.0 L 236.4,427.7 L 237.5,430.1 L 238.6,424.1 L 239.8,427.9 L 240.9,427.6 L 242.0,428.9 L 243.2,434.8 L 244.3,440.0 L 245.4,440.0 L 246.5,426.1 L 247.7,434.8 L 248.8,440.0 L 249.9,425.6 L 251.1,434.8 L 252.2,434.8 L 253.3,440.0 L 254.4,423.3 L 255.6,434.8 L 256.7,437.7 L 257.8,440.0 L 258.9,434.8 L 260.1,434.8 L 261.2,440.0 L 262.3,440.0 L 263.5,440.0 L 264.6,440.0 L 265.7,440.0 L 266.8,440.0 L 268.0,435.6 L 269.1,440.0 L 270.2,440.0 L 271.4,440.0 L 272.5,440.0 L 273.6,440.0 L 274.7,440.0 L 275.9,434.8 L 277.0,440.0 L 278.1,440.0 L 279.3,432.4 L 280.4,440.0 L 281.5,434.8 L 282.6,432.1 L 283.8,440.0 L 284.9,434.8 L 286.0,427.6 L 287.2,440.0 L 288.3,440.0 L 289.4,434.8 L 290.5,440.0 L 291.7,440.0 L 292.8,440.0 L 293.9,440.0 L 295.1,440.0 L 296.2,440.0 L 297.3,440.0 L 298.4,440.0 L 299.6,440.0 L 300.7,380.9 L 301.8,399.5 L 303.0,402.1 L 304.1,399.5 L 305.2,402.1 L 306.3,402.1 L 307.5,402.1 L 308.6,353.2 L 309.7,399.5 L 310.9,399.5 L 312.0,385.2 L 313.1,402.1 L 314.2,402.1 L 315.4,399.5 L 316.5,373.4 L 317.6,399.5 L 318.8,402.1 L 319.9,399.5 L 321.0,399.5 L 322.1,402.1 L 323.3,388.3 L 324.4,402.1 L 325.5,402.1 L 326.7,397.9 L 327.8,398.2 L 328.9,408.6 L 330.0,408.3 L 331.2,408.6 L 332.3,404.3 L 333.4,420.3 L 334.6,419.9 L 335.7,420.3 L 336.8,420.2 L 337.9,429.8 L 339.1,429.4 L 340.2,429.5 L 341.3,429.2 L 342.5,432.5 L 343.6,432.5 L 344.7,435.4 L 345.8,435.4 L 347.0,440.0 L 348.1,440.0 L 349.2,440.0 L 350.4,440.0 L 351.5,440.0 L 352.6,434.8 L 353.7,440.0 L 354.9,440.0 L 356.0,440.0 L 357.1,440.0 L 358.3,440.0 L 359.4,440.0 L 360.5,440.0 L 361.6,436.0 L 362.8,440.0 L 363.9,440.0 L 365.0,440.0 L 366.2,434.8 L 367.3,440.0 L 368.4,440.0 L 369.5,440.0 L 370.7,440.0 L 371.8,440.0 L 372.9,440.0 L 374.1,436.0 L 375.2,440.0 L 376.3,440.0 L 377.4,440.0 L 378.6,429.8 L 379.7,435.7 L 380.8,429.7 L 382.0,440.0 L 383.1,440.0 L 384.2,440.0 L 385.3,429.7 L 386.5,440.0 L 387.6,440.0 L 388.7,440.0 L 389.9,440.0 L 391.0,440.0 L 392.1,440.0 L 393.2,436.0 L 394.4,440.0 L 395.5,440.0 L 396.6,440.0 L 397.8,436.0 L 398.9,440.0 L 400.0,440.0 L 401.1,440.0 L 402.3,440.0 L 403.4,440.0 L 404.5,440.0 L 405.6,440.0 L 406.8,436.0 L 407.9,440.0 L 409.0,440.0 L 410.2,440.0 L 411.3,440.0 L 412.4,440.0 L 413.5,432.6 L 414.7,419.7 L 415.8,420.0 L 416.9,420.3 L 418.1,419.6 L 419.2,420.3 L 420.3,407.9 L 421.4,408.0 L 422.6,408.3 L 423.7,408.7 L 424.8,403.6 L 426.0,408.6 L 427.1,408.7 L 428.2,398.3 L 429.3,397.6 L 430.5,398.3 L 431.6,397.6 L 432.7,388.4 L 433.9,387.8 L 435.0,378.3 L 436.1,370.6 L 437.2,367.3 L 438.4,356.9 L 439.5,321.6 L 440.6,313.1 L 441.8,316.0 L 442.9,316.8 L 444.0,316.3 L 445.1,317.0 L 446.3,318.3 L 447.4,317.9 L 448.5,319.2 L 449.7,325.5 L 450.8,322.7 L 451.9,326.7 L 453.0,327.0 L 454.2,319.6 L 455.3,328.2 L 456.4,320.6 L 457.6,317.1 L 458.7,327.1 L 459.8,326.3 L 460.9,329.5 L 462.1,327.5 L 463.2,327.5 L 464.3,333.6 L 465.5,327.5 L 466.6,328.0 L 467.7,335.1 L 468.8,333.2 L 470.0,335.3 L 471.1,328.4 L 472.2,339.4 L 473.4,326.1 L 474.5,327.5 L 475.6,345.8 L 476.7,335.4 L 477.9,328.8 L 479.0,336.7 L 480.1,337.0 L 481.3,335.0 L 482.4,338.3 L 483.5,336.6 L 484.6,313.6 L 485.8,337.7 L 486.9,335.9 L 488.0,335.9 L 489.2,339.3 L 490.3,337.5 L 491.4,338.6 L 492.5,326.1 L 493.7,311.0 L 494.8,340.2 L 495.9,337.0 L 497.1,322.7 L 498.2,338.7 L 499.3,331.7 L 500.4,332.9 L 501.6,332.8 L 502.7,333.1 L 503.8,326.5 L 505.0,329.1 L 506.1,325.0 L 507.2,328.0 L 508.3,334.2 L 509.5,326.2 L 510.6,332.2 L 511.7,339.1 L 512.9,336.9 L 514.0,352.4 L 515.1,340.5 L 516.2,350.1 L 517.4,347.7 L 518.5,341.8 L 519.6,353.1 L 520.8,371.7 L 521.9,368.6 L 523.0,370.0 L 524.1,352.2 L 525.3,363.6 L 526.4,360.7 L 527.5,363.7 L 528.7,393.3 L 529.8,389.5 L 530.9,359.2 L 532.0,396.3 L 533.2,392.4 L 534.3,393.4 L 535.4,389.6 L 536.6,389.5 L 537.7,399.3 L 538.8,356.4 L 539.9,306.3 L 541.1,400.4 L 542.2,282.3 L 543.3,282.4 L 544.5,327.0 L 545.6,325.2 L 546.7,320.5 L 547.8,400.6 L 549.0,396.6 L 550.1,321.7 L 551.2,283.3 L 552.4,374.5 L 553.5,293.8 L 554.6,393.5 L 555.7,350.1 L 556.9,347.6 L 558.0,238.7 L 559.1,351.5 L 560.2,293.9 L 561.4,400.8 L 562.5,396.8 L 563.6,153.7 L 564.8,283.2 L 565.9,294.8 L 567.0,372.6 L 568.1,402.3 L 569.3,370.7 L 570.4,391.2 L 571.5,344.5 L 572.7,344.5 L 573.8,179.2 L 574.9,252.4 L 576.0,330.0 L 577.2,397.4 L 578.3,252.3 L 579.4,383.3 L 580.6,385.5 L 581.7,383.8 L 582.8,391.2 L 583.9,401.1 L 585.1,404.8 L 586.2,294.9 L 587.3,252.2 L 588.5,283.0 L 589.6,405.8 L 590.7,225.8 L 591.8,399.3 L 593.0,373.8 L 594.1,387.5 L 595.2,391.2 L 596.4,304.7 L 597.5,405.8 L 598.6,312.2 L 599.7,314.0 L 600.9,393.5 L 602.0,397.4 L 603.1,317.9 L 604.3,317.9 L 605.4,318.6 L 606.5,319.4 L 607.6,330.3 L 608.8,397.1 L 609.9,401.1 L 611.0,399.3 L 612.2,317.2 L 613.3,318.7 L 614.4,343.9 L 615.5,361.9 L 616.7,402.6 L 617.8,395.3 L 618.9,399.3 L 620.1,330.3 L 621.2,387.5 L 622.3,391.2 L 623.4,232.5 L 624.6,269.5 L 625.7,269.5 L 626.8,234.0 L 628.0,397.1 L 629.1,401.1 L 630.2,397.4 L 631.3,294.1 L 632.5,294.9 L 633.6,405.0 L 634.7,269.5 L 635.9,252.3 L 637.0,387.5 L 638.1,397.1 L 639.2,402.4 L 640.4,401.1 L 641.5,406.6 L 642.6,283.4 L 643.8,283.4 L 644.9,294.1 L 646.0,403.0 L 647.1,407.2 L 648.3,399.3 L 649.4,387.5 L 650.5,332.3 L 651.7,391.2 L 652.8,283.5 L 653.9,348.5 L 655.0,284.0 L 656.2,351.0 L 657.3,393.5 L 658.4,397.4 L 659.6,407.2 L 660.7,283.9 L 661.8,397.1 L 662.9,401.1 L 664.1,387.5 L 665.2,401.6 L 666.3,391.2 L 667.5,405.8 L 668.6,366.8 L 669.7,399.3 L 670.8,281.6 L 672.0,284.4 L 673.1,348.9 L 674.2,352.6 L 675.4,346.6 L 676.5,354.7 L 677.6,371.2 L 678.7,389.5 L 679.9,374.4 L 681.0,400.4 L 682.1,325.3 L 683.3,404.5 L 684.4,400.9 L 685.5,351.1 L 686.6,283.5 L 687.8,386.9 L 688.9,369.8 L 690.0,394.7 L 691.2,390.6 L 692.3,411.8 L 693.4,392.3 L 694.5,396.8 L 695.7,416.2 L 696.8,409.1 L 697.9,393.7 L 699.1,403.6 L 700.2,413.5 L 701.3,367.7 L 702.4,399.5 L 703.6,403.2 L 704.7,402.3 L 705.8,372.2 L 706.9,405.0 L 708.1,397.0 L 709.2,409.3 L 710.3,370.4 L 711.5,352.9 L 712.6,401.8 L 713.7,399.8 L 714.8,397.3 L 716.0,406.0 L 717.1,404.0 L 718.2,401.3 L 719.4,351.8 L 720.5,327.7 L 721.6,398.2 L 722.7,354.4 L 723.9,329.6 L 725.0,341.6 L 726.1,351.0 L 727.3,391.2 L 728.4,343.9 L 729.5,305.0 L 730.6,403.3 L 731.8,400.7 L 732.9,389.7 L 734.0,208.6 L 735.2,381.5 L 736.3,393.5 Z" fill="#1a6ba0" fill-opacity="0.80" stroke="#0d3d5c" stroke-width="1.5"/>
<path d="M 447.3,218.1 L 447.1,218.1 L 446.9,218.1 L 446.7,218.1 L 446.4,234.1 L 446.2,238.6 L 446.0,281.7 L 445.8,218.0 L 445.6,277.3 L 445.3,195.0 L 445.1,257.6 L 444.9,257.6 L 444.7,274.2 L 444.4,286.6 L 444.2,193.7 L 444.0,218.2 L 443.8,238.0 L 443.5,218.9 L 443.3,163.9 L 443.1,165.8 L 442.9,217.7 L 442.6,218.9 L 442.4,241.8 L 442.2,238.8 L 442.0,139.4 L 441.7,193.3 L 441.5,276.4 L 441.3,196.4 L 441.1,257.3 L 440.8,116.1 L 440.6,134.8 L 440.4,112.5 L 440.2,125.8 L 439.9,160.9 L 439.7,114.1 L 439.5,166.1 L 439.3,108.1 L 439.0,100.4 L 438.8,100.2 L 438.6,99.5 L 438.4,103.6 L 438.1,142.3 L 437.9,131.1 L 437.7,101.0 L 437.5,280.9 L 437.2,119.6 L 437.0,137.8 L 436.8,116.1 L 436.6,108.5 L 436.4,108.2 L 436.1,114.6 L 435.9,249.5 L 435.7,102.0 L 435.5,98.5 L 435.2,103.5 L 435.0,95.3 L 434.8,97.0 L 434.6,95.3 L 434.3,104.9 L 434.1,323.8 L 433.9,193.8 L 433.7,136.5 L 433.4,120.5 L 433.2,112.2 L 433.0,112.0 L 432.8,99.3 L 432.5,110.6 L 432.3,97.2 L 432.1,102.5 L 431.9,218.5 L 431.6,99.4 L 431.4,99.4 L 431.2,98.6 L 431.0,97.9 L 430.7,108.3 L 430.5,125.1 L 430.3,105.7 L 430.1,111.7 L 429.8,66.0 L 429.6,66.0 L 429.4,67.3 L 429.2,101.2 L 428.9,95.1 L 428.7,57.4 L 428.5,57.4 L 428.3,74.0 L 428.1,74.0 L 427.8,58.9 L 427.6,112.1 L 427.4,55.8 L 427.2,55.8 L 426.9,67.3 L 426.7,70.8 L 426.5,55.8 L 426.3,53.7 L 426.0,53.7 L 425.8,62.5 L 425.6,62.5 L 425.4,78.6 L 425.1,54.3 L 424.9,54.3 L 424.7,55.8 L 424.5,55.8 L 424.2,58.2 L 424.0,58.2 L 423.8,54.3 L 423.6,54.3 L 423.3,58.9 L 423.1,65.2 L 422.9,70.0 L 422.7,66.0 L 422.4,59.4 L 422.2,58.2 L 422.0,61.0 L 421.8,55.8 L 421.5,63.3 L 421.3,55.8 L 421.1,55.8 L 420.9,53.7 L 420.6,55.8 L 420.4,70.0 L 420.2,70.8 L 420.0,53.0 L 419.7,58.9 L 419.5,53.7 L 419.3,53.7 L 419.1,53.7 L 418.9,55.8 L 418.6,57.9 L 418.4,58.6 L 418.2,61.0 L 418.0,58.6 L 417.7,57.9 L 417.5,55.8 L 417.3,57.9 L 417.1,55.8 L 416.8,58.9 L 416.6,53.7 L 416.4,53.7 L 416.2,54.2 L 415.9,72.1 L 415.7,55.8 L 415.5,54.3 L 415.3,54.2 L 415.0,54.2 L 414.8,121.2 L 414.6,58.9 L 414.4,53.0 L 414.1,58.2 L 413.9,53.0 L 413.7,58.0 L 413.5,58.0 L 413.2,59.4 L 413.0,59.4 L 412.8,55.7 L 412.6,64.0 L 412.3,58.2 L 412.1,53.7 L 411.9,54.2 L 411.7,55.8 L 411.4,53.7 L 411.2,55.8 L 411.0,55.8 L 410.8,55.8 L 410.6,100.8 L 410.3,55.8 L 410.1,58.9 L 409.9,58.6 L 409.7,57.8 L 409.4,60.9 L 409.2,53.7 L 409.0,54.3 L 408.8,53.7 L 408.5,58.0 L 408.3,54.3 L 408.1,55.8 L 407.9,55.8 L 407.6,55.8 L 407.4,55.8 L 407.2,53.7 L 407.0,57.9 L 406.7,57.9 L 406.5,53.7 L 406.3,53.7 L 406.1,60.9 L 405.8,58.7 L 405.6,58.9 L 405.4,63.0 L 405.2,59.1 L 404.9,58.9 L 404.7,59.0 L 404.5,59.5 L 404.3,63.7 L 404.0,58.2 L 403.8,104.7 L 403.6,53.0 L 403.4,54.2 L 403.1,57.9 L 402.9,53.0 L 402.7,55.8 L 402.5,54.3 L 402.2,58.2 L 402.0,59.4 L 401.8,55.8 L 401.6,58.2 L 401.4,60.9 L 401.1,59.4 L 400.9,58.2 L 400.7,68.4 L 400.5,61.0 L 400.2,110.2 L 400.0,53.7 L 399.8,58.0 L 399.6,53.7 L 399.3,53.7 L 399.1,131.1 L 398.9,54.2 L 398.7,63.1 L 398.4,57.9 L 398.2,54.2 L 398.0,134.2 L 397.8,57.9 L 397.5,55.8 L 397.3,63.0 L 397.1,58.2 L 396.9,55.8 L 396.6,60.9 L 396.4,58.2 L 396.2,58.6 L 396.0,60.9 L 395.7,55.8 L 395.5,57.9 L 395.3,63.6 L 395.1,55.8 L 394.8,55.8 L 394.6,63.0 L 394.4,55.8 L 394.2,60.9 L 393.9,54.3 L 393.7,53.7 L 393.5,59.5 L 393.3,57.9 L 393.1,54.3 L 392.8,53.7 L 392.6,63.5 L 392.4,58.2 L 392.2,58.9 L 391.9,68.4 L 391.7,55.8 L 391.5,66.0 L 391.3,54.2 L 391.0,53.7 L 390.8,70.8 L 390.6,54.2 L 390.4,55.8 L 390.1,58.9 L 389.9,53.7 L 389.7,61.0 L 389.5,53.0 L 389.2,138.8 L 389.0,58.2 L 388.8,53.0 L 388.6,84.7 L 388.3,106.4 L 388.1,53.7 L 387.9,55.8 L 387.7,58.9 L 387.4,53.7 L 387.2,54.3 L 387.0,57.9 L 386.8,59.4 L 386.5,106.4 L 386.3,78.6 L 386.1,54.3 L 385.9,54.2 L 385.6,61.0 L 385.4,53.7 L 385.2,72.1 L 385.0,54.2 L 384.7,55.8 L 384.5,53.7 L 384.3,58.9 L 384.1,55.8 L 383.9,58.2 L 383.6,63.3 L 383.4,57.9 L 383.2,55.8 L 383.0,60.9 L 382.7,100.8 L 382.5,57.9 L 382.3,58.9 L 382.1,64.0 L 381.8,58.6 L 381.6,57.9 L 381.4,68.4 L 381.2,57.9 L 380.9,58.6 L 380.7,98.1 L 380.5,184.8 L 380.3,57.9 L 380.0,110.2 L 379.8,55.8 L 379.6,63.0 L 379.4,57.9 L 379.1,58.2 L 378.9,55.8 L 378.7,63.3 L 378.5,53.7 L 378.2,65.2 L 378.0,67.3 L 377.8,55.8 L 377.6,53.7 L 377.3,55.8 L 377.1,54.3 L 376.9,54.2 L 376.7,99.6 L 376.4,68.4 L 376.2,59.4 L 376.0,54.3 L 375.8,63.5 L 375.6,57.9 L 375.3,55.8 L 375.1,53.7 L 374.9,58.9 L 374.7,55.8 L 374.4,53.7 L 374.2,53.0 L 374.0,117.7 L 373.8,58.2 L 373.5,61.0 L 373.3,53.0 L 373.1,55.8 L 372.9,57.4 L 372.6,59.4 L 372.4,53.7 L 372.2,54.2 L 372.0,57.4 L 371.7,70.8 L 371.5,55.8 L 371.3,54.2 L 371.1,66.0 L 370.8,55.8 L 370.6,58.9 L 370.4,63.0 L 370.2,54.3 L 369.9,53.7 L 369.7,139.2 L 369.5,64.2 L 369.3,53.7 L 369.0,63.8 L 368.8,59.1 L 368.6,55.8 L 368.4,55.8 L 368.1,57.9 L 367.9,55.8 L 367.7,72.1 L 367.5,55.8 L 367.3,57.9 L 367.0,63.3 L 366.8,63.7 L 366.6,58.2 L 366.4,63.3 L 366.1,58.3 L 365.9,58.6 L 365.7,55.8 L 365.5,58.2 L 365.2,57.9 L 365.0,55.8 L 364.8,55.8 L 364.6,54.3 L 364.3,57.9 L 364.1,57.9 L 363.9,54.2 L 363.7,53.7 L 363.4,58.9 L 363.2,58.1 L 363.0,53.7 L 362.8,53.7 L 362.5,53.7 L 362.3,102.1 L 362.1,68.4 L 361.9,59.4 L 361.6,58.2 L 361.4,55.8 L 361.2,58.2 L 361.0,59.4 L 360.7,54.3 L 360.5,55.8 L 360.3,63.4 L 360.1,53.0 L 359.8,54.3 L 359.6,127.8 L 359.4,53.0 L 359.2,54.3 L 358.9,67.3 L 358.7,64.2 L 358.5,58.3 L 358.3,58.9 L 358.1,59.6 L 357.8,58.9 L 357.6,58.9 L 357.4,59.1 L 357.2,58.9 L 356.9,53.7 L 356.7,58.7 L 356.5,53.7 L 356.3,55.8 L 356.0,53.7 L 355.8,53.7 L 355.6,55.8 L 355.4,58.9 L 355.1,55.8 L 354.9,54.3 L 354.7,55.8 L 354.5,63.0 L 354.2,54.3 L 354.0,54.3 L 353.8,53.7 L 353.6,54.2 L 353.3,53.7 L 353.1,55.8 L 352.9,57.9 L 352.7,57.9 L 352.4,58.2 L 352.2,55.8 L 352.0,57.9 L 351.8,55.8 L 351.5,53.7 L 351.3,55.8 L 351.1,57.9 L 350.9,53.7 L 350.6,57.9 L 350.4,54.2 L 350.2,59.1 L 350.0,136.1 L 349.8,55.8 L 349.5,55.8 L 349.3,59.4 L 349.1,53.0 L 348.9,58.0 L 348.6,53.0 L 348.4,53.7 L 348.2,58.9 L 348.0,61.0 L 347.7,54.3 L 347.5,54.2 L 347.3,54.2 L 347.1,54.3 L 346.8,63.7 L 346.6,53.7 L 346.4,54.2 L 346.2,53.7 L 345.9,55.8 L 345.7,57.9 L 345.5,55.8 L 345.3,57.9 L 345.0,58.2 L 344.8,134.2 L 344.6,58.6 L 344.4,53.7 L 344.1,55.8 L 343.9,53.7 L 343.7,53.7 L 343.5,55.8 L 343.2,54.3 L 343.0,53.0 L 342.8,53.0 L 342.6,131.1 L 342.3,57.4 L 342.1,53.7 L 341.9,55.8 L 341.7,57.4 L 341.4,55.8 L 341.2,58.2 L 341.0,72.1 L 340.8,59.4 L 340.6,66.0 L 340.3,70.0 L 340.1,70.0 L 339.9,54.3 L 339.7,61.0 L 339.4,54.3 L 339.2,58.2 L 339.0,55.8 L 338.8,55.8 L 338.5,64.0 L 338.3,54.3 L 338.1,67.3 L 337.9,65.1 L 337.6,62.5 L 337.4,53.7 L 337.2,53.7 L 337.0,55.8 L 336.7,100.8 L 336.5,78.6 L 336.3,55.8 L 336.1,55.8 L 335.8,58.9 L 335.6,67.3 L 335.4,67.3 L 335.2,65.1 L 334.9,57.4 L 334.7,57.4 L 334.5,96.8 L 334.3,100.8 L 334.0,96.8 L 333.8,74.0 L 333.6,74.0 L 333.4,67.3 L 333.1,67.3 L 332.9,66.0 L 332.7,66.0 L 332.5,95.5 L 332.3,95.5 L 332.0,74.0 L 331.8,139.3 L 331.6,139.3 L 331.4,117.7 L 331.1,96.8 L 330.9,95.1 L 330.7,95.1 L 330.5,136.2 L 330.2,95.5 L 330.0,95.5 L 329.8,125.0 L 329.6,117.7 L 329.3,175.8 L 329.1,137.4 L 328.9,136.7 L 328.7,136.3 L 328.4,136.3 L 328.2,136.3 L 328.0,137.7 L 327.8,137.7 L 327.5,140.6 L 327.3,247.7 L 327.1,134.3 L 326.9,134.3 L 326.6,156.3 L 326.4,156.3 L 326.2,281.9 L 326.0,134.3 L 325.7,286.1 L 325.5,136.3 L 325.3,136.3 L 325.1,137.7 L 324.8,364.1 L 324.6,330.5 L 324.4,136.3 L 324.2,137.7 L 323.9,137.7 L 323.7,387.8 L 323.5,156.1 L 323.3,153.8 L 323.1,153.8 L 322.8,367.3 L 322.6,330.5 L 322.4,347.1 L 322.2,370.6 L 321.9,346.9 L 321.7,346.9 L 321.5,378.1 L 321.3,367.3 L 321.0,377.5 L 320.8,377.5 L 320.6,367.1 L 320.4,198.3 L 320.1,198.3 L 319.9,153.6 L 319.7,153.6 L 319.5,153.6 L 319.2,153.6 L 319.0,153.6 L 318.8,153.6 L 318.6,153.6 L 318.3,153.6 L 318.1,153.6 L 317.9,153.6 L 317.7,153.6 L 317.4,153.6 L 317.2,198.0 L 317.0,198.0 L 316.8,198.0 L 316.5,197.0 L 316.3,197.0 L 316.1,197.0 L 315.9,197.0 L 315.6,197.0 L 315.4,197.0 L 315.2,197.0 L 315.0,197.0 L 314.8,197.0 L 314.5,197.0 L 314.3,197.0 L 314.1,197.0 L 313.9,197.0 L 313.6,197.0 L 313.4,197.0 L 313.2,196.7 L 313.0,196.7 L 313.0,196.7 L 313.2,196.7 L 313.4,197.0 L 313.6,197.0 L 313.9,197.0 L 314.1,197.0 L 314.3,197.0 L 314.5,197.0 L 314.8,197.0 L 315.0,197.0 L 315.2,197.0 L 315.4,197.0 L 315.6,197.0 L 315.9,197.0 L 316.1,197.0 L 316.3,197.0 L 316.5,197.0 L 316.8,198.0 L 317.0,198.0 L 317.2,198.0 L 317.4,153.6 L 317.7,153.6 L 317.9,153.6 L 318.1,153.6 L 318.3,153.6 L 318.6,153.6 L 318.8,153.6 L 319.0,153.6 L 319.2,153.6 L 319.5,153.6 L 319.7,153.6 L 319.9,153.6 L 320.1,198.3 L 320.4,198.3 L 320.6,367.1 L 320.8,377.5 L 321.0,377.5 L 321.3,367.3 L 321.5,378.2 L 321.7,387.8 L 321.9,387.8 L 322.2,387.8 L 322.4,377.9 L 322.6,388.3 L 322.8,388.3 L 323.1,387.8 L 323.3,370.1 L 323.5,388.0 L 323.7,387.8 L 323.9,377.6 L 324.2,377.6 L 324.4,397.6 L 324.6,397.6 L 324.8,398.2 L 325.1,378.1 L 325.3,398.2 L 325.5,397.7 L 325.7,397.9 L 326.0,388.0 L 326.2,397.6 L 326.4,384.4 L 326.6,388.0 L 326.9,384.2 L 327.1,383.9 L 327.3,368.0 L 327.5,397.7 L 327.8,398.2 L 328.0,407.9 L 328.2,397.9 L 328.4,408.6 L 328.7,394.1 L 328.9,408.6 L 329.1,408.0 L 329.3,408.3 L 329.6,407.9 L 329.8,384.2 L 330.0,364.3 L 330.2,334.1 L 330.5,368.0 L 330.7,393.6 L 330.9,408.0 L 331.1,403.6 L 331.4,408.6 L 331.6,404.3 L 331.8,404.2 L 332.0,403.7 L 332.3,364.8 L 332.5,403.9 L 332.7,419.6 L 332.9,420.3 L 333.1,341.2 L 333.4,420.2 L 333.6,419.7 L 333.8,419.9 L 334.0,408.0 L 334.3,404.3 L 334.5,393.5 L 334.7,407.9 L 334.9,364.4 L 335.2,420.2 L 335.4,420.3 L 335.6,419.9 L 335.8,420.2 L 336.1,415.5 L 336.3,419.9 L 336.5,415.3 L 336.7,330.5 L 337.0,403.7 L 337.2,331.7 L 337.4,403.6 L 337.6,429.5 L 337.9,429.8 L 338.1,419.7 L 338.3,429.4 L 338.5,429.2 L 338.8,429.2 L 339.0,429.2 L 339.2,341.2 L 339.4,328.2 L 339.7,429.5 L 339.9,393.5 L 340.1,429.4 L 340.3,429.2 L 340.6,429.2 L 340.8,424.5 L 341.0,429.2 L 341.2,424.3 L 341.4,424.3 L 341.7,432.5 L 341.9,419.6 L 342.1,424.5 L 342.3,424.5 L 342.6,429.2 L 342.8,424.3 L 343.0,387.8 L 343.2,419.6 L 343.5,424.3 L 343.7,432.5 L 343.9,427.5 L 344.1,435.4 L 344.4,433.2 L 344.6,397.6 L 344.8,424.3 L 345.0,407.9 L 345.3,435.4 L 345.5,433.2 L 345.7,297.9 L 345.9,433.2 L 346.2,432.5 L 346.4,430.3 L 346.6,428.2 L 346.8,440.0 L 347.1,440.0 L 347.3,430.3 L 347.5,435.9 L 347.7,435.4 L 348.0,440.0 L 348.2,428.2 L 348.4,440.0 L 348.6,265.7 L 348.9,434.8 L 349.1,434.8 L 349.3,435.9 L 349.5,430.8 L 349.8,331.7 L 350.0,434.8 L 350.2,440.0 L 350.4,434.8 L 350.6,429.8 L 350.9,397.6 L 351.1,440.0 L 351.3,388.0 L 351.5,347.1 L 351.8,388.3 L 352.0,434.8 L 352.2,408.0 L 352.4,424.9 L 352.7,393.5 L 352.9,434.8 L 353.1,374.7 L 353.3,440.0 L 353.6,440.0 L 353.8,408.6 L 354.0,419.7 L 354.2,440.0 L 354.5,408.7 L 354.7,440.0 L 354.9,435.7 L 355.1,434.8 L 355.4,436.0 L 355.6,415.0 L 355.8,436.0 L 356.0,440.0 L 356.3,434.8 L 356.5,430.6 L 356.7,440.0 L 356.9,430.9 L 357.2,436.0 L 357.4,434.8 L 357.6,429.2 L 357.8,436.0 L 358.1,440.0 L 358.3,429.4 L 358.5,422.3 L 358.7,440.0 L 358.9,424.5 L 359.2,430.9 L 359.4,440.0 L 359.6,440.0 L 359.8,436.0 L 360.1,434.8 L 360.3,422.3 L 360.5,408.6 L 360.7,434.8 L 361.0,436.0 L 361.2,432.5 L 361.4,427.5 L 361.6,432.5 L 361.9,435.4 L 362.1,440.0 L 362.3,432.5 L 362.5,432.6 L 362.8,432.6 L 363.0,430.3 L 363.2,440.0 L 363.4,436.0 L 363.7,427.6 L 363.9,433.2 L 364.1,422.3 L 364.3,434.8 L 364.6,436.0 L 364.8,440.0 L 365.0,432.5 L 365.2,433.2 L 365.5,430.9 L 365.7,434.8 L 365.9,432.5 L 366.1,428.2 L 366.4,440.0 L 366.6,424.3 L 366.8,427.5 L 367.0,432.5 L 367.3,434.8 L 367.5,432.6 L 367.7,440.0 L 367.9,427.5 L 368.1,427.6 L 368.4,434.8 L 368.6,287.3 L 368.8,436.0 L 369.0,440.0 L 369.3,428.2 L 369.5,430.9 L 369.7,434.8 L 369.9,297.8 L 370.2,417.6 L 370.4,365.6 L 370.6,358.0 L 370.8,440.0 L 371.1,440.0 L 371.3,434.8 L 371.5,434.8 L 371.7,373.9 L 372.0,393.5 L 372.2,436.0 L 372.4,440.0 L 372.6,430.9 L 372.9,434.8 L 373.1,424.9 L 373.3,417.6 L 373.5,436.0 L 373.8,387.8 L 374.0,430.9 L 374.2,403.6 L 374.4,422.3 L 374.7,417.6 L 374.9,435.7 L 375.1,430.6 L 375.3,440.0 L 375.6,434.8 L 375.8,161.0 L 376.0,440.0 L 376.2,434.8 L 376.4,337.7 L 376.7,335.2 L 376.9,357.3 L 377.1,440.0 L 377.3,440.0 L 377.6,434.8 L 377.8,127.8 L 378.0,429.8 L 378.2,314.1 L 378.5,315.2 L 378.7,315.8 L 378.9,365.6 L 379.1,419.6 L 379.4,422.3 L 379.6,435.7 L 379.8,317.7 L 380.0,429.7 L 380.3,318.5 L 380.5,318.7 L 380.7,318.9 L 380.9,440.0 L 381.2,365.6 L 381.4,397.6 L 381.6,440.0 L 381.8,373.9 L 382.1,377.5 L 382.3,434.8 L 382.5,440.0 L 382.7,417.6 L 383.0,430.3 L 383.2,435.4 L 383.4,440.0 L 383.6,436.0 L 383.9,397.6 L 384.1,387.8 L 384.3,417.6 L 384.5,422.3 L 384.7,377.5 L 385.0,424.8 L 385.2,429.7 L 385.4,320.0 L 385.6,434.8 L 385.9,364.1 L 386.1,440.0 L 386.3,367.3 L 386.5,341.2 L 386.8,430.9 L 387.0,434.8 L 387.2,436.0 L 387.4,440.0 L 387.7,435.4 L 387.9,440.0 L 388.1,430.9 L 388.3,432.6 L 388.6,436.0 L 388.8,432.5 L 389.0,434.8 L 389.2,430.8 L 389.5,432.5 L 389.7,440.0 L 389.9,432.6 L 390.1,434.8 L 390.4,433.1 L 390.6,433.5 L 390.8,440.0 L 391.0,385.5 L 391.3,434.8 L 391.5,424.3 L 391.7,424.5 L 391.9,440.0 L 392.2,429.2 L 392.4,427.5 L 392.6,430.9 L 392.8,430.3 L 393.1,434.8 L 393.3,436.0 L 393.5,435.4 L 393.7,440.0 L 393.9,435.9 L 394.2,434.8 L 394.4,427.6 L 394.6,434.8 L 394.8,433.5 L 395.1,440.0 L 395.3,434.8 L 395.5,440.0 L 395.7,420.2 L 396.0,417.6 L 396.2,440.0 L 396.4,436.0 L 396.6,430.3 L 396.9,422.3 L 397.1,417.6 L 397.3,424.8 L 397.5,436.0 L 397.8,434.8 L 398.0,434.8 L 398.2,422.3 L 398.4,434.8 L 398.7,440.0 L 398.9,430.9 L 399.1,440.0 L 399.3,434.8 L 399.6,440.0 L 399.8,430.9 L 400.0,436.0 L 400.2,393.8 L 400.5,434.8 L 400.7,440.0 L 400.9,436.0 L 401.1,434.8 L 401.4,397.9 L 401.6,430.9 L 401.8,440.0 L 402.0,384.5 L 402.2,430.9 L 402.5,440.0 L 402.7,434.8 L 402.9,436.0 L 403.1,393.6 L 403.4,434.8 L 403.6,436.0 L 403.8,440.0 L 404.0,430.9 L 404.3,440.0 L 404.5,422.3 L 404.7,430.9 L 404.9,440.0 L 405.2,435.4 L 405.4,436.0 L 405.6,368.1 L 405.8,434.8 L 406.1,436.0 L 406.3,436.0 L 406.5,428.2 L 406.7,434.8 L 407.0,422.3 L 407.2,430.8 L 407.4,367.3 L 407.6,440.0 L 407.9,435.4 L 408.1,428.2 L 408.3,440.0 L 408.5,428.2 L 408.8,434.8 L 409.0,435.9 L 409.2,300.3 L 409.4,430.6 L 409.7,434.8 L 409.9,434.8 L 410.1,440.0 L 410.3,433.2 L 410.6,440.0 L 410.8,435.9 L 411.0,432.6 L 411.2,435.7 L 411.4,440.0 L 411.7,440.0 L 411.9,433.5 L 412.1,432.5 L 412.3,429.2 L 412.6,429.7 L 412.8,432.6 L 413.0,429.4 L 413.2,318.2 L 413.5,415.3 L 413.7,358.0 L 413.9,419.7 L 414.1,415.5 L 414.4,415.6 L 414.6,363.8 L 414.8,407.9 L 415.0,341.2 L 415.3,320.2 L 415.5,353.9 L 415.7,420.0 L 415.9,328.2 L 416.2,420.2 L 416.4,318.2 L 416.6,420.3 L 416.8,415.6 L 417.1,292.9 L 417.3,393.5 L 417.5,143.1 L 417.7,403.6 L 418.0,419.6 L 418.2,330.5 L 418.4,403.7 L 418.6,320.2 L 418.9,383.9 L 419.1,420.3 L 419.3,298.6 L 419.5,397.6 L 419.7,387.8 L 420.0,403.9 L 420.2,407.9 L 420.4,373.9 L 420.6,408.0 L 420.9,404.3 L 421.1,404.2 L 421.3,387.8 L 421.5,334.1 L 421.8,393.6 L 422.0,302.2 L 422.2,364.1 L 422.4,403.6 L 422.7,408.3 L 422.9,331.7 L 423.1,408.6 L 423.3,408.3 L 423.6,408.7 L 423.8,408.6 L 424.0,403.6 L 424.2,394.1 L 424.5,397.7 L 424.7,394.1 L 424.9,393.6 L 425.1,407.9 L 425.4,408.3 L 425.6,384.2 L 425.8,408.0 L 426.0,408.6 L 426.3,408.7 L 426.5,408.6 L 426.7,407.9 L 426.9,398.2 L 427.2,397.9 L 427.4,398.3 L 427.6,398.2 L 427.8,397.7 L 428.1,364.7 L 428.3,377.6 L 428.5,388.1 L 428.7,384.2 L 428.9,384.0 L 429.2,397.6 L 429.4,397.9 L 429.6,388.3 L 429.8,397.7 L 430.1,398.2 L 430.3,398.3 L 430.5,398.2 L 430.7,374.0 L 431.0,397.6 L 431.2,378.3 L 431.4,378.2 L 431.6,388.1 L 431.9,377.6 L 432.1,387.8 L 432.3,388.3 L 432.5,388.4 L 432.8,323.8 L 433.0,369.1 L 433.2,387.8 L 433.4,377.5 L 433.7,377.9 L 433.9,364.6 L 434.1,378.2 L 434.3,368.0 L 434.6,378.3 L 434.8,368.1 L 435.0,377.5 L 435.2,369.1 L 435.5,370.6 L 435.7,320.1 L 435.9,330.5 L 436.1,325.9 L 436.4,367.3 L 436.6,291.1 L 436.8,367.1 L 437.0,358.0 L 437.2,295.1 L 437.5,346.9 L 437.7,356.9 L 437.9,311.3 L 438.1,321.6 L 438.4,297.8 L 438.6,317.7 L 438.8,321.6 L 439.0,312.3 L 439.3,297.2 L 439.5,317.7 L 439.7,307.4 L 439.9,300.2 L 440.2,292.3 L 440.4,313.1 L 440.6,298.8 L 440.8,296.4 L 441.1,300.7 L 441.3,313.1 L 441.5,313.1 L 441.7,296.2 L 442.0,297.7 L 442.2,299.2 L 442.4,300.8 L 442.6,297.7 L 442.9,292.3 L 443.1,298.6 L 443.3,298.7 L 443.5,296.3 L 443.8,298.1 L 444.0,218.2 L 444.2,298.7 L 444.4,300.3 L 444.7,297.1 L 444.9,297.1 L 445.1,298.3 L 445.3,292.7 L 445.6,277.3 L 445.8,292.8 L 446.0,288.4 L 446.2,281.6 L 446.4,286.6 L 446.7,287.3 L 446.9,238.6 L 447.1,218.1 L 447.3,218.1 Z" fill="#c06010" fill-opacity="0.65" stroke="#c06010" stroke-width="1.2"/>
<text x="70" y="250" text-anchor="start" dominant-baseline="middle" font-family="'OpenDyslexic', 'OpenDyslexicMono', sans-serif" font-size="11" fill="#333333">PORT</text>
<text x="730" y="250" text-anchor="end" dominant-baseline="middle" font-family="'OpenDyslexic', 'OpenDyslexicMono', sans-serif" font-size="11" fill="#333333">STBD</text>
<line x1="60" y1="440.0" x2="740" y2="440.0" stroke="#cccccc" stroke-width="0.8" stroke-dasharray="6,4"/>
</svg>
