<?xml version="1.0" encoding="UTF-8"?>
<svg xmlns="http://www.w3.org/2000/svg" viewBox="0 0 1200 600" width="1200" height="600">
<defs>
  <style>
    @import url('https://fonts.cdnfonts.com/css/opendyslexic');
    text, tspan { font-family: 'OpenDyslexic', 'OpenDyslexicMono', sans-serif; }
  </style>
</defs>
<rect width="1200" height="600" fill="#f8f8f8"/>
<rect x="0" y="0" width="1200" height="36" fill="#0d3d5c"/>
<text x="600" y="24" text-anchor="middle" font-family="'OpenDyslexic', 'OpenDyslexicMono', sans-serif" font-size="14" font-weight="bold" fill="#ffffff">SERENITY-CLASS TILTROTOR UAV — BOTTOM VIEW  |  Rev O</text>
<path d="M 60.5,264.4 L 61.8,187.2 L 63.1,186.5 L 64.4,181.6 L 65.7,181.5 L 67.0,188.6 L 68.2,183.2 L 69.5,183.1 L 70.8,175.9 L 72.1,176.3 L 73.4,188.6 L 74.7,177.7 L 76.0,175.2 L 77.2,174.9 L 78.5,174.6 L 79.8,174.4 L 81.1,174.3 L 82.4,176.5 L 83.7,176.3 L 85.0,173.0 L 86.2,188.6 L 87.5,187.2 L 88.8,175.0 L 90.1,189.8 L 91.4,188.6 L 92.7,188.3 L 94.0,179.0 L 95.2,193.6 L 96.5,193.6 L 97.8,180.8 L 99.1,194.8 L 100.4,170.5 L 101.7,186.4 L 103.0,173.5 L 104.2,172.5 L 105.5,177.8 L 106.8,189.0 L 108.1,169.3 L 109.4,168.6 L 110.7,171.5 L 112.0,170.7 L 113.2,185.3 L 114.5,166.7 L 115.8,178.1 L 117.1,168.9 L 118.4,174.4 L 119.7,187.1 L 121.0,176.3 L 122.2,162.9 L 123.5,211.8 L 124.8,165.3 L 126.1,165.3 L 127.4,263.9 L 128.7,259.9 L 130.0,160.6 L 131.2,170.6 L 132.5,163.0 L 133.8,172.8 L 135.1,265.5 L 136.4,211.8 L 137.7,212.3 L 139.0,159.4 L 140.2,161.9 L 141.5,179.3 L 142.8,181.0 L 144.1,158.2 L 145.4,156.9 L 146.7,157.6 L 148.0,160.1 L 149.2,157.6 L 150.5,160.2 L 151.8,193.7 L 153.1,156.1 L 154.4,155.0 L 155.7,157.6 L 157.0,153.6 L 158.2,150.7 L 159.5,153.6 L 160.8,153.6 L 162.1,153.6 L 163.4,153.6 L 164.7,153.6 L 166.0,153.6 L 167.2,153.6 L 168.5,153.6 L 169.8,153.6 L 171.1,153.6 L 172.4,153.6 L 173.7,194.0 L 175.0,190.2 L 176.2,186.0 L 177.5,182.2 L 178.8,187.6 L 180.1,177.4 L 181.4,173.1 L 182.7,172.9 L 184.0,170.7 L 185.2,169.3 L 186.5,166.3 L 187.8,165.9 L 189.1,165.7 L 190.4,119.8 L 191.7,127.2 L 193.0,119.6 L 194.2,119.4 L 195.5,120.6 L 196.8,119.2 L 198.1,117.3 L 199.4,120.2 L 200.7,120.1 L 202.0,119.9 L 203.2,114.3 L 204.5,113.0 L 205.8,117.0 L 207.1,115.8 L 208.4,112.7 L 209.7,112.8 L 211.0,112.8 L 212.2,142.3 L 213.5,115.6 L 214.8,145.7 L 216.1,117.3 L 217.4,117.3 L 218.7,117.0 L 220.0,115.7 L 221.2,116.4 L 222.5,116.7 L 223.8,123.8 L 225.1,119.0 L 226.4,122.2 L 227.7,124.8 L 229.0,124.7 L 230.2,123.0 L 231.5,128.3 L 232.8,125.4 L 234.1,127.6 L 235.4,129.4 L 236.7,129.9 L 238.0,134.1 L 239.2,139.2 L 240.5,135.6 L 241.8,135.9 L 243.1,134.9 L 244.4,136.6 L 245.7,130.9 L 247.0,130.7 L 248.2,114.5 L 249.5,130.7 L 250.8,117.2 L 252.1,128.4 L 253.4,130.6 L 254.7,131.7 L 256.0,128.9 L 257.2,129.5 L 258.5,126.8 L 259.8,129.1 L 261.1,130.8 L 262.4,129.3 L 263.7,129.5 L 265.0,129.3 L 266.2,127.4 L 267.5,125.7 L 268.8,125.2 L 270.1,122.5 L 271.4,124.9 L 272.7,124.9 L 274.0,126.2 L 275.2,124.1 L 276.5,123.3 L 277.8,112.0 L 279.1,122.3 L 280.4,121.6 L 281.7,121.3 L 283.0,121.5 L 284.2,122.2 L 285.5,122.1 L 286.8,120.1 L 288.1,119.7 L 289.4,119.6 L 290.7,119.6 L 292.0,120.0 L 293.2,120.9 L 294.5,166.0 L 295.8,177.2 L 297.1,181.5 L 298.4,110.1 L 299.7,118.2 L 301.0,187.2 L 302.2,174.3 L 303.5,161.9 L 304.8,120.9 L 306.1,119.7 L 307.4,119.5 L 308.7,119.6 L 310.0,119.8 L 311.2,120.5 L 312.5,123.1 L 313.8,122.2 L 315.1,121.4 L 316.4,121.3 L 317.7,121.6 L 319.0,114.7 L 320.2,112.0 L 321.5,123.3 L 322.8,124.1 L 324.1,125.5 L 325.4,124.9 L 326.7,122.5 L 328.0,125.2 L 329.2,126.1 L 330.5,125.7 L 331.8,129.5 L 333.1,129.3 L 334.4,129.3 L 335.7,129.4 L 337.0,129.1 L 338.2,126.8 L 339.5,131.4 L 340.8,129.5 L 342.1,128.9 L 343.4,130.6 L 344.7,129.5 L 346.0,128.4 L 347.2,117.2 L 348.5,114.5 L 349.8,133.0 L 351.1,130.7 L 352.4,132.6 L 353.7,136.1 L 355.0,134.9 L 356.2,135.6 L 357.5,143.3 L 358.8,139.2 L 360.1,131.6 L 361.4,129.9 L 362.7,129.4 L 364.0,125.4 L 365.2,127.6 L 366.5,123.0 L 367.8,124.7 L 369.1,124.8 L 370.4,122.2 L 371.7,122.3 L 373.0,119.0 L 374.2,123.8 L 375.5,116.4 L 376.8,119.6 L 378.1,115.7 L 379.4,117.0 L 380.7,117.3 L 382.0,117.3 L 383.2,115.6 L 384.5,115.6 L 385.8,115.5 L 387.1,112.8 L 388.4,136.9 L 389.7,112.7 L 390.9,117.0 L 392.2,127.9 L 393.5,113.0 L 394.8,114.3 L 396.1,119.9 L 397.4,120.1 L 398.7,117.3 L 399.9,119.2 L 401.2,122.1 L 402.5,119.4 L 403.8,119.6 L 405.1,141.5 L 406.4,121.5 L 407.7,119.8 L 408.9,165.7 L 410.2,166.0 L 411.5,169.2 L 412.8,170.0 L 414.1,171.8 L 415.4,172.9 L 416.7,176.6 L 417.9,177.4 L 419.2,182.2 L 420.5,184.3 L 421.8,188.1 L 423.1,191.9 L 424.4,351.6 L 425.7,334.3 L 426.9,370.4 L 428.2,382.9 L 429.5,344.9 L 430.8,334.2 L 432.1,310.4 L 433.4,351.5 L 434.7,338.3 L 435.9,320.3 L 437.2,317.7 L 438.5,313.1 L 439.8,310.3 L 441.1,322.2 L 442.4,310.2 L 443.7,318.2 L 444.9,323.2 L 446.2,315.7 L 447.5,313.0 L 448.8,393.2 L 450.1,346.9 L 451.4,310.1 L 452.7,311.7 L 453.9,312.9 L 455.2,310.1 L 456.5,339.1 L 457.8,321.1 L 459.1,314.7 L 460.4,311.9 L 461.7,378.5 L 462.9,312.8 L 464.2,310.0 L 465.5,362.9 L 466.8,312.8 L 468.1,310.0 L 469.4,321.1 L 470.7,312.7 L 471.9,309.9 L 473.2,319.0 L 474.5,312.7 L 475.8,309.9 L 477.1,309.9 L 478.4,312.6 L 479.7,309.8 L 480.9,330.7 L 482.2,312.6 L 483.5,309.8 L 484.8,309.8 L 486.1,319.9 L 487.4,312.5 L 488.7,309.7 L 489.9,309.7 L 491.2,309.7 L 492.5,312.5 L 493.8,312.5 L 495.1,309.6 L 496.4,309.6 L 497.7,309.6 L 498.9,309.6 L 500.2,309.6 L 501.5,309.6 L 502.8,309.6 L 504.1,309.5 L 505.4,309.5 L 506.7,309.5 L 507.9,312.3 L 509.2,309.5 L 510.5,309.5 L 511.8,309.5 L 513.1,309.5 L 514.4,309.4 L 515.7,309.4 L 516.9,317.1 L 518.2,312.2 L 519.5,312.2 L 520.8,309.4 L 522.1,309.4 L 523.4,309.3 L 524.7,309.3 L 525.9,316.9 L 527.2,324.5 L 528.5,328.3 L 529.8,336.7 L 531.1,334.5 L 532.4,335.3 L 533.7,341.1 L 534.9,342.0 L 536.2,345.6 L 537.5,344.3 L 538.8,348.9 L 540.1,347.8 L 541.4,350.3 L 542.7,353.1 L 543.9,352.1 L 545.2,356.5 L 546.5,354.0 L 547.8,356.3 L 549.1,357.4 L 550.4,359.2 L 551.7,360.5 L 552.9,364.3 L 554.2,367.6 L 555.5,371.5 L 556.8,372.8 L 558.1,372.0 L 559.4,378.4 L 560.7,372.1 L 561.9,370.7 L 563.2,372.1 L 564.5,370.8 L 565.8,375.1 L 567.1,370.8 L 568.4,371.1 L 569.7,373.9 L 570.9,373.6 L 572.2,373.3 L 573.5,376.5 L 574.8,376.1 L 576.1,375.5 L 577.4,411.7 L 578.7,409.6 L 579.9,439.3 L 581.2,441.2 L 582.5,443.3 L 583.8,445.3 L 585.1,447.6 L 586.4,450.9 L 587.7,451.8 L 588.9,452.3 L 590.2,452.9 L 591.5,454.1 L 592.8,457.1 L 594.1,453.6 L 595.4,460.9 L 596.7,462.2 L 597.9,462.2 L 599.2,462.2 L 600.5,462.2 L 601.8,462.2 L 603.1,462.2 L 604.4,462.2 L 605.7,462.2 L 606.9,462.2 L 608.2,462.2 L 609.5,462.2 L 610.8,462.2 L 612.1,462.2 L 613.4,462.2 L 614.7,462.2 L 615.9,462.2 L 617.2,462.2 L 618.5,287.1 L 619.8,294.9 L 621.1,279.4 L 622.4,273.7 L 623.7,271.8 L 624.9,273.0 L 626.2,271.1 L 627.5,266.1 L 628.8,265.3 L 630.1,259.1 L 631.4,258.1 L 632.7,257.7 L 633.9,257.6 L 635.2,257.7 L 636.5,258.0 L 637.8,258.6 L 639.1,259.3 L 640.4,259.9 L 641.7,260.2 L 642.9,258.6 L 644.2,254.7 L 645.5,253.8 L 646.8,254.4 L 648.1,255.7 L 649.4,256.3 L 650.7,238.6 L 651.9,257.7 L 653.2,241.4 L 654.5,250.0 L 655.8,238.7 L 657.1,245.9 L 658.4,241.5 L 659.7,253.7 L 660.9,252.2 L 662.2,253.4 L 663.5,246.4 L 664.8,247.2 L 666.1,244.5 L 667.4,244.5 L 668.7,245.2 L 669.9,245.3 L 671.2,244.9 L 672.5,247.3 L 673.8,252.0 L 675.1,247.2 L 676.4,245.3 L 677.7,245.2 L 678.9,244.3 L 680.2,244.2 L 681.5,250.2 L 682.8,250.5 L 684.1,249.6 L 685.4,250.2 L 686.7,246.4 L 687.9,247.5 L 689.2,247.1 L 690.5,244.8 L 691.8,243.9 L 693.1,249.2 L 694.4,250.5 L 695.7,254.5 L 696.9,248.2 L 698.2,247.1 L 699.5,249.0 L 700.8,249.0 L 702.1,246.7 L 703.4,245.3 L 704.7,245.5 L 705.9,252.3 L 707.2,251.4 L 708.5,249.2 L 709.8,249.0 L 711.1,249.1 L 712.4,246.7 L 713.7,249.0 L 714.9,247.4 L 716.2,246.7 L 717.5,246.8 L 718.8,249.3 L 720.1,248.9 L 721.4,248.0 L 722.7,243.6 L 723.9,245.6 L 725.2,240.9 L 726.5,243.7 L 727.8,257.0 L 729.1,245.7 L 730.4,241.0 L 731.7,258.7 L 732.9,255.8 L 734.2,257.0 L 735.5,257.8 L 736.8,262.0 L 738.1,265.2 L 739.4,263.8 L 740.7,261.3 L 741.9,264.1 L 743.2,262.4 L 744.5,270.4 L 745.8,268.1 L 747.1,266.0 L 748.4,258.3 L 749.6,270.7 L 750.9,279.6 L 752.2,256.5 L 753.5,256.5 L 754.8,256.5 L 756.1,256.5 L 757.4,256.5 L 758.6,256.5 L 759.9,256.5 L 761.2,256.5 L 762.5,256.5 L 763.8,256.5 L 765.1,256.5 L 766.4,256.5 L 767.6,256.5 L 768.9,256.5 L 770.2,256.5 L 771.5,256.5 L 772.8,256.5 L 774.1,136.2 L 775.4,126.3 L 776.6,117.1 L 777.9,107.2 L 779.2,117.3 L 780.5,107.4 L 781.8,108.6 L 783.1,127.3 L 784.4,118.4 L 785.6,108.8 L 786.9,144.7 L 788.2,96.8 L 789.5,95.8 L 790.8,124.6 L 792.1,98.6 L 793.4,97.6 L 794.6,96.3 L 795.9,122.8 L 797.2,85.1 L 798.5,84.1 L 799.8,129.9 L 801.1,85.5 L 802.4,86.2 L 803.6,131.0 L 804.9,87.5 L 806.2,112.5 L 807.5,73.9 L 808.8,75.1 L 810.1,76.5 L 811.4,76.3 L 812.6,105.6 L 813.9,97.1 L 815.2,100.2 L 816.5,98.8 L 817.8,98.5 L 819.1,80.6 L 820.4,92.7 L 821.6,82.8 L 822.9,84.7 L 824.2,65.3 L 825.5,70.9 L 826.8,68.0 L 828.1,73.5 L 829.4,72.3 L 830.6,70.4 L 831.9,74.7 L 833.2,71.2 L 834.5,73.0 L 835.8,73.7 L 837.1,80.9 L 838.4,89.6 L 839.6,64.3 L 840.9,81.6 L 842.2,62.8 L 843.5,62.9 L 844.8,63.9 L 846.1,65.7 L 847.4,64.3 L 848.6,67.0 L 849.9,73.0 L 851.2,65.7 L 852.5,68.0 L 853.8,66.8 L 855.1,70.6 L 856.4,69.4 L 857.6,73.7 L 858.9,73.1 L 860.2,73.9 L 861.5,75.8 L 862.8,78.1 L 864.1,71.7 L 865.4,74.2 L 866.6,70.0 L 867.9,71.3 L 869.2,73.8 L 870.5,73.9 L 871.8,71.1 L 873.1,82.0 L 874.4,73.6 L 875.6,83.8 L 876.9,80.4 L 878.2,70.5 L 879.5,71.6 L 880.8,64.4 L 882.1,67.1 L 883.4,76.3 L 884.6,78.4 L 885.9,77.9 L 887.2,69.2 L 888.5,71.8 L 889.8,77.3 L 891.1,75.1 L 892.4,77.5 L 893.6,73.9 L 894.9,76.3 L 896.2,74.9 L 897.5,77.6 L 898.8,77.6 L 900.1,75.1 L 901.4,68.6 L 902.6,71.2 L 903.9,74.1 L 905.2,73.9 L 906.5,73.9 L 907.8,73.9 L 909.1,62.0 L 910.4,64.7 L 911.6,70.4 L 912.9,190.1 L 914.2,76.3 L 915.5,67.3 L 916.8,73.4 L 918.1,132.7 L 919.4,74.4 L 920.6,76.4 L 921.9,73.2 L 923.2,75.6 L 924.5,75.6 L 925.8,129.9 L 927.1,129.9 L 928.4,129.9 L 929.6,81.7 L 930.9,60.2 L 932.2,132.7 L 933.5,129.9 L 934.8,129.9 L 936.1,75.6 L 937.4,75.6 L 938.6,73.2 L 939.9,76.4 L 941.2,73.9 L 942.5,129.9 L 943.8,73.4 L 945.1,67.3 L 946.4,76.3 L 947.6,142.4 L 948.9,70.4 L 950.2,67.8 L 951.5,62.0 L 952.8,73.9 L 954.1,73.9 L 955.4,73.9 L 956.6,74.1 L 957.9,71.2 L 959.2,68.6 L 960.5,75.1 L 961.8,78.4 L 963.1,77.6 L 964.4,74.9 L 965.6,74.1 L 966.9,71.6 L 968.2,76.3 L 969.5,75.1 L 970.8,77.3 L 972.1,71.8 L 973.4,69.2 L 974.6,80.2 L 975.9,77.9 L 977.2,76.3 L 978.5,67.1 L 979.8,64.4 L 981.1,71.6 L 982.4,80.1 L 983.6,70.5 L 984.9,83.8 L 986.2,73.6 L 987.5,80.1 L 988.8,71.1 L 990.1,73.9 L 991.4,73.8 L 992.6,71.3 L 993.9,70.0 L 995.2,74.2 L 996.5,71.7 L 997.8,78.1 L 999.1,75.8 L 1000.4,73.9 L 1001.6,73.1 L 1002.9,73.7 L 1004.2,69.7 L 1005.5,69.4 L 1006.8,66.8 L 1008.1,68.0 L 1009.4,65.7 L 1010.6,73.0 L 1011.9,67.0 L 1013.2,66.6 L 1014.5,64.3 L 1015.8,63.9 L 1017.1,62.9 L 1018.4,62.8 L 1019.6,81.6 L 1020.9,64.3 L 1022.2,83.5 L 1023.5,80.9 L 1024.8,73.7 L 1026.1,73.0 L 1027.4,71.2 L 1028.6,74.7 L 1029.9,70.4 L 1031.2,72.3 L 1032.5,73.5 L 1033.8,68.0 L 1035.1,70.9 L 1036.4,65.3 L 1037.6,84.7 L 1038.9,82.8 L 1040.2,92.7 L 1041.5,80.6 L 1042.8,98.5 L 1044.1,98.8 L 1045.4,100.2 L 1046.6,97.1 L 1047.9,105.6 L 1049.2,76.3 L 1050.5,76.5 L 1051.8,75.1 L 1053.1,73.9 L 1054.4,112.5 L 1055.6,87.5 L 1056.9,131.0 L 1058.2,86.2 L 1059.5,85.5 L 1060.8,145.6 L 1062.1,84.1 L 1063.4,85.1 L 1064.6,122.8 L 1065.9,96.3 L 1067.2,97.6 L 1068.5,98.6 L 1069.8,124.6 L 1071.1,129.2 L 1072.4,95.8 L 1073.6,144.7 L 1074.9,108.8 L 1076.2,118.4 L 1077.5,119.5 L 1078.8,108.6 L 1080.1,107.4 L 1081.4,117.3 L 1082.6,107.2 L 1083.9,117.1 L 1085.2,126.3 L 1086.5,136.2 L 1087.8,137.3 L 1087.8,137.3 L 1086.5,136.2 L 1085.2,155.9 L 1083.9,160.1 L 1082.6,160.2 L 1081.4,159.4 L 1080.1,166.0 L 1078.8,175.9 L 1077.5,160.0 L 1076.2,175.3 L 1074.9,184.3 L 1073.6,168.7 L 1072.4,182.7 L 1071.1,191.9 L 1069.8,194.0 L 1068.5,195.6 L 1067.2,193.1 L 1065.9,193.3 L 1064.6,196.1 L 1063.4,196.7 L 1062.1,192.1 L 1060.8,194.8 L 1059.5,201.1 L 1058.2,197.7 L 1056.9,199.2 L 1055.6,204.7 L 1054.4,211.4 L 1053.1,213.0 L 1051.8,210.7 L 1050.5,210.0 L 1049.2,211.2 L 1047.9,211.3 L 1046.6,208.3 L 1045.4,209.5 L 1044.1,207.9 L 1042.8,216.0 L 1041.5,216.9 L 1040.2,216.6 L 1038.9,214.1 L 1037.6,215.0 L 1036.4,207.3 L 1035.1,199.6 L 1033.8,205.7 L 1032.5,206.1 L 1031.2,222.5 L 1029.9,223.3 L 1028.6,220.4 L 1027.4,221.2 L 1026.1,209.8 L 1024.8,209.6 L 1023.5,208.1 L 1022.2,211.0 L 1020.9,228.6 L 1019.6,228.3 L 1018.4,229.3 L 1017.1,227.0 L 1015.8,226.7 L 1014.5,211.6 L 1013.2,215.3 L 1011.9,216.5 L 1010.6,216.5 L 1009.4,214.6 L 1008.1,233.8 L 1006.8,243.5 L 1005.5,238.4 L 1004.2,247.2 L 1002.9,241.4 L 1001.6,251.2 L 1000.4,247.6 L 999.1,255.3 L 997.8,253.4 L 996.5,250.7 L 995.2,255.5 L 993.9,256.1 L 992.6,261.8 L 991.4,267.7 L 990.1,305.2 L 988.8,304.2 L 987.5,310.7 L 986.2,309.6 L 984.9,317.6 L 983.6,320.3 L 982.4,313.5 L 981.1,323.1 L 979.8,323.7 L 978.5,321.8 L 977.2,325.4 L 975.9,328.2 L 974.6,334.9 L 973.4,332.8 L 972.1,340.8 L 970.8,338.9 L 969.5,343.9 L 968.2,342.6 L 966.9,349.1 L 965.6,343.4 L 964.4,354.5 L 963.1,351.5 L 961.8,352.6 L 960.5,359.6 L 959.2,357.6 L 957.9,362.8 L 956.6,377.1 L 955.4,381.9 L 954.1,382.5 L 952.8,381.8 L 951.5,382.4 L 950.2,382.4 L 948.9,379.8 L 947.6,366.3 L 946.4,391.7 L 945.1,391.7 L 943.8,391.7 L 942.5,388.9 L 941.2,375.4 L 939.9,377.9 L 938.6,381.1 L 937.4,380.0 L 936.1,382.2 L 934.8,380.4 L 933.5,384.7 L 932.2,386.9 L 930.9,387.1 L 929.6,387.4 L 928.4,388.8 L 927.1,390.1 L 925.8,391.0 L 924.5,390.2 L 923.2,391.9 L 921.9,394.5 L 920.6,392.2 L 919.4,395.2 L 918.1,395.4 L 916.8,394.6 L 915.5,395.0 L 914.2,395.9 L 912.9,396.0 L 911.6,396.0 L 910.4,396.0 L 909.1,395.8 L 907.8,396.0 L 906.5,396.0 L 905.2,394.0 L 903.9,393.6 L 902.6,395.4 L 901.4,395.8 L 900.1,395.5 L 898.8,369.3 L 897.5,371.7 L 896.2,395.8 L 894.9,395.4 L 893.6,395.8 L 892.4,396.0 L 891.1,394.0 L 889.8,395.8 L 888.5,396.1 L 887.2,396.0 L 885.9,395.8 L 884.6,395.7 L 883.4,394.9 L 882.1,395.5 L 880.8,395.2 L 879.5,391.9 L 878.2,394.4 L 876.9,392.0 L 875.6,391.2 L 874.4,391.0 L 873.1,390.2 L 871.8,388.6 L 870.5,388.0 L 869.2,387.2 L 867.9,386.9 L 866.6,381.4 L 865.4,378.1 L 864.1,384.0 L 862.8,380.0 L 861.5,381.1 L 860.2,378.5 L 858.9,375.4 L 857.6,372.9 L 856.4,373.3 L 855.1,375.3 L 853.8,373.6 L 852.5,373.2 L 851.2,372.4 L 849.9,373.6 L 848.6,373.3 L 847.4,373.3 L 846.1,373.3 L 844.8,372.6 L 843.5,373.3 L 842.2,373.5 L 840.9,375.4 L 839.6,385.8 L 838.4,385.8 L 837.1,388.5 L 835.8,388.5 L 834.5,377.8 L 833.2,373.3 L 831.9,372.8 L 830.6,373.1 L 829.4,373.4 L 828.1,372.6 L 826.8,373.2 L 825.5,373.4 L 824.2,373.2 L 822.9,373.4 L 821.6,373.4 L 820.4,373.2 L 819.1,373.4 L 817.8,373.0 L 816.5,373.0 L 815.2,338.1 L 813.9,313.8 L 812.6,314.8 L 811.4,314.9 L 810.1,301.5 L 808.8,315.9 L 807.5,302.5 L 806.2,299.4 L 804.9,302.9 L 803.6,299.8 L 802.4,300.2 L 801.1,299.0 L 799.8,284.4 L 798.5,288.2 L 797.2,288.6 L 795.9,287.2 L 794.6,282.9 L 793.4,274.0 L 792.1,185.5 L 790.8,274.4 L 789.5,270.8 L 788.2,182.7 L 786.9,168.7 L 785.6,211.6 L 784.4,174.2 L 783.1,160.0 L 781.8,175.9 L 780.5,164.9 L 779.2,159.4 L 777.9,160.2 L 776.6,160.1 L 775.4,154.7 L 774.1,137.3 L 772.8,295.4 L 771.5,295.4 L 770.2,295.4 L 768.9,295.4 L 767.6,295.4 L 766.4,295.4 L 765.1,295.4 L 763.8,295.4 L 762.5,295.4 L 761.2,295.4 L 759.9,295.4 L 758.6,295.4 L 757.4,295.4 L 756.1,295.4 L 754.8,295.4 L 753.5,295.4 L 752.2,295.4 L 750.9,298.5 L 749.6,304.3 L 748.4,295.9 L 747.1,302.7 L 745.8,311.4 L 744.5,305.5 L 743.2,307.0 L 741.9,309.8 L 740.7,312.6 L 739.4,317.6 L 738.1,310.0 L 736.8,313.0 L 735.5,315.7 L 734.2,310.5 L 732.9,318.4 L 731.7,320.9 L 730.4,318.0 L 729.1,318.2 L 727.8,318.8 L 726.5,319.1 L 725.2,317.6 L 723.9,317.5 L 722.7,318.8 L 721.4,324.7 L 720.1,325.0 L 718.8,322.6 L 717.5,321.4 L 716.2,321.8 L 714.9,319.2 L 713.7,327.4 L 712.4,328.2 L 711.1,328.1 L 709.8,330.8 L 708.5,331.0 L 707.2,331.8 L 705.9,333.0 L 704.7,331.5 L 703.4,332.9 L 702.1,331.9 L 700.8,329.7 L 699.5,327.7 L 698.2,328.7 L 696.9,329.5 L 695.7,333.4 L 694.4,332.4 L 693.1,328.4 L 691.8,324.5 L 690.5,320.0 L 689.2,318.9 L 687.9,330.5 L 686.7,331.3 L 685.4,332.4 L 684.1,327.7 L 682.8,332.8 L 681.5,331.1 L 680.2,332.3 L 678.9,331.2 L 677.7,327.8 L 676.4,330.4 L 675.1,333.0 L 673.8,332.8 L 672.5,330.1 L 671.2,332.3 L 669.9,331.9 L 668.7,331.1 L 667.4,329.8 L 666.1,332.2 L 664.8,329.7 L 663.5,332.5 L 662.2,330.7 L 660.9,331.5 L 659.7,331.5 L 658.4,330.4 L 657.1,330.2 L 655.8,329.0 L 654.5,326.9 L 653.2,327.1 L 651.9,321.5 L 650.7,324.8 L 649.4,323.8 L 648.1,323.4 L 646.8,319.9 L 645.5,320.3 L 644.2,322.0 L 642.9,321.0 L 641.7,317.6 L 640.4,318.2 L 639.1,319.6 L 637.8,318.7 L 636.5,317.1 L 635.2,313.6 L 633.9,315.8 L 632.7,309.4 L 631.4,315.4 L 630.1,312.9 L 628.8,310.9 L 627.5,309.5 L 626.2,309.5 L 624.9,310.0 L 623.7,305.3 L 622.4,307.1 L 621.1,305.3 L 619.8,303.0 L 618.5,295.6 L 617.2,492.2 L 615.9,492.2 L 614.7,492.2 L 613.4,492.2 L 612.1,492.2 L 610.8,492.2 L 609.5,492.2 L 608.2,492.2 L 606.9,492.2 L 605.7,492.2 L 604.4,492.2 L 603.1,492.2 L 601.8,492.2 L 600.5,492.2 L 599.2,492.2 L 597.9,492.2 L 596.7,492.2 L 595.4,496.1 L 594.1,502.0 L 592.8,502.6 L 591.5,504.8 L 590.2,505.6 L 588.9,508.3 L 587.7,507.3 L 586.4,510.0 L 585.1,511.0 L 583.8,511.9 L 582.5,513.8 L 581.2,515.0 L 579.9,519.2 L 578.7,517.4 L 577.4,516.7 L 576.1,525.4 L 574.8,518.2 L 573.5,519.7 L 572.2,522.9 L 570.9,533.4 L 569.7,522.8 L 568.4,525.0 L 567.1,530.7 L 565.8,533.8 L 564.5,528.6 L 563.2,528.0 L 561.9,531.1 L 560.7,531.4 L 559.4,533.9 L 558.1,532.2 L 556.8,533.5 L 555.5,534.0 L 554.2,533.2 L 552.9,532.4 L 551.7,531.3 L 550.4,537.1 L 549.1,537.1 L 547.8,537.1 L 546.5,537.1 L 545.2,534.3 L 543.9,537.1 L 542.7,537.1 L 541.4,534.4 L 540.1,537.2 L 538.8,530.1 L 537.5,537.2 L 536.2,537.2 L 534.9,536.2 L 533.7,534.5 L 532.4,537.3 L 531.1,537.3 L 529.8,537.3 L 528.5,537.3 L 527.2,537.3 L 525.9,534.5 L 524.7,534.6 L 523.4,537.4 L 522.1,537.4 L 520.8,537.4 L 519.5,537.4 L 518.2,537.4 L 516.9,534.6 L 515.7,537.5 L 514.4,537.5 L 513.1,537.5 L 511.8,537.5 L 510.5,534.7 L 509.2,537.5 L 507.9,537.5 L 506.7,534.8 L 505.4,534.8 L 504.1,531.0 L 502.8,537.6 L 501.5,528.4 L 500.2,534.8 L 498.9,531.3 L 497.7,537.7 L 496.4,536.6 L 495.1,537.7 L 493.8,537.7 L 492.5,508.9 L 491.2,534.9 L 489.9,526.6 L 488.7,531.7 L 487.4,537.8 L 486.1,535.4 L 484.8,537.8 L 483.5,537.8 L 482.2,535.0 L 480.9,537.8 L 479.7,537.9 L 478.4,535.1 L 477.1,537.9 L 475.8,537.1 L 474.5,537.9 L 473.2,536.8 L 471.9,537.9 L 470.7,535.2 L 469.4,537.5 L 468.1,538.0 L 466.8,538.0 L 465.5,535.2 L 464.2,538.0 L 462.9,537.0 L 461.7,538.1 L 460.4,534.6 L 459.1,534.6 L 457.8,531.9 L 456.5,529.0 L 455.2,538.1 L 453.9,535.3 L 452.7,538.2 L 451.4,536.9 L 450.1,538.2 L 448.8,537.4 L 447.5,534.6 L 446.2,538.2 L 444.9,535.4 L 443.7,538.3 L 442.4,538.3 L 441.1,538.3 L 439.8,529.1 L 438.5,525.8 L 437.2,522.2 L 435.9,480.3 L 434.7,538.3 L 433.4,538.4 L 432.1,527.8 L 430.8,531.8 L 429.5,527.1 L 428.2,533.5 L 426.9,538.4 L 425.7,528.5 L 424.4,538.5 L 423.1,538.5 L 421.8,488.5 L 420.5,536.8 L 419.2,538.5 L 417.9,507.2 L 416.7,389.9 L 415.4,532.0 L 414.1,498.8 L 412.8,538.6 L 411.5,538.6 L 410.2,538.6 L 408.9,521.4 L 407.7,535.9 L 406.4,538.7 L 405.1,538.7 L 403.8,537.0 L 402.5,529.5 L 401.2,535.9 L 399.9,538.7 L 398.7,536.0 L 397.4,538.8 L 396.1,478.8 L 394.8,536.0 L 393.5,538.8 L 392.2,518.3 L 390.9,525.3 L 389.7,538.9 L 388.4,533.2 L 387.1,538.9 L 385.8,507.7 L 384.5,538.9 L 383.2,530.3 L 382.0,533.0 L 380.7,512.8 L 379.4,515.1 L 378.1,536.2 L 376.8,539.0 L 375.5,538.0 L 374.2,539.0 L 373.0,517.5 L 371.7,516.1 L 370.4,536.3 L 369.1,539.1 L 367.8,539.1 L 366.5,538.1 L 365.2,539.1 L 364.0,533.1 L 362.7,528.0 L 361.4,536.4 L 360.1,539.2 L 358.8,535.3 L 357.5,539.2 L 356.2,539.2 L 355.0,539.2 L 353.7,539.3 L 352.4,536.5 L 351.1,539.3 L 349.8,539.3 L 348.5,536.5 L 347.2,527.6 L 346.0,539.3 L 344.7,539.4 L 343.4,537.5 L 342.1,539.4 L 340.8,539.4 L 339.5,535.4 L 338.2,539.4 L 337.0,536.6 L 335.7,536.7 L 334.4,539.5 L 333.1,539.5 L 331.8,539.5 L 330.5,539.5 L 329.2,539.5 L 328.0,536.8 L 326.7,539.6 L 325.4,539.6 L 324.1,539.6 L 322.8,539.6 L 321.5,539.6 L 320.2,539.6 L 319.0,539.6 L 317.7,539.7 L 316.4,539.7 L 315.1,539.7 L 313.8,539.7 L 312.5,536.9 L 311.2,539.7 L 310.0,539.7 L 308.7,537.0 L 307.4,539.8 L 306.1,539.8 L 304.8,539.8 L 303.5,539.8 L 302.2,539.8 L 301.0,534.1 L 299.7,536.0 L 298.4,532.4 L 297.1,536.9 L 295.8,536.5 L 294.5,536.8 L 293.2,533.8 L 292.0,534.4 L 290.7,534.1 L 289.4,531.7 L 288.1,536.9 L 286.8,529.8 L 285.5,533.9 L 284.2,528.2 L 283.0,525.5 L 281.7,536.6 L 280.4,526.2 L 279.1,519.6 L 277.8,522.3 L 276.5,528.7 L 275.2,519.6 L 274.0,520.5 L 272.7,522.6 L 271.4,521.3 L 270.1,521.2 L 268.8,516.3 L 267.5,515.4 L 266.2,514.5 L 265.0,513.6 L 263.7,511.6 L 262.4,511.1 L 261.1,509.3 L 259.8,507.0 L 258.5,506.1 L 257.2,503.3 L 256.0,502.6 L 254.7,499.4 L 253.4,494.3 L 252.1,476.1 L 250.8,284.6 L 249.5,287.6 L 248.2,287.4 L 247.0,287.2 L 245.7,286.9 L 244.4,286.3 L 243.1,285.6 L 241.8,283.8 L 240.5,281.6 L 239.2,281.5 L 238.0,280.2 L 236.7,278.1 L 235.4,278.0 L 234.1,268.1 L 232.8,281.8 L 231.5,278.7 L 230.2,279.5 L 229.0,269.5 L 227.7,280.5 L 226.4,278.3 L 225.1,281.1 L 223.8,281.0 L 222.5,282.2 L 221.2,280.9 L 220.0,280.9 L 218.7,280.1 L 217.4,284.4 L 216.1,282.3 L 214.8,282.3 L 213.5,280.2 L 212.2,286.8 L 211.0,286.2 L 209.7,290.6 L 208.4,288.0 L 207.1,294.3 L 205.8,295.4 L 204.5,296.0 L 203.2,296.5 L 202.0,253.6 L 200.7,251.8 L 199.4,251.9 L 198.1,250.4 L 196.8,248.6 L 195.5,242.3 L 194.2,246.9 L 193.0,245.4 L 191.7,243.7 L 190.4,233.7 L 189.1,237.8 L 187.8,233.7 L 186.5,231.1 L 185.2,236.8 L 184.0,234.8 L 182.7,231.2 L 181.4,229.1 L 180.1,227.5 L 178.8,225.5 L 177.5,221.9 L 176.2,215.9 L 175.0,211.6 L 173.7,208.7 L 172.4,293.7 L 171.1,293.7 L 169.8,293.7 L 168.5,293.7 L 167.2,293.7 L 166.0,293.7 L 164.7,293.7 L 163.4,293.7 L 162.1,293.7 L 160.8,293.7 L 159.5,293.7 L 158.2,296.5 L 157.0,295.8 L 155.7,294.3 L 154.4,294.2 L 153.1,290.6 L 151.8,286.2 L 150.5,286.8 L 149.2,286.2 L 148.0,280.4 L 146.7,282.3 L 145.4,284.4 L 144.1,280.1 L 142.8,280.4 L 141.5,280.9 L 140.2,281.6 L 139.0,282.2 L 137.7,281.1 L 136.4,280.7 L 135.1,280.5 L 133.8,181.9 L 132.5,279.5 L 131.2,278.9 L 130.0,281.8 L 128.7,280.9 L 127.4,278.0 L 126.1,280.2 L 124.8,280.2 L 123.5,280.3 L 122.2,281.6 L 121.0,282.0 L 119.7,282.3 L 118.4,281.8 L 117.1,282.0 L 115.8,282.2 L 114.5,281.4 L 113.2,280.0 L 112.0,278.6 L 110.7,279.0 L 109.4,280.8 L 108.1,281.2 L 106.8,277.6 L 105.5,278.0 L 104.2,279.7 L 103.0,280.2 L 101.7,280.0 L 100.4,279.6 L 99.1,280.1 L 97.8,279.5 L 96.5,275.5 L 95.2,275.5 L 94.0,280.2 L 92.7,277.7 L 91.4,277.6 L 90.1,280.3 L 88.8,279.7 L 87.5,280.6 L 86.2,279.8 L 85.0,279.8 L 83.7,279.6 L 82.4,269.5 L 81.1,277.5 L 79.8,271.4 L 78.5,278.4 L 77.2,271.4 L 76.0,271.4 L 74.7,280.2 L 73.4,280.6 L 72.1,264.1 L 70.8,275.4 L 69.5,277.4 L 68.2,277.6 L 67.0,277.6 L 65.7,278.3 L 64.4,279.8 L 63.1,279.8 L 61.8,280.4 L 60.5,280.5 Z" fill="#1a6ba0" fill-opacity="0.80" stroke="#0d3d5c" stroke-width="1.5"/>
<text x="679.7" y="172.1" text-anchor="middle" font-family="'OpenDyslexic', 'OpenDyslexicMono', sans-serif" font-size="9" fill="#ffffff">SiK 915 sta 260</text>
<line x1="60.0" y1="580" x2="1140.0" y2="580" stroke="#333333" stroke-width="1.5"/>
<text x="600.0" y="594" text-anchor="middle" font-family="'OpenDyslexic', 'OpenDyslexicMono', sans-serif" font-size="11" fill="#333333">609.6 mm (24.00 in)</text>
</svg>
