<?xml version="1.0" encoding="UTF-8"?>
<svg xmlns="http://www.w3.org/2000/svg" viewBox="0 0 1200 600" width="1200" height="600">
<defs>
  <style>
    @import url('https://fonts.cdnfonts.com/css/opendyslexic');
    text, tspan { font-family: 'OpenDyslexic', 'OpenDyslexicMono', sans-serif; }
  </style>
</defs>
<rect width="1200" height="600" fill="#f8f8f8"/>
<rect x="0" y="0" width="1200" height="36" fill="#0d3d5c"/>
<text x="600" y="24" text-anchor="middle" font-family="'OpenDyslexic', 'OpenDyslexicMono', sans-serif" font-size="14" font-weight="bold" fill="#ffffff">SERENITY-CLASS TILTROTOR UAV — TOP / PLAN VIEW  |  24.00" (609.6 mm)  Rev O</text>
<line x1="60" y1="460.5" x2="1140" y2="460.5" stroke="#cccccc" stroke-width="0.8" stroke-dasharray="8,4"/>
<path d="M 62.4,334.2 L 63.8,410.7 L 65.1,411.3 L 66.4,416.2 L 67.8,416.3 L 69.1,410.2 L 70.5,414.9 L 71.8,415.0 L 73.2,421.9 L 74.5,421.4 L 75.8,420.4 L 77.2,420.0 L 78.5,422.5 L 79.9,422.8 L 81.2,423.1 L 82.6,423.3 L 83.9,423.4 L 85.2,421.8 L 86.6,421.9 L 87.9,424.7 L 89.3,409.5 L 90.6,422.5 L 92.0,423.1 L 93.3,409.5 L 94.6,409.8 L 96.0,407.0 L 97.3,418.7 L 98.7,404.3 L 100.0,417.3 L 101.4,408.3 L 102.7,333.8 L 104.0,427.2 L 105.4,424.6 L 106.7,425.5 L 108.1,410.3 L 109.4,420.0 L 110.8,408.9 L 112.1,428.3 L 113.4,429.1 L 114.8,427.4 L 116.1,413.1 L 117.5,412.5 L 118.8,430.9 L 120.2,420.0 L 121.5,429.2 L 122.8,423.3 L 124.2,421.8 L 125.5,404.9 L 126.9,434.7 L 128.2,432.8 L 129.6,423.7 L 130.9,334.4 L 132.2,334.4 L 133.6,338.6 L 134.9,437.0 L 136.3,435.0 L 137.6,425.5 L 139.0,416.2 L 140.3,333.0 L 141.6,386.2 L 143.0,385.9 L 144.3,438.1 L 145.7,436.2 L 147.0,418.5 L 148.4,417.1 L 149.7,439.4 L 151.0,440.6 L 152.4,440.0 L 153.7,437.9 L 155.1,439.9 L 156.4,419.6 L 157.8,404.4 L 159.1,441.4 L 160.4,442.6 L 161.8,439.6 L 163.1,443.9 L 164.5,446.7 L 165.8,444.5 L 167.2,444.5 L 168.5,444.5 L 169.8,444.5 L 171.2,444.5 L 172.5,444.5 L 173.9,444.5 L 175.2,444.5 L 176.6,444.5 L 177.9,444.5 L 179.2,444.5 L 180.6,403.9 L 181.9,407.6 L 183.3,411.8 L 184.6,415.5 L 186.0,410.3 L 187.3,420.3 L 188.6,424.6 L 190.0,424.8 L 191.3,426.9 L 192.7,428.4 L 194.0,431.4 L 195.4,431.7 L 196.7,431.9 L 198.0,477.4 L 199.4,470.1 L 200.7,477.6 L 202.1,477.8 L 203.4,476.6 L 204.8,478.0 L 206.1,479.9 L 207.4,477.0 L 208.8,477.8 L 210.1,475.0 L 211.5,482.8 L 212.8,484.1 L 214.2,480.7 L 215.5,481.9 L 216.8,484.4 L 218.2,484.3 L 219.5,484.3 L 220.9,482.1 L 222.2,482.1 L 223.6,451.8 L 224.9,479.9 L 226.2,479.9 L 227.6,480.2 L 228.9,481.4 L 230.3,480.8 L 231.6,480.5 L 233.0,478.7 L 234.3,474.9 L 235.6,475.0 L 237.0,472.9 L 238.3,473.1 L 239.7,474.2 L 241.0,468.9 L 242.4,472.3 L 243.7,469.7 L 245.0,467.9 L 246.4,466.1 L 247.7,463.7 L 249.1,458.6 L 250.4,461.8 L 251.8,461.5 L 253.1,462.5 L 254.4,460.8 L 255.8,466.4 L 257.1,466.6 L 258.5,482.7 L 259.8,466.6 L 261.2,480.5 L 262.5,468.9 L 263.8,467.1 L 265.2,462.9 L 266.5,468.4 L 267.9,467.8 L 269.2,470.4 L 270.6,468.6 L 271.9,466.5 L 273.2,468.0 L 274.6,467.8 L 275.9,468.0 L 277.3,469.8 L 278.6,471.5 L 280.0,472.1 L 281.3,474.7 L 282.6,472.8 L 284.0,472.3 L 285.3,471.0 L 286.7,473.1 L 288.0,473.9 L 289.4,485.2 L 290.7,474.9 L 292.0,475.6 L 293.4,475.9 L 294.7,475.7 L 296.1,475.0 L 297.4,475.1 L 298.8,477.1 L 300.1,477.5 L 301.4,477.6 L 302.8,477.6 L 304.1,477.2 L 305.5,476.3 L 306.8,431.6 L 308.2,420.5 L 309.5,416.3 L 310.8,487.0 L 312.2,479.0 L 313.5,410.7 L 314.9,423.4 L 316.2,435.7 L 317.6,476.3 L 318.9,477.5 L 320.2,477.7 L 321.6,477.6 L 322.9,477.4 L 324.3,476.7 L 325.6,474.1 L 327.0,475.0 L 328.3,475.8 L 329.6,475.9 L 331.0,475.6 L 332.3,483.0 L 333.7,485.2 L 335.0,473.9 L 336.4,473.1 L 337.7,471.8 L 339.0,472.3 L 340.4,474.7 L 341.7,472.1 L 343.1,471.2 L 344.4,471.5 L 345.8,467.8 L 347.1,468.0 L 348.4,468.0 L 349.8,467.8 L 351.1,468.6 L 352.5,470.4 L 353.8,466.1 L 355.2,467.8 L 356.5,468.4 L 357.8,466.0 L 359.2,467.8 L 360.5,468.9 L 361.9,480.5 L 363.2,482.7 L 364.6,464.9 L 365.9,466.6 L 367.2,464.7 L 368.6,461.3 L 369.9,462.5 L 371.3,461.8 L 372.6,454.5 L 374.0,458.6 L 375.3,463.7 L 376.6,467.9 L 378.0,467.9 L 379.3,469.7 L 380.7,472.3 L 382.0,474.2 L 383.4,472.0 L 384.7,473.1 L 386.0,475.0 L 387.4,474.9 L 388.7,478.7 L 390.1,473.4 L 391.4,480.8 L 392.8,478.1 L 394.1,481.4 L 395.4,480.2 L 396.8,479.9 L 398.1,479.9 L 399.5,451.4 L 400.8,482.1 L 402.2,455.5 L 403.5,484.3 L 404.8,467.7 L 406.2,484.4 L 407.5,481.9 L 408.9,480.7 L 410.2,484.1 L 411.6,482.8 L 412.9,477.8 L 414.2,477.1 L 415.6,479.9 L 416.9,478.0 L 418.3,475.6 L 419.6,477.8 L 421.0,477.6 L 422.3,455.9 L 423.6,475.7 L 425.0,477.4 L 426.3,431.9 L 427.7,431.6 L 429.0,428.4 L 430.4,427.6 L 431.7,425.9 L 433.0,424.8 L 434.4,421.1 L 435.7,420.3 L 437.1,415.5 L 438.4,413.5 L 439.8,409.7 L 441.1,406.0 L 442.4,247.8 L 443.8,264.9 L 445.1,229.1 L 446.5,216.8 L 447.8,254.4 L 449.2,265.0 L 450.5,288.6 L 451.8,247.8 L 453.2,260.9 L 454.5,265.6 L 455.9,281.4 L 457.2,286.5 L 458.6,288.7 L 459.9,276.9 L 461.2,288.7 L 462.6,280.8 L 463.9,264.7 L 465.3,278.4 L 466.6,286.0 L 468.0,206.5 L 469.3,252.8 L 470.6,288.8 L 472.0,287.3 L 473.3,286.6 L 474.7,288.9 L 476.0,260.1 L 477.4,277.9 L 478.7,284.9 L 480.0,287.1 L 481.4,221.4 L 482.7,286.7 L 484.1,289.0 L 485.4,236.6 L 486.8,286.8 L 488.1,289.0 L 489.5,278.0 L 490.8,286.8 L 492.1,289.1 L 493.5,280.1 L 494.8,286.9 L 496.2,289.1 L 497.5,289.1 L 498.9,286.9 L 500.2,289.1 L 501.5,269.0 L 502.9,287.0 L 504.2,289.2 L 505.6,289.2 L 506.9,279.7 L 508.3,287.0 L 509.6,289.2 L 510.9,289.3 L 512.3,289.3 L 513.6,281.1 L 515.0,287.1 L 516.3,289.3 L 517.7,289.3 L 519.0,289.3 L 520.3,289.4 L 521.7,289.4 L 523.0,289.4 L 524.4,289.4 L 525.7,289.4 L 527.1,289.4 L 528.4,289.4 L 529.7,287.2 L 531.1,289.5 L 532.4,289.5 L 533.8,289.5 L 535.1,289.5 L 536.5,289.5 L 537.8,289.5 L 539.1,284.5 L 540.5,287.4 L 541.8,287.4 L 543.2,289.6 L 544.5,289.6 L 545.9,289.6 L 547.2,289.6 L 548.5,282.2 L 549.9,274.6 L 551.2,270.8 L 552.6,262.5 L 553.9,264.7 L 555.3,264.0 L 556.6,258.2 L 557.9,257.3 L 559.3,253.7 L 560.6,255.0 L 562.0,250.4 L 563.3,251.5 L 564.7,249.1 L 566.0,246.2 L 567.3,247.3 L 568.7,242.9 L 570.0,245.4 L 571.4,243.1 L 572.7,242.0 L 574.1,240.2 L 575.4,239.0 L 576.7,235.2 L 578.1,231.9 L 579.4,228.1 L 580.8,226.8 L 582.1,223.4 L 583.5,227.8 L 584.8,217.4 L 586.1,228.8 L 587.5,210.4 L 588.8,228.8 L 590.2,210.5 L 591.5,228.7 L 592.9,228.4 L 594.2,225.7 L 595.5,226.0 L 596.9,226.3 L 598.2,223.1 L 599.6,223.4 L 600.9,224.0 L 602.3,188.2 L 603.6,190.3 L 604.9,160.9 L 606.3,159.0 L 607.6,157.0 L 609.0,154.9 L 610.3,152.7 L 611.7,149.4 L 613.0,148.5 L 614.3,148.0 L 615.7,147.3 L 617.0,146.2 L 618.4,143.3 L 619.7,146.7 L 621.1,139.5 L 622.4,138.2 L 623.7,138.2 L 625.1,138.2 L 626.4,138.2 L 627.8,138.2 L 629.1,138.2 L 630.5,138.2 L 631.8,138.2 L 633.1,138.2 L 634.5,138.2 L 635.8,138.2 L 637.2,138.2 L 638.5,138.2 L 639.9,138.2 L 641.2,138.2 L 642.5,138.2 L 643.9,138.2 L 645.2,138.2 L 646.6,138.2 L 647.9,138.2 L 649.3,138.2 L 650.6,138.2 L 651.9,138.2 L 653.3,138.2 L 654.6,138.2 L 656.0,138.2 L 657.3,138.2 L 658.7,138.2 L 660.0,138.2 L 661.3,138.2 L 662.7,138.2 L 664.0,138.2 L 665.4,138.2 L 666.7,138.2 L 668.1,138.2 L 669.4,138.2 L 670.7,138.2 L 672.1,138.2 L 673.4,138.2 L 674.8,138.2 L 676.1,138.2 L 677.5,138.2 L 678.8,138.2 L 680.1,138.2 L 681.5,138.2 L 682.8,138.2 L 684.2,138.2 L 685.5,138.2 L 686.9,138.2 L 688.2,138.2 L 689.5,138.2 L 690.9,138.2 L 692.2,138.2 L 693.6,138.2 L 694.9,138.2 L 696.3,138.2 L 697.6,138.2 L 698.9,138.2 L 700.3,138.2 L 701.6,138.2 L 703.0,138.2 L 704.3,138.2 L 705.7,138.2 L 707.0,138.2 L 708.3,138.2 L 709.7,138.2 L 711.0,138.2 L 712.4,138.2 L 713.7,138.2 L 715.1,138.2 L 716.4,138.2 L 717.7,138.2 L 719.1,138.2 L 720.4,138.2 L 721.8,138.2 L 723.1,138.2 L 724.5,138.2 L 725.8,138.2 L 727.1,138.2 L 728.5,138.2 L 729.8,138.2 L 731.2,138.2 L 732.5,138.2 L 733.9,138.2 L 735.2,138.2 L 736.5,138.2 L 737.9,138.2 L 739.2,138.2 L 740.6,138.2 L 741.9,138.2 L 743.3,138.2 L 744.6,138.2 L 745.9,138.2 L 747.3,138.2 L 748.6,138.2 L 750.0,138.2 L 751.3,138.2 L 752.7,138.2 L 754.0,138.2 L 755.3,138.2 L 756.7,138.2 L 758.0,138.2 L 759.4,138.2 L 760.7,138.2 L 762.1,138.2 L 763.4,138.2 L 764.7,138.2 L 766.1,138.2 L 767.4,138.2 L 768.8,138.2 L 770.1,138.2 L 771.5,138.2 L 772.8,138.2 L 774.1,138.2 L 775.5,138.2 L 776.8,138.2 L 778.2,138.2 L 779.5,138.2 L 780.9,138.2 L 782.2,138.2 L 783.5,138.2 L 784.9,138.2 L 786.2,138.2 L 787.6,138.2 L 788.9,138.2 L 790.3,138.2 L 791.6,138.2 L 792.9,138.2 L 794.3,138.2 L 795.6,138.2 L 797.0,138.2 L 798.3,138.2 L 799.7,138.2 L 801.0,138.2 L 802.3,138.2 L 803.7,138.2 L 805.0,138.2 L 806.4,138.2 L 807.7,461.1 L 809.1,471.0 L 810.4,480.1 L 811.7,489.8 L 813.1,479.9 L 814.4,489.7 L 815.8,488.7 L 817.1,479.0 L 818.5,488.6 L 819.8,467.2 L 821.1,452.8 L 822.5,500.1 L 823.8,501.1 L 825.2,498.8 L 826.5,499.7 L 827.9,494.1 L 829.2,500.7 L 830.5,492.9 L 831.9,511.8 L 833.2,512.8 L 834.6,467.4 L 835.9,511.4 L 837.3,467.4 L 838.6,509.8 L 839.9,467.4 L 841.3,484.6 L 842.6,522.9 L 844.0,521.7 L 845.3,520.7 L 846.7,521.0 L 848.0,491.4 L 849.3,499.9 L 850.7,496.8 L 852.0,498.5 L 853.4,498.5 L 854.7,516.3 L 856.1,504.3 L 857.4,514.5 L 858.7,512.1 L 860.1,531.4 L 861.4,525.8 L 862.8,529.3 L 864.1,523.8 L 865.5,524.5 L 866.8,526.3 L 868.1,522.5 L 869.5,525.6 L 870.8,523.6 L 872.2,515.5 L 873.5,515.9 L 874.9,513.8 L 876.2,532.4 L 877.5,529.6 L 878.9,533.8 L 880.2,533.8 L 881.6,532.8 L 882.9,531.6 L 884.3,532.4 L 885.6,530.2 L 886.9,524.3 L 888.3,531.0 L 889.6,528.9 L 891.0,529.9 L 892.3,527.8 L 893.7,525.6 L 895.0,523.5 L 896.3,523.7 L 897.7,522.8 L 899.0,521.0 L 900.4,519.1 L 901.7,525.0 L 903.1,523.1 L 904.4,526.7 L 905.7,525.4 L 907.1,523.5 L 908.4,522.8 L 909.8,525.7 L 911.1,517.1 L 912.5,523.7 L 913.8,513.5 L 915.1,516.5 L 916.5,526.3 L 917.8,525.1 L 919.2,532.2 L 920.5,530.1 L 921.9,520.9 L 923.2,518.4 L 924.6,518.9 L 925.9,527.5 L 927.2,525.5 L 928.6,520.0 L 929.9,521.7 L 931.3,518.2 L 932.6,522.8 L 934.0,520.9 L 935.3,521.9 L 936.6,519.7 L 938.0,519.2 L 939.3,521.7 L 940.7,528.1 L 942.0,525.1 L 943.4,523.2 L 944.7,522.8 L 946.0,522.8 L 947.4,522.8 L 948.7,534.7 L 950.1,528.9 L 951.4,526.9 L 952.8,407.8 L 954.1,520.5 L 955.4,529.5 L 956.8,523.4 L 958.1,465.2 L 959.5,522.4 L 960.8,520.4 L 962.2,523.6 L 963.5,521.7 L 964.8,521.2 L 966.2,467.4 L 967.5,467.4 L 968.9,467.4 L 970.2,515.1 L 971.6,536.4 L 972.9,465.2 L 974.2,467.4 L 975.6,467.4 L 976.9,521.2 L 978.3,521.7 L 979.6,523.6 L 981.0,520.4 L 982.3,522.9 L 983.6,467.4 L 985.0,523.4 L 986.3,529.5 L 987.7,520.5 L 989.0,461.3 L 990.4,465.2 L 991.7,528.9 L 993.0,534.7 L 994.4,522.8 L 995.7,522.8 L 997.1,522.8 L 998.4,523.2 L 999.8,525.1 L 1001.1,528.1 L 1002.4,521.7 L 1003.8,518.4 L 1005.1,519.7 L 1006.5,521.9 L 1007.8,523.2 L 1009.2,525.1 L 1010.5,520.5 L 1011.8,521.7 L 1013.2,520.0 L 1014.5,525.5 L 1015.9,527.5 L 1017.2,517.1 L 1018.6,518.9 L 1019.9,520.9 L 1021.2,530.1 L 1022.6,532.2 L 1023.9,525.1 L 1025.3,524.3 L 1026.6,526.3 L 1028.0,513.5 L 1029.3,515.2 L 1030.6,523.7 L 1032.0,525.7 L 1033.3,522.8 L 1034.7,523.5 L 1036.0,525.4 L 1037.4,526.7 L 1038.7,523.1 L 1040.0,525.0 L 1041.4,519.1 L 1042.7,521.0 L 1044.1,522.8 L 1045.4,523.7 L 1046.8,523.6 L 1048.1,525.6 L 1049.4,527.8 L 1050.8,529.9 L 1052.1,528.9 L 1053.5,531.0 L 1054.8,524.3 L 1056.2,530.2 L 1057.5,530.6 L 1058.8,532.4 L 1060.2,532.8 L 1061.5,533.8 L 1062.9,533.8 L 1064.2,529.6 L 1065.6,532.4 L 1066.9,513.8 L 1068.2,515.9 L 1069.6,515.5 L 1070.9,523.6 L 1072.3,525.6 L 1073.6,522.5 L 1075.0,526.3 L 1076.3,524.5 L 1077.6,523.8 L 1079.0,529.3 L 1080.3,525.8 L 1081.7,531.4 L 1083.0,512.1 L 1084.4,490.2 L 1085.7,514.5 L 1087.0,516.3 L 1088.4,498.5 L 1089.7,498.5 L 1091.1,496.8 L 1092.4,499.9 L 1093.8,491.4 L 1095.1,521.0 L 1096.4,520.7 L 1097.8,521.7 L 1099.1,522.9 L 1100.5,484.6 L 1101.8,450.6 L 1103.2,509.8 L 1104.5,451.6 L 1105.8,511.4 L 1107.2,451.8 L 1108.5,512.8 L 1109.9,511.8 L 1111.2,492.9 L 1112.6,500.7 L 1113.9,494.1 L 1115.2,499.7 L 1116.6,498.8 L 1117.9,468.1 L 1119.3,501.1 L 1120.6,452.8 L 1122.0,459.3 L 1123.3,488.6 L 1124.6,479.0 L 1126.0,488.7 L 1127.3,489.7 L 1128.7,479.9 L 1130.0,489.8 L 1131.4,480.1 L 1132.7,471.0 L 1134.0,461.1 L 1135.4,460.0 L 1135.4,460.0 L 1134.0,461.1 L 1132.7,441.7 L 1131.4,437.5 L 1130.0,437.4 L 1128.7,438.1 L 1127.3,431.6 L 1126.0,421.8 L 1124.6,437.7 L 1123.3,422.4 L 1122.0,413.5 L 1120.6,428.9 L 1119.3,415.1 L 1117.9,406.0 L 1116.6,403.8 L 1115.2,402.3 L 1113.9,404.8 L 1112.6,404.6 L 1111.2,401.8 L 1109.9,401.2 L 1108.5,403.6 L 1107.2,402.2 L 1105.8,396.8 L 1104.5,400.2 L 1103.2,398.0 L 1101.8,393.3 L 1100.5,386.7 L 1099.1,385.1 L 1097.8,387.3 L 1096.4,386.5 L 1095.1,390.4 L 1093.8,386.8 L 1092.4,392.0 L 1091.1,388.2 L 1089.7,390.1 L 1088.4,382.1 L 1087.0,381.2 L 1085.7,381.5 L 1084.4,382.7 L 1083.0,383.0 L 1081.7,390.7 L 1080.3,398.1 L 1079.0,392.0 L 1077.6,391.9 L 1076.3,375.6 L 1075.0,374.8 L 1073.6,376.5 L 1072.3,376.8 L 1070.9,388.2 L 1069.6,388.5 L 1068.2,389.6 L 1066.9,387.1 L 1065.6,369.6 L 1064.2,369.9 L 1062.9,368.9 L 1061.5,370.7 L 1060.2,384.2 L 1058.8,386.4 L 1057.5,382.8 L 1056.2,381.6 L 1054.8,381.6 L 1053.5,383.1 L 1052.1,364.5 L 1050.8,354.9 L 1049.4,359.9 L 1048.1,351.1 L 1046.8,354.6 L 1045.4,347.3 L 1044.1,350.9 L 1042.7,343.1 L 1041.4,345.0 L 1040.0,343.0 L 1038.7,343.6 L 1037.4,342.4 L 1036.0,336.7 L 1034.7,330.9 L 1033.3,293.7 L 1032.0,294.7 L 1030.6,288.2 L 1029.3,289.4 L 1028.0,281.4 L 1026.6,278.8 L 1025.3,282.3 L 1023.9,276.0 L 1022.6,275.4 L 1021.2,277.0 L 1019.9,273.7 L 1018.6,271.0 L 1017.2,264.3 L 1015.9,266.4 L 1014.5,258.5 L 1013.2,260.3 L 1011.8,255.4 L 1010.5,256.7 L 1009.2,250.2 L 1007.8,251.6 L 1006.5,244.9 L 1005.1,247.9 L 1003.8,246.4 L 1002.4,239.9 L 1001.1,241.8 L 999.8,236.6 L 998.4,222.5 L 997.1,217.7 L 995.7,217.2 L 994.4,217.8 L 993.0,217.3 L 991.7,217.3 L 990.4,219.3 L 989.0,233.2 L 987.7,208.0 L 986.3,208.0 L 985.0,208.1 L 983.6,210.2 L 982.3,224.2 L 981.0,221.7 L 979.6,218.5 L 978.3,219.6 L 976.9,217.4 L 975.6,219.3 L 974.2,215.0 L 972.9,212.8 L 971.6,212.6 L 970.2,212.2 L 968.9,210.9 L 967.5,209.6 L 966.2,208.7 L 964.8,209.5 L 963.5,207.9 L 962.2,205.2 L 960.8,207.4 L 959.5,204.6 L 958.1,204.3 L 956.8,205.1 L 955.4,204.8 L 954.1,203.9 L 952.8,203.7 L 951.4,203.7 L 950.1,203.7 L 948.7,204.0 L 947.4,203.7 L 946.0,203.7 L 944.7,205.8 L 943.4,206.1 L 942.0,204.3 L 940.7,204.0 L 939.3,204.3 L 938.0,230.2 L 936.6,227.8 L 935.3,204.0 L 934.0,204.3 L 932.6,204.0 L 931.3,203.7 L 929.9,205.8 L 928.6,204.0 L 927.2,203.7 L 925.9,203.7 L 924.6,203.9 L 923.2,204.0 L 921.9,204.9 L 920.5,204.3 L 919.2,204.6 L 917.8,207.8 L 916.5,205.3 L 915.1,207.7 L 913.8,208.5 L 912.5,208.7 L 911.1,209.5 L 909.8,211.1 L 908.4,211.7 L 907.1,212.5 L 905.7,212.8 L 904.4,222.5 L 903.1,217.7 L 901.7,215.7 L 900.4,219.6 L 899.0,218.5 L 897.7,221.1 L 896.3,224.2 L 895.0,227.5 L 893.7,226.1 L 892.3,224.3 L 891.0,226.0 L 889.6,226.3 L 888.3,227.1 L 886.9,226.0 L 885.6,226.3 L 884.3,226.3 L 882.9,226.3 L 881.6,226.9 L 880.2,226.2 L 878.9,226.0 L 877.5,224.1 L 876.2,213.3 L 874.9,213.3 L 873.5,211.2 L 872.2,211.2 L 870.8,221.8 L 869.5,226.3 L 868.1,226.8 L 866.8,226.4 L 865.5,226.1 L 864.1,226.9 L 862.8,226.3 L 861.4,226.1 L 860.1,226.4 L 858.7,226.1 L 857.4,226.1 L 856.1,226.4 L 854.7,226.1 L 853.4,226.6 L 852.0,226.6 L 850.7,261.2 L 849.3,284.9 L 848.0,298.1 L 846.7,284.0 L 845.3,297.0 L 844.0,283.1 L 842.6,296.4 L 841.3,310.6 L 839.9,296.0 L 838.6,299.0 L 837.3,298.7 L 835.9,299.9 L 834.6,310.6 L 833.2,310.5 L 831.9,310.2 L 830.5,311.5 L 829.2,315.8 L 827.9,324.6 L 826.5,412.3 L 825.2,324.3 L 823.8,327.8 L 822.5,415.1 L 821.1,428.9 L 819.8,386.4 L 818.5,423.4 L 817.1,437.7 L 815.8,421.8 L 814.4,432.8 L 813.1,438.1 L 811.7,437.4 L 810.4,437.5 L 809.1,442.8 L 807.7,460.0 L 806.4,108.5 L 805.0,108.5 L 803.7,108.5 L 802.3,108.5 L 801.0,108.5 L 799.7,108.5 L 798.3,108.5 L 797.0,108.5 L 795.6,108.5 L 794.3,108.5 L 792.9,108.5 L 791.6,108.5 L 790.3,108.5 L 788.9,108.5 L 787.6,108.5 L 786.2,108.5 L 784.9,108.5 L 783.5,108.5 L 782.2,108.5 L 780.9,108.5 L 779.5,108.5 L 778.2,108.5 L 776.8,108.5 L 775.5,108.5 L 774.1,108.5 L 772.8,108.5 L 771.5,108.5 L 770.1,108.5 L 768.8,108.5 L 767.4,108.5 L 766.1,108.5 L 764.7,108.5 L 763.4,108.5 L 762.1,108.5 L 760.7,108.5 L 759.4,108.5 L 758.0,108.5 L 756.7,108.5 L 755.3,108.5 L 754.0,108.5 L 752.7,108.5 L 751.3,108.5 L 750.0,108.5 L 748.6,108.5 L 747.3,108.5 L 745.9,108.5 L 744.6,108.5 L 743.3,108.5 L 741.9,108.5 L 740.6,108.5 L 739.2,108.5 L 737.9,108.5 L 736.5,108.5 L 735.2,108.5 L 733.9,108.5 L 732.5,108.5 L 731.2,108.5 L 729.8,108.5 L 728.5,108.5 L 727.1,108.5 L 725.8,108.5 L 724.5,108.5 L 723.1,108.5 L 721.8,108.5 L 720.4,108.5 L 719.1,108.5 L 717.7,108.5 L 716.4,108.5 L 715.1,108.5 L 713.7,108.5 L 712.4,108.5 L 711.0,108.5 L 709.7,108.5 L 708.3,108.5 L 707.0,108.5 L 705.7,108.5 L 704.3,108.5 L 703.0,108.5 L 701.6,108.5 L 700.3,108.5 L 698.9,108.5 L 697.6,108.5 L 696.3,108.5 L 694.9,108.5 L 693.6,108.5 L 692.2,108.5 L 690.9,108.5 L 689.5,108.5 L 688.2,108.5 L 686.9,108.5 L 685.5,108.5 L 684.2,108.5 L 682.8,108.5 L 681.5,108.5 L 680.1,108.5 L 678.8,108.5 L 677.5,108.5 L 676.1,108.5 L 674.8,108.5 L 673.4,108.5 L 672.1,108.5 L 670.7,108.5 L 669.4,108.5 L 668.1,108.5 L 666.7,108.5 L 665.4,108.5 L 664.0,108.5 L 662.7,108.5 L 661.3,108.5 L 660.0,108.5 L 658.7,108.5 L 657.3,108.5 L 656.0,108.5 L 654.6,108.5 L 653.3,108.5 L 651.9,108.5 L 650.6,108.5 L 649.3,108.5 L 647.9,108.5 L 646.6,108.5 L 645.2,108.5 L 643.9,108.5 L 642.5,108.5 L 641.2,108.5 L 639.9,108.5 L 638.5,108.5 L 637.2,108.5 L 635.8,108.5 L 634.5,108.5 L 633.1,108.5 L 631.8,108.5 L 630.5,108.5 L 629.1,108.5 L 627.8,108.5 L 626.4,108.5 L 625.1,108.5 L 623.7,108.5 L 622.4,108.5 L 621.1,104.6 L 619.7,98.7 L 618.4,98.1 L 617.0,96.0 L 615.7,95.2 L 614.3,92.5 L 613.0,93.6 L 611.7,90.8 L 610.3,89.9 L 609.0,88.9 L 607.6,87.1 L 606.3,85.9 L 604.9,81.7 L 603.6,83.5 L 602.3,84.2 L 600.9,75.6 L 599.6,82.7 L 598.2,79.0 L 596.9,77.5 L 595.5,67.6 L 594.2,78.2 L 592.9,69.8 L 591.5,74.3 L 590.2,67.2 L 588.8,72.4 L 587.5,73.0 L 586.1,69.4 L 584.8,69.7 L 583.5,67.2 L 582.1,68.9 L 580.8,67.5 L 579.4,67.0 L 578.1,67.9 L 576.7,68.7 L 575.4,70.0 L 574.1,64.0 L 572.7,64.0 L 571.4,64.0 L 570.0,64.0 L 568.7,66.2 L 567.3,63.9 L 566.0,63.9 L 564.7,66.1 L 563.3,63.9 L 562.0,70.9 L 560.6,63.9 L 559.3,63.9 L 557.9,64.9 L 556.6,66.1 L 555.3,63.8 L 553.9,63.8 L 552.6,63.8 L 551.2,63.8 L 549.9,63.8 L 548.5,66.0 L 547.2,66.0 L 545.9,63.7 L 544.5,63.7 L 543.2,63.7 L 541.8,63.7 L 540.5,63.7 L 539.1,65.9 L 537.8,63.6 L 536.5,63.6 L 535.1,63.6 L 533.8,63.6 L 532.4,65.8 L 531.1,63.6 L 529.7,63.6 L 528.4,65.8 L 527.1,65.8 L 525.7,70.0 L 524.4,63.5 L 523.0,65.7 L 521.7,139.8 L 520.3,69.7 L 519.0,63.4 L 517.7,64.5 L 516.3,63.4 L 515.0,63.4 L 513.6,65.6 L 512.3,79.5 L 510.9,74.4 L 509.6,69.4 L 508.3,63.3 L 506.9,65.5 L 505.6,63.3 L 504.2,63.3 L 502.9,65.5 L 501.5,63.3 L 500.2,63.2 L 498.9,65.5 L 497.5,63.2 L 496.2,64.0 L 494.8,63.2 L 493.5,64.3 L 492.1,63.2 L 490.8,65.4 L 489.5,63.6 L 488.1,63.1 L 486.8,63.1 L 485.4,65.3 L 484.1,63.1 L 482.7,64.1 L 481.4,63.1 L 480.0,65.9 L 478.7,66.4 L 477.4,68.7 L 476.0,72.0 L 474.7,63.0 L 473.3,67.9 L 472.0,63.0 L 470.6,64.2 L 469.3,62.9 L 468.0,63.7 L 466.6,67.0 L 465.3,62.9 L 463.9,65.1 L 462.6,62.9 L 461.2,62.8 L 459.9,62.8 L 458.6,71.4 L 457.2,75.1 L 455.9,78.8 L 454.5,120.0 L 453.2,62.8 L 451.8,62.7 L 450.5,73.2 L 449.2,69.3 L 447.8,73.9 L 446.5,67.5 L 445.1,62.7 L 443.8,72.5 L 442.4,62.6 L 441.1,62.6 L 439.8,111.8 L 438.4,64.3 L 437.1,62.6 L 435.7,93.6 L 434.4,210.0 L 433.0,69.1 L 431.7,101.6 L 430.4,62.5 L 429.0,62.5 L 427.7,62.5 L 426.3,79.1 L 425.0,64.7 L 423.6,62.4 L 422.3,62.4 L 421.0,64.1 L 419.6,71.0 L 418.3,64.6 L 416.9,62.4 L 415.6,64.6 L 414.2,62.3 L 412.9,121.7 L 411.6,98.4 L 410.2,62.3 L 408.9,82.2 L 407.5,75.2 L 406.2,62.2 L 404.8,67.9 L 403.5,62.2 L 402.2,93.1 L 400.8,62.2 L 399.5,70.2 L 398.1,68.1 L 396.8,87.6 L 395.4,85.8 L 394.1,64.3 L 392.8,62.1 L 391.4,63.1 L 390.1,62.1 L 388.7,83.4 L 387.4,84.8 L 386.0,64.3 L 384.7,62.0 L 383.4,62.0 L 382.0,63.0 L 380.7,62.0 L 379.3,68.0 L 378.0,73.0 L 376.6,64.2 L 375.3,61.9 L 374.0,64.1 L 372.6,61.9 L 371.3,61.9 L 369.9,61.9 L 368.6,61.9 L 367.2,64.1 L 365.9,61.8 L 364.6,61.8 L 363.2,75.4 L 361.9,64.0 L 360.5,61.8 L 359.2,61.8 L 357.8,63.6 L 356.5,61.7 L 355.2,61.7 L 353.8,63.9 L 352.5,61.7 L 351.1,63.9 L 349.8,63.9 L 348.4,61.7 L 347.1,61.6 L 345.8,61.6 L 344.4,61.6 L 343.1,61.6 L 341.7,63.8 L 340.4,61.6 L 339.0,61.5 L 337.7,61.5 L 336.4,61.5 L 335.0,61.5 L 333.7,61.5 L 332.3,61.5 L 331.0,61.5 L 329.6,61.5 L 328.3,61.4 L 327.0,61.4 L 325.6,63.6 L 324.3,61.4 L 322.9,61.4 L 321.6,63.6 L 320.2,61.3 L 318.9,61.3 L 317.6,61.3 L 316.2,61.3 L 314.9,61.3 L 313.5,71.0 L 312.2,65.0 L 310.8,66.8 L 309.5,64.2 L 308.2,64.6 L 306.8,64.3 L 305.5,67.3 L 304.1,66.7 L 302.8,66.4 L 301.4,69.4 L 300.1,64.2 L 298.8,71.2 L 297.4,67.5 L 296.1,66.6 L 294.7,75.5 L 293.4,64.5 L 292.0,74.3 L 290.7,75.8 L 289.4,78.7 L 288.0,72.3 L 286.7,80.3 L 285.3,80.5 L 284.0,78.4 L 282.6,79.6 L 281.3,79.7 L 280.0,84.6 L 278.6,85.5 L 277.3,86.4 L 275.9,87.3 L 274.6,89.3 L 273.2,89.7 L 271.9,91.5 L 270.6,93.8 L 269.2,94.7 L 267.9,97.5 L 266.5,98.2 L 265.2,101.4 L 263.8,106.4 L 262.5,124.5 L 261.2,313.4 L 259.8,311.2 L 258.5,311.4 L 257.1,311.5 L 255.8,311.8 L 254.4,312.4 L 253.1,313.1 L 251.8,314.9 L 250.4,317.1 L 249.1,317.2 L 247.7,318.5 L 246.4,326.3 L 245.0,320.2 L 243.7,330.0 L 242.4,316.9 L 241.0,319.4 L 239.7,318.7 L 238.3,329.7 L 237.0,318.2 L 235.6,320.0 L 234.3,317.6 L 233.0,317.7 L 231.6,316.5 L 230.3,317.8 L 228.9,317.8 L 227.6,318.6 L 226.2,314.4 L 224.9,316.2 L 223.6,316.4 L 222.2,318.5 L 220.9,312.0 L 219.5,312.5 L 218.2,308.2 L 216.8,310.3 L 215.5,304.5 L 214.2,303.4 L 212.8,302.8 L 211.5,302.3 L 210.1,344.8 L 208.8,346.6 L 207.4,346.6 L 206.1,348.0 L 204.8,349.8 L 203.4,354.1 L 202.1,351.5 L 200.7,352.9 L 199.4,354.7 L 198.0,364.5 L 196.7,360.5 L 195.4,364.3 L 194.0,365.9 L 192.7,361.4 L 191.3,363.4 L 190.0,367.1 L 188.6,369.1 L 187.3,370.7 L 186.0,372.7 L 184.6,376.3 L 183.3,382.2 L 181.9,386.4 L 180.6,389.4 L 179.2,304.5 L 177.9,304.5 L 176.6,304.5 L 175.2,304.5 L 173.9,304.5 L 172.5,304.5 L 171.2,304.5 L 169.8,304.5 L 168.5,304.5 L 167.2,304.5 L 165.8,304.5 L 164.5,302.3 L 163.1,303.1 L 161.8,304.5 L 160.4,304.6 L 159.1,308.2 L 157.8,312.5 L 156.4,312.0 L 155.1,312.6 L 153.7,318.2 L 152.4,316.2 L 151.0,314.4 L 149.7,318.6 L 148.4,318.3 L 147.0,317.8 L 145.7,317.1 L 144.3,316.5 L 143.0,317.6 L 141.6,318.0 L 140.3,318.2 L 139.0,416.2 L 137.6,410.3 L 136.3,318.7 L 134.9,316.9 L 133.6,317.8 L 132.2,320.2 L 130.9,320.2 L 129.6,318.5 L 128.2,318.4 L 126.9,317.1 L 125.5,316.7 L 124.2,316.4 L 122.8,316.9 L 121.5,316.7 L 120.2,316.5 L 118.8,317.3 L 117.5,318.7 L 116.1,320.3 L 114.8,319.3 L 113.4,317.9 L 112.1,317.5 L 110.8,320.7 L 109.4,320.2 L 108.1,319.0 L 106.7,318.5 L 105.4,318.7 L 104.0,319.1 L 102.7,318.6 L 101.4,319.2 L 100.0,320.3 L 98.7,362.7 L 97.3,318.5 L 96.0,320.2 L 94.6,321.1 L 93.3,318.4 L 92.0,319.0 L 90.6,318.1 L 89.3,318.9 L 87.9,318.9 L 86.6,319.1 L 85.2,328.7 L 83.9,321.2 L 82.6,327.2 L 81.2,327.2 L 79.9,319.8 L 78.5,327.2 L 77.2,318.4 L 75.8,318.1 L 74.5,334.5 L 73.2,334.4 L 71.8,322.8 L 70.5,320.8 L 69.1,320.6 L 67.8,320.1 L 66.4,318.9 L 65.1,318.9 L 63.8,318.3 L 62.4,318.2 Z" fill="#1a6ba0" fill-opacity="0.80" stroke="#0d3d5c" stroke-width="1.5"/>
<path d="M 644.3,354.6 L 644.9,346.7 L 645.6,360.7 L 646.3,358.1 L 647.0,365.3 L 647.7,366.7 L 648.4,364.6 L 649.1,365.8 L 649.8,367.3 L 650.5,366.9 L 651.2,366.1 L 651.9,371.7 L 652.6,371.9 L 653.3,376.4 L 654.0,377.3 L 654.7,377.6 L 655.4,377.8 L 656.1,377.9 L 656.8,378.0 L 657.5,377.9 L 658.2,377.9 L 658.9,377.5 L 659.6,377.2 L 660.3,376.9 L 661.0,376.6 L 661.7,376.2 L 662.4,375.9 L 663.1,376.0 L 663.8,375.4 L 664.5,377.2 L 665.2,380.3 L 665.9,381.0 L 666.5,381.0 L 667.2,378.8 L 667.9,380.6 L 668.6,379.5 L 669.3,377.3 L 670.0,379.1 L 670.7,393.1 L 671.4,378.0 L 672.1,387.4 L 672.8,390.9 L 673.5,384.1 L 674.2,381.6 L 674.9,393.0 L 675.6,384.4 L 676.3,387.3 L 677.0,390.8 L 677.7,384.0 L 678.4,381.1 L 679.1,382.3 L 679.8,380.5 L 680.5,381.3 L 681.2,386.9 L 681.9,386.3 L 682.6,386.1 L 683.3,388.2 L 684.0,388.4 L 684.7,388.4 L 685.4,387.8 L 686.1,386.2 L 686.8,387.7 L 687.5,388.1 L 688.1,387.5 L 688.8,385.6 L 689.5,382.5 L 690.2,381.7 L 690.9,386.2 L 691.6,386.2 L 692.3,387.7 L 693.0,387.8 L 693.7,385.6 L 694.4,388.5 L 695.1,388.6 L 695.8,386.0 L 696.5,383.9 L 697.2,383.6 L 697.9,383.7 L 698.6,384.4 L 699.3,383.9 L 700.0,380.4 L 700.7,386.9 L 701.4,386.0 L 702.1,385.5 L 702.8,385.8 L 703.5,388.2 L 704.2,386.9 L 704.9,388.9 L 705.6,385.9 L 706.3,383.9 L 707.0,383.6 L 707.7,383.6 L 708.4,380.5 L 709.1,384.5 L 709.7,386.3 L 710.4,386.4 L 711.1,384.8 L 711.8,384.3 L 712.5,384.8 L 713.2,385.9 L 713.9,386.7 L 714.6,387.1 L 715.3,387.8 L 716.0,386.7 L 716.7,381.4 L 717.4,382.2 L 718.1,383.0 L 718.8,384.7 L 719.5,384.8 L 720.2,384.2 L 720.9,384.8 L 721.6,386.1 L 722.3,386.6 L 723.0,384.7 L 723.7,384.9 L 724.4,385.9 L 725.1,386.7 L 725.8,386.6 L 726.5,386.4 L 727.2,382.8 L 727.9,384.9 L 728.6,382.8 L 729.3,379.3 L 730.0,385.6 L 730.6,389.1 L 731.3,380.8 L 732.0,387.5 L 732.7,391.2 L 733.4,382.1 L 734.1,389.0 L 734.8,378.5 L 735.5,382.6 L 736.2,382.6 L 736.9,391.1 L 737.6,382.4 L 738.3,382.3 L 739.0,379.4 L 739.7,382.2 L 740.4,377.5 L 741.1,382.0 L 741.8,381.8 L 742.5,381.2 L 743.2,381.7 L 743.9,381.4 L 744.6,377.4 L 745.3,381.2 L 746.0,381.0 L 746.7,380.3 L 747.4,380.7 L 748.1,380.5 L 748.8,377.1 L 749.5,380.2 L 750.2,379.9 L 750.9,379.2 L 751.6,379.6 L 752.2,379.2 L 752.9,378.9 L 753.6,377.0 L 754.3,378.5 L 755.0,378.2 L 755.7,378.9 L 756.4,375.0 L 757.1,377.4 L 757.8,377.0 L 758.5,376.5 L 759.2,373.1 L 759.9,376.1 L 760.6,375.6 L 761.3,375.2 L 762.0,374.7 L 762.7,374.2 L 763.4,373.7 L 764.1,373.2 L 764.8,372.7 L 765.5,372.2 L 766.2,371.6 L 766.9,371.1 L 767.6,370.5 L 768.3,369.9 L 769.0,369.3 L 769.7,368.7 L 770.4,368.2 L 771.1,366.9 L 771.8,366.3 L 772.5,365.0 L 773.2,364.4 L 773.8,363.1 L 774.5,361.1 L 775.2,359.1 L 775.9,359.1 L 776.6,359.1 L 777.3,359.1 L 778.0,359.1 L 778.7,359.1 L 779.4,359.1 L 780.1,359.1 L 780.8,359.1 L 781.5,359.1 L 782.2,359.1 L 782.9,359.1 L 783.6,359.1 L 784.3,359.1 L 785.0,359.1 L 785.7,359.1 L 786.4,359.1 L 787.1,359.1 L 787.8,359.1 L 788.5,359.1 L 789.2,359.1 L 789.9,359.1 L 790.6,359.1 L 791.3,361.1 L 792.0,363.1 L 792.7,364.4 L 793.4,365.0 L 794.1,366.3 L 794.8,366.9 L 795.4,368.2 L 796.1,368.7 L 796.8,369.3 L 797.5,369.9 L 798.2,370.5 L 798.9,371.1 L 799.6,371.6 L 800.3,372.2 L 801.0,372.7 L 801.7,373.2 L 802.4,373.7 L 803.1,374.2 L 803.8,374.7 L 804.5,375.2 L 805.2,375.6 L 805.9,376.1 L 806.6,373.1 L 807.3,376.5 L 808.0,377.0 L 808.7,377.4 L 809.4,375.0 L 810.1,378.9 L 810.8,378.2 L 811.5,378.5 L 812.2,377.0 L 812.9,378.9 L 813.6,379.2 L 814.3,379.6 L 815.0,379.2 L 815.7,379.9 L 816.4,380.2 L 817.0,377.1 L 817.7,380.5 L 818.4,380.7 L 819.1,380.3 L 819.8,381.0 L 820.5,381.2 L 821.2,377.4 L 821.9,381.4 L 822.6,381.7 L 823.3,381.2 L 824.0,381.8 L 824.7,382.0 L 825.4,377.5 L 826.1,382.2 L 826.8,379.4 L 827.5,382.3 L 828.2,382.4 L 828.9,391.1 L 829.6,382.6 L 830.3,382.6 L 831.0,378.5 L 831.7,389.0 L 832.4,382.1 L 833.1,391.2 L 833.8,387.5 L 834.5,380.8 L 835.2,389.1 L 835.9,385.6 L 836.6,379.3 L 837.3,382.8 L 838.0,384.9 L 838.6,382.8 L 839.3,386.4 L 840.0,386.6 L 840.7,386.7 L 841.4,385.9 L 842.1,384.9 L 842.8,384.7 L 843.5,386.6 L 844.2,386.1 L 844.9,384.8 L 845.6,384.2 L 846.3,384.8 L 847.0,384.7 L 847.7,383.0 L 848.4,382.2 L 849.1,381.4 L 849.8,386.7 L 850.5,387.8 L 851.2,387.1 L 851.9,386.7 L 852.6,385.9 L 853.3,384.8 L 854.0,384.3 L 854.7,384.8 L 855.4,386.4 L 856.1,386.3 L 856.8,384.5 L 857.5,380.5 L 858.2,383.6 L 858.9,383.6 L 859.6,383.9 L 860.2,385.9 L 860.9,388.9 L 861.6,386.9 L 862.3,388.2 L 863.0,385.8 L 863.7,385.5 L 864.4,386.0 L 865.1,386.9 L 865.8,380.4 L 866.5,383.9 L 867.2,384.4 L 867.9,383.7 L 868.6,383.6 L 869.3,383.9 L 870.0,386.0 L 870.7,388.6 L 871.4,388.5 L 872.1,385.6 L 872.8,387.8 L 873.5,387.7 L 874.2,386.2 L 874.9,386.2 L 875.6,381.7 L 876.3,382.5 L 877.0,385.6 L 877.7,387.5 L 878.4,388.1 L 879.1,387.7 L 879.8,386.2 L 880.5,387.8 L 881.2,388.4 L 881.8,388.4 L 882.5,388.2 L 883.2,386.1 L 883.9,386.3 L 884.6,386.9 L 885.3,381.3 L 886.0,380.5 L 886.7,382.3 L 887.4,381.1 L 888.1,384.0 L 888.8,390.8 L 889.5,387.3 L 890.2,384.4 L 890.9,393.0 L 891.6,381.6 L 892.3,384.1 L 893.0,390.9 L 893.7,387.4 L 894.4,378.0 L 895.1,393.1 L 895.8,379.1 L 896.5,377.3 L 897.2,379.5 L 897.9,380.6 L 898.6,378.8 L 899.3,381.0 L 900.0,381.0 L 900.7,380.3 L 901.4,377.2 L 902.1,375.4 L 902.8,376.0 L 903.4,375.9 L 904.1,376.2 L 904.8,376.6 L 905.5,376.9 L 906.2,377.2 L 906.9,377.5 L 907.6,377.9 L 908.3,377.9 L 909.0,378.0 L 909.7,377.9 L 910.4,377.8 L 911.1,377.6 L 911.8,377.3 L 912.5,376.4 L 913.2,371.9 L 913.9,371.7 L 914.6,366.1 L 915.3,366.9 L 916.0,367.3 L 916.7,365.8 L 917.4,364.6 L 918.1,366.7 L 918.8,365.3 L 919.5,358.1 L 920.2,360.7 L 920.9,346.7 L 921.6,354.6 L 922.3,347.9 L 922.3,347.9 L 921.6,342.1 L 920.9,346.7 L 920.2,340.2 L 919.5,339.6 L 918.8,338.8 L 918.1,340.2 L 917.4,342.9 L 916.7,336.5 L 916.0,340.3 L 915.3,336.9 L 914.6,336.9 L 913.9,342.6 L 913.2,335.8 L 912.5,334.2 L 911.8,332.2 L 911.1,333.4 L 910.4,336.9 L 909.7,335.5 L 909.0,340.5 L 908.3,331.9 L 907.6,336.7 L 906.9,330.9 L 906.2,329.6 L 905.5,333.3 L 904.8,328.9 L 904.1,330.0 L 903.4,331.1 L 902.8,332.4 L 902.1,330.5 L 901.4,327.4 L 900.7,327.0 L 900.0,333.6 L 899.3,328.3 L 898.6,329.1 L 897.9,325.8 L 897.2,329.0 L 896.5,328.7 L 895.8,325.6 L 895.1,324.8 L 894.4,330.3 L 893.7,327.3 L 893.0,323.4 L 892.3,322.9 L 891.6,328.0 L 890.9,321.4 L 890.2,320.9 L 889.5,320.5 L 888.8,320.3 L 888.1,320.9 L 887.4,319.4 L 886.7,319.4 L 886.0,320.1 L 885.3,321.6 L 884.6,318.6 L 883.9,320.8 L 883.2,322.9 L 882.5,318.9 L 881.8,320.8 L 881.2,321.1 L 880.5,319.8 L 879.8,322.0 L 879.1,321.5 L 878.4,318.8 L 877.7,319.1 L 877.0,320.5 L 876.3,318.4 L 875.6,320.7 L 874.9,318.2 L 874.2,322.8 L 873.5,320.3 L 872.8,322.4 L 872.1,330.2 L 871.4,319.7 L 870.7,321.8 L 870.0,318.8 L 869.3,323.4 L 868.6,318.4 L 867.9,318.4 L 867.2,328.9 L 866.5,318.8 L 865.8,319.6 L 865.1,322.8 L 864.4,327.2 L 863.7,320.3 L 863.0,305.8 L 862.3,328.6 L 861.6,329.5 L 860.9,327.7 L 860.2,323.1 L 859.6,321.9 L 858.9,320.3 L 858.2,318.6 L 857.5,317.9 L 856.8,321.1 L 856.1,321.7 L 855.4,322.3 L 854.7,321.7 L 854.0,322.5 L 853.3,320.9 L 852.6,321.3 L 851.9,319.2 L 851.2,320.4 L 850.5,318.4 L 849.8,319.5 L 849.1,318.3 L 848.4,319.7 L 847.7,305.8 L 847.0,319.8 L 846.3,320.8 L 845.6,320.0 L 844.9,322.2 L 844.2,323.6 L 843.5,322.1 L 842.8,322.9 L 842.1,322.7 L 841.4,327.4 L 840.7,327.1 L 840.0,327.5 L 839.3,327.3 L 838.6,326.5 L 838.0,326.7 L 837.3,326.9 L 836.6,324.6 L 835.9,324.9 L 835.2,327.2 L 834.5,331.3 L 833.8,327.3 L 833.1,327.3 L 832.4,329.8 L 831.7,327.4 L 831.0,329.3 L 830.3,327.4 L 829.6,327.5 L 828.9,330.2 L 828.2,327.6 L 827.5,327.8 L 826.8,329.8 L 826.1,327.9 L 825.4,332.9 L 824.7,328.1 L 824.0,305.8 L 823.3,328.9 L 822.6,328.4 L 821.9,328.6 L 821.2,330.5 L 820.5,328.9 L 819.8,329.1 L 819.1,329.8 L 818.4,329.3 L 817.7,329.6 L 817.0,333.0 L 816.4,329.9 L 815.7,330.2 L 815.0,330.9 L 814.3,330.5 L 813.6,330.8 L 812.9,331.2 L 812.2,333.1 L 811.5,331.5 L 810.8,331.9 L 810.1,332.3 L 809.4,305.8 L 808.7,332.7 L 808.0,333.1 L 807.3,333.5 L 806.6,336.9 L 805.9,334.0 L 805.2,334.4 L 804.5,334.9 L 803.8,335.4 L 803.1,335.9 L 802.4,336.4 L 801.7,336.9 L 801.0,337.4 L 800.3,337.9 L 799.6,338.5 L 798.9,339.0 L 798.2,339.6 L 797.5,340.2 L 796.8,340.7 L 796.1,341.3 L 795.4,341.9 L 794.8,343.1 L 794.1,343.8 L 793.4,345.0 L 792.7,345.7 L 792.0,347.0 L 791.3,348.9 L 790.6,351.0 L 789.9,351.0 L 789.2,351.0 L 788.5,351.0 L 787.8,351.0 L 787.1,351.0 L 786.4,351.0 L 785.7,351.0 L 785.0,351.0 L 784.3,351.0 L 783.6,351.0 L 782.9,351.0 L 782.2,351.0 L 781.5,351.0 L 780.8,351.0 L 780.1,351.0 L 779.4,351.0 L 778.7,351.0 L 778.0,351.0 L 777.3,351.0 L 776.6,351.0 L 775.9,351.0 L 775.2,351.0 L 774.5,348.9 L 773.8,347.0 L 773.2,345.7 L 772.5,345.0 L 771.8,343.8 L 771.1,343.1 L 770.4,341.9 L 769.7,341.3 L 769.0,340.7 L 768.3,340.2 L 767.6,339.6 L 766.9,339.0 L 766.2,338.5 L 765.5,337.9 L 764.8,337.4 L 764.1,336.9 L 763.4,336.4 L 762.7,335.9 L 762.0,335.4 L 761.3,334.9 L 760.6,334.4 L 759.9,334.0 L 759.2,336.9 L 758.5,333.5 L 757.8,333.1 L 757.1,332.7 L 756.4,305.8 L 755.7,332.3 L 755.0,331.9 L 754.3,331.5 L 753.6,333.1 L 752.9,331.2 L 752.2,330.8 L 751.6,330.5 L 750.9,330.9 L 750.2,330.2 L 749.5,329.9 L 748.8,333.0 L 748.1,329.6 L 747.4,329.3 L 746.7,329.8 L 746.0,329.1 L 745.3,328.9 L 744.6,330.5 L 743.9,328.6 L 743.2,328.4 L 742.5,328.9 L 741.8,305.8 L 741.1,328.1 L 740.4,332.9 L 739.7,327.9 L 739.0,329.8 L 738.3,327.8 L 737.6,327.6 L 736.9,330.2 L 736.2,327.5 L 735.5,327.4 L 734.8,329.3 L 734.1,327.4 L 733.4,329.8 L 732.7,327.3 L 732.0,327.3 L 731.3,331.3 L 730.6,327.2 L 730.0,324.9 L 729.3,324.6 L 728.6,326.9 L 727.9,326.7 L 727.2,326.5 L 726.5,327.3 L 725.8,327.5 L 725.1,327.1 L 724.4,327.4 L 723.7,322.7 L 723.0,322.9 L 722.3,322.1 L 721.6,323.6 L 720.9,322.2 L 720.2,320.0 L 719.5,320.8 L 718.8,319.8 L 718.1,305.8 L 717.4,319.7 L 716.7,318.3 L 716.0,319.5 L 715.3,318.4 L 714.6,320.4 L 713.9,319.2 L 713.2,321.3 L 712.5,320.9 L 711.8,322.5 L 711.1,321.7 L 710.4,322.3 L 709.7,321.7 L 709.1,321.1 L 708.4,317.9 L 707.7,318.6 L 707.0,320.3 L 706.3,321.9 L 705.6,323.1 L 704.9,327.7 L 704.2,329.5 L 703.5,328.6 L 702.8,305.8 L 702.1,320.3 L 701.4,327.2 L 700.7,322.8 L 700.0,319.6 L 699.3,318.8 L 698.6,328.9 L 697.9,318.4 L 697.2,318.4 L 696.5,323.4 L 695.8,318.8 L 695.1,321.8 L 694.4,319.7 L 693.7,330.2 L 693.0,322.4 L 692.3,320.3 L 691.6,322.8 L 690.9,318.2 L 690.2,320.7 L 689.5,318.4 L 688.8,320.5 L 688.1,319.1 L 687.5,318.8 L 686.8,321.5 L 686.1,322.0 L 685.4,319.8 L 684.7,321.1 L 684.0,320.8 L 683.3,318.9 L 682.6,322.9 L 681.9,320.8 L 681.2,318.6 L 680.5,321.6 L 679.8,320.1 L 679.1,319.4 L 678.4,319.4 L 677.7,320.9 L 677.0,320.3 L 676.3,320.5 L 675.6,320.9 L 674.9,321.4 L 674.2,328.0 L 673.5,322.9 L 672.8,323.4 L 672.1,327.3 L 671.4,330.3 L 670.7,324.8 L 670.0,325.6 L 669.3,328.7 L 668.6,329.0 L 667.9,325.8 L 667.2,329.1 L 666.5,328.3 L 665.9,333.6 L 665.2,327.0 L 664.5,327.4 L 663.8,330.5 L 663.1,332.4 L 662.4,331.1 L 661.7,330.0 L 661.0,328.9 L 660.3,333.3 L 659.6,329.6 L 658.9,330.9 L 658.2,336.7 L 657.5,331.9 L 656.8,340.5 L 656.1,335.5 L 655.4,336.9 L 654.7,333.4 L 654.0,332.2 L 653.3,334.2 L 652.6,335.8 L 651.9,342.6 L 651.2,336.9 L 650.5,336.9 L 649.8,340.3 L 649.1,336.5 L 648.4,342.9 L 647.7,340.2 L 647.0,338.8 L 646.3,339.6 L 645.6,340.2 L 644.9,346.7 L 644.3,342.1 Z" fill="#c06010" fill-opacity="0.65" stroke="#c06010" stroke-width="1.2"/>
<line x1="80" y1="64" x2="80" y2="536" stroke="#333333" stroke-width="1"/>
<text x="90" y="300" dominant-baseline="middle" font-family="'OpenDyslexic', 'OpenDyslexicMono', sans-serif" font-size="10" fill="#333333" transform="rotate(-90,90,300)">~486 mm tip-to-tip</text>
<line x1="60.0" y1="560" x2="1140.0" y2="560" stroke="#333333" stroke-width="1.5"/>
<text x="600.0" y="574" text-anchor="middle" font-family="'OpenDyslexic', 'OpenDyslexicMono', sans-serif" font-size="11" fill="#333333">609.6 mm (24.00 in)</text>
<line x1="835.2" y1="60" x2="835.2" y2="540" stroke="#e00000" stroke-width="1" stroke-dasharray="5,3"/>
<text x="839.2" y="80" font-family="'OpenDyslexic', 'OpenDyslexicMono', sans-serif" font-size="9" fill="#e00000">CG</text>
<text x="1135" y="78" text-anchor="end" font-family="'OpenDyslexic', 'OpenDyslexicMono', sans-serif" font-size="11" font-weight="bold" fill="#333333">▶ NOSE</text>
</svg>
