<?xml version="1.0" encoding="UTF-8"?>
<svg xmlns="http://www.w3.org/2000/svg" viewBox="0 0 1200 400" width="1200" height="400">
<defs>
  <style>
    @import url('https://fonts.cdnfonts.com/css/opendyslexic');
    text, tspan { font-family: 'OpenDyslexic', 'OpenDyslexicMono', sans-serif; }
  </style>
</defs>
<rect width="1200" height="400" fill="#f8f8f8"/>
<rect x="0" y="0" width="1200" height="36" fill="#0d3d5c"/>
<text x="600" y="24" text-anchor="middle" font-family="'OpenDyslexic', 'OpenDyslexicMono', sans-serif" font-size="14" font-weight="bold" fill="#ffffff">SERENITY-CLASS TILTROTOR UAV — SIDE VIEW (STARBOARD)  |  24.00" (609.6 mm)  Rev O</text>
<line x1="60" y1="340.0" x2="1140" y2="340.0" stroke="#cccccc" stroke-width="1" stroke-dasharray="6,4"/>
<path d="M 62.4,315.7 L 63.8,315.1 L 65.2,314.6 L 66.6,317.5 L 68.1,316.0 L 69.5,316.8 L 70.9,317.9 L 72.3,315.9 L 73.7,315.9 L 75.1,315.9 L 76.5,314.4 L 77.9,315.4 L 79.3,316.6 L 80.7,317.4 L 82.2,317.8 L 83.6,323.3 L 85.0,319.0 L 86.4,318.9 L 87.8,314.6 L 89.2,315.1 L 90.6,315.4 L 92.0,310.5 L 93.4,314.6 L 94.9,313.5 L 96.3,316.8 L 97.7,314.1 L 99.1,314.2 L 100.5,314.1 L 101.9,314.7 L 103.3,314.1 L 104.7,314.1 L 106.1,314.5 L 107.6,315.6 L 109.0,312.9 L 110.4,316.4 L 111.8,315.1 L 113.2,314.1 L 114.6,314.1 L 116.0,316.4 L 117.4,331.0 L 118.8,314.5 L 120.2,315.7 L 121.7,317.1 L 123.1,315.6 L 124.5,314.1 L 125.9,314.9 L 127.3,314.1 L 128.7,316.4 L 130.1,316.4 L 131.5,329.9 L 132.9,329.9 L 134.4,314.1 L 135.8,316.4 L 137.2,318.6 L 138.6,319.9 L 140.0,331.3 L 141.4,314.1 L 142.8,314.5 L 144.2,314.2 L 145.6,314.1 L 147.0,314.5 L 148.5,316.7 L 149.9,314.1 L 151.3,314.9 L 152.7,314.2 L 154.1,316.5 L 155.5,320.0 L 156.9,320.0 L 158.3,314.5 L 159.7,314.2 L 161.2,314.1 L 162.6,314.1 L 164.0,314.1 L 165.4,314.1 L 166.8,314.1 L 168.2,314.1 L 169.6,314.1 L 171.0,314.1 L 172.4,314.1 L 173.9,314.1 L 175.3,314.1 L 176.7,314.1 L 178.1,314.1 L 179.5,314.1 L 180.9,275.4 L 182.3,251.4 L 183.7,250.6 L 185.1,250.6 L 186.5,250.0 L 188.0,249.5 L 189.4,249.0 L 190.8,234.8 L 192.2,235.5 L 193.6,222.5 L 195.0,218.4 L 196.4,219.1 L 197.8,218.1 L 199.2,212.4 L 200.7,212.8 L 202.1,205.7 L 203.5,201.8 L 204.9,201.8 L 206.3,201.8 L 207.7,199.5 L 209.1,179.4 L 210.5,189.0 L 211.9,179.9 L 213.4,179.4 L 214.8,159.1 L 216.2,159.1 L 217.6,159.1 L 219.0,174.4 L 220.4,160.1 L 221.8,122.6 L 223.2,171.2 L 224.6,122.6 L 226.0,123.0 L 227.5,123.0 L 228.9,122.6 L 230.3,124.3 L 231.7,97.5 L 233.1,97.9 L 234.5,97.5 L 235.9,100.2 L 237.3,97.9 L 238.7,145.0 L 240.2,100.2 L 241.6,97.9 L 243.0,63.6 L 244.4,66.6 L 245.8,65.9 L 247.2,67.0 L 248.6,70.0 L 250.0,130.0 L 251.4,97.9 L 252.9,97.9 L 254.3,100.2 L 255.7,124.2 L 257.1,97.9 L 258.5,97.9 L 259.9,100.2 L 261.3,97.9 L 262.7,100.2 L 264.1,117.6 L 265.5,118.3 L 267.0,73.3 L 268.4,72.0 L 269.8,97.3 L 271.2,97.1 L 272.6,110.3 L 274.0,97.0 L 275.4,99.3 L 276.8,110.3 L 278.2,98.2 L 279.7,93.8 L 281.1,93.8 L 282.5,93.8 L 283.9,84.4 L 285.3,81.7 L 286.7,80.3 L 288.1,79.5 L 289.5,93.8 L 290.9,80.3 L 292.4,82.9 L 293.8,82.3 L 295.2,80.4 L 296.6,86.0 L 298.0,88.5 L 299.4,80.9 L 300.8,89.4 L 302.2,80.7 L 303.6,89.4 L 305.0,84.3 L 306.5,89.4 L 307.9,80.2 L 309.3,89.4 L 310.7,78.6 L 312.1,92.1 L 313.5,89.4 L 314.9,80.2 L 316.3,89.4 L 317.7,84.3 L 319.2,83.4 L 320.6,80.7 L 322.0,83.5 L 323.4,80.9 L 324.8,86.0 L 326.2,89.4 L 327.6,80.4 L 329.0,82.3 L 330.4,82.9 L 331.9,80.3 L 333.3,93.8 L 334.7,79.5 L 336.1,81.7 L 337.5,84.4 L 338.9,87.1 L 340.3,93.8 L 341.7,93.8 L 343.1,93.8 L 344.5,98.2 L 346.0,110.3 L 347.4,97.0 L 348.8,112.3 L 350.2,99.4 L 351.6,97.1 L 353.0,74.8 L 354.4,72.0 L 355.8,73.9 L 357.2,110.3 L 358.7,109.7 L 360.1,100.2 L 361.5,97.9 L 362.9,97.9 L 364.3,97.9 L 365.7,106.4 L 367.1,104.1 L 368.5,100.2 L 369.9,97.9 L 371.4,97.9 L 372.8,103.5 L 374.2,70.0 L 375.6,67.0 L 377.0,65.9 L 378.4,66.6 L 379.8,63.6 L 381.2,97.9 L 382.6,100.2 L 384.0,95.0 L 385.5,96.8 L 386.9,97.9 L 388.3,97.5 L 389.7,98.8 L 391.1,97.5 L 392.5,95.8 L 393.9,98.7 L 395.3,102.3 L 396.7,102.7 L 398.2,101.6 L 399.6,92.9 L 401.0,97.7 L 402.4,96.5 L 403.8,99.4 L 405.2,105.7 L 406.6,98.9 L 408.0,96.0 L 409.4,98.9 L 410.9,100.1 L 412.3,100.4 L 413.7,92.1 L 415.1,96.7 L 416.5,112.6 L 417.9,94.9 L 419.3,96.0 L 420.7,98.9 L 422.1,107.3 L 423.5,91.7 L 425.0,92.1 L 426.4,92.1 L 427.8,95.1 L 429.2,98.1 L 430.6,93.4 L 432.0,91.7 L 433.4,101.1 L 434.8,132.3 L 436.2,92.0 L 437.7,92.6 L 439.1,92.2 L 440.5,91.6 L 441.9,97.1 L 443.3,94.2 L 444.7,91.6 L 446.1,97.5 L 447.5,91.6 L 448.9,92.6 L 450.4,95.0 L 451.8,93.3 L 453.2,92.0 L 454.6,115.7 L 456.0,101.8 L 457.4,92.1 L 458.8,102.8 L 460.2,91.7 L 461.6,110.8 L 463.0,95.0 L 464.5,92.0 L 465.9,95.2 L 467.3,93.1 L 468.7,92.5 L 470.1,103.8 L 471.5,100.4 L 472.9,94.4 L 474.3,94.1 L 475.7,96.0 L 477.2,106.2 L 478.6,93.2 L 480.0,94.5 L 481.4,108.7 L 482.8,106.1 L 484.2,96.0 L 485.6,92.9 L 487.0,97.1 L 488.4,98.2 L 489.9,95.3 L 491.3,106.8 L 492.7,93.8 L 494.1,107.2 L 495.5,101.7 L 496.9,98.8 L 498.3,97.9 L 499.7,98.0 L 501.1,95.0 L 502.5,100.3 L 504.0,99.6 L 505.4,96.7 L 506.8,100.3 L 508.2,101.6 L 509.6,98.7 L 511.0,104.8 L 512.4,102.1 L 513.8,101.9 L 515.2,104.2 L 516.7,106.9 L 518.1,104.1 L 519.5,108.8 L 520.9,107.5 L 522.3,107.0 L 523.7,112.9 L 525.1,111.7 L 526.5,109.7 L 527.9,114.6 L 529.4,112.1 L 530.8,114.0 L 532.2,112.5 L 533.6,112.4 L 535.0,117.8 L 536.4,115.7 L 537.8,115.1 L 539.2,115.0 L 540.6,114.9 L 542.0,117.5 L 543.5,120.2 L 544.9,123.8 L 546.3,125.5 L 547.7,128.7 L 549.1,130.6 L 550.5,129.6 L 551.9,133.3 L 553.3,133.9 L 554.7,135.0 L 556.2,137.9 L 557.6,142.2 L 559.0,140.8 L 560.4,147.4 L 561.8,147.6 L 563.2,153.2 L 564.6,152.8 L 566.0,152.6 L 567.4,156.5 L 568.9,156.2 L 570.3,156.5 L 571.7,155.7 L 573.1,155.4 L 574.5,154.2 L 575.9,154.7 L 577.3,153.3 L 578.7,152.0 L 580.1,153.6 L 581.5,150.4 L 583.0,152.2 L 584.4,151.1 L 585.8,152.0 L 587.2,152.9 L 588.6,150.4 L 590.0,153.1 L 591.4,153.7 L 592.8,153.7 L 594.2,155.3 L 595.7,154.8 L 597.1,155.5 L 598.5,157.5 L 599.9,156.0 L 601.3,156.5 L 602.7,157.2 L 604.1,157.6 L 605.5,157.0 L 606.9,159.0 L 608.3,159.2 L 609.8,166.3 L 611.2,167.4 L 612.6,168.2 L 614.0,168.6 L 615.4,169.4 L 616.8,171.3 L 618.2,173.4 L 619.6,175.1 L 621.0,178.0 L 622.5,181.4 L 623.9,181.4 L 625.3,181.4 L 626.7,181.4 L 628.1,181.4 L 629.5,181.4 L 630.9,181.4 L 632.3,181.4 L 633.7,181.4 L 635.2,181.4 L 636.6,181.4 L 638.0,181.4 L 639.4,181.4 L 640.8,181.4 L 642.2,181.4 L 643.6,181.4 L 645.0,181.4 L 646.4,181.4 L 647.8,181.4 L 649.3,181.4 L 650.7,181.4 L 652.1,181.4 L 653.5,181.4 L 654.9,181.4 L 656.3,181.4 L 657.7,181.4 L 659.1,181.4 L 660.5,181.4 L 662.0,181.4 L 663.4,181.4 L 664.8,181.4 L 666.2,181.4 L 667.6,181.4 L 669.0,181.4 L 670.4,181.4 L 671.8,181.4 L 673.2,181.4 L 674.7,181.4 L 676.1,181.4 L 677.5,181.4 L 678.9,181.4 L 680.3,181.4 L 681.7,181.4 L 683.1,181.4 L 684.5,181.4 L 685.9,181.4 L 687.3,181.4 L 688.8,181.4 L 690.2,181.4 L 691.6,181.4 L 693.0,181.4 L 694.4,181.4 L 695.8,181.4 L 697.2,181.4 L 698.6,181.4 L 700.0,181.4 L 701.5,181.4 L 702.9,181.4 L 704.3,181.4 L 705.7,181.4 L 707.1,181.4 L 708.5,181.4 L 709.9,181.4 L 711.3,181.4 L 712.7,181.4 L 714.2,181.4 L 715.6,181.4 L 717.0,181.4 L 718.4,181.4 L 719.8,181.4 L 721.2,181.4 L 722.6,181.4 L 724.0,181.4 L 725.4,181.4 L 726.8,181.4 L 728.3,181.4 L 729.7,181.4 L 731.1,181.4 L 732.5,181.4 L 733.9,181.4 L 735.3,181.4 L 736.7,181.4 L 738.1,181.4 L 739.5,181.4 L 741.0,181.4 L 742.4,181.4 L 743.8,181.4 L 745.2,181.4 L 746.6,181.4 L 748.0,181.4 L 749.4,181.4 L 750.8,181.4 L 752.2,181.4 L 753.7,181.4 L 755.1,181.4 L 756.5,181.4 L 757.9,181.4 L 759.3,181.4 L 760.7,181.4 L 762.1,181.4 L 763.5,181.4 L 764.9,181.4 L 766.3,181.4 L 767.8,181.4 L 769.2,181.4 L 770.6,181.4 L 772.0,181.4 L 773.4,181.4 L 774.8,181.4 L 776.2,181.4 L 777.6,181.4 L 779.0,181.4 L 780.5,181.4 L 781.9,181.4 L 783.3,181.4 L 784.7,181.4 L 786.1,181.4 L 787.5,181.4 L 788.9,181.4 L 790.3,181.4 L 791.7,181.4 L 793.2,181.4 L 794.6,181.4 L 796.0,181.4 L 797.4,181.4 L 798.8,181.4 L 800.2,181.4 L 801.6,181.4 L 803.0,181.4 L 804.4,181.4 L 805.8,181.4 L 807.3,267.3 L 808.7,263.8 L 810.1,259.8 L 811.5,258.6 L 812.9,259.8 L 814.3,258.6 L 815.7,260.0 L 817.1,261.2 L 818.5,254.7 L 820.0,236.3 L 821.4,256.3 L 822.8,236.2 L 824.2,201.4 L 825.6,202.4 L 827.0,202.3 L 828.4,203.2 L 829.8,215.1 L 831.2,190.1 L 832.7,201.4 L 834.1,191.3 L 835.5,189.7 L 836.9,182.9 L 838.3,164.8 L 839.7,167.8 L 841.1,166.7 L 842.5,169.6 L 843.9,170.1 L 845.3,185.0 L 846.8,166.9 L 848.2,185.2 L 849.6,168.8 L 851.0,186.2 L 852.4,186.7 L 853.8,187.7 L 855.2,167.2 L 856.6,164.2 L 858.0,169.1 L 859.5,166.2 L 860.9,172.4 L 862.3,172.8 L 863.7,173.3 L 865.1,166.3 L 866.5,168.3 L 867.9,163.8 L 869.3,162.1 L 870.7,161.0 L 872.2,160.6 L 873.6,160.8 L 875.0,161.7 L 876.4,161.9 L 877.8,159.5 L 879.2,161.6 L 880.6,165.6 L 882.0,151.8 L 883.4,149.0 L 884.8,148.1 L 886.3,147.4 L 887.7,147.5 L 889.1,148.1 L 890.5,148.1 L 891.9,150.5 L 893.3,146.9 L 894.7,149.4 L 896.1,147.7 L 897.5,144.1 L 899.0,139.4 L 900.4,138.0 L 901.8,137.0 L 903.2,136.4 L 904.6,136.6 L 906.0,136.7 L 907.4,137.5 L 908.8,139.9 L 910.2,143.2 L 911.7,137.4 L 913.1,146.6 L 914.5,140.8 L 915.9,141.1 L 917.3,135.1 L 918.7,137.9 L 920.1,140.3 L 921.5,141.6 L 922.9,139.0 L 924.3,132.8 L 925.8,129.0 L 927.2,126.8 L 928.6,126.3 L 930.0,125.9 L 931.4,126.3 L 932.8,126.3 L 934.2,127.5 L 935.6,128.8 L 937.0,129.1 L 938.5,132.1 L 939.9,128.9 L 941.3,129.3 L 942.7,129.2 L 944.1,127.5 L 945.5,126.3 L 946.9,126.6 L 948.3,125.9 L 949.7,126.3 L 951.2,126.8 L 952.6,128.5 L 954.0,132.8 L 955.4,139.0 L 956.8,141.6 L 958.2,140.3 L 959.6,137.9 L 961.0,135.1 L 962.4,143.7 L 963.8,140.8 L 965.3,143.3 L 966.7,137.4 L 968.1,143.2 L 969.5,139.2 L 970.9,138.0 L 972.3,136.7 L 973.7,136.6 L 975.1,136.4 L 976.5,136.7 L 978.0,137.9 L 979.4,139.2 L 980.8,144.1 L 982.2,147.7 L 983.6,149.4 L 985.0,146.9 L 986.4,150.5 L 987.8,148.1 L 989.2,147.9 L 990.7,147.5 L 992.1,147.4 L 993.5,147.7 L 994.9,148.5 L 996.3,151.4 L 997.7,165.6 L 999.1,161.6 L 1000.5,159.5 L 1001.9,162.2 L 1003.3,161.4 L 1004.8,160.8 L 1006.2,160.6 L 1007.6,161.0 L 1009.0,162.0 L 1010.4,163.8 L 1011.8,167.5 L 1013.2,171.8 L 1014.6,174.1 L 1016.0,172.6 L 1017.5,172.7 L 1018.9,172.4 L 1020.3,172.9 L 1021.7,173.5 L 1023.1,176.4 L 1024.5,186.1 L 1025.9,185.1 L 1027.3,184.7 L 1028.7,184.5 L 1030.1,184.8 L 1031.6,185.4 L 1033.0,186.4 L 1034.4,212.9 L 1035.8,212.9 L 1037.2,212.3 L 1038.6,220.1 L 1040.0,215.7 L 1041.4,221.2 L 1042.8,215.2 L 1044.3,222.1 L 1045.7,220.9 L 1047.1,222.0 L 1048.5,222.9 L 1049.9,222.8 L 1051.3,228.6 L 1052.7,228.6 L 1054.1,228.6 L 1055.5,228.6 L 1057.0,228.6 L 1058.4,228.6 L 1059.8,228.6 L 1061.2,228.6 L 1062.6,228.6 L 1064.0,228.6 L 1065.4,228.6 L 1066.8,232.2 L 1068.2,228.6 L 1069.6,228.6 L 1071.1,228.6 L 1072.5,228.6 L 1073.9,228.6 L 1075.3,229.0 L 1076.7,228.6 L 1078.1,228.6 L 1079.5,228.6 L 1080.9,228.6 L 1082.3,228.6 L 1083.8,228.6 L 1085.2,228.6 L 1086.6,253.4 L 1088.0,247.3 L 1089.4,249.3 L 1090.8,252.6 L 1092.2,247.3 L 1093.6,263.3 L 1095.0,253.9 L 1096.5,256.3 L 1097.9,252.1 L 1099.3,254.7 L 1100.7,261.3 L 1102.1,254.3 L 1103.5,256.3 L 1104.9,256.3 L 1106.3,252.5 L 1107.7,254.7 L 1109.1,254.3 L 1110.6,254.3 L 1112.0,252.5 L 1113.4,252.5 L 1114.8,254.7 L 1116.2,260.0 L 1117.6,256.3 L 1119.0,258.6 L 1120.4,256.3 L 1121.8,254.7 L 1123.3,254.7 L 1124.7,261.2 L 1126.1,260.0 L 1127.5,258.6 L 1128.9,259.8 L 1130.3,258.6 L 1131.7,259.8 L 1133.1,263.8 L 1134.5,267.3 L 1136.0,267.3 L 1137.4,267.3 L 1138.8,267.3 L 1140.2,267.3 L 1141.6,267.3 L 1143.0,267.3 L 1144.4,267.3 L 1145.8,267.3 L 1147.2,267.3 L 1148.6,267.3 L 1150.1,267.3 L 1151.5,267.3 L 1152.9,267.3 L 1154.3,267.3 L 1155.7,267.3 L 1157.1,267.3 L 1158.5,267.3 L 1159.9,267.3 L 1161.3,267.3 L 1162.8,267.3 L 1164.2,267.3 L 1165.6,267.3 L 1167.0,267.3 L 1168.4,267.3 L 1169.8,267.3 L 1171.2,267.3 L 1172.6,267.3 L 1174.0,267.3 L 1175.5,267.3 L 1176.9,267.3 L 1178.3,267.3 L 1179.7,267.3 L 1181.1,326.8 L 1182.5,326.8 L 1183.9,326.9 L 1185.3,327.1 L 1186.7,327.2 L 1188.1,327.6 L 1189.6,328.2 L 1189.6,336.5 L 1188.1,337.2 L 1186.7,337.5 L 1185.3,337.7 L 1183.9,337.9 L 1182.5,337.9 L 1181.1,337.9 L 1179.7,325.2 L 1178.3,325.2 L 1176.9,325.2 L 1175.5,325.2 L 1174.0,325.2 L 1172.6,325.2 L 1171.2,325.2 L 1169.8,325.2 L 1168.4,325.2 L 1167.0,325.2 L 1165.6,325.2 L 1164.2,325.2 L 1162.8,325.2 L 1161.3,325.2 L 1159.9,325.2 L 1158.5,325.2 L 1157.1,325.2 L 1155.7,325.2 L 1154.3,325.2 L 1152.9,325.2 L 1151.5,325.2 L 1150.1,325.2 L 1148.6,325.2 L 1147.2,325.2 L 1145.8,325.2 L 1144.4,325.2 L 1143.0,325.2 L 1141.6,325.2 L 1140.2,325.2 L 1138.8,325.2 L 1137.4,325.2 L 1136.0,325.2 L 1134.5,325.2 L 1133.1,337.9 L 1131.7,337.9 L 1130.3,338.2 L 1128.9,340.0 L 1127.5,328.6 L 1126.1,335.2 L 1124.7,330.4 L 1123.3,333.5 L 1121.8,334.6 L 1120.4,334.7 L 1119.0,334.7 L 1117.6,334.1 L 1116.2,340.0 L 1114.8,333.2 L 1113.4,326.1 L 1112.0,337.5 L 1110.6,336.9 L 1109.1,319.0 L 1107.7,325.9 L 1106.3,331.7 L 1104.9,326.3 L 1103.5,325.9 L 1102.1,321.5 L 1100.7,340.0 L 1099.3,340.0 L 1097.9,340.0 L 1096.5,340.0 L 1095.0,340.0 L 1093.6,340.0 L 1092.2,340.0 L 1090.8,340.0 L 1089.4,340.0 L 1088.0,337.0 L 1086.6,340.0 L 1085.2,340.0 L 1083.8,337.0 L 1082.3,340.0 L 1080.9,340.0 L 1079.5,340.0 L 1078.1,340.0 L 1076.7,340.0 L 1075.3,340.0 L 1073.9,340.0 L 1072.5,340.0 L 1071.1,340.0 L 1069.6,340.0 L 1068.2,340.0 L 1066.8,340.0 L 1065.4,337.0 L 1064.0,340.0 L 1062.6,332.6 L 1061.2,337.0 L 1059.8,340.0 L 1058.4,337.0 L 1057.0,340.0 L 1055.5,340.0 L 1054.1,317.7 L 1052.7,337.0 L 1051.3,340.0 L 1049.9,340.0 L 1048.5,337.0 L 1047.1,340.0 L 1045.7,340.0 L 1044.3,340.0 L 1042.8,340.0 L 1041.4,337.0 L 1040.0,340.0 L 1038.6,337.0 L 1037.2,331.4 L 1035.8,340.0 L 1034.4,340.0 L 1033.0,337.0 L 1031.6,340.0 L 1030.1,337.0 L 1028.7,337.1 L 1027.3,337.4 L 1025.9,340.0 L 1024.5,340.0 L 1023.1,340.0 L 1021.7,337.0 L 1020.3,336.8 L 1018.9,333.5 L 1017.5,333.8 L 1016.0,340.0 L 1014.6,337.0 L 1013.2,340.0 L 1011.8,337.0 L 1010.4,340.0 L 1009.0,337.0 L 1007.6,338.3 L 1006.2,340.0 L 1004.8,337.0 L 1003.3,337.7 L 1001.9,331.1 L 1000.5,340.0 L 999.1,340.0 L 997.7,337.0 L 996.3,319.9 L 994.9,318.7 L 993.5,340.0 L 992.1,340.0 L 990.7,337.0 L 989.2,328.3 L 987.8,340.0 L 986.4,340.0 L 985.0,337.0 L 983.6,325.1 L 982.2,330.6 L 980.8,335.1 L 979.4,326.5 L 978.0,340.0 L 976.5,292.0 L 975.1,340.0 L 973.7,340.0 L 972.3,335.1 L 970.9,340.0 L 969.5,327.4 L 968.1,319.9 L 966.7,335.1 L 965.3,261.8 L 963.8,340.0 L 962.4,340.0 L 961.0,335.3 L 959.6,335.0 L 958.2,311.9 L 956.8,339.4 L 955.4,340.0 L 954.0,337.0 L 952.6,340.0 L 951.2,340.0 L 949.7,340.0 L 948.3,312.4 L 946.9,340.0 L 945.5,340.0 L 944.1,340.0 L 942.7,340.0 L 941.3,340.0 L 939.9,340.0 L 938.5,337.0 L 937.0,340.0 L 935.6,340.0 L 934.2,340.0 L 932.8,337.0 L 931.4,340.0 L 930.0,340.0 L 928.6,337.0 L 927.2,340.0 L 925.8,340.0 L 924.3,340.0 L 922.9,317.9 L 921.5,337.0 L 920.1,340.0 L 918.7,340.0 L 917.3,337.0 L 915.9,340.0 L 914.5,338.7 L 913.1,340.0 L 911.7,340.0 L 910.2,340.0 L 908.8,337.0 L 907.4,340.0 L 906.0,340.0 L 904.6,335.8 L 903.2,338.8 L 901.8,340.0 L 900.4,337.0 L 899.0,340.0 L 897.5,340.0 L 896.1,340.0 L 894.7,340.0 L 893.3,337.0 L 891.9,340.0 L 890.5,340.0 L 889.1,338.9 L 887.7,331.9 L 886.3,340.0 L 884.8,340.0 L 883.4,337.0 L 882.0,340.0 L 880.6,338.5 L 879.2,338.5 L 877.8,340.0 L 876.4,337.0 L 875.0,340.0 L 873.6,340.0 L 872.2,340.0 L 870.7,340.0 L 869.3,340.0 L 867.9,340.0 L 866.5,340.0 L 865.1,340.0 L 863.7,340.0 L 862.3,340.0 L 860.9,340.0 L 859.5,340.0 L 858.0,337.0 L 856.6,340.0 L 855.2,340.0 L 853.8,337.0 L 852.4,340.0 L 851.0,340.0 L 849.6,340.0 L 848.2,340.0 L 846.8,340.0 L 845.3,340.0 L 843.9,340.0 L 842.5,340.0 L 841.1,340.0 L 839.7,321.5 L 838.3,325.9 L 836.9,326.3 L 835.5,325.9 L 834.1,325.9 L 832.7,319.0 L 831.2,330.6 L 829.8,335.4 L 828.4,326.1 L 827.0,333.2 L 825.6,338.3 L 824.2,325.9 L 822.8,323.8 L 821.4,323.6 L 820.0,323.8 L 818.5,325.9 L 817.1,330.4 L 815.7,335.2 L 814.3,328.6 L 812.9,333.1 L 811.5,338.2 L 810.1,331.2 L 808.7,322.3 L 807.3,325.2 L 805.8,195.1 L 804.4,195.1 L 803.0,195.1 L 801.6,195.1 L 800.2,195.1 L 798.8,195.1 L 797.4,195.1 L 796.0,195.1 L 794.6,195.1 L 793.2,195.1 L 791.7,195.1 L 790.3,195.1 L 788.9,195.1 L 787.5,195.1 L 786.1,195.1 L 784.7,195.1 L 783.3,195.1 L 781.9,195.1 L 780.5,195.1 L 779.0,195.1 L 777.6,195.1 L 776.2,195.1 L 774.8,195.1 L 773.4,195.1 L 772.0,195.1 L 770.6,195.1 L 769.2,195.1 L 767.8,195.1 L 766.3,195.1 L 764.9,195.1 L 763.5,195.1 L 762.1,195.1 L 760.7,195.1 L 759.3,195.1 L 757.9,195.1 L 756.5,195.1 L 755.1,195.1 L 753.7,195.1 L 752.2,195.1 L 750.8,195.1 L 749.4,195.1 L 748.0,195.1 L 746.6,195.1 L 745.2,195.1 L 743.8,195.1 L 742.4,195.1 L 741.0,195.1 L 739.5,195.1 L 738.1,195.1 L 736.7,195.1 L 735.3,195.1 L 733.9,195.1 L 732.5,195.1 L 731.1,195.1 L 729.7,195.1 L 728.3,195.1 L 726.8,195.1 L 725.4,195.1 L 724.0,195.1 L 722.6,195.1 L 721.2,195.1 L 719.8,195.1 L 718.4,195.1 L 717.0,195.1 L 715.6,195.1 L 714.2,195.1 L 712.7,195.1 L 711.3,195.1 L 709.9,195.1 L 708.5,195.1 L 707.1,195.1 L 705.7,195.1 L 704.3,195.1 L 702.9,195.1 L 701.5,195.1 L 700.0,195.1 L 698.6,195.1 L 697.2,195.1 L 695.8,195.1 L 694.4,195.1 L 693.0,195.1 L 691.6,195.1 L 690.2,195.1 L 688.8,195.1 L 687.3,195.1 L 685.9,195.1 L 684.5,195.1 L 683.1,195.1 L 681.7,195.1 L 680.3,195.1 L 678.9,195.1 L 677.5,195.1 L 676.1,195.1 L 674.7,195.1 L 673.2,195.1 L 671.8,195.1 L 670.4,195.1 L 669.0,195.1 L 667.6,195.1 L 666.2,195.1 L 664.8,195.1 L 663.4,195.1 L 662.0,195.1 L 660.5,195.1 L 659.1,195.1 L 657.7,195.1 L 656.3,195.1 L 654.9,195.1 L 653.5,195.1 L 652.1,195.1 L 650.7,195.1 L 649.3,195.1 L 647.8,195.1 L 646.4,195.1 L 645.0,195.1 L 643.6,195.1 L 642.2,195.1 L 640.8,195.1 L 639.4,195.1 L 638.0,195.1 L 636.6,195.1 L 635.2,195.1 L 633.7,195.1 L 632.3,195.1 L 630.9,195.1 L 629.5,195.1 L 628.1,195.1 L 626.7,195.1 L 625.3,195.1 L 623.9,195.1 L 622.5,195.1 L 621.0,192.1 L 619.6,195.6 L 618.2,194.7 L 616.8,194.9 L 615.4,195.3 L 614.0,196.6 L 612.6,196.6 L 611.2,332.4 L 609.8,335.1 L 608.3,336.7 L 606.9,337.7 L 605.5,338.6 L 604.1,339.0 L 602.7,339.6 L 601.3,339.8 L 599.9,340.0 L 598.5,340.0 L 597.1,340.0 L 595.7,339.8 L 594.2,339.4 L 592.8,339.0 L 591.4,338.3 L 590.0,337.4 L 588.6,336.3 L 587.2,334.7 L 585.8,330.5 L 584.4,295.9 L 583.0,296.6 L 581.5,297.1 L 580.1,294.5 L 578.7,306.2 L 577.3,306.2 L 575.9,310.3 L 574.5,333.3 L 573.1,335.5 L 571.7,336.7 L 570.3,338.0 L 568.9,338.6 L 567.4,339.2 L 566.0,339.6 L 564.6,339.9 L 563.2,340.0 L 561.8,340.0 L 560.4,339.9 L 559.0,339.7 L 557.6,339.4 L 556.2,338.8 L 554.7,338.0 L 553.3,337.1 L 551.9,335.9 L 550.5,333.8 L 549.1,340.0 L 547.7,340.0 L 546.3,340.0 L 544.9,340.0 L 543.5,339.1 L 542.0,340.0 L 540.6,336.1 L 539.2,337.0 L 537.8,340.0 L 536.4,340.0 L 535.0,338.3 L 533.6,340.0 L 532.2,339.8 L 530.8,336.8 L 529.4,336.5 L 527.9,336.6 L 526.5,337.0 L 525.1,333.2 L 523.7,334.5 L 522.3,334.7 L 520.9,334.7 L 519.5,340.0 L 518.1,340.0 L 516.7,337.0 L 515.2,337.9 L 513.8,336.3 L 512.4,339.8 L 511.0,336.8 L 509.6,340.0 L 508.2,337.0 L 506.8,340.0 L 505.4,337.0 L 504.0,320.8 L 502.5,139.0 L 501.1,140.9 L 499.7,324.3 L 498.3,321.6 L 496.9,325.3 L 495.5,333.4 L 494.1,332.9 L 492.7,335.0 L 491.3,333.3 L 489.9,340.0 L 488.4,331.3 L 487.0,269.2 L 485.6,340.0 L 484.2,340.0 L 482.8,337.0 L 481.4,337.3 L 480.0,338.2 L 478.6,335.2 L 477.2,335.5 L 475.7,337.9 L 474.3,337.0 L 472.9,340.0 L 471.5,334.2 L 470.1,334.7 L 468.7,334.7 L 467.3,340.0 L 465.9,340.0 L 464.5,340.0 L 463.0,340.0 L 461.6,340.0 L 460.2,340.0 L 458.8,340.0 L 457.4,340.0 L 456.0,340.0 L 454.6,340.0 L 453.2,340.0 L 451.8,340.0 L 450.4,340.0 L 448.9,340.0 L 447.5,340.0 L 446.1,339.6 L 444.7,340.0 L 443.3,340.0 L 441.9,340.0 L 440.5,340.0 L 439.1,340.0 L 437.7,340.0 L 436.2,340.0 L 434.8,331.3 L 433.4,340.0 L 432.0,340.0 L 430.6,340.0 L 429.2,340.0 L 427.8,340.0 L 426.4,340.0 L 425.0,340.0 L 423.5,340.0 L 422.1,340.0 L 420.7,340.0 L 419.3,340.0 L 417.9,340.0 L 416.5,340.0 L 415.1,340.0 L 413.7,340.0 L 412.3,340.0 L 410.9,340.0 L 409.4,340.0 L 408.0,340.0 L 406.6,340.0 L 405.2,340.0 L 403.8,340.0 L 402.4,340.0 L 401.0,340.0 L 399.6,338.2 L 398.2,340.0 L 396.7,340.0 L 395.3,340.0 L 393.9,340.0 L 392.5,338.3 L 391.1,340.0 L 389.7,340.0 L 388.3,340.0 L 386.9,340.0 L 385.5,340.0 L 384.0,340.0 L 382.6,340.0 L 381.2,337.0 L 379.8,340.0 L 378.4,340.0 L 377.0,340.0 L 375.6,340.0 L 374.2,337.0 L 372.8,340.0 L 371.4,340.0 L 369.9,332.0 L 368.5,337.0 L 367.1,340.0 L 365.7,337.0 L 364.3,335.2 L 362.9,340.0 L 361.5,340.0 L 360.1,336.2 L 358.7,340.0 L 357.2,337.3 L 355.8,339.8 L 354.4,340.0 L 353.0,340.0 L 351.6,340.0 L 350.2,337.0 L 348.8,340.0 L 347.4,337.0 L 346.0,340.0 L 344.5,340.0 L 343.1,340.0 L 341.7,340.0 L 340.3,340.0 L 338.9,332.3 L 337.5,340.0 L 336.1,340.0 L 334.7,340.0 L 333.3,340.0 L 331.9,324.7 L 330.4,321.9 L 329.0,322.1 L 327.6,322.0 L 326.2,321.0 L 324.8,316.7 L 323.4,340.0 L 322.0,337.0 L 320.6,340.0 L 319.2,340.0 L 317.7,337.0 L 316.3,328.4 L 314.9,334.2 L 313.5,335.5 L 312.1,332.2 L 310.7,340.0 L 309.3,335.8 L 307.9,340.0 L 306.5,333.6 L 305.0,333.0 L 303.6,334.3 L 302.2,340.0 L 300.8,335.9 L 299.4,340.0 L 298.0,326.8 L 296.6,333.7 L 295.2,335.7 L 293.8,327.3 L 292.4,334.9 L 290.9,335.8 L 289.5,340.0 L 288.1,340.0 L 286.7,340.0 L 285.3,339.7 L 283.9,340.0 L 282.5,337.0 L 281.1,340.0 L 279.7,340.0 L 278.2,336.6 L 276.8,334.0 L 275.4,337.0 L 274.0,340.0 L 272.6,337.0 L 271.2,340.0 L 269.8,340.0 L 268.4,337.0 L 267.0,340.0 L 265.5,338.3 L 264.1,340.0 L 262.7,337.0 L 261.3,340.0 L 259.9,340.0 L 258.5,340.0 L 257.1,337.0 L 255.7,340.0 L 254.3,335.9 L 252.9,337.0 L 251.4,340.0 L 250.0,337.0 L 248.6,337.0 L 247.2,340.0 L 245.8,340.0 L 244.4,339.8 L 243.0,340.0 L 241.6,337.0 L 240.2,340.0 L 238.7,340.0 L 237.3,340.0 L 235.9,340.0 L 234.5,340.0 L 233.1,340.0 L 231.7,340.0 L 230.3,338.6 L 228.9,340.0 L 227.5,340.0 L 226.0,340.0 L 224.6,340.0 L 223.2,337.0 L 221.8,340.0 L 220.4,337.0 L 219.0,340.0 L 217.6,340.0 L 216.2,340.0 L 214.8,338.6 L 213.4,340.0 L 211.9,340.0 L 210.5,340.0 L 209.1,340.0 L 207.7,340.0 L 206.3,340.0 L 204.9,340.0 L 203.5,340.0 L 202.1,340.0 L 200.7,340.0 L 199.2,340.0 L 197.8,340.0 L 196.4,340.0 L 195.0,334.3 L 193.6,336.7 L 192.2,331.2 L 190.8,336.6 L 189.4,334.2 L 188.0,331.4 L 186.5,334.0 L 185.1,331.0 L 183.7,330.2 L 182.3,319.2 L 180.9,317.7 L 179.5,338.3 L 178.1,338.3 L 176.7,338.3 L 175.3,338.3 L 173.9,338.3 L 172.4,338.3 L 171.0,338.3 L 169.6,338.3 L 168.2,338.3 L 166.8,338.3 L 165.4,338.3 L 164.0,333.5 L 162.6,335.1 L 161.2,338.3 L 159.7,336.5 L 158.3,334.2 L 156.9,336.8 L 155.5,338.3 L 154.1,336.0 L 152.7,338.7 L 151.3,337.7 L 149.9,336.0 L 148.5,335.8 L 147.0,338.6 L 145.6,334.8 L 144.2,336.6 L 142.8,334.5 L 141.4,335.4 L 140.0,335.5 L 138.6,335.0 L 137.2,337.5 L 135.8,337.0 L 134.4,336.2 L 132.9,333.4 L 131.5,333.4 L 130.1,335.5 L 128.7,334.6 L 127.3,337.0 L 125.9,334.8 L 124.5,336.4 L 123.1,335.9 L 121.7,332.8 L 120.2,335.1 L 118.8,337.6 L 117.4,340.0 L 116.0,332.7 L 114.6,333.7 L 113.2,336.0 L 111.8,338.3 L 110.4,333.4 L 109.0,337.1 L 107.6,336.7 L 106.1,338.7 L 104.7,334.8 L 103.3,334.8 L 101.9,335.4 L 100.5,335.5 L 99.1,336.6 L 97.7,336.2 L 96.3,333.6 L 94.9,334.9 L 93.4,335.8 L 92.0,335.7 L 90.6,335.2 L 89.2,335.5 L 87.8,334.9 L 86.4,335.8 L 85.0,333.6 L 83.6,334.9 L 82.2,335.7 L 80.7,333.2 L 79.3,333.7 L 77.9,320.4 L 76.5,335.9 L 75.1,328.1 L 73.7,334.3 L 72.3,332.9 L 70.9,333.6 L 69.5,334.9 L 68.1,335.0 L 66.6,335.8 L 65.2,334.7 L 63.8,335.5 L 62.4,334.8 Z" fill="#1a6ba0" fill-opacity="0.85" stroke="#0d3d5c" stroke-width="1.5"/>
<path d="M 644.3,191.1 L 644.9,219.0 L 645.6,166.3 L 646.3,194.9 L 647.0,163.2 L 647.7,167.1 L 648.4,192.0 L 649.1,167.9 L 649.8,161.7 L 650.5,163.8 L 651.2,161.2 L 651.9,162.9 L 652.6,163.1 L 653.3,159.3 L 654.0,161.8 L 654.7,157.4 L 655.4,139.1 L 656.1,121.9 L 656.8,122.7 L 657.5,116.9 L 658.2,117.8 L 658.9,116.0 L 659.6,114.8 L 660.3,119.9 L 661.0,115.1 L 661.7,115.1 L 662.4,115.1 L 663.1,117.4 L 663.8,116.0 L 664.5,114.8 L 665.2,114.4 L 665.9,114.8 L 666.5,114.8 L 667.2,116.0 L 667.9,114.8 L 668.6,114.8 L 669.3,115.1 L 670.0,114.4 L 670.7,114.4 L 671.4,116.0 L 672.1,115.1 L 672.8,114.8 L 673.5,116.0 L 674.2,116.0 L 674.9,114.8 L 675.6,114.8 L 676.3,115.1 L 677.0,114.8 L 677.7,114.8 L 678.4,117.7 L 679.1,117.8 L 679.8,117.4 L 680.5,114.4 L 681.2,114.4 L 681.9,116.0 L 682.6,117.4 L 683.3,114.8 L 684.0,114.8 L 684.7,115.1 L 685.4,115.1 L 686.1,116.0 L 686.8,117.4 L 687.5,116.0 L 688.1,116.0 L 688.8,116.0 L 689.5,114.8 L 690.2,114.8 L 690.9,116.0 L 691.6,115.1 L 692.3,114.8 L 693.0,114.4 L 693.7,114.4 L 694.4,114.8 L 695.1,114.8 L 695.8,115.1 L 696.5,115.1 L 697.2,114.8 L 697.9,114.8 L 698.6,116.0 L 699.3,116.0 L 700.0,117.2 L 700.7,117.2 L 701.4,117.6 L 702.1,116.0 L 702.8,116.0 L 703.5,114.8 L 704.2,114.8 L 704.9,115.1 L 705.6,115.1 L 706.3,114.8 L 707.0,114.8 L 707.7,114.4 L 708.4,114.4 L 709.1,114.8 L 709.7,115.1 L 710.4,116.0 L 711.1,114.8 L 711.8,114.8 L 712.5,116.0 L 713.2,116.0 L 713.9,116.0 L 714.6,117.4 L 715.3,116.0 L 716.0,115.1 L 716.7,115.1 L 717.4,114.8 L 718.1,114.8 L 718.8,117.4 L 719.5,116.0 L 720.2,114.4 L 720.9,114.4 L 721.6,117.4 L 722.3,117.8 L 723.0,117.7 L 723.7,114.8 L 724.4,114.8 L 725.1,115.1 L 725.8,114.8 L 726.5,114.8 L 727.2,116.0 L 727.9,116.0 L 728.6,114.8 L 729.3,115.1 L 730.0,116.0 L 730.6,114.4 L 731.3,114.4 L 732.0,115.1 L 732.7,114.8 L 733.4,114.8 L 734.1,116.0 L 734.8,114.8 L 735.5,114.8 L 736.2,114.4 L 736.9,114.8 L 737.6,116.0 L 738.3,117.4 L 739.0,115.1 L 739.7,115.1 L 740.4,115.1 L 741.1,115.1 L 741.8,114.8 L 742.5,116.0 L 743.2,116.0 L 743.9,116.9 L 744.6,126.6 L 745.3,121.9 L 746.0,121.9 L 746.7,138.9 L 747.4,129.9 L 748.1,129.9 L 748.8,129.9 L 749.5,129.9 L 750.2,129.9 L 750.9,129.9 L 751.6,129.9 L 752.2,129.9 L 752.9,129.9 L 753.6,129.9 L 754.3,129.9 L 755.0,129.9 L 755.7,129.9 L 756.4,169.6 L 757.1,129.9 L 757.8,129.9 L 758.5,129.9 L 759.2,129.9 L 759.9,129.9 L 760.6,129.9 L 761.3,129.9 L 762.0,129.9 L 762.7,129.9 L 763.4,129.9 L 764.1,129.9 L 764.8,129.9 L 765.5,129.9 L 766.2,129.9 L 766.9,129.9 L 767.6,129.9 L 768.3,129.9 L 769.0,129.9 L 769.7,129.9 L 770.4,129.9 L 771.1,129.9 L 771.8,129.9 L 772.5,129.9 L 773.2,129.9 L 773.8,129.9 L 774.5,129.9 L 775.2,129.9 L 775.9,129.9 L 776.6,129.9 L 777.3,129.9 L 778.0,129.9 L 778.7,129.9 L 779.4,129.9 L 780.1,129.9 L 780.8,129.9 L 781.5,129.9 L 782.2,129.9 L 782.9,129.9 L 783.6,129.9 L 784.3,129.9 L 785.0,129.9 L 785.7,129.9 L 786.4,129.9 L 787.1,129.9 L 787.8,129.9 L 788.5,129.9 L 789.2,129.9 L 789.9,129.9 L 790.6,129.9 L 791.3,129.9 L 792.0,129.9 L 792.7,129.9 L 793.4,129.9 L 794.1,129.9 L 794.8,129.9 L 795.4,129.9 L 796.1,129.9 L 796.8,129.9 L 797.5,129.9 L 798.2,129.9 L 798.9,129.9 L 799.6,129.9 L 800.3,129.9 L 801.0,129.9 L 801.7,129.9 L 802.4,129.9 L 803.1,129.9 L 803.8,129.9 L 804.5,129.9 L 805.2,129.9 L 805.9,129.9 L 806.6,129.9 L 807.3,129.9 L 808.0,129.9 L 808.7,129.9 L 809.4,169.6 L 810.1,129.9 L 810.8,129.9 L 811.5,129.9 L 812.2,129.9 L 812.9,129.9 L 813.6,129.9 L 814.3,129.9 L 815.0,129.9 L 815.7,129.9 L 816.4,129.9 L 817.0,129.9 L 817.7,129.9 L 818.4,129.9 L 819.1,138.9 L 819.8,121.9 L 820.5,121.9 L 821.2,126.6 L 821.9,116.9 L 822.6,116.0 L 823.3,116.0 L 824.0,114.8 L 824.7,115.1 L 825.4,115.1 L 826.1,115.1 L 826.8,115.1 L 827.5,117.4 L 828.2,116.0 L 828.9,114.8 L 829.6,114.4 L 830.3,114.8 L 831.0,114.8 L 831.7,116.0 L 832.4,114.8 L 833.1,114.8 L 833.8,115.1 L 834.5,114.4 L 835.2,114.4 L 835.9,116.0 L 836.6,115.1 L 837.3,114.8 L 838.0,116.0 L 838.6,116.0 L 839.3,114.8 L 840.0,114.8 L 840.7,115.1 L 841.4,114.8 L 842.1,114.8 L 842.8,117.7 L 843.5,117.8 L 844.2,117.4 L 844.9,114.4 L 845.6,114.4 L 846.3,116.0 L 847.0,117.4 L 847.7,114.8 L 848.4,114.8 L 849.1,115.1 L 849.8,115.1 L 850.5,116.0 L 851.2,117.4 L 851.9,116.0 L 852.6,116.0 L 853.3,116.0 L 854.0,114.8 L 854.7,114.8 L 855.4,116.0 L 856.1,115.1 L 856.8,114.8 L 857.5,114.4 L 858.2,114.4 L 858.9,114.8 L 859.6,114.8 L 860.2,115.1 L 860.9,115.1 L 861.6,114.8 L 862.3,114.8 L 863.0,116.0 L 863.7,116.0 L 864.4,117.6 L 865.1,117.2 L 865.8,117.2 L 866.5,116.0 L 867.2,116.0 L 867.9,114.8 L 868.6,114.8 L 869.3,115.1 L 870.0,115.1 L 870.7,114.8 L 871.4,114.8 L 872.1,114.4 L 872.8,114.4 L 873.5,114.8 L 874.2,115.1 L 874.9,116.0 L 875.6,114.8 L 876.3,114.8 L 877.0,116.0 L 877.7,116.0 L 878.4,116.0 L 879.1,117.4 L 879.8,116.0 L 880.5,115.1 L 881.2,115.1 L 881.8,114.8 L 882.5,114.8 L 883.2,117.4 L 883.9,116.0 L 884.6,114.4 L 885.3,114.4 L 886.0,117.4 L 886.7,117.8 L 887.4,117.7 L 888.1,114.8 L 888.8,114.8 L 889.5,115.1 L 890.2,114.8 L 890.9,114.8 L 891.6,116.0 L 892.3,116.0 L 893.0,114.8 L 893.7,115.1 L 894.4,116.0 L 895.1,114.4 L 895.8,114.4 L 896.5,115.1 L 897.2,114.8 L 897.9,114.8 L 898.6,116.0 L 899.3,114.8 L 900.0,114.8 L 900.7,114.4 L 901.4,114.8 L 902.1,116.0 L 902.8,117.4 L 903.4,115.1 L 904.1,115.1 L 904.8,115.1 L 905.5,119.9 L 906.2,114.8 L 906.9,116.0 L 907.6,117.8 L 908.3,116.9 L 909.0,122.7 L 909.7,121.9 L 910.4,139.1 L 911.1,157.4 L 911.8,161.8 L 912.5,159.3 L 913.2,163.1 L 913.9,162.9 L 914.6,161.2 L 915.3,163.8 L 916.0,161.7 L 916.7,167.9 L 917.4,192.0 L 918.1,167.1 L 918.8,163.2 L 919.5,194.9 L 920.2,166.3 L 920.9,219.0 L 921.6,191.1 L 922.3,203.0 L 922.3,203.0 L 921.6,250.7 L 920.9,219.0 L 920.2,250.7 L 919.5,285.7 L 918.8,285.9 L 918.1,297.6 L 917.4,285.9 L 916.7,304.0 L 916.0,303.9 L 915.3,309.5 L 914.6,309.7 L 913.9,315.3 L 913.2,315.7 L 912.5,315.5 L 911.8,309.8 L 911.1,315.3 L 910.4,321.7 L 909.7,321.7 L 909.0,321.3 L 908.3,307.5 L 907.6,321.7 L 906.9,321.7 L 906.2,319.0 L 905.5,328.5 L 904.8,328.5 L 904.1,319.0 L 903.4,315.3 L 902.8,328.5 L 902.1,328.3 L 901.4,280.9 L 900.7,328.2 L 900.0,334.1 L 899.3,333.7 L 898.6,318.8 L 897.9,335.7 L 897.2,335.7 L 896.5,337.5 L 895.8,336.0 L 895.1,340.0 L 894.4,340.0 L 893.7,340.0 L 893.0,337.3 L 892.3,340.0 L 891.6,337.0 L 890.9,340.0 L 890.2,337.0 L 889.5,337.0 L 888.8,340.0 L 888.1,340.0 L 887.4,337.0 L 886.7,340.0 L 886.0,340.0 L 885.3,337.0 L 884.6,340.0 L 883.9,340.0 L 883.2,340.0 L 882.5,337.0 L 881.8,337.0 L 881.2,340.0 L 880.5,340.0 L 879.8,340.0 L 879.1,340.0 L 878.4,340.0 L 877.7,340.0 L 877.0,340.0 L 876.3,340.0 L 875.6,340.0 L 874.9,340.0 L 874.2,340.0 L 873.5,340.0 L 872.8,340.0 L 872.1,337.0 L 871.4,340.0 L 870.7,340.0 L 870.0,337.3 L 869.3,326.6 L 868.6,340.0 L 867.9,340.0 L 867.2,340.0 L 866.5,340.0 L 865.8,319.9 L 865.1,340.0 L 864.4,337.8 L 863.7,340.0 L 863.0,340.0 L 862.3,340.0 L 861.6,340.0 L 860.9,340.0 L 860.2,337.3 L 859.6,337.0 L 858.9,340.0 L 858.2,337.0 L 857.5,340.0 L 856.8,336.0 L 856.1,337.3 L 855.4,340.0 L 854.7,340.0 L 854.0,337.0 L 853.3,340.0 L 852.6,337.0 L 851.9,340.0 L 851.2,337.6 L 850.5,340.0 L 849.8,340.0 L 849.1,340.0 L 848.4,340.0 L 847.7,337.0 L 847.0,340.0 L 846.3,340.0 L 845.6,340.0 L 844.9,340.0 L 844.2,340.0 L 843.5,340.0 L 842.8,340.0 L 842.1,340.0 L 841.4,340.0 L 840.7,340.0 L 840.0,340.0 L 839.3,340.0 L 838.6,340.0 L 838.0,337.6 L 837.3,337.3 L 836.6,340.0 L 835.9,340.0 L 835.2,340.0 L 834.5,337.3 L 833.8,337.5 L 833.1,335.7 L 832.4,340.0 L 831.7,340.0 L 831.0,334.1 L 830.3,325.8 L 829.6,321.3 L 828.9,325.7 L 828.2,340.0 L 827.5,340.0 L 826.8,307.3 L 826.1,328.5 L 825.4,328.5 L 824.7,328.8 L 824.0,340.0 L 823.3,340.0 L 822.6,321.7 L 821.9,317.7 L 821.2,326.6 L 820.5,340.0 L 819.8,324.4 L 819.1,340.0 L 818.4,317.7 L 817.7,324.4 L 817.0,335.5 L 816.4,340.0 L 815.7,328.8 L 815.0,340.0 L 814.3,326.6 L 813.6,335.5 L 812.9,340.0 L 812.2,326.6 L 811.5,335.5 L 810.8,340.0 L 810.1,340.0 L 809.4,322.1 L 808.7,326.6 L 808.0,335.5 L 807.3,340.0 L 806.6,340.0 L 805.9,324.4 L 805.2,328.8 L 804.5,340.0 L 803.8,340.0 L 803.1,326.6 L 802.4,333.3 L 801.7,340.0 L 801.0,340.0 L 800.3,333.3 L 799.6,340.0 L 798.9,340.0 L 798.2,340.0 L 797.5,331.1 L 796.8,340.0 L 796.1,340.0 L 795.4,340.0 L 794.8,340.0 L 794.1,328.8 L 793.4,337.8 L 792.7,340.0 L 792.0,340.0 L 791.3,340.0 L 790.6,137.2 L 789.9,137.2 L 789.2,137.2 L 788.5,137.2 L 787.8,137.2 L 787.1,137.2 L 786.4,137.2 L 785.7,137.2 L 785.0,137.2 L 784.3,137.2 L 783.6,137.2 L 782.9,137.2 L 782.2,137.2 L 781.5,137.2 L 780.8,137.2 L 780.1,137.2 L 779.4,137.2 L 778.7,137.2 L 778.0,137.2 L 777.3,137.2 L 776.6,137.2 L 775.9,137.2 L 775.2,137.2 L 774.5,340.0 L 773.8,340.0 L 773.2,340.0 L 772.5,337.8 L 771.8,328.8 L 771.1,340.0 L 770.4,340.0 L 769.7,340.0 L 769.0,340.0 L 768.3,331.1 L 767.6,340.0 L 766.9,340.0 L 766.2,340.0 L 765.5,333.3 L 764.8,340.0 L 764.1,340.0 L 763.4,333.3 L 762.7,326.6 L 762.0,340.0 L 761.3,340.0 L 760.6,328.8 L 759.9,324.4 L 759.2,340.0 L 758.5,340.0 L 757.8,335.5 L 757.1,326.6 L 756.4,322.1 L 755.7,340.0 L 755.0,340.0 L 754.3,335.5 L 753.6,326.6 L 752.9,340.0 L 752.2,335.5 L 751.6,326.6 L 750.9,340.0 L 750.2,328.8 L 749.5,340.0 L 748.8,335.5 L 748.1,324.4 L 747.4,317.7 L 746.7,340.0 L 746.0,324.4 L 745.3,340.0 L 744.6,326.6 L 743.9,317.7 L 743.2,321.7 L 742.5,340.0 L 741.8,340.0 L 741.1,328.8 L 740.4,328.5 L 739.7,328.5 L 739.0,307.3 L 738.3,340.0 L 737.6,340.0 L 736.9,325.7 L 736.2,321.3 L 735.5,325.8 L 734.8,334.1 L 734.1,340.0 L 733.4,340.0 L 732.7,335.7 L 732.0,337.5 L 731.3,337.3 L 730.6,340.0 L 730.0,340.0 L 729.3,340.0 L 728.6,337.3 L 727.9,337.6 L 727.2,340.0 L 726.5,340.0 L 725.8,340.0 L 725.1,340.0 L 724.4,340.0 L 723.7,340.0 L 723.0,340.0 L 722.3,340.0 L 721.6,340.0 L 720.9,340.0 L 720.2,340.0 L 719.5,340.0 L 718.8,340.0 L 718.1,337.0 L 717.4,340.0 L 716.7,340.0 L 716.0,340.0 L 715.3,340.0 L 714.6,337.6 L 713.9,340.0 L 713.2,337.0 L 712.5,340.0 L 711.8,337.0 L 711.1,340.0 L 710.4,340.0 L 709.7,337.3 L 709.1,336.0 L 708.4,340.0 L 707.7,337.0 L 707.0,340.0 L 706.3,337.0 L 705.6,337.3 L 704.9,340.0 L 704.2,340.0 L 703.5,340.0 L 702.8,340.0 L 702.1,340.0 L 701.4,337.8 L 700.7,340.0 L 700.0,319.9 L 699.3,340.0 L 698.6,340.0 L 697.9,340.0 L 697.2,340.0 L 696.5,326.6 L 695.8,337.3 L 695.1,340.0 L 694.4,340.0 L 693.7,337.0 L 693.0,340.0 L 692.3,340.0 L 691.6,340.0 L 690.9,340.0 L 690.2,340.0 L 689.5,340.0 L 688.8,340.0 L 688.1,340.0 L 687.5,340.0 L 686.8,340.0 L 686.1,340.0 L 685.4,340.0 L 684.7,340.0 L 684.0,337.0 L 683.3,337.0 L 682.6,340.0 L 681.9,340.0 L 681.2,340.0 L 680.5,337.0 L 679.8,340.0 L 679.1,340.0 L 678.4,337.0 L 677.7,340.0 L 677.0,340.0 L 676.3,337.0 L 675.6,337.0 L 674.9,340.0 L 674.2,337.0 L 673.5,340.0 L 672.8,337.3 L 672.1,340.0 L 671.4,340.0 L 670.7,340.0 L 670.0,336.0 L 669.3,337.5 L 668.6,335.7 L 667.9,335.7 L 667.2,318.8 L 666.5,333.7 L 665.9,334.1 L 665.2,328.2 L 664.5,280.9 L 663.8,328.3 L 663.1,328.5 L 662.4,315.3 L 661.7,319.0 L 661.0,328.5 L 660.3,328.5 L 659.6,319.0 L 658.9,321.7 L 658.2,321.7 L 657.5,307.5 L 656.8,321.3 L 656.1,321.7 L 655.4,321.7 L 654.7,315.3 L 654.0,309.8 L 653.3,315.5 L 652.6,315.7 L 651.9,315.3 L 651.2,309.7 L 650.5,309.5 L 649.8,303.9 L 649.1,304.0 L 648.4,285.9 L 647.7,297.6 L 647.0,285.9 L 646.3,285.7 L 645.6,250.7 L 644.9,219.0 L 644.3,250.7 Z" fill="#c06010" fill-opacity="0.70" stroke="#c06010" stroke-width="1.2"/>
<line x1="60.0" y1="354.6" x2="1140.0" y2="354.6" stroke="#333333" stroke-width="1.5"/>
<line x1="60.0" y1="348.6" x2="60.0" y2="360.6" stroke="#333333" stroke-width="1.5"/>
<line x1="1140.0" y1="348.6" x2="1140.0" y2="360.6" stroke="#333333" stroke-width="1.5"/>
<text x="600.0" y="372.6" text-anchor="middle" font-family="'OpenDyslexic', 'OpenDyslexicMono', sans-serif" font-size="11" fill="#333333">609.6 mm (24.00 in)</text>
<line x1="45.2" y1="60.0" x2="45.2" y2="340.0" stroke="#333333" stroke-width="1.5"/>
<text x="41.2" y="200.0" text-anchor="middle" dominant-baseline="middle" font-family="'OpenDyslexic', 'OpenDyslexicMono', sans-serif" font-size="10" fill="#333333" transform="rotate(-90,41.2,200.0)">227 mm (8.94 in)</text>
<line x1="181.3" y1="340.0" x2="181.3" y2="312.0" stroke="#cccccc" stroke-width="0.8" stroke-dasharray="3,3"/>
<line x1="315.9" y1="340.0" x2="315.9" y2="312.0" stroke="#cccccc" stroke-width="0.8" stroke-dasharray="3,3"/>
<line x1="425.4" y1="340.0" x2="425.4" y2="312.0" stroke="#cccccc" stroke-width="0.8" stroke-dasharray="3,3"/>
<line x1="552.7" y1="340.0" x2="552.7" y2="312.0" stroke="#cccccc" stroke-width="0.8" stroke-dasharray="3,3"/>
<line x1="654.7" y1="340.0" x2="654.7" y2="312.0" stroke="#cccccc" stroke-width="0.8" stroke-dasharray="3,3"/>
<line x1="755.3" y1="340.0" x2="755.3" y2="312.0" stroke="#cccccc" stroke-width="0.8" stroke-dasharray="3,3"/>
<line x1="835.2" y1="301.7" x2="835.2" y2="341.7" stroke="#e00000" stroke-width="1.5"/>
<text x="835.2" y="355.7" text-anchor="middle" font-family="'OpenDyslexic', 'OpenDyslexicMono', sans-serif" font-size="9" fill="#e00000">CG 203 mm</text>
<text x="928.4" y="102.0" text-anchor="middle" font-family="'OpenDyslexic', 'OpenDyslexicMono', sans-serif" font-size="9" fill="#333333">GPS sta 140</text>
<text x="148.8" y="200.0" text-anchor="middle" font-family="'OpenDyslexic', 'OpenDyslexicMono', sans-serif" font-size="9" fill="#ffffff">120 mm EDF</text>
<text x="799.7" y="172.0" text-anchor="middle" font-family="'OpenDyslexic', 'OpenDyslexicMono', sans-serif" font-size="9" fill="#c06010">50 mm×2 EDF</text>
<rect x="960" y="70" width="12" height="10" fill="#1a6ba0" fill-opacity="0.8" stroke="#1a6ba0" stroke-width="1"/>
<text x="976" y="79" font-family="'OpenDyslexic', 'OpenDyslexicMono', sans-serif" font-size="9" fill="#333333">Fuselage hull (CF-PETG)</text>
<rect x="960" y="88" width="12" height="10" fill="#c06010" fill-opacity="0.8" stroke="#c06010" stroke-width="1"/>
<text x="976" y="97" font-family="'OpenDyslexic', 'OpenDyslexicMono', sans-serif" font-size="9" fill="#333333">Nacelles (50 mm×2 tandem EDF)</text>
</svg>
