<?xml version="1.0" encoding="UTF-8"?>
<svg xmlns="http://www.w3.org/2000/svg" viewBox="0 0 1200 400" width="1200" height="400">
<defs>
  <style>
    @import url('https://fonts.cdnfonts.com/css/opendyslexic');
    text, tspan { font-family: 'OpenDyslexic', 'OpenDyslexicMono', sans-serif; }
  </style>
</defs>
<rect width="1200" height="400" fill="#f8f8f8"/>
<rect x="0" y="0" width="1200" height="36" fill="#0d3d5c"/>
<text x="600" y="24" text-anchor="middle" font-family="'OpenDyslexic', 'OpenDyslexicMono', sans-serif" font-size="14" font-weight="bold" fill="#ffffff">SERENITY-CLASS TILTROTOR UAV — SIDE VIEW (STARBOARD)  |  24.00" (609.6 mm)  Rev O</text>
<line x1="60" y1="340.0" x2="1140" y2="340.0" stroke="#cccccc" stroke-width="1" stroke-dasharray="6,4"/>
<path d="M 60.5,315.5 L 62.1,314.8 L 63.6,314.3 L 65.1,315.8 L 66.6,317.5 L 68.1,317.1 L 69.6,315.7 L 71.1,315.6 L 72.7,315.6 L 74.2,314.1 L 75.7,315.1 L 77.2,317.0 L 78.7,317.5 L 80.2,319.7 L 81.8,318.9 L 83.3,318.7 L 84.8,314.3 L 86.3,314.8 L 87.8,315.0 L 89.3,310.2 L 90.9,315.6 L 92.4,314.0 L 93.9,313.8 L 95.4,313.9 L 96.9,313.8 L 98.4,314.3 L 100.0,313.8 L 101.5,313.8 L 103.0,314.3 L 104.5,313.8 L 106.0,312.6 L 107.5,314.8 L 109.0,313.8 L 110.6,313.8 L 112.1,316.6 L 113.6,314.2 L 115.1,314.7 L 116.6,316.1 L 118.1,315.3 L 119.7,313.8 L 121.2,314.7 L 122.7,313.8 L 124.2,316.7 L 125.7,316.7 L 127.2,329.5 L 128.8,313.8 L 130.3,313.8 L 131.8,316.7 L 133.3,320.1 L 134.8,331.2 L 136.3,313.8 L 137.9,314.2 L 139.4,313.8 L 140.9,314.6 L 142.4,314.2 L 143.9,313.8 L 145.4,314.7 L 147.0,314.0 L 148.5,316.8 L 150.0,320.9 L 151.5,314.2 L 153.0,314.5 L 154.5,314.0 L 156.0,313.8 L 157.6,313.8 L 159.1,313.8 L 160.6,313.8 L 162.1,313.8 L 163.6,313.8 L 165.1,313.8 L 166.7,313.8 L 168.2,313.8 L 169.7,313.8 L 171.2,313.8 L 172.7,313.8 L 174.2,251.9 L 175.8,250.2 L 177.3,249.6 L 178.8,249.0 L 180.3,248.8 L 181.8,248.2 L 183.3,233.6 L 184.9,234.3 L 186.4,219.1 L 187.9,217.1 L 189.4,217.1 L 190.9,216.6 L 192.4,211.0 L 194.0,204.2 L 195.5,200.3 L 197.0,200.3 L 198.5,200.3 L 200.0,190.2 L 201.5,177.6 L 203.0,185.4 L 204.6,177.6 L 206.1,157.2 L 207.6,157.2 L 209.1,157.2 L 210.6,158.3 L 212.1,158.3 L 213.7,120.2 L 215.2,120.2 L 216.7,120.6 L 218.2,120.6 L 219.7,120.2 L 221.2,120.6 L 222.8,94.9 L 224.3,95.2 L 225.8,94.9 L 227.3,97.8 L 228.8,95.2 L 230.3,98.1 L 231.9,95.2 L 233.4,60.5 L 234.9,62.9 L 236.4,64.0 L 237.9,65.4 L 239.4,67.8 L 241.0,95.2 L 242.5,95.2 L 244.0,98.1 L 245.5,121.8 L 247.0,95.2 L 248.5,95.2 L 250.0,95.2 L 251.6,98.1 L 253.1,115.2 L 254.6,115.9 L 256.1,70.9 L 257.6,69.0 L 259.1,72.6 L 260.7,97.4 L 262.2,107.8 L 263.7,94.3 L 265.2,97.2 L 266.7,95.5 L 268.2,91.1 L 269.8,91.1 L 271.3,84.3 L 272.8,81.6 L 274.3,78.8 L 275.8,76.7 L 277.3,80.1 L 278.9,77.4 L 280.4,80.0 L 281.9,79.5 L 283.4,77.5 L 284.9,83.2 L 286.4,86.4 L 287.9,78.0 L 289.5,86.7 L 291.0,77.9 L 292.5,81.5 L 294.0,86.7 L 295.5,77.3 L 297.0,86.7 L 298.6,75.8 L 300.1,86.7 L 301.6,77.3 L 303.1,89.8 L 304.6,81.5 L 306.1,81.2 L 307.7,77.9 L 309.2,78.0 L 310.7,86.7 L 312.2,83.2 L 313.7,77.5 L 315.2,79.5 L 316.8,80.0 L 318.3,77.4 L 319.8,80.1 L 321.3,76.7 L 322.8,78.8 L 324.3,81.6 L 325.9,84.3 L 327.4,91.1 L 328.9,91.1 L 330.4,95.5 L 331.9,97.2 L 333.4,94.3 L 334.9,107.8 L 336.5,97.4 L 338.0,94.5 L 339.5,72.6 L 341.0,69.0 L 342.5,111.5 L 344.0,107.2 L 345.6,98.1 L 347.1,95.2 L 348.6,95.2 L 350.1,95.2 L 351.6,101.5 L 353.1,98.1 L 354.7,95.2 L 356.2,95.2 L 357.7,67.8 L 359.2,66.7 L 360.7,64.0 L 362.2,62.9 L 363.8,60.5 L 365.3,95.2 L 366.8,98.1 L 368.3,92.3 L 369.8,94.1 L 371.3,94.9 L 372.9,95.2 L 374.4,94.9 L 375.9,93.1 L 377.4,96.8 L 378.9,102.0 L 380.4,99.7 L 381.9,99.0 L 383.5,90.2 L 385.0,95.8 L 386.5,93.8 L 388.0,103.2 L 389.5,96.3 L 391.0,93.3 L 392.6,97.0 L 394.1,97.5 L 395.6,97.7 L 397.1,89.3 L 398.6,94.8 L 400.1,105.3 L 401.7,92.2 L 403.2,93.3 L 404.7,104.8 L 406.2,89.0 L 407.7,89.4 L 409.2,89.4 L 410.8,99.5 L 412.3,90.7 L 413.8,89.0 L 415.3,98.5 L 416.8,122.4 L 418.3,89.3 L 419.9,89.5 L 421.4,90.4 L 422.9,88.9 L 424.4,91.5 L 425.9,88.9 L 427.4,95.5 L 428.9,88.9 L 430.5,89.9 L 432.0,92.3 L 433.5,90.6 L 435.0,89.3 L 436.5,102.2 L 438.0,93.2 L 439.6,89.4 L 441.1,89.0 L 442.6,108.3 L 444.1,89.3 L 445.6,92.6 L 447.1,106.8 L 448.7,89.8 L 450.2,104.6 L 451.7,97.7 L 453.2,91.7 L 454.7,91.4 L 456.2,93.3 L 457.8,103.2 L 459.3,90.5 L 460.8,91.8 L 462.3,103.5 L 463.8,94.0 L 465.3,90.2 L 466.8,94.4 L 468.4,96.0 L 469.9,92.6 L 471.4,94.9 L 472.9,91.1 L 474.4,99.8 L 475.9,96.1 L 477.5,95.3 L 479.0,96.1 L 480.5,92.3 L 482.0,97.7 L 483.5,97.7 L 485.0,94.0 L 486.6,97.7 L 488.1,100.6 L 489.6,96.1 L 491.1,99.4 L 492.6,99.3 L 494.1,101.6 L 495.7,101.5 L 497.2,102.6 L 498.7,105.0 L 500.2,104.5 L 501.7,110.7 L 503.2,109.2 L 504.8,107.2 L 506.3,114.7 L 507.8,109.6 L 509.3,111.5 L 510.8,109.9 L 512.3,113.8 L 513.8,113.3 L 515.4,112.9 L 516.9,112.5 L 518.4,112.4 L 519.9,115.1 L 521.4,117.8 L 522.9,123.1 L 524.5,126.4 L 526.0,126.3 L 527.5,127.3 L 529.0,128.4 L 530.5,131.7 L 532.0,132.8 L 533.6,139.6 L 535.1,138.7 L 536.6,145.3 L 538.1,145.5 L 539.6,151.1 L 541.1,150.8 L 542.7,150.6 L 544.2,154.4 L 545.7,154.1 L 547.2,154.0 L 548.7,153.3 L 550.2,152.4 L 551.8,152.1 L 553.3,151.3 L 554.8,150.3 L 556.3,151.0 L 557.8,148.3 L 559.3,150.1 L 560.8,149.0 L 562.4,150.9 L 563.9,148.3 L 565.4,151.1 L 566.9,151.7 L 568.4,151.7 L 569.9,153.4 L 571.5,152.8 L 573.0,153.5 L 574.5,154.0 L 576.0,154.5 L 577.5,155.2 L 579.0,155.6 L 580.6,155.0 L 582.1,157.2 L 583.6,157.2 L 585.1,164.5 L 586.6,166.3 L 588.1,166.7 L 589.7,167.5 L 591.2,169.5 L 592.7,171.6 L 594.2,173.3 L 595.7,176.3 L 597.2,187.7 L 598.8,187.7 L 600.3,187.7 L 601.8,187.7 L 603.3,187.7 L 604.8,187.7 L 606.3,187.7 L 607.8,187.7 L 609.4,187.7 L 610.9,187.7 L 612.4,187.7 L 613.9,187.7 L 615.4,187.7 L 616.9,187.7 L 618.5,187.7 L 620.0,187.7 L 621.5,187.7 L 623.0,187.7 L 624.5,187.7 L 626.0,187.7 L 627.6,187.7 L 629.1,187.7 L 630.6,187.7 L 632.1,187.7 L 633.6,187.7 L 635.1,187.7 L 636.7,187.7 L 638.2,187.7 L 639.7,187.7 L 641.2,187.7 L 642.7,187.7 L 644.2,187.7 L 645.7,187.7 L 647.3,187.7 L 648.8,187.7 L 650.3,187.7 L 651.8,187.7 L 653.3,187.7 L 654.8,187.7 L 656.4,187.7 L 657.9,187.7 L 659.4,187.7 L 660.9,187.7 L 662.4,187.7 L 663.9,187.7 L 665.5,187.7 L 667.0,187.7 L 668.5,187.7 L 670.0,187.7 L 671.5,187.7 L 673.0,187.7 L 674.6,187.7 L 676.1,187.7 L 677.6,187.7 L 679.1,187.7 L 680.6,187.7 L 682.1,187.7 L 683.7,187.7 L 685.2,187.7 L 686.7,187.7 L 688.2,187.7 L 689.7,187.7 L 691.2,187.7 L 692.7,187.7 L 694.3,187.7 L 695.8,187.7 L 697.3,187.7 L 698.8,187.7 L 700.3,187.7 L 701.8,187.7 L 703.4,187.7 L 704.9,187.7 L 706.4,187.7 L 707.9,187.7 L 709.4,187.7 L 710.9,187.7 L 712.5,187.7 L 714.0,187.7 L 715.5,187.7 L 717.0,187.7 L 718.5,187.7 L 720.0,187.7 L 721.6,187.7 L 723.1,187.7 L 724.6,187.7 L 726.1,187.7 L 727.6,187.7 L 729.1,187.7 L 730.7,187.7 L 732.2,187.7 L 733.7,187.7 L 735.2,187.7 L 736.7,187.7 L 738.2,187.7 L 739.7,187.7 L 741.3,187.7 L 742.8,187.7 L 744.3,187.7 L 745.8,187.7 L 747.3,187.7 L 748.8,187.7 L 750.4,187.7 L 751.9,187.7 L 753.4,187.7 L 754.9,187.7 L 756.4,187.7 L 757.9,187.7 L 759.5,187.7 L 761.0,187.7 L 762.5,187.7 L 764.0,187.7 L 765.5,187.7 L 767.0,187.7 L 768.6,187.7 L 770.1,187.7 L 771.6,187.7 L 773.1,266.5 L 774.6,262.9 L 776.1,258.9 L 777.7,257.7 L 779.2,258.9 L 780.7,257.7 L 782.2,259.5 L 783.7,253.8 L 785.2,235.2 L 786.7,253.8 L 788.3,255.8 L 789.8,199.9 L 791.3,200.9 L 792.8,200.9 L 794.3,202.0 L 795.8,188.5 L 797.4,191.1 L 798.9,191.1 L 800.4,188.0 L 801.9,179.7 L 803.4,162.9 L 804.9,180.2 L 806.5,165.3 L 808.0,168.2 L 809.5,168.7 L 811.0,165.0 L 812.5,183.5 L 814.0,167.4 L 815.6,184.6 L 817.1,185.2 L 818.6,186.0 L 820.1,162.3 L 821.6,165.8 L 823.1,164.8 L 824.6,168.2 L 826.2,170.9 L 827.7,171.4 L 829.2,164.4 L 830.7,164.2 L 832.2,160.5 L 833.7,159.1 L 835.3,158.6 L 836.8,158.8 L 838.3,159.7 L 839.8,159.9 L 841.3,157.6 L 842.8,160.2 L 844.4,152.3 L 845.9,147.8 L 847.4,146.0 L 848.9,145.6 L 850.4,145.3 L 851.9,146.0 L 853.5,146.0 L 855.0,144.8 L 856.5,150.2 L 858.0,145.5 L 859.5,148.6 L 861.0,138.6 L 862.6,135.8 L 864.1,134.8 L 865.6,134.2 L 867.1,134.5 L 868.6,135.1 L 870.1,136.4 L 871.6,140.3 L 873.2,135.1 L 874.7,138.6 L 876.2,138.6 L 877.7,141.9 L 879.2,132.8 L 880.7,136.2 L 882.3,138.1 L 883.8,136.8 L 885.3,130.5 L 886.8,126.7 L 888.3,124.5 L 889.8,123.9 L 891.4,123.6 L 892.9,123.9 L 894.4,124.5 L 895.9,125.2 L 897.4,128.4 L 898.9,126.8 L 900.5,126.6 L 902.0,127.0 L 903.5,126.8 L 905.0,124.4 L 906.5,123.9 L 908.0,123.6 L 909.6,123.9 L 911.1,124.4 L 912.6,126.1 L 914.1,130.5 L 915.6,136.8 L 917.1,138.1 L 918.6,136.2 L 920.2,132.8 L 921.7,142.0 L 923.2,138.6 L 924.7,141.1 L 926.2,135.1 L 927.7,140.4 L 929.3,136.9 L 930.8,135.6 L 932.3,134.5 L 933.8,134.2 L 935.3,134.5 L 936.8,135.7 L 938.4,137.0 L 939.9,142.0 L 941.4,145.5 L 942.9,147.9 L 944.4,144.8 L 945.9,146.0 L 947.5,145.8 L 949.0,145.4 L 950.5,145.3 L 952.0,145.6 L 953.5,147.3 L 955.0,149.3 L 956.6,160.2 L 958.1,157.6 L 959.6,160.3 L 961.1,159.5 L 962.6,158.8 L 964.1,158.6 L 965.6,159.0 L 967.2,160.5 L 968.7,163.0 L 970.2,170.0 L 971.7,172.3 L 973.2,171.2 L 974.7,170.7 L 976.3,170.6 L 977.8,171.1 L 979.3,172.9 L 980.8,184.4 L 982.3,184.6 L 983.8,183.0 L 985.4,182.8 L 986.9,183.1 L 988.4,183.7 L 989.9,187.1 L 991.4,211.5 L 992.9,210.9 L 994.5,214.5 L 996.0,219.2 L 997.5,220.0 L 999.0,213.8 L 1000.5,219.6 L 1002.0,221.9 L 1003.5,220.7 L 1005.1,221.6 L 1006.6,221.5 L 1008.1,229.5 L 1009.6,227.4 L 1011.1,227.4 L 1012.6,227.4 L 1014.2,227.4 L 1015.7,227.4 L 1017.2,227.4 L 1018.7,227.4 L 1020.2,227.4 L 1021.7,227.4 L 1023.3,227.4 L 1024.8,227.4 L 1026.3,227.4 L 1027.8,227.4 L 1029.3,227.4 L 1030.8,227.4 L 1032.4,227.4 L 1033.9,227.4 L 1035.4,227.4 L 1036.9,227.4 L 1038.4,227.4 L 1039.9,227.4 L 1041.5,246.3 L 1043.0,248.8 L 1044.5,251.7 L 1046.0,259.8 L 1047.5,246.3 L 1049.0,253.4 L 1050.5,255.8 L 1052.1,251.1 L 1053.6,253.8 L 1055.1,253.8 L 1056.6,255.8 L 1058.1,261.0 L 1059.6,251.6 L 1061.2,253.8 L 1062.7,253.8 L 1064.2,255.8 L 1065.7,251.6 L 1067.2,251.6 L 1068.7,253.8 L 1070.3,255.8 L 1071.8,255.8 L 1073.3,259.3 L 1074.8,253.8 L 1076.3,253.8 L 1077.8,259.5 L 1079.4,257.7 L 1080.9,258.9 L 1082.4,257.7 L 1083.9,258.9 L 1085.4,262.9 L 1086.9,266.5 L 1088.5,266.5 L 1090.0,266.5 L 1091.5,266.5 L 1093.0,266.5 L 1094.5,266.5 L 1096.0,266.5 L 1097.5,266.5 L 1099.1,266.5 L 1100.6,266.5 L 1102.1,266.5 L 1103.6,266.5 L 1105.1,266.5 L 1106.6,266.5 L 1108.2,266.5 L 1109.7,266.5 L 1111.2,266.5 L 1112.7,266.5 L 1114.2,266.5 L 1115.7,266.5 L 1117.3,266.5 L 1118.8,266.5 L 1120.3,266.5 L 1121.8,266.5 L 1123.3,266.5 L 1124.8,266.5 L 1126.4,266.5 L 1127.9,266.5 L 1129.4,266.5 L 1130.9,266.5 L 1132.4,266.5 L 1133.9,266.5 L 1135.4,266.5 L 1137.0,266.5 L 1138.5,266.5 L 1140.0,266.5 L 1141.5,266.5 L 1143.0,266.5 L 1144.5,266.5 L 1146.1,266.5 L 1147.6,266.5 L 1149.1,266.5 L 1150.6,266.5 L 1152.1,266.5 L 1153.6,266.5 L 1155.2,266.5 L 1156.7,266.5 L 1158.2,266.5 L 1159.7,266.5 L 1161.2,266.5 L 1162.7,266.5 L 1164.3,266.5 L 1165.8,266.5 L 1167.3,266.5 L 1168.8,266.5 L 1170.3,266.5 L 1171.8,320.5 L 1173.4,320.5 L 1174.9,320.5 L 1176.4,320.5 L 1177.9,336.0 L 1179.4,336.8 L 1180.9,336.8 L 1182.4,336.8 L 1184.0,340.0 L 1185.5,329.1 L 1187.0,327.9 L 1188.5,327.7 L 1190.0,327.7 L 1191.5,328.2 L 1193.1,328.2 L 1194.6,328.2 L 1196.1,328.2 L 1197.6,328.2 L 1199.1,312.5 L 1200.6,323.5 L 1202.2,323.4 L 1203.7,323.3 L 1205.2,323.3 L 1206.7,323.3 L 1208.2,323.3 L 1209.7,323.3 L 1211.3,323.3 L 1212.8,323.3 L 1214.3,323.3 L 1215.8,323.3 L 1217.3,323.3 L 1218.8,323.3 L 1220.4,323.3 L 1221.9,323.3 L 1223.4,323.3 L 1224.9,323.3 L 1226.4,323.3 L 1227.9,323.3 L 1229.4,323.3 L 1231.0,323.3 L 1232.5,323.3 L 1234.0,323.3 L 1235.5,323.3 L 1237.0,323.3 L 1238.5,323.3 L 1240.1,323.3 L 1241.6,323.3 L 1243.1,323.3 L 1244.6,323.3 L 1246.1,323.3 L 1247.6,323.3 L 1249.2,323.3 L 1250.7,323.3 L 1252.2,323.3 L 1253.7,323.3 L 1255.2,323.3 L 1256.7,323.3 L 1258.3,323.3 L 1259.8,323.3 L 1261.3,323.3 L 1262.8,323.3 L 1264.3,323.4 L 1265.8,323.5 L 1267.4,323.6 L 1268.9,323.8 L 1270.4,324.3 L 1271.9,325.1 L 1271.9,335.6 L 1270.4,336.4 L 1268.9,336.9 L 1267.4,337.1 L 1265.8,337.2 L 1264.3,337.3 L 1262.8,337.4 L 1261.3,337.4 L 1259.8,337.4 L 1258.3,337.4 L 1256.7,337.4 L 1255.2,337.4 L 1253.7,337.4 L 1252.2,337.4 L 1250.7,337.4 L 1249.2,337.4 L 1247.6,337.4 L 1246.1,337.4 L 1244.6,337.4 L 1243.1,337.4 L 1241.6,337.4 L 1240.1,337.4 L 1238.5,337.4 L 1237.0,337.4 L 1235.5,337.4 L 1234.0,337.4 L 1232.5,337.4 L 1231.0,337.4 L 1229.4,337.4 L 1227.9,337.4 L 1226.4,337.4 L 1224.9,337.4 L 1223.4,337.4 L 1221.9,337.4 L 1220.4,337.4 L 1218.8,337.4 L 1217.3,337.4 L 1215.8,337.4 L 1214.3,337.4 L 1212.8,337.4 L 1211.3,337.4 L 1209.7,337.4 L 1208.2,337.4 L 1206.7,337.4 L 1205.2,337.4 L 1203.7,337.4 L 1202.2,337.3 L 1200.6,337.2 L 1199.1,340.0 L 1197.6,332.9 L 1196.1,332.9 L 1194.6,332.9 L 1193.1,332.9 L 1191.5,332.9 L 1190.0,333.3 L 1188.5,333.3 L 1187.0,333.1 L 1185.5,332.0 L 1184.0,340.0 L 1182.4,336.8 L 1180.9,336.8 L 1179.4,336.8 L 1177.9,336.0 L 1176.4,320.5 L 1174.9,320.5 L 1173.4,320.5 L 1171.8,329.5 L 1170.3,325.1 L 1168.8,325.1 L 1167.3,325.1 L 1165.8,325.1 L 1164.3,325.1 L 1162.7,325.1 L 1161.2,325.1 L 1159.7,325.1 L 1158.2,325.1 L 1156.7,325.1 L 1155.2,325.1 L 1153.6,325.1 L 1152.1,325.1 L 1150.6,325.1 L 1149.1,325.1 L 1147.6,325.1 L 1146.1,325.1 L 1144.5,325.1 L 1143.0,325.1 L 1141.5,325.1 L 1140.0,325.1 L 1138.5,325.1 L 1137.0,325.1 L 1135.4,325.1 L 1133.9,325.1 L 1132.4,325.1 L 1130.9,325.1 L 1129.4,325.1 L 1127.9,325.1 L 1126.4,325.1 L 1124.8,325.1 L 1123.3,325.1 L 1121.8,325.1 L 1120.3,325.1 L 1118.8,325.1 L 1117.3,325.1 L 1115.7,325.1 L 1114.2,325.1 L 1112.7,325.1 L 1111.2,325.1 L 1109.7,325.1 L 1108.2,325.1 L 1106.6,325.1 L 1105.1,325.1 L 1103.6,325.1 L 1102.1,325.1 L 1100.6,325.1 L 1099.1,325.1 L 1097.5,325.1 L 1096.0,325.1 L 1094.5,325.1 L 1093.0,325.1 L 1091.5,325.1 L 1090.0,325.1 L 1088.5,325.1 L 1086.9,325.1 L 1085.4,322.1 L 1083.9,331.1 L 1082.4,338.1 L 1080.9,333.0 L 1079.4,327.8 L 1077.8,334.4 L 1076.3,329.6 L 1074.8,323.6 L 1073.3,322.9 L 1071.8,323.6 L 1070.3,325.8 L 1068.7,338.3 L 1067.2,333.2 L 1065.7,334.6 L 1064.2,329.8 L 1062.7,326.6 L 1061.2,325.8 L 1059.6,325.7 L 1058.1,326.2 L 1056.6,325.7 L 1055.1,340.0 L 1053.6,340.0 L 1052.1,340.0 L 1050.5,340.0 L 1049.0,340.0 L 1047.5,340.0 L 1046.0,340.0 L 1044.5,340.0 L 1043.0,340.0 L 1041.5,340.0 L 1039.9,340.0 L 1038.4,336.2 L 1036.9,340.0 L 1035.4,340.0 L 1033.9,340.0 L 1032.4,340.0 L 1030.8,340.0 L 1029.3,336.2 L 1027.8,340.0 L 1026.3,340.0 L 1024.8,340.0 L 1023.3,340.0 L 1021.7,340.0 L 1020.2,336.2 L 1018.7,340.0 L 1017.2,331.8 L 1015.7,340.0 L 1014.2,317.1 L 1012.6,340.0 L 1011.1,340.0 L 1009.6,336.2 L 1008.1,340.0 L 1006.6,340.0 L 1005.1,340.0 L 1003.5,340.0 L 1002.0,340.0 L 1000.5,340.0 L 999.0,340.0 L 997.5,340.0 L 996.0,334.1 L 994.5,336.2 L 992.9,340.0 L 991.4,340.0 L 989.9,336.2 L 988.4,340.0 L 986.9,336.2 L 985.4,337.4 L 983.8,335.8 L 982.3,340.0 L 980.8,340.0 L 979.3,340.0 L 977.8,336.7 L 976.3,333.1 L 974.7,333.0 L 973.2,340.0 L 971.7,336.2 L 970.2,340.0 L 968.7,336.2 L 967.2,340.0 L 965.6,338.2 L 964.1,340.0 L 962.6,336.2 L 961.1,337.7 L 959.6,340.0 L 958.1,336.2 L 956.6,340.0 L 955.0,327.9 L 953.5,318.4 L 952.0,340.0 L 950.5,340.0 L 949.0,336.2 L 947.5,328.2 L 945.9,340.0 L 944.4,340.0 L 942.9,335.1 L 941.4,324.1 L 939.9,335.0 L 938.4,327.0 L 936.8,340.0 L 935.3,322.4 L 933.8,340.0 L 932.3,340.0 L 930.8,340.0 L 929.3,328.0 L 927.7,319.7 L 926.2,335.0 L 924.7,336.2 L 923.2,340.0 L 921.7,340.0 L 920.2,335.3 L 918.6,309.7 L 917.1,339.4 L 915.6,340.0 L 914.1,336.2 L 912.6,340.0 L 911.1,340.0 L 909.6,337.6 L 908.0,336.2 L 906.5,340.0 L 905.0,340.0 L 903.5,340.0 L 902.0,340.0 L 900.5,340.0 L 898.9,339.6 L 897.4,340.0 L 895.9,340.0 L 894.4,340.0 L 892.9,340.0 L 891.4,336.2 L 889.8,340.0 L 888.3,340.0 L 886.8,336.2 L 885.3,340.0 L 883.8,336.2 L 882.3,340.0 L 880.7,340.0 L 879.2,336.2 L 877.7,340.0 L 876.2,340.0 L 874.7,336.2 L 873.2,340.0 L 871.6,340.0 L 870.1,336.2 L 868.6,340.0 L 867.1,335.3 L 865.6,338.8 L 864.1,340.0 L 862.6,336.2 L 861.0,340.0 L 859.5,340.0 L 858.0,340.0 L 856.5,340.0 L 855.0,340.0 L 853.5,340.0 L 851.9,338.9 L 850.4,336.2 L 848.9,340.0 L 847.4,340.0 L 845.9,340.0 L 844.4,340.0 L 842.8,338.5 L 841.3,340.0 L 839.8,336.2 L 838.3,340.0 L 836.8,340.0 L 835.3,340.0 L 833.7,340.0 L 832.2,340.0 L 830.7,340.0 L 829.2,340.0 L 827.7,340.0 L 826.2,340.0 L 824.6,340.0 L 823.1,340.0 L 821.6,340.0 L 820.1,340.0 L 818.6,340.0 L 817.1,340.0 L 815.6,340.0 L 814.0,340.0 L 812.5,340.0 L 811.0,340.0 L 809.5,340.0 L 808.0,340.0 L 806.5,340.0 L 804.9,322.9 L 803.4,325.7 L 801.9,326.2 L 800.4,325.7 L 798.9,325.8 L 797.4,329.8 L 795.8,334.6 L 794.3,325.9 L 792.8,333.2 L 791.3,338.3 L 789.8,325.8 L 788.3,323.6 L 786.7,322.9 L 785.2,323.6 L 783.7,329.6 L 782.2,334.4 L 780.7,327.8 L 779.2,333.0 L 777.7,338.1 L 776.1,331.1 L 774.6,322.1 L 773.1,325.1 L 771.6,193.5 L 770.1,193.5 L 768.6,193.5 L 767.0,193.5 L 765.5,193.5 L 764.0,193.5 L 762.5,193.5 L 761.0,193.5 L 759.5,193.5 L 757.9,193.5 L 756.4,193.5 L 754.9,193.5 L 753.4,193.5 L 751.9,193.5 L 750.4,193.5 L 748.8,193.5 L 747.3,193.5 L 745.8,193.5 L 744.3,193.5 L 742.8,193.5 L 741.3,193.5 L 739.7,193.5 L 738.2,193.5 L 736.7,193.5 L 735.2,193.5 L 733.7,193.5 L 732.2,193.5 L 730.7,193.5 L 729.1,193.5 L 727.6,193.5 L 726.1,193.5 L 724.6,193.5 L 723.1,193.5 L 721.6,193.5 L 720.0,193.5 L 718.5,193.5 L 717.0,193.5 L 715.5,193.5 L 714.0,193.5 L 712.5,193.5 L 710.9,193.5 L 709.4,193.5 L 707.9,193.5 L 706.4,193.5 L 704.9,193.5 L 703.4,193.5 L 701.8,193.5 L 700.3,193.5 L 698.8,193.5 L 697.3,193.5 L 695.8,193.5 L 694.3,193.5 L 692.7,193.5 L 691.2,193.5 L 689.7,193.5 L 688.2,193.5 L 686.7,193.5 L 685.2,193.5 L 683.7,193.5 L 682.1,193.5 L 680.6,193.5 L 679.1,193.5 L 677.6,193.5 L 676.1,193.5 L 674.6,193.5 L 673.0,193.5 L 671.5,193.5 L 670.0,193.5 L 668.5,193.5 L 667.0,193.5 L 665.5,193.5 L 663.9,193.5 L 662.4,193.5 L 660.9,193.5 L 659.4,193.5 L 657.9,193.5 L 656.4,193.5 L 654.8,193.5 L 653.3,193.5 L 651.8,193.5 L 650.3,193.5 L 648.8,193.5 L 647.3,193.5 L 645.7,193.5 L 644.2,193.5 L 642.7,193.5 L 641.2,193.5 L 639.7,193.5 L 638.2,193.5 L 636.7,193.5 L 635.1,193.5 L 633.6,193.5 L 632.1,193.5 L 630.6,193.5 L 629.1,193.5 L 627.6,193.5 L 626.0,193.5 L 624.5,193.5 L 623.0,193.5 L 621.5,193.5 L 620.0,193.5 L 618.5,193.5 L 616.9,193.5 L 615.4,193.5 L 613.9,193.5 L 612.4,193.5 L 610.9,193.5 L 609.4,193.5 L 607.8,193.5 L 606.3,193.5 L 604.8,193.5 L 603.3,193.5 L 601.8,193.5 L 600.3,193.5 L 598.8,193.5 L 597.2,193.5 L 595.7,191.3 L 594.2,188.9 L 592.7,194.2 L 591.2,193.3 L 589.7,193.2 L 588.1,195.0 L 586.6,194.0 L 585.1,193.9 L 583.6,195.6 L 582.1,270.9 L 580.6,276.1 L 579.0,332.2 L 577.5,334.4 L 576.0,335.8 L 574.5,337.1 L 573.0,338.2 L 571.5,338.8 L 569.9,339.3 L 568.4,339.6 L 566.9,339.9 L 565.4,340.0 L 563.9,340.0 L 562.4,339.9 L 560.8,339.6 L 559.3,339.3 L 557.8,338.5 L 556.3,337.9 L 554.8,336.7 L 553.3,335.8 L 551.8,333.8 L 550.2,331.0 L 548.7,310.0 L 547.2,309.2 L 545.7,308.6 L 544.2,306.2 L 542.7,305.7 L 541.1,309.6 L 539.6,308.3 L 538.1,310.2 L 536.6,328.6 L 535.1,332.7 L 533.6,334.9 L 532.0,336.3 L 530.5,337.5 L 529.0,338.5 L 527.5,339.0 L 526.0,339.5 L 524.5,339.8 L 522.9,339.9 L 521.4,340.0 L 519.9,340.0 L 518.4,340.0 L 516.9,339.5 L 515.4,340.0 L 513.8,338.5 L 512.3,340.0 L 510.8,339.8 L 509.3,336.1 L 507.8,333.3 L 506.3,334.0 L 504.8,340.0 L 503.2,339.9 L 501.7,340.0 L 500.2,321.0 L 498.7,340.0 L 497.2,336.8 L 495.7,336.6 L 494.1,335.1 L 492.6,339.8 L 491.1,340.0 L 489.6,340.0 L 488.1,336.1 L 486.6,340.0 L 485.0,336.1 L 483.5,319.9 L 482.0,136.8 L 480.5,335.7 L 479.0,336.2 L 477.5,320.8 L 475.9,332.4 L 474.4,333.4 L 472.9,333.3 L 471.4,334.9 L 469.9,340.0 L 468.4,340.0 L 466.8,339.9 L 465.3,340.0 L 463.8,340.0 L 462.3,337.3 L 460.8,333.5 L 459.3,338.2 L 457.8,270.8 L 456.2,135.8 L 454.7,326.7 L 453.2,268.7 L 451.7,267.0 L 450.2,333.3 L 448.7,340.0 L 447.1,340.0 L 445.6,340.0 L 444.1,340.0 L 442.6,340.0 L 441.1,340.0 L 439.6,340.0 L 438.0,340.0 L 436.5,340.0 L 435.0,340.0 L 433.5,340.0 L 432.0,340.0 L 430.5,340.0 L 428.9,340.0 L 427.4,340.0 L 425.9,340.0 L 424.4,340.0 L 422.9,340.0 L 421.4,340.0 L 419.9,340.0 L 418.3,340.0 L 416.8,337.3 L 415.3,340.0 L 413.8,340.0 L 412.3,340.0 L 410.8,340.0 L 409.2,340.0 L 407.7,340.0 L 406.2,340.0 L 404.7,340.0 L 403.2,340.0 L 401.7,340.0 L 400.1,340.0 L 398.6,336.9 L 397.1,340.0 L 395.6,340.0 L 394.1,340.0 L 392.6,340.0 L 391.0,340.0 L 389.5,340.0 L 388.0,340.0 L 386.5,340.0 L 385.0,340.0 L 383.5,338.2 L 381.9,340.0 L 380.4,340.0 L 378.9,340.0 L 377.4,340.0 L 375.9,340.0 L 374.4,340.0 L 372.9,340.0 L 371.3,340.0 L 369.8,340.0 L 368.3,340.0 L 366.8,340.0 L 365.3,336.2 L 363.8,340.0 L 362.2,340.0 L 360.7,340.0 L 359.2,336.3 L 357.7,340.0 L 356.2,340.0 L 354.7,336.0 L 353.1,340.0 L 351.6,340.0 L 350.1,336.2 L 348.6,340.0 L 347.1,340.0 L 345.6,336.2 L 344.0,340.0 L 342.5,337.3 L 341.0,340.0 L 339.5,340.0 L 338.0,340.0 L 336.5,336.2 L 334.9,334.9 L 333.4,340.0 L 331.9,340.0 L 330.4,340.0 L 328.9,340.0 L 327.4,340.0 L 325.9,340.0 L 324.3,340.0 L 322.8,340.0 L 321.3,338.6 L 319.8,340.0 L 318.3,323.9 L 316.8,321.9 L 315.2,321.8 L 313.7,321.3 L 312.2,319.6 L 310.7,328.4 L 309.2,340.0 L 307.7,340.0 L 306.1,340.0 L 304.6,336.2 L 303.1,333.9 L 301.6,334.8 L 300.1,335.4 L 298.6,340.0 L 297.0,335.7 L 295.5,340.0 L 294.0,332.5 L 292.5,333.0 L 291.0,334.3 L 289.5,340.0 L 287.9,340.0 L 286.4,331.9 L 284.9,333.1 L 283.4,332.6 L 281.9,335.7 L 280.4,334.8 L 278.9,336.2 L 277.3,340.0 L 275.8,340.0 L 274.3,339.7 L 272.8,340.0 L 271.3,336.2 L 269.8,340.0 L 268.2,340.0 L 266.7,336.5 L 265.2,336.2 L 263.7,340.0 L 262.2,336.2 L 260.7,340.0 L 259.1,340.0 L 257.6,340.0 L 256.1,338.6 L 254.6,338.3 L 253.1,340.0 L 251.6,340.0 L 250.0,340.0 L 248.5,340.0 L 247.0,336.2 L 245.5,340.0 L 244.0,336.2 L 242.5,340.0 L 241.0,334.7 L 239.4,337.0 L 237.9,336.2 L 236.4,340.0 L 234.9,340.0 L 233.4,340.0 L 231.9,337.0 L 230.3,340.0 L 228.8,340.0 L 227.3,340.0 L 225.8,340.0 L 224.3,340.0 L 222.8,340.0 L 221.2,340.0 L 219.7,340.0 L 218.2,340.0 L 216.7,340.0 L 215.2,340.0 L 213.7,340.0 L 212.1,340.0 L 210.6,340.0 L 209.1,340.0 L 207.6,340.0 L 206.1,340.0 L 204.6,340.0 L 203.0,340.0 L 201.5,340.0 L 200.0,340.0 L 198.5,340.0 L 197.0,340.0 L 195.5,340.0 L 194.0,340.0 L 192.4,340.0 L 190.9,340.0 L 189.4,340.0 L 187.9,338.4 L 186.4,336.7 L 184.9,331.1 L 183.3,336.6 L 181.8,334.2 L 180.3,331.3 L 178.8,334.0 L 177.3,330.9 L 175.8,328.9 L 174.2,318.2 L 172.7,338.3 L 171.2,338.3 L 169.7,338.3 L 168.2,338.3 L 166.7,338.3 L 165.1,338.3 L 163.6,338.3 L 162.1,338.3 L 160.6,338.3 L 159.1,338.3 L 157.6,333.4 L 156.0,335.0 L 154.5,338.2 L 153.0,336.4 L 151.5,336.5 L 150.0,338.3 L 148.5,336.1 L 147.0,338.7 L 145.4,337.7 L 143.9,335.9 L 142.4,335.5 L 140.9,338.5 L 139.4,334.8 L 137.9,336.5 L 136.3,335.4 L 134.8,335.5 L 133.3,334.3 L 131.8,337.5 L 130.3,337.0 L 128.8,322.1 L 127.2,332.8 L 125.7,332.7 L 124.2,335.5 L 122.7,337.0 L 121.2,334.7 L 119.7,336.3 L 118.1,335.9 L 116.6,334.4 L 115.1,336.2 L 113.6,337.6 L 112.1,340.0 L 110.6,334.9 L 109.0,335.9 L 107.5,338.3 L 106.0,337.1 L 104.5,335.4 L 103.0,336.7 L 101.5,338.7 L 100.0,334.7 L 98.4,335.3 L 96.9,335.4 L 95.4,336.5 L 93.9,336.2 L 92.4,332.9 L 90.9,335.7 L 89.3,335.6 L 87.8,335.4 L 86.3,335.4 L 84.8,334.8 L 83.3,335.7 L 81.8,334.8 L 80.2,335.7 L 78.7,332.6 L 77.2,333.1 L 75.7,331.9 L 74.2,335.9 L 72.7,318.9 L 71.1,334.3 L 69.6,333.0 L 68.1,332.5 L 66.6,334.9 L 65.1,335.7 L 63.6,335.1 L 62.1,335.4 L 60.5,334.8 Z" fill="#1a6ba0" fill-opacity="0.85" stroke="#0d3d5c" stroke-width="1.5"/>
<path d="M 619.3,151.8 L 620.2,187.0 L 621.0,120.4 L 621.8,156.6 L 622.7,116.6 L 623.5,121.5 L 624.3,153.0 L 625.2,122.5 L 626.0,114.7 L 626.8,117.3 L 627.7,114.1 L 628.5,116.2 L 629.3,116.5 L 630.2,111.7 L 631.0,114.8 L 631.8,109.3 L 632.7,86.2 L 633.5,64.4 L 634.3,65.4 L 635.2,58.1 L 636.0,59.2 L 636.8,56.9 L 637.7,55.4 L 638.5,61.9 L 639.3,55.8 L 640.2,55.8 L 641.0,55.8 L 641.8,58.7 L 642.7,56.9 L 643.5,55.4 L 644.3,54.8 L 645.2,55.4 L 646.0,55.4 L 646.8,56.9 L 647.7,55.4 L 648.5,55.4 L 649.3,55.8 L 650.2,54.8 L 651.0,54.8 L 651.8,56.9 L 652.7,55.8 L 653.5,55.4 L 654.3,56.9 L 655.2,56.9 L 656.0,55.4 L 656.8,55.4 L 657.7,55.8 L 658.5,55.4 L 659.3,55.4 L 660.2,59.0 L 661.0,59.2 L 661.8,58.7 L 662.7,54.8 L 663.5,54.8 L 664.3,56.9 L 665.2,58.7 L 666.0,55.4 L 666.8,55.4 L 667.7,55.8 L 668.5,55.8 L 669.3,56.9 L 670.2,58.7 L 671.0,56.9 L 671.8,56.9 L 672.7,56.9 L 673.5,55.4 L 674.3,55.4 L 675.2,56.9 L 676.0,55.8 L 676.9,55.4 L 677.7,54.8 L 678.5,54.8 L 679.4,55.4 L 680.2,55.4 L 681.0,55.8 L 681.9,55.8 L 682.7,55.4 L 683.5,55.4 L 684.4,56.9 L 685.2,56.9 L 686.0,58.4 L 686.9,58.4 L 687.7,58.9 L 688.5,56.9 L 689.4,56.9 L 690.2,55.4 L 691.0,55.4 L 691.9,55.7 L 692.7,55.8 L 693.5,55.4 L 694.4,55.4 L 695.2,54.8 L 696.0,54.8 L 696.9,55.4 L 697.7,55.7 L 698.5,56.9 L 699.4,55.4 L 700.2,55.4 L 701.0,56.9 L 701.9,56.9 L 702.7,56.9 L 703.5,58.7 L 704.4,56.9 L 705.2,55.8 L 706.0,55.7 L 706.9,55.4 L 707.7,55.4 L 708.5,58.7 L 709.4,56.9 L 710.2,54.8 L 711.0,54.8 L 711.9,58.7 L 712.7,59.2 L 713.5,59.1 L 714.4,55.4 L 715.2,55.4 L 716.0,55.8 L 716.9,55.4 L 717.7,55.4 L 718.5,56.9 L 719.4,56.9 L 720.2,55.4 L 721.0,55.7 L 721.9,56.9 L 722.7,54.8 L 723.5,54.8 L 724.4,55.8 L 725.2,55.4 L 726.0,55.4 L 726.9,56.9 L 727.7,55.4 L 728.5,55.4 L 729.4,54.8 L 730.2,55.4 L 731.1,56.9 L 731.9,58.7 L 732.7,55.8 L 733.6,55.8 L 734.4,55.8 L 735.2,55.8 L 736.1,55.4 L 736.9,56.9 L 737.7,56.9 L 738.6,58.1 L 739.4,70.3 L 740.2,64.4 L 741.1,64.4 L 741.9,85.8 L 742.7,86.2 L 743.6,114.8 L 744.4,116.2 L 745.2,112.8 L 746.1,114.1 L 746.9,117.1 L 747.7,115.3 L 748.6,114.7 L 749.4,132.6 L 750.2,120.0 L 751.1,132.6 L 751.9,136.4 L 752.7,136.4 L 753.6,136.4 L 754.4,136.4 L 755.2,136.4 L 756.1,136.4 L 756.9,136.4 L 757.7,136.4 L 758.6,136.4 L 759.4,136.4 L 760.2,136.4 L 761.1,136.4 L 761.9,136.4 L 762.7,136.4 L 763.6,136.4 L 764.4,136.4 L 765.2,136.4 L 766.1,136.4 L 766.9,136.4 L 767.7,136.4 L 768.6,136.4 L 769.4,136.4 L 770.2,136.4 L 771.1,136.4 L 771.9,136.4 L 772.7,136.4 L 773.6,136.4 L 774.4,136.4 L 775.2,136.4 L 776.1,136.4 L 776.9,136.4 L 777.7,136.4 L 778.6,136.4 L 779.4,136.4 L 780.2,136.4 L 781.1,136.4 L 781.9,136.4 L 782.7,136.4 L 783.6,136.4 L 784.4,136.4 L 785.2,136.4 L 786.1,136.4 L 786.9,136.4 L 787.8,136.4 L 788.6,136.4 L 789.4,136.4 L 790.3,136.4 L 791.1,136.4 L 791.9,136.4 L 792.8,136.4 L 793.6,136.4 L 794.4,136.4 L 795.3,136.4 L 796.1,136.4 L 796.9,136.4 L 797.8,136.4 L 798.6,136.4 L 799.4,136.4 L 800.3,136.4 L 801.1,136.4 L 801.9,136.4 L 802.8,136.4 L 803.6,136.4 L 804.4,136.4 L 805.3,136.4 L 806.1,136.4 L 806.9,136.4 L 807.8,136.4 L 808.6,136.4 L 809.4,136.4 L 810.3,136.4 L 811.1,136.4 L 811.9,136.4 L 812.8,136.4 L 813.6,136.4 L 814.4,136.4 L 815.3,136.4 L 816.1,136.4 L 816.9,136.4 L 817.8,136.4 L 818.6,136.4 L 819.4,132.6 L 820.3,120.0 L 821.1,132.6 L 821.9,114.7 L 822.8,115.3 L 823.6,117.1 L 824.4,114.1 L 825.3,112.8 L 826.1,116.2 L 826.9,114.8 L 827.8,86.2 L 828.6,85.8 L 829.4,64.4 L 830.3,64.4 L 831.1,70.3 L 831.9,58.1 L 832.8,56.9 L 833.6,56.9 L 834.4,55.4 L 835.3,55.8 L 836.1,55.8 L 836.9,55.8 L 837.8,55.8 L 838.6,58.7 L 839.4,56.9 L 840.3,55.4 L 841.1,54.8 L 842.0,55.4 L 842.8,55.4 L 843.6,56.9 L 844.5,55.4 L 845.3,55.4 L 846.1,55.8 L 847.0,54.8 L 847.8,54.8 L 848.6,56.9 L 849.5,55.7 L 850.3,55.4 L 851.1,56.9 L 852.0,56.9 L 852.8,55.4 L 853.6,55.4 L 854.5,55.8 L 855.3,55.4 L 856.1,55.4 L 857.0,59.1 L 857.8,59.2 L 858.6,58.7 L 859.5,54.8 L 860.3,54.8 L 861.1,56.9 L 862.0,58.7 L 862.8,55.4 L 863.6,55.4 L 864.5,55.7 L 865.3,55.8 L 866.1,56.9 L 867.0,58.7 L 867.8,56.9 L 868.6,56.9 L 869.5,56.9 L 870.3,55.4 L 871.1,55.4 L 872.0,56.9 L 872.8,55.7 L 873.6,55.4 L 874.5,54.8 L 875.3,54.8 L 876.1,55.4 L 877.0,55.4 L 877.8,55.8 L 878.6,55.7 L 879.5,55.4 L 880.3,55.4 L 881.1,56.9 L 882.0,56.9 L 882.8,58.9 L 883.6,58.4 L 884.5,58.4 L 885.3,56.9 L 886.1,56.9 L 887.0,55.4 L 887.8,55.4 L 888.6,55.8 L 889.5,55.8 L 890.3,55.4 L 891.1,55.4 L 892.0,54.8 L 892.8,54.8 L 893.6,55.4 L 894.5,55.8 L 895.3,56.9 L 896.1,55.4 L 897.0,55.4 L 897.8,56.9 L 898.7,56.9 L 899.5,56.9 L 900.3,58.7 L 901.2,56.9 L 902.0,55.8 L 902.8,55.8 L 903.7,55.4 L 904.5,55.4 L 905.3,58.7 L 906.2,56.9 L 907.0,54.8 L 907.8,54.8 L 908.7,58.7 L 909.5,59.2 L 910.3,59.0 L 911.2,55.4 L 912.0,55.4 L 912.8,55.8 L 913.7,55.4 L 914.5,55.4 L 915.3,56.9 L 916.2,56.9 L 917.0,55.4 L 917.8,55.8 L 918.7,56.9 L 919.5,54.8 L 920.3,54.8 L 921.2,55.8 L 922.0,55.4 L 922.8,55.4 L 923.7,56.9 L 924.5,55.4 L 925.3,55.4 L 926.2,54.8 L 927.0,55.4 L 927.8,56.9 L 928.7,58.7 L 929.5,55.8 L 930.3,55.8 L 931.2,55.8 L 932.0,61.9 L 932.8,55.4 L 933.7,56.9 L 934.5,59.2 L 935.3,58.1 L 936.2,65.4 L 937.0,64.4 L 937.8,86.2 L 938.7,109.3 L 939.5,114.8 L 940.3,111.7 L 941.2,116.5 L 942.0,116.2 L 942.8,114.1 L 943.7,117.3 L 944.5,114.7 L 945.3,122.5 L 946.2,153.0 L 947.0,121.5 L 947.8,116.6 L 948.7,156.6 L 949.5,120.4 L 950.3,187.0 L 951.2,151.8 L 952.0,166.9 L 952.0,166.9 L 951.2,227.1 L 950.3,187.0 L 949.5,227.1 L 948.7,271.4 L 947.8,271.6 L 947.0,286.5 L 946.2,271.6 L 945.3,294.5 L 944.5,294.4 L 943.7,301.5 L 942.8,301.7 L 942.0,308.8 L 941.2,309.2 L 940.3,309.0 L 939.5,301.9 L 938.7,308.8 L 937.8,316.9 L 937.0,316.8 L 936.2,316.4 L 935.3,298.9 L 934.5,316.9 L 933.7,316.8 L 932.8,313.4 L 932.0,325.5 L 931.2,325.5 L 930.3,313.4 L 929.5,308.8 L 928.7,325.5 L 927.8,325.2 L 927.0,265.3 L 926.2,325.0 L 925.3,332.5 L 924.5,332.1 L 923.7,313.2 L 922.8,334.5 L 922.0,334.5 L 921.2,336.8 L 920.3,334.9 L 919.5,340.0 L 918.7,340.0 L 917.8,340.0 L 917.0,336.6 L 916.2,340.0 L 915.3,336.2 L 914.5,340.0 L 913.7,336.2 L 912.8,336.2 L 912.0,340.0 L 911.2,340.0 L 910.3,336.2 L 909.5,340.0 L 908.7,340.0 L 907.8,336.2 L 907.0,340.0 L 906.2,340.0 L 905.3,340.0 L 904.5,336.2 L 903.7,336.2 L 902.8,340.0 L 902.0,334.5 L 901.2,340.0 L 900.3,337.0 L 899.5,340.0 L 898.7,336.2 L 897.8,340.0 L 897.0,336.2 L 896.1,340.0 L 895.3,340.0 L 894.5,336.2 L 893.6,331.3 L 892.8,340.0 L 892.0,336.2 L 891.1,340.0 L 890.3,323.5 L 889.5,336.6 L 888.6,278.8 L 887.8,340.0 L 887.0,340.0 L 886.1,340.0 L 885.3,340.0 L 884.5,285.2 L 883.6,236.4 L 882.8,271.2 L 882.0,340.0 L 881.1,340.0 L 880.3,340.0 L 879.5,340.0 L 878.6,332.8 L 877.8,336.6 L 877.0,336.2 L 876.1,340.0 L 875.3,336.2 L 874.5,340.0 L 873.6,335.0 L 872.8,336.6 L 872.0,340.0 L 871.1,340.0 L 870.3,336.2 L 869.5,340.0 L 868.6,336.2 L 867.8,340.0 L 867.0,337.0 L 866.1,340.0 L 865.3,340.0 L 864.5,332.2 L 863.6,336.2 L 862.8,336.2 L 862.0,340.0 L 861.1,340.0 L 860.3,340.0 L 859.5,336.8 L 858.6,340.0 L 857.8,340.0 L 857.0,340.0 L 856.1,340.0 L 855.3,340.0 L 854.5,336.2 L 853.6,336.6 L 852.8,340.0 L 852.0,340.0 L 851.1,337.0 L 850.3,336.6 L 849.5,340.0 L 848.6,335.2 L 847.8,340.0 L 847.0,336.6 L 846.1,336.8 L 845.3,334.5 L 844.5,332.4 L 843.6,332.1 L 842.8,332.5 L 842.0,322.0 L 841.1,316.4 L 840.3,322.0 L 839.4,325.5 L 838.6,325.4 L 837.8,298.7 L 836.9,325.4 L 836.1,325.5 L 835.3,305.8 L 834.4,313.2 L 833.6,316.6 L 832.8,316.9 L 831.9,308.8 L 831.1,316.4 L 830.3,316.8 L 829.4,316.9 L 828.6,309.2 L 827.8,309.2 L 826.9,298.9 L 826.1,309.0 L 825.3,309.2 L 824.4,309.2 L 823.6,294.5 L 822.8,301.7 L 821.9,301.9 L 821.1,301.5 L 820.3,294.5 L 819.4,293.9 L 818.6,260.2 L 817.8,260.2 L 816.9,260.2 L 816.1,260.2 L 815.3,260.2 L 814.4,260.2 L 813.6,260.2 L 812.8,260.2 L 811.9,260.2 L 811.1,260.2 L 810.3,260.2 L 809.4,260.2 L 808.6,260.2 L 807.8,260.2 L 806.9,260.2 L 806.1,260.2 L 805.3,260.2 L 804.4,260.2 L 803.6,260.2 L 802.8,260.2 L 801.9,260.2 L 801.1,260.2 L 800.3,260.2 L 799.4,260.2 L 798.6,260.2 L 797.8,260.2 L 796.9,260.2 L 796.1,260.2 L 795.3,260.2 L 794.4,260.2 L 793.6,260.2 L 792.8,260.2 L 791.9,260.2 L 791.1,260.2 L 790.3,260.2 L 789.4,260.2 L 788.6,260.2 L 787.8,260.2 L 786.9,260.2 L 786.1,260.2 L 785.2,260.2 L 784.4,260.2 L 783.6,260.2 L 782.7,260.2 L 781.9,260.2 L 781.1,260.2 L 780.2,260.2 L 779.4,260.2 L 778.6,260.2 L 777.7,260.2 L 776.9,260.2 L 776.1,260.2 L 775.2,260.2 L 774.4,260.2 L 773.6,260.2 L 772.7,260.2 L 771.9,260.2 L 771.1,260.2 L 770.2,260.2 L 769.4,260.2 L 768.6,260.2 L 767.7,260.2 L 766.9,260.2 L 766.1,260.2 L 765.2,260.2 L 764.4,260.2 L 763.6,260.2 L 762.7,260.2 L 761.9,260.2 L 761.1,260.2 L 760.2,260.2 L 759.4,260.2 L 758.6,260.2 L 757.7,260.2 L 756.9,260.2 L 756.1,260.2 L 755.2,260.2 L 754.4,260.2 L 753.6,260.2 L 752.7,260.2 L 751.9,260.2 L 751.1,293.9 L 750.2,294.5 L 749.4,301.5 L 748.6,301.9 L 747.7,301.7 L 746.9,294.5 L 746.1,309.2 L 745.2,309.2 L 744.4,309.0 L 743.6,298.9 L 742.7,309.2 L 741.9,309.2 L 741.1,316.9 L 740.2,316.8 L 739.4,316.4 L 738.6,308.8 L 737.7,316.9 L 736.9,316.6 L 736.1,313.2 L 735.2,305.8 L 734.4,325.5 L 733.6,325.4 L 732.7,298.7 L 731.9,325.4 L 731.1,325.5 L 730.2,322.0 L 729.4,316.4 L 728.5,322.0 L 727.7,332.5 L 726.9,332.1 L 726.0,332.4 L 725.2,334.5 L 724.4,336.8 L 723.5,336.6 L 722.7,340.0 L 721.9,335.2 L 721.0,340.0 L 720.2,336.6 L 719.4,337.0 L 718.5,340.0 L 717.7,340.0 L 716.9,336.6 L 716.0,336.2 L 715.2,340.0 L 714.4,340.0 L 713.5,340.0 L 712.7,340.0 L 711.9,340.0 L 711.0,336.8 L 710.2,340.0 L 709.4,340.0 L 708.5,340.0 L 707.7,336.2 L 706.9,336.2 L 706.0,332.2 L 705.2,340.0 L 704.4,340.0 L 703.5,337.0 L 702.7,340.0 L 701.9,336.2 L 701.0,340.0 L 700.2,336.2 L 699.4,340.0 L 698.5,340.0 L 697.7,336.6 L 696.9,335.0 L 696.0,340.0 L 695.2,336.2 L 694.4,340.0 L 693.5,336.2 L 692.7,336.6 L 691.9,332.8 L 691.0,340.0 L 690.2,340.0 L 689.4,340.0 L 688.5,340.0 L 687.7,271.2 L 686.9,236.4 L 686.0,285.2 L 685.2,340.0 L 684.4,340.0 L 683.5,340.0 L 682.7,340.0 L 681.9,278.8 L 681.0,336.6 L 680.2,323.5 L 679.4,340.0 L 678.5,336.2 L 677.7,340.0 L 676.9,331.3 L 676.0,336.2 L 675.2,340.0 L 674.3,340.0 L 673.5,336.2 L 672.7,340.0 L 671.8,336.2 L 671.0,340.0 L 670.2,337.0 L 669.3,340.0 L 668.5,334.5 L 667.7,340.0 L 666.8,336.2 L 666.0,336.2 L 665.2,340.0 L 664.3,340.0 L 663.5,340.0 L 662.7,336.2 L 661.8,340.0 L 661.0,340.0 L 660.2,336.2 L 659.3,340.0 L 658.5,340.0 L 657.7,336.2 L 656.8,336.2 L 656.0,340.0 L 655.2,336.2 L 654.3,340.0 L 653.5,336.6 L 652.7,340.0 L 651.8,340.0 L 651.0,340.0 L 650.2,334.9 L 649.3,336.8 L 648.5,334.5 L 647.7,334.5 L 646.8,313.2 L 646.0,332.1 L 645.2,332.5 L 644.3,325.0 L 643.5,265.3 L 642.7,325.2 L 641.8,325.5 L 641.0,308.8 L 640.2,313.4 L 639.3,325.5 L 638.5,325.5 L 637.7,313.4 L 636.8,316.8 L 636.0,316.9 L 635.2,298.9 L 634.3,316.4 L 633.5,316.8 L 632.7,316.9 L 631.8,308.8 L 631.0,301.9 L 630.2,309.0 L 629.3,309.2 L 628.5,308.8 L 627.7,301.7 L 626.8,301.5 L 626.0,294.4 L 625.2,294.5 L 624.3,271.6 L 623.5,286.5 L 622.7,271.6 L 621.8,271.4 L 621.0,227.1 L 620.2,187.0 L 619.3,227.1 Z" fill="#c06010" fill-opacity="0.70" stroke="#c06010" stroke-width="1.2"/>
<line x1="60.0" y1="358.5" x2="1140.0" y2="358.5" stroke="#333333" stroke-width="1.5"/>
<line x1="60.0" y1="352.5" x2="60.0" y2="364.5" stroke="#333333" stroke-width="1.5"/>
<line x1="1140.0" y1="352.5" x2="1140.0" y2="364.5" stroke="#333333" stroke-width="1.5"/>
<text x="600.0" y="376.5" text-anchor="middle" font-family="'OpenDyslexic', 'OpenDyslexicMono', sans-serif" font-size="11" fill="#333333">609.6 mm (24.00 in)</text>
<line x1="42.3" y1="60.0" x2="42.3" y2="340.0" stroke="#333333" stroke-width="1.5"/>
<text x="38.3" y="200.0" text-anchor="middle" dominant-baseline="middle" font-family="'OpenDyslexic', 'OpenDyslexicMono', sans-serif" font-size="10" fill="#333333" transform="rotate(-90,38.3,200.0)">182 mm (7.17 in)</text>
<line x1="60.0" y1="340.0" x2="60.0" y2="312.0" stroke="#cccccc" stroke-width="0.8" stroke-dasharray="3,3"/>
<line x1="221.1" y1="340.0" x2="221.1" y2="312.0" stroke="#cccccc" stroke-width="0.8" stroke-dasharray="3,3"/>
<line x1="352.1" y1="340.0" x2="352.1" y2="312.0" stroke="#cccccc" stroke-width="0.8" stroke-dasharray="3,3"/>
<line x1="504.4" y1="340.0" x2="504.4" y2="312.0" stroke="#cccccc" stroke-width="0.8" stroke-dasharray="3,3"/>
<line x1="626.6" y1="340.0" x2="626.6" y2="312.0" stroke="#cccccc" stroke-width="0.8" stroke-dasharray="3,3"/>
<line x1="747.0" y1="340.0" x2="747.0" y2="312.0" stroke="#cccccc" stroke-width="0.8" stroke-dasharray="3,3"/>
<line x1="780.6" y1="296.9" x2="780.6" y2="336.9" stroke="#e00000" stroke-width="1.5"/>
<text x="780.6" y="350.9" text-anchor="middle" font-family="'OpenDyslexic', 'OpenDyslexicMono', sans-serif" font-size="9" fill="#e00000">CG 203 mm</text>
<text x="892.1" y="102.0" text-anchor="middle" font-family="'OpenDyslexic', 'OpenDyslexicMono', sans-serif" font-size="9" fill="#333333">GPS sta 140</text>
<text x="166.2" y="200.0" text-anchor="middle" font-family="'OpenDyslexic', 'OpenDyslexicMono', sans-serif" font-size="9" fill="#ffffff">120 mm EDF</text>
<text x="732.8" y="172.0" text-anchor="middle" font-family="'OpenDyslexic', 'OpenDyslexicMono', sans-serif" font-size="9" fill="#c06010">50 mm×2 EDF</text>
<rect x="960" y="70" width="12" height="10" fill="#1a6ba0" fill-opacity="0.8" stroke="#1a6ba0" stroke-width="1"/>
<text x="976" y="79" font-family="'OpenDyslexic', 'OpenDyslexicMono', sans-serif" font-size="9" fill="#333333">Fuselage hull (CF-PETG)</text>
<rect x="960" y="88" width="12" height="10" fill="#c06010" fill-opacity="0.8" stroke="#c06010" stroke-width="1"/>
<text x="976" y="97" font-family="'OpenDyslexic', 'OpenDyslexicMono', sans-serif" font-size="9" fill="#333333">Nacelles (50 mm×2 tandem EDF)</text>
</svg>
