<?xml version="1.0" encoding="UTF-8"?>
<svg xmlns="http://www.w3.org/2000/svg" viewBox="0 0 1200 600" width="1200" height="600">
<defs>
  <style>
    @import url('https://fonts.cdnfonts.com/css/opendyslexic');
    text, tspan { font-family: 'OpenDyslexic', 'OpenDyslexicMono', sans-serif; }
  </style>
</defs>
<rect width="1200" height="600" fill="#f8f8f8"/>
<rect x="0" y="0" width="1200" height="36" fill="#0d3d5c"/>
<text x="600" y="24" text-anchor="middle" font-family="'OpenDyslexic', 'OpenDyslexicMono', sans-serif" font-size="14" font-weight="bold" fill="#ffffff">SERENITY-CLASS TILTROTOR UAV — BOTTOM VIEW  |  Rev O</text>
<path d="M 62.4,265.8 L 63.8,189.3 L 65.1,188.7 L 66.4,183.8 L 67.8,183.7 L 69.1,189.8 L 70.5,185.1 L 71.8,185.0 L 73.2,178.1 L 74.5,178.6 L 75.8,179.6 L 77.2,180.0 L 78.5,177.5 L 79.9,177.2 L 81.2,176.9 L 82.6,176.7 L 83.9,176.6 L 85.2,178.2 L 86.6,178.1 L 87.9,175.3 L 89.3,190.5 L 90.6,177.5 L 92.0,176.9 L 93.3,190.5 L 94.6,190.2 L 96.0,193.0 L 97.3,181.3 L 98.7,195.7 L 100.0,182.7 L 101.4,191.7 L 102.7,266.2 L 104.0,172.8 L 105.4,175.4 L 106.7,174.5 L 108.1,189.7 L 109.4,180.0 L 110.8,191.1 L 112.1,171.7 L 113.4,170.9 L 114.8,172.6 L 116.1,186.9 L 117.5,187.5 L 118.8,169.1 L 120.2,180.0 L 121.5,170.8 L 122.8,176.7 L 124.2,178.2 L 125.5,195.1 L 126.9,165.3 L 128.2,167.2 L 129.6,176.3 L 130.9,265.6 L 132.2,265.6 L 133.6,261.4 L 134.9,163.0 L 136.3,165.0 L 137.6,174.5 L 139.0,183.8 L 140.3,267.0 L 141.6,213.8 L 143.0,214.1 L 144.3,161.9 L 145.7,163.8 L 147.0,181.5 L 148.4,182.9 L 149.7,160.6 L 151.0,159.4 L 152.4,160.0 L 153.7,162.1 L 155.1,160.1 L 156.4,180.4 L 157.8,195.6 L 159.1,158.6 L 160.4,157.4 L 161.8,160.4 L 163.1,156.1 L 164.5,153.3 L 165.8,155.5 L 167.2,155.5 L 168.5,155.5 L 169.8,155.5 L 171.2,155.5 L 172.5,155.5 L 173.9,155.5 L 175.2,155.5 L 176.6,155.5 L 177.9,155.5 L 179.2,155.5 L 180.6,196.1 L 181.9,192.4 L 183.3,188.2 L 184.6,184.5 L 186.0,189.7 L 187.3,179.7 L 188.6,175.4 L 190.0,175.2 L 191.3,173.1 L 192.7,171.6 L 194.0,168.6 L 195.4,168.3 L 196.7,168.1 L 198.0,122.6 L 199.4,129.9 L 200.7,122.4 L 202.1,122.2 L 203.4,123.4 L 204.8,122.0 L 206.1,120.1 L 207.4,123.0 L 208.8,122.2 L 210.1,125.0 L 211.5,117.2 L 212.8,115.9 L 214.2,119.3 L 215.5,118.1 L 216.8,115.6 L 218.2,115.7 L 219.5,115.7 L 220.9,117.9 L 222.2,117.9 L 223.6,148.2 L 224.9,120.1 L 226.2,120.1 L 227.6,119.8 L 228.9,118.6 L 230.3,119.2 L 231.6,119.5 L 233.0,121.3 L 234.3,125.1 L 235.6,125.0 L 237.0,127.1 L 238.3,126.9 L 239.7,125.8 L 241.0,131.1 L 242.4,127.7 L 243.7,130.3 L 245.0,132.1 L 246.4,133.9 L 247.7,136.3 L 249.1,141.4 L 250.4,138.2 L 251.8,138.5 L 253.1,137.5 L 254.4,139.2 L 255.8,133.6 L 257.1,133.4 L 258.5,117.3 L 259.8,133.4 L 261.2,119.5 L 262.5,131.1 L 263.8,132.9 L 265.2,137.1 L 266.5,131.6 L 267.9,132.2 L 269.2,129.6 L 270.6,131.4 L 271.9,133.5 L 273.2,132.0 L 274.6,132.2 L 275.9,132.0 L 277.3,130.2 L 278.6,128.5 L 280.0,127.9 L 281.3,125.3 L 282.6,127.2 L 284.0,127.7 L 285.3,129.0 L 286.7,126.9 L 288.0,126.1 L 289.4,114.8 L 290.7,125.1 L 292.0,124.4 L 293.4,124.1 L 294.7,124.3 L 296.1,125.0 L 297.4,124.9 L 298.8,122.9 L 300.1,122.5 L 301.4,122.4 L 302.8,122.4 L 304.1,122.8 L 305.5,123.7 L 306.8,168.4 L 308.2,179.5 L 309.5,183.7 L 310.8,113.0 L 312.2,121.0 L 313.5,189.3 L 314.9,176.6 L 316.2,164.3 L 317.6,123.7 L 318.9,122.5 L 320.2,122.3 L 321.6,122.4 L 322.9,122.6 L 324.3,123.3 L 325.6,125.9 L 327.0,125.0 L 328.3,124.2 L 329.6,124.1 L 331.0,124.4 L 332.3,117.0 L 333.7,114.8 L 335.0,126.1 L 336.4,126.9 L 337.7,128.2 L 339.0,127.7 L 340.4,125.3 L 341.7,127.9 L 343.1,128.8 L 344.4,128.5 L 345.8,132.2 L 347.1,132.0 L 348.4,132.0 L 349.8,132.2 L 351.1,131.4 L 352.5,129.6 L 353.8,133.9 L 355.2,132.2 L 356.5,131.6 L 357.8,134.0 L 359.2,132.2 L 360.5,131.1 L 361.9,119.5 L 363.2,117.3 L 364.6,135.1 L 365.9,133.4 L 367.2,135.3 L 368.6,138.7 L 369.9,137.5 L 371.3,138.2 L 372.6,145.5 L 374.0,141.4 L 375.3,136.3 L 376.6,132.1 L 378.0,132.1 L 379.3,130.3 L 380.7,127.7 L 382.0,125.8 L 383.4,128.0 L 384.7,126.9 L 386.0,125.0 L 387.4,125.1 L 388.7,121.3 L 390.1,126.6 L 391.4,119.2 L 392.8,121.9 L 394.1,118.6 L 395.4,119.8 L 396.8,120.1 L 398.1,120.1 L 399.5,148.6 L 400.8,117.9 L 402.2,144.5 L 403.5,115.7 L 404.8,132.3 L 406.2,115.6 L 407.5,118.1 L 408.9,119.3 L 410.2,115.9 L 411.6,117.2 L 412.9,122.2 L 414.2,122.9 L 415.6,120.1 L 416.9,122.0 L 418.3,124.4 L 419.6,122.2 L 421.0,122.4 L 422.3,144.1 L 423.6,124.3 L 425.0,122.6 L 426.3,168.1 L 427.7,168.4 L 429.0,171.6 L 430.4,172.4 L 431.7,174.1 L 433.0,175.2 L 434.4,178.9 L 435.7,179.7 L 437.1,184.5 L 438.4,186.5 L 439.8,190.3 L 441.1,194.0 L 442.4,352.2 L 443.8,335.1 L 445.1,370.9 L 446.5,383.2 L 447.8,345.6 L 449.2,335.0 L 450.5,311.4 L 451.8,352.2 L 453.2,339.1 L 454.5,334.4 L 455.9,318.6 L 457.2,313.5 L 458.6,311.3 L 459.9,323.1 L 461.2,311.3 L 462.6,319.2 L 463.9,335.3 L 465.3,321.6 L 466.6,314.0 L 468.0,393.5 L 469.3,347.2 L 470.6,311.2 L 472.0,312.7 L 473.3,313.4 L 474.7,311.1 L 476.0,339.9 L 477.4,322.1 L 478.7,315.1 L 480.0,312.9 L 481.4,378.6 L 482.7,313.3 L 484.1,311.0 L 485.4,363.4 L 486.8,313.2 L 488.1,311.0 L 489.5,322.0 L 490.8,313.2 L 492.1,310.9 L 493.5,319.9 L 494.8,313.1 L 496.2,310.9 L 497.5,310.9 L 498.9,313.1 L 500.2,310.9 L 501.5,331.0 L 502.9,313.0 L 504.2,310.8 L 505.6,310.8 L 506.9,320.3 L 508.3,313.0 L 509.6,310.8 L 510.9,310.7 L 512.3,310.7 L 513.6,318.9 L 515.0,312.9 L 516.3,310.7 L 517.7,310.7 L 519.0,310.7 L 520.3,310.6 L 521.7,310.6 L 523.0,310.6 L 524.4,310.6 L 525.7,310.6 L 527.1,310.6 L 528.4,310.6 L 529.7,312.8 L 531.1,310.5 L 532.4,310.5 L 533.8,310.5 L 535.1,310.5 L 536.5,310.5 L 537.8,310.5 L 539.1,315.5 L 540.5,312.6 L 541.8,312.6 L 543.2,310.4 L 544.5,310.4 L 545.9,310.4 L 547.2,310.4 L 548.5,317.8 L 549.9,325.4 L 551.2,329.2 L 552.6,337.5 L 553.9,335.3 L 555.3,336.0 L 556.6,341.8 L 557.9,342.7 L 559.3,346.3 L 560.6,345.0 L 562.0,349.6 L 563.3,348.5 L 564.7,350.9 L 566.0,353.8 L 567.3,352.7 L 568.7,357.1 L 570.0,354.6 L 571.4,356.9 L 572.7,358.0 L 574.1,359.8 L 575.4,361.0 L 576.7,364.8 L 578.1,368.1 L 579.4,371.9 L 580.8,373.2 L 582.1,376.6 L 583.5,372.2 L 584.8,382.6 L 586.1,371.2 L 587.5,389.6 L 588.8,371.2 L 590.2,389.5 L 591.5,371.3 L 592.9,371.6 L 594.2,374.3 L 595.5,374.0 L 596.9,373.7 L 598.2,376.9 L 599.6,376.6 L 600.9,376.0 L 602.3,411.8 L 603.6,409.7 L 604.9,439.1 L 606.3,441.0 L 607.6,443.0 L 609.0,445.1 L 610.3,447.3 L 611.7,450.6 L 613.0,451.5 L 614.3,452.0 L 615.7,452.7 L 617.0,453.8 L 618.4,456.7 L 619.7,453.3 L 621.1,460.5 L 622.4,461.8 L 623.7,461.8 L 625.1,461.8 L 626.4,461.8 L 627.8,461.8 L 629.1,461.8 L 630.5,461.8 L 631.8,461.8 L 633.1,461.8 L 634.5,461.8 L 635.8,461.8 L 637.2,461.8 L 638.5,461.8 L 639.9,461.8 L 641.2,461.8 L 642.5,461.8 L 643.9,245.4 L 645.2,239.3 L 646.6,234.7 L 647.9,233.3 L 649.3,232.7 L 650.6,233.1 L 651.9,228.1 L 653.3,222.9 L 654.6,222.2 L 656.0,222.0 L 657.3,222.1 L 658.7,222.3 L 660.0,223.1 L 661.3,223.4 L 662.7,224.0 L 664.0,219.7 L 665.4,219.0 L 666.7,219.0 L 668.1,219.4 L 669.4,220.9 L 670.7,206.9 L 672.1,209.1 L 673.4,215.9 L 674.8,207.0 L 676.1,209.2 L 677.5,216.0 L 678.8,217.7 L 680.1,218.7 L 681.5,213.1 L 682.8,211.8 L 684.2,211.6 L 685.5,212.4 L 686.9,211.9 L 688.2,212.5 L 689.5,217.5 L 690.9,213.8 L 692.2,212.2 L 693.6,211.5 L 694.9,211.4 L 696.3,216.1 L 697.6,215.6 L 698.9,216.1 L 700.3,213.1 L 701.6,214.0 L 703.0,211.8 L 704.3,211.1 L 705.7,214.1 L 707.0,216.4 L 708.3,216.4 L 709.7,213.6 L 711.0,215.2 L 712.4,215.2 L 713.7,212.9 L 715.1,212.2 L 716.4,213.3 L 717.7,216.1 L 719.1,215.2 L 720.4,215.2 L 721.8,213.4 L 723.1,215.1 L 724.5,213.3 L 725.8,213.4 L 727.1,215.4 L 728.5,215.1 L 729.8,210.9 L 731.2,217.2 L 732.5,208.8 L 733.9,211.0 L 735.2,217.4 L 736.5,208.9 L 737.9,217.7 L 739.2,217.8 L 740.6,218.0 L 741.9,218.2 L 743.3,218.3 L 744.6,218.8 L 745.9,219.0 L 747.3,219.3 L 748.6,219.8 L 750.0,220.1 L 751.3,220.4 L 752.7,221.1 L 754.0,221.5 L 755.3,221.1 L 756.7,222.6 L 758.0,223.0 L 759.4,223.9 L 760.7,224.4 L 762.1,225.3 L 763.4,226.3 L 764.7,227.3 L 766.1,227.8 L 767.4,228.9 L 768.8,230.7 L 770.1,231.8 L 771.5,233.7 L 772.8,235.6 L 774.1,237.5 L 775.5,241.6 L 776.8,241.6 L 778.2,241.6 L 779.5,241.6 L 780.9,241.6 L 782.2,241.6 L 783.5,241.6 L 784.9,241.6 L 786.2,241.6 L 787.6,241.6 L 788.9,241.6 L 790.3,239.5 L 791.6,236.9 L 792.9,234.3 L 794.3,232.5 L 795.6,231.3 L 797.0,230.1 L 798.3,228.9 L 799.7,227.8 L 801.0,226.8 L 802.3,225.8 L 803.7,224.8 L 805.0,224.4 L 806.4,223.5 L 807.7,138.9 L 809.1,129.0 L 810.4,119.9 L 811.7,110.2 L 813.1,120.1 L 814.4,110.3 L 815.8,111.3 L 817.1,121.0 L 818.5,111.4 L 819.8,132.8 L 821.1,147.2 L 822.5,99.9 L 823.8,98.9 L 825.2,101.2 L 826.5,100.3 L 827.9,105.9 L 829.2,99.3 L 830.5,107.1 L 831.9,88.2 L 833.2,87.2 L 834.6,132.6 L 835.9,88.6 L 837.3,132.6 L 838.6,90.2 L 839.9,132.6 L 841.3,115.4 L 842.6,77.1 L 844.0,78.3 L 845.3,79.3 L 846.7,79.0 L 848.0,108.6 L 849.3,100.1 L 850.7,103.2 L 852.0,101.5 L 853.4,101.5 L 854.7,83.7 L 856.1,95.7 L 857.4,85.5 L 858.7,87.9 L 860.1,68.6 L 861.4,74.2 L 862.8,70.7 L 864.1,76.2 L 865.5,75.5 L 866.8,73.7 L 868.1,77.5 L 869.5,74.4 L 870.8,76.4 L 872.2,84.5 L 873.5,84.1 L 874.9,86.2 L 876.2,67.6 L 877.5,70.4 L 878.9,66.2 L 880.2,66.2 L 881.6,67.2 L 882.9,68.4 L 884.3,67.6 L 885.6,69.8 L 886.9,75.7 L 888.3,69.0 L 889.6,71.1 L 891.0,70.1 L 892.3,72.2 L 893.7,74.4 L 895.0,76.5 L 896.3,76.3 L 897.7,77.2 L 899.0,79.0 L 900.4,80.9 L 901.7,75.0 L 903.1,76.9 L 904.4,73.3 L 905.7,74.6 L 907.1,76.5 L 908.4,77.2 L 909.8,74.3 L 911.1,82.9 L 912.5,76.3 L 913.8,86.5 L 915.1,83.5 L 916.5,73.7 L 917.8,74.9 L 919.2,67.8 L 920.5,69.9 L 921.9,79.1 L 923.2,81.6 L 924.6,81.1 L 925.9,72.5 L 927.2,74.5 L 928.6,80.0 L 929.9,78.3 L 931.3,81.8 L 932.6,77.2 L 934.0,79.1 L 935.3,78.1 L 936.6,80.3 L 938.0,80.8 L 939.3,78.3 L 940.7,71.9 L 942.0,74.9 L 943.4,76.8 L 944.7,77.2 L 946.0,77.2 L 947.4,77.2 L 948.7,65.3 L 950.1,71.1 L 951.4,73.1 L 952.8,192.2 L 954.1,79.5 L 955.4,70.5 L 956.8,76.6 L 958.1,134.8 L 959.5,77.6 L 960.8,79.6 L 962.2,76.4 L 963.5,78.3 L 964.8,78.8 L 966.2,132.6 L 967.5,132.6 L 968.9,132.6 L 970.2,84.9 L 971.6,63.6 L 972.9,134.8 L 974.2,132.6 L 975.6,132.6 L 976.9,78.8 L 978.3,78.3 L 979.6,76.4 L 981.0,79.6 L 982.3,77.1 L 983.6,132.6 L 985.0,76.6 L 986.3,70.5 L 987.7,79.5 L 989.0,138.7 L 990.4,134.8 L 991.7,71.1 L 993.0,65.3 L 994.4,77.2 L 995.7,77.2 L 997.1,77.2 L 998.4,76.8 L 999.8,74.9 L 1001.1,71.9 L 1002.4,78.3 L 1003.8,81.6 L 1005.1,80.3 L 1006.5,78.1 L 1007.8,76.8 L 1009.2,74.9 L 1010.5,79.5 L 1011.8,78.3 L 1013.2,80.0 L 1014.5,74.5 L 1015.9,72.5 L 1017.2,82.9 L 1018.6,81.1 L 1019.9,79.1 L 1021.2,69.9 L 1022.6,67.8 L 1023.9,74.9 L 1025.3,75.7 L 1026.6,73.7 L 1028.0,86.5 L 1029.3,84.8 L 1030.6,76.3 L 1032.0,74.3 L 1033.3,77.2 L 1034.7,76.5 L 1036.0,74.6 L 1037.4,73.3 L 1038.7,76.9 L 1040.0,75.0 L 1041.4,80.9 L 1042.7,79.0 L 1044.1,77.2 L 1045.4,76.3 L 1046.8,76.4 L 1048.1,74.4 L 1049.4,72.2 L 1050.8,70.1 L 1052.1,71.1 L 1053.5,69.0 L 1054.8,75.7 L 1056.2,69.8 L 1057.5,69.4 L 1058.8,67.6 L 1060.2,67.2 L 1061.5,66.2 L 1062.9,66.2 L 1064.2,70.4 L 1065.6,67.6 L 1066.9,86.2 L 1068.2,84.1 L 1069.6,84.5 L 1070.9,76.4 L 1072.3,74.4 L 1073.6,77.5 L 1075.0,73.7 L 1076.3,75.5 L 1077.6,76.2 L 1079.0,70.7 L 1080.3,74.2 L 1081.7,68.6 L 1083.0,87.9 L 1084.4,109.8 L 1085.7,85.5 L 1087.0,83.7 L 1088.4,101.5 L 1089.7,101.5 L 1091.1,103.2 L 1092.4,100.1 L 1093.8,108.6 L 1095.1,79.0 L 1096.4,79.3 L 1097.8,78.3 L 1099.1,77.1 L 1100.5,115.4 L 1101.8,149.4 L 1103.2,90.2 L 1104.5,148.4 L 1105.8,88.6 L 1107.2,148.2 L 1108.5,87.2 L 1109.9,88.2 L 1111.2,107.1 L 1112.6,99.3 L 1113.9,105.9 L 1115.2,100.3 L 1116.6,101.2 L 1117.9,131.9 L 1119.3,98.9 L 1120.6,147.2 L 1122.0,140.7 L 1123.3,111.4 L 1124.6,121.0 L 1126.0,111.3 L 1127.3,110.3 L 1128.7,120.1 L 1130.0,110.2 L 1131.4,119.9 L 1132.7,129.0 L 1134.0,138.9 L 1135.4,140.0 L 1135.4,140.0 L 1134.0,138.9 L 1132.7,158.3 L 1131.4,162.5 L 1130.0,162.6 L 1128.7,161.9 L 1127.3,168.4 L 1126.0,178.2 L 1124.6,162.3 L 1123.3,177.6 L 1122.0,186.5 L 1120.6,171.1 L 1119.3,184.9 L 1117.9,194.0 L 1116.6,196.2 L 1115.2,197.7 L 1113.9,195.2 L 1112.6,195.4 L 1111.2,198.2 L 1109.9,198.8 L 1108.5,196.4 L 1107.2,197.8 L 1105.8,203.2 L 1104.5,199.8 L 1103.2,202.0 L 1101.8,206.7 L 1100.5,213.3 L 1099.1,214.9 L 1097.8,212.7 L 1096.4,213.5 L 1095.1,209.6 L 1093.8,213.2 L 1092.4,208.0 L 1091.1,211.8 L 1089.7,209.9 L 1088.4,217.9 L 1087.0,218.8 L 1085.7,218.5 L 1084.4,217.3 L 1083.0,217.0 L 1081.7,209.3 L 1080.3,201.9 L 1079.0,208.0 L 1077.6,208.1 L 1076.3,224.4 L 1075.0,225.2 L 1073.6,223.5 L 1072.3,223.2 L 1070.9,211.8 L 1069.6,211.5 L 1068.2,210.4 L 1066.9,212.9 L 1065.6,230.4 L 1064.2,230.1 L 1062.9,231.1 L 1061.5,229.3 L 1060.2,215.8 L 1058.8,213.6 L 1057.5,217.2 L 1056.2,218.4 L 1054.8,218.4 L 1053.5,216.9 L 1052.1,235.5 L 1050.8,245.1 L 1049.4,240.1 L 1048.1,248.9 L 1046.8,245.4 L 1045.4,252.7 L 1044.1,249.1 L 1042.7,256.9 L 1041.4,255.0 L 1040.0,257.0 L 1038.7,256.4 L 1037.4,257.6 L 1036.0,263.3 L 1034.7,269.1 L 1033.3,306.3 L 1032.0,305.3 L 1030.6,311.8 L 1029.3,310.6 L 1028.0,318.6 L 1026.6,321.2 L 1025.3,317.7 L 1023.9,324.0 L 1022.6,324.6 L 1021.2,323.0 L 1019.9,326.3 L 1018.6,329.0 L 1017.2,335.7 L 1015.9,333.6 L 1014.5,341.5 L 1013.2,339.7 L 1011.8,344.6 L 1010.5,343.3 L 1009.2,349.8 L 1007.8,348.4 L 1006.5,355.1 L 1005.1,352.1 L 1003.8,353.6 L 1002.4,360.1 L 1001.1,358.2 L 999.8,363.4 L 998.4,377.5 L 997.1,382.3 L 995.7,382.8 L 994.4,382.2 L 993.0,382.7 L 991.7,382.7 L 990.4,380.7 L 989.0,366.8 L 987.7,392.0 L 986.3,392.0 L 985.0,391.9 L 983.6,389.8 L 982.3,375.8 L 981.0,378.3 L 979.6,381.5 L 978.3,380.4 L 976.9,382.6 L 975.6,380.7 L 974.2,385.0 L 972.9,387.2 L 971.6,387.4 L 970.2,387.8 L 968.9,389.1 L 967.5,390.4 L 966.2,391.3 L 964.8,390.5 L 963.5,392.1 L 962.2,394.8 L 960.8,392.6 L 959.5,395.4 L 958.1,395.7 L 956.8,394.9 L 955.4,395.2 L 954.1,396.1 L 952.8,396.3 L 951.4,396.3 L 950.1,396.3 L 948.7,396.0 L 947.4,396.3 L 946.0,396.3 L 944.7,394.2 L 943.4,393.9 L 942.0,395.7 L 940.7,396.0 L 939.3,395.7 L 938.0,369.8 L 936.6,372.2 L 935.3,396.0 L 934.0,395.7 L 932.6,396.0 L 931.3,396.3 L 929.9,394.2 L 928.6,396.0 L 927.2,396.3 L 925.9,396.3 L 924.6,396.1 L 923.2,396.0 L 921.9,395.1 L 920.5,395.7 L 919.2,395.4 L 917.8,392.2 L 916.5,394.7 L 915.1,392.3 L 913.8,391.5 L 912.5,391.3 L 911.1,390.5 L 909.8,388.9 L 908.4,388.3 L 907.1,387.5 L 905.7,387.2 L 904.4,377.5 L 903.1,382.3 L 901.7,384.3 L 900.4,380.4 L 899.0,381.5 L 897.7,378.9 L 896.3,375.8 L 895.0,372.5 L 893.7,373.9 L 892.3,375.7 L 891.0,374.0 L 889.6,373.7 L 888.3,372.9 L 886.9,374.0 L 885.6,373.7 L 884.3,373.7 L 882.9,373.7 L 881.6,373.1 L 880.2,373.8 L 878.9,374.0 L 877.5,375.9 L 876.2,386.7 L 874.9,386.7 L 873.5,388.8 L 872.2,388.8 L 870.8,378.2 L 869.5,373.7 L 868.1,373.2 L 866.8,373.6 L 865.5,373.9 L 864.1,373.1 L 862.8,373.7 L 861.4,373.9 L 860.1,373.6 L 858.7,373.9 L 857.4,373.9 L 856.1,373.6 L 854.7,373.9 L 853.4,373.4 L 852.0,373.4 L 850.7,338.8 L 849.3,315.1 L 848.0,301.9 L 846.7,316.0 L 845.3,303.0 L 844.0,316.9 L 842.6,303.6 L 841.3,289.4 L 839.9,304.0 L 838.6,301.0 L 837.3,301.3 L 835.9,300.1 L 834.6,289.4 L 833.2,289.5 L 831.9,289.8 L 830.5,288.5 L 829.2,284.2 L 827.9,275.4 L 826.5,272.2 L 825.2,275.7 L 823.8,294.2 L 822.5,271.6 L 821.1,271.4 L 819.8,271.1 L 818.5,270.7 L 817.1,270.4 L 815.8,270.1 L 814.4,269.5 L 813.1,269.2 L 811.7,268.8 L 810.4,268.1 L 809.1,294.2 L 807.7,266.9 L 806.4,266.5 L 805.0,265.6 L 803.7,265.1 L 802.3,264.1 L 801.0,263.1 L 799.7,262.1 L 798.3,261.0 L 797.0,259.8 L 795.6,258.7 L 794.3,257.5 L 792.9,255.6 L 791.6,253.0 L 790.3,250.4 L 788.9,248.4 L 787.6,248.4 L 786.2,248.4 L 784.9,248.4 L 783.5,248.4 L 782.2,248.4 L 780.9,248.4 L 779.5,248.4 L 778.2,248.4 L 776.8,248.4 L 775.5,248.4 L 774.1,252.4 L 772.8,254.3 L 771.5,256.2 L 770.1,258.1 L 768.8,259.3 L 767.4,261.0 L 766.1,262.1 L 764.7,262.6 L 763.4,263.6 L 762.1,264.6 L 760.7,265.6 L 759.4,266.0 L 758.0,266.9 L 756.7,267.3 L 755.3,294.2 L 754.0,268.5 L 752.7,268.8 L 751.3,269.5 L 750.0,269.8 L 748.6,270.1 L 747.3,270.7 L 745.9,270.9 L 744.6,271.1 L 743.3,271.6 L 741.9,271.8 L 740.6,294.2 L 739.2,272.1 L 737.9,272.2 L 736.5,272.5 L 735.2,272.6 L 733.9,272.6 L 732.5,272.7 L 731.2,272.7 L 729.8,275.1 L 728.5,275.4 L 727.1,273.5 L 725.8,272.7 L 724.5,272.9 L 723.1,277.3 L 721.8,277.9 L 720.4,279.7 L 719.1,280.0 L 717.7,294.2 L 716.4,281.7 L 715.1,281.6 L 713.7,280.8 L 712.4,279.1 L 711.0,278.3 L 709.7,278.3 L 708.3,282.1 L 707.0,281.4 L 705.7,278.1 L 704.3,274.9 L 703.0,294.2 L 701.6,279.7 L 700.3,280.4 L 698.9,281.2 L 697.6,281.6 L 696.3,280.9 L 694.9,281.2 L 693.6,280.3 L 692.2,279.7 L 690.9,281.8 L 689.5,281.6 L 688.2,280.9 L 686.9,281.2 L 685.5,280.2 L 684.2,279.2 L 682.8,281.1 L 681.5,279.2 L 680.1,281.4 L 678.8,280.6 L 677.5,279.7 L 676.1,279.5 L 674.8,279.1 L 673.4,277.1 L 672.1,276.6 L 670.7,275.2 L 669.4,274.4 L 668.1,274.2 L 666.7,271.7 L 665.4,273.0 L 664.0,272.6 L 662.7,269.5 L 661.3,270.0 L 660.0,271.1 L 658.7,269.1 L 657.3,268.1 L 656.0,264.5 L 654.6,266.6 L 653.3,267.8 L 651.9,264.2 L 650.6,263.1 L 649.3,263.5 L 647.9,259.8 L 646.6,261.2 L 645.2,259.8 L 643.9,257.9 L 642.5,491.5 L 641.2,491.5 L 639.9,491.5 L 638.5,491.5 L 637.2,491.5 L 635.8,491.5 L 634.5,491.5 L 633.1,491.5 L 631.8,491.5 L 630.5,491.5 L 629.1,491.5 L 627.8,491.5 L 626.4,491.5 L 625.1,491.5 L 623.7,491.5 L 622.4,491.5 L 621.1,495.4 L 619.7,501.3 L 618.4,501.9 L 617.0,504.0 L 615.7,504.8 L 614.3,507.5 L 613.0,506.4 L 611.7,509.2 L 610.3,510.1 L 609.0,511.1 L 607.6,512.9 L 606.3,514.1 L 604.9,518.3 L 603.6,516.5 L 602.3,515.8 L 600.9,524.4 L 599.6,517.3 L 598.2,521.0 L 596.9,522.5 L 595.5,532.4 L 594.2,521.8 L 592.9,530.2 L 591.5,525.7 L 590.2,532.8 L 588.8,527.6 L 587.5,527.0 L 586.1,530.6 L 584.8,530.3 L 583.5,532.8 L 582.1,531.1 L 580.8,532.5 L 579.4,533.0 L 578.1,532.1 L 576.7,531.3 L 575.4,530.0 L 574.1,536.0 L 572.7,536.0 L 571.4,536.0 L 570.0,536.0 L 568.7,533.8 L 567.3,536.1 L 566.0,536.1 L 564.7,533.9 L 563.3,536.1 L 562.0,529.1 L 560.6,536.1 L 559.3,536.1 L 557.9,535.1 L 556.6,533.9 L 555.3,536.2 L 553.9,536.2 L 552.6,536.2 L 551.2,536.2 L 549.9,536.2 L 548.5,534.0 L 547.2,534.0 L 545.9,536.3 L 544.5,536.3 L 543.2,536.3 L 541.8,536.3 L 540.5,536.3 L 539.1,534.1 L 537.8,536.4 L 536.5,536.4 L 535.1,536.4 L 533.8,536.4 L 532.4,534.2 L 531.1,536.4 L 529.7,536.4 L 528.4,534.2 L 527.1,534.2 L 525.7,530.0 L 524.4,536.5 L 523.0,534.3 L 521.7,460.2 L 520.3,530.3 L 519.0,536.6 L 517.7,535.5 L 516.3,536.6 L 515.0,536.6 L 513.6,534.4 L 512.3,520.5 L 510.9,525.6 L 509.6,530.6 L 508.3,536.7 L 506.9,534.5 L 505.6,536.7 L 504.2,536.7 L 502.9,534.5 L 501.5,536.7 L 500.2,536.8 L 498.9,534.5 L 497.5,536.8 L 496.2,536.0 L 494.8,536.8 L 493.5,535.7 L 492.1,536.8 L 490.8,534.6 L 489.5,536.4 L 488.1,536.9 L 486.8,536.9 L 485.4,534.7 L 484.1,536.9 L 482.7,535.9 L 481.4,536.9 L 480.0,534.1 L 478.7,533.6 L 477.4,531.3 L 476.0,528.0 L 474.7,537.0 L 473.3,532.1 L 472.0,537.0 L 470.6,535.8 L 469.3,537.1 L 468.0,536.3 L 466.6,533.0 L 465.3,537.1 L 463.9,534.9 L 462.6,537.1 L 461.2,537.2 L 459.9,537.2 L 458.6,528.6 L 457.2,524.9 L 455.9,521.2 L 454.5,480.0 L 453.2,537.2 L 451.8,537.3 L 450.5,526.8 L 449.2,530.7 L 447.8,526.1 L 446.5,532.5 L 445.1,537.3 L 443.8,527.5 L 442.4,537.4 L 441.1,537.4 L 439.8,488.2 L 438.4,535.7 L 437.1,537.4 L 435.7,506.4 L 434.4,390.0 L 433.0,530.9 L 431.7,498.4 L 430.4,537.5 L 429.0,537.5 L 427.7,537.5 L 426.3,520.9 L 425.0,535.3 L 423.6,537.6 L 422.3,537.6 L 421.0,535.9 L 419.6,529.0 L 418.3,535.4 L 416.9,537.6 L 415.6,535.4 L 414.2,537.7 L 412.9,478.3 L 411.6,501.6 L 410.2,537.7 L 408.9,517.8 L 407.5,524.8 L 406.2,537.8 L 404.8,532.1 L 403.5,537.8 L 402.2,506.9 L 400.8,537.8 L 399.5,529.8 L 398.1,531.9 L 396.8,512.4 L 395.4,514.2 L 394.1,535.7 L 392.8,537.9 L 391.4,536.9 L 390.1,537.9 L 388.7,516.6 L 387.4,515.2 L 386.0,535.7 L 384.7,538.0 L 383.4,538.0 L 382.0,537.0 L 380.7,538.0 L 379.3,532.0 L 378.0,527.0 L 376.6,535.8 L 375.3,538.1 L 374.0,535.9 L 372.6,538.1 L 371.3,538.1 L 369.9,538.1 L 368.6,538.1 L 367.2,535.9 L 365.9,538.2 L 364.6,538.2 L 363.2,524.6 L 361.9,536.0 L 360.5,538.2 L 359.2,538.2 L 357.8,536.4 L 356.5,538.3 L 355.2,538.3 L 353.8,536.1 L 352.5,538.3 L 351.1,536.1 L 349.8,536.1 L 348.4,538.3 L 347.1,538.4 L 345.8,538.4 L 344.4,538.4 L 343.1,538.4 L 341.7,536.2 L 340.4,538.4 L 339.0,538.5 L 337.7,538.5 L 336.4,538.5 L 335.0,538.5 L 333.7,538.5 L 332.3,538.5 L 331.0,538.5 L 329.6,538.5 L 328.3,538.6 L 327.0,538.6 L 325.6,536.4 L 324.3,538.6 L 322.9,538.6 L 321.6,536.4 L 320.2,538.7 L 318.9,538.7 L 317.6,538.7 L 316.2,538.7 L 314.9,538.7 L 313.5,529.0 L 312.2,535.0 L 310.8,533.2 L 309.5,535.8 L 308.2,535.4 L 306.8,535.7 L 305.5,532.7 L 304.1,533.3 L 302.8,533.6 L 301.4,530.6 L 300.1,535.8 L 298.8,528.8 L 297.4,532.5 L 296.1,533.4 L 294.7,524.5 L 293.4,535.5 L 292.0,525.7 L 290.7,524.2 L 289.4,521.3 L 288.0,527.7 L 286.7,519.7 L 285.3,519.5 L 284.0,521.6 L 282.6,520.4 L 281.3,520.3 L 280.0,515.4 L 278.6,514.5 L 277.3,513.6 L 275.9,512.7 L 274.6,510.7 L 273.2,510.3 L 271.9,508.5 L 270.6,506.2 L 269.2,505.3 L 267.9,502.5 L 266.5,501.8 L 265.2,498.6 L 263.8,493.6 L 262.5,475.5 L 261.2,286.6 L 259.8,288.8 L 258.5,288.6 L 257.1,288.5 L 255.8,288.2 L 254.4,287.6 L 253.1,286.9 L 251.8,285.1 L 250.4,282.9 L 249.1,282.8 L 247.7,281.5 L 246.4,273.7 L 245.0,279.8 L 243.7,270.0 L 242.4,283.1 L 241.0,280.6 L 239.7,281.3 L 238.3,270.3 L 237.0,281.8 L 235.6,280.0 L 234.3,282.4 L 233.0,282.3 L 231.6,283.5 L 230.3,282.2 L 228.9,282.2 L 227.6,281.4 L 226.2,285.6 L 224.9,283.8 L 223.6,283.6 L 222.2,281.5 L 220.9,288.0 L 219.5,287.5 L 218.2,291.8 L 216.8,289.7 L 215.5,295.5 L 214.2,296.6 L 212.8,297.2 L 211.5,297.7 L 210.1,255.2 L 208.8,253.4 L 207.4,253.4 L 206.1,252.0 L 204.8,250.2 L 203.4,245.9 L 202.1,248.5 L 200.7,247.1 L 199.4,245.3 L 198.0,235.5 L 196.7,239.5 L 195.4,235.7 L 194.0,234.1 L 192.7,238.6 L 191.3,236.6 L 190.0,232.9 L 188.6,230.9 L 187.3,229.3 L 186.0,227.3 L 184.6,223.7 L 183.3,217.8 L 181.9,213.6 L 180.6,210.6 L 179.2,295.5 L 177.9,295.5 L 176.6,295.5 L 175.2,295.5 L 173.9,295.5 L 172.5,295.5 L 171.2,295.5 L 169.8,295.5 L 168.5,295.5 L 167.2,295.5 L 165.8,295.5 L 164.5,297.7 L 163.1,296.9 L 161.8,295.5 L 160.4,295.4 L 159.1,291.8 L 157.8,287.5 L 156.4,288.0 L 155.1,287.4 L 153.7,281.8 L 152.4,283.8 L 151.0,285.6 L 149.7,281.4 L 148.4,281.7 L 147.0,282.2 L 145.7,282.9 L 144.3,283.5 L 143.0,282.4 L 141.6,282.0 L 140.3,281.8 L 139.0,183.8 L 137.6,189.7 L 136.3,281.3 L 134.9,283.1 L 133.6,282.2 L 132.2,279.8 L 130.9,279.8 L 129.6,281.5 L 128.2,281.6 L 126.9,282.9 L 125.5,283.3 L 124.2,283.6 L 122.8,283.1 L 121.5,283.3 L 120.2,283.5 L 118.8,282.7 L 117.5,281.3 L 116.1,279.7 L 114.8,280.7 L 113.4,282.1 L 112.1,282.5 L 110.8,279.3 L 109.4,279.8 L 108.1,281.0 L 106.7,281.5 L 105.4,281.3 L 104.0,280.9 L 102.7,281.4 L 101.4,280.8 L 100.0,279.7 L 98.7,237.3 L 97.3,281.5 L 96.0,279.8 L 94.6,278.9 L 93.3,281.6 L 92.0,281.0 L 90.6,281.9 L 89.3,281.1 L 87.9,281.1 L 86.6,280.9 L 85.2,271.3 L 83.9,278.8 L 82.6,272.8 L 81.2,272.8 L 79.9,280.2 L 78.5,272.8 L 77.2,281.6 L 75.8,281.9 L 74.5,265.5 L 73.2,265.6 L 71.8,277.2 L 70.5,279.2 L 69.1,279.4 L 67.8,279.9 L 66.4,281.1 L 65.1,281.1 L 63.8,281.7 L 62.4,281.8 Z" fill="#1a6ba0" fill-opacity="0.80" stroke="#0d3d5c" stroke-width="1.5"/>
<text x="755.3" y="154.2" text-anchor="middle" font-family="'OpenDyslexic', 'OpenDyslexicMono', sans-serif" font-size="9" fill="#ffffff">SiK 915 sta 260</text>
<line x1="60.0" y1="580" x2="1140.0" y2="580" stroke="#333333" stroke-width="1.5"/>
<text x="600.0" y="594" text-anchor="middle" font-family="'OpenDyslexic', 'OpenDyslexicMono', sans-serif" font-size="11" fill="#333333">609.6 mm (24.00 in)</text>
</svg>
