<?xml version="1.0" encoding="UTF-8"?>
<svg xmlns="http://www.w3.org/2000/svg" viewBox="0 0 1200 600" width="1200" height="600">
<defs>
  <style>
    @import url('https://fonts.cdnfonts.com/css/opendyslexic');
    text, tspan { font-family: 'OpenDyslexic', 'OpenDyslexicMono', sans-serif; }
  </style>
</defs>
<rect width="1200" height="600" fill="#f8f8f8"/>
<rect x="0" y="0" width="1200" height="36" fill="#0d3d5c"/>
<text x="600" y="24" text-anchor="middle" font-family="'OpenDyslexic', 'OpenDyslexicMono', sans-serif" font-size="14" font-weight="bold" fill="#ffffff">SERENITY-CLASS TILTROTOR UAV — TOP / PLAN VIEW  |  24.00" (609.6 mm)  Rev O</text>
<line x1="60" y1="446.5" x2="1140" y2="446.5" stroke="#cccccc" stroke-width="0.8" stroke-dasharray="8,4"/>
<path d="M 60.5,335.6 L 61.8,412.8 L 63.1,413.5 L 64.4,418.4 L 65.7,418.5 L 67.0,411.4 L 68.2,416.8 L 69.5,416.9 L 70.8,424.1 L 72.1,423.7 L 73.4,411.4 L 74.7,422.3 L 76.0,424.8 L 77.2,425.1 L 78.5,425.4 L 79.8,425.6 L 81.1,425.7 L 82.4,423.5 L 83.7,423.7 L 85.0,427.0 L 86.2,411.4 L 87.5,412.8 L 88.8,425.0 L 90.1,410.2 L 91.4,411.4 L 92.7,411.7 L 94.0,421.0 L 95.2,406.4 L 96.5,406.4 L 97.8,419.2 L 99.1,405.2 L 100.4,429.5 L 101.7,413.6 L 103.0,426.5 L 104.2,427.5 L 105.5,422.2 L 106.8,411.0 L 108.1,430.7 L 109.4,431.4 L 110.7,428.5 L 112.0,429.3 L 113.2,414.7 L 114.5,433.3 L 115.8,421.9 L 117.1,431.1 L 118.4,425.6 L 119.7,412.9 L 121.0,423.7 L 122.2,437.1 L 123.5,388.2 L 124.8,434.7 L 126.1,434.7 L 127.4,336.1 L 128.7,340.1 L 130.0,439.4 L 131.2,429.4 L 132.5,437.0 L 133.8,427.2 L 135.1,334.5 L 136.4,388.2 L 137.7,387.7 L 139.0,440.6 L 140.2,438.1 L 141.5,420.7 L 142.8,419.0 L 144.1,441.8 L 145.4,443.1 L 146.7,442.4 L 148.0,439.9 L 149.2,442.4 L 150.5,439.8 L 151.8,406.3 L 153.1,443.9 L 154.4,445.0 L 155.7,442.4 L 157.0,446.4 L 158.2,449.3 L 159.5,446.4 L 160.8,446.4 L 162.1,446.4 L 163.4,446.4 L 164.7,446.4 L 166.0,446.4 L 167.2,446.4 L 168.5,446.4 L 169.8,446.4 L 171.1,446.4 L 172.4,446.4 L 173.7,406.0 L 175.0,409.8 L 176.2,414.0 L 177.5,417.8 L 178.8,412.4 L 180.1,422.6 L 181.4,426.9 L 182.7,427.1 L 184.0,429.3 L 185.2,430.7 L 186.5,433.7 L 187.8,434.1 L 189.1,434.3 L 190.4,480.2 L 191.7,472.8 L 193.0,480.4 L 194.2,480.6 L 195.5,479.4 L 196.8,480.8 L 198.1,482.7 L 199.4,479.8 L 200.7,479.9 L 202.0,480.1 L 203.2,485.7 L 204.5,487.0 L 205.8,483.0 L 207.1,484.2 L 208.4,487.3 L 209.7,487.2 L 211.0,487.2 L 212.2,457.7 L 213.5,484.4 L 214.8,454.3 L 216.1,482.7 L 217.4,482.7 L 218.7,483.0 L 220.0,484.3 L 221.2,483.6 L 222.5,483.3 L 223.8,476.2 L 225.1,481.0 L 226.4,477.8 L 227.7,475.2 L 229.0,475.3 L 230.2,477.0 L 231.5,471.7 L 232.8,474.6 L 234.1,472.4 L 235.4,470.6 L 236.7,470.1 L 238.0,465.9 L 239.2,460.8 L 240.5,464.4 L 241.8,464.1 L 243.1,465.1 L 244.4,463.4 L 245.7,469.1 L 247.0,469.3 L 248.2,485.5 L 249.5,469.3 L 250.8,482.8 L 252.1,471.6 L 253.4,469.4 L 254.7,468.3 L 256.0,471.1 L 257.2,470.5 L 258.5,473.2 L 259.8,470.9 L 261.1,469.2 L 262.4,470.7 L 263.7,470.5 L 265.0,470.7 L 266.2,472.6 L 267.5,474.3 L 268.8,474.8 L 270.1,477.5 L 271.4,475.1 L 272.7,475.1 L 274.0,473.8 L 275.2,475.9 L 276.5,476.7 L 277.8,488.0 L 279.1,477.7 L 280.4,478.4 L 281.7,478.7 L 283.0,478.5 L 284.2,477.8 L 285.5,477.9 L 286.8,479.9 L 288.1,480.3 L 289.4,480.4 L 290.7,480.4 L 292.0,480.0 L 293.2,479.1 L 294.5,434.0 L 295.8,422.8 L 297.1,418.5 L 298.4,489.9 L 299.7,481.8 L 301.0,412.8 L 302.2,425.7 L 303.5,438.1 L 304.8,479.1 L 306.1,480.3 L 307.4,480.5 L 308.7,480.4 L 310.0,480.2 L 311.2,479.5 L 312.5,476.9 L 313.8,477.8 L 315.1,478.6 L 316.4,478.7 L 317.7,478.4 L 319.0,485.3 L 320.2,488.0 L 321.5,476.7 L 322.8,475.9 L 324.1,474.5 L 325.4,475.1 L 326.7,477.5 L 328.0,474.8 L 329.2,473.9 L 330.5,474.3 L 331.8,470.5 L 333.1,470.7 L 334.4,470.7 L 335.7,470.6 L 337.0,470.9 L 338.2,473.2 L 339.5,468.6 L 340.8,470.5 L 342.1,471.1 L 343.4,469.4 L 344.7,470.5 L 346.0,471.6 L 347.2,482.8 L 348.5,485.5 L 349.8,467.0 L 351.1,469.3 L 352.4,467.4 L 353.7,463.9 L 355.0,465.1 L 356.2,464.4 L 357.5,456.7 L 358.8,460.8 L 360.1,468.4 L 361.4,470.1 L 362.7,470.6 L 364.0,474.6 L 365.2,472.4 L 366.5,477.0 L 367.8,475.3 L 369.1,475.2 L 370.4,477.8 L 371.7,477.7 L 373.0,481.0 L 374.2,476.2 L 375.5,483.6 L 376.8,480.4 L 378.1,484.3 L 379.4,483.0 L 380.7,482.7 L 382.0,482.7 L 383.2,484.4 L 384.5,484.4 L 385.8,484.5 L 387.1,487.2 L 388.4,463.1 L 389.7,487.3 L 390.9,483.0 L 392.2,472.1 L 393.5,487.0 L 394.8,485.7 L 396.1,480.1 L 397.4,479.9 L 398.7,482.7 L 399.9,480.8 L 401.2,477.9 L 402.5,480.6 L 403.8,480.4 L 405.1,458.5 L 406.4,478.5 L 407.7,480.2 L 408.9,434.3 L 410.2,434.0 L 411.5,430.8 L 412.8,430.0 L 414.1,428.2 L 415.4,427.1 L 416.7,423.4 L 417.9,422.6 L 419.2,417.8 L 420.5,415.7 L 421.8,411.9 L 423.1,408.1 L 424.4,248.4 L 425.7,265.7 L 426.9,229.6 L 428.2,217.1 L 429.5,255.1 L 430.8,265.8 L 432.1,289.6 L 433.4,248.5 L 434.7,261.7 L 435.9,279.7 L 437.2,282.3 L 438.5,286.9 L 439.8,289.7 L 441.1,277.8 L 442.4,289.8 L 443.7,281.8 L 444.9,276.8 L 446.2,284.3 L 447.5,287.0 L 448.8,206.8 L 450.1,253.1 L 451.4,289.9 L 452.7,288.3 L 453.9,287.1 L 455.2,289.9 L 456.5,260.9 L 457.8,278.9 L 459.1,285.3 L 460.4,288.1 L 461.7,221.5 L 462.9,287.2 L 464.2,290.0 L 465.5,237.1 L 466.8,287.2 L 468.1,290.0 L 469.4,278.9 L 470.7,287.3 L 471.9,290.1 L 473.2,281.0 L 474.5,287.3 L 475.8,290.1 L 477.1,290.1 L 478.4,287.4 L 479.7,290.2 L 480.9,269.3 L 482.2,287.4 L 483.5,290.2 L 484.8,290.2 L 486.1,280.1 L 487.4,287.5 L 488.7,290.3 L 489.9,290.3 L 491.2,290.3 L 492.5,287.5 L 493.8,287.5 L 495.1,290.4 L 496.4,290.4 L 497.7,290.4 L 498.9,290.4 L 500.2,290.4 L 501.5,290.4 L 502.8,290.4 L 504.1,290.5 L 505.4,290.5 L 506.7,290.5 L 507.9,287.7 L 509.2,290.5 L 510.5,290.5 L 511.8,290.5 L 513.1,290.5 L 514.4,290.6 L 515.7,290.6 L 516.9,282.9 L 518.2,287.8 L 519.5,287.8 L 520.8,290.6 L 522.1,290.6 L 523.4,290.7 L 524.7,290.7 L 525.9,283.1 L 527.2,275.5 L 528.5,271.7 L 529.8,263.3 L 531.1,265.5 L 532.4,264.7 L 533.7,258.9 L 534.9,258.0 L 536.2,254.4 L 537.5,255.7 L 538.8,251.1 L 540.1,252.2 L 541.4,249.7 L 542.7,246.9 L 543.9,247.9 L 545.2,243.5 L 546.5,246.0 L 547.8,243.7 L 549.1,242.6 L 550.4,240.8 L 551.7,239.5 L 552.9,235.7 L 554.2,232.4 L 555.5,228.5 L 556.8,227.2 L 558.1,228.0 L 559.4,221.6 L 560.7,227.9 L 561.9,229.3 L 563.2,227.9 L 564.5,229.2 L 565.8,224.9 L 567.1,229.2 L 568.4,228.9 L 569.7,226.1 L 570.9,226.4 L 572.2,226.7 L 573.5,223.5 L 574.8,223.9 L 576.1,224.5 L 577.4,188.3 L 578.7,190.4 L 579.9,160.7 L 581.2,158.8 L 582.5,156.7 L 583.8,154.7 L 585.1,152.4 L 586.4,149.1 L 587.7,148.2 L 588.9,147.7 L 590.2,147.1 L 591.5,145.9 L 592.8,142.9 L 594.1,146.4 L 595.4,139.1 L 596.7,137.8 L 597.9,137.8 L 599.2,137.8 L 600.5,137.8 L 601.8,137.8 L 603.1,137.8 L 604.4,137.8 L 605.7,137.8 L 606.9,137.8 L 608.2,137.8 L 609.5,137.8 L 610.8,137.8 L 612.1,137.8 L 613.4,137.8 L 614.7,137.8 L 615.9,137.8 L 617.2,137.8 L 618.5,137.8 L 619.8,137.8 L 621.1,137.8 L 622.4,137.8 L 623.7,137.8 L 624.9,137.8 L 626.2,137.8 L 627.5,137.8 L 628.8,137.8 L 630.1,137.8 L 631.4,137.8 L 632.7,137.8 L 633.9,137.8 L 635.2,137.8 L 636.5,137.8 L 637.8,137.8 L 639.1,137.8 L 640.4,137.8 L 641.7,137.8 L 642.9,137.8 L 644.2,137.8 L 645.5,137.8 L 646.8,137.8 L 648.1,137.8 L 649.4,137.8 L 650.7,137.8 L 651.9,137.8 L 653.2,137.8 L 654.5,137.8 L 655.8,137.8 L 657.1,137.8 L 658.4,137.8 L 659.7,137.8 L 660.9,137.8 L 662.2,137.8 L 663.5,137.8 L 664.8,137.8 L 666.1,137.8 L 667.4,137.8 L 668.7,137.8 L 669.9,137.8 L 671.2,137.8 L 672.5,137.8 L 673.8,137.8 L 675.1,137.8 L 676.4,137.8 L 677.7,137.8 L 678.9,137.8 L 680.2,137.8 L 681.5,137.8 L 682.8,137.8 L 684.1,137.8 L 685.4,137.8 L 686.7,137.8 L 687.9,137.8 L 689.2,137.8 L 690.5,137.8 L 691.8,137.8 L 693.1,137.8 L 694.4,137.8 L 695.7,137.8 L 696.9,137.8 L 698.2,137.8 L 699.5,137.8 L 700.8,137.8 L 702.1,137.8 L 703.4,137.8 L 704.7,137.8 L 705.9,137.8 L 707.2,137.8 L 708.5,137.8 L 709.8,137.8 L 711.1,137.8 L 712.4,137.8 L 713.7,137.8 L 714.9,137.8 L 716.2,137.8 L 717.5,137.8 L 718.8,137.8 L 720.1,137.8 L 721.4,137.8 L 722.7,137.8 L 723.9,137.8 L 725.2,137.8 L 726.5,137.8 L 727.8,137.8 L 729.1,137.8 L 730.4,137.8 L 731.7,137.8 L 732.9,137.8 L 734.2,137.8 L 735.5,137.8 L 736.8,137.8 L 738.1,137.8 L 739.4,137.8 L 740.7,137.8 L 741.9,137.8 L 743.2,137.8 L 744.5,137.8 L 745.8,137.8 L 747.1,137.8 L 748.4,137.8 L 749.6,137.8 L 750.9,137.8 L 752.2,137.8 L 753.5,137.8 L 754.8,137.8 L 756.1,137.8 L 757.4,137.8 L 758.6,137.8 L 759.9,137.8 L 761.2,137.8 L 762.5,137.8 L 763.8,137.8 L 765.1,137.8 L 766.4,137.8 L 767.6,137.8 L 768.9,137.8 L 770.2,137.8 L 771.5,137.8 L 772.8,137.8 L 774.1,463.8 L 775.4,473.7 L 776.6,482.9 L 777.9,492.8 L 779.2,482.7 L 780.5,492.6 L 781.8,491.4 L 783.1,472.7 L 784.4,481.6 L 785.6,491.2 L 786.9,455.3 L 788.2,503.2 L 789.5,504.2 L 790.8,475.4 L 792.1,501.4 L 793.4,502.4 L 794.6,503.7 L 795.9,477.2 L 797.2,514.9 L 798.5,515.9 L 799.8,470.1 L 801.1,514.5 L 802.4,513.8 L 803.6,469.0 L 804.9,512.5 L 806.2,487.5 L 807.5,526.1 L 808.8,524.9 L 810.1,523.5 L 811.4,523.7 L 812.6,494.4 L 813.9,502.9 L 815.2,499.8 L 816.5,501.2 L 817.8,501.5 L 819.1,519.4 L 820.4,507.3 L 821.6,517.2 L 822.9,515.3 L 824.2,534.7 L 825.5,529.1 L 826.8,532.0 L 828.1,526.5 L 829.4,527.7 L 830.6,529.6 L 831.9,525.3 L 833.2,528.8 L 834.5,527.0 L 835.8,526.3 L 837.1,519.1 L 838.4,510.4 L 839.6,535.7 L 840.9,518.4 L 842.2,537.2 L 843.5,537.1 L 844.8,536.1 L 846.1,534.3 L 847.4,535.7 L 848.6,533.0 L 849.9,527.0 L 851.2,534.3 L 852.5,532.0 L 853.8,533.2 L 855.1,529.4 L 856.4,530.6 L 857.6,526.3 L 858.9,526.9 L 860.2,526.1 L 861.5,524.2 L 862.8,521.9 L 864.1,528.3 L 865.4,525.8 L 866.6,530.0 L 867.9,528.7 L 869.2,526.2 L 870.5,526.1 L 871.8,528.9 L 873.1,518.0 L 874.4,526.4 L 875.6,516.2 L 876.9,519.6 L 878.2,529.5 L 879.5,528.4 L 880.8,535.6 L 882.1,532.9 L 883.4,523.7 L 884.6,521.6 L 885.9,522.1 L 887.2,530.8 L 888.5,528.2 L 889.8,522.7 L 891.1,524.9 L 892.4,522.5 L 893.6,526.1 L 894.9,523.7 L 896.2,525.1 L 897.5,522.4 L 898.8,522.4 L 900.1,524.9 L 901.4,531.4 L 902.6,528.8 L 903.9,525.9 L 905.2,526.1 L 906.5,526.1 L 907.8,526.1 L 909.1,538.0 L 910.4,535.3 L 911.6,529.6 L 912.9,409.9 L 914.2,523.7 L 915.5,532.7 L 916.8,526.6 L 918.1,467.3 L 919.4,525.6 L 920.6,523.6 L 921.9,526.8 L 923.2,524.4 L 924.5,524.4 L 925.8,470.1 L 927.1,470.1 L 928.4,470.1 L 929.6,518.3 L 930.9,539.8 L 932.2,467.3 L 933.5,470.1 L 934.8,470.1 L 936.1,524.4 L 937.4,524.4 L 938.6,526.8 L 939.9,523.6 L 941.2,526.1 L 942.5,470.1 L 943.8,526.6 L 945.1,532.7 L 946.4,523.7 L 947.6,457.6 L 948.9,529.6 L 950.2,532.2 L 951.5,538.0 L 952.8,526.1 L 954.1,526.1 L 955.4,526.1 L 956.6,525.9 L 957.9,528.8 L 959.2,531.4 L 960.5,524.9 L 961.8,521.6 L 963.1,522.4 L 964.4,525.1 L 965.6,525.9 L 966.9,528.4 L 968.2,523.7 L 969.5,524.9 L 970.8,522.7 L 972.1,528.2 L 973.4,530.8 L 974.6,519.8 L 975.9,522.1 L 977.2,523.7 L 978.5,532.9 L 979.8,535.6 L 981.1,528.4 L 982.4,519.9 L 983.6,529.5 L 984.9,516.2 L 986.2,526.4 L 987.5,519.9 L 988.8,528.9 L 990.1,526.1 L 991.4,526.2 L 992.6,528.7 L 993.9,530.0 L 995.2,525.8 L 996.5,528.3 L 997.8,521.9 L 999.1,524.2 L 1000.4,526.1 L 1001.6,526.9 L 1002.9,526.3 L 1004.2,530.3 L 1005.5,530.6 L 1006.8,533.2 L 1008.1,532.0 L 1009.4,534.3 L 1010.6,527.0 L 1011.9,533.0 L 1013.2,533.4 L 1014.5,535.7 L 1015.8,536.1 L 1017.1,537.1 L 1018.4,537.2 L 1019.6,518.4 L 1020.9,535.7 L 1022.2,516.5 L 1023.5,519.1 L 1024.8,526.3 L 1026.1,527.0 L 1027.4,528.8 L 1028.6,525.3 L 1029.9,529.6 L 1031.2,527.7 L 1032.5,526.5 L 1033.8,532.0 L 1035.1,529.1 L 1036.4,534.7 L 1037.6,515.3 L 1038.9,517.2 L 1040.2,507.3 L 1041.5,519.4 L 1042.8,501.5 L 1044.1,501.2 L 1045.4,499.8 L 1046.6,502.9 L 1047.9,494.4 L 1049.2,523.7 L 1050.5,523.5 L 1051.8,524.9 L 1053.1,526.1 L 1054.4,487.5 L 1055.6,512.5 L 1056.9,469.0 L 1058.2,513.8 L 1059.5,514.5 L 1060.8,454.4 L 1062.1,515.9 L 1063.4,514.9 L 1064.6,477.2 L 1065.9,503.7 L 1067.2,502.4 L 1068.5,501.4 L 1069.8,475.4 L 1071.1,470.8 L 1072.4,504.2 L 1073.6,455.3 L 1074.9,491.2 L 1076.2,481.6 L 1077.5,480.5 L 1078.8,491.4 L 1080.1,492.6 L 1081.4,482.7 L 1082.6,492.8 L 1083.9,482.9 L 1085.2,473.7 L 1086.5,463.8 L 1087.8,462.7 L 1087.8,462.7 L 1086.5,463.8 L 1085.2,444.1 L 1083.9,439.9 L 1082.6,439.8 L 1081.4,440.6 L 1080.1,434.0 L 1078.8,424.1 L 1077.5,440.0 L 1076.2,424.7 L 1074.9,415.7 L 1073.6,431.3 L 1072.4,417.3 L 1071.1,408.1 L 1069.8,406.0 L 1068.5,404.4 L 1067.2,406.9 L 1065.9,406.7 L 1064.6,403.9 L 1063.4,403.3 L 1062.1,407.9 L 1060.8,405.2 L 1059.5,398.9 L 1058.2,402.3 L 1056.9,400.8 L 1055.6,395.3 L 1054.4,388.6 L 1053.1,387.0 L 1051.8,389.3 L 1050.5,390.0 L 1049.2,388.8 L 1047.9,388.7 L 1046.6,391.7 L 1045.4,390.5 L 1044.1,392.1 L 1042.8,384.0 L 1041.5,383.1 L 1040.2,383.4 L 1038.9,385.9 L 1037.6,385.0 L 1036.4,392.7 L 1035.1,400.4 L 1033.8,394.3 L 1032.5,393.9 L 1031.2,377.5 L 1029.9,376.7 L 1028.6,379.6 L 1027.4,378.8 L 1026.1,390.2 L 1024.8,390.4 L 1023.5,391.9 L 1022.2,389.0 L 1020.9,371.4 L 1019.6,371.7 L 1018.4,370.7 L 1017.1,373.0 L 1015.8,373.3 L 1014.5,388.4 L 1013.2,384.7 L 1011.9,383.5 L 1010.6,383.5 L 1009.4,385.4 L 1008.1,366.2 L 1006.8,356.5 L 1005.5,361.6 L 1004.2,352.8 L 1002.9,358.6 L 1001.6,348.8 L 1000.4,352.4 L 999.1,344.7 L 997.8,346.6 L 996.5,349.3 L 995.2,344.5 L 993.9,343.9 L 992.6,338.2 L 991.4,332.3 L 990.1,294.8 L 988.8,295.8 L 987.5,289.3 L 986.2,290.4 L 984.9,282.4 L 983.6,279.7 L 982.4,286.5 L 981.1,276.9 L 979.8,276.3 L 978.5,278.2 L 977.2,274.6 L 975.9,271.8 L 974.6,265.1 L 973.4,267.2 L 972.1,259.2 L 970.8,261.1 L 969.5,256.1 L 968.2,257.4 L 966.9,250.9 L 965.6,256.6 L 964.4,245.5 L 963.1,248.5 L 961.8,247.4 L 960.5,240.4 L 959.2,242.4 L 957.9,237.2 L 956.6,222.9 L 955.4,218.1 L 954.1,217.5 L 952.8,218.2 L 951.5,217.6 L 950.2,217.6 L 948.9,220.2 L 947.6,233.7 L 946.4,208.3 L 945.1,208.3 L 943.8,208.3 L 942.5,211.1 L 941.2,224.6 L 939.9,222.1 L 938.6,218.9 L 937.4,220.0 L 936.1,217.8 L 934.8,219.6 L 933.5,215.3 L 932.2,213.1 L 930.9,212.9 L 929.6,212.6 L 928.4,211.2 L 927.1,209.9 L 925.8,209.0 L 924.5,209.8 L 923.2,208.1 L 921.9,205.5 L 920.6,207.8 L 919.4,204.8 L 918.1,204.6 L 916.8,205.4 L 915.5,205.0 L 914.2,204.1 L 912.9,204.0 L 911.6,204.0 L 910.4,204.0 L 909.1,204.2 L 907.8,204.0 L 906.5,204.0 L 905.2,206.0 L 903.9,206.4 L 902.6,204.6 L 901.4,204.2 L 900.1,204.5 L 898.8,230.7 L 897.5,228.3 L 896.2,204.2 L 894.9,204.6 L 893.6,204.2 L 892.4,204.0 L 891.1,206.0 L 889.8,204.2 L 888.5,203.9 L 887.2,204.0 L 885.9,204.2 L 884.6,204.3 L 883.4,205.1 L 882.1,204.5 L 880.8,204.8 L 879.5,208.1 L 878.2,205.6 L 876.9,208.0 L 875.6,208.8 L 874.4,209.0 L 873.1,209.8 L 871.8,211.4 L 870.5,212.0 L 869.2,212.8 L 867.9,213.1 L 866.6,218.6 L 865.4,221.9 L 864.1,216.0 L 862.8,220.0 L 861.5,218.9 L 860.2,221.5 L 858.9,224.6 L 857.6,227.1 L 856.4,226.7 L 855.1,224.7 L 853.8,226.4 L 852.5,226.8 L 851.2,227.6 L 849.9,226.4 L 848.6,226.7 L 847.4,226.7 L 846.1,226.7 L 844.8,227.4 L 843.5,226.7 L 842.2,226.5 L 840.9,224.6 L 839.6,214.2 L 838.4,214.2 L 837.1,211.5 L 835.8,211.5 L 834.5,222.2 L 833.2,226.7 L 831.9,227.2 L 830.6,226.9 L 829.4,226.6 L 828.1,227.4 L 826.8,226.8 L 825.5,226.6 L 824.2,226.8 L 822.9,226.6 L 821.6,226.6 L 820.4,226.8 L 819.1,226.6 L 817.8,227.0 L 816.5,227.0 L 815.2,261.9 L 813.9,286.2 L 812.6,285.2 L 811.4,285.1 L 810.1,298.5 L 808.8,284.1 L 807.5,297.5 L 806.2,300.6 L 804.9,297.1 L 803.6,300.2 L 802.4,299.8 L 801.1,301.0 L 799.8,315.6 L 798.5,311.8 L 797.2,311.4 L 795.9,312.8 L 794.6,317.1 L 793.4,326.0 L 792.1,414.5 L 790.8,325.6 L 789.5,329.2 L 788.2,417.3 L 786.9,431.3 L 785.6,388.4 L 784.4,425.8 L 783.1,440.0 L 781.8,424.1 L 780.5,435.1 L 779.2,440.6 L 777.9,439.8 L 776.6,439.9 L 775.4,445.3 L 774.1,462.7 L 772.8,107.8 L 771.5,107.8 L 770.2,107.8 L 768.9,107.8 L 767.6,107.8 L 766.4,107.8 L 765.1,107.8 L 763.8,107.8 L 762.5,107.8 L 761.2,107.8 L 759.9,107.8 L 758.6,107.8 L 757.4,107.8 L 756.1,107.8 L 754.8,107.8 L 753.5,107.8 L 752.2,107.8 L 750.9,107.8 L 749.6,107.8 L 748.4,107.8 L 747.1,107.8 L 745.8,107.8 L 744.5,107.8 L 743.2,107.8 L 741.9,107.8 L 740.7,107.8 L 739.4,107.8 L 738.1,107.8 L 736.8,107.8 L 735.5,107.8 L 734.2,107.8 L 732.9,107.8 L 731.7,107.8 L 730.4,107.8 L 729.1,107.8 L 727.8,107.8 L 726.5,107.8 L 725.2,107.8 L 723.9,107.8 L 722.7,107.8 L 721.4,107.8 L 720.1,107.8 L 718.8,107.8 L 717.5,107.8 L 716.2,107.8 L 714.9,107.8 L 713.7,107.8 L 712.4,107.8 L 711.1,107.8 L 709.8,107.8 L 708.5,107.8 L 707.2,107.8 L 705.9,107.8 L 704.7,107.8 L 703.4,107.8 L 702.1,107.8 L 700.8,107.8 L 699.5,107.8 L 698.2,107.8 L 696.9,107.8 L 695.7,107.8 L 694.4,107.8 L 693.1,107.8 L 691.8,107.8 L 690.5,107.8 L 689.2,107.8 L 687.9,107.8 L 686.7,107.8 L 685.4,107.8 L 684.1,107.8 L 682.8,107.8 L 681.5,107.8 L 680.2,107.8 L 678.9,107.8 L 677.7,107.8 L 676.4,107.8 L 675.1,107.8 L 673.8,107.8 L 672.5,107.8 L 671.2,107.8 L 669.9,107.8 L 668.7,107.8 L 667.4,107.8 L 666.1,107.8 L 664.8,107.8 L 663.5,107.8 L 662.2,107.8 L 660.9,107.8 L 659.7,107.8 L 658.4,107.8 L 657.1,107.8 L 655.8,107.8 L 654.5,107.8 L 653.2,107.8 L 651.9,107.8 L 650.7,107.8 L 649.4,107.8 L 648.1,107.8 L 646.8,107.8 L 645.5,107.8 L 644.2,107.8 L 642.9,107.8 L 641.7,107.8 L 640.4,107.8 L 639.1,107.8 L 637.8,107.8 L 636.5,107.8 L 635.2,107.8 L 633.9,107.8 L 632.7,107.8 L 631.4,107.8 L 630.1,107.8 L 628.8,107.8 L 627.5,107.8 L 626.2,107.8 L 624.9,107.8 L 623.7,107.8 L 622.4,107.8 L 621.1,107.8 L 619.8,107.8 L 618.5,107.8 L 617.2,107.8 L 615.9,107.8 L 614.7,107.8 L 613.4,107.8 L 612.1,107.8 L 610.8,107.8 L 609.5,107.8 L 608.2,107.8 L 606.9,107.8 L 605.7,107.8 L 604.4,107.8 L 603.1,107.8 L 601.8,107.8 L 600.5,107.8 L 599.2,107.8 L 597.9,107.8 L 596.7,107.8 L 595.4,103.9 L 594.1,98.0 L 592.8,97.4 L 591.5,95.2 L 590.2,94.4 L 588.9,91.7 L 587.7,92.7 L 586.4,90.0 L 585.1,89.0 L 583.8,88.1 L 582.5,86.2 L 581.2,85.0 L 579.9,80.8 L 578.7,82.6 L 577.4,83.3 L 576.1,74.6 L 574.8,81.8 L 573.5,80.3 L 572.2,77.1 L 570.9,66.6 L 569.7,77.2 L 568.4,75.0 L 567.1,69.3 L 565.8,66.2 L 564.5,71.4 L 563.2,72.0 L 561.9,68.9 L 560.7,68.6 L 559.4,66.1 L 558.1,67.8 L 556.8,66.5 L 555.5,66.0 L 554.2,66.8 L 552.9,67.6 L 551.7,68.7 L 550.4,62.9 L 549.1,62.9 L 547.8,62.9 L 546.5,62.9 L 545.2,65.7 L 543.9,62.9 L 542.7,62.9 L 541.4,65.6 L 540.1,62.8 L 538.8,69.9 L 537.5,62.8 L 536.2,62.8 L 534.9,63.8 L 533.7,65.5 L 532.4,62.7 L 531.1,62.7 L 529.8,62.7 L 528.5,62.7 L 527.2,62.7 L 525.9,65.5 L 524.7,65.4 L 523.4,62.6 L 522.1,62.6 L 520.8,62.6 L 519.5,62.6 L 518.2,62.6 L 516.9,65.4 L 515.7,62.5 L 514.4,62.5 L 513.1,62.5 L 511.8,62.5 L 510.5,65.3 L 509.2,62.5 L 507.9,62.5 L 506.7,65.2 L 505.4,65.2 L 504.1,69.0 L 502.8,62.4 L 501.5,71.6 L 500.2,65.2 L 498.9,68.7 L 497.7,62.3 L 496.4,63.4 L 495.1,62.3 L 493.8,62.3 L 492.5,91.1 L 491.2,65.1 L 489.9,73.4 L 488.7,68.3 L 487.4,62.2 L 486.1,64.6 L 484.8,62.2 L 483.5,62.2 L 482.2,65.0 L 480.9,62.2 L 479.7,62.1 L 478.4,64.9 L 477.1,62.1 L 475.8,62.9 L 474.5,62.1 L 473.2,63.2 L 471.9,62.1 L 470.7,64.8 L 469.4,62.5 L 468.1,62.0 L 466.8,62.0 L 465.5,64.8 L 464.2,62.0 L 462.9,63.0 L 461.7,61.9 L 460.4,65.4 L 459.1,65.4 L 457.8,68.1 L 456.5,71.0 L 455.2,61.9 L 453.9,64.7 L 452.7,61.8 L 451.4,63.1 L 450.1,61.8 L 448.8,62.6 L 447.5,65.4 L 446.2,61.8 L 444.9,64.6 L 443.7,61.7 L 442.4,61.7 L 441.1,61.7 L 439.8,70.9 L 438.5,74.2 L 437.2,77.8 L 435.9,119.7 L 434.7,61.7 L 433.4,61.6 L 432.1,72.2 L 430.8,68.2 L 429.5,72.9 L 428.2,66.5 L 426.9,61.6 L 425.7,71.5 L 424.4,61.5 L 423.1,61.5 L 421.8,111.5 L 420.5,63.2 L 419.2,61.5 L 417.9,92.8 L 416.7,210.1 L 415.4,68.0 L 414.1,101.2 L 412.8,61.4 L 411.5,61.4 L 410.2,61.4 L 408.9,78.6 L 407.7,64.1 L 406.4,61.3 L 405.1,61.3 L 403.8,63.0 L 402.5,70.5 L 401.2,64.1 L 399.9,61.3 L 398.7,64.0 L 397.4,61.2 L 396.1,121.2 L 394.8,64.0 L 393.5,61.2 L 392.2,81.7 L 390.9,74.7 L 389.7,61.1 L 388.4,66.8 L 387.1,61.1 L 385.8,92.3 L 384.5,61.1 L 383.2,69.7 L 382.0,67.0 L 380.7,87.2 L 379.4,84.9 L 378.1,63.8 L 376.8,61.0 L 375.5,62.0 L 374.2,61.0 L 373.0,82.5 L 371.7,83.9 L 370.4,63.7 L 369.1,60.9 L 367.8,60.9 L 366.5,61.9 L 365.2,60.9 L 364.0,66.9 L 362.7,72.0 L 361.4,63.6 L 360.1,60.8 L 358.8,64.7 L 357.5,60.8 L 356.2,60.8 L 355.0,60.8 L 353.7,60.7 L 352.4,63.5 L 351.1,60.7 L 349.8,60.7 L 348.5,63.5 L 347.2,72.4 L 346.0,60.7 L 344.7,60.6 L 343.4,62.5 L 342.1,60.6 L 340.8,60.6 L 339.5,64.6 L 338.2,60.6 L 337.0,63.4 L 335.7,63.3 L 334.4,60.5 L 333.1,60.5 L 331.8,60.5 L 330.5,60.5 L 329.2,60.5 L 328.0,63.2 L 326.7,60.4 L 325.4,60.4 L 324.1,60.4 L 322.8,60.4 L 321.5,60.4 L 320.2,60.4 L 319.0,60.4 L 317.7,60.3 L 316.4,60.3 L 315.1,60.3 L 313.8,60.3 L 312.5,63.1 L 311.2,60.3 L 310.0,60.3 L 308.7,63.0 L 307.4,60.2 L 306.1,60.2 L 304.8,60.2 L 303.5,60.2 L 302.2,60.2 L 301.0,65.9 L 299.7,64.0 L 298.4,67.6 L 297.1,63.1 L 295.8,63.5 L 294.5,63.2 L 293.2,66.2 L 292.0,65.6 L 290.7,65.9 L 289.4,68.3 L 288.1,63.1 L 286.8,70.2 L 285.5,66.1 L 284.2,71.8 L 283.0,74.5 L 281.7,63.4 L 280.4,73.8 L 279.1,80.4 L 277.8,77.7 L 276.5,71.3 L 275.2,80.4 L 274.0,79.5 L 272.7,77.4 L 271.4,78.7 L 270.1,78.8 L 268.8,83.7 L 267.5,84.6 L 266.2,85.5 L 265.0,86.4 L 263.7,88.4 L 262.4,88.9 L 261.1,90.7 L 259.8,93.0 L 258.5,93.9 L 257.2,96.7 L 256.0,97.4 L 254.7,100.6 L 253.4,105.7 L 252.1,123.9 L 250.8,315.4 L 249.5,312.4 L 248.2,312.6 L 247.0,312.8 L 245.7,313.1 L 244.4,313.7 L 243.1,314.4 L 241.8,316.2 L 240.5,318.4 L 239.2,318.5 L 238.0,319.8 L 236.7,321.9 L 235.4,322.0 L 234.1,331.9 L 232.8,318.2 L 231.5,321.3 L 230.2,320.5 L 229.0,330.5 L 227.7,319.5 L 226.4,321.7 L 225.1,318.9 L 223.8,319.0 L 222.5,317.8 L 221.2,319.1 L 220.0,319.1 L 218.7,319.9 L 217.4,315.6 L 216.1,317.7 L 214.8,317.7 L 213.5,319.8 L 212.2,313.2 L 211.0,313.8 L 209.7,309.4 L 208.4,312.0 L 207.1,305.7 L 205.8,304.6 L 204.5,304.0 L 203.2,303.5 L 202.0,346.4 L 200.7,348.2 L 199.4,348.1 L 198.1,349.6 L 196.8,351.4 L 195.5,357.7 L 194.2,353.1 L 193.0,354.6 L 191.7,356.3 L 190.4,366.3 L 189.1,362.2 L 187.8,366.3 L 186.5,368.9 L 185.2,363.2 L 184.0,365.2 L 182.7,368.8 L 181.4,370.9 L 180.1,372.5 L 178.8,374.5 L 177.5,378.1 L 176.2,384.1 L 175.0,388.4 L 173.7,391.3 L 172.4,306.3 L 171.1,306.3 L 169.8,306.3 L 168.5,306.3 L 167.2,306.3 L 166.0,306.3 L 164.7,306.3 L 163.4,306.3 L 162.1,306.3 L 160.8,306.3 L 159.5,306.3 L 158.2,303.5 L 157.0,304.2 L 155.7,305.7 L 154.4,305.8 L 153.1,309.4 L 151.8,313.8 L 150.5,313.2 L 149.2,313.8 L 148.0,319.6 L 146.7,317.7 L 145.4,315.6 L 144.1,319.9 L 142.8,319.6 L 141.5,319.1 L 140.2,318.4 L 139.0,317.8 L 137.7,318.9 L 136.4,319.3 L 135.1,319.5 L 133.8,418.1 L 132.5,320.5 L 131.2,321.1 L 130.0,318.2 L 128.7,319.1 L 127.4,322.0 L 126.1,319.8 L 124.8,319.8 L 123.5,319.7 L 122.2,318.4 L 121.0,318.0 L 119.7,317.7 L 118.4,318.2 L 117.1,318.0 L 115.8,317.8 L 114.5,318.6 L 113.2,320.0 L 112.0,321.4 L 110.7,321.0 L 109.4,319.2 L 108.1,318.8 L 106.8,322.4 L 105.5,322.0 L 104.2,320.3 L 103.0,319.8 L 101.7,320.0 L 100.4,320.4 L 99.1,319.9 L 97.8,320.5 L 96.5,324.5 L 95.2,324.5 L 94.0,319.8 L 92.7,322.3 L 91.4,322.4 L 90.1,319.7 L 88.8,320.3 L 87.5,319.4 L 86.2,320.2 L 85.0,320.2 L 83.7,320.4 L 82.4,330.5 L 81.1,322.5 L 79.8,328.6 L 78.5,321.6 L 77.2,328.6 L 76.0,328.6 L 74.7,319.8 L 73.4,319.4 L 72.1,335.9 L 70.8,324.6 L 69.5,322.6 L 68.2,322.4 L 67.0,322.4 L 65.7,321.7 L 64.4,320.2 L 63.1,320.2 L 61.8,319.6 L 60.5,319.5 Z" fill="#1a6ba0" fill-opacity="0.80" stroke="#0d3d5c" stroke-width="1.5"/>
<path d="M 619.3,312.9 L 620.2,302.9 L 621.0,320.6 L 621.8,317.3 L 622.7,326.3 L 623.5,328.2 L 624.3,325.4 L 625.2,327.0 L 626.0,328.9 L 626.8,328.4 L 627.7,327.3 L 628.5,334.4 L 629.3,334.7 L 630.2,340.4 L 631.0,341.5 L 631.8,341.9 L 632.7,342.2 L 633.5,342.3 L 634.3,342.4 L 635.2,342.3 L 636.0,342.2 L 636.8,341.8 L 637.7,341.4 L 638.5,340.9 L 639.3,340.7 L 640.2,340.1 L 641.0,339.8 L 641.8,339.8 L 642.7,339.1 L 643.5,341.4 L 644.3,345.3 L 645.2,346.1 L 646.0,346.2 L 646.8,343.4 L 647.7,345.6 L 648.5,344.3 L 649.3,341.5 L 650.2,343.7 L 651.0,361.4 L 651.8,342.3 L 652.7,354.2 L 653.5,358.6 L 654.3,350.1 L 655.2,347.0 L 656.0,361.3 L 656.8,350.5 L 657.7,354.1 L 658.5,358.5 L 659.3,349.9 L 660.2,346.3 L 661.0,347.8 L 661.8,345.5 L 662.7,346.6 L 663.5,353.6 L 664.3,352.8 L 665.2,352.6 L 666.0,355.2 L 666.8,355.5 L 667.7,355.5 L 668.5,354.8 L 669.3,352.8 L 670.2,354.7 L 671.0,355.1 L 671.8,354.4 L 672.7,352.0 L 673.5,348.0 L 674.3,347.0 L 675.2,352.7 L 676.0,352.8 L 676.9,354.7 L 677.7,354.8 L 678.5,352.0 L 679.4,355.7 L 680.2,355.8 L 681.0,352.5 L 681.9,349.8 L 682.7,349.4 L 683.5,349.5 L 684.4,350.4 L 685.2,349.8 L 686.0,345.4 L 686.9,353.6 L 687.7,352.5 L 688.5,351.9 L 689.4,352.2 L 690.2,355.2 L 691.0,353.6 L 691.9,356.1 L 692.7,352.3 L 693.5,349.8 L 694.4,349.5 L 695.2,349.5 L 696.0,345.5 L 696.9,350.5 L 697.7,352.8 L 698.5,352.9 L 699.4,351.0 L 700.2,350.3 L 701.0,351.0 L 701.9,352.3 L 702.7,353.3 L 703.5,353.9 L 704.4,354.7 L 705.2,353.4 L 706.0,346.7 L 706.9,347.7 L 707.7,348.6 L 708.5,350.8 L 709.4,351.0 L 710.2,350.2 L 711.0,350.9 L 711.9,352.5 L 712.7,353.3 L 713.5,350.8 L 714.4,351.0 L 715.2,352.4 L 716.0,353.3 L 716.9,353.2 L 717.7,352.9 L 718.5,347.5 L 719.4,351.1 L 720.2,347.9 L 721.0,344.0 L 721.9,352.0 L 722.7,356.4 L 723.5,346.0 L 724.4,354.4 L 725.2,359.1 L 726.0,347.5 L 726.9,356.3 L 727.7,343.0 L 728.5,341.5 L 729.4,343.7 L 730.2,359.0 L 731.1,340.1 L 731.9,341.3 L 732.7,344.2 L 733.6,340.8 L 734.4,341.7 L 735.2,343.0 L 736.1,342.0 L 736.9,338.0 L 737.7,337.3 L 738.6,334.8 L 739.4,336.2 L 740.2,333.7 L 741.1,338.7 L 741.9,334.3 L 742.7,335.9 L 743.6,337.6 L 744.4,329.6 L 745.2,330.8 L 746.1,331.9 L 746.9,330.9 L 747.7,337.7 L 748.6,341.7 L 749.4,329.3 L 750.2,328.9 L 751.1,320.3 L 751.9,334.8 L 752.7,343.5 L 753.6,343.5 L 754.4,343.5 L 755.2,343.5 L 756.1,343.5 L 756.9,343.5 L 757.7,343.5 L 758.6,343.5 L 759.4,343.5 L 760.2,343.5 L 761.1,343.5 L 761.9,343.5 L 762.7,343.5 L 763.6,343.5 L 764.4,343.5 L 765.2,343.5 L 766.1,343.5 L 766.9,343.5 L 767.7,343.5 L 768.6,343.5 L 769.4,343.5 L 770.2,343.5 L 771.1,343.5 L 771.9,343.5 L 772.7,343.5 L 773.6,343.5 L 774.4,343.5 L 775.2,343.5 L 776.1,343.5 L 776.9,343.5 L 777.7,343.5 L 778.6,343.5 L 779.4,343.5 L 780.2,343.5 L 781.1,343.5 L 781.9,343.5 L 782.7,343.5 L 783.6,343.5 L 784.4,343.5 L 785.2,343.5 L 786.1,343.5 L 786.9,343.5 L 787.8,343.5 L 788.6,343.5 L 789.4,343.5 L 790.3,343.5 L 791.1,343.5 L 791.9,343.5 L 792.8,343.5 L 793.6,343.5 L 794.4,343.5 L 795.3,343.5 L 796.1,343.5 L 796.9,343.5 L 797.8,343.5 L 798.6,343.5 L 799.4,343.5 L 800.3,343.5 L 801.1,343.5 L 801.9,343.5 L 802.8,343.5 L 803.6,343.5 L 804.4,343.5 L 805.3,343.5 L 806.1,343.5 L 806.9,343.5 L 807.8,343.5 L 808.6,343.5 L 809.4,343.5 L 810.3,343.5 L 811.1,343.5 L 811.9,343.5 L 812.8,343.5 L 813.6,343.5 L 814.4,343.5 L 815.3,343.5 L 816.1,343.5 L 816.9,343.5 L 817.8,343.5 L 818.6,334.8 L 819.4,320.3 L 820.3,328.9 L 821.1,329.3 L 821.9,341.7 L 822.8,337.7 L 823.6,330.9 L 824.4,331.9 L 825.3,330.8 L 826.1,329.6 L 826.9,337.6 L 827.8,335.9 L 828.6,334.3 L 829.4,338.7 L 830.3,333.7 L 831.1,336.2 L 831.9,334.8 L 832.8,337.3 L 833.6,338.0 L 834.4,342.0 L 835.3,343.0 L 836.1,341.7 L 836.9,340.8 L 837.8,344.2 L 838.6,341.3 L 839.4,340.1 L 840.3,359.0 L 841.1,343.7 L 842.0,341.5 L 842.8,343.0 L 843.6,356.3 L 844.5,347.5 L 845.3,359.1 L 846.1,354.4 L 847.0,346.0 L 847.8,356.4 L 848.6,352.0 L 849.5,344.0 L 850.3,347.9 L 851.1,351.1 L 852.0,347.5 L 852.8,352.9 L 853.6,353.2 L 854.5,353.3 L 855.3,352.4 L 856.1,351.0 L 857.0,350.8 L 857.8,353.3 L 858.6,352.5 L 859.5,350.9 L 860.3,350.2 L 861.1,351.0 L 862.0,350.8 L 862.8,348.6 L 863.6,347.7 L 864.5,346.7 L 865.3,353.4 L 866.1,354.7 L 867.0,353.9 L 867.8,353.3 L 868.6,352.3 L 869.5,351.0 L 870.3,350.3 L 871.1,351.0 L 872.0,352.9 L 872.8,352.8 L 873.6,350.5 L 874.5,345.5 L 875.3,349.5 L 876.1,349.5 L 877.0,349.8 L 877.8,352.3 L 878.6,356.1 L 879.5,353.6 L 880.3,355.2 L 881.1,352.2 L 882.0,351.9 L 882.8,352.5 L 883.6,353.6 L 884.5,345.4 L 885.3,349.8 L 886.1,350.4 L 887.0,349.5 L 887.8,349.4 L 888.6,349.8 L 889.5,352.5 L 890.3,355.8 L 891.1,355.7 L 892.0,352.0 L 892.8,354.8 L 893.6,354.7 L 894.5,352.8 L 895.3,352.7 L 896.1,347.0 L 897.0,348.0 L 897.8,352.0 L 898.7,354.4 L 899.5,355.1 L 900.3,354.7 L 901.2,352.8 L 902.0,354.8 L 902.8,355.5 L 903.7,355.5 L 904.5,355.2 L 905.3,352.6 L 906.2,352.8 L 907.0,353.6 L 907.8,346.6 L 908.7,345.5 L 909.5,347.8 L 910.3,346.3 L 911.2,349.9 L 912.0,358.5 L 912.8,354.1 L 913.7,350.5 L 914.5,361.3 L 915.3,347.0 L 916.2,350.1 L 917.0,358.6 L 917.8,354.2 L 918.7,342.3 L 919.5,361.4 L 920.3,343.7 L 921.2,341.5 L 922.0,344.3 L 922.8,345.6 L 923.7,343.4 L 924.5,346.2 L 925.3,346.1 L 926.2,345.3 L 927.0,341.4 L 927.8,339.1 L 928.7,339.8 L 929.5,339.8 L 930.3,340.1 L 931.2,340.7 L 932.0,340.9 L 932.8,341.4 L 933.7,341.8 L 934.5,342.2 L 935.3,342.3 L 936.2,342.4 L 937.0,342.3 L 937.8,342.2 L 938.7,341.9 L 939.5,341.5 L 940.3,340.4 L 941.2,334.7 L 942.0,334.4 L 942.8,327.3 L 943.7,328.4 L 944.5,328.9 L 945.3,327.0 L 946.2,325.4 L 947.0,328.2 L 947.8,326.3 L 948.7,317.3 L 949.5,320.6 L 950.3,302.9 L 951.2,312.9 L 952.0,304.4 L 952.0,304.4 L 951.2,297.0 L 950.3,302.9 L 949.5,294.7 L 948.7,293.9 L 947.8,292.9 L 947.0,294.7 L 946.2,298.1 L 945.3,290.0 L 944.5,294.8 L 943.7,290.5 L 942.8,290.5 L 942.0,297.8 L 941.2,289.1 L 940.3,287.1 L 939.5,284.6 L 938.7,286.1 L 937.8,290.6 L 937.0,288.7 L 936.2,295.0 L 935.3,284.2 L 934.5,290.3 L 933.7,282.9 L 932.8,281.3 L 932.0,286.0 L 931.2,280.4 L 930.3,281.8 L 929.5,283.2 L 928.7,284.8 L 927.8,282.4 L 927.0,278.5 L 926.2,278.0 L 925.3,286.4 L 924.5,279.7 L 923.7,280.7 L 922.8,276.6 L 922.0,280.5 L 921.2,280.2 L 920.3,276.2 L 919.5,275.2 L 918.7,282.2 L 917.8,278.5 L 917.0,273.4 L 916.2,272.9 L 915.3,279.3 L 914.5,271.0 L 913.7,270.3 L 912.8,269.8 L 912.0,269.6 L 911.2,270.3 L 910.3,268.5 L 909.5,268.5 L 908.7,269.3 L 907.8,271.2 L 907.0,267.5 L 906.2,270.3 L 905.3,272.8 L 904.5,267.8 L 903.7,270.2 L 902.8,270.6 L 902.0,268.9 L 901.2,271.7 L 900.3,271.1 L 899.5,267.7 L 898.7,268.1 L 897.8,269.9 L 897.0,267.2 L 896.1,270.0 L 895.3,267.0 L 894.5,272.7 L 893.6,269.6 L 892.8,272.2 L 892.0,282.1 L 891.1,268.8 L 890.3,271.5 L 889.5,267.7 L 888.6,273.4 L 887.8,267.2 L 887.0,267.2 L 886.1,280.4 L 885.3,267.6 L 884.5,268.7 L 883.6,272.7 L 882.8,278.2 L 882.0,269.5 L 881.1,281.1 L 880.3,280.0 L 879.5,281.1 L 878.6,278.9 L 877.8,273.1 L 877.0,271.6 L 876.1,269.6 L 875.3,267.4 L 874.5,266.6 L 873.6,270.5 L 872.8,271.3 L 872.0,272.1 L 871.1,271.3 L 870.3,272.3 L 869.5,270.3 L 868.6,270.9 L 867.8,268.1 L 867.0,269.7 L 866.1,267.1 L 865.3,268.5 L 864.5,267.0 L 863.6,268.8 L 862.8,268.2 L 862.0,269.0 L 861.1,270.2 L 860.3,269.2 L 859.5,271.9 L 858.6,273.7 L 857.8,271.8 L 857.0,272.9 L 856.1,272.6 L 855.3,280.8 L 854.5,278.2 L 853.6,278.7 L 852.8,278.7 L 852.0,277.4 L 851.1,277.6 L 850.3,277.9 L 849.5,275.0 L 848.6,275.3 L 847.8,281.2 L 847.0,283.5 L 846.1,282.5 L 845.3,282.4 L 844.5,284.1 L 843.6,281.7 L 842.8,280.9 L 842.0,281.2 L 841.1,282.2 L 840.3,282.1 L 839.4,282.0 L 838.6,279.1 L 837.8,281.6 L 836.9,286.1 L 836.1,289.6 L 835.3,289.4 L 834.4,284.3 L 833.6,287.0 L 832.8,288.3 L 831.9,287.8 L 831.1,282.4 L 830.3,285.3 L 829.4,287.8 L 828.6,290.2 L 827.8,293.0 L 826.9,294.5 L 826.1,294.7 L 825.3,288.6 L 824.4,294.2 L 823.6,294.1 L 822.8,300.6 L 821.9,304.9 L 821.1,295.7 L 820.3,301.4 L 819.4,305.2 L 818.6,304.6 L 817.8,317.7 L 816.9,317.7 L 816.1,317.7 L 815.3,317.7 L 814.4,317.7 L 813.6,317.7 L 812.8,317.7 L 811.9,317.7 L 811.1,317.7 L 810.3,317.7 L 809.4,317.7 L 808.6,317.7 L 807.8,317.7 L 806.9,317.7 L 806.1,317.7 L 805.3,317.7 L 804.4,317.7 L 803.6,317.7 L 802.8,317.7 L 801.9,317.7 L 801.1,317.7 L 800.3,317.7 L 799.4,317.7 L 798.6,317.7 L 797.8,317.7 L 796.9,317.7 L 796.1,317.7 L 795.3,317.7 L 794.4,317.7 L 793.6,317.7 L 792.8,317.7 L 791.9,317.7 L 791.1,317.7 L 790.3,317.7 L 789.4,317.7 L 788.6,317.7 L 787.8,317.7 L 786.9,317.7 L 786.1,317.7 L 785.2,317.7 L 784.4,317.7 L 783.6,317.7 L 782.7,317.7 L 781.9,317.7 L 781.1,317.7 L 780.2,317.7 L 779.4,317.7 L 778.6,317.7 L 777.7,317.7 L 776.9,317.7 L 776.1,317.7 L 775.2,317.7 L 774.4,317.7 L 773.6,317.7 L 772.7,317.7 L 771.9,317.7 L 771.1,317.7 L 770.2,317.7 L 769.4,317.7 L 768.6,317.7 L 767.7,317.7 L 766.9,317.7 L 766.1,317.7 L 765.2,317.7 L 764.4,317.7 L 763.6,317.7 L 762.7,317.7 L 761.9,317.7 L 761.1,317.7 L 760.2,317.7 L 759.4,317.7 L 758.6,317.7 L 757.7,317.7 L 756.9,317.7 L 756.1,317.7 L 755.2,317.7 L 754.4,317.7 L 753.6,317.7 L 752.7,317.7 L 751.9,304.6 L 751.1,305.2 L 750.2,301.4 L 749.4,295.7 L 748.6,304.9 L 747.7,300.6 L 746.9,294.1 L 746.1,294.2 L 745.2,288.6 L 744.4,294.7 L 743.6,294.5 L 742.7,293.0 L 741.9,290.2 L 741.1,287.8 L 740.2,285.3 L 739.4,282.4 L 738.6,287.8 L 737.7,288.3 L 736.9,287.0 L 736.1,284.3 L 735.2,289.4 L 734.4,289.6 L 733.6,286.1 L 732.7,281.6 L 731.9,279.1 L 731.1,282.0 L 730.2,282.1 L 729.4,282.2 L 728.5,281.2 L 727.7,280.9 L 726.9,281.7 L 726.0,284.1 L 725.2,282.4 L 724.4,282.5 L 723.5,283.5 L 722.7,281.2 L 721.9,275.3 L 721.0,275.0 L 720.2,277.9 L 719.4,277.6 L 718.5,277.4 L 717.7,278.7 L 716.9,278.7 L 716.0,278.2 L 715.2,280.8 L 714.4,272.6 L 713.5,272.9 L 712.7,271.8 L 711.9,273.7 L 711.0,271.9 L 710.2,269.2 L 709.4,270.2 L 708.5,269.0 L 707.7,268.2 L 706.9,268.8 L 706.0,267.0 L 705.2,268.5 L 704.4,267.1 L 703.5,269.7 L 702.7,268.1 L 701.9,270.9 L 701.0,270.3 L 700.2,272.3 L 699.4,271.3 L 698.5,272.1 L 697.7,271.3 L 696.9,270.5 L 696.0,266.6 L 695.2,267.4 L 694.4,269.6 L 693.5,271.6 L 692.7,273.1 L 691.9,278.9 L 691.0,281.1 L 690.2,280.0 L 689.4,281.1 L 688.5,269.5 L 687.7,278.2 L 686.9,272.7 L 686.0,268.7 L 685.2,267.6 L 684.4,280.4 L 683.5,267.2 L 682.7,267.2 L 681.9,273.4 L 681.0,267.7 L 680.2,271.5 L 679.4,268.8 L 678.5,282.1 L 677.7,272.2 L 676.9,269.6 L 676.0,272.7 L 675.2,267.0 L 674.3,270.0 L 673.5,267.2 L 672.7,269.9 L 671.8,268.1 L 671.0,267.7 L 670.2,271.1 L 669.3,271.7 L 668.5,268.9 L 667.7,270.6 L 666.8,270.2 L 666.0,267.8 L 665.2,272.8 L 664.3,270.3 L 663.5,267.5 L 662.7,271.2 L 661.8,269.3 L 661.0,268.5 L 660.2,268.5 L 659.3,270.3 L 658.5,269.6 L 657.7,269.8 L 656.8,270.3 L 656.0,271.0 L 655.2,279.3 L 654.3,272.9 L 653.5,273.4 L 652.7,278.5 L 651.8,282.2 L 651.0,275.2 L 650.2,276.2 L 649.3,280.2 L 648.5,280.5 L 647.7,276.6 L 646.8,280.7 L 646.0,279.7 L 645.2,286.4 L 644.3,278.0 L 643.5,278.5 L 642.7,282.4 L 641.8,284.8 L 641.0,283.2 L 640.2,281.8 L 639.3,280.4 L 638.5,286.0 L 637.7,281.3 L 636.8,282.9 L 636.0,290.3 L 635.2,284.2 L 634.3,295.0 L 633.5,288.7 L 632.7,290.6 L 631.8,286.1 L 631.0,284.6 L 630.2,287.1 L 629.3,289.1 L 628.5,297.8 L 627.7,290.5 L 626.8,290.5 L 626.0,294.8 L 625.2,290.0 L 624.3,298.1 L 623.5,294.7 L 622.7,292.9 L 621.8,293.9 L 621.0,294.7 L 620.2,302.9 L 619.3,297.0 Z" fill="#c06010" fill-opacity="0.65" stroke="#c06010" stroke-width="1.2"/>
<line x1="80" y1="64" x2="80" y2="536" stroke="#333333" stroke-width="1"/>
<text x="90" y="300" dominant-baseline="middle" font-family="'OpenDyslexic', 'OpenDyslexicMono', sans-serif" font-size="10" fill="#333333" transform="rotate(-90,90,300)">~486 mm tip-to-tip</text>
<line x1="60.0" y1="560" x2="1140.0" y2="560" stroke="#333333" stroke-width="1.5"/>
<text x="600.0" y="574" text-anchor="middle" font-family="'OpenDyslexic', 'OpenDyslexicMono', sans-serif" font-size="11" fill="#333333">609.6 mm (24.00 in)</text>
<line x1="780.6" y1="60" x2="780.6" y2="540" stroke="#e00000" stroke-width="1" stroke-dasharray="5,3"/>
<text x="784.6" y="80" font-family="'OpenDyslexic', 'OpenDyslexicMono', sans-serif" font-size="9" fill="#e00000">CG</text>
<text x="1135" y="78" text-anchor="end" font-family="'OpenDyslexic', 'OpenDyslexicMono', sans-serif" font-size="11" font-weight="bold" fill="#333333">▶ NOSE</text>
</svg>
