<?xml version="1.0" encoding="UTF-8"?>
<svg xmlns="http://www.w3.org/2000/svg" viewBox="0 0 800 500" width="800" height="500">
<defs>
  <style>
    @import url('https://fonts.cdnfonts.com/css/opendyslexic');
    text, tspan { font-family: 'OpenDyslexic', 'OpenDyslexicMono', sans-serif; }
  </style>
</defs>
<rect width="800" height="500" fill="#f8f8f8"/>
<rect x="0" y="0" width="800" height="36" fill="#0d3d5c"/>
<text x="400" y="24" text-anchor="middle" font-family="'OpenDyslexic', 'OpenDyslexicMono', sans-serif" font-size="14" font-weight="bold" fill="#ffffff">SERENITY-CLASS TILTROTOR UAV — FRONT VIEW (FROM NOSE)  |  Rev O</text>
<path d="M 734.5,200.3 L 733.3,263.9 L 732.2,211.2 L 731.1,223.1 L 730.0,196.3 L 728.9,224.3 L 727.8,198.1 L 726.6,255.8 L 725.5,198.4 L 724.4,259.5 L 723.3,199.4 L 722.2,201.1 L 721.0,217.5 L 719.9,201.2 L 718.8,210.7 L 717.7,218.9 L 716.6,186.8 L 715.5,194.8 L 714.3,189.3 L 713.2,196.7 L 712.1,200.2 L 711.0,191.3 L 709.9,223.4 L 708.8,193.8 L 707.6,195.2 L 706.5,195.2 L 705.4,195.2 L 704.3,195.2 L 703.2,195.2 L 702.1,197.1 L 700.9,197.1 L 699.8,203.0 L 698.7,195.2 L 697.6,205.9 L 696.5,197.1 L 695.3,193.3 L 694.2,205.5 L 693.1,197.1 L 692.0,195.2 L 690.9,201.3 L 689.8,182.6 L 688.6,193.4 L 687.5,184.8 L 686.4,197.1 L 685.3,204.9 L 684.2,205.2 L 683.1,205.6 L 681.9,193.8 L 680.8,205.3 L 679.7,195.7 L 678.6,195.2 L 677.5,198.1 L 676.4,197.1 L 675.2,196.1 L 674.1,195.2 L 673.0,195.1 L 671.9,195.2 L 670.8,184.0 L 669.6,194.2 L 668.5,186.1 L 667.4,192.7 L 666.3,194.2 L 665.2,192.2 L 664.1,190.7 L 662.9,190.6 L 661.8,190.4 L 660.7,190.2 L 659.6,189.4 L 658.5,188.6 L 657.4,186.9 L 656.2,186.4 L 655.1,186.5 L 654.0,188.5 L 652.9,188.9 L 651.8,187.2 L 650.6,189.2 L 649.5,189.5 L 648.4,184.6 L 647.3,185.2 L 646.2,187.2 L 645.1,187.3 L 643.9,183.9 L 642.8,186.0 L 641.7,187.2 L 640.6,184.7 L 639.5,183.6 L 638.4,186.9 L 637.2,185.8 L 636.1,183.8 L 635.0,185.9 L 633.9,190.0 L 632.8,187.0 L 631.7,185.1 L 630.5,186.6 L 629.4,186.7 L 628.3,187.5 L 627.2,185.0 L 626.1,188.4 L 624.9,187.5 L 623.8,189.6 L 622.7,188.7 L 621.6,187.7 L 620.5,189.8 L 619.4,190.9 L 618.2,186.9 L 617.1,189.0 L 616.0,190.6 L 614.9,188.9 L 613.8,188.5 L 612.7,190.5 L 611.5,189.3 L 610.4,192.9 L 609.3,193.7 L 608.2,191.1 L 607.1,192.0 L 606.0,193.0 L 604.8,193.1 L 603.7,194.0 L 602.6,188.3 L 601.5,195.0 L 600.4,197.0 L 599.2,197.2 L 598.1,199.0 L 597.0,200.6 L 595.9,199.6 L 594.8,188.7 L 593.7,201.9 L 592.5,203.6 L 591.4,203.9 L 590.3,204.3 L 589.2,206.1 L 588.1,207.3 L 587.0,190.8 L 585.8,208.6 L 584.7,209.3 L 583.6,210.8 L 582.5,212.5 L 581.4,212.8 L 580.2,194.3 L 579.1,216.6 L 578.0,217.5 L 576.9,220.6 L 575.8,221.0 L 574.7,194.8 L 573.5,194.8 L 572.4,271.2 L 571.3,271.2 L 570.2,204.1 L 569.1,202.4 L 568.0,330.5 L 566.8,211.2 L 565.7,210.0 L 564.6,196.1 L 563.5,196.1 L 562.4,223.2 L 561.3,191.4 L 560.1,189.4 L 559.0,219.5 L 557.9,240.7 L 556.8,197.4 L 555.7,188.0 L 554.5,223.5 L 553.4,253.9 L 552.3,197.8 L 551.2,193.1 L 550.1,221.7 L 549.0,197.1 L 547.8,204.0 L 546.7,190.8 L 545.6,255.4 L 544.5,246.8 L 543.4,246.2 L 542.3,211.0 L 541.1,229.9 L 540.0,225.5 L 538.9,221.1 L 537.8,219.8 L 536.7,255.5 L 535.6,246.3 L 534.4,245.6 L 533.3,255.7 L 532.2,255.8 L 531.1,255.8 L 530.0,259.2 L 528.8,256.4 L 527.7,226.7 L 526.6,225.6 L 525.5,217.4 L 524.4,216.0 L 523.3,220.1 L 522.1,256.7 L 521.0,224.8 L 519.9,217.5 L 518.8,209.6 L 517.7,208.1 L 516.6,257.0 L 515.4,256.6 L 514.3,228.5 L 513.2,215.4 L 512.1,211.6 L 511.0,203.6 L 509.8,257.2 L 508.7,256.8 L 507.6,258.5 L 506.5,256.9 L 505.4,258.2 L 504.3,207.9 L 503.1,206.3 L 502.0,255.9 L 500.9,229.7 L 499.8,250.7 L 498.7,248.9 L 497.6,248.4 L 496.4,213.2 L 495.3,206.7 L 494.2,215.2 L 493.1,244.2 L 492.0,239.9 L 490.9,239.1 L 489.7,247.8 L 488.6,247.4 L 487.5,213.1 L 486.4,233.3 L 485.3,222.4 L 484.1,240.8 L 483.0,230.7 L 481.9,229.7 L 480.8,234.1 L 479.7,232.5 L 478.6,229.5 L 477.4,219.5 L 476.3,228.5 L 475.2,237.9 L 474.1,237.5 L 473.0,236.4 L 471.9,225.5 L 470.7,229.9 L 469.6,223.7 L 468.5,230.1 L 467.4,225.8 L 466.3,223.1 L 465.2,218.9 L 464.0,218.7 L 462.9,221.1 L 461.8,220.4 L 460.7,217.6 L 459.6,217.4 L 458.4,213.9 L 457.3,212.6 L 456.2,211.6 L 455.1,214.9 L 454.0,213.9 L 452.9,226.8 L 451.7,208.7 L 450.6,208.7 L 449.5,207.1 L 448.4,208.1 L 447.3,205.3 L 446.2,204.6 L 445.0,203.9 L 443.9,203.0 L 442.8,200.7 L 441.7,200.0 L 440.6,197.9 L 439.5,197.3 L 438.3,196.5 L 437.2,195.9 L 436.1,194.9 L 435.0,193.6 L 433.9,193.1 L 432.7,191.4 L 431.6,190.8 L 430.5,190.0 L 429.4,189.1 L 428.3,187.2 L 427.2,186.5 L 426.0,189.6 L 424.9,190.0 L 423.8,207.3 L 422.7,201.4 L 421.6,204.1 L 420.5,196.7 L 419.3,199.5 L 418.2,192.5 L 417.1,195.4 L 416.0,218.1 L 414.9,187.6 L 413.7,190.6 L 412.6,185.5 L 411.5,184.5 L 410.4,187.7 L 409.3,200.3 L 408.2,202.9 L 407.0,180.7 L 405.9,183.9 L 404.8,210.2 L 403.7,203.1 L 402.6,187.8 L 401.5,190.9 L 400.3,185.1 L 399.2,188.2 L 398.1,182.9 L 397.0,186.0 L 395.9,200.8 L 394.8,201.6 L 393.6,178.2 L 392.5,181.5 L 391.4,179.5 L 390.3,182.7 L 389.2,174.7 L 388.0,178.1 L 386.9,185.2 L 385.8,186.8 L 384.7,189.9 L 383.6,172.9 L 382.5,172.6 L 381.3,173.0 L 380.2,171.9 L 379.1,171.0 L 378.0,174.5 L 376.9,174.3 L 375.8,173.0 L 374.6,172.4 L 373.5,173.6 L 372.4,169.4 L 371.3,167.0 L 370.2,165.9 L 369.1,170.0 L 367.9,168.8 L 366.8,165.2 L 365.7,165.1 L 364.6,160.1 L 363.5,163.5 L 362.3,154.8 L 361.2,144.0 L 360.1,137.3 L 359.0,136.0 L 357.9,134.3 L 356.8,134.8 L 355.6,134.8 L 354.5,134.3 L 353.4,133.8 L 352.3,134.3 L 351.2,134.3 L 350.1,134.3 L 348.9,133.8 L 347.8,135.9 L 346.7,134.3 L 345.6,136.0 L 344.5,134.3 L 343.3,134.3 L 342.2,134.3 L 341.1,137.9 L 340.0,133.8 L 338.9,136.0 L 337.8,134.3 L 336.6,134.3 L 335.5,134.7 L 334.4,136.0 L 333.3,134.8 L 332.2,134.3 L 331.1,134.7 L 329.9,134.3 L 328.8,133.8 L 327.7,134.3 L 326.6,134.7 L 325.5,134.3 L 324.4,136.0 L 323.2,137.6 L 322.1,137.6 L 321.0,134.3 L 319.9,134.3 L 318.8,134.7 L 317.6,133.8 L 316.5,133.8 L 315.4,134.3 L 314.3,134.3 L 313.2,134.3 L 312.1,136.0 L 310.9,137.9 L 309.8,134.8 L 308.7,134.3 L 307.6,134.3 L 306.5,134.8 L 305.4,133.8 L 304.2,137.9 L 303.1,134.3 L 302.0,134.3 L 300.9,134.3 L 299.8,136.0 L 298.7,134.3 L 297.5,133.8 L 296.4,133.8 L 295.3,134.3 L 294.2,136.0 L 293.1,134.3 L 291.9,133.8 L 290.8,136.0 L 289.7,134.8 L 288.6,134.8 L 287.5,134.3 L 286.4,137.3 L 285.2,145.1 L 284.1,144.0 L 283.0,154.8 L 281.9,167.4 L 280.8,193.0 L 279.7,196.9 L 278.5,194.0 L 277.4,197.7 L 276.3,194.9 L 275.2,199.0 L 274.1,195.9 L 272.9,196.9 L 271.8,200.9 L 270.7,198.1 L 269.6,199.3 L 268.5,200.3 L 267.4,200.5 L 266.2,201.5 L 265.1,201.6 L 264.0,202.8 L 262.9,206.7 L 261.8,204.1 L 260.7,205.6 L 259.5,209.5 L 258.4,207.0 L 257.3,207.9 L 256.2,208.4 L 255.1,209.6 L 254.0,211.3 L 252.8,210.3 L 251.7,212.2 L 250.6,228.7 L 249.5,215.5 L 248.4,214.2 L 247.2,213.2 L 246.1,223.6 L 245.0,231.0 L 243.9,220.1 L 242.8,243.4 L 241.7,217.9 L 240.5,237.3 L 239.4,223.2 L 238.3,221.1 L 237.2,222.9 L 236.1,220.7 L 235.0,219.7 L 233.8,242.6 L 232.7,241.1 L 231.6,246.1 L 230.5,225.8 L 229.4,244.7 L 228.3,223.8 L 227.1,241.5 L 226.0,258.6 L 224.9,228.8 L 223.8,238.3 L 222.7,226.9 L 221.5,230.4 L 220.4,235.9 L 219.3,228.5 L 218.2,236.1 L 217.1,239.4 L 216.0,234.4 L 214.8,247.3 L 213.7,235.5 L 212.6,235.1 L 211.5,233.8 L 210.4,233.6 L 209.3,233.3 L 208.1,232.7 L 207.0,244.3 L 205.9,252.9 L 204.8,257.7 L 203.7,251.7 L 202.5,256.7 L 201.4,293.5 L 200.3,346.8 L 199.2,289.2 L 198.1,275.1 L 197.0,272.7 L 195.8,253.9 L 194.7,257.9 L 193.6,269.7 L 192.5,252.7 L 191.4,288.8 L 190.3,249.9 L 189.1,305.7 L 188.0,248.8 L 186.9,248.6 L 185.8,247.4 L 184.7,317.9 L 183.6,247.0 L 182.4,261.1 L 181.3,245.6 L 180.2,250.9 L 179.1,250.5 L 178.0,249.6 L 176.8,249.3 L 175.7,249.2 L 174.6,250.4 L 173.5,250.0 L 172.4,249.8 L 171.3,250.6 L 170.1,251.9 L 169.0,253.1 L 167.9,258.3 L 166.8,253.8 L 165.7,251.9 L 164.6,259.3 L 163.4,252.6 L 162.3,337.2 L 161.2,326.2 L 160.1,293.9 L 159.0,289.8 L 157.9,292.9 L 156.7,288.8 L 155.6,289.4 L 154.5,288.8 L 153.4,293.6 L 152.3,324.3 L 151.1,292.9 L 150.0,288.8 L 148.9,326.2 L 147.8,295.6 L 146.7,291.6 L 145.6,288.8 L 144.4,289.4 L 143.3,288.8 L 142.2,293.9 L 141.1,292.9 L 140.0,289.8 L 138.9,288.8 L 137.7,288.8 L 136.6,297.5 L 135.5,293.6 L 134.4,292.9 L 133.3,303.3 L 132.2,288.8 L 131.0,291.6 L 129.9,292.9 L 128.8,295.7 L 127.7,288.8 L 126.6,291.6 L 125.4,288.8 L 124.3,297.5 L 123.2,289.9 L 122.1,288.8 L 121.0,292.9 L 119.9,288.8 L 118.7,293.7 L 117.6,288.8 L 116.5,288.8 L 115.4,289.5 L 114.3,291.7 L 113.2,288.8 L 112.0,289.5 L 110.9,288.8 L 109.8,288.8 L 108.7,289.5 L 107.6,288.8 L 106.4,288.8 L 105.3,288.8 L 104.2,288.8 L 103.1,292.9 L 102.0,288.8 L 100.9,288.8 L 99.7,288.8 L 98.6,288.8 L 97.5,288.8 L 96.4,288.8 L 95.3,292.9 L 94.2,288.8 L 93.0,288.8 L 91.9,288.8 L 90.8,288.8 L 89.7,288.8 L 88.6,288.8 L 87.5,288.8 L 86.3,291.7 L 85.2,288.8 L 84.1,288.8 L 83.0,288.8 L 81.9,292.9 L 80.7,296.5 L 79.6,288.8 L 78.5,304.2 L 77.4,292.9 L 76.3,292.9 L 75.2,288.8 L 74.0,292.9 L 72.9,288.8 L 71.8,288.8 L 70.7,292.9 L 69.6,288.8 L 68.5,288.8 L 67.3,288.8 L 66.2,296.5 L 65.1,288.8 L 65.1,288.8 L 66.2,296.5 L 67.3,300.2 L 68.5,300.2 L 69.6,308.2 L 70.7,323.4 L 71.8,329.5 L 72.9,329.5 L 74.0,331.4 L 75.2,440.0 L 76.3,440.0 L 77.4,440.0 L 78.5,440.0 L 79.6,440.0 L 80.7,440.0 L 81.9,440.0 L 83.0,435.9 L 84.1,440.0 L 85.2,440.0 L 86.3,435.9 L 87.5,435.9 L 88.6,440.0 L 89.7,440.0 L 90.8,440.0 L 91.9,440.0 L 93.0,427.8 L 94.2,440.0 L 95.3,440.0 L 96.4,440.0 L 97.5,435.9 L 98.6,440.0 L 99.7,435.9 L 100.9,435.9 L 102.0,440.0 L 103.1,438.8 L 104.2,440.0 L 105.3,435.9 L 106.4,435.9 L 107.6,440.0 L 108.7,427.5 L 109.8,435.9 L 110.9,428.9 L 112.0,416.6 L 113.2,440.0 L 114.3,408.9 L 115.4,435.9 L 116.5,418.9 L 117.6,410.1 L 118.7,419.7 L 119.9,437.5 L 121.0,433.5 L 122.1,440.0 L 123.2,435.9 L 124.3,440.0 L 125.4,409.0 L 126.6,435.9 L 127.7,429.0 L 128.8,425.5 L 129.9,440.0 L 131.0,440.0 L 132.2,440.0 L 133.3,407.3 L 134.4,437.5 L 135.5,440.0 L 136.6,435.9 L 137.7,440.0 L 138.9,440.0 L 140.0,440.0 L 141.1,435.9 L 142.2,440.0 L 143.3,440.0 L 144.4,435.9 L 145.6,440.0 L 146.7,430.4 L 147.8,435.9 L 148.9,374.4 L 150.0,440.0 L 151.1,440.0 L 152.3,435.9 L 153.4,411.4 L 154.5,416.0 L 155.6,413.2 L 156.7,427.7 L 157.9,424.2 L 159.0,416.0 L 160.1,413.2 L 161.2,415.2 L 162.3,412.4 L 163.4,439.6 L 164.6,435.8 L 165.7,438.0 L 166.8,440.0 L 167.9,435.9 L 169.0,413.5 L 170.1,430.8 L 171.3,410.1 L 172.4,426.9 L 173.5,435.2 L 174.6,440.0 L 175.7,419.9 L 176.8,436.9 L 178.0,416.6 L 179.1,438.4 L 180.2,439.1 L 181.3,434.3 L 182.4,440.0 L 183.6,430.6 L 184.7,430.8 L 185.8,433.0 L 186.9,420.9 L 188.0,423.8 L 189.1,440.0 L 190.3,436.1 L 191.4,429.9 L 192.5,439.3 L 193.6,432.1 L 194.7,434.8 L 195.8,440.0 L 197.0,426.4 L 198.1,430.8 L 199.2,440.0 L 200.3,414.5 L 201.4,427.9 L 202.5,437.7 L 203.7,424.1 L 204.8,430.9 L 205.9,435.9 L 207.0,440.0 L 208.1,429.8 L 209.3,440.0 L 210.4,375.6 L 211.5,427.1 L 212.6,440.0 L 213.7,440.0 L 214.8,422.8 L 216.0,435.9 L 217.1,440.0 L 218.2,440.0 L 219.3,435.9 L 220.4,440.0 L 221.5,436.7 L 222.7,440.0 L 223.8,432.7 L 224.9,435.6 L 226.0,435.9 L 227.1,440.0 L 228.3,437.0 L 229.4,440.0 L 230.5,427.7 L 231.6,425.3 L 232.7,435.1 L 233.8,432.5 L 235.0,435.9 L 236.1,440.0 L 237.2,435.9 L 238.3,440.0 L 239.4,427.9 L 240.5,430.3 L 241.7,423.9 L 242.8,428.1 L 243.9,427.7 L 245.0,429.1 L 246.1,435.9 L 247.2,440.0 L 248.4,440.0 L 249.5,426.2 L 250.6,435.9 L 251.7,440.0 L 252.8,425.8 L 254.0,435.9 L 255.1,435.9 L 256.2,440.0 L 257.3,423.5 L 258.4,435.9 L 259.5,437.7 L 260.7,440.0 L 261.8,435.9 L 262.9,435.9 L 264.0,440.0 L 265.1,440.0 L 266.2,440.0 L 267.4,440.0 L 268.5,440.0 L 269.6,440.0 L 270.7,440.0 L 271.8,440.0 L 272.9,440.0 L 274.1,440.0 L 275.2,440.0 L 276.3,440.0 L 277.4,440.0 L 278.5,419.0 L 279.7,440.0 L 280.8,440.0 L 281.9,432.4 L 283.0,440.0 L 284.1,440.0 L 285.2,440.0 L 286.4,440.0 L 287.5,440.0 L 288.6,440.0 L 289.7,440.0 L 290.8,440.0 L 291.9,435.9 L 293.1,440.0 L 294.2,440.0 L 295.3,440.0 L 296.4,440.0 L 297.5,440.0 L 298.7,440.0 L 299.8,440.0 L 300.9,440.0 L 302.0,440.0 L 303.1,440.0 L 304.2,440.0 L 305.4,440.0 L 306.5,436.8 L 307.6,440.0 L 308.7,440.0 L 309.8,440.0 L 310.9,440.0 L 312.1,440.0 L 313.2,440.0 L 314.3,440.0 L 315.4,440.0 L 316.5,436.8 L 317.6,440.0 L 318.8,440.0 L 319.9,440.0 L 321.0,436.6 L 322.1,440.0 L 323.2,440.0 L 324.4,440.0 L 325.5,431.9 L 326.6,440.0 L 327.7,440.0 L 328.8,440.0 L 329.9,440.0 L 331.1,440.0 L 332.2,440.0 L 333.3,440.0 L 334.4,440.0 L 335.5,436.8 L 336.6,440.0 L 337.8,440.0 L 338.9,440.0 L 340.0,440.0 L 341.1,440.0 L 342.2,440.0 L 343.3,440.0 L 344.5,440.0 L 345.6,440.0 L 346.7,440.0 L 347.8,440.0 L 348.9,424.9 L 350.1,440.0 L 351.2,427.9 L 352.3,440.0 L 353.4,437.0 L 354.5,440.0 L 355.6,440.0 L 356.8,440.0 L 357.9,440.0 L 359.0,433.9 L 360.1,440.0 L 361.2,440.0 L 362.3,406.5 L 363.5,399.1 L 364.6,391.1 L 365.7,390.5 L 366.8,382.5 L 367.9,374.3 L 369.1,348.6 L 370.2,339.6 L 371.3,329.8 L 372.4,329.4 L 373.5,327.9 L 374.6,319.1 L 375.8,308.7 L 376.9,310.0 L 378.0,332.2 L 379.1,308.3 L 380.2,290.9 L 381.3,288.5 L 382.5,307.0 L 383.6,332.0 L 384.7,335.0 L 385.8,339.7 L 386.9,342.2 L 388.0,345.0 L 389.2,346.5 L 390.3,351.2 L 391.4,352.8 L 392.5,291.4 L 393.6,262.4 L 394.8,261.4 L 395.9,258.9 L 397.0,257.9 L 398.1,298.5 L 399.2,249.3 L 400.3,315.7 L 401.5,293.6 L 402.6,293.6 L 403.7,321.2 L 404.8,332.3 L 405.9,333.4 L 407.0,245.2 L 408.2,246.8 L 409.3,245.4 L 410.4,259.7 L 411.5,269.2 L 412.6,272.6 L 413.7,271.9 L 414.9,285.5 L 416.0,285.2 L 417.1,300.6 L 418.2,309.3 L 419.3,313.9 L 420.5,314.5 L 421.6,311.4 L 422.7,311.9 L 423.8,313.7 L 424.9,256.4 L 426.0,314.7 L 427.2,315.2 L 428.3,314.9 L 429.4,315.5 L 430.5,314.9 L 431.6,315.5 L 432.7,314.0 L 433.9,316.4 L 435.0,314.3 L 436.1,317.0 L 437.2,315.6 L 438.3,315.8 L 439.5,314.7 L 440.6,301.5 L 441.7,316.6 L 442.8,317.5 L 443.9,318.2 L 445.0,317.0 L 446.2,318.6 L 447.3,318.4 L 448.4,319.8 L 449.5,320.5 L 450.6,320.1 L 451.7,327.0 L 452.9,327.9 L 454.0,328.4 L 455.1,316.9 L 456.2,329.4 L 457.3,309.9 L 458.4,321.9 L 459.6,328.6 L 460.7,327.5 L 461.8,329.6 L 462.9,330.9 L 464.0,328.8 L 465.2,332.0 L 466.3,335.1 L 467.4,329.2 L 468.5,336.3 L 469.6,328.6 L 470.7,328.8 L 471.9,336.7 L 473.0,338.0 L 474.1,296.5 L 475.2,327.7 L 476.3,329.0 L 477.4,333.7 L 478.6,336.8 L 479.7,334.8 L 480.8,338.2 L 481.9,336.5 L 483.0,339.4 L 484.1,337.7 L 485.3,335.9 L 486.4,306.5 L 487.5,339.1 L 488.6,337.4 L 489.7,340.4 L 490.9,309.5 L 492.0,338.6 L 493.1,340.0 L 494.2,310.6 L 495.3,341.3 L 496.4,338.5 L 497.6,314.4 L 498.7,327.3 L 499.8,339.8 L 500.9,315.5 L 502.0,327.7 L 503.1,334.3 L 504.3,328.0 L 505.4,330.3 L 506.5,327.9 L 507.6,329.0 L 508.7,326.3 L 509.8,328.9 L 511.0,328.2 L 512.1,329.0 L 513.2,328.4 L 514.3,329.2 L 515.4,339.8 L 516.6,329.0 L 517.7,329.0 L 518.8,327.6 L 519.9,322.5 L 521.0,330.0 L 522.1,338.3 L 523.3,355.2 L 524.4,353.2 L 525.5,364.4 L 526.6,353.3 L 527.7,364.6 L 528.8,369.2 L 530.0,366.8 L 531.1,360.0 L 532.2,364.8 L 533.3,369.4 L 534.4,393.9 L 535.6,390.9 L 536.7,364.9 L 537.8,399.7 L 538.9,357.9 L 540.0,308.0 L 541.1,257.2 L 542.3,284.0 L 543.4,284.1 L 544.5,328.2 L 545.6,326.8 L 546.7,322.1 L 547.8,269.4 L 549.0,284.8 L 550.1,324.6 L 551.2,284.9 L 552.3,375.2 L 553.4,332.6 L 554.5,394.0 L 555.7,391.0 L 556.8,349.1 L 557.9,282.6 L 559.0,352.5 L 560.1,295.6 L 561.3,347.7 L 562.4,345.8 L 563.5,284.9 L 564.6,284.9 L 565.7,296.4 L 566.8,347.1 L 568.0,399.7 L 569.1,371.5 L 570.2,391.7 L 571.3,345.5 L 572.4,345.5 L 573.5,209.3 L 574.7,209.3 L 575.8,331.2 L 576.9,397.8 L 578.0,254.2 L 579.1,350.0 L 580.2,386.1 L 581.4,384.4 L 582.5,333.4 L 583.6,391.7 L 584.7,396.6 L 585.8,399.7 L 587.0,254.1 L 588.1,225.9 L 589.2,285.1 L 590.3,229.2 L 591.4,396.6 L 592.5,399.7 L 593.7,388.8 L 594.8,391.7 L 595.9,247.2 L 597.0,311.2 L 598.1,313.6 L 599.2,296.2 L 600.4,378.2 L 601.5,397.8 L 602.6,319.3 L 603.7,234.7 L 604.8,319.5 L 606.0,320.7 L 607.1,291.2 L 608.2,391.7 L 609.3,319.9 L 610.4,396.6 L 611.5,399.7 L 612.7,320.0 L 613.8,345.4 L 614.9,363.3 L 616.0,365.6 L 617.1,381.5 L 618.2,399.7 L 619.4,380.2 L 620.5,388.8 L 621.6,391.7 L 622.7,234.7 L 623.8,271.3 L 624.9,271.3 L 626.1,236.0 L 627.2,259.0 L 628.3,394.7 L 629.4,397.8 L 630.5,246.6 L 631.7,295.9 L 632.8,296.5 L 633.9,271.3 L 635.0,271.3 L 636.1,331.9 L 637.2,388.8 L 638.4,391.7 L 639.5,396.6 L 640.6,399.7 L 641.7,254.9 L 642.8,285.2 L 643.9,295.9 L 645.1,296.5 L 646.2,396.6 L 647.3,399.7 L 648.4,388.8 L 649.5,388.0 L 650.6,391.7 L 651.8,285.3 L 652.9,255.2 L 654.0,350.0 L 655.1,352.0 L 656.2,394.7 L 657.4,331.2 L 658.5,397.8 L 659.6,324.7 L 660.7,285.7 L 661.8,286.0 L 662.9,255.5 L 664.1,388.8 L 665.2,381.4 L 666.3,396.6 L 667.4,379.0 L 668.5,399.7 L 669.6,348.0 L 670.8,255.9 L 671.9,349.9 L 673.0,302.3 L 674.1,354.1 L 675.2,348.1 L 676.4,372.5 L 677.5,350.0 L 678.6,390.8 L 679.7,256.2 L 680.8,393.8 L 681.9,326.9 L 683.1,285.5 L 684.2,340.3 L 685.3,352.6 L 686.4,372.4 L 687.5,357.9 L 688.6,396.0 L 689.8,362.4 L 690.9,399.1 L 692.0,391.2 L 693.1,393.6 L 694.2,394.2 L 695.3,396.7 L 696.5,370.1 L 697.6,394.2 L 698.7,396.0 L 699.8,368.5 L 700.9,399.1 L 702.1,394.2 L 703.2,351.6 L 704.3,372.3 L 705.4,373.6 L 706.5,368.7 L 707.6,376.1 L 708.8,371.1 L 709.9,354.2 L 711.0,354.3 L 712.1,344.3 L 713.2,356.4 L 714.3,321.5 L 715.5,345.0 L 716.6,343.2 L 717.7,369.8 L 718.8,353.3 L 719.9,322.0 L 721.0,372.2 L 722.2,344.1 L 723.3,343.1 L 724.4,323.4 L 725.5,352.5 L 726.6,344.9 L 727.8,317.2 L 728.9,354.6 L 730.0,342.3 L 731.1,318.3 L 732.2,358.5 L 733.3,263.9 L 734.5,360.7 Z" fill="#1a6ba0" fill-opacity="0.80" stroke="#0d3d5c" stroke-width="1.5"/>
<path d="M 391.8,287.2 L 391.6,283.0 L 391.4,283.0 L 391.2,283.0 L 391.0,283.0 L 390.8,283.0 L 390.6,279.0 L 390.4,279.0 L 390.2,279.0 L 389.9,279.0 L 389.7,279.0 L 389.5,279.0 L 389.3,279.0 L 389.1,275.3 L 388.9,275.3 L 388.7,275.3 L 388.5,275.3 L 388.3,275.3 L 388.1,275.3 L 387.9,275.3 L 387.7,275.3 L 387.5,275.3 L 387.3,275.3 L 387.1,272.0 L 386.8,272.0 L 386.6,272.0 L 386.4,272.0 L 386.2,272.0 L 386.0,272.0 L 385.8,272.0 L 385.6,272.0 L 385.4,272.0 L 385.2,272.0 L 385.0,272.0 L 384.8,272.0 L 384.6,269.3 L 384.4,269.3 L 384.2,269.3 L 384.0,269.3 L 383.8,269.3 L 383.5,269.3 L 383.3,269.3 L 383.1,269.3 L 382.9,269.3 L 382.7,269.3 L 382.5,269.3 L 382.3,269.3 L 382.1,269.3 L 381.9,269.3 L 381.7,267.4 L 381.5,267.4 L 381.3,267.4 L 381.1,267.4 L 380.9,267.4 L 380.7,267.4 L 380.4,285.9 L 380.2,285.9 L 380.0,284.7 L 379.8,284.7 L 379.6,283.5 L 379.4,283.5 L 379.2,283.5 L 379.0,282.5 L 378.8,282.5 L 378.6,266.1 L 378.4,266.1 L 378.2,281.7 L 378.0,281.7 L 377.8,281.7 L 377.6,281.7 L 377.3,281.1 L 377.1,281.1 L 376.9,281.1 L 376.7,281.1 L 376.5,281.1 L 376.3,280.7 L 376.1,280.7 L 375.9,280.7 L 375.7,280.7 L 375.5,280.7 L 375.3,265.7 L 375.1,265.7 L 374.9,265.7 L 374.7,264.4 L 374.5,280.7 L 374.3,264.4 L 374.0,264.4 L 373.8,314.7 L 373.6,280.6 L 373.4,281.1 L 373.2,264.3 L 373.0,246.1 L 372.8,295.7 L 372.6,281.7 L 372.4,318.6 L 372.2,266.1 L 372.0,245.1 L 371.8,280.2 L 371.6,265.0 L 371.4,221.5 L 371.2,223.0 L 370.9,265.0 L 370.7,277.4 L 370.5,280.8 L 370.3,202.1 L 370.1,265.0 L 369.9,247.2 L 369.7,295.4 L 369.5,183.7 L 369.3,198.5 L 369.1,180.9 L 368.9,191.4 L 368.7,182.1 L 368.5,223.3 L 368.3,224.7 L 368.1,171.3 L 367.8,171.1 L 367.6,170.6 L 367.4,173.8 L 367.2,195.5 L 367.0,171.7 L 366.8,314.1 L 366.6,186.5 L 366.4,184.4 L 366.2,183.7 L 366.0,177.5 L 365.8,182.5 L 365.6,289.3 L 365.4,172.6 L 365.2,169.8 L 365.0,173.7 L 364.8,167.2 L 364.5,167.2 L 364.3,174.8 L 364.1,330.4 L 363.9,221.4 L 363.7,187.2 L 363.5,263.8 L 363.3,180.4 L 363.1,170.4 L 362.9,179.3 L 362.7,168.7 L 362.5,172.9 L 362.3,170.5 L 362.1,171.8 L 361.9,169.9 L 361.7,169.3 L 361.4,154.8 L 361.2,154.8 L 361.0,154.8 L 360.8,144.0 L 360.6,144.0 L 360.4,145.1 L 360.2,145.1 L 360.0,154.8 L 359.8,137.3 L 359.6,150.4 L 359.4,150.4 L 359.2,138.4 L 359.0,154.8 L 358.8,136.0 L 358.6,154.8 L 358.3,145.1 L 358.1,136.0 L 357.9,138.4 L 357.7,134.3 L 357.5,141.3 L 357.3,143.4 L 357.1,143.4 L 356.9,134.8 L 356.7,136.0 L 356.5,136.0 L 356.3,137.9 L 356.1,137.9 L 355.9,134.8 L 355.7,134.8 L 355.5,138.4 L 355.3,147.3 L 355.0,144.0 L 354.8,138.9 L 354.6,137.9 L 354.4,136.0 L 354.2,140.1 L 354.0,136.0 L 353.8,136.0 L 353.6,134.3 L 353.4,136.0 L 353.2,154.8 L 353.0,133.8 L 352.8,133.8 L 352.6,134.3 L 352.4,134.3 L 352.2,134.3 L 351.9,136.0 L 351.7,138.4 L 351.5,138.2 L 351.3,138.2 L 351.1,137.6 L 350.9,136.0 L 350.7,136.0 L 350.5,138.4 L 350.3,134.3 L 350.1,134.3 L 349.9,134.7 L 349.7,142.2 L 349.5,134.8 L 349.3,134.7 L 349.1,134.7 L 348.8,137.9 L 348.6,138.4 L 348.4,133.8 L 348.2,134.3 L 348.0,133.8 L 347.8,137.7 L 347.6,138.8 L 347.4,138.8 L 347.2,135.9 L 347.0,142.4 L 346.8,134.7 L 346.6,134.3 L 346.4,136.0 L 346.2,134.3 L 346.0,135.9 L 345.8,136.0 L 345.5,136.0 L 345.3,136.0 L 345.1,138.4 L 344.9,138.2 L 344.7,137.6 L 344.5,138.2 L 344.3,134.3 L 344.1,134.3 L 343.9,134.7 L 343.7,134.8 L 343.5,136.0 L 343.3,135.9 L 343.1,137.9 L 342.9,134.3 L 342.7,136.0 L 342.4,137.6 L 342.2,134.3 L 342.0,140.0 L 341.8,138.2 L 341.6,138.4 L 341.4,138.4 L 341.2,138.6 L 341.0,138.4 L 340.8,138.5 L 340.6,138.9 L 340.4,138.9 L 340.2,137.9 L 340.0,133.8 L 339.8,134.7 L 339.6,137.6 L 339.3,133.8 L 339.1,134.8 L 338.9,137.9 L 338.7,138.8 L 338.5,136.0 L 338.3,137.9 L 338.1,140.1 L 337.9,138.9 L 337.7,137.9 L 337.5,140.1 L 337.3,134.3 L 337.1,134.3 L 336.9,138.4 L 336.7,134.3 L 336.5,137.7 L 336.3,134.7 L 336.0,141.8 L 335.8,137.6 L 335.6,134.7 L 335.4,140.0 L 335.2,136.0 L 335.0,141.7 L 334.8,137.9 L 334.6,136.0 L 334.4,140.0 L 334.2,137.9 L 334.0,140.0 L 333.8,136.0 L 333.6,137.6 L 333.4,142.2 L 333.2,136.0 L 332.9,136.0 L 332.7,138.2 L 332.5,136.0 L 332.3,134.8 L 332.1,134.3 L 331.9,138.9 L 331.7,134.8 L 331.5,134.3 L 331.3,142.1 L 331.1,137.9 L 330.9,138.4 L 330.7,146.0 L 330.5,136.0 L 330.3,134.7 L 330.1,138.4 L 329.8,134.3 L 329.6,134.7 L 329.4,136.0 L 329.2,134.3 L 329.0,147.9 L 328.8,133.8 L 328.6,138.4 L 328.4,137.9 L 328.2,133.8 L 328.0,154.8 L 327.8,134.3 L 327.6,137.8 L 327.4,136.0 L 327.2,134.3 L 327.0,134.8 L 326.8,138.4 L 326.5,138.9 L 326.3,154.0 L 326.1,134.8 L 325.9,134.7 L 325.7,140.1 L 325.5,134.3 L 325.3,134.7 L 325.1,136.0 L 324.9,134.3 L 324.7,138.4 L 324.5,136.0 L 324.3,137.9 L 324.1,137.6 L 323.9,137.9 L 323.7,136.0 L 323.4,171.6 L 323.2,137.6 L 323.0,138.4 L 322.8,138.2 L 322.6,138.3 L 322.4,137.7 L 322.2,138.4 L 322.0,137.7 L 321.8,169.5 L 321.6,137.6 L 321.4,154.8 L 321.2,136.0 L 321.0,199.7 L 320.8,137.6 L 320.6,137.9 L 320.3,136.0 L 320.1,137.9 L 319.9,134.3 L 319.7,145.1 L 319.5,136.0 L 319.3,134.3 L 319.1,136.0 L 318.9,134.8 L 318.7,134.7 L 318.5,146.0 L 318.3,138.9 L 318.1,134.8 L 317.9,137.7 L 317.7,138.4 L 317.5,134.3 L 317.3,137.7 L 317.0,136.0 L 316.8,134.3 L 316.6,133.8 L 316.4,137.9 L 316.2,138.4 L 316.0,133.8 L 315.8,136.0 L 315.6,137.3 L 315.4,138.9 L 315.2,134.3 L 315.0,134.7 L 314.8,137.3 L 314.6,136.0 L 314.4,134.7 L 314.2,144.0 L 313.9,136.0 L 313.7,138.4 L 313.5,137.9 L 313.3,134.3 L 313.1,137.7 L 312.9,142.6 L 312.7,134.3 L 312.5,141.7 L 312.3,136.0 L 312.1,136.0 L 311.9,137.6 L 311.7,136.0 L 311.5,148.9 L 311.3,136.0 L 311.1,154.8 L 310.8,141.9 L 310.6,137.9 L 310.4,141.9 L 310.2,137.9 L 310.0,138.2 L 309.8,136.0 L 309.6,137.6 L 309.4,136.0 L 309.2,136.0 L 309.0,134.8 L 308.8,141.8 L 308.6,136.0 L 308.4,134.7 L 308.2,134.3 L 308.0,137.8 L 307.8,134.3 L 307.5,134.3 L 307.3,134.3 L 307.1,146.0 L 306.9,138.9 L 306.7,137.9 L 306.5,136.0 L 306.3,137.9 L 306.1,134.8 L 305.9,136.0 L 305.7,138.9 L 305.5,133.8 L 305.3,134.8 L 305.1,206.5 L 304.9,133.8 L 304.7,137.9 L 304.4,142.6 L 304.2,137.9 L 304.0,138.4 L 303.8,138.6 L 303.6,138.4 L 303.4,138.4 L 303.2,138.4 L 303.0,134.3 L 302.8,138.3 L 302.6,134.3 L 302.4,134.3 L 302.2,137.7 L 302.0,134.3 L 301.8,136.0 L 301.6,136.0 L 301.3,134.8 L 301.1,136.0 L 300.9,136.0 L 300.7,134.8 L 300.5,134.3 L 300.3,134.7 L 300.1,134.3 L 299.9,136.0 L 299.7,137.7 L 299.5,137.7 L 299.3,136.0 L 299.1,137.6 L 298.9,136.0 L 298.7,134.3 L 298.5,136.0 L 298.3,134.3 L 298.0,134.8 L 297.8,134.7 L 297.6,138.6 L 297.4,164.7 L 297.2,136.0 L 297.0,136.0 L 296.8,133.8 L 296.6,137.8 L 296.4,133.8 L 296.2,134.3 L 296.0,142.3 L 295.8,137.9 L 295.6,134.7 L 295.4,134.7 L 295.2,134.8 L 294.9,142.2 L 294.7,134.3 L 294.5,134.3 L 294.3,138.4 L 294.1,136.0 L 293.9,136.0 L 293.7,137.6 L 293.5,137.9 L 293.3,138.2 L 293.1,134.3 L 292.9,136.0 L 292.7,134.3 L 292.5,134.3 L 292.3,136.0 L 292.1,133.8 L 291.8,133.8 L 291.6,154.8 L 291.4,137.3 L 291.2,134.3 L 291.0,136.0 L 290.8,136.0 L 290.6,140.1 L 290.4,137.9 L 290.2,138.9 L 290.0,144.0 L 289.8,147.2 L 289.6,138.4 L 289.4,134.8 L 289.2,134.8 L 289.0,137.9 L 288.8,136.0 L 288.5,136.0 L 288.3,142.4 L 288.1,134.8 L 287.9,147.2 L 287.7,141.3 L 287.5,134.3 L 287.3,134.3 L 287.1,136.0 L 286.9,154.0 L 286.7,136.0 L 286.5,136.0 L 286.3,138.4 L 286.1,145.1 L 285.9,145.1 L 285.7,137.3 L 285.4,137.3 L 285.2,209.3 L 285.0,154.8 L 284.8,168.4 L 284.6,150.4 L 284.4,150.4 L 284.2,145.1 L 284.0,144.0 L 283.8,144.0 L 283.6,154.8 L 283.4,154.8 L 283.2,150.4 L 283.0,154.8 L 282.8,154.8 L 282.6,168.4 L 282.3,167.0 L 282.1,167.0 L 281.9,199.6 L 281.7,167.4 L 281.5,191.8 L 281.3,185.0 L 281.1,230.9 L 280.9,200.5 L 280.7,200.0 L 280.5,199.7 L 280.3,200.8 L 280.1,199.7 L 279.9,200.8 L 279.7,203.1 L 279.5,287.8 L 279.3,198.1 L 279.0,198.1 L 278.8,215.5 L 278.6,314.9 L 278.4,198.1 L 278.2,318.2 L 278.0,199.7 L 277.8,199.7 L 277.6,388.2 L 277.4,353.3 L 277.2,199.7 L 277.0,200.8 L 276.8,200.8 L 276.6,398.7 L 276.4,213.6 L 276.2,213.6 L 275.9,382.5 L 275.7,353.3 L 275.5,385.0 L 275.3,385.1 L 275.1,366.3 L 274.9,391.1 L 274.7,382.5 L 274.5,390.5 L 274.3,382.3 L 274.1,248.7 L 273.9,248.7 L 273.7,213.3 L 273.5,213.3 L 273.3,213.3 L 273.1,213.3 L 272.8,213.3 L 272.6,213.3 L 272.4,213.3 L 272.2,213.3 L 272.0,213.3 L 271.8,213.3 L 271.6,213.3 L 271.4,248.5 L 271.2,248.5 L 271.0,247.7 L 270.8,247.7 L 270.6,247.7 L 270.4,247.7 L 270.2,247.7 L 270.0,247.7 L 269.8,247.7 L 269.5,247.7 L 269.3,247.7 L 269.1,247.7 L 268.9,247.7 L 268.7,247.7 L 268.5,247.7 L 268.3,247.5 L 268.1,247.5 L 268.1,247.5 L 268.3,247.5 L 268.5,247.7 L 268.7,247.7 L 268.9,247.7 L 269.1,247.7 L 269.3,247.7 L 269.5,247.7 L 269.8,247.7 L 270.0,247.7 L 270.2,247.7 L 270.4,247.7 L 270.6,247.7 L 270.8,247.7 L 271.0,247.7 L 271.2,248.5 L 271.4,248.5 L 271.6,213.3 L 271.8,213.3 L 272.0,213.3 L 272.2,213.3 L 272.4,213.3 L 272.6,213.3 L 272.8,213.3 L 273.1,213.3 L 273.3,213.3 L 273.5,213.3 L 273.7,213.3 L 273.9,248.7 L 274.1,248.7 L 274.3,390.5 L 274.5,390.5 L 274.7,382.5 L 274.9,391.1 L 275.1,391.1 L 275.3,398.7 L 275.5,398.7 L 275.7,399.1 L 275.9,399.1 L 276.2,398.7 L 276.4,398.9 L 276.6,398.7 L 276.8,390.6 L 277.0,390.6 L 277.2,406.5 L 277.4,406.5 L 277.6,406.9 L 277.8,406.9 L 278.0,406.7 L 278.2,399.1 L 278.4,406.7 L 278.6,406.5 L 278.8,395.7 L 279.0,398.9 L 279.3,395.6 L 279.5,383.0 L 279.7,406.5 L 279.9,406.9 L 280.1,414.6 L 280.3,406.9 L 280.5,415.2 L 280.7,415.1 L 280.9,414.7 L 281.1,414.9 L 281.3,414.6 L 281.5,395.9 L 281.7,356.2 L 281.9,383.0 L 282.1,403.3 L 282.3,414.7 L 282.6,415.2 L 282.8,411.7 L 283.0,395.7 L 283.2,411.7 L 283.4,440.0 L 283.6,440.0 L 283.8,433.9 L 284.0,430.9 L 284.2,440.0 L 284.4,430.9 L 284.6,424.1 L 284.8,427.9 L 285.0,440.0 L 285.2,433.9 L 285.4,430.9 L 285.7,427.9 L 285.9,424.9 L 286.1,424.1 L 286.3,440.0 L 286.5,440.0 L 286.7,440.0 L 286.9,433.9 L 287.1,430.9 L 287.3,440.0 L 287.5,430.9 L 287.7,431.7 L 287.9,440.0 L 288.1,440.0 L 288.3,431.5 L 288.5,431.5 L 288.8,431.5 L 289.0,424.9 L 289.2,440.0 L 289.4,437.0 L 289.6,431.6 L 289.8,431.5 L 290.0,440.0 L 290.2,430.9 L 290.4,431.5 L 290.6,427.6 L 290.8,440.0 L 291.0,430.9 L 291.2,427.9 L 291.4,427.7 L 291.6,431.5 L 291.8,427.6 L 292.1,423.9 L 292.3,440.0 L 292.5,440.0 L 292.7,437.0 L 292.9,436.3 L 293.1,434.6 L 293.3,427.6 L 293.5,418.8 L 293.7,436.3 L 293.9,434.6 L 294.1,430.1 L 294.3,434.6 L 294.5,440.0 L 294.7,440.0 L 294.9,440.0 L 295.2,440.0 L 295.4,434.8 L 295.6,436.8 L 295.8,440.0 L 296.0,430.6 L 296.2,440.0 L 296.4,412.7 L 296.6,435.9 L 296.8,435.9 L 297.0,440.0 L 297.2,432.3 L 297.4,435.9 L 297.6,440.0 L 297.8,435.9 L 298.0,431.9 L 298.3,440.0 L 298.5,432.7 L 298.7,418.8 L 298.9,415.8 L 299.1,435.9 L 299.3,414.7 L 299.5,440.0 L 299.7,435.9 L 299.9,427.9 L 300.1,440.0 L 300.3,440.0 L 300.5,440.0 L 300.7,440.0 L 300.9,427.9 L 301.1,440.0 L 301.3,440.0 L 301.6,435.9 L 301.8,436.8 L 302.0,435.9 L 302.2,440.0 L 302.4,440.0 L 302.6,432.5 L 302.8,440.0 L 303.0,432.8 L 303.2,436.8 L 303.4,435.9 L 303.6,436.3 L 303.8,440.0 L 304.0,433.9 L 304.2,432.8 L 304.4,440.0 L 304.7,432.3 L 304.9,440.0 L 305.1,440.0 L 305.3,440.0 L 305.5,435.9 L 305.7,427.9 L 305.9,435.9 L 306.1,436.8 L 306.3,434.1 L 306.5,430.1 L 306.7,434.1 L 306.9,436.3 L 307.1,440.0 L 307.3,440.0 L 307.5,434.1 L 307.8,432.3 L 308.0,440.0 L 308.2,436.8 L 308.4,434.6 L 308.6,440.0 L 308.8,435.9 L 309.0,436.8 L 309.2,440.0 L 309.4,434.1 L 309.6,434.6 L 309.8,432.8 L 310.0,435.9 L 310.2,430.6 L 310.4,440.0 L 310.6,430.1 L 310.8,440.0 L 311.1,435.9 L 311.3,434.1 L 311.5,440.0 L 311.7,430.1 L 311.9,440.0 L 312.1,435.9 L 312.3,418.8 L 312.5,440.0 L 312.7,430.6 L 312.9,432.8 L 313.1,435.9 L 313.3,396.8 L 313.5,422.2 L 313.7,375.1 L 313.9,440.0 L 314.2,440.0 L 314.4,435.9 L 314.6,440.0 L 314.8,427.9 L 315.0,418.8 L 315.2,440.0 L 315.4,432.8 L 315.6,435.9 L 315.8,428.0 L 316.0,422.2 L 316.2,436.8 L 316.4,432.8 L 316.6,411.2 L 316.8,426.0 L 317.0,436.6 L 317.3,379.7 L 317.5,440.0 L 317.7,435.9 L 317.9,366.3 L 318.1,440.0 L 318.3,440.0 L 318.5,427.9 L 318.7,440.0 L 318.9,440.0 L 319.1,440.0 L 319.3,435.9 L 319.5,195.5 L 319.7,431.9 L 319.9,340.9 L 320.1,341.5 L 320.3,381.1 L 320.6,423.9 L 320.8,426.0 L 321.0,436.6 L 321.2,371.0 L 321.4,431.9 L 321.6,343.8 L 321.8,344.2 L 322.0,440.0 L 322.2,440.0 L 322.4,440.0 L 322.6,344.8 L 322.8,390.5 L 323.0,435.9 L 323.2,440.0 L 323.4,426.0 L 323.7,436.3 L 323.9,440.0 L 324.1,432.8 L 324.3,436.8 L 324.5,398.7 L 324.7,426.0 L 324.9,387.7 L 325.1,427.6 L 325.3,428.0 L 325.5,437.0 L 325.7,440.0 L 325.9,440.0 L 326.1,382.5 L 326.3,344.8 L 326.5,427.6 L 326.8,435.9 L 327.0,436.8 L 327.2,440.0 L 327.4,436.3 L 327.6,440.0 L 327.8,434.1 L 328.0,431.6 L 328.2,436.8 L 328.4,435.9 L 328.6,434.1 L 328.8,440.0 L 329.0,440.0 L 329.2,435.9 L 329.4,434.6 L 329.6,440.0 L 329.8,440.0 L 330.1,430.6 L 330.3,435.9 L 330.5,427.6 L 330.7,436.8 L 330.9,440.0 L 331.1,432.8 L 331.3,432.3 L 331.5,435.9 L 331.7,436.8 L 331.9,436.3 L 332.1,440.0 L 332.3,436.8 L 332.5,440.0 L 332.7,435.9 L 332.9,421.8 L 333.2,440.0 L 333.4,440.0 L 333.6,440.0 L 333.8,424.3 L 334.0,440.0 L 334.2,436.8 L 334.4,432.3 L 334.6,426.0 L 334.8,422.2 L 335.0,436.8 L 335.2,436.3 L 335.4,427.9 L 335.6,437.0 L 335.8,440.0 L 336.0,440.0 L 336.3,432.8 L 336.5,440.0 L 336.7,436.6 L 336.9,440.0 L 337.1,436.8 L 337.3,403.7 L 337.5,440.0 L 337.7,414.9 L 337.9,436.8 L 338.1,418.8 L 338.3,432.8 L 338.5,440.0 L 338.7,433.9 L 338.9,440.0 L 339.1,414.7 L 339.3,436.8 L 339.6,422.2 L 339.8,435.9 L 340.0,436.8 L 340.2,440.0 L 340.4,440.0 L 340.6,426.0 L 340.8,432.8 L 341.0,440.0 L 341.2,436.3 L 341.4,436.8 L 341.6,430.9 L 341.8,440.0 L 342.0,436.8 L 342.2,430.6 L 342.4,435.9 L 342.7,426.0 L 342.9,432.7 L 343.1,440.0 L 343.3,436.3 L 343.5,433.9 L 343.7,440.0 L 343.9,430.6 L 344.1,435.9 L 344.3,436.8 L 344.5,433.9 L 344.7,440.0 L 344.9,435.9 L 345.1,440.0 L 345.3,434.6 L 345.5,440.0 L 345.8,434.2 L 346.0,436.6 L 346.2,440.0 L 346.4,440.0 L 346.6,434.8 L 346.8,440.0 L 347.0,431.6 L 347.2,440.0 L 347.4,431.6 L 347.6,412.7 L 347.8,420.4 L 348.0,415.8 L 348.2,423.9 L 348.4,418.8 L 348.6,421.8 L 348.8,424.9 L 349.1,427.9 L 349.3,430.9 L 349.5,440.0 L 349.7,440.0 L 349.9,424.3 L 350.1,412.7 L 350.3,424.4 L 350.5,415.8 L 350.7,421.8 L 350.9,424.9 L 351.1,427.9 L 351.3,430.9 L 351.5,433.9 L 351.7,440.0 L 351.9,433.9 L 352.2,440.0 L 352.4,421.8 L 352.6,415.8 L 352.8,424.9 L 353.0,427.9 L 353.2,430.9 L 353.4,437.0 L 353.6,440.0 L 353.8,427.9 L 354.0,430.9 L 354.2,433.9 L 354.4,440.0 L 354.6,430.9 L 354.8,433.9 L 355.0,440.0 L 355.3,424.9 L 355.5,424.9 L 355.7,427.9 L 355.9,430.9 L 356.1,437.0 L 356.3,440.0 L 356.5,427.9 L 356.7,430.9 L 356.9,437.0 L 357.1,440.0 L 357.3,433.9 L 357.5,440.0 L 357.7,440.0 L 357.9,440.0 L 358.1,415.8 L 358.3,424.9 L 358.6,427.9 L 358.8,421.8 L 359.0,433.9 L 359.2,440.0 L 359.4,421.8 L 359.6,427.9 L 359.8,430.9 L 360.0,433.9 L 360.2,440.0 L 360.4,430.9 L 360.6,440.0 L 360.8,440.0 L 361.0,387.7 L 361.2,407.0 L 361.4,406.5 L 361.7,406.5 L 361.9,391.1 L 362.1,391.1 L 362.3,398.9 L 362.5,398.7 L 362.7,399.1 L 362.9,399.1 L 363.1,348.0 L 363.3,383.9 L 363.5,398.7 L 363.7,390.8 L 363.9,380.3 L 364.1,391.1 L 364.3,391.1 L 364.5,391.1 L 364.8,390.5 L 365.0,385.0 L 365.2,385.1 L 365.4,345.1 L 365.6,353.3 L 365.8,349.7 L 366.0,382.5 L 366.2,382.3 L 366.4,375.1 L 366.6,366.5 L 366.8,366.3 L 367.0,374.3 L 367.2,338.1 L 367.4,346.3 L 367.6,343.2 L 367.8,346.3 L 368.1,339.0 L 368.3,327.0 L 368.5,343.2 L 368.7,335.1 L 368.9,326.6 L 369.1,339.6 L 369.3,328.3 L 369.5,326.4 L 369.7,339.6 L 369.9,335.1 L 370.1,339.6 L 370.3,327.4 L 370.5,328.6 L 370.7,329.8 L 370.9,327.4 L 371.2,328.1 L 371.4,327.1 L 371.6,328.2 L 371.8,327.7 L 372.0,328.2 L 372.2,329.4 L 372.4,320.3 L 372.6,326.9 L 372.8,327.9 L 373.0,323.4 L 373.2,319.1 L 373.4,323.5 L 373.6,320.0 L 373.8,314.7 L 374.0,319.1 L 374.3,280.6 L 374.5,293.7 L 374.7,264.4 L 374.9,308.7 L 375.1,308.7 L 375.3,308.7 L 375.5,293.7 L 375.7,293.7 L 375.9,293.7 L 376.1,293.7 L 376.3,293.7 L 376.5,293.3 L 376.7,293.3 L 376.9,293.3 L 377.1,293.3 L 377.3,293.3 L 377.6,292.7 L 377.8,292.7 L 378.0,292.7 L 378.2,292.7 L 378.4,308.3 L 378.6,308.3 L 378.8,291.9 L 379.0,291.9 L 379.2,290.9 L 379.4,290.9 L 379.6,290.9 L 379.8,289.7 L 380.0,289.7 L 380.2,288.5 L 380.4,288.5 L 380.7,307.0 L 380.9,307.0 L 381.1,307.0 L 381.3,307.0 L 381.5,307.0 L 381.7,307.0 L 381.9,305.1 L 382.1,305.1 L 382.3,305.1 L 382.5,305.1 L 382.7,305.1 L 382.9,305.1 L 383.1,305.1 L 383.3,305.1 L 383.5,305.1 L 383.8,305.1 L 384.0,305.1 L 384.2,305.1 L 384.4,305.1 L 384.6,305.1 L 384.8,302.4 L 385.0,302.4 L 385.2,302.4 L 385.4,302.4 L 385.6,302.4 L 385.8,302.4 L 386.0,302.4 L 386.2,302.4 L 386.4,302.4 L 386.6,302.4 L 386.8,302.4 L 387.1,302.4 L 387.3,299.1 L 387.5,299.1 L 387.7,299.1 L 387.9,299.1 L 388.1,299.1 L 388.3,299.1 L 388.5,299.1 L 388.7,299.1 L 388.9,299.1 L 389.1,299.1 L 389.3,295.4 L 389.5,295.4 L 389.7,295.4 L 389.9,295.4 L 390.2,295.4 L 390.4,295.4 L 390.6,295.4 L 390.8,291.4 L 391.0,291.4 L 391.2,291.4 L 391.4,291.4 L 391.6,291.4 L 391.8,287.2 Z" fill="#c06010" fill-opacity="0.65" stroke="#c06010" stroke-width="1.2"/>
<text x="70" y="250" text-anchor="start" dominant-baseline="middle" font-family="'OpenDyslexic', 'OpenDyslexicMono', sans-serif" font-size="11" fill="#333333">PORT</text>
<text x="730" y="250" text-anchor="end" dominant-baseline="middle" font-family="'OpenDyslexic', 'OpenDyslexicMono', sans-serif" font-size="11" fill="#333333">STBD</text>
<line x1="60" y1="440.0" x2="740" y2="440.0" stroke="#cccccc" stroke-width="0.8" stroke-dasharray="6,4"/>
</svg>
