<?xml version="1.0" encoding="UTF-8"?>
<!-- © 2026 Steve Griffing PE(CSE) CISSP-ISSEP CPP CC BY 4.0 -->
<!-- Canon: QMx Official Serenity Blueprints (Mandel/Earls 2007) 269ft×170ft×79ft -->
<!-- Scale: 18" (457.2mm)  Hull: Peter Farell CC BY 4.0  Nozzle: BamJr CC BY 4.0 -->
<!-- Visual: Firefly/Serenity © Joss Whedon/Mutant Enemy/Universal Fan work -->
<!-- SIDE PROFILE KEY RATIOS:
     dome peak = 0.218×L = 99.7mm above CL  (iconic high bridge)
     cargo top = 0.090×L = 41.1mm  dome:cargo = 2.42:1
     neck total = 28.8mm  neck:cargo = 0.32:1  (dramatic pinch)
     nacelle_ctr=97.7mm OD=93.5mm datum=82.1mm outer=144.5mm -->
<!-- © 2026 Steve Griffing PE(CSE) CISSP-ISSEP CPP CC BY 4.0 -->
<!-- Hull: Peter Farell CC BY 4.0  Nozzle: BamJr CC BY 4.0 -->
<!-- Visual: Firefly/Serenity © Joss Whedon/Mutant Enemy/Universal Fan work -->
<svg xmlns="http://www.w3.org/2000/svg" viewBox="0 0 820 460" width="820" height="460">
<defs>
  <style>@import url('https://fonts.cdnfonts.com/css/opendyslexic');
    text,tspan{font-family:'OpenDyslexic','OpenDyslexic Bold',sans-serif!important}
    @media print{svg{background:#fff!important}text,tspan{fill:#111!important}}</style>
  <marker id="ar" markerWidth="7" markerHeight="7" refX="6" refY="3.5" orient="auto">
    <path d="M0,0 L7,3.5 L0,7 Z" fill="#00e5ff" opacity="0.8"/></marker>
  <marker id="ar2" markerWidth="7" markerHeight="7" refX="1" refY="3.5" orient="auto">
    <path d="M7,0 L0,3.5 L7,7 Z" fill="#00e5ff" opacity="0.8"/></marker>
  <filter id="glow"><feGaussianBlur stdDeviation="3" result="b"/>
    <feMerge><feMergeNode in="b"/><feMergeNode in="SourceGraphic"/></feMerge></filter>
  <pattern id="grid" width="24" height="24" patternUnits="userSpaceOnUse">
    <path d="M24 0L0 0 0 24" fill="none" stroke="rgba(0,229,255,0.04)" stroke-width="0.5"/>
  </pattern>
</defs>
<rect width="820" height="460" fill="#07090e"/>
<rect width="820" height="460" fill="url(#grid)"/>
<path id="hull-bottom-stl" d="M 738.6,173.9 L 737.5,182.0 L 736.4,182.2 L 735.2,172.8 L 734.1,190.5 L 733.0,189.8 L 731.8,173.9 L 730.7,187.7 L 729.6,191.9 L 726.2,192.7 L 725.0,189.9 L 723.9,194.7 L 722.8,190.9 L 721.6,191.8 L 720.5,172.2 L 719.4,171.8 L 718.3,185.8 L 717.1,185.8 L 716.0,183.3 L 714.9,198.3 L 713.7,193.9 L 712.6,195.3 L 711.5,187.7 L 710.3,185.1 L 709.2,201.2 L 708.1,198.0 L 706.9,177.6 L 705.8,203.9 L 702.4,189.8 L 701.3,209.4 L 700.1,205.9 L 699.0,192.6 L 697.9,192.6 L 696.7,148.9 L 695.6,212.8 L 694.5,209.2 L 692.2,137.8 L 691.1,214.5 L 689.9,210.9 L 688.8,185.5 L 686.5,218.2 L 684.3,217.1 L 683.1,213.4 L 680.9,221.1 L 679.7,217.2 L 678.6,224.9 L 677.5,227.2 L 669.6,227.2 L 668.4,167.0 L 663.9,194.5 L 662.8,194.9 L 660.5,204.5 L 659.4,205.3 L 658.2,272.5 L 657.1,261.7 L 656.0,272.8 L 653.7,273.5 L 652.6,276.2 L 651.4,272.0 L 650.3,280.5 L 649.2,282.4 L 648.0,276.6 L 646.9,282.9 L 645.8,282.7 L 644.6,278.8 L 643.5,278.7 L 642.4,276.2 L 641.2,276.2 L 640.1,278.5 L 639.0,272.9 L 637.8,277.5 L 634.4,265.2 L 633.3,265.4 L 632.2,267.9 L 629.9,258.4 L 628.8,257.8 L 627.6,251.6 L 626.5,249.4 L 625.4,250.5 L 624.2,248.6 L 623.1,256.6 L 622.0,253.4 L 620.8,280.3 L 619.7,276.4 L 618.6,258.3 L 617.5,259.3 L 616.3,258.4 L 615.2,262.2 L 614.1,258.8 L 610.7,259.1 L 609.5,263.8 L 608.4,264.7 L 607.3,268.6 L 606.1,265.1 L 603.9,267.4 L 602.7,284.0 L 601.6,269.9 L 598.2,269.9 L 597.1,272.6 L 594.8,272.8 L 593.7,271.8 L 592.5,209.2 L 591.4,187.4 L 590.3,286.7 L 589.1,274.9 L 588.0,191.6 L 586.9,266.3 L 585.7,272.3 L 584.6,272.9 L 582.3,272.5 L 581.2,269.2 L 578.9,270.3 L 577.8,269.9 L 576.7,284.0 L 575.5,267.4 L 573.3,265.1 L 572.1,268.6 L 571.0,264.7 L 569.9,263.8 L 568.8,258.6 L 565.4,258.8 L 564.2,262.2 L 563.1,258.4 L 560.8,260.0 L 559.7,276.4 L 558.6,280.3 L 557.4,256.6 L 556.3,256.3 L 555.2,248.8 L 554.0,250.5 L 552.9,249.4 L 551.8,251.6 L 550.6,257.8 L 547.2,267.9 L 546.1,265.4 L 545.0,269.0 L 543.8,268.8 L 541.6,277.5 L 540.4,278.5 L 539.3,276.7 L 537.0,276.2 L 534.8,282.7 L 532.5,282.9 L 531.4,276.6 L 530.2,282.4 L 529.1,280.5 L 528.0,272.0 L 526.8,276.2 L 525.7,273.5 L 523.4,272.8 L 522.3,270.1 L 521.2,272.5 L 520.1,205.0 L 518.9,204.5 L 516.7,194.9 L 515.5,194.5 L 512.1,172.5 L 511.0,180.1 L 508.7,174.8 L 504.2,174.8 L 503.1,168.2 L 497.4,168.2 L 496.3,179.8 L 491.7,179.8 L 490.6,174.8 L 489.5,179.8 L 470.2,179.8 L 469.1,176.3 L 468.0,179.8 L 466.8,174.8 L 465.7,179.8 L 461.2,179.8 L 460.0,168.2 L 449.8,168.2 L 448.7,174.8 L 446.4,180.1 L 441.9,180.1 L 440.8,167.7 L 439.6,167.3 L 292.4,167.3 L 291.3,248.5 L 287.9,290.9 L 286.7,289.1 L 285.6,290.6 L 284.5,274.6 L 282.2,306.1 L 281.1,307.6 L 279.9,265.6 L 278.8,305.0 L 277.7,307.0 L 276.5,294.9 L 275.4,324.8 L 274.3,257.8 L 273.1,322.8 L 272.0,256.1 L 270.9,319.7 L 269.8,339.4 L 268.6,339.7 L 266.4,334.4 L 265.2,305.7 L 264.1,303.2 L 263.0,330.0 L 261.8,312.2 L 259.6,352.3 L 258.4,344.0 L 257.3,348.4 L 256.2,342.1 L 255.0,344.8 L 251.6,340.0 L 250.5,329.4 L 249.4,353.8 L 248.2,348.8 L 247.1,355.9 L 244.8,353.8 L 243.7,350.4 L 242.6,351.7 L 241.4,348.4 L 240.3,350.1 L 235.8,337.3 L 234.6,342.9 L 233.5,339.3 L 232.4,345.4 L 230.1,339.8 L 229.0,343.8 L 227.8,340.2 L 226.7,325.2 L 225.6,344.7 L 224.4,343.1 L 223.3,353.5 L 222.2,349.6 L 221.1,333.9 L 219.9,330.5 L 218.8,346.6 L 217.7,337.9 L 216.5,335.6 L 215.4,339.7 L 213.1,337.8 L 212.0,334.3 L 210.9,347.4 L 208.6,339.4 L 206.3,339.7 L 205.2,357.2 L 202.9,336.2 L 201.8,349.4 L 200.7,340.5 L 198.4,336.1 L 197.3,340.8 L 195.0,333.7 L 193.9,257.8 L 192.7,359.7 L 190.5,257.8 L 189.3,333.7 L 187.1,340.8 L 185.9,336.1 L 184.8,339.7 L 183.7,340.5 L 182.5,349.4 L 181.4,336.2 L 179.1,357.2 L 178.0,339.7 L 175.7,339.4 L 173.5,347.4 L 172.3,334.3 L 169.0,343.1 L 167.8,335.6 L 165.6,346.6 L 164.4,330.5 L 163.3,333.9 L 162.2,349.6 L 161.0,353.5 L 159.9,343.1 L 158.8,344.7 L 157.6,325.2 L 156.5,340.2 L 155.4,343.8 L 154.2,339.8 L 152.0,345.4 L 150.8,333.4 L 149.7,342.9 L 148.6,337.3 L 144.0,350.1 L 142.9,348.4 L 141.8,351.7 L 140.6,350.4 L 139.5,353.8 L 137.2,355.9 L 136.1,348.8 L 135.0,353.8 L 133.8,329.4 L 132.7,340.0 L 129.3,344.8 L 128.2,342.1 L 127.0,348.4 L 125.9,344.0 L 124.8,352.3 L 122.5,312.2 L 121.4,330.0 L 120.3,301.2 L 119.1,305.7 L 118.0,336.2 L 116.9,335.9 L 115.7,339.7 L 114.6,339.4 L 113.5,319.7 L 112.3,256.1 L 111.2,322.8 L 110.1,304.4 L 108.9,324.8 L 107.8,294.9 L 106.7,307.0 L 105.5,305.0 L 104.4,277.5 L 103.3,307.6 L 102.1,306.1 L 99.9,274.6 L 98.7,290.6 L 97.6,289.1 L 96.5,290.9 L 93.1,248.5 L 67.0,248.5 L 65.9,243.2 L 62.5,242.9 L 60.2,241.7 L 60.2,232.6 L 62.5,231.4 L 65.9,231.1 L 67.0,246.8 L 93.1,246.8 L 96.5,194.4 L 97.6,206.6 L 98.7,190.4 L 99.9,192.9 L 101.0,178.1 L 102.1,192.4 L 103.3,167.0 L 105.5,161.5 L 106.7,164.9 L 107.8,159.9 L 108.9,166.7 L 110.1,154.2 L 111.2,153.5 L 112.3,156.3 L 114.6,136.1 L 115.7,139.4 L 118.0,138.7 L 119.1,143.0 L 120.3,141.2 L 121.4,131.7 L 122.5,130.4 L 123.6,134.4 L 124.8,133.2 L 125.9,147.2 L 127.0,146.8 L 128.2,122.2 L 129.3,121.0 L 130.4,125.2 L 131.6,124.1 L 132.7,141.1 L 133.8,139.3 L 135.0,113.2 L 136.1,112.2 L 137.2,116.6 L 138.4,115.5 L 139.5,137.5 L 140.6,131.0 L 141.8,131.0 L 144.0,91.5 L 145.2,99.0 L 147.4,80.2 L 149.7,89.9 L 150.8,81.0 L 154.2,80.5 L 155.4,81.2 L 156.5,86.4 L 157.6,80.8 L 158.8,90.2 L 159.9,83.4 L 161.0,85.8 L 162.2,82.9 L 163.3,85.2 L 164.4,91.2 L 165.6,84.7 L 166.7,82.7 L 167.8,91.5 L 169.0,82.2 L 170.1,89.2 L 171.2,83.1 L 172.3,82.7 L 173.5,92.9 L 174.6,92.2 L 175.7,93.2 L 176.9,84.0 L 178.0,83.5 L 180.3,91.5 L 181.4,85.0 L 182.5,84.5 L 183.7,94.3 L 184.8,93.7 L 185.9,86.0 L 187.1,83.8 L 189.3,81.8 L 191.6,81.6 L 192.7,80.0 L 195.0,82.3 L 196.1,80.1 L 198.4,83.3 L 199.5,80.5 L 200.7,90.2 L 201.8,88.0 L 202.9,80.0 L 204.1,84.0 L 205.2,80.3 L 206.3,83.3 L 207.5,83.7 L 208.6,82.7 L 209.7,91.0 L 210.9,84.0 L 212.0,90.2 L 214.3,87.9 L 215.4,80.0 L 216.5,83.4 L 217.7,81.4 L 218.8,84.0 L 219.9,80.0 L 221.1,88.0 L 222.2,80.5 L 223.3,80.8 L 224.4,83.7 L 225.6,80.1 L 227.8,83.2 L 229.0,80.4 L 230.1,80.0 L 231.2,81.5 L 233.5,81.9 L 235.8,83.8 L 236.9,90.2 L 238.0,80.2 L 239.2,84.5 L 240.3,85.0 L 242.6,104.1 L 243.7,105.0 L 244.8,83.5 L 250.5,83.3 L 251.6,91.9 L 252.8,92.5 L 253.9,82.2 L 255.0,82.7 L 256.2,92.1 L 257.3,84.7 L 258.4,93.2 L 259.6,85.2 L 260.7,82.9 L 261.8,85.8 L 263.0,83.4 L 264.1,90.2 L 265.2,80.8 L 266.4,81.2 L 267.5,83.2 L 269.8,80.1 L 270.9,85.4 L 272.0,80.4 L 273.1,85.8 L 274.3,85.5 L 275.4,80.2 L 277.7,91.5 L 278.8,161.5 L 279.9,138.1 L 281.1,136.5 L 282.2,192.4 L 283.3,138.1 L 284.5,192.9 L 285.6,190.4 L 286.7,206.6 L 287.9,213.4 L 289.0,213.5 L 290.1,261.4 L 291.3,246.8 L 292.4,81.1 L 446.4,80.8 L 447.6,176.1 L 448.7,174.8 L 449.8,83.3 L 466.8,83.3 L 468.0,174.8 L 469.1,80.8 L 489.5,80.8 L 490.6,83.3 L 503.1,83.3 L 504.2,174.8 L 508.7,174.8 L 509.9,176.1 L 511.0,80.8 L 512.1,134.9 L 513.3,123.1 L 515.5,112.5 L 516.7,80.8 L 517.8,81.0 L 518.9,101.2 L 520.1,99.8 L 521.2,102.9 L 522.3,91.2 L 526.8,81.3 L 528.0,86.2 L 530.2,81.4 L 531.4,81.3 L 532.5,80.0 L 533.6,81.3 L 535.9,80.1 L 541.6,80.7 L 542.7,83.1 L 543.8,83.1 L 545.0,81.8 L 546.1,95.6 L 547.2,82.9 L 548.4,85.2 L 550.6,98.5 L 551.8,80.4 L 552.9,82.8 L 554.0,103.2 L 555.2,80.5 L 560.8,93.1 L 562.0,80.3 L 564.2,87.2 L 565.4,81.2 L 569.9,91.8 L 571.0,80.6 L 572.1,85.0 L 573.3,81.0 L 574.4,80.4 L 575.5,82.7 L 576.7,98.1 L 577.8,83.0 L 578.9,85.3 L 580.1,93.7 L 581.2,87.8 L 582.3,86.9 L 584.6,81.0 L 585.7,109.9 L 586.9,85.1 L 588.0,97.9 L 589.1,100.3 L 590.3,100.3 L 591.4,97.9 L 592.5,85.1 L 593.7,109.9 L 594.8,81.0 L 599.3,90.5 L 601.6,83.0 L 602.7,88.5 L 605.0,80.4 L 606.1,81.0 L 607.3,85.7 L 608.4,81.7 L 609.5,80.6 L 610.7,89.8 L 614.1,81.2 L 615.2,88.2 L 617.5,80.3 L 619.7,91.0 L 624.2,80.5 L 625.4,86.7 L 627.6,80.4 L 629.9,101.8 L 633.3,96.7 L 634.4,81.8 L 635.6,92.4 L 636.7,83.1 L 637.8,80.7 L 643.5,80.1 L 645.8,81.3 L 646.9,80.0 L 650.3,81.6 L 651.4,86.2 L 652.6,81.3 L 656.0,88.6 L 657.1,91.2 L 658.2,102.9 L 659.4,99.8 L 660.5,109.6 L 661.6,101.2 L 666.2,123.1 L 668.4,139.2 L 669.6,81.3 L 677.5,81.3 L 678.6,83.6 L 679.7,153.9 L 680.9,176.2 L 682.0,85.1 L 683.1,83.6 L 684.3,152.6 L 685.4,113.8 L 689.9,112.8 L 691.1,98.2 L 692.2,97.3 L 693.3,181.6 L 694.5,147.8 L 695.6,166.7 L 696.7,148.9 L 697.9,98.2 L 699.0,98.2 L 700.1,137.8 L 701.3,97.3 L 703.5,192.3 L 704.7,170.4 L 705.8,172.4 L 706.9,164.9 L 708.1,166.7 L 709.2,105.5 L 711.5,104.9 L 712.6,95.0 L 713.7,104.5 L 714.9,93.9 L 716.0,103.6 L 719.4,102.5 L 720.5,112.8 L 721.6,101.9 L 722.8,171.8 L 731.8,171.8 L 733.0,189.8 L 734.1,173.9 L 736.4,171.8 L 737.5,174.9 L 738.6,173.9 Z" fill="#0e2030" fill-opacity="0.85" stroke="#00e5ff" stroke-width="2"/>
<text x="10" y="13" font-family="'OpenDyslexic Mono','OpenDyslexicMono',monospace" font-size="8" fill="rgba(0,229,255,0.85)" letter-spacing="1">SERENITY 24" (609mm) BOTTOM VIEW  — nacelle_ctr=109mm from CL
<polygon points="327.7,178.6 416.9,178.6 433.2,166.3 311.5,166.3" fill="#0e2030" stroke="#00e5ff" stroke-width="1.5"/>
<ellipse cx="367.2" cy="107.8" rx="58.4" ry="20.0" fill="#0e2030" stroke="#ff6b35" stroke-width="2.5"/>
<ellipse cx="367.2" cy="107.8" rx="50.0" ry="15.0" fill="rgba(255,107,53,0.10)" stroke="#ff6b35" stroke-width="1" stroke-dasharray="3 2"/>
<line x1="294.0" y1="166.3" x2="450.7" y2="166.3" stroke="#00e5ff" stroke-width="0.8" stroke-dasharray="3 2" opacity="0.5"/>
<line x1="286.0" y1="127.3" x2="458.7" y2="127.3" stroke="#d4a827" stroke-width="2" stroke-dasharray="6 3"/>
<line x1="294.0" y1="49.4" x2="450.7" y2="49.4" stroke="#ff6b35" stroke-width="0.8" stroke-dasharray="3 2" opacity="0.5"/>
<circle cx="313.8" cy="49.4" r="7" fill="#f87171" opacity="0.95" filter="url(#glow)"/>
<text x="313.8" y="29.4" text-anchor="middle" font-family="'OpenDyslexic','OpenDyslexic Bold',sans-serif" font-size="8" fill="#f87171" font-weight="bold">●PORT</text>
<text x="284.0" y="170.3" text-anchor="end" font-family="'OpenDyslexic','OpenDyslexic Bold',sans-serif" font-size="7" fill="#00e5ff">inner 51.0mm</text>
<text x="284.0" y="131.3" text-anchor="end" font-family="'OpenDyslexic','OpenDyslexic Bold',sans-serif" font-size="8" fill="#d4a827" font-weight="bold">pivot Z=83mm</text>
<text x="284.0" y="53.4" text-anchor="end" font-family="'OpenDyslexic','OpenDyslexic Bold',sans-serif" font-size="7" fill="#ff6b35">outer 144.5mm</text>
<polygon points="327.7,281.4 416.9,281.4 433.2,293.7 311.5,293.7" fill="#0e2030" stroke="#00e5ff" stroke-width="1.5"/>
<ellipse cx="367.2" cy="352.2" rx="58.4" ry="20.0" fill="#0e2030" stroke="#ff6b35" stroke-width="2.5"/>
<ellipse cx="367.2" cy="352.2" rx="50.0" ry="15.0" fill="rgba(255,107,53,0.10)" stroke="#ff6b35" stroke-width="1" stroke-dasharray="3 2"/>
<line x1="294.0" y1="293.7" x2="450.7" y2="293.7" stroke="#00e5ff" stroke-width="0.8" stroke-dasharray="3 2" opacity="0.5"/>
<line x1="286.0" y1="332.7" x2="458.7" y2="332.7" stroke="#d4a827" stroke-width="2" stroke-dasharray="6 3"/>
<line x1="294.0" y1="410.6" x2="450.7" y2="410.6" stroke="#ff6b35" stroke-width="0.8" stroke-dasharray="3 2" opacity="0.5"/>
<circle cx="313.8" cy="410.6" r="7" fill="#4ade80" opacity="0.95" filter="url(#glow)"/>
<text x="313.8" y="430.6" text-anchor="middle" font-family="'OpenDyslexic','OpenDyslexic Bold',sans-serif" font-size="8" fill="#4ade80" font-weight="bold">●STBD</text>
<path d="M 110.0,230.0 L 122.6,222.0 L 147.7,212.9 L 183.7,203.1 L 206.0,192.3 L 235.7,184.9 L 284.3,179.7 L 343.2,178.6 L 395.8,178.6 L 438.6,179.7 L 470.0,185.4 L 502.0,196.9 L 523.2,206.0 L 534.6,215.7 L 546.1,211.1 L 571.8,202.0 L 599.2,193.4 L 635.2,191.7 L 662.1,197.4 L 681.5,203.7 L 681.5,256.3 L 662.1,262.6 L 635.2,268.3 L 599.2,266.6 L 571.8,258.0 L 546.1,248.9 L 534.6,244.3 L 523.2,254.0 L 502.0,263.1 L 470.0,274.6 L 438.6,280.3 L 395.8,281.4 L 343.2,281.4 L 284.3,280.3 L 235.7,275.1 L 206.0,267.7 L 183.7,256.9 L 147.7,247.1 L 122.6,238.0 L 110.0,230.0 Z" fill="#0e2030" stroke="#00e5ff" stroke-width="2.5"/>
<ellipse cx="178.6" cy="230.0" rx="34.3" ry="32.0" fill="rgba(0,229,255,0.04)" stroke="rgba(0,229,255,0.28)" stroke-width="1" stroke-dasharray="5 3"/>
<rect x="319.2" y="204.3" width="84.0" height="51.4" rx="4" fill="rgba(244,114,182,0.18)" stroke="#f472b6" stroke-width="2"/>
<text x="361.2" y="230.0" text-anchor="middle" font-family="'OpenDyslexic','OpenDyslexic Bold',sans-serif" font-size="9" fill="#f472b6" font-weight="bold">PAYLOAD BAY</text>
<text x="361.2" y="243.0" text-anchor="middle" font-family="'OpenDyslexic','OpenDyslexic Bold',sans-serif" font-size="7" fill="rgba(244,114,182,0.75)">112×55mm</text>
<circle cx="427.2" cy="230.0" r="10" fill="none" stroke="#ff6b35" stroke-width="0.7" opacity="0.35"/>
<circle cx="427.2" cy="230.0" r="16" fill="none" stroke="#ff6b35" stroke-width="0.7" opacity="0.35"/>
<circle cx="427.2" cy="230.0" r="22" fill="none" stroke="#ff6b35" stroke-width="0.7" opacity="0.35"/>
<circle cx="427.2" cy="230.0" r="7" fill="rgba(255,107,53,0.32)" stroke="#ff6b35" stroke-width="2"/>
<text x="427.2" y="202.0" text-anchor="middle" font-family="'OpenDyslexic','OpenDyslexic Bold',sans-serif" font-size="9" fill="#ff6b35" font-weight="bold">SiK↓ sta 260mm</text>
<circle cx="361.5" cy="230.0" r="6" fill="rgba(255,255,200,0.85)" stroke="#ffffaa" stroke-width="1.5" filter="url(#glow)"/>
<text x="361.5" y="216.0" text-anchor="middle" font-family="'OpenDyslexic','OpenDyslexic Bold',sans-serif" font-size="7" fill="#ffffaa">BELLY◆</text>
<ellipse cx="607.2" cy="230.0" rx="33.1" ry="36.0" fill="rgba(255,230,0,0.08)" stroke="#ffe600" stroke-width="1.5"/>
<line x1="110.0" y1="230.0" x2="77.5" y2="230.0" stroke="#2dd4bf" stroke-width="5" stroke-linecap="round"/>
<line x1="187.7" y1="230.0" x2="270.0" y2="230.0" stroke="#00e5ff" stroke-width="3.5" stroke-linecap="round" opacity="0.5"/>
<line x1="356.9" y1="230.0" x2="439.2" y2="230.0" stroke="#00e5ff" stroke-width="3.5" stroke-linecap="round" opacity="0.5"/>
<line x1="299.7" y1="162.0" x2="299.7" y2="298.0" stroke="#4ade80" stroke-width="1.5" stroke-dasharray="6 3"/>
<polygon points="299.7,162.0 290.7,180.0 308.7,180.0" fill="#4ade80"/>
<text x="299.7" y="155.0" text-anchor="middle" font-family="'OpenDyslexic','OpenDyslexic Bold',sans-serif" font-size="9" fill="#4ade80" font-weight="bold">CG 203mm (7.99")</text>
<line x1="110.0" y1="440.0" x2="681.5" y2="440.0" stroke="#00e5ff" stroke-width="0.5" opacity="0.25"/>
<text x="395.8" y="453.0" text-anchor="middle" font-family="'OpenDyslexic','OpenDyslexic Bold',sans-serif" font-size="9" fill="rgba(255,255,255,0.82)">609.6 mm (24.00")  Canon 269ft</text>
<text x="105.0" y="234.0" text-anchor="end" font-family="'OpenDyslexic','OpenDyslexic Bold',sans-serif" font-size="9" fill="rgba(255,255,255,0.82)">NOSE</text>
<text x="686.5" y="234.0" font-family="'OpenDyslexic','OpenDyslexic Bold',sans-serif" font-size="9" fill="rgba(255,255,255,0.82)">TAIL</text>
<text x="10" y="454" font-family="'OpenDyslexic Mono','OpenDyslexicMono',monospace" font-size="7" fill="rgba(163,230,53,0.85)">© 2026 Steve Griffing PE(CSE) CISSP-ISSEP CPP CC BY 4.0  Hull: Peter Farell CC BY 4.0  Nozzle: BamJr CC BY 4.0  Fan engineering work</text>
<g id="belly-panel-callouts">
  <line x1="75" y1="290" x2="75" y2="324" stroke="#c0392b" stroke-width="1.5" stroke-dasharray="4 2"/>
  <rect x="27" y="324" width="108" height="34" rx="4" fill="#c0392b" opacity="0.92"/>
  <text x="81" y="339" text-anchor="middle" font-family="'OpenDyslexic',sans-serif" font-weight="bold" font-size="9" fill="#ffffff">A NOSE CAP</text>
  <text x="81" y="353" text-anchor="middle" font-family="'OpenDyslexic',sans-serif" font-size="8" fill="#ffffffcc">bayonet</text>
  <line x1="265" y1="250" x2="265" y2="284" stroke="#27ae60" stroke-width="1.5" stroke-dasharray="4 2"/>
  <rect x="217" y="284" width="108" height="34" rx="4" fill="#27ae60" opacity="0.92"/>
  <text x="271" y="299" text-anchor="middle" font-family="'OpenDyslexic',sans-serif" font-weight="bold" font-size="9" fill="#ffffff">C CARGO BELLY</text>
  <text x="271" y="313" text-anchor="middle" font-family="'OpenDyslexic',sans-serif" font-size="8" fill="#ffffffcc">hinged (main)</text>
  <line x1="450" y1="282" x2="450" y2="316" stroke="#e67e22" stroke-width="1.5" stroke-dasharray="4 2"/>
  <rect x="402" y="316" width="108" height="34" rx="4" fill="#e67e22" opacity="0.92"/>
  <text x="456" y="331" text-anchor="middle" font-family="'OpenDyslexic',sans-serif" font-weight="bold" font-size="9" fill="#ffffff">E AFT SERVICE</text>
  <text x="456" y="345" text-anchor="middle" font-family="'OpenDyslexic',sans-serif" font-size="8" fill="#ffffffcc">belly access</text>
  <line x1="538" y1="295" x2="538" y2="329" stroke="#16a085" stroke-width="1.5" stroke-dasharray="4 2"/>
  <rect x="490" y="329" width="108" height="34" rx="4" fill="#16a085" opacity="0.92"/>
  <text x="544" y="344" text-anchor="middle" font-family="'OpenDyslexic',sans-serif" font-weight="bold" font-size="9" fill="#ffffff">F ENGINE BELL</text>
  <text x="544" y="358" text-anchor="middle" font-family="'OpenDyslexic',sans-serif" font-size="8" fill="#ffffffcc">bayonet</text>
  <rect x="8" y="8" width="268" height="54" rx="5" fill="rgba(255,255,255,0.93)" stroke="#607080" stroke-width="1"/>
  <text x="142" y="24" text-anchor="middle" font-family="'OpenDyslexic',sans-serif" font-weight="bold" font-size="9" fill="#333">MAINTENANCE SEQUENCE (BELLY VIEW)</text>
  <text x="142" y="40" text-anchor="middle" font-family="'OpenDyslexic',sans-serif" font-size="8" fill="#555">F -> E -> D -> B -> A -> C (aft to forward)</text>
  <text x="142" y="54" text-anchor="middle" font-family="'OpenDyslexic',sans-serif" font-size="7.5" fill="#888">Remove battery before opening any panel</text>
</g>
</svg>