<?xml version="1.0" encoding="UTF-8"?>
<!-- © 2026 Steve Griffing PE(CSE) CISSP-ISSEP CPP CC BY 4.0 -->
<!-- Canon: QMx Official Serenity Blueprints (Mandel/Earls 2007) 269ft×170ft×79ft -->
<!-- Scale: 18" (457.2mm)  Hull: Peter Farell CC BY 4.0  Nozzle: BamJr CC BY 4.0 -->
<!-- Visual: Firefly/Serenity © Joss Whedon/Mutant Enemy/Universal Fan work -->
<!-- SIDE PROFILE KEY RATIOS:
     dome peak = 0.218×L = 99.7mm above CL  (iconic high bridge)
     cargo top = 0.090×L = 41.1mm  dome:cargo = 2.42:1
     neck total = 28.8mm  neck:cargo = 0.32:1  (dramatic pinch)
     nacelle_ctr=97.7mm OD=93.5mm datum=82.1mm outer=144.5mm -->
<!-- © 2026 Steve Griffing PE(CSE) CISSP-ISSEP CPP CC BY 4.0 -->
<!-- Hull: Peter Farell CC BY 4.0  Nozzle: BamJr CC BY 4.0 -->
<!-- Visual: Firefly/Serenity © Joss Whedon/Mutant Enemy/Universal Fan work -->
<svg xmlns="http://www.w3.org/2000/svg" viewBox="0 0 820 460" width="820" height="460">
<defs>
  <style>@import url('https://fonts.cdnfonts.com/css/opendyslexic');
    text,tspan{font-family:'OpenDyslexic','OpenDyslexic Bold',sans-serif!important}
    @media print{svg{background:#fff!important}text,tspan{fill:#111!important}}</style>
  <marker id="ar" markerWidth="7" markerHeight="7" refX="6" refY="3.5" orient="auto">
    <path d="M0,0 L7,3.5 L0,7 Z" fill="#00e5ff" opacity="0.8"/></marker>
  <marker id="ar2" markerWidth="7" markerHeight="7" refX="1" refY="3.5" orient="auto">
    <path d="M7,0 L0,3.5 L7,7 Z" fill="#00e5ff" opacity="0.8"/></marker>
  <filter id="glow"><feGaussianBlur stdDeviation="3" result="b"/>
    <feMerge><feMergeNode in="b"/><feMergeNode in="SourceGraphic"/></feMerge></filter>
  <pattern id="grid" width="24" height="24" patternUnits="userSpaceOnUse">
    <path d="M24 0L0 0 0 24" fill="none" stroke="rgba(0,229,255,0.04)" stroke-width="0.5"/>
  </pattern>
</defs>
<rect width="820" height="460" fill="#07090e"/>
<rect width="820" height="460" fill="url(#grid)"/>
<path id="hull-top-stl" d="M 680.4,211.9 L 679.4,214.8 L 678.5,214.8 L 677.5,211.5 L 676.5,217.8 L 675.6,217.5 L 674.6,211.9 L 672.7,218.3 L 669.9,218.5 L 668.9,217.6 L 668.0,219.2 L 667.0,217.9 L 666.1,218.2 L 665.1,211.3 L 664.2,211.1 L 663.2,216.1 L 661.3,215.2 L 660.4,220.5 L 659.4,219.0 L 658.5,219.5 L 656.6,215.8 L 655.6,221.5 L 654.7,220.4 L 653.7,213.2 L 652.8,222.5 L 649.9,217.5 L 648.9,224.5 L 648.0,223.2 L 647.0,218.5 L 646.1,218.5 L 645.1,203.0 L 644.2,225.7 L 643.2,224.4 L 641.3,199.1 L 640.4,226.3 L 639.4,225.0 L 638.5,216.0 L 636.6,227.6 L 634.7,227.2 L 633.7,225.9 L 631.8,228.6 L 630.9,227.2 L 629.0,230.8 L 622.3,230.8 L 621.3,209.4 L 617.5,219.2 L 616.6,219.3 L 614.7,222.7 L 613.7,223.0 L 612.8,246.8 L 611.8,243.0 L 610.9,247.0 L 609.0,247.2 L 608.0,248.1 L 607.1,246.7 L 606.1,249.7 L 605.2,250.3 L 604.2,248.3 L 603.3,250.5 L 599.4,248.1 L 597.5,249.0 L 596.6,247.0 L 595.6,248.6 L 592.8,244.3 L 590.9,245.2 L 587.1,239.4 L 584.2,238.4 L 583.3,241.2 L 582.3,240.1 L 581.4,249.6 L 580.4,248.2 L 579.5,241.8 L 577.6,241.8 L 576.6,243.2 L 575.7,242.0 L 572.8,242.1 L 569.9,245.4 L 569.0,244.2 L 567.1,245.0 L 566.1,250.9 L 565.2,245.9 L 562.3,245.9 L 561.4,246.9 L 558.5,246.6 L 556.6,216.7 L 555.7,251.9 L 554.7,247.7 L 553.8,218.1 L 552.8,244.6 L 551.9,246.8 L 549.0,246.8 L 548.0,245.7 L 545.2,245.9 L 544.2,250.9 L 543.3,245.0 L 541.4,244.2 L 540.4,245.4 L 537.6,241.9 L 534.7,242.0 L 533.8,243.2 L 532.8,241.8 L 530.9,242.4 L 530.0,248.2 L 529.0,249.6 L 528.1,241.2 L 527.1,241.1 L 526.2,238.5 L 523.3,239.4 L 519.5,245.2 L 518.5,244.3 L 517.6,245.6 L 516.6,245.5 L 514.7,248.6 L 510.9,248.1 L 509.0,250.5 L 507.1,250.5 L 506.2,248.3 L 505.2,250.3 L 504.3,249.7 L 503.3,246.7 L 502.4,248.1 L 498.5,246.0 L 497.6,246.8 L 496.6,222.9 L 495.7,222.7 L 493.8,219.3 L 492.8,219.2 L 490.0,211.4 L 489.0,214.1 L 487.1,212.2 L 483.3,212.2 L 482.4,209.9 L 477.6,209.9 L 476.7,214.0 L 472.8,214.0 L 471.9,212.2 L 470.9,214.0 L 454.8,214.0 L 453.8,212.8 L 452.9,214.0 L 451.9,212.2 L 451.0,214.0 L 447.1,214.0 L 446.2,209.9 L 437.6,209.9 L 436.7,212.2 L 434.8,214.1 L 431.0,214.1 L 430.0,209.7 L 429.1,209.6 L 305.3,209.6 L 304.4,238.3 L 301.5,253.4 L 300.6,252.7 L 299.6,253.3 L 298.7,247.6 L 296.8,258.8 L 295.8,259.3 L 294.9,244.4 L 293.9,258.4 L 292.9,259.1 L 292.0,254.8 L 291.0,265.4 L 290.1,241.6 L 289.1,264.7 L 288.2,241.0 L 287.2,263.6 L 286.3,270.6 L 285.3,270.7 L 283.4,268.8 L 282.5,258.6 L 281.5,257.7 L 280.6,267.2 L 279.6,260.9 L 277.7,275.1 L 276.8,272.2 L 275.8,273.7 L 274.9,271.5 L 273.9,272.5 L 271.1,270.8 L 270.1,267.0 L 269.1,275.7 L 268.2,273.9 L 267.2,276.4 L 264.4,274.4 L 263.4,274.9 L 262.5,273.7 L 261.5,274.4 L 257.7,269.8 L 256.8,271.8 L 255.8,270.5 L 254.9,272.7 L 253.0,270.7 L 252.0,272.1 L 251.1,270.8 L 250.1,265.5 L 249.2,272.4 L 248.2,271.9 L 247.3,275.6 L 246.3,274.2 L 245.4,268.6 L 244.4,267.4 L 243.4,273.1 L 241.5,269.2 L 240.6,270.7 L 237.7,268.7 L 236.8,273.4 L 234.9,270.6 L 233.0,270.7 L 232.0,276.9 L 230.1,269.4 L 229.2,274.1 L 228.2,270.9 L 226.3,269.4 L 225.4,271.0 L 223.5,268.5 L 222.5,241.6 L 221.6,277.8 L 219.7,241.6 L 218.7,268.5 L 216.8,271.0 L 215.8,269.4 L 213.9,270.9 L 213.0,274.1 L 212.0,269.4 L 210.1,276.9 L 209.2,270.7 L 207.3,270.6 L 205.4,273.4 L 204.4,268.7 L 201.6,271.9 L 200.6,269.2 L 198.7,273.1 L 197.8,267.4 L 196.8,268.6 L 195.9,274.2 L 194.9,275.6 L 194.0,271.9 L 193.0,272.4 L 192.0,265.5 L 191.1,270.8 L 190.1,272.1 L 189.2,270.7 L 187.3,272.7 L 186.3,268.4 L 185.4,271.8 L 184.4,269.8 L 180.6,274.4 L 179.7,273.7 L 178.7,274.9 L 177.8,274.4 L 174.9,276.4 L 174.0,273.9 L 173.0,275.7 L 172.1,267.0 L 171.1,270.8 L 168.3,272.5 L 167.3,271.5 L 166.3,273.7 L 165.4,272.2 L 164.4,275.1 L 162.5,260.9 L 161.6,267.2 L 160.6,257.0 L 159.7,258.6 L 158.7,269.4 L 155.9,270.6 L 154.9,263.6 L 154.0,241.0 L 153.0,264.7 L 152.1,258.2 L 151.1,265.4 L 150.2,254.8 L 149.2,259.1 L 148.3,258.4 L 147.3,248.6 L 146.4,259.3 L 145.4,258.8 L 143.5,247.6 L 142.6,253.3 L 141.6,252.7 L 140.6,253.4 L 137.8,238.3 L 115.9,238.3 L 114.9,236.5 L 110.2,235.9 L 110.2,232.7 L 114.9,232.1 L 115.9,237.7 L 137.8,237.7 L 140.6,219.1 L 141.6,223.5 L 142.6,217.8 L 143.5,218.6 L 144.5,213.4 L 145.4,218.4 L 146.4,209.4 L 148.3,207.5 L 149.2,208.7 L 150.2,206.9 L 151.1,209.3 L 152.1,204.9 L 153.0,204.6 L 154.0,205.6 L 155.9,198.5 L 156.8,199.7 L 158.7,199.4 L 159.7,200.9 L 160.6,200.3 L 161.6,196.9 L 162.5,196.5 L 163.5,197.9 L 164.4,197.5 L 165.4,202.4 L 166.3,202.3 L 167.3,193.5 L 168.3,193.1 L 169.2,194.6 L 170.2,194.2 L 171.1,200.3 L 172.1,199.6 L 173.0,190.4 L 174.0,190.0 L 174.9,191.6 L 175.9,191.2 L 176.8,199.0 L 177.8,196.7 L 178.7,196.7 L 180.6,182.7 L 181.6,185.3 L 183.5,178.7 L 185.4,182.1 L 186.3,178.9 L 190.1,179.0 L 191.1,180.9 L 192.0,178.9 L 193.0,182.2 L 194.0,179.8 L 194.9,180.6 L 195.9,179.6 L 197.8,182.6 L 199.7,179.5 L 200.6,182.7 L 201.6,179.4 L 202.5,181.9 L 203.5,179.7 L 204.4,179.6 L 205.4,183.2 L 207.3,183.3 L 208.2,180.0 L 209.2,179.9 L 211.1,182.7 L 212.0,180.4 L 213.0,180.2 L 213.9,183.7 L 214.9,183.4 L 216.8,180.0 L 221.6,178.6 L 223.5,179.4 L 224.4,178.6 L 226.3,179.8 L 227.3,178.8 L 228.2,182.2 L 230.1,178.6 L 231.1,180.0 L 232.0,178.7 L 233.0,179.8 L 234.9,179.5 L 235.8,182.5 L 236.8,180.0 L 237.7,182.2 L 239.6,181.4 L 240.6,178.6 L 241.5,179.8 L 242.5,179.1 L 243.4,180.0 L 244.4,178.6 L 245.4,181.4 L 246.3,178.8 L 248.2,179.9 L 249.2,178.6 L 251.1,179.7 L 253.0,178.6 L 257.7,180.0 L 258.7,182.2 L 259.6,178.7 L 260.6,180.2 L 261.5,180.4 L 263.4,187.1 L 264.4,187.4 L 265.3,179.9 L 270.1,179.8 L 271.1,182.8 L 272.0,183.0 L 273.0,179.4 L 273.9,179.5 L 274.9,182.9 L 275.8,180.3 L 276.8,183.3 L 278.7,179.6 L 279.6,180.6 L 280.6,179.8 L 281.5,182.2 L 282.5,178.9 L 284.4,179.7 L 286.3,178.6 L 287.2,180.5 L 288.2,178.8 L 289.1,180.7 L 290.1,180.5 L 291.0,178.7 L 292.9,182.7 L 293.9,207.5 L 294.9,199.2 L 295.8,198.6 L 296.8,218.4 L 297.7,199.2 L 298.7,218.6 L 299.6,217.8 L 300.6,223.5 L 301.5,225.9 L 302.5,225.9 L 303.4,242.9 L 304.4,237.7 L 305.3,179.0 L 434.8,178.9 L 435.7,212.7 L 436.7,212.2 L 437.6,179.8 L 451.9,179.8 L 452.9,212.2 L 453.8,178.9 L 470.9,178.9 L 471.9,179.8 L 482.4,179.8 L 483.3,212.2 L 488.1,212.7 L 489.0,178.9 L 490.0,198.1 L 490.9,193.9 L 492.8,190.1 L 493.8,178.9 L 494.7,178.9 L 495.7,186.1 L 496.6,185.6 L 497.6,186.7 L 498.5,182.6 L 502.4,179.1 L 503.3,180.8 L 505.2,179.1 L 507.1,178.6 L 514.7,178.8 L 515.7,179.7 L 517.6,179.2 L 518.5,184.1 L 519.5,179.6 L 522.3,185.2 L 523.3,178.7 L 524.2,179.6 L 525.2,186.8 L 526.2,178.8 L 530.9,183.2 L 531.9,178.7 L 533.8,181.2 L 534.7,179.0 L 538.5,182.8 L 539.5,178.8 L 540.4,180.4 L 542.3,178.7 L 543.3,179.6 L 544.2,185.0 L 545.2,179.7 L 547.1,183.5 L 548.0,181.4 L 550.9,179.0 L 551.9,189.2 L 552.8,180.4 L 553.8,184.9 L 554.7,185.8 L 556.6,184.9 L 557.6,180.4 L 558.5,189.2 L 559.5,179.0 L 563.3,182.3 L 565.2,179.7 L 566.1,181.6 L 568.0,178.7 L 569.0,178.9 L 569.9,180.6 L 571.8,178.8 L 572.8,182.1 L 575.7,179.0 L 576.6,181.5 L 578.5,178.7 L 580.4,182.5 L 584.2,178.8 L 585.2,181.0 L 587.1,178.7 L 589.0,186.3 L 591.8,184.5 L 592.8,179.2 L 593.7,183.0 L 594.7,179.7 L 595.6,178.8 L 603.3,178.6 L 606.1,179.2 L 607.1,180.8 L 608.0,179.1 L 610.9,181.7 L 611.8,182.6 L 612.8,186.7 L 613.7,185.6 L 614.7,189.1 L 615.6,186.1 L 621.3,199.6 L 622.3,179.1 L 629.0,179.1 L 629.9,179.9 L 631.8,212.7 L 632.8,180.4 L 633.7,179.9 L 634.7,204.4 L 635.6,190.6 L 639.4,190.2 L 640.4,185.1 L 641.3,184.7 L 642.3,214.6 L 643.2,202.6 L 644.2,209.3 L 645.1,203.0 L 646.1,185.1 L 647.0,185.1 L 648.0,199.1 L 648.9,184.7 L 650.8,218.4 L 651.8,210.7 L 652.8,211.4 L 653.7,208.7 L 654.7,209.3 L 655.6,187.6 L 657.5,187.4 L 658.5,183.9 L 659.4,187.3 L 660.4,183.5 L 661.3,187.0 L 664.2,186.6 L 665.1,190.2 L 666.1,186.4 L 667.0,211.1 L 674.6,211.1 L 675.6,217.5 L 676.5,211.9 L 678.5,211.1 L 679.4,212.3 L 680.4,211.9 Z" fill="#0e2030" stroke="#00e5ff" stroke-width="2.5"/>
<text x="10" y="13" font-family="'OpenDyslexic Mono','OpenDyslexicMono',monospace" font-size="8" fill="rgba(0,229,255,0.85)" letter-spacing="1">SERENITY 24" (609mm) TOP / PLAN VIEW  — nacelle_ctr=170mm→CG-pivot Z=83mm
<polygon points="327.7,178.6 416.9,178.6 433.2,166.3 311.5,166.3" fill="#0e2030" stroke="#00e5ff" stroke-width="1.5"/>
<ellipse cx="367.2" cy="107.8" rx="58.4" ry="20.0" fill="#0e2030" stroke="#ff6b35" stroke-width="2.5"/>
<ellipse cx="367.2" cy="107.8" rx="50.0" ry="15.0" fill="rgba(255,107,53,0.10)" stroke="#ff6b35" stroke-width="1" stroke-dasharray="3 2"/>
<line x1="294.0" y1="166.3" x2="450.7" y2="166.3" stroke="#00e5ff" stroke-width="0.8" stroke-dasharray="3 2" opacity="0.5"/>
<line x1="286.0" y1="127.3" x2="458.7" y2="127.3" stroke="#d4a827" stroke-width="2" stroke-dasharray="6 3"/>
<line x1="294.0" y1="49.4" x2="450.7" y2="49.4" stroke="#ff6b35" stroke-width="0.8" stroke-dasharray="3 2" opacity="0.5"/>
<circle cx="313.8" cy="49.4" r="7" fill="#f87171" opacity="0.95" filter="url(#glow)"/>
<text x="313.8" y="29.4" text-anchor="middle" font-family="'OpenDyslexic','OpenDyslexic Bold',sans-serif" font-size="8" fill="#f87171" font-weight="bold">●PORT</text>
<text x="284.0" y="170.3" text-anchor="end" font-family="'OpenDyslexic','OpenDyslexic Bold',sans-serif" font-size="7" fill="#00e5ff">inner 51.0mm</text>
<text x="284.0" y="131.3" text-anchor="end" font-family="'OpenDyslexic','OpenDyslexic Bold',sans-serif" font-size="8" fill="#d4a827" font-weight="bold">datum 82.1mm</text>
<text x="284.0" y="53.4" text-anchor="end" font-family="'OpenDyslexic','OpenDyslexic Bold',sans-serif" font-size="7" fill="#ff6b35">outer 144.5mm</text>
<polygon points="327.7,281.4 416.9,281.4 433.2,293.7 311.5,293.7" fill="#0e2030" stroke="#00e5ff" stroke-width="1.5"/>
<ellipse cx="367.2" cy="352.2" rx="58.4" ry="20.0" fill="#0e2030" stroke="#ff6b35" stroke-width="2.5"/>
<ellipse cx="367.2" cy="352.2" rx="50.0" ry="15.0" fill="rgba(255,107,53,0.10)" stroke="#ff6b35" stroke-width="1" stroke-dasharray="3 2"/>
<line x1="294.0" y1="293.7" x2="450.7" y2="293.7" stroke="#00e5ff" stroke-width="0.8" stroke-dasharray="3 2" opacity="0.5"/>
<line x1="286.0" y1="332.7" x2="458.7" y2="332.7" stroke="#d4a827" stroke-width="2" stroke-dasharray="6 3"/>
<line x1="294.0" y1="410.6" x2="450.7" y2="410.6" stroke="#ff6b35" stroke-width="0.8" stroke-dasharray="3 2" opacity="0.5"/>
<circle cx="313.8" cy="410.6" r="7" fill="#4ade80" opacity="0.95" filter="url(#glow)"/>
<text x="313.8" y="430.6" text-anchor="middle" font-family="'OpenDyslexic','OpenDyslexic Bold',sans-serif" font-size="8" fill="#4ade80" font-weight="bold">●STBD</text>

<ellipse cx="178.6" cy="230.0" rx="34.3" ry="32.0" fill="rgba(0,229,255,0.10)" stroke="#00e5ff" stroke-width="1.2"/>
<ellipse cx="607.2" cy="230.0" rx="33.1" ry="36.0" fill="rgba(255,230,0,0.10)" stroke="#ffe600" stroke-width="1.8"/>
<text x="607.2" y="234.0" text-anchor="middle" font-family="'OpenDyslexic','OpenDyslexic Bold',sans-serif" font-size="7" fill="#ffe600">50mm×2 EDF</text>
<line x1="110.0" y1="230.0" x2="77.5" y2="230.0" stroke="#2dd4bf" stroke-width="5" stroke-linecap="round"/>
<rect x="168.3" y="185.1" width="32" height="11" rx="2" fill="rgba(74,222,128,0.28)" stroke="#4ade80" stroke-width="1.8"/>
<text x="184.3" y="181.1" text-anchor="middle" font-family="'OpenDyslexic','OpenDyslexic Bold',sans-serif" font-size="8" fill="#4ade80" font-weight="bold">GPS 140mm</text>
<circle cx="207.2" cy="230.0" r="5.5" fill="rgba(0,229,255,0.28)" stroke="#00e5ff" stroke-width="1.5"/>
<text x="207.2" y="220.0" text-anchor="middle" font-family="'OpenDyslexic','OpenDyslexic Bold',sans-serif" font-size="8" fill="#00e5ff" font-weight="bold">N1</text>
<circle cx="287.2" cy="230.0" r="5.5" fill="rgba(0,229,255,0.28)" stroke="#00e5ff" stroke-width="1.5"/>
<text x="287.2" y="220.0" text-anchor="middle" font-family="'OpenDyslexic','OpenDyslexic Bold',sans-serif" font-size="8" fill="#00e5ff" font-weight="bold">N2</text>
<circle cx="370.0" cy="230.0" r="5.5" fill="rgba(0,229,255,0.28)" stroke="#00e5ff" stroke-width="1.5"/>
<text x="370.0" y="220.0" text-anchor="middle" font-family="'OpenDyslexic','OpenDyslexic Bold',sans-serif" font-size="8" fill="#00e5ff" font-weight="bold">N3</text>
<circle cx="463.2" cy="230.0" r="5.5" fill="rgba(0,229,255,0.28)" stroke="#00e5ff" stroke-width="1.5"/>
<text x="463.2" y="220.0" text-anchor="middle" font-family="'OpenDyslexic','OpenDyslexic Bold',sans-serif" font-size="8" fill="#00e5ff" font-weight="bold">N4</text>
<rect x="319.2" y="204.3" width="84.0" height="51.4" rx="3" fill="rgba(244,114,182,0.08)" stroke="#f472b6" stroke-width="1.5" stroke-dasharray="4 2"/>
<text x="361.2" y="233.0" text-anchor="middle" font-family="'OpenDyslexic','OpenDyslexic Bold',sans-serif" font-size="8" fill="#f472b6">PAYLOAD BAY</text>
<circle cx="427.2" cy="230.0" r="7" fill="rgba(255,107,53,0.25)" stroke="#ff6b35" stroke-width="1.5" stroke-dasharray="2 2"/>
<text x="427.2" y="250.0" text-anchor="middle" font-family="'OpenDyslexic','OpenDyslexic Bold',sans-serif" font-size="8" fill="#ff6b35">SiK↓ sta260</text>
<circle cx="567.2" cy="207.7" r="5" fill="rgba(244,114,182,0.3)" stroke="#f472b6" stroke-width="1.8"/>
<text x="567.2" y="194.7" text-anchor="middle" font-family="'OpenDyslexic','OpenDyslexic Bold',sans-serif" font-size="8" fill="#f472b6">49MHz top wire</text>
<line x1="299.7" y1="152.0" x2="299.7" y2="308.0" stroke="#4ade80" stroke-width="1.5" stroke-dasharray="7 3"/>
<polygon points="299.7,152.0 289.7,172.0 309.7,172.0" fill="#4ade80"/>
<text x="299.7" y="144.0" text-anchor="middle" font-family="'OpenDyslexic','OpenDyslexic Bold',sans-serif" font-size="9" fill="#4ade80" font-weight="bold">CG 203mm (7.99")</text>
<text x="367.2" y="41.4" text-anchor="middle" font-family="'OpenDyslexic','OpenDyslexic Bold',sans-serif" font-size="8" fill="#ff6b35" font-weight="bold">tip-to-tip ~486mm (19.1") nacelle · Canon 170ft beam</text>
<line x1="343.2" y1="178.6" x2="343.2" y2="148.6" stroke="#a3e635" stroke-width="0.8" stroke-dasharray="4 2" opacity="0.75"/>
<text x="343.2" y="144.6" text-anchor="middle" font-family="'OpenDyslexic','OpenDyslexic Bold',sans-serif" font-size="7" fill="#a3e635">max fuse 110mm</text>
<line x1="534.6" y1="215.7" x2="534.6" y2="189.7" stroke="#ffe600" stroke-width="0.8" stroke-dasharray="4 2" opacity="0.75"/>
<text x="534.6" y="185.7" text-anchor="middle" font-family="'OpenDyslexic','OpenDyslexic Bold',sans-serif" font-size="7" fill="#ffe600">neck 30.5mm</text>
<line x1="110.0" y1="440.0" x2="681.5" y2="440.0" stroke="#00e5ff" stroke-width="0.5" opacity="0.28"/>
<text x="395.8" y="453.0" text-anchor="middle" font-family="'OpenDyslexic','OpenDyslexic Bold',sans-serif" font-size="9" fill="rgba(255,255,255,0.82)">609.6 mm (24.00")  Canon 269ft</text>
<text x="105.0" y="234.0" text-anchor="end" font-family="'OpenDyslexic','OpenDyslexic Bold',sans-serif" font-size="9" fill="rgba(255,255,255,0.82)">NOSE</text>
<text x="686.5" y="234.0" font-family="'OpenDyslexic','OpenDyslexic Bold',sans-serif" font-size="9" fill="rgba(255,255,255,0.82)">TAIL</text>
<text x="10" y="454" font-family="'OpenDyslexic Mono','OpenDyslexicMono',monospace" font-size="7" fill="rgba(163,230,53,0.85)">© 2026 Steve Griffing PE(CSE) CISSP-ISSEP CPP CC BY 4.0  Hull: Peter Farell CC BY 4.0  Nozzle: BamJr CC BY 4.0  Fan engineering work</text>
</svg>