<?xml version="1.0" encoding="UTF-8"?>
<!-- © 2026 Steve Griffing PE(CSE) CISSP-ISSEP CPP CC BY 4.0 -->
<!-- Canon: QMx Official Serenity Blueprints (Mandel/Earls 2007) 269ft×170ft×79ft -->
<!-- Scale: 18" (457.2mm)  Hull: Peter Farell CC BY 4.0  Nozzle: BamJr CC BY 4.0 -->
<!-- Visual: Firefly/Serenity © Joss Whedon/Mutant Enemy/Universal Fan work -->
<!-- SIDE PROFILE KEY RATIOS:
     dome peak = 0.218×L = 99.7mm above CL  (iconic high bridge)
     cargo top = 0.090×L = 41.1mm  dome:cargo = 2.42:1
     neck total = 28.8mm  neck:cargo = 0.32:1  (dramatic pinch)
     nacelle_ctr=97.7mm OD=93.5mm datum=82.1mm outer=144.5mm -->
<!-- © 2026 Steve Griffing PE(CSE) CISSP-ISSEP CPP CC BY 4.0 -->
<!-- Hull: Peter Farell CC BY 4.0  Nozzle: BamJr CC BY 4.0 -->
<!-- Visual: Firefly/Serenity © Joss Whedon/Mutant Enemy/Universal Fan work -->
<svg xmlns="http://www.w3.org/2000/svg" viewBox="0 0 680 500" width="680" height="500">
<defs>
  <style>@import url('https://fonts.cdnfonts.com/css/opendyslexic');
    text,tspan{font-family:'OpenDyslexic','OpenDyslexic Bold',sans-serif!important}
    @media print{svg{background:#fff!important}text,tspan{fill:#111!important}}</style>
  <marker id="ar" markerWidth="7" markerHeight="7" refX="6" refY="3.5" orient="auto">
    <path d="M0,0 L7,3.5 L0,7 Z" fill="#00e5ff" opacity="0.8"/></marker>
  <marker id="ar2" markerWidth="7" markerHeight="7" refX="1" refY="3.5" orient="auto">
    <path d="M7,0 L0,3.5 L7,7 Z" fill="#00e5ff" opacity="0.8"/></marker>
  <filter id="glow"><feGaussianBlur stdDeviation="3" result="b"/>
    <feMerge><feMergeNode in="b"/><feMergeNode in="SourceGraphic"/></feMerge></filter>
  <pattern id="grid" width="24" height="24" patternUnits="userSpaceOnUse">
    <path d="M24 0L0 0 0 24" fill="none" stroke="rgba(0,229,255,0.04)" stroke-width="0.5"/>
  </pattern>
</defs>
<rect width="680" height="500" fill="#07090e"/>
<rect width="680" height="500" fill="url(#grid)"/>
<path id="hull-front-stl" d="M 616.4,140.8 L 615.0,145.4 L 613.6,138.9 L 610.8,143.2 L 609.4,137.5 L 608.1,142.9 L 606.7,140.6 L 605.3,135.2 L 603.9,135.7 L 602.5,137.9 L 601.1,136.7 L 599.8,140.0 L 597.0,136.8 L 595.6,137.3 L 594.2,140.4 L 592.8,141.2 L 591.4,146.7 L 590.1,149.0 L 588.7,149.5 L 587.3,134.3 L 585.9,136.8 L 584.5,137.4 L 580.4,174.0 L 579.0,140.9 L 577.6,144.0 L 576.2,158.6 L 574.8,129.9 L 570.7,144.4 L 569.3,157.1 L 567.9,129.1 L 566.5,132.4 L 563.8,147.6 L 559.6,196.5 L 558.2,147.8 L 556.9,150.6 L 555.5,139.3 L 554.1,142.3 L 552.7,125.7 L 551.3,129.1 L 548.5,191.6 L 547.2,190.4 L 545.8,138.8 L 544.4,124.7 L 543.0,128.1 L 541.6,192.2 L 540.2,187.6 L 538.9,189.2 L 537.5,135.6 L 536.1,125.5 L 534.7,121.6 L 533.3,189.4 L 531.9,188.6 L 529.2,190.1 L 527.8,135.4 L 526.4,122.5 L 525.0,126.0 L 523.6,191.8 L 522.3,152.1 L 519.5,138.7 L 518.1,141.8 L 516.7,123.3 L 515.3,119.9 L 514.0,148.5 L 512.6,151.3 L 509.8,129.6 L 508.4,132.8 L 507.0,152.2 L 502.9,132.1 L 500.1,125.5 L 498.7,145.7 L 497.3,137.5 L 496.0,206.9 L 494.6,193.6 L 493.2,130.7 L 490.4,147.1 L 489.0,145.4 L 487.7,147.5 L 484.9,135.9 L 483.5,139.4 L 482.1,162.0 L 480.7,143.9 L 479.4,163.4 L 478.0,142.6 L 476.6,139.0 L 475.2,151.3 L 473.8,148.5 L 472.4,171.7 L 471.1,145.9 L 468.3,142.3 L 465.5,154.2 L 462.8,145.1 L 461.4,146.9 L 460.0,155.1 L 458.6,157.4 L 457.2,154.6 L 454.4,156.0 L 453.1,153.3 L 444.8,152.0 L 443.4,153.3 L 440.6,162.6 L 439.2,162.4 L 437.8,165.5 L 436.5,165.2 L 435.1,167.0 L 430.9,167.1 L 429.5,171.9 L 428.2,169.6 L 426.8,172.9 L 425.4,181.6 L 424.0,168.8 L 422.6,166.4 L 419.9,180.5 L 418.5,178.4 L 417.1,170.3 L 415.7,167.9 L 412.9,178.3 L 411.5,213.0 L 408.8,168.1 L 407.4,165.7 L 406.0,170.4 L 404.6,168.1 L 403.2,175.2 L 401.9,163.3 L 400.5,165.6 L 399.1,160.8 L 397.7,158.8 L 394.9,159.7 L 393.6,167.0 L 389.4,157.2 L 388.0,169.9 L 386.6,160.0 L 383.9,153.5 L 382.5,158.9 L 379.7,154.2 L 378.3,171.0 L 377.0,151.5 L 375.6,183.5 L 374.2,155.5 L 370.0,151.3 L 368.6,151.3 L 367.3,155.9 L 365.9,148.4 L 364.5,148.8 L 363.1,151.4 L 361.7,152.1 L 360.3,148.6 L 357.6,161.1 L 356.2,148.9 L 354.8,194.4 L 353.4,146.0 L 352.0,190.8 L 349.3,188.2 L 347.9,190.9 L 346.5,204.1 L 345.1,184.8 L 343.7,204.3 L 342.4,191.0 L 341.0,188.7 L 339.6,191.4 L 338.2,186.7 L 336.8,202.2 L 335.4,198.2 L 334.1,182.7 L 332.7,183.7 L 331.3,179.6 L 329.9,182.6 L 328.5,190.1 L 327.1,178.3 L 323.0,176.4 L 321.6,179.2 L 320.2,177.6 L 318.8,178.4 L 316.1,172.0 L 314.7,175.6 L 311.9,166.9 L 310.5,167.8 L 309.1,165.3 L 306.4,178.5 L 303.6,162.2 L 300.8,173.0 L 299.5,167.6 L 296.7,166.3 L 295.3,158.8 L 293.9,163.1 L 292.5,157.7 L 291.2,159.8 L 289.8,158.0 L 288.4,158.8 L 287.0,170.2 L 285.6,158.7 L 281.5,158.8 L 280.1,185.3 L 278.7,162.4 L 277.3,158.9 L 274.5,158.7 L 273.2,159.6 L 271.8,184.2 L 270.4,192.2 L 269.0,193.8 L 267.6,185.0 L 264.9,186.9 L 263.5,195.0 L 262.1,196.2 L 260.7,188.5 L 259.3,188.4 L 257.9,192.5 L 256.6,189.8 L 255.2,191.7 L 253.8,196.6 L 252.4,194.0 L 251.0,194.3 L 249.6,192.6 L 248.3,198.8 L 245.5,194.2 L 244.1,198.1 L 242.7,195.5 L 241.3,198.9 L 240.0,196.4 L 231.6,201.9 L 230.3,202.0 L 219.2,210.5 L 216.4,215.0 L 215.0,213.0 L 213.7,222.1 L 209.5,217.1 L 208.1,221.7 L 206.7,219.9 L 204.0,218.7 L 202.6,237.2 L 201.2,224.0 L 199.8,234.5 L 198.4,222.3 L 197.1,237.6 L 195.7,226.6 L 194.3,224.9 L 192.9,228.0 L 191.5,226.3 L 190.1,232.9 L 188.7,231.4 L 187.4,232.4 L 181.8,229.9 L 180.4,247.5 L 179.1,251.7 L 177.7,246.5 L 176.3,282.8 L 174.9,279.0 L 172.1,248.4 L 170.8,251.8 L 169.4,247.3 L 162.5,242.4 L 161.1,253.1 L 159.7,241.1 L 158.3,245.4 L 155.5,244.3 L 154.2,245.4 L 152.8,244.9 L 151.4,245.5 L 150.0,247.7 L 148.6,248.3 L 147.2,246.6 L 145.8,247.3 L 144.5,282.9 L 143.1,283.1 L 141.7,279.6 L 140.3,278.7 L 137.5,278.7 L 136.2,309.3 L 134.8,278.7 L 133.4,311.2 L 132.0,281.2 L 130.6,278.7 L 129.2,278.7 L 127.9,283.1 L 126.5,279.6 L 125.1,278.7 L 123.7,278.7 L 122.3,282.9 L 120.9,282.3 L 119.6,278.7 L 116.8,282.3 L 115.4,278.7 L 112.6,279.7 L 111.3,278.7 L 105.7,279.3 L 104.3,278.7 L 103.0,279.3 L 97.4,278.7 L 96.0,282.3 L 94.6,278.7 L 83.6,278.7 L 82.2,281.2 L 80.8,278.7 L 79.4,278.7 L 78.0,282.3 L 76.7,278.7 L 75.3,282.3 L 73.9,282.3 L 72.5,278.7 L 67.0,278.7 L 65.6,285.4 L 64.2,278.7 L 67.0,288.6 L 68.4,308.7 L 69.7,314.0 L 71.1,314.0 L 72.5,410.0 L 80.8,410.0 L 82.2,406.4 L 83.6,410.0 L 86.3,410.0 L 87.7,406.4 L 89.1,410.0 L 91.9,410.0 L 93.3,406.1 L 94.6,410.0 L 96.0,410.0 L 97.4,406.4 L 98.8,406.4 L 100.2,410.0 L 103.0,400.3 L 104.3,410.0 L 105.7,406.4 L 107.1,391.7 L 108.5,407.8 L 109.9,401.0 L 111.3,410.0 L 112.6,406.4 L 114.0,410.0 L 115.4,406.4 L 116.8,410.0 L 119.6,410.0 L 120.9,406.4 L 122.3,410.0 L 130.6,410.0 L 132.0,406.4 L 133.4,353.1 L 134.8,410.0 L 136.2,406.4 L 137.5,389.1 L 138.9,386.7 L 140.3,399.3 L 141.7,389.1 L 143.1,388.4 L 144.5,386.0 L 145.8,409.7 L 147.2,408.2 L 148.6,410.0 L 150.0,404.7 L 151.4,390.6 L 154.2,410.0 L 155.5,406.2 L 161.1,410.0 L 162.5,407.6 L 165.2,406.1 L 166.6,410.0 L 168.0,406.6 L 169.4,409.4 L 170.8,405.5 L 172.1,410.0 L 173.5,402.0 L 174.9,410.0 L 176.3,399.5 L 177.7,408.0 L 179.1,402.1 L 180.4,410.0 L 181.8,398.1 L 183.2,410.0 L 184.6,390.2 L 186.0,410.0 L 187.4,410.0 L 188.7,406.4 L 190.1,410.0 L 191.5,406.4 L 192.9,410.0 L 197.1,410.0 L 198.4,407.4 L 199.8,410.0 L 201.2,399.3 L 202.6,405.7 L 204.0,403.5 L 205.4,410.0 L 210.9,409.9 L 212.3,400.5 L 215.0,410.0 L 216.4,410.0 L 217.8,406.4 L 219.2,410.0 L 220.6,406.4 L 222.0,410.0 L 223.3,406.4 L 224.7,410.0 L 238.6,410.0 L 240.0,406.4 L 241.3,410.0 L 244.1,410.0 L 245.5,406.4 L 246.9,410.0 L 248.3,406.5 L 249.6,410.0 L 251.0,406.4 L 252.4,410.0 L 259.3,410.0 L 260.7,375.6 L 262.1,377.5 L 263.5,375.6 L 264.9,377.5 L 266.2,377.5 L 267.6,324.8 L 269.0,393.1 L 270.4,377.5 L 271.8,377.5 L 273.2,375.6 L 274.5,375.6 L 275.9,377.5 L 277.3,403.6 L 282.9,410.0 L 284.2,409.3 L 285.6,402.7 L 287.0,310.9 L 288.4,392.3 L 289.8,393.4 L 291.2,410.0 L 292.5,291.7 L 293.9,336.3 L 295.3,268.2 L 296.7,334.5 L 298.1,263.9 L 299.5,328.1 L 300.8,204.9 L 302.2,211.2 L 303.6,330.9 L 305.0,272.2 L 306.4,247.7 L 307.8,332.9 L 309.1,316.5 L 310.5,262.2 L 311.9,332.2 L 313.3,330.0 L 314.7,330.7 L 316.1,270.4 L 317.4,270.0 L 318.8,290.9 L 320.2,266.4 L 321.6,315.5 L 323.0,316.4 L 325.7,233.3 L 327.1,317.9 L 332.7,334.3 L 334.1,255.2 L 335.4,255.8 L 336.8,252.8 L 338.2,287.0 L 339.6,301.5 L 341.0,302.1 L 342.4,282.8 L 343.7,316.5 L 345.1,317.4 L 346.5,239.6 L 347.9,253.4 L 349.3,261.5 L 350.7,264.6 L 352.0,275.8 L 353.4,299.2 L 357.6,301.0 L 359.0,298.8 L 361.7,301.3 L 364.5,301.9 L 365.9,301.8 L 367.3,300.6 L 368.6,302.6 L 370.0,303.2 L 372.8,301.1 L 374.2,302.9 L 381.1,306.2 L 382.5,311.8 L 386.6,314.0 L 388.0,315.7 L 389.4,328.2 L 390.8,326.1 L 392.2,315.3 L 393.6,331.4 L 394.9,331.4 L 397.7,329.8 L 399.1,325.2 L 400.5,335.2 L 403.2,337.2 L 404.6,341.0 L 406.0,341.2 L 407.4,339.3 L 408.8,326.7 L 410.2,399.7 L 411.5,395.6 L 412.9,396.7 L 414.3,393.4 L 415.7,322.0 L 417.1,404.1 L 418.5,400.6 L 419.9,367.5 L 421.2,404.3 L 422.6,400.9 L 425.4,318.7 L 426.8,410.0 L 429.5,400.1 L 430.9,409.8 L 433.7,404.4 L 435.1,398.0 L 436.5,397.7 L 437.8,410.0 L 440.6,389.8 L 442.0,400.9 L 443.4,397.5 L 444.8,376.8 L 446.1,409.8 L 447.5,406.2 L 448.9,410.0 L 450.3,406.4 L 451.7,367.3 L 453.1,376.6 L 455.8,376.0 L 457.2,380.0 L 458.6,380.6 L 460.0,410.0 L 461.4,406.4 L 462.8,393.8 L 464.1,309.8 L 465.5,393.0 L 466.9,410.0 L 468.3,410.0 L 472.4,284.6 L 473.8,376.4 L 475.2,252.7 L 476.6,285.3 L 478.0,375.0 L 480.7,378.7 L 482.1,328.0 L 483.5,406.0 L 484.9,315.5 L 486.3,373.4 L 487.7,361.3 L 489.0,363.2 L 490.4,368.1 L 491.8,381.3 L 493.2,379.7 L 494.6,248.6 L 496.0,401.3 L 498.7,402.0 L 500.1,368.1 L 501.5,397.9 L 502.9,401.3 L 504.3,302.0 L 505.6,373.4 L 508.4,381.1 L 509.8,398.3 L 511.2,401.7 L 512.6,376.6 L 514.0,375.0 L 515.3,305.8 L 516.7,375.1 L 518.1,398.3 L 519.5,401.6 L 520.9,375.0 L 522.3,368.1 L 523.6,232.5 L 525.0,263.5 L 526.4,263.5 L 527.8,376.6 L 529.2,373.4 L 530.6,381.3 L 531.9,380.0 L 533.3,385.6 L 534.7,399.5 L 536.1,402.9 L 537.5,390.5 L 538.9,398.9 L 541.6,404.3 L 543.0,381.8 L 544.4,389.3 L 545.8,392.5 L 547.2,402.0 L 548.5,405.5 L 549.9,333.5 L 551.3,402.8 L 552.7,406.3 L 554.1,391.2 L 555.5,394.4 L 556.9,376.6 L 559.6,380.6 L 561.0,375.0 L 562.4,330.1 L 563.8,391.2 L 565.2,394.4 L 566.5,405.4 L 567.9,409.0 L 569.3,367.3 L 570.7,376.7 L 572.1,406.4 L 573.5,410.0 L 577.6,371.8 L 579.0,392.0 L 580.4,386.5 L 581.8,373.6 L 583.1,389.6 L 584.5,384.2 L 585.9,387.3 L 587.3,375.5 L 588.7,378.4 L 590.1,377.6 L 591.4,380.7 L 592.8,373.0 L 594.2,406.4 L 595.6,335.6 L 597.0,410.0 L 598.4,406.2 L 599.8,380.8 L 601.1,409.8 L 602.5,366.0 L 603.9,404.1 L 606.7,410.0 L 609.4,401.1 L 610.8,410.0 L 612.2,392.6 L 613.6,400.6 L 615.0,399.8 L 616.4,392.7 Z" fill="#0e2030" fill-opacity="0.85" stroke="#00e5ff" stroke-width="2"/>
<text x="10" y="13" font-family="'OpenDyslexic Mono','OpenDyslexicMono',monospace" font-size="8" fill="rgba(0,229,255,0.85)" letter-spacing="1">SERENITY 24" (609mm) FRONT VIEW  — nacelle_ctr=109mm from CL · OD=60mm tandem
<path d="M340.0,221.1 Q352.6,245.1 348.0,282.9 L332.0,282.9 Q327.4,245.1 340.0,221.1 Z" fill="#0e2030" stroke="#00e5ff" stroke-width="2"/>
<ellipse cx="340.0" cy="182.3" rx="34.3" ry="24.0" fill="rgba(0,229,255,0.12)" stroke="#00e5ff" stroke-width="1.5"/>
<rect x="328.6" y="145.1" width="22.9" height="13" rx="2" fill="rgba(74,222,128,0.28)" stroke="#4ade80" stroke-width="1.5"/>
<text x="340.0" y="142.3" text-anchor="middle" font-family="'OpenDyslexic','OpenDyslexic Bold',sans-serif" font-size="8" fill="#4ade80" font-weight="bold">GPS</text>
<line x1="288.6" y1="236.0" x2="276.3" y2="254.3" stroke="#00e5ff" stroke-width="5" stroke-linecap="round"/>
<ellipse cx="217.8" cy="254.3" rx="58.4" ry="17.5" fill="rgba(255,107,53,0.10)" stroke="#ff6b35" stroke-width="2.5"/>
<ellipse cx="217.8" cy="254.3" rx="50.0" ry="13.8" fill="rgba(255,107,53,0.08)" stroke="#ff6b35" stroke-width="1" stroke-dasharray="3 2"/>
<line x1="226.6" y1="254.3" x2="265.3" y2="254.3" stroke="#ff6b35" stroke-width="0.7" opacity="0.25"/>
<line x1="225.4" y1="257.4" x2="259.0" y2="261.2" stroke="#ff6b35" stroke-width="0.7" opacity="0.25"/>
<line x1="222.2" y1="259.7" x2="241.6" y2="266.2" stroke="#ff6b35" stroke-width="0.7" opacity="0.25"/>
<line x1="217.8" y1="260.5" x2="217.8" y2="268.0" stroke="#ff6b35" stroke-width="0.7" opacity="0.25"/>
<line x1="213.5" y1="259.7" x2="194.1" y2="266.2" stroke="#ff6b35" stroke-width="0.7" opacity="0.25"/>
<line x1="210.3" y1="257.4" x2="176.7" y2="261.2" stroke="#ff6b35" stroke-width="0.7" opacity="0.25"/>
<line x1="209.1" y1="254.3" x2="170.3" y2="254.3" stroke="#ff6b35" stroke-width="0.7" opacity="0.25"/>
<line x1="210.3" y1="251.2" x2="176.7" y2="247.4" stroke="#ff6b35" stroke-width="0.7" opacity="0.25"/>
<line x1="213.5" y1="248.9" x2="194.1" y2="242.4" stroke="#ff6b35" stroke-width="0.7" opacity="0.25"/>
<line x1="217.8" y1="248.0" x2="217.8" y2="240.5" stroke="#ff6b35" stroke-width="0.7" opacity="0.25"/>
<line x1="222.2" y1="248.9" x2="241.6" y2="242.4" stroke="#ff6b35" stroke-width="0.7" opacity="0.25"/>
<line x1="225.4" y1="251.2" x2="259.0" y2="247.4" stroke="#ff6b35" stroke-width="0.7" opacity="0.25"/>
<line x1="276.3" y1="228.8" x2="276.3" y2="279.8" stroke="#00e5ff" stroke-width="0.8" stroke-dasharray="2 2" opacity="0.70"/>
<line x1="237.3" y1="228.8" x2="237.3" y2="279.8" stroke="#d4a827" stroke-width="2.2" stroke-dasharray="2 2" opacity="0.70"/>
<line x1="159.4" y1="228.8" x2="159.4" y2="279.8" stroke="#ff6b35" stroke-width="0.8" stroke-dasharray="2 2" opacity="0.70"/>
<circle cx="237.3" cy="254.3" r="5.5" fill="#d4a827" opacity="0.95"/>
<circle cx="159.4" cy="254.3" r="8" fill="#f87171" opacity="0.95" filter="url(#glow)"/>
<text x="159.4" y="228.3" text-anchor="middle" font-family="'OpenDyslexic','OpenDyslexic Bold',sans-serif" font-size="9" fill="#f87171" font-weight="bold">●PORT</text>
<text x="256.8" y="289.3" text-anchor="middle" font-family="'OpenDyslexic','OpenDyslexic Bold',sans-serif" font-size="8" fill="#00e5ff">OD 60mm (2.36")</text>
<text x="198.4" y="289.3" text-anchor="middle" font-family="'OpenDyslexic','OpenDyslexic Bold',sans-serif" font-size="8" fill="#ff6b35">nacelle span from CL</text>
<text x="227.3" y="228.3" text-anchor="end" font-family="'OpenDyslexic','OpenDyslexic Bold',sans-serif" font-size="8" fill="#d4a827" font-weight="bold">pivot Z=83mm from intake</text>
<line x1="391.4" y1="236.0" x2="403.7" y2="254.3" stroke="#00e5ff" stroke-width="5" stroke-linecap="round"/>
<ellipse cx="462.2" cy="254.3" rx="58.4" ry="17.5" fill="rgba(255,107,53,0.10)" stroke="#ff6b35" stroke-width="2.5"/>
<ellipse cx="462.2" cy="254.3" rx="50.0" ry="13.8" fill="rgba(255,107,53,0.08)" stroke="#ff6b35" stroke-width="1" stroke-dasharray="3 2"/>
<line x1="470.9" y1="254.3" x2="509.7" y2="254.3" stroke="#ff6b35" stroke-width="0.7" opacity="0.25"/>
<line x1="469.7" y1="257.4" x2="503.3" y2="261.2" stroke="#ff6b35" stroke-width="0.7" opacity="0.25"/>
<line x1="466.5" y1="259.7" x2="485.9" y2="266.2" stroke="#ff6b35" stroke-width="0.7" opacity="0.25"/>
<line x1="462.2" y1="260.5" x2="462.2" y2="268.0" stroke="#ff6b35" stroke-width="0.7" opacity="0.25"/>
<line x1="457.8" y1="259.7" x2="438.4" y2="266.2" stroke="#ff6b35" stroke-width="0.7" opacity="0.25"/>
<line x1="454.6" y1="257.4" x2="421.0" y2="261.2" stroke="#ff6b35" stroke-width="0.7" opacity="0.25"/>
<line x1="453.4" y1="254.3" x2="414.7" y2="254.3" stroke="#ff6b35" stroke-width="0.7" opacity="0.25"/>
<line x1="454.6" y1="251.2" x2="421.0" y2="247.4" stroke="#ff6b35" stroke-width="0.7" opacity="0.25"/>
<line x1="457.8" y1="248.9" x2="438.4" y2="242.4" stroke="#ff6b35" stroke-width="0.7" opacity="0.25"/>
<line x1="462.2" y1="248.0" x2="462.2" y2="240.5" stroke="#ff6b35" stroke-width="0.7" opacity="0.25"/>
<line x1="466.5" y1="248.9" x2="485.9" y2="242.4" stroke="#ff6b35" stroke-width="0.7" opacity="0.25"/>
<line x1="469.7" y1="251.2" x2="503.3" y2="247.4" stroke="#ff6b35" stroke-width="0.7" opacity="0.25"/>
<line x1="403.7" y1="228.8" x2="403.7" y2="279.8" stroke="#00e5ff" stroke-width="0.8" stroke-dasharray="2 2" opacity="0.70"/>
<line x1="442.7" y1="228.8" x2="442.7" y2="279.8" stroke="#d4a827" stroke-width="2.2" stroke-dasharray="2 2" opacity="0.70"/>
<line x1="520.6" y1="228.8" x2="520.6" y2="279.8" stroke="#ff6b35" stroke-width="0.8" stroke-dasharray="2 2" opacity="0.70"/>
<circle cx="442.7" cy="254.3" r="5.5" fill="#d4a827" opacity="0.95"/>
<circle cx="520.6" cy="254.3" r="8" fill="#4ade80" opacity="0.95" filter="url(#glow)"/>
<text x="520.6" y="228.3" text-anchor="middle" font-family="'OpenDyslexic','OpenDyslexic Bold',sans-serif" font-size="9" fill="#4ade80" font-weight="bold">STBD●</text>
<text x="462.2" y="296.8" text-anchor="middle" font-family="'OpenDyslexic','OpenDyslexic Bold',sans-serif" font-size="8" fill="#ff6b35" font-weight="bold">STBD 50mm×2 EDF</text>
<text x="462.2" y="309.3" text-anchor="middle" font-family="'OpenDyslexic','OpenDyslexic Bold',sans-serif" font-size="7" fill="rgba(255,107,53,0.70)">~911g @6S (2× 50mm)</text>
<rect x="308.0" y="304.6" width="64.0" height="12.5" rx="2" fill="rgba(244,114,182,0.10)" stroke="#f472b6" stroke-width="1.5" stroke-dasharray="4 2"/>
<text x="340.0" y="318.3" text-anchor="middle" font-family="'OpenDyslexic','OpenDyslexic Bold',sans-serif" font-size="8" fill="#f472b6">PAYLOAD DOOR</text>
<line x1="314.9" y1="304.6" x2="308.0" y2="333.2" stroke="#00e5ff" stroke-width="2" opacity="0.5"/>
<line x1="308.0" y1="333.2" x2="286.3" y2="333.2" stroke="#00e5ff" stroke-width="3" opacity="0.5"/>
<line x1="365.1" y1="304.6" x2="372.0" y2="333.2" stroke="#00e5ff" stroke-width="2" opacity="0.5"/>
<line x1="372.0" y1="333.2" x2="393.7" y2="333.2" stroke="#00e5ff" stroke-width="3" opacity="0.5"/>
<line x1="159.4" y1="478.0" x2="520.6" y2="478.0" stroke="#ff6b35" stroke-width="0.7" marker-start="url(#ar2)" marker-end="url(#ar)"/>
<text x="340.0" y="493.0" text-anchor="middle" font-family="'OpenDyslexic','OpenDyslexic Bold',sans-serif" font-size="9" fill="rgba(255,255,255,0.82)">~486mm (19.1") nacelle tip-to-tip · Canon 170ft</text>
<text x="340.0" y="290.0" text-anchor="middle" font-family="'OpenDyslexic','OpenDyslexic Bold',sans-serif" font-size="8" fill="#a3e635">nacelle CL to CL ~218mm (8.6")</text>
<text x="10" y="494" font-family="'OpenDyslexic Mono','OpenDyslexicMono',monospace" font-size="7" fill="rgba(163,230,53,0.85)">© 2026 Steve Griffing PE(CSE) CISSP-ISSEP CPP CC BY 4.0  Hull: Peter Farell CC BY 4.0  Nozzle: BamJr CC BY 4.0  Fan engineering work</text>
</svg>