<?xml version="1.0" encoding="UTF-8"?>
<!-- © 2026 Steve Griffing PE(CSE) CISSP-ISSEP CPP CC BY 4.0 -->
<!-- Canon: QMx Official Serenity Blueprints (Mandel/Earls 2007) 269ft×170ft×79ft -->
<!-- Scale: 18" (457.2mm)  Hull: Peter Farell CC BY 4.0  Nozzle: BamJr CC BY 4.0 -->
<!-- Visual: Firefly/Serenity © Joss Whedon/Mutant Enemy/Universal Fan work -->
<!-- SIDE PROFILE KEY RATIOS:
     dome peak = 0.218×L = 99.7mm above CL  (iconic high bridge)
     cargo top = 0.090×L = 41.1mm  dome:cargo = 2.42:1
     neck total = 28.8mm  neck:cargo = 0.32:1  (dramatic pinch)
     nacelle_ctr=97.7mm OD=93.5mm datum=82.1mm outer=144.5mm -->
<!-- © 2026 Steve Griffing PE(CSE) CISSP-ISSEP CPP CC BY 4.0 -->
<!-- Hull: Peter Farell CC BY 4.0  Nozzle: BamJr CC BY 4.0 -->
<!-- Visual: Firefly/Serenity © Joss Whedon/Mutant Enemy/Universal Fan work -->
<svg xmlns="http://www.w3.org/2000/svg" viewBox="0 0 820 460" width="820" height="460">
<defs>
  <style>@import url('https://fonts.cdnfonts.com/css/opendyslexic');
    text,tspan{font-family:'OpenDyslexic','OpenDyslexic Bold',sans-serif!important}
    @media print{svg{background:#fff!important}text,tspan{fill:#111!important}}</style>
  <marker id="ar" markerWidth="7" markerHeight="7" refX="6" refY="3.5" orient="auto">
    <path d="M0,0 L7,3.5 L0,7 Z" fill="#00e5ff" opacity="0.8"/></marker>
  <marker id="ar2" markerWidth="7" markerHeight="7" refX="1" refY="3.5" orient="auto">
    <path d="M7,0 L0,3.5 L7,7 Z" fill="#00e5ff" opacity="0.8"/></marker>
  <filter id="glow"><feGaussianBlur stdDeviation="3" result="b"/>
    <feMerge><feMergeNode in="b"/><feMergeNode in="SourceGraphic"/></feMerge></filter>
  <pattern id="grid" width="24" height="24" patternUnits="userSpaceOnUse">
    <path d="M24 0L0 0 0 24" fill="none" stroke="rgba(0,229,255,0.04)" stroke-width="0.5"/>
  </pattern>
</defs>
<rect width="820" height="460" fill="#07090e"/>
<rect width="820" height="460" fill="url(#grid)"/>
<path id="hull-bottom-stl" d="M 737.4,175.6 L 736.2,183.8 L 735.0,184.0 L 733.9,181.9 L 732.7,192.4 L 729.1,189.6 L 727.9,193.8 L 724.4,194.7 L 723.2,192.4 L 722.0,196.7 L 720.9,194.3 L 719.7,176.0 L 717.3,170.0 L 716.1,187.6 L 714.9,185.6 L 713.8,172.0 L 712.6,200.4 L 711.4,196.5 L 710.2,197.9 L 709.0,189.6 L 707.8,187.4 L 706.7,203.3 L 705.5,200.7 L 704.3,179.3 L 703.1,206.0 L 701.9,203.4 L 700.7,194.5 L 699.6,192.2 L 698.4,211.7 L 697.2,208.8 L 696.0,138.3 L 694.8,138.3 L 693.6,150.1 L 692.5,215.1 L 691.3,210.9 L 690.1,210.9 L 688.9,138.8 L 687.7,216.9 L 686.5,213.9 L 685.4,187.3 L 683.0,220.6 L 680.6,219.5 L 679.4,216.5 L 677.1,223.5 L 675.9,219.1 L 674.7,227.4 L 673.5,229.8 L 665.2,229.8 L 664.1,168.5 L 659.3,196.5 L 658.2,196.9 L 655.8,206.7 L 654.6,207.5 L 653.4,275.9 L 652.2,264.8 L 651.1,276.2 L 648.7,276.8 L 647.5,279.6 L 646.3,276.5 L 645.1,284.0 L 644.0,285.9 L 642.8,282.7 L 641.6,286.4 L 640.4,286.3 L 639.2,246.3 L 638.0,283.0 L 636.9,279.6 L 635.7,279.6 L 634.5,281.9 L 633.3,277.0 L 632.1,281.0 L 629.8,272.3 L 627.4,267.8 L 626.2,271.1 L 622.7,258.9 L 621.5,247.6 L 620.3,252.4 L 619.1,253.4 L 617.9,251.5 L 616.7,259.7 L 615.6,257.1 L 614.4,283.8 L 613.2,263.1 L 612.0,261.4 L 610.8,262.4 L 609.6,261.5 L 608.5,265.4 L 606.1,261.7 L 603.7,262.2 L 602.6,267.0 L 601.4,267.9 L 600.2,271.9 L 599.0,268.3 L 596.6,270.7 L 595.5,287.5 L 594.3,273.2 L 590.7,273.2 L 589.5,276.0 L 587.2,276.2 L 586.0,275.2 L 584.8,211.8 L 583.6,189.5 L 582.4,290.3 L 581.3,278.3 L 580.1,175.6 L 578.9,267.8 L 577.7,275.6 L 576.5,276.3 L 574.2,275.8 L 573.0,272.5 L 570.6,273.6 L 569.4,273.2 L 568.2,287.5 L 567.1,270.7 L 564.7,268.3 L 563.5,271.9 L 562.3,267.9 L 561.1,267.0 L 560.0,261.8 L 557.6,261.5 L 555.2,265.4 L 554.0,261.5 L 551.7,263.1 L 550.5,280.6 L 549.3,283.8 L 548.1,259.7 L 546.9,259.4 L 545.8,251.8 L 544.6,253.4 L 543.4,252.4 L 537.5,271.1 L 536.3,269.4 L 535.1,272.3 L 533.9,272.1 L 531.6,281.0 L 530.4,281.9 L 529.2,280.1 L 526.8,279.6 L 524.5,286.2 L 522.1,286.4 L 520.9,280.8 L 519.7,285.9 L 518.6,284.0 L 517.4,276.5 L 516.2,279.6 L 515.0,276.8 L 512.6,276.2 L 511.5,273.4 L 510.3,275.9 L 509.1,207.2 L 507.9,206.7 L 505.5,196.9 L 504.4,196.5 L 500.8,174.1 L 499.6,181.8 L 497.3,176.4 L 492.5,176.4 L 491.3,169.7 L 485.4,169.7 L 484.3,181.5 L 479.5,181.5 L 478.3,176.4 L 477.2,181.5 L 457.0,181.5 L 455.9,178.0 L 454.7,181.5 L 453.5,176.4 L 452.3,181.5 L 447.6,181.5 L 446.4,169.7 L 435.7,169.7 L 434.6,176.4 L 432.2,181.8 L 427.5,181.8 L 426.3,169.2 L 425.1,168.9 L 271.3,168.9 L 270.1,251.5 L 266.6,294.6 L 265.4,292.7 L 264.2,294.3 L 263.0,292.7 L 261.8,260.5 L 260.7,310.1 L 259.5,311.6 L 258.3,308.0 L 255.9,310.9 L 254.7,299.1 L 253.6,329.0 L 252.4,325.1 L 251.2,327.0 L 250.0,324.5 L 248.8,283.5 L 247.7,343.9 L 246.5,344.3 L 245.3,341.4 L 244.1,297.0 L 242.9,309.7 L 241.7,307.6 L 240.6,334.3 L 239.4,316.3 L 237.0,357.0 L 235.8,348.6 L 234.6,353.8 L 233.5,346.7 L 232.3,349.4 L 229.9,346.4 L 228.7,333.2 L 227.5,333.8 L 226.4,358.6 L 225.2,354.3 L 224.0,360.7 L 221.6,358.6 L 220.4,355.3 L 219.3,356.4 L 218.1,353.3 L 216.9,354.8 L 212.2,342.6 L 211.0,347.5 L 209.8,344.5 L 208.6,350.1 L 206.2,345.1 L 205.1,348.4 L 203.9,345.4 L 202.7,330.2 L 201.5,349.4 L 200.3,347.7 L 199.1,358.3 L 196.8,338.3 L 195.6,335.6 L 194.4,351.2 L 193.2,342.4 L 192.0,340.1 L 190.9,344.2 L 188.5,342.3 L 187.3,338.7 L 186.1,352.1 L 183.8,344.7 L 181.4,344.2 L 180.2,362.0 L 177.9,340.6 L 176.7,354.1 L 175.5,345.0 L 173.1,340.5 L 171.9,345.3 L 169.6,338.9 L 168.4,260.9 L 167.2,364.6 L 164.8,260.9 L 163.7,338.9 L 161.3,345.3 L 160.1,340.5 L 158.9,344.2 L 157.7,345.0 L 156.6,354.1 L 155.4,340.6 L 153.0,362.0 L 151.8,344.2 L 149.5,344.7 L 147.1,352.1 L 145.9,338.7 L 142.4,347.7 L 141.2,340.1 L 140.0,342.4 L 138.8,351.2 L 137.6,335.6 L 136.4,338.3 L 134.1,358.3 L 132.9,347.7 L 131.7,349.4 L 130.5,330.2 L 129.4,345.4 L 128.2,348.4 L 127.0,345.1 L 124.6,350.1 L 123.4,344.5 L 122.3,347.5 L 121.1,342.6 L 116.3,354.8 L 115.2,353.3 L 114.0,356.4 L 112.8,355.3 L 111.6,358.6 L 109.2,360.7 L 108.1,354.3 L 106.9,358.6 L 105.7,333.8 L 104.5,333.2 L 103.3,346.4 L 101.0,349.4 L 99.8,346.7 L 98.6,353.8 L 97.4,348.6 L 96.2,357.0 L 93.9,316.3 L 92.7,334.3 L 91.5,307.6 L 90.3,309.7 L 89.1,297.0 L 87.9,341.4 L 86.8,344.3 L 85.6,343.9 L 84.4,283.5 L 83.2,324.5 L 82.0,327.0 L 80.8,325.1 L 79.7,329.0 L 78.5,299.1 L 77.3,310.9 L 74.9,308.0 L 73.7,311.6 L 72.6,310.1 L 71.4,280.9 L 70.2,292.7 L 69.0,294.3 L 67.8,292.7 L 66.7,294.6 L 63.1,251.5 L 35.9,251.5 L 34.7,246.0 L 31.2,245.7 L 28.8,244.5 L 28.8,235.2 L 31.2,234.0 L 34.7,233.7 L 35.9,249.7 L 63.1,249.7 L 66.7,196.4 L 67.8,208.8 L 69.0,192.4 L 70.2,194.9 L 71.4,179.8 L 72.6,194.3 L 73.7,168.5 L 76.1,162.9 L 77.3,166.4 L 78.5,161.3 L 79.7,165.9 L 80.8,155.5 L 82.0,154.7 L 83.2,156.5 L 85.6,137.1 L 86.8,140.5 L 87.9,139.3 L 89.1,139.7 L 91.5,144.7 L 92.7,132.6 L 93.9,131.3 L 95.0,133.6 L 96.2,134.0 L 97.4,148.4 L 98.6,147.4 L 99.8,122.9 L 101.0,121.7 L 102.1,124.2 L 103.3,141.8 L 104.5,142.2 L 105.7,140.3 L 106.9,113.8 L 108.1,112.7 L 109.2,115.5 L 110.4,115.9 L 111.6,138.0 L 112.8,131.9 L 114.0,131.8 L 116.3,91.7 L 117.5,99.3 L 119.9,80.2 L 122.3,90.1 L 123.4,81.0 L 124.6,80.7 L 125.8,81.5 L 127.0,80.5 L 128.2,81.2 L 129.4,87.1 L 130.5,80.9 L 131.7,90.5 L 132.9,83.4 L 134.1,85.9 L 135.3,83.1 L 136.4,85.3 L 137.6,84.9 L 138.8,96.9 L 140.0,82.7 L 141.2,91.9 L 142.4,82.4 L 143.5,89.3 L 144.7,83.2 L 145.9,82.8 L 147.1,93.1 L 148.3,92.6 L 149.5,93.5 L 150.6,84.1 L 151.8,83.7 L 154.2,90.9 L 155.4,85.1 L 156.6,84.7 L 157.7,94.6 L 158.9,94.0 L 160.1,86.1 L 161.3,83.9 L 162.5,83.5 L 163.7,81.7 L 166.0,81.7 L 167.2,80.0 L 169.6,82.4 L 170.8,80.1 L 173.1,83.5 L 174.3,80.5 L 175.5,90.5 L 176.7,88.3 L 177.9,80.0 L 179.0,84.1 L 180.2,80.0 L 181.4,83.4 L 182.6,83.9 L 183.8,82.8 L 185.0,91.3 L 186.1,84.2 L 187.3,90.5 L 189.7,88.2 L 190.9,80.0 L 192.0,83.6 L 193.2,81.5 L 194.4,84.1 L 195.6,80.0 L 196.8,88.3 L 198.0,80.5 L 199.1,80.9 L 200.3,83.9 L 201.5,80.1 L 203.9,83.3 L 206.2,80.0 L 207.4,81.7 L 209.8,82.0 L 212.2,83.9 L 213.3,90.4 L 214.5,80.2 L 215.7,94.6 L 216.9,84.7 L 219.3,105.1 L 220.4,104.7 L 221.6,83.7 L 227.5,83.3 L 228.7,92.2 L 229.9,92.7 L 231.1,82.4 L 232.3,82.7 L 233.5,92.4 L 234.6,84.9 L 235.8,91.6 L 237.0,85.3 L 238.2,83.1 L 239.4,85.9 L 240.6,83.4 L 241.7,90.5 L 242.9,80.9 L 244.1,81.2 L 246.5,86.0 L 247.7,81.5 L 248.8,80.2 L 250.0,80.5 L 251.2,86.0 L 252.4,85.7 L 253.6,80.2 L 255.9,91.7 L 257.1,137.9 L 258.3,139.2 L 259.5,137.8 L 260.7,194.3 L 261.8,139.1 L 263.0,194.9 L 264.2,192.4 L 265.4,208.8 L 266.6,215.7 L 267.8,215.8 L 268.9,264.5 L 270.1,249.7 L 271.3,81.1 L 432.2,80.8 L 433.4,177.8 L 434.6,176.4 L 435.7,83.4 L 453.5,83.4 L 454.7,176.4 L 455.9,80.8 L 477.2,80.8 L 478.3,83.4 L 491.3,83.4 L 492.5,176.4 L 497.3,176.4 L 498.4,177.8 L 499.6,80.8 L 500.8,135.9 L 502.0,123.9 L 504.4,113.0 L 505.5,80.8 L 506.7,81.0 L 507.9,101.6 L 509.1,100.2 L 510.3,106.2 L 511.5,91.4 L 516.2,81.4 L 517.4,83.3 L 518.6,81.2 L 520.9,81.4 L 522.1,80.0 L 523.3,81.4 L 525.7,80.0 L 526.8,81.9 L 529.2,80.3 L 531.6,80.7 L 532.8,82.6 L 533.9,89.6 L 535.1,81.3 L 536.3,96.5 L 537.5,82.9 L 538.7,84.8 L 541.0,103.6 L 542.2,80.4 L 543.4,82.3 L 544.6,103.2 L 545.8,80.0 L 551.7,92.9 L 552.9,81.1 L 554.0,83.0 L 555.2,88.2 L 556.4,80.7 L 558.8,87.8 L 560.0,88.6 L 561.1,91.7 L 562.3,80.6 L 563.5,84.6 L 564.7,80.5 L 565.9,80.4 L 567.1,82.3 L 568.2,98.0 L 569.4,83.0 L 570.6,84.9 L 571.8,97.6 L 573.0,88.0 L 574.2,87.0 L 576.5,80.6 L 577.7,110.5 L 578.9,85.2 L 580.1,98.2 L 581.3,100.7 L 582.4,100.7 L 583.6,98.2 L 584.8,85.2 L 586.0,110.5 L 587.2,80.6 L 589.5,87.0 L 591.9,90.6 L 593.1,84.9 L 594.3,83.0 L 595.5,88.4 L 597.8,80.4 L 599.0,80.5 L 600.2,85.8 L 602.6,80.6 L 603.7,90.0 L 607.3,80.7 L 608.5,88.2 L 610.8,81.1 L 613.2,91.2 L 617.9,80.0 L 619.1,86.8 L 621.5,80.4 L 623.8,102.2 L 628.6,95.0 L 629.8,81.3 L 630.9,82.6 L 632.1,80.7 L 634.5,80.3 L 636.9,81.9 L 638.0,80.0 L 640.4,81.3 L 641.6,80.0 L 642.8,81.0 L 645.1,81.2 L 646.3,83.3 L 647.5,81.4 L 651.1,88.8 L 652.2,91.4 L 653.4,106.2 L 654.6,100.2 L 655.8,108.3 L 657.0,101.6 L 661.7,123.9 L 664.1,140.2 L 665.2,81.3 L 673.5,81.3 L 674.7,83.7 L 675.9,155.2 L 677.1,177.8 L 678.3,84.9 L 679.4,83.7 L 680.6,154.2 L 681.8,114.6 L 686.5,113.3 L 687.7,98.3 L 688.9,97.6 L 690.1,175.1 L 691.3,175.1 L 692.5,149.2 L 693.6,150.1 L 694.8,138.3 L 696.0,138.3 L 697.2,98.3 L 698.4,97.6 L 699.6,166.9 L 700.7,194.3 L 701.9,172.4 L 703.1,174.1 L 704.3,166.8 L 706.7,171.1 L 707.8,105.6 L 709.0,105.4 L 710.2,95.0 L 711.4,104.8 L 712.6,94.2 L 713.8,126.0 L 714.9,103.8 L 719.7,102.3 L 720.9,175.5 L 722.0,173.8 L 730.3,173.8 L 731.5,191.8 L 732.7,175.5 L 735.0,173.8 L 736.2,173.9 L 737.4,175.5 Z" fill="#0e2030" fill-opacity="0.85" stroke="#00e5ff" stroke-width="2"/>
<text x="10" y="13" font-family="'OpenDyslexic Mono','OpenDyslexicMono',monospace" font-size="8" fill="rgba(0,229,255,0.85)" letter-spacing="1">SERENITY 24" (609mm) BOTTOM VIEW  — nacelle_ctr=109mm from CL
<polygon points="327.7,178.6 416.9,178.6 433.2,166.3 311.5,166.3" fill="#0e2030" stroke="#00e5ff" stroke-width="1.5"/>
<ellipse cx="367.2" cy="107.8" rx="58.4" ry="20.0" fill="#0e2030" stroke="#ff6b35" stroke-width="2.5"/>
<ellipse cx="367.2" cy="107.8" rx="50.0" ry="15.0" fill="rgba(255,107,53,0.10)" stroke="#ff6b35" stroke-width="1" stroke-dasharray="3 2"/>
<line x1="294.0" y1="166.3" x2="450.7" y2="166.3" stroke="#00e5ff" stroke-width="0.8" stroke-dasharray="3 2" opacity="0.5"/>
<line x1="286.0" y1="127.3" x2="458.7" y2="127.3" stroke="#d4a827" stroke-width="2" stroke-dasharray="6 3"/>
<line x1="294.0" y1="49.4" x2="450.7" y2="49.4" stroke="#ff6b35" stroke-width="0.8" stroke-dasharray="3 2" opacity="0.5"/>
<circle cx="313.8" cy="49.4" r="7" fill="#f87171" opacity="0.95" filter="url(#glow)"/>
<text x="313.8" y="29.4" text-anchor="middle" font-family="'OpenDyslexic','OpenDyslexic Bold',sans-serif" font-size="8" fill="#f87171" font-weight="bold">●PORT</text>
<text x="284.0" y="170.3" text-anchor="end" font-family="'OpenDyslexic','OpenDyslexic Bold',sans-serif" font-size="7" fill="#00e5ff">inner 51.0mm</text>
<text x="284.0" y="131.3" text-anchor="end" font-family="'OpenDyslexic','OpenDyslexic Bold',sans-serif" font-size="8" fill="#d4a827" font-weight="bold">pivot Z=83mm</text>
<text x="284.0" y="53.4" text-anchor="end" font-family="'OpenDyslexic','OpenDyslexic Bold',sans-serif" font-size="7" fill="#ff6b35">outer 144.5mm</text>
<polygon points="327.7,281.4 416.9,281.4 433.2,293.7 311.5,293.7" fill="#0e2030" stroke="#00e5ff" stroke-width="1.5"/>
<ellipse cx="367.2" cy="352.2" rx="58.4" ry="20.0" fill="#0e2030" stroke="#ff6b35" stroke-width="2.5"/>
<ellipse cx="367.2" cy="352.2" rx="50.0" ry="15.0" fill="rgba(255,107,53,0.10)" stroke="#ff6b35" stroke-width="1" stroke-dasharray="3 2"/>
<line x1="294.0" y1="293.7" x2="450.7" y2="293.7" stroke="#00e5ff" stroke-width="0.8" stroke-dasharray="3 2" opacity="0.5"/>
<line x1="286.0" y1="332.7" x2="458.7" y2="332.7" stroke="#d4a827" stroke-width="2" stroke-dasharray="6 3"/>
<line x1="294.0" y1="410.6" x2="450.7" y2="410.6" stroke="#ff6b35" stroke-width="0.8" stroke-dasharray="3 2" opacity="0.5"/>
<circle cx="313.8" cy="410.6" r="7" fill="#4ade80" opacity="0.95" filter="url(#glow)"/>
<text x="313.8" y="430.6" text-anchor="middle" font-family="'OpenDyslexic','OpenDyslexic Bold',sans-serif" font-size="8" fill="#4ade80" font-weight="bold">●STBD</text>
<path d="M 110.0,230.0 L 122.6,222.0 L 147.7,212.9 L 183.7,203.1 L 206.0,192.3 L 235.7,184.9 L 284.3,179.7 L 343.2,178.6 L 395.8,178.6 L 438.6,179.7 L 470.0,185.4 L 502.0,196.9 L 523.2,206.0 L 534.6,215.7 L 546.1,211.1 L 571.8,202.0 L 599.2,193.4 L 635.2,191.7 L 662.1,197.4 L 681.5,203.7 L 681.5,256.3 L 662.1,262.6 L 635.2,268.3 L 599.2,266.6 L 571.8,258.0 L 546.1,248.9 L 534.6,244.3 L 523.2,254.0 L 502.0,263.1 L 470.0,274.6 L 438.6,280.3 L 395.8,281.4 L 343.2,281.4 L 284.3,280.3 L 235.7,275.1 L 206.0,267.7 L 183.7,256.9 L 147.7,247.1 L 122.6,238.0 L 110.0,230.0 Z" fill="#0e2030" stroke="#00e5ff" stroke-width="2.5"/>
<ellipse cx="178.6" cy="230.0" rx="34.3" ry="32.0" fill="rgba(0,229,255,0.04)" stroke="rgba(0,229,255,0.28)" stroke-width="1" stroke-dasharray="5 3"/>
<rect x="319.2" y="204.3" width="84.0" height="51.4" rx="4" fill="rgba(244,114,182,0.18)" stroke="#f472b6" stroke-width="2"/>
<text x="361.2" y="230.0" text-anchor="middle" font-family="'OpenDyslexic','OpenDyslexic Bold',sans-serif" font-size="9" fill="#f472b6" font-weight="bold">PAYLOAD BAY</text>
<text x="361.2" y="243.0" text-anchor="middle" font-family="'OpenDyslexic','OpenDyslexic Bold',sans-serif" font-size="7" fill="rgba(244,114,182,0.75)">112×55mm</text>
<circle cx="427.2" cy="230.0" r="10" fill="none" stroke="#ff6b35" stroke-width="0.7" opacity="0.35"/>
<circle cx="427.2" cy="230.0" r="16" fill="none" stroke="#ff6b35" stroke-width="0.7" opacity="0.35"/>
<circle cx="427.2" cy="230.0" r="22" fill="none" stroke="#ff6b35" stroke-width="0.7" opacity="0.35"/>
<circle cx="427.2" cy="230.0" r="7" fill="rgba(255,107,53,0.32)" stroke="#ff6b35" stroke-width="2"/>
<text x="427.2" y="202.0" text-anchor="middle" font-family="'OpenDyslexic','OpenDyslexic Bold',sans-serif" font-size="9" fill="#ff6b35" font-weight="bold">SiK↓ sta 260mm</text>
<circle cx="361.5" cy="230.0" r="6" fill="rgba(255,255,200,0.85)" stroke="#ffffaa" stroke-width="1.5" filter="url(#glow)"/>
<text x="361.5" y="216.0" text-anchor="middle" font-family="'OpenDyslexic','OpenDyslexic Bold',sans-serif" font-size="7" fill="#ffffaa">BELLY◆</text>
<ellipse cx="607.2" cy="230.0" rx="33.1" ry="36.0" fill="rgba(255,230,0,0.08)" stroke="#ffe600" stroke-width="1.5"/>
<line x1="110.0" y1="230.0" x2="77.5" y2="230.0" stroke="#2dd4bf" stroke-width="5" stroke-linecap="round"/>
<line x1="187.7" y1="230.0" x2="270.0" y2="230.0" stroke="#00e5ff" stroke-width="3.5" stroke-linecap="round" opacity="0.5"/>
<line x1="356.9" y1="230.0" x2="439.2" y2="230.0" stroke="#00e5ff" stroke-width="3.5" stroke-linecap="round" opacity="0.5"/>
<line x1="299.7" y1="162.0" x2="299.7" y2="298.0" stroke="#4ade80" stroke-width="1.5" stroke-dasharray="6 3"/>
<polygon points="299.7,162.0 290.7,180.0 308.7,180.0" fill="#4ade80"/>
<text x="299.7" y="155.0" text-anchor="middle" font-family="'OpenDyslexic','OpenDyslexic Bold',sans-serif" font-size="9" fill="#4ade80" font-weight="bold">CG 203mm (7.99")</text>
<line x1="110.0" y1="440.0" x2="681.5" y2="440.0" stroke="#00e5ff" stroke-width="0.5" opacity="0.25"/>
<text x="395.8" y="453.0" text-anchor="middle" font-family="'OpenDyslexic','OpenDyslexic Bold',sans-serif" font-size="9" fill="rgba(255,255,255,0.82)">609.6 mm (24.00")  Canon 269ft</text>
<text x="105.0" y="234.0" text-anchor="end" font-family="'OpenDyslexic','OpenDyslexic Bold',sans-serif" font-size="9" fill="rgba(255,255,255,0.82)">NOSE</text>
<text x="686.5" y="234.0" font-family="'OpenDyslexic','OpenDyslexic Bold',sans-serif" font-size="9" fill="rgba(255,255,255,0.82)">TAIL</text>
<text x="10" y="454" font-family="'OpenDyslexic Mono','OpenDyslexicMono',monospace" font-size="7" fill="rgba(163,230,53,0.85)">© 2026 Steve Griffing PE(CSE) CISSP-ISSEP CPP CC BY 4.0  Hull: Peter Farell CC BY 4.0  Nozzle: BamJr CC BY 4.0  Fan engineering work</text>
<g id="belly-panel-callouts">
  <line x1="75" y1="290" x2="75" y2="324" stroke="#c0392b" stroke-width="1.5" stroke-dasharray="4 2"/>
  <rect x="27" y="324" width="108" height="34" rx="4" fill="#c0392b" opacity="0.92"/>
  <text x="81" y="339" text-anchor="middle" font-family="'OpenDyslexic',sans-serif" font-weight="bold" font-size="9" fill="#ffffff">A NOSE CAP</text>
  <text x="81" y="353" text-anchor="middle" font-family="'OpenDyslexic',sans-serif" font-size="8" fill="#ffffffcc">bayonet</text>
  <line x1="265" y1="250" x2="265" y2="284" stroke="#27ae60" stroke-width="1.5" stroke-dasharray="4 2"/>
  <rect x="217" y="284" width="108" height="34" rx="4" fill="#27ae60" opacity="0.92"/>
  <text x="271" y="299" text-anchor="middle" font-family="'OpenDyslexic',sans-serif" font-weight="bold" font-size="9" fill="#ffffff">C CARGO BELLY</text>
  <text x="271" y="313" text-anchor="middle" font-family="'OpenDyslexic',sans-serif" font-size="8" fill="#ffffffcc">hinged (main)</text>
  <line x1="450" y1="282" x2="450" y2="316" stroke="#e67e22" stroke-width="1.5" stroke-dasharray="4 2"/>
  <rect x="402" y="316" width="108" height="34" rx="4" fill="#e67e22" opacity="0.92"/>
  <text x="456" y="331" text-anchor="middle" font-family="'OpenDyslexic',sans-serif" font-weight="bold" font-size="9" fill="#ffffff">E AFT SERVICE</text>
  <text x="456" y="345" text-anchor="middle" font-family="'OpenDyslexic',sans-serif" font-size="8" fill="#ffffffcc">belly access</text>
  <line x1="538" y1="295" x2="538" y2="329" stroke="#16a085" stroke-width="1.5" stroke-dasharray="4 2"/>
  <rect x="490" y="329" width="108" height="34" rx="4" fill="#16a085" opacity="0.92"/>
  <text x="544" y="344" text-anchor="middle" font-family="'OpenDyslexic',sans-serif" font-weight="bold" font-size="9" fill="#ffffff">F ENGINE BELL</text>
  <text x="544" y="358" text-anchor="middle" font-family="'OpenDyslexic',sans-serif" font-size="8" fill="#ffffffcc">bayonet</text>
  <rect x="8" y="8" width="268" height="54" rx="5" fill="rgba(255,255,255,0.93)" stroke="#607080" stroke-width="1"/>
  <text x="142" y="24" text-anchor="middle" font-family="'OpenDyslexic',sans-serif" font-weight="bold" font-size="9" fill="#333">MAINTENANCE SEQUENCE (BELLY VIEW)</text>
  <text x="142" y="40" text-anchor="middle" font-family="'OpenDyslexic',sans-serif" font-size="8" fill="#555">F -> E -> D -> B -> A -> C (aft to forward)</text>
  <text x="142" y="54" text-anchor="middle" font-family="'OpenDyslexic',sans-serif" font-size="7.5" fill="#888">Remove battery before opening any panel</text>
</g>
</svg>