<?xml version="1.0" encoding="UTF-8"?>
<!-- © 2026 Steve Griffing PE(CSE) CISSP-ISSEP CPP CC BY 4.0 -->
<!-- Canon: QMx Official Serenity Blueprints (Mandel/Earls 2007) 269ft×170ft×79ft -->
<!-- Scale: 18" (457.2mm)  Hull: Peter Farell CC BY 4.0  Nozzle: BamJr CC BY 4.0 -->
<!-- Visual: Firefly/Serenity © Joss Whedon/Mutant Enemy/Universal Fan work -->
<!-- SIDE PROFILE KEY RATIOS:
     dome peak = 0.218×L = 99.7mm above CL  (iconic high bridge)
     cargo top = 0.090×L = 41.1mm  dome:cargo = 2.42:1
     neck total = 28.8mm  neck:cargo = 0.32:1  (dramatic pinch)
     nacelle_ctr=97.7mm OD=93.5mm datum=82.1mm outer=144.5mm -->
<!-- © 2026 Steve Griffing PE(CSE) CISSP-ISSEP CPP CC BY 4.0 -->
<!-- Hull: Peter Farell CC BY 4.0  Nozzle: BamJr CC BY 4.0 -->
<!-- Visual: Firefly/Serenity © Joss Whedon/Mutant Enemy/Universal Fan work -->
<svg xmlns="http://www.w3.org/2000/svg" viewBox="0 0 680 500" width="680" height="500">
<defs>
  <style>@import url('https://fonts.cdnfonts.com/css/opendyslexic');
    text,tspan{font-family:'OpenDyslexic','OpenDyslexic Bold',sans-serif!important}
    @media print{svg{background:#fff!important}text,tspan{fill:#111!important}}</style>
  <marker id="ar" markerWidth="7" markerHeight="7" refX="6" refY="3.5" orient="auto">
    <path d="M0,0 L7,3.5 L0,7 Z" fill="#00e5ff" opacity="0.8"/></marker>
  <marker id="ar2" markerWidth="7" markerHeight="7" refX="1" refY="3.5" orient="auto">
    <path d="M7,0 L0,3.5 L7,7 Z" fill="#00e5ff" opacity="0.8"/></marker>
  <filter id="glow"><feGaussianBlur stdDeviation="3" result="b"/>
    <feMerge><feMergeNode in="b"/><feMergeNode in="SourceGraphic"/></feMerge></filter>
  <pattern id="grid" width="24" height="24" patternUnits="userSpaceOnUse">
    <path d="M24 0L0 0 0 24" fill="none" stroke="rgba(0,229,255,0.04)" stroke-width="0.5"/>
  </pattern>
</defs>
<rect width="680" height="500" fill="#07090e"/>
<rect width="680" height="500" fill="url(#grid)"/>
<path id="hull-front-stl" d="M 618.1,137.5 L 615.3,134.9 L 613.9,134.8 L 612.5,136.3 L 611.1,132.5 L 608.3,136.5 L 606.9,131.1 L 605.5,133.3 L 604.1,131.2 L 602.7,132.6 L 601.3,132.2 L 599.9,129.7 L 598.5,131.2 L 597.1,131.4 L 595.7,135.2 L 594.3,130.9 L 592.9,136.0 L 591.5,128.6 L 590.1,147.4 L 588.7,126.1 L 587.3,131.2 L 585.9,130.2 L 583.2,144.4 L 581.8,122.6 L 580.4,128.2 L 579.0,174.2 L 577.6,141.8 L 576.2,126.9 L 574.8,131.6 L 573.4,131.0 L 572.0,135.6 L 570.6,155.0 L 569.2,119.0 L 566.4,130.2 L 563.6,151.6 L 562.2,117.2 L 559.4,126.7 L 558.0,118.4 L 556.6,122.8 L 555.2,140.2 L 553.8,122.6 L 552.4,126.9 L 551.0,137.4 L 549.6,116.4 L 548.2,120.9 L 546.8,190.3 L 545.4,117.4 L 544.0,125.9 L 542.6,121.8 L 541.2,185.1 L 539.8,187.5 L 538.4,177.2 L 537.0,122.4 L 534.2,114.5 L 532.8,119.0 L 531.4,186.2 L 530.0,187.5 L 528.6,132.4 L 525.8,115.9 L 524.4,114.7 L 523.0,119.2 L 521.6,142.1 L 518.8,135.8 L 516.0,115.6 L 514.6,114.1 L 513.2,118.7 L 511.8,135.9 L 510.5,139.7 L 507.7,117.5 L 506.3,116.1 L 504.9,120.6 L 503.5,133.0 L 502.1,125.5 L 499.3,119.3 L 497.9,119.3 L 496.5,138.4 L 495.1,191.2 L 493.7,143.4 L 492.3,127.6 L 490.9,144.2 L 489.5,142.5 L 488.1,124.5 L 486.7,138.7 L 485.3,132.9 L 483.9,142.6 L 482.5,136.4 L 481.1,140.9 L 478.3,126.1 L 476.9,136.0 L 475.5,158.2 L 474.1,145.6 L 471.3,133.4 L 469.9,143.0 L 468.5,139.4 L 467.1,146.6 L 465.7,139.2 L 462.9,139.1 L 460.1,141.5 L 457.3,140.6 L 455.9,141.3 L 454.5,140.8 L 453.1,143.6 L 451.7,143.6 L 450.3,147.1 L 448.9,143.2 L 447.5,144.3 L 446.1,149.1 L 440.5,148.4 L 436.4,162.2 L 435.0,162.2 L 432.2,164.4 L 430.8,164.4 L 429.4,169.9 L 428.0,167.0 L 426.6,170.3 L 425.2,179.7 L 423.8,166.3 L 422.4,163.3 L 421.0,173.5 L 419.6,170.7 L 418.2,175.9 L 416.8,164.4 L 415.4,161.3 L 414.0,161.8 L 412.6,175.8 L 411.2,210.8 L 408.4,161.1 L 407.0,157.9 L 405.6,158.5 L 402.8,173.1 L 401.4,161.3 L 400.0,163.5 L 398.6,158.1 L 397.2,159.6 L 395.8,156.0 L 394.4,156.9 L 393.0,164.3 L 391.6,155.6 L 390.2,159.0 L 388.8,152.2 L 387.4,152.3 L 386.0,148.8 L 384.6,154.1 L 383.2,150.3 L 381.8,150.7 L 380.4,146.8 L 379.0,151.7 L 377.6,145.7 L 376.2,148.4 L 374.8,181.0 L 373.4,144.8 L 370.6,164.1 L 369.2,145.2 L 366.5,141.5 L 362.3,139.3 L 359.5,138.9 L 358.1,142.1 L 356.7,150.3 L 355.3,138.0 L 353.9,143.2 L 352.5,136.8 L 351.1,181.2 L 349.7,186.6 L 348.3,185.7 L 346.9,189.2 L 345.5,202.5 L 344.1,182.3 L 339.9,191.9 L 338.5,186.2 L 337.1,184.2 L 335.7,200.0 L 334.3,195.9 L 332.9,180.2 L 331.5,181.3 L 330.1,177.1 L 325.9,191.1 L 324.5,175.3 L 323.1,175.6 L 321.7,173.8 L 320.3,176.7 L 317.5,175.1 L 314.7,169.4 L 313.3,173.0 L 311.9,168.9 L 310.5,168.7 L 309.1,164.3 L 307.7,162.6 L 306.3,166.4 L 304.9,167.8 L 302.1,159.4 L 300.7,162.2 L 299.3,170.1 L 297.9,165.0 L 295.2,163.6 L 293.8,156.0 L 292.4,160.4 L 291.0,155.0 L 289.6,156.8 L 288.2,155.2 L 286.8,156.5 L 281.2,155.5 L 279.8,156.0 L 278.4,176.9 L 277.0,160.6 L 275.6,156.1 L 274.2,156.4 L 272.8,160.4 L 271.4,155.9 L 270.0,181.7 L 268.6,181.9 L 267.2,192.1 L 265.8,182.5 L 263.0,184.5 L 261.6,192.6 L 260.2,193.9 L 257.4,185.9 L 256.0,190.8 L 254.6,187.4 L 250.4,191.6 L 249.0,192.0 L 247.6,190.2 L 246.2,196.5 L 243.4,191.8 L 242.0,195.7 L 240.6,193.1 L 239.2,196.6 L 237.8,194.0 L 232.2,197.6 L 230.8,200.7 L 229.4,198.7 L 216.9,208.3 L 214.1,213.4 L 212.7,210.9 L 211.3,220.4 L 209.9,217.4 L 208.5,224.9 L 207.1,215.0 L 205.7,220.1 L 204.3,217.8 L 201.5,216.6 L 200.1,235.3 L 198.7,222.4 L 197.3,238.6 L 195.9,220.2 L 194.5,250.8 L 193.1,225.0 L 191.7,222.9 L 190.3,230.8 L 188.9,224.3 L 187.5,231.4 L 186.1,229.5 L 184.7,230.9 L 179.1,228.0 L 176.3,259.2 L 174.9,244.7 L 173.5,281.4 L 172.1,277.6 L 169.3,246.9 L 167.9,262.5 L 166.5,245.5 L 163.7,242.4 L 159.5,240.8 L 158.1,255.4 L 156.7,239.3 L 155.3,243.9 L 152.6,242.5 L 151.2,243.6 L 149.8,243.0 L 148.4,243.7 L 145.6,246.8 L 144.2,244.8 L 142.8,245.5 L 141.4,281.5 L 140.0,282.6 L 138.6,278.1 L 137.2,277.2 L 134.4,277.2 L 133.0,308.2 L 131.6,277.2 L 130.2,277.7 L 128.8,279.8 L 127.4,277.2 L 126.0,277.2 L 124.6,282.6 L 123.2,278.1 L 121.8,277.2 L 120.4,277.2 L 119.0,281.5 L 117.6,281.8 L 116.2,277.2 L 113.4,282.0 L 112.0,277.2 L 109.2,278.2 L 107.8,277.2 L 105.0,277.2 L 103.6,278.2 L 102.2,277.2 L 99.4,277.9 L 93.8,277.2 L 92.4,281.6 L 91.0,277.2 L 79.9,277.2 L 78.5,279.8 L 77.1,277.2 L 75.7,277.2 L 74.3,287.7 L 72.9,277.2 L 71.5,281.8 L 70.1,281.8 L 68.7,277.2 L 63.1,277.2 L 61.7,284.0 L 60.3,277.2 L 64.5,307.6 L 65.9,313.0 L 67.3,313.0 L 68.7,410.0 L 77.1,410.0 L 78.5,405.5 L 79.9,410.0 L 82.6,410.0 L 84.0,405.5 L 85.4,410.0 L 88.2,410.0 L 89.6,406.1 L 91.0,410.0 L 92.4,410.0 L 93.8,405.5 L 95.2,405.5 L 96.6,410.0 L 99.4,400.2 L 100.8,410.0 L 102.2,405.5 L 103.6,390.8 L 105.0,407.8 L 106.4,400.9 L 107.8,410.0 L 109.2,405.5 L 110.6,410.0 L 112.0,405.5 L 113.4,410.0 L 116.2,410.0 L 117.6,405.5 L 119.0,410.0 L 127.4,410.0 L 128.8,405.5 L 130.2,352.3 L 131.6,410.0 L 133.0,405.5 L 134.4,388.9 L 135.8,385.8 L 137.2,399.2 L 138.6,388.9 L 140.0,388.2 L 141.4,385.2 L 142.8,409.7 L 144.2,408.2 L 145.6,410.0 L 148.4,400.5 L 149.8,400.4 L 151.2,410.0 L 152.6,406.1 L 155.3,409.2 L 156.7,407.3 L 158.1,410.0 L 159.5,407.5 L 162.3,406.0 L 163.7,410.0 L 165.1,406.6 L 166.5,409.4 L 167.9,402.2 L 169.3,410.0 L 170.7,402.0 L 172.1,410.0 L 173.5,399.4 L 174.9,408.0 L 176.3,402.0 L 177.7,410.0 L 179.1,397.1 L 180.5,410.0 L 181.9,405.5 L 183.3,410.0 L 194.5,410.0 L 195.9,407.4 L 197.3,410.0 L 198.7,398.3 L 200.1,405.7 L 201.5,405.5 L 202.9,410.0 L 208.5,409.9 L 209.9,400.4 L 212.7,410.0 L 215.5,410.0 L 216.9,406.3 L 218.3,409.1 L 219.7,410.0 L 221.1,405.5 L 222.5,410.0 L 236.4,410.0 L 237.8,405.5 L 239.2,410.0 L 244.8,410.0 L 246.2,406.5 L 247.6,410.0 L 249.0,405.5 L 250.4,410.0 L 257.4,410.0 L 258.8,358.7 L 260.2,377.1 L 261.6,374.8 L 263.0,377.1 L 264.4,377.1 L 265.8,374.8 L 267.2,392.9 L 268.6,377.1 L 270.0,377.1 L 271.4,353.4 L 272.8,377.1 L 274.2,374.8 L 275.6,404.0 L 281.2,410.0 L 282.6,409.3 L 284.0,401.6 L 285.4,308.8 L 286.8,392.1 L 288.2,393.2 L 289.6,410.0 L 291.0,290.1 L 292.4,335.5 L 293.8,266.8 L 295.2,333.7 L 296.6,327.2 L 297.9,203.3 L 299.3,186.0 L 300.7,209.5 L 302.1,330.0 L 303.5,270.8 L 304.9,281.5 L 306.3,332.0 L 307.7,315.5 L 309.1,259.9 L 310.5,331.3 L 311.9,329.1 L 313.3,329.8 L 316.1,208.1 L 317.5,289.6 L 318.9,264.9 L 320.3,314.2 L 321.7,315.4 L 324.5,235.1 L 325.9,317.8 L 327.3,323.1 L 330.1,327.9 L 331.5,333.5 L 332.9,253.7 L 334.3,254.3 L 335.7,251.3 L 337.1,285.7 L 338.5,300.2 L 341.3,301.4 L 342.7,315.2 L 344.1,316.4 L 345.5,240.7 L 348.3,263.2 L 349.7,262.4 L 351.1,274.4 L 352.5,299.7 L 353.9,298.1 L 356.7,299.8 L 358.1,297.5 L 359.5,299.5 L 362.3,300.5 L 366.5,301.3 L 367.9,299.9 L 369.2,302.0 L 372.0,299.8 L 373.4,301.6 L 380.4,305.1 L 381.8,310.5 L 383.2,311.8 L 384.6,306.1 L 386.0,312.9 L 387.4,314.7 L 388.8,327.3 L 390.2,325.3 L 391.6,312.3 L 393.0,330.6 L 394.4,330.6 L 397.2,328.5 L 398.6,332.8 L 404.2,340.4 L 405.6,338.2 L 407.0,338.0 L 408.4,325.8 L 409.8,399.6 L 411.2,395.8 L 412.6,396.5 L 414.0,410.0 L 418.2,399.7 L 419.6,399.1 L 421.0,404.2 L 422.4,399.9 L 425.2,322.5 L 426.6,410.0 L 428.0,405.5 L 429.4,409.8 L 430.8,405.3 L 432.2,407.9 L 435.0,397.0 L 436.4,410.0 L 440.5,389.6 L 441.9,400.8 L 443.3,396.5 L 444.7,376.4 L 446.1,409.8 L 447.5,366.2 L 448.9,410.0 L 450.3,405.5 L 451.7,376.2 L 453.1,375.7 L 454.5,372.2 L 457.3,379.7 L 458.7,380.3 L 460.1,410.0 L 461.5,380.6 L 462.9,393.7 L 464.3,392.8 L 465.7,388.8 L 467.1,410.0 L 468.5,405.5 L 469.9,381.1 L 471.3,333.2 L 472.7,376.0 L 474.1,372.5 L 475.5,273.9 L 476.9,410.0 L 478.3,374.6 L 481.1,378.4 L 482.5,327.1 L 483.9,405.9 L 485.3,373.0 L 486.7,407.5 L 488.1,360.8 L 489.5,362.7 L 490.9,376.2 L 492.3,381.0 L 493.7,374.6 L 496.5,401.2 L 497.9,404.3 L 499.3,374.6 L 500.7,367.6 L 502.1,401.2 L 503.5,399.4 L 504.9,403.7 L 506.3,373.0 L 509.1,380.8 L 510.5,401.6 L 511.8,372.7 L 513.2,376.2 L 514.6,402.6 L 516.0,326.5 L 517.4,374.0 L 518.8,397.3 L 520.2,401.5 L 521.6,364.4 L 523.0,367.6 L 524.4,247.4 L 525.8,261.9 L 527.2,372.7 L 528.6,397.8 L 530.0,402.1 L 531.4,380.9 L 532.8,379.6 L 534.2,384.5 L 535.6,402.8 L 537.0,386.4 L 539.8,397.9 L 542.6,404.2 L 544.0,381.5 L 549.6,405.5 L 551.0,401.5 L 552.4,405.9 L 553.8,406.3 L 555.2,402.3 L 556.6,406.8 L 558.0,364.4 L 559.4,376.7 L 560.8,380.3 L 562.2,374.6 L 563.6,248.5 L 565.0,390.2 L 566.4,404.5 L 567.8,335.9 L 569.2,409.0 L 570.6,353.0 L 572.0,405.5 L 573.4,410.0 L 579.0,410.0 L 580.4,405.5 L 581.8,410.0 L 585.9,410.0 L 587.3,405.5 L 588.7,410.0 L 590.1,410.0 L 591.5,377.2 L 592.9,410.0 L 594.3,372.6 L 595.7,410.0 L 597.1,405.5 L 598.5,410.0 L 605.5,410.0 L 606.9,325.8 L 608.3,410.0 L 609.7,405.5 L 611.1,410.0 L 612.5,410.0 L 615.3,400.4 L 618.1,396.4 Z" fill="#0e2030" fill-opacity="0.85" stroke="#00e5ff" stroke-width="2"/>
<text x="10" y="13" font-family="'OpenDyslexic Mono','OpenDyslexicMono',monospace" font-size="8" fill="rgba(0,229,255,0.85)" letter-spacing="1">SERENITY 24" (609mm) FRONT VIEW  — nacelle_ctr=109mm from CL · OD=60mm tandem
<path d="M340.0,221.1 Q352.6,245.1 348.0,282.9 L332.0,282.9 Q327.4,245.1 340.0,221.1 Z" fill="#0e2030" stroke="#00e5ff" stroke-width="2"/>
<ellipse cx="340.0" cy="182.3" rx="34.3" ry="24.0" fill="rgba(0,229,255,0.12)" stroke="#00e5ff" stroke-width="1.5"/>
<rect x="328.6" y="145.1" width="22.9" height="13" rx="2" fill="rgba(74,222,128,0.28)" stroke="#4ade80" stroke-width="1.5"/>
<text x="340.0" y="142.3" text-anchor="middle" font-family="'OpenDyslexic','OpenDyslexic Bold',sans-serif" font-size="8" fill="#4ade80" font-weight="bold">GPS</text>
<line x1="288.6" y1="236.0" x2="276.3" y2="254.3" stroke="#00e5ff" stroke-width="5" stroke-linecap="round"/>
<ellipse cx="217.8" cy="254.3" rx="58.4" ry="17.5" fill="rgba(255,107,53,0.10)" stroke="#ff6b35" stroke-width="2.5"/>
<ellipse cx="217.8" cy="254.3" rx="50.0" ry="13.8" fill="rgba(255,107,53,0.08)" stroke="#ff6b35" stroke-width="1" stroke-dasharray="3 2"/>
<line x1="226.6" y1="254.3" x2="265.3" y2="254.3" stroke="#ff6b35" stroke-width="0.7" opacity="0.25"/>
<line x1="225.4" y1="257.4" x2="259.0" y2="261.2" stroke="#ff6b35" stroke-width="0.7" opacity="0.25"/>
<line x1="222.2" y1="259.7" x2="241.6" y2="266.2" stroke="#ff6b35" stroke-width="0.7" opacity="0.25"/>
<line x1="217.8" y1="260.5" x2="217.8" y2="268.0" stroke="#ff6b35" stroke-width="0.7" opacity="0.25"/>
<line x1="213.5" y1="259.7" x2="194.1" y2="266.2" stroke="#ff6b35" stroke-width="0.7" opacity="0.25"/>
<line x1="210.3" y1="257.4" x2="176.7" y2="261.2" stroke="#ff6b35" stroke-width="0.7" opacity="0.25"/>
<line x1="209.1" y1="254.3" x2="170.3" y2="254.3" stroke="#ff6b35" stroke-width="0.7" opacity="0.25"/>
<line x1="210.3" y1="251.2" x2="176.7" y2="247.4" stroke="#ff6b35" stroke-width="0.7" opacity="0.25"/>
<line x1="213.5" y1="248.9" x2="194.1" y2="242.4" stroke="#ff6b35" stroke-width="0.7" opacity="0.25"/>
<line x1="217.8" y1="248.0" x2="217.8" y2="240.5" stroke="#ff6b35" stroke-width="0.7" opacity="0.25"/>
<line x1="222.2" y1="248.9" x2="241.6" y2="242.4" stroke="#ff6b35" stroke-width="0.7" opacity="0.25"/>
<line x1="225.4" y1="251.2" x2="259.0" y2="247.4" stroke="#ff6b35" stroke-width="0.7" opacity="0.25"/>
<line x1="276.3" y1="228.8" x2="276.3" y2="279.8" stroke="#00e5ff" stroke-width="0.8" stroke-dasharray="2 2" opacity="0.70"/>
<line x1="237.3" y1="228.8" x2="237.3" y2="279.8" stroke="#d4a827" stroke-width="2.2" stroke-dasharray="2 2" opacity="0.70"/>
<line x1="159.4" y1="228.8" x2="159.4" y2="279.8" stroke="#ff6b35" stroke-width="0.8" stroke-dasharray="2 2" opacity="0.70"/>
<circle cx="237.3" cy="254.3" r="5.5" fill="#d4a827" opacity="0.95"/>
<circle cx="159.4" cy="254.3" r="8" fill="#f87171" opacity="0.95" filter="url(#glow)"/>
<text x="159.4" y="228.3" text-anchor="middle" font-family="'OpenDyslexic','OpenDyslexic Bold',sans-serif" font-size="9" fill="#f87171" font-weight="bold">●PORT</text>
<text x="256.8" y="289.3" text-anchor="middle" font-family="'OpenDyslexic','OpenDyslexic Bold',sans-serif" font-size="8" fill="#00e5ff">OD 60mm (2.36")</text>
<text x="198.4" y="289.3" text-anchor="middle" font-family="'OpenDyslexic','OpenDyslexic Bold',sans-serif" font-size="8" fill="#ff6b35">nacelle span from CL</text>
<text x="227.3" y="228.3" text-anchor="end" font-family="'OpenDyslexic','OpenDyslexic Bold',sans-serif" font-size="8" fill="#d4a827" font-weight="bold">pivot Z=83mm from intake</text>
<line x1="391.4" y1="236.0" x2="403.7" y2="254.3" stroke="#00e5ff" stroke-width="5" stroke-linecap="round"/>
<ellipse cx="462.2" cy="254.3" rx="58.4" ry="17.5" fill="rgba(255,107,53,0.10)" stroke="#ff6b35" stroke-width="2.5"/>
<ellipse cx="462.2" cy="254.3" rx="50.0" ry="13.8" fill="rgba(255,107,53,0.08)" stroke="#ff6b35" stroke-width="1" stroke-dasharray="3 2"/>
<line x1="470.9" y1="254.3" x2="509.7" y2="254.3" stroke="#ff6b35" stroke-width="0.7" opacity="0.25"/>
<line x1="469.7" y1="257.4" x2="503.3" y2="261.2" stroke="#ff6b35" stroke-width="0.7" opacity="0.25"/>
<line x1="466.5" y1="259.7" x2="485.9" y2="266.2" stroke="#ff6b35" stroke-width="0.7" opacity="0.25"/>
<line x1="462.2" y1="260.5" x2="462.2" y2="268.0" stroke="#ff6b35" stroke-width="0.7" opacity="0.25"/>
<line x1="457.8" y1="259.7" x2="438.4" y2="266.2" stroke="#ff6b35" stroke-width="0.7" opacity="0.25"/>
<line x1="454.6" y1="257.4" x2="421.0" y2="261.2" stroke="#ff6b35" stroke-width="0.7" opacity="0.25"/>
<line x1="453.4" y1="254.3" x2="414.7" y2="254.3" stroke="#ff6b35" stroke-width="0.7" opacity="0.25"/>
<line x1="454.6" y1="251.2" x2="421.0" y2="247.4" stroke="#ff6b35" stroke-width="0.7" opacity="0.25"/>
<line x1="457.8" y1="248.9" x2="438.4" y2="242.4" stroke="#ff6b35" stroke-width="0.7" opacity="0.25"/>
<line x1="462.2" y1="248.0" x2="462.2" y2="240.5" stroke="#ff6b35" stroke-width="0.7" opacity="0.25"/>
<line x1="466.5" y1="248.9" x2="485.9" y2="242.4" stroke="#ff6b35" stroke-width="0.7" opacity="0.25"/>
<line x1="469.7" y1="251.2" x2="503.3" y2="247.4" stroke="#ff6b35" stroke-width="0.7" opacity="0.25"/>
<line x1="403.7" y1="228.8" x2="403.7" y2="279.8" stroke="#00e5ff" stroke-width="0.8" stroke-dasharray="2 2" opacity="0.70"/>
<line x1="442.7" y1="228.8" x2="442.7" y2="279.8" stroke="#d4a827" stroke-width="2.2" stroke-dasharray="2 2" opacity="0.70"/>
<line x1="520.6" y1="228.8" x2="520.6" y2="279.8" stroke="#ff6b35" stroke-width="0.8" stroke-dasharray="2 2" opacity="0.70"/>
<circle cx="442.7" cy="254.3" r="5.5" fill="#d4a827" opacity="0.95"/>
<circle cx="520.6" cy="254.3" r="8" fill="#4ade80" opacity="0.95" filter="url(#glow)"/>
<text x="520.6" y="228.3" text-anchor="middle" font-family="'OpenDyslexic','OpenDyslexic Bold',sans-serif" font-size="9" fill="#4ade80" font-weight="bold">STBD●</text>
<text x="462.2" y="296.8" text-anchor="middle" font-family="'OpenDyslexic','OpenDyslexic Bold',sans-serif" font-size="8" fill="#ff6b35" font-weight="bold">STBD 50mm×2 EDF</text>
<text x="462.2" y="309.3" text-anchor="middle" font-family="'OpenDyslexic','OpenDyslexic Bold',sans-serif" font-size="7" fill="rgba(255,107,53,0.70)">~911g @6S (2× 50mm)</text>
<rect x="308.0" y="304.6" width="64.0" height="12.5" rx="2" fill="rgba(244,114,182,0.10)" stroke="#f472b6" stroke-width="1.5" stroke-dasharray="4 2"/>
<text x="340.0" y="318.3" text-anchor="middle" font-family="'OpenDyslexic','OpenDyslexic Bold',sans-serif" font-size="8" fill="#f472b6">PAYLOAD DOOR</text>
<line x1="314.9" y1="304.6" x2="308.0" y2="333.2" stroke="#00e5ff" stroke-width="2" opacity="0.5"/>
<line x1="308.0" y1="333.2" x2="286.3" y2="333.2" stroke="#00e5ff" stroke-width="3" opacity="0.5"/>
<line x1="365.1" y1="304.6" x2="372.0" y2="333.2" stroke="#00e5ff" stroke-width="2" opacity="0.5"/>
<line x1="372.0" y1="333.2" x2="393.7" y2="333.2" stroke="#00e5ff" stroke-width="3" opacity="0.5"/>
<line x1="159.4" y1="478.0" x2="520.6" y2="478.0" stroke="#ff6b35" stroke-width="0.7" marker-start="url(#ar2)" marker-end="url(#ar)"/>
<text x="340.0" y="493.0" text-anchor="middle" font-family="'OpenDyslexic','OpenDyslexic Bold',sans-serif" font-size="9" fill="rgba(255,255,255,0.82)">~486mm (19.1") nacelle tip-to-tip · Canon 170ft</text>
<text x="340.0" y="290.0" text-anchor="middle" font-family="'OpenDyslexic','OpenDyslexic Bold',sans-serif" font-size="8" fill="#a3e635">nacelle CL to CL ~218mm (8.6")</text>
<text x="10" y="494" font-family="'OpenDyslexic Mono','OpenDyslexicMono',monospace" font-size="7" fill="rgba(163,230,53,0.85)">© 2026 Steve Griffing PE(CSE) CISSP-ISSEP CPP CC BY 4.0  Hull: Peter Farell CC BY 4.0  Nozzle: BamJr CC BY 4.0  Fan engineering work</text>
</svg>