<?xml version="1.0" encoding="UTF-8"?>
<!-- © 2026 Steve Griffing PE(CSE) CISSP-ISSEP CPP CC BY 4.0 -->
<!-- Canon: QMx Official Serenity Blueprints (Mandel/Earls 2007) 269ft×170ft×79ft -->
<!-- Scale: 24" (609.6mm)  Hull: Peter Farell CC BY 4.0  Nozzle: BamJr CC BY 4.0 -->
<!-- Visual: Firefly/Serenity © Joss Whedon/Mutant Enemy/Universal Fan work -->
<!-- SIDE PROFILE KEY RATIOS:
     dome peak = 0.218×L = 99.7mm above CL  (iconic high bridge)
     cargo top = 0.090×L = 41.1mm  dome:cargo = 2.42:1
     neck total = 28.8mm  neck:cargo = 0.32:1  (dramatic pinch)
     nacelle_ctr=97.7mm OD=93.5mm datum=82.1mm outer=144.5mm -->
<!-- © 2026 Steve Griffing PE(CSE) CISSP-ISSEP CPP CC BY 4.0 -->
<!-- Hull: Peter Farell CC BY 4.0  Nozzle: BamJr CC BY 4.0 -->
<!-- Visual: Firefly/Serenity © Joss Whedon/Mutant Enemy/Universal Fan work -->
<svg xmlns="http://www.w3.org/2000/svg" viewBox="0 0 820 420" width="820" height="420">
<defs>
  <style>@import url('https://fonts.cdnfonts.com/css/opendyslexic');
    text,tspan{font-family:'OpenDyslexic','OpenDyslexic Bold',sans-serif!important}
    @media print{svg{background:#fff!important}text,tspan{fill:#111!important}}</style>
  <marker id="ar" markerWidth="7" markerHeight="7" refX="6" refY="3.5" orient="auto">
    <path d="M0,0 L7,3.5 L0,7 Z" fill="#00e5ff" opacity="0.8"/></marker>
  <marker id="ar2" markerWidth="7" markerHeight="7" refX="1" refY="3.5" orient="auto">
    <path d="M7,0 L0,3.5 L7,7 Z" fill="#00e5ff" opacity="0.8"/></marker>
  <filter id="glow"><feGaussianBlur stdDeviation="3" result="b"/>
    <feMerge><feMergeNode in="b"/><feMergeNode in="SourceGraphic"/></feMerge></filter>
  <pattern id="grid" width="24" height="24" patternUnits="userSpaceOnUse">
    <path d="M24 0L0 0 0 24" fill="none" stroke="rgba(0,229,255,0.04)" stroke-width="0.5"/>
  </pattern>
</defs>
<rect width="820" height="420" fill="#07090e"/>
<rect width="820" height="420" fill="url(#grid)"/>
<text x="10" y="13" font-family="'OpenDyslexic Mono','OpenDyslexicMono',monospace" font-size="8" fill="rgba(0,229,255,0.85)" letter-spacing="1">SERENITY 24" (609mm) RIGHT SIDE VIEW  — DOME:CARGO=2.42  NECK:CARGO=0.32  dome=133mm  neck=38.4mm  nacelle_ctr=170mm from nose·CG-pivot Z=83mm
<path id="hull-side-stl" d="M 664.7,285.2 L 663.6,284.6 L 662.6,286.3 L 661.6,285.6 L 660.5,290.8 L 659.5,285.5 L 657.4,284.5 L 654.3,286.5 L 653.3,288.3 L 652.3,287.5 L 651.2,284.6 L 649.2,285.0 L 648.1,281.8 L 646.0,286.1 L 645.0,284.2 L 639.8,284.2 L 638.8,283.4 L 637.8,284.9 L 635.7,284.2 L 634.7,285.8 L 633.6,284.5 L 631.6,285.3 L 629.5,284.2 L 626.4,285.8 L 625.3,284.2 L 623.3,288.2 L 622.2,296.0 L 621.2,284.2 L 620.2,284.8 L 615.0,284.3 L 612.9,288.3 L 611.9,284.5 L 608.8,284.2 L 607.8,285.8 L 600.5,285.8 L 599.5,241.8 L 595.3,239.9 L 592.2,218.6 L 590.2,218.4 L 588.1,208.6 L 585.0,205.7 L 583.9,191.9 L 582.9,197.1 L 581.9,191.9 L 580.8,178.0 L 578.8,178.6 L 577.7,185.8 L 576.7,152.9 L 573.6,152.9 L 572.6,154.1 L 571.5,135.7 L 570.5,135.7 L 569.5,137.6 L 568.4,136.0 L 567.4,137.6 L 566.4,136.0 L 565.3,112.4 L 562.2,116.9 L 561.2,136.0 L 560.1,136.0 L 559.1,137.6 L 558.1,154.0 L 557.0,136.0 L 556.0,136.0 L 555.0,137.6 L 553.9,149.5 L 552.9,119.5 L 551.9,118.2 L 550.8,120.2 L 548.8,144.5 L 547.7,135.4 L 546.7,144.5 L 545.7,133.2 L 544.6,133.2 L 543.6,128.6 L 541.5,123.9 L 540.5,123.4 L 538.4,125.7 L 537.4,124.0 L 535.3,127.8 L 534.3,124.3 L 533.2,124.2 L 531.2,126.7 L 530.1,123.8 L 529.1,130.2 L 528.1,122.8 L 527.0,130.2 L 526.0,123.8 L 525.0,130.2 L 522.9,124.2 L 521.9,124.3 L 520.8,129.5 L 518.7,124.0 L 517.7,125.3 L 516.7,123.9 L 515.6,125.2 L 514.6,123.4 L 513.6,124.8 L 511.5,133.2 L 510.5,133.2 L 509.4,136.2 L 508.4,136.9 L 507.4,135.4 L 506.3,137.0 L 505.3,135.5 L 504.3,118.2 L 503.2,119.5 L 502.2,144.1 L 501.2,137.6 L 500.1,136.0 L 498.0,136.0 L 497.0,140.3 L 496.0,136.0 L 494.9,136.0 L 493.9,116.9 L 492.9,114.8 L 491.8,114.1 L 490.8,114.5 L 489.8,112.4 L 488.7,137.6 L 487.7,134.0 L 486.7,136.5 L 483.6,134.5 L 481.5,139.0 L 480.5,138.6 L 479.4,132.6 L 478.4,135.9 L 477.4,135.0 L 476.3,141.4 L 474.2,134.7 L 473.2,137.5 L 472.2,137.7 L 471.1,132.0 L 470.1,142.8 L 469.1,133.9 L 468.0,134.7 L 467.0,142.4 L 466.0,131.7 L 464.9,134.1 L 463.9,132.0 L 462.9,132.9 L 461.8,131.7 L 460.8,138.2 L 459.8,132.0 L 456.7,131.7 L 455.6,133.5 L 454.6,131.7 L 453.5,133.7 L 452.5,131.7 L 451.5,134.0 L 450.4,131.9 L 449.4,131.9 L 448.4,138.6 L 447.3,132.0 L 445.3,131.7 L 444.2,131.9 L 443.2,134.2 L 441.1,132.3 L 440.1,137.7 L 439.1,133.6 L 438.0,133.4 L 437.0,141.7 L 436.0,132.8 L 434.9,133.6 L 433.9,141.6 L 432.8,134.7 L 431.8,132.6 L 430.8,136.2 L 429.7,134.2 L 428.7,135.3 L 427.7,133.2 L 426.6,138.6 L 423.5,134.0 L 422.5,137.6 L 421.5,135.2 L 419.4,138.5 L 418.4,136.5 L 417.3,138.8 L 414.2,140.3 L 413.2,142.6 L 412.1,142.2 L 411.1,146.0 L 410.1,144.2 L 409.0,144.1 L 408.0,145.7 L 405.9,145.9 L 404.9,148.6 L 401.8,147.6 L 397.7,157.1 L 395.6,158.5 L 390.4,169.9 L 389.4,173.9 L 388.3,173.5 L 386.3,175.9 L 385.2,175.9 L 379.0,172.0 L 377.0,173.1 L 374.9,172.0 L 373.9,174.3 L 372.8,174.3 L 371.8,175.4 L 370.8,175.0 L 366.6,176.9 L 365.6,176.5 L 364.5,178.0 L 363.5,182.9 L 362.5,184.2 L 360.4,185.0 L 357.3,190.9 L 356.3,198.7 L 255.9,198.7 L 254.8,249.7 L 252.8,246.2 L 251.7,247.0 L 250.7,246.2 L 249.7,247.9 L 248.6,230.9 L 247.6,243.5 L 246.6,207.0 L 243.5,208.2 L 242.4,199.2 L 241.4,201.0 L 240.3,200.0 L 238.3,181.8 L 237.2,183.9 L 236.2,183.2 L 235.2,185.5 L 234.1,195.7 L 233.1,183.3 L 232.1,184.6 L 231.0,196.4 L 230.0,196.9 L 229.0,183.5 L 227.9,181.5 L 224.8,187.3 L 223.8,182.9 L 222.8,184.3 L 221.7,180.3 L 220.7,179.3 L 217.6,179.7 L 216.5,178.3 L 215.5,179.7 L 214.5,172.9 L 213.4,171.0 L 208.3,169.6 L 207.2,171.3 L 206.2,170.1 L 204.1,163.5 L 201.0,162.6 L 200.0,163.1 L 198.9,165.7 L 197.9,163.1 L 196.9,169.1 L 195.8,165.4 L 194.8,167.7 L 193.8,161.5 L 192.7,165.1 L 191.7,164.1 L 189.6,156.5 L 188.6,155.4 L 186.5,155.4 L 184.5,157.2 L 181.4,157.5 L 179.3,155.5 L 176.2,155.8 L 175.1,157.0 L 173.1,164.1 L 172.0,163.7 L 171.0,161.5 L 170.0,167.4 L 166.9,163.1 L 165.8,164.3 L 163.8,162.6 L 161.7,162.6 L 160.7,163.5 L 158.6,170.1 L 153.4,170.0 L 151.3,172.0 L 150.3,179.7 L 149.3,178.3 L 148.2,180.1 L 145.1,179.0 L 143.1,182.0 L 142.0,186.7 L 141.0,187.5 L 137.9,187.4 L 136.9,188.6 L 135.8,196.4 L 132.7,195.4 L 131.7,196.0 L 130.6,198.3 L 129.6,214.9 L 128.6,214.4 L 126.5,220.5 L 125.5,216.4 L 124.4,220.3 L 121.3,221.6 L 120.3,225.6 L 101.7,225.6 L 100.6,238.4 L 99.6,239.8 L 98.6,238.4 L 97.5,244.6 L 95.5,241.7 L 93.4,247.1 L 92.3,243.2 L 91.3,242.0 L 90.3,243.5 L 86.1,242.0 L 85.1,247.1 L 84.1,244.6 L 81.0,243.5 L 79.9,247.1 L 78.9,246.2 L 76.8,247.0 L 74.8,252.1 L 51.0,252.1 L 49.9,292.9 L 44.7,293.9 L 44.7,299.6 L 49.9,300.6 L 51.0,291.9 L 74.8,291.9 L 75.8,300.6 L 76.8,300.6 L 77.9,302.0 L 78.9,297.2 L 79.9,298.7 L 81.0,292.3 L 82.0,298.3 L 84.1,298.3 L 85.1,302.0 L 86.1,297.4 L 88.2,300.3 L 89.2,287.6 L 90.3,296.3 L 91.3,296.3 L 92.3,292.3 L 93.4,302.0 L 114.1,302.0 L 115.1,299.9 L 116.2,302.0 L 117.2,299.9 L 118.2,302.0 L 121.3,302.0 L 122.4,299.9 L 123.4,302.0 L 126.5,302.0 L 128.6,296.1 L 129.6,302.0 L 131.7,302.0 L 132.7,299.9 L 133.7,300.2 L 134.8,302.0 L 136.9,302.0 L 138.9,297.5 L 140.0,298.3 L 141.0,302.0 L 143.1,302.0 L 144.1,299.9 L 146.2,302.0 L 147.2,300.4 L 148.2,302.0 L 149.3,299.9 L 150.3,302.0 L 151.3,288.2 L 152.4,302.0 L 153.4,302.0 L 154.4,299.9 L 155.5,302.0 L 156.5,302.0 L 157.6,299.9 L 158.6,291.8 L 159.6,298.6 L 160.7,292.7 L 161.7,302.0 L 164.8,302.0 L 166.9,288.2 L 167.9,298.6 L 168.9,302.0 L 170.0,302.0 L 171.0,298.8 L 172.0,282.8 L 173.1,302.0 L 176.2,302.0 L 177.2,300.3 L 178.3,302.0 L 179.3,299.9 L 180.3,302.0 L 190.7,302.0 L 191.7,288.2 L 192.7,302.0 L 193.8,302.0 L 194.8,299.9 L 195.8,302.0 L 198.9,301.5 L 201.0,302.0 L 202.1,301.2 L 203.1,302.0 L 204.1,299.9 L 205.2,302.0 L 209.3,302.0 L 210.3,301.3 L 211.4,302.0 L 215.5,302.0 L 216.5,299.9 L 217.6,302.0 L 236.2,302.0 L 237.2,291.0 L 238.3,292.6 L 241.4,292.9 L 244.5,300.9 L 245.5,292.3 L 246.6,290.9 L 247.6,290.8 L 250.7,298.7 L 251.7,297.2 L 252.8,300.7 L 254.8,291.9 L 255.9,202.7 L 356.3,202.7 L 357.3,201.2 L 358.3,203.0 L 360.4,202.6 L 361.4,203.6 L 363.5,204.0 L 364.5,254.3 L 365.6,255.1 L 366.6,259.4 L 368.7,258.3 L 369.7,258.8 L 372.8,272.4 L 374.9,274.8 L 375.9,273.2 L 377.0,273.7 L 378.0,272.3 L 379.0,272.6 L 380.1,270.8 L 381.1,278.8 L 382.1,281.4 L 384.2,281.6 L 387.3,279.1 L 388.3,281.4 L 389.4,279.8 L 390.4,299.3 L 392.5,299.9 L 393.5,282.3 L 394.6,282.7 L 395.6,281.0 L 396.6,284.0 L 397.7,302.0 L 398.7,302.0 L 399.7,291.7 L 400.8,302.0 L 401.8,302.0 L 402.8,299.9 L 403.9,302.0 L 405.9,301.9 L 407.0,299.8 L 410.1,299.9 L 411.1,298.3 L 412.1,298.4 L 413.2,302.0 L 414.2,302.0 L 416.3,299.7 L 417.3,301.9 L 418.4,302.0 L 419.4,299.9 L 420.4,302.0 L 421.5,290.7 L 422.5,164.2 L 423.5,165.5 L 424.6,291.2 L 425.6,291.9 L 426.6,297.5 L 427.7,297.2 L 428.7,298.6 L 429.7,302.0 L 430.8,296.0 L 431.8,302.0 L 432.8,302.0 L 433.9,300.1 L 434.9,300.7 L 436.0,298.7 L 439.1,302.0 L 440.1,298.3 L 441.1,298.4 L 442.2,302.0 L 488.7,302.0 L 489.8,299.9 L 490.8,302.0 L 494.9,302.0 L 496.0,299.9 L 497.0,302.0 L 498.0,299.9 L 499.1,302.0 L 505.3,302.0 L 506.3,299.9 L 507.4,302.0 L 508.4,299.9 L 509.4,302.0 L 515.6,302.0 L 517.7,289.7 L 519.8,289.0 L 521.9,302.0 L 523.9,302.0 L 525.0,294.5 L 526.0,298.4 L 527.0,298.9 L 528.1,302.0 L 529.1,299.1 L 530.1,302.0 L 531.2,297.2 L 532.2,298.1 L 533.2,302.0 L 534.3,302.0 L 535.3,297.7 L 536.3,297.3 L 537.4,299.1 L 538.4,298.5 L 540.5,302.0 L 542.6,302.0 L 543.6,299.9 L 544.6,302.0 L 545.7,302.0 L 546.7,299.6 L 547.7,299.9 L 548.8,302.0 L 551.9,302.0 L 552.9,301.1 L 553.9,302.0 L 557.0,302.0 L 558.1,299.9 L 559.1,302.0 L 560.1,302.0 L 561.2,298.4 L 563.3,302.0 L 565.3,302.0 L 566.4,300.0 L 567.4,302.0 L 571.5,302.0 L 572.6,301.0 L 573.6,302.0 L 591.2,302.0 L 593.3,296.0 L 594.3,299.7 L 595.3,296.1 L 596.4,297.9 L 598.4,295.2 L 599.5,287.2 L 600.5,299.0 L 607.8,299.0 L 608.8,300.9 L 609.8,299.0 L 610.9,300.8 L 611.9,298.3 L 615.0,301.1 L 617.1,299.2 L 618.1,301.0 L 619.1,298.5 L 620.2,299.6 L 622.2,298.9 L 623.3,300.3 L 626.4,298.9 L 628.5,298.8 L 629.5,300.0 L 632.6,298.6 L 634.7,302.0 L 635.7,297.7 L 637.8,300.9 L 639.8,299.8 L 640.9,301.1 L 641.9,298.4 L 645.0,299.6 L 646.0,297.6 L 647.1,299.1 L 651.2,298.5 L 653.3,299.1 L 654.3,293.8 L 655.4,297.7 L 657.4,299.2 L 659.5,297.2 L 662.6,299.1 L 664.7,298.4 Z" fill="#0e2030" stroke="#00e5ff" stroke-width="2.5"/>
<path d="M85.1,205.5 Q112.4,85.5 140.4,110.4 Q173.0,106.3 208.7,175.8" fill="rgba(0,229,255,0.14)" stroke="#00e5ff" stroke-width="2"/>
<text x="140.4" y="95.0" text-anchor="middle" font-family="'OpenDyslexic','OpenDyslexic Bold',sans-serif" font-size="9" fill="#00e5ff" font-weight="bold">BRIDGE</text>
<rect x="289.5" y="284.0" width="87.4" height="14.3" rx="3" fill="rgba(244,114,182,0.10)" stroke="#f472b6" stroke-width="1.2" stroke-dasharray="4 2"/>
<line x1="505.9" y1="219.2" x2="555.9" y2="219.2" stroke="#ffe600" stroke-width="0.8" opacity="0.6"/>
<line x1="505.9" y1="256.6" x2="555.9" y2="256.6" stroke="#ffe600" stroke-width="0.8" opacity="0.6"/>
<line x1="549.9" y1="219.2" x2="549.9" y2="256.6" stroke="#ffe600" stroke-width="1" marker-start="url(#ar2)" marker-end="url(#ar)"/>
<text x="561.9" y="241.9" font-family="'OpenDyslexic','OpenDyslexic Bold',sans-serif" font-size="8" fill="#ffe600" font-weight="bold">neck 38.4mm (1.51")</text>
<text x="561.9" y="253.9" font-family="'OpenDyslexic','OpenDyslexic Bold',sans-serif" font-size="7" fill="rgba(255,230,0,0.70)">0.32 × cargo section</text>
<line x1="200.4" y1="110.4" x2="200.4" y2="240.0" stroke="#00e5ff" stroke-width="0.6" opacity="0.35"/>
<text x="210.4" y="152.5" font-family="'OpenDyslexic','OpenDyslexic Bold',sans-serif" font-size="7" fill="#00e5ff">99.7mm above CL</text>
<rect x="278.7" y="31.8" width="121.5" height="182.3" rx="6" fill="rgba(255,107,53,0.10)" stroke="#ff6b35" stroke-width="1.8"/>
<ellipse cx="339.5" cy="101.1" rx="52.0" ry="7.8" fill="rgba(255,107,53,0.15)" stroke="#ff6b35" stroke-width="1"/>
<line x1="339.5" y1="226.9" x2="339.5" y2="214.1" stroke="#00e5ff" stroke-width="3"/>
<text x="339.5" y="21.8" text-anchor="middle" font-family="'OpenDyslexic','OpenDyslexic Bold',sans-serif" font-size="8" fill="#ff6b35" font-weight="bold">50mm×2 TANDEM EDF  HOVER 90°</text>
<text x="339.5" y="9.8" text-anchor="middle" font-family="'OpenDyslexic','OpenDyslexic Bold',sans-serif" font-size="7" fill="rgba(255,107,53,0.7)">nacelle 148mm L · CG-pivot Z=83mm · MF104ZZ</text>
<path d="M552.2,197.2 Q601.0,175.8 666.4,197.2 L666.4,275.7 Q601.0,293.5 552.2,282.8 Z" fill="rgba(255,230,0,0.09)" stroke="#ffe600" stroke-width="1.8"/>
<text x="598.0" y="244.0" text-anchor="middle" font-family="'OpenDyslexic','OpenDyslexic Bold',sans-serif" font-size="7" fill="#ffe600">120mm EDF</text>
<rect x="131.3" y="97.4" width="36" height="12" rx="2" fill="rgba(74,222,128,0.28)" stroke="#4ade80" stroke-width="1.5"/>
<text x="149.3" y="91.4" text-anchor="middle" font-family="'OpenDyslexic','OpenDyslexic Bold',sans-serif" font-size="8" fill="#4ade80" font-weight="bold">GPS 140mm</text>
<circle cx="547.5" cy="191.3" r="5" fill="rgba(244,114,182,0.3)" stroke="#f472b6" stroke-width="1.8"/>
<line x1="547.5" y1="191.3" x2="547.5" y2="70.0" stroke="#f472b6" stroke-width="3" stroke-linecap="round"/>
<ellipse cx="547.5" cy="176.3" rx="6" ry="4" fill="none" stroke="#f472b6" stroke-width="1" opacity="0.75"/>
<ellipse cx="547.5" cy="163.3" rx="6" ry="4" fill="none" stroke="#f472b6" stroke-width="1" opacity="0.75"/>
<ellipse cx="547.5" cy="150.3" rx="6" ry="4" fill="none" stroke="#f472b6" stroke-width="1" opacity="0.75"/>
<ellipse cx="547.5" cy="137.3" rx="6" ry="4" fill="none" stroke="#f472b6" stroke-width="1" opacity="0.75"/>
<ellipse cx="547.5" cy="124.3" rx="6" ry="4" fill="none" stroke="#f472b6" stroke-width="1" opacity="0.75"/>
<ellipse cx="547.5" cy="111.3" rx="6" ry="4" fill="none" stroke="#f472b6" stroke-width="1" opacity="0.75"/>
<text x="567.5" y="74.0" font-family="'OpenDyslexic','OpenDyslexic Bold',sans-serif" font-size="9" fill="#f472b6" font-weight="bold">49MHz top wire 120→600mm</text>
<line x1="401.9" y1="298.2" x2="401.9" y2="323.2" stroke="#ff6b35" stroke-width="3" stroke-linecap="round"/>
<text x="401.9" y="332.7" text-anchor="middle" font-family="'OpenDyslexic','OpenDyslexic Bold',sans-serif" font-size="8" fill="#ff6b35">SiK↓ 260mm</text>
<line x1="195.6" y1="296.5" x2="177.6" y2="336.3" stroke="#00e5ff" stroke-width="1.5" opacity="0.5"/>
<line x1="159.6" y1="336.3" x2="231.6" y2="336.3" stroke="#00e5ff" stroke-width="2.5" opacity="0.5"/>
<line x1="371.6" y1="296.5" x2="353.6" y2="336.3" stroke="#00e5ff" stroke-width="1.5" opacity="0.5"/>
<line x1="335.6" y1="336.3" x2="407.6" y2="336.3" stroke="#00e5ff" stroke-width="2.5" opacity="0.5"/>
<line x1="269.3" y1="110.0" x2="269.3" y2="360.0" stroke="#4ade80" stroke-width="1.5" stroke-dasharray="6 3"/>
<text x="269.3" y="104.0" text-anchor="middle" font-family="'OpenDyslexic','OpenDyslexic Bold',sans-serif" font-size="9" fill="#4ade80" font-weight="bold">CG 203mm (7.99")</text>
<line x1="798.0" y1="110.4" x2="798.0" y2="336.3" stroke="#ffe600" stroke-width="0.6" opacity="0.40"/>
<text x="812.0" y="240.0" text-anchor="middle" font-family="'OpenDyslexic','OpenDyslexic Bold',sans-serif" font-size="7" fill="#ffe600" transform="rotate(-90,812.0,240.0)">Canon 182mm (7.17") height</text>
<line x1="72.0" y1="240.0" x2="35.6" y2="240.0" stroke="#2dd4bf" stroke-width="5" stroke-linecap="round"/>
<line x1="72.0" y1="406.0" x2="666.4" y2="406.0" stroke="#00e5ff" stroke-width="0.5" opacity="0.25"/>
<text x="369.2" y="416.0" text-anchor="middle" font-family="'OpenDyslexic','OpenDyslexic Bold',sans-serif" font-size="9" fill="rgba(255,255,255,0.82)">609.6 mm (24.00")  Canon 269ft</text>
<text x="65.5" y="244.0" text-anchor="end" font-family="'OpenDyslexic','OpenDyslexic Bold',sans-serif" font-size="8" fill="rgba(255,255,255,0.82)">NOSE</text>
<text x="672.9" y="244.0" font-family="'OpenDyslexic','OpenDyslexic Bold',sans-serif" font-size="8" fill="rgba(255,255,255,0.82)">TAIL</text>
<text x="10" y="414" font-family="'OpenDyslexic Mono','OpenDyslexicMono',monospace" font-size="7" fill="rgba(163,230,53,0.85)">© 2026 Steve Griffing PE(CSE) CISSP-ISSEP CPP CC BY 4.0  Hull: Peter Farell CC BY 4.0  Nozzle: BamJr CC BY 4.0  Fan engineering work</text>
<g id="access-panel-callouts">
  <line x1="55" y1="265" x2="55" y2="239" stroke="#c0392b" stroke-width="1.5" stroke-dasharray="4 2"/>
  <rect x="13" y="209" width="96" height="34" rx="4" fill="#c0392b" opacity="0.92"/>
  <text x="61" y="224" text-anchor="middle" font-family="'OpenDyslexic',sans-serif" font-weight="bold" font-size="9" fill="#ffffff">A NOSE CAP</text>
  <text x="61" y="238" text-anchor="middle" font-family="'OpenDyslexic',sans-serif" font-size="8" fill="#ffffffcc">bayonet</text>
  <line x1="158" y1="218" x2="158" y2="192" stroke="#2980b9" stroke-width="1.5" stroke-dasharray="4 2"/>
  <rect x="116" y="162" width="96" height="34" rx="4" fill="#2980b9" opacity="0.92"/>
  <text x="164" y="177" text-anchor="middle" font-family="'OpenDyslexic',sans-serif" font-weight="bold" font-size="9" fill="#ffffff">B DORSAL FWD</text>
  <text x="164" y="191" text-anchor="middle" font-family="'OpenDyslexic',sans-serif" font-size="8" fill="#ffffffcc">4xM2.5</text>
  <line x1="263" y1="340" x2="263" y2="400" stroke="#27ae60" stroke-width="1.5" stroke-dasharray="4 2"/>
  <rect x="221" y="370" width="96" height="34" rx="4" fill="#27ae60" opacity="0.92"/>
  <text x="269" y="385" text-anchor="middle" font-family="'OpenDyslexic',sans-serif" font-weight="bold" font-size="9" fill="#ffffff">C CARGO BELLY</text>
  <text x="269" y="399" text-anchor="middle" font-family="'OpenDyslexic',sans-serif" font-size="8" fill="#ffffffcc">hinged</text>
  <line x1="363" y1="218" x2="363" y2="192" stroke="#8e44ad" stroke-width="1.5" stroke-dasharray="4 2"/>
  <rect x="321" y="162" width="96" height="34" rx="4" fill="#8e44ad" opacity="0.92"/>
  <text x="369" y="177" text-anchor="middle" font-family="'OpenDyslexic',sans-serif" font-weight="bold" font-size="9" fill="#ffffff">D DORSAL AFT</text>
  <text x="369" y="191" text-anchor="middle" font-family="'OpenDyslexic',sans-serif" font-size="8" fill="#ffffffcc">magnetic</text>
  <line x1="452" y1="226" x2="452" y2="286" stroke="#e67e22" stroke-width="1.5" stroke-dasharray="4 2"/>
  <rect x="410" y="256" width="96" height="34" rx="4" fill="#e67e22" opacity="0.92"/>
  <text x="458" y="271" text-anchor="middle" font-family="'OpenDyslexic',sans-serif" font-weight="bold" font-size="9" fill="#ffffff">E AFT SERVICE</text>
  <text x="458" y="285" text-anchor="middle" font-family="'OpenDyslexic',sans-serif" font-size="8" fill="#ffffffcc">4xM2.5</text>
  <line x1="540" y1="258" x2="540" y2="232" stroke="#16a085" stroke-width="1.5" stroke-dasharray="4 2"/>
  <rect x="498" y="202" width="96" height="34" rx="4" fill="#16a085" opacity="0.92"/>
  <text x="546" y="217" text-anchor="middle" font-family="'OpenDyslexic',sans-serif" font-weight="bold" font-size="9" fill="#ffffff">F ENGINE BELL</text>
  <text x="546" y="231" text-anchor="middle" font-family="'OpenDyslexic',sans-serif" font-size="8" fill="#ffffffcc">bayonet</text>
  <rect x="8" y="8" width="202" height="82" rx="5" fill="rgba(255,255,255,0.93)" stroke="#607080" stroke-width="1"/>
  <text x="109" y="24" text-anchor="middle" font-family="'OpenDyslexic',sans-serif" font-weight="bold" font-size="9" fill="#333">ACCESS PANELS</text>
  <text x="109" y="38" text-anchor="middle" font-family="'OpenDyslexic',sans-serif" font-size="8" fill="#555">Remove battery before opening any panel</text>
  <rect x="12" y="58" width="28" height="16" rx="3" fill="#c0392b"/>
  <text x="26" y="70" text-anchor="middle" font-family="'OpenDyslexic',sans-serif" font-weight="bold" font-size="9" fill="#fff">A</text>
  <rect x="43" y="58" width="28" height="16" rx="3" fill="#2980b9"/>
  <text x="57" y="70" text-anchor="middle" font-family="'OpenDyslexic',sans-serif" font-weight="bold" font-size="9" fill="#fff">B</text>
  <rect x="74" y="58" width="28" height="16" rx="3" fill="#27ae60"/>
  <text x="88" y="70" text-anchor="middle" font-family="'OpenDyslexic',sans-serif" font-weight="bold" font-size="9" fill="#fff">C</text>
  <rect x="105" y="58" width="28" height="16" rx="3" fill="#8e44ad"/>
  <text x="119" y="70" text-anchor="middle" font-family="'OpenDyslexic',sans-serif" font-weight="bold" font-size="9" fill="#fff">D</text>
  <rect x="136" y="58" width="28" height="16" rx="3" fill="#e67e22"/>
  <text x="150" y="70" text-anchor="middle" font-family="'OpenDyslexic',sans-serif" font-weight="bold" font-size="9" fill="#fff">E</text>
  <rect x="167" y="58" width="28" height="16" rx="3" fill="#16a085"/>
  <text x="181" y="70" text-anchor="middle" font-family="'OpenDyslexic',sans-serif" font-weight="bold" font-size="9" fill="#fff">F</text>
</g>
</svg>