<?xml version="1.0" encoding="UTF-8"?>
<!-- © 2026 Steve Griffing PE(CSE) CISSP-ISSEP CPP CC BY 4.0 -->
<!-- Canon: QMx Official Serenity Blueprints (Mandel/Earls 2007) 269ft×170ft×79ft -->
<!-- Scale: 24" (609.6mm)  Hull: Peter Farell CC BY 4.0  Nozzle: BamJr CC BY 4.0 -->
<!-- Visual: Firefly/Serenity © Joss Whedon/Mutant Enemy/Universal Fan work -->
<!-- SIDE PROFILE KEY RATIOS:
     dome peak = 0.218×L = 99.7mm above CL  (iconic high bridge)
     cargo top = 0.090×L = 41.1mm  dome:cargo = 2.42:1
     neck total = 28.8mm  neck:cargo = 0.32:1  (dramatic pinch)
     nacelle_ctr=97.7mm OD=93.5mm datum=82.1mm outer=144.5mm -->
<!-- © 2026 Steve Griffing PE(CSE) CISSP-ISSEP CPP CC BY 4.0 -->
<!-- Hull: Peter Farell CC BY 4.0  Nozzle: BamJr CC BY 4.0 -->
<!-- Visual: Firefly/Serenity © Joss Whedon/Mutant Enemy/Universal Fan work -->
<svg xmlns="http://www.w3.org/2000/svg" viewBox="0 0 820 420" width="820" height="420">
<defs>
  <style>@import url('https://fonts.cdnfonts.com/css/opendyslexic');
    text,tspan{font-family:'OpenDyslexic','OpenDyslexic Bold',sans-serif!important}
    @media print{svg{background:#fff!important}text,tspan{fill:#111!important}}</style>
  <marker id="ar" markerWidth="7" markerHeight="7" refX="6" refY="3.5" orient="auto">
    <path d="M0,0 L7,3.5 L0,7 Z" fill="#00e5ff" opacity="0.8"/></marker>
  <marker id="ar2" markerWidth="7" markerHeight="7" refX="1" refY="3.5" orient="auto">
    <path d="M7,0 L0,3.5 L7,7 Z" fill="#00e5ff" opacity="0.8"/></marker>
  <filter id="glow"><feGaussianBlur stdDeviation="3" result="b"/>
    <feMerge><feMergeNode in="b"/><feMergeNode in="SourceGraphic"/></feMerge></filter>
  <pattern id="grid" width="24" height="24" patternUnits="userSpaceOnUse">
    <path d="M24 0L0 0 0 24" fill="none" stroke="rgba(0,229,255,0.04)" stroke-width="0.5"/>
  </pattern>
</defs>
<rect width="820" height="420" fill="#07090e"/>
<rect width="820" height="420" fill="url(#grid)"/>
<text x="10" y="13" font-family="'OpenDyslexic Mono','OpenDyslexicMono',monospace" font-size="8" fill="rgba(0,229,255,0.85)" letter-spacing="1">SERENITY 24" (609mm) RIGHT SIDE VIEW  — DOME:CARGO=2.42  NECK:CARGO=0.32  dome=133mm  neck=38.4mm  nacelle_ctr=170mm from nose·CG-pivot Z=83mm
<path id="hull-side-stl" d="M 665.7,285.0 L 664.7,284.4 L 663.7,286.2 L 662.7,285.4 L 661.7,286.3 L 658.8,284.3 L 656.8,286.9 L 655.8,286.2 L 654.8,288.1 L 653.8,287.4 L 652.8,284.4 L 650.8,284.8 L 649.9,281.6 L 648.9,284.8 L 646.9,284.0 L 641.9,284.0 L 640.9,283.2 L 639.9,284.7 L 638.0,284.0 L 637.0,286.0 L 636.0,284.3 L 634.0,285.1 L 633.0,284.0 L 631.0,284.0 L 630.0,286.0 L 629.0,294.8 L 628.1,284.0 L 626.1,288.3 L 625.1,296.0 L 624.1,284.0 L 623.1,284.6 L 618.1,284.1 L 616.2,288.1 L 615.2,284.3 L 612.2,284.0 L 611.2,286.0 L 604.3,286.0 L 603.3,241.1 L 599.3,239.1 L 596.3,217.7 L 594.4,217.4 L 592.4,207.5 L 589.4,204.6 L 588.4,190.7 L 587.4,196.0 L 585.4,176.6 L 582.5,177.4 L 581.5,151.3 L 578.5,151.3 L 577.5,153.1 L 576.5,133.9 L 575.5,133.9 L 574.5,136.1 L 573.6,134.2 L 572.6,136.1 L 571.6,134.2 L 570.6,110.4 L 567.6,115.3 L 566.6,134.2 L 565.6,134.2 L 564.6,136.1 L 563.6,152.4 L 562.7,134.2 L 561.7,134.2 L 560.7,136.1 L 559.7,147.8 L 558.7,117.5 L 557.7,116.2 L 556.7,118.7 L 554.7,142.8 L 553.7,133.5 L 552.8,142.7 L 551.8,131.3 L 550.8,131.3 L 549.8,126.7 L 547.8,121.9 L 546.8,121.4 L 544.8,123.7 L 543.8,122.0 L 541.9,125.9 L 540.9,122.4 L 539.9,122.2 L 538.9,124.6 L 537.9,124.8 L 536.9,121.9 L 535.9,128.3 L 534.9,120.8 L 533.9,128.3 L 532.9,121.9 L 531.9,128.3 L 530.0,122.2 L 529.0,122.4 L 528.0,128.1 L 526.0,122.0 L 525.0,123.3 L 524.0,121.9 L 523.0,123.8 L 522.0,121.4 L 521.0,122.9 L 519.1,131.3 L 518.1,131.3 L 516.1,135.5 L 515.1,133.5 L 514.1,135.6 L 513.1,118.7 L 512.1,116.2 L 511.1,117.5 L 510.1,142.4 L 508.2,134.2 L 506.2,134.2 L 505.2,136.1 L 504.2,134.2 L 503.2,134.2 L 502.2,115.3 L 501.2,112.8 L 500.2,112.0 L 499.2,133.3 L 498.3,110.4 L 497.3,135.8 L 496.3,132.2 L 495.3,134.6 L 492.3,132.7 L 490.3,137.2 L 489.3,136.8 L 488.3,130.7 L 487.4,134.6 L 486.4,133.2 L 485.4,139.6 L 483.4,132.9 L 482.4,135.7 L 481.4,135.9 L 480.4,130.1 L 479.4,141.0 L 478.4,132.1 L 477.4,132.8 L 476.5,140.7 L 475.5,129.9 L 474.5,132.8 L 473.5,130.2 L 472.5,131.0 L 471.5,129.9 L 470.5,136.4 L 469.5,130.1 L 466.5,129.8 L 465.6,131.6 L 464.6,129.8 L 463.6,131.9 L 462.6,129.8 L 461.6,132.1 L 460.6,130.1 L 459.6,130.1 L 458.6,136.8 L 457.6,130.2 L 455.6,129.9 L 454.7,130.1 L 453.7,132.3 L 451.7,130.4 L 450.7,135.9 L 449.7,131.7 L 448.7,131.5 L 447.7,139.9 L 446.7,130.9 L 445.7,131.8 L 444.7,139.8 L 442.8,130.7 L 441.8,134.7 L 440.8,132.3 L 439.8,133.9 L 438.8,131.4 L 437.8,137.3 L 434.8,132.2 L 433.9,135.8 L 432.9,133.3 L 430.9,137.2 L 429.9,134.7 L 428.9,137.0 L 427.9,137.0 L 426.9,138.5 L 425.9,138.5 L 424.9,140.8 L 423.9,140.5 L 423.0,144.6 L 422.0,142.4 L 421.0,142.4 L 420.0,144.0 L 418.0,144.2 L 417.0,146.9 L 414.0,145.9 L 410.1,155.5 L 408.1,156.9 L 403.1,168.5 L 402.1,172.5 L 401.2,172.1 L 399.2,174.6 L 398.2,174.5 L 394.2,171.9 L 393.2,172.4 L 392.2,170.5 L 390.3,171.9 L 388.3,170.5 L 387.3,172.9 L 386.3,172.9 L 385.3,174.0 L 384.3,173.6 L 380.3,175.5 L 379.4,175.2 L 378.4,176.6 L 377.4,181.6 L 376.4,182.9 L 374.4,183.7 L 371.4,189.7 L 370.4,197.6 L 274.3,197.6 L 273.3,249.1 L 271.4,245.6 L 270.4,246.4 L 269.4,245.6 L 268.4,247.6 L 267.4,230.1 L 266.4,242.9 L 265.4,205.9 L 262.4,206.7 L 261.4,198.1 L 260.5,199.9 L 259.5,199.9 L 257.5,180.5 L 256.5,182.6 L 255.5,182.2 L 254.5,184.2 L 253.5,184.5 L 252.5,182.0 L 251.5,194.7 L 250.5,183.6 L 249.6,195.9 L 248.6,182.2 L 247.6,180.1 L 246.6,183.9 L 245.6,181.8 L 244.6,186.1 L 243.6,181.6 L 242.6,183.0 L 241.6,178.9 L 240.6,177.9 L 237.7,178.4 L 236.7,176.9 L 235.7,178.7 L 234.7,171.5 L 233.7,169.6 L 231.7,168.5 L 229.7,168.9 L 228.7,168.1 L 227.8,170.3 L 224.8,162.0 L 222.8,160.8 L 220.8,161.6 L 219.8,164.5 L 218.8,161.5 L 215.9,166.2 L 214.9,159.9 L 213.9,163.6 L 212.9,162.6 L 210.9,154.9 L 209.9,153.8 L 207.9,153.8 L 206.0,155.6 L 203.0,155.9 L 201.0,153.8 L 198.0,154.2 L 197.0,155.4 L 195.1,162.6 L 194.1,162.2 L 193.1,159.9 L 192.1,166.2 L 189.1,161.5 L 188.1,162.8 L 186.1,161.0 L 184.2,161.1 L 183.2,162.0 L 181.2,168.7 L 176.2,168.5 L 174.3,170.6 L 173.3,178.7 L 172.3,176.9 L 171.3,178.8 L 168.3,177.6 L 166.3,180.6 L 165.3,185.4 L 164.3,186.3 L 161.4,186.2 L 160.4,187.4 L 159.4,195.3 L 156.4,194.3 L 155.4,194.8 L 154.4,197.2 L 153.4,213.9 L 152.5,213.5 L 150.5,219.7 L 149.5,215.5 L 148.5,219.4 L 145.5,220.8 L 144.5,224.8 L 126.7,224.8 L 125.7,237.7 L 124.7,239.5 L 123.7,237.7 L 121.7,244.3 L 120.7,241.1 L 119.8,242.9 L 118.8,242.9 L 117.8,244.3 L 116.8,241.4 L 115.8,242.9 L 113.8,242.9 L 112.8,241.4 L 111.8,241.4 L 110.8,244.3 L 109.8,244.3 L 108.9,245.6 L 107.9,242.9 L 106.9,242.9 L 105.9,246.8 L 104.9,245.6 L 102.9,246.4 L 100.9,251.6 L 78.1,251.6 L 77.2,292.8 L 72.2,293.8 L 72.2,299.6 L 77.2,300.6 L 78.1,291.8 L 100.9,291.8 L 101.9,300.6 L 102.9,300.6 L 103.9,302.0 L 104.9,297.2 L 105.9,298.2 L 106.9,294.9 L 107.9,298.3 L 109.8,298.2 L 110.8,302.0 L 112.8,292.3 L 113.8,300.3 L 114.8,290.4 L 115.8,296.3 L 116.8,296.2 L 117.8,292.2 L 118.8,302.0 L 138.6,302.0 L 139.6,296.4 L 140.6,302.0 L 141.6,299.4 L 142.5,302.0 L 145.5,302.0 L 146.5,299.4 L 147.5,302.0 L 150.5,302.0 L 152.5,295.6 L 153.4,302.0 L 155.4,302.0 L 156.4,299.9 L 157.4,300.2 L 158.4,302.0 L 160.4,302.0 L 162.4,297.3 L 163.4,298.3 L 164.3,302.0 L 166.3,302.0 L 167.3,299.4 L 169.3,302.0 L 170.3,300.4 L 171.3,302.0 L 172.3,299.4 L 173.3,302.0 L 174.3,288.1 L 175.2,302.0 L 176.2,302.0 L 177.2,299.4 L 178.2,302.0 L 179.2,302.0 L 181.2,291.6 L 182.2,298.6 L 183.2,293.1 L 184.2,302.0 L 187.1,302.0 L 189.1,288.1 L 190.1,298.6 L 191.1,302.0 L 192.1,302.0 L 193.1,298.8 L 194.1,282.6 L 195.1,302.0 L 198.0,302.0 L 199.0,300.3 L 200.0,302.0 L 201.0,299.4 L 202.0,302.0 L 211.9,302.0 L 212.9,299.4 L 213.9,302.0 L 214.9,302.0 L 215.9,299.4 L 216.9,302.0 L 219.8,301.5 L 221.8,302.0 L 222.8,301.2 L 223.8,302.0 L 224.8,299.4 L 225.8,302.0 L 229.7,302.0 L 230.7,301.3 L 231.7,302.0 L 235.7,302.0 L 236.7,299.4 L 237.7,302.0 L 255.5,302.0 L 256.5,290.2 L 257.5,292.5 L 259.5,292.2 L 261.4,298.3 L 262.4,292.3 L 263.4,300.9 L 264.4,292.2 L 266.4,290.3 L 268.4,298.2 L 269.4,293.7 L 271.4,300.7 L 273.3,291.8 L 274.3,201.6 L 370.4,201.6 L 371.4,200.1 L 372.4,199.9 L 373.4,202.0 L 374.4,201.4 L 376.4,202.6 L 377.4,201.8 L 378.4,253.7 L 379.4,254.6 L 380.3,258.9 L 382.3,257.6 L 383.3,258.4 L 386.3,272.1 L 388.3,274.5 L 389.3,272.8 L 390.3,273.4 L 391.2,271.4 L 392.2,272.3 L 393.2,269.7 L 394.2,278.6 L 395.2,281.1 L 396.2,281.4 L 398.2,280.8 L 400.2,278.9 L 401.2,281.1 L 402.1,274.6 L 403.1,299.2 L 405.1,299.9 L 406.1,282.1 L 407.1,282.4 L 408.1,280.1 L 409.1,283.8 L 410.1,302.0 L 411.1,302.0 L 412.1,291.6 L 413.0,302.0 L 414.0,302.0 L 415.0,299.4 L 416.0,302.0 L 418.0,301.9 L 419.0,299.4 L 422.0,299.9 L 423.0,298.2 L 423.9,298.4 L 424.9,302.0 L 425.9,302.0 L 427.9,299.7 L 428.9,301.9 L 429.9,302.0 L 430.9,299.4 L 431.9,302.0 L 432.9,299.4 L 433.9,162.7 L 434.8,164.3 L 435.8,291.1 L 436.8,291.8 L 437.8,297.4 L 438.8,297.1 L 439.8,298.5 L 440.8,302.0 L 441.8,296.0 L 442.8,302.0 L 443.8,302.0 L 444.7,300.1 L 445.7,300.7 L 446.7,298.1 L 449.7,302.0 L 450.7,298.2 L 451.7,298.4 L 452.7,302.0 L 497.3,302.0 L 498.3,299.4 L 499.2,302.0 L 503.2,302.0 L 504.2,299.4 L 505.2,302.0 L 506.2,299.4 L 507.2,302.0 L 513.1,302.0 L 514.1,299.4 L 515.1,302.0 L 516.1,299.4 L 517.1,302.0 L 523.0,302.0 L 524.0,299.4 L 525.0,289.6 L 527.0,288.8 L 529.0,302.0 L 531.0,302.0 L 531.9,294.5 L 532.9,298.4 L 533.9,298.9 L 534.9,302.0 L 535.9,299.1 L 536.9,302.0 L 537.9,297.2 L 538.9,298.1 L 539.9,302.0 L 540.9,302.0 L 541.9,293.0 L 542.8,297.3 L 543.8,299.0 L 544.8,298.5 L 545.8,299.4 L 546.8,302.0 L 548.8,302.0 L 549.8,299.4 L 550.8,302.0 L 551.8,302.0 L 552.8,299.6 L 553.7,299.4 L 554.7,302.0 L 557.7,302.0 L 558.7,301.0 L 559.7,302.0 L 562.7,302.0 L 563.6,299.4 L 564.6,302.0 L 565.6,302.0 L 566.6,298.4 L 568.6,302.0 L 570.6,302.0 L 571.6,300.0 L 572.6,302.0 L 576.5,302.0 L 577.5,301.0 L 578.5,302.0 L 595.4,302.0 L 597.3,295.9 L 598.3,299.6 L 599.3,296.0 L 600.3,297.9 L 602.3,295.2 L 603.3,287.0 L 604.3,298.5 L 611.2,298.5 L 612.2,300.9 L 613.2,298.6 L 614.2,300.8 L 615.2,298.3 L 618.1,301.1 L 620.1,299.2 L 621.1,301.0 L 622.1,298.4 L 623.1,299.6 L 625.1,298.9 L 626.1,300.3 L 628.1,299.4 L 629.0,297.1 L 630.0,298.9 L 631.0,298.8 L 632.0,299.9 L 635.0,298.4 L 637.0,302.0 L 638.0,297.3 L 639.9,300.8 L 641.9,299.7 L 642.9,301.1 L 643.9,298.4 L 646.9,299.6 L 647.9,297.2 L 648.9,299.1 L 652.8,298.4 L 654.8,299.0 L 656.8,293.2 L 657.8,298.7 L 658.8,299.2 L 661.7,296.9 L 663.7,299.1 L 665.7,298.4 Z" fill="#0e2030" stroke="#00e5ff" stroke-width="2.5"/>
<path d="M85.1,205.5 Q112.4,85.5 140.4,110.4 Q173.0,106.3 208.7,175.8" fill="rgba(0,229,255,0.14)" stroke="#00e5ff" stroke-width="2"/>
<text x="140.4" y="95.0" text-anchor="middle" font-family="'OpenDyslexic','OpenDyslexic Bold',sans-serif" font-size="9" fill="#00e5ff" font-weight="bold">BRIDGE</text>
<rect x="289.5" y="284.0" width="87.4" height="14.3" rx="3" fill="rgba(244,114,182,0.10)" stroke="#f472b6" stroke-width="1.2" stroke-dasharray="4 2"/>
<line x1="505.9" y1="219.2" x2="555.9" y2="219.2" stroke="#ffe600" stroke-width="0.8" opacity="0.6"/>
<line x1="505.9" y1="256.6" x2="555.9" y2="256.6" stroke="#ffe600" stroke-width="0.8" opacity="0.6"/>
<line x1="549.9" y1="219.2" x2="549.9" y2="256.6" stroke="#ffe600" stroke-width="1" marker-start="url(#ar2)" marker-end="url(#ar)"/>
<text x="561.9" y="241.9" font-family="'OpenDyslexic','OpenDyslexic Bold',sans-serif" font-size="8" fill="#ffe600" font-weight="bold">neck 38.4mm (1.51")</text>
<text x="561.9" y="253.9" font-family="'OpenDyslexic','OpenDyslexic Bold',sans-serif" font-size="7" fill="rgba(255,230,0,0.70)">0.32 × cargo section</text>
<line x1="200.4" y1="110.4" x2="200.4" y2="240.0" stroke="#00e5ff" stroke-width="0.6" opacity="0.35"/>
<text x="210.4" y="152.5" font-family="'OpenDyslexic','OpenDyslexic Bold',sans-serif" font-size="7" fill="#00e5ff">99.7mm above CL</text>
<rect x="278.7" y="31.8" width="121.5" height="182.3" rx="6" fill="rgba(255,107,53,0.10)" stroke="#ff6b35" stroke-width="1.8"/>
<ellipse cx="339.5" cy="101.1" rx="52.0" ry="7.8" fill="rgba(255,107,53,0.15)" stroke="#ff6b35" stroke-width="1"/>
<line x1="339.5" y1="226.9" x2="339.5" y2="214.1" stroke="#00e5ff" stroke-width="3"/>
<text x="339.5" y="21.8" text-anchor="middle" font-family="'OpenDyslexic','OpenDyslexic Bold',sans-serif" font-size="8" fill="#ff6b35" font-weight="bold">50mm×2 TANDEM EDF  HOVER 90°</text>
<text x="339.5" y="9.8" text-anchor="middle" font-family="'OpenDyslexic','OpenDyslexic Bold',sans-serif" font-size="7" fill="rgba(255,107,53,0.7)">nacelle 148mm L · CG-pivot Z=83mm · MF104ZZ</text>
<path d="M552.2,197.2 Q601.0,175.8 666.4,197.2 L666.4,275.7 Q601.0,293.5 552.2,282.8 Z" fill="rgba(255,230,0,0.09)" stroke="#ffe600" stroke-width="1.8"/>
<text x="598.0" y="244.0" text-anchor="middle" font-family="'OpenDyslexic','OpenDyslexic Bold',sans-serif" font-size="7" fill="#ffe600">120mm EDF</text>
<rect x="131.3" y="97.4" width="36" height="12" rx="2" fill="rgba(74,222,128,0.28)" stroke="#4ade80" stroke-width="1.5"/>
<text x="149.3" y="91.4" text-anchor="middle" font-family="'OpenDyslexic','OpenDyslexic Bold',sans-serif" font-size="8" fill="#4ade80" font-weight="bold">GPS 140mm</text>
<circle cx="547.5" cy="191.3" r="5" fill="rgba(244,114,182,0.3)" stroke="#f472b6" stroke-width="1.8"/>
<line x1="547.5" y1="191.3" x2="547.5" y2="70.0" stroke="#f472b6" stroke-width="3" stroke-linecap="round"/>
<ellipse cx="547.5" cy="176.3" rx="6" ry="4" fill="none" stroke="#f472b6" stroke-width="1" opacity="0.75"/>
<ellipse cx="547.5" cy="163.3" rx="6" ry="4" fill="none" stroke="#f472b6" stroke-width="1" opacity="0.75"/>
<ellipse cx="547.5" cy="150.3" rx="6" ry="4" fill="none" stroke="#f472b6" stroke-width="1" opacity="0.75"/>
<ellipse cx="547.5" cy="137.3" rx="6" ry="4" fill="none" stroke="#f472b6" stroke-width="1" opacity="0.75"/>
<ellipse cx="547.5" cy="124.3" rx="6" ry="4" fill="none" stroke="#f472b6" stroke-width="1" opacity="0.75"/>
<ellipse cx="547.5" cy="111.3" rx="6" ry="4" fill="none" stroke="#f472b6" stroke-width="1" opacity="0.75"/>
<text x="567.5" y="74.0" font-family="'OpenDyslexic','OpenDyslexic Bold',sans-serif" font-size="9" fill="#f472b6" font-weight="bold">49MHz top wire 120→600mm</text>
<line x1="401.9" y1="298.2" x2="401.9" y2="323.2" stroke="#ff6b35" stroke-width="3" stroke-linecap="round"/>
<text x="401.9" y="332.7" text-anchor="middle" font-family="'OpenDyslexic','OpenDyslexic Bold',sans-serif" font-size="8" fill="#ff6b35">SiK↓ 260mm</text>
<line x1="195.6" y1="296.5" x2="177.6" y2="336.3" stroke="#00e5ff" stroke-width="1.5" opacity="0.5"/>
<line x1="159.6" y1="336.3" x2="231.6" y2="336.3" stroke="#00e5ff" stroke-width="2.5" opacity="0.5"/>
<line x1="371.6" y1="296.5" x2="353.6" y2="336.3" stroke="#00e5ff" stroke-width="1.5" opacity="0.5"/>
<line x1="335.6" y1="336.3" x2="407.6" y2="336.3" stroke="#00e5ff" stroke-width="2.5" opacity="0.5"/>
<line x1="269.3" y1="110.0" x2="269.3" y2="360.0" stroke="#4ade80" stroke-width="1.5" stroke-dasharray="6 3"/>
<text x="269.3" y="104.0" text-anchor="middle" font-family="'OpenDyslexic','OpenDyslexic Bold',sans-serif" font-size="9" fill="#4ade80" font-weight="bold">CG 203mm (7.99")</text>
<line x1="798.0" y1="110.4" x2="798.0" y2="336.3" stroke="#ffe600" stroke-width="0.6" opacity="0.40"/>
<text x="812.0" y="240.0" text-anchor="middle" font-family="'OpenDyslexic','OpenDyslexic Bold',sans-serif" font-size="7" fill="#ffe600" transform="rotate(-90,812.0,240.0)">Canon 182mm (7.17") height</text>
<line x1="72.0" y1="240.0" x2="35.6" y2="240.0" stroke="#2dd4bf" stroke-width="5" stroke-linecap="round"/>
<line x1="72.0" y1="406.0" x2="666.4" y2="406.0" stroke="#00e5ff" stroke-width="0.5" opacity="0.25"/>
<text x="369.2" y="416.0" text-anchor="middle" font-family="'OpenDyslexic','OpenDyslexic Bold',sans-serif" font-size="9" fill="rgba(255,255,255,0.82)">609.6 mm (24.00")  Canon 269ft</text>
<text x="65.5" y="244.0" text-anchor="end" font-family="'OpenDyslexic','OpenDyslexic Bold',sans-serif" font-size="8" fill="rgba(255,255,255,0.82)">NOSE</text>
<text x="672.9" y="244.0" font-family="'OpenDyslexic','OpenDyslexic Bold',sans-serif" font-size="8" fill="rgba(255,255,255,0.82)">TAIL</text>
<text x="10" y="414" font-family="'OpenDyslexic Mono','OpenDyslexicMono',monospace" font-size="7" fill="rgba(163,230,53,0.85)">© 2026 Steve Griffing PE(CSE) CISSP-ISSEP CPP CC BY 4.0  Hull: Peter Farell CC BY 4.0  Nozzle: BamJr CC BY 4.0  Fan engineering work</text>
<g id="access-panel-callouts">
  <line x1="55" y1="265" x2="55" y2="239" stroke="#c0392b" stroke-width="1.5" stroke-dasharray="4 2"/>
  <rect x="13" y="209" width="96" height="34" rx="4" fill="#c0392b" opacity="0.92"/>
  <text x="61" y="224" text-anchor="middle" font-family="'OpenDyslexic',sans-serif" font-weight="bold" font-size="9" fill="#ffffff">A NOSE CAP</text>
  <text x="61" y="238" text-anchor="middle" font-family="'OpenDyslexic',sans-serif" font-size="8" fill="#ffffffcc">bayonet</text>
  <line x1="158" y1="218" x2="158" y2="192" stroke="#2980b9" stroke-width="1.5" stroke-dasharray="4 2"/>
  <rect x="116" y="162" width="96" height="34" rx="4" fill="#2980b9" opacity="0.92"/>
  <text x="164" y="177" text-anchor="middle" font-family="'OpenDyslexic',sans-serif" font-weight="bold" font-size="9" fill="#ffffff">B DORSAL FWD</text>
  <text x="164" y="191" text-anchor="middle" font-family="'OpenDyslexic',sans-serif" font-size="8" fill="#ffffffcc">4xM2.5</text>
  <line x1="263" y1="340" x2="263" y2="400" stroke="#27ae60" stroke-width="1.5" stroke-dasharray="4 2"/>
  <rect x="221" y="370" width="96" height="34" rx="4" fill="#27ae60" opacity="0.92"/>
  <text x="269" y="385" text-anchor="middle" font-family="'OpenDyslexic',sans-serif" font-weight="bold" font-size="9" fill="#ffffff">C CARGO BELLY</text>
  <text x="269" y="399" text-anchor="middle" font-family="'OpenDyslexic',sans-serif" font-size="8" fill="#ffffffcc">hinged</text>
  <line x1="363" y1="218" x2="363" y2="192" stroke="#8e44ad" stroke-width="1.5" stroke-dasharray="4 2"/>
  <rect x="321" y="162" width="96" height="34" rx="4" fill="#8e44ad" opacity="0.92"/>
  <text x="369" y="177" text-anchor="middle" font-family="'OpenDyslexic',sans-serif" font-weight="bold" font-size="9" fill="#ffffff">D DORSAL AFT</text>
  <text x="369" y="191" text-anchor="middle" font-family="'OpenDyslexic',sans-serif" font-size="8" fill="#ffffffcc">magnetic</text>
  <line x1="452" y1="226" x2="452" y2="286" stroke="#e67e22" stroke-width="1.5" stroke-dasharray="4 2"/>
  <rect x="410" y="256" width="96" height="34" rx="4" fill="#e67e22" opacity="0.92"/>
  <text x="458" y="271" text-anchor="middle" font-family="'OpenDyslexic',sans-serif" font-weight="bold" font-size="9" fill="#ffffff">E AFT SERVICE</text>
  <text x="458" y="285" text-anchor="middle" font-family="'OpenDyslexic',sans-serif" font-size="8" fill="#ffffffcc">4xM2.5</text>
  <line x1="540" y1="258" x2="540" y2="232" stroke="#16a085" stroke-width="1.5" stroke-dasharray="4 2"/>
  <rect x="498" y="202" width="96" height="34" rx="4" fill="#16a085" opacity="0.92"/>
  <text x="546" y="217" text-anchor="middle" font-family="'OpenDyslexic',sans-serif" font-weight="bold" font-size="9" fill="#ffffff">F ENGINE BELL</text>
  <text x="546" y="231" text-anchor="middle" font-family="'OpenDyslexic',sans-serif" font-size="8" fill="#ffffffcc">bayonet</text>
  <rect x="8" y="8" width="202" height="82" rx="5" fill="rgba(255,255,255,0.93)" stroke="#607080" stroke-width="1"/>
  <text x="109" y="24" text-anchor="middle" font-family="'OpenDyslexic',sans-serif" font-weight="bold" font-size="9" fill="#333">ACCESS PANELS</text>
  <text x="109" y="38" text-anchor="middle" font-family="'OpenDyslexic',sans-serif" font-size="8" fill="#555">Remove battery before opening any panel</text>
  <rect x="12" y="58" width="28" height="16" rx="3" fill="#c0392b"/>
  <text x="26" y="70" text-anchor="middle" font-family="'OpenDyslexic',sans-serif" font-weight="bold" font-size="9" fill="#fff">A</text>
  <rect x="43" y="58" width="28" height="16" rx="3" fill="#2980b9"/>
  <text x="57" y="70" text-anchor="middle" font-family="'OpenDyslexic',sans-serif" font-weight="bold" font-size="9" fill="#fff">B</text>
  <rect x="74" y="58" width="28" height="16" rx="3" fill="#27ae60"/>
  <text x="88" y="70" text-anchor="middle" font-family="'OpenDyslexic',sans-serif" font-weight="bold" font-size="9" fill="#fff">C</text>
  <rect x="105" y="58" width="28" height="16" rx="3" fill="#8e44ad"/>
  <text x="119" y="70" text-anchor="middle" font-family="'OpenDyslexic',sans-serif" font-weight="bold" font-size="9" fill="#fff">D</text>
  <rect x="136" y="58" width="28" height="16" rx="3" fill="#e67e22"/>
  <text x="150" y="70" text-anchor="middle" font-family="'OpenDyslexic',sans-serif" font-weight="bold" font-size="9" fill="#fff">E</text>
  <rect x="167" y="58" width="28" height="16" rx="3" fill="#16a085"/>
  <text x="181" y="70" text-anchor="middle" font-family="'OpenDyslexic',sans-serif" font-weight="bold" font-size="9" fill="#fff">F</text>
</g>
</svg>