<?xml version="1.0" encoding="UTF-8"?>
<!-- © 2026 Steve Griffing PE(CSE) CISSP-ISSEP CPP CC BY 4.0 -->
<!-- Canon: QMx Official Serenity Blueprints (Mandel/Earls 2007) 269ft×170ft×79ft -->
<!-- Scale: 18" (457.2mm)  Hull: Peter Farell CC BY 4.0  Nozzle: BamJr CC BY 4.0 -->
<!-- Visual: Firefly/Serenity © Joss Whedon/Mutant Enemy/Universal Fan work -->
<!-- SIDE PROFILE KEY RATIOS:
     dome peak = 0.218×L = 99.7mm above CL  (iconic high bridge)
     cargo top = 0.090×L = 41.1mm  dome:cargo = 2.42:1
     neck total = 28.8mm  neck:cargo = 0.32:1  (dramatic pinch)
     nacelle_ctr=97.7mm OD=93.5mm datum=82.1mm outer=144.5mm -->
<!-- © 2026 Steve Griffing PE(CSE) CISSP-ISSEP CPP CC BY 4.0 -->
<!-- Hull: Peter Farell CC BY 4.0  Nozzle: BamJr CC BY 4.0 -->
<!-- Visual: Firefly/Serenity © Joss Whedon/Mutant Enemy/Universal Fan work -->
<svg xmlns="http://www.w3.org/2000/svg" viewBox="0 0 680 500" width="680" height="500">
<defs>
  <style>@import url('https://fonts.cdnfonts.com/css/opendyslexic');
    text,tspan{font-family:'OpenDyslexic','OpenDyslexic Bold',sans-serif!important}
    @media print{svg{background:#fff!important}text,tspan{fill:#111!important}}</style>
  <marker id="ar" markerWidth="7" markerHeight="7" refX="6" refY="3.5" orient="auto">
    <path d="M0,0 L7,3.5 L0,7 Z" fill="#00e5ff" opacity="0.8"/></marker>
  <marker id="ar2" markerWidth="7" markerHeight="7" refX="1" refY="3.5" orient="auto">
    <path d="M7,0 L0,3.5 L7,7 Z" fill="#00e5ff" opacity="0.8"/></marker>
  <filter id="glow"><feGaussianBlur stdDeviation="3" result="b"/>
    <feMerge><feMergeNode in="b"/><feMergeNode in="SourceGraphic"/></feMerge></filter>
  <pattern id="grid" width="24" height="24" patternUnits="userSpaceOnUse">
    <path d="M24 0L0 0 0 24" fill="none" stroke="rgba(0,229,255,0.04)" stroke-width="0.5"/>
  </pattern>
</defs>
<rect width="680" height="500" fill="#07090e"/>
<rect width="680" height="500" fill="url(#grid)"/>
<text x="10" y="13" font-family="'OpenDyslexic Mono','OpenDyslexicMono',monospace" font-size="8" fill="rgba(0,229,255,0.85)" letter-spacing="1">SERENITY 18" (457mm) FRONT VIEW  dome=99.7mm  neck=28.8mm  dome:cargo=2.42  neck:cargo=0.32  nacelle_ctr=98mm→OD=93mm→datum=82mm→outer=144mm ✔</text>
<path d="M340.0,221.1 Q352.6,245.1 348.0,282.9 L332.0,282.9 Q327.4,245.1 340.0,221.1 Z" fill="#0e2030" stroke="#00e5ff" stroke-width="2"/>
<ellipse cx="340.0" cy="182.3" rx="34.3" ry="24.0" fill="rgba(0,229,255,0.12)" stroke="#00e5ff" stroke-width="1.5"/>
<rect x="328.6" y="145.1" width="22.9" height="13" rx="2" fill="rgba(74,222,128,0.28)" stroke="#4ade80" stroke-width="1.5"/>
<text x="340.0" y="142.3" text-anchor="middle" font-family="'OpenDyslexic','OpenDyslexic Bold',sans-serif" font-size="8" fill="#4ade80" font-weight="bold">GPS</text>
<line x1="288.6" y1="236.0" x2="276.3" y2="254.3" stroke="#00e5ff" stroke-width="5" stroke-linecap="round"/>
<ellipse cx="217.8" cy="254.3" rx="58.4" ry="17.5" fill="rgba(255,107,53,0.10)" stroke="#ff6b35" stroke-width="2.5"/>
<ellipse cx="217.8" cy="254.3" rx="50.0" ry="13.8" fill="rgba(255,107,53,0.08)" stroke="#ff6b35" stroke-width="1" stroke-dasharray="3 2"/>
<line x1="226.6" y1="254.3" x2="265.3" y2="254.3" stroke="#ff6b35" stroke-width="0.7" opacity="0.25"/>
<line x1="225.4" y1="257.4" x2="259.0" y2="261.2" stroke="#ff6b35" stroke-width="0.7" opacity="0.25"/>
<line x1="222.2" y1="259.7" x2="241.6" y2="266.2" stroke="#ff6b35" stroke-width="0.7" opacity="0.25"/>
<line x1="217.8" y1="260.5" x2="217.8" y2="268.0" stroke="#ff6b35" stroke-width="0.7" opacity="0.25"/>
<line x1="213.5" y1="259.7" x2="194.1" y2="266.2" stroke="#ff6b35" stroke-width="0.7" opacity="0.25"/>
<line x1="210.3" y1="257.4" x2="176.7" y2="261.2" stroke="#ff6b35" stroke-width="0.7" opacity="0.25"/>
<line x1="209.1" y1="254.3" x2="170.3" y2="254.3" stroke="#ff6b35" stroke-width="0.7" opacity="0.25"/>
<line x1="210.3" y1="251.2" x2="176.7" y2="247.4" stroke="#ff6b35" stroke-width="0.7" opacity="0.25"/>
<line x1="213.5" y1="248.9" x2="194.1" y2="242.4" stroke="#ff6b35" stroke-width="0.7" opacity="0.25"/>
<line x1="217.8" y1="248.0" x2="217.8" y2="240.5" stroke="#ff6b35" stroke-width="0.7" opacity="0.25"/>
<line x1="222.2" y1="248.9" x2="241.6" y2="242.4" stroke="#ff6b35" stroke-width="0.7" opacity="0.25"/>
<line x1="225.4" y1="251.2" x2="259.0" y2="247.4" stroke="#ff6b35" stroke-width="0.7" opacity="0.25"/>
<line x1="276.3" y1="228.8" x2="276.3" y2="279.8" stroke="#00e5ff" stroke-width="0.8" stroke-dasharray="2 2" opacity="0.70"/>
<line x1="237.3" y1="228.8" x2="237.3" y2="279.8" stroke="#d4a827" stroke-width="2.2" stroke-dasharray="2 2" opacity="0.70"/>
<line x1="159.4" y1="228.8" x2="159.4" y2="279.8" stroke="#ff6b35" stroke-width="0.8" stroke-dasharray="2 2" opacity="0.70"/>
<circle cx="237.3" cy="254.3" r="5.5" fill="#d4a827" opacity="0.95"/>
<circle cx="159.4" cy="254.3" r="8" fill="#f87171" opacity="0.95" filter="url(#glow)"/>
<text x="159.4" y="228.3" text-anchor="middle" font-family="'OpenDyslexic','OpenDyslexic Bold',sans-serif" font-size="9" fill="#f87171" font-weight="bold">●PORT</text>
<text x="256.8" y="289.3" text-anchor="middle" font-family="'OpenDyslexic','OpenDyslexic Bold',sans-serif" font-size="8" fill="#00e5ff">OD÷3=31mm</text>
<text x="198.4" y="289.3" text-anchor="middle" font-family="'OpenDyslexic','OpenDyslexic Bold',sans-serif" font-size="8" fill="#ff6b35">OD×⅔=62mm</text>
<text x="227.3" y="228.3" text-anchor="end" font-family="'OpenDyslexic','OpenDyslexic Bold',sans-serif" font-size="8" fill="#d4a827" font-weight="bold">datum● 82.1mm</text>
<line x1="391.4" y1="236.0" x2="403.7" y2="254.3" stroke="#00e5ff" stroke-width="5" stroke-linecap="round"/>
<ellipse cx="462.2" cy="254.3" rx="58.4" ry="17.5" fill="rgba(255,107,53,0.10)" stroke="#ff6b35" stroke-width="2.5"/>
<ellipse cx="462.2" cy="254.3" rx="50.0" ry="13.8" fill="rgba(255,107,53,0.08)" stroke="#ff6b35" stroke-width="1" stroke-dasharray="3 2"/>
<line x1="470.9" y1="254.3" x2="509.7" y2="254.3" stroke="#ff6b35" stroke-width="0.7" opacity="0.25"/>
<line x1="469.7" y1="257.4" x2="503.3" y2="261.2" stroke="#ff6b35" stroke-width="0.7" opacity="0.25"/>
<line x1="466.5" y1="259.7" x2="485.9" y2="266.2" stroke="#ff6b35" stroke-width="0.7" opacity="0.25"/>
<line x1="462.2" y1="260.5" x2="462.2" y2="268.0" stroke="#ff6b35" stroke-width="0.7" opacity="0.25"/>
<line x1="457.8" y1="259.7" x2="438.4" y2="266.2" stroke="#ff6b35" stroke-width="0.7" opacity="0.25"/>
<line x1="454.6" y1="257.4" x2="421.0" y2="261.2" stroke="#ff6b35" stroke-width="0.7" opacity="0.25"/>
<line x1="453.4" y1="254.3" x2="414.7" y2="254.3" stroke="#ff6b35" stroke-width="0.7" opacity="0.25"/>
<line x1="454.6" y1="251.2" x2="421.0" y2="247.4" stroke="#ff6b35" stroke-width="0.7" opacity="0.25"/>
<line x1="457.8" y1="248.9" x2="438.4" y2="242.4" stroke="#ff6b35" stroke-width="0.7" opacity="0.25"/>
<line x1="462.2" y1="248.0" x2="462.2" y2="240.5" stroke="#ff6b35" stroke-width="0.7" opacity="0.25"/>
<line x1="466.5" y1="248.9" x2="485.9" y2="242.4" stroke="#ff6b35" stroke-width="0.7" opacity="0.25"/>
<line x1="469.7" y1="251.2" x2="503.3" y2="247.4" stroke="#ff6b35" stroke-width="0.7" opacity="0.25"/>
<line x1="403.7" y1="228.8" x2="403.7" y2="279.8" stroke="#00e5ff" stroke-width="0.8" stroke-dasharray="2 2" opacity="0.70"/>
<line x1="442.7" y1="228.8" x2="442.7" y2="279.8" stroke="#d4a827" stroke-width="2.2" stroke-dasharray="2 2" opacity="0.70"/>
<line x1="520.6" y1="228.8" x2="520.6" y2="279.8" stroke="#ff6b35" stroke-width="0.8" stroke-dasharray="2 2" opacity="0.70"/>
<circle cx="442.7" cy="254.3" r="5.5" fill="#d4a827" opacity="0.95"/>
<circle cx="520.6" cy="254.3" r="8" fill="#4ade80" opacity="0.95" filter="url(#glow)"/>
<text x="520.6" y="228.3" text-anchor="middle" font-family="'OpenDyslexic','OpenDyslexic Bold',sans-serif" font-size="9" fill="#4ade80" font-weight="bold">STBD●</text>
<text x="462.2" y="296.8" text-anchor="middle" font-family="'OpenDyslexic','OpenDyslexic Bold',sans-serif" font-size="8" fill="#ff6b35" font-weight="bold">STBD 80mm EDF</text>
<text x="462.2" y="309.3" text-anchor="middle" font-family="'OpenDyslexic','OpenDyslexic Bold',sans-serif" font-size="7" fill="rgba(255,107,53,0.70)">1700g @6S</text>
<rect x="308.0" y="304.6" width="64.0" height="12.5" rx="2" fill="rgba(244,114,182,0.10)" stroke="#f472b6" stroke-width="1.5" stroke-dasharray="4 2"/>
<text x="340.0" y="318.3" text-anchor="middle" font-family="'OpenDyslexic','OpenDyslexic Bold',sans-serif" font-size="8" fill="#f472b6">PAYLOAD DOOR</text>
<line x1="314.9" y1="304.6" x2="308.0" y2="333.2" stroke="#00e5ff" stroke-width="2" opacity="0.5"/>
<line x1="308.0" y1="333.2" x2="286.3" y2="333.2" stroke="#00e5ff" stroke-width="3" opacity="0.5"/>
<line x1="365.1" y1="304.6" x2="372.0" y2="333.2" stroke="#00e5ff" stroke-width="2" opacity="0.5"/>
<line x1="372.0" y1="333.2" x2="393.7" y2="333.2" stroke="#00e5ff" stroke-width="3" opacity="0.5"/>
<line x1="159.4" y1="478.0" x2="520.6" y2="478.0" stroke="#ff6b35" stroke-width="0.7" marker-start="url(#ar2)" marker-end="url(#ar)"/>
<text x="340.0" y="493.0" text-anchor="middle" font-family="'OpenDyslexic','OpenDyslexic Bold',sans-serif" font-size="9" fill="rgba(255,255,255,0.82)">289mm (11.375")  Canon 170ft beam</text>
<text x="340.0" y="290.0" text-anchor="middle" font-family="'OpenDyslexic','OpenDyslexic Bold',sans-serif" font-size="8" fill="#a3e635">C-to-C 195mm (7.70")</text>
<text x="10" y="494" font-family="'OpenDyslexic Mono','OpenDyslexicMono',monospace" font-size="7" fill="rgba(163,230,53,0.85)">© 2026 Steve Griffing PE(CSE) CISSP-ISSEP CPP CC BY 4.0  Hull: Peter Farell CC BY 4.0  Nozzle: BamJr CC BY 4.0  Fan engineering work</text>
</svg>