<?xml version="1.0" encoding="UTF-8"?>
<!-- Serenity-Class Tiltrotor UAV — Build Guide — Step 13 — Nav Lights -->
<!-- © 2026 Steve Griffing PE(CSE) CISSP-ISSEP CPP  CC BY 4.0 -->
<!-- Hull: Peter Farell CC BY 4.0 | Nozzle: BamJr CC BY 4.0 -->
<!-- Visual: Firefly/Serenity © Joss Whedon/Mutant Enemy/Universal -->
<svg xmlns="http://www.w3.org/2000/svg" viewBox="0 0 1200 900" width="1200" height="900">
<rect width="1200" height="900" fill="#f5f0e8"/>
<rect x="0" y="0" width="1200" height="64" fill="#006db7"/>
<text x="24" y="24" font-family="'Arial','Helvetica',sans-serif" font-weight="bold" font-size="14" fill="#ffffff" letter-spacing="2">SERENITY-CLASS TILTROTOR UAV</text>
<text x="24" y="46" font-family="'Arial','Helvetica',sans-serif" font-size="11" fill="#c8dff0">Steve Griffing, PE(CSE), CISSP-ISSEP, CPP · CC BY 4.0 · 2026</text>
<rect x="1040" y="8" width="144" height="48" rx="6" fill="#ff7518"/>
<text x="1112" y="29" text-anchor="middle" font-family="'Arial','Helvetica',sans-serif" font-weight="bold" font-size="11" fill="#ffffff">STEP</text>
<text x="1112" y="50" text-anchor="middle" font-family="'Arial','Helvetica',sans-serif" font-weight="bold" font-size="22" fill="#ffffff">13 / 18</text>
<rect x="0" y="64" width="1200" height="40" fill="#dde4ea" rx="0"/>
<text x="24" y="90" font-family="'Arial','Helvetica',sans-serif" font-weight="bold" font-size="16" fill="#006db7">PHASE 6 — NAVIGATION LIGHTS</text>
<text x="500" y="90" font-family="'Arial','Helvetica',sans-serif" font-size="12" fill="#607080">ICAO Annex 2 · 14 CFR 91.209 · 6× WS2812C-2020</text>
<rect x="0" y="872" width="1200" height="28" fill="#006db7"/>
<text x="600" y="890" text-anchor="middle" font-family="'Arial','Helvetica',sans-serif" font-size="9" fill="#c8dff0">Hull: Peter Farell CC BY 4.0 · Nozzle: BamJr CC BY 4.0 · Visual inspiration: Firefly/Serenity © Joss Whedon/Mutant Enemy/Universal — Fan engineering work</text>
<rect x="16" y="112" width="720" height="752" rx="8" fill="#fffdf6" stroke="#dde4ea" stroke-width="1.5"/>
<rect x="752" y="112" width="432" height="752" rx="8" fill="#fffdf6" stroke="#dde4ea" stroke-width="1.5"/>
<rect x="760" y="120" width="416" height="114" rx="8" fill="#fffdf6" stroke="#006db7" stroke-width="2"/>
<rect x="760" y="120" width="416" height="28" rx="8" fill="#006db7"/>
<rect x="760" y="136" width="416" height="12" fill="#006db7"/>
<text x="968" y="139" text-anchor="middle" font-family="'Arial','Helvetica',sans-serif" font-weight="bold" font-size="11" fill="#ffffff">PARTS NEEDED</text>
<rect x="768" y="145" width="26" height="16" rx="4" fill="#c62828" stroke="#222222" stroke-width="1"/>
<text x="781" y="158" text-anchor="middle" font-family="'Arial','Helvetica',sans-serif" font-weight="bold" font-size="10" fill="#ffffff">6×</text>
<text x="800" y="158" font-family="'Arial','Helvetica',sans-serif" font-size="10" fill="#222222">WS2812C-2020 RGB LED</text>
<rect x="768" y="167" width="26" height="16" rx="4" fill="#dde4ea" stroke="#222222" stroke-width="1"/>
<text x="781" y="180" text-anchor="middle" font-family="'Arial','Helvetica',sans-serif" font-weight="bold" font-size="10" fill="#ffffff">6×</text>
<text x="800" y="180" font-family="'Arial','Helvetica',sans-serif" font-size="10" fill="#222222">Clear PETG LED lens</text>
<rect x="768" y="189" width="26" height="16" rx="4" fill="#6a1b9a" stroke="#222222" stroke-width="1"/>
<text x="781" y="202" text-anchor="middle" font-family="'Arial','Helvetica',sans-serif" font-weight="bold" font-size="10" fill="#ffffff">1×</text>
<text x="800" y="202" font-family="'Arial','Helvetica',sans-serif" font-size="10" fill="#222222">28AWG 3-core silicone ~1m</text>
<rect x="760" y="242" width="416" height="240" rx="8" fill="#fffdf6" stroke="#607080" stroke-width="1.5"/>
<rect x="760" y="242" width="416" height="28" rx="8" fill="#607080"/>
<rect x="760" y="258" width="416" height="12" fill="#607080"/>
<text x="968" y="261" text-anchor="middle" font-family="'Arial','Helvetica',sans-serif" font-weight="bold" font-size="11" fill="#ffffff">INSTRUCTIONS</text>
<circle cx="776" cy="277" r="9" fill="#006db7"/>
<text x="776" y="281" text-anchor="middle" font-family="'Arial','Helvetica',sans-serif" font-weight="bold" font-size="10" fill="#ffffff">1</text>
<text x="792" y="282" font-family="'Arial','Helvetica',sans-serif" font-size="10" fill="#222222">Solder short leads to each WS2812C-2020 LED (keep polarity consistent)</text>
<circle cx="776" cy="301" r="9" fill="#006db7"/>
<text x="776" y="305" text-anchor="middle" font-family="'Arial','Helvetica',sans-serif" font-weight="bold" font-size="10" fill="#ffffff">2</text>
<text x="792" y="306" font-family="'Arial','Helvetica',sans-serif" font-size="10" fill="#222222">Port nacelle tip cap: press LED into 2×2mm recess → RED colour</text>
<circle cx="776" cy="325" r="9" fill="#006db7"/>
<text x="776" y="329" text-anchor="middle" font-family="'Arial','Helvetica',sans-serif" font-weight="bold" font-size="10" fill="#ffffff">3</text>
<text x="792" y="330" font-family="'Arial','Helvetica',sans-serif" font-size="10" fill="#222222">Stbd nacelle tip cap: press LED into 2×2mm recess → GREEN colour</text>
<circle cx="776" cy="349" r="9" fill="#006db7"/>
<text x="776" y="353" text-anchor="middle" font-family="'Arial','Helvetica',sans-serif" font-weight="bold" font-size="10" fill="#ffffff">4</text>
<text x="792" y="354" font-family="'Arial','Helvetica',sans-serif" font-size="10" fill="#222222">Engine bell aft ring: recess tail LED → WHITE</text>
<circle cx="776" cy="373" r="9" fill="#006db7"/>
<text x="776" y="377" text-anchor="middle" font-family="'Arial','Helvetica',sans-serif" font-weight="bold" font-size="10" fill="#ffffff">5</text>
<text x="792" y="378" font-family="'Arial','Helvetica',sans-serif" font-size="10" fill="#222222">Dorsal hull 120mm: recess anti-collision LED → RED flash 60 FPM</text>
<circle cx="776" cy="397" r="9" fill="#006db7"/>
<text x="776" y="401" text-anchor="middle" font-family="'Arial','Helvetica',sans-serif" font-weight="bold" font-size="10" fill="#ffffff">6</text>
<text x="792" y="402" font-family="'Arial','Helvetica',sans-serif" font-size="10" fill="#222222">Belly hull 160mm: recess strobe LED → WHITE flash 60 FPM</text>
<circle cx="776" cy="421" r="9" fill="#006db7"/>
<text x="776" y="425" text-anchor="middle" font-family="'Arial','Helvetica',sans-serif" font-weight="bold" font-size="10" fill="#ffffff">7</text>
<text x="792" y="426" font-family="'Arial','Helvetica',sans-serif" font-size="10" fill="#222222">Nose underside 30mm: recess landing light → WHITE (ops only)</text>
<circle cx="776" cy="445" r="9" fill="#006db7"/>
<text x="776" y="449" text-anchor="middle" font-family="'Arial','Helvetica',sans-serif" font-weight="bold" font-size="10" fill="#ffffff">8</text>
<text x="792" y="450" font-family="'Arial','Helvetica',sans-serif" font-size="10" fill="#222222">Daisy-chain 28AWG 3-core: Port→Stbd→Tail→Dorsal→Belly→Pico GP26</text>
<rect x="760" y="494" width="416" height="36" rx="6" fill="#fffac0" stroke="#ff7518" stroke-width="2"/><text x="778" y="509" font-family="'Arial','Helvetica',sans-serif" font-weight="bold" font-size="14" fill="#ff7518">⚠</text><text x="796" y="516" font-family="'Arial','Helvetica',sans-serif" font-size="10" fill="#222222">ICAO: Port MUST be RED, Starboard MUST be GREEN — do not swap</text>
<rect x="760" y="538" width="416" height="32" rx="6" fill="#b2ebf2" stroke="#00838f" stroke-width="1.5"/><text x="770" y="552" font-family="'Arial','Helvetica',sans-serif" font-weight="bold" font-size="10" fill="#00838f">ℹ</text><text x="786" y="558" font-family="'Arial','Helvetica',sans-serif" font-size="9.5" fill="#222222">Epoxy a micro drop over each LED for moisture protection</text>
<polygon points="96,488 112,470 140,452 162,451 186,446 201,446 220,448 238,452 261,459 285,470 304,464 325,459 370,466 370,502 325,507 304,504 285,500 261,507 238,511 220,514 201,515 186,515 162,512 140,511 112,500 96,488" fill="rgba(0,80,150,0.1)" stroke="#006db7" stroke-width="1.5"/>
<line x1="192" y1="456" x2="216" y2="328" stroke="#006db7" stroke-width="2.5"/>
<ellipse cx="212" cy="328" rx="28" ry="12" fill="rgba(255,150,80,0.15)" stroke="#ff7518" stroke-width="1.5"/>
<circle cx="198" cy="328" r="7" fill="#c62828" opacity="0.95"/>
<text x="198" y="348" text-anchor="middle" font-family="'Arial','Helvetica',sans-serif" font-weight="bold" font-size="8" fill="#c62828">PORT ●</text>
<line x1="192" y1="520" x2="216" y2="648" stroke="#006db7" stroke-width="2.5"/>
<ellipse cx="212" cy="648" rx="28" ry="12" fill="rgba(255,150,80,0.15)" stroke="#ff7518" stroke-width="1.5"/>
<circle cx="198" cy="648" r="7" fill="#00cc00" opacity="0.95"/>
<text x="198" y="668" text-anchor="middle" font-family="'Arial','Helvetica',sans-serif" font-weight="bold" font-size="8" fill="#00cc00">STBD ●</text>
<circle cx="362" cy="488" r="7" fill="white" stroke="#607080" stroke-width="1"/>
<text x="378" y="492" font-family="'Arial','Helvetica',sans-serif" font-weight="bold" font-size="8" fill="white">TAIL ●</text>
<circle cx="186" cy="488" r="7" fill="#c62828" opacity="0.9"/>
<text x="186" y="474" text-anchor="middle" font-family="'Arial','Helvetica',sans-serif" font-weight="bold" font-size="7" fill="#c62828">ACOL◆</text>
<circle cx="216" cy="488" r="5" fill="rgba(255,255,200,0.9)" stroke="#ffffaa" stroke-width="1"/>
<text x="216" y="504" text-anchor="middle" font-family="'Arial','Helvetica',sans-serif" font-size="7" fill="#ffffaa">BELLY◆</text>
<rect x="112" y="480" width="15" height="15" rx="2" fill="rgba(255,255,120,0.25)" stroke="#ffff80" stroke-width="1.5"/>
<text x="118" y="476" text-anchor="middle" font-family="'Arial','Helvetica',sans-serif" font-size="7" fill="#ffff80">LAND</text>
<polyline points="200,328 212,648 362,488 186,488 216,488" fill="none" stroke="#6a1b9a" stroke-width="2.5" stroke-dasharray="6 3"/>
<text x="496" y="408" font-family="'Arial','Helvetica',sans-serif" font-weight="bold" font-size="9" fill="#6a1b9a">28AWG 3-core chain</text>
<text x="496" y="422" font-family="'Arial','Helvetica',sans-serif" font-size="8" fill="#607080">Port → Stbd → Tail → Dorsal → Belly</text>
<rect x="156" y="498" width="70" height="24" rx="4" fill="#006db7" opacity="0.8"/>
<text x="182" y="513" text-anchor="middle" font-family="'Arial','Helvetica',sans-serif" font-weight="bold" font-size="8" fill="#ffffff">GP26 PIO0</text>
</svg>
