<?xml version="1.0" encoding="UTF-8"?>
<!-- Serenity-Class Tiltrotor UAV — Build Guide — Step 02 — Print Hull -->
<!-- © 2026 Steve Griffing PE(CSE) CISSP-ISSEP CPP  CC BY 4.0 -->
<!-- Hull: Peter Farell CC BY 4.0 | Nozzle: BamJr CC BY 4.0 -->
<!-- Visual: Firefly/Serenity © Joss Whedon/Mutant Enemy/Universal -->
<svg xmlns="http://www.w3.org/2000/svg" viewBox="0 0 1200 900" width="1200" height="900">
<rect width="1200" height="900" fill="#f5f0e8"/>
<rect x="0" y="0" width="1200" height="64" fill="#006db7"/>
<text x="24" y="24" font-family="'Arial','Helvetica',sans-serif" font-weight="bold" font-size="14" fill="#ffffff" letter-spacing="2">SERENITY-CLASS TILTROTOR UAV</text>
<text x="24" y="46" font-family="'Arial','Helvetica',sans-serif" font-size="11" fill="#c8dff0">Steve Griffing, PE(CSE), CISSP-ISSEP, CPP · CC BY 4.0 · 2026</text>
<rect x="1040" y="8" width="144" height="48" rx="6" fill="#ff7518"/>
<text x="1112" y="29" text-anchor="middle" font-family="'Arial','Helvetica',sans-serif" font-weight="bold" font-size="11" fill="#ffffff">STEP</text>
<text x="1112" y="50" text-anchor="middle" font-family="'Arial','Helvetica',sans-serif" font-weight="bold" font-size="22" fill="#ffffff">2 / 18</text>
<rect x="0" y="64" width="1200" height="40" fill="#dde4ea" rx="0"/>
<text x="24" y="90" font-family="'Arial','Helvetica',sans-serif" font-weight="bold" font-size="16" fill="#006db7">PHASE 1 — PRINT HULL SECTIONS</text>
<text x="500" y="90" font-family="'Arial','Helvetica',sans-serif" font-size="12" fill="#607080">PETG · 0.20mm layer · 8% gyroid · 1.5mm walls</text>
<rect x="0" y="872" width="1200" height="28" fill="#006db7"/>
<text x="600" y="890" text-anchor="middle" font-family="'Arial','Helvetica',sans-serif" font-size="9" fill="#c8dff0">Hull: Peter Farell CC BY 4.0 · Nozzle: BamJr CC BY 4.0 · Visual inspiration: Firefly/Serenity © Joss Whedon/Mutant Enemy/Universal — Fan engineering work</text>
<rect x="16" y="112" width="720" height="752" rx="8" fill="#fffdf6" stroke="#dde4ea" stroke-width="1.5"/>
<rect x="752" y="112" width="432" height="752" rx="8" fill="#fffdf6" stroke="#dde4ea" stroke-width="1.5"/>
<rect x="760" y="120" width="416" height="92" rx="8" fill="#fffdf6" stroke="#006db7" stroke-width="2"/>
<rect x="760" y="120" width="416" height="28" rx="8" fill="#006db7"/>
<rect x="760" y="136" width="416" height="12" fill="#006db7"/>
<text x="968" y="139" text-anchor="middle" font-family="'Arial','Helvetica',sans-serif" font-weight="bold" font-size="11" fill="#ffffff">PARTS NEEDED</text>
<rect x="768" y="145" width="26" height="16" rx="4" fill="#2e7d32" stroke="#222222" stroke-width="1"/>
<text x="781" y="158" text-anchor="middle" font-family="'Arial','Helvetica',sans-serif" font-weight="bold" font-size="10" fill="#ffffff">6×</text>
<text x="800" y="158" font-family="'Arial','Helvetica',sans-serif" font-size="10" fill="#222222">Hull STL sections</text>
<rect x="768" y="167" width="26" height="16" rx="4" fill="#607080" stroke="#222222" stroke-width="1"/>
<text x="781" y="180" text-anchor="middle" font-family="'Arial','Helvetica',sans-serif" font-weight="bold" font-size="10" fill="#ffffff">1×</text>
<text x="800" y="180" font-family="'Arial','Helvetica',sans-serif" font-size="10" fill="#222222">PETG filament (250g)</text>
<rect x="760" y="220" width="416" height="192" rx="8" fill="#fffdf6" stroke="#607080" stroke-width="1.5"/>
<rect x="760" y="220" width="416" height="28" rx="8" fill="#607080"/>
<rect x="760" y="236" width="416" height="12" fill="#607080"/>
<text x="968" y="239" text-anchor="middle" font-family="'Arial','Helvetica',sans-serif" font-weight="bold" font-size="11" fill="#ffffff">INSTRUCTIONS</text>
<circle cx="776" cy="255" r="9" fill="#006db7"/>
<text x="776" y="259" text-anchor="middle" font-family="'Arial','Helvetica',sans-serif" font-weight="bold" font-size="10" fill="#ffffff">1</text>
<text x="792" y="260" font-family="'Arial','Helvetica',sans-serif" font-size="10" fill="#222222">Slice each hull section: 8% gyroid, 2 perimeters, 0.20mm</text>
<circle cx="776" cy="279" r="9" fill="#006db7"/>
<text x="776" y="283" text-anchor="middle" font-family="'Arial','Helvetica',sans-serif" font-weight="bold" font-size="10" fill="#ffffff">2</text>
<text x="792" y="284" font-family="'Arial','Helvetica',sans-serif" font-size="10" fill="#222222">Enable seam alignment to dorsal ridge</text>
<circle cx="776" cy="303" r="9" fill="#006db7"/>
<text x="776" y="307" text-anchor="middle" font-family="'Arial','Helvetica',sans-serif" font-weight="bold" font-size="10" fill="#ffffff">3</text>
<text x="792" y="308" font-family="'Arial','Helvetica',sans-serif" font-size="10" fill="#222222">Print cockpit cap + section (nose-down for best results)</text>
<circle cx="776" cy="327" r="9" fill="#006db7"/>
<text x="776" y="331" text-anchor="middle" font-family="'Arial','Helvetica',sans-serif" font-weight="bold" font-size="10" fill="#ffffff">4</text>
<text x="792" y="332" font-family="'Arial','Helvetica',sans-serif" font-size="10" fill="#222222">Print mid-hull as LEFT + RIGHT halves (centreline split)</text>
<circle cx="776" cy="351" r="9" fill="#006db7"/>
<text x="776" y="355" text-anchor="middle" font-family="'Arial','Helvetica',sans-serif" font-weight="bold" font-size="10" fill="#ffffff">5</text>
<text x="792" y="356" font-family="'Arial','Helvetica',sans-serif" font-size="10" fill="#222222">Print aft neck vertically for best strength at thin section</text>
<circle cx="776" cy="375" r="9" fill="#006db7"/>
<text x="776" y="379" text-anchor="middle" font-family="'Arial','Helvetica',sans-serif" font-weight="bold" font-size="10" fill="#ffffff">6</text>
<text x="792" y="380" font-family="'Arial','Helvetica',sans-serif" font-size="10" fill="#222222">Print engine bell: 3 walls, 20% infill (airtight duct)</text>
<rect x="760" y="424" width="416" height="36" rx="6" fill="#fffac0" stroke="#ff7518" stroke-width="2"/><text x="778" y="439" font-family="'Arial','Helvetica',sans-serif" font-weight="bold" font-size="14" fill="#ff7518">⚠</text><text x="796" y="446" font-family="'Arial','Helvetica',sans-serif" font-size="10" fill="#222222">DO NOT bond cockpit cap or engine bell yet — must remain removable</text>
<rect x="760" y="468" width="416" height="32" rx="6" fill="#b2ebf2" stroke="#00838f" stroke-width="1.5"/><text x="770" y="482" font-family="'Arial','Helvetica',sans-serif" font-weight="bold" font-size="10" fill="#00838f">ℹ</text><text x="786" y="488" font-family="'Arial','Helvetica',sans-serif" font-size="9.5" fill="#222222">~148g total printed hull mass · run overnight jobs</text>
<polygon points="96.0,386.0 166.1,345.5 123.3,320.8 53.1,361.2"   fill="#e8f5e9"   stroke="#c8e6c9" stroke-width="2" stroke-linejoin="round"/>
<polygon points="96.0,368.0 166.1,327.5 166.1,345.5 96.0,386.0" fill="#e8f5e9" stroke="#c8e6c9" stroke-width="2" stroke-linejoin="round"/>
<polygon points="166.1,327.5 123.3,302.8 123.3,320.8 166.1,345.5" fill="#e8f5e9" stroke="#c8e6c9" stroke-width="2" stroke-linejoin="round"/>
<text x="136" y="448" text-anchor="middle" font-family="'Arial','Helvetica',sans-serif" font-weight="bold" font-size="9" fill="#222222">Cockpit Cap</text>
<text x="136" y="461" text-anchor="middle" font-family="'Arial','Helvetica',sans-serif" font-size="8" fill="#607080">PETG · 8% gyroid</text>
<polygon points="96.0,496.0 166.1,455.5 123.3,430.8 53.1,471.2"   fill="#e8f5e9"   stroke="#2e7d32" stroke-width="2" stroke-linejoin="round"/>
<polygon points="96.0,478.0 166.1,437.5 166.1,455.5 96.0,496.0" fill="#e8f5e9" stroke="#2e7d32" stroke-width="2" stroke-linejoin="round"/>
<polygon points="166.1,437.5 123.3,412.8 123.3,430.8 166.1,455.5" fill="#e8f5e9" stroke="#2e7d32" stroke-width="2" stroke-linejoin="round"/>
<text x="136" y="558" text-anchor="middle" font-family="'Arial','Helvetica',sans-serif" font-weight="bold" font-size="9" fill="#222222">Cockpit Section</text>
<text x="136" y="571" text-anchor="middle" font-family="'Arial','Helvetica',sans-serif" font-size="8" fill="#607080">PETG · 8% gyroid</text>
<polygon points="96.0,606.0 166.1,565.5 123.3,540.8 53.1,581.2"   fill="#e3f2fd"   stroke="#006db7" stroke-width="2" stroke-linejoin="round"/>
<polygon points="96.0,588.0 166.1,547.5 166.1,565.5 96.0,606.0" fill="#e3f2fd" stroke="#006db7" stroke-width="2" stroke-linejoin="round"/>
<polygon points="166.1,547.5 123.3,522.8 123.3,540.8 166.1,565.5" fill="#e3f2fd" stroke="#006db7" stroke-width="2" stroke-linejoin="round"/>
<text x="136" y="668" text-anchor="middle" font-family="'Arial','Helvetica',sans-serif" font-weight="bold" font-size="9" fill="#222222">Mid Hull L</text>
<text x="136" y="681" text-anchor="middle" font-family="'Arial','Helvetica',sans-serif" font-size="8" fill="#607080">PETG · 8% gyroid</text>
<polygon points="316.0,386.0 386.1,345.5 343.3,320.8 273.1,361.2"   fill="#e3f2fd"   stroke="#006db7" stroke-width="2" stroke-linejoin="round"/>
<polygon points="316.0,368.0 386.1,327.5 386.1,345.5 316.0,386.0" fill="#e3f2fd" stroke="#006db7" stroke-width="2" stroke-linejoin="round"/>
<polygon points="386.1,327.5 343.3,302.8 343.3,320.8 386.1,345.5" fill="#e3f2fd" stroke="#006db7" stroke-width="2" stroke-linejoin="round"/>
<text x="356" y="448" text-anchor="middle" font-family="'Arial','Helvetica',sans-serif" font-weight="bold" font-size="9" fill="#222222">Mid Hull R</text>
<text x="356" y="461" text-anchor="middle" font-family="'Arial','Helvetica',sans-serif" font-size="8" fill="#607080">PETG · 8% gyroid</text>
<polygon points="316.0,496.0 386.1,455.5 343.3,430.8 273.1,471.2"   fill="#fff8e1"   stroke="#f5c518" stroke-width="2" stroke-linejoin="round"/>
<polygon points="316.0,478.0 386.1,437.5 386.1,455.5 316.0,496.0" fill="#fff8e1" stroke="#f5c518" stroke-width="2" stroke-linejoin="round"/>
<polygon points="386.1,437.5 343.3,412.8 343.3,430.8 386.1,455.5" fill="#fff8e1" stroke="#f5c518" stroke-width="2" stroke-linejoin="round"/>
<text x="356" y="558" text-anchor="middle" font-family="'Arial','Helvetica',sans-serif" font-weight="bold" font-size="9" fill="#222222">Aft Neck</text>
<text x="356" y="571" text-anchor="middle" font-family="'Arial','Helvetica',sans-serif" font-size="8" fill="#607080">PETG · 8% gyroid</text>
<polygon points="316.0,606.0 386.1,565.5 343.3,540.8 273.1,581.2"   fill="#fff3e0"   stroke="#ff7518" stroke-width="2" stroke-linejoin="round"/>
<polygon points="316.0,588.0 386.1,547.5 386.1,565.5 316.0,606.0" fill="#fff3e0" stroke="#ff7518" stroke-width="2" stroke-linejoin="round"/>
<polygon points="386.1,547.5 343.3,522.8 343.3,540.8 386.1,565.5" fill="#fff3e0" stroke="#ff7518" stroke-width="2" stroke-linejoin="round"/>
<text x="356" y="668" text-anchor="middle" font-family="'Arial','Helvetica',sans-serif" font-weight="bold" font-size="9" fill="#222222">Engine Bell</text>
<text x="356" y="681" text-anchor="middle" font-family="'Arial','Helvetica',sans-serif" font-size="8" fill="#607080">PETG · 8% gyroid</text>
<line x1="496.0" y1="488.0" x2="561.0" y2="488.0" stroke="#ff7518" stroke-width="3" stroke-dasharray="8 4"/><polygon points="561.0,488.0 549.9,492.7 549.9,483.3" fill="#ff7518"/>
<polygon points="556,488 572,469 600,450 622,448 644,443 660,443 677,445 694,450 721,469 738,453 765,458 798,464 798,503 765,507 738,510 721,500 694,512 677,515 660,516 644,516 622,513 600,512 572,500 556,488" fill="rgba(100,180,100,0.25)" stroke="#2e7d32" stroke-width="2.5"/>
<text x="676" y="548" text-anchor="middle" font-family="'Arial','Helvetica',sans-serif" font-weight="bold" font-size="11" fill="#2e7d32">Hull outline (assembled)</text>
</svg>
