%TF.GenerationSoftware,KiCad,Pcbnew,9.0.2+dfsg-1*%
%TF.CreationDate,2026-07-28T10:16:54-04:00*%
%TF.ProjectId,Jayne,4a61796e-652e-46b6-9963-61645f706362,-*%
%TF.SameCoordinates,Original*%
%TF.FileFunction,Copper,L4,Bot*%
%TF.FilePolarity,Positive*%
%FSLAX46Y46*%
G04 Gerber Fmt 4.6, Leading zero omitted, Abs format (unit mm)*
G04 Created by KiCad (PCBNEW 9.0.2+dfsg-1) date 2026-07-28 10:16:54*
%MOMM*%
%LPD*%
G01*
G04 APERTURE LIST*
G04 Aperture macros list*
%AMRoundRect*
0 Rectangle with rounded corners*
0 $1 Rounding radius*
0 $2 $3 $4 $5 $6 $7 $8 $9 X,Y pos of 4 corners*
0 Add a 4 corners polygon primitive as box body*
4,1,4,$2,$3,$4,$5,$6,$7,$8,$9,$2,$3,0*
0 Add four circle primitives for the rounded corners*
1,1,$1+$1,$2,$3*
1,1,$1+$1,$4,$5*
1,1,$1+$1,$6,$7*
1,1,$1+$1,$8,$9*
0 Add four rect primitives between the rounded corners*
20,1,$1+$1,$2,$3,$4,$5,0*
20,1,$1+$1,$4,$5,$6,$7,0*
20,1,$1+$1,$6,$7,$8,$9,0*
20,1,$1+$1,$8,$9,$2,$3,0*%
G04 Aperture macros list end*
%TA.AperFunction,SMDPad,CuDef*%
%ADD10RoundRect,0.150000X0.150000X0.700000X-0.150000X0.700000X-0.150000X-0.700000X0.150000X-0.700000X0*%
%TD*%
%TA.AperFunction,SMDPad,CuDef*%
%ADD11RoundRect,0.250000X0.250000X1.150000X-0.250000X1.150000X-0.250000X-1.150000X0.250000X-1.150000X0*%
%TD*%
%TA.AperFunction,SMDPad,CuDef*%
%ADD12RoundRect,0.250000X0.650000X0.250000X-0.650000X0.250000X-0.650000X-0.250000X0.650000X-0.250000X0*%
%TD*%
%TA.AperFunction,SMDPad,CuDef*%
%ADD13RoundRect,0.076250X0.076250X-0.598750X0.076250X0.598750X-0.076250X0.598750X-0.076250X-0.598750X0*%
%TD*%
%TA.AperFunction,SMDPad,CuDef*%
%ADD14RoundRect,0.250000X-0.650000X-0.250000X0.650000X-0.250000X0.650000X0.250000X-0.650000X0.250000X0*%
%TD*%
G04 APERTURE END LIST*
D10*
%TO.P,J_RS485_OUT,1*%
%TO.N,RS485_A*%
X183750000Y-132950000D03*
%TO.P,J_RS485_OUT,2*%
%TO.N,RS485_B*%
X182500000Y-132950000D03*
%TO.P,J_RS485_OUT,3*%
%TO.N,ISO_GND_485*%
X181250000Y-132950000D03*
D11*
%TO.P,J_RS485_OUT,MP*%
%TO.N,N/C*%
X185600000Y-129600000D03*
X179400000Y-129600000D03*
%TD*%
D10*
%TO.P,J_RS485_IN,1*%
%TO.N,RS485_A*%
X183750000Y-173450000D03*
%TO.P,J_RS485_IN,2*%
%TO.N,RS485_B*%
X182500000Y-173450000D03*
%TO.P,J_RS485_IN,3*%
%TO.N,ISO_GND_485*%
X181250000Y-173450000D03*
D11*
%TO.P,J_RS485_IN,MP*%
%TO.N,N/C*%
X185600000Y-170100000D03*
X179400000Y-170100000D03*
%TD*%
D12*
%TO.P,T2,1*%
%TO.N,ETH_OUT_KSZ_TXP*%
X234000000Y-142690000D03*
%TO.P,T2,2*%
%TO.N,ETH_OUT_KSZ_TXN*%
X234000000Y-145230000D03*
%TO.P,T2,3*%
%TO.N,ETH_OUT_KSZ_RXP*%
X234000000Y-147770000D03*
%TO.P,T2,4*%
%TO.N,ETH_OUT_KSZ_RXN*%
X234000000Y-150310000D03*
%TO.P,T2,5*%
%TO.N,ETH_OUT_LTXP*%
X224000000Y-150310000D03*
%TO.P,T2,6*%
%TO.N,ETH_OUT_LTXN*%
X224000000Y-147770000D03*
%TO.P,T2,7*%
%TO.N,ETH_OUT_LRXP*%
X224000000Y-145230000D03*
%TO.P,T2,8*%
%TO.N,ETH_OUT_LRXN*%
X224000000Y-142690000D03*
%TD*%
D13*
%TO.P,U_SOM,A1*%
%TO.N,+5V*%
X214750000Y-138807000D03*
%TO.P,U_SOM,A2*%
X214250000Y-138807000D03*
%TO.P,U_SOM,A3*%
X213750000Y-138807000D03*
%TO.P,U_SOM,A4*%
%TO.N,GND*%
X213250000Y-138807000D03*
%TO.P,U_SOM,A5*%
%TO.N,N/C*%
X212750000Y-138807000D03*
%TO.P,U_SOM,A6*%
X212250000Y-138807000D03*
%TO.P,U_SOM,A7*%
X211750000Y-138807000D03*
%TO.P,U_SOM,A8*%
X211250000Y-138807000D03*
%TO.P,U_SOM,A9*%
%TO.N,GND*%
X210750000Y-138807000D03*
%TO.P,U_SOM,A10*%
%TO.N,N/C*%
X210250000Y-138807000D03*
%TO.P,U_SOM,A11*%
X209750000Y-138807000D03*
%TO.P,U_SOM,A12*%
X209250000Y-138807000D03*
%TO.P,U_SOM,A13*%
X208750000Y-138807000D03*
%TO.P,U_SOM,A14*%
%TO.N,GND*%
X208250000Y-138807000D03*
%TO.P,U_SOM,A15*%
%TO.N,N/C*%
X207750000Y-138807000D03*
%TO.P,U_SOM,A16*%
X207250000Y-138807000D03*
%TO.P,U_SOM,A17*%
%TO.N,RGMII_K2S_CTL*%
X206750000Y-138807000D03*
%TO.P,U_SOM,A18*%
%TO.N,RGMII_K2S_C*%
X206250000Y-138807000D03*
%TO.P,U_SOM,A19*%
%TO.N,GND*%
X205750000Y-138807000D03*
%TO.P,U_SOM,A20*%
%TO.N,RGMII_K2S_D3*%
X205250000Y-138807000D03*
%TO.P,U_SOM,A21*%
%TO.N,RGMII_K2S_D2*%
X204750000Y-138807000D03*
%TO.P,U_SOM,A22*%
%TO.N,RGMII_K2S_D1*%
X204250000Y-138807000D03*
%TO.P,U_SOM,A23*%
%TO.N,RGMII_K2S_D0*%
X203750000Y-138807000D03*
%TO.P,U_SOM,A24*%
%TO.N,GND*%
X203250000Y-138807000D03*
%TO.P,U_SOM,A25*%
%TO.N,RGMII_S2K_C*%
X202750000Y-138807000D03*
%TO.P,U_SOM,A26*%
%TO.N,RGMII_S2K_CTL*%
X202250000Y-138807000D03*
%TO.P,U_SOM,A27*%
%TO.N,RGMII_S2K_D0*%
X201750000Y-138807000D03*
%TO.P,U_SOM,A28*%
%TO.N,RGMII_S2K_D1*%
X201250000Y-138807000D03*
%TO.P,U_SOM,A29*%
%TO.N,GND*%
X200750000Y-138807000D03*
%TO.P,U_SOM,A30*%
%TO.N,RGMII_S2K_D2*%
X200250000Y-138807000D03*
%TO.P,U_SOM,A31*%
%TO.N,RGMII_S2K_D3*%
X199750000Y-138807000D03*
%TO.P,U_SOM,A32*%
%TO.N,GND*%
X199250000Y-138807000D03*
%TO.P,U_SOM,A33*%
%TO.N,N/C*%
X198750000Y-138807000D03*
%TO.P,U_SOM,A34*%
X198250000Y-138807000D03*
%TO.P,U_SOM,A35*%
%TO.N,CSI_D0_P*%
X197750000Y-138807000D03*
%TO.P,U_SOM,A36*%
%TO.N,CSI_D0_N*%
X197250000Y-138807000D03*
%TO.P,U_SOM,A37*%
%TO.N,GND*%
X196750000Y-138807000D03*
%TO.P,U_SOM,A38*%
%TO.N,N/C*%
X196250000Y-138807000D03*
%TO.P,U_SOM,A39*%
X195750000Y-138807000D03*
%TO.P,U_SOM,A40*%
X195250000Y-138807000D03*
%TO.P,U_SOM,A41*%
X194750000Y-138807000D03*
%TO.P,U_SOM,A42*%
%TO.N,GND*%
X194250000Y-138807000D03*
%TO.P,U_SOM,A43*%
%TO.N,N/C*%
X193750000Y-138807000D03*
%TO.P,U_SOM,A44*%
X193250000Y-138807000D03*
%TO.P,U_SOM,A45*%
%TO.N,GND*%
X192750000Y-138807000D03*
%TO.P,U_SOM,A46*%
%TO.N,N/C*%
X192250000Y-138807000D03*
%TO.P,U_SOM,A47*%
X191750000Y-138807000D03*
%TO.P,U_SOM,A48*%
X191250000Y-138807000D03*
%TO.P,U_SOM,A49*%
X190750000Y-138807000D03*
%TO.P,U_SOM,A50*%
%TO.N,GND*%
X190250000Y-138807000D03*
%TO.P,U_SOM,A51*%
%TO.N,N/C*%
X189750000Y-138807000D03*
%TO.P,U_SOM,A52*%
X189250000Y-138807000D03*
%TO.P,U_SOM,A53*%
X188750000Y-138807000D03*
%TO.P,U_SOM,A54*%
X188250000Y-138807000D03*
%TO.P,U_SOM,A55*%
%TO.N,GND*%
X187750000Y-138807000D03*
%TO.P,U_SOM,A56*%
%TO.N,CAM_RESET_N*%
X187250000Y-138807000D03*
%TO.P,U_SOM,A57*%
%TO.N,N/C*%
X186750000Y-138807000D03*
%TO.P,U_SOM,A58*%
X186250000Y-138807000D03*
%TO.P,U_SOM,A59*%
X185750000Y-138807000D03*
%TO.P,U_SOM,A60*%
X185250000Y-138807000D03*
%TO.P,U_SOM,B1*%
%TO.N,+3V3*%
X214750000Y-140793000D03*
%TO.P,U_SOM,B2*%
X214250000Y-140793000D03*
%TO.P,U_SOM,B3*%
%TO.N,GND*%
X213750000Y-140793000D03*
%TO.P,U_SOM,B4*%
%TO.N,N/C*%
X213250000Y-140793000D03*
%TO.P,U_SOM,B5*%
X212750000Y-140793000D03*
%TO.P,U_SOM,B6*%
X212250000Y-140793000D03*
%TO.P,U_SOM,B7*%
X211750000Y-140793000D03*
%TO.P,U_SOM,B8*%
%TO.N,GND*%
X211250000Y-140793000D03*
%TO.P,U_SOM,B9*%
%TO.N,N/C*%
X210750000Y-140793000D03*
%TO.P,U_SOM,B10*%
X210250000Y-140793000D03*
%TO.P,U_SOM,B11*%
X209750000Y-140793000D03*
%TO.P,U_SOM,B12*%
X209250000Y-140793000D03*
%TO.P,U_SOM,B13*%
%TO.N,GND*%
X208750000Y-140793000D03*
%TO.P,U_SOM,B14*%
%TO.N,N/C*%
X208250000Y-140793000D03*
%TO.P,U_SOM,B15*%
X207750000Y-140793000D03*
%TO.P,U_SOM,B16*%
X207250000Y-140793000D03*
%TO.P,U_SOM,B17*%
X206750000Y-140793000D03*
%TO.P,U_SOM,B18*%
%TO.N,GND*%
X206250000Y-140793000D03*
%TO.P,U_SOM,B19*%
%TO.N,N/C*%
X205750000Y-140793000D03*
%TO.P,U_SOM,B20*%
X205250000Y-140793000D03*
%TO.P,U_SOM,B21*%
X204750000Y-140793000D03*
%TO.P,U_SOM,B22*%
X204250000Y-140793000D03*
%TO.P,U_SOM,B23*%
%TO.N,GND*%
X203750000Y-140793000D03*
%TO.P,U_SOM,B24*%
%TO.N,N/C*%
X203250000Y-140793000D03*
%TO.P,U_SOM,B25*%
X202750000Y-140793000D03*
%TO.P,U_SOM,B26*%
X202250000Y-140793000D03*
%TO.P,U_SOM,B27*%
X201750000Y-140793000D03*
%TO.P,U_SOM,B28*%
%TO.N,GND*%
X201250000Y-140793000D03*
%TO.P,U_SOM,B29*%
%TO.N,N/C*%
X200750000Y-140793000D03*
%TO.P,U_SOM,B30*%
X200250000Y-140793000D03*
%TO.P,U_SOM,B31*%
%TO.N,CSI_CLK_P*%
X199750000Y-140793000D03*
%TO.P,U_SOM,B32*%
%TO.N,CSI_CLK_N*%
X199250000Y-140793000D03*
%TO.P,U_SOM,B33*%
%TO.N,GND*%
X198750000Y-140793000D03*
%TO.P,U_SOM,B34*%
%TO.N,N/C*%
X198250000Y-140793000D03*
%TO.P,U_SOM,B35*%
X197750000Y-140793000D03*
%TO.P,U_SOM,B36*%
X197250000Y-140793000D03*
%TO.P,U_SOM,B37*%
X196750000Y-140793000D03*
%TO.P,U_SOM,B38*%
%TO.N,GND*%
X196250000Y-140793000D03*
%TO.P,U_SOM,B39*%
%TO.N,N/C*%
X195750000Y-140793000D03*
%TO.P,U_SOM,B40*%
X195250000Y-140793000D03*
%TO.P,U_SOM,B41*%
X194750000Y-140793000D03*
%TO.P,U_SOM,B42*%
X194250000Y-140793000D03*
%TO.P,U_SOM,B43*%
%TO.N,GND*%
X193750000Y-140793000D03*
%TO.P,U_SOM,B44*%
%TO.N,N/C*%
X193250000Y-140793000D03*
%TO.P,U_SOM,B45*%
X192750000Y-140793000D03*
%TO.P,U_SOM,B46*%
X192250000Y-140793000D03*
%TO.P,U_SOM,B47*%
X191750000Y-140793000D03*
%TO.P,U_SOM,B48*%
%TO.N,GND*%
X191250000Y-140793000D03*
%TO.P,U_SOM,B49*%
%TO.N,N/C*%
X190750000Y-140793000D03*
%TO.P,U_SOM,B50*%
X190250000Y-140793000D03*
%TO.P,U_SOM,B51*%
X189750000Y-140793000D03*
%TO.P,U_SOM,B52*%
X189250000Y-140793000D03*
%TO.P,U_SOM,B53*%
%TO.N,GND*%
X188750000Y-140793000D03*
%TO.P,U_SOM,B54*%
%TO.N,N/C*%
X188250000Y-140793000D03*
%TO.P,U_SOM,B55*%
X187750000Y-140793000D03*
%TO.P,U_SOM,B56*%
%TO.N,GND*%
X187250000Y-140793000D03*
%TO.P,U_SOM,B57*%
%TO.N,N/C*%
X186750000Y-140793000D03*
%TO.P,U_SOM,B58*%
X186250000Y-140793000D03*
%TO.P,U_SOM,B59*%
X185750000Y-140793000D03*
%TO.P,U_SOM,B60*%
%TO.N,GND*%
X185250000Y-140793000D03*
%TO.P,U_SOM,C1*%
%TO.N,N/C*%
X214750000Y-161207000D03*
%TO.P,U_SOM,C2*%
X214250000Y-161207000D03*
%TO.P,U_SOM,C3*%
X213750000Y-161207000D03*
%TO.P,U_SOM,C4*%
X213250000Y-161207000D03*
%TO.P,U_SOM,C5*%
X212750000Y-161207000D03*
%TO.P,U_SOM,C6*%
%TO.N,GND*%
X212250000Y-161207000D03*
%TO.P,U_SOM,C7*%
%TO.N,N/C*%
X211750000Y-161207000D03*
%TO.P,U_SOM,C8*%
X211250000Y-161207000D03*
%TO.P,U_SOM,C9*%
X210750000Y-161207000D03*
%TO.P,U_SOM,C10*%
X210250000Y-161207000D03*
%TO.P,U_SOM,C11*%
X209750000Y-161207000D03*
%TO.P,U_SOM,C12*%
%TO.N,GND*%
X209250000Y-161207000D03*
%TO.P,U_SOM,C13*%
%TO.N,N/C*%
X208750000Y-161207000D03*
%TO.P,U_SOM,C14*%
X208250000Y-161207000D03*
%TO.P,U_SOM,C15*%
X207750000Y-161207000D03*
%TO.P,U_SOM,C16*%
X207250000Y-161207000D03*
%TO.P,U_SOM,C17*%
X206750000Y-161207000D03*
%TO.P,U_SOM,C18*%
X206250000Y-161207000D03*
%TO.P,U_SOM,C19*%
%TO.N,GND*%
X205750000Y-161207000D03*
%TO.P,U_SOM,C20*%
%TO.N,N/C*%
X205250000Y-161207000D03*
%TO.P,U_SOM,C21*%
X204750000Y-161207000D03*
%TO.P,U_SOM,C22*%
X204250000Y-161207000D03*
%TO.P,U_SOM,C23*%
X203750000Y-161207000D03*
%TO.P,U_SOM,C24*%
%TO.N,GND*%
X203250000Y-161207000D03*
%TO.P,U_SOM,C25*%
%TO.N,N/C*%
X202750000Y-161207000D03*
%TO.P,U_SOM,C26*%
X202250000Y-161207000D03*
%TO.P,U_SOM,C27*%
X201750000Y-161207000D03*
%TO.P,U_SOM,C28*%
X201250000Y-161207000D03*
%TO.P,U_SOM,C29*%
X200750000Y-161207000D03*
%TO.P,U_SOM,C30*%
X200250000Y-161207000D03*
%TO.P,U_SOM,C31*%
%TO.N,GND*%
X199750000Y-161207000D03*
%TO.P,U_SOM,C32*%
%TO.N,CAM_SCL*%
X199250000Y-161207000D03*
%TO.P,U_SOM,C33*%
%TO.N,CAM_SDA*%
X198750000Y-161207000D03*
%TO.P,U_SOM,C34*%
%TO.N,N/C*%
X198250000Y-161207000D03*
%TO.P,U_SOM,C35*%
X197750000Y-161207000D03*
%TO.P,U_SOM,C36*%
X197250000Y-161207000D03*
%TO.P,U_SOM,C37*%
X196750000Y-161207000D03*
%TO.P,U_SOM,C38*%
%TO.N,GND*%
X196250000Y-161207000D03*
%TO.P,U_SOM,C39*%
%TO.N,N/C*%
X195750000Y-161207000D03*
%TO.P,U_SOM,C40*%
X195250000Y-161207000D03*
%TO.P,U_SOM,C41*%
X194750000Y-161207000D03*
%TO.P,U_SOM,C42*%
X194250000Y-161207000D03*
%TO.P,U_SOM,C43*%
%TO.N,GND*%
X193750000Y-161207000D03*
%TO.P,U_SOM,C44*%
%TO.N,N/C*%
X193250000Y-161207000D03*
%TO.P,U_SOM,C45*%
X192750000Y-161207000D03*
%TO.P,U_SOM,C46*%
X192250000Y-161207000D03*
%TO.P,U_SOM,C47*%
X191750000Y-161207000D03*
%TO.P,U_SOM,C48*%
%TO.N,GND*%
X191250000Y-161207000D03*
%TO.P,U_SOM,C49*%
%TO.N,N/C*%
X190750000Y-161207000D03*
%TO.P,U_SOM,C50*%
X190250000Y-161207000D03*
%TO.P,U_SOM,C51*%
X189750000Y-161207000D03*
%TO.P,U_SOM,C52*%
%TO.N,SOC_PORZ*%
X189250000Y-161207000D03*
%TO.P,U_SOM,C53*%
%TO.N,GND*%
X188750000Y-161207000D03*
%TO.P,U_SOM,C54*%
%TO.N,N/C*%
X188250000Y-161207000D03*
%TO.P,U_SOM,C55*%
X187750000Y-161207000D03*
%TO.P,U_SOM,C56*%
X187250000Y-161207000D03*
%TO.P,U_SOM,C57*%
X186750000Y-161207000D03*
%TO.P,U_SOM,C58*%
X186250000Y-161207000D03*
%TO.P,U_SOM,C59*%
%TO.N,GND*%
X185750000Y-161207000D03*
%TO.P,U_SOM,C60*%
%TO.N,N/C*%
X185250000Y-161207000D03*
%TO.P,U_SOM,D1*%
X214750000Y-163193000D03*
%TO.P,U_SOM,D2*%
X214250000Y-163193000D03*
%TO.P,U_SOM,D3*%
%TO.N,GND*%
X213750000Y-163193000D03*
%TO.P,U_SOM,D4*%
%TO.N,N/C*%
X213250000Y-163193000D03*
%TO.P,U_SOM,D5*%
X212750000Y-163193000D03*
%TO.P,U_SOM,D6*%
X212250000Y-163193000D03*
%TO.P,U_SOM,D7*%
X211750000Y-163193000D03*
%TO.P,U_SOM,D8*%
X211250000Y-163193000D03*
%TO.P,U_SOM,D9*%
%TO.N,GND*%
X210750000Y-163193000D03*
%TO.P,U_SOM,D10*%
%TO.N,N/C*%
X210250000Y-163193000D03*
%TO.P,U_SOM,D11*%
X209750000Y-163193000D03*
%TO.P,U_SOM,D12*%
X209250000Y-163193000D03*
%TO.P,U_SOM,D13*%
X208750000Y-163193000D03*
%TO.P,U_SOM,D14*%
X208250000Y-163193000D03*
%TO.P,U_SOM,D15*%
X207750000Y-163193000D03*
%TO.P,U_SOM,D16*%
X207250000Y-163193000D03*
%TO.P,U_SOM,D17*%
%TO.N,GND*%
X206750000Y-163193000D03*
%TO.P,U_SOM,D18*%
%TO.N,N/C*%
X206250000Y-163193000D03*
%TO.P,U_SOM,D19*%
X205750000Y-163193000D03*
%TO.P,U_SOM,D20*%
X205250000Y-163193000D03*
%TO.P,U_SOM,D21*%
X204750000Y-163193000D03*
%TO.P,U_SOM,D22*%
%TO.N,GND*%
X204250000Y-163193000D03*
%TO.P,U_SOM,D23*%
%TO.N,N/C*%
X203750000Y-163193000D03*
%TO.P,U_SOM,D24*%
X203250000Y-163193000D03*
%TO.P,U_SOM,D25*%
X202750000Y-163193000D03*
%TO.P,U_SOM,D26*%
X202250000Y-163193000D03*
%TO.P,U_SOM,D27*%
%TO.N,GND*%
X201750000Y-163193000D03*
%TO.P,U_SOM,D28*%
%TO.N,N/C*%
X201250000Y-163193000D03*
%TO.P,U_SOM,D29*%
X200750000Y-163193000D03*
%TO.P,U_SOM,D30*%
X200250000Y-163193000D03*
%TO.P,U_SOM,D31*%
X199750000Y-163193000D03*
%TO.P,U_SOM,D32*%
X199250000Y-163193000D03*
%TO.P,U_SOM,D33*%
X198750000Y-163193000D03*
%TO.P,U_SOM,D34*%
%TO.N,GND*%
X198250000Y-163193000D03*
%TO.P,U_SOM,D35*%
%TO.N,N/C*%
X197750000Y-163193000D03*
%TO.P,U_SOM,D36*%
X197250000Y-163193000D03*
%TO.P,U_SOM,D37*%
%TO.N,UART_M2A*%
X196750000Y-163193000D03*
%TO.P,U_SOM,D38*%
%TO.N,UART_A2M*%
X196250000Y-163193000D03*
%TO.P,U_SOM,D39*%
%TO.N,GND*%
X195750000Y-163193000D03*
%TO.P,U_SOM,D40*%
%TO.N,N/C*%
X195250000Y-163193000D03*
%TO.P,U_SOM,D41*%
X194750000Y-163193000D03*
%TO.P,U_SOM,D42*%
X194250000Y-163193000D03*
%TO.P,U_SOM,D43*%
X193750000Y-163193000D03*
%TO.P,U_SOM,D44*%
X193250000Y-163193000D03*
%TO.P,U_SOM,D45*%
%TO.N,GND*%
X192750000Y-163193000D03*
%TO.P,U_SOM,D46*%
%TO.N,N/C*%
X192250000Y-163193000D03*
%TO.P,U_SOM,D47*%
X191750000Y-163193000D03*
%TO.P,U_SOM,D48*%
X191250000Y-163193000D03*
%TO.P,U_SOM,D49*%
X190750000Y-163193000D03*
%TO.P,U_SOM,D50*%
X190250000Y-163193000D03*
%TO.P,U_SOM,D51*%
X189750000Y-163193000D03*
%TO.P,U_SOM,D52*%
%TO.N,GND*%
X189250000Y-163193000D03*
%TO.P,U_SOM,D53*%
%TO.N,N/C*%
X188750000Y-163193000D03*
%TO.P,U_SOM,D54*%
X188250000Y-163193000D03*
%TO.P,U_SOM,D55*%
X187750000Y-163193000D03*
%TO.P,U_SOM,D56*%
X187250000Y-163193000D03*
%TO.P,U_SOM,D57*%
%TO.N,GND*%
X186750000Y-163193000D03*
%TO.P,U_SOM,D58*%
%TO.N,N/C*%
X186250000Y-163193000D03*
%TO.P,U_SOM,D59*%
X185750000Y-163193000D03*
%TO.P,U_SOM,D60*%
X185250000Y-163193000D03*
%TD*%
D14*
%TO.P,T1,1*%
%TO.N,ETH_IN_KSZ_TXP*%
X224000000Y-160080000D03*
%TO.P,T1,2*%
%TO.N,ETH_IN_KSZ_TXN*%
X224000000Y-157540000D03*
%TO.P,T1,3*%
%TO.N,ETH_IN_KSZ_RXP*%
X224000000Y-155000000D03*
%TO.P,T1,4*%
%TO.N,ETH_IN_KSZ_RXN*%
X224000000Y-152460000D03*
%TO.P,T1,5*%
%TO.N,ETH_IN_LTXP*%
X234000000Y-152460000D03*
%TO.P,T1,6*%
%TO.N,ETH_IN_LTXN*%
X234000000Y-155000000D03*
%TO.P,T1,7*%
%TO.N,ETH_IN_LRXP*%
X234000000Y-157540000D03*
%TO.P,T1,8*%
%TO.N,ETH_IN_LRXN*%
X234000000Y-160080000D03*
%TD*%
M02*
