%TF.GenerationSoftware,KiCad,Pcbnew,9.0.2+dfsg-1*%
%TF.CreationDate,2026-07-28T10:16:54-04:00*%
%TF.ProjectId,Jayne,4a61796e-652e-46b6-9963-61645f706362,-*%
%TF.SameCoordinates,Original*%
%TF.FileFunction,Legend,Bot*%
%TF.FilePolarity,Positive*%
%FSLAX46Y46*%
G04 Gerber Fmt 4.6, Leading zero omitted, Abs format (unit mm)*
G04 Created by KiCad (PCBNEW 9.0.2+dfsg-1) date 2026-07-28 10:16:54*
%MOMM*%
%LPD*%
G01*
G04 APERTURE LIST*
%ADD10C,0.150000*%
%ADD11C,0.120000*%
G04 APERTURE END LIST*
D10*
X243441242Y-162172471D02*
X176558758Y-177827528D01*
X243191242Y-140268436D02*
X176808758Y-124731564D01*
X186952381Y-126454819D02*
X186952381Y-127169104D01*
X186952381Y-127169104D02*
X187000000Y-127311961D01*
X187000000Y-127311961D02*
X187095238Y-127407200D01*
X187095238Y-127407200D02*
X187238095Y-127454819D01*
X187238095Y-127454819D02*
X187333333Y-127454819D01*
X186714286Y-127550057D02*
X185952381Y-127550057D01*
X185142857Y-127454819D02*
X185476190Y-126978628D01*
X185714285Y-127454819D02*
X185714285Y-126454819D01*
X185714285Y-126454819D02*
X185333333Y-126454819D01*
X185333333Y-126454819D02*
X185238095Y-126502438D01*
X185238095Y-126502438D02*
X185190476Y-126550057D01*
X185190476Y-126550057D02*
X185142857Y-126645295D01*
X185142857Y-126645295D02*
X185142857Y-126788152D01*
X185142857Y-126788152D02*
X185190476Y-126883390D01*
X185190476Y-126883390D02*
X185238095Y-126931009D01*
X185238095Y-126931009D02*
X185333333Y-126978628D01*
X185333333Y-126978628D02*
X185714285Y-126978628D01*
X184761904Y-127407200D02*
X184619047Y-127454819D01*
X184619047Y-127454819D02*
X184380952Y-127454819D01*
X184380952Y-127454819D02*
X184285714Y-127407200D01*
X184285714Y-127407200D02*
X184238095Y-127359580D01*
X184238095Y-127359580D02*
X184190476Y-127264342D01*
X184190476Y-127264342D02*
X184190476Y-127169104D01*
X184190476Y-127169104D02*
X184238095Y-127073866D01*
X184238095Y-127073866D02*
X184285714Y-127026247D01*
X184285714Y-127026247D02*
X184380952Y-126978628D01*
X184380952Y-126978628D02*
X184571428Y-126931009D01*
X184571428Y-126931009D02*
X184666666Y-126883390D01*
X184666666Y-126883390D02*
X184714285Y-126835771D01*
X184714285Y-126835771D02*
X184761904Y-126740533D01*
X184761904Y-126740533D02*
X184761904Y-126645295D01*
X184761904Y-126645295D02*
X184714285Y-126550057D01*
X184714285Y-126550057D02*
X184666666Y-126502438D01*
X184666666Y-126502438D02*
X184571428Y-126454819D01*
X184571428Y-126454819D02*
X184333333Y-126454819D01*
X184333333Y-126454819D02*
X184190476Y-126502438D01*
X183333333Y-126788152D02*
X183333333Y-127454819D01*
X183571428Y-126407200D02*
X183809523Y-127121485D01*
X183809523Y-127121485D02*
X183190476Y-127121485D01*
X182666666Y-126883390D02*
X182761904Y-126835771D01*
X182761904Y-126835771D02*
X182809523Y-126788152D01*
X182809523Y-126788152D02*
X182857142Y-126692914D01*
X182857142Y-126692914D02*
X182857142Y-126645295D01*
X182857142Y-126645295D02*
X182809523Y-126550057D01*
X182809523Y-126550057D02*
X182761904Y-126502438D01*
X182761904Y-126502438D02*
X182666666Y-126454819D01*
X182666666Y-126454819D02*
X182476190Y-126454819D01*
X182476190Y-126454819D02*
X182380952Y-126502438D01*
X182380952Y-126502438D02*
X182333333Y-126550057D01*
X182333333Y-126550057D02*
X182285714Y-126645295D01*
X182285714Y-126645295D02*
X182285714Y-126692914D01*
X182285714Y-126692914D02*
X182333333Y-126788152D01*
X182333333Y-126788152D02*
X182380952Y-126835771D01*
X182380952Y-126835771D02*
X182476190Y-126883390D01*
X182476190Y-126883390D02*
X182666666Y-126883390D01*
X182666666Y-126883390D02*
X182761904Y-126931009D01*
X182761904Y-126931009D02*
X182809523Y-126978628D01*
X182809523Y-126978628D02*
X182857142Y-127073866D01*
X182857142Y-127073866D02*
X182857142Y-127264342D01*
X182857142Y-127264342D02*
X182809523Y-127359580D01*
X182809523Y-127359580D02*
X182761904Y-127407200D01*
X182761904Y-127407200D02*
X182666666Y-127454819D01*
X182666666Y-127454819D02*
X182476190Y-127454819D01*
X182476190Y-127454819D02*
X182380952Y-127407200D01*
X182380952Y-127407200D02*
X182333333Y-127359580D01*
X182333333Y-127359580D02*
X182285714Y-127264342D01*
X182285714Y-127264342D02*
X182285714Y-127073866D01*
X182285714Y-127073866D02*
X182333333Y-126978628D01*
X182333333Y-126978628D02*
X182380952Y-126931009D01*
X182380952Y-126931009D02*
X182476190Y-126883390D01*
X181380952Y-126454819D02*
X181857142Y-126454819D01*
X181857142Y-126454819D02*
X181904761Y-126931009D01*
X181904761Y-126931009D02*
X181857142Y-126883390D01*
X181857142Y-126883390D02*
X181761904Y-126835771D01*
X181761904Y-126835771D02*
X181523809Y-126835771D01*
X181523809Y-126835771D02*
X181428571Y-126883390D01*
X181428571Y-126883390D02*
X181380952Y-126931009D01*
X181380952Y-126931009D02*
X181333333Y-127026247D01*
X181333333Y-127026247D02*
X181333333Y-127264342D01*
X181333333Y-127264342D02*
X181380952Y-127359580D01*
X181380952Y-127359580D02*
X181428571Y-127407200D01*
X181428571Y-127407200D02*
X181523809Y-127454819D01*
X181523809Y-127454819D02*
X181761904Y-127454819D01*
X181761904Y-127454819D02*
X181857142Y-127407200D01*
X181857142Y-127407200D02*
X181904761Y-127359580D01*
X181142857Y-127550057D02*
X180380952Y-127550057D01*
X179952380Y-126454819D02*
X179761904Y-126454819D01*
X179761904Y-126454819D02*
X179666666Y-126502438D01*
X179666666Y-126502438D02*
X179571428Y-126597676D01*
X179571428Y-126597676D02*
X179523809Y-126788152D01*
X179523809Y-126788152D02*
X179523809Y-127121485D01*
X179523809Y-127121485D02*
X179571428Y-127311961D01*
X179571428Y-127311961D02*
X179666666Y-127407200D01*
X179666666Y-127407200D02*
X179761904Y-127454819D01*
X179761904Y-127454819D02*
X179952380Y-127454819D01*
X179952380Y-127454819D02*
X180047618Y-127407200D01*
X180047618Y-127407200D02*
X180142856Y-127311961D01*
X180142856Y-127311961D02*
X180190475Y-127121485D01*
X180190475Y-127121485D02*
X180190475Y-126788152D01*
X180190475Y-126788152D02*
X180142856Y-126597676D01*
X180142856Y-126597676D02*
X180047618Y-126502438D01*
X180047618Y-126502438D02*
X179952380Y-126454819D01*
X179095237Y-126454819D02*
X179095237Y-127264342D01*
X179095237Y-127264342D02*
X179047618Y-127359580D01*
X179047618Y-127359580D02*
X178999999Y-127407200D01*
X178999999Y-127407200D02*
X178904761Y-127454819D01*
X178904761Y-127454819D02*
X178714285Y-127454819D01*
X178714285Y-127454819D02*
X178619047Y-127407200D01*
X178619047Y-127407200D02*
X178571428Y-127359580D01*
X178571428Y-127359580D02*
X178523809Y-127264342D01*
X178523809Y-127264342D02*
X178523809Y-126454819D01*
X178190475Y-126454819D02*
X177619047Y-126454819D01*
X177904761Y-127454819D02*
X177904761Y-126454819D01*
X186285714Y-166954819D02*
X186285714Y-167669104D01*
X186285714Y-167669104D02*
X186333333Y-167811961D01*
X186333333Y-167811961D02*
X186428571Y-167907200D01*
X186428571Y-167907200D02*
X186571428Y-167954819D01*
X186571428Y-167954819D02*
X186666666Y-167954819D01*
X186047619Y-168050057D02*
X185285714Y-168050057D01*
X184476190Y-167954819D02*
X184809523Y-167478628D01*
X185047618Y-167954819D02*
X185047618Y-166954819D01*
X185047618Y-166954819D02*
X184666666Y-166954819D01*
X184666666Y-166954819D02*
X184571428Y-167002438D01*
X184571428Y-167002438D02*
X184523809Y-167050057D01*
X184523809Y-167050057D02*
X184476190Y-167145295D01*
X184476190Y-167145295D02*
X184476190Y-167288152D01*
X184476190Y-167288152D02*
X184523809Y-167383390D01*
X184523809Y-167383390D02*
X184571428Y-167431009D01*
X184571428Y-167431009D02*
X184666666Y-167478628D01*
X184666666Y-167478628D02*
X185047618Y-167478628D01*
X184095237Y-167907200D02*
X183952380Y-167954819D01*
X183952380Y-167954819D02*
X183714285Y-167954819D01*
X183714285Y-167954819D02*
X183619047Y-167907200D01*
X183619047Y-167907200D02*
X183571428Y-167859580D01*
X183571428Y-167859580D02*
X183523809Y-167764342D01*
X183523809Y-167764342D02*
X183523809Y-167669104D01*
X183523809Y-167669104D02*
X183571428Y-167573866D01*
X183571428Y-167573866D02*
X183619047Y-167526247D01*
X183619047Y-167526247D02*
X183714285Y-167478628D01*
X183714285Y-167478628D02*
X183904761Y-167431009D01*
X183904761Y-167431009D02*
X183999999Y-167383390D01*
X183999999Y-167383390D02*
X184047618Y-167335771D01*
X184047618Y-167335771D02*
X184095237Y-167240533D01*
X184095237Y-167240533D02*
X184095237Y-167145295D01*
X184095237Y-167145295D02*
X184047618Y-167050057D01*
X184047618Y-167050057D02*
X183999999Y-167002438D01*
X183999999Y-167002438D02*
X183904761Y-166954819D01*
X183904761Y-166954819D02*
X183666666Y-166954819D01*
X183666666Y-166954819D02*
X183523809Y-167002438D01*
X182666666Y-167288152D02*
X182666666Y-167954819D01*
X182904761Y-166907200D02*
X183142856Y-167621485D01*
X183142856Y-167621485D02*
X182523809Y-167621485D01*
X181999999Y-167383390D02*
X182095237Y-167335771D01*
X182095237Y-167335771D02*
X182142856Y-167288152D01*
X182142856Y-167288152D02*
X182190475Y-167192914D01*
X182190475Y-167192914D02*
X182190475Y-167145295D01*
X182190475Y-167145295D02*
X182142856Y-167050057D01*
X182142856Y-167050057D02*
X182095237Y-167002438D01*
X182095237Y-167002438D02*
X181999999Y-166954819D01*
X181999999Y-166954819D02*
X181809523Y-166954819D01*
X181809523Y-166954819D02*
X181714285Y-167002438D01*
X181714285Y-167002438D02*
X181666666Y-167050057D01*
X181666666Y-167050057D02*
X181619047Y-167145295D01*
X181619047Y-167145295D02*
X181619047Y-167192914D01*
X181619047Y-167192914D02*
X181666666Y-167288152D01*
X181666666Y-167288152D02*
X181714285Y-167335771D01*
X181714285Y-167335771D02*
X181809523Y-167383390D01*
X181809523Y-167383390D02*
X181999999Y-167383390D01*
X181999999Y-167383390D02*
X182095237Y-167431009D01*
X182095237Y-167431009D02*
X182142856Y-167478628D01*
X182142856Y-167478628D02*
X182190475Y-167573866D01*
X182190475Y-167573866D02*
X182190475Y-167764342D01*
X182190475Y-167764342D02*
X182142856Y-167859580D01*
X182142856Y-167859580D02*
X182095237Y-167907200D01*
X182095237Y-167907200D02*
X181999999Y-167954819D01*
X181999999Y-167954819D02*
X181809523Y-167954819D01*
X181809523Y-167954819D02*
X181714285Y-167907200D01*
X181714285Y-167907200D02*
X181666666Y-167859580D01*
X181666666Y-167859580D02*
X181619047Y-167764342D01*
X181619047Y-167764342D02*
X181619047Y-167573866D01*
X181619047Y-167573866D02*
X181666666Y-167478628D01*
X181666666Y-167478628D02*
X181714285Y-167431009D01*
X181714285Y-167431009D02*
X181809523Y-167383390D01*
X180714285Y-166954819D02*
X181190475Y-166954819D01*
X181190475Y-166954819D02*
X181238094Y-167431009D01*
X181238094Y-167431009D02*
X181190475Y-167383390D01*
X181190475Y-167383390D02*
X181095237Y-167335771D01*
X181095237Y-167335771D02*
X180857142Y-167335771D01*
X180857142Y-167335771D02*
X180761904Y-167383390D01*
X180761904Y-167383390D02*
X180714285Y-167431009D01*
X180714285Y-167431009D02*
X180666666Y-167526247D01*
X180666666Y-167526247D02*
X180666666Y-167764342D01*
X180666666Y-167764342D02*
X180714285Y-167859580D01*
X180714285Y-167859580D02*
X180761904Y-167907200D01*
X180761904Y-167907200D02*
X180857142Y-167954819D01*
X180857142Y-167954819D02*
X181095237Y-167954819D01*
X181095237Y-167954819D02*
X181190475Y-167907200D01*
X181190475Y-167907200D02*
X181238094Y-167859580D01*
X180476190Y-168050057D02*
X179714285Y-168050057D01*
X179476189Y-167954819D02*
X179476189Y-166954819D01*
X178999999Y-167954819D02*
X178999999Y-166954819D01*
X178999999Y-166954819D02*
X178428571Y-167954819D01*
X178428571Y-167954819D02*
X178428571Y-166954819D01*
X222454819Y-148761905D02*
X223264342Y-148761905D01*
X223264342Y-148761905D02*
X223359580Y-148809524D01*
X223359580Y-148809524D02*
X223407200Y-148857143D01*
X223407200Y-148857143D02*
X223454819Y-148952381D01*
X223454819Y-148952381D02*
X223454819Y-149142857D01*
X223454819Y-149142857D02*
X223407200Y-149238095D01*
X223407200Y-149238095D02*
X223359580Y-149285714D01*
X223359580Y-149285714D02*
X223264342Y-149333333D01*
X223264342Y-149333333D02*
X222454819Y-149333333D01*
X223550057Y-149571429D02*
X223550057Y-150333333D01*
X223407200Y-150523810D02*
X223454819Y-150666667D01*
X223454819Y-150666667D02*
X223454819Y-150904762D01*
X223454819Y-150904762D02*
X223407200Y-151000000D01*
X223407200Y-151000000D02*
X223359580Y-151047619D01*
X223359580Y-151047619D02*
X223264342Y-151095238D01*
X223264342Y-151095238D02*
X223169104Y-151095238D01*
X223169104Y-151095238D02*
X223073866Y-151047619D01*
X223073866Y-151047619D02*
X223026247Y-151000000D01*
X223026247Y-151000000D02*
X222978628Y-150904762D01*
X222978628Y-150904762D02*
X222931009Y-150714286D01*
X222931009Y-150714286D02*
X222883390Y-150619048D01*
X222883390Y-150619048D02*
X222835771Y-150571429D01*
X222835771Y-150571429D02*
X222740533Y-150523810D01*
X222740533Y-150523810D02*
X222645295Y-150523810D01*
X222645295Y-150523810D02*
X222550057Y-150571429D01*
X222550057Y-150571429D02*
X222502438Y-150619048D01*
X222502438Y-150619048D02*
X222454819Y-150714286D01*
X222454819Y-150714286D02*
X222454819Y-150952381D01*
X222454819Y-150952381D02*
X222502438Y-151095238D01*
X222454819Y-151714286D02*
X222454819Y-151904762D01*
X222454819Y-151904762D02*
X222502438Y-152000000D01*
X222502438Y-152000000D02*
X222597676Y-152095238D01*
X222597676Y-152095238D02*
X222788152Y-152142857D01*
X222788152Y-152142857D02*
X223121485Y-152142857D01*
X223121485Y-152142857D02*
X223311961Y-152095238D01*
X223311961Y-152095238D02*
X223407200Y-152000000D01*
X223407200Y-152000000D02*
X223454819Y-151904762D01*
X223454819Y-151904762D02*
X223454819Y-151714286D01*
X223454819Y-151714286D02*
X223407200Y-151619048D01*
X223407200Y-151619048D02*
X223311961Y-151523810D01*
X223311961Y-151523810D02*
X223121485Y-151476191D01*
X223121485Y-151476191D02*
X222788152Y-151476191D01*
X222788152Y-151476191D02*
X222597676Y-151523810D01*
X222597676Y-151523810D02*
X222502438Y-151619048D01*
X222502438Y-151619048D02*
X222454819Y-151714286D01*
X223454819Y-152571429D02*
X222454819Y-152571429D01*
X222454819Y-152571429D02*
X223169104Y-152904762D01*
X223169104Y-152904762D02*
X222454819Y-153238095D01*
X222454819Y-153238095D02*
X223454819Y-153238095D01*
D11*
%TO.C,J_RS485_OUT*%
X178890000Y-131260000D02*
X178890000Y-132860000D01*
X178890000Y-132860000D02*
X180690000Y-132860000D01*
X184310000Y-132860000D02*
X184310000Y-133800000D01*
X184840000Y-128390000D02*
X180160000Y-128390000D01*
X186110000Y-131260000D02*
X186110000Y-132860000D01*
X186110000Y-132860000D02*
X184310000Y-132860000D01*
%TO.C,J_RS485_IN*%
X178890000Y-171760000D02*
X178890000Y-173360000D01*
X178890000Y-173360000D02*
X180690000Y-173360000D01*
X184310000Y-173360000D02*
X184310000Y-174300000D01*
X184840000Y-168890000D02*
X180160000Y-168890000D01*
X186110000Y-171760000D02*
X186110000Y-173360000D01*
X186110000Y-173360000D02*
X184310000Y-173360000D01*
%TD*%
M02*
