%TF.GenerationSoftware,KiCad,Pcbnew,9.0.2+dfsg-1*%
%TF.CreationDate,2026-07-28T10:16:54-04:00*%
%TF.ProjectId,Jayne,4a61796e-652e-46b6-9963-61645f706362,-*%
%TF.SameCoordinates,Original*%
%TF.FileFunction,Soldermask,Top*%
%TF.FilePolarity,Negative*%
%FSLAX46Y46*%
G04 Gerber Fmt 4.6, Leading zero omitted, Abs format (unit mm)*
G04 Created by KiCad (PCBNEW 9.0.2+dfsg-1) date 2026-07-28 10:16:54*
%MOMM*%
%LPD*%
G01*
G04 APERTURE LIST*
G04 Aperture macros list*
%AMRoundRect*
0 Rectangle with rounded corners*
0 $1 Rounding radius*
0 $2 $3 $4 $5 $6 $7 $8 $9 X,Y pos of 4 corners*
0 Add a 4 corners polygon primitive as box body*
4,1,4,$2,$3,$4,$5,$6,$7,$8,$9,$2,$3,0*
0 Add four circle primitives for the rounded corners*
1,1,$1+$1,$2,$3*
1,1,$1+$1,$4,$5*
1,1,$1+$1,$6,$7*
1,1,$1+$1,$8,$9*
0 Add four rect primitives between the rounded corners*
20,1,$1+$1,$2,$3,$4,$5,0*
20,1,$1+$1,$4,$5,$6,$7,0*
20,1,$1+$1,$6,$7,$8,$9,0*
20,1,$1+$1,$8,$9,$2,$3,0*%
G04 Aperture macros list end*
%ADD10R,1.000000X0.230000*%
%ADD11R,0.230000X1.000000*%
%ADD12R,9.600000X9.600000*%
%ADD13C,2.700000*%
%ADD14RoundRect,0.140000X-0.140000X-0.170000X0.140000X-0.170000X0.140000X0.170000X-0.140000X0.170000X0*%
%ADD15RoundRect,0.100000X-0.225000X-0.100000X0.225000X-0.100000X0.225000X0.100000X-0.225000X0.100000X0*%
%ADD16RoundRect,0.135000X-0.135000X-0.185000X0.135000X-0.185000X0.135000X0.185000X-0.135000X0.185000X0*%
%ADD17RoundRect,0.150000X0.700000X-0.150000X0.700000X0.150000X-0.700000X0.150000X-0.700000X-0.150000X0*%
%ADD18RoundRect,0.250000X1.150000X-0.250000X1.150000X0.250000X-1.150000X0.250000X-1.150000X-0.250000X0*%
%ADD19RoundRect,0.175000X-0.175000X-0.625000X0.175000X-0.625000X0.175000X0.625000X-0.175000X0.625000X0*%
%ADD20RoundRect,0.100000X0.100000X-0.225000X0.100000X0.225000X-0.100000X0.225000X-0.100000X-0.225000X0*%
%ADD21RoundRect,0.150000X-0.700000X0.150000X-0.700000X-0.150000X0.700000X-0.150000X0.700000X0.150000X0*%
%ADD22RoundRect,0.250000X-1.100000X0.250000X-1.100000X-0.250000X1.100000X-0.250000X1.100000X0.250000X0*%
%ADD23RoundRect,0.025500X0.354500X-0.229500X0.354500X0.229500X-0.354500X0.229500X-0.354500X-0.229500X0*%
%ADD24RoundRect,0.150000X-0.150000X0.875000X-0.150000X-0.875000X0.150000X-0.875000X0.150000X0.875000X0*%
%ADD25RoundRect,0.150000X-0.150000X-0.625000X0.150000X-0.625000X0.150000X0.625000X-0.150000X0.625000X0*%
%ADD26RoundRect,0.250000X-0.350000X-0.650000X0.350000X-0.650000X0.350000X0.650000X-0.350000X0.650000X0*%
%ADD27R,0.650000X2.000000*%
%ADD28RoundRect,0.150000X0.150000X-0.512500X0.150000X0.512500X-0.150000X0.512500X-0.150000X-0.512500X0*%
%ADD29RoundRect,0.150000X0.150000X-0.875000X0.150000X0.875000X-0.150000X0.875000X-0.150000X-0.875000X0*%
%ADD30RoundRect,0.062500X-0.062500X0.375000X-0.062500X-0.375000X0.062500X-0.375000X0.062500X0.375000X0*%
%ADD31RoundRect,0.062500X-0.375000X0.062500X-0.375000X-0.062500X0.375000X-0.062500X0.375000X0.062500X0*%
%ADD32R,5.150000X5.150000*%
%ADD33RoundRect,0.150000X-0.150000X-0.700000X0.150000X-0.700000X0.150000X0.700000X-0.150000X0.700000X0*%
%ADD34RoundRect,0.250000X-0.250000X-1.150000X0.250000X-1.150000X0.250000X1.150000X-0.250000X1.150000X0*%
%ADD35RoundRect,0.150000X-0.512500X-0.150000X0.512500X-0.150000X0.512500X0.150000X-0.512500X0.150000X0*%
%ADD36R,3.450000X3.450000*%
%ADD37RoundRect,0.150000X-0.150000X-0.400000X0.150000X-0.400000X0.150000X0.400000X-0.150000X0.400000X0*%
%ADD38RoundRect,0.025500X-0.229500X-0.354500X0.229500X-0.354500X0.229500X0.354500X-0.229500X0.354500X0*%
%ADD39R,1.000000X1.500000*%
%ADD40RoundRect,0.150000X-0.587500X-0.150000X0.587500X-0.150000X0.587500X0.150000X-0.587500X0.150000X0*%
%ADD41C,1.016000*%
G04 APERTURE END LIST*
%TO.C,SJ_485*%
G36*
X213200000Y-136750000D02*
G01*
X213500000Y-136750000D01*
X213500000Y-138250000D01*
X213200000Y-138250000D01*
X213200000Y-136750000D01*
G37*
%TD*%
D10*
%TO.C,U2*%
X184800000Y-134300000D03*
X184800000Y-134700000D03*
X184800000Y-135100000D03*
X184800000Y-135500000D03*
X184800000Y-135900000D03*
X184800000Y-136300000D03*
X184800000Y-136700000D03*
X184800000Y-137100000D03*
X184800000Y-137500000D03*
X184800000Y-137900000D03*
X184800000Y-138300000D03*
X184800000Y-138700000D03*
X184800000Y-139100000D03*
X184800000Y-139500000D03*
X184800000Y-139900000D03*
X184800000Y-140300000D03*
X184800000Y-140700000D03*
X184800000Y-141100000D03*
X184800000Y-141500000D03*
X184800000Y-141900000D03*
X184800000Y-142300000D03*
X184800000Y-142700000D03*
X184800000Y-143100000D03*
X184800000Y-143500000D03*
X184800000Y-143900000D03*
X184800000Y-144300000D03*
X184800000Y-144700000D03*
X184800000Y-145100000D03*
X184800000Y-145500000D03*
X184800000Y-145900000D03*
X184800000Y-146300000D03*
X184800000Y-146700000D03*
D11*
X186300000Y-148200000D03*
X186700000Y-148200000D03*
X187100000Y-148200000D03*
X187500000Y-148200000D03*
X187900000Y-148200000D03*
X188300000Y-148200000D03*
X188700000Y-148200000D03*
X189100000Y-148200000D03*
X189500000Y-148200000D03*
X189900000Y-148200000D03*
X190300000Y-148200000D03*
X190700000Y-148200000D03*
X191100000Y-148200000D03*
X191500000Y-148200000D03*
X191900000Y-148200000D03*
X192300000Y-148200000D03*
X192700000Y-148200000D03*
X193100000Y-148200000D03*
X193500000Y-148200000D03*
X193900000Y-148200000D03*
X194300000Y-148200000D03*
X194700000Y-148200000D03*
X195100000Y-148200000D03*
X195500000Y-148200000D03*
X195900000Y-148200000D03*
X196300000Y-148200000D03*
X196700000Y-148200000D03*
X197100000Y-148200000D03*
X197500000Y-148200000D03*
X197900000Y-148200000D03*
X198300000Y-148200000D03*
X198700000Y-148200000D03*
D10*
X200200000Y-146700000D03*
X200200000Y-146300000D03*
X200200000Y-145900000D03*
X200200000Y-145500000D03*
X200200000Y-145100000D03*
X200200000Y-144700000D03*
X200200000Y-144300000D03*
X200200000Y-143900000D03*
X200200000Y-143500000D03*
X200200000Y-143100000D03*
X200200000Y-142700000D03*
X200200000Y-142300000D03*
X200200000Y-141900000D03*
X200200000Y-141500000D03*
X200200000Y-141100000D03*
X200200000Y-140700000D03*
X200200000Y-140300000D03*
X200200000Y-139900000D03*
X200200000Y-139500000D03*
X200200000Y-139100000D03*
X200200000Y-138700000D03*
X200200000Y-138300000D03*
X200200000Y-137900000D03*
X200200000Y-137500000D03*
X200200000Y-137100000D03*
X200200000Y-136700000D03*
X200200000Y-136300000D03*
X200200000Y-135900000D03*
X200200000Y-135500000D03*
X200200000Y-135100000D03*
X200200000Y-134700000D03*
X200200000Y-134300000D03*
D11*
X198700000Y-132800000D03*
X198300000Y-132800000D03*
X197900000Y-132800000D03*
X197500000Y-132800000D03*
X197100000Y-132800000D03*
X196700000Y-132800000D03*
X196300000Y-132800000D03*
X195900000Y-132800000D03*
X195500000Y-132800000D03*
X195100000Y-132800000D03*
X194700000Y-132800000D03*
X194300000Y-132800000D03*
X193900000Y-132800000D03*
X193500000Y-132800000D03*
X193100000Y-132800000D03*
X192700000Y-132800000D03*
X192300000Y-132800000D03*
X191900000Y-132800000D03*
X191500000Y-132800000D03*
X191100000Y-132800000D03*
X190700000Y-132800000D03*
X190300000Y-132800000D03*
X189900000Y-132800000D03*
X189500000Y-132800000D03*
X189100000Y-132800000D03*
X188700000Y-132800000D03*
X188300000Y-132800000D03*
X187900000Y-132800000D03*
X187500000Y-132800000D03*
X187100000Y-132800000D03*
X186700000Y-132800000D03*
X186300000Y-132800000D03*
D12*
X192500000Y-140500000D03*
%TD*%
D13*
%TO.C,MH3*%
X176893245Y-176528420D03*
%TD*%
D14*
%TO.C,C_2V5I*%
X195500000Y-154500000D03*
X196460000Y-154500000D03*
%TD*%
D15*
%TO.C,T1_D1*%
X196500000Y-150350000D03*
X196500000Y-151000000D03*
X196500000Y-151650000D03*
X198400000Y-151650000D03*
X198400000Y-151000000D03*
X198400000Y-150350000D03*
%TD*%
D16*
%TO.C,R_PG3*%
X195520000Y-156500000D03*
X196540000Y-156500000D03*
%TD*%
D14*
%TO.C,C_VISO*%
X206540000Y-166500000D03*
X207500000Y-166500000D03*
%TD*%
D17*
%TO.C,J_PWR*%
X180500000Y-132750000D03*
X180500000Y-131500000D03*
D18*
X177150000Y-134600000D03*
X177150000Y-129650000D03*
%TD*%
D14*
%TO.C,U_REG_1V2_CI*%
X225540000Y-145500000D03*
X226500000Y-145500000D03*
%TD*%
D19*
%TO.C,J_CAM_DS*%
X226000000Y-148500000D03*
X227000000Y-148500000D03*
X228000000Y-148500000D03*
X229000000Y-148500000D03*
X230000000Y-148500000D03*
X231000000Y-148500000D03*
X232000000Y-148500000D03*
X233000000Y-148500000D03*
X234000000Y-148500000D03*
%TD*%
D20*
%TO.C,T2_D1*%
X215500000Y-143400000D03*
X216150000Y-143400000D03*
X216800000Y-143400000D03*
X216800000Y-141500000D03*
X216150000Y-141500000D03*
X215500000Y-141500000D03*
%TD*%
D16*
%TO.C,R_PORZ*%
X198490000Y-156500000D03*
X199510000Y-156500000D03*
%TD*%
%TO.C,R_REXT*%
X203940000Y-163500000D03*
X204960000Y-163500000D03*
%TD*%
D21*
%TO.C,J_ETH_OUT*%
X180350000Y-142500000D03*
X180350000Y-143750000D03*
X180350000Y-145000000D03*
X180350000Y-146250000D03*
X180350000Y-147500000D03*
D22*
X177150000Y-140650000D03*
X177150000Y-149350000D03*
%TD*%
D16*
%TO.C,R_FB3B*%
X206402164Y-165000000D03*
X207422164Y-165000000D03*
%TD*%
D14*
%TO.C,C_VCORE*%
X204010000Y-166500000D03*
X204970000Y-166500000D03*
%TD*%
D17*
%TO.C,J_CANFD*%
X179950000Y-170375000D03*
X179950000Y-169125000D03*
X179950000Y-167875000D03*
X179950000Y-166625000D03*
D18*
X176600000Y-172225000D03*
X176600000Y-164775000D03*
%TD*%
D23*
%TO.C,T2_CMC1*%
X184165000Y-156935000D03*
X185835000Y-156935000D03*
X185835000Y-156065000D03*
X184165000Y-156065000D03*
%TD*%
D24*
%TO.C,U4*%
X200715000Y-159350000D03*
X199445000Y-159350000D03*
X198175000Y-159350000D03*
X196905000Y-159350000D03*
X195635000Y-159350000D03*
X194365000Y-159350000D03*
X193095000Y-159350000D03*
X191825000Y-159350000D03*
X190555000Y-159350000D03*
X189285000Y-159350000D03*
X189285000Y-168650000D03*
X190555000Y-168650000D03*
X191825000Y-168650000D03*
X193095000Y-168650000D03*
X194365000Y-168650000D03*
X195635000Y-168650000D03*
X196905000Y-168650000D03*
X198175000Y-168650000D03*
X199445000Y-168650000D03*
X200715000Y-168650000D03*
%TD*%
D25*
%TO.C,J_LASER*%
X238000000Y-151525000D03*
X239000000Y-151525000D03*
D26*
X236700000Y-149000000D03*
X240300000Y-149000000D03*
%TD*%
D16*
%TO.C,R_NRST*%
X223980000Y-151000000D03*
X225000000Y-151000000D03*
%TD*%
D27*
%TO.C,U_REG_1V2_L*%
X185150000Y-169500000D03*
X186500000Y-169500000D03*
%TD*%
D16*
%TO.C,R_485TERM*%
X187980000Y-130500000D03*
X189000000Y-130500000D03*
%TD*%
D28*
%TO.C,U_REG_2V5*%
X221600000Y-148775000D03*
X222550000Y-148775000D03*
X223500000Y-148775000D03*
X223500000Y-146500000D03*
X221600000Y-146500000D03*
%TD*%
D29*
%TO.C,U6*%
X204285000Y-159650000D03*
X205555000Y-159650000D03*
X206825000Y-159650000D03*
X208095000Y-159650000D03*
X209365000Y-159650000D03*
X210635000Y-159650000D03*
X211905000Y-159650000D03*
X213175000Y-159650000D03*
X214445000Y-159650000D03*
X215715000Y-159650000D03*
X215715000Y-150350000D03*
X214445000Y-150350000D03*
X213175000Y-150350000D03*
X211905000Y-150350000D03*
X210635000Y-150350000D03*
X209365000Y-150350000D03*
X208095000Y-150350000D03*
X206825000Y-150350000D03*
X205555000Y-150350000D03*
X204285000Y-150350000D03*
%TD*%
D16*
%TO.C,R_FB1T*%
X203862164Y-165000000D03*
X204882164Y-165000000D03*
%TD*%
%TO.C,R_FB3T*%
X228980000Y-151000000D03*
X230000000Y-151000000D03*
%TD*%
%TO.C,R_ISET*%
X228980000Y-152500000D03*
X230000000Y-152500000D03*
%TD*%
D23*
%TO.C,T2_CMC2*%
X184165000Y-159935000D03*
X185835000Y-159935000D03*
X185835000Y-159065000D03*
X184165000Y-159065000D03*
%TD*%
%TO.C,T1_CMC2*%
X184000000Y-154000000D03*
X185670000Y-154000000D03*
X185670000Y-153130000D03*
X184000000Y-153130000D03*
%TD*%
D14*
%TO.C,C_2V5O*%
X198500000Y-154500000D03*
X199460000Y-154500000D03*
%TD*%
D23*
%TO.C,T1_CMC1*%
X184000000Y-151370000D03*
X185670000Y-151370000D03*
X185670000Y-150500000D03*
X184000000Y-150500000D03*
%TD*%
D30*
%TO.C,U3*%
X209185000Y-140207500D03*
X208685000Y-140207500D03*
X208185000Y-140207500D03*
X207685000Y-140207500D03*
X207185000Y-140207500D03*
X206685000Y-140207500D03*
X206185000Y-140207500D03*
X205685000Y-140207500D03*
X205185000Y-140207500D03*
X204685000Y-140207500D03*
X204185000Y-140207500D03*
X203685000Y-140207500D03*
D31*
X202997500Y-140895000D03*
X202997500Y-141395000D03*
X202997500Y-141895000D03*
X202997500Y-142395000D03*
X202997500Y-142895000D03*
X202997500Y-143395000D03*
X202997500Y-143895000D03*
X202997500Y-144395000D03*
X202997500Y-144895000D03*
X202997500Y-145395000D03*
X202997500Y-145895000D03*
X202997500Y-146395000D03*
D30*
X203685000Y-147082500D03*
X204185000Y-147082500D03*
X204685000Y-147082500D03*
X205185000Y-147082500D03*
X205685000Y-147082500D03*
X206185000Y-147082500D03*
X206685000Y-147082500D03*
X207185000Y-147082500D03*
X207685000Y-147082500D03*
X208185000Y-147082500D03*
X208685000Y-147082500D03*
X209185000Y-147082500D03*
D31*
X209872500Y-146395000D03*
X209872500Y-145895000D03*
X209872500Y-145395000D03*
X209872500Y-144895000D03*
X209872500Y-144395000D03*
X209872500Y-143895000D03*
X209872500Y-143395000D03*
X209872500Y-142895000D03*
X209872500Y-142395000D03*
X209872500Y-141895000D03*
X209872500Y-141395000D03*
X209872500Y-140895000D03*
D32*
X206435000Y-143645000D03*
%TD*%
D33*
%TO.C,J_CAM1*%
X221400000Y-143450000D03*
X222650000Y-143450000D03*
X223900000Y-143450000D03*
X225150000Y-143450000D03*
D34*
X219550000Y-140100000D03*
X227000000Y-140100000D03*
%TD*%
D14*
%TO.C,C_ISO*%
X193000000Y-154500000D03*
X193960000Y-154500000D03*
%TD*%
%TO.C,U_REG_1V2_CO*%
X204010000Y-168000000D03*
X204970000Y-168000000D03*
%TD*%
D33*
%TO.C,J_CAM2*%
X231625000Y-145450000D03*
X232875000Y-145450000D03*
X234125000Y-145450000D03*
X235375000Y-145450000D03*
D34*
X229775000Y-142100000D03*
X237225000Y-142100000D03*
%TD*%
D14*
%TO.C,U_REG_3V3_CO*%
X226540000Y-151000000D03*
X227500000Y-151000000D03*
%TD*%
%TO.C,U_REG_3V3_CI*%
X206530000Y-168000000D03*
X207490000Y-168000000D03*
%TD*%
D27*
%TO.C,U_REG_3V3_L*%
X200325000Y-151500000D03*
X201675000Y-151500000D03*
%TD*%
D16*
%TO.C,R2*%
X232480000Y-155000000D03*
X233500000Y-155000000D03*
%TD*%
D14*
%TO.C,C_ADM1*%
X175420000Y-136800000D03*
X176380000Y-136800000D03*
%TD*%
D33*
%TO.C,J_TOF*%
X231400000Y-161350000D03*
X232650000Y-161350000D03*
X233900000Y-161350000D03*
X235150000Y-161350000D03*
D34*
X229550000Y-158000000D03*
X237000000Y-158000000D03*
%TD*%
D35*
%TO.C,U_REG_3V3*%
X187862500Y-150550000D03*
X187862500Y-151500000D03*
X187862500Y-152450000D03*
X190137500Y-152450000D03*
X190137500Y-151500000D03*
X190137500Y-150550000D03*
%TD*%
D19*
%TO.C,J_LASER_DS*%
X235500000Y-154500000D03*
X236500000Y-154500000D03*
%TD*%
D16*
%TO.C,R_FB1B*%
X221480000Y-151000000D03*
X222500000Y-151000000D03*
%TD*%
D33*
%TO.C,J_SWD*%
X221125000Y-158000000D03*
X222375000Y-158000000D03*
X223625000Y-158000000D03*
X224875000Y-158000000D03*
D34*
X219275000Y-154650000D03*
X226725000Y-154650000D03*
%TD*%
D19*
%TO.C,J_TOF_DS*%
X223000000Y-162000000D03*
X224000000Y-162000000D03*
X225000000Y-162000000D03*
X226000000Y-162000000D03*
%TD*%
D16*
%TO.C,R_PG1*%
X192980000Y-156500000D03*
X194000000Y-156500000D03*
%TD*%
D30*
%TO.C,U5*%
X207250000Y-133062500D03*
X206750000Y-133062500D03*
X206250000Y-133062500D03*
X205750000Y-133062500D03*
X205250000Y-133062500D03*
X204750000Y-133062500D03*
X204250000Y-133062500D03*
X203750000Y-133062500D03*
D31*
X203062500Y-133750000D03*
X203062500Y-134250000D03*
X203062500Y-134750000D03*
X203062500Y-135250000D03*
X203062500Y-135750000D03*
X203062500Y-136250000D03*
X203062500Y-136750000D03*
X203062500Y-137250000D03*
D30*
X203750000Y-137937500D03*
X204250000Y-137937500D03*
X204750000Y-137937500D03*
X205250000Y-137937500D03*
X205750000Y-137937500D03*
X206250000Y-137937500D03*
X206750000Y-137937500D03*
X207250000Y-137937500D03*
D31*
X207937500Y-137250000D03*
X207937500Y-136750000D03*
X207937500Y-136250000D03*
X207937500Y-135750000D03*
X207937500Y-135250000D03*
X207937500Y-134750000D03*
X207937500Y-134250000D03*
X207937500Y-133750000D03*
D36*
X205500000Y-135500000D03*
%TD*%
D37*
%TO.C,Y1*%
X183500000Y-130000000D03*
X184900000Y-130000000D03*
%TD*%
D16*
%TO.C,J_CHASSIS_R*%
X218980000Y-145500000D03*
X220000000Y-145500000D03*
%TD*%
D15*
%TO.C,D5*%
X192500000Y-150850000D03*
X192500000Y-151500000D03*
X192500000Y-152150000D03*
X194400000Y-152150000D03*
X194400000Y-151500000D03*
X194400000Y-150850000D03*
%TD*%
D13*
%TO.C,MH2*%
X240743245Y-161628563D03*
%TD*%
D14*
%TO.C,C_ADM2*%
X175420000Y-138300000D03*
X176380000Y-138300000D03*
%TD*%
D21*
%TO.C,J_ETH_IN*%
X180350000Y-154000000D03*
X180350000Y-155250000D03*
X180350000Y-156500000D03*
X180350000Y-157750000D03*
X180350000Y-159000000D03*
D22*
X177150000Y-152150000D03*
X177150000Y-160850000D03*
%TD*%
D16*
%TO.C,R_SHIELD*%
X206480000Y-163500000D03*
X207500000Y-163500000D03*
%TD*%
D38*
%TO.C,CMC5*%
X182565000Y-168165000D03*
X182565000Y-169835000D03*
X183435000Y-169835000D03*
X183435000Y-168165000D03*
%TD*%
D39*
%TO.C,SJ_485*%
X212700000Y-137500000D03*
X214000000Y-137500000D03*
%TD*%
D15*
%TO.C,T1_D2*%
X218050000Y-147350000D03*
X218050000Y-148000000D03*
X218050000Y-148650000D03*
X219950000Y-148650000D03*
X219950000Y-148000000D03*
X219950000Y-147350000D03*
%TD*%
%TO.C,T2_D2*%
X188000000Y-155200000D03*
X188000000Y-155850000D03*
X188000000Y-156500000D03*
X189900000Y-156500000D03*
X189900000Y-155850000D03*
X189900000Y-155200000D03*
%TD*%
D40*
%TO.C,Q1*%
X232062500Y-151050000D03*
X232062500Y-152950000D03*
X233937500Y-152000000D03*
%TD*%
D16*
%TO.C,R1*%
X230000000Y-155000000D03*
X231020000Y-155000000D03*
%TD*%
D13*
%TO.C,MH4*%
X176893245Y-126089766D03*
%TD*%
D35*
%TO.C,U_REG_1V2*%
X184362500Y-164050000D03*
X184362500Y-165000000D03*
X184362500Y-165950000D03*
X186637500Y-165950000D03*
X186637500Y-165000000D03*
X186637500Y-164050000D03*
%TD*%
D13*
%TO.C,MH1*%
X240743245Y-140989622D03*
%TD*%
%TO.C,U_SOM*%
X218700000Y-164200000D03*
D41*
X183259000Y-162200000D03*
X216741000Y-162200000D03*
X183259000Y-139800000D03*
X216741000Y-139800000D03*
D13*
X181300000Y-137800000D03*
%TD*%
M02*
