%TF.GenerationSoftware,KiCad,Pcbnew,9.0.2+dfsg-1*%
%TF.CreationDate,2026-07-28T10:16:54-04:00*%
%TF.ProjectId,Jayne,4a61796e-652e-46b6-9963-61645f706362,-*%
%TF.SameCoordinates,Original*%
%TF.FileFunction,Copper,L1,Top*%
%TF.FilePolarity,Positive*%
%FSLAX46Y46*%
G04 Gerber Fmt 4.6, Leading zero omitted, Abs format (unit mm)*
G04 Created by KiCad (PCBNEW 9.0.2+dfsg-1) date 2026-07-28 10:16:54*
%MOMM*%
%LPD*%
G01*
G04 APERTURE LIST*
G04 Aperture macros list*
%AMRoundRect*
0 Rectangle with rounded corners*
0 $1 Rounding radius*
0 $2 $3 $4 $5 $6 $7 $8 $9 X,Y pos of 4 corners*
0 Add a 4 corners polygon primitive as box body*
4,1,4,$2,$3,$4,$5,$6,$7,$8,$9,$2,$3,0*
0 Add four circle primitives for the rounded corners*
1,1,$1+$1,$2,$3*
1,1,$1+$1,$4,$5*
1,1,$1+$1,$6,$7*
1,1,$1+$1,$8,$9*
0 Add four rect primitives between the rounded corners*
20,1,$1+$1,$2,$3,$4,$5,0*
20,1,$1+$1,$4,$5,$6,$7,0*
20,1,$1+$1,$6,$7,$8,$9,0*
20,1,$1+$1,$8,$9,$2,$3,0*%
G04 Aperture macros list end*
%TA.AperFunction,SMDPad,CuDef*%
%ADD10R,1.000000X0.230000*%
%TD*%
%TA.AperFunction,SMDPad,CuDef*%
%ADD11R,0.230000X1.000000*%
%TD*%
%TA.AperFunction,SMDPad,CuDef*%
%ADD12R,9.600000X9.600000*%
%TD*%
%TA.AperFunction,SMDPad,CuDef*%
%ADD13RoundRect,0.140000X-0.140000X-0.170000X0.140000X-0.170000X0.140000X0.170000X-0.140000X0.170000X0*%
%TD*%
%TA.AperFunction,SMDPad,CuDef*%
%ADD14RoundRect,0.100000X-0.225000X-0.100000X0.225000X-0.100000X0.225000X0.100000X-0.225000X0.100000X0*%
%TD*%
%TA.AperFunction,SMDPad,CuDef*%
%ADD15RoundRect,0.135000X-0.135000X-0.185000X0.135000X-0.185000X0.135000X0.185000X-0.135000X0.185000X0*%
%TD*%
%TA.AperFunction,SMDPad,CuDef*%
%ADD16RoundRect,0.150000X0.700000X-0.150000X0.700000X0.150000X-0.700000X0.150000X-0.700000X-0.150000X0*%
%TD*%
%TA.AperFunction,SMDPad,CuDef*%
%ADD17RoundRect,0.250000X1.150000X-0.250000X1.150000X0.250000X-1.150000X0.250000X-1.150000X-0.250000X0*%
%TD*%
%TA.AperFunction,SMDPad,CuDef*%
%ADD18RoundRect,0.175000X-0.175000X-0.625000X0.175000X-0.625000X0.175000X0.625000X-0.175000X0.625000X0*%
%TD*%
%TA.AperFunction,SMDPad,CuDef*%
%ADD19RoundRect,0.100000X0.100000X-0.225000X0.100000X0.225000X-0.100000X0.225000X-0.100000X-0.225000X0*%
%TD*%
%TA.AperFunction,SMDPad,CuDef*%
%ADD20RoundRect,0.150000X-0.700000X0.150000X-0.700000X-0.150000X0.700000X-0.150000X0.700000X0.150000X0*%
%TD*%
%TA.AperFunction,SMDPad,CuDef*%
%ADD21RoundRect,0.250000X-1.100000X0.250000X-1.100000X-0.250000X1.100000X-0.250000X1.100000X0.250000X0*%
%TD*%
%TA.AperFunction,SMDPad,CuDef*%
%ADD22RoundRect,0.025500X0.354500X-0.229500X0.354500X0.229500X-0.354500X0.229500X-0.354500X-0.229500X0*%
%TD*%
%TA.AperFunction,SMDPad,CuDef*%
%ADD23RoundRect,0.150000X-0.150000X0.875000X-0.150000X-0.875000X0.150000X-0.875000X0.150000X0.875000X0*%
%TD*%
%TA.AperFunction,SMDPad,CuDef*%
%ADD24RoundRect,0.150000X-0.150000X-0.625000X0.150000X-0.625000X0.150000X0.625000X-0.150000X0.625000X0*%
%TD*%
%TA.AperFunction,SMDPad,CuDef*%
%ADD25RoundRect,0.250000X-0.350000X-0.650000X0.350000X-0.650000X0.350000X0.650000X-0.350000X0.650000X0*%
%TD*%
%TA.AperFunction,SMDPad,CuDef*%
%ADD26R,0.650000X2.000000*%
%TD*%
%TA.AperFunction,SMDPad,CuDef*%
%ADD27RoundRect,0.150000X0.150000X-0.512500X0.150000X0.512500X-0.150000X0.512500X-0.150000X-0.512500X0*%
%TD*%
%TA.AperFunction,SMDPad,CuDef*%
%ADD28RoundRect,0.150000X0.150000X-0.875000X0.150000X0.875000X-0.150000X0.875000X-0.150000X-0.875000X0*%
%TD*%
%TA.AperFunction,SMDPad,CuDef*%
%ADD29RoundRect,0.062500X-0.062500X0.375000X-0.062500X-0.375000X0.062500X-0.375000X0.062500X0.375000X0*%
%TD*%
%TA.AperFunction,SMDPad,CuDef*%
%ADD30RoundRect,0.062500X-0.375000X0.062500X-0.375000X-0.062500X0.375000X-0.062500X0.375000X0.062500X0*%
%TD*%
%TA.AperFunction,HeatsinkPad*%
%ADD31R,5.150000X5.150000*%
%TD*%
%TA.AperFunction,SMDPad,CuDef*%
%ADD32RoundRect,0.150000X-0.150000X-0.700000X0.150000X-0.700000X0.150000X0.700000X-0.150000X0.700000X0*%
%TD*%
%TA.AperFunction,SMDPad,CuDef*%
%ADD33RoundRect,0.250000X-0.250000X-1.150000X0.250000X-1.150000X0.250000X1.150000X-0.250000X1.150000X0*%
%TD*%
%TA.AperFunction,SMDPad,CuDef*%
%ADD34RoundRect,0.150000X-0.512500X-0.150000X0.512500X-0.150000X0.512500X0.150000X-0.512500X0.150000X0*%
%TD*%
%TA.AperFunction,HeatsinkPad*%
%ADD35R,3.450000X3.450000*%
%TD*%
%TA.AperFunction,SMDPad,CuDef*%
%ADD36RoundRect,0.150000X-0.150000X-0.400000X0.150000X-0.400000X0.150000X0.400000X-0.150000X0.400000X0*%
%TD*%
%TA.AperFunction,SMDPad,CuDef*%
%ADD37RoundRect,0.025500X-0.229500X-0.354500X0.229500X-0.354500X0.229500X0.354500X-0.229500X0.354500X0*%
%TD*%
%TA.AperFunction,SMDPad,CuDef*%
%ADD38R,1.000000X1.500000*%
%TD*%
%TA.AperFunction,SMDPad,CuDef*%
%ADD39RoundRect,0.150000X-0.587500X-0.150000X0.587500X-0.150000X0.587500X0.150000X-0.587500X0.150000X0*%
%TD*%
G04 APERTURE END LIST*
D10*
%TO.P,U2,1*%
%TO.N,ETH_IN_KSZ_TXP*%
X184800000Y-134300000D03*
%TO.P,U2,2*%
%TO.N,ETH_IN_KSZ_TXN*%
X184800000Y-134700000D03*
%TO.P,U2,3*%
%TO.N,+1V2*%
X184800000Y-135100000D03*
%TO.P,U2,4*%
%TO.N,ETH_IN_KSZ_RXP*%
X184800000Y-135500000D03*
%TO.P,U2,5*%
%TO.N,ETH_IN_KSZ_RXN*%
X184800000Y-135900000D03*
%TO.P,U2,6*%
%TO.N,N/C*%
X184800000Y-136300000D03*
%TO.P,U2,7*%
X184800000Y-136700000D03*
%TO.P,U2,8*%
X184800000Y-137100000D03*
%TO.P,U2,9*%
X184800000Y-137500000D03*
%TO.P,U2,10*%
%TO.N,+2V5*%
X184800000Y-137900000D03*
%TO.P,U2,11*%
%TO.N,+1V2*%
X184800000Y-138300000D03*
%TO.P,U2,12*%
%TO.N,ETH_OUT_KSZ_TXP*%
X184800000Y-138700000D03*
%TO.P,U2,13*%
%TO.N,ETH_OUT_KSZ_TXN*%
X184800000Y-139100000D03*
%TO.P,U2,14*%
%TO.N,+1V2*%
X184800000Y-139500000D03*
%TO.P,U2,15*%
%TO.N,ETH_OUT_KSZ_RXP*%
X184800000Y-139900000D03*
%TO.P,U2,16*%
%TO.N,ETH_OUT_KSZ_RXN*%
X184800000Y-140300000D03*
%TO.P,U2,17*%
%TO.N,N/C*%
X184800000Y-140700000D03*
%TO.P,U2,18*%
X184800000Y-141100000D03*
%TO.P,U2,19*%
%TO.N,+1V2*%
X184800000Y-141500000D03*
%TO.P,U2,20*%
%TO.N,N/C*%
X184800000Y-141900000D03*
%TO.P,U2,21*%
X184800000Y-142300000D03*
%TO.P,U2,22*%
%TO.N,+2V5*%
X184800000Y-142700000D03*
%TO.P,U2,23*%
%TO.N,+1V2*%
X184800000Y-143100000D03*
%TO.P,U2,24*%
%TO.N,N/C*%
X184800000Y-143500000D03*
%TO.P,U2,25*%
X184800000Y-143900000D03*
%TO.P,U2,26*%
X184800000Y-144300000D03*
%TO.P,U2,27*%
X184800000Y-144700000D03*
%TO.P,U2,28*%
X184800000Y-145100000D03*
%TO.P,U2,29*%
X184800000Y-145500000D03*
%TO.P,U2,30*%
%TO.N,+1V2*%
X184800000Y-145900000D03*
%TO.P,U2,31*%
%TO.N,N/C*%
X184800000Y-146300000D03*
%TO.P,U2,32*%
X184800000Y-146700000D03*
D11*
%TO.P,U2,33*%
%TO.N,+2V5*%
X186300000Y-148200000D03*
%TO.P,U2,34*%
%TO.N,N/C*%
X186700000Y-148200000D03*
%TO.P,U2,35*%
X187100000Y-148200000D03*
%TO.P,U2,36*%
%TO.N,+1V2*%
X187500000Y-148200000D03*
%TO.P,U2,37*%
%TO.N,N/C*%
X187900000Y-148200000D03*
%TO.P,U2,38*%
X188300000Y-148200000D03*
%TO.P,U2,39*%
X188700000Y-148200000D03*
%TO.P,U2,40*%
X189100000Y-148200000D03*
%TO.P,U2,41*%
%TO.N,+1V2*%
X189500000Y-148200000D03*
%TO.P,U2,42*%
%TO.N,N/C*%
X189900000Y-148200000D03*
%TO.P,U2,43*%
X190300000Y-148200000D03*
%TO.P,U2,44*%
%TO.N,+2V5*%
X190700000Y-148200000D03*
%TO.P,U2,45*%
%TO.N,+1V2*%
X191100000Y-148200000D03*
%TO.P,U2,46*%
%TO.N,GND*%
X191500000Y-148200000D03*
%TO.P,U2,47*%
X191900000Y-148200000D03*
%TO.P,U2,48*%
%TO.N,RGMII_K2S_C*%
X192300000Y-148200000D03*
%TO.P,U2,49*%
%TO.N,RGMII_K2S_CTL*%
X192700000Y-148200000D03*
%TO.P,U2,50*%
%TO.N,N/C*%
X193100000Y-148200000D03*
%TO.P,U2,51*%
X193500000Y-148200000D03*
%TO.P,U2,52*%
%TO.N,RGMII_K2S_D3*%
X193900000Y-148200000D03*
%TO.P,U2,53*%
%TO.N,RGMII_K2S_D2*%
X194300000Y-148200000D03*
%TO.P,U2,54*%
%TO.N,RGMII_K2S_D1*%
X194700000Y-148200000D03*
%TO.P,U2,55*%
%TO.N,RGMII_K2S_D0*%
X195100000Y-148200000D03*
%TO.P,U2,56*%
%TO.N,+1V2*%
X195500000Y-148200000D03*
%TO.P,U2,57*%
%TO.N,RGMII_S2K_C*%
X195900000Y-148200000D03*
%TO.P,U2,58*%
%TO.N,RGMII_S2K_CTL*%
X196300000Y-148200000D03*
%TO.P,U2,59*%
%TO.N,N/C*%
X196700000Y-148200000D03*
%TO.P,U2,60*%
X197100000Y-148200000D03*
%TO.P,U2,61*%
%TO.N,+3V3*%
X197500000Y-148200000D03*
%TO.P,U2,62*%
%TO.N,RGMII_S2K_D3*%
X197900000Y-148200000D03*
%TO.P,U2,63*%
%TO.N,RGMII_S2K_D2*%
X198300000Y-148200000D03*
%TO.P,U2,64*%
%TO.N,RGMII_S2K_D1*%
X198700000Y-148200000D03*
D10*
%TO.P,U2,65*%
%TO.N,RGMII_S2K_D0*%
X200200000Y-146700000D03*
%TO.P,U2,66*%
%TO.N,+1V2*%
X200200000Y-146300000D03*
%TO.P,U2,67*%
%TO.N,N/C*%
X200200000Y-145900000D03*
%TO.P,U2,68*%
%TO.N,+3V3*%
X200200000Y-145500000D03*
%TO.P,U2,69*%
%TO.N,GND*%
X200200000Y-145100000D03*
%TO.P,U2,70*%
%TO.N,+1V2*%
X200200000Y-144700000D03*
%TO.P,U2,71*%
X200200000Y-144300000D03*
%TO.P,U2,72*%
%TO.N,+2V5*%
X200200000Y-143900000D03*
%TO.P,U2,73*%
%TO.N,N/C*%
X200200000Y-143500000D03*
%TO.P,U2,74*%
X200200000Y-143100000D03*
%TO.P,U2,75*%
%TO.N,GND*%
X200200000Y-142700000D03*
%TO.P,U2,76*%
%TO.N,KSZ_SREXT*%
X200200000Y-142300000D03*
%TO.P,U2,77*%
%TO.N,GND*%
X200200000Y-141900000D03*
%TO.P,U2,78*%
%TO.N,N/C*%
X200200000Y-141500000D03*
%TO.P,U2,79*%
X200200000Y-141100000D03*
%TO.P,U2,80*%
%TO.N,GND*%
X200200000Y-140700000D03*
%TO.P,U2,81*%
%TO.N,N/C*%
X200200000Y-140300000D03*
%TO.P,U2,82*%
X200200000Y-139900000D03*
%TO.P,U2,83*%
%TO.N,+2V5*%
X200200000Y-139500000D03*
%TO.P,U2,84*%
%TO.N,+1V2*%
X200200000Y-139100000D03*
%TO.P,U2,85*%
%TO.N,N/C*%
X200200000Y-138700000D03*
%TO.P,U2,86*%
X200200000Y-138300000D03*
%TO.P,U2,87*%
%TO.N,+1V2*%
X200200000Y-137900000D03*
%TO.P,U2,88*%
%TO.N,N/C*%
X200200000Y-137500000D03*
%TO.P,U2,89*%
X200200000Y-137100000D03*
%TO.P,U2,90*%
X200200000Y-136700000D03*
%TO.P,U2,91*%
X200200000Y-136300000D03*
%TO.P,U2,92*%
X200200000Y-135900000D03*
%TO.P,U2,93*%
X200200000Y-135500000D03*
%TO.P,U2,94*%
%TO.N,SW_INT_N*%
X200200000Y-135100000D03*
%TO.P,U2,95*%
%TO.N,N/C*%
X200200000Y-134700000D03*
%TO.P,U2,96*%
%TO.N,SW_RESET_N*%
X200200000Y-134300000D03*
D11*
%TO.P,U2,97*%
%TO.N,SW_SPI_MISO*%
X198700000Y-132800000D03*
%TO.P,U2,98*%
%TO.N,SW_SPI_MOSI*%
X198300000Y-132800000D03*
%TO.P,U2,99*%
%TO.N,+3V3*%
X197900000Y-132800000D03*
%TO.P,U2,100*%
%TO.N,SW_SPI_CS*%
X197500000Y-132800000D03*
%TO.P,U2,101*%
%TO.N,SW_SPI_SCK*%
X197100000Y-132800000D03*
%TO.P,U2,102*%
%TO.N,N/C*%
X196700000Y-132800000D03*
%TO.P,U2,103*%
X196300000Y-132800000D03*
%TO.P,U2,104*%
%TO.N,+1V2*%
X195900000Y-132800000D03*
%TO.P,U2,105*%
%TO.N,N/C*%
X195500000Y-132800000D03*
%TO.P,U2,106*%
X195100000Y-132800000D03*
%TO.P,U2,107*%
%TO.N,GND*%
X194700000Y-132800000D03*
%TO.P,U2,108*%
%TO.N,N/C*%
X194300000Y-132800000D03*
%TO.P,U2,109*%
%TO.N,GND*%
X193900000Y-132800000D03*
%TO.P,U2,110*%
%TO.N,+1V2*%
X193500000Y-132800000D03*
%TO.P,U2,111*%
%TO.N,+2V5*%
X193100000Y-132800000D03*
%TO.P,U2,112*%
%TO.N,N/C*%
X192700000Y-132800000D03*
%TO.P,U2,113*%
X192300000Y-132800000D03*
%TO.P,U2,114*%
%TO.N,+1V2*%
X191900000Y-132800000D03*
%TO.P,U2,115*%
%TO.N,N/C*%
X191500000Y-132800000D03*
%TO.P,U2,116*%
X191100000Y-132800000D03*
%TO.P,U2,117*%
X190700000Y-132800000D03*
%TO.P,U2,118*%
X190300000Y-132800000D03*
%TO.P,U2,119*%
%TO.N,+1V2*%
X189900000Y-132800000D03*
%TO.P,U2,120*%
%TO.N,N/C*%
X189500000Y-132800000D03*
%TO.P,U2,121*%
X189100000Y-132800000D03*
%TO.P,U2,122*%
%TO.N,+2V5*%
X188700000Y-132800000D03*
%TO.P,U2,123*%
%TO.N,GND*%
X188300000Y-132800000D03*
%TO.P,U2,124*%
%TO.N,+1V2*%
X187900000Y-132800000D03*
%TO.P,U2,125*%
%TO.N,KSZ_XO*%
X187500000Y-132800000D03*
%TO.P,U2,126*%
%TO.N,KSZ_XI*%
X187100000Y-132800000D03*
%TO.P,U2,127*%
%TO.N,KSZ_ISET*%
X186700000Y-132800000D03*
%TO.P,U2,128*%
%TO.N,+2V5*%
X186300000Y-132800000D03*
D12*
%TO.P,U2,129*%
%TO.N,GND*%
X192500000Y-140500000D03*
%TD*%
D13*
%TO.P,C_2V5I,1*%
%TO.N,+3V3*%
X195500000Y-154500000D03*
%TO.P,C_2V5I,2*%
%TO.N,GND*%
X196460000Y-154500000D03*
%TD*%
D14*
%TO.P,T1_D1,1*%
%TO.N,ETH_IN_TXP*%
X196500000Y-150350000D03*
%TO.P,T1_D1,2*%
%TO.N,ETH_IN_TXN*%
X196500000Y-151000000D03*
%TO.P,T1_D1,3*%
%TO.N,GND*%
X196500000Y-151650000D03*
%TO.P,T1_D1,4*%
%TO.N,N/C*%
X198400000Y-151650000D03*
%TO.P,T1_D1,5*%
X198400000Y-151000000D03*
%TO.P,T1_D1,6*%
X198400000Y-150350000D03*
%TD*%
D15*
%TO.P,R_PG3,1*%
%TO.N,+3V3*%
X195520000Y-156500000D03*
%TO.P,R_PG3,2*%
%TO.N,+3V3_PG*%
X196540000Y-156500000D03*
%TD*%
D13*
%TO.P,C_VISO,1*%
%TO.N,CANFD_VISO*%
X206540000Y-166500000D03*
%TO.P,C_VISO,2*%
%TO.N,CANFD_ISOGND*%
X207500000Y-166500000D03*
%TD*%
D16*
%TO.P,J_PWR,1*%
%TO.N,GND*%
X180500000Y-132750000D03*
%TO.P,J_PWR,2*%
%TO.N,+5V*%
X180500000Y-131500000D03*
D17*
%TO.P,J_PWR,MP*%
%TO.N,N/C*%
X177150000Y-134600000D03*
X177150000Y-129650000D03*
%TD*%
D13*
%TO.P,U_REG_1V2_CI,1*%
%TO.N,+5V*%
X225540000Y-145500000D03*
%TO.P,U_REG_1V2_CI,2*%
%TO.N,GND*%
X226500000Y-145500000D03*
%TD*%
D18*
%TO.P,J_CAM_DS,1*%
%TO.N,CSI_CLK_P*%
X226000000Y-148500000D03*
%TO.P,J_CAM_DS,2*%
%TO.N,CSI_CLK_N*%
X227000000Y-148500000D03*
%TO.P,J_CAM_DS,3*%
%TO.N,CSI_D0_P*%
X228000000Y-148500000D03*
%TO.P,J_CAM_DS,4*%
%TO.N,CSI_D0_N*%
X229000000Y-148500000D03*
%TO.P,J_CAM_DS,5*%
%TO.N,CAM_SDA*%
X230000000Y-148500000D03*
%TO.P,J_CAM_DS,6*%
%TO.N,CAM_SCL*%
X231000000Y-148500000D03*
%TO.P,J_CAM_DS,7*%
%TO.N,CAM_RESET_N*%
X232000000Y-148500000D03*
%TO.P,J_CAM_DS,8*%
%TO.N,+3V3*%
X233000000Y-148500000D03*
%TO.P,J_CAM_DS,9*%
%TO.N,GND*%
X234000000Y-148500000D03*
%TD*%
D19*
%TO.P,T2_D1,1*%
%TO.N,ETH_OUT_TXP*%
X215500000Y-143400000D03*
%TO.P,T2_D1,2*%
%TO.N,ETH_OUT_TXN*%
X216150000Y-143400000D03*
%TO.P,T2_D1,3*%
%TO.N,GND*%
X216800000Y-143400000D03*
%TO.P,T2_D1,4*%
%TO.N,N/C*%
X216800000Y-141500000D03*
%TO.P,T2_D1,5*%
X216150000Y-141500000D03*
%TO.P,T2_D1,6*%
X215500000Y-141500000D03*
%TD*%
D15*
%TO.P,R_PORZ,1*%
%TO.N,+3V3*%
X198490000Y-156500000D03*
%TO.P,R_PORZ,2*%
%TO.N,SOC_PORZ*%
X199510000Y-156500000D03*
%TD*%
%TO.P,R_REXT,1*%
%TO.N,KSZ_SREXT*%
X203940000Y-163500000D03*
%TO.P,R_REXT,2*%
%TO.N,GND*%
X204960000Y-163500000D03*
%TD*%
D20*
%TO.P,J_ETH_OUT,1*%
%TO.N,PGND_SHIELD*%
X180350000Y-142500000D03*
%TO.P,J_ETH_OUT,2*%
%TO.N,ETH_OUT_TXP*%
X180350000Y-143750000D03*
%TO.P,J_ETH_OUT,3*%
%TO.N,ETH_OUT_TXN*%
X180350000Y-145000000D03*
%TO.P,J_ETH_OUT,4*%
%TO.N,ETH_OUT_RXP*%
X180350000Y-146250000D03*
%TO.P,J_ETH_OUT,5*%
%TO.N,ETH_OUT_RXN*%
X180350000Y-147500000D03*
D21*
%TO.P,J_ETH_OUT,MP*%
%TO.N,N/C*%
X177150000Y-140650000D03*
X177150000Y-149350000D03*
%TD*%
D15*
%TO.P,R_FB3B,1*%
%TO.N,U_REG_3V3_FB*%
X206402164Y-165000000D03*
%TO.P,R_FB3B,2*%
%TO.N,GND*%
X207422164Y-165000000D03*
%TD*%
D13*
%TO.P,C_VCORE,1*%
%TO.N,MCU_VCORE*%
X204010000Y-166500000D03*
%TO.P,C_VCORE,2*%
%TO.N,GND*%
X204970000Y-166500000D03*
%TD*%
D16*
%TO.P,J_CANFD,1*%
%TO.N,+5V*%
X179950000Y-170375000D03*
%TO.P,J_CANFD,2*%
%TO.N,CANFD_H*%
X179950000Y-169125000D03*
%TO.P,J_CANFD,3*%
%TO.N,CANFD_L*%
X179950000Y-167875000D03*
%TO.P,J_CANFD,4*%
%TO.N,GND*%
X179950000Y-166625000D03*
D17*
%TO.P,J_CANFD,MP*%
%TO.N,N/C*%
X176600000Y-172225000D03*
X176600000Y-164775000D03*
%TD*%
D22*
%TO.P,T2_CMC1,1*%
%TO.N,ETH_OUT_LTXP*%
X184165000Y-156935000D03*
%TO.P,T2_CMC1,2*%
%TO.N,ETH_OUT_TXP*%
X185835000Y-156935000D03*
%TO.P,T2_CMC1,3*%
%TO.N,ETH_OUT_LTXN*%
X185835000Y-156065000D03*
%TO.P,T2_CMC1,4*%
%TO.N,ETH_OUT_TXN*%
X184165000Y-156065000D03*
%TD*%
D23*
%TO.P,U4,1*%
%TO.N,+3V3*%
X200715000Y-159350000D03*
%TO.P,U4,2*%
%TO.N,N/C*%
X199445000Y-159350000D03*
%TO.P,U4,3*%
%TO.N,CANFD_TX*%
X198175000Y-159350000D03*
%TO.P,U4,4*%
%TO.N,GND*%
X196905000Y-159350000D03*
%TO.P,U4,5*%
%TO.N,CANFD_RX*%
X195635000Y-159350000D03*
%TO.P,U4,6*%
%TO.N,GND*%
X194365000Y-159350000D03*
%TO.P,U4,7*%
%TO.N,N/C*%
X193095000Y-159350000D03*
%TO.P,U4,8*%
X191825000Y-159350000D03*
%TO.P,U4,9*%
%TO.N,+5V*%
X190555000Y-159350000D03*
%TO.P,U4,10*%
%TO.N,GND*%
X189285000Y-159350000D03*
%TO.P,U4,11*%
%TO.N,CANFD_ISOGND*%
X189285000Y-168650000D03*
%TO.P,U4,12*%
%TO.N,CANFD_VISO*%
X190555000Y-168650000D03*
%TO.P,U4,13*%
X191825000Y-168650000D03*
%TO.P,U4,14*%
%TO.N,N/C*%
X193095000Y-168650000D03*
%TO.P,U4,15*%
%TO.N,CANFD_ISOGND*%
X194365000Y-168650000D03*
%TO.P,U4,16*%
X195635000Y-168650000D03*
%TO.P,U4,17*%
X196905000Y-168650000D03*
%TO.P,U4,18*%
%TO.N,CANFD_ISO_L*%
X198175000Y-168650000D03*
%TO.P,U4,19*%
%TO.N,CANFD_ISO_H*%
X199445000Y-168650000D03*
%TO.P,U4,20*%
%TO.N,CANFD_VISO*%
X200715000Y-168650000D03*
%TD*%
D24*
%TO.P,J_LASER,1*%
%TO.N,+5V*%
X238000000Y-151525000D03*
%TO.P,J_LASER,2*%
%TO.N,LASER_CATHODE*%
X239000000Y-151525000D03*
D25*
%TO.P,J_LASER,MP*%
%TO.N,N/C*%
X236700000Y-149000000D03*
X240300000Y-149000000D03*
%TD*%
D15*
%TO.P,R_NRST,1*%
%TO.N,+3V3*%
X223980000Y-151000000D03*
%TO.P,R_NRST,2*%
%TO.N,MCU_NRST*%
X225000000Y-151000000D03*
%TD*%
D26*
%TO.P,U_REG_1V2_L,1*%
%TO.N,U_REG_1V2_SW*%
X185150000Y-169500000D03*
%TO.P,U_REG_1V2_L,2*%
%TO.N,+1V2*%
X186500000Y-169500000D03*
%TD*%
D15*
%TO.P,R_485TERM,1*%
%TO.N,RS485_A*%
X187980000Y-130500000D03*
%TO.P,R_485TERM,2*%
%TO.N,TERM485_MID*%
X189000000Y-130500000D03*
%TD*%
D27*
%TO.P,U_REG_2V5,1*%
%TO.N,+3V3*%
X221600000Y-148775000D03*
%TO.P,U_REG_2V5,2*%
%TO.N,GND*%
X222550000Y-148775000D03*
%TO.P,U_REG_2V5,3*%
%TO.N,+3V3*%
X223500000Y-148775000D03*
%TO.P,U_REG_2V5,4*%
%TO.N,N/C*%
X223500000Y-146500000D03*
%TO.P,U_REG_2V5,5*%
%TO.N,+2V5*%
X221600000Y-146500000D03*
%TD*%
D28*
%TO.P,U6,1*%
%TO.N,+3V3*%
X204285000Y-159650000D03*
%TO.P,U6,2*%
%TO.N,RS485_TX*%
X205555000Y-159650000D03*
%TO.P,U6,3*%
%TO.N,RS485_DE*%
X206825000Y-159650000D03*
%TO.P,U6,4*%
%TO.N,RS485_RX*%
X208095000Y-159650000D03*
%TO.P,U6,5*%
%TO.N,RS485_DE*%
X209365000Y-159650000D03*
%TO.P,U6,6*%
%TO.N,GND*%
X210635000Y-159650000D03*
%TO.P,U6,7*%
%TO.N,N/C*%
X211905000Y-159650000D03*
%TO.P,U6,8*%
%TO.N,RS485_FLT_N*%
X213175000Y-159650000D03*
%TO.P,U6,9*%
%TO.N,+3V3*%
X214445000Y-159650000D03*
%TO.P,U6,10*%
%TO.N,GND*%
X215715000Y-159650000D03*
%TO.P,U6,11*%
%TO.N,ISO_GND_485*%
X215715000Y-150350000D03*
%TO.P,U6,12*%
%TO.N,ISO_3V3_485*%
X214445000Y-150350000D03*
%TO.P,U6,13*%
%TO.N,ISO_GND_485*%
X213175000Y-150350000D03*
%TO.P,U6,14*%
%TO.N,N/C*%
X211905000Y-150350000D03*
%TO.P,U6,15*%
%TO.N,ISO_GND_485*%
X210635000Y-150350000D03*
%TO.P,U6,16*%
%TO.N,ISO_3V3_485*%
X209365000Y-150350000D03*
%TO.P,U6,17*%
%TO.N,RS485_A*%
X208095000Y-150350000D03*
%TO.P,U6,18*%
%TO.N,RS485_B*%
X206825000Y-150350000D03*
%TO.P,U6,19*%
X205555000Y-150350000D03*
%TO.P,U6,20*%
%TO.N,RS485_A*%
X204285000Y-150350000D03*
%TD*%
D15*
%TO.P,R_FB1T,1*%
%TO.N,+1V2*%
X203862164Y-165000000D03*
%TO.P,R_FB1T,2*%
%TO.N,U_REG_1V2_FB*%
X204882164Y-165000000D03*
%TD*%
%TO.P,R_FB3T,1*%
%TO.N,+3V3*%
X228980000Y-151000000D03*
%TO.P,R_FB3T,2*%
%TO.N,U_REG_3V3_FB*%
X230000000Y-151000000D03*
%TD*%
%TO.P,R_ISET,1*%
%TO.N,KSZ_ISET*%
X228980000Y-152500000D03*
%TO.P,R_ISET,2*%
%TO.N,GND*%
X230000000Y-152500000D03*
%TD*%
D22*
%TO.P,T2_CMC2,1*%
%TO.N,ETH_OUT_LRXP*%
X184165000Y-159935000D03*
%TO.P,T2_CMC2,2*%
%TO.N,ETH_OUT_RXP*%
X185835000Y-159935000D03*
%TO.P,T2_CMC2,3*%
%TO.N,ETH_OUT_LRXN*%
X185835000Y-159065000D03*
%TO.P,T2_CMC2,4*%
%TO.N,ETH_OUT_RXN*%
X184165000Y-159065000D03*
%TD*%
%TO.P,T1_CMC2,1*%
%TO.N,ETH_IN_LRXP*%
X184000000Y-154000000D03*
%TO.P,T1_CMC2,2*%
%TO.N,ETH_IN_RXP*%
X185670000Y-154000000D03*
%TO.P,T1_CMC2,3*%
%TO.N,ETH_IN_LRXN*%
X185670000Y-153130000D03*
%TO.P,T1_CMC2,4*%
%TO.N,ETH_IN_RXN*%
X184000000Y-153130000D03*
%TD*%
D13*
%TO.P,C_2V5O,1*%
%TO.N,+2V5*%
X198500000Y-154500000D03*
%TO.P,C_2V5O,2*%
%TO.N,GND*%
X199460000Y-154500000D03*
%TD*%
D22*
%TO.P,T1_CMC1,1*%
%TO.N,ETH_IN_LTXP*%
X184000000Y-151370000D03*
%TO.P,T1_CMC1,2*%
%TO.N,ETH_IN_TXP*%
X185670000Y-151370000D03*
%TO.P,T1_CMC1,3*%
%TO.N,ETH_IN_LTXN*%
X185670000Y-150500000D03*
%TO.P,T1_CMC1,4*%
%TO.N,ETH_IN_TXN*%
X184000000Y-150500000D03*
%TD*%
D29*
%TO.P,U3,1*%
%TO.N,N/C*%
X209185000Y-140207500D03*
%TO.P,U3,2*%
X208685000Y-140207500D03*
%TO.P,U3,3*%
X208185000Y-140207500D03*
%TO.P,U3,4*%
%TO.N,MCU_NRST*%
X207685000Y-140207500D03*
%TO.P,U3,5*%
%TO.N,N/C*%
X207185000Y-140207500D03*
%TO.P,U3,6*%
%TO.N,+3V3*%
X206685000Y-140207500D03*
%TO.P,U3,7*%
%TO.N,GND*%
X206185000Y-140207500D03*
%TO.P,U3,8*%
%TO.N,TPM_SPI_CS*%
X205685000Y-140207500D03*
%TO.P,U3,9*%
%TO.N,N/C*%
X205185000Y-140207500D03*
%TO.P,U3,10*%
%TO.N,TPM_SPI_MISO*%
X204685000Y-140207500D03*
%TO.P,U3,11*%
%TO.N,TPM_SPI_MOSI*%
X204185000Y-140207500D03*
%TO.P,U3,12*%
%TO.N,TPM_SPI_SCK*%
X203685000Y-140207500D03*
D30*
%TO.P,U3,13*%
%TO.N,N/C*%
X202997500Y-140895000D03*
%TO.P,U3,14*%
%TO.N,RS485_DE*%
X202997500Y-141395000D03*
%TO.P,U3,15*%
%TO.N,N/C*%
X202997500Y-141895000D03*
%TO.P,U3,16*%
%TO.N,UART_TOF_TX*%
X202997500Y-142395000D03*
%TO.P,U3,17*%
%TO.N,UART_TOF_RX*%
X202997500Y-142895000D03*
%TO.P,U3,18*%
%TO.N,UART_M2A*%
X202997500Y-143395000D03*
%TO.P,U3,19*%
%TO.N,UART_A2M*%
X202997500Y-143895000D03*
%TO.P,U3,20*%
%TO.N,N/C*%
X202997500Y-144395000D03*
%TO.P,U3,21*%
X202997500Y-144895000D03*
%TO.P,U3,22*%
X202997500Y-145395000D03*
%TO.P,U3,23*%
X202997500Y-145895000D03*
%TO.P,U3,24*%
X202997500Y-146395000D03*
D29*
%TO.P,U3,25*%
%TO.N,RS485_TX*%
X203685000Y-147082500D03*
%TO.P,U3,26*%
%TO.N,RS485_RX*%
X204185000Y-147082500D03*
%TO.P,U3,27*%
%TO.N,CANFD_TX*%
X204685000Y-147082500D03*
%TO.P,U3,28*%
%TO.N,CANFD_RX*%
X205185000Y-147082500D03*
%TO.P,U3,29*%
%TO.N,N/C*%
X205685000Y-147082500D03*
%TO.P,U3,30*%
%TO.N,SW_SPI_CS*%
X206185000Y-147082500D03*
%TO.P,U3,31*%
%TO.N,SW_SPI_MISO*%
X206685000Y-147082500D03*
%TO.P,U3,32*%
%TO.N,SW_SPI_SCK*%
X207185000Y-147082500D03*
%TO.P,U3,33*%
%TO.N,SW_SPI_MOSI*%
X207685000Y-147082500D03*
%TO.P,U3,34*%
%TO.N,MCU_SWDIO*%
X208185000Y-147082500D03*
%TO.P,U3,35*%
%TO.N,MCU_SWCLK*%
X208685000Y-147082500D03*
%TO.P,U3,36*%
%TO.N,N/C*%
X209185000Y-147082500D03*
D30*
%TO.P,U3,37*%
X209872500Y-146395000D03*
%TO.P,U3,38*%
X209872500Y-145895000D03*
%TO.P,U3,39*%
%TO.N,SW_RESET_N*%
X209872500Y-145395000D03*
%TO.P,U3,40*%
%TO.N,LASER_EN*%
X209872500Y-144895000D03*
%TO.P,U3,41*%
%TO.N,N/C*%
X209872500Y-144395000D03*
%TO.P,U3,42*%
X209872500Y-143895000D03*
%TO.P,U3,43*%
X209872500Y-143395000D03*
%TO.P,U3,44*%
X209872500Y-142895000D03*
%TO.P,U3,45*%
%TO.N,SW_INT_N*%
X209872500Y-142395000D03*
%TO.P,U3,46*%
%TO.N,TPM_PIRQ*%
X209872500Y-141895000D03*
%TO.P,U3,47*%
%TO.N,TPM_RESET_N*%
X209872500Y-141395000D03*
%TO.P,U3,48*%
%TO.N,MCU_VCORE*%
X209872500Y-140895000D03*
D31*
%TO.P,U3,49*%
%TO.N,GND*%
X206435000Y-143645000D03*
%TD*%
D32*
%TO.P,J_CAM1,1*%
%TO.N,CSI_CLK_P*%
X221400000Y-143450000D03*
%TO.P,J_CAM1,2*%
%TO.N,CSI_CLK_N*%
X222650000Y-143450000D03*
%TO.P,J_CAM1,3*%
%TO.N,CSI_D0_P*%
X223900000Y-143450000D03*
%TO.P,J_CAM1,4*%
%TO.N,CSI_D0_N*%
X225150000Y-143450000D03*
D33*
%TO.P,J_CAM1,MP*%
%TO.N,N/C*%
X219550000Y-140100000D03*
X227000000Y-140100000D03*
%TD*%
D13*
%TO.P,C_ISO,1*%
%TO.N,GND*%
X193000000Y-154500000D03*
%TO.P,C_ISO,2*%
%TO.N,PGND*%
X193960000Y-154500000D03*
%TD*%
%TO.P,U_REG_1V2_CO,1*%
%TO.N,+1V2*%
X204010000Y-168000000D03*
%TO.P,U_REG_1V2_CO,2*%
%TO.N,GND*%
X204970000Y-168000000D03*
%TD*%
D32*
%TO.P,J_CAM2,1*%
%TO.N,CAM_SDA*%
X231625000Y-145450000D03*
%TO.P,J_CAM2,2*%
%TO.N,CAM_SCL*%
X232875000Y-145450000D03*
%TO.P,J_CAM2,3*%
%TO.N,CAM_RESET_N*%
X234125000Y-145450000D03*
%TO.P,J_CAM2,4*%
%TO.N,+3V3*%
X235375000Y-145450000D03*
D33*
%TO.P,J_CAM2,MP*%
%TO.N,N/C*%
X229775000Y-142100000D03*
X237225000Y-142100000D03*
%TD*%
D13*
%TO.P,U_REG_3V3_CO,1*%
%TO.N,+3V3*%
X226540000Y-151000000D03*
%TO.P,U_REG_3V3_CO,2*%
%TO.N,GND*%
X227500000Y-151000000D03*
%TD*%
%TO.P,U_REG_3V3_CI,1*%
%TO.N,+5V*%
X206530000Y-168000000D03*
%TO.P,U_REG_3V3_CI,2*%
%TO.N,GND*%
X207490000Y-168000000D03*
%TD*%
D26*
%TO.P,U_REG_3V3_L,1*%
%TO.N,U_REG_3V3_SW*%
X200325000Y-151500000D03*
%TO.P,U_REG_3V3_L,2*%
%TO.N,+3V3*%
X201675000Y-151500000D03*
%TD*%
D15*
%TO.P,R2,1*%
%TO.N,LASER_GATE*%
X232480000Y-155000000D03*
%TO.P,R2,2*%
%TO.N,GND*%
X233500000Y-155000000D03*
%TD*%
D13*
%TO.P,C_ADM1,1*%
%TO.N,+3V3*%
X175420000Y-136800000D03*
%TO.P,C_ADM1,2*%
%TO.N,GND*%
X176380000Y-136800000D03*
%TD*%
D32*
%TO.P,J_TOF,1*%
%TO.N,+5V*%
X231400000Y-161350000D03*
%TO.P,J_TOF,2*%
%TO.N,GND*%
X232650000Y-161350000D03*
%TO.P,J_TOF,3*%
%TO.N,UART_TOF_TX*%
X233900000Y-161350000D03*
%TO.P,J_TOF,4*%
%TO.N,UART_TOF_RX*%
X235150000Y-161350000D03*
D33*
%TO.P,J_TOF,MP*%
%TO.N,N/C*%
X229550000Y-158000000D03*
X237000000Y-158000000D03*
%TD*%
D34*
%TO.P,U_REG_3V3,1*%
%TO.N,+5V*%
X187862500Y-150550000D03*
%TO.P,U_REG_3V3,2*%
%TO.N,GND*%
X187862500Y-151500000D03*
%TO.P,U_REG_3V3,3*%
%TO.N,U_REG_3V3_SW*%
X187862500Y-152450000D03*
%TO.P,U_REG_3V3,4*%
%TO.N,+5V*%
X190137500Y-152450000D03*
%TO.P,U_REG_3V3,5*%
%TO.N,U_REG_3V3_FB*%
X190137500Y-151500000D03*
%TO.P,U_REG_3V3,6*%
%TO.N,+3V3_PG*%
X190137500Y-150550000D03*
%TD*%
D18*
%TO.P,J_LASER_DS,1*%
%TO.N,+5V*%
X235500000Y-154500000D03*
%TO.P,J_LASER_DS,2*%
%TO.N,LASER_CATHODE*%
X236500000Y-154500000D03*
%TD*%
D15*
%TO.P,R_FB1B,1*%
%TO.N,U_REG_1V2_FB*%
X221480000Y-151000000D03*
%TO.P,R_FB1B,2*%
%TO.N,GND*%
X222500000Y-151000000D03*
%TD*%
D32*
%TO.P,J_SWD,1*%
%TO.N,MCU_SWDIO*%
X221125000Y-158000000D03*
%TO.P,J_SWD,2*%
%TO.N,MCU_SWCLK*%
X222375000Y-158000000D03*
%TO.P,J_SWD,3*%
%TO.N,MCU_NRST*%
X223625000Y-158000000D03*
%TO.P,J_SWD,4*%
%TO.N,GND*%
X224875000Y-158000000D03*
D33*
%TO.P,J_SWD,MP*%
%TO.N,N/C*%
X219275000Y-154650000D03*
X226725000Y-154650000D03*
%TD*%
D18*
%TO.P,J_TOF_DS,1*%
%TO.N,+5V*%
X223000000Y-162000000D03*
%TO.P,J_TOF_DS,2*%
%TO.N,GND*%
X224000000Y-162000000D03*
%TO.P,J_TOF_DS,3*%
%TO.N,UART_TOF_TX*%
X225000000Y-162000000D03*
%TO.P,J_TOF_DS,4*%
%TO.N,UART_TOF_RX*%
X226000000Y-162000000D03*
%TD*%
D15*
%TO.P,R_PG1,1*%
%TO.N,+1V2*%
X192980000Y-156500000D03*
%TO.P,R_PG1,2*%
%TO.N,+1V2_PG*%
X194000000Y-156500000D03*
%TD*%
D29*
%TO.P,U5,1*%
%TO.N,N/C*%
X207250000Y-133062500D03*
%TO.P,U5,2*%
%TO.N,GND*%
X206750000Y-133062500D03*
%TO.P,U5,3*%
%TO.N,N/C*%
X206250000Y-133062500D03*
%TO.P,U5,4*%
X205750000Y-133062500D03*
%TO.P,U5,5*%
X205250000Y-133062500D03*
%TO.P,U5,6*%
X204750000Y-133062500D03*
%TO.P,U5,7*%
%TO.N,+3V3*%
X204250000Y-133062500D03*
%TO.P,U5,8*%
X203750000Y-133062500D03*
D30*
%TO.P,U5,9*%
%TO.N,GND*%
X203062500Y-133750000D03*
%TO.P,U5,10*%
%TO.N,N/C*%
X203062500Y-134250000D03*
%TO.P,U5,11*%
X203062500Y-134750000D03*
%TO.P,U5,12*%
X203062500Y-135250000D03*
%TO.P,U5,13*%
X203062500Y-135750000D03*
%TO.P,U5,14*%
X203062500Y-136250000D03*
%TO.P,U5,15*%
X203062500Y-136750000D03*
%TO.P,U5,16*%
X203062500Y-137250000D03*
D29*
%TO.P,U5,17*%
%TO.N,TPM_RESET_N*%
X203750000Y-137937500D03*
%TO.P,U5,18*%
%TO.N,TPM_PIRQ*%
X204250000Y-137937500D03*
%TO.P,U5,19*%
%TO.N,TPM_SPI_SCK*%
X204750000Y-137937500D03*
%TO.P,U5,20*%
%TO.N,TPM_SPI_CS*%
X205250000Y-137937500D03*
%TO.P,U5,21*%
%TO.N,TPM_SPI_MOSI*%
X205750000Y-137937500D03*
%TO.P,U5,22*%
%TO.N,+3V3*%
X206250000Y-137937500D03*
%TO.P,U5,23*%
%TO.N,GND*%
X206750000Y-137937500D03*
%TO.P,U5,24*%
%TO.N,TPM_SPI_MISO*%
X207250000Y-137937500D03*
D30*
%TO.P,U5,25*%
%TO.N,N/C*%
X207937500Y-137250000D03*
%TO.P,U5,26*%
X207937500Y-136750000D03*
%TO.P,U5,27*%
X207937500Y-136250000D03*
%TO.P,U5,28*%
X207937500Y-135750000D03*
%TO.P,U5,29*%
X207937500Y-135250000D03*
%TO.P,U5,30*%
X207937500Y-134750000D03*
%TO.P,U5,31*%
X207937500Y-134250000D03*
%TO.P,U5,32*%
%TO.N,GND*%
X207937500Y-133750000D03*
D35*
%TO.P,U5,33*%
%TO.N,N/C*%
X205500000Y-135500000D03*
%TD*%
D36*
%TO.P,Y1,1*%
%TO.N,KSZ_XI*%
X183500000Y-130000000D03*
%TO.P,Y1,2*%
%TO.N,KSZ_XO*%
X184900000Y-130000000D03*
%TD*%
D15*
%TO.P,J_CHASSIS_R,1*%
%TO.N,GND*%
X218980000Y-145500000D03*
%TO.P,J_CHASSIS_R,2*%
%TO.N,PGND*%
X220000000Y-145500000D03*
%TD*%
D14*
%TO.P,D5,1*%
%TO.N,CANFD_H*%
X192500000Y-150850000D03*
%TO.P,D5,2*%
%TO.N,CANFD_L*%
X192500000Y-151500000D03*
%TO.P,D5,3*%
%TO.N,PGND*%
X192500000Y-152150000D03*
%TO.P,D5,4*%
%TO.N,N/C*%
X194400000Y-152150000D03*
%TO.P,D5,5*%
X194400000Y-151500000D03*
%TO.P,D5,6*%
X194400000Y-150850000D03*
%TD*%
D13*
%TO.P,C_ADM2,1*%
%TO.N,ISO_3V3_485*%
X175420000Y-138300000D03*
%TO.P,C_ADM2,2*%
%TO.N,ISO_GND_485*%
X176380000Y-138300000D03*
%TD*%
D20*
%TO.P,J_ETH_IN,1*%
%TO.N,PGND_SHIELD*%
X180350000Y-154000000D03*
%TO.P,J_ETH_IN,2*%
%TO.N,ETH_IN_TXP*%
X180350000Y-155250000D03*
%TO.P,J_ETH_IN,3*%
%TO.N,ETH_IN_TXN*%
X180350000Y-156500000D03*
%TO.P,J_ETH_IN,4*%
%TO.N,ETH_IN_RXP*%
X180350000Y-157750000D03*
%TO.P,J_ETH_IN,5*%
%TO.N,ETH_IN_RXN*%
X180350000Y-159000000D03*
D21*
%TO.P,J_ETH_IN,MP*%
%TO.N,N/C*%
X177150000Y-152150000D03*
X177150000Y-160850000D03*
%TD*%
D15*
%TO.P,R_SHIELD,1*%
%TO.N,PGND*%
X206480000Y-163500000D03*
%TO.P,R_SHIELD,2*%
%TO.N,PGND_SHIELD*%
X207500000Y-163500000D03*
%TD*%
D37*
%TO.P,CMC5,1*%
%TO.N,CANFD_ISO_H*%
X182565000Y-168165000D03*
%TO.P,CMC5,2*%
%TO.N,CANFD_H*%
X182565000Y-169835000D03*
%TO.P,CMC5,3*%
%TO.N,CANFD_ISO_L*%
X183435000Y-169835000D03*
%TO.P,CMC5,4*%
%TO.N,CANFD_L*%
X183435000Y-168165000D03*
%TD*%
D38*
%TO.P,SJ_485,1*%
%TO.N,TERM485_MID*%
X212700000Y-137500000D03*
%TO.P,SJ_485,2*%
%TO.N,RS485_B*%
X214000000Y-137500000D03*
%TD*%
D14*
%TO.P,T1_D2,1*%
%TO.N,ETH_IN_RXP*%
X218050000Y-147350000D03*
%TO.P,T1_D2,2*%
%TO.N,ETH_IN_RXN*%
X218050000Y-148000000D03*
%TO.P,T1_D2,3*%
%TO.N,GND*%
X218050000Y-148650000D03*
%TO.P,T1_D2,4*%
%TO.N,N/C*%
X219950000Y-148650000D03*
%TO.P,T1_D2,5*%
X219950000Y-148000000D03*
%TO.P,T1_D2,6*%
X219950000Y-147350000D03*
%TD*%
%TO.P,T2_D2,1*%
%TO.N,ETH_OUT_RXP*%
X188000000Y-155200000D03*
%TO.P,T2_D2,2*%
%TO.N,ETH_OUT_RXN*%
X188000000Y-155850000D03*
%TO.P,T2_D2,3*%
%TO.N,GND*%
X188000000Y-156500000D03*
%TO.P,T2_D2,4*%
%TO.N,N/C*%
X189900000Y-156500000D03*
%TO.P,T2_D2,5*%
X189900000Y-155850000D03*
%TO.P,T2_D2,6*%
X189900000Y-155200000D03*
%TD*%
D39*
%TO.P,Q1,1*%
%TO.N,LASER_GATE*%
X232062500Y-151050000D03*
%TO.P,Q1,2*%
%TO.N,GND*%
X232062500Y-152950000D03*
%TO.P,Q1,3*%
%TO.N,LASER_CATHODE*%
X233937500Y-152000000D03*
%TD*%
D15*
%TO.P,R1,1*%
%TO.N,LASER_EN*%
X230000000Y-155000000D03*
%TO.P,R1,2*%
%TO.N,LASER_GATE*%
X231020000Y-155000000D03*
%TD*%
D34*
%TO.P,U_REG_1V2,1*%
%TO.N,+5V*%
X184362500Y-164050000D03*
%TO.P,U_REG_1V2,2*%
%TO.N,GND*%
X184362500Y-165000000D03*
%TO.P,U_REG_1V2,3*%
%TO.N,U_REG_1V2_SW*%
X184362500Y-165950000D03*
%TO.P,U_REG_1V2,4*%
%TO.N,+5V*%
X186637500Y-165950000D03*
%TO.P,U_REG_1V2,5*%
%TO.N,U_REG_1V2_FB*%
X186637500Y-165000000D03*
%TO.P,U_REG_1V2,6*%
%TO.N,+1V2_PG*%
X186637500Y-164050000D03*
%TD*%
M02*
