%TF.GenerationSoftware,KiCad,Pcbnew,9.0.2+dfsg-1*%
%TF.CreationDate,2026-07-28T10:16:54-04:00*%
%TF.ProjectId,Jayne,4a61796e-652e-46b6-9963-61645f706362,-*%
%TF.SameCoordinates,Original*%
%TF.FileFunction,AssemblyDrawing,Bot*%
%FSLAX46Y46*%
G04 Gerber Fmt 4.6, Leading zero omitted, Abs format (unit mm)*
G04 Created by KiCad (PCBNEW 9.0.2+dfsg-1) date 2026-07-28 10:16:54*
%MOMM*%
%LPD*%
G01*
G04 APERTURE LIST*
%ADD10C,0.050000*%
%ADD11C,0.150000*%
%ADD12C,0.100000*%
%ADD13C,0.120000*%
G04 APERTURE END LIST*
D10*
X237745433Y-158849997D02*
X237712100Y-158883330D01*
X237712100Y-158883330D02*
X237678766Y-158983330D01*
X237678766Y-158983330D02*
X237678766Y-159049997D01*
X237678766Y-159049997D02*
X237712100Y-159149997D01*
X237712100Y-159149997D02*
X237778766Y-159216664D01*
X237778766Y-159216664D02*
X237845433Y-159249997D01*
X237845433Y-159249997D02*
X237978766Y-159283330D01*
X237978766Y-159283330D02*
X238078766Y-159283330D01*
X238078766Y-159283330D02*
X238212100Y-159249997D01*
X238212100Y-159249997D02*
X238278766Y-159216664D01*
X238278766Y-159216664D02*
X238345433Y-159149997D01*
X238345433Y-159149997D02*
X238378766Y-159049997D01*
X238378766Y-159049997D02*
X238378766Y-158983330D01*
X238378766Y-158983330D02*
X238345433Y-158883330D01*
X238345433Y-158883330D02*
X238312100Y-158849997D01*
X237678766Y-158249997D02*
X238045433Y-158249997D01*
X238045433Y-158249997D02*
X238112100Y-158283330D01*
X238112100Y-158283330D02*
X238145433Y-158349997D01*
X238145433Y-158349997D02*
X238145433Y-158483330D01*
X238145433Y-158483330D02*
X238112100Y-158549997D01*
X237712100Y-158249997D02*
X237678766Y-158316664D01*
X237678766Y-158316664D02*
X237678766Y-158483330D01*
X237678766Y-158483330D02*
X237712100Y-158549997D01*
X237712100Y-158549997D02*
X237778766Y-158583330D01*
X237778766Y-158583330D02*
X237845433Y-158583330D01*
X237845433Y-158583330D02*
X237912100Y-158549997D01*
X237912100Y-158549997D02*
X237945433Y-158483330D01*
X237945433Y-158483330D02*
X237945433Y-158316664D01*
X237945433Y-158316664D02*
X237978766Y-158249997D01*
X237678766Y-157916664D02*
X238145433Y-157916664D01*
X238078766Y-157916664D02*
X238112100Y-157883331D01*
X238112100Y-157883331D02*
X238145433Y-157816664D01*
X238145433Y-157816664D02*
X238145433Y-157716664D01*
X238145433Y-157716664D02*
X238112100Y-157649997D01*
X238112100Y-157649997D02*
X238045433Y-157616664D01*
X238045433Y-157616664D02*
X237678766Y-157616664D01*
X238045433Y-157616664D02*
X238112100Y-157583331D01*
X238112100Y-157583331D02*
X238145433Y-157516664D01*
X238145433Y-157516664D02*
X238145433Y-157416664D01*
X238145433Y-157416664D02*
X238112100Y-157349997D01*
X238112100Y-157349997D02*
X238045433Y-157316664D01*
X238045433Y-157316664D02*
X237678766Y-157316664D01*
X237712100Y-156716664D02*
X237678766Y-156783331D01*
X237678766Y-156783331D02*
X237678766Y-156916664D01*
X237678766Y-156916664D02*
X237712100Y-156983331D01*
X237712100Y-156983331D02*
X237778766Y-157016664D01*
X237778766Y-157016664D02*
X238045433Y-157016664D01*
X238045433Y-157016664D02*
X238112100Y-156983331D01*
X238112100Y-156983331D02*
X238145433Y-156916664D01*
X238145433Y-156916664D02*
X238145433Y-156783331D01*
X238145433Y-156783331D02*
X238112100Y-156716664D01*
X238112100Y-156716664D02*
X238045433Y-156683331D01*
X238045433Y-156683331D02*
X237978766Y-156683331D01*
X237978766Y-156683331D02*
X237912100Y-157016664D01*
X237678766Y-156383331D02*
X238145433Y-156383331D01*
X238012100Y-156383331D02*
X238078766Y-156349998D01*
X238078766Y-156349998D02*
X238112100Y-156316664D01*
X238112100Y-156316664D02*
X238145433Y-156249998D01*
X238145433Y-156249998D02*
X238145433Y-156183331D01*
X237678766Y-155649998D02*
X238045433Y-155649998D01*
X238045433Y-155649998D02*
X238112100Y-155683331D01*
X238112100Y-155683331D02*
X238145433Y-155749998D01*
X238145433Y-155749998D02*
X238145433Y-155883331D01*
X238145433Y-155883331D02*
X238112100Y-155949998D01*
X237712100Y-155649998D02*
X237678766Y-155716665D01*
X237678766Y-155716665D02*
X237678766Y-155883331D01*
X237678766Y-155883331D02*
X237712100Y-155949998D01*
X237712100Y-155949998D02*
X237778766Y-155983331D01*
X237778766Y-155983331D02*
X237845433Y-155983331D01*
X237845433Y-155983331D02*
X237912100Y-155949998D01*
X237912100Y-155949998D02*
X237945433Y-155883331D01*
X237945433Y-155883331D02*
X237945433Y-155716665D01*
X237945433Y-155716665D02*
X237978766Y-155649998D01*
X237678766Y-154483332D02*
X238045433Y-154483332D01*
X238045433Y-154483332D02*
X238112100Y-154516665D01*
X238112100Y-154516665D02*
X238145433Y-154583332D01*
X238145433Y-154583332D02*
X238145433Y-154716665D01*
X238145433Y-154716665D02*
X238112100Y-154783332D01*
X237712100Y-154483332D02*
X237678766Y-154549999D01*
X237678766Y-154549999D02*
X237678766Y-154716665D01*
X237678766Y-154716665D02*
X237712100Y-154783332D01*
X237712100Y-154783332D02*
X237778766Y-154816665D01*
X237778766Y-154816665D02*
X237845433Y-154816665D01*
X237845433Y-154816665D02*
X237912100Y-154783332D01*
X237912100Y-154783332D02*
X237945433Y-154716665D01*
X237945433Y-154716665D02*
X237945433Y-154549999D01*
X237945433Y-154549999D02*
X237978766Y-154483332D01*
X238145433Y-154149999D02*
X237678766Y-154149999D01*
X238078766Y-154149999D02*
X238112100Y-154116666D01*
X238112100Y-154116666D02*
X238145433Y-154049999D01*
X238145433Y-154049999D02*
X238145433Y-153949999D01*
X238145433Y-153949999D02*
X238112100Y-153883332D01*
X238112100Y-153883332D02*
X238045433Y-153849999D01*
X238045433Y-153849999D02*
X237678766Y-153849999D01*
X237678766Y-153216666D02*
X238378766Y-153216666D01*
X237712100Y-153216666D02*
X237678766Y-153283333D01*
X237678766Y-153283333D02*
X237678766Y-153416666D01*
X237678766Y-153416666D02*
X237712100Y-153483333D01*
X237712100Y-153483333D02*
X237745433Y-153516666D01*
X237745433Y-153516666D02*
X237812100Y-153549999D01*
X237812100Y-153549999D02*
X238012100Y-153549999D01*
X238012100Y-153549999D02*
X238078766Y-153516666D01*
X238078766Y-153516666D02*
X238112100Y-153483333D01*
X238112100Y-153483333D02*
X238145433Y-153416666D01*
X238145433Y-153416666D02*
X238145433Y-153283333D01*
X238145433Y-153283333D02*
X238112100Y-153216666D01*
X237678766Y-152016667D02*
X237678766Y-152350000D01*
X237678766Y-152350000D02*
X238378766Y-152350000D01*
X237678766Y-151483333D02*
X238045433Y-151483333D01*
X238045433Y-151483333D02*
X238112100Y-151516666D01*
X238112100Y-151516666D02*
X238145433Y-151583333D01*
X238145433Y-151583333D02*
X238145433Y-151716666D01*
X238145433Y-151716666D02*
X238112100Y-151783333D01*
X237712100Y-151483333D02*
X237678766Y-151550000D01*
X237678766Y-151550000D02*
X237678766Y-151716666D01*
X237678766Y-151716666D02*
X237712100Y-151783333D01*
X237712100Y-151783333D02*
X237778766Y-151816666D01*
X237778766Y-151816666D02*
X237845433Y-151816666D01*
X237845433Y-151816666D02*
X237912100Y-151783333D01*
X237912100Y-151783333D02*
X237945433Y-151716666D01*
X237945433Y-151716666D02*
X237945433Y-151550000D01*
X237945433Y-151550000D02*
X237978766Y-151483333D01*
X237712100Y-151183333D02*
X237678766Y-151116667D01*
X237678766Y-151116667D02*
X237678766Y-150983333D01*
X237678766Y-150983333D02*
X237712100Y-150916667D01*
X237712100Y-150916667D02*
X237778766Y-150883333D01*
X237778766Y-150883333D02*
X237812100Y-150883333D01*
X237812100Y-150883333D02*
X237878766Y-150916667D01*
X237878766Y-150916667D02*
X237912100Y-150983333D01*
X237912100Y-150983333D02*
X237912100Y-151083333D01*
X237912100Y-151083333D02*
X237945433Y-151150000D01*
X237945433Y-151150000D02*
X238012100Y-151183333D01*
X238012100Y-151183333D02*
X238045433Y-151183333D01*
X238045433Y-151183333D02*
X238112100Y-151150000D01*
X238112100Y-151150000D02*
X238145433Y-151083333D01*
X238145433Y-151083333D02*
X238145433Y-150983333D01*
X238145433Y-150983333D02*
X238112100Y-150916667D01*
X237712100Y-150316666D02*
X237678766Y-150383333D01*
X237678766Y-150383333D02*
X237678766Y-150516666D01*
X237678766Y-150516666D02*
X237712100Y-150583333D01*
X237712100Y-150583333D02*
X237778766Y-150616666D01*
X237778766Y-150616666D02*
X238045433Y-150616666D01*
X238045433Y-150616666D02*
X238112100Y-150583333D01*
X238112100Y-150583333D02*
X238145433Y-150516666D01*
X238145433Y-150516666D02*
X238145433Y-150383333D01*
X238145433Y-150383333D02*
X238112100Y-150316666D01*
X238112100Y-150316666D02*
X238045433Y-150283333D01*
X238045433Y-150283333D02*
X237978766Y-150283333D01*
X237978766Y-150283333D02*
X237912100Y-150616666D01*
X237678766Y-149983333D02*
X238145433Y-149983333D01*
X238012100Y-149983333D02*
X238078766Y-149950000D01*
X238078766Y-149950000D02*
X238112100Y-149916666D01*
X238112100Y-149916666D02*
X238145433Y-149850000D01*
X238145433Y-149850000D02*
X238145433Y-149783333D01*
X237712100Y-149050000D02*
X237678766Y-148950000D01*
X237678766Y-148950000D02*
X237678766Y-148783334D01*
X237678766Y-148783334D02*
X237712100Y-148716667D01*
X237712100Y-148716667D02*
X237745433Y-148683334D01*
X237745433Y-148683334D02*
X237812100Y-148650000D01*
X237812100Y-148650000D02*
X237878766Y-148650000D01*
X237878766Y-148650000D02*
X237945433Y-148683334D01*
X237945433Y-148683334D02*
X237978766Y-148716667D01*
X237978766Y-148716667D02*
X238012100Y-148783334D01*
X238012100Y-148783334D02*
X238045433Y-148916667D01*
X238045433Y-148916667D02*
X238078766Y-148983334D01*
X238078766Y-148983334D02*
X238112100Y-149016667D01*
X238112100Y-149016667D02*
X238178766Y-149050000D01*
X238178766Y-149050000D02*
X238245433Y-149050000D01*
X238245433Y-149050000D02*
X238312100Y-149016667D01*
X238312100Y-149016667D02*
X238345433Y-148983334D01*
X238345433Y-148983334D02*
X238378766Y-148916667D01*
X238378766Y-148916667D02*
X238378766Y-148750000D01*
X238378766Y-148750000D02*
X238345433Y-148650000D01*
X237712100Y-148083333D02*
X237678766Y-148150000D01*
X237678766Y-148150000D02*
X237678766Y-148283333D01*
X237678766Y-148283333D02*
X237712100Y-148350000D01*
X237712100Y-148350000D02*
X237778766Y-148383333D01*
X237778766Y-148383333D02*
X238045433Y-148383333D01*
X238045433Y-148383333D02*
X238112100Y-148350000D01*
X238112100Y-148350000D02*
X238145433Y-148283333D01*
X238145433Y-148283333D02*
X238145433Y-148150000D01*
X238145433Y-148150000D02*
X238112100Y-148083333D01*
X238112100Y-148083333D02*
X238045433Y-148050000D01*
X238045433Y-148050000D02*
X237978766Y-148050000D01*
X237978766Y-148050000D02*
X237912100Y-148383333D01*
X238145433Y-147750000D02*
X237678766Y-147750000D01*
X238078766Y-147750000D02*
X238112100Y-147716667D01*
X238112100Y-147716667D02*
X238145433Y-147650000D01*
X238145433Y-147650000D02*
X238145433Y-147550000D01*
X238145433Y-147550000D02*
X238112100Y-147483333D01*
X238112100Y-147483333D02*
X238045433Y-147450000D01*
X238045433Y-147450000D02*
X237678766Y-147450000D01*
X237712100Y-147150000D02*
X237678766Y-147083334D01*
X237678766Y-147083334D02*
X237678766Y-146950000D01*
X237678766Y-146950000D02*
X237712100Y-146883334D01*
X237712100Y-146883334D02*
X237778766Y-146850000D01*
X237778766Y-146850000D02*
X237812100Y-146850000D01*
X237812100Y-146850000D02*
X237878766Y-146883334D01*
X237878766Y-146883334D02*
X237912100Y-146950000D01*
X237912100Y-146950000D02*
X237912100Y-147050000D01*
X237912100Y-147050000D02*
X237945433Y-147116667D01*
X237945433Y-147116667D02*
X238012100Y-147150000D01*
X238012100Y-147150000D02*
X238045433Y-147150000D01*
X238045433Y-147150000D02*
X238112100Y-147116667D01*
X238112100Y-147116667D02*
X238145433Y-147050000D01*
X238145433Y-147050000D02*
X238145433Y-146950000D01*
X238145433Y-146950000D02*
X238112100Y-146883334D01*
X237678766Y-146450000D02*
X237712100Y-146516667D01*
X237712100Y-146516667D02*
X237745433Y-146550000D01*
X237745433Y-146550000D02*
X237812100Y-146583333D01*
X237812100Y-146583333D02*
X238012100Y-146583333D01*
X238012100Y-146583333D02*
X238078766Y-146550000D01*
X238078766Y-146550000D02*
X238112100Y-146516667D01*
X238112100Y-146516667D02*
X238145433Y-146450000D01*
X238145433Y-146450000D02*
X238145433Y-146350000D01*
X238145433Y-146350000D02*
X238112100Y-146283333D01*
X238112100Y-146283333D02*
X238078766Y-146250000D01*
X238078766Y-146250000D02*
X238012100Y-146216667D01*
X238012100Y-146216667D02*
X237812100Y-146216667D01*
X237812100Y-146216667D02*
X237745433Y-146250000D01*
X237745433Y-146250000D02*
X237712100Y-146283333D01*
X237712100Y-146283333D02*
X237678766Y-146350000D01*
X237678766Y-146350000D02*
X237678766Y-146450000D01*
X237678766Y-145916667D02*
X238145433Y-145916667D01*
X238012100Y-145916667D02*
X238078766Y-145883334D01*
X238078766Y-145883334D02*
X238112100Y-145850000D01*
X238112100Y-145850000D02*
X238145433Y-145783334D01*
X238145433Y-145783334D02*
X238145433Y-145716667D01*
X237712100Y-144983334D02*
X237678766Y-144916668D01*
X237678766Y-144916668D02*
X237678766Y-144783334D01*
X237678766Y-144783334D02*
X237712100Y-144716668D01*
X237712100Y-144716668D02*
X237778766Y-144683334D01*
X237778766Y-144683334D02*
X237812100Y-144683334D01*
X237812100Y-144683334D02*
X237878766Y-144716668D01*
X237878766Y-144716668D02*
X237912100Y-144783334D01*
X237912100Y-144783334D02*
X237912100Y-144883334D01*
X237912100Y-144883334D02*
X237945433Y-144950001D01*
X237945433Y-144950001D02*
X238012100Y-144983334D01*
X238012100Y-144983334D02*
X238045433Y-144983334D01*
X238045433Y-144983334D02*
X238112100Y-144950001D01*
X238112100Y-144950001D02*
X238145433Y-144883334D01*
X238145433Y-144883334D02*
X238145433Y-144783334D01*
X238145433Y-144783334D02*
X238112100Y-144716668D01*
X238145433Y-144083334D02*
X237678766Y-144083334D01*
X238145433Y-144383334D02*
X237778766Y-144383334D01*
X237778766Y-144383334D02*
X237712100Y-144350001D01*
X237712100Y-144350001D02*
X237678766Y-144283334D01*
X237678766Y-144283334D02*
X237678766Y-144183334D01*
X237678766Y-144183334D02*
X237712100Y-144116667D01*
X237712100Y-144116667D02*
X237745433Y-144083334D01*
X237678766Y-143750001D02*
X238145433Y-143750001D01*
X238378766Y-143750001D02*
X238345433Y-143783334D01*
X238345433Y-143783334D02*
X238312100Y-143750001D01*
X238312100Y-143750001D02*
X238345433Y-143716668D01*
X238345433Y-143716668D02*
X238378766Y-143750001D01*
X238378766Y-143750001D02*
X238312100Y-143750001D01*
X238145433Y-143516668D02*
X238145433Y-143250001D01*
X238378766Y-143416668D02*
X237778766Y-143416668D01*
X237778766Y-143416668D02*
X237712100Y-143383335D01*
X237712100Y-143383335D02*
X237678766Y-143316668D01*
X237678766Y-143316668D02*
X237678766Y-143250001D01*
X237712100Y-142750001D02*
X237678766Y-142816668D01*
X237678766Y-142816668D02*
X237678766Y-142950001D01*
X237678766Y-142950001D02*
X237712100Y-143016668D01*
X237712100Y-143016668D02*
X237778766Y-143050001D01*
X237778766Y-143050001D02*
X238045433Y-143050001D01*
X238045433Y-143050001D02*
X238112100Y-143016668D01*
X238112100Y-143016668D02*
X238145433Y-142950001D01*
X238145433Y-142950001D02*
X238145433Y-142816668D01*
X238145433Y-142816668D02*
X238112100Y-142750001D01*
X238112100Y-142750001D02*
X238045433Y-142716668D01*
X238045433Y-142716668D02*
X237978766Y-142716668D01*
X237978766Y-142716668D02*
X237912100Y-143050001D01*
X236845433Y-160333330D02*
X236878766Y-160399997D01*
X236878766Y-160399997D02*
X236878766Y-160499997D01*
X236878766Y-160499997D02*
X236845433Y-160599997D01*
X236845433Y-160599997D02*
X236778766Y-160666664D01*
X236778766Y-160666664D02*
X236712100Y-160699997D01*
X236712100Y-160699997D02*
X236578766Y-160733330D01*
X236578766Y-160733330D02*
X236478766Y-160733330D01*
X236478766Y-160733330D02*
X236345433Y-160699997D01*
X236345433Y-160699997D02*
X236278766Y-160666664D01*
X236278766Y-160666664D02*
X236212100Y-160599997D01*
X236212100Y-160599997D02*
X236178766Y-160499997D01*
X236178766Y-160499997D02*
X236178766Y-160433330D01*
X236178766Y-160433330D02*
X236212100Y-160333330D01*
X236212100Y-160333330D02*
X236245433Y-160299997D01*
X236245433Y-160299997D02*
X236478766Y-160299997D01*
X236478766Y-160299997D02*
X236478766Y-160433330D01*
X236178766Y-159999997D02*
X236645433Y-159999997D01*
X236512100Y-159999997D02*
X236578766Y-159966664D01*
X236578766Y-159966664D02*
X236612100Y-159933330D01*
X236612100Y-159933330D02*
X236645433Y-159866664D01*
X236645433Y-159866664D02*
X236645433Y-159799997D01*
X236178766Y-159566664D02*
X236645433Y-159566664D01*
X236878766Y-159566664D02*
X236845433Y-159599997D01*
X236845433Y-159599997D02*
X236812100Y-159566664D01*
X236812100Y-159566664D02*
X236845433Y-159533331D01*
X236845433Y-159533331D02*
X236878766Y-159566664D01*
X236878766Y-159566664D02*
X236812100Y-159566664D01*
X236645433Y-159333331D02*
X236645433Y-159066664D01*
X236178766Y-159233331D02*
X236778766Y-159233331D01*
X236778766Y-159233331D02*
X236845433Y-159199998D01*
X236845433Y-159199998D02*
X236878766Y-159133331D01*
X236878766Y-159133331D02*
X236878766Y-159066664D01*
X236645433Y-158933331D02*
X236645433Y-158666664D01*
X236178766Y-158833331D02*
X236778766Y-158833331D01*
X236778766Y-158833331D02*
X236845433Y-158799998D01*
X236845433Y-158799998D02*
X236878766Y-158733331D01*
X236878766Y-158733331D02*
X236878766Y-158666664D01*
X236178766Y-158433331D02*
X236645433Y-158433331D01*
X236878766Y-158433331D02*
X236845433Y-158466664D01*
X236845433Y-158466664D02*
X236812100Y-158433331D01*
X236812100Y-158433331D02*
X236845433Y-158399998D01*
X236845433Y-158399998D02*
X236878766Y-158433331D01*
X236878766Y-158433331D02*
X236812100Y-158433331D01*
X236645433Y-158099998D02*
X236178766Y-158099998D01*
X236578766Y-158099998D02*
X236612100Y-158066665D01*
X236612100Y-158066665D02*
X236645433Y-157999998D01*
X236645433Y-157999998D02*
X236645433Y-157899998D01*
X236645433Y-157899998D02*
X236612100Y-157833331D01*
X236612100Y-157833331D02*
X236545433Y-157799998D01*
X236545433Y-157799998D02*
X236178766Y-157799998D01*
X236645433Y-157166665D02*
X236078766Y-157166665D01*
X236078766Y-157166665D02*
X236012100Y-157199998D01*
X236012100Y-157199998D02*
X235978766Y-157233332D01*
X235978766Y-157233332D02*
X235945433Y-157299998D01*
X235945433Y-157299998D02*
X235945433Y-157399998D01*
X235945433Y-157399998D02*
X235978766Y-157466665D01*
X236212100Y-157166665D02*
X236178766Y-157233332D01*
X236178766Y-157233332D02*
X236178766Y-157366665D01*
X236178766Y-157366665D02*
X236212100Y-157433332D01*
X236212100Y-157433332D02*
X236245433Y-157466665D01*
X236245433Y-157466665D02*
X236312100Y-157499998D01*
X236312100Y-157499998D02*
X236512100Y-157499998D01*
X236512100Y-157499998D02*
X236578766Y-157466665D01*
X236578766Y-157466665D02*
X236612100Y-157433332D01*
X236612100Y-157433332D02*
X236645433Y-157366665D01*
X236645433Y-157366665D02*
X236645433Y-157233332D01*
X236645433Y-157233332D02*
X236612100Y-157166665D01*
X236878766Y-156399999D02*
X236878766Y-155999999D01*
X236178766Y-156199999D02*
X236878766Y-156199999D01*
X236212100Y-155499999D02*
X236178766Y-155566666D01*
X236178766Y-155566666D02*
X236178766Y-155699999D01*
X236178766Y-155699999D02*
X236212100Y-155766666D01*
X236212100Y-155766666D02*
X236278766Y-155799999D01*
X236278766Y-155799999D02*
X236545433Y-155799999D01*
X236545433Y-155799999D02*
X236612100Y-155766666D01*
X236612100Y-155766666D02*
X236645433Y-155699999D01*
X236645433Y-155699999D02*
X236645433Y-155566666D01*
X236645433Y-155566666D02*
X236612100Y-155499999D01*
X236612100Y-155499999D02*
X236545433Y-155466666D01*
X236545433Y-155466666D02*
X236478766Y-155466666D01*
X236478766Y-155466666D02*
X236412100Y-155799999D01*
X236212100Y-154866666D02*
X236178766Y-154933333D01*
X236178766Y-154933333D02*
X236178766Y-155066666D01*
X236178766Y-155066666D02*
X236212100Y-155133333D01*
X236212100Y-155133333D02*
X236245433Y-155166666D01*
X236245433Y-155166666D02*
X236312100Y-155199999D01*
X236312100Y-155199999D02*
X236512100Y-155199999D01*
X236512100Y-155199999D02*
X236578766Y-155166666D01*
X236578766Y-155166666D02*
X236612100Y-155133333D01*
X236612100Y-155133333D02*
X236645433Y-155066666D01*
X236645433Y-155066666D02*
X236645433Y-154933333D01*
X236645433Y-154933333D02*
X236612100Y-154866666D01*
X236178766Y-154566666D02*
X236878766Y-154566666D01*
X236178766Y-154266666D02*
X236545433Y-154266666D01*
X236545433Y-154266666D02*
X236612100Y-154299999D01*
X236612100Y-154299999D02*
X236645433Y-154366666D01*
X236645433Y-154366666D02*
X236645433Y-154466666D01*
X236645433Y-154466666D02*
X236612100Y-154533333D01*
X236612100Y-154533333D02*
X236578766Y-154566666D01*
X236645433Y-153933333D02*
X236178766Y-153933333D01*
X236578766Y-153933333D02*
X236612100Y-153900000D01*
X236612100Y-153900000D02*
X236645433Y-153833333D01*
X236645433Y-153833333D02*
X236645433Y-153733333D01*
X236645433Y-153733333D02*
X236612100Y-153666666D01*
X236612100Y-153666666D02*
X236545433Y-153633333D01*
X236545433Y-153633333D02*
X236178766Y-153633333D01*
X236178766Y-153200000D02*
X236212100Y-153266667D01*
X236212100Y-153266667D02*
X236245433Y-153300000D01*
X236245433Y-153300000D02*
X236312100Y-153333333D01*
X236312100Y-153333333D02*
X236512100Y-153333333D01*
X236512100Y-153333333D02*
X236578766Y-153300000D01*
X236578766Y-153300000D02*
X236612100Y-153266667D01*
X236612100Y-153266667D02*
X236645433Y-153200000D01*
X236645433Y-153200000D02*
X236645433Y-153100000D01*
X236645433Y-153100000D02*
X236612100Y-153033333D01*
X236612100Y-153033333D02*
X236578766Y-153000000D01*
X236578766Y-153000000D02*
X236512100Y-152966667D01*
X236512100Y-152966667D02*
X236312100Y-152966667D01*
X236312100Y-152966667D02*
X236245433Y-153000000D01*
X236245433Y-153000000D02*
X236212100Y-153033333D01*
X236212100Y-153033333D02*
X236178766Y-153100000D01*
X236178766Y-153100000D02*
X236178766Y-153200000D01*
X236178766Y-152566667D02*
X236212100Y-152633334D01*
X236212100Y-152633334D02*
X236278766Y-152666667D01*
X236278766Y-152666667D02*
X236878766Y-152666667D01*
X236178766Y-152200000D02*
X236212100Y-152266667D01*
X236212100Y-152266667D02*
X236245433Y-152300000D01*
X236245433Y-152300000D02*
X236312100Y-152333333D01*
X236312100Y-152333333D02*
X236512100Y-152333333D01*
X236512100Y-152333333D02*
X236578766Y-152300000D01*
X236578766Y-152300000D02*
X236612100Y-152266667D01*
X236612100Y-152266667D02*
X236645433Y-152200000D01*
X236645433Y-152200000D02*
X236645433Y-152100000D01*
X236645433Y-152100000D02*
X236612100Y-152033333D01*
X236612100Y-152033333D02*
X236578766Y-152000000D01*
X236578766Y-152000000D02*
X236512100Y-151966667D01*
X236512100Y-151966667D02*
X236312100Y-151966667D01*
X236312100Y-151966667D02*
X236245433Y-152000000D01*
X236245433Y-152000000D02*
X236212100Y-152033333D01*
X236212100Y-152033333D02*
X236178766Y-152100000D01*
X236178766Y-152100000D02*
X236178766Y-152200000D01*
X236645433Y-151366667D02*
X236078766Y-151366667D01*
X236078766Y-151366667D02*
X236012100Y-151400000D01*
X236012100Y-151400000D02*
X235978766Y-151433334D01*
X235978766Y-151433334D02*
X235945433Y-151500000D01*
X235945433Y-151500000D02*
X235945433Y-151600000D01*
X235945433Y-151600000D02*
X235978766Y-151666667D01*
X236212100Y-151366667D02*
X236178766Y-151433334D01*
X236178766Y-151433334D02*
X236178766Y-151566667D01*
X236178766Y-151566667D02*
X236212100Y-151633334D01*
X236212100Y-151633334D02*
X236245433Y-151666667D01*
X236245433Y-151666667D02*
X236312100Y-151700000D01*
X236312100Y-151700000D02*
X236512100Y-151700000D01*
X236512100Y-151700000D02*
X236578766Y-151666667D01*
X236578766Y-151666667D02*
X236612100Y-151633334D01*
X236612100Y-151633334D02*
X236645433Y-151566667D01*
X236645433Y-151566667D02*
X236645433Y-151433334D01*
X236645433Y-151433334D02*
X236612100Y-151366667D01*
X236645433Y-151100001D02*
X236178766Y-150933334D01*
X236645433Y-150766667D02*
X236178766Y-150933334D01*
X236178766Y-150933334D02*
X236012100Y-151000001D01*
X236012100Y-151000001D02*
X235978766Y-151033334D01*
X235978766Y-151033334D02*
X235945433Y-151100001D01*
X236178766Y-149633335D02*
X236178766Y-149966668D01*
X236178766Y-149966668D02*
X236878766Y-149966668D01*
X236178766Y-149066668D02*
X236178766Y-149400001D01*
X236178766Y-149400001D02*
X236878766Y-149400001D01*
X236245433Y-148433334D02*
X236212100Y-148466667D01*
X236212100Y-148466667D02*
X236178766Y-148566667D01*
X236178766Y-148566667D02*
X236178766Y-148633334D01*
X236178766Y-148633334D02*
X236212100Y-148733334D01*
X236212100Y-148733334D02*
X236278766Y-148800001D01*
X236278766Y-148800001D02*
X236345433Y-148833334D01*
X236345433Y-148833334D02*
X236478766Y-148866667D01*
X236478766Y-148866667D02*
X236578766Y-148866667D01*
X236578766Y-148866667D02*
X236712100Y-148833334D01*
X236712100Y-148833334D02*
X236778766Y-148800001D01*
X236778766Y-148800001D02*
X236845433Y-148733334D01*
X236845433Y-148733334D02*
X236878766Y-148633334D01*
X236878766Y-148633334D02*
X236878766Y-148566667D01*
X236878766Y-148566667D02*
X236845433Y-148466667D01*
X236845433Y-148466667D02*
X236812100Y-148433334D01*
X235945433Y-147433334D02*
X236945433Y-147433334D01*
X236245433Y-146000001D02*
X236212100Y-146033334D01*
X236212100Y-146033334D02*
X236178766Y-146133334D01*
X236178766Y-146133334D02*
X236178766Y-146200001D01*
X236178766Y-146200001D02*
X236212100Y-146300001D01*
X236212100Y-146300001D02*
X236278766Y-146366668D01*
X236278766Y-146366668D02*
X236345433Y-146400001D01*
X236345433Y-146400001D02*
X236478766Y-146433334D01*
X236478766Y-146433334D02*
X236578766Y-146433334D01*
X236578766Y-146433334D02*
X236712100Y-146400001D01*
X236712100Y-146400001D02*
X236778766Y-146366668D01*
X236778766Y-146366668D02*
X236845433Y-146300001D01*
X236845433Y-146300001D02*
X236878766Y-146200001D01*
X236878766Y-146200001D02*
X236878766Y-146133334D01*
X236878766Y-146133334D02*
X236845433Y-146033334D01*
X236845433Y-146033334D02*
X236812100Y-146000001D01*
X236245433Y-145300001D02*
X236212100Y-145333334D01*
X236212100Y-145333334D02*
X236178766Y-145433334D01*
X236178766Y-145433334D02*
X236178766Y-145500001D01*
X236178766Y-145500001D02*
X236212100Y-145600001D01*
X236212100Y-145600001D02*
X236278766Y-145666668D01*
X236278766Y-145666668D02*
X236345433Y-145700001D01*
X236345433Y-145700001D02*
X236478766Y-145733334D01*
X236478766Y-145733334D02*
X236578766Y-145733334D01*
X236578766Y-145733334D02*
X236712100Y-145700001D01*
X236712100Y-145700001D02*
X236778766Y-145666668D01*
X236778766Y-145666668D02*
X236845433Y-145600001D01*
X236845433Y-145600001D02*
X236878766Y-145500001D01*
X236878766Y-145500001D02*
X236878766Y-145433334D01*
X236878766Y-145433334D02*
X236845433Y-145333334D01*
X236845433Y-145333334D02*
X236812100Y-145300001D01*
X236545433Y-144233335D02*
X236512100Y-144133335D01*
X236512100Y-144133335D02*
X236478766Y-144100001D01*
X236478766Y-144100001D02*
X236412100Y-144066668D01*
X236412100Y-144066668D02*
X236312100Y-144066668D01*
X236312100Y-144066668D02*
X236245433Y-144100001D01*
X236245433Y-144100001D02*
X236212100Y-144133335D01*
X236212100Y-144133335D02*
X236178766Y-144200001D01*
X236178766Y-144200001D02*
X236178766Y-144466668D01*
X236178766Y-144466668D02*
X236878766Y-144466668D01*
X236878766Y-144466668D02*
X236878766Y-144233335D01*
X236878766Y-144233335D02*
X236845433Y-144166668D01*
X236845433Y-144166668D02*
X236812100Y-144133335D01*
X236812100Y-144133335D02*
X236745433Y-144100001D01*
X236745433Y-144100001D02*
X236678766Y-144100001D01*
X236678766Y-144100001D02*
X236612100Y-144133335D01*
X236612100Y-144133335D02*
X236578766Y-144166668D01*
X236578766Y-144166668D02*
X236545433Y-144233335D01*
X236545433Y-144233335D02*
X236545433Y-144466668D01*
X236512100Y-143633335D02*
X236178766Y-143633335D01*
X236878766Y-143866668D02*
X236512100Y-143633335D01*
X236512100Y-143633335D02*
X236878766Y-143400001D01*
X236645433Y-142333335D02*
X236178766Y-142333335D01*
X236912100Y-142500002D02*
X236412100Y-142666668D01*
X236412100Y-142666668D02*
X236412100Y-142233335D01*
X236245433Y-141966668D02*
X236212100Y-141933335D01*
X236212100Y-141933335D02*
X236178766Y-141966668D01*
X236178766Y-141966668D02*
X236212100Y-142000001D01*
X236212100Y-142000001D02*
X236245433Y-141966668D01*
X236245433Y-141966668D02*
X236178766Y-141966668D01*
X236878766Y-141500002D02*
X236878766Y-141433335D01*
X236878766Y-141433335D02*
X236845433Y-141366668D01*
X236845433Y-141366668D02*
X236812100Y-141333335D01*
X236812100Y-141333335D02*
X236745433Y-141300002D01*
X236745433Y-141300002D02*
X236612100Y-141266668D01*
X236612100Y-141266668D02*
X236445433Y-141266668D01*
X236445433Y-141266668D02*
X236312100Y-141300002D01*
X236312100Y-141300002D02*
X236245433Y-141333335D01*
X236245433Y-141333335D02*
X236212100Y-141366668D01*
X236212100Y-141366668D02*
X236178766Y-141433335D01*
X236178766Y-141433335D02*
X236178766Y-141500002D01*
X236178766Y-141500002D02*
X236212100Y-141566668D01*
X236212100Y-141566668D02*
X236245433Y-141600002D01*
X236245433Y-141600002D02*
X236312100Y-141633335D01*
X236312100Y-141633335D02*
X236445433Y-141666668D01*
X236445433Y-141666668D02*
X236612100Y-141666668D01*
X236612100Y-141666668D02*
X236745433Y-141633335D01*
X236745433Y-141633335D02*
X236812100Y-141600002D01*
X236812100Y-141600002D02*
X236845433Y-141566668D01*
X236845433Y-141566668D02*
X236878766Y-141500002D01*
D11*
X193357144Y-135454819D02*
X193690477Y-134978628D01*
X193928572Y-135454819D02*
X193928572Y-134454819D01*
X193928572Y-134454819D02*
X193547620Y-134454819D01*
X193547620Y-134454819D02*
X193452382Y-134502438D01*
X193452382Y-134502438D02*
X193404763Y-134550057D01*
X193404763Y-134550057D02*
X193357144Y-134645295D01*
X193357144Y-134645295D02*
X193357144Y-134788152D01*
X193357144Y-134788152D02*
X193404763Y-134883390D01*
X193404763Y-134883390D02*
X193452382Y-134931009D01*
X193452382Y-134931009D02*
X193547620Y-134978628D01*
X193547620Y-134978628D02*
X193928572Y-134978628D01*
X192976191Y-135407200D02*
X192833334Y-135454819D01*
X192833334Y-135454819D02*
X192595239Y-135454819D01*
X192595239Y-135454819D02*
X192500001Y-135407200D01*
X192500001Y-135407200D02*
X192452382Y-135359580D01*
X192452382Y-135359580D02*
X192404763Y-135264342D01*
X192404763Y-135264342D02*
X192404763Y-135169104D01*
X192404763Y-135169104D02*
X192452382Y-135073866D01*
X192452382Y-135073866D02*
X192500001Y-135026247D01*
X192500001Y-135026247D02*
X192595239Y-134978628D01*
X192595239Y-134978628D02*
X192785715Y-134931009D01*
X192785715Y-134931009D02*
X192880953Y-134883390D01*
X192880953Y-134883390D02*
X192928572Y-134835771D01*
X192928572Y-134835771D02*
X192976191Y-134740533D01*
X192976191Y-134740533D02*
X192976191Y-134645295D01*
X192976191Y-134645295D02*
X192928572Y-134550057D01*
X192928572Y-134550057D02*
X192880953Y-134502438D01*
X192880953Y-134502438D02*
X192785715Y-134454819D01*
X192785715Y-134454819D02*
X192547620Y-134454819D01*
X192547620Y-134454819D02*
X192404763Y-134502438D01*
X191976191Y-135073866D02*
X191214287Y-135073866D01*
X190309525Y-134788152D02*
X190309525Y-135454819D01*
X190547620Y-134407200D02*
X190785715Y-135121485D01*
X190785715Y-135121485D02*
X190166668Y-135121485D01*
X189642858Y-134883390D02*
X189738096Y-134835771D01*
X189738096Y-134835771D02*
X189785715Y-134788152D01*
X189785715Y-134788152D02*
X189833334Y-134692914D01*
X189833334Y-134692914D02*
X189833334Y-134645295D01*
X189833334Y-134645295D02*
X189785715Y-134550057D01*
X189785715Y-134550057D02*
X189738096Y-134502438D01*
X189738096Y-134502438D02*
X189642858Y-134454819D01*
X189642858Y-134454819D02*
X189452382Y-134454819D01*
X189452382Y-134454819D02*
X189357144Y-134502438D01*
X189357144Y-134502438D02*
X189309525Y-134550057D01*
X189309525Y-134550057D02*
X189261906Y-134645295D01*
X189261906Y-134645295D02*
X189261906Y-134692914D01*
X189261906Y-134692914D02*
X189309525Y-134788152D01*
X189309525Y-134788152D02*
X189357144Y-134835771D01*
X189357144Y-134835771D02*
X189452382Y-134883390D01*
X189452382Y-134883390D02*
X189642858Y-134883390D01*
X189642858Y-134883390D02*
X189738096Y-134931009D01*
X189738096Y-134931009D02*
X189785715Y-134978628D01*
X189785715Y-134978628D02*
X189833334Y-135073866D01*
X189833334Y-135073866D02*
X189833334Y-135264342D01*
X189833334Y-135264342D02*
X189785715Y-135359580D01*
X189785715Y-135359580D02*
X189738096Y-135407200D01*
X189738096Y-135407200D02*
X189642858Y-135454819D01*
X189642858Y-135454819D02*
X189452382Y-135454819D01*
X189452382Y-135454819D02*
X189357144Y-135407200D01*
X189357144Y-135407200D02*
X189309525Y-135359580D01*
X189309525Y-135359580D02*
X189261906Y-135264342D01*
X189261906Y-135264342D02*
X189261906Y-135073866D01*
X189261906Y-135073866D02*
X189309525Y-134978628D01*
X189309525Y-134978628D02*
X189357144Y-134931009D01*
X189357144Y-134931009D02*
X189452382Y-134883390D01*
X188357144Y-134454819D02*
X188833334Y-134454819D01*
X188833334Y-134454819D02*
X188880953Y-134931009D01*
X188880953Y-134931009D02*
X188833334Y-134883390D01*
X188833334Y-134883390D02*
X188738096Y-134835771D01*
X188738096Y-134835771D02*
X188500001Y-134835771D01*
X188500001Y-134835771D02*
X188404763Y-134883390D01*
X188404763Y-134883390D02*
X188357144Y-134931009D01*
X188357144Y-134931009D02*
X188309525Y-135026247D01*
X188309525Y-135026247D02*
X188309525Y-135264342D01*
X188309525Y-135264342D02*
X188357144Y-135359580D01*
X188357144Y-135359580D02*
X188404763Y-135407200D01*
X188404763Y-135407200D02*
X188500001Y-135454819D01*
X188500001Y-135454819D02*
X188738096Y-135454819D01*
X188738096Y-135454819D02*
X188833334Y-135407200D01*
X188833334Y-135407200D02*
X188880953Y-135359580D01*
X187261905Y-134788152D02*
X186880953Y-134788152D01*
X187119048Y-134454819D02*
X187119048Y-135311961D01*
X187119048Y-135311961D02*
X187071429Y-135407200D01*
X187071429Y-135407200D02*
X186976191Y-135454819D01*
X186976191Y-135454819D02*
X186880953Y-135454819D01*
X186547619Y-135454819D02*
X186547619Y-134788152D01*
X186547619Y-134978628D02*
X186500000Y-134883390D01*
X186500000Y-134883390D02*
X186452381Y-134835771D01*
X186452381Y-134835771D02*
X186357143Y-134788152D01*
X186357143Y-134788152D02*
X186261905Y-134788152D01*
X185500000Y-134788152D02*
X185500000Y-135454819D01*
X185928571Y-134788152D02*
X185928571Y-135311961D01*
X185928571Y-135311961D02*
X185880952Y-135407200D01*
X185880952Y-135407200D02*
X185785714Y-135454819D01*
X185785714Y-135454819D02*
X185642857Y-135454819D01*
X185642857Y-135454819D02*
X185547619Y-135407200D01*
X185547619Y-135407200D02*
X185500000Y-135359580D01*
X185023809Y-134788152D02*
X185023809Y-135454819D01*
X185023809Y-134883390D02*
X184976190Y-134835771D01*
X184976190Y-134835771D02*
X184880952Y-134788152D01*
X184880952Y-134788152D02*
X184738095Y-134788152D01*
X184738095Y-134788152D02*
X184642857Y-134835771D01*
X184642857Y-134835771D02*
X184595238Y-134931009D01*
X184595238Y-134931009D02*
X184595238Y-135454819D01*
X184119047Y-135454819D02*
X184119047Y-134454819D01*
X184023809Y-135073866D02*
X183738095Y-135454819D01*
X183738095Y-134788152D02*
X184119047Y-135169104D01*
X182357142Y-134454819D02*
X182166666Y-134454819D01*
X182166666Y-134454819D02*
X182071428Y-134502438D01*
X182071428Y-134502438D02*
X181976190Y-134597676D01*
X181976190Y-134597676D02*
X181928571Y-134788152D01*
X181928571Y-134788152D02*
X181928571Y-135121485D01*
X181928571Y-135121485D02*
X181976190Y-135311961D01*
X181976190Y-135311961D02*
X182071428Y-135407200D01*
X182071428Y-135407200D02*
X182166666Y-135454819D01*
X182166666Y-135454819D02*
X182357142Y-135454819D01*
X182357142Y-135454819D02*
X182452380Y-135407200D01*
X182452380Y-135407200D02*
X182547618Y-135311961D01*
X182547618Y-135311961D02*
X182595237Y-135121485D01*
X182595237Y-135121485D02*
X182595237Y-134788152D01*
X182595237Y-134788152D02*
X182547618Y-134597676D01*
X182547618Y-134597676D02*
X182452380Y-134502438D01*
X182452380Y-134502438D02*
X182357142Y-134454819D01*
X181499999Y-134454819D02*
X181499999Y-135264342D01*
X181499999Y-135264342D02*
X181452380Y-135359580D01*
X181452380Y-135359580D02*
X181404761Y-135407200D01*
X181404761Y-135407200D02*
X181309523Y-135454819D01*
X181309523Y-135454819D02*
X181119047Y-135454819D01*
X181119047Y-135454819D02*
X181023809Y-135407200D01*
X181023809Y-135407200D02*
X180976190Y-135359580D01*
X180976190Y-135359580D02*
X180928571Y-135264342D01*
X180928571Y-135264342D02*
X180928571Y-134454819D01*
X180595237Y-134454819D02*
X180023809Y-134454819D01*
X180309523Y-135454819D02*
X180309523Y-134454819D01*
X178642856Y-135835771D02*
X178690475Y-135788152D01*
X178690475Y-135788152D02*
X178785713Y-135645295D01*
X178785713Y-135645295D02*
X178833332Y-135550057D01*
X178833332Y-135550057D02*
X178880951Y-135407200D01*
X178880951Y-135407200D02*
X178928570Y-135169104D01*
X178928570Y-135169104D02*
X178928570Y-134978628D01*
X178928570Y-134978628D02*
X178880951Y-134740533D01*
X178880951Y-134740533D02*
X178833332Y-134597676D01*
X178833332Y-134597676D02*
X178785713Y-134502438D01*
X178785713Y-134502438D02*
X178690475Y-134359580D01*
X178690475Y-134359580D02*
X178642856Y-134311961D01*
X178309522Y-135169104D02*
X177833332Y-135169104D01*
X178404760Y-135454819D02*
X178071427Y-134454819D01*
X178071427Y-134454819D02*
X177738094Y-135454819D01*
X176690475Y-134407200D02*
X177547617Y-135692914D01*
X176023808Y-134931009D02*
X175880951Y-134978628D01*
X175880951Y-134978628D02*
X175833332Y-135026247D01*
X175833332Y-135026247D02*
X175785713Y-135121485D01*
X175785713Y-135121485D02*
X175785713Y-135264342D01*
X175785713Y-135264342D02*
X175833332Y-135359580D01*
X175833332Y-135359580D02*
X175880951Y-135407200D01*
X175880951Y-135407200D02*
X175976189Y-135454819D01*
X175976189Y-135454819D02*
X176357141Y-135454819D01*
X176357141Y-135454819D02*
X176357141Y-134454819D01*
X176357141Y-134454819D02*
X176023808Y-134454819D01*
X176023808Y-134454819D02*
X175928570Y-134502438D01*
X175928570Y-134502438D02*
X175880951Y-134550057D01*
X175880951Y-134550057D02*
X175833332Y-134645295D01*
X175833332Y-134645295D02*
X175833332Y-134740533D01*
X175833332Y-134740533D02*
X175880951Y-134835771D01*
X175880951Y-134835771D02*
X175928570Y-134883390D01*
X175928570Y-134883390D02*
X176023808Y-134931009D01*
X176023808Y-134931009D02*
X176357141Y-134931009D01*
X174642856Y-134407200D02*
X175499998Y-135692914D01*
X173785713Y-134502438D02*
X173880951Y-134454819D01*
X173880951Y-134454819D02*
X174023808Y-134454819D01*
X174023808Y-134454819D02*
X174166665Y-134502438D01*
X174166665Y-134502438D02*
X174261903Y-134597676D01*
X174261903Y-134597676D02*
X174309522Y-134692914D01*
X174309522Y-134692914D02*
X174357141Y-134883390D01*
X174357141Y-134883390D02*
X174357141Y-135026247D01*
X174357141Y-135026247D02*
X174309522Y-135216723D01*
X174309522Y-135216723D02*
X174261903Y-135311961D01*
X174261903Y-135311961D02*
X174166665Y-135407200D01*
X174166665Y-135407200D02*
X174023808Y-135454819D01*
X174023808Y-135454819D02*
X173928570Y-135454819D01*
X173928570Y-135454819D02*
X173785713Y-135407200D01*
X173785713Y-135407200D02*
X173738094Y-135359580D01*
X173738094Y-135359580D02*
X173738094Y-135026247D01*
X173738094Y-135026247D02*
X173928570Y-135026247D01*
X173309522Y-135454819D02*
X173309522Y-134454819D01*
X173309522Y-134454819D02*
X172738094Y-135454819D01*
X172738094Y-135454819D02*
X172738094Y-134454819D01*
X172261903Y-135454819D02*
X172261903Y-134454819D01*
X172261903Y-134454819D02*
X172023808Y-134454819D01*
X172023808Y-134454819D02*
X171880951Y-134502438D01*
X171880951Y-134502438D02*
X171785713Y-134597676D01*
X171785713Y-134597676D02*
X171738094Y-134692914D01*
X171738094Y-134692914D02*
X171690475Y-134883390D01*
X171690475Y-134883390D02*
X171690475Y-135026247D01*
X171690475Y-135026247D02*
X171738094Y-135216723D01*
X171738094Y-135216723D02*
X171785713Y-135311961D01*
X171785713Y-135311961D02*
X171880951Y-135407200D01*
X171880951Y-135407200D02*
X172023808Y-135454819D01*
X172023808Y-135454819D02*
X172261903Y-135454819D01*
X171357141Y-135835771D02*
X171309522Y-135788152D01*
X171309522Y-135788152D02*
X171214284Y-135645295D01*
X171214284Y-135645295D02*
X171166665Y-135550057D01*
X171166665Y-135550057D02*
X171119046Y-135407200D01*
X171119046Y-135407200D02*
X171071427Y-135169104D01*
X171071427Y-135169104D02*
X171071427Y-134978628D01*
X171071427Y-134978628D02*
X171119046Y-134740533D01*
X171119046Y-134740533D02*
X171166665Y-134597676D01*
X171166665Y-134597676D02*
X171214284Y-134502438D01*
X171214284Y-134502438D02*
X171309522Y-134359580D01*
X171309522Y-134359580D02*
X171357141Y-134311961D01*
X186952381Y-128954819D02*
X186952381Y-129669104D01*
X186952381Y-129669104D02*
X187000000Y-129811961D01*
X187000000Y-129811961D02*
X187095238Y-129907200D01*
X187095238Y-129907200D02*
X187238095Y-129954819D01*
X187238095Y-129954819D02*
X187333333Y-129954819D01*
X186714286Y-130050057D02*
X185952381Y-130050057D01*
X185142857Y-129954819D02*
X185476190Y-129478628D01*
X185714285Y-129954819D02*
X185714285Y-128954819D01*
X185714285Y-128954819D02*
X185333333Y-128954819D01*
X185333333Y-128954819D02*
X185238095Y-129002438D01*
X185238095Y-129002438D02*
X185190476Y-129050057D01*
X185190476Y-129050057D02*
X185142857Y-129145295D01*
X185142857Y-129145295D02*
X185142857Y-129288152D01*
X185142857Y-129288152D02*
X185190476Y-129383390D01*
X185190476Y-129383390D02*
X185238095Y-129431009D01*
X185238095Y-129431009D02*
X185333333Y-129478628D01*
X185333333Y-129478628D02*
X185714285Y-129478628D01*
X184761904Y-129907200D02*
X184619047Y-129954819D01*
X184619047Y-129954819D02*
X184380952Y-129954819D01*
X184380952Y-129954819D02*
X184285714Y-129907200D01*
X184285714Y-129907200D02*
X184238095Y-129859580D01*
X184238095Y-129859580D02*
X184190476Y-129764342D01*
X184190476Y-129764342D02*
X184190476Y-129669104D01*
X184190476Y-129669104D02*
X184238095Y-129573866D01*
X184238095Y-129573866D02*
X184285714Y-129526247D01*
X184285714Y-129526247D02*
X184380952Y-129478628D01*
X184380952Y-129478628D02*
X184571428Y-129431009D01*
X184571428Y-129431009D02*
X184666666Y-129383390D01*
X184666666Y-129383390D02*
X184714285Y-129335771D01*
X184714285Y-129335771D02*
X184761904Y-129240533D01*
X184761904Y-129240533D02*
X184761904Y-129145295D01*
X184761904Y-129145295D02*
X184714285Y-129050057D01*
X184714285Y-129050057D02*
X184666666Y-129002438D01*
X184666666Y-129002438D02*
X184571428Y-128954819D01*
X184571428Y-128954819D02*
X184333333Y-128954819D01*
X184333333Y-128954819D02*
X184190476Y-129002438D01*
X183333333Y-129288152D02*
X183333333Y-129954819D01*
X183571428Y-128907200D02*
X183809523Y-129621485D01*
X183809523Y-129621485D02*
X183190476Y-129621485D01*
X182666666Y-129383390D02*
X182761904Y-129335771D01*
X182761904Y-129335771D02*
X182809523Y-129288152D01*
X182809523Y-129288152D02*
X182857142Y-129192914D01*
X182857142Y-129192914D02*
X182857142Y-129145295D01*
X182857142Y-129145295D02*
X182809523Y-129050057D01*
X182809523Y-129050057D02*
X182761904Y-129002438D01*
X182761904Y-129002438D02*
X182666666Y-128954819D01*
X182666666Y-128954819D02*
X182476190Y-128954819D01*
X182476190Y-128954819D02*
X182380952Y-129002438D01*
X182380952Y-129002438D02*
X182333333Y-129050057D01*
X182333333Y-129050057D02*
X182285714Y-129145295D01*
X182285714Y-129145295D02*
X182285714Y-129192914D01*
X182285714Y-129192914D02*
X182333333Y-129288152D01*
X182333333Y-129288152D02*
X182380952Y-129335771D01*
X182380952Y-129335771D02*
X182476190Y-129383390D01*
X182476190Y-129383390D02*
X182666666Y-129383390D01*
X182666666Y-129383390D02*
X182761904Y-129431009D01*
X182761904Y-129431009D02*
X182809523Y-129478628D01*
X182809523Y-129478628D02*
X182857142Y-129573866D01*
X182857142Y-129573866D02*
X182857142Y-129764342D01*
X182857142Y-129764342D02*
X182809523Y-129859580D01*
X182809523Y-129859580D02*
X182761904Y-129907200D01*
X182761904Y-129907200D02*
X182666666Y-129954819D01*
X182666666Y-129954819D02*
X182476190Y-129954819D01*
X182476190Y-129954819D02*
X182380952Y-129907200D01*
X182380952Y-129907200D02*
X182333333Y-129859580D01*
X182333333Y-129859580D02*
X182285714Y-129764342D01*
X182285714Y-129764342D02*
X182285714Y-129573866D01*
X182285714Y-129573866D02*
X182333333Y-129478628D01*
X182333333Y-129478628D02*
X182380952Y-129431009D01*
X182380952Y-129431009D02*
X182476190Y-129383390D01*
X181380952Y-128954819D02*
X181857142Y-128954819D01*
X181857142Y-128954819D02*
X181904761Y-129431009D01*
X181904761Y-129431009D02*
X181857142Y-129383390D01*
X181857142Y-129383390D02*
X181761904Y-129335771D01*
X181761904Y-129335771D02*
X181523809Y-129335771D01*
X181523809Y-129335771D02*
X181428571Y-129383390D01*
X181428571Y-129383390D02*
X181380952Y-129431009D01*
X181380952Y-129431009D02*
X181333333Y-129526247D01*
X181333333Y-129526247D02*
X181333333Y-129764342D01*
X181333333Y-129764342D02*
X181380952Y-129859580D01*
X181380952Y-129859580D02*
X181428571Y-129907200D01*
X181428571Y-129907200D02*
X181523809Y-129954819D01*
X181523809Y-129954819D02*
X181761904Y-129954819D01*
X181761904Y-129954819D02*
X181857142Y-129907200D01*
X181857142Y-129907200D02*
X181904761Y-129859580D01*
X181142857Y-130050057D02*
X180380952Y-130050057D01*
X179952380Y-128954819D02*
X179761904Y-128954819D01*
X179761904Y-128954819D02*
X179666666Y-129002438D01*
X179666666Y-129002438D02*
X179571428Y-129097676D01*
X179571428Y-129097676D02*
X179523809Y-129288152D01*
X179523809Y-129288152D02*
X179523809Y-129621485D01*
X179523809Y-129621485D02*
X179571428Y-129811961D01*
X179571428Y-129811961D02*
X179666666Y-129907200D01*
X179666666Y-129907200D02*
X179761904Y-129954819D01*
X179761904Y-129954819D02*
X179952380Y-129954819D01*
X179952380Y-129954819D02*
X180047618Y-129907200D01*
X180047618Y-129907200D02*
X180142856Y-129811961D01*
X180142856Y-129811961D02*
X180190475Y-129621485D01*
X180190475Y-129621485D02*
X180190475Y-129288152D01*
X180190475Y-129288152D02*
X180142856Y-129097676D01*
X180142856Y-129097676D02*
X180047618Y-129002438D01*
X180047618Y-129002438D02*
X179952380Y-128954819D01*
X179095237Y-128954819D02*
X179095237Y-129764342D01*
X179095237Y-129764342D02*
X179047618Y-129859580D01*
X179047618Y-129859580D02*
X178999999Y-129907200D01*
X178999999Y-129907200D02*
X178904761Y-129954819D01*
X178904761Y-129954819D02*
X178714285Y-129954819D01*
X178714285Y-129954819D02*
X178619047Y-129907200D01*
X178619047Y-129907200D02*
X178571428Y-129859580D01*
X178571428Y-129859580D02*
X178523809Y-129764342D01*
X178523809Y-129764342D02*
X178523809Y-128954819D01*
X178190475Y-128954819D02*
X177619047Y-128954819D01*
X177904761Y-129954819D02*
X177904761Y-128954819D01*
X192690477Y-175954819D02*
X193023810Y-175478628D01*
X193261905Y-175954819D02*
X193261905Y-174954819D01*
X193261905Y-174954819D02*
X192880953Y-174954819D01*
X192880953Y-174954819D02*
X192785715Y-175002438D01*
X192785715Y-175002438D02*
X192738096Y-175050057D01*
X192738096Y-175050057D02*
X192690477Y-175145295D01*
X192690477Y-175145295D02*
X192690477Y-175288152D01*
X192690477Y-175288152D02*
X192738096Y-175383390D01*
X192738096Y-175383390D02*
X192785715Y-175431009D01*
X192785715Y-175431009D02*
X192880953Y-175478628D01*
X192880953Y-175478628D02*
X193261905Y-175478628D01*
X192309524Y-175907200D02*
X192166667Y-175954819D01*
X192166667Y-175954819D02*
X191928572Y-175954819D01*
X191928572Y-175954819D02*
X191833334Y-175907200D01*
X191833334Y-175907200D02*
X191785715Y-175859580D01*
X191785715Y-175859580D02*
X191738096Y-175764342D01*
X191738096Y-175764342D02*
X191738096Y-175669104D01*
X191738096Y-175669104D02*
X191785715Y-175573866D01*
X191785715Y-175573866D02*
X191833334Y-175526247D01*
X191833334Y-175526247D02*
X191928572Y-175478628D01*
X191928572Y-175478628D02*
X192119048Y-175431009D01*
X192119048Y-175431009D02*
X192214286Y-175383390D01*
X192214286Y-175383390D02*
X192261905Y-175335771D01*
X192261905Y-175335771D02*
X192309524Y-175240533D01*
X192309524Y-175240533D02*
X192309524Y-175145295D01*
X192309524Y-175145295D02*
X192261905Y-175050057D01*
X192261905Y-175050057D02*
X192214286Y-175002438D01*
X192214286Y-175002438D02*
X192119048Y-174954819D01*
X192119048Y-174954819D02*
X191880953Y-174954819D01*
X191880953Y-174954819D02*
X191738096Y-175002438D01*
X191309524Y-175573866D02*
X190547620Y-175573866D01*
X189642858Y-175288152D02*
X189642858Y-175954819D01*
X189880953Y-174907200D02*
X190119048Y-175621485D01*
X190119048Y-175621485D02*
X189500001Y-175621485D01*
X188976191Y-175383390D02*
X189071429Y-175335771D01*
X189071429Y-175335771D02*
X189119048Y-175288152D01*
X189119048Y-175288152D02*
X189166667Y-175192914D01*
X189166667Y-175192914D02*
X189166667Y-175145295D01*
X189166667Y-175145295D02*
X189119048Y-175050057D01*
X189119048Y-175050057D02*
X189071429Y-175002438D01*
X189071429Y-175002438D02*
X188976191Y-174954819D01*
X188976191Y-174954819D02*
X188785715Y-174954819D01*
X188785715Y-174954819D02*
X188690477Y-175002438D01*
X188690477Y-175002438D02*
X188642858Y-175050057D01*
X188642858Y-175050057D02*
X188595239Y-175145295D01*
X188595239Y-175145295D02*
X188595239Y-175192914D01*
X188595239Y-175192914D02*
X188642858Y-175288152D01*
X188642858Y-175288152D02*
X188690477Y-175335771D01*
X188690477Y-175335771D02*
X188785715Y-175383390D01*
X188785715Y-175383390D02*
X188976191Y-175383390D01*
X188976191Y-175383390D02*
X189071429Y-175431009D01*
X189071429Y-175431009D02*
X189119048Y-175478628D01*
X189119048Y-175478628D02*
X189166667Y-175573866D01*
X189166667Y-175573866D02*
X189166667Y-175764342D01*
X189166667Y-175764342D02*
X189119048Y-175859580D01*
X189119048Y-175859580D02*
X189071429Y-175907200D01*
X189071429Y-175907200D02*
X188976191Y-175954819D01*
X188976191Y-175954819D02*
X188785715Y-175954819D01*
X188785715Y-175954819D02*
X188690477Y-175907200D01*
X188690477Y-175907200D02*
X188642858Y-175859580D01*
X188642858Y-175859580D02*
X188595239Y-175764342D01*
X188595239Y-175764342D02*
X188595239Y-175573866D01*
X188595239Y-175573866D02*
X188642858Y-175478628D01*
X188642858Y-175478628D02*
X188690477Y-175431009D01*
X188690477Y-175431009D02*
X188785715Y-175383390D01*
X187690477Y-174954819D02*
X188166667Y-174954819D01*
X188166667Y-174954819D02*
X188214286Y-175431009D01*
X188214286Y-175431009D02*
X188166667Y-175383390D01*
X188166667Y-175383390D02*
X188071429Y-175335771D01*
X188071429Y-175335771D02*
X187833334Y-175335771D01*
X187833334Y-175335771D02*
X187738096Y-175383390D01*
X187738096Y-175383390D02*
X187690477Y-175431009D01*
X187690477Y-175431009D02*
X187642858Y-175526247D01*
X187642858Y-175526247D02*
X187642858Y-175764342D01*
X187642858Y-175764342D02*
X187690477Y-175859580D01*
X187690477Y-175859580D02*
X187738096Y-175907200D01*
X187738096Y-175907200D02*
X187833334Y-175954819D01*
X187833334Y-175954819D02*
X188071429Y-175954819D01*
X188071429Y-175954819D02*
X188166667Y-175907200D01*
X188166667Y-175907200D02*
X188214286Y-175859580D01*
X186595238Y-175288152D02*
X186214286Y-175288152D01*
X186452381Y-174954819D02*
X186452381Y-175811961D01*
X186452381Y-175811961D02*
X186404762Y-175907200D01*
X186404762Y-175907200D02*
X186309524Y-175954819D01*
X186309524Y-175954819D02*
X186214286Y-175954819D01*
X185880952Y-175954819D02*
X185880952Y-175288152D01*
X185880952Y-175478628D02*
X185833333Y-175383390D01*
X185833333Y-175383390D02*
X185785714Y-175335771D01*
X185785714Y-175335771D02*
X185690476Y-175288152D01*
X185690476Y-175288152D02*
X185595238Y-175288152D01*
X184833333Y-175288152D02*
X184833333Y-175954819D01*
X185261904Y-175288152D02*
X185261904Y-175811961D01*
X185261904Y-175811961D02*
X185214285Y-175907200D01*
X185214285Y-175907200D02*
X185119047Y-175954819D01*
X185119047Y-175954819D02*
X184976190Y-175954819D01*
X184976190Y-175954819D02*
X184880952Y-175907200D01*
X184880952Y-175907200D02*
X184833333Y-175859580D01*
X184357142Y-175288152D02*
X184357142Y-175954819D01*
X184357142Y-175383390D02*
X184309523Y-175335771D01*
X184309523Y-175335771D02*
X184214285Y-175288152D01*
X184214285Y-175288152D02*
X184071428Y-175288152D01*
X184071428Y-175288152D02*
X183976190Y-175335771D01*
X183976190Y-175335771D02*
X183928571Y-175431009D01*
X183928571Y-175431009D02*
X183928571Y-175954819D01*
X183452380Y-175954819D02*
X183452380Y-174954819D01*
X183357142Y-175573866D02*
X183071428Y-175954819D01*
X183071428Y-175288152D02*
X183452380Y-175669104D01*
X181880951Y-175954819D02*
X181880951Y-174954819D01*
X181404761Y-175954819D02*
X181404761Y-174954819D01*
X181404761Y-174954819D02*
X180833333Y-175954819D01*
X180833333Y-175954819D02*
X180833333Y-174954819D01*
X179309523Y-176335771D02*
X179357142Y-176288152D01*
X179357142Y-176288152D02*
X179452380Y-176145295D01*
X179452380Y-176145295D02*
X179499999Y-176050057D01*
X179499999Y-176050057D02*
X179547618Y-175907200D01*
X179547618Y-175907200D02*
X179595237Y-175669104D01*
X179595237Y-175669104D02*
X179595237Y-175478628D01*
X179595237Y-175478628D02*
X179547618Y-175240533D01*
X179547618Y-175240533D02*
X179499999Y-175097676D01*
X179499999Y-175097676D02*
X179452380Y-175002438D01*
X179452380Y-175002438D02*
X179357142Y-174859580D01*
X179357142Y-174859580D02*
X179309523Y-174811961D01*
X178976189Y-175669104D02*
X178499999Y-175669104D01*
X179071427Y-175954819D02*
X178738094Y-174954819D01*
X178738094Y-174954819D02*
X178404761Y-175954819D01*
X177357142Y-174907200D02*
X178214284Y-176192914D01*
X176690475Y-175431009D02*
X176547618Y-175478628D01*
X176547618Y-175478628D02*
X176499999Y-175526247D01*
X176499999Y-175526247D02*
X176452380Y-175621485D01*
X176452380Y-175621485D02*
X176452380Y-175764342D01*
X176452380Y-175764342D02*
X176499999Y-175859580D01*
X176499999Y-175859580D02*
X176547618Y-175907200D01*
X176547618Y-175907200D02*
X176642856Y-175954819D01*
X176642856Y-175954819D02*
X177023808Y-175954819D01*
X177023808Y-175954819D02*
X177023808Y-174954819D01*
X177023808Y-174954819D02*
X176690475Y-174954819D01*
X176690475Y-174954819D02*
X176595237Y-175002438D01*
X176595237Y-175002438D02*
X176547618Y-175050057D01*
X176547618Y-175050057D02*
X176499999Y-175145295D01*
X176499999Y-175145295D02*
X176499999Y-175240533D01*
X176499999Y-175240533D02*
X176547618Y-175335771D01*
X176547618Y-175335771D02*
X176595237Y-175383390D01*
X176595237Y-175383390D02*
X176690475Y-175431009D01*
X176690475Y-175431009D02*
X177023808Y-175431009D01*
X175309523Y-174907200D02*
X176166665Y-176192914D01*
X174452380Y-175002438D02*
X174547618Y-174954819D01*
X174547618Y-174954819D02*
X174690475Y-174954819D01*
X174690475Y-174954819D02*
X174833332Y-175002438D01*
X174833332Y-175002438D02*
X174928570Y-175097676D01*
X174928570Y-175097676D02*
X174976189Y-175192914D01*
X174976189Y-175192914D02*
X175023808Y-175383390D01*
X175023808Y-175383390D02*
X175023808Y-175526247D01*
X175023808Y-175526247D02*
X174976189Y-175716723D01*
X174976189Y-175716723D02*
X174928570Y-175811961D01*
X174928570Y-175811961D02*
X174833332Y-175907200D01*
X174833332Y-175907200D02*
X174690475Y-175954819D01*
X174690475Y-175954819D02*
X174595237Y-175954819D01*
X174595237Y-175954819D02*
X174452380Y-175907200D01*
X174452380Y-175907200D02*
X174404761Y-175859580D01*
X174404761Y-175859580D02*
X174404761Y-175526247D01*
X174404761Y-175526247D02*
X174595237Y-175526247D01*
X173976189Y-175954819D02*
X173976189Y-174954819D01*
X173976189Y-174954819D02*
X173404761Y-175954819D01*
X173404761Y-175954819D02*
X173404761Y-174954819D01*
X172928570Y-175954819D02*
X172928570Y-174954819D01*
X172928570Y-174954819D02*
X172690475Y-174954819D01*
X172690475Y-174954819D02*
X172547618Y-175002438D01*
X172547618Y-175002438D02*
X172452380Y-175097676D01*
X172452380Y-175097676D02*
X172404761Y-175192914D01*
X172404761Y-175192914D02*
X172357142Y-175383390D01*
X172357142Y-175383390D02*
X172357142Y-175526247D01*
X172357142Y-175526247D02*
X172404761Y-175716723D01*
X172404761Y-175716723D02*
X172452380Y-175811961D01*
X172452380Y-175811961D02*
X172547618Y-175907200D01*
X172547618Y-175907200D02*
X172690475Y-175954819D01*
X172690475Y-175954819D02*
X172928570Y-175954819D01*
X172023808Y-176335771D02*
X171976189Y-176288152D01*
X171976189Y-176288152D02*
X171880951Y-176145295D01*
X171880951Y-176145295D02*
X171833332Y-176050057D01*
X171833332Y-176050057D02*
X171785713Y-175907200D01*
X171785713Y-175907200D02*
X171738094Y-175669104D01*
X171738094Y-175669104D02*
X171738094Y-175478628D01*
X171738094Y-175478628D02*
X171785713Y-175240533D01*
X171785713Y-175240533D02*
X171833332Y-175097676D01*
X171833332Y-175097676D02*
X171880951Y-175002438D01*
X171880951Y-175002438D02*
X171976189Y-174859580D01*
X171976189Y-174859580D02*
X172023808Y-174811961D01*
X186285714Y-169454819D02*
X186285714Y-170169104D01*
X186285714Y-170169104D02*
X186333333Y-170311961D01*
X186333333Y-170311961D02*
X186428571Y-170407200D01*
X186428571Y-170407200D02*
X186571428Y-170454819D01*
X186571428Y-170454819D02*
X186666666Y-170454819D01*
X186047619Y-170550057D02*
X185285714Y-170550057D01*
X184476190Y-170454819D02*
X184809523Y-169978628D01*
X185047618Y-170454819D02*
X185047618Y-169454819D01*
X185047618Y-169454819D02*
X184666666Y-169454819D01*
X184666666Y-169454819D02*
X184571428Y-169502438D01*
X184571428Y-169502438D02*
X184523809Y-169550057D01*
X184523809Y-169550057D02*
X184476190Y-169645295D01*
X184476190Y-169645295D02*
X184476190Y-169788152D01*
X184476190Y-169788152D02*
X184523809Y-169883390D01*
X184523809Y-169883390D02*
X184571428Y-169931009D01*
X184571428Y-169931009D02*
X184666666Y-169978628D01*
X184666666Y-169978628D02*
X185047618Y-169978628D01*
X184095237Y-170407200D02*
X183952380Y-170454819D01*
X183952380Y-170454819D02*
X183714285Y-170454819D01*
X183714285Y-170454819D02*
X183619047Y-170407200D01*
X183619047Y-170407200D02*
X183571428Y-170359580D01*
X183571428Y-170359580D02*
X183523809Y-170264342D01*
X183523809Y-170264342D02*
X183523809Y-170169104D01*
X183523809Y-170169104D02*
X183571428Y-170073866D01*
X183571428Y-170073866D02*
X183619047Y-170026247D01*
X183619047Y-170026247D02*
X183714285Y-169978628D01*
X183714285Y-169978628D02*
X183904761Y-169931009D01*
X183904761Y-169931009D02*
X183999999Y-169883390D01*
X183999999Y-169883390D02*
X184047618Y-169835771D01*
X184047618Y-169835771D02*
X184095237Y-169740533D01*
X184095237Y-169740533D02*
X184095237Y-169645295D01*
X184095237Y-169645295D02*
X184047618Y-169550057D01*
X184047618Y-169550057D02*
X183999999Y-169502438D01*
X183999999Y-169502438D02*
X183904761Y-169454819D01*
X183904761Y-169454819D02*
X183666666Y-169454819D01*
X183666666Y-169454819D02*
X183523809Y-169502438D01*
X182666666Y-169788152D02*
X182666666Y-170454819D01*
X182904761Y-169407200D02*
X183142856Y-170121485D01*
X183142856Y-170121485D02*
X182523809Y-170121485D01*
X181999999Y-169883390D02*
X182095237Y-169835771D01*
X182095237Y-169835771D02*
X182142856Y-169788152D01*
X182142856Y-169788152D02*
X182190475Y-169692914D01*
X182190475Y-169692914D02*
X182190475Y-169645295D01*
X182190475Y-169645295D02*
X182142856Y-169550057D01*
X182142856Y-169550057D02*
X182095237Y-169502438D01*
X182095237Y-169502438D02*
X181999999Y-169454819D01*
X181999999Y-169454819D02*
X181809523Y-169454819D01*
X181809523Y-169454819D02*
X181714285Y-169502438D01*
X181714285Y-169502438D02*
X181666666Y-169550057D01*
X181666666Y-169550057D02*
X181619047Y-169645295D01*
X181619047Y-169645295D02*
X181619047Y-169692914D01*
X181619047Y-169692914D02*
X181666666Y-169788152D01*
X181666666Y-169788152D02*
X181714285Y-169835771D01*
X181714285Y-169835771D02*
X181809523Y-169883390D01*
X181809523Y-169883390D02*
X181999999Y-169883390D01*
X181999999Y-169883390D02*
X182095237Y-169931009D01*
X182095237Y-169931009D02*
X182142856Y-169978628D01*
X182142856Y-169978628D02*
X182190475Y-170073866D01*
X182190475Y-170073866D02*
X182190475Y-170264342D01*
X182190475Y-170264342D02*
X182142856Y-170359580D01*
X182142856Y-170359580D02*
X182095237Y-170407200D01*
X182095237Y-170407200D02*
X181999999Y-170454819D01*
X181999999Y-170454819D02*
X181809523Y-170454819D01*
X181809523Y-170454819D02*
X181714285Y-170407200D01*
X181714285Y-170407200D02*
X181666666Y-170359580D01*
X181666666Y-170359580D02*
X181619047Y-170264342D01*
X181619047Y-170264342D02*
X181619047Y-170073866D01*
X181619047Y-170073866D02*
X181666666Y-169978628D01*
X181666666Y-169978628D02*
X181714285Y-169931009D01*
X181714285Y-169931009D02*
X181809523Y-169883390D01*
X180714285Y-169454819D02*
X181190475Y-169454819D01*
X181190475Y-169454819D02*
X181238094Y-169931009D01*
X181238094Y-169931009D02*
X181190475Y-169883390D01*
X181190475Y-169883390D02*
X181095237Y-169835771D01*
X181095237Y-169835771D02*
X180857142Y-169835771D01*
X180857142Y-169835771D02*
X180761904Y-169883390D01*
X180761904Y-169883390D02*
X180714285Y-169931009D01*
X180714285Y-169931009D02*
X180666666Y-170026247D01*
X180666666Y-170026247D02*
X180666666Y-170264342D01*
X180666666Y-170264342D02*
X180714285Y-170359580D01*
X180714285Y-170359580D02*
X180761904Y-170407200D01*
X180761904Y-170407200D02*
X180857142Y-170454819D01*
X180857142Y-170454819D02*
X181095237Y-170454819D01*
X181095237Y-170454819D02*
X181190475Y-170407200D01*
X181190475Y-170407200D02*
X181238094Y-170359580D01*
X180476190Y-170550057D02*
X179714285Y-170550057D01*
X179476189Y-170454819D02*
X179476189Y-169454819D01*
X178999999Y-170454819D02*
X178999999Y-169454819D01*
X178999999Y-169454819D02*
X178428571Y-170454819D01*
X178428571Y-170454819D02*
X178428571Y-169454819D01*
X176788152Y-141000000D02*
X177788152Y-141000000D01*
X176835771Y-141000000D02*
X176788152Y-141095238D01*
X176788152Y-141095238D02*
X176788152Y-141285714D01*
X176788152Y-141285714D02*
X176835771Y-141380952D01*
X176835771Y-141380952D02*
X176883390Y-141428571D01*
X176883390Y-141428571D02*
X176978628Y-141476190D01*
X176978628Y-141476190D02*
X177264342Y-141476190D01*
X177264342Y-141476190D02*
X177359580Y-141428571D01*
X177359580Y-141428571D02*
X177407200Y-141380952D01*
X177407200Y-141380952D02*
X177454819Y-141285714D01*
X177454819Y-141285714D02*
X177454819Y-141095238D01*
X177454819Y-141095238D02*
X177407200Y-141000000D01*
X177454819Y-141904762D02*
X176454819Y-141904762D01*
X177454819Y-142333333D02*
X176931009Y-142333333D01*
X176931009Y-142333333D02*
X176835771Y-142285714D01*
X176835771Y-142285714D02*
X176788152Y-142190476D01*
X176788152Y-142190476D02*
X176788152Y-142047619D01*
X176788152Y-142047619D02*
X176835771Y-141952381D01*
X176835771Y-141952381D02*
X176883390Y-141904762D01*
X176788152Y-142714286D02*
X177454819Y-142952381D01*
X176788152Y-143190476D02*
X177454819Y-142952381D01*
X177454819Y-142952381D02*
X177692914Y-142857143D01*
X177692914Y-142857143D02*
X177740533Y-142809524D01*
X177740533Y-142809524D02*
X177788152Y-142714286D01*
X177359580Y-144142857D02*
X177407200Y-144095238D01*
X177407200Y-144095238D02*
X177454819Y-143952381D01*
X177454819Y-143952381D02*
X177454819Y-143857143D01*
X177454819Y-143857143D02*
X177407200Y-143714286D01*
X177407200Y-143714286D02*
X177311961Y-143619048D01*
X177311961Y-143619048D02*
X177216723Y-143571429D01*
X177216723Y-143571429D02*
X177026247Y-143523810D01*
X177026247Y-143523810D02*
X176883390Y-143523810D01*
X176883390Y-143523810D02*
X176692914Y-143571429D01*
X176692914Y-143571429D02*
X176597676Y-143619048D01*
X176597676Y-143619048D02*
X176502438Y-143714286D01*
X176502438Y-143714286D02*
X176454819Y-143857143D01*
X176454819Y-143857143D02*
X176454819Y-143952381D01*
X176454819Y-143952381D02*
X176502438Y-144095238D01*
X176502438Y-144095238D02*
X176550057Y-144142857D01*
X176454819Y-144761905D02*
X176454819Y-144952381D01*
X176454819Y-144952381D02*
X176502438Y-145047619D01*
X176502438Y-145047619D02*
X176597676Y-145142857D01*
X176597676Y-145142857D02*
X176788152Y-145190476D01*
X176788152Y-145190476D02*
X177121485Y-145190476D01*
X177121485Y-145190476D02*
X177311961Y-145142857D01*
X177311961Y-145142857D02*
X177407200Y-145047619D01*
X177407200Y-145047619D02*
X177454819Y-144952381D01*
X177454819Y-144952381D02*
X177454819Y-144761905D01*
X177454819Y-144761905D02*
X177407200Y-144666667D01*
X177407200Y-144666667D02*
X177311961Y-144571429D01*
X177311961Y-144571429D02*
X177121485Y-144523810D01*
X177121485Y-144523810D02*
X176788152Y-144523810D01*
X176788152Y-144523810D02*
X176597676Y-144571429D01*
X176597676Y-144571429D02*
X176502438Y-144666667D01*
X176502438Y-144666667D02*
X176454819Y-144761905D01*
X177454819Y-146190476D02*
X176978628Y-145857143D01*
X177454819Y-145619048D02*
X176454819Y-145619048D01*
X176454819Y-145619048D02*
X176454819Y-146000000D01*
X176454819Y-146000000D02*
X176502438Y-146095238D01*
X176502438Y-146095238D02*
X176550057Y-146142857D01*
X176550057Y-146142857D02*
X176645295Y-146190476D01*
X176645295Y-146190476D02*
X176788152Y-146190476D01*
X176788152Y-146190476D02*
X176883390Y-146142857D01*
X176883390Y-146142857D02*
X176931009Y-146095238D01*
X176931009Y-146095238D02*
X176978628Y-146000000D01*
X176978628Y-146000000D02*
X176978628Y-145619048D01*
X176931009Y-146619048D02*
X176931009Y-146952381D01*
X177454819Y-147095238D02*
X177454819Y-146619048D01*
X177454819Y-146619048D02*
X176454819Y-146619048D01*
X176454819Y-146619048D02*
X176454819Y-147095238D01*
X177073866Y-147523810D02*
X177073866Y-148285715D01*
X177169104Y-148714286D02*
X177169104Y-149190476D01*
X177454819Y-148619048D02*
X176454819Y-148952381D01*
X176454819Y-148952381D02*
X177454819Y-149285714D01*
X177454819Y-149619048D02*
X176454819Y-149619048D01*
X176454819Y-149619048D02*
X177169104Y-149952381D01*
X177169104Y-149952381D02*
X176454819Y-150285714D01*
X176454819Y-150285714D02*
X177454819Y-150285714D01*
X176454819Y-151190476D02*
X176454819Y-151000000D01*
X176454819Y-151000000D02*
X176502438Y-150904762D01*
X176502438Y-150904762D02*
X176550057Y-150857143D01*
X176550057Y-150857143D02*
X176692914Y-150761905D01*
X176692914Y-150761905D02*
X176883390Y-150714286D01*
X176883390Y-150714286D02*
X177264342Y-150714286D01*
X177264342Y-150714286D02*
X177359580Y-150761905D01*
X177359580Y-150761905D02*
X177407200Y-150809524D01*
X177407200Y-150809524D02*
X177454819Y-150904762D01*
X177454819Y-150904762D02*
X177454819Y-151095238D01*
X177454819Y-151095238D02*
X177407200Y-151190476D01*
X177407200Y-151190476D02*
X177359580Y-151238095D01*
X177359580Y-151238095D02*
X177264342Y-151285714D01*
X177264342Y-151285714D02*
X177026247Y-151285714D01*
X177026247Y-151285714D02*
X176931009Y-151238095D01*
X176931009Y-151238095D02*
X176883390Y-151190476D01*
X176883390Y-151190476D02*
X176835771Y-151095238D01*
X176835771Y-151095238D02*
X176835771Y-150904762D01*
X176835771Y-150904762D02*
X176883390Y-150809524D01*
X176883390Y-150809524D02*
X176931009Y-150761905D01*
X176931009Y-150761905D02*
X177026247Y-150714286D01*
X176550057Y-151666667D02*
X176502438Y-151714286D01*
X176502438Y-151714286D02*
X176454819Y-151809524D01*
X176454819Y-151809524D02*
X176454819Y-152047619D01*
X176454819Y-152047619D02*
X176502438Y-152142857D01*
X176502438Y-152142857D02*
X176550057Y-152190476D01*
X176550057Y-152190476D02*
X176645295Y-152238095D01*
X176645295Y-152238095D02*
X176740533Y-152238095D01*
X176740533Y-152238095D02*
X176883390Y-152190476D01*
X176883390Y-152190476D02*
X177454819Y-151619048D01*
X177454819Y-151619048D02*
X177454819Y-152238095D01*
X177454819Y-152571429D02*
X176788152Y-153095238D01*
X176788152Y-152571429D02*
X177454819Y-153095238D01*
X177454819Y-154238096D02*
X176454819Y-154238096D01*
X176454819Y-154238096D02*
X176454819Y-154619048D01*
X176454819Y-154619048D02*
X176502438Y-154714286D01*
X176502438Y-154714286D02*
X176550057Y-154761905D01*
X176550057Y-154761905D02*
X176645295Y-154809524D01*
X176645295Y-154809524D02*
X176788152Y-154809524D01*
X176788152Y-154809524D02*
X176883390Y-154761905D01*
X176883390Y-154761905D02*
X176931009Y-154714286D01*
X176931009Y-154714286D02*
X176978628Y-154619048D01*
X176978628Y-154619048D02*
X176978628Y-154238096D01*
X177359580Y-155809524D02*
X177407200Y-155761905D01*
X177407200Y-155761905D02*
X177454819Y-155619048D01*
X177454819Y-155619048D02*
X177454819Y-155523810D01*
X177454819Y-155523810D02*
X177407200Y-155380953D01*
X177407200Y-155380953D02*
X177311961Y-155285715D01*
X177311961Y-155285715D02*
X177216723Y-155238096D01*
X177216723Y-155238096D02*
X177026247Y-155190477D01*
X177026247Y-155190477D02*
X176883390Y-155190477D01*
X176883390Y-155190477D02*
X176692914Y-155238096D01*
X176692914Y-155238096D02*
X176597676Y-155285715D01*
X176597676Y-155285715D02*
X176502438Y-155380953D01*
X176502438Y-155380953D02*
X176454819Y-155523810D01*
X176454819Y-155523810D02*
X176454819Y-155619048D01*
X176454819Y-155619048D02*
X176502438Y-155761905D01*
X176502438Y-155761905D02*
X176550057Y-155809524D01*
X177454819Y-156238096D02*
X176454819Y-156238096D01*
X176454819Y-156238096D02*
X177169104Y-156571429D01*
X177169104Y-156571429D02*
X176454819Y-156904762D01*
X176454819Y-156904762D02*
X177454819Y-156904762D01*
X177073866Y-157380953D02*
X177073866Y-158142858D01*
X176454819Y-158809524D02*
X176454819Y-158904762D01*
X176454819Y-158904762D02*
X176502438Y-159000000D01*
X176502438Y-159000000D02*
X176550057Y-159047619D01*
X176550057Y-159047619D02*
X176645295Y-159095238D01*
X176645295Y-159095238D02*
X176835771Y-159142857D01*
X176835771Y-159142857D02*
X177073866Y-159142857D01*
X177073866Y-159142857D02*
X177264342Y-159095238D01*
X177264342Y-159095238D02*
X177359580Y-159047619D01*
X177359580Y-159047619D02*
X177407200Y-159000000D01*
X177407200Y-159000000D02*
X177454819Y-158904762D01*
X177454819Y-158904762D02*
X177454819Y-158809524D01*
X177454819Y-158809524D02*
X177407200Y-158714286D01*
X177407200Y-158714286D02*
X177359580Y-158666667D01*
X177359580Y-158666667D02*
X177264342Y-158619048D01*
X177264342Y-158619048D02*
X177073866Y-158571429D01*
X177073866Y-158571429D02*
X176835771Y-158571429D01*
X176835771Y-158571429D02*
X176645295Y-158619048D01*
X176645295Y-158619048D02*
X176550057Y-158666667D01*
X176550057Y-158666667D02*
X176502438Y-158714286D01*
X176502438Y-158714286D02*
X176454819Y-158809524D01*
X176454819Y-159476191D02*
X176454819Y-160142857D01*
X176454819Y-160142857D02*
X177454819Y-159714286D01*
X177454819Y-161047619D02*
X177454819Y-160476191D01*
X177454819Y-160761905D02*
X176454819Y-160761905D01*
X176454819Y-160761905D02*
X176597676Y-160666667D01*
X176597676Y-160666667D02*
X176692914Y-160571429D01*
X176692914Y-160571429D02*
X176740533Y-160476191D01*
D12*
%TO.C,J_RS485_OUT*%
X179000000Y-132750000D02*
X179000000Y-128500000D01*
X183750000Y-132042893D02*
X183250000Y-132750000D01*
X184250000Y-132750000D02*
X183750000Y-132042893D01*
X186000000Y-128500000D02*
X179000000Y-128500000D01*
X186000000Y-132750000D02*
X179000000Y-132750000D01*
X186000000Y-132750000D02*
X186000000Y-128500000D01*
X181500000Y-130500000D02*
X181000000Y-130500000D01*
X181000000Y-131000000D01*
X181500000Y-131000000D01*
X181500000Y-130500000D01*
X182750000Y-130500000D02*
X182250000Y-130500000D01*
X182250000Y-131000000D01*
X182750000Y-131000000D01*
X182750000Y-130500000D01*
X184000000Y-130500000D02*
X183500000Y-130500000D01*
X183500000Y-131000000D01*
X184000000Y-131000000D01*
X184000000Y-130500000D01*
%TO.C,J_RS485_IN*%
X179000000Y-173250000D02*
X179000000Y-169000000D01*
X183750000Y-172542893D02*
X183250000Y-173250000D01*
X184250000Y-173250000D02*
X183750000Y-172542893D01*
X186000000Y-169000000D02*
X179000000Y-169000000D01*
X186000000Y-173250000D02*
X179000000Y-173250000D01*
X186000000Y-173250000D02*
X186000000Y-169000000D01*
X181500000Y-171000000D02*
X181000000Y-171000000D01*
X181000000Y-171500000D01*
X181500000Y-171500000D01*
X181500000Y-171000000D01*
X182750000Y-171000000D02*
X182250000Y-171000000D01*
X182250000Y-171500000D01*
X182750000Y-171500000D01*
X182750000Y-171000000D01*
X184000000Y-171000000D02*
X183500000Y-171000000D01*
X183500000Y-171500000D01*
X184000000Y-171500000D01*
X184000000Y-171000000D01*
%TO.C,T2*%
D10*
X234500000Y-142500000D02*
X223500000Y-142500000D01*
X223500000Y-150500000D01*
X234500000Y-150500000D01*
X234500000Y-142500000D01*
%TO.C,U_SOM*%
D13*
X221500000Y-167000000D02*
X178500000Y-167000000D01*
X178500000Y-135000000D01*
X221500000Y-135000000D01*
X221500000Y-167000000D01*
%TO.C,T1*%
D10*
X223500000Y-160270000D02*
X234500000Y-160270000D01*
X234500000Y-152270000D01*
X223500000Y-152270000D01*
X223500000Y-160270000D01*
%TD*%
M02*
