%TF.GenerationSoftware,KiCad,Pcbnew,9.0.2+dfsg-1*%
%TF.CreationDate,2026-07-28T10:16:54-04:00*%
%TF.ProjectId,Jayne,4a61796e-652e-46b6-9963-61645f706362,-*%
%TF.SameCoordinates,Original*%
%TF.FileFunction,Soldermask,Bot*%
%TF.FilePolarity,Negative*%
%FSLAX46Y46*%
G04 Gerber Fmt 4.6, Leading zero omitted, Abs format (unit mm)*
G04 Created by KiCad (PCBNEW 9.0.2+dfsg-1) date 2026-07-28 10:16:54*
%MOMM*%
%LPD*%
G01*
G04 APERTURE LIST*
G04 Aperture macros list*
%AMRoundRect*
0 Rectangle with rounded corners*
0 $1 Rounding radius*
0 $2 $3 $4 $5 $6 $7 $8 $9 X,Y pos of 4 corners*
0 Add a 4 corners polygon primitive as box body*
4,1,4,$2,$3,$4,$5,$6,$7,$8,$9,$2,$3,0*
0 Add four circle primitives for the rounded corners*
1,1,$1+$1,$2,$3*
1,1,$1+$1,$4,$5*
1,1,$1+$1,$6,$7*
1,1,$1+$1,$8,$9*
0 Add four rect primitives between the rounded corners*
20,1,$1+$1,$2,$3,$4,$5,0*
20,1,$1+$1,$4,$5,$6,$7,0*
20,1,$1+$1,$6,$7,$8,$9,0*
20,1,$1+$1,$8,$9,$2,$3,0*%
G04 Aperture macros list end*
%ADD10C,2.700000*%
%ADD11RoundRect,0.150000X0.150000X0.700000X-0.150000X0.700000X-0.150000X-0.700000X0.150000X-0.700000X0*%
%ADD12RoundRect,0.250000X0.250000X1.150000X-0.250000X1.150000X-0.250000X-1.150000X0.250000X-1.150000X0*%
%ADD13RoundRect,0.250000X0.650000X0.250000X-0.650000X0.250000X-0.650000X-0.250000X0.650000X-0.250000X0*%
%ADD14C,1.016000*%
%ADD15RoundRect,0.076250X0.076250X-0.598750X0.076250X0.598750X-0.076250X0.598750X-0.076250X-0.598750X0*%
%ADD16RoundRect,0.250000X-0.650000X-0.250000X0.650000X-0.250000X0.650000X0.250000X-0.650000X0.250000X0*%
G04 APERTURE END LIST*
D10*
%TO.C,MH3*%
X176893245Y-176528420D03*
%TD*%
%TO.C,MH2*%
X240743245Y-161628563D03*
%TD*%
%TO.C,MH4*%
X176893245Y-126089766D03*
%TD*%
%TO.C,MH1*%
X240743245Y-140989622D03*
%TD*%
D11*
%TO.C,J_RS485_OUT*%
X183750000Y-132950000D03*
X182500000Y-132950000D03*
X181250000Y-132950000D03*
D12*
X185600000Y-129600000D03*
X179400000Y-129600000D03*
%TD*%
D11*
%TO.C,J_RS485_IN*%
X183750000Y-173450000D03*
X182500000Y-173450000D03*
X181250000Y-173450000D03*
D12*
X185600000Y-170100000D03*
X179400000Y-170100000D03*
%TD*%
D13*
%TO.C,T2*%
X234000000Y-142690000D03*
X234000000Y-145230000D03*
X234000000Y-147770000D03*
X234000000Y-150310000D03*
X224000000Y-150310000D03*
X224000000Y-147770000D03*
X224000000Y-145230000D03*
X224000000Y-142690000D03*
%TD*%
D10*
%TO.C,U_SOM*%
X218700000Y-164200000D03*
D14*
X183259000Y-162200000D03*
X216741000Y-162200000D03*
X183259000Y-139800000D03*
X216741000Y-139800000D03*
D10*
X181300000Y-137800000D03*
D15*
X214750000Y-138807000D03*
X214250000Y-138807000D03*
X213750000Y-138807000D03*
X213250000Y-138807000D03*
X212750000Y-138807000D03*
X212250000Y-138807000D03*
X211750000Y-138807000D03*
X211250000Y-138807000D03*
X210750000Y-138807000D03*
X210250000Y-138807000D03*
X209750000Y-138807000D03*
X209250000Y-138807000D03*
X208750000Y-138807000D03*
X208250000Y-138807000D03*
X207750000Y-138807000D03*
X207250000Y-138807000D03*
X206750000Y-138807000D03*
X206250000Y-138807000D03*
X205750000Y-138807000D03*
X205250000Y-138807000D03*
X204750000Y-138807000D03*
X204250000Y-138807000D03*
X203750000Y-138807000D03*
X203250000Y-138807000D03*
X202750000Y-138807000D03*
X202250000Y-138807000D03*
X201750000Y-138807000D03*
X201250000Y-138807000D03*
X200750000Y-138807000D03*
X200250000Y-138807000D03*
X199750000Y-138807000D03*
X199250000Y-138807000D03*
X198750000Y-138807000D03*
X198250000Y-138807000D03*
X197750000Y-138807000D03*
X197250000Y-138807000D03*
X196750000Y-138807000D03*
X196250000Y-138807000D03*
X195750000Y-138807000D03*
X195250000Y-138807000D03*
X194750000Y-138807000D03*
X194250000Y-138807000D03*
X193750000Y-138807000D03*
X193250000Y-138807000D03*
X192750000Y-138807000D03*
X192250000Y-138807000D03*
X191750000Y-138807000D03*
X191250000Y-138807000D03*
X190750000Y-138807000D03*
X190250000Y-138807000D03*
X189750000Y-138807000D03*
X189250000Y-138807000D03*
X188750000Y-138807000D03*
X188250000Y-138807000D03*
X187750000Y-138807000D03*
X187250000Y-138807000D03*
X186750000Y-138807000D03*
X186250000Y-138807000D03*
X185750000Y-138807000D03*
X185250000Y-138807000D03*
X214750000Y-140793000D03*
X214250000Y-140793000D03*
X213750000Y-140793000D03*
X213250000Y-140793000D03*
X212750000Y-140793000D03*
X212250000Y-140793000D03*
X211750000Y-140793000D03*
X211250000Y-140793000D03*
X210750000Y-140793000D03*
X210250000Y-140793000D03*
X209750000Y-140793000D03*
X209250000Y-140793000D03*
X208750000Y-140793000D03*
X208250000Y-140793000D03*
X207750000Y-140793000D03*
X207250000Y-140793000D03*
X206750000Y-140793000D03*
X206250000Y-140793000D03*
X205750000Y-140793000D03*
X205250000Y-140793000D03*
X204750000Y-140793000D03*
X204250000Y-140793000D03*
X203750000Y-140793000D03*
X203250000Y-140793000D03*
X202750000Y-140793000D03*
X202250000Y-140793000D03*
X201750000Y-140793000D03*
X201250000Y-140793000D03*
X200750000Y-140793000D03*
X200250000Y-140793000D03*
X199750000Y-140793000D03*
X199250000Y-140793000D03*
X198750000Y-140793000D03*
X198250000Y-140793000D03*
X197750000Y-140793000D03*
X197250000Y-140793000D03*
X196750000Y-140793000D03*
X196250000Y-140793000D03*
X195750000Y-140793000D03*
X195250000Y-140793000D03*
X194750000Y-140793000D03*
X194250000Y-140793000D03*
X193750000Y-140793000D03*
X193250000Y-140793000D03*
X192750000Y-140793000D03*
X192250000Y-140793000D03*
X191750000Y-140793000D03*
X191250000Y-140793000D03*
X190750000Y-140793000D03*
X190250000Y-140793000D03*
X189750000Y-140793000D03*
X189250000Y-140793000D03*
X188750000Y-140793000D03*
X188250000Y-140793000D03*
X187750000Y-140793000D03*
X187250000Y-140793000D03*
X186750000Y-140793000D03*
X186250000Y-140793000D03*
X185750000Y-140793000D03*
X185250000Y-140793000D03*
X214750000Y-161207000D03*
X214250000Y-161207000D03*
X213750000Y-161207000D03*
X213250000Y-161207000D03*
X212750000Y-161207000D03*
X212250000Y-161207000D03*
X211750000Y-161207000D03*
X211250000Y-161207000D03*
X210750000Y-161207000D03*
X210250000Y-161207000D03*
X209750000Y-161207000D03*
X209250000Y-161207000D03*
X208750000Y-161207000D03*
X208250000Y-161207000D03*
X207750000Y-161207000D03*
X207250000Y-161207000D03*
X206750000Y-161207000D03*
X206250000Y-161207000D03*
X205750000Y-161207000D03*
X205250000Y-161207000D03*
X204750000Y-161207000D03*
X204250000Y-161207000D03*
X203750000Y-161207000D03*
X203250000Y-161207000D03*
X202750000Y-161207000D03*
X202250000Y-161207000D03*
X201750000Y-161207000D03*
X201250000Y-161207000D03*
X200750000Y-161207000D03*
X200250000Y-161207000D03*
X199750000Y-161207000D03*
X199250000Y-161207000D03*
X198750000Y-161207000D03*
X198250000Y-161207000D03*
X197750000Y-161207000D03*
X197250000Y-161207000D03*
X196750000Y-161207000D03*
X196250000Y-161207000D03*
X195750000Y-161207000D03*
X195250000Y-161207000D03*
X194750000Y-161207000D03*
X194250000Y-161207000D03*
X193750000Y-161207000D03*
X193250000Y-161207000D03*
X192750000Y-161207000D03*
X192250000Y-161207000D03*
X191750000Y-161207000D03*
X191250000Y-161207000D03*
X190750000Y-161207000D03*
X190250000Y-161207000D03*
X189750000Y-161207000D03*
X189250000Y-161207000D03*
X188750000Y-161207000D03*
X188250000Y-161207000D03*
X187750000Y-161207000D03*
X187250000Y-161207000D03*
X186750000Y-161207000D03*
X186250000Y-161207000D03*
X185750000Y-161207000D03*
X185250000Y-161207000D03*
X214750000Y-163193000D03*
X214250000Y-163193000D03*
X213750000Y-163193000D03*
X213250000Y-163193000D03*
X212750000Y-163193000D03*
X212250000Y-163193000D03*
X211750000Y-163193000D03*
X211250000Y-163193000D03*
X210750000Y-163193000D03*
X210250000Y-163193000D03*
X209750000Y-163193000D03*
X209250000Y-163193000D03*
X208750000Y-163193000D03*
X208250000Y-163193000D03*
X207750000Y-163193000D03*
X207250000Y-163193000D03*
X206750000Y-163193000D03*
X206250000Y-163193000D03*
X205750000Y-163193000D03*
X205250000Y-163193000D03*
X204750000Y-163193000D03*
X204250000Y-163193000D03*
X203750000Y-163193000D03*
X203250000Y-163193000D03*
X202750000Y-163193000D03*
X202250000Y-163193000D03*
X201750000Y-163193000D03*
X201250000Y-163193000D03*
X200750000Y-163193000D03*
X200250000Y-163193000D03*
X199750000Y-163193000D03*
X199250000Y-163193000D03*
X198750000Y-163193000D03*
X198250000Y-163193000D03*
X197750000Y-163193000D03*
X197250000Y-163193000D03*
X196750000Y-163193000D03*
X196250000Y-163193000D03*
X195750000Y-163193000D03*
X195250000Y-163193000D03*
X194750000Y-163193000D03*
X194250000Y-163193000D03*
X193750000Y-163193000D03*
X193250000Y-163193000D03*
X192750000Y-163193000D03*
X192250000Y-163193000D03*
X191750000Y-163193000D03*
X191250000Y-163193000D03*
X190750000Y-163193000D03*
X190250000Y-163193000D03*
X189750000Y-163193000D03*
X189250000Y-163193000D03*
X188750000Y-163193000D03*
X188250000Y-163193000D03*
X187750000Y-163193000D03*
X187250000Y-163193000D03*
X186750000Y-163193000D03*
X186250000Y-163193000D03*
X185750000Y-163193000D03*
X185250000Y-163193000D03*
%TD*%
D16*
%TO.C,T1*%
X224000000Y-160080000D03*
X224000000Y-157540000D03*
X224000000Y-155000000D03*
X224000000Y-152460000D03*
X234000000Y-152460000D03*
X234000000Y-155000000D03*
X234000000Y-157540000D03*
X234000000Y-160080000D03*
%TD*%
M02*
