%TF.GenerationSoftware,KiCad,Pcbnew,9.0.2+dfsg-1*%
%TF.CreationDate,2026-07-28T10:16:54-04:00*%
%TF.ProjectId,Jayne,4a61796e-652e-46b6-9963-61645f706362,-*%
%TF.SameCoordinates,Original*%
%TF.FileFunction,Other,User*%
%FSLAX46Y46*%
G04 Gerber Fmt 4.6, Leading zero omitted, Abs format (unit mm)*
G04 Created by KiCad (PCBNEW 9.0.2+dfsg-1) date 2026-07-28 10:16:54*
%MOMM*%
%LPD*%
G01*
G04 APERTURE LIST*
%ADD10C,0.050000*%
G04 APERTURE END LIST*
D10*
%TO.C,U2*%
X184050000Y-132050000D02*
X184050000Y-148950000D01*
X184050000Y-132050000D02*
X200950000Y-132050000D01*
X184050000Y-148950000D02*
X200950000Y-148950000D01*
X200950000Y-132050000D02*
X200950000Y-148950000D01*
%TO.C,C_2V5I*%
X195070000Y-154040000D02*
X196890000Y-154040000D01*
X195070000Y-154960000D02*
X195070000Y-154040000D01*
X196890000Y-154040000D02*
X196890000Y-154960000D01*
X196890000Y-154960000D02*
X195070000Y-154960000D01*
%TO.C,T1_D1*%
X195850000Y-149600000D02*
X195850000Y-152400000D01*
X195850000Y-149600000D02*
X199050000Y-149600000D01*
X195850000Y-152400000D02*
X199050000Y-152400000D01*
X199050000Y-152400000D02*
X199050000Y-149600000D01*
%TO.C,R_PG3*%
X195100000Y-156030000D02*
X196960000Y-156030000D01*
X195100000Y-156970000D02*
X195100000Y-156030000D01*
X196960000Y-156030000D02*
X196960000Y-156970000D01*
X196960000Y-156970000D02*
X195100000Y-156970000D01*
%TO.C,C_VISO*%
X206110000Y-166040000D02*
X207930000Y-166040000D01*
X206110000Y-166960000D02*
X206110000Y-166040000D01*
X207930000Y-166040000D02*
X207930000Y-166960000D01*
X207930000Y-166960000D02*
X206110000Y-166960000D01*
%TO.C,J_PWR*%
X175250000Y-128645000D02*
X175250000Y-135605000D01*
X175250000Y-135605000D02*
X181850000Y-135605000D01*
X181850000Y-128645000D02*
X175250000Y-128645000D01*
X181850000Y-135605000D02*
X181850000Y-128645000D01*
%TO.C,U_REG_1V2_CI*%
X225110000Y-145040000D02*
X226930000Y-145040000D01*
X225110000Y-145960000D02*
X225110000Y-145040000D01*
X226930000Y-145040000D02*
X226930000Y-145960000D01*
X226930000Y-145960000D02*
X225110000Y-145960000D01*
%TO.C,J_CAM_DS*%
X225050000Y-147100000D02*
X234950000Y-147100000D01*
X234950000Y-149900000D01*
X225050000Y-149900000D01*
X225050000Y-147100000D01*
%TO.C,T2_D1*%
X214750000Y-144050000D02*
X214750000Y-140850000D01*
X214750000Y-144050000D02*
X217550000Y-144050000D01*
X217550000Y-140850000D02*
X214750000Y-140850000D01*
X217550000Y-144050000D02*
X217550000Y-140850000D01*
%TO.C,R_PORZ*%
X198070000Y-156030000D02*
X199930000Y-156030000D01*
X198070000Y-156970000D02*
X198070000Y-156030000D01*
X199930000Y-156030000D02*
X199930000Y-156970000D01*
X199930000Y-156970000D02*
X198070000Y-156970000D01*
%TO.C,R_REXT*%
X203520000Y-163030000D02*
X205380000Y-163030000D01*
X203520000Y-163970000D02*
X203520000Y-163030000D01*
X205380000Y-163030000D02*
X205380000Y-163970000D01*
X205380000Y-163970000D02*
X203520000Y-163970000D01*
%TO.C,J_ETH_OUT*%
X175300000Y-139650000D02*
X175300000Y-150350000D01*
X175300000Y-150350000D02*
X181700000Y-150350000D01*
X181700000Y-139650000D02*
X175300000Y-139650000D01*
X181700000Y-150350000D02*
X181700000Y-139650000D01*
%TO.C,R_FB3B*%
X205982164Y-164530000D02*
X207842164Y-164530000D01*
X205982164Y-165470000D02*
X205982164Y-164530000D01*
X207842164Y-164530000D02*
X207842164Y-165470000D01*
X207842164Y-165470000D02*
X205982164Y-165470000D01*
%TO.C,C_VCORE*%
X203580000Y-166040000D02*
X205400000Y-166040000D01*
X203580000Y-166960000D02*
X203580000Y-166040000D01*
X205400000Y-166040000D02*
X205400000Y-166960000D01*
X205400000Y-166960000D02*
X203580000Y-166960000D01*
%TO.C,J_CANFD*%
X174700000Y-163770000D02*
X174700000Y-173230000D01*
X174700000Y-173230000D02*
X181300000Y-173230000D01*
X181300000Y-163770000D02*
X174700000Y-163770000D01*
X181300000Y-173230000D02*
X181300000Y-163770000D01*
%TO.C,T2_CMC1*%
X183530000Y-157440000D02*
X183530000Y-155560000D01*
X186470000Y-155560000D02*
X183530000Y-155560000D01*
X186470000Y-157440000D02*
X183530000Y-157440000D01*
X186470000Y-157440000D02*
X186470000Y-155560000D01*
%TO.C,U4*%
X188350000Y-160000000D02*
X188730000Y-160000000D01*
X188350000Y-168000000D02*
X188350000Y-160000000D01*
X188730000Y-158070000D02*
X201270000Y-158070000D01*
X188730000Y-160000000D02*
X188730000Y-158070000D01*
X188730000Y-168000000D02*
X188350000Y-168000000D01*
X188730000Y-169930000D02*
X188730000Y-168000000D01*
X201270000Y-158070000D02*
X201270000Y-160000000D01*
X201270000Y-160000000D02*
X201650000Y-160000000D01*
X201270000Y-168000000D02*
X201270000Y-169930000D01*
X201270000Y-169930000D02*
X188730000Y-169930000D01*
X201650000Y-160000000D02*
X201650000Y-168000000D01*
X201650000Y-168000000D02*
X201270000Y-168000000D01*
%TO.C,J_LASER*%
X235600000Y-147600000D02*
X235600000Y-152800000D01*
X235600000Y-152800000D02*
X241400000Y-152800000D01*
X241400000Y-147600000D02*
X235600000Y-147600000D01*
X241400000Y-152800000D02*
X241400000Y-147600000D01*
%TO.C,R_NRST*%
X223560000Y-150530000D02*
X225420000Y-150530000D01*
X223560000Y-151470000D02*
X223560000Y-150530000D01*
X225420000Y-150530000D02*
X225420000Y-151470000D01*
X225420000Y-151470000D02*
X223560000Y-151470000D01*
%TO.C,U_REG_1V2_L*%
X184525000Y-168200000D02*
X184525000Y-170800000D01*
X184525000Y-170800000D02*
X187125000Y-170800000D01*
X187125000Y-168200000D02*
X184525000Y-168200000D01*
X187125000Y-170800000D02*
X187125000Y-168200000D01*
%TO.C,R_485TERM*%
X187560000Y-130030000D02*
X189420000Y-130030000D01*
X187560000Y-130970000D02*
X187560000Y-130030000D01*
X189420000Y-130030000D02*
X189420000Y-130970000D01*
X189420000Y-130970000D02*
X187560000Y-130970000D01*
%TO.C,U_REG_2V5*%
X220850000Y-146587500D02*
X221050000Y-146587500D01*
X220850000Y-148687500D02*
X220850000Y-146587500D01*
X221050000Y-145587500D02*
X224050000Y-145587500D01*
X221050000Y-146587500D02*
X221050000Y-145587500D01*
X221050000Y-148687500D02*
X220850000Y-148687500D01*
X221050000Y-149687500D02*
X221050000Y-148687500D01*
X224050000Y-145587500D02*
X224050000Y-146587500D01*
X224050000Y-146587500D02*
X224250000Y-146587500D01*
X224050000Y-148687500D02*
X224050000Y-149687500D01*
X224050000Y-149687500D02*
X221050000Y-149687500D01*
X224250000Y-146587500D02*
X224250000Y-148687500D01*
X224250000Y-148687500D02*
X224050000Y-148687500D01*
%TO.C,U6*%
X203350000Y-151000000D02*
X203730000Y-151000000D01*
X203350000Y-159000000D02*
X203350000Y-151000000D01*
X203730000Y-149070000D02*
X216270000Y-149070000D01*
X203730000Y-151000000D02*
X203730000Y-149070000D01*
X203730000Y-159000000D02*
X203350000Y-159000000D01*
X203730000Y-160930000D02*
X203730000Y-159000000D01*
X216270000Y-149070000D02*
X216270000Y-151000000D01*
X216270000Y-151000000D02*
X216650000Y-151000000D01*
X216270000Y-159000000D02*
X216270000Y-160930000D01*
X216270000Y-160930000D02*
X203730000Y-160930000D01*
X216650000Y-151000000D02*
X216650000Y-159000000D01*
X216650000Y-159000000D02*
X216270000Y-159000000D01*
%TO.C,R_FB1T*%
X203442164Y-164530000D02*
X205302164Y-164530000D01*
X203442164Y-165470000D02*
X203442164Y-164530000D01*
X205302164Y-164530000D02*
X205302164Y-165470000D01*
X205302164Y-165470000D02*
X203442164Y-165470000D01*
%TO.C,R_FB3T*%
X228560000Y-150530000D02*
X230420000Y-150530000D01*
X228560000Y-151470000D02*
X228560000Y-150530000D01*
X230420000Y-150530000D02*
X230420000Y-151470000D01*
X230420000Y-151470000D02*
X228560000Y-151470000D01*
%TO.C,R_ISET*%
X228560000Y-152030000D02*
X230420000Y-152030000D01*
X228560000Y-152970000D02*
X228560000Y-152030000D01*
X230420000Y-152030000D02*
X230420000Y-152970000D01*
X230420000Y-152970000D02*
X228560000Y-152970000D01*
%TO.C,T2_CMC2*%
X183530000Y-160440000D02*
X183530000Y-158560000D01*
X186470000Y-158560000D02*
X183530000Y-158560000D01*
X186470000Y-160440000D02*
X183530000Y-160440000D01*
X186470000Y-160440000D02*
X186470000Y-158560000D01*
%TO.C,T1_CMC2*%
X183365000Y-154505000D02*
X183365000Y-152625000D01*
X186305000Y-152625000D02*
X183365000Y-152625000D01*
X186305000Y-154505000D02*
X183365000Y-154505000D01*
X186305000Y-154505000D02*
X186305000Y-152625000D01*
%TO.C,C_2V5O*%
X198070000Y-154040000D02*
X199890000Y-154040000D01*
X198070000Y-154960000D02*
X198070000Y-154040000D01*
X199890000Y-154040000D02*
X199890000Y-154960000D01*
X199890000Y-154960000D02*
X198070000Y-154960000D01*
%TO.C,T1_CMC1*%
X183365000Y-151875000D02*
X183365000Y-149995000D01*
X186305000Y-149995000D02*
X183365000Y-149995000D01*
X186305000Y-151875000D02*
X183365000Y-151875000D01*
X186305000Y-151875000D02*
X186305000Y-149995000D01*
%TO.C,U3*%
X202305000Y-140515000D02*
X202685000Y-140515000D01*
X202305000Y-146775000D02*
X202305000Y-140515000D01*
X202685000Y-139895000D02*
X203305000Y-139895000D01*
X202685000Y-140515000D02*
X202685000Y-139895000D01*
X202685000Y-146775000D02*
X202305000Y-146775000D01*
X202685000Y-147395000D02*
X202685000Y-146775000D01*
X203305000Y-139515000D02*
X209565000Y-139515000D01*
X203305000Y-139895000D02*
X203305000Y-139515000D01*
X203305000Y-147395000D02*
X202685000Y-147395000D01*
X203305000Y-147775000D02*
X203305000Y-147395000D01*
X209565000Y-139515000D02*
X209565000Y-139895000D01*
X209565000Y-139895000D02*
X210185000Y-139895000D01*
X209565000Y-147395000D02*
X209565000Y-147775000D01*
X209565000Y-147775000D02*
X203305000Y-147775000D01*
X210185000Y-139895000D02*
X210185000Y-140515000D01*
X210185000Y-140515000D02*
X210565000Y-140515000D01*
X210185000Y-146775000D02*
X210185000Y-147395000D01*
X210185000Y-147395000D02*
X209565000Y-147395000D01*
X210565000Y-140515000D02*
X210565000Y-146775000D01*
X210565000Y-146775000D02*
X210185000Y-146775000D01*
%TO.C,J_CAM1*%
X218545000Y-138200000D02*
X218545000Y-144800000D01*
X218545000Y-144800000D02*
X228005000Y-144800000D01*
X228005000Y-138200000D02*
X218545000Y-138200000D01*
X228005000Y-144800000D02*
X228005000Y-138200000D01*
%TO.C,C_ISO*%
X192570000Y-154040000D02*
X194390000Y-154040000D01*
X192570000Y-154960000D02*
X192570000Y-154040000D01*
X194390000Y-154040000D02*
X194390000Y-154960000D01*
X194390000Y-154960000D02*
X192570000Y-154960000D01*
%TO.C,U_REG_1V2_CO*%
X203580000Y-167540000D02*
X205400000Y-167540000D01*
X203580000Y-168460000D02*
X203580000Y-167540000D01*
X205400000Y-167540000D02*
X205400000Y-168460000D01*
X205400000Y-168460000D02*
X203580000Y-168460000D01*
%TO.C,J_CAM2*%
X228770000Y-140200000D02*
X228770000Y-146800000D01*
X228770000Y-146800000D02*
X238230000Y-146800000D01*
X238230000Y-140200000D02*
X228770000Y-140200000D01*
X238230000Y-146800000D02*
X238230000Y-140200000D01*
%TO.C,U_REG_3V3_CO*%
X226110000Y-150540000D02*
X227930000Y-150540000D01*
X226110000Y-151460000D02*
X226110000Y-150540000D01*
X227930000Y-150540000D02*
X227930000Y-151460000D01*
X227930000Y-151460000D02*
X226110000Y-151460000D01*
%TO.C,U_REG_3V3_CI*%
X206100000Y-167540000D02*
X207920000Y-167540000D01*
X206100000Y-168460000D02*
X206100000Y-167540000D01*
X207920000Y-167540000D02*
X207920000Y-168460000D01*
X207920000Y-168460000D02*
X206100000Y-168460000D01*
%TO.C,U_REG_3V3_L*%
X199700000Y-150200000D02*
X199700000Y-152800000D01*
X199700000Y-152800000D02*
X202300000Y-152800000D01*
X202300000Y-150200000D02*
X199700000Y-150200000D01*
X202300000Y-152800000D02*
X202300000Y-150200000D01*
%TO.C,R2*%
X232060000Y-154530000D02*
X233920000Y-154530000D01*
X232060000Y-155470000D02*
X232060000Y-154530000D01*
X233920000Y-154530000D02*
X233920000Y-155470000D01*
X233920000Y-155470000D02*
X232060000Y-155470000D01*
%TO.C,C_ADM1*%
X174990000Y-136340000D02*
X176810000Y-136340000D01*
X174990000Y-137260000D02*
X174990000Y-136340000D01*
X176810000Y-136340000D02*
X176810000Y-137260000D01*
X176810000Y-137260000D02*
X174990000Y-137260000D01*
%TO.C,J_TOF*%
X228545000Y-156100000D02*
X228545000Y-162700000D01*
X228545000Y-162700000D02*
X238005000Y-162700000D01*
X238005000Y-156100000D02*
X228545000Y-156100000D01*
X238005000Y-162700000D02*
X238005000Y-156100000D01*
%TO.C,U_REG_3V3*%
X186950000Y-150000000D02*
X187950000Y-150000000D01*
X186950000Y-153000000D02*
X186950000Y-150000000D01*
X187950000Y-149800000D02*
X190050000Y-149800000D01*
X187950000Y-150000000D02*
X187950000Y-149800000D01*
X187950000Y-153000000D02*
X186950000Y-153000000D01*
X187950000Y-153200000D02*
X187950000Y-153000000D01*
X190050000Y-149800000D02*
X190050000Y-150000000D01*
X190050000Y-150000000D02*
X191050000Y-150000000D01*
X190050000Y-153000000D02*
X190050000Y-153200000D01*
X190050000Y-153200000D02*
X187950000Y-153200000D01*
X191050000Y-150000000D02*
X191050000Y-153000000D01*
X191050000Y-153000000D02*
X190050000Y-153000000D01*
%TO.C,J_LASER_DS*%
X234550000Y-153100000D02*
X237450000Y-153100000D01*
X237450000Y-155900000D01*
X234550000Y-155900000D01*
X234550000Y-153100000D01*
%TO.C,R_FB1B*%
X221060000Y-150530000D02*
X222920000Y-150530000D01*
X221060000Y-151470000D02*
X221060000Y-150530000D01*
X222920000Y-150530000D02*
X222920000Y-151470000D01*
X222920000Y-151470000D02*
X221060000Y-151470000D01*
%TO.C,J_SWD*%
X218270000Y-152750000D02*
X218270000Y-159350000D01*
X218270000Y-159350000D02*
X227730000Y-159350000D01*
X227730000Y-152750000D02*
X218270000Y-152750000D01*
X227730000Y-159350000D02*
X227730000Y-152750000D01*
%TO.C,J_TOF_DS*%
X222050000Y-160600000D02*
X226950000Y-160600000D01*
X226950000Y-163400000D01*
X222050000Y-163400000D01*
X222050000Y-160600000D01*
%TO.C,R_PG1*%
X192560000Y-156030000D02*
X194420000Y-156030000D01*
X192560000Y-156970000D02*
X192560000Y-156030000D01*
X194420000Y-156030000D02*
X194420000Y-156970000D01*
X194420000Y-156970000D02*
X192560000Y-156970000D01*
%TO.C,U5*%
X202370000Y-133370000D02*
X202750000Y-133370000D01*
X202370000Y-137630000D02*
X202370000Y-133370000D01*
X202750000Y-132750000D02*
X203370000Y-132750000D01*
X202750000Y-133370000D02*
X202750000Y-132750000D01*
X202750000Y-137630000D02*
X202370000Y-137630000D01*
X202750000Y-138250000D02*
X202750000Y-137630000D01*
X203370000Y-132370000D02*
X207630000Y-132370000D01*
X203370000Y-132750000D02*
X203370000Y-132370000D01*
X203370000Y-138250000D02*
X202750000Y-138250000D01*
X203370000Y-138630000D02*
X203370000Y-138250000D01*
X207630000Y-132370000D02*
X207630000Y-132750000D01*
X207630000Y-132750000D02*
X208250000Y-132750000D01*
X207630000Y-138250000D02*
X207630000Y-138630000D01*
X207630000Y-138630000D02*
X203370000Y-138630000D01*
X208250000Y-132750000D02*
X208250000Y-133370000D01*
X208250000Y-133370000D02*
X208630000Y-133370000D01*
X208250000Y-137630000D02*
X208250000Y-138250000D01*
X208250000Y-138250000D02*
X207630000Y-138250000D01*
X208630000Y-133370000D02*
X208630000Y-137630000D01*
X208630000Y-137630000D02*
X208250000Y-137630000D01*
%TO.C,Y1*%
X182700000Y-128900000D02*
X185700000Y-128900000D01*
X185700000Y-131100000D01*
X182700000Y-131100000D01*
X182700000Y-128900000D01*
%TO.C,J_CHASSIS_R*%
X218560000Y-145030000D02*
X220420000Y-145030000D01*
X218560000Y-145970000D02*
X218560000Y-145030000D01*
X220420000Y-145030000D02*
X220420000Y-145970000D01*
X220420000Y-145970000D02*
X218560000Y-145970000D01*
%TO.C,D5*%
X191850000Y-150100000D02*
X191850000Y-152900000D01*
X191850000Y-150100000D02*
X195050000Y-150100000D01*
X191850000Y-152900000D02*
X195050000Y-152900000D01*
X195050000Y-152900000D02*
X195050000Y-150100000D01*
%TO.C,C_ADM2*%
X174990000Y-137840000D02*
X176810000Y-137840000D01*
X174990000Y-138760000D02*
X174990000Y-137840000D01*
X176810000Y-137840000D02*
X176810000Y-138760000D01*
X176810000Y-138760000D02*
X174990000Y-138760000D01*
%TO.C,J_ETH_IN*%
X175300000Y-151150000D02*
X175300000Y-161850000D01*
X175300000Y-161850000D02*
X181700000Y-161850000D01*
X181700000Y-151150000D02*
X175300000Y-151150000D01*
X181700000Y-161850000D02*
X181700000Y-151150000D01*
%TO.C,R_SHIELD*%
X206060000Y-163030000D02*
X207920000Y-163030000D01*
X206060000Y-163970000D02*
X206060000Y-163030000D01*
X207920000Y-163030000D02*
X207920000Y-163970000D01*
X207920000Y-163970000D02*
X206060000Y-163970000D01*
%TO.C,CMC5*%
X182060000Y-167530000D02*
X183940000Y-167530000D01*
X182060000Y-170470000D02*
X182060000Y-167530000D01*
X182060000Y-170470000D02*
X183940000Y-170470000D01*
X183940000Y-170470000D02*
X183940000Y-167530000D01*
%TO.C,SJ_485*%
X211700000Y-136250000D02*
X211700000Y-138750000D01*
X211700000Y-136250000D02*
X215000000Y-136250000D01*
X215000000Y-138750000D02*
X211700000Y-138750000D01*
X215000000Y-138750000D02*
X215000000Y-136250000D01*
%TO.C,T1_D2*%
X217400000Y-146600000D02*
X217400000Y-149400000D01*
X217400000Y-146600000D02*
X220600000Y-146600000D01*
X217400000Y-149400000D02*
X220600000Y-149400000D01*
X220600000Y-149400000D02*
X220600000Y-146600000D01*
%TO.C,T2_D2*%
X187350000Y-154450000D02*
X187350000Y-157250000D01*
X187350000Y-154450000D02*
X190550000Y-154450000D01*
X187350000Y-157250000D02*
X190550000Y-157250000D01*
X190550000Y-157250000D02*
X190550000Y-154450000D01*
%TO.C,Q1*%
X231070000Y-150500000D02*
X232100000Y-150500000D01*
X231070000Y-153500000D02*
X231070000Y-150500000D01*
X232100000Y-150300000D02*
X233900000Y-150300000D01*
X232100000Y-150500000D02*
X232100000Y-150300000D01*
X232100000Y-153500000D02*
X231070000Y-153500000D01*
X232100000Y-153700000D02*
X232100000Y-153500000D01*
X233900000Y-150300000D02*
X233900000Y-151450000D01*
X233900000Y-151450000D02*
X234930000Y-151450000D01*
X233900000Y-152550000D02*
X233900000Y-153700000D01*
X233900000Y-153700000D02*
X232100000Y-153700000D01*
X234930000Y-151450000D02*
X234930000Y-152550000D01*
X234930000Y-152550000D02*
X233900000Y-152550000D01*
%TO.C,R1*%
X229580000Y-154530000D02*
X231440000Y-154530000D01*
X229580000Y-155470000D02*
X229580000Y-154530000D01*
X231440000Y-154530000D02*
X231440000Y-155470000D01*
X231440000Y-155470000D02*
X229580000Y-155470000D01*
%TO.C,U_REG_1V2*%
X183450000Y-163500000D02*
X184450000Y-163500000D01*
X183450000Y-166500000D02*
X183450000Y-163500000D01*
X184450000Y-163300000D02*
X186550000Y-163300000D01*
X184450000Y-163500000D02*
X184450000Y-163300000D01*
X184450000Y-166500000D02*
X183450000Y-166500000D01*
X184450000Y-166700000D02*
X184450000Y-166500000D01*
X186550000Y-163300000D02*
X186550000Y-163500000D01*
X186550000Y-163500000D02*
X187550000Y-163500000D01*
X186550000Y-166500000D02*
X186550000Y-166700000D01*
X186550000Y-166700000D02*
X184450000Y-166700000D01*
X187550000Y-163500000D02*
X187550000Y-166500000D01*
X187550000Y-166500000D02*
X186550000Y-166500000D01*
%TD*%
M02*
