solid nacelle_pod_70mm
  facet normal 0.995185 0.098017 0.000000
    outer loop
      vertex 40.0000 0.0000 0.0000
      vertex 39.2314 7.8036 0.0000
      vertex 39.2314 7.8036 120.0000
    endloop
  endfacet
  facet normal 0.995185 0.098017 -0.000000
    outer loop
      vertex 40.0000 0.0000 0.0000
      vertex 39.2314 7.8036 120.0000
      vertex 40.0000 0.0000 120.0000
    endloop
  endfacet
  facet normal -0.995185 -0.098017 0.000000
    outer loop
      vertex 35.3083 7.0233 0.0000
      vertex 36.0000 0.0000 0.0000
      vertex 36.0000 0.0000 120.0000
    endloop
  endfacet
  facet normal -0.995185 -0.098017 0.000000
    outer loop
      vertex 35.3083 7.0233 0.0000
      vertex 36.0000 0.0000 120.0000
      vertex 35.3083 7.0233 120.0000
    endloop
  endfacet
  facet normal 0.000000 0.000000 -1.000000
    outer loop
      vertex 40.0000 0.0000 120.0000
      vertex 35.3083 7.0233 120.0000
      vertex 39.2314 7.8036 120.0000
    endloop
  endfacet
  facet normal 0.000000 0.000000 -1.000000
    outer loop
      vertex 40.0000 0.0000 120.0000
      vertex 36.0000 0.0000 120.0000
      vertex 35.3083 7.0233 120.0000
    endloop
  endfacet
  facet normal 0.000000 0.000000 1.000000
    outer loop
      vertex 40.0000 0.0000 0.0000
      vertex 39.2314 7.8036 0.0000
      vertex 35.3083 7.0233 0.0000
    endloop
  endfacet
  facet normal 0.000000 0.000000 1.000000
    outer loop
      vertex 40.0000 0.0000 0.0000
      vertex 35.3083 7.0233 0.0000
      vertex 36.0000 0.0000 0.0000
    endloop
  endfacet
  facet normal 0.956940 0.290285 0.000000
    outer loop
      vertex 39.2314 7.8036 0.0000
      vertex 36.9552 15.3073 0.0000
      vertex 36.9552 15.3073 120.0000
    endloop
  endfacet
  facet normal 0.956940 0.290285 -0.000000
    outer loop
      vertex 39.2314 7.8036 0.0000
      vertex 36.9552 15.3073 120.0000
      vertex 39.2314 7.8036 120.0000
    endloop
  endfacet
  facet normal -0.956940 -0.290285 0.000000
    outer loop
      vertex 33.2597 13.7766 0.0000
      vertex 35.3083 7.0233 0.0000
      vertex 35.3083 7.0233 120.0000
    endloop
  endfacet
  facet normal -0.956940 -0.290285 0.000000
    outer loop
      vertex 33.2597 13.7766 0.0000
      vertex 35.3083 7.0233 120.0000
      vertex 33.2597 13.7766 120.0000
    endloop
  endfacet
  facet normal 0.000000 0.000000 -1.000000
    outer loop
      vertex 39.2314 7.8036 120.0000
      vertex 33.2597 13.7766 120.0000
      vertex 36.9552 15.3073 120.0000
    endloop
  endfacet
  facet normal -0.000000 0.000000 -1.000000
    outer loop
      vertex 39.2314 7.8036 120.0000
      vertex 35.3083 7.0233 120.0000
      vertex 33.2597 13.7766 120.0000
    endloop
  endfacet
  facet normal 0.000000 0.000000 1.000000
    outer loop
      vertex 39.2314 7.8036 0.0000
      vertex 36.9552 15.3073 0.0000
      vertex 33.2597 13.7766 0.0000
    endloop
  endfacet
  facet normal 0.000000 0.000000 1.000000
    outer loop
      vertex 39.2314 7.8036 0.0000
      vertex 33.2597 13.7766 0.0000
      vertex 35.3083 7.0233 0.0000
    endloop
  endfacet
  facet normal 0.881921 0.471397 0.000000
    outer loop
      vertex 36.9552 15.3073 0.0000
      vertex 33.2588 22.2228 0.0000
      vertex 33.2588 22.2228 120.0000
    endloop
  endfacet
  facet normal 0.881921 0.471397 -0.000000
    outer loop
      vertex 36.9552 15.3073 0.0000
      vertex 33.2588 22.2228 120.0000
      vertex 36.9552 15.3073 120.0000
    endloop
  endfacet
  facet normal -0.881921 -0.471397 0.000000
    outer loop
      vertex 29.9329 20.0005 0.0000
      vertex 33.2597 13.7766 0.0000
      vertex 33.2597 13.7766 120.0000
    endloop
  endfacet
  facet normal -0.881921 -0.471397 0.000000
    outer loop
      vertex 29.9329 20.0005 0.0000
      vertex 33.2597 13.7766 120.0000
      vertex 29.9329 20.0005 120.0000
    endloop
  endfacet
  facet normal 0.000000 0.000000 -1.000000
    outer loop
      vertex 36.9552 15.3073 120.0000
      vertex 29.9329 20.0005 120.0000
      vertex 33.2588 22.2228 120.0000
    endloop
  endfacet
  facet normal -0.000000 0.000000 -1.000000
    outer loop
      vertex 36.9552 15.3073 120.0000
      vertex 33.2597 13.7766 120.0000
      vertex 29.9329 20.0005 120.0000
    endloop
  endfacet
  facet normal 0.000000 0.000000 1.000000
    outer loop
      vertex 36.9552 15.3073 0.0000
      vertex 33.2588 22.2228 0.0000
      vertex 29.9329 20.0005 0.0000
    endloop
  endfacet
  facet normal 0.000000 0.000000 1.000000
    outer loop
      vertex 36.9552 15.3073 0.0000
      vertex 29.9329 20.0005 0.0000
      vertex 33.2597 13.7766 0.0000
    endloop
  endfacet
  facet normal 0.773010 0.634393 0.000000
    outer loop
      vertex 33.2588 22.2228 0.0000
      vertex 28.2843 28.2843 0.0000
      vertex 28.2843 28.2843 120.0000
    endloop
  endfacet
  facet normal 0.773010 0.634393 -0.000000
    outer loop
      vertex 33.2588 22.2228 0.0000
      vertex 28.2843 28.2843 120.0000
      vertex 33.2588 22.2228 120.0000
    endloop
  endfacet
  facet normal -0.773010 -0.634393 0.000000
    outer loop
      vertex 25.4558 25.4558 0.0000
      vertex 29.9329 20.0005 0.0000
      vertex 29.9329 20.0005 120.0000
    endloop
  endfacet
  facet normal -0.773010 -0.634393 0.000000
    outer loop
      vertex 25.4558 25.4558 0.0000
      vertex 29.9329 20.0005 120.0000
      vertex 25.4558 25.4558 120.0000
    endloop
  endfacet
  facet normal 0.000000 0.000000 -1.000000
    outer loop
      vertex 33.2588 22.2228 120.0000
      vertex 25.4558 25.4558 120.0000
      vertex 28.2843 28.2843 120.0000
    endloop
  endfacet
  facet normal -0.000000 0.000000 -1.000000
    outer loop
      vertex 33.2588 22.2228 120.0000
      vertex 29.9329 20.0005 120.0000
      vertex 25.4558 25.4558 120.0000
    endloop
  endfacet
  facet normal 0.000000 0.000000 1.000000
    outer loop
      vertex 33.2588 22.2228 0.0000
      vertex 28.2843 28.2843 0.0000
      vertex 25.4558 25.4558 0.0000
    endloop
  endfacet
  facet normal 0.000000 0.000000 1.000000
    outer loop
      vertex 33.2588 22.2228 0.0000
      vertex 25.4558 25.4558 0.0000
      vertex 29.9329 20.0005 0.0000
    endloop
  endfacet
  facet normal 0.634393 0.773010 0.000000
    outer loop
      vertex 28.2843 28.2843 0.0000
      vertex 22.2228 33.2588 0.0000
      vertex 22.2228 33.2588 120.0000
    endloop
  endfacet
  facet normal 0.634393 0.773010 -0.000000
    outer loop
      vertex 28.2843 28.2843 0.0000
      vertex 22.2228 33.2588 120.0000
      vertex 28.2843 28.2843 120.0000
    endloop
  endfacet
  facet normal -0.634393 -0.773010 0.000000
    outer loop
      vertex 20.0005 29.9329 0.0000
      vertex 25.4558 25.4558 0.0000
      vertex 25.4558 25.4558 120.0000
    endloop
  endfacet
  facet normal -0.634393 -0.773010 0.000000
    outer loop
      vertex 20.0005 29.9329 0.0000
      vertex 25.4558 25.4558 120.0000
      vertex 20.0005 29.9329 120.0000
    endloop
  endfacet
  facet normal 0.000000 0.000000 -1.000000
    outer loop
      vertex 28.2843 28.2843 120.0000
      vertex 20.0005 29.9329 120.0000
      vertex 22.2228 33.2588 120.0000
    endloop
  endfacet
  facet normal -0.000000 0.000000 -1.000000
    outer loop
      vertex 28.2843 28.2843 120.0000
      vertex 25.4558 25.4558 120.0000
      vertex 20.0005 29.9329 120.0000
    endloop
  endfacet
  facet normal 0.000000 0.000000 1.000000
    outer loop
      vertex 28.2843 28.2843 0.0000
      vertex 22.2228 33.2588 0.0000
      vertex 20.0005 29.9329 0.0000
    endloop
  endfacet
  facet normal 0.000000 0.000000 1.000000
    outer loop
      vertex 28.2843 28.2843 0.0000
      vertex 20.0005 29.9329 0.0000
      vertex 25.4558 25.4558 0.0000
    endloop
  endfacet
  facet normal 0.471397 0.881921 0.000000
    outer loop
      vertex 22.2228 33.2588 0.0000
      vertex 15.3073 36.9552 0.0000
      vertex 15.3073 36.9552 120.0000
    endloop
  endfacet
  facet normal 0.471397 0.881921 -0.000000
    outer loop
      vertex 22.2228 33.2588 0.0000
      vertex 15.3073 36.9552 120.0000
      vertex 22.2228 33.2588 120.0000
    endloop
  endfacet
  facet normal -0.471397 -0.881921 0.000000
    outer loop
      vertex 13.7766 33.2597 0.0000
      vertex 20.0005 29.9329 0.0000
      vertex 20.0005 29.9329 120.0000
    endloop
  endfacet
  facet normal -0.471397 -0.881921 0.000000
    outer loop
      vertex 13.7766 33.2597 0.0000
      vertex 20.0005 29.9329 120.0000
      vertex 13.7766 33.2597 120.0000
    endloop
  endfacet
  facet normal 0.000000 0.000000 -1.000000
    outer loop
      vertex 22.2228 33.2588 120.0000
      vertex 13.7766 33.2597 120.0000
      vertex 15.3073 36.9552 120.0000
    endloop
  endfacet
  facet normal -0.000000 0.000000 -1.000000
    outer loop
      vertex 22.2228 33.2588 120.0000
      vertex 20.0005 29.9329 120.0000
      vertex 13.7766 33.2597 120.0000
    endloop
  endfacet
  facet normal 0.000000 0.000000 1.000000
    outer loop
      vertex 22.2228 33.2588 0.0000
      vertex 15.3073 36.9552 0.0000
      vertex 13.7766 33.2597 0.0000
    endloop
  endfacet
  facet normal 0.000000 0.000000 1.000000
    outer loop
      vertex 22.2228 33.2588 0.0000
      vertex 13.7766 33.2597 0.0000
      vertex 20.0005 29.9329 0.0000
    endloop
  endfacet
  facet normal 0.290285 0.956940 0.000000
    outer loop
      vertex 15.3073 36.9552 0.0000
      vertex 7.8036 39.2314 0.0000
      vertex 7.8036 39.2314 120.0000
    endloop
  endfacet
  facet normal 0.290285 0.956940 -0.000000
    outer loop
      vertex 15.3073 36.9552 0.0000
      vertex 7.8036 39.2314 120.0000
      vertex 15.3073 36.9552 120.0000
    endloop
  endfacet
  facet normal -0.290285 -0.956940 0.000000
    outer loop
      vertex 7.0233 35.3083 0.0000
      vertex 13.7766 33.2597 0.0000
      vertex 13.7766 33.2597 120.0000
    endloop
  endfacet
  facet normal -0.290285 -0.956940 0.000000
    outer loop
      vertex 7.0233 35.3083 0.0000
      vertex 13.7766 33.2597 120.0000
      vertex 7.0233 35.3083 120.0000
    endloop
  endfacet
  facet normal -0.000000 0.000000 -1.000000
    outer loop
      vertex 15.3073 36.9552 120.0000
      vertex 7.0233 35.3083 120.0000
      vertex 7.8036 39.2314 120.0000
    endloop
  endfacet
  facet normal 0.000000 0.000000 -1.000000
    outer loop
      vertex 15.3073 36.9552 120.0000
      vertex 13.7766 33.2597 120.0000
      vertex 7.0233 35.3083 120.0000
    endloop
  endfacet
  facet normal 0.000000 0.000000 1.000000
    outer loop
      vertex 15.3073 36.9552 0.0000
      vertex 7.8036 39.2314 0.0000
      vertex 7.0233 35.3083 0.0000
    endloop
  endfacet
  facet normal 0.000000 0.000000 1.000000
    outer loop
      vertex 15.3073 36.9552 0.0000
      vertex 7.0233 35.3083 0.0000
      vertex 13.7766 33.2597 0.0000
    endloop
  endfacet
  facet normal 0.098017 0.995185 0.000000
    outer loop
      vertex 7.8036 39.2314 0.0000
      vertex 0.0000 40.0000 0.0000
      vertex 0.0000 40.0000 120.0000
    endloop
  endfacet
  facet normal 0.098017 0.995185 -0.000000
    outer loop
      vertex 7.8036 39.2314 0.0000
      vertex 0.0000 40.0000 120.0000
      vertex 7.8036 39.2314 120.0000
    endloop
  endfacet
  facet normal -0.098017 -0.995185 0.000000
    outer loop
      vertex 0.0000 36.0000 0.0000
      vertex 7.0233 35.3083 0.0000
      vertex 7.0233 35.3083 120.0000
    endloop
  endfacet
  facet normal -0.098017 -0.995185 0.000000
    outer loop
      vertex 0.0000 36.0000 0.0000
      vertex 7.0233 35.3083 120.0000
      vertex 0.0000 36.0000 120.0000
    endloop
  endfacet
  facet normal -0.000000 0.000000 -1.000000
    outer loop
      vertex 7.8036 39.2314 120.0000
      vertex 0.0000 36.0000 120.0000
      vertex 0.0000 40.0000 120.0000
    endloop
  endfacet
  facet normal 0.000000 0.000000 -1.000000
    outer loop
      vertex 7.8036 39.2314 120.0000
      vertex 7.0233 35.3083 120.0000
      vertex 0.0000 36.0000 120.0000
    endloop
  endfacet
  facet normal 0.000000 0.000000 1.000000
    outer loop
      vertex 7.8036 39.2314 0.0000
      vertex 0.0000 40.0000 0.0000
      vertex 0.0000 36.0000 0.0000
    endloop
  endfacet
  facet normal 0.000000 0.000000 1.000000
    outer loop
      vertex 7.8036 39.2314 0.0000
      vertex 0.0000 36.0000 0.0000
      vertex 7.0233 35.3083 0.0000
    endloop
  endfacet
  facet normal -0.098017 0.995185 0.000000
    outer loop
      vertex 0.0000 40.0000 0.0000
      vertex -7.8036 39.2314 0.0000
      vertex -7.8036 39.2314 120.0000
    endloop
  endfacet
  facet normal -0.098017 0.995185 0.000000
    outer loop
      vertex 0.0000 40.0000 0.0000
      vertex -7.8036 39.2314 120.0000
      vertex 0.0000 40.0000 120.0000
    endloop
  endfacet
  facet normal 0.098017 -0.995185 0.000000
    outer loop
      vertex -7.0233 35.3083 0.0000
      vertex 0.0000 36.0000 0.0000
      vertex 0.0000 36.0000 120.0000
    endloop
  endfacet
  facet normal 0.098017 -0.995185 0.000000
    outer loop
      vertex -7.0233 35.3083 0.0000
      vertex 0.0000 36.0000 120.0000
      vertex -7.0233 35.3083 120.0000
    endloop
  endfacet
  facet normal 0.000000 0.000000 -1.000000
    outer loop
      vertex 0.0000 40.0000 120.0000
      vertex -7.0233 35.3083 120.0000
      vertex -7.8036 39.2314 120.0000
    endloop
  endfacet
  facet normal 0.000000 0.000000 -1.000000
    outer loop
      vertex 0.0000 40.0000 120.0000
      vertex 0.0000 36.0000 120.0000
      vertex -7.0233 35.3083 120.0000
    endloop
  endfacet
  facet normal 0.000000 0.000000 1.000000
    outer loop
      vertex 0.0000 40.0000 0.0000
      vertex -7.8036 39.2314 0.0000
      vertex -7.0233 35.3083 0.0000
    endloop
  endfacet
  facet normal 0.000000 0.000000 1.000000
    outer loop
      vertex 0.0000 40.0000 0.0000
      vertex -7.0233 35.3083 0.0000
      vertex 0.0000 36.0000 0.0000
    endloop
  endfacet
  facet normal -0.290285 0.956940 0.000000
    outer loop
      vertex -7.8036 39.2314 0.0000
      vertex -15.3073 36.9552 0.0000
      vertex -15.3073 36.9552 120.0000
    endloop
  endfacet
  facet normal -0.290285 0.956940 0.000000
    outer loop
      vertex -7.8036 39.2314 0.0000
      vertex -15.3073 36.9552 120.0000
      vertex -7.8036 39.2314 120.0000
    endloop
  endfacet
  facet normal 0.290285 -0.956940 0.000000
    outer loop
      vertex -13.7766 33.2597 0.0000
      vertex -7.0233 35.3083 0.0000
      vertex -7.0233 35.3083 120.0000
    endloop
  endfacet
  facet normal 0.290285 -0.956940 0.000000
    outer loop
      vertex -13.7766 33.2597 0.0000
      vertex -7.0233 35.3083 120.0000
      vertex -13.7766 33.2597 120.0000
    endloop
  endfacet
  facet normal 0.000000 0.000000 -1.000000
    outer loop
      vertex -7.8036 39.2314 120.0000
      vertex -13.7766 33.2597 120.0000
      vertex -15.3073 36.9552 120.0000
    endloop
  endfacet
  facet normal 0.000000 -0.000000 -1.000000
    outer loop
      vertex -7.8036 39.2314 120.0000
      vertex -7.0233 35.3083 120.0000
      vertex -13.7766 33.2597 120.0000
    endloop
  endfacet
  facet normal 0.000000 0.000000 1.000000
    outer loop
      vertex -7.8036 39.2314 0.0000
      vertex -15.3073 36.9552 0.0000
      vertex -13.7766 33.2597 0.0000
    endloop
  endfacet
  facet normal 0.000000 0.000000 1.000000
    outer loop
      vertex -7.8036 39.2314 0.0000
      vertex -13.7766 33.2597 0.0000
      vertex -7.0233 35.3083 0.0000
    endloop
  endfacet
  facet normal -0.471397 0.881921 0.000000
    outer loop
      vertex -15.3073 36.9552 0.0000
      vertex -22.2228 33.2588 0.0000
      vertex -22.2228 33.2588 120.0000
    endloop
  endfacet
  facet normal -0.471397 0.881921 0.000000
    outer loop
      vertex -15.3073 36.9552 0.0000
      vertex -22.2228 33.2588 120.0000
      vertex -15.3073 36.9552 120.0000
    endloop
  endfacet
  facet normal 0.471397 -0.881921 0.000000
    outer loop
      vertex -20.0005 29.9329 0.0000
      vertex -13.7766 33.2597 0.0000
      vertex -13.7766 33.2597 120.0000
    endloop
  endfacet
  facet normal 0.471397 -0.881921 0.000000
    outer loop
      vertex -20.0005 29.9329 0.0000
      vertex -13.7766 33.2597 120.0000
      vertex -20.0005 29.9329 120.0000
    endloop
  endfacet
  facet normal 0.000000 0.000000 -1.000000
    outer loop
      vertex -15.3073 36.9552 120.0000
      vertex -20.0005 29.9329 120.0000
      vertex -22.2228 33.2588 120.0000
    endloop
  endfacet
  facet normal 0.000000 -0.000000 -1.000000
    outer loop
      vertex -15.3073 36.9552 120.0000
      vertex -13.7766 33.2597 120.0000
      vertex -20.0005 29.9329 120.0000
    endloop
  endfacet
  facet normal 0.000000 0.000000 1.000000
    outer loop
      vertex -15.3073 36.9552 0.0000
      vertex -22.2228 33.2588 0.0000
      vertex -20.0005 29.9329 0.0000
    endloop
  endfacet
  facet normal 0.000000 0.000000 1.000000
    outer loop
      vertex -15.3073 36.9552 0.0000
      vertex -20.0005 29.9329 0.0000
      vertex -13.7766 33.2597 0.0000
    endloop
  endfacet
  facet normal -0.634393 0.773010 0.000000
    outer loop
      vertex -22.2228 33.2588 0.0000
      vertex -28.2843 28.2843 0.0000
      vertex -28.2843 28.2843 120.0000
    endloop
  endfacet
  facet normal -0.634393 0.773010 0.000000
    outer loop
      vertex -22.2228 33.2588 0.0000
      vertex -28.2843 28.2843 120.0000
      vertex -22.2228 33.2588 120.0000
    endloop
  endfacet
  facet normal 0.634393 -0.773010 0.000000
    outer loop
      vertex -25.4558 25.4558 0.0000
      vertex -20.0005 29.9329 0.0000
      vertex -20.0005 29.9329 120.0000
    endloop
  endfacet
  facet normal 0.634393 -0.773010 0.000000
    outer loop
      vertex -25.4558 25.4558 0.0000
      vertex -20.0005 29.9329 120.0000
      vertex -25.4558 25.4558 120.0000
    endloop
  endfacet
  facet normal 0.000000 0.000000 -1.000000
    outer loop
      vertex -22.2228 33.2588 120.0000
      vertex -25.4558 25.4558 120.0000
      vertex -28.2843 28.2843 120.0000
    endloop
  endfacet
  facet normal 0.000000 -0.000000 -1.000000
    outer loop
      vertex -22.2228 33.2588 120.0000
      vertex -20.0005 29.9329 120.0000
      vertex -25.4558 25.4558 120.0000
    endloop
  endfacet
  facet normal 0.000000 0.000000 1.000000
    outer loop
      vertex -22.2228 33.2588 0.0000
      vertex -28.2843 28.2843 0.0000
      vertex -25.4558 25.4558 0.0000
    endloop
  endfacet
  facet normal 0.000000 0.000000 1.000000
    outer loop
      vertex -22.2228 33.2588 0.0000
      vertex -25.4558 25.4558 0.0000
      vertex -20.0005 29.9329 0.0000
    endloop
  endfacet
  facet normal -0.773010 0.634393 0.000000
    outer loop
      vertex -28.2843 28.2843 0.0000
      vertex -33.2588 22.2228 0.0000
      vertex -33.2588 22.2228 120.0000
    endloop
  endfacet
  facet normal -0.773010 0.634393 0.000000
    outer loop
      vertex -28.2843 28.2843 0.0000
      vertex -33.2588 22.2228 120.0000
      vertex -28.2843 28.2843 120.0000
    endloop
  endfacet
  facet normal 0.773010 -0.634393 0.000000
    outer loop
      vertex -29.9329 20.0005 0.0000
      vertex -25.4558 25.4558 0.0000
      vertex -25.4558 25.4558 120.0000
    endloop
  endfacet
  facet normal 0.773010 -0.634393 0.000000
    outer loop
      vertex -29.9329 20.0005 0.0000
      vertex -25.4558 25.4558 120.0000
      vertex -29.9329 20.0005 120.0000
    endloop
  endfacet
  facet normal 0.000000 0.000000 -1.000000
    outer loop
      vertex -28.2843 28.2843 120.0000
      vertex -29.9329 20.0005 120.0000
      vertex -33.2588 22.2228 120.0000
    endloop
  endfacet
  facet normal 0.000000 -0.000000 -1.000000
    outer loop
      vertex -28.2843 28.2843 120.0000
      vertex -25.4558 25.4558 120.0000
      vertex -29.9329 20.0005 120.0000
    endloop
  endfacet
  facet normal 0.000000 0.000000 1.000000
    outer loop
      vertex -28.2843 28.2843 0.0000
      vertex -33.2588 22.2228 0.0000
      vertex -29.9329 20.0005 0.0000
    endloop
  endfacet
  facet normal 0.000000 0.000000 1.000000
    outer loop
      vertex -28.2843 28.2843 0.0000
      vertex -29.9329 20.0005 0.0000
      vertex -25.4558 25.4558 0.0000
    endloop
  endfacet
  facet normal -0.881921 0.471397 0.000000
    outer loop
      vertex -33.2588 22.2228 0.0000
      vertex -36.9552 15.3073 0.0000
      vertex -36.9552 15.3073 120.0000
    endloop
  endfacet
  facet normal -0.881921 0.471397 0.000000
    outer loop
      vertex -33.2588 22.2228 0.0000
      vertex -36.9552 15.3073 120.0000
      vertex -33.2588 22.2228 120.0000
    endloop
  endfacet
  facet normal 0.881921 -0.471397 0.000000
    outer loop
      vertex -33.2597 13.7766 0.0000
      vertex -29.9329 20.0005 0.0000
      vertex -29.9329 20.0005 120.0000
    endloop
  endfacet
  facet normal 0.881921 -0.471397 0.000000
    outer loop
      vertex -33.2597 13.7766 0.0000
      vertex -29.9329 20.0005 120.0000
      vertex -33.2597 13.7766 120.0000
    endloop
  endfacet
  facet normal 0.000000 0.000000 -1.000000
    outer loop
      vertex -33.2588 22.2228 120.0000
      vertex -33.2597 13.7766 120.0000
      vertex -36.9552 15.3073 120.0000
    endloop
  endfacet
  facet normal 0.000000 -0.000000 -1.000000
    outer loop
      vertex -33.2588 22.2228 120.0000
      vertex -29.9329 20.0005 120.0000
      vertex -33.2597 13.7766 120.0000
    endloop
  endfacet
  facet normal 0.000000 0.000000 1.000000
    outer loop
      vertex -33.2588 22.2228 0.0000
      vertex -36.9552 15.3073 0.0000
      vertex -33.2597 13.7766 0.0000
    endloop
  endfacet
  facet normal 0.000000 0.000000 1.000000
    outer loop
      vertex -33.2588 22.2228 0.0000
      vertex -33.2597 13.7766 0.0000
      vertex -29.9329 20.0005 0.0000
    endloop
  endfacet
  facet normal -0.956940 0.290285 0.000000
    outer loop
      vertex -36.9552 15.3073 0.0000
      vertex -39.2314 7.8036 0.0000
      vertex -39.2314 7.8036 120.0000
    endloop
  endfacet
  facet normal -0.956940 0.290285 0.000000
    outer loop
      vertex -36.9552 15.3073 0.0000
      vertex -39.2314 7.8036 120.0000
      vertex -36.9552 15.3073 120.0000
    endloop
  endfacet
  facet normal 0.956940 -0.290285 0.000000
    outer loop
      vertex -35.3083 7.0233 0.0000
      vertex -33.2597 13.7766 0.0000
      vertex -33.2597 13.7766 120.0000
    endloop
  endfacet
  facet normal 0.956940 -0.290285 0.000000
    outer loop
      vertex -35.3083 7.0233 0.0000
      vertex -33.2597 13.7766 120.0000
      vertex -35.3083 7.0233 120.0000
    endloop
  endfacet
  facet normal 0.000000 -0.000000 -1.000000
    outer loop
      vertex -36.9552 15.3073 120.0000
      vertex -35.3083 7.0233 120.0000
      vertex -39.2314 7.8036 120.0000
    endloop
  endfacet
  facet normal 0.000000 0.000000 -1.000000
    outer loop
      vertex -36.9552 15.3073 120.0000
      vertex -33.2597 13.7766 120.0000
      vertex -35.3083 7.0233 120.0000
    endloop
  endfacet
  facet normal 0.000000 0.000000 1.000000
    outer loop
      vertex -36.9552 15.3073 0.0000
      vertex -39.2314 7.8036 0.0000
      vertex -35.3083 7.0233 0.0000
    endloop
  endfacet
  facet normal 0.000000 0.000000 1.000000
    outer loop
      vertex -36.9552 15.3073 0.0000
      vertex -35.3083 7.0233 0.0000
      vertex -33.2597 13.7766 0.0000
    endloop
  endfacet
  facet normal -0.995185 0.098017 0.000000
    outer loop
      vertex -39.2314 7.8036 0.0000
      vertex -40.0000 0.0000 0.0000
      vertex -40.0000 0.0000 120.0000
    endloop
  endfacet
  facet normal -0.995185 0.098017 0.000000
    outer loop
      vertex -39.2314 7.8036 0.0000
      vertex -40.0000 0.0000 120.0000
      vertex -39.2314 7.8036 120.0000
    endloop
  endfacet
  facet normal 0.995185 -0.098017 0.000000
    outer loop
      vertex -36.0000 0.0000 0.0000
      vertex -35.3083 7.0233 0.0000
      vertex -35.3083 7.0233 120.0000
    endloop
  endfacet
  facet normal 0.995185 -0.098017 0.000000
    outer loop
      vertex -36.0000 0.0000 0.0000
      vertex -35.3083 7.0233 120.0000
      vertex -36.0000 0.0000 120.0000
    endloop
  endfacet
  facet normal 0.000000 -0.000000 -1.000000
    outer loop
      vertex -39.2314 7.8036 120.0000
      vertex -36.0000 0.0000 120.0000
      vertex -40.0000 0.0000 120.0000
    endloop
  endfacet
  facet normal 0.000000 0.000000 -1.000000
    outer loop
      vertex -39.2314 7.8036 120.0000
      vertex -35.3083 7.0233 120.0000
      vertex -36.0000 0.0000 120.0000
    endloop
  endfacet
  facet normal 0.000000 0.000000 1.000000
    outer loop
      vertex -39.2314 7.8036 0.0000
      vertex -40.0000 0.0000 0.0000
      vertex -36.0000 0.0000 0.0000
    endloop
  endfacet
  facet normal 0.000000 0.000000 1.000000
    outer loop
      vertex -39.2314 7.8036 0.0000
      vertex -36.0000 0.0000 0.0000
      vertex -35.3083 7.0233 0.0000
    endloop
  endfacet
  facet normal -0.995185 -0.098017 0.000000
    outer loop
      vertex -40.0000 0.0000 0.0000
      vertex -39.2314 -7.8036 0.0000
      vertex -39.2314 -7.8036 120.0000
    endloop
  endfacet
  facet normal -0.995185 -0.098017 0.000000
    outer loop
      vertex -40.0000 0.0000 0.0000
      vertex -39.2314 -7.8036 120.0000
      vertex -40.0000 0.0000 120.0000
    endloop
  endfacet
  facet normal 0.995185 0.098017 0.000000
    outer loop
      vertex -35.3083 -7.0233 0.0000
      vertex -36.0000 0.0000 0.0000
      vertex -36.0000 0.0000 120.0000
    endloop
  endfacet
  facet normal 0.995185 0.098017 -0.000000
    outer loop
      vertex -35.3083 -7.0233 0.0000
      vertex -36.0000 0.0000 120.0000
      vertex -35.3083 -7.0233 120.0000
    endloop
  endfacet
  facet normal 0.000000 0.000000 -1.000000
    outer loop
      vertex -40.0000 0.0000 120.0000
      vertex -35.3083 -7.0233 120.0000
      vertex -39.2314 -7.8036 120.0000
    endloop
  endfacet
  facet normal 0.000000 0.000000 -1.000000
    outer loop
      vertex -40.0000 0.0000 120.0000
      vertex -36.0000 0.0000 120.0000
      vertex -35.3083 -7.0233 120.0000
    endloop
  endfacet
  facet normal 0.000000 0.000000 1.000000
    outer loop
      vertex -40.0000 0.0000 0.0000
      vertex -39.2314 -7.8036 0.0000
      vertex -35.3083 -7.0233 0.0000
    endloop
  endfacet
  facet normal 0.000000 0.000000 1.000000
    outer loop
      vertex -40.0000 0.0000 0.0000
      vertex -35.3083 -7.0233 0.0000
      vertex -36.0000 0.0000 0.0000
    endloop
  endfacet
  facet normal -0.956940 -0.290285 0.000000
    outer loop
      vertex -39.2314 -7.8036 0.0000
      vertex -36.9552 -15.3073 0.0000
      vertex -36.9552 -15.3073 120.0000
    endloop
  endfacet
  facet normal -0.956940 -0.290285 0.000000
    outer loop
      vertex -39.2314 -7.8036 0.0000
      vertex -36.9552 -15.3073 120.0000
      vertex -39.2314 -7.8036 120.0000
    endloop
  endfacet
  facet normal 0.956940 0.290285 0.000000
    outer loop
      vertex -33.2597 -13.7766 0.0000
      vertex -35.3083 -7.0233 0.0000
      vertex -35.3083 -7.0233 120.0000
    endloop
  endfacet
  facet normal 0.956940 0.290285 -0.000000
    outer loop
      vertex -33.2597 -13.7766 0.0000
      vertex -35.3083 -7.0233 120.0000
      vertex -33.2597 -13.7766 120.0000
    endloop
  endfacet
  facet normal 0.000000 0.000000 -1.000000
    outer loop
      vertex -39.2314 -7.8036 120.0000
      vertex -33.2597 -13.7766 120.0000
      vertex -36.9552 -15.3073 120.0000
    endloop
  endfacet
  facet normal 0.000000 0.000000 -1.000000
    outer loop
      vertex -39.2314 -7.8036 120.0000
      vertex -35.3083 -7.0233 120.0000
      vertex -33.2597 -13.7766 120.0000
    endloop
  endfacet
  facet normal 0.000000 0.000000 1.000000
    outer loop
      vertex -39.2314 -7.8036 0.0000
      vertex -36.9552 -15.3073 0.0000
      vertex -33.2597 -13.7766 0.0000
    endloop
  endfacet
  facet normal -0.000000 0.000000 1.000000
    outer loop
      vertex -39.2314 -7.8036 0.0000
      vertex -33.2597 -13.7766 0.0000
      vertex -35.3083 -7.0233 0.0000
    endloop
  endfacet
  facet normal -0.881921 -0.471397 0.000000
    outer loop
      vertex -36.9552 -15.3073 0.0000
      vertex -33.2588 -22.2228 0.0000
      vertex -33.2588 -22.2228 120.0000
    endloop
  endfacet
  facet normal -0.881921 -0.471397 0.000000
    outer loop
      vertex -36.9552 -15.3073 0.0000
      vertex -33.2588 -22.2228 120.0000
      vertex -36.9552 -15.3073 120.0000
    endloop
  endfacet
  facet normal 0.881921 0.471397 0.000000
    outer loop
      vertex -29.9329 -20.0005 0.0000
      vertex -33.2597 -13.7766 0.0000
      vertex -33.2597 -13.7766 120.0000
    endloop
  endfacet
  facet normal 0.881921 0.471397 -0.000000
    outer loop
      vertex -29.9329 -20.0005 0.0000
      vertex -33.2597 -13.7766 120.0000
      vertex -29.9329 -20.0005 120.0000
    endloop
  endfacet
  facet normal 0.000000 0.000000 -1.000000
    outer loop
      vertex -36.9552 -15.3073 120.0000
      vertex -29.9329 -20.0005 120.0000
      vertex -33.2588 -22.2228 120.0000
    endloop
  endfacet
  facet normal 0.000000 0.000000 -1.000000
    outer loop
      vertex -36.9552 -15.3073 120.0000
      vertex -33.2597 -13.7766 120.0000
      vertex -29.9329 -20.0005 120.0000
    endloop
  endfacet
  facet normal 0.000000 0.000000 1.000000
    outer loop
      vertex -36.9552 -15.3073 0.0000
      vertex -33.2588 -22.2228 0.0000
      vertex -29.9329 -20.0005 0.0000
    endloop
  endfacet
  facet normal -0.000000 0.000000 1.000000
    outer loop
      vertex -36.9552 -15.3073 0.0000
      vertex -29.9329 -20.0005 0.0000
      vertex -33.2597 -13.7766 0.0000
    endloop
  endfacet
  facet normal -0.773010 -0.634393 0.000000
    outer loop
      vertex -33.2588 -22.2228 0.0000
      vertex -28.2843 -28.2843 0.0000
      vertex -28.2843 -28.2843 120.0000
    endloop
  endfacet
  facet normal -0.773010 -0.634393 0.000000
    outer loop
      vertex -33.2588 -22.2228 0.0000
      vertex -28.2843 -28.2843 120.0000
      vertex -33.2588 -22.2228 120.0000
    endloop
  endfacet
  facet normal 0.773010 0.634393 0.000000
    outer loop
      vertex -25.4558 -25.4558 0.0000
      vertex -29.9329 -20.0005 0.0000
      vertex -29.9329 -20.0005 120.0000
    endloop
  endfacet
  facet normal 0.773010 0.634393 -0.000000
    outer loop
      vertex -25.4558 -25.4558 0.0000
      vertex -29.9329 -20.0005 120.0000
      vertex -25.4558 -25.4558 120.0000
    endloop
  endfacet
  facet normal 0.000000 0.000000 -1.000000
    outer loop
      vertex -33.2588 -22.2228 120.0000
      vertex -25.4558 -25.4558 120.0000
      vertex -28.2843 -28.2843 120.0000
    endloop
  endfacet
  facet normal 0.000000 0.000000 -1.000000
    outer loop
      vertex -33.2588 -22.2228 120.0000
      vertex -29.9329 -20.0005 120.0000
      vertex -25.4558 -25.4558 120.0000
    endloop
  endfacet
  facet normal 0.000000 0.000000 1.000000
    outer loop
      vertex -33.2588 -22.2228 0.0000
      vertex -28.2843 -28.2843 0.0000
      vertex -25.4558 -25.4558 0.0000
    endloop
  endfacet
  facet normal -0.000000 0.000000 1.000000
    outer loop
      vertex -33.2588 -22.2228 0.0000
      vertex -25.4558 -25.4558 0.0000
      vertex -29.9329 -20.0005 0.0000
    endloop
  endfacet
  facet normal -0.634393 -0.773010 0.000000
    outer loop
      vertex -28.2843 -28.2843 0.0000
      vertex -22.2228 -33.2588 0.0000
      vertex -22.2228 -33.2588 120.0000
    endloop
  endfacet
  facet normal -0.634393 -0.773010 0.000000
    outer loop
      vertex -28.2843 -28.2843 0.0000
      vertex -22.2228 -33.2588 120.0000
      vertex -28.2843 -28.2843 120.0000
    endloop
  endfacet
  facet normal 0.634393 0.773010 0.000000
    outer loop
      vertex -20.0005 -29.9329 0.0000
      vertex -25.4558 -25.4558 0.0000
      vertex -25.4558 -25.4558 120.0000
    endloop
  endfacet
  facet normal 0.634393 0.773010 -0.000000
    outer loop
      vertex -20.0005 -29.9329 0.0000
      vertex -25.4558 -25.4558 120.0000
      vertex -20.0005 -29.9329 120.0000
    endloop
  endfacet
  facet normal 0.000000 0.000000 -1.000000
    outer loop
      vertex -28.2843 -28.2843 120.0000
      vertex -20.0005 -29.9329 120.0000
      vertex -22.2228 -33.2588 120.0000
    endloop
  endfacet
  facet normal 0.000000 0.000000 -1.000000
    outer loop
      vertex -28.2843 -28.2843 120.0000
      vertex -25.4558 -25.4558 120.0000
      vertex -20.0005 -29.9329 120.0000
    endloop
  endfacet
  facet normal 0.000000 0.000000 1.000000
    outer loop
      vertex -28.2843 -28.2843 0.0000
      vertex -22.2228 -33.2588 0.0000
      vertex -20.0005 -29.9329 0.0000
    endloop
  endfacet
  facet normal -0.000000 0.000000 1.000000
    outer loop
      vertex -28.2843 -28.2843 0.0000
      vertex -20.0005 -29.9329 0.0000
      vertex -25.4558 -25.4558 0.0000
    endloop
  endfacet
  facet normal -0.471397 -0.881921 0.000000
    outer loop
      vertex -22.2228 -33.2588 0.0000
      vertex -15.3073 -36.9552 0.0000
      vertex -15.3073 -36.9552 120.0000
    endloop
  endfacet
  facet normal -0.471397 -0.881921 0.000000
    outer loop
      vertex -22.2228 -33.2588 0.0000
      vertex -15.3073 -36.9552 120.0000
      vertex -22.2228 -33.2588 120.0000
    endloop
  endfacet
  facet normal 0.471397 0.881921 0.000000
    outer loop
      vertex -13.7766 -33.2597 0.0000
      vertex -20.0005 -29.9329 0.0000
      vertex -20.0005 -29.9329 120.0000
    endloop
  endfacet
  facet normal 0.471397 0.881921 -0.000000
    outer loop
      vertex -13.7766 -33.2597 0.0000
      vertex -20.0005 -29.9329 120.0000
      vertex -13.7766 -33.2597 120.0000
    endloop
  endfacet
  facet normal 0.000000 0.000000 -1.000000
    outer loop
      vertex -22.2228 -33.2588 120.0000
      vertex -13.7766 -33.2597 120.0000
      vertex -15.3073 -36.9552 120.0000
    endloop
  endfacet
  facet normal 0.000000 0.000000 -1.000000
    outer loop
      vertex -22.2228 -33.2588 120.0000
      vertex -20.0005 -29.9329 120.0000
      vertex -13.7766 -33.2597 120.0000
    endloop
  endfacet
  facet normal 0.000000 0.000000 1.000000
    outer loop
      vertex -22.2228 -33.2588 0.0000
      vertex -15.3073 -36.9552 0.0000
      vertex -13.7766 -33.2597 0.0000
    endloop
  endfacet
  facet normal -0.000000 0.000000 1.000000
    outer loop
      vertex -22.2228 -33.2588 0.0000
      vertex -13.7766 -33.2597 0.0000
      vertex -20.0005 -29.9329 0.0000
    endloop
  endfacet
  facet normal -0.290285 -0.956940 0.000000
    outer loop
      vertex -15.3073 -36.9552 0.0000
      vertex -7.8036 -39.2314 0.0000
      vertex -7.8036 -39.2314 120.0000
    endloop
  endfacet
  facet normal -0.290285 -0.956940 0.000000
    outer loop
      vertex -15.3073 -36.9552 0.0000
      vertex -7.8036 -39.2314 120.0000
      vertex -15.3073 -36.9552 120.0000
    endloop
  endfacet
  facet normal 0.290285 0.956940 0.000000
    outer loop
      vertex -7.0233 -35.3083 0.0000
      vertex -13.7766 -33.2597 0.0000
      vertex -13.7766 -33.2597 120.0000
    endloop
  endfacet
  facet normal 0.290285 0.956940 -0.000000
    outer loop
      vertex -7.0233 -35.3083 0.0000
      vertex -13.7766 -33.2597 120.0000
      vertex -7.0233 -35.3083 120.0000
    endloop
  endfacet
  facet normal 0.000000 0.000000 -1.000000
    outer loop
      vertex -15.3073 -36.9552 120.0000
      vertex -7.0233 -35.3083 120.0000
      vertex -7.8036 -39.2314 120.0000
    endloop
  endfacet
  facet normal 0.000000 0.000000 -1.000000
    outer loop
      vertex -15.3073 -36.9552 120.0000
      vertex -13.7766 -33.2597 120.0000
      vertex -7.0233 -35.3083 120.0000
    endloop
  endfacet
  facet normal -0.000000 0.000000 1.000000
    outer loop
      vertex -15.3073 -36.9552 0.0000
      vertex -7.8036 -39.2314 0.0000
      vertex -7.0233 -35.3083 0.0000
    endloop
  endfacet
  facet normal 0.000000 0.000000 1.000000
    outer loop
      vertex -15.3073 -36.9552 0.0000
      vertex -7.0233 -35.3083 0.0000
      vertex -13.7766 -33.2597 0.0000
    endloop
  endfacet
  facet normal -0.098017 -0.995185 0.000000
    outer loop
      vertex -7.8036 -39.2314 0.0000
      vertex -0.0000 -40.0000 0.0000
      vertex -0.0000 -40.0000 120.0000
    endloop
  endfacet
  facet normal -0.098017 -0.995185 0.000000
    outer loop
      vertex -7.8036 -39.2314 0.0000
      vertex -0.0000 -40.0000 120.0000
      vertex -7.8036 -39.2314 120.0000
    endloop
  endfacet
  facet normal 0.098017 0.995185 0.000000
    outer loop
      vertex -0.0000 -36.0000 0.0000
      vertex -7.0233 -35.3083 0.0000
      vertex -7.0233 -35.3083 120.0000
    endloop
  endfacet
  facet normal 0.098017 0.995185 -0.000000
    outer loop
      vertex -0.0000 -36.0000 0.0000
      vertex -7.0233 -35.3083 120.0000
      vertex -0.0000 -36.0000 120.0000
    endloop
  endfacet
  facet normal 0.000000 0.000000 -1.000000
    outer loop
      vertex -7.8036 -39.2314 120.0000
      vertex -0.0000 -36.0000 120.0000
      vertex -0.0000 -40.0000 120.0000
    endloop
  endfacet
  facet normal 0.000000 0.000000 -1.000000
    outer loop
      vertex -7.8036 -39.2314 120.0000
      vertex -7.0233 -35.3083 120.0000
      vertex -0.0000 -36.0000 120.0000
    endloop
  endfacet
  facet normal -0.000000 0.000000 1.000000
    outer loop
      vertex -7.8036 -39.2314 0.0000
      vertex -0.0000 -40.0000 0.0000
      vertex -0.0000 -36.0000 0.0000
    endloop
  endfacet
  facet normal 0.000000 0.000000 1.000000
    outer loop
      vertex -7.8036 -39.2314 0.0000
      vertex -0.0000 -36.0000 0.0000
      vertex -7.0233 -35.3083 0.0000
    endloop
  endfacet
  facet normal 0.098017 -0.995185 0.000000
    outer loop
      vertex -0.0000 -40.0000 0.0000
      vertex 7.8036 -39.2314 0.0000
      vertex 7.8036 -39.2314 120.0000
    endloop
  endfacet
  facet normal 0.098017 -0.995185 0.000000
    outer loop
      vertex -0.0000 -40.0000 0.0000
      vertex 7.8036 -39.2314 120.0000
      vertex -0.0000 -40.0000 120.0000
    endloop
  endfacet
  facet normal -0.098017 0.995185 0.000000
    outer loop
      vertex 7.0233 -35.3083 0.0000
      vertex -0.0000 -36.0000 0.0000
      vertex -0.0000 -36.0000 120.0000
    endloop
  endfacet
  facet normal -0.098017 0.995185 0.000000
    outer loop
      vertex 7.0233 -35.3083 0.0000
      vertex -0.0000 -36.0000 120.0000
      vertex 7.0233 -35.3083 120.0000
    endloop
  endfacet
  facet normal 0.000000 0.000000 -1.000000
    outer loop
      vertex -0.0000 -40.0000 120.0000
      vertex 7.0233 -35.3083 120.0000
      vertex 7.8036 -39.2314 120.0000
    endloop
  endfacet
  facet normal 0.000000 0.000000 -1.000000
    outer loop
      vertex -0.0000 -40.0000 120.0000
      vertex -0.0000 -36.0000 120.0000
      vertex 7.0233 -35.3083 120.0000
    endloop
  endfacet
  facet normal 0.000000 0.000000 1.000000
    outer loop
      vertex -0.0000 -40.0000 0.0000
      vertex 7.8036 -39.2314 0.0000
      vertex 7.0233 -35.3083 0.0000
    endloop
  endfacet
  facet normal 0.000000 0.000000 1.000000
    outer loop
      vertex -0.0000 -40.0000 0.0000
      vertex 7.0233 -35.3083 0.0000
      vertex -0.0000 -36.0000 0.0000
    endloop
  endfacet
  facet normal 0.290285 -0.956940 0.000000
    outer loop
      vertex 7.8036 -39.2314 0.0000
      vertex 15.3073 -36.9552 0.0000
      vertex 15.3073 -36.9552 120.0000
    endloop
  endfacet
  facet normal 0.290285 -0.956940 0.000000
    outer loop
      vertex 7.8036 -39.2314 0.0000
      vertex 15.3073 -36.9552 120.0000
      vertex 7.8036 -39.2314 120.0000
    endloop
  endfacet
  facet normal -0.290285 0.956940 0.000000
    outer loop
      vertex 13.7766 -33.2597 0.0000
      vertex 7.0233 -35.3083 0.0000
      vertex 7.0233 -35.3083 120.0000
    endloop
  endfacet
  facet normal -0.290285 0.956940 0.000000
    outer loop
      vertex 13.7766 -33.2597 0.0000
      vertex 7.0233 -35.3083 120.0000
      vertex 13.7766 -33.2597 120.0000
    endloop
  endfacet
  facet normal 0.000000 0.000000 -1.000000
    outer loop
      vertex 7.8036 -39.2314 120.0000
      vertex 13.7766 -33.2597 120.0000
      vertex 15.3073 -36.9552 120.0000
    endloop
  endfacet
  facet normal 0.000000 0.000000 -1.000000
    outer loop
      vertex 7.8036 -39.2314 120.0000
      vertex 7.0233 -35.3083 120.0000
      vertex 13.7766 -33.2597 120.0000
    endloop
  endfacet
  facet normal 0.000000 0.000000 1.000000
    outer loop
      vertex 7.8036 -39.2314 0.0000
      vertex 15.3073 -36.9552 0.0000
      vertex 13.7766 -33.2597 0.0000
    endloop
  endfacet
  facet normal 0.000000 -0.000000 1.000000
    outer loop
      vertex 7.8036 -39.2314 0.0000
      vertex 13.7766 -33.2597 0.0000
      vertex 7.0233 -35.3083 0.0000
    endloop
  endfacet
  facet normal 0.471397 -0.881921 0.000000
    outer loop
      vertex 15.3073 -36.9552 0.0000
      vertex 22.2228 -33.2588 0.0000
      vertex 22.2228 -33.2588 120.0000
    endloop
  endfacet
  facet normal 0.471397 -0.881921 0.000000
    outer loop
      vertex 15.3073 -36.9552 0.0000
      vertex 22.2228 -33.2588 120.0000
      vertex 15.3073 -36.9552 120.0000
    endloop
  endfacet
  facet normal -0.471397 0.881921 0.000000
    outer loop
      vertex 20.0005 -29.9329 0.0000
      vertex 13.7766 -33.2597 0.0000
      vertex 13.7766 -33.2597 120.0000
    endloop
  endfacet
  facet normal -0.471397 0.881921 0.000000
    outer loop
      vertex 20.0005 -29.9329 0.0000
      vertex 13.7766 -33.2597 120.0000
      vertex 20.0005 -29.9329 120.0000
    endloop
  endfacet
  facet normal 0.000000 0.000000 -1.000000
    outer loop
      vertex 15.3073 -36.9552 120.0000
      vertex 20.0005 -29.9329 120.0000
      vertex 22.2228 -33.2588 120.0000
    endloop
  endfacet
  facet normal 0.000000 0.000000 -1.000000
    outer loop
      vertex 15.3073 -36.9552 120.0000
      vertex 13.7766 -33.2597 120.0000
      vertex 20.0005 -29.9329 120.0000
    endloop
  endfacet
  facet normal 0.000000 0.000000 1.000000
    outer loop
      vertex 15.3073 -36.9552 0.0000
      vertex 22.2228 -33.2588 0.0000
      vertex 20.0005 -29.9329 0.0000
    endloop
  endfacet
  facet normal 0.000000 -0.000000 1.000000
    outer loop
      vertex 15.3073 -36.9552 0.0000
      vertex 20.0005 -29.9329 0.0000
      vertex 13.7766 -33.2597 0.0000
    endloop
  endfacet
  facet normal 0.634393 -0.773010 0.000000
    outer loop
      vertex 22.2228 -33.2588 0.0000
      vertex 28.2843 -28.2843 0.0000
      vertex 28.2843 -28.2843 120.0000
    endloop
  endfacet
  facet normal 0.634393 -0.773010 0.000000
    outer loop
      vertex 22.2228 -33.2588 0.0000
      vertex 28.2843 -28.2843 120.0000
      vertex 22.2228 -33.2588 120.0000
    endloop
  endfacet
  facet normal -0.634393 0.773010 0.000000
    outer loop
      vertex 25.4558 -25.4558 0.0000
      vertex 20.0005 -29.9329 0.0000
      vertex 20.0005 -29.9329 120.0000
    endloop
  endfacet
  facet normal -0.634393 0.773010 0.000000
    outer loop
      vertex 25.4558 -25.4558 0.0000
      vertex 20.0005 -29.9329 120.0000
      vertex 25.4558 -25.4558 120.0000
    endloop
  endfacet
  facet normal 0.000000 0.000000 -1.000000
    outer loop
      vertex 22.2228 -33.2588 120.0000
      vertex 25.4558 -25.4558 120.0000
      vertex 28.2843 -28.2843 120.0000
    endloop
  endfacet
  facet normal 0.000000 0.000000 -1.000000
    outer loop
      vertex 22.2228 -33.2588 120.0000
      vertex 20.0005 -29.9329 120.0000
      vertex 25.4558 -25.4558 120.0000
    endloop
  endfacet
  facet normal 0.000000 0.000000 1.000000
    outer loop
      vertex 22.2228 -33.2588 0.0000
      vertex 28.2843 -28.2843 0.0000
      vertex 25.4558 -25.4558 0.0000
    endloop
  endfacet
  facet normal 0.000000 -0.000000 1.000000
    outer loop
      vertex 22.2228 -33.2588 0.0000
      vertex 25.4558 -25.4558 0.0000
      vertex 20.0005 -29.9329 0.0000
    endloop
  endfacet
  facet normal 0.773010 -0.634393 0.000000
    outer loop
      vertex 28.2843 -28.2843 0.0000
      vertex 33.2588 -22.2228 0.0000
      vertex 33.2588 -22.2228 120.0000
    endloop
  endfacet
  facet normal 0.773010 -0.634393 0.000000
    outer loop
      vertex 28.2843 -28.2843 0.0000
      vertex 33.2588 -22.2228 120.0000
      vertex 28.2843 -28.2843 120.0000
    endloop
  endfacet
  facet normal -0.773010 0.634393 0.000000
    outer loop
      vertex 29.9329 -20.0005 0.0000
      vertex 25.4558 -25.4558 0.0000
      vertex 25.4558 -25.4558 120.0000
    endloop
  endfacet
  facet normal -0.773010 0.634393 0.000000
    outer loop
      vertex 29.9329 -20.0005 0.0000
      vertex 25.4558 -25.4558 120.0000
      vertex 29.9329 -20.0005 120.0000
    endloop
  endfacet
  facet normal 0.000000 0.000000 -1.000000
    outer loop
      vertex 28.2843 -28.2843 120.0000
      vertex 29.9329 -20.0005 120.0000
      vertex 33.2588 -22.2228 120.0000
    endloop
  endfacet
  facet normal 0.000000 0.000000 -1.000000
    outer loop
      vertex 28.2843 -28.2843 120.0000
      vertex 25.4558 -25.4558 120.0000
      vertex 29.9329 -20.0005 120.0000
    endloop
  endfacet
  facet normal 0.000000 0.000000 1.000000
    outer loop
      vertex 28.2843 -28.2843 0.0000
      vertex 33.2588 -22.2228 0.0000
      vertex 29.9329 -20.0005 0.0000
    endloop
  endfacet
  facet normal 0.000000 -0.000000 1.000000
    outer loop
      vertex 28.2843 -28.2843 0.0000
      vertex 29.9329 -20.0005 0.0000
      vertex 25.4558 -25.4558 0.0000
    endloop
  endfacet
  facet normal 0.881921 -0.471397 0.000000
    outer loop
      vertex 33.2588 -22.2228 0.0000
      vertex 36.9552 -15.3073 0.0000
      vertex 36.9552 -15.3073 120.0000
    endloop
  endfacet
  facet normal 0.881921 -0.471397 0.000000
    outer loop
      vertex 33.2588 -22.2228 0.0000
      vertex 36.9552 -15.3073 120.0000
      vertex 33.2588 -22.2228 120.0000
    endloop
  endfacet
  facet normal -0.881921 0.471397 0.000000
    outer loop
      vertex 33.2597 -13.7766 0.0000
      vertex 29.9329 -20.0005 0.0000
      vertex 29.9329 -20.0005 120.0000
    endloop
  endfacet
  facet normal -0.881921 0.471397 0.000000
    outer loop
      vertex 33.2597 -13.7766 0.0000
      vertex 29.9329 -20.0005 120.0000
      vertex 33.2597 -13.7766 120.0000
    endloop
  endfacet
  facet normal 0.000000 0.000000 -1.000000
    outer loop
      vertex 33.2588 -22.2228 120.0000
      vertex 33.2597 -13.7766 120.0000
      vertex 36.9552 -15.3073 120.0000
    endloop
  endfacet
  facet normal 0.000000 0.000000 -1.000000
    outer loop
      vertex 33.2588 -22.2228 120.0000
      vertex 29.9329 -20.0005 120.0000
      vertex 33.2597 -13.7766 120.0000
    endloop
  endfacet
  facet normal 0.000000 0.000000 1.000000
    outer loop
      vertex 33.2588 -22.2228 0.0000
      vertex 36.9552 -15.3073 0.0000
      vertex 33.2597 -13.7766 0.0000
    endloop
  endfacet
  facet normal 0.000000 -0.000000 1.000000
    outer loop
      vertex 33.2588 -22.2228 0.0000
      vertex 33.2597 -13.7766 0.0000
      vertex 29.9329 -20.0005 0.0000
    endloop
  endfacet
  facet normal 0.956940 -0.290285 0.000000
    outer loop
      vertex 36.9552 -15.3073 0.0000
      vertex 39.2314 -7.8036 0.0000
      vertex 39.2314 -7.8036 120.0000
    endloop
  endfacet
  facet normal 0.956940 -0.290285 0.000000
    outer loop
      vertex 36.9552 -15.3073 0.0000
      vertex 39.2314 -7.8036 120.0000
      vertex 36.9552 -15.3073 120.0000
    endloop
  endfacet
  facet normal -0.956940 0.290285 0.000000
    outer loop
      vertex 35.3083 -7.0233 0.0000
      vertex 33.2597 -13.7766 0.0000
      vertex 33.2597 -13.7766 120.0000
    endloop
  endfacet
  facet normal -0.956940 0.290285 0.000000
    outer loop
      vertex 35.3083 -7.0233 0.0000
      vertex 33.2597 -13.7766 120.0000
      vertex 35.3083 -7.0233 120.0000
    endloop
  endfacet
  facet normal 0.000000 0.000000 -1.000000
    outer loop
      vertex 36.9552 -15.3073 120.0000
      vertex 35.3083 -7.0233 120.0000
      vertex 39.2314 -7.8036 120.0000
    endloop
  endfacet
  facet normal 0.000000 0.000000 -1.000000
    outer loop
      vertex 36.9552 -15.3073 120.0000
      vertex 33.2597 -13.7766 120.0000
      vertex 35.3083 -7.0233 120.0000
    endloop
  endfacet
  facet normal 0.000000 -0.000000 1.000000
    outer loop
      vertex 36.9552 -15.3073 0.0000
      vertex 39.2314 -7.8036 0.0000
      vertex 35.3083 -7.0233 0.0000
    endloop
  endfacet
  facet normal 0.000000 0.000000 1.000000
    outer loop
      vertex 36.9552 -15.3073 0.0000
      vertex 35.3083 -7.0233 0.0000
      vertex 33.2597 -13.7766 0.0000
    endloop
  endfacet
  facet normal 0.995185 -0.098017 0.000000
    outer loop
      vertex 39.2314 -7.8036 0.0000
      vertex 40.0000 -0.0000 0.0000
      vertex 40.0000 -0.0000 120.0000
    endloop
  endfacet
  facet normal 0.995185 -0.098017 0.000000
    outer loop
      vertex 39.2314 -7.8036 0.0000
      vertex 40.0000 -0.0000 120.0000
      vertex 39.2314 -7.8036 120.0000
    endloop
  endfacet
  facet normal -0.995185 0.098017 0.000000
    outer loop
      vertex 36.0000 -0.0000 0.0000
      vertex 35.3083 -7.0233 0.0000
      vertex 35.3083 -7.0233 120.0000
    endloop
  endfacet
  facet normal -0.995185 0.098017 0.000000
    outer loop
      vertex 36.0000 -0.0000 0.0000
      vertex 35.3083 -7.0233 120.0000
      vertex 36.0000 -0.0000 120.0000
    endloop
  endfacet
  facet normal 0.000000 0.000000 -1.000000
    outer loop
      vertex 39.2314 -7.8036 120.0000
      vertex 36.0000 -0.0000 120.0000
      vertex 40.0000 -0.0000 120.0000
    endloop
  endfacet
  facet normal 0.000000 0.000000 -1.000000
    outer loop
      vertex 39.2314 -7.8036 120.0000
      vertex 35.3083 -7.0233 120.0000
      vertex 36.0000 -0.0000 120.0000
    endloop
  endfacet
  facet normal 0.000000 -0.000000 1.000000
    outer loop
      vertex 39.2314 -7.8036 0.0000
      vertex 40.0000 -0.0000 0.0000
      vertex 36.0000 -0.0000 0.0000
    endloop
  endfacet
  facet normal 0.000000 0.000000 1.000000
    outer loop
      vertex 39.2314 -7.8036 0.0000
      vertex 36.0000 -0.0000 0.0000
      vertex 35.3083 -7.0233 0.0000
    endloop
  endfacet
endsolid nacelle_pod_70mm
