%TF.GenerationSoftware,KiCad,Pcbnew,9.0.2+dfsg-1*%
%TF.CreationDate,2026-06-10T17:28:50-04:00*%
%TF.ProjectId,FlightEngineer,4b61796c-6565-42e6-9b69-6361645f7063,A*%
%TF.SameCoordinates,Original*%
%TF.FileFunction,Paste,Top*%
%TF.FilePolarity,Positive*%
%FSLAX46Y46*%
G04 Gerber Fmt 4.6, Leading zero omitted, Abs format (unit mm)*
G04 Created by KiCad (PCBNEW 9.0.2+dfsg-1) date 2026-06-10 17:28:50*
%MOMM*%
%LPD*%
G01*
G04 APERTURE LIST*
G04 Aperture macros list*
%AMRoundRect*
0 Rectangle with rounded corners*
0 $1 Rounding radius*
0 $2 $3 $4 $5 $6 $7 $8 $9 X,Y pos of 4 corners*
0 Add a 4 corners polygon primitive as box body*
4,1,4,$2,$3,$4,$5,$6,$7,$8,$9,$2,$3,0*
0 Add four circle primitives for the rounded corners*
1,1,$1+$1,$2,$3*
1,1,$1+$1,$4,$5*
1,1,$1+$1,$6,$7*
1,1,$1+$1,$8,$9*
0 Add four rect primitives between the rounded corners*
20,1,$1+$1,$2,$3,$4,$5,0*
20,1,$1+$1,$4,$5,$6,$7,0*
20,1,$1+$1,$6,$7,$8,$9,0*
20,1,$1+$1,$8,$9,$2,$3,0*%
G04 Aperture macros list end*
%ADD10RoundRect,0.575000X-0.675000X-0.575000X0.675000X-0.575000X0.675000X0.575000X-0.675000X0.575000X0*%
%ADD11RoundRect,0.312500X-0.312500X-1.012500X0.312500X-1.012500X0.312500X1.012500X-0.312500X1.012500X0*%
%ADD12RoundRect,0.250000X-0.250000X-0.475000X0.250000X-0.475000X0.250000X0.475000X-0.250000X0.475000X0*%
%ADD13RoundRect,0.150000X-0.825000X-0.150000X0.825000X-0.150000X0.825000X0.150000X-0.825000X0.150000X0*%
%ADD14RoundRect,0.135000X-0.135000X-0.185000X0.135000X-0.185000X0.135000X0.185000X-0.135000X0.185000X0*%
%ADD15RoundRect,0.500000X-0.500000X-0.750000X0.500000X-0.750000X0.500000X0.750000X-0.500000X0.750000X0*%
%ADD16RoundRect,0.200000X-0.200000X-0.800000X0.200000X-0.800000X0.200000X0.800000X-0.200000X0.800000X0*%
%ADD17RoundRect,0.087500X-0.725000X-0.087500X0.725000X-0.087500X0.725000X0.087500X-0.725000X0.087500X0*%
%ADD18RoundRect,0.062500X-0.350000X-0.062500X0.350000X-0.062500X0.350000X0.062500X-0.350000X0.062500X0*%
%ADD19RoundRect,0.062500X-0.062500X-0.350000X0.062500X-0.350000X0.062500X0.350000X-0.062500X0.350000X0*%
%ADD20RoundRect,0.300000X-0.800000X-0.300000X0.800000X-0.300000X0.800000X0.300000X-0.800000X0.300000X0*%
%ADD21RoundRect,0.100000X-0.225000X-0.100000X0.225000X-0.100000X0.225000X0.100000X-0.225000X0.100000X0*%
%ADD22RoundRect,0.250000X-0.250000X-1.150000X0.250000X-1.150000X0.250000X1.150000X-0.250000X1.150000X0*%
%ADD23RoundRect,0.150000X-0.150000X-0.700000X0.150000X-0.700000X0.150000X0.700000X-0.150000X0.700000X0*%
G04 APERTURE END LIST*
D10*
%TO.C,D1*%
X11850000Y-24000000D03*
X16150000Y-24000000D03*
%TD*%
D11*
%TO.C,C_DM1*%
X38600000Y-24000000D03*
X41400000Y-24000000D03*
%TD*%
D12*
%TO.C,C3*%
X43050000Y-24000000D03*
X44950000Y-24000000D03*
%TD*%
D13*
%TO.C,Q_BATT_DSG*%
X13525000Y-31095000D03*
X13525000Y-32365000D03*
X13525000Y-33635000D03*
X13525000Y-34905000D03*
X18475000Y-34905000D03*
X18475000Y-33635000D03*
X18475000Y-32365000D03*
X18475000Y-31095000D03*
%TD*%
D14*
%TO.C,R_DSG_G*%
X24490000Y-33000000D03*
X25510000Y-33000000D03*
%TD*%
%TO.C,R_CHGND*%
X29990000Y-33000000D03*
X31010000Y-33000000D03*
%TD*%
D15*
%TO.C,RS_MAIN*%
X36460000Y-33000000D03*
D16*
X38360000Y-33000000D03*
X39640000Y-33000000D03*
D15*
X41540000Y-33000000D03*
%TD*%
D17*
%TO.C,U_IS_MAIN*%
X46887500Y-32000000D03*
X46887500Y-32500000D03*
X46887500Y-33000000D03*
X46887500Y-33500000D03*
X46887500Y-34000000D03*
X51112500Y-34000000D03*
X51112500Y-33500000D03*
X51112500Y-33000000D03*
X51112500Y-32500000D03*
X51112500Y-32000000D03*
%TD*%
D15*
%TO.C,RS_1*%
X5460000Y-47000000D03*
D16*
X7360000Y-47000000D03*
X8640000Y-47000000D03*
D15*
X10540000Y-47000000D03*
%TD*%
D17*
%TO.C,U_IS1*%
X5887500Y-52000000D03*
X5887500Y-52500000D03*
X5887500Y-53000000D03*
X5887500Y-53500000D03*
X5887500Y-54000000D03*
X10112500Y-54000000D03*
X10112500Y-53500000D03*
X10112500Y-53000000D03*
X10112500Y-52500000D03*
X10112500Y-52000000D03*
%TD*%
D15*
%TO.C,RS_2*%
X19460000Y-47000000D03*
D16*
X21360000Y-47000000D03*
X22640000Y-47000000D03*
D15*
X24540000Y-47000000D03*
%TD*%
D17*
%TO.C,U_IS2*%
X19887500Y-52000000D03*
X19887500Y-52500000D03*
X19887500Y-53000000D03*
X19887500Y-53500000D03*
X19887500Y-54000000D03*
X24112500Y-54000000D03*
X24112500Y-53500000D03*
X24112500Y-53000000D03*
X24112500Y-52500000D03*
X24112500Y-52000000D03*
%TD*%
D15*
%TO.C,RS_3*%
X33460000Y-47000000D03*
D16*
X35360000Y-47000000D03*
X36640000Y-47000000D03*
D15*
X38540000Y-47000000D03*
%TD*%
D17*
%TO.C,U_IS3*%
X33887500Y-52000000D03*
X33887500Y-52500000D03*
X33887500Y-53000000D03*
X33887500Y-53500000D03*
X33887500Y-54000000D03*
X38112500Y-54000000D03*
X38112500Y-53500000D03*
X38112500Y-53000000D03*
X38112500Y-52500000D03*
X38112500Y-52000000D03*
%TD*%
D15*
%TO.C,RS_4*%
X47460000Y-47000000D03*
D16*
X49360000Y-47000000D03*
X50640000Y-47000000D03*
D15*
X52540000Y-47000000D03*
%TD*%
D17*
%TO.C,U_IS4*%
X47887500Y-52000000D03*
X47887500Y-52500000D03*
X47887500Y-53000000D03*
X47887500Y-53500000D03*
X47887500Y-54000000D03*
X52112500Y-54000000D03*
X52112500Y-53500000D03*
X52112500Y-53000000D03*
X52112500Y-52500000D03*
X52112500Y-52000000D03*
%TD*%
D12*
%TO.C,FB_5V1*%
X62050000Y-13000000D03*
X63950000Y-13000000D03*
%TD*%
D11*
%TO.C,L_BEC1*%
X77600000Y-8000000D03*
X80400000Y-8000000D03*
%TD*%
D18*
%TO.C,U_BEC_5V_1*%
X82037500Y-10000000D03*
X82037500Y-10500000D03*
X82037500Y-11000000D03*
X82037500Y-11500000D03*
X82037500Y-12000000D03*
D19*
X85000000Y-12962500D03*
X84500000Y-12962500D03*
X84000000Y-12962500D03*
X83500000Y-12962500D03*
X83000000Y-12962500D03*
D18*
X85962500Y-12000000D03*
X85962500Y-11500000D03*
X85962500Y-11000000D03*
X85962500Y-10500000D03*
X85962500Y-10000000D03*
D19*
X83000000Y-9037500D03*
X83500000Y-9037500D03*
X84000000Y-9037500D03*
X84500000Y-9037500D03*
X85000000Y-9037500D03*
%TD*%
D14*
%TO.C,R_FB1_1*%
X79490000Y-14000000D03*
X80510000Y-14000000D03*
%TD*%
%TO.C,R_FB1_2*%
X83990000Y-14000000D03*
X85010000Y-14000000D03*
%TD*%
D20*
%TO.C,D_OR1*%
X67960000Y-19720000D03*
X67960000Y-22000000D03*
X67960000Y-24280000D03*
%TD*%
D12*
%TO.C,FB_5V2*%
X62050000Y-28000000D03*
X63950000Y-28000000D03*
%TD*%
D11*
%TO.C,L_BEC2*%
X77600000Y-28000000D03*
X80400000Y-28000000D03*
%TD*%
D18*
%TO.C,U_BEC_5V_2*%
X82037500Y-30000000D03*
X82037500Y-30500000D03*
X82037500Y-31000000D03*
X82037500Y-31500000D03*
X82037500Y-32000000D03*
D19*
X85000000Y-32962500D03*
X84500000Y-32962500D03*
X84000000Y-32962500D03*
X83500000Y-32962500D03*
X83000000Y-32962500D03*
D18*
X85962500Y-32000000D03*
X85962500Y-31500000D03*
X85962500Y-31000000D03*
X85962500Y-30500000D03*
X85962500Y-30000000D03*
D19*
X83000000Y-29037500D03*
X83500000Y-29037500D03*
X84000000Y-29037500D03*
X84500000Y-29037500D03*
X85000000Y-29037500D03*
%TD*%
D14*
%TO.C,R_FB2_1*%
X79490000Y-34000000D03*
X80510000Y-34000000D03*
%TD*%
%TO.C,R_FB2_2*%
X85490000Y-34000000D03*
X86510000Y-34000000D03*
%TD*%
D20*
%TO.C,D_OR2*%
X67960000Y-39720000D03*
X67960000Y-42000000D03*
X67960000Y-44280000D03*
%TD*%
D12*
%TO.C,FB_6V*%
X62050000Y-48000000D03*
X63950000Y-48000000D03*
%TD*%
D11*
%TO.C,L_BEC3*%
X76600000Y-48000000D03*
X79400000Y-48000000D03*
%TD*%
D13*
%TO.C,U_BEC_6V*%
X81525000Y-47595000D03*
X81525000Y-48865000D03*
X81525000Y-50135000D03*
X81525000Y-51405000D03*
X86475000Y-51405000D03*
X86475000Y-50135000D03*
X86475000Y-48865000D03*
X86475000Y-47595000D03*
%TD*%
D14*
%TO.C,R_FB6_1*%
X79490000Y-46000000D03*
X80510000Y-46000000D03*
%TD*%
%TO.C,R_FB6_2*%
X83990000Y-46000000D03*
X85010000Y-46000000D03*
%TD*%
D21*
%TO.C,D_I2C*%
X58050000Y-53350000D03*
X58050000Y-54000000D03*
X58050000Y-54650000D03*
X59950000Y-54650000D03*
X59950000Y-54000000D03*
X59950000Y-53350000D03*
%TD*%
D14*
%TO.C,R_ALERT*%
X65490000Y-62000000D03*
X66510000Y-62000000D03*
%TD*%
D22*
%TO.C,J_I2C*%
X58900000Y-58600000D03*
X65100000Y-58600000D03*
D23*
X60125000Y-61950000D03*
X61375000Y-61950000D03*
X62625000Y-61950000D03*
X63875000Y-61950000D03*
%TD*%
D22*
%TO.C,J_ALERT*%
X68525000Y-58600000D03*
X73475000Y-58600000D03*
D23*
X70375000Y-61950000D03*
X71625000Y-61950000D03*
%TD*%
M02*
