<?xml version="1.0" encoding="UTF-8"?>
<!-- Serenity-Class Tiltrotor — Bottom View -->
<!-- © 2025 Steve Griffing PE(CSE) CISSP-ISSEP CPP  CC BY 4.0 -->
<!-- Hull: Peter Farell CC BY 4.0  Nozzle: BamJr CC BY 4.0 -->
<!-- Visual inspiration: Firefly/Serenity © Joss Whedon / Mutant Enemy / Universal Pictures -->
<svg xmlns="http://www.w3.org/2000/svg" viewBox="0 0 800 380" width="800" height="380">
<defs>
  <style>
    @import url('https://fonts.cdnfonts.com/css/opendyslexic');
    @media screen {
      text, tspan, .label, .note, .dim {
        font-family: 'OpenDyslexic','OpenDyslexicMono',sans-serif !important;
      }
    }
    @media print {
      svg { background: #ffffff !important; }
      text, tspan { fill: #111111 !important; font-family: 'OpenDyslexic',sans-serif !important; }
      rect[fill^="rgba"], rect[fill^="#0"] { fill: #f5f5f5 !important; }
    }
  </style>
  <style>text { font-family="'OpenDyslexic Mono','OpenDyslexicMono',monospace"; fill:rgba(255,255,255,0.35); font-size:10px; }
    .label { fill:#00e5ff; font-size:11px; font-weight:bold; }
    .dim   { fill:rgba(255,255,255,0.18); font-size:8px; }
    .note  { fill:rgba(255,255,255,0.35); font-size:9px; }
    .ant   { fill:#4ade80; font-size:8px; }
  </style>
  <marker id="arr" markerWidth="6" markerHeight="6" refX="5" refY="3" orient="auto">
    <path d="M0,0 L6,3 L0,6 Z" fill="#00e5ff" opacity="0.5"/>
  </marker>
  <pattern id="grid" width="20" height="20" patternUnits="userSpaceOnUse">
    <path d="M20 0L0 0 0 20" fill="none" stroke="rgba(0,229,255,0.06)" stroke-width="0.5"/>
  </pattern>
</defs>
<rect width="800" height="380" fill="#07090e"/>
<rect width="800" height="380" fill="url(#grid)"/>

<polygon points="215.2,133.3 232.8,122.5 269.2,-269.0 292.2,-269.0 308.4,122.5 327.3,133.3" fill="#0e2030" stroke="#00e5ff" stroke-width="1.3"/>
<ellipse cx="269.2" cy="-269.0" rx="48.6" ry="20.2" fill="#0e2030" stroke="#ff6b35" stroke-width="2"/>
<ellipse cx="269.2" cy="-269.0" rx="29.7" ry="12.2" fill="rgba(255,107,53,0.1)" stroke="#ff6b35" stroke-width="1" stroke-dasharray="3 2"/>
<text x="269.2" y="-287.0" text-anchor="middle" font-size="7" fill="#ff6b35">70mm EDF PORT L</text>
<polygon points="215.2,246.7 232.8,257.5 269.2,649.0 292.2,649.0 308.4,257.5 327.3,246.7" fill="#0e2030" stroke="#00e5ff" stroke-width="1.3"/>
<ellipse cx="269.2" cy="649.0" rx="48.6" ry="20.2" fill="#0e2030" stroke="#ff6b35" stroke-width="2"/>
<ellipse cx="269.2" cy="649.0" rx="29.7" ry="12.2" fill="rgba(255,107,53,0.1)" stroke="#ff6b35" stroke-width="1" stroke-dasharray="3 2"/>
<text x="269.2" y="667.0" text-anchor="middle" font-size="7" fill="#ff6b35">70mm EDF STBD R</text>
<path d="M 60.0,190.0 L 70.8,176.5 L 89.7,165.7 L 114.0,149.5 L 138.3,141.4 L 178.8,140.1 L 222.0,133.3 L 249.0,133.3 L 282.8,136.0 L 316.5,141.4 L 357.0,150.8 L 400.2,165.7 L 411.0,168.4 L 435.3,157.6 L 471.8,150.8 L 505.5,152.2 L 552.8,160.3 L 552.8,219.7 L 505.5,227.8 L 471.8,229.2 L 435.3,222.4 L 411.0,211.6 L 400.2,214.3 L 357.0,229.2 L 316.5,238.6 L 282.8,244.0 L 249.0,246.7 L 222.0,246.7 L 178.8,239.9 L 138.3,238.6 L 114.0,230.5 L 89.7,214.3 L 70.8,203.5 L 60.0,190.0 Z" fill="#0e2030" stroke="#00e5ff" stroke-width="2"/>
<ellipse cx="119.4" cy="190.0" rx="59.4" ry="32.4" fill="rgba(0,229,255,0.04)" stroke="rgba(0,229,255,0.25)" stroke-width="1" stroke-dasharray="5 3"/>
<rect x="235.5" y="171.1" width="94.5" height="37.8" rx="4" fill="rgba(244,114,182,0.15)" stroke="#f472b6" stroke-width="2"/>
<text x="282.8" y="190.0" text-anchor="middle" font-size="9" fill="#f472b6" font-weight="bold">PAYLOAD BAY</text>
<text x="282.8" y="200.0" text-anchor="middle" font-size="7" fill="rgba(244,114,182,0.7)">70×50×35 mm (2.76"×1.97"×1.38")</text>
<rect x="255.8" y="208.9" width="40.5" height="13.5" rx="2" fill="rgba(244,114,182,0.08)" stroke="#f472b6" stroke-width="0.8" stroke-dasharray="2 2"/>
<text x="276.0" y="219.7" text-anchor="middle" font-size="6" fill="rgba(244,114,182,0.97)">WINCH DOOR</text>
<circle cx="381.3" cy="190.0" r="8.1" fill="rgba(255,107,53,0.25)" stroke="#ff6b35" stroke-width="2"/>
<circle cx="381.3" cy="190.0" r="13.5" fill="none" stroke="#ff6b35" stroke-width="0.5" opacity="0.3"/>
<circle cx="381.3" cy="190.0" r="21.6" fill="none" stroke="#ff6b35" stroke-width="0.5" opacity="0.3"/>
<circle cx="381.3" cy="190.0" r="29.7" fill="none" stroke="#ff6b35" stroke-width="0.5" opacity="0.3"/>
<text x="381.3" y="162.0" text-anchor="middle" font-size="8" fill="#ff6b35" font-weight="bold">SiK 915MHz↓</text>
<text x="381.3" y="172.0" text-anchor="middle" font-size="7" fill="rgba(255,107,53,0.97)">82mm (3.2") whip</text>
<rect x="249.0" y="176.5" width="128.2" height="27.0" rx="3" fill="rgba(255,230,0,0.05)" stroke="#ffe600" stroke-width="0.8" stroke-dasharray="4 2"/>
<text x="312.5" y="193.0" text-anchor="middle" font-size="7" fill="rgba(255,230,0,0.97)">BATTERY RAIL (±22mm trim)</text>
<circle cx="276.0" cy="182.0" r="5" fill="rgba(255,255,200,0.8)" stroke="#ffffaa" stroke-width="1"/>
<text x="276.0" y="172.0" text-anchor="middle" font-size="7" fill="#ffffaa">BELLY◆</text>
<rect x="89.7" y="179.2" width="21.6" height="21.6" rx="3" fill="rgba(255,255,120,0.2)" stroke="#ffff80" stroke-width="1.5"/>
<text x="100.5" y="170.0" text-anchor="middle" font-size="7" fill="#ffff80">LAND</text>
<circle cx="467.7" cy="190.0" r="27.0" fill="rgba(255,230,0,0.08)" stroke="#ffe600" stroke-width="1.5"/>
<text x="467.7" y="193.0" text-anchor="middle" font-size="7" fill="#ffe600">40mm EDF</text>
<line x1="60.0" y1="190.0" x2="35.7" y2="190.0" stroke="#2dd4bf" stroke-width="3" stroke-linecap="round"/>
<line x1="158.6" y1="185.0" x2="217.9" y2="185.0" stroke="#00e5ff" stroke-width="3" stroke-linecap="round" opacity="0.5"/>
<line x1="343.5" y1="185.0" x2="402.9" y2="185.0" stroke="#00e5ff" stroke-width="3" stroke-linecap="round" opacity="0.5"/>
<rect x="122.1" y="177.8" width="29.7" height="12.2" rx="2" fill="rgba(74,222,128,0.05)" stroke="#4ade80" stroke-width="0.8" stroke-dasharray="4 2"/>
<text x="136.9" y="206.0" text-anchor="middle" font-size="7" fill="rgba(74,222,128,0.90)">GPS↑</text>
<line x1="60.0" y1="364.0" x2="552.8" y2="364.0" stroke="#00e5ff" stroke-width="0.4" opacity="0.2"/>
<text x="305.7" y="376.0" text-anchor="middle" font-size="7" fill="rgba(255,255,255,0.78)">365 mm (14.4")</text>
<text x="49.2" y="193.0" text-anchor="end" font-size="8" fill="rgba(255,255,255,0.78)">NOSE</text>
<text x="556.8" y="193.0" font-size="8" fill="rgba(255,255,255,0.78)">TAIL</text>

<text x="10" y="14" font-family="'OpenDyslexic Mono','OpenDyslexicMono',monospace" font-size="9" fill="rgba(0,229,255,0.88)"
  letter-spacing="2">SERENITY-CLASS TILTROTOR — BOTTOM VIEW</text>
<text x="10" y="26" font-family="'OpenDyslexic Mono','OpenDyslexicMono',monospace" font-size="7" fill="rgba(163,230,53,0.95)">
  © 2025 Steve Griffing PE(CSE) CISSP-ISSEP CPP · CC BY 4.0
  · Hull: Peter Farell CC BY 4.0 · Nozzle: BamJr CC BY 4.0</text>
</svg>
