solid OpenSCAD_Model
  facet normal 0.991444 0.13053 0
    outer loop
      vertex 5.47907 0.479356 3
      vertex 5.41644 0.955065 0
      vertex 5.41644 0.955065 3
    endloop
  endfacet
  facet normal 0.991444 0.13053 0
    outer loop
      vertex 5.41644 0.955065 0
      vertex 5.47907 0.479356 3
      vertex 5.47907 0.479356 0
    endloop
  endfacet
  facet normal 0.999048 0.0436212 0
    outer loop
      vertex 5.5 0 3
      vertex 5.47907 0.479356 0
      vertex 5.47907 0.479356 3
    endloop
  endfacet
  facet normal 0.999048 0.0436212 0
    outer loop
      vertex 5.47907 0.479356 0
      vertex 5.5 0 3
      vertex 5.5 0 0
    endloop
  endfacet
  facet normal 0.976296 0.216441 0
    outer loop
      vertex 5.41644 0.955065 3
      vertex 5.31259 1.4235 0
      vertex 5.31259 1.4235 3
    endloop
  endfacet
  facet normal 0.976296 0.216441 0
    outer loop
      vertex 5.31259 1.4235 0
      vertex 5.41644 0.955065 3
      vertex 5.41644 0.955065 0
    endloop
  endfacet
  facet normal 0.887014 -0.461743 0
    outer loop
      vertex 4.76314 -2.75 3
      vertex 4.98469 -2.3244 0
      vertex 4.98469 -2.3244 3
    endloop
  endfacet
  facet normal 0.887014 -0.461743 0
    outer loop
      vertex 4.98469 -2.3244 0
      vertex 4.76314 -2.75 3
      vertex 4.76314 -2.75 0
    endloop
  endfacet
  facet normal -0.608774 -0.793344 0
    outer loop
      vertex -3.53533 -4.21324 0
      vertex -3.15467 -4.50534 3
      vertex -3.53533 -4.21324 3
    endloop
  endfacet
  facet normal -0.608774 -0.793344 -0
    outer loop
      vertex -3.15467 -4.50534 3
      vertex -3.53533 -4.21324 0
      vertex -3.15467 -4.50534 0
    endloop
  endfacet
  facet normal 0.608774 -0.793344 0
    outer loop
      vertex 3.15467 -4.50534 0
      vertex 3.53533 -4.21324 3
      vertex 3.15467 -4.50534 3
    endloop
  endfacet
  facet normal 0.608774 -0.793344 0
    outer loop
      vertex 3.53533 -4.21324 3
      vertex 3.15467 -4.50534 0
      vertex 3.53533 -4.21324 0
    endloop
  endfacet
  facet normal 0.461743 0.887014 -0
    outer loop
      vertex 2.75 4.76314 0
      vertex 2.3244 4.98469 3
      vertex 2.75 4.76314 3
    endloop
  endfacet
  facet normal 0.461743 0.887014 0
    outer loop
      vertex 2.3244 4.98469 3
      vertex 2.75 4.76314 0
      vertex 2.3244 4.98469 0
    endloop
  endfacet
  facet normal 0.13053 -0.991444 0
    outer loop
      vertex 0.479356 -5.47907 0
      vertex 0.955065 -5.41644 3
      vertex 0.479356 -5.47907 3
    endloop
  endfacet
  facet normal 0.13053 -0.991444 0
    outer loop
      vertex 0.955065 -5.41644 3
      vertex 0.479356 -5.47907 0
      vertex 0.955065 -5.41644 0
    endloop
  endfacet
  facet normal -0.991444 -0.13053 0
    outer loop
      vertex -5.41644 -0.955065 0
      vertex -5.47907 -0.479356 3
      vertex -5.47907 -0.479356 0
    endloop
  endfacet
  facet normal -0.991444 -0.13053 0
    outer loop
      vertex -5.47907 -0.479356 3
      vertex -5.41644 -0.955065 0
      vertex -5.41644 -0.955065 3
    endloop
  endfacet
  facet normal 0.0436212 0.999048 -0
    outer loop
      vertex 0.479356 5.47907 0
      vertex 0 5.5 3
      vertex 0.479356 5.47907 3
    endloop
  endfacet
  facet normal 0.0436212 0.999048 0
    outer loop
      vertex 0 5.5 3
      vertex 0.479356 5.47907 0
      vertex 0 5.5 0
    endloop
  endfacet
  facet normal -0.923877 -0.382689 0
    outer loop
      vertex -4.98469 -2.3244 0
      vertex -5.16831 -1.88111 3
      vertex -5.16831 -1.88111 0
    endloop
  endfacet
  facet normal -0.923877 -0.382689 0
    outer loop
      vertex -5.16831 -1.88111 3
      vertex -4.98469 -2.3244 0
      vertex -4.98469 -2.3244 3
    endloop
  endfacet
  facet normal 0.382689 0.923877 -0
    outer loop
      vertex 2.3244 4.98469 0
      vertex 1.88111 5.16831 3
      vertex 2.3244 4.98469 3
    endloop
  endfacet
  facet normal 0.382689 0.923877 0
    outer loop
      vertex 1.88111 5.16831 3
      vertex 2.3244 4.98469 0
      vertex 1.88111 5.16831 0
    endloop
  endfacet
  facet normal -0.737289 0.675577 0
    outer loop
      vertex -4.21324 3.53533 0
      vertex -3.88909 3.88909 3
      vertex -3.88909 3.88909 0
    endloop
  endfacet
  facet normal -0.737289 0.675577 0
    outer loop
      vertex -3.88909 3.88909 3
      vertex -4.21324 3.53533 0
      vertex -4.21324 3.53533 3
    endloop
  endfacet
  facet normal 0.300698 0.953719 -0
    outer loop
      vertex 1.88111 5.16831 0
      vertex 1.4235 5.31259 3
      vertex 1.88111 5.16831 3
    endloop
  endfacet
  facet normal 0.300698 0.953719 0
    outer loop
      vertex 1.4235 5.31259 3
      vertex 1.88111 5.16831 0
      vertex 1.4235 5.31259 0
    endloop
  endfacet
  facet normal 0.461743 -0.887014 0
    outer loop
      vertex 2.3244 -4.98469 0
      vertex 2.75 -4.76314 3
      vertex 2.3244 -4.98469 3
    endloop
  endfacet
  facet normal 0.461743 -0.887014 0
    outer loop
      vertex 2.75 -4.76314 3
      vertex 2.3244 -4.98469 0
      vertex 2.75 -4.76314 0
    endloop
  endfacet
  facet normal 0.737289 -0.675577 0
    outer loop
      vertex 3.88909 -3.88909 3
      vertex 4.21324 -3.53533 0
      vertex 4.21324 -3.53533 3
    endloop
  endfacet
  facet normal 0.737289 -0.675577 0
    outer loop
      vertex 4.21324 -3.53533 0
      vertex 3.88909 -3.88909 3
      vertex 3.88909 -3.88909 0
    endloop
  endfacet
  facet normal -0.13053 -0.991444 0
    outer loop
      vertex -0.955065 -5.41644 0
      vertex -0.479356 -5.47907 3
      vertex -0.955065 -5.41644 3
    endloop
  endfacet
  facet normal -0.13053 -0.991444 -0
    outer loop
      vertex -0.479356 -5.47907 3
      vertex -0.955065 -5.41644 0
      vertex -0.479356 -5.47907 0
    endloop
  endfacet
  facet normal -0.216441 0.976296 0
    outer loop
      vertex -0.955065 5.41644 0
      vertex -1.4235 5.31259 3
      vertex -0.955065 5.41644 3
    endloop
  endfacet
  facet normal -0.216441 0.976296 0
    outer loop
      vertex -1.4235 5.31259 3
      vertex -0.955065 5.41644 0
      vertex -1.4235 5.31259 0
    endloop
  endfacet
  facet normal -0.216441 -0.976296 0
    outer loop
      vertex -1.4235 -5.31259 0
      vertex -0.955065 -5.41644 3
      vertex -1.4235 -5.31259 3
    endloop
  endfacet
  facet normal -0.216441 -0.976296 -0
    outer loop
      vertex -0.955065 -5.41644 3
      vertex -1.4235 -5.31259 0
      vertex -0.955065 -5.41644 0
    endloop
  endfacet
  facet normal 0.537295 0.843394 -0
    outer loop
      vertex 3.15467 4.50534 0
      vertex 2.75 4.76314 3
      vertex 3.15467 4.50534 3
    endloop
  endfacet
  facet normal 0.537295 0.843394 0
    outer loop
      vertex 2.75 4.76314 3
      vertex 3.15467 4.50534 0
      vertex 2.75 4.76314 0
    endloop
  endfacet
  facet normal -0.887014 -0.461743 0
    outer loop
      vertex -4.76314 -2.75 0
      vertex -4.98469 -2.3244 3
      vertex -4.98469 -2.3244 0
    endloop
  endfacet
  facet normal -0.887014 -0.461743 0
    outer loop
      vertex -4.98469 -2.3244 3
      vertex -4.76314 -2.75 0
      vertex -4.76314 -2.75 3
    endloop
  endfacet
  facet normal 0.793344 0.608774 0
    outer loop
      vertex 4.50534 3.15467 3
      vertex 4.21324 3.53533 0
      vertex 4.21324 3.53533 3
    endloop
  endfacet
  facet normal 0.793344 0.608774 0
    outer loop
      vertex 4.21324 3.53533 0
      vertex 4.50534 3.15467 3
      vertex 4.50534 3.15467 0
    endloop
  endfacet
  facet normal -0.953719 -0.300698 0
    outer loop
      vertex -5.16831 -1.88111 0
      vertex -5.31259 -1.4235 3
      vertex -5.31259 -1.4235 0
    endloop
  endfacet
  facet normal -0.953719 -0.300698 0
    outer loop
      vertex -5.31259 -1.4235 3
      vertex -5.16831 -1.88111 0
      vertex -5.16831 -1.88111 3
    endloop
  endfacet
  facet normal 0.953719 -0.300698 0
    outer loop
      vertex 5.16831 -1.88111 3
      vertex 5.31259 -1.4235 0
      vertex 5.31259 -1.4235 3
    endloop
  endfacet
  facet normal 0.953719 -0.300698 0
    outer loop
      vertex 5.31259 -1.4235 0
      vertex 5.16831 -1.88111 3
      vertex 5.16831 -1.88111 0
    endloop
  endfacet
  facet normal -0.461743 0.887014 0
    outer loop
      vertex -2.3244 4.98469 0
      vertex -2.75 4.76314 3
      vertex -2.3244 4.98469 3
    endloop
  endfacet
  facet normal -0.461743 0.887014 0
    outer loop
      vertex -2.75 4.76314 3
      vertex -2.3244 4.98469 0
      vertex -2.75 4.76314 0
    endloop
  endfacet
  facet normal -0.461743 -0.887014 0
    outer loop
      vertex -2.75 -4.76314 0
      vertex -2.3244 -4.98469 3
      vertex -2.75 -4.76314 3
    endloop
  endfacet
  facet normal -0.461743 -0.887014 -0
    outer loop
      vertex -2.3244 -4.98469 3
      vertex -2.75 -4.76314 0
      vertex -2.3244 -4.98469 0
    endloop
  endfacet
  facet normal -0.382689 0.923877 0
    outer loop
      vertex -1.88111 5.16831 0
      vertex -2.3244 4.98469 3
      vertex -1.88111 5.16831 3
    endloop
  endfacet
  facet normal -0.382689 0.923877 0
    outer loop
      vertex -2.3244 4.98469 3
      vertex -1.88111 5.16831 0
      vertex -2.3244 4.98469 0
    endloop
  endfacet
  facet normal -0.608774 0.793344 0
    outer loop
      vertex -3.15467 4.50534 0
      vertex -3.53533 4.21324 3
      vertex -3.15467 4.50534 3
    endloop
  endfacet
  facet normal -0.608774 0.793344 0
    outer loop
      vertex -3.53533 4.21324 3
      vertex -3.15467 4.50534 0
      vertex -3.53533 4.21324 0
    endloop
  endfacet
  facet normal 0.300698 -0.953719 0
    outer loop
      vertex 1.4235 -5.31259 0
      vertex 1.88111 -5.16831 3
      vertex 1.4235 -5.31259 3
    endloop
  endfacet
  facet normal 0.300698 -0.953719 0
    outer loop
      vertex 1.88111 -5.16831 3
      vertex 1.4235 -5.31259 0
      vertex 1.88111 -5.16831 0
    endloop
  endfacet
  facet normal -0.300698 0.953719 0
    outer loop
      vertex -1.4235 5.31259 0
      vertex -1.88111 5.16831 3
      vertex -1.4235 5.31259 3
    endloop
  endfacet
  facet normal -0.300698 0.953719 0
    outer loop
      vertex -1.88111 5.16831 3
      vertex -1.4235 5.31259 0
      vertex -1.88111 5.16831 0
    endloop
  endfacet
  facet normal 0.843394 0.537295 0
    outer loop
      vertex 4.76314 2.75 3
      vertex 4.50534 3.15467 0
      vertex 4.50534 3.15467 3
    endloop
  endfacet
  facet normal 0.843394 0.537295 0
    outer loop
      vertex 4.50534 3.15467 0
      vertex 4.76314 2.75 3
      vertex 4.76314 2.75 0
    endloop
  endfacet
  facet normal -0.923877 0.382689 0
    outer loop
      vertex -5.16831 1.88111 0
      vertex -4.98469 2.3244 3
      vertex -4.98469 2.3244 0
    endloop
  endfacet
  facet normal -0.923877 0.382689 0
    outer loop
      vertex -4.98469 2.3244 3
      vertex -5.16831 1.88111 0
      vertex -5.16831 1.88111 3
    endloop
  endfacet
  facet normal 0.999048 -0.0436212 0
    outer loop
      vertex 5.47907 -0.479356 3
      vertex 5.5 0 0
      vertex 5.5 0 3
    endloop
  endfacet
  facet normal 0.999048 -0.0436212 0
    outer loop
      vertex 5.5 0 0
      vertex 5.47907 -0.479356 3
      vertex 5.47907 -0.479356 0
    endloop
  endfacet
  facet normal -0.976296 0.216441 0
    outer loop
      vertex -5.41644 0.955065 0
      vertex -5.31259 1.4235 3
      vertex -5.31259 1.4235 0
    endloop
  endfacet
  facet normal -0.976296 0.216441 0
    outer loop
      vertex -5.31259 1.4235 3
      vertex -5.41644 0.955065 0
      vertex -5.41644 0.955065 3
    endloop
  endfacet
  facet normal 0 0 -1
    outer loop
      vertex 5.47907 -0.479356 0
      vertex 5.47907 0.479356 0
      vertex 5.5 0 0
    endloop
  endfacet
  facet normal 0 0 -1
    outer loop
      vertex 5.41644 -0.955065 0
      vertex 5.47907 0.479356 0
      vertex 5.47907 -0.479356 0
    endloop
  endfacet
  facet normal 0 0 -1
    outer loop
      vertex 5.41644 -0.955065 0
      vertex 5.41644 0.955065 0
      vertex 5.47907 0.479356 0
    endloop
  endfacet
  facet normal 0 0 -1
    outer loop
      vertex 5.31259 -1.4235 0
      vertex 5.41644 0.955065 0
      vertex 5.41644 -0.955065 0
    endloop
  endfacet
  facet normal 0 0 -1
    outer loop
      vertex 5.31259 -1.4235 0
      vertex 5.31259 1.4235 0
      vertex 5.41644 0.955065 0
    endloop
  endfacet
  facet normal 0 0 -1
    outer loop
      vertex 5.16831 -1.88111 0
      vertex 5.31259 1.4235 0
      vertex 5.31259 -1.4235 0
    endloop
  endfacet
  facet normal 0 0 -1
    outer loop
      vertex 5.16831 -1.88111 0
      vertex 5.16831 1.88111 0
      vertex 5.31259 1.4235 0
    endloop
  endfacet
  facet normal 0 0 -1
    outer loop
      vertex 4.98469 -2.3244 0
      vertex 5.16831 1.88111 0
      vertex 5.16831 -1.88111 0
    endloop
  endfacet
  facet normal 0 0 -1
    outer loop
      vertex 4.98469 -2.3244 0
      vertex 4.98469 2.3244 0
      vertex 5.16831 1.88111 0
    endloop
  endfacet
  facet normal 0 0 -1
    outer loop
      vertex 4.76314 -2.75 0
      vertex 4.98469 2.3244 0
      vertex 4.98469 -2.3244 0
    endloop
  endfacet
  facet normal 0 0 -1
    outer loop
      vertex 4.76314 -2.75 0
      vertex 4.76314 2.75 0
      vertex 4.98469 2.3244 0
    endloop
  endfacet
  facet normal 0 0 -1
    outer loop
      vertex 4.50534 -3.15467 0
      vertex 4.76314 2.75 0
      vertex 4.76314 -2.75 0
    endloop
  endfacet
  facet normal 0 0 -1
    outer loop
      vertex 4.50534 -3.15467 0
      vertex 4.50534 3.15467 0
      vertex 4.76314 2.75 0
    endloop
  endfacet
  facet normal 0 0 -1
    outer loop
      vertex 4.21324 -3.53533 0
      vertex 4.50534 3.15467 0
      vertex 4.50534 -3.15467 0
    endloop
  endfacet
  facet normal 0 0 -1
    outer loop
      vertex 4.21324 -3.53533 0
      vertex 4.21324 3.53533 0
      vertex 4.50534 3.15467 0
    endloop
  endfacet
  facet normal 0 0 -1
    outer loop
      vertex 3.88909 -3.88909 0
      vertex 4.21324 3.53533 0
      vertex 4.21324 -3.53533 0
    endloop
  endfacet
  facet normal 0 0 -1
    outer loop
      vertex 3.88909 -3.88909 0
      vertex 3.88909 3.88909 0
      vertex 4.21324 3.53533 0
    endloop
  endfacet
  facet normal 0 0 -1
    outer loop
      vertex 3.53533 -4.21324 0
      vertex 3.88909 3.88909 0
      vertex 3.88909 -3.88909 0
    endloop
  endfacet
  facet normal 0 0 -1
    outer loop
      vertex 3.53533 -4.21324 0
      vertex 3.53533 4.21324 0
      vertex 3.88909 3.88909 0
    endloop
  endfacet
  facet normal 0 0 -1
    outer loop
      vertex 3.15467 -4.50534 0
      vertex 3.53533 4.21324 0
      vertex 3.53533 -4.21324 0
    endloop
  endfacet
  facet normal 0 0 -1
    outer loop
      vertex 3.15467 -4.50534 0
      vertex 3.15467 4.50534 0
      vertex 3.53533 4.21324 0
    endloop
  endfacet
  facet normal 0 0 -1
    outer loop
      vertex 2.75 -4.76314 0
      vertex 3.15467 4.50534 0
      vertex 3.15467 -4.50534 0
    endloop
  endfacet
  facet normal 0 0 -1
    outer loop
      vertex 2.75 -4.76314 0
      vertex 2.75 4.76314 0
      vertex 3.15467 4.50534 0
    endloop
  endfacet
  facet normal 0 0 -1
    outer loop
      vertex 2.3244 -4.98469 0
      vertex 2.75 4.76314 0
      vertex 2.75 -4.76314 0
    endloop
  endfacet
  facet normal 0 0 -1
    outer loop
      vertex 2.3244 -4.98469 0
      vertex 2.3244 4.98469 0
      vertex 2.75 4.76314 0
    endloop
  endfacet
  facet normal 0 0 -1
    outer loop
      vertex 1.88111 -5.16831 0
      vertex 2.3244 4.98469 0
      vertex 2.3244 -4.98469 0
    endloop
  endfacet
  facet normal 0 0 -1
    outer loop
      vertex 1.88111 -5.16831 0
      vertex 1.88111 5.16831 0
      vertex 2.3244 4.98469 0
    endloop
  endfacet
  facet normal 0 0 -1
    outer loop
      vertex 1.4235 -5.31259 0
      vertex 1.88111 5.16831 0
      vertex 1.88111 -5.16831 0
    endloop
  endfacet
  facet normal 0 0 -1
    outer loop
      vertex 1.4235 -5.31259 0
      vertex 1.4235 5.31259 0
      vertex 1.88111 5.16831 0
    endloop
  endfacet
  facet normal 0 0 -1
    outer loop
      vertex 0.955065 -5.41644 0
      vertex 1.4235 5.31259 0
      vertex 1.4235 -5.31259 0
    endloop
  endfacet
  facet normal 0 0 -1
    outer loop
      vertex 0.955065 -5.41644 0
      vertex 0.955065 5.41644 0
      vertex 1.4235 5.31259 0
    endloop
  endfacet
  facet normal 0 0 -1
    outer loop
      vertex 0.479356 -5.47907 0
      vertex 0.955065 5.41644 0
      vertex 0.955065 -5.41644 0
    endloop
  endfacet
  facet normal 0 0 -1
    outer loop
      vertex 0.479356 -5.47907 0
      vertex 0.479356 5.47907 0
      vertex 0.955065 5.41644 0
    endloop
  endfacet
  facet normal 0 0 -1
    outer loop
      vertex 0 -5.5 0
      vertex 0.479356 5.47907 0
      vertex 0.479356 -5.47907 0
    endloop
  endfacet
  facet normal 0 0 -1
    outer loop
      vertex 0 -5.5 0
      vertex 0 5.5 0
      vertex 0.479356 5.47907 0
    endloop
  endfacet
  facet normal 0 0 -1
    outer loop
      vertex -0.479356 -5.47907 0
      vertex 0 5.5 0
      vertex 0 -5.5 0
    endloop
  endfacet
  facet normal 0 0 -1
    outer loop
      vertex -0.479356 -5.47907 0
      vertex -0.479356 5.47907 0
      vertex 0 5.5 0
    endloop
  endfacet
  facet normal 0 0 -1
    outer loop
      vertex -0.955065 -5.41644 0
      vertex -0.479356 5.47907 0
      vertex -0.479356 -5.47907 0
    endloop
  endfacet
  facet normal 0 0 -1
    outer loop
      vertex -0.955065 -5.41644 0
      vertex -0.955065 5.41644 0
      vertex -0.479356 5.47907 0
    endloop
  endfacet
  facet normal 0 0 -1
    outer loop
      vertex -1.4235 -5.31259 0
      vertex -0.955065 5.41644 0
      vertex -0.955065 -5.41644 0
    endloop
  endfacet
  facet normal 0 0 -1
    outer loop
      vertex -1.4235 -5.31259 0
      vertex -1.4235 5.31259 0
      vertex -0.955065 5.41644 0
    endloop
  endfacet
  facet normal 0 0 -1
    outer loop
      vertex -1.88111 -5.16831 0
      vertex -1.4235 5.31259 0
      vertex -1.4235 -5.31259 0
    endloop
  endfacet
  facet normal 0 0 -1
    outer loop
      vertex -1.88111 -5.16831 0
      vertex -1.88111 5.16831 0
      vertex -1.4235 5.31259 0
    endloop
  endfacet
  facet normal 0 0 -1
    outer loop
      vertex -2.3244 -4.98469 0
      vertex -1.88111 5.16831 0
      vertex -1.88111 -5.16831 0
    endloop
  endfacet
  facet normal 0 0 -1
    outer loop
      vertex -2.3244 -4.98469 0
      vertex -2.3244 4.98469 0
      vertex -1.88111 5.16831 0
    endloop
  endfacet
  facet normal 0 0 -1
    outer loop
      vertex -2.75 -4.76314 0
      vertex -2.3244 4.98469 0
      vertex -2.3244 -4.98469 0
    endloop
  endfacet
  facet normal 0 0 -1
    outer loop
      vertex -2.75 -4.76314 0
      vertex -2.75 4.76314 0
      vertex -2.3244 4.98469 0
    endloop
  endfacet
  facet normal 0 0 -1
    outer loop
      vertex -3.15467 -4.50534 0
      vertex -2.75 4.76314 0
      vertex -2.75 -4.76314 0
    endloop
  endfacet
  facet normal 0 0 -1
    outer loop
      vertex -3.15467 -4.50534 0
      vertex -3.15467 4.50534 0
      vertex -2.75 4.76314 0
    endloop
  endfacet
  facet normal 0 0 -1
    outer loop
      vertex -3.53533 -4.21324 0
      vertex -3.15467 4.50534 0
      vertex -3.15467 -4.50534 0
    endloop
  endfacet
  facet normal 0 0 -1
    outer loop
      vertex -3.53533 -4.21324 0
      vertex -3.53533 4.21324 0
      vertex -3.15467 4.50534 0
    endloop
  endfacet
  facet normal 0 0 -1
    outer loop
      vertex -3.88909 -3.88909 0
      vertex -3.53533 4.21324 0
      vertex -3.53533 -4.21324 0
    endloop
  endfacet
  facet normal 0 0 -1
    outer loop
      vertex -3.88909 -3.88909 0
      vertex -3.88909 3.88909 0
      vertex -3.53533 4.21324 0
    endloop
  endfacet
  facet normal 0 0 -1
    outer loop
      vertex -4.21324 -3.53533 0
      vertex -3.88909 3.88909 0
      vertex -3.88909 -3.88909 0
    endloop
  endfacet
  facet normal 0 0 -1
    outer loop
      vertex -4.21324 -3.53533 0
      vertex -4.21324 3.53533 0
      vertex -3.88909 3.88909 0
    endloop
  endfacet
  facet normal 0 0 -1
    outer loop
      vertex -4.50534 -3.15467 0
      vertex -4.21324 3.53533 0
      vertex -4.21324 -3.53533 0
    endloop
  endfacet
  facet normal 0 0 -1
    outer loop
      vertex -4.50534 -3.15467 0
      vertex -4.50534 3.15467 0
      vertex -4.21324 3.53533 0
    endloop
  endfacet
  facet normal 0 0 -1
    outer loop
      vertex -4.76314 -2.75 0
      vertex -4.50534 3.15467 0
      vertex -4.50534 -3.15467 0
    endloop
  endfacet
  facet normal 0 0 -1
    outer loop
      vertex -4.76314 -2.75 0
      vertex -4.76314 2.75 0
      vertex -4.50534 3.15467 0
    endloop
  endfacet
  facet normal 0 0 -1
    outer loop
      vertex -4.98469 -2.3244 0
      vertex -4.76314 2.75 0
      vertex -4.76314 -2.75 0
    endloop
  endfacet
  facet normal 0 0 -1
    outer loop
      vertex -4.98469 -2.3244 0
      vertex -4.98469 2.3244 0
      vertex -4.76314 2.75 0
    endloop
  endfacet
  facet normal 0 0 -1
    outer loop
      vertex -5.16831 -1.88111 0
      vertex -4.98469 2.3244 0
      vertex -4.98469 -2.3244 0
    endloop
  endfacet
  facet normal 0 0 -1
    outer loop
      vertex -5.16831 -1.88111 0
      vertex -5.16831 1.88111 0
      vertex -4.98469 2.3244 0
    endloop
  endfacet
  facet normal 0 0 -1
    outer loop
      vertex -5.31259 -1.4235 0
      vertex -5.16831 1.88111 0
      vertex -5.16831 -1.88111 0
    endloop
  endfacet
  facet normal 0 0 -1
    outer loop
      vertex -5.31259 -1.4235 0
      vertex -5.31259 1.4235 0
      vertex -5.16831 1.88111 0
    endloop
  endfacet
  facet normal 0 0 -1
    outer loop
      vertex -5.41644 -0.955065 0
      vertex -5.31259 1.4235 0
      vertex -5.31259 -1.4235 0
    endloop
  endfacet
  facet normal 0 0 -1
    outer loop
      vertex -5.41644 -0.955065 0
      vertex -5.41644 0.955065 0
      vertex -5.31259 1.4235 0
    endloop
  endfacet
  facet normal 0 0 -1
    outer loop
      vertex -5.47907 -0.479356 0
      vertex -5.41644 0.955065 0
      vertex -5.41644 -0.955065 0
    endloop
  endfacet
  facet normal 0 0 -1
    outer loop
      vertex -5.47907 -0.479356 0
      vertex -5.47907 0.479356 0
      vertex -5.41644 0.955065 0
    endloop
  endfacet
  facet normal 0 -0 -1
    outer loop
      vertex -5.47907 0.479356 0
      vertex -5.47907 -0.479356 0
      vertex -5.5 0 0
    endloop
  endfacet
  facet normal 0.675577 0.737289 -0
    outer loop
      vertex 3.88909 3.88909 0
      vertex 3.53533 4.21324 3
      vertex 3.88909 3.88909 3
    endloop
  endfacet
  facet normal 0.675577 0.737289 0
    outer loop
      vertex 3.53533 4.21324 3
      vertex 3.88909 3.88909 0
      vertex 3.53533 4.21324 0
    endloop
  endfacet
  facet normal -0.887014 0.461743 0
    outer loop
      vertex -4.98469 2.3244 0
      vertex -4.76314 2.75 3
      vertex -4.76314 2.75 0
    endloop
  endfacet
  facet normal -0.887014 0.461743 0
    outer loop
      vertex -4.76314 2.75 3
      vertex -4.98469 2.3244 0
      vertex -4.98469 2.3244 3
    endloop
  endfacet
  facet normal 0.216441 -0.976296 0
    outer loop
      vertex 0.955065 -5.41644 0
      vertex 1.4235 -5.31259 3
      vertex 0.955065 -5.41644 3
    endloop
  endfacet
  facet normal 0.216441 -0.976296 0
    outer loop
      vertex 1.4235 -5.31259 3
      vertex 0.955065 -5.41644 0
      vertex 1.4235 -5.31259 0
    endloop
  endfacet
  facet normal 0.608774 0.793344 -0
    outer loop
      vertex 3.53533 4.21324 0
      vertex 3.15467 4.50534 3
      vertex 3.53533 4.21324 3
    endloop
  endfacet
  facet normal 0.608774 0.793344 0
    outer loop
      vertex 3.15467 4.50534 3
      vertex 3.53533 4.21324 0
      vertex 3.15467 4.50534 0
    endloop
  endfacet
  facet normal 0.0436212 -0.999048 0
    outer loop
      vertex 0 -5.5 0
      vertex 0.479356 -5.47907 3
      vertex 0 -5.5 3
    endloop
  endfacet
  facet normal 0.0436212 -0.999048 0
    outer loop
      vertex 0.479356 -5.47907 3
      vertex 0 -5.5 0
      vertex 0.479356 -5.47907 0
    endloop
  endfacet
  facet normal 0.953719 0.300698 0
    outer loop
      vertex 5.31259 1.4235 3
      vertex 5.16831 1.88111 0
      vertex 5.16831 1.88111 3
    endloop
  endfacet
  facet normal 0.953719 0.300698 0
    outer loop
      vertex 5.16831 1.88111 0
      vertex 5.31259 1.4235 3
      vertex 5.31259 1.4235 0
    endloop
  endfacet
  facet normal 0.793344 -0.608774 0
    outer loop
      vertex 4.21324 -3.53533 3
      vertex 4.50534 -3.15467 0
      vertex 4.50534 -3.15467 3
    endloop
  endfacet
  facet normal 0.793344 -0.608774 0
    outer loop
      vertex 4.50534 -3.15467 0
      vertex 4.21324 -3.53533 3
      vertex 4.21324 -3.53533 0
    endloop
  endfacet
  facet normal 0.923877 -0.382689 0
    outer loop
      vertex 4.98469 -2.3244 3
      vertex 5.16831 -1.88111 0
      vertex 5.16831 -1.88111 3
    endloop
  endfacet
  facet normal 0.923877 -0.382689 0
    outer loop
      vertex 5.16831 -1.88111 0
      vertex 4.98469 -2.3244 3
      vertex 4.98469 -2.3244 0
    endloop
  endfacet
  facet normal -0.0436212 0.999048 0
    outer loop
      vertex 0 5.5 0
      vertex -0.479356 5.47907 3
      vertex 0 5.5 3
    endloop
  endfacet
  facet normal -0.0436212 0.999048 0
    outer loop
      vertex -0.479356 5.47907 3
      vertex 0 5.5 0
      vertex -0.479356 5.47907 0
    endloop
  endfacet
  facet normal 0.923877 0.382689 0
    outer loop
      vertex 5.16831 1.88111 3
      vertex 4.98469 2.3244 0
      vertex 4.98469 2.3244 3
    endloop
  endfacet
  facet normal 0.923877 0.382689 0
    outer loop
      vertex 4.98469 2.3244 0
      vertex 5.16831 1.88111 3
      vertex 5.16831 1.88111 0
    endloop
  endfacet
  facet normal 0.737289 0.675577 0
    outer loop
      vertex 4.21324 3.53533 3
      vertex 3.88909 3.88909 0
      vertex 3.88909 3.88909 3
    endloop
  endfacet
  facet normal 0.737289 0.675577 0
    outer loop
      vertex 3.88909 3.88909 0
      vertex 4.21324 3.53533 3
      vertex 4.21324 3.53533 0
    endloop
  endfacet
  facet normal 0.216441 0.976296 -0
    outer loop
      vertex 1.4235 5.31259 0
      vertex 0.955065 5.41644 3
      vertex 1.4235 5.31259 3
    endloop
  endfacet
  facet normal 0.216441 0.976296 0
    outer loop
      vertex 0.955065 5.41644 3
      vertex 1.4235 5.31259 0
      vertex 0.955065 5.41644 0
    endloop
  endfacet
  facet normal 0.887014 0.461743 0
    outer loop
      vertex 4.98469 2.3244 3
      vertex 4.76314 2.75 0
      vertex 4.76314 2.75 3
    endloop
  endfacet
  facet normal 0.887014 0.461743 0
    outer loop
      vertex 4.76314 2.75 0
      vertex 4.98469 2.3244 3
      vertex 4.98469 2.3244 0
    endloop
  endfacet
  facet normal 0 0 1
    outer loop
      vertex 3 1.5 3
      vertex 5.5 0 3
      vertex 5.47907 0.479356 3
    endloop
  endfacet
  facet normal 0 0 1
    outer loop
      vertex 3 1.5 3
      vertex 5.47907 0.479356 3
      vertex 5.41644 0.955065 3
    endloop
  endfacet
  facet normal 0 0 1
    outer loop
      vertex 3 -1.5 3
      vertex 5.5 0 3
      vertex 3 1.5 3
    endloop
  endfacet
  facet normal 0 0 1
    outer loop
      vertex 3 1.5 3
      vertex 5.41644 0.955065 3
      vertex 5.31259 1.4235 3
    endloop
  endfacet
  facet normal 0 0 1
    outer loop
      vertex 5.5 0 3
      vertex 3 -1.5 3
      vertex 5.47907 -0.479356 3
    endloop
  endfacet
  facet normal -0 0 1
    outer loop
      vertex 3 1.5 3
      vertex 5.31259 1.4235 3
      vertex 5.16831 1.88111 3
    endloop
  endfacet
  facet normal 0 0 1
    outer loop
      vertex 5.47907 -0.479356 3
      vertex 3 -1.5 3
      vertex 5.41644 -0.955065 3
    endloop
  endfacet
  facet normal 0 0 1
    outer loop
      vertex 3 1.5 3
      vertex 5.16831 1.88111 3
      vertex 4.98469 2.3244 3
    endloop
  endfacet
  facet normal 0 0 1
    outer loop
      vertex 5.41644 -0.955065 3
      vertex 3 -1.5 3
      vertex 5.31259 -1.4235 3
    endloop
  endfacet
  facet normal 0 0 1
    outer loop
      vertex 3 1.5 3
      vertex 4.98469 2.3244 3
      vertex 4.76314 2.75 3
    endloop
  endfacet
  facet normal 0 0 1
    outer loop
      vertex 5.31259 -1.4235 3
      vertex 3 -1.5 3
      vertex 5.16831 -1.88111 3
    endloop
  endfacet
  facet normal 0 0 1
    outer loop
      vertex 3 1.5 3
      vertex 4.76314 2.75 3
      vertex 4.50534 3.15467 3
    endloop
  endfacet
  facet normal 0 0 1
    outer loop
      vertex 5.16831 -1.88111 3
      vertex 3 -1.5 3
      vertex 4.98469 -2.3244 3
    endloop
  endfacet
  facet normal 0 0 1
    outer loop
      vertex 3 1.5 3
      vertex 4.50534 3.15467 3
      vertex 4.21324 3.53533 3
    endloop
  endfacet
  facet normal 0 0 1
    outer loop
      vertex 4.98469 -2.3244 3
      vertex 3 -1.5 3
      vertex 4.76314 -2.75 3
    endloop
  endfacet
  facet normal 0 0 1
    outer loop
      vertex 3 1.5 3
      vertex 4.21324 3.53533 3
      vertex 3.88909 3.88909 3
    endloop
  endfacet
  facet normal 0 0 1
    outer loop
      vertex 4.76314 -2.75 3
      vertex 3 -1.5 3
      vertex 4.50534 -3.15467 3
    endloop
  endfacet
  facet normal 0 0 1
    outer loop
      vertex 3 1.5 3
      vertex 3.88909 3.88909 3
      vertex 3.53533 4.21324 3
    endloop
  endfacet
  facet normal 0 0 1
    outer loop
      vertex 4.50534 -3.15467 3
      vertex 3 -1.5 3
      vertex 4.21324 -3.53533 3
    endloop
  endfacet
  facet normal 0 0 1
    outer loop
      vertex 3 1.5 3
      vertex 3.53533 4.21324 3
      vertex 3.15467 4.50534 3
    endloop
  endfacet
  facet normal 0 0 1
    outer loop
      vertex 4.21324 -3.53533 3
      vertex 3 -1.5 3
      vertex 3.88909 -3.88909 3
    endloop
  endfacet
  facet normal 0 0 1
    outer loop
      vertex 3.88909 -3.88909 3
      vertex 3 -1.5 3
      vertex 3.53533 -4.21324 3
    endloop
  endfacet
  facet normal 0 0 1
    outer loop
      vertex 2.75 4.76314 3
      vertex 3 1.5 3
      vertex 3.15467 4.50534 3
    endloop
  endfacet
  facet normal 0 0 1
    outer loop
      vertex 2.3244 4.98469 3
      vertex 3 1.5 3
      vertex 2.75 4.76314 3
    endloop
  endfacet
  facet normal 0 0 1
    outer loop
      vertex 1.88111 5.16831 3
      vertex 3 1.5 3
      vertex 2.3244 4.98469 3
    endloop
  endfacet
  facet normal 0 0 1
    outer loop
      vertex 1.4235 5.31259 3
      vertex 3 1.5 3
      vertex 1.88111 5.16831 3
    endloop
  endfacet
  facet normal 0 0 1
    outer loop
      vertex 0.955065 5.41644 3
      vertex 3 1.5 3
      vertex 1.4235 5.31259 3
    endloop
  endfacet
  facet normal 0 0 1
    outer loop
      vertex 0.479356 5.47907 3
      vertex 3 1.5 3
      vertex 0.955065 5.41644 3
    endloop
  endfacet
  facet normal 0 0 1
    outer loop
      vertex 0 5.5 3
      vertex 3 1.5 3
      vertex 0.479356 5.47907 3
    endloop
  endfacet
  facet normal 0 0 1
    outer loop
      vertex -3 1.5 3
      vertex 0 5.5 3
      vertex -0.479356 5.47907 3
    endloop
  endfacet
  facet normal 0 0 1
    outer loop
      vertex -3 1.5 3
      vertex -0.479356 5.47907 3
      vertex -0.955065 5.41644 3
    endloop
  endfacet
  facet normal 0 0 1
    outer loop
      vertex -3 1.5 3
      vertex -0.955065 5.41644 3
      vertex -1.4235 5.31259 3
    endloop
  endfacet
  facet normal 0 0 1
    outer loop
      vertex -3 1.5 3
      vertex -1.4235 5.31259 3
      vertex -1.88111 5.16831 3
    endloop
  endfacet
  facet normal 0 0 1
    outer loop
      vertex -3 1.5 3
      vertex -1.88111 5.16831 3
      vertex -2.3244 4.98469 3
    endloop
  endfacet
  facet normal 0 0 1
    outer loop
      vertex -3 1.5 3
      vertex -2.3244 4.98469 3
      vertex -2.75 4.76314 3
    endloop
  endfacet
  facet normal 0 0 1
    outer loop
      vertex 0 5.5 3
      vertex -3 1.5 3
      vertex 3 1.5 3
    endloop
  endfacet
  facet normal -0 0 1
    outer loop
      vertex -3.53533 4.21324 3
      vertex -3 1.5 3
      vertex -3.15467 4.50534 3
    endloop
  endfacet
  facet normal -0 0 1
    outer loop
      vertex -3.15467 4.50534 3
      vertex -3 1.5 3
      vertex -2.75 4.76314 3
    endloop
  endfacet
  facet normal 0 0 1
    outer loop
      vertex 3.53533 -4.21324 3
      vertex 3 -1.5 3
      vertex 3.15467 -4.50534 3
    endloop
  endfacet
  facet normal 0 0 1
    outer loop
      vertex 3 -1.5 3
      vertex 2.75 -4.76314 3
      vertex 3.15467 -4.50534 3
    endloop
  endfacet
  facet normal 0 0 1
    outer loop
      vertex 3 -1.5 3
      vertex 2.3244 -4.98469 3
      vertex 2.75 -4.76314 3
    endloop
  endfacet
  facet normal 0 0 1
    outer loop
      vertex 3 -1.5 3
      vertex 1.88111 -5.16831 3
      vertex 2.3244 -4.98469 3
    endloop
  endfacet
  facet normal 0 0 1
    outer loop
      vertex 3 -1.5 3
      vertex 1.4235 -5.31259 3
      vertex 1.88111 -5.16831 3
    endloop
  endfacet
  facet normal 0 0 1
    outer loop
      vertex 3 -1.5 3
      vertex 0.955065 -5.41644 3
      vertex 1.4235 -5.31259 3
    endloop
  endfacet
  facet normal 0 0 1
    outer loop
      vertex 3 -1.5 3
      vertex 0.479356 -5.47907 3
      vertex 0.955065 -5.41644 3
    endloop
  endfacet
  facet normal 0 0 1
    outer loop
      vertex 3 -1.5 3
      vertex 0 -5.5 3
      vertex 0.479356 -5.47907 3
    endloop
  endfacet
  facet normal -0 0 1
    outer loop
      vertex -3 -1.5 3
      vertex 0 -5.5 3
      vertex 3 -1.5 3
    endloop
  endfacet
  facet normal 0 0 1
    outer loop
      vertex 0 -5.5 3
      vertex -3 -1.5 3
      vertex -0.479356 -5.47907 3
    endloop
  endfacet
  facet normal 0 0 1
    outer loop
      vertex -0.479356 -5.47907 3
      vertex -3 -1.5 3
      vertex -0.955065 -5.41644 3
    endloop
  endfacet
  facet normal 0 0 1
    outer loop
      vertex -0.955065 -5.41644 3
      vertex -3 -1.5 3
      vertex -1.4235 -5.31259 3
    endloop
  endfacet
  facet normal 0 0 1
    outer loop
      vertex -1.4235 -5.31259 3
      vertex -3 -1.5 3
      vertex -1.88111 -5.16831 3
    endloop
  endfacet
  facet normal 0 0 1
    outer loop
      vertex -1.88111 -5.16831 3
      vertex -3 -1.5 3
      vertex -2.3244 -4.98469 3
    endloop
  endfacet
  facet normal 0 0 1
    outer loop
      vertex -2.3244 -4.98469 3
      vertex -3 -1.5 3
      vertex -2.75 -4.76314 3
    endloop
  endfacet
  facet normal 0 0 1
    outer loop
      vertex -3 -1.5 3
      vertex -3.15467 -4.50534 3
      vertex -2.75 -4.76314 3
    endloop
  endfacet
  facet normal -0 0 1
    outer loop
      vertex -3.88909 3.88909 3
      vertex -3 1.5 3
      vertex -3.53533 4.21324 3
    endloop
  endfacet
  facet normal -0 0 1
    outer loop
      vertex -4.21324 3.53533 3
      vertex -3 1.5 3
      vertex -3.88909 3.88909 3
    endloop
  endfacet
  facet normal 0 0 1
    outer loop
      vertex -3 -1.5 3
      vertex -3.53533 -4.21324 3
      vertex -3.15467 -4.50534 3
    endloop
  endfacet
  facet normal -0 0 1
    outer loop
      vertex -4.50534 3.15467 3
      vertex -3 1.5 3
      vertex -4.21324 3.53533 3
    endloop
  endfacet
  facet normal 0 0 1
    outer loop
      vertex -3 -1.5 3
      vertex -3.88909 -3.88909 3
      vertex -3.53533 -4.21324 3
    endloop
  endfacet
  facet normal -0 0 1
    outer loop
      vertex -4.76314 2.75 3
      vertex -3 1.5 3
      vertex -4.50534 3.15467 3
    endloop
  endfacet
  facet normal 0 0 1
    outer loop
      vertex -3 -1.5 3
      vertex -4.21324 -3.53533 3
      vertex -3.88909 -3.88909 3
    endloop
  endfacet
  facet normal -0 0 1
    outer loop
      vertex -4.98469 2.3244 3
      vertex -3 1.5 3
      vertex -4.76314 2.75 3
    endloop
  endfacet
  facet normal 0 0 1
    outer loop
      vertex -3 -1.5 3
      vertex -4.50534 -3.15467 3
      vertex -4.21324 -3.53533 3
    endloop
  endfacet
  facet normal -0 0 1
    outer loop
      vertex -5.16831 1.88111 3
      vertex -3 1.5 3
      vertex -4.98469 2.3244 3
    endloop
  endfacet
  facet normal 0 0 1
    outer loop
      vertex -3 -1.5 3
      vertex -4.76314 -2.75 3
      vertex -4.50534 -3.15467 3
    endloop
  endfacet
  facet normal 0 0 1
    outer loop
      vertex -5.31259 1.4235 3
      vertex -3 1.5 3
      vertex -5.16831 1.88111 3
    endloop
  endfacet
  facet normal 0 0 1
    outer loop
      vertex -3 -1.5 3
      vertex -4.98469 -2.3244 3
      vertex -4.76314 -2.75 3
    endloop
  endfacet
  facet normal 0 0 1
    outer loop
      vertex -5.41644 0.955065 3
      vertex -3 1.5 3
      vertex -5.31259 1.4235 3
    endloop
  endfacet
  facet normal 0 0 1
    outer loop
      vertex -3 -1.5 3
      vertex -5.16831 -1.88111 3
      vertex -4.98469 -2.3244 3
    endloop
  endfacet
  facet normal 0 0 1
    outer loop
      vertex -5.47907 0.479356 3
      vertex -3 1.5 3
      vertex -5.41644 0.955065 3
    endloop
  endfacet
  facet normal 0 0 1
    outer loop
      vertex -3 -1.5 3
      vertex -5.31259 -1.4235 3
      vertex -5.16831 -1.88111 3
    endloop
  endfacet
  facet normal 0 0 1
    outer loop
      vertex -5.5 0 3
      vertex -3 1.5 3
      vertex -5.47907 0.479356 3
    endloop
  endfacet
  facet normal 0 0 1
    outer loop
      vertex -3 -1.5 3
      vertex -5.41644 -0.955065 3
      vertex -5.31259 -1.4235 3
    endloop
  endfacet
  facet normal 0 0 1
    outer loop
      vertex -3 1.5 3
      vertex -5.5 0 3
      vertex -3 -1.5 3
    endloop
  endfacet
  facet normal 0 0 1
    outer loop
      vertex -3 -1.5 3
      vertex -5.47907 -0.479356 3
      vertex -5.41644 -0.955065 3
    endloop
  endfacet
  facet normal 0 0 1
    outer loop
      vertex -3 -1.5 3
      vertex -5.5 0 3
      vertex -5.47907 -0.479356 3
    endloop
  endfacet
  facet normal -0.675577 0.737289 0
    outer loop
      vertex -3.53533 4.21324 0
      vertex -3.88909 3.88909 3
      vertex -3.53533 4.21324 3
    endloop
  endfacet
  facet normal -0.675577 0.737289 0
    outer loop
      vertex -3.88909 3.88909 3
      vertex -3.53533 4.21324 0
      vertex -3.88909 3.88909 0
    endloop
  endfacet
  facet normal -0.953719 0.300698 0
    outer loop
      vertex -5.31259 1.4235 0
      vertex -5.16831 1.88111 3
      vertex -5.16831 1.88111 0
    endloop
  endfacet
  facet normal -0.953719 0.300698 0
    outer loop
      vertex -5.16831 1.88111 3
      vertex -5.31259 1.4235 0
      vertex -5.31259 1.4235 3
    endloop
  endfacet
  facet normal -0.737289 -0.675577 0
    outer loop
      vertex -3.88909 -3.88909 0
      vertex -4.21324 -3.53533 3
      vertex -4.21324 -3.53533 0
    endloop
  endfacet
  facet normal -0.737289 -0.675577 0
    outer loop
      vertex -4.21324 -3.53533 3
      vertex -3.88909 -3.88909 0
      vertex -3.88909 -3.88909 3
    endloop
  endfacet
  facet normal -0.976296 -0.216441 0
    outer loop
      vertex -5.31259 -1.4235 0
      vertex -5.41644 -0.955065 3
      vertex -5.41644 -0.955065 0
    endloop
  endfacet
  facet normal -0.976296 -0.216441 0
    outer loop
      vertex -5.41644 -0.955065 3
      vertex -5.31259 -1.4235 0
      vertex -5.31259 -1.4235 3
    endloop
  endfacet
  facet normal -0.675577 -0.737289 0
    outer loop
      vertex -3.88909 -3.88909 0
      vertex -3.53533 -4.21324 3
      vertex -3.88909 -3.88909 3
    endloop
  endfacet
  facet normal -0.675577 -0.737289 -0
    outer loop
      vertex -3.53533 -4.21324 3
      vertex -3.88909 -3.88909 0
      vertex -3.53533 -4.21324 0
    endloop
  endfacet
  facet normal -0.793344 -0.608774 0
    outer loop
      vertex -4.21324 -3.53533 0
      vertex -4.50534 -3.15467 3
      vertex -4.50534 -3.15467 0
    endloop
  endfacet
  facet normal -0.793344 -0.608774 0
    outer loop
      vertex -4.50534 -3.15467 3
      vertex -4.21324 -3.53533 0
      vertex -4.21324 -3.53533 3
    endloop
  endfacet
  facet normal 0.382689 -0.923877 0
    outer loop
      vertex 1.88111 -5.16831 0
      vertex 2.3244 -4.98469 3
      vertex 1.88111 -5.16831 3
    endloop
  endfacet
  facet normal 0.382689 -0.923877 0
    outer loop
      vertex 2.3244 -4.98469 3
      vertex 1.88111 -5.16831 0
      vertex 2.3244 -4.98469 0
    endloop
  endfacet
  facet normal -0.999048 -0.0436212 0
    outer loop
      vertex -5.47907 -0.479356 0
      vertex -5.5 0 3
      vertex -5.5 0 0
    endloop
  endfacet
  facet normal -0.999048 -0.0436212 0
    outer loop
      vertex -5.5 0 3
      vertex -5.47907 -0.479356 0
      vertex -5.47907 -0.479356 3
    endloop
  endfacet
  facet normal 0.991444 -0.13053 0
    outer loop
      vertex 5.41644 -0.955065 3
      vertex 5.47907 -0.479356 0
      vertex 5.47907 -0.479356 3
    endloop
  endfacet
  facet normal 0.991444 -0.13053 0
    outer loop
      vertex 5.47907 -0.479356 0
      vertex 5.41644 -0.955065 3
      vertex 5.41644 -0.955065 0
    endloop
  endfacet
  facet normal -0.537295 -0.843394 0
    outer loop
      vertex -3.15467 -4.50534 0
      vertex -2.75 -4.76314 3
      vertex -3.15467 -4.50534 3
    endloop
  endfacet
  facet normal -0.537295 -0.843394 -0
    outer loop
      vertex -2.75 -4.76314 3
      vertex -3.15467 -4.50534 0
      vertex -2.75 -4.76314 0
    endloop
  endfacet
  facet normal 0.537295 -0.843394 0
    outer loop
      vertex 2.75 -4.76314 0
      vertex 3.15467 -4.50534 3
      vertex 2.75 -4.76314 3
    endloop
  endfacet
  facet normal 0.537295 -0.843394 0
    outer loop
      vertex 3.15467 -4.50534 3
      vertex 2.75 -4.76314 0
      vertex 3.15467 -4.50534 0
    endloop
  endfacet
  facet normal -0.13053 0.991444 0
    outer loop
      vertex -0.479356 5.47907 0
      vertex -0.955065 5.41644 3
      vertex -0.479356 5.47907 3
    endloop
  endfacet
  facet normal -0.13053 0.991444 0
    outer loop
      vertex -0.955065 5.41644 3
      vertex -0.479356 5.47907 0
      vertex -0.955065 5.41644 0
    endloop
  endfacet
  facet normal 0.976296 -0.216441 0
    outer loop
      vertex 5.31259 -1.4235 3
      vertex 5.41644 -0.955065 0
      vertex 5.41644 -0.955065 3
    endloop
  endfacet
  facet normal 0.976296 -0.216441 0
    outer loop
      vertex 5.41644 -0.955065 0
      vertex 5.31259 -1.4235 3
      vertex 5.31259 -1.4235 0
    endloop
  endfacet
  facet normal -0.843394 -0.537295 0
    outer loop
      vertex -4.50534 -3.15467 0
      vertex -4.76314 -2.75 3
      vertex -4.76314 -2.75 0
    endloop
  endfacet
  facet normal -0.843394 -0.537295 0
    outer loop
      vertex -4.76314 -2.75 3
      vertex -4.50534 -3.15467 0
      vertex -4.50534 -3.15467 3
    endloop
  endfacet
  facet normal -0.793344 0.608774 0
    outer loop
      vertex -4.50534 3.15467 0
      vertex -4.21324 3.53533 3
      vertex -4.21324 3.53533 0
    endloop
  endfacet
  facet normal -0.793344 0.608774 0
    outer loop
      vertex -4.21324 3.53533 3
      vertex -4.50534 3.15467 0
      vertex -4.50534 3.15467 3
    endloop
  endfacet
  facet normal -0.0436212 -0.999048 0
    outer loop
      vertex -0.479356 -5.47907 0
      vertex 0 -5.5 3
      vertex -0.479356 -5.47907 3
    endloop
  endfacet
  facet normal -0.0436212 -0.999048 -0
    outer loop
      vertex 0 -5.5 3
      vertex -0.479356 -5.47907 0
      vertex 0 -5.5 0
    endloop
  endfacet
  facet normal -0.537295 0.843394 0
    outer loop
      vertex -2.75 4.76314 0
      vertex -3.15467 4.50534 3
      vertex -2.75 4.76314 3
    endloop
  endfacet
  facet normal -0.537295 0.843394 0
    outer loop
      vertex -3.15467 4.50534 3
      vertex -2.75 4.76314 0
      vertex -3.15467 4.50534 0
    endloop
  endfacet
  facet normal -0.999048 0.0436212 0
    outer loop
      vertex -5.5 0 0
      vertex -5.47907 0.479356 3
      vertex -5.47907 0.479356 0
    endloop
  endfacet
  facet normal -0.999048 0.0436212 0
    outer loop
      vertex -5.47907 0.479356 3
      vertex -5.5 0 0
      vertex -5.5 0 3
    endloop
  endfacet
  facet normal -0.991444 0.13053 0
    outer loop
      vertex -5.47907 0.479356 0
      vertex -5.41644 0.955065 3
      vertex -5.41644 0.955065 0
    endloop
  endfacet
  facet normal -0.991444 0.13053 0
    outer loop
      vertex -5.41644 0.955065 3
      vertex -5.47907 0.479356 0
      vertex -5.47907 0.479356 3
    endloop
  endfacet
  facet normal -0.382689 -0.923877 0
    outer loop
      vertex -2.3244 -4.98469 0
      vertex -1.88111 -5.16831 3
      vertex -2.3244 -4.98469 3
    endloop
  endfacet
  facet normal -0.382689 -0.923877 -0
    outer loop
      vertex -1.88111 -5.16831 3
      vertex -2.3244 -4.98469 0
      vertex -1.88111 -5.16831 0
    endloop
  endfacet
  facet normal -0.300698 -0.953719 0
    outer loop
      vertex -1.88111 -5.16831 0
      vertex -1.4235 -5.31259 3
      vertex -1.88111 -5.16831 3
    endloop
  endfacet
  facet normal -0.300698 -0.953719 -0
    outer loop
      vertex -1.4235 -5.31259 3
      vertex -1.88111 -5.16831 0
      vertex -1.4235 -5.31259 0
    endloop
  endfacet
  facet normal -0.843394 0.537295 0
    outer loop
      vertex -4.76314 2.75 0
      vertex -4.50534 3.15467 3
      vertex -4.50534 3.15467 0
    endloop
  endfacet
  facet normal -0.843394 0.537295 0
    outer loop
      vertex -4.50534 3.15467 3
      vertex -4.76314 2.75 0
      vertex -4.76314 2.75 3
    endloop
  endfacet
  facet normal 0.843394 -0.537295 0
    outer loop
      vertex 4.50534 -3.15467 3
      vertex 4.76314 -2.75 0
      vertex 4.76314 -2.75 3
    endloop
  endfacet
  facet normal 0.843394 -0.537295 0
    outer loop
      vertex 4.76314 -2.75 0
      vertex 4.50534 -3.15467 3
      vertex 4.50534 -3.15467 0
    endloop
  endfacet
  facet normal 0.675577 -0.737289 0
    outer loop
      vertex 3.53533 -4.21324 0
      vertex 3.88909 -3.88909 3
      vertex 3.53533 -4.21324 3
    endloop
  endfacet
  facet normal 0.675577 -0.737289 0
    outer loop
      vertex 3.88909 -3.88909 3
      vertex 3.53533 -4.21324 0
      vertex 3.88909 -3.88909 0
    endloop
  endfacet
  facet normal 0.13053 0.991444 -0
    outer loop
      vertex 0.955065 5.41644 0
      vertex 0.479356 5.47907 3
      vertex 0.955065 5.41644 3
    endloop
  endfacet
  facet normal 0.13053 0.991444 0
    outer loop
      vertex 0.479356 5.47907 3
      vertex 0.955065 5.41644 0
      vertex 0.479356 5.47907 0
    endloop
  endfacet
  facet normal 0.991444 0.13053 0
    outer loop
      vertex 5.47907 0.479356 22
      vertex 5.41644 0.955065 19
      vertex 5.41644 0.955065 22
    endloop
  endfacet
  facet normal 0.991444 0.13053 0
    outer loop
      vertex 5.41644 0.955065 19
      vertex 5.47907 0.479356 22
      vertex 5.47907 0.479356 19
    endloop
  endfacet
  facet normal 0.999048 0.0436212 0
    outer loop
      vertex 5.5 0 22
      vertex 5.47907 0.479356 19
      vertex 5.47907 0.479356 22
    endloop
  endfacet
  facet normal 0.999048 0.0436212 0
    outer loop
      vertex 5.47907 0.479356 19
      vertex 5.5 0 22
      vertex 5.5 0 19
    endloop
  endfacet
  facet normal 0.976296 0.216441 0
    outer loop
      vertex 5.41644 0.955065 22
      vertex 5.31259 1.4235 19
      vertex 5.31259 1.4235 22
    endloop
  endfacet
  facet normal 0.976296 0.216441 0
    outer loop
      vertex 5.31259 1.4235 19
      vertex 5.41644 0.955065 22
      vertex 5.41644 0.955065 19
    endloop
  endfacet
  facet normal 0.887014 -0.461743 0
    outer loop
      vertex 4.76314 -2.75 22
      vertex 4.98469 -2.3244 19
      vertex 4.98469 -2.3244 22
    endloop
  endfacet
  facet normal 0.887014 -0.461743 0
    outer loop
      vertex 4.98469 -2.3244 19
      vertex 4.76314 -2.75 22
      vertex 4.76314 -2.75 19
    endloop
  endfacet
  facet normal -0.608774 -0.793344 0
    outer loop
      vertex -3.53533 -4.21324 19
      vertex -3.15467 -4.50534 22
      vertex -3.53533 -4.21324 22
    endloop
  endfacet
  facet normal -0.608774 -0.793344 -0
    outer loop
      vertex -3.15467 -4.50534 22
      vertex -3.53533 -4.21324 19
      vertex -3.15467 -4.50534 19
    endloop
  endfacet
  facet normal 0.608774 -0.793344 0
    outer loop
      vertex 3.15467 -4.50534 19
      vertex 3.53533 -4.21324 22
      vertex 3.15467 -4.50534 22
    endloop
  endfacet
  facet normal 0.608774 -0.793344 0
    outer loop
      vertex 3.53533 -4.21324 22
      vertex 3.15467 -4.50534 19
      vertex 3.53533 -4.21324 19
    endloop
  endfacet
  facet normal 0.461743 0.887014 -0
    outer loop
      vertex 2.75 4.76314 19
      vertex 2.3244 4.98469 22
      vertex 2.75 4.76314 22
    endloop
  endfacet
  facet normal 0.461743 0.887014 0
    outer loop
      vertex 2.3244 4.98469 22
      vertex 2.75 4.76314 19
      vertex 2.3244 4.98469 19
    endloop
  endfacet
  facet normal 0.13053 -0.991444 0
    outer loop
      vertex 0.479356 -5.47907 19
      vertex 0.955065 -5.41644 22
      vertex 0.479356 -5.47907 22
    endloop
  endfacet
  facet normal 0.13053 -0.991444 0
    outer loop
      vertex 0.955065 -5.41644 22
      vertex 0.479356 -5.47907 19
      vertex 0.955065 -5.41644 19
    endloop
  endfacet
  facet normal -0.991444 -0.13053 0
    outer loop
      vertex -5.41644 -0.955065 19
      vertex -5.47907 -0.479356 22
      vertex -5.47907 -0.479356 19
    endloop
  endfacet
  facet normal -0.991444 -0.13053 0
    outer loop
      vertex -5.47907 -0.479356 22
      vertex -5.41644 -0.955065 19
      vertex -5.41644 -0.955065 22
    endloop
  endfacet
  facet normal 0.0436212 0.999048 -0
    outer loop
      vertex 0.479356 5.47907 19
      vertex 0 5.5 22
      vertex 0.479356 5.47907 22
    endloop
  endfacet
  facet normal 0.0436212 0.999048 0
    outer loop
      vertex 0 5.5 22
      vertex 0.479356 5.47907 19
      vertex 0 5.5 19
    endloop
  endfacet
  facet normal -0.923877 -0.382689 0
    outer loop
      vertex -4.98469 -2.3244 19
      vertex -5.16831 -1.88111 22
      vertex -5.16831 -1.88111 19
    endloop
  endfacet
  facet normal -0.923877 -0.382689 0
    outer loop
      vertex -5.16831 -1.88111 22
      vertex -4.98469 -2.3244 19
      vertex -4.98469 -2.3244 22
    endloop
  endfacet
  facet normal 0.382689 0.923877 -0
    outer loop
      vertex 2.3244 4.98469 19
      vertex 1.88111 5.16831 22
      vertex 2.3244 4.98469 22
    endloop
  endfacet
  facet normal 0.382689 0.923877 0
    outer loop
      vertex 1.88111 5.16831 22
      vertex 2.3244 4.98469 19
      vertex 1.88111 5.16831 19
    endloop
  endfacet
  facet normal -0.737289 0.675577 0
    outer loop
      vertex -4.21324 3.53533 19
      vertex -3.88909 3.88909 22
      vertex -3.88909 3.88909 19
    endloop
  endfacet
  facet normal -0.737289 0.675577 0
    outer loop
      vertex -3.88909 3.88909 22
      vertex -4.21324 3.53533 19
      vertex -4.21324 3.53533 22
    endloop
  endfacet
  facet normal 0.300698 0.953719 -0
    outer loop
      vertex 1.88111 5.16831 19
      vertex 1.4235 5.31259 22
      vertex 1.88111 5.16831 22
    endloop
  endfacet
  facet normal 0.300698 0.953719 0
    outer loop
      vertex 1.4235 5.31259 22
      vertex 1.88111 5.16831 19
      vertex 1.4235 5.31259 19
    endloop
  endfacet
  facet normal 0.461743 -0.887014 0
    outer loop
      vertex 2.3244 -4.98469 19
      vertex 2.75 -4.76314 22
      vertex 2.3244 -4.98469 22
    endloop
  endfacet
  facet normal 0.461743 -0.887014 0
    outer loop
      vertex 2.75 -4.76314 22
      vertex 2.3244 -4.98469 19
      vertex 2.75 -4.76314 19
    endloop
  endfacet
  facet normal 0.737289 -0.675577 0
    outer loop
      vertex 3.88909 -3.88909 22
      vertex 4.21324 -3.53533 19
      vertex 4.21324 -3.53533 22
    endloop
  endfacet
  facet normal 0.737289 -0.675577 0
    outer loop
      vertex 4.21324 -3.53533 19
      vertex 3.88909 -3.88909 22
      vertex 3.88909 -3.88909 19
    endloop
  endfacet
  facet normal -0.13053 -0.991444 0
    outer loop
      vertex -0.955065 -5.41644 19
      vertex -0.479356 -5.47907 22
      vertex -0.955065 -5.41644 22
    endloop
  endfacet
  facet normal -0.13053 -0.991444 -0
    outer loop
      vertex -0.479356 -5.47907 22
      vertex -0.955065 -5.41644 19
      vertex -0.479356 -5.47907 19
    endloop
  endfacet
  facet normal -0.216441 0.976296 0
    outer loop
      vertex -0.955065 5.41644 19
      vertex -1.4235 5.31259 22
      vertex -0.955065 5.41644 22
    endloop
  endfacet
  facet normal -0.216441 0.976296 0
    outer loop
      vertex -1.4235 5.31259 22
      vertex -0.955065 5.41644 19
      vertex -1.4235 5.31259 19
    endloop
  endfacet
  facet normal -0.216441 -0.976296 0
    outer loop
      vertex -1.4235 -5.31259 19
      vertex -0.955065 -5.41644 22
      vertex -1.4235 -5.31259 22
    endloop
  endfacet
  facet normal -0.216441 -0.976296 -0
    outer loop
      vertex -0.955065 -5.41644 22
      vertex -1.4235 -5.31259 19
      vertex -0.955065 -5.41644 19
    endloop
  endfacet
  facet normal 0.537295 0.843394 -0
    outer loop
      vertex 3.15467 4.50534 19
      vertex 2.75 4.76314 22
      vertex 3.15467 4.50534 22
    endloop
  endfacet
  facet normal 0.537295 0.843394 0
    outer loop
      vertex 2.75 4.76314 22
      vertex 3.15467 4.50534 19
      vertex 2.75 4.76314 19
    endloop
  endfacet
  facet normal -0.887014 -0.461743 0
    outer loop
      vertex -4.76314 -2.75 19
      vertex -4.98469 -2.3244 22
      vertex -4.98469 -2.3244 19
    endloop
  endfacet
  facet normal -0.887014 -0.461743 0
    outer loop
      vertex -4.98469 -2.3244 22
      vertex -4.76314 -2.75 19
      vertex -4.76314 -2.75 22
    endloop
  endfacet
  facet normal 0.793344 0.608774 0
    outer loop
      vertex 4.50534 3.15467 22
      vertex 4.21324 3.53533 19
      vertex 4.21324 3.53533 22
    endloop
  endfacet
  facet normal 0.793344 0.608774 0
    outer loop
      vertex 4.21324 3.53533 19
      vertex 4.50534 3.15467 22
      vertex 4.50534 3.15467 19
    endloop
  endfacet
  facet normal -0.953719 -0.300698 0
    outer loop
      vertex -5.16831 -1.88111 19
      vertex -5.31259 -1.4235 22
      vertex -5.31259 -1.4235 19
    endloop
  endfacet
  facet normal -0.953719 -0.300698 0
    outer loop
      vertex -5.31259 -1.4235 22
      vertex -5.16831 -1.88111 19
      vertex -5.16831 -1.88111 22
    endloop
  endfacet
  facet normal 0.953719 -0.300698 0
    outer loop
      vertex 5.16831 -1.88111 22
      vertex 5.31259 -1.4235 19
      vertex 5.31259 -1.4235 22
    endloop
  endfacet
  facet normal 0.953719 -0.300698 0
    outer loop
      vertex 5.31259 -1.4235 19
      vertex 5.16831 -1.88111 22
      vertex 5.16831 -1.88111 19
    endloop
  endfacet
  facet normal -0.461743 0.887014 0
    outer loop
      vertex -2.3244 4.98469 19
      vertex -2.75 4.76314 22
      vertex -2.3244 4.98469 22
    endloop
  endfacet
  facet normal -0.461743 0.887014 0
    outer loop
      vertex -2.75 4.76314 22
      vertex -2.3244 4.98469 19
      vertex -2.75 4.76314 19
    endloop
  endfacet
  facet normal -0.461743 -0.887014 0
    outer loop
      vertex -2.75 -4.76314 19
      vertex -2.3244 -4.98469 22
      vertex -2.75 -4.76314 22
    endloop
  endfacet
  facet normal -0.461743 -0.887014 -0
    outer loop
      vertex -2.3244 -4.98469 22
      vertex -2.75 -4.76314 19
      vertex -2.3244 -4.98469 19
    endloop
  endfacet
  facet normal -0.382689 0.923877 0
    outer loop
      vertex -1.88111 5.16831 19
      vertex -2.3244 4.98469 22
      vertex -1.88111 5.16831 22
    endloop
  endfacet
  facet normal -0.382689 0.923877 0
    outer loop
      vertex -2.3244 4.98469 22
      vertex -1.88111 5.16831 19
      vertex -2.3244 4.98469 19
    endloop
  endfacet
  facet normal -0.608774 0.793344 0
    outer loop
      vertex -3.15467 4.50534 19
      vertex -3.53533 4.21324 22
      vertex -3.15467 4.50534 22
    endloop
  endfacet
  facet normal -0.608774 0.793344 0
    outer loop
      vertex -3.53533 4.21324 22
      vertex -3.15467 4.50534 19
      vertex -3.53533 4.21324 19
    endloop
  endfacet
  facet normal 0.300698 -0.953719 0
    outer loop
      vertex 1.4235 -5.31259 19
      vertex 1.88111 -5.16831 22
      vertex 1.4235 -5.31259 22
    endloop
  endfacet
  facet normal 0.300698 -0.953719 0
    outer loop
      vertex 1.88111 -5.16831 22
      vertex 1.4235 -5.31259 19
      vertex 1.88111 -5.16831 19
    endloop
  endfacet
  facet normal -0.300698 0.953719 0
    outer loop
      vertex -1.4235 5.31259 19
      vertex -1.88111 5.16831 22
      vertex -1.4235 5.31259 22
    endloop
  endfacet
  facet normal -0.300698 0.953719 0
    outer loop
      vertex -1.88111 5.16831 22
      vertex -1.4235 5.31259 19
      vertex -1.88111 5.16831 19
    endloop
  endfacet
  facet normal 0.843394 0.537295 0
    outer loop
      vertex 4.76314 2.75 22
      vertex 4.50534 3.15467 19
      vertex 4.50534 3.15467 22
    endloop
  endfacet
  facet normal 0.843394 0.537295 0
    outer loop
      vertex 4.50534 3.15467 19
      vertex 4.76314 2.75 22
      vertex 4.76314 2.75 19
    endloop
  endfacet
  facet normal -0.923877 0.382689 0
    outer loop
      vertex -5.16831 1.88111 19
      vertex -4.98469 2.3244 22
      vertex -4.98469 2.3244 19
    endloop
  endfacet
  facet normal -0.923877 0.382689 0
    outer loop
      vertex -4.98469 2.3244 22
      vertex -5.16831 1.88111 19
      vertex -5.16831 1.88111 22
    endloop
  endfacet
  facet normal 0.999048 -0.0436212 0
    outer loop
      vertex 5.47907 -0.479356 22
      vertex 5.5 0 19
      vertex 5.5 0 22
    endloop
  endfacet
  facet normal 0.999048 -0.0436212 0
    outer loop
      vertex 5.5 0 19
      vertex 5.47907 -0.479356 22
      vertex 5.47907 -0.479356 19
    endloop
  endfacet
  facet normal 0.887014 0.461743 0
    outer loop
      vertex 4.98469 2.3244 22
      vertex 4.76314 2.75 19
      vertex 4.76314 2.75 22
    endloop
  endfacet
  facet normal 0.887014 0.461743 0
    outer loop
      vertex 4.76314 2.75 19
      vertex 4.98469 2.3244 22
      vertex 4.98469 2.3244 19
    endloop
  endfacet
  facet normal -0.976296 0.216441 0
    outer loop
      vertex -5.41644 0.955065 19
      vertex -5.31259 1.4235 22
      vertex -5.31259 1.4235 19
    endloop
  endfacet
  facet normal -0.976296 0.216441 0
    outer loop
      vertex -5.31259 1.4235 22
      vertex -5.41644 0.955065 19
      vertex -5.41644 0.955065 22
    endloop
  endfacet
  facet normal 0 0 -1
    outer loop
      vertex 3 -1.5 19
      vertex 5.5 0 19
      vertex 5.47907 -0.479356 19
    endloop
  endfacet
  facet normal 0 0 -1
    outer loop
      vertex 3 -1.5 19
      vertex 5.47907 -0.479356 19
      vertex 5.41644 -0.955065 19
    endloop
  endfacet
  facet normal 0 0 -1
    outer loop
      vertex 3 1.5 19
      vertex 5.5 0 19
      vertex 3 -1.5 19
    endloop
  endfacet
  facet normal 0 0 -1
    outer loop
      vertex 3 -1.5 19
      vertex 5.41644 -0.955065 19
      vertex 5.31259 -1.4235 19
    endloop
  endfacet
  facet normal 0 0 -1
    outer loop
      vertex 5.5 0 19
      vertex 3 1.5 19
      vertex 5.47907 0.479356 19
    endloop
  endfacet
  facet normal 0 0 -1
    outer loop
      vertex 3 -1.5 19
      vertex 5.31259 -1.4235 19
      vertex 5.16831 -1.88111 19
    endloop
  endfacet
  facet normal 0 0 -1
    outer loop
      vertex 5.47907 0.479356 19
      vertex 3 1.5 19
      vertex 5.41644 0.955065 19
    endloop
  endfacet
  facet normal 0 0 -1
    outer loop
      vertex 3 -1.5 19
      vertex 5.16831 -1.88111 19
      vertex 4.98469 -2.3244 19
    endloop
  endfacet
  facet normal 0 0 -1
    outer loop
      vertex 5.41644 0.955065 19
      vertex 3 1.5 19
      vertex 5.31259 1.4235 19
    endloop
  endfacet
  facet normal 0 0 -1
    outer loop
      vertex 3 -1.5 19
      vertex 4.98469 -2.3244 19
      vertex 4.76314 -2.75 19
    endloop
  endfacet
  facet normal 0 0 -1
    outer loop
      vertex 5.31259 1.4235 19
      vertex 3 1.5 19
      vertex 5.16831 1.88111 19
    endloop
  endfacet
  facet normal 0 0 -1
    outer loop
      vertex 3 -1.5 19
      vertex 4.76314 -2.75 19
      vertex 4.50534 -3.15467 19
    endloop
  endfacet
  facet normal -0 0 -1
    outer loop
      vertex 5.16831 1.88111 19
      vertex 3 1.5 19
      vertex 4.98469 2.3244 19
    endloop
  endfacet
  facet normal 0 0 -1
    outer loop
      vertex 3 -1.5 19
      vertex 4.50534 -3.15467 19
      vertex 4.21324 -3.53533 19
    endloop
  endfacet
  facet normal -0 0 -1
    outer loop
      vertex 4.98469 2.3244 19
      vertex 3 1.5 19
      vertex 4.76314 2.75 19
    endloop
  endfacet
  facet normal 0 0 -1
    outer loop
      vertex 3 -1.5 19
      vertex 4.21324 -3.53533 19
      vertex 3.88909 -3.88909 19
    endloop
  endfacet
  facet normal -0 0 -1
    outer loop
      vertex 4.76314 2.75 19
      vertex 3 1.5 19
      vertex 4.50534 3.15467 19
    endloop
  endfacet
  facet normal 0 0 -1
    outer loop
      vertex 3 -1.5 19
      vertex 3.88909 -3.88909 19
      vertex 3.53533 -4.21324 19
    endloop
  endfacet
  facet normal -0 0 -1
    outer loop
      vertex 4.50534 3.15467 19
      vertex 3 1.5 19
      vertex 4.21324 3.53533 19
    endloop
  endfacet
  facet normal 0 0 -1
    outer loop
      vertex 3 -1.5 19
      vertex 3.53533 -4.21324 19
      vertex 3.15467 -4.50534 19
    endloop
  endfacet
  facet normal -0 0 -1
    outer loop
      vertex 4.21324 3.53533 19
      vertex 3 1.5 19
      vertex 3.88909 3.88909 19
    endloop
  endfacet
  facet normal -0 0 -1
    outer loop
      vertex 3.88909 3.88909 19
      vertex 3 1.5 19
      vertex 3.53533 4.21324 19
    endloop
  endfacet
  facet normal 0 0 -1
    outer loop
      vertex 2.75 -4.76314 19
      vertex 3 -1.5 19
      vertex 3.15467 -4.50534 19
    endloop
  endfacet
  facet normal 0 0 -1
    outer loop
      vertex 2.3244 -4.98469 19
      vertex 3 -1.5 19
      vertex 2.75 -4.76314 19
    endloop
  endfacet
  facet normal 0 0 -1
    outer loop
      vertex 1.88111 -5.16831 19
      vertex 3 -1.5 19
      vertex 2.3244 -4.98469 19
    endloop
  endfacet
  facet normal 0 0 -1
    outer loop
      vertex 1.4235 -5.31259 19
      vertex 3 -1.5 19
      vertex 1.88111 -5.16831 19
    endloop
  endfacet
  facet normal 0 0 -1
    outer loop
      vertex 0.955065 -5.41644 19
      vertex 3 -1.5 19
      vertex 1.4235 -5.31259 19
    endloop
  endfacet
  facet normal 0 0 -1
    outer loop
      vertex 0.479356 -5.47907 19
      vertex 3 -1.5 19
      vertex 0.955065 -5.41644 19
    endloop
  endfacet
  facet normal 0 0 -1
    outer loop
      vertex 0 -5.5 19
      vertex 3 -1.5 19
      vertex 0.479356 -5.47907 19
    endloop
  endfacet
  facet normal 0 0 -1
    outer loop
      vertex -3 -1.5 19
      vertex 0 -5.5 19
      vertex -0.479356 -5.47907 19
    endloop
  endfacet
  facet normal 0 0 -1
    outer loop
      vertex -3 -1.5 19
      vertex -0.479356 -5.47907 19
      vertex -0.955065 -5.41644 19
    endloop
  endfacet
  facet normal 0 0 -1
    outer loop
      vertex -3 -1.5 19
      vertex -0.955065 -5.41644 19
      vertex -1.4235 -5.31259 19
    endloop
  endfacet
  facet normal 0 0 -1
    outer loop
      vertex -3 -1.5 19
      vertex -1.4235 -5.31259 19
      vertex -1.88111 -5.16831 19
    endloop
  endfacet
  facet normal 0 0 -1
    outer loop
      vertex -3 -1.5 19
      vertex -1.88111 -5.16831 19
      vertex -2.3244 -4.98469 19
    endloop
  endfacet
  facet normal 0 0 -1
    outer loop
      vertex -3 -1.5 19
      vertex -2.3244 -4.98469 19
      vertex -2.75 -4.76314 19
    endloop
  endfacet
  facet normal 0 0 -1
    outer loop
      vertex 0 -5.5 19
      vertex -3 -1.5 19
      vertex 3 -1.5 19
    endloop
  endfacet
  facet normal 0 0 -1
    outer loop
      vertex -3.53533 -4.21324 19
      vertex -3 -1.5 19
      vertex -3.15467 -4.50534 19
    endloop
  endfacet
  facet normal 0 0 -1
    outer loop
      vertex -3.15467 -4.50534 19
      vertex -3 -1.5 19
      vertex -2.75 -4.76314 19
    endloop
  endfacet
  facet normal -0 0 -1
    outer loop
      vertex 3.53533 4.21324 19
      vertex 3 1.5 19
      vertex 3.15467 4.50534 19
    endloop
  endfacet
  facet normal 0 0 -1
    outer loop
      vertex 3 1.5 19
      vertex 2.75 4.76314 19
      vertex 3.15467 4.50534 19
    endloop
  endfacet
  facet normal 0 0 -1
    outer loop
      vertex 3 1.5 19
      vertex 2.3244 4.98469 19
      vertex 2.75 4.76314 19
    endloop
  endfacet
  facet normal 0 0 -1
    outer loop
      vertex 3 1.5 19
      vertex 1.88111 5.16831 19
      vertex 2.3244 4.98469 19
    endloop
  endfacet
  facet normal 0 0 -1
    outer loop
      vertex 3 1.5 19
      vertex 1.4235 5.31259 19
      vertex 1.88111 5.16831 19
    endloop
  endfacet
  facet normal 0 0 -1
    outer loop
      vertex 3 1.5 19
      vertex 0.955065 5.41644 19
      vertex 1.4235 5.31259 19
    endloop
  endfacet
  facet normal 0 0 -1
    outer loop
      vertex 3 1.5 19
      vertex 0.479356 5.47907 19
      vertex 0.955065 5.41644 19
    endloop
  endfacet
  facet normal 0 0 -1
    outer loop
      vertex 3 1.5 19
      vertex 0 5.5 19
      vertex 0.479356 5.47907 19
    endloop
  endfacet
  facet normal 0 0 -1
    outer loop
      vertex -3 1.5 19
      vertex 0 5.5 19
      vertex 3 1.5 19
    endloop
  endfacet
  facet normal 0 0 -1
    outer loop
      vertex 0 5.5 19
      vertex -3 1.5 19
      vertex -0.479356 5.47907 19
    endloop
  endfacet
  facet normal 0 0 -1
    outer loop
      vertex -0.479356 5.47907 19
      vertex -3 1.5 19
      vertex -0.955065 5.41644 19
    endloop
  endfacet
  facet normal 0 0 -1
    outer loop
      vertex -0.955065 5.41644 19
      vertex -3 1.5 19
      vertex -1.4235 5.31259 19
    endloop
  endfacet
  facet normal 0 0 -1
    outer loop
      vertex -1.4235 5.31259 19
      vertex -3 1.5 19
      vertex -1.88111 5.16831 19
    endloop
  endfacet
  facet normal 0 0 -1
    outer loop
      vertex -1.88111 5.16831 19
      vertex -3 1.5 19
      vertex -2.3244 4.98469 19
    endloop
  endfacet
  facet normal 0 0 -1
    outer loop
      vertex -2.3244 4.98469 19
      vertex -3 1.5 19
      vertex -2.75 4.76314 19
    endloop
  endfacet
  facet normal 0 0 -1
    outer loop
      vertex -3 1.5 19
      vertex -3.15467 4.50534 19
      vertex -2.75 4.76314 19
    endloop
  endfacet
  facet normal 0 0 -1
    outer loop
      vertex -3.88909 -3.88909 19
      vertex -3 -1.5 19
      vertex -3.53533 -4.21324 19
    endloop
  endfacet
  facet normal 0 0 -1
    outer loop
      vertex -4.21324 -3.53533 19
      vertex -3 -1.5 19
      vertex -3.88909 -3.88909 19
    endloop
  endfacet
  facet normal 0 0 -1
    outer loop
      vertex -3 1.5 19
      vertex -3.53533 4.21324 19
      vertex -3.15467 4.50534 19
    endloop
  endfacet
  facet normal 0 0 -1
    outer loop
      vertex -4.50534 -3.15467 19
      vertex -3 -1.5 19
      vertex -4.21324 -3.53533 19
    endloop
  endfacet
  facet normal 0 0 -1
    outer loop
      vertex -3 1.5 19
      vertex -3.88909 3.88909 19
      vertex -3.53533 4.21324 19
    endloop
  endfacet
  facet normal 0 0 -1
    outer loop
      vertex -4.76314 -2.75 19
      vertex -3 -1.5 19
      vertex -4.50534 -3.15467 19
    endloop
  endfacet
  facet normal 0 0 -1
    outer loop
      vertex -3 1.5 19
      vertex -4.21324 3.53533 19
      vertex -3.88909 3.88909 19
    endloop
  endfacet
  facet normal 0 0 -1
    outer loop
      vertex -4.98469 -2.3244 19
      vertex -3 -1.5 19
      vertex -4.76314 -2.75 19
    endloop
  endfacet
  facet normal 0 0 -1
    outer loop
      vertex -3 1.5 19
      vertex -4.50534 3.15467 19
      vertex -4.21324 3.53533 19
    endloop
  endfacet
  facet normal 0 0 -1
    outer loop
      vertex -5.16831 -1.88111 19
      vertex -3 -1.5 19
      vertex -4.98469 -2.3244 19
    endloop
  endfacet
  facet normal 0 0 -1
    outer loop
      vertex -3 1.5 19
      vertex -4.76314 2.75 19
      vertex -4.50534 3.15467 19
    endloop
  endfacet
  facet normal 0 0 -1
    outer loop
      vertex -5.31259 -1.4235 19
      vertex -3 -1.5 19
      vertex -5.16831 -1.88111 19
    endloop
  endfacet
  facet normal 0 0 -1
    outer loop
      vertex -3 1.5 19
      vertex -4.98469 2.3244 19
      vertex -4.76314 2.75 19
    endloop
  endfacet
  facet normal 0 0 -1
    outer loop
      vertex -5.41644 -0.955065 19
      vertex -3 -1.5 19
      vertex -5.31259 -1.4235 19
    endloop
  endfacet
  facet normal 0 0 -1
    outer loop
      vertex -3 1.5 19
      vertex -5.16831 1.88111 19
      vertex -4.98469 2.3244 19
    endloop
  endfacet
  facet normal 0 0 -1
    outer loop
      vertex -5.47907 -0.479356 19
      vertex -3 -1.5 19
      vertex -5.41644 -0.955065 19
    endloop
  endfacet
  facet normal -0 0 -1
    outer loop
      vertex -3 1.5 19
      vertex -5.31259 1.4235 19
      vertex -5.16831 1.88111 19
    endloop
  endfacet
  facet normal 0 0 -1
    outer loop
      vertex -5.5 0 19
      vertex -3 -1.5 19
      vertex -5.47907 -0.479356 19
    endloop
  endfacet
  facet normal 0 0 -1
    outer loop
      vertex -3 1.5 19
      vertex -5.41644 0.955065 19
      vertex -5.31259 1.4235 19
    endloop
  endfacet
  facet normal 0 0 -1
    outer loop
      vertex -3 -1.5 19
      vertex -5.5 0 19
      vertex -3 1.5 19
    endloop
  endfacet
  facet normal 0 0 -1
    outer loop
      vertex -3 1.5 19
      vertex -5.47907 0.479356 19
      vertex -5.41644 0.955065 19
    endloop
  endfacet
  facet normal 0 0 -1
    outer loop
      vertex -3 1.5 19
      vertex -5.5 0 19
      vertex -5.47907 0.479356 19
    endloop
  endfacet
  facet normal 0.675577 0.737289 -0
    outer loop
      vertex 3.88909 3.88909 19
      vertex 3.53533 4.21324 22
      vertex 3.88909 3.88909 22
    endloop
  endfacet
  facet normal 0.675577 0.737289 0
    outer loop
      vertex 3.53533 4.21324 22
      vertex 3.88909 3.88909 19
      vertex 3.53533 4.21324 19
    endloop
  endfacet
  facet normal -0.887014 0.461743 0
    outer loop
      vertex -4.98469 2.3244 19
      vertex -4.76314 2.75 22
      vertex -4.76314 2.75 19
    endloop
  endfacet
  facet normal -0.887014 0.461743 0
    outer loop
      vertex -4.76314 2.75 22
      vertex -4.98469 2.3244 19
      vertex -4.98469 2.3244 22
    endloop
  endfacet
  facet normal 0.216441 -0.976296 0
    outer loop
      vertex 0.955065 -5.41644 19
      vertex 1.4235 -5.31259 22
      vertex 0.955065 -5.41644 22
    endloop
  endfacet
  facet normal 0.216441 -0.976296 0
    outer loop
      vertex 1.4235 -5.31259 22
      vertex 0.955065 -5.41644 19
      vertex 1.4235 -5.31259 19
    endloop
  endfacet
  facet normal 0.608774 0.793344 -0
    outer loop
      vertex 3.53533 4.21324 19
      vertex 3.15467 4.50534 22
      vertex 3.53533 4.21324 22
    endloop
  endfacet
  facet normal 0.608774 0.793344 0
    outer loop
      vertex 3.15467 4.50534 22
      vertex 3.53533 4.21324 19
      vertex 3.15467 4.50534 19
    endloop
  endfacet
  facet normal 0.0436212 -0.999048 0
    outer loop
      vertex 0 -5.5 19
      vertex 0.479356 -5.47907 22
      vertex 0 -5.5 22
    endloop
  endfacet
  facet normal 0.0436212 -0.999048 0
    outer loop
      vertex 0.479356 -5.47907 22
      vertex 0 -5.5 19
      vertex 0.479356 -5.47907 19
    endloop
  endfacet
  facet normal 0.953719 0.300698 0
    outer loop
      vertex 5.31259 1.4235 22
      vertex 5.16831 1.88111 19
      vertex 5.16831 1.88111 22
    endloop
  endfacet
  facet normal 0.953719 0.300698 0
    outer loop
      vertex 5.16831 1.88111 19
      vertex 5.31259 1.4235 22
      vertex 5.31259 1.4235 19
    endloop
  endfacet
  facet normal 0.793344 -0.608774 0
    outer loop
      vertex 4.21324 -3.53533 22
      vertex 4.50534 -3.15467 19
      vertex 4.50534 -3.15467 22
    endloop
  endfacet
  facet normal 0.793344 -0.608774 0
    outer loop
      vertex 4.50534 -3.15467 19
      vertex 4.21324 -3.53533 22
      vertex 4.21324 -3.53533 19
    endloop
  endfacet
  facet normal 0.923877 -0.382689 0
    outer loop
      vertex 4.98469 -2.3244 22
      vertex 5.16831 -1.88111 19
      vertex 5.16831 -1.88111 22
    endloop
  endfacet
  facet normal 0.923877 -0.382689 0
    outer loop
      vertex 5.16831 -1.88111 19
      vertex 4.98469 -2.3244 22
      vertex 4.98469 -2.3244 19
    endloop
  endfacet
  facet normal -0.0436212 0.999048 0
    outer loop
      vertex 0 5.5 19
      vertex -0.479356 5.47907 22
      vertex 0 5.5 22
    endloop
  endfacet
  facet normal -0.0436212 0.999048 0
    outer loop
      vertex -0.479356 5.47907 22
      vertex 0 5.5 19
      vertex -0.479356 5.47907 19
    endloop
  endfacet
  facet normal 0.923877 0.382689 0
    outer loop
      vertex 5.16831 1.88111 22
      vertex 4.98469 2.3244 19
      vertex 4.98469 2.3244 22
    endloop
  endfacet
  facet normal 0.923877 0.382689 0
    outer loop
      vertex 4.98469 2.3244 19
      vertex 5.16831 1.88111 22
      vertex 5.16831 1.88111 19
    endloop
  endfacet
  facet normal 0.737289 0.675577 0
    outer loop
      vertex 4.21324 3.53533 22
      vertex 3.88909 3.88909 19
      vertex 3.88909 3.88909 22
    endloop
  endfacet
  facet normal 0.737289 0.675577 0
    outer loop
      vertex 3.88909 3.88909 19
      vertex 4.21324 3.53533 22
      vertex 4.21324 3.53533 19
    endloop
  endfacet
  facet normal 0.216441 0.976296 -0
    outer loop
      vertex 1.4235 5.31259 19
      vertex 0.955065 5.41644 22
      vertex 1.4235 5.31259 22
    endloop
  endfacet
  facet normal 0.216441 0.976296 0
    outer loop
      vertex 0.955065 5.41644 22
      vertex 1.4235 5.31259 19
      vertex 0.955065 5.41644 19
    endloop
  endfacet
  facet normal 0 0 1
    outer loop
      vertex 5.47907 0.479356 22
      vertex 5.47907 -0.479356 22
      vertex 5.5 0 22
    endloop
  endfacet
  facet normal 0 0 1
    outer loop
      vertex 5.41644 0.955065 22
      vertex 5.47907 -0.479356 22
      vertex 5.47907 0.479356 22
    endloop
  endfacet
  facet normal 0 0 1
    outer loop
      vertex 5.41644 0.955065 22
      vertex 5.41644 -0.955065 22
      vertex 5.47907 -0.479356 22
    endloop
  endfacet
  facet normal 0 0 1
    outer loop
      vertex 5.31259 1.4235 22
      vertex 5.41644 -0.955065 22
      vertex 5.41644 0.955065 22
    endloop
  endfacet
  facet normal 0 0 1
    outer loop
      vertex 5.31259 1.4235 22
      vertex 5.31259 -1.4235 22
      vertex 5.41644 -0.955065 22
    endloop
  endfacet
  facet normal 0 0 1
    outer loop
      vertex 5.16831 1.88111 22
      vertex 5.31259 -1.4235 22
      vertex 5.31259 1.4235 22
    endloop
  endfacet
  facet normal 0 0 1
    outer loop
      vertex 5.16831 1.88111 22
      vertex 5.16831 -1.88111 22
      vertex 5.31259 -1.4235 22
    endloop
  endfacet
  facet normal 0 0 1
    outer loop
      vertex 4.98469 2.3244 22
      vertex 5.16831 -1.88111 22
      vertex 5.16831 1.88111 22
    endloop
  endfacet
  facet normal 0 0 1
    outer loop
      vertex 4.98469 2.3244 22
      vertex 4.98469 -2.3244 22
      vertex 5.16831 -1.88111 22
    endloop
  endfacet
  facet normal 0 0 1
    outer loop
      vertex 4.76314 2.75 22
      vertex 4.98469 -2.3244 22
      vertex 4.98469 2.3244 22
    endloop
  endfacet
  facet normal 0 0 1
    outer loop
      vertex 4.76314 2.75 22
      vertex 4.76314 -2.75 22
      vertex 4.98469 -2.3244 22
    endloop
  endfacet
  facet normal 0 0 1
    outer loop
      vertex 4.50534 3.15467 22
      vertex 4.76314 -2.75 22
      vertex 4.76314 2.75 22
    endloop
  endfacet
  facet normal 0 0 1
    outer loop
      vertex 4.50534 3.15467 22
      vertex 4.50534 -3.15467 22
      vertex 4.76314 -2.75 22
    endloop
  endfacet
  facet normal 0 0 1
    outer loop
      vertex 4.21324 3.53533 22
      vertex 4.50534 -3.15467 22
      vertex 4.50534 3.15467 22
    endloop
  endfacet
  facet normal 0 0 1
    outer loop
      vertex 4.21324 3.53533 22
      vertex 4.21324 -3.53533 22
      vertex 4.50534 -3.15467 22
    endloop
  endfacet
  facet normal 0 0 1
    outer loop
      vertex 3.88909 3.88909 22
      vertex 4.21324 -3.53533 22
      vertex 4.21324 3.53533 22
    endloop
  endfacet
  facet normal 0 0 1
    outer loop
      vertex 3.88909 3.88909 22
      vertex 3.88909 -3.88909 22
      vertex 4.21324 -3.53533 22
    endloop
  endfacet
  facet normal 0 0 1
    outer loop
      vertex 3.53533 4.21324 22
      vertex 3.88909 -3.88909 22
      vertex 3.88909 3.88909 22
    endloop
  endfacet
  facet normal 0 0 1
    outer loop
      vertex 3.53533 4.21324 22
      vertex 3.53533 -4.21324 22
      vertex 3.88909 -3.88909 22
    endloop
  endfacet
  facet normal 0 0 1
    outer loop
      vertex 3.15467 4.50534 22
      vertex 3.53533 -4.21324 22
      vertex 3.53533 4.21324 22
    endloop
  endfacet
  facet normal 0 0 1
    outer loop
      vertex 3.15467 4.50534 22
      vertex 3.15467 -4.50534 22
      vertex 3.53533 -4.21324 22
    endloop
  endfacet
  facet normal 0 0 1
    outer loop
      vertex 2.75 4.76314 22
      vertex 3.15467 -4.50534 22
      vertex 3.15467 4.50534 22
    endloop
  endfacet
  facet normal 0 0 1
    outer loop
      vertex 2.75 4.76314 22
      vertex 2.75 -4.76314 22
      vertex 3.15467 -4.50534 22
    endloop
  endfacet
  facet normal 0 0 1
    outer loop
      vertex 2.3244 4.98469 22
      vertex 2.75 -4.76314 22
      vertex 2.75 4.76314 22
    endloop
  endfacet
  facet normal 0 0 1
    outer loop
      vertex 2.3244 4.98469 22
      vertex 2.3244 -4.98469 22
      vertex 2.75 -4.76314 22
    endloop
  endfacet
  facet normal 0 0 1
    outer loop
      vertex 1.88111 5.16831 22
      vertex 2.3244 -4.98469 22
      vertex 2.3244 4.98469 22
    endloop
  endfacet
  facet normal 0 0 1
    outer loop
      vertex 1.88111 5.16831 22
      vertex 1.88111 -5.16831 22
      vertex 2.3244 -4.98469 22
    endloop
  endfacet
  facet normal 0 0 1
    outer loop
      vertex 1.4235 5.31259 22
      vertex 1.88111 -5.16831 22
      vertex 1.88111 5.16831 22
    endloop
  endfacet
  facet normal 0 0 1
    outer loop
      vertex 1.4235 5.31259 22
      vertex 1.4235 -5.31259 22
      vertex 1.88111 -5.16831 22
    endloop
  endfacet
  facet normal 0 0 1
    outer loop
      vertex 0.955065 5.41644 22
      vertex 1.4235 -5.31259 22
      vertex 1.4235 5.31259 22
    endloop
  endfacet
  facet normal 0 0 1
    outer loop
      vertex 0.955065 5.41644 22
      vertex 0.955065 -5.41644 22
      vertex 1.4235 -5.31259 22
    endloop
  endfacet
  facet normal 0 0 1
    outer loop
      vertex 0.479356 5.47907 22
      vertex 0.955065 -5.41644 22
      vertex 0.955065 5.41644 22
    endloop
  endfacet
  facet normal 0 0 1
    outer loop
      vertex 0.479356 5.47907 22
      vertex 0.479356 -5.47907 22
      vertex 0.955065 -5.41644 22
    endloop
  endfacet
  facet normal 0 0 1
    outer loop
      vertex 0 5.5 22
      vertex 0.479356 -5.47907 22
      vertex 0.479356 5.47907 22
    endloop
  endfacet
  facet normal 0 0 1
    outer loop
      vertex 0 5.5 22
      vertex 0 -5.5 22
      vertex 0.479356 -5.47907 22
    endloop
  endfacet
  facet normal -0 0 1
    outer loop
      vertex -0.479356 5.47907 22
      vertex 0 -5.5 22
      vertex 0 5.5 22
    endloop
  endfacet
  facet normal 0 0 1
    outer loop
      vertex -0.479356 5.47907 22
      vertex -0.479356 -5.47907 22
      vertex 0 -5.5 22
    endloop
  endfacet
  facet normal -0 0 1
    outer loop
      vertex -0.955065 5.41644 22
      vertex -0.479356 -5.47907 22
      vertex -0.479356 5.47907 22
    endloop
  endfacet
  facet normal 0 0 1
    outer loop
      vertex -0.955065 5.41644 22
      vertex -0.955065 -5.41644 22
      vertex -0.479356 -5.47907 22
    endloop
  endfacet
  facet normal -0 0 1
    outer loop
      vertex -1.4235 5.31259 22
      vertex -0.955065 -5.41644 22
      vertex -0.955065 5.41644 22
    endloop
  endfacet
  facet normal 0 0 1
    outer loop
      vertex -1.4235 5.31259 22
      vertex -1.4235 -5.31259 22
      vertex -0.955065 -5.41644 22
    endloop
  endfacet
  facet normal -0 0 1
    outer loop
      vertex -1.88111 5.16831 22
      vertex -1.4235 -5.31259 22
      vertex -1.4235 5.31259 22
    endloop
  endfacet
  facet normal 0 0 1
    outer loop
      vertex -1.88111 5.16831 22
      vertex -1.88111 -5.16831 22
      vertex -1.4235 -5.31259 22
    endloop
  endfacet
  facet normal -0 0 1
    outer loop
      vertex -2.3244 4.98469 22
      vertex -1.88111 -5.16831 22
      vertex -1.88111 5.16831 22
    endloop
  endfacet
  facet normal 0 0 1
    outer loop
      vertex -2.3244 4.98469 22
      vertex -2.3244 -4.98469 22
      vertex -1.88111 -5.16831 22
    endloop
  endfacet
  facet normal -0 0 1
    outer loop
      vertex -2.75 4.76314 22
      vertex -2.3244 -4.98469 22
      vertex -2.3244 4.98469 22
    endloop
  endfacet
  facet normal 0 0 1
    outer loop
      vertex -2.75 4.76314 22
      vertex -2.75 -4.76314 22
      vertex -2.3244 -4.98469 22
    endloop
  endfacet
  facet normal -0 0 1
    outer loop
      vertex -3.15467 4.50534 22
      vertex -2.75 -4.76314 22
      vertex -2.75 4.76314 22
    endloop
  endfacet
  facet normal 0 0 1
    outer loop
      vertex -3.15467 4.50534 22
      vertex -3.15467 -4.50534 22
      vertex -2.75 -4.76314 22
    endloop
  endfacet
  facet normal -0 0 1
    outer loop
      vertex -3.53533 4.21324 22
      vertex -3.15467 -4.50534 22
      vertex -3.15467 4.50534 22
    endloop
  endfacet
  facet normal 0 0 1
    outer loop
      vertex -3.53533 4.21324 22
      vertex -3.53533 -4.21324 22
      vertex -3.15467 -4.50534 22
    endloop
  endfacet
  facet normal -0 0 1
    outer loop
      vertex -3.88909 3.88909 22
      vertex -3.53533 -4.21324 22
      vertex -3.53533 4.21324 22
    endloop
  endfacet
  facet normal 0 0 1
    outer loop
      vertex -3.88909 3.88909 22
      vertex -3.88909 -3.88909 22
      vertex -3.53533 -4.21324 22
    endloop
  endfacet
  facet normal -0 0 1
    outer loop
      vertex -4.21324 3.53533 22
      vertex -3.88909 -3.88909 22
      vertex -3.88909 3.88909 22
    endloop
  endfacet
  facet normal 0 0 1
    outer loop
      vertex -4.21324 3.53533 22
      vertex -4.21324 -3.53533 22
      vertex -3.88909 -3.88909 22
    endloop
  endfacet
  facet normal -0 0 1
    outer loop
      vertex -4.50534 3.15467 22
      vertex -4.21324 -3.53533 22
      vertex -4.21324 3.53533 22
    endloop
  endfacet
  facet normal 0 0 1
    outer loop
      vertex -4.50534 3.15467 22
      vertex -4.50534 -3.15467 22
      vertex -4.21324 -3.53533 22
    endloop
  endfacet
  facet normal -0 0 1
    outer loop
      vertex -4.76314 2.75 22
      vertex -4.50534 -3.15467 22
      vertex -4.50534 3.15467 22
    endloop
  endfacet
  facet normal 0 0 1
    outer loop
      vertex -4.76314 2.75 22
      vertex -4.76314 -2.75 22
      vertex -4.50534 -3.15467 22
    endloop
  endfacet
  facet normal -0 0 1
    outer loop
      vertex -4.98469 2.3244 22
      vertex -4.76314 -2.75 22
      vertex -4.76314 2.75 22
    endloop
  endfacet
  facet normal 0 0 1
    outer loop
      vertex -4.98469 2.3244 22
      vertex -4.98469 -2.3244 22
      vertex -4.76314 -2.75 22
    endloop
  endfacet
  facet normal -0 0 1
    outer loop
      vertex -5.16831 1.88111 22
      vertex -4.98469 -2.3244 22
      vertex -4.98469 2.3244 22
    endloop
  endfacet
  facet normal 0 0 1
    outer loop
      vertex -5.16831 1.88111 22
      vertex -5.16831 -1.88111 22
      vertex -4.98469 -2.3244 22
    endloop
  endfacet
  facet normal -0 0 1
    outer loop
      vertex -5.31259 1.4235 22
      vertex -5.16831 -1.88111 22
      vertex -5.16831 1.88111 22
    endloop
  endfacet
  facet normal 0 0 1
    outer loop
      vertex -5.31259 1.4235 22
      vertex -5.31259 -1.4235 22
      vertex -5.16831 -1.88111 22
    endloop
  endfacet
  facet normal -0 0 1
    outer loop
      vertex -5.41644 0.955065 22
      vertex -5.31259 -1.4235 22
      vertex -5.31259 1.4235 22
    endloop
  endfacet
  facet normal 0 0 1
    outer loop
      vertex -5.41644 0.955065 22
      vertex -5.41644 -0.955065 22
      vertex -5.31259 -1.4235 22
    endloop
  endfacet
  facet normal -0 0 1
    outer loop
      vertex -5.47907 0.479356 22
      vertex -5.41644 -0.955065 22
      vertex -5.41644 0.955065 22
    endloop
  endfacet
  facet normal 0 0 1
    outer loop
      vertex -5.47907 0.479356 22
      vertex -5.47907 -0.479356 22
      vertex -5.41644 -0.955065 22
    endloop
  endfacet
  facet normal 0 -0 1
    outer loop
      vertex -5.47907 -0.479356 22
      vertex -5.47907 0.479356 22
      vertex -5.5 0 22
    endloop
  endfacet
  facet normal -0.675577 0.737289 0
    outer loop
      vertex -3.53533 4.21324 19
      vertex -3.88909 3.88909 22
      vertex -3.53533 4.21324 22
    endloop
  endfacet
  facet normal -0.675577 0.737289 0
    outer loop
      vertex -3.88909 3.88909 22
      vertex -3.53533 4.21324 19
      vertex -3.88909 3.88909 19
    endloop
  endfacet
  facet normal -0.953719 0.300698 0
    outer loop
      vertex -5.31259 1.4235 19
      vertex -5.16831 1.88111 22
      vertex -5.16831 1.88111 19
    endloop
  endfacet
  facet normal -0.953719 0.300698 0
    outer loop
      vertex -5.16831 1.88111 22
      vertex -5.31259 1.4235 19
      vertex -5.31259 1.4235 22
    endloop
  endfacet
  facet normal -0.737289 -0.675577 0
    outer loop
      vertex -3.88909 -3.88909 19
      vertex -4.21324 -3.53533 22
      vertex -4.21324 -3.53533 19
    endloop
  endfacet
  facet normal -0.737289 -0.675577 0
    outer loop
      vertex -4.21324 -3.53533 22
      vertex -3.88909 -3.88909 19
      vertex -3.88909 -3.88909 22
    endloop
  endfacet
  facet normal -0.976296 -0.216441 0
    outer loop
      vertex -5.31259 -1.4235 19
      vertex -5.41644 -0.955065 22
      vertex -5.41644 -0.955065 19
    endloop
  endfacet
  facet normal -0.976296 -0.216441 0
    outer loop
      vertex -5.41644 -0.955065 22
      vertex -5.31259 -1.4235 19
      vertex -5.31259 -1.4235 22
    endloop
  endfacet
  facet normal -0.675577 -0.737289 0
    outer loop
      vertex -3.88909 -3.88909 19
      vertex -3.53533 -4.21324 22
      vertex -3.88909 -3.88909 22
    endloop
  endfacet
  facet normal -0.675577 -0.737289 -0
    outer loop
      vertex -3.53533 -4.21324 22
      vertex -3.88909 -3.88909 19
      vertex -3.53533 -4.21324 19
    endloop
  endfacet
  facet normal -0.793344 -0.608774 0
    outer loop
      vertex -4.21324 -3.53533 19
      vertex -4.50534 -3.15467 22
      vertex -4.50534 -3.15467 19
    endloop
  endfacet
  facet normal -0.793344 -0.608774 0
    outer loop
      vertex -4.50534 -3.15467 22
      vertex -4.21324 -3.53533 19
      vertex -4.21324 -3.53533 22
    endloop
  endfacet
  facet normal 0.382689 -0.923877 0
    outer loop
      vertex 1.88111 -5.16831 19
      vertex 2.3244 -4.98469 22
      vertex 1.88111 -5.16831 22
    endloop
  endfacet
  facet normal 0.382689 -0.923877 0
    outer loop
      vertex 2.3244 -4.98469 22
      vertex 1.88111 -5.16831 19
      vertex 2.3244 -4.98469 19
    endloop
  endfacet
  facet normal -0.999048 -0.0436212 0
    outer loop
      vertex -5.47907 -0.479356 19
      vertex -5.5 0 22
      vertex -5.5 0 19
    endloop
  endfacet
  facet normal -0.999048 -0.0436212 0
    outer loop
      vertex -5.5 0 22
      vertex -5.47907 -0.479356 19
      vertex -5.47907 -0.479356 22
    endloop
  endfacet
  facet normal 0.991444 -0.13053 0
    outer loop
      vertex 5.41644 -0.955065 22
      vertex 5.47907 -0.479356 19
      vertex 5.47907 -0.479356 22
    endloop
  endfacet
  facet normal 0.991444 -0.13053 0
    outer loop
      vertex 5.47907 -0.479356 19
      vertex 5.41644 -0.955065 22
      vertex 5.41644 -0.955065 19
    endloop
  endfacet
  facet normal -0.537295 -0.843394 0
    outer loop
      vertex -3.15467 -4.50534 19
      vertex -2.75 -4.76314 22
      vertex -3.15467 -4.50534 22
    endloop
  endfacet
  facet normal -0.537295 -0.843394 -0
    outer loop
      vertex -2.75 -4.76314 22
      vertex -3.15467 -4.50534 19
      vertex -2.75 -4.76314 19
    endloop
  endfacet
  facet normal 0.537295 -0.843394 0
    outer loop
      vertex 2.75 -4.76314 19
      vertex 3.15467 -4.50534 22
      vertex 2.75 -4.76314 22
    endloop
  endfacet
  facet normal 0.537295 -0.843394 0
    outer loop
      vertex 3.15467 -4.50534 22
      vertex 2.75 -4.76314 19
      vertex 3.15467 -4.50534 19
    endloop
  endfacet
  facet normal -0.13053 0.991444 0
    outer loop
      vertex -0.479356 5.47907 19
      vertex -0.955065 5.41644 22
      vertex -0.479356 5.47907 22
    endloop
  endfacet
  facet normal -0.13053 0.991444 0
    outer loop
      vertex -0.955065 5.41644 22
      vertex -0.479356 5.47907 19
      vertex -0.955065 5.41644 19
    endloop
  endfacet
  facet normal 0.976296 -0.216441 0
    outer loop
      vertex 5.31259 -1.4235 22
      vertex 5.41644 -0.955065 19
      vertex 5.41644 -0.955065 22
    endloop
  endfacet
  facet normal 0.976296 -0.216441 0
    outer loop
      vertex 5.41644 -0.955065 19
      vertex 5.31259 -1.4235 22
      vertex 5.31259 -1.4235 19
    endloop
  endfacet
  facet normal -0.843394 -0.537295 0
    outer loop
      vertex -4.50534 -3.15467 19
      vertex -4.76314 -2.75 22
      vertex -4.76314 -2.75 19
    endloop
  endfacet
  facet normal -0.843394 -0.537295 0
    outer loop
      vertex -4.76314 -2.75 22
      vertex -4.50534 -3.15467 19
      vertex -4.50534 -3.15467 22
    endloop
  endfacet
  facet normal -0.793344 0.608774 0
    outer loop
      vertex -4.50534 3.15467 19
      vertex -4.21324 3.53533 22
      vertex -4.21324 3.53533 19
    endloop
  endfacet
  facet normal -0.793344 0.608774 0
    outer loop
      vertex -4.21324 3.53533 22
      vertex -4.50534 3.15467 19
      vertex -4.50534 3.15467 22
    endloop
  endfacet
  facet normal -0.0436212 -0.999048 0
    outer loop
      vertex -0.479356 -5.47907 19
      vertex 0 -5.5 22
      vertex -0.479356 -5.47907 22
    endloop
  endfacet
  facet normal -0.0436212 -0.999048 -0
    outer loop
      vertex 0 -5.5 22
      vertex -0.479356 -5.47907 19
      vertex 0 -5.5 19
    endloop
  endfacet
  facet normal -0.537295 0.843394 0
    outer loop
      vertex -2.75 4.76314 19
      vertex -3.15467 4.50534 22
      vertex -2.75 4.76314 22
    endloop
  endfacet
  facet normal -0.537295 0.843394 0
    outer loop
      vertex -3.15467 4.50534 22
      vertex -2.75 4.76314 19
      vertex -3.15467 4.50534 19
    endloop
  endfacet
  facet normal -0.999048 0.0436212 0
    outer loop
      vertex -5.5 0 19
      vertex -5.47907 0.479356 22
      vertex -5.47907 0.479356 19
    endloop
  endfacet
  facet normal -0.999048 0.0436212 0
    outer loop
      vertex -5.47907 0.479356 22
      vertex -5.5 0 19
      vertex -5.5 0 22
    endloop
  endfacet
  facet normal -0.991444 0.13053 0
    outer loop
      vertex -5.47907 0.479356 19
      vertex -5.41644 0.955065 22
      vertex -5.41644 0.955065 19
    endloop
  endfacet
  facet normal -0.991444 0.13053 0
    outer loop
      vertex -5.41644 0.955065 22
      vertex -5.47907 0.479356 19
      vertex -5.47907 0.479356 22
    endloop
  endfacet
  facet normal -0.382689 -0.923877 0
    outer loop
      vertex -2.3244 -4.98469 19
      vertex -1.88111 -5.16831 22
      vertex -2.3244 -4.98469 22
    endloop
  endfacet
  facet normal -0.382689 -0.923877 -0
    outer loop
      vertex -1.88111 -5.16831 22
      vertex -2.3244 -4.98469 19
      vertex -1.88111 -5.16831 19
    endloop
  endfacet
  facet normal -0.300698 -0.953719 0
    outer loop
      vertex -1.88111 -5.16831 19
      vertex -1.4235 -5.31259 22
      vertex -1.88111 -5.16831 22
    endloop
  endfacet
  facet normal -0.300698 -0.953719 -0
    outer loop
      vertex -1.4235 -5.31259 22
      vertex -1.88111 -5.16831 19
      vertex -1.4235 -5.31259 19
    endloop
  endfacet
  facet normal -0.843394 0.537295 0
    outer loop
      vertex -4.76314 2.75 19
      vertex -4.50534 3.15467 22
      vertex -4.50534 3.15467 19
    endloop
  endfacet
  facet normal -0.843394 0.537295 0
    outer loop
      vertex -4.50534 3.15467 22
      vertex -4.76314 2.75 19
      vertex -4.76314 2.75 22
    endloop
  endfacet
  facet normal 0.843394 -0.537295 0
    outer loop
      vertex 4.50534 -3.15467 22
      vertex 4.76314 -2.75 19
      vertex 4.76314 -2.75 22
    endloop
  endfacet
  facet normal 0.843394 -0.537295 0
    outer loop
      vertex 4.76314 -2.75 19
      vertex 4.50534 -3.15467 22
      vertex 4.50534 -3.15467 19
    endloop
  endfacet
  facet normal 0.675577 -0.737289 0
    outer loop
      vertex 3.53533 -4.21324 19
      vertex 3.88909 -3.88909 22
      vertex 3.53533 -4.21324 22
    endloop
  endfacet
  facet normal 0.675577 -0.737289 0
    outer loop
      vertex 3.88909 -3.88909 22
      vertex 3.53533 -4.21324 19
      vertex 3.88909 -3.88909 19
    endloop
  endfacet
  facet normal 0.13053 0.991444 -0
    outer loop
      vertex 0.955065 5.41644 19
      vertex 0.479356 5.47907 22
      vertex 0.955065 5.41644 22
    endloop
  endfacet
  facet normal 0.13053 0.991444 0
    outer loop
      vertex 0.479356 5.47907 22
      vertex 0.955065 5.41644 19
      vertex 0.479356 5.47907 19
    endloop
  endfacet
  facet normal 1 -0 0
    outer loop
      vertex 3 -1.5 19
      vertex 3 1.5 3
      vertex 3 1.5 19
    endloop
  endfacet
  facet normal 1 0 0
    outer loop
      vertex 3 1.5 3
      vertex 3 -1.5 19
      vertex 3 -1.5 3
    endloop
  endfacet
  facet normal -1 0 0
    outer loop
      vertex -3 -1.5 3
      vertex -3 1.5 19
      vertex -3 1.5 3
    endloop
  endfacet
  facet normal -1 -0 0
    outer loop
      vertex -3 1.5 19
      vertex -3 -1.5 3
      vertex -3 -1.5 19
    endloop
  endfacet
  facet normal 0 1 -0
    outer loop
      vertex 3 1.5 3
      vertex -3 1.5 19
      vertex 3 1.5 19
    endloop
  endfacet
  facet normal 0 1 0
    outer loop
      vertex -3 1.5 19
      vertex 3 1.5 3
      vertex -3 1.5 3
    endloop
  endfacet
  facet normal 0 -1 0
    outer loop
      vertex -3 -1.5 3
      vertex 3 -1.5 19
      vertex -3 -1.5 19
    endloop
  endfacet
  facet normal 0 -1 -0
    outer loop
      vertex 3 -1.5 19
      vertex -3 -1.5 3
      vertex 3 -1.5 3
    endloop
  endfacet
endsolid OpenSCAD_Model
