%TF.GenerationSoftware,KiCad,Pcbnew,9.0.2+dfsg-1*%
%TF.CreationDate,2026-07-18T19:34:47-04:00*%
%TF.ProjectId,Commo,456d6d61-2e6b-4696-9361-645f70636258,2*%
%TF.SameCoordinates,Original*%
%TF.FileFunction,Soldermask,Top*%
%TF.FilePolarity,Negative*%
%FSLAX46Y46*%
G04 Gerber Fmt 4.6, Leading zero omitted, Abs format (unit mm)*
G04 Created by KiCad (PCBNEW 9.0.2+dfsg-1) date 2026-07-18 19:34:47*
%MOMM*%
%LPD*%
G01*
G04 APERTURE LIST*
G04 Aperture macros list*
%AMRoundRect*
0 Rectangle with rounded corners*
0 $1 Rounding radius*
0 $2 $3 $4 $5 $6 $7 $8 $9 X,Y pos of 4 corners*
0 Add a 4 corners polygon primitive as box body*
4,1,4,$2,$3,$4,$5,$6,$7,$8,$9,$2,$3,0*
0 Add four circle primitives for the rounded corners*
1,1,$1+$1,$2,$3*
1,1,$1+$1,$4,$5*
1,1,$1+$1,$6,$7*
1,1,$1+$1,$8,$9*
0 Add four rect primitives between the rounded corners*
20,1,$1+$1,$2,$3,$4,$5,0*
20,1,$1+$1,$4,$5,$6,$7,0*
20,1,$1+$1,$6,$7,$8,$9,0*
20,1,$1+$1,$8,$9,$2,$3,0*%
%AMFreePoly0*
4,1,21,3.897855,0.901855,3.912500,0.866500,3.912500,-0.866500,3.897855,-0.901855,3.862500,-0.916500,0.737500,-0.916500,0.702145,-0.901855,0.687500,-0.866500,0.687500,-0.500000,-0.737500,-0.500000,-0.772855,-0.485355,-0.787500,-0.450000,-0.787500,0.450000,-0.772855,0.485355,-0.737500,0.500000,0.687500,0.500000,0.687500,0.866500,0.702145,0.901855,0.737500,0.916500,3.862500,0.916500,
3.897855,0.901855,3.897855,0.901855,$1*%
G04 Aperture macros list end*
%ADD10RoundRect,0.165000X0.195000X-0.165000X0.195000X0.165000X-0.195000X0.165000X-0.195000X-0.165000X0*%
%ADD11RoundRect,0.165000X-0.165000X-0.195000X0.165000X-0.195000X0.165000X0.195000X-0.165000X0.195000X0*%
%ADD12RoundRect,0.050000X0.800000X-0.400000X0.800000X0.400000X-0.800000X0.400000X-0.800000X-0.400000X0*%
%ADD13RoundRect,0.160000X-0.160000X-0.210000X0.160000X-0.210000X0.160000X0.210000X-0.160000X0.210000X0*%
%ADD14RoundRect,0.172500X-0.172500X-0.197500X0.172500X-0.197500X0.172500X0.197500X-0.172500X0.197500X0*%
%ADD15C,1.700000*%
%ADD16C,2.100000*%
%ADD17RoundRect,0.050000X-0.400000X-0.500000X0.400000X-0.500000X0.400000X0.500000X-0.400000X0.500000X0*%
%ADD18RoundRect,0.050000X-0.300000X-0.200000X0.300000X-0.200000X0.300000X0.200000X-0.300000X0.200000X0*%
%ADD19RoundRect,0.050000X-0.937500X-0.625000X0.937500X-0.625000X0.937500X0.625000X-0.937500X0.625000X0*%
%ADD20RoundRect,0.050000X-0.312500X-0.250000X0.312500X-0.250000X0.312500X0.250000X-0.312500X0.250000X0*%
%ADD21C,2.700000*%
%ADD22RoundRect,0.125000X-0.250000X-0.125000X0.250000X-0.125000X0.250000X0.125000X-0.250000X0.125000X0*%
%ADD23RoundRect,0.275000X-0.275000X-0.375000X0.275000X-0.375000X0.275000X0.375000X-0.275000X0.375000X0*%
%ADD24RoundRect,0.162500X-0.162500X-0.162500X0.162500X-0.162500X0.162500X0.162500X-0.162500X0.162500X0*%
%ADD25RoundRect,0.271739X-0.353261X-1.128261X0.353261X-1.128261X0.353261X1.128261X-0.353261X1.128261X0*%
%ADD26RoundRect,0.275000X-0.500000X0.275000X-0.500000X-0.275000X0.500000X-0.275000X0.500000X0.275000X0*%
%ADD27RoundRect,0.175000X-0.537500X-0.175000X0.537500X-0.175000X0.537500X0.175000X-0.537500X0.175000X0*%
%ADD28RoundRect,0.225000X-0.325000X-0.225000X0.325000X-0.225000X0.325000X0.225000X-0.325000X0.225000X0*%
%ADD29RoundRect,0.243750X-0.243750X-0.406250X0.243750X-0.406250X0.243750X0.406250X-0.243750X0.406250X0*%
%ADD30C,1.800000*%
%ADD31RoundRect,0.150000X-0.562500X-0.150000X0.562500X-0.150000X0.562500X0.150000X-0.562500X0.150000X0*%
%ADD32RoundRect,0.272727X-0.327273X-0.327273X0.327273X-0.327273X0.327273X0.327273X-0.327273X0.327273X0*%
%ADD33RoundRect,0.112500X-0.750000X-0.112500X0.750000X-0.112500X0.750000X0.112500X-0.750000X0.112500X0*%
%ADD34RoundRect,0.165000X-0.195000X0.165000X-0.195000X-0.165000X0.195000X-0.165000X0.195000X0.165000X0*%
%ADD35RoundRect,0.160000X0.210000X-0.160000X0.210000X0.160000X-0.210000X0.160000X-0.210000X-0.160000X0*%
%ADD36RoundRect,0.175000X-0.612500X-0.175000X0.612500X-0.175000X0.612500X0.175000X-0.612500X0.175000X0*%
%ADD37RoundRect,0.250000X-0.450000X-0.250000X0.450000X-0.250000X0.450000X0.250000X-0.450000X0.250000X0*%
%ADD38FreePoly0,0.000000*%
%ADD39RoundRect,0.050000X2.825000X2.825000X-2.825000X2.825000X-2.825000X-2.825000X2.825000X-2.825000X0*%
G04 APERTURE END LIST*
D10*
%TO.C,PGND 10n*%
X128480000Y-117480000D03*
X128480000Y-116520000D03*
%TD*%
D11*
%TO.C,SW By*%
X137607836Y-122500000D03*
X138567836Y-122500000D03*
%TD*%
D12*
%TO.C,J-ETH*%
X102500000Y-110500000D03*
X102500000Y-109250000D03*
X102500000Y-108000000D03*
X102500000Y-106750000D03*
%TD*%
D11*
%TO.C,PA By*%
X136500000Y-117000000D03*
X137460000Y-117000000D03*
%TD*%
%TO.C,DAC By*%
X123020000Y-113500000D03*
X123980000Y-113500000D03*
%TD*%
%TO.C,C2 180p*%
X135000000Y-123500000D03*
X135960000Y-123500000D03*
%TD*%
D13*
%TO.C,PA Re*%
X136500000Y-120500000D03*
X137520000Y-120500000D03*
%TD*%
D14*
%TO.C,TX Bead*%
X110000000Y-108500000D03*
X110970000Y-108500000D03*
%TD*%
D11*
%TO.C,PA Cb2*%
X136540000Y-118500000D03*
X137500000Y-118500000D03*
%TD*%
D15*
%TO.C,ANT RPSMA*%
X152500000Y-112460000D03*
D16*
X152500000Y-109920000D03*
X152500000Y-115000000D03*
%TD*%
D17*
%TO.C,ANT CMC*%
X146000000Y-112500000D03*
X148000000Y-112500000D03*
%TD*%
D18*
%TO.C,ANT TVS*%
X147000000Y-122500000D03*
X147000000Y-121850000D03*
X147000000Y-121200000D03*
X148900000Y-121200000D03*
X148900000Y-121850000D03*
X148900000Y-122500000D03*
%TD*%
D19*
%TO.C,+5V Bead*%
X102937500Y-124000000D03*
X106062500Y-124000000D03*
%TD*%
D20*
%TO.C,GND X2Y*%
X144000000Y-112500000D03*
X145125000Y-112500000D03*
%TD*%
D21*
%TO.C,*%
X102500000Y-102500000D03*
%TD*%
%TO.C,*%
X152500000Y-102500000D03*
%TD*%
%TO.C,*%
X102500000Y-132500000D03*
%TD*%
%TO.C,*%
X152500000Y-132500000D03*
%TD*%
D13*
%TO.C,RSSI Hi*%
X139980000Y-122500000D03*
X141000000Y-122500000D03*
%TD*%
D22*
%TO.C,INV1*%
X108550000Y-125950000D03*
X108550000Y-125000000D03*
X108550000Y-124050000D03*
X110450000Y-124525000D03*
X110450000Y-125475000D03*
%TD*%
%TO.C,MUX1*%
X112550000Y-124350000D03*
X112550000Y-125000000D03*
X112550000Y-125650000D03*
X114450000Y-125650000D03*
X114450000Y-125000000D03*
X114450000Y-124350000D03*
%TD*%
D23*
%TO.C,S1*%
X104000000Y-127000000D03*
X105500000Y-127000000D03*
%TD*%
D11*
%TO.C,C_INV*%
X116000000Y-107500000D03*
X116960000Y-107500000D03*
%TD*%
%TO.C,C_MUX*%
X123020000Y-126880000D03*
X123980000Y-126880000D03*
%TD*%
D13*
%TO.C,R_MODE*%
X115990000Y-125000000D03*
X117010000Y-125000000D03*
%TD*%
D24*
%TO.C,UART CMC*%
X105835000Y-110125000D03*
X107135000Y-110125000D03*
X107135000Y-110875000D03*
X105835000Y-110875000D03*
%TD*%
D22*
%TO.C,UART TVS*%
X105500000Y-113350000D03*
X105500000Y-114000000D03*
X105500000Y-114650000D03*
X107400000Y-114650000D03*
X107400000Y-114000000D03*
X107400000Y-113350000D03*
%TD*%
D13*
%TO.C,RSSI Lo*%
X139990000Y-124000000D03*
X141010000Y-124000000D03*
%TD*%
D11*
%TO.C,C3 120p*%
X137540000Y-124000000D03*
X138500000Y-124000000D03*
%TD*%
D10*
%TO.C,+3V 10n*%
X128500000Y-122980000D03*
X128500000Y-122020000D03*
%TD*%
D11*
%TO.C,LDO By*%
X108500000Y-120500000D03*
X109460000Y-120500000D03*
%TD*%
D13*
%TO.C,Th Lo*%
X118990000Y-126500000D03*
X120010000Y-126500000D03*
%TD*%
D25*
%TO.C,+3V 100u*%
X117500000Y-121500000D03*
X120450000Y-121500000D03*
%TD*%
D22*
%TO.C,T/R Sw*%
X140000000Y-111000000D03*
X140000000Y-111650000D03*
X140000000Y-112300000D03*
X141900000Y-112300000D03*
X141900000Y-111650000D03*
X141900000Y-111000000D03*
%TD*%
D14*
%TO.C,RX Bead*%
X112515000Y-110500000D03*
X113485000Y-110500000D03*
%TD*%
D26*
%TO.C,+3V 10u*%
X126500000Y-112500000D03*
X126500000Y-114400000D03*
%TD*%
D27*
%TO.C,RX Demod*%
X117862500Y-115050000D03*
X117862500Y-116000000D03*
X117862500Y-116950000D03*
X120137500Y-116950000D03*
X120137500Y-115050000D03*
%TD*%
D11*
%TO.C,LNA By*%
X140020000Y-121000000D03*
X140980000Y-121000000D03*
%TD*%
D28*
%TO.C,TCXO 25M*%
X113300000Y-115450000D03*
X113300000Y-117550000D03*
X114700000Y-117550000D03*
X114700000Y-115450000D03*
%TD*%
D29*
%TO.C,L2 180n*%
X132437500Y-121500000D03*
X134562500Y-121500000D03*
%TD*%
D11*
%TO.C,PA By2*%
X136500000Y-113000000D03*
X137460000Y-113000000D03*
%TD*%
D25*
%TO.C,+5V 100u*%
X105025000Y-118000000D03*
X107975000Y-118000000D03*
%TD*%
D30*
%TO.C,PB2-P2*%
X105385000Y-132745000D03*
X105385000Y-130205000D03*
X107925000Y-132745000D03*
X107925000Y-130205000D03*
X110465000Y-132745000D03*
X110465000Y-130205000D03*
X113005000Y-132745000D03*
X113005000Y-130205000D03*
X115545000Y-132745000D03*
X115545000Y-130205000D03*
X118085000Y-132745000D03*
X118085000Y-130205000D03*
X120625000Y-132745000D03*
X120625000Y-130205000D03*
X123165000Y-132745000D03*
X123165000Y-130205000D03*
X125705000Y-132745000D03*
X125705000Y-130205000D03*
X128245000Y-132745000D03*
X128245000Y-130205000D03*
X130785000Y-132745000D03*
X130785000Y-130205000D03*
X133325000Y-132745000D03*
X133325000Y-130205000D03*
X135865000Y-132745000D03*
X135865000Y-130205000D03*
X138405000Y-132745000D03*
X138405000Y-130205000D03*
X140945000Y-132745000D03*
X140945000Y-130205000D03*
X143485000Y-132745000D03*
X143485000Y-130205000D03*
X146025000Y-132745000D03*
X146025000Y-130205000D03*
X148565000Y-132745000D03*
X148565000Y-130205000D03*
%TD*%
D13*
%TO.C,Th Hi*%
X118500000Y-125000000D03*
X119520000Y-125000000D03*
%TD*%
D31*
%TO.C,TX DAC*%
X124362500Y-107525000D03*
X124362500Y-108175000D03*
X124362500Y-108825000D03*
X124362500Y-109475000D03*
X126637500Y-109475000D03*
X126637500Y-108825000D03*
X126637500Y-108175000D03*
X126637500Y-107525000D03*
%TD*%
D11*
%TO.C,U1 ByA*%
X123040000Y-111500000D03*
X124000000Y-111500000D03*
%TD*%
%TO.C,C1 120p*%
X132020000Y-123500000D03*
X132980000Y-123500000D03*
%TD*%
D10*
%TO.C,1.2k C*%
X124000000Y-125000000D03*
X124000000Y-124040000D03*
%TD*%
D32*
%TO.C,SMA ESD*%
X146000000Y-117000000D03*
X148800000Y-117000000D03*
%TD*%
D29*
%TO.C,L3 180n*%
X132437500Y-117500000D03*
X134562500Y-117500000D03*
%TD*%
%TO.C,L1 100n*%
X132437500Y-119500000D03*
X134562500Y-119500000D03*
%TD*%
D11*
%TO.C,CMP By*%
X120020000Y-119000000D03*
X120980000Y-119000000D03*
%TD*%
D13*
%TO.C,1.2k R*%
X120980000Y-125000000D03*
X122000000Y-125000000D03*
%TD*%
D10*
%TO.C,2.2k C*%
X128500000Y-125500000D03*
X128500000Y-124540000D03*
%TD*%
D30*
%TO.C,PB2-P1*%
X105385000Y-104745000D03*
X105385000Y-102205000D03*
X107925000Y-104745000D03*
X107925000Y-102205000D03*
X110465000Y-104745000D03*
X110465000Y-102205000D03*
X113005000Y-104745000D03*
X113005000Y-102205000D03*
X115545000Y-104745000D03*
X115545000Y-102205000D03*
X118085000Y-104745000D03*
X118085000Y-102205000D03*
X120625000Y-104745000D03*
X120625000Y-102205000D03*
X123165000Y-104745000D03*
X123165000Y-102205000D03*
X125705000Y-104745000D03*
X125705000Y-102205000D03*
X128245000Y-104745000D03*
X128245000Y-102205000D03*
X130785000Y-104745000D03*
X130785000Y-102205000D03*
X133325000Y-104745000D03*
X133325000Y-102205000D03*
X135865000Y-104745000D03*
X135865000Y-102205000D03*
X138405000Y-104745000D03*
X138405000Y-102205000D03*
X140945000Y-104745000D03*
X140945000Y-102205000D03*
X143485000Y-104745000D03*
X143485000Y-102205000D03*
X146025000Y-104745000D03*
X146025000Y-102205000D03*
X148565000Y-104745000D03*
X148565000Y-102205000D03*
%TD*%
D33*
%TO.C,49M DDS*%
X116387500Y-110000000D03*
X116387500Y-110500000D03*
X116387500Y-111000000D03*
X116387500Y-111500000D03*
X116387500Y-112000000D03*
X120612500Y-112000000D03*
X120612500Y-111500000D03*
X120612500Y-111000000D03*
X120612500Y-110500000D03*
X120612500Y-110000000D03*
%TD*%
D34*
%TO.C,+3V 100n*%
X128500000Y-119500000D03*
X128500000Y-120460000D03*
%TD*%
D35*
%TO.C,2.2k R*%
X126000000Y-125500000D03*
X126000000Y-124480000D03*
%TD*%
D11*
%TO.C,+5V 100n*%
X108520000Y-122000000D03*
X109480000Y-122000000D03*
%TD*%
%TO.C,PA Cb1*%
X132000000Y-111000000D03*
X132960000Y-111000000D03*
%TD*%
D13*
%TO.C,PA Rc1*%
X134480000Y-111000000D03*
X135500000Y-111000000D03*
%TD*%
D36*
%TO.C,PA Drvr*%
X132625000Y-113050000D03*
X132625000Y-114950000D03*
X134500000Y-114000000D03*
%TD*%
D22*
%TO.C,LNA*%
X143000000Y-121850000D03*
X143000000Y-122500000D03*
X143000000Y-123150000D03*
X144900000Y-123150000D03*
X144900000Y-122500000D03*
X144900000Y-121850000D03*
%TD*%
D13*
%TO.C,PA Rb2*%
X136500000Y-115000000D03*
X137520000Y-115000000D03*
%TD*%
D37*
%TO.C,PA 100mW*%
X140550000Y-115500000D03*
D38*
X140637500Y-117000000D03*
D37*
X140550000Y-118500000D03*
%TD*%
D27*
%TO.C,LDO 3V3*%
X113000000Y-120550000D03*
X113000000Y-121500000D03*
X113000000Y-122450000D03*
X115275000Y-122450000D03*
X115275000Y-120550000D03*
%TD*%
D11*
%TO.C,OSC By*%
X113020000Y-108500000D03*
X113980000Y-108500000D03*
%TD*%
D13*
%TO.C,PA Rb1*%
X136980000Y-111500000D03*
X138000000Y-111500000D03*
%TD*%
D11*
%TO.C,U1 ByB*%
X109500000Y-110500000D03*
X110460000Y-110500000D03*
%TD*%
%TO.C,AFSK Cp*%
X123020000Y-115500000D03*
X123980000Y-115500000D03*
%TD*%
D14*
%TO.C,PTT Bead*%
X112515000Y-113000000D03*
X113485000Y-113000000D03*
%TD*%
D39*
%TO.C,ETH-PHY*%
X124500000Y-120000000D03*
%TD*%
M02*
