%TF.GenerationSoftware,KiCad,Pcbnew,9.0.2+dfsg-1*%
%TF.CreationDate,2026-07-18T19:34:47-04:00*%
%TF.ProjectId,Commo,456d6d61-2e6b-4696-9361-645f70636258,2*%
%TF.SameCoordinates,Original*%
%TF.FileFunction,Copper,L2,Inr*%
%TF.FilePolarity,Positive*%
%FSLAX46Y46*%
G04 Gerber Fmt 4.6, Leading zero omitted, Abs format (unit mm)*
G04 Created by KiCad (PCBNEW 9.0.2+dfsg-1) date 2026-07-18 19:34:47*
%MOMM*%
%LPD*%
G01*
G04 APERTURE LIST*
%TA.AperFunction,ComponentPad*%
%ADD10C,1.600000*%
%TD*%
%TA.AperFunction,ComponentPad*%
%ADD11C,2.000000*%
%TD*%
%TA.AperFunction,ComponentPad*%
%ADD12C,1.700000*%
%TD*%
%TA.AperFunction,ComponentPad*%
%ADD13R,5.650000X5.650000*%
%TD*%
%TA.AperFunction,ViaPad*%
%ADD14C,0.600000*%
%TD*%
%TA.AperFunction,ViaPad*%
%ADD15C,0.800000*%
%TD*%
%TA.AperFunction,ViaPad*%
%ADD16C,0.550000*%
%TD*%
G04 APERTURE END LIST*
D10*
%TO.N,ANT*%
%TO.C,ANT RPSMA*%
X152500000Y-112460000D03*
D11*
%TO.N,GND*%
X152500000Y-109920000D03*
X152500000Y-115000000D03*
%TD*%
D12*
%TO.N,PTT_N*%
%TO.C,PB2-P2*%
X105385000Y-132745000D03*
%TO.N,RSSI_DCD*%
X105385000Y-130205000D03*
%TO.N,PWM_CH3*%
X107925000Y-132745000D03*
%TO.N,PWM_CH2*%
X107925000Y-130205000D03*
%TO.N,PWM_CH1*%
X110465000Y-132745000D03*
%TO.N,PWM_CH0*%
X110465000Y-130205000D03*
%TO.N,LOAD_CELL_DOUT*%
X113005000Y-132745000D03*
%TO.N,LOAD_CELL_SCK*%
X113005000Y-130205000D03*
%TO.N,WINCH_IN2*%
X115545000Y-132745000D03*
%TO.N,WINCH_IN1*%
X115545000Y-130205000D03*
%TO.N,TPM_RSTN*%
X118085000Y-132745000D03*
%TO.N,TPM_IRQN*%
X118085000Y-130205000D03*
%TO.N,PHY2_RSTN*%
X120625000Y-132745000D03*
%TO.N,PHY2_INTRN*%
X120625000Y-130205000D03*
%TO.N,PHY1_RSTN*%
X123165000Y-132745000D03*
%TO.N,PHY1_INTRN*%
X123165000Y-130205000D03*
%TO.N,MDIO*%
X125705000Y-132745000D03*
%TO.N,MDC*%
X125705000Y-130205000D03*
%TO.N,RMII1_REF_CLK*%
X128245000Y-132745000D03*
%TO.N,RMII1_RX_ER*%
X128245000Y-130205000D03*
%TO.N,RMII1_CRS_DV*%
X130785000Y-132745000D03*
%TO.N,RMII1_RXD1*%
X130785000Y-130205000D03*
%TO.N,RMII1_RXD0*%
X133325000Y-132745000D03*
%TO.N,RMII1_TX_EN*%
X133325000Y-130205000D03*
%TO.N,RMII1_TXD1*%
X135865000Y-132745000D03*
%TO.N,RMII1_TXD0*%
X135865000Y-130205000D03*
%TO.N,RMII0_REF_CLK*%
X138405000Y-132745000D03*
%TO.N,RMII0_RX_ER*%
X138405000Y-130205000D03*
%TO.N,RMII0_CRS_DV*%
X140945000Y-132745000D03*
%TO.N,RMII0_RXD1*%
X140945000Y-130205000D03*
%TO.N,RMII0_RXD0*%
X143485000Y-132745000D03*
%TO.N,RMII0_TX_EN*%
X143485000Y-130205000D03*
%TO.N,RMII0_TXD1*%
X146025000Y-132745000D03*
%TO.N,RMII0_TXD0*%
X146025000Y-130205000D03*
%TO.N,+5V*%
X148565000Y-132745000D03*
%TO.N,GND*%
X148565000Y-130205000D03*
%TD*%
%TO.N,GND*%
%TO.C,PB2-P1*%
X105385000Y-104745000D03*
X105385000Y-102205000D03*
%TO.N,I2C0_SDA*%
X107925000Y-104745000D03*
%TO.N,I2C0_SCL*%
X107925000Y-102205000D03*
%TO.N,PRU_1553_RX_N*%
X110465000Y-104745000D03*
%TO.N,PRU_1553_RX_P*%
X110465000Y-102205000D03*
%TO.N,PRU_1553_TX_N*%
X113005000Y-104745000D03*
%TO.N,PRU_1553_TX_P*%
X113005000Y-102205000D03*
%TO.N,RS485_DE*%
X115545000Y-104745000D03*
%TO.N,RS485_RX*%
X115545000Y-102205000D03*
%TO.N,RS485_TX*%
X118085000Y-104745000D03*
%TO.N,CAN_STB*%
X118085000Y-102205000D03*
%TO.N,MCAN1_RX*%
X120625000Y-104745000D03*
%TO.N,MCAN1_TX*%
X120625000Y-102205000D03*
%TO.N,UART_RCRS_RX*%
X123165000Y-104745000D03*
%TO.N,UART_RCRS_TX*%
X123165000Y-102205000D03*
%TO.N,UART_SIK_RX*%
X125705000Y-104745000D03*
%TO.N,UART_SIK_TX*%
X125705000Y-102205000D03*
%TO.N,LORA_RESETN*%
X128245000Y-104745000D03*
%TO.N,LORA_DIO0*%
X128245000Y-102205000D03*
%TO.N,SPI1_CS_TPM*%
X130785000Y-104745000D03*
%TO.N,SPI1_CS_NOR*%
X130785000Y-102205000D03*
%TO.N,SPI1_MISO*%
X133325000Y-104745000D03*
%TO.N,SPI1_MOSI*%
X133325000Y-102205000D03*
%TO.N,SPI1_CLK*%
X135865000Y-104745000D03*
%TO.N,SPI1_CS_LORA*%
X135865000Y-102205000D03*
%TO.N,SDIO_D3*%
X138405000Y-104745000D03*
%TO.N,SDIO_D2*%
X138405000Y-102205000D03*
%TO.N,SDIO_D1*%
X140945000Y-104745000D03*
%TO.N,SDIO_D0*%
X140945000Y-102205000D03*
%TO.N,SDIO_CMD*%
X143485000Y-104745000D03*
%TO.N,SDIO_CLK*%
X143485000Y-102205000D03*
%TO.N,+3V3*%
X146025000Y-104745000D03*
X146025000Y-102205000D03*
%TO.N,+5V*%
X148565000Y-104745000D03*
%TO.N,GND*%
X148565000Y-102205000D03*
%TD*%
D13*
%TO.N,GND*%
%TO.C,ETH-PHY*%
X124500000Y-120000000D03*
%TD*%
D14*
%TO.N,GND*%
X113980000Y-108500000D03*
X140700000Y-111650000D03*
X123980000Y-126880000D03*
X113000000Y-121500000D03*
X105222800Y-113235200D03*
D15*
X130000000Y-131450000D03*
D14*
X107975000Y-118000000D03*
X126250000Y-123300000D03*
X149177200Y-122614800D03*
X107677200Y-114764800D03*
X105777200Y-114764800D03*
X117222100Y-125212100D03*
X141622800Y-110885200D03*
X129400000Y-120460000D03*
X138567800Y-122500000D03*
D15*
X130000000Y-106250000D03*
D14*
X128500000Y-124540000D03*
X145400000Y-122500000D03*
X121480000Y-119000000D03*
D15*
X130000000Y-116250000D03*
D14*
X146722800Y-121085200D03*
X122250000Y-124000000D03*
X113300000Y-117550000D03*
X115098600Y-110330300D03*
D15*
X136000000Y-125000000D03*
D14*
X120010000Y-126500000D03*
X109480000Y-122000000D03*
X121350000Y-121500000D03*
D15*
X130000000Y-113750000D03*
X130000000Y-118750000D03*
X132000000Y-125000000D03*
D14*
X137500000Y-118500000D03*
X129380000Y-117480000D03*
X124229400Y-113666700D03*
X144900000Y-121850000D03*
D15*
X144000000Y-125000000D03*
D14*
X124249400Y-111333300D03*
D15*
X130000000Y-121250000D03*
D14*
X123579000Y-123023700D03*
X147277200Y-122614800D03*
X121912500Y-110500000D03*
X127099400Y-107333700D03*
X119520000Y-125000000D03*
X137460000Y-117000000D03*
X144000000Y-112500000D03*
X148622800Y-121085200D03*
D15*
X140000000Y-109500000D03*
D14*
X120137500Y-115050000D03*
D15*
X140000000Y-125000000D03*
D14*
X113250000Y-125000000D03*
X140980000Y-121000000D03*
X116960000Y-107500000D03*
D15*
X130000000Y-126250000D03*
D14*
X110460000Y-110500000D03*
X138500000Y-124000000D03*
X137460000Y-113000000D03*
X132980000Y-123500000D03*
X121472800Y-124114800D03*
X108550000Y-125000000D03*
D15*
X130000000Y-128750000D03*
X130000000Y-123750000D03*
D14*
X135960000Y-123500000D03*
X126500000Y-114400000D03*
D15*
X130000000Y-134000000D03*
D14*
X115275000Y-120550000D03*
X124925600Y-124882700D03*
X129400000Y-122020000D03*
X119637500Y-116950000D03*
X122491200Y-123034100D03*
X128480000Y-116520000D03*
X137520000Y-120500000D03*
X148800000Y-117000000D03*
D15*
X130000000Y-103500000D03*
D14*
X126914700Y-109589800D03*
X107122800Y-113235200D03*
X109460000Y-120500000D03*
X145010200Y-112777200D03*
X141010000Y-124000000D03*
D15*
X130000000Y-111250000D03*
D16*
X131500000Y-114000000D03*
D14*
X115371200Y-111921000D03*
D15*
X144000000Y-109500000D03*
D16*
%TO.N,+3V3*%
X140020000Y-121000000D03*
%TO.N,RSSI_ANA*%
X139600000Y-123700000D03*
D15*
%TO.N,+5V_FILT*%
X130000000Y-108750000D03*
X132000000Y-109500000D03*
D14*
%TO.N,DDS_RF*%
X115609700Y-112777800D03*
D15*
%TO.N,PA_INT*%
X135779741Y-109500000D03*
%TO.N,SPI1_CS_NOR*%
X130000000Y-101250000D03*
D16*
%TO.N,RSSI_DCD*%
X135000000Y-130210000D03*
%TD*%
%TA.AperFunction,Conductor*%
%TO.N,GND*%
G36*
X152503736Y-100250726D02*
G01*
X152763662Y-100266448D01*
X152778524Y-100268253D01*
X152849528Y-100281264D01*
X153030969Y-100314515D01*
X153045498Y-100318096D01*
X153290523Y-100394449D01*
X153304516Y-100399755D01*
X153538562Y-100505091D01*
X153551808Y-100512044D01*
X153771449Y-100644821D01*
X153783760Y-100653319D01*
X153797810Y-100664326D01*
X153985792Y-100811601D01*
X153997000Y-100821531D01*
X154178468Y-101002999D01*
X154188398Y-101014207D01*
X154190398Y-101016760D01*
X154345895Y-101215237D01*
X154346676Y-101216233D01*
X154355180Y-101228553D01*
X154392946Y-101291025D01*
X154487952Y-101448185D01*
X154494911Y-101461444D01*
X154600242Y-101695480D01*
X154605551Y-101709480D01*
X154681901Y-101954494D01*
X154685485Y-101969034D01*
X154731746Y-102221475D01*
X154733551Y-102236339D01*
X154749274Y-102496263D01*
X154749500Y-102503750D01*
X154749500Y-132496249D01*
X154749274Y-132503736D01*
X154733551Y-132763660D01*
X154731746Y-132778524D01*
X154685485Y-133030965D01*
X154681901Y-133045505D01*
X154605551Y-133290519D01*
X154600242Y-133304519D01*
X154494911Y-133538555D01*
X154487952Y-133551814D01*
X154355182Y-133771443D01*
X154346676Y-133783766D01*
X154188398Y-133985792D01*
X154178468Y-133997000D01*
X153997000Y-134178468D01*
X153985792Y-134188398D01*
X153783766Y-134346676D01*
X153771443Y-134355182D01*
X153551814Y-134487952D01*
X153538555Y-134494911D01*
X153304519Y-134600242D01*
X153290519Y-134605551D01*
X153045505Y-134681901D01*
X153030965Y-134685485D01*
X152778524Y-134731746D01*
X152763660Y-134733551D01*
X152503736Y-134749274D01*
X152496249Y-134749500D01*
X102503751Y-134749500D01*
X102496264Y-134749274D01*
X102236339Y-134733551D01*
X102221475Y-134731746D01*
X101969034Y-134685485D01*
X101954494Y-134681901D01*
X101709480Y-134605551D01*
X101695480Y-134600242D01*
X101461444Y-134494911D01*
X101448185Y-134487952D01*
X101228556Y-134355182D01*
X101216233Y-134346676D01*
X101014207Y-134188398D01*
X101002999Y-134178468D01*
X100821531Y-133997000D01*
X100811601Y-133985792D01*
X100653323Y-133783766D01*
X100644821Y-133771449D01*
X100512044Y-133551808D01*
X100505091Y-133538562D01*
X100399755Y-133304516D01*
X100394448Y-133290519D01*
X100318096Y-133045498D01*
X100314514Y-133030965D01*
X100301775Y-132961452D01*
X100268253Y-132778524D01*
X100266448Y-132763660D01*
X100259656Y-132651379D01*
X100250726Y-132503736D01*
X100250500Y-132496249D01*
X100250500Y-132374038D01*
X100899500Y-132374038D01*
X100899500Y-132625962D01*
X100921309Y-132763660D01*
X100938910Y-132874785D01*
X101016760Y-133114383D01*
X101057955Y-133195231D01*
X101110157Y-133297684D01*
X101131132Y-133338848D01*
X101279201Y-133542649D01*
X101279205Y-133542654D01*
X101457345Y-133720794D01*
X101457350Y-133720798D01*
X101544019Y-133783766D01*
X101661155Y-133868870D01*
X101804184Y-133941747D01*
X101885616Y-133983239D01*
X101885618Y-133983239D01*
X101885621Y-133983241D01*
X102125215Y-134061090D01*
X102374038Y-134100500D01*
X102374039Y-134100500D01*
X102625961Y-134100500D01*
X102625962Y-134100500D01*
X102874785Y-134061090D01*
X103114379Y-133983241D01*
X103338845Y-133868870D01*
X103542656Y-133720793D01*
X103720793Y-133542656D01*
X103868870Y-133338845D01*
X103983241Y-133114379D01*
X104061090Y-132874785D01*
X104096474Y-132651379D01*
X104434500Y-132651379D01*
X104434500Y-132838620D01*
X104471025Y-133022243D01*
X104471027Y-133022251D01*
X104542676Y-133195228D01*
X104542681Y-133195237D01*
X104646697Y-133350907D01*
X104646700Y-133350911D01*
X104779088Y-133483299D01*
X104779092Y-133483302D01*
X104934762Y-133587318D01*
X104934768Y-133587321D01*
X104934769Y-133587322D01*
X105107749Y-133658973D01*
X105291379Y-133695499D01*
X105291383Y-133695500D01*
X105291384Y-133695500D01*
X105478617Y-133695500D01*
X105478618Y-133695499D01*
X105662251Y-133658973D01*
X105835231Y-133587322D01*
X105990908Y-133483302D01*
X106123302Y-133350908D01*
X106227322Y-133195231D01*
X106298973Y-133022251D01*
X106335500Y-132838616D01*
X106335500Y-132651384D01*
X106335499Y-132651379D01*
X106974500Y-132651379D01*
X106974500Y-132838620D01*
X107011025Y-133022243D01*
X107011027Y-133022251D01*
X107082676Y-133195228D01*
X107082681Y-133195237D01*
X107186697Y-133350907D01*
X107186700Y-133350911D01*
X107319088Y-133483299D01*
X107319092Y-133483302D01*
X107474762Y-133587318D01*
X107474768Y-133587321D01*
X107474769Y-133587322D01*
X107647749Y-133658973D01*
X107831379Y-133695499D01*
X107831383Y-133695500D01*
X107831384Y-133695500D01*
X108018617Y-133695500D01*
X108018618Y-133695499D01*
X108202251Y-133658973D01*
X108375231Y-133587322D01*
X108530908Y-133483302D01*
X108663302Y-133350908D01*
X108767322Y-133195231D01*
X108838973Y-133022251D01*
X108875500Y-132838616D01*
X108875500Y-132651384D01*
X108875499Y-132651379D01*
X109514500Y-132651379D01*
X109514500Y-132838620D01*
X109551025Y-133022243D01*
X109551027Y-133022251D01*
X109622676Y-133195228D01*
X109622681Y-133195237D01*
X109726697Y-133350907D01*
X109726700Y-133350911D01*
X109859088Y-133483299D01*
X109859092Y-133483302D01*
X110014762Y-133587318D01*
X110014768Y-133587321D01*
X110014769Y-133587322D01*
X110187749Y-133658973D01*
X110371379Y-133695499D01*
X110371383Y-133695500D01*
X110371384Y-133695500D01*
X110558617Y-133695500D01*
X110558618Y-133695499D01*
X110742251Y-133658973D01*
X110915231Y-133587322D01*
X111070908Y-133483302D01*
X111203302Y-133350908D01*
X111307322Y-133195231D01*
X111378973Y-133022251D01*
X111415500Y-132838616D01*
X111415500Y-132651384D01*
X111415499Y-132651379D01*
X112054500Y-132651379D01*
X112054500Y-132838620D01*
X112091025Y-133022243D01*
X112091027Y-133022251D01*
X112162676Y-133195228D01*
X112162681Y-133195237D01*
X112266697Y-133350907D01*
X112266700Y-133350911D01*
X112399088Y-133483299D01*
X112399092Y-133483302D01*
X112554762Y-133587318D01*
X112554768Y-133587321D01*
X112554769Y-133587322D01*
X112727749Y-133658973D01*
X112911379Y-133695499D01*
X112911383Y-133695500D01*
X112911384Y-133695500D01*
X113098617Y-133695500D01*
X113098618Y-133695499D01*
X113282251Y-133658973D01*
X113455231Y-133587322D01*
X113610908Y-133483302D01*
X113743302Y-133350908D01*
X113847322Y-133195231D01*
X113918973Y-133022251D01*
X113955500Y-132838616D01*
X113955500Y-132651384D01*
X113955499Y-132651379D01*
X114594500Y-132651379D01*
X114594500Y-132838620D01*
X114631025Y-133022243D01*
X114631027Y-133022251D01*
X114702676Y-133195228D01*
X114702681Y-133195237D01*
X114806697Y-133350907D01*
X114806700Y-133350911D01*
X114939088Y-133483299D01*
X114939092Y-133483302D01*
X115094762Y-133587318D01*
X115094768Y-133587321D01*
X115094769Y-133587322D01*
X115267749Y-133658973D01*
X115451379Y-133695499D01*
X115451383Y-133695500D01*
X115451384Y-133695500D01*
X115638617Y-133695500D01*
X115638618Y-133695499D01*
X115822251Y-133658973D01*
X115995231Y-133587322D01*
X116150908Y-133483302D01*
X116283302Y-133350908D01*
X116387322Y-133195231D01*
X116458973Y-133022251D01*
X116495500Y-132838616D01*
X116495500Y-132651384D01*
X116495499Y-132651379D01*
X117134500Y-132651379D01*
X117134500Y-132838620D01*
X117171025Y-133022243D01*
X117171027Y-133022251D01*
X117242676Y-133195228D01*
X117242681Y-133195237D01*
X117346697Y-133350907D01*
X117346700Y-133350911D01*
X117479088Y-133483299D01*
X117479092Y-133483302D01*
X117634762Y-133587318D01*
X117634768Y-133587321D01*
X117634769Y-133587322D01*
X117807749Y-133658973D01*
X117991379Y-133695499D01*
X117991383Y-133695500D01*
X117991384Y-133695500D01*
X118178617Y-133695500D01*
X118178618Y-133695499D01*
X118362251Y-133658973D01*
X118535231Y-133587322D01*
X118690908Y-133483302D01*
X118823302Y-133350908D01*
X118927322Y-133195231D01*
X118998973Y-133022251D01*
X119035500Y-132838616D01*
X119035500Y-132651384D01*
X119035499Y-132651379D01*
X119674500Y-132651379D01*
X119674500Y-132838620D01*
X119711025Y-133022243D01*
X119711027Y-133022251D01*
X119782676Y-133195228D01*
X119782681Y-133195237D01*
X119886697Y-133350907D01*
X119886700Y-133350911D01*
X120019088Y-133483299D01*
X120019092Y-133483302D01*
X120174762Y-133587318D01*
X120174768Y-133587321D01*
X120174769Y-133587322D01*
X120347749Y-133658973D01*
X120531379Y-133695499D01*
X120531383Y-133695500D01*
X120531384Y-133695500D01*
X120718617Y-133695500D01*
X120718618Y-133695499D01*
X120902251Y-133658973D01*
X121075231Y-133587322D01*
X121230908Y-133483302D01*
X121363302Y-133350908D01*
X121467322Y-133195231D01*
X121538973Y-133022251D01*
X121575500Y-132838616D01*
X121575500Y-132651384D01*
X121575499Y-132651379D01*
X122214500Y-132651379D01*
X122214500Y-132838620D01*
X122251025Y-133022243D01*
X122251027Y-133022251D01*
X122322676Y-133195228D01*
X122322681Y-133195237D01*
X122426697Y-133350907D01*
X122426700Y-133350911D01*
X122559088Y-133483299D01*
X122559092Y-133483302D01*
X122714762Y-133587318D01*
X122714768Y-133587321D01*
X122714769Y-133587322D01*
X122887749Y-133658973D01*
X123071379Y-133695499D01*
X123071383Y-133695500D01*
X123071384Y-133695500D01*
X123258617Y-133695500D01*
X123258618Y-133695499D01*
X123442251Y-133658973D01*
X123615231Y-133587322D01*
X123770908Y-133483302D01*
X123903302Y-133350908D01*
X124007322Y-133195231D01*
X124078973Y-133022251D01*
X124115500Y-132838616D01*
X124115500Y-132651384D01*
X124115499Y-132651379D01*
X124754500Y-132651379D01*
X124754500Y-132838620D01*
X124791025Y-133022243D01*
X124791027Y-133022251D01*
X124862676Y-133195228D01*
X124862681Y-133195237D01*
X124966697Y-133350907D01*
X124966700Y-133350911D01*
X125099088Y-133483299D01*
X125099092Y-133483302D01*
X125254762Y-133587318D01*
X125254768Y-133587321D01*
X125254769Y-133587322D01*
X125427749Y-133658973D01*
X125611379Y-133695499D01*
X125611383Y-133695500D01*
X125611384Y-133695500D01*
X125798617Y-133695500D01*
X125798618Y-133695499D01*
X125982251Y-133658973D01*
X126155231Y-133587322D01*
X126310908Y-133483302D01*
X126443302Y-133350908D01*
X126547322Y-133195231D01*
X126618973Y-133022251D01*
X126655500Y-132838616D01*
X126655500Y-132651384D01*
X126655499Y-132651379D01*
X127294500Y-132651379D01*
X127294500Y-132838620D01*
X127331025Y-133022243D01*
X127331027Y-133022251D01*
X127402676Y-133195228D01*
X127402681Y-133195237D01*
X127506697Y-133350907D01*
X127506700Y-133350911D01*
X127639088Y-133483299D01*
X127639092Y-133483302D01*
X127794762Y-133587318D01*
X127794768Y-133587321D01*
X127794769Y-133587322D01*
X127967749Y-133658973D01*
X128151379Y-133695499D01*
X128151383Y-133695500D01*
X128151384Y-133695500D01*
X128338617Y-133695500D01*
X128338618Y-133695499D01*
X128522251Y-133658973D01*
X128695231Y-133587322D01*
X128850908Y-133483302D01*
X128983302Y-133350908D01*
X129087322Y-133195231D01*
X129158973Y-133022251D01*
X129195500Y-132838616D01*
X129195500Y-132651384D01*
X129195499Y-132651379D01*
X129834500Y-132651379D01*
X129834500Y-132838620D01*
X129871025Y-133022243D01*
X129871027Y-133022251D01*
X129942676Y-133195228D01*
X129942681Y-133195237D01*
X130046697Y-133350907D01*
X130046700Y-133350911D01*
X130179088Y-133483299D01*
X130179092Y-133483302D01*
X130334762Y-133587318D01*
X130334768Y-133587321D01*
X130334769Y-133587322D01*
X130507749Y-133658973D01*
X130691379Y-133695499D01*
X130691383Y-133695500D01*
X130691384Y-133695500D01*
X130878617Y-133695500D01*
X130878618Y-133695499D01*
X131062251Y-133658973D01*
X131235231Y-133587322D01*
X131390908Y-133483302D01*
X131523302Y-133350908D01*
X131627322Y-133195231D01*
X131698973Y-133022251D01*
X131735500Y-132838616D01*
X131735500Y-132651384D01*
X131735499Y-132651379D01*
X132374500Y-132651379D01*
X132374500Y-132838620D01*
X132411025Y-133022243D01*
X132411027Y-133022251D01*
X132482676Y-133195228D01*
X132482681Y-133195237D01*
X132586697Y-133350907D01*
X132586700Y-133350911D01*
X132719088Y-133483299D01*
X132719092Y-133483302D01*
X132874762Y-133587318D01*
X132874768Y-133587321D01*
X132874769Y-133587322D01*
X133047749Y-133658973D01*
X133231379Y-133695499D01*
X133231383Y-133695500D01*
X133231384Y-133695500D01*
X133418617Y-133695500D01*
X133418618Y-133695499D01*
X133602251Y-133658973D01*
X133775231Y-133587322D01*
X133930908Y-133483302D01*
X134063302Y-133350908D01*
X134167322Y-133195231D01*
X134238973Y-133022251D01*
X134275500Y-132838616D01*
X134275500Y-132651384D01*
X134275499Y-132651379D01*
X134914500Y-132651379D01*
X134914500Y-132838620D01*
X134951025Y-133022243D01*
X134951027Y-133022251D01*
X135022676Y-133195228D01*
X135022681Y-133195237D01*
X135126697Y-133350907D01*
X135126700Y-133350911D01*
X135259088Y-133483299D01*
X135259092Y-133483302D01*
X135414762Y-133587318D01*
X135414768Y-133587321D01*
X135414769Y-133587322D01*
X135587749Y-133658973D01*
X135771379Y-133695499D01*
X135771383Y-133695500D01*
X135771384Y-133695500D01*
X135958617Y-133695500D01*
X135958618Y-133695499D01*
X136142251Y-133658973D01*
X136315231Y-133587322D01*
X136470908Y-133483302D01*
X136603302Y-133350908D01*
X136707322Y-133195231D01*
X136778973Y-133022251D01*
X136815500Y-132838616D01*
X136815500Y-132651384D01*
X136815499Y-132651379D01*
X137454500Y-132651379D01*
X137454500Y-132838620D01*
X137491025Y-133022243D01*
X137491027Y-133022251D01*
X137562676Y-133195228D01*
X137562681Y-133195237D01*
X137666697Y-133350907D01*
X137666700Y-133350911D01*
X137799088Y-133483299D01*
X137799092Y-133483302D01*
X137954762Y-133587318D01*
X137954768Y-133587321D01*
X137954769Y-133587322D01*
X138127749Y-133658973D01*
X138311379Y-133695499D01*
X138311383Y-133695500D01*
X138311384Y-133695500D01*
X138498617Y-133695500D01*
X138498618Y-133695499D01*
X138682251Y-133658973D01*
X138855231Y-133587322D01*
X139010908Y-133483302D01*
X139143302Y-133350908D01*
X139247322Y-133195231D01*
X139318973Y-133022251D01*
X139355500Y-132838616D01*
X139355500Y-132651384D01*
X139355499Y-132651379D01*
X139994500Y-132651379D01*
X139994500Y-132838620D01*
X140031025Y-133022243D01*
X140031027Y-133022251D01*
X140102676Y-133195228D01*
X140102681Y-133195237D01*
X140206697Y-133350907D01*
X140206700Y-133350911D01*
X140339088Y-133483299D01*
X140339092Y-133483302D01*
X140494762Y-133587318D01*
X140494768Y-133587321D01*
X140494769Y-133587322D01*
X140667749Y-133658973D01*
X140851379Y-133695499D01*
X140851383Y-133695500D01*
X140851384Y-133695500D01*
X141038617Y-133695500D01*
X141038618Y-133695499D01*
X141222251Y-133658973D01*
X141395231Y-133587322D01*
X141550908Y-133483302D01*
X141683302Y-133350908D01*
X141787322Y-133195231D01*
X141858973Y-133022251D01*
X141895500Y-132838616D01*
X141895500Y-132651384D01*
X141895499Y-132651379D01*
X142534500Y-132651379D01*
X142534500Y-132838620D01*
X142571025Y-133022243D01*
X142571027Y-133022251D01*
X142642676Y-133195228D01*
X142642681Y-133195237D01*
X142746697Y-133350907D01*
X142746700Y-133350911D01*
X142879088Y-133483299D01*
X142879092Y-133483302D01*
X143034762Y-133587318D01*
X143034768Y-133587321D01*
X143034769Y-133587322D01*
X143207749Y-133658973D01*
X143391379Y-133695499D01*
X143391383Y-133695500D01*
X143391384Y-133695500D01*
X143578617Y-133695500D01*
X143578618Y-133695499D01*
X143762251Y-133658973D01*
X143935231Y-133587322D01*
X144090908Y-133483302D01*
X144223302Y-133350908D01*
X144327322Y-133195231D01*
X144398973Y-133022251D01*
X144435500Y-132838616D01*
X144435500Y-132651384D01*
X144435499Y-132651379D01*
X145074500Y-132651379D01*
X145074500Y-132838620D01*
X145111025Y-133022243D01*
X145111027Y-133022251D01*
X145182676Y-133195228D01*
X145182681Y-133195237D01*
X145286697Y-133350907D01*
X145286700Y-133350911D01*
X145419088Y-133483299D01*
X145419092Y-133483302D01*
X145574762Y-133587318D01*
X145574768Y-133587321D01*
X145574769Y-133587322D01*
X145747749Y-133658973D01*
X145931379Y-133695499D01*
X145931383Y-133695500D01*
X145931384Y-133695500D01*
X146118617Y-133695500D01*
X146118618Y-133695499D01*
X146302251Y-133658973D01*
X146475231Y-133587322D01*
X146630908Y-133483302D01*
X146763302Y-133350908D01*
X146867322Y-133195231D01*
X146938973Y-133022251D01*
X146975500Y-132838616D01*
X146975500Y-132651384D01*
X146938973Y-132467749D01*
X146867322Y-132294769D01*
X146867321Y-132294768D01*
X146867318Y-132294762D01*
X146763302Y-132139092D01*
X146763299Y-132139088D01*
X146630911Y-132006700D01*
X146630907Y-132006697D01*
X146475237Y-131902681D01*
X146475228Y-131902676D01*
X146302251Y-131831027D01*
X146302243Y-131831025D01*
X146118620Y-131794500D01*
X146118616Y-131794500D01*
X145931384Y-131794500D01*
X145931379Y-131794500D01*
X145747756Y-131831025D01*
X145747748Y-131831027D01*
X145574771Y-131902676D01*
X145574762Y-131902681D01*
X145419092Y-132006697D01*
X145419088Y-132006700D01*
X145286700Y-132139088D01*
X145286697Y-132139092D01*
X145182681Y-132294762D01*
X145182676Y-132294771D01*
X145111027Y-132467748D01*
X145111025Y-132467756D01*
X145074500Y-132651379D01*
X144435499Y-132651379D01*
X144398973Y-132467749D01*
X144327322Y-132294769D01*
X144327321Y-132294768D01*
X144327318Y-132294762D01*
X144223302Y-132139092D01*
X144223299Y-132139088D01*
X144090911Y-132006700D01*
X144090907Y-132006697D01*
X143935237Y-131902681D01*
X143935228Y-131902676D01*
X143762251Y-131831027D01*
X143762243Y-131831025D01*
X143578620Y-131794500D01*
X143578616Y-131794500D01*
X143391384Y-131794500D01*
X143391379Y-131794500D01*
X143207756Y-131831025D01*
X143207748Y-131831027D01*
X143034771Y-131902676D01*
X143034762Y-131902681D01*
X142879092Y-132006697D01*
X142879088Y-132006700D01*
X142746700Y-132139088D01*
X142746697Y-132139092D01*
X142642681Y-132294762D01*
X142642676Y-132294771D01*
X142571027Y-132467748D01*
X142571025Y-132467756D01*
X142534500Y-132651379D01*
X141895499Y-132651379D01*
X141858973Y-132467749D01*
X141787322Y-132294769D01*
X141787321Y-132294768D01*
X141787318Y-132294762D01*
X141683302Y-132139092D01*
X141683299Y-132139088D01*
X141550911Y-132006700D01*
X141550907Y-132006697D01*
X141395237Y-131902681D01*
X141395228Y-131902676D01*
X141222251Y-131831027D01*
X141222243Y-131831025D01*
X141038620Y-131794500D01*
X141038616Y-131794500D01*
X140851384Y-131794500D01*
X140851379Y-131794500D01*
X140667756Y-131831025D01*
X140667748Y-131831027D01*
X140494771Y-131902676D01*
X140494762Y-131902681D01*
X140339092Y-132006697D01*
X140339088Y-132006700D01*
X140206700Y-132139088D01*
X140206697Y-132139092D01*
X140102681Y-132294762D01*
X140102676Y-132294771D01*
X140031027Y-132467748D01*
X140031025Y-132467756D01*
X139994500Y-132651379D01*
X139355499Y-132651379D01*
X139318973Y-132467749D01*
X139247322Y-132294769D01*
X139247321Y-132294768D01*
X139247318Y-132294762D01*
X139143302Y-132139092D01*
X139143299Y-132139088D01*
X139010911Y-132006700D01*
X139010907Y-132006697D01*
X138855237Y-131902681D01*
X138855228Y-131902676D01*
X138682251Y-131831027D01*
X138682243Y-131831025D01*
X138498620Y-131794500D01*
X138498616Y-131794500D01*
X138311384Y-131794500D01*
X138311379Y-131794500D01*
X138127756Y-131831025D01*
X138127748Y-131831027D01*
X137954771Y-131902676D01*
X137954762Y-131902681D01*
X137799092Y-132006697D01*
X137799088Y-132006700D01*
X137666700Y-132139088D01*
X137666697Y-132139092D01*
X137562681Y-132294762D01*
X137562676Y-132294771D01*
X137491027Y-132467748D01*
X137491025Y-132467756D01*
X137454500Y-132651379D01*
X136815499Y-132651379D01*
X136778973Y-132467749D01*
X136707322Y-132294769D01*
X136707321Y-132294768D01*
X136707318Y-132294762D01*
X136603302Y-132139092D01*
X136603299Y-132139088D01*
X136470911Y-132006700D01*
X136470907Y-132006697D01*
X136315237Y-131902681D01*
X136315228Y-131902676D01*
X136142251Y-131831027D01*
X136142243Y-131831025D01*
X135958620Y-131794500D01*
X135958616Y-131794500D01*
X135771384Y-131794500D01*
X135771379Y-131794500D01*
X135587756Y-131831025D01*
X135587748Y-131831027D01*
X135414771Y-131902676D01*
X135414762Y-131902681D01*
X135259092Y-132006697D01*
X135259088Y-132006700D01*
X135126700Y-132139088D01*
X135126697Y-132139092D01*
X135022681Y-132294762D01*
X135022676Y-132294771D01*
X134951027Y-132467748D01*
X134951025Y-132467756D01*
X134914500Y-132651379D01*
X134275499Y-132651379D01*
X134238973Y-132467749D01*
X134167322Y-132294769D01*
X134167321Y-132294768D01*
X134167318Y-132294762D01*
X134063302Y-132139092D01*
X134063299Y-132139088D01*
X133930911Y-132006700D01*
X133930907Y-132006697D01*
X133775237Y-131902681D01*
X133775228Y-131902676D01*
X133602251Y-131831027D01*
X133602243Y-131831025D01*
X133418620Y-131794500D01*
X133418616Y-131794500D01*
X133231384Y-131794500D01*
X133231379Y-131794500D01*
X133047756Y-131831025D01*
X133047748Y-131831027D01*
X132874771Y-131902676D01*
X132874762Y-131902681D01*
X132719092Y-132006697D01*
X132719088Y-132006700D01*
X132586700Y-132139088D01*
X132586697Y-132139092D01*
X132482681Y-132294762D01*
X132482676Y-132294771D01*
X132411027Y-132467748D01*
X132411025Y-132467756D01*
X132374500Y-132651379D01*
X131735499Y-132651379D01*
X131698973Y-132467749D01*
X131627322Y-132294769D01*
X131627321Y-132294768D01*
X131627318Y-132294762D01*
X131523302Y-132139092D01*
X131523299Y-132139088D01*
X131390911Y-132006700D01*
X131390907Y-132006697D01*
X131235237Y-131902681D01*
X131235228Y-131902676D01*
X131062251Y-131831027D01*
X131062243Y-131831025D01*
X130878620Y-131794500D01*
X130878616Y-131794500D01*
X130691384Y-131794500D01*
X130691379Y-131794500D01*
X130507756Y-131831025D01*
X130507748Y-131831027D01*
X130334771Y-131902676D01*
X130334762Y-131902681D01*
X130179092Y-132006697D01*
X130179088Y-132006700D01*
X130046700Y-132139088D01*
X130046697Y-132139092D01*
X129942681Y-132294762D01*
X129942676Y-132294771D01*
X129871027Y-132467748D01*
X129871025Y-132467756D01*
X129834500Y-132651379D01*
X129195499Y-132651379D01*
X129158973Y-132467749D01*
X129087322Y-132294769D01*
X129087321Y-132294768D01*
X129087318Y-132294762D01*
X128983302Y-132139092D01*
X128983299Y-132139088D01*
X128850911Y-132006700D01*
X128850907Y-132006697D01*
X128695237Y-131902681D01*
X128695228Y-131902676D01*
X128522251Y-131831027D01*
X128522243Y-131831025D01*
X128338620Y-131794500D01*
X128338616Y-131794500D01*
X128151384Y-131794500D01*
X128151379Y-131794500D01*
X127967756Y-131831025D01*
X127967748Y-131831027D01*
X127794771Y-131902676D01*
X127794762Y-131902681D01*
X127639092Y-132006697D01*
X127639088Y-132006700D01*
X127506700Y-132139088D01*
X127506697Y-132139092D01*
X127402681Y-132294762D01*
X127402676Y-132294771D01*
X127331027Y-132467748D01*
X127331025Y-132467756D01*
X127294500Y-132651379D01*
X126655499Y-132651379D01*
X126618973Y-132467749D01*
X126547322Y-132294769D01*
X126547321Y-132294768D01*
X126547318Y-132294762D01*
X126443302Y-132139092D01*
X126443299Y-132139088D01*
X126310911Y-132006700D01*
X126310907Y-132006697D01*
X126155237Y-131902681D01*
X126155228Y-131902676D01*
X125982251Y-131831027D01*
X125982243Y-131831025D01*
X125798620Y-131794500D01*
X125798616Y-131794500D01*
X125611384Y-131794500D01*
X125611379Y-131794500D01*
X125427756Y-131831025D01*
X125427748Y-131831027D01*
X125254771Y-131902676D01*
X125254762Y-131902681D01*
X125099092Y-132006697D01*
X125099088Y-132006700D01*
X124966700Y-132139088D01*
X124966697Y-132139092D01*
X124862681Y-132294762D01*
X124862676Y-132294771D01*
X124791027Y-132467748D01*
X124791025Y-132467756D01*
X124754500Y-132651379D01*
X124115499Y-132651379D01*
X124078973Y-132467749D01*
X124007322Y-132294769D01*
X124007321Y-132294768D01*
X124007318Y-132294762D01*
X123903302Y-132139092D01*
X123903299Y-132139088D01*
X123770911Y-132006700D01*
X123770907Y-132006697D01*
X123615237Y-131902681D01*
X123615228Y-131902676D01*
X123442251Y-131831027D01*
X123442243Y-131831025D01*
X123258620Y-131794500D01*
X123258616Y-131794500D01*
X123071384Y-131794500D01*
X123071379Y-131794500D01*
X122887756Y-131831025D01*
X122887748Y-131831027D01*
X122714771Y-131902676D01*
X122714762Y-131902681D01*
X122559092Y-132006697D01*
X122559088Y-132006700D01*
X122426700Y-132139088D01*
X122426697Y-132139092D01*
X122322681Y-132294762D01*
X122322676Y-132294771D01*
X122251027Y-132467748D01*
X122251025Y-132467756D01*
X122214500Y-132651379D01*
X121575499Y-132651379D01*
X121538973Y-132467749D01*
X121467322Y-132294769D01*
X121467321Y-132294768D01*
X121467318Y-132294762D01*
X121363302Y-132139092D01*
X121363299Y-132139088D01*
X121230911Y-132006700D01*
X121230907Y-132006697D01*
X121075237Y-131902681D01*
X121075228Y-131902676D01*
X120902251Y-131831027D01*
X120902243Y-131831025D01*
X120718620Y-131794500D01*
X120718616Y-131794500D01*
X120531384Y-131794500D01*
X120531379Y-131794500D01*
X120347756Y-131831025D01*
X120347748Y-131831027D01*
X120174771Y-131902676D01*
X120174762Y-131902681D01*
X120019092Y-132006697D01*
X120019088Y-132006700D01*
X119886700Y-132139088D01*
X119886697Y-132139092D01*
X119782681Y-132294762D01*
X119782676Y-132294771D01*
X119711027Y-132467748D01*
X119711025Y-132467756D01*
X119674500Y-132651379D01*
X119035499Y-132651379D01*
X118998973Y-132467749D01*
X118927322Y-132294769D01*
X118927321Y-132294768D01*
X118927318Y-132294762D01*
X118823302Y-132139092D01*
X118823299Y-132139088D01*
X118690911Y-132006700D01*
X118690907Y-132006697D01*
X118535237Y-131902681D01*
X118535228Y-131902676D01*
X118362251Y-131831027D01*
X118362243Y-131831025D01*
X118178620Y-131794500D01*
X118178616Y-131794500D01*
X117991384Y-131794500D01*
X117991379Y-131794500D01*
X117807756Y-131831025D01*
X117807748Y-131831027D01*
X117634771Y-131902676D01*
X117634762Y-131902681D01*
X117479092Y-132006697D01*
X117479088Y-132006700D01*
X117346700Y-132139088D01*
X117346697Y-132139092D01*
X117242681Y-132294762D01*
X117242676Y-132294771D01*
X117171027Y-132467748D01*
X117171025Y-132467756D01*
X117134500Y-132651379D01*
X116495499Y-132651379D01*
X116458973Y-132467749D01*
X116387322Y-132294769D01*
X116387321Y-132294768D01*
X116387318Y-132294762D01*
X116283302Y-132139092D01*
X116283299Y-132139088D01*
X116150911Y-132006700D01*
X116150907Y-132006697D01*
X115995237Y-131902681D01*
X115995228Y-131902676D01*
X115822251Y-131831027D01*
X115822243Y-131831025D01*
X115638620Y-131794500D01*
X115638616Y-131794500D01*
X115451384Y-131794500D01*
X115451379Y-131794500D01*
X115267756Y-131831025D01*
X115267748Y-131831027D01*
X115094771Y-131902676D01*
X115094762Y-131902681D01*
X114939092Y-132006697D01*
X114939088Y-132006700D01*
X114806700Y-132139088D01*
X114806697Y-132139092D01*
X114702681Y-132294762D01*
X114702676Y-132294771D01*
X114631027Y-132467748D01*
X114631025Y-132467756D01*
X114594500Y-132651379D01*
X113955499Y-132651379D01*
X113918973Y-132467749D01*
X113847322Y-132294769D01*
X113847321Y-132294768D01*
X113847318Y-132294762D01*
X113743302Y-132139092D01*
X113743299Y-132139088D01*
X113610911Y-132006700D01*
X113610907Y-132006697D01*
X113455237Y-131902681D01*
X113455228Y-131902676D01*
X113282251Y-131831027D01*
X113282243Y-131831025D01*
X113098620Y-131794500D01*
X113098616Y-131794500D01*
X112911384Y-131794500D01*
X112911379Y-131794500D01*
X112727756Y-131831025D01*
X112727748Y-131831027D01*
X112554771Y-131902676D01*
X112554762Y-131902681D01*
X112399092Y-132006697D01*
X112399088Y-132006700D01*
X112266700Y-132139088D01*
X112266697Y-132139092D01*
X112162681Y-132294762D01*
X112162676Y-132294771D01*
X112091027Y-132467748D01*
X112091025Y-132467756D01*
X112054500Y-132651379D01*
X111415499Y-132651379D01*
X111378973Y-132467749D01*
X111307322Y-132294769D01*
X111307321Y-132294768D01*
X111307318Y-132294762D01*
X111203302Y-132139092D01*
X111203299Y-132139088D01*
X111070911Y-132006700D01*
X111070907Y-132006697D01*
X110915237Y-131902681D01*
X110915228Y-131902676D01*
X110742251Y-131831027D01*
X110742243Y-131831025D01*
X110558620Y-131794500D01*
X110558616Y-131794500D01*
X110371384Y-131794500D01*
X110371379Y-131794500D01*
X110187756Y-131831025D01*
X110187748Y-131831027D01*
X110014771Y-131902676D01*
X110014762Y-131902681D01*
X109859092Y-132006697D01*
X109859088Y-132006700D01*
X109726700Y-132139088D01*
X109726697Y-132139092D01*
X109622681Y-132294762D01*
X109622676Y-132294771D01*
X109551027Y-132467748D01*
X109551025Y-132467756D01*
X109514500Y-132651379D01*
X108875499Y-132651379D01*
X108838973Y-132467749D01*
X108767322Y-132294769D01*
X108767321Y-132294768D01*
X108767318Y-132294762D01*
X108663302Y-132139092D01*
X108663299Y-132139088D01*
X108530911Y-132006700D01*
X108530907Y-132006697D01*
X108375237Y-131902681D01*
X108375228Y-131902676D01*
X108202251Y-131831027D01*
X108202243Y-131831025D01*
X108018620Y-131794500D01*
X108018616Y-131794500D01*
X107831384Y-131794500D01*
X107831379Y-131794500D01*
X107647756Y-131831025D01*
X107647748Y-131831027D01*
X107474771Y-131902676D01*
X107474762Y-131902681D01*
X107319092Y-132006697D01*
X107319088Y-132006700D01*
X107186700Y-132139088D01*
X107186697Y-132139092D01*
X107082681Y-132294762D01*
X107082676Y-132294771D01*
X107011027Y-132467748D01*
X107011025Y-132467756D01*
X106974500Y-132651379D01*
X106335499Y-132651379D01*
X106298973Y-132467749D01*
X106227322Y-132294769D01*
X106227321Y-132294768D01*
X106227318Y-132294762D01*
X106123302Y-132139092D01*
X106123299Y-132139088D01*
X105990911Y-132006700D01*
X105990907Y-132006697D01*
X105835237Y-131902681D01*
X105835228Y-131902676D01*
X105662251Y-131831027D01*
X105662243Y-131831025D01*
X105478620Y-131794500D01*
X105478616Y-131794500D01*
X105291384Y-131794500D01*
X105291379Y-131794500D01*
X105107756Y-131831025D01*
X105107748Y-131831027D01*
X104934771Y-131902676D01*
X104934762Y-131902681D01*
X104779092Y-132006697D01*
X104779088Y-132006700D01*
X104646700Y-132139088D01*
X104646697Y-132139092D01*
X104542681Y-132294762D01*
X104542676Y-132294771D01*
X104471027Y-132467748D01*
X104471025Y-132467756D01*
X104434500Y-132651379D01*
X104096474Y-132651379D01*
X104100500Y-132625962D01*
X104100500Y-132374038D01*
X104061090Y-132125215D01*
X103983241Y-131885621D01*
X103983239Y-131885618D01*
X103983239Y-131885616D01*
X103941747Y-131804184D01*
X103868870Y-131661155D01*
X103767592Y-131521757D01*
X103720798Y-131457350D01*
X103720794Y-131457345D01*
X103542654Y-131279205D01*
X103542649Y-131279201D01*
X103338848Y-131131132D01*
X103338847Y-131131131D01*
X103338845Y-131131130D01*
X103268747Y-131095413D01*
X103114383Y-131016760D01*
X102874785Y-130938910D01*
X102625962Y-130899500D01*
X102374038Y-130899500D01*
X102291619Y-130912554D01*
X102125214Y-130938910D01*
X101885616Y-131016760D01*
X101661151Y-131131132D01*
X101457350Y-131279201D01*
X101457345Y-131279205D01*
X101279205Y-131457345D01*
X101279201Y-131457350D01*
X101131132Y-131661151D01*
X101016760Y-131885616D01*
X100938910Y-132125214D01*
X100938910Y-132125215D01*
X100899500Y-132374038D01*
X100250500Y-132374038D01*
X100250500Y-130111379D01*
X104434500Y-130111379D01*
X104434500Y-130298620D01*
X104471025Y-130482243D01*
X104471027Y-130482251D01*
X104542676Y-130655228D01*
X104542681Y-130655237D01*
X104646697Y-130810907D01*
X104646700Y-130810911D01*
X104779088Y-130943299D01*
X104779092Y-130943302D01*
X104934762Y-131047318D01*
X104934768Y-131047321D01*
X104934769Y-131047322D01*
X105107749Y-131118973D01*
X105291379Y-131155499D01*
X105291383Y-131155500D01*
X105291384Y-131155500D01*
X105478617Y-131155500D01*
X105478618Y-131155499D01*
X105662251Y-131118973D01*
X105835231Y-131047322D01*
X105990908Y-130943302D01*
X106123302Y-130810908D01*
X106227322Y-130655231D01*
X106298973Y-130482251D01*
X106335500Y-130298616D01*
X106335500Y-130111384D01*
X106335499Y-130111379D01*
X106974500Y-130111379D01*
X106974500Y-130298620D01*
X107011025Y-130482243D01*
X107011027Y-130482251D01*
X107082676Y-130655228D01*
X107082681Y-130655237D01*
X107186697Y-130810907D01*
X107186700Y-130810911D01*
X107319088Y-130943299D01*
X107319092Y-130943302D01*
X107474762Y-131047318D01*
X107474768Y-131047321D01*
X107474769Y-131047322D01*
X107647749Y-131118973D01*
X107831379Y-131155499D01*
X107831383Y-131155500D01*
X107831384Y-131155500D01*
X108018617Y-131155500D01*
X108018618Y-131155499D01*
X108202251Y-131118973D01*
X108375231Y-131047322D01*
X108530908Y-130943302D01*
X108663302Y-130810908D01*
X108767322Y-130655231D01*
X108838973Y-130482251D01*
X108875500Y-130298616D01*
X108875500Y-130111384D01*
X108875499Y-130111379D01*
X109514500Y-130111379D01*
X109514500Y-130298620D01*
X109551025Y-130482243D01*
X109551027Y-130482251D01*
X109622676Y-130655228D01*
X109622681Y-130655237D01*
X109726697Y-130810907D01*
X109726700Y-130810911D01*
X109859088Y-130943299D01*
X109859092Y-130943302D01*
X110014762Y-131047318D01*
X110014768Y-131047321D01*
X110014769Y-131047322D01*
X110187749Y-131118973D01*
X110371379Y-131155499D01*
X110371383Y-131155500D01*
X110371384Y-131155500D01*
X110558617Y-131155500D01*
X110558618Y-131155499D01*
X110742251Y-131118973D01*
X110915231Y-131047322D01*
X111070908Y-130943302D01*
X111203302Y-130810908D01*
X111307322Y-130655231D01*
X111378973Y-130482251D01*
X111415500Y-130298616D01*
X111415500Y-130111384D01*
X111415499Y-130111379D01*
X112054500Y-130111379D01*
X112054500Y-130298620D01*
X112091025Y-130482243D01*
X112091027Y-130482251D01*
X112162676Y-130655228D01*
X112162681Y-130655237D01*
X112266697Y-130810907D01*
X112266700Y-130810911D01*
X112399088Y-130943299D01*
X112399092Y-130943302D01*
X112554762Y-131047318D01*
X112554768Y-131047321D01*
X112554769Y-131047322D01*
X112727749Y-131118973D01*
X112911379Y-131155499D01*
X112911383Y-131155500D01*
X112911384Y-131155500D01*
X113098617Y-131155500D01*
X113098618Y-131155499D01*
X113282251Y-131118973D01*
X113455231Y-131047322D01*
X113610908Y-130943302D01*
X113743302Y-130810908D01*
X113847322Y-130655231D01*
X113918973Y-130482251D01*
X113955500Y-130298616D01*
X113955500Y-130111384D01*
X113955499Y-130111379D01*
X114594500Y-130111379D01*
X114594500Y-130298620D01*
X114631025Y-130482243D01*
X114631027Y-130482251D01*
X114702676Y-130655228D01*
X114702681Y-130655237D01*
X114806697Y-130810907D01*
X114806700Y-130810911D01*
X114939088Y-130943299D01*
X114939092Y-130943302D01*
X115094762Y-131047318D01*
X115094768Y-131047321D01*
X115094769Y-131047322D01*
X115267749Y-131118973D01*
X115451379Y-131155499D01*
X115451383Y-131155500D01*
X115451384Y-131155500D01*
X115638617Y-131155500D01*
X115638618Y-131155499D01*
X115822251Y-131118973D01*
X115995231Y-131047322D01*
X116150908Y-130943302D01*
X116283302Y-130810908D01*
X116387322Y-130655231D01*
X116458973Y-130482251D01*
X116495500Y-130298616D01*
X116495500Y-130111384D01*
X116495499Y-130111379D01*
X117134500Y-130111379D01*
X117134500Y-130298620D01*
X117171025Y-130482243D01*
X117171027Y-130482251D01*
X117242676Y-130655228D01*
X117242681Y-130655237D01*
X117346697Y-130810907D01*
X117346700Y-130810911D01*
X117479088Y-130943299D01*
X117479092Y-130943302D01*
X117634762Y-131047318D01*
X117634768Y-131047321D01*
X117634769Y-131047322D01*
X117807749Y-131118973D01*
X117991379Y-131155499D01*
X117991383Y-131155500D01*
X117991384Y-131155500D01*
X118178617Y-131155500D01*
X118178618Y-131155499D01*
X118362251Y-131118973D01*
X118535231Y-131047322D01*
X118690908Y-130943302D01*
X118823302Y-130810908D01*
X118927322Y-130655231D01*
X118998973Y-130482251D01*
X119035500Y-130298616D01*
X119035500Y-130111384D01*
X119035499Y-130111379D01*
X119674500Y-130111379D01*
X119674500Y-130298620D01*
X119711025Y-130482243D01*
X119711027Y-130482251D01*
X119782676Y-130655228D01*
X119782681Y-130655237D01*
X119886697Y-130810907D01*
X119886700Y-130810911D01*
X120019088Y-130943299D01*
X120019092Y-130943302D01*
X120174762Y-131047318D01*
X120174768Y-131047321D01*
X120174769Y-131047322D01*
X120347749Y-131118973D01*
X120531379Y-131155499D01*
X120531383Y-131155500D01*
X120531384Y-131155500D01*
X120718617Y-131155500D01*
X120718618Y-131155499D01*
X120902251Y-131118973D01*
X121075231Y-131047322D01*
X121230908Y-130943302D01*
X121363302Y-130810908D01*
X121467322Y-130655231D01*
X121538973Y-130482251D01*
X121575500Y-130298616D01*
X121575500Y-130111384D01*
X121575499Y-130111379D01*
X122214500Y-130111379D01*
X122214500Y-130298620D01*
X122251025Y-130482243D01*
X122251027Y-130482251D01*
X122322676Y-130655228D01*
X122322681Y-130655237D01*
X122426697Y-130810907D01*
X122426700Y-130810911D01*
X122559088Y-130943299D01*
X122559092Y-130943302D01*
X122714762Y-131047318D01*
X122714768Y-131047321D01*
X122714769Y-131047322D01*
X122887749Y-131118973D01*
X123071379Y-131155499D01*
X123071383Y-131155500D01*
X123071384Y-131155500D01*
X123258617Y-131155500D01*
X123258618Y-131155499D01*
X123442251Y-131118973D01*
X123615231Y-131047322D01*
X123770908Y-130943302D01*
X123903302Y-130810908D01*
X124007322Y-130655231D01*
X124078973Y-130482251D01*
X124115500Y-130298616D01*
X124115500Y-130111384D01*
X124115499Y-130111379D01*
X124754500Y-130111379D01*
X124754500Y-130298620D01*
X124791025Y-130482243D01*
X124791027Y-130482251D01*
X124862676Y-130655228D01*
X124862681Y-130655237D01*
X124966697Y-130810907D01*
X124966700Y-130810911D01*
X125099088Y-130943299D01*
X125099092Y-130943302D01*
X125254762Y-131047318D01*
X125254768Y-131047321D01*
X125254769Y-131047322D01*
X125427749Y-131118973D01*
X125611379Y-131155499D01*
X125611383Y-131155500D01*
X125611384Y-131155500D01*
X125798617Y-131155500D01*
X125798618Y-131155499D01*
X125982251Y-131118973D01*
X126155231Y-131047322D01*
X126310908Y-130943302D01*
X126443302Y-130810908D01*
X126547322Y-130655231D01*
X126618973Y-130482251D01*
X126655500Y-130298616D01*
X126655500Y-130111384D01*
X126655499Y-130111379D01*
X127294500Y-130111379D01*
X127294500Y-130298620D01*
X127331025Y-130482243D01*
X127331027Y-130482251D01*
X127402676Y-130655228D01*
X127402681Y-130655237D01*
X127506697Y-130810907D01*
X127506700Y-130810911D01*
X127639088Y-130943299D01*
X127639092Y-130943302D01*
X127794762Y-131047318D01*
X127794768Y-131047321D01*
X127794769Y-131047322D01*
X127967749Y-131118973D01*
X128151379Y-131155499D01*
X128151383Y-131155500D01*
X128151384Y-131155500D01*
X128338617Y-131155500D01*
X128338618Y-131155499D01*
X128522251Y-131118973D01*
X128695231Y-131047322D01*
X128850908Y-130943302D01*
X128983302Y-130810908D01*
X129087322Y-130655231D01*
X129158973Y-130482251D01*
X129195500Y-130298616D01*
X129195500Y-130111384D01*
X129195499Y-130111379D01*
X129834500Y-130111379D01*
X129834500Y-130298620D01*
X129871025Y-130482243D01*
X129871027Y-130482251D01*
X129942676Y-130655228D01*
X129942681Y-130655237D01*
X130046697Y-130810907D01*
X130046700Y-130810911D01*
X130179088Y-130943299D01*
X130179092Y-130943302D01*
X130334762Y-131047318D01*
X130334768Y-131047321D01*
X130334769Y-131047322D01*
X130507749Y-131118973D01*
X130691379Y-131155499D01*
X130691383Y-131155500D01*
X130691384Y-131155500D01*
X130878617Y-131155500D01*
X130878618Y-131155499D01*
X131062251Y-131118973D01*
X131235231Y-131047322D01*
X131390908Y-130943302D01*
X131523302Y-130810908D01*
X131627322Y-130655231D01*
X131698973Y-130482251D01*
X131735500Y-130298616D01*
X131735500Y-130111384D01*
X131735499Y-130111379D01*
X132374500Y-130111379D01*
X132374500Y-130298620D01*
X132411025Y-130482243D01*
X132411027Y-130482251D01*
X132482676Y-130655228D01*
X132482681Y-130655237D01*
X132586697Y-130810907D01*
X132586700Y-130810911D01*
X132719088Y-130943299D01*
X132719092Y-130943302D01*
X132874762Y-131047318D01*
X132874768Y-131047321D01*
X132874769Y-131047322D01*
X133047749Y-131118973D01*
X133231379Y-131155499D01*
X133231383Y-131155500D01*
X133231384Y-131155500D01*
X133418617Y-131155500D01*
X133418618Y-131155499D01*
X133602251Y-131118973D01*
X133775231Y-131047322D01*
X133930908Y-130943302D01*
X134063302Y-130810908D01*
X134167322Y-130655231D01*
X134238973Y-130482251D01*
X134275500Y-130298616D01*
X134275500Y-130157273D01*
X134599500Y-130157273D01*
X134599500Y-130262727D01*
X134626793Y-130364587D01*
X134679520Y-130455913D01*
X134754087Y-130530480D01*
X134845413Y-130583207D01*
X134947273Y-130610500D01*
X134947275Y-130610500D01*
X134955123Y-130612603D01*
X134954362Y-130615441D01*
X135005350Y-130637984D01*
X135028392Y-130663784D01*
X135126697Y-130810907D01*
X135126700Y-130810911D01*
X135259088Y-130943299D01*
X135259092Y-130943302D01*
X135414762Y-131047318D01*
X135414768Y-131047321D01*
X135414769Y-131047322D01*
X135587749Y-131118973D01*
X135771379Y-131155499D01*
X135771383Y-131155500D01*
X135771384Y-131155500D01*
X135958617Y-131155500D01*
X135958618Y-131155499D01*
X136142251Y-131118973D01*
X136315231Y-131047322D01*
X136470908Y-130943302D01*
X136603302Y-130810908D01*
X136707322Y-130655231D01*
X136778973Y-130482251D01*
X136815500Y-130298616D01*
X136815500Y-130111384D01*
X136815499Y-130111379D01*
X137454500Y-130111379D01*
X137454500Y-130298620D01*
X137491025Y-130482243D01*
X137491027Y-130482251D01*
X137562676Y-130655228D01*
X137562681Y-130655237D01*
X137666697Y-130810907D01*
X137666700Y-130810911D01*
X137799088Y-130943299D01*
X137799092Y-130943302D01*
X137954762Y-131047318D01*
X137954768Y-131047321D01*
X137954769Y-131047322D01*
X138127749Y-131118973D01*
X138311379Y-131155499D01*
X138311383Y-131155500D01*
X138311384Y-131155500D01*
X138498617Y-131155500D01*
X138498618Y-131155499D01*
X138682251Y-131118973D01*
X138855231Y-131047322D01*
X139010908Y-130943302D01*
X139143302Y-130810908D01*
X139247322Y-130655231D01*
X139318973Y-130482251D01*
X139355500Y-130298616D01*
X139355500Y-130111384D01*
X139355499Y-130111379D01*
X139994500Y-130111379D01*
X139994500Y-130298620D01*
X140031025Y-130482243D01*
X140031027Y-130482251D01*
X140102676Y-130655228D01*
X140102681Y-130655237D01*
X140206697Y-130810907D01*
X140206700Y-130810911D01*
X140339088Y-130943299D01*
X140339092Y-130943302D01*
X140494762Y-131047318D01*
X140494768Y-131047321D01*
X140494769Y-131047322D01*
X140667749Y-131118973D01*
X140851379Y-131155499D01*
X140851383Y-131155500D01*
X140851384Y-131155500D01*
X141038617Y-131155500D01*
X141038618Y-131155499D01*
X141222251Y-131118973D01*
X141395231Y-131047322D01*
X141550908Y-130943302D01*
X141683302Y-130810908D01*
X141787322Y-130655231D01*
X141858973Y-130482251D01*
X141895500Y-130298616D01*
X141895500Y-130111384D01*
X141895499Y-130111379D01*
X142534500Y-130111379D01*
X142534500Y-130298620D01*
X142571025Y-130482243D01*
X142571027Y-130482251D01*
X142642676Y-130655228D01*
X142642681Y-130655237D01*
X142746697Y-130810907D01*
X142746700Y-130810911D01*
X142879088Y-130943299D01*
X142879092Y-130943302D01*
X143034762Y-131047318D01*
X143034768Y-131047321D01*
X143034769Y-131047322D01*
X143207749Y-131118973D01*
X143391379Y-131155499D01*
X143391383Y-131155500D01*
X143391384Y-131155500D01*
X143578617Y-131155500D01*
X143578618Y-131155499D01*
X143762251Y-131118973D01*
X143935231Y-131047322D01*
X144090908Y-130943302D01*
X144223302Y-130810908D01*
X144327322Y-130655231D01*
X144398973Y-130482251D01*
X144435500Y-130298616D01*
X144435500Y-130111384D01*
X144435499Y-130111379D01*
X145074500Y-130111379D01*
X145074500Y-130298620D01*
X145111025Y-130482243D01*
X145111027Y-130482251D01*
X145182676Y-130655228D01*
X145182681Y-130655237D01*
X145286697Y-130810907D01*
X145286700Y-130810911D01*
X145419088Y-130943299D01*
X145419092Y-130943302D01*
X145574762Y-131047318D01*
X145574768Y-131047321D01*
X145574769Y-131047322D01*
X145747749Y-131118973D01*
X145931379Y-131155499D01*
X145931383Y-131155500D01*
X145931384Y-131155500D01*
X146118617Y-131155500D01*
X146118618Y-131155499D01*
X146302251Y-131118973D01*
X146475231Y-131047322D01*
X146630908Y-130943302D01*
X146763302Y-130810908D01*
X146867322Y-130655231D01*
X146938973Y-130482251D01*
X146972254Y-130314933D01*
X147004637Y-130253026D01*
X147065353Y-130218452D01*
X147135122Y-130222191D01*
X147191794Y-130263057D01*
X147216343Y-130319730D01*
X147248242Y-130521127D01*
X147248242Y-130521130D01*
X147313904Y-130723217D01*
X147410375Y-130912550D01*
X147449728Y-130966716D01*
X148082037Y-130334408D01*
X148099075Y-130397993D01*
X148164901Y-130512007D01*
X148257993Y-130605099D01*
X148372007Y-130670925D01*
X148435590Y-130687962D01*
X147803282Y-131320269D01*
X147803282Y-131320270D01*
X147857449Y-131359624D01*
X148046782Y-131456095D01*
X148248870Y-131521757D01*
X148450269Y-131553656D01*
X148513404Y-131583585D01*
X148550335Y-131642897D01*
X148549337Y-131712759D01*
X148510727Y-131770992D01*
X148455062Y-131797746D01*
X148287756Y-131831025D01*
X148287748Y-131831027D01*
X148114771Y-131902676D01*
X148114762Y-131902681D01*
X147959092Y-132006697D01*
X147959088Y-132006700D01*
X147826700Y-132139088D01*
X147826697Y-132139092D01*
X147722681Y-132294762D01*
X147722676Y-132294771D01*
X147651027Y-132467748D01*
X147651025Y-132467756D01*
X147614500Y-132651379D01*
X147614500Y-132838620D01*
X147651025Y-133022243D01*
X147651027Y-133022251D01*
X147722676Y-133195228D01*
X147722681Y-133195237D01*
X147826697Y-133350907D01*
X147826700Y-133350911D01*
X147959088Y-133483299D01*
X147959092Y-133483302D01*
X148114762Y-133587318D01*
X148114768Y-133587321D01*
X148114769Y-133587322D01*
X148287749Y-133658973D01*
X148471379Y-133695499D01*
X148471383Y-133695500D01*
X148471384Y-133695500D01*
X148658617Y-133695500D01*
X148658618Y-133695499D01*
X148842251Y-133658973D01*
X149015231Y-133587322D01*
X149170908Y-133483302D01*
X149303302Y-133350908D01*
X149407322Y-133195231D01*
X149478973Y-133022251D01*
X149515500Y-132838616D01*
X149515500Y-132651384D01*
X149478973Y-132467749D01*
X149440156Y-132374038D01*
X150899500Y-132374038D01*
X150899500Y-132625962D01*
X150921309Y-132763660D01*
X150938910Y-132874785D01*
X151016760Y-133114383D01*
X151057955Y-133195231D01*
X151110157Y-133297684D01*
X151131132Y-133338848D01*
X151279201Y-133542649D01*
X151279205Y-133542654D01*
X151457345Y-133720794D01*
X151457350Y-133720798D01*
X151544019Y-133783766D01*
X151661155Y-133868870D01*
X151804184Y-133941747D01*
X151885616Y-133983239D01*
X151885618Y-133983239D01*
X151885621Y-133983241D01*
X152125215Y-134061090D01*
X152374038Y-134100500D01*
X152374039Y-134100500D01*
X152625961Y-134100500D01*
X152625962Y-134100500D01*
X152874785Y-134061090D01*
X153114379Y-133983241D01*
X153338845Y-133868870D01*
X153542656Y-133720793D01*
X153720793Y-133542656D01*
X153868870Y-133338845D01*
X153983241Y-133114379D01*
X154061090Y-132874785D01*
X154100500Y-132625962D01*
X154100500Y-132374038D01*
X154061090Y-132125215D01*
X153983241Y-131885621D01*
X153983239Y-131885618D01*
X153983239Y-131885616D01*
X153941747Y-131804184D01*
X153868870Y-131661155D01*
X153767592Y-131521757D01*
X153720798Y-131457350D01*
X153720794Y-131457345D01*
X153542654Y-131279205D01*
X153542649Y-131279201D01*
X153338848Y-131131132D01*
X153338847Y-131131131D01*
X153338845Y-131131130D01*
X153268747Y-131095413D01*
X153114383Y-131016760D01*
X152874785Y-130938910D01*
X152625962Y-130899500D01*
X152374038Y-130899500D01*
X152291619Y-130912554D01*
X152125214Y-130938910D01*
X151885616Y-131016760D01*
X151661151Y-131131132D01*
X151457350Y-131279201D01*
X151457345Y-131279205D01*
X151279205Y-131457345D01*
X151279201Y-131457350D01*
X151131132Y-131661151D01*
X151016760Y-131885616D01*
X150938910Y-132125214D01*
X150938910Y-132125215D01*
X150899500Y-132374038D01*
X149440156Y-132374038D01*
X149407322Y-132294769D01*
X149407321Y-132294768D01*
X149407318Y-132294762D01*
X149303302Y-132139092D01*
X149303299Y-132139088D01*
X149170911Y-132006700D01*
X149170907Y-132006697D01*
X149015237Y-131902681D01*
X149015228Y-131902676D01*
X148842251Y-131831027D01*
X148842243Y-131831025D01*
X148674937Y-131797746D01*
X148613026Y-131765361D01*
X148578452Y-131704646D01*
X148582191Y-131634876D01*
X148623057Y-131578204D01*
X148679730Y-131553656D01*
X148881127Y-131521757D01*
X148881130Y-131521757D01*
X149083217Y-131456095D01*
X149272554Y-131359622D01*
X149326716Y-131320270D01*
X149326717Y-131320270D01*
X148694408Y-130687962D01*
X148757993Y-130670925D01*
X148872007Y-130605099D01*
X148965099Y-130512007D01*
X149030925Y-130397993D01*
X149047962Y-130334408D01*
X149680270Y-130966717D01*
X149680270Y-130966716D01*
X149719622Y-130912554D01*
X149816095Y-130723217D01*
X149881757Y-130521130D01*
X149881757Y-130521127D01*
X149915000Y-130311246D01*
X149915000Y-130098753D01*
X149881757Y-129888872D01*
X149881757Y-129888869D01*
X149816095Y-129686782D01*
X149719624Y-129497449D01*
X149680270Y-129443282D01*
X149680269Y-129443282D01*
X149047962Y-130075590D01*
X149030925Y-130012007D01*
X148965099Y-129897993D01*
X148872007Y-129804901D01*
X148757993Y-129739075D01*
X148694409Y-129722037D01*
X149326716Y-129089728D01*
X149272550Y-129050375D01*
X149083217Y-128953904D01*
X148881129Y-128888242D01*
X148671246Y-128855000D01*
X148458754Y-128855000D01*
X148248872Y-128888242D01*
X148248869Y-128888242D01*
X148046782Y-128953904D01*
X147857439Y-129050380D01*
X147803282Y-129089727D01*
X147803282Y-129089728D01*
X148435591Y-129722037D01*
X148372007Y-129739075D01*
X148257993Y-129804901D01*
X148164901Y-129897993D01*
X148099075Y-130012007D01*
X148082037Y-130075591D01*
X147449728Y-129443282D01*
X147449727Y-129443282D01*
X147410380Y-129497439D01*
X147313904Y-129686782D01*
X147248242Y-129888869D01*
X147248242Y-129888872D01*
X147216343Y-130090269D01*
X147186413Y-130153404D01*
X147127102Y-130190335D01*
X147057239Y-130189337D01*
X146999007Y-130150727D01*
X146972254Y-130095065D01*
X146938973Y-129927749D01*
X146867322Y-129754769D01*
X146867321Y-129754768D01*
X146867318Y-129754762D01*
X146763302Y-129599092D01*
X146763299Y-129599088D01*
X146630911Y-129466700D01*
X146630907Y-129466697D01*
X146475237Y-129362681D01*
X146475228Y-129362676D01*
X146302251Y-129291027D01*
X146302243Y-129291025D01*
X146139251Y-129258604D01*
X146118620Y-129254500D01*
X146118616Y-129254500D01*
X145931384Y-129254500D01*
X145931379Y-129254500D01*
X145747756Y-129291025D01*
X145747748Y-129291027D01*
X145574771Y-129362676D01*
X145574762Y-129362681D01*
X145419092Y-129466697D01*
X145419088Y-129466700D01*
X145286700Y-129599088D01*
X145286697Y-129599092D01*
X145182681Y-129754762D01*
X145182676Y-129754771D01*
X145111027Y-129927748D01*
X145111025Y-129927756D01*
X145074500Y-130111379D01*
X144435499Y-130111379D01*
X144398973Y-129927749D01*
X144327322Y-129754769D01*
X144327321Y-129754768D01*
X144327318Y-129754762D01*
X144223302Y-129599092D01*
X144223299Y-129599088D01*
X144090911Y-129466700D01*
X144090907Y-129466697D01*
X143935237Y-129362681D01*
X143935228Y-129362676D01*
X143762251Y-129291027D01*
X143762243Y-129291025D01*
X143578620Y-129254500D01*
X143578616Y-129254500D01*
X143391384Y-129254500D01*
X143391379Y-129254500D01*
X143207756Y-129291025D01*
X143207748Y-129291027D01*
X143034771Y-129362676D01*
X143034762Y-129362681D01*
X142879092Y-129466697D01*
X142879088Y-129466700D01*
X142746700Y-129599088D01*
X142746697Y-129599092D01*
X142642681Y-129754762D01*
X142642676Y-129754771D01*
X142571027Y-129927748D01*
X142571025Y-129927756D01*
X142534500Y-130111379D01*
X141895499Y-130111379D01*
X141858973Y-129927749D01*
X141787322Y-129754769D01*
X141787321Y-129754768D01*
X141787318Y-129754762D01*
X141683302Y-129599092D01*
X141683299Y-129599088D01*
X141550911Y-129466700D01*
X141550907Y-129466697D01*
X141395237Y-129362681D01*
X141395228Y-129362676D01*
X141222251Y-129291027D01*
X141222243Y-129291025D01*
X141038620Y-129254500D01*
X141038616Y-129254500D01*
X140851384Y-129254500D01*
X140851379Y-129254500D01*
X140667756Y-129291025D01*
X140667748Y-129291027D01*
X140494771Y-129362676D01*
X140494762Y-129362681D01*
X140339092Y-129466697D01*
X140339088Y-129466700D01*
X140206700Y-129599088D01*
X140206697Y-129599092D01*
X140102681Y-129754762D01*
X140102676Y-129754771D01*
X140031027Y-129927748D01*
X140031025Y-129927756D01*
X139994500Y-130111379D01*
X139355499Y-130111379D01*
X139318973Y-129927749D01*
X139247322Y-129754769D01*
X139247321Y-129754768D01*
X139247318Y-129754762D01*
X139143302Y-129599092D01*
X139143299Y-129599088D01*
X139010911Y-129466700D01*
X139010907Y-129466697D01*
X138855237Y-129362681D01*
X138855228Y-129362676D01*
X138682251Y-129291027D01*
X138682243Y-129291025D01*
X138498620Y-129254500D01*
X138498616Y-129254500D01*
X138311384Y-129254500D01*
X138311379Y-129254500D01*
X138127756Y-129291025D01*
X138127748Y-129291027D01*
X137954771Y-129362676D01*
X137954762Y-129362681D01*
X137799092Y-129466697D01*
X137799088Y-129466700D01*
X137666700Y-129599088D01*
X137666697Y-129599092D01*
X137562681Y-129754762D01*
X137562676Y-129754771D01*
X137491027Y-129927748D01*
X137491025Y-129927756D01*
X137454500Y-130111379D01*
X136815499Y-130111379D01*
X136778973Y-129927749D01*
X136707322Y-129754769D01*
X136707321Y-129754768D01*
X136707318Y-129754762D01*
X136603302Y-129599092D01*
X136603299Y-129599088D01*
X136470911Y-129466700D01*
X136470907Y-129466697D01*
X136315237Y-129362681D01*
X136315228Y-129362676D01*
X136142251Y-129291027D01*
X136142243Y-129291025D01*
X135958620Y-129254500D01*
X135958616Y-129254500D01*
X135771384Y-129254500D01*
X135771379Y-129254500D01*
X135587756Y-129291025D01*
X135587748Y-129291027D01*
X135414771Y-129362676D01*
X135414762Y-129362681D01*
X135259092Y-129466697D01*
X135259088Y-129466700D01*
X135126700Y-129599088D01*
X135126697Y-129599092D01*
X135020505Y-129758020D01*
X134966893Y-129802825D01*
X134949497Y-129808904D01*
X134845411Y-129836793D01*
X134845410Y-129836794D01*
X134754085Y-129889521D01*
X134679521Y-129964085D01*
X134626794Y-130055410D01*
X134626793Y-130055413D01*
X134599500Y-130157273D01*
X134275500Y-130157273D01*
X134275500Y-130111384D01*
X134238973Y-129927749D01*
X134167322Y-129754769D01*
X134167321Y-129754768D01*
X134167318Y-129754762D01*
X134063302Y-129599092D01*
X134063299Y-129599088D01*
X133930911Y-129466700D01*
X133930907Y-129466697D01*
X133775237Y-129362681D01*
X133775228Y-129362676D01*
X133602251Y-129291027D01*
X133602243Y-129291025D01*
X133418620Y-129254500D01*
X133418616Y-129254500D01*
X133231384Y-129254500D01*
X133231379Y-129254500D01*
X133047756Y-129291025D01*
X133047748Y-129291027D01*
X132874771Y-129362676D01*
X132874762Y-129362681D01*
X132719092Y-129466697D01*
X132719088Y-129466700D01*
X132586700Y-129599088D01*
X132586697Y-129599092D01*
X132482681Y-129754762D01*
X132482676Y-129754771D01*
X132411027Y-129927748D01*
X132411025Y-129927756D01*
X132374500Y-130111379D01*
X131735499Y-130111379D01*
X131698973Y-129927749D01*
X131627322Y-129754769D01*
X131627321Y-129754768D01*
X131627318Y-129754762D01*
X131523302Y-129599092D01*
X131523299Y-129599088D01*
X131390911Y-129466700D01*
X131390907Y-129466697D01*
X131235237Y-129362681D01*
X131235228Y-129362676D01*
X131062251Y-129291027D01*
X131062243Y-129291025D01*
X130878620Y-129254500D01*
X130878616Y-129254500D01*
X130691384Y-129254500D01*
X130691379Y-129254500D01*
X130507756Y-129291025D01*
X130507748Y-129291027D01*
X130334771Y-129362676D01*
X130334762Y-129362681D01*
X130179092Y-129466697D01*
X130179088Y-129466700D01*
X130046700Y-129599088D01*
X130046697Y-129599092D01*
X129942681Y-129754762D01*
X129942676Y-129754771D01*
X129871027Y-129927748D01*
X129871025Y-129927756D01*
X129834500Y-130111379D01*
X129195499Y-130111379D01*
X129158973Y-129927749D01*
X129087322Y-129754769D01*
X129087321Y-129754768D01*
X129087318Y-129754762D01*
X128983302Y-129599092D01*
X128983299Y-129599088D01*
X128850911Y-129466700D01*
X128850907Y-129466697D01*
X128695237Y-129362681D01*
X128695228Y-129362676D01*
X128522251Y-129291027D01*
X128522243Y-129291025D01*
X128338620Y-129254500D01*
X128338616Y-129254500D01*
X128151384Y-129254500D01*
X128151379Y-129254500D01*
X127967756Y-129291025D01*
X127967748Y-129291027D01*
X127794771Y-129362676D01*
X127794762Y-129362681D01*
X127639092Y-129466697D01*
X127639088Y-129466700D01*
X127506700Y-129599088D01*
X127506697Y-129599092D01*
X127402681Y-129754762D01*
X127402676Y-129754771D01*
X127331027Y-129927748D01*
X127331025Y-129927756D01*
X127294500Y-130111379D01*
X126655499Y-130111379D01*
X126618973Y-129927749D01*
X126547322Y-129754769D01*
X126547321Y-129754768D01*
X126547318Y-129754762D01*
X126443302Y-129599092D01*
X126443299Y-129599088D01*
X126310911Y-129466700D01*
X126310907Y-129466697D01*
X126155237Y-129362681D01*
X126155228Y-129362676D01*
X125982251Y-129291027D01*
X125982243Y-129291025D01*
X125798620Y-129254500D01*
X125798616Y-129254500D01*
X125611384Y-129254500D01*
X125611379Y-129254500D01*
X125427756Y-129291025D01*
X125427748Y-129291027D01*
X125254771Y-129362676D01*
X125254762Y-129362681D01*
X125099092Y-129466697D01*
X125099088Y-129466700D01*
X124966700Y-129599088D01*
X124966697Y-129599092D01*
X124862681Y-129754762D01*
X124862676Y-129754771D01*
X124791027Y-129927748D01*
X124791025Y-129927756D01*
X124754500Y-130111379D01*
X124115499Y-130111379D01*
X124078973Y-129927749D01*
X124007322Y-129754769D01*
X124007321Y-129754768D01*
X124007318Y-129754762D01*
X123903302Y-129599092D01*
X123903299Y-129599088D01*
X123770911Y-129466700D01*
X123770907Y-129466697D01*
X123615237Y-129362681D01*
X123615228Y-129362676D01*
X123442251Y-129291027D01*
X123442243Y-129291025D01*
X123258620Y-129254500D01*
X123258616Y-129254500D01*
X123071384Y-129254500D01*
X123071379Y-129254500D01*
X122887756Y-129291025D01*
X122887748Y-129291027D01*
X122714771Y-129362676D01*
X122714762Y-129362681D01*
X122559092Y-129466697D01*
X122559088Y-129466700D01*
X122426700Y-129599088D01*
X122426697Y-129599092D01*
X122322681Y-129754762D01*
X122322676Y-129754771D01*
X122251027Y-129927748D01*
X122251025Y-129927756D01*
X122214500Y-130111379D01*
X121575499Y-130111379D01*
X121538973Y-129927749D01*
X121467322Y-129754769D01*
X121467321Y-129754768D01*
X121467318Y-129754762D01*
X121363302Y-129599092D01*
X121363299Y-129599088D01*
X121230911Y-129466700D01*
X121230907Y-129466697D01*
X121075237Y-129362681D01*
X121075228Y-129362676D01*
X120902251Y-129291027D01*
X120902243Y-129291025D01*
X120718620Y-129254500D01*
X120718616Y-129254500D01*
X120531384Y-129254500D01*
X120531379Y-129254500D01*
X120347756Y-129291025D01*
X120347748Y-129291027D01*
X120174771Y-129362676D01*
X120174762Y-129362681D01*
X120019092Y-129466697D01*
X120019088Y-129466700D01*
X119886700Y-129599088D01*
X119886697Y-129599092D01*
X119782681Y-129754762D01*
X119782676Y-129754771D01*
X119711027Y-129927748D01*
X119711025Y-129927756D01*
X119674500Y-130111379D01*
X119035499Y-130111379D01*
X118998973Y-129927749D01*
X118927322Y-129754769D01*
X118927321Y-129754768D01*
X118927318Y-129754762D01*
X118823302Y-129599092D01*
X118823299Y-129599088D01*
X118690911Y-129466700D01*
X118690907Y-129466697D01*
X118535237Y-129362681D01*
X118535228Y-129362676D01*
X118362251Y-129291027D01*
X118362243Y-129291025D01*
X118178620Y-129254500D01*
X118178616Y-129254500D01*
X117991384Y-129254500D01*
X117991379Y-129254500D01*
X117807756Y-129291025D01*
X117807748Y-129291027D01*
X117634771Y-129362676D01*
X117634762Y-129362681D01*
X117479092Y-129466697D01*
X117479088Y-129466700D01*
X117346700Y-129599088D01*
X117346697Y-129599092D01*
X117242681Y-129754762D01*
X117242676Y-129754771D01*
X117171027Y-129927748D01*
X117171025Y-129927756D01*
X117134500Y-130111379D01*
X116495499Y-130111379D01*
X116458973Y-129927749D01*
X116387322Y-129754769D01*
X116387321Y-129754768D01*
X116387318Y-129754762D01*
X116283302Y-129599092D01*
X116283299Y-129599088D01*
X116150911Y-129466700D01*
X116150907Y-129466697D01*
X115995237Y-129362681D01*
X115995228Y-129362676D01*
X115822251Y-129291027D01*
X115822243Y-129291025D01*
X115638620Y-129254500D01*
X115638616Y-129254500D01*
X115451384Y-129254500D01*
X115451379Y-129254500D01*
X115267756Y-129291025D01*
X115267748Y-129291027D01*
X115094771Y-129362676D01*
X115094762Y-129362681D01*
X114939092Y-129466697D01*
X114939088Y-129466700D01*
X114806700Y-129599088D01*
X114806697Y-129599092D01*
X114702681Y-129754762D01*
X114702676Y-129754771D01*
X114631027Y-129927748D01*
X114631025Y-129927756D01*
X114594500Y-130111379D01*
X113955499Y-130111379D01*
X113918973Y-129927749D01*
X113847322Y-129754769D01*
X113847321Y-129754768D01*
X113847318Y-129754762D01*
X113743302Y-129599092D01*
X113743299Y-129599088D01*
X113610911Y-129466700D01*
X113610907Y-129466697D01*
X113455237Y-129362681D01*
X113455228Y-129362676D01*
X113282251Y-129291027D01*
X113282243Y-129291025D01*
X113098620Y-129254500D01*
X113098616Y-129254500D01*
X112911384Y-129254500D01*
X112911379Y-129254500D01*
X112727756Y-129291025D01*
X112727748Y-129291027D01*
X112554771Y-129362676D01*
X112554762Y-129362681D01*
X112399092Y-129466697D01*
X112399088Y-129466700D01*
X112266700Y-129599088D01*
X112266697Y-129599092D01*
X112162681Y-129754762D01*
X112162676Y-129754771D01*
X112091027Y-129927748D01*
X112091025Y-129927756D01*
X112054500Y-130111379D01*
X111415499Y-130111379D01*
X111378973Y-129927749D01*
X111307322Y-129754769D01*
X111307321Y-129754768D01*
X111307318Y-129754762D01*
X111203302Y-129599092D01*
X111203299Y-129599088D01*
X111070911Y-129466700D01*
X111070907Y-129466697D01*
X110915237Y-129362681D01*
X110915228Y-129362676D01*
X110742251Y-129291027D01*
X110742243Y-129291025D01*
X110558620Y-129254500D01*
X110558616Y-129254500D01*
X110371384Y-129254500D01*
X110371379Y-129254500D01*
X110187756Y-129291025D01*
X110187748Y-129291027D01*
X110014771Y-129362676D01*
X110014762Y-129362681D01*
X109859092Y-129466697D01*
X109859088Y-129466700D01*
X109726700Y-129599088D01*
X109726697Y-129599092D01*
X109622681Y-129754762D01*
X109622676Y-129754771D01*
X109551027Y-129927748D01*
X109551025Y-129927756D01*
X109514500Y-130111379D01*
X108875499Y-130111379D01*
X108838973Y-129927749D01*
X108767322Y-129754769D01*
X108767321Y-129754768D01*
X108767318Y-129754762D01*
X108663302Y-129599092D01*
X108663299Y-129599088D01*
X108530911Y-129466700D01*
X108530907Y-129466697D01*
X108375237Y-129362681D01*
X108375228Y-129362676D01*
X108202251Y-129291027D01*
X108202243Y-129291025D01*
X108018620Y-129254500D01*
X108018616Y-129254500D01*
X107831384Y-129254500D01*
X107831379Y-129254500D01*
X107647756Y-129291025D01*
X107647748Y-129291027D01*
X107474771Y-129362676D01*
X107474762Y-129362681D01*
X107319092Y-129466697D01*
X107319088Y-129466700D01*
X107186700Y-129599088D01*
X107186697Y-129599092D01*
X107082681Y-129754762D01*
X107082676Y-129754771D01*
X107011027Y-129927748D01*
X107011025Y-129927756D01*
X106974500Y-130111379D01*
X106335499Y-130111379D01*
X106298973Y-129927749D01*
X106227322Y-129754769D01*
X106227321Y-129754768D01*
X106227318Y-129754762D01*
X106123302Y-129599092D01*
X106123299Y-129599088D01*
X105990911Y-129466700D01*
X105990907Y-129466697D01*
X105835237Y-129362681D01*
X105835228Y-129362676D01*
X105662251Y-129291027D01*
X105662243Y-129291025D01*
X105478620Y-129254500D01*
X105478616Y-129254500D01*
X105291384Y-129254500D01*
X105291379Y-129254500D01*
X105107756Y-129291025D01*
X105107748Y-129291027D01*
X104934771Y-129362676D01*
X104934762Y-129362681D01*
X104779092Y-129466697D01*
X104779088Y-129466700D01*
X104646700Y-129599088D01*
X104646697Y-129599092D01*
X104542681Y-129754762D01*
X104542676Y-129754771D01*
X104471027Y-129927748D01*
X104471025Y-129927756D01*
X104434500Y-130111379D01*
X100250500Y-130111379D01*
X100250500Y-123647273D01*
X139199500Y-123647273D01*
X139199500Y-123752727D01*
X139226793Y-123854587D01*
X139279520Y-123945913D01*
X139354087Y-124020480D01*
X139445413Y-124073207D01*
X139547273Y-124100500D01*
X139547275Y-124100500D01*
X139652725Y-124100500D01*
X139652727Y-124100500D01*
X139754587Y-124073207D01*
X139845913Y-124020480D01*
X139920480Y-123945913D01*
X139973207Y-123854587D01*
X140000500Y-123752727D01*
X140000500Y-123647273D01*
X139973207Y-123545413D01*
X139920480Y-123454087D01*
X139845913Y-123379520D01*
X139754587Y-123326793D01*
X139652727Y-123299500D01*
X139547273Y-123299500D01*
X139445413Y-123326793D01*
X139445410Y-123326794D01*
X139354085Y-123379521D01*
X139279521Y-123454085D01*
X139226794Y-123545410D01*
X139226793Y-123545413D01*
X139199500Y-123647273D01*
X100250500Y-123647273D01*
X100250500Y-122872844D01*
X121175000Y-122872844D01*
X121181401Y-122932372D01*
X121181403Y-122932379D01*
X121231645Y-123067086D01*
X121231649Y-123067093D01*
X121317809Y-123182187D01*
X121317812Y-123182190D01*
X121432906Y-123268350D01*
X121432913Y-123268354D01*
X121567620Y-123318596D01*
X121567627Y-123318598D01*
X121627155Y-123324999D01*
X121627172Y-123325000D01*
X124250000Y-123325000D01*
X124750000Y-123325000D01*
X127372828Y-123325000D01*
X127372844Y-123324999D01*
X127432372Y-123318598D01*
X127432379Y-123318596D01*
X127567086Y-123268354D01*
X127567093Y-123268350D01*
X127682187Y-123182190D01*
X127682190Y-123182187D01*
X127768350Y-123067093D01*
X127768354Y-123067086D01*
X127818596Y-122932379D01*
X127818598Y-122932372D01*
X127824999Y-122872844D01*
X127825000Y-122872827D01*
X127825000Y-120947273D01*
X139619500Y-120947273D01*
X139619500Y-121052727D01*
X139646793Y-121154587D01*
X139699520Y-121245913D01*
X139774087Y-121320480D01*
X139865413Y-121373207D01*
X139967273Y-121400500D01*
X139967275Y-121400500D01*
X140072725Y-121400500D01*
X140072727Y-121400500D01*
X140174587Y-121373207D01*
X140265913Y-121320480D01*
X140340480Y-121245913D01*
X140393207Y-121154587D01*
X140420500Y-121052727D01*
X140420500Y-120947273D01*
X140393207Y-120845413D01*
X140340480Y-120754087D01*
X140265913Y-120679520D01*
X140174587Y-120626793D01*
X140072727Y-120599500D01*
X139967273Y-120599500D01*
X139865413Y-120626793D01*
X139865410Y-120626794D01*
X139774085Y-120679521D01*
X139699521Y-120754085D01*
X139646794Y-120845410D01*
X139646793Y-120845413D01*
X139619500Y-120947273D01*
X127825000Y-120947273D01*
X127825000Y-120250000D01*
X124750000Y-120250000D01*
X124750000Y-123325000D01*
X124250000Y-123325000D01*
X124250000Y-120250000D01*
X121175000Y-120250000D01*
X121175000Y-122872844D01*
X100250500Y-122872844D01*
X100250500Y-119950272D01*
X124250000Y-119950272D01*
X124250000Y-120049728D01*
X124288060Y-120141614D01*
X124358386Y-120211940D01*
X124450272Y-120250000D01*
X124549728Y-120250000D01*
X124641614Y-120211940D01*
X124711940Y-120141614D01*
X124750000Y-120049728D01*
X124750000Y-119950272D01*
X124711940Y-119858386D01*
X124641614Y-119788060D01*
X124549728Y-119750000D01*
X124750000Y-119750000D01*
X127825000Y-119750000D01*
X127825000Y-117127172D01*
X127824999Y-117127155D01*
X127818598Y-117067627D01*
X127818596Y-117067620D01*
X127768354Y-116932913D01*
X127768350Y-116932906D01*
X127682190Y-116817812D01*
X127682187Y-116817809D01*
X127567093Y-116731649D01*
X127567086Y-116731645D01*
X127432379Y-116681403D01*
X127432372Y-116681401D01*
X127372844Y-116675000D01*
X124750000Y-116675000D01*
X124750000Y-119750000D01*
X124549728Y-119750000D01*
X124450272Y-119750000D01*
X124358386Y-119788060D01*
X124288060Y-119858386D01*
X124250000Y-119950272D01*
X100250500Y-119950272D01*
X100250500Y-117127155D01*
X121175000Y-117127155D01*
X121175000Y-119750000D01*
X124250000Y-119750000D01*
X124250000Y-116675000D01*
X121627155Y-116675000D01*
X121567627Y-116681401D01*
X121567620Y-116681403D01*
X121432913Y-116731645D01*
X121432906Y-116731649D01*
X121317812Y-116817809D01*
X121317809Y-116817812D01*
X121231649Y-116932906D01*
X121231645Y-116932913D01*
X121181403Y-117067620D01*
X121181401Y-117067627D01*
X121175000Y-117127155D01*
X100250500Y-117127155D01*
X100250500Y-112725073D01*
X115209200Y-112725073D01*
X115209200Y-112830527D01*
X115236493Y-112932387D01*
X115289220Y-113023713D01*
X115363787Y-113098280D01*
X115455113Y-113151007D01*
X115556973Y-113178300D01*
X115556975Y-113178300D01*
X115662425Y-113178300D01*
X115662427Y-113178300D01*
X115764287Y-113151007D01*
X115855613Y-113098280D01*
X115930180Y-113023713D01*
X115982907Y-112932387D01*
X116010200Y-112830527D01*
X116010200Y-112725073D01*
X115982907Y-112623213D01*
X115930180Y-112531887D01*
X115855613Y-112457320D01*
X115764287Y-112404593D01*
X115662427Y-112377300D01*
X115556973Y-112377300D01*
X115455113Y-112404593D01*
X115455110Y-112404594D01*
X115363785Y-112457321D01*
X115289221Y-112531885D01*
X115236494Y-112623210D01*
X115236493Y-112623213D01*
X115209200Y-112725073D01*
X100250500Y-112725073D01*
X100250500Y-109434108D01*
X131499500Y-109434108D01*
X131499500Y-109565892D01*
X131512121Y-109612993D01*
X131533608Y-109693187D01*
X131557791Y-109735072D01*
X131599500Y-109807314D01*
X131692686Y-109900500D01*
X131806814Y-109966392D01*
X131934108Y-110000500D01*
X131934110Y-110000500D01*
X132065890Y-110000500D01*
X132065892Y-110000500D01*
X132193186Y-109966392D01*
X132307314Y-109900500D01*
X132400500Y-109807314D01*
X132466392Y-109693186D01*
X132500500Y-109565892D01*
X132500500Y-109434108D01*
X135279241Y-109434108D01*
X135279241Y-109565892D01*
X135291862Y-109612993D01*
X135313349Y-109693187D01*
X135337532Y-109735072D01*
X135379241Y-109807314D01*
X135472427Y-109900500D01*
X135586555Y-109966392D01*
X135713849Y-110000500D01*
X135713851Y-110000500D01*
X135845631Y-110000500D01*
X135845633Y-110000500D01*
X135972927Y-109966392D01*
X136087055Y-109900500D01*
X136180241Y-109807314D01*
X136183340Y-109801947D01*
X151000000Y-109801947D01*
X151000000Y-110038052D01*
X151036934Y-110271247D01*
X151109897Y-110495802D01*
X151217087Y-110706174D01*
X151277338Y-110789104D01*
X151277340Y-110789105D01*
X152017037Y-110049408D01*
X152034075Y-110112993D01*
X152099901Y-110227007D01*
X152192993Y-110320099D01*
X152307007Y-110385925D01*
X152370590Y-110402962D01*
X151630893Y-111142658D01*
X151713828Y-111202914D01*
X151924197Y-111310102D01*
X152148752Y-111383065D01*
X152153489Y-111384203D01*
X152153139Y-111385657D01*
X152210266Y-111412731D01*
X152247203Y-111472040D01*
X152246212Y-111541902D01*
X152207607Y-111600138D01*
X152175195Y-111619844D01*
X152073455Y-111661985D01*
X152073446Y-111661990D01*
X151925965Y-111760535D01*
X151925961Y-111760538D01*
X151800538Y-111885961D01*
X151800535Y-111885965D01*
X151701990Y-112033446D01*
X151701983Y-112033459D01*
X151634106Y-112197332D01*
X151634103Y-112197341D01*
X151599500Y-112371304D01*
X151599500Y-112548695D01*
X151634103Y-112722658D01*
X151634106Y-112722667D01*
X151701983Y-112886540D01*
X151701990Y-112886553D01*
X151800535Y-113034034D01*
X151800538Y-113034038D01*
X151925961Y-113159461D01*
X151925965Y-113159464D01*
X152073446Y-113258009D01*
X152073458Y-113258016D01*
X152170284Y-113298121D01*
X152175191Y-113300154D01*
X152175194Y-113300155D01*
X152229598Y-113343995D01*
X152251663Y-113410289D01*
X152234384Y-113477989D01*
X152183248Y-113525599D01*
X152153345Y-113535200D01*
X152153489Y-113535797D01*
X152148752Y-113536934D01*
X151924197Y-113609897D01*
X151713830Y-113717084D01*
X151630894Y-113777340D01*
X152370591Y-114517037D01*
X152307007Y-114534075D01*
X152192993Y-114599901D01*
X152099901Y-114692993D01*
X152034075Y-114807007D01*
X152017037Y-114870591D01*
X151277340Y-114130894D01*
X151217084Y-114213830D01*
X151109897Y-114424197D01*
X151036934Y-114648752D01*
X151000000Y-114881947D01*
X151000000Y-115118052D01*
X151036934Y-115351247D01*
X151109897Y-115575802D01*
X151217087Y-115786174D01*
X151277338Y-115869104D01*
X151277340Y-115869105D01*
X152017037Y-115129408D01*
X152034075Y-115192993D01*
X152099901Y-115307007D01*
X152192993Y-115400099D01*
X152307007Y-115465925D01*
X152370590Y-115482962D01*
X151630893Y-116222658D01*
X151713828Y-116282914D01*
X151924197Y-116390102D01*
X152148752Y-116463065D01*
X152148751Y-116463065D01*
X152381948Y-116500000D01*
X152618052Y-116500000D01*
X152851247Y-116463065D01*
X153075802Y-116390102D01*
X153286163Y-116282918D01*
X153286169Y-116282914D01*
X153369104Y-116222658D01*
X153369105Y-116222658D01*
X152629408Y-115482962D01*
X152692993Y-115465925D01*
X152807007Y-115400099D01*
X152900099Y-115307007D01*
X152965925Y-115192993D01*
X152982962Y-115129408D01*
X153722658Y-115869105D01*
X153722658Y-115869104D01*
X153782914Y-115786169D01*
X153782918Y-115786163D01*
X153890102Y-115575802D01*
X153963065Y-115351247D01*
X154000000Y-115118052D01*
X154000000Y-114881947D01*
X153963065Y-114648752D01*
X153890102Y-114424197D01*
X153782914Y-114213828D01*
X153722658Y-114130894D01*
X153722658Y-114130893D01*
X152982962Y-114870590D01*
X152965925Y-114807007D01*
X152900099Y-114692993D01*
X152807007Y-114599901D01*
X152692993Y-114534075D01*
X152629409Y-114517037D01*
X153369105Y-113777340D01*
X153369104Y-113777338D01*
X153286174Y-113717087D01*
X153075802Y-113609897D01*
X152851247Y-113536934D01*
X152846511Y-113535797D01*
X152846858Y-113534349D01*
X152789709Y-113507246D01*
X152752788Y-113447929D01*
X152753797Y-113378066D01*
X152792416Y-113319840D01*
X152824800Y-113300157D01*
X152926547Y-113258013D01*
X153074035Y-113159464D01*
X153199464Y-113034035D01*
X153298013Y-112886547D01*
X153365894Y-112722666D01*
X153400500Y-112548691D01*
X153400500Y-112371309D01*
X153400500Y-112371306D01*
X153400499Y-112371304D01*
X153365896Y-112197341D01*
X153365893Y-112197332D01*
X153298016Y-112033459D01*
X153298009Y-112033446D01*
X153199464Y-111885965D01*
X153199461Y-111885961D01*
X153074038Y-111760538D01*
X153074034Y-111760535D01*
X152926553Y-111661990D01*
X152926540Y-111661983D01*
X152824805Y-111619844D01*
X152770401Y-111576003D01*
X152748336Y-111509709D01*
X152765615Y-111442010D01*
X152816752Y-111394399D01*
X152846655Y-111384803D01*
X152846511Y-111384203D01*
X152851247Y-111383065D01*
X153075802Y-111310102D01*
X153286163Y-111202918D01*
X153286169Y-111202914D01*
X153369104Y-111142658D01*
X153369105Y-111142658D01*
X152629408Y-110402962D01*
X152692993Y-110385925D01*
X152807007Y-110320099D01*
X152900099Y-110227007D01*
X152965925Y-110112993D01*
X152982962Y-110049408D01*
X153722658Y-110789105D01*
X153722658Y-110789104D01*
X153782914Y-110706169D01*
X153782918Y-110706163D01*
X153890102Y-110495802D01*
X153963065Y-110271247D01*
X154000000Y-110038052D01*
X154000000Y-109801947D01*
X153963065Y-109568752D01*
X153890102Y-109344197D01*
X153782914Y-109133828D01*
X153722658Y-109050894D01*
X153722658Y-109050893D01*
X152982962Y-109790590D01*
X152965925Y-109727007D01*
X152900099Y-109612993D01*
X152807007Y-109519901D01*
X152692993Y-109454075D01*
X152629409Y-109437037D01*
X153369105Y-108697340D01*
X153369104Y-108697338D01*
X153286174Y-108637087D01*
X153075802Y-108529897D01*
X152851247Y-108456934D01*
X152851248Y-108456934D01*
X152618052Y-108420000D01*
X152381948Y-108420000D01*
X152148752Y-108456934D01*
X151924197Y-108529897D01*
X151713830Y-108637084D01*
X151630894Y-108697340D01*
X152370591Y-109437037D01*
X152307007Y-109454075D01*
X152192993Y-109519901D01*
X152099901Y-109612993D01*
X152034075Y-109727007D01*
X152017037Y-109790591D01*
X151277340Y-109050894D01*
X151217084Y-109133830D01*
X151109897Y-109344197D01*
X151036934Y-109568752D01*
X151000000Y-109801947D01*
X136183340Y-109801947D01*
X136246133Y-109693186D01*
X136280241Y-109565892D01*
X136280241Y-109434108D01*
X136246133Y-109306814D01*
X136180241Y-109192686D01*
X136087055Y-109099500D01*
X136029991Y-109066554D01*
X135972928Y-109033608D01*
X135909280Y-109016554D01*
X135845633Y-108999500D01*
X135713849Y-108999500D01*
X135586553Y-109033608D01*
X135472427Y-109099500D01*
X135472424Y-109099502D01*
X135379243Y-109192683D01*
X135379241Y-109192686D01*
X135313349Y-109306812D01*
X135303332Y-109344197D01*
X135279241Y-109434108D01*
X132500500Y-109434108D01*
X132466392Y-109306814D01*
X132400500Y-109192686D01*
X132307314Y-109099500D01*
X132250250Y-109066554D01*
X132193187Y-109033608D01*
X132129539Y-109016554D01*
X132065892Y-108999500D01*
X131934108Y-108999500D01*
X131806812Y-109033608D01*
X131692686Y-109099500D01*
X131692683Y-109099502D01*
X131599502Y-109192683D01*
X131599500Y-109192686D01*
X131533608Y-109306812D01*
X131523591Y-109344197D01*
X131499500Y-109434108D01*
X100250500Y-109434108D01*
X100250500Y-108684108D01*
X129499500Y-108684108D01*
X129499500Y-108815891D01*
X129533608Y-108943187D01*
X129566121Y-108999500D01*
X129599500Y-109057314D01*
X129692686Y-109150500D01*
X129806814Y-109216392D01*
X129934108Y-109250500D01*
X129934110Y-109250500D01*
X130065890Y-109250500D01*
X130065892Y-109250500D01*
X130193186Y-109216392D01*
X130307314Y-109150500D01*
X130400500Y-109057314D01*
X130466392Y-108943186D01*
X130500500Y-108815892D01*
X130500500Y-108684108D01*
X130466392Y-108556814D01*
X130400500Y-108442686D01*
X130307314Y-108349500D01*
X130250250Y-108316554D01*
X130193187Y-108283608D01*
X130129539Y-108266554D01*
X130065892Y-108249500D01*
X129934108Y-108249500D01*
X129806812Y-108283608D01*
X129692686Y-108349500D01*
X129692683Y-108349502D01*
X129599502Y-108442683D01*
X129599500Y-108442686D01*
X129533608Y-108556812D01*
X129499500Y-108684108D01*
X100250500Y-108684108D01*
X100250500Y-102503750D01*
X100250726Y-102496263D01*
X100258119Y-102374038D01*
X100899500Y-102374038D01*
X100899500Y-102625962D01*
X100914904Y-102723217D01*
X100938910Y-102874785D01*
X101016760Y-103114383D01*
X101131132Y-103338848D01*
X101279201Y-103542649D01*
X101279205Y-103542654D01*
X101457345Y-103720794D01*
X101457350Y-103720798D01*
X101526437Y-103770992D01*
X101661155Y-103868870D01*
X101804184Y-103941747D01*
X101885616Y-103983239D01*
X101885618Y-103983239D01*
X101885621Y-103983241D01*
X102125215Y-104061090D01*
X102374038Y-104100500D01*
X102374039Y-104100500D01*
X102625961Y-104100500D01*
X102625962Y-104100500D01*
X102874785Y-104061090D01*
X103114379Y-103983241D01*
X103338845Y-103868870D01*
X103542656Y-103720793D01*
X103720793Y-103542656D01*
X103868870Y-103338845D01*
X103983241Y-103114379D01*
X104029719Y-102971333D01*
X104069157Y-102913658D01*
X104133515Y-102886460D01*
X104202362Y-102898375D01*
X104247968Y-102936767D01*
X104269727Y-102966716D01*
X104269728Y-102966716D01*
X104902037Y-102334408D01*
X104919075Y-102397993D01*
X104984901Y-102512007D01*
X105077993Y-102605099D01*
X105192007Y-102670925D01*
X105255591Y-102687962D01*
X104654971Y-103288581D01*
X104733711Y-103405895D01*
X104734920Y-103409729D01*
X104737844Y-103412491D01*
X104745343Y-103442778D01*
X104754727Y-103472529D01*
X104753671Y-103476408D01*
X104754638Y-103480312D01*
X104744573Y-103509844D01*
X104736383Y-103539947D01*
X104733397Y-103542640D01*
X104732100Y-103546447D01*
X104687051Y-103585483D01*
X104677440Y-103590380D01*
X104623282Y-103629727D01*
X104623282Y-103629728D01*
X105255591Y-104262037D01*
X105192007Y-104279075D01*
X105077993Y-104344901D01*
X104984901Y-104437993D01*
X104919075Y-104552007D01*
X104902037Y-104615591D01*
X104269728Y-103983282D01*
X104269727Y-103983282D01*
X104230380Y-104037439D01*
X104133904Y-104226782D01*
X104068242Y-104428869D01*
X104068242Y-104428872D01*
X104035000Y-104638753D01*
X104035000Y-104851246D01*
X104068242Y-105061127D01*
X104068242Y-105061130D01*
X104133904Y-105263217D01*
X104230375Y-105452550D01*
X104269728Y-105506716D01*
X104902037Y-104874408D01*
X104919075Y-104937993D01*
X104984901Y-105052007D01*
X105077993Y-105145099D01*
X105192007Y-105210925D01*
X105255590Y-105227962D01*
X104623282Y-105860269D01*
X104623282Y-105860270D01*
X104677449Y-105899624D01*
X104866782Y-105996095D01*
X105068870Y-106061757D01*
X105278754Y-106095000D01*
X105491246Y-106095000D01*
X105701127Y-106061757D01*
X105701130Y-106061757D01*
X105903217Y-105996095D01*
X106092554Y-105899622D01*
X106146716Y-105860270D01*
X106146717Y-105860270D01*
X105514408Y-105227962D01*
X105577993Y-105210925D01*
X105692007Y-105145099D01*
X105785099Y-105052007D01*
X105850925Y-104937993D01*
X105867962Y-104874408D01*
X106500270Y-105506717D01*
X106500270Y-105506716D01*
X106539622Y-105452554D01*
X106636095Y-105263217D01*
X106701757Y-105061130D01*
X106701757Y-105061127D01*
X106733656Y-104859730D01*
X106763585Y-104796595D01*
X106822897Y-104759664D01*
X106892759Y-104760662D01*
X106950992Y-104799272D01*
X106977746Y-104854937D01*
X107011025Y-105022243D01*
X107011027Y-105022251D01*
X107082676Y-105195228D01*
X107082681Y-105195237D01*
X107186697Y-105350907D01*
X107186700Y-105350911D01*
X107319088Y-105483299D01*
X107319092Y-105483302D01*
X107474762Y-105587318D01*
X107474768Y-105587321D01*
X107474769Y-105587322D01*
X107647749Y-105658973D01*
X107831379Y-105695499D01*
X107831383Y-105695500D01*
X107831384Y-105695500D01*
X108018617Y-105695500D01*
X108018618Y-105695499D01*
X108202251Y-105658973D01*
X108375231Y-105587322D01*
X108530908Y-105483302D01*
X108663302Y-105350908D01*
X108767322Y-105195231D01*
X108838973Y-105022251D01*
X108875500Y-104838616D01*
X108875500Y-104651384D01*
X108875499Y-104651379D01*
X109514500Y-104651379D01*
X109514500Y-104838620D01*
X109551025Y-105022243D01*
X109551027Y-105022251D01*
X109622676Y-105195228D01*
X109622681Y-105195237D01*
X109726697Y-105350907D01*
X109726700Y-105350911D01*
X109859088Y-105483299D01*
X109859092Y-105483302D01*
X110014762Y-105587318D01*
X110014768Y-105587321D01*
X110014769Y-105587322D01*
X110187749Y-105658973D01*
X110371379Y-105695499D01*
X110371383Y-105695500D01*
X110371384Y-105695500D01*
X110558617Y-105695500D01*
X110558618Y-105695499D01*
X110742251Y-105658973D01*
X110915231Y-105587322D01*
X111070908Y-105483302D01*
X111203302Y-105350908D01*
X111307322Y-105195231D01*
X111378973Y-105022251D01*
X111415500Y-104838616D01*
X111415500Y-104651384D01*
X111415499Y-104651379D01*
X112054500Y-104651379D01*
X112054500Y-104838620D01*
X112091025Y-105022243D01*
X112091027Y-105022251D01*
X112162676Y-105195228D01*
X112162681Y-105195237D01*
X112266697Y-105350907D01*
X112266700Y-105350911D01*
X112399088Y-105483299D01*
X112399092Y-105483302D01*
X112554762Y-105587318D01*
X112554768Y-105587321D01*
X112554769Y-105587322D01*
X112727749Y-105658973D01*
X112911379Y-105695499D01*
X112911383Y-105695500D01*
X112911384Y-105695500D01*
X113098617Y-105695500D01*
X113098618Y-105695499D01*
X113282251Y-105658973D01*
X113455231Y-105587322D01*
X113610908Y-105483302D01*
X113743302Y-105350908D01*
X113847322Y-105195231D01*
X113918973Y-105022251D01*
X113955500Y-104838616D01*
X113955500Y-104651384D01*
X113955499Y-104651379D01*
X114594500Y-104651379D01*
X114594500Y-104838620D01*
X114631025Y-105022243D01*
X114631027Y-105022251D01*
X114702676Y-105195228D01*
X114702681Y-105195237D01*
X114806697Y-105350907D01*
X114806700Y-105350911D01*
X114939088Y-105483299D01*
X114939092Y-105483302D01*
X115094762Y-105587318D01*
X115094768Y-105587321D01*
X115094769Y-105587322D01*
X115267749Y-105658973D01*
X115451379Y-105695499D01*
X115451383Y-105695500D01*
X115451384Y-105695500D01*
X115638617Y-105695500D01*
X115638618Y-105695499D01*
X115822251Y-105658973D01*
X115995231Y-105587322D01*
X116150908Y-105483302D01*
X116283302Y-105350908D01*
X116387322Y-105195231D01*
X116458973Y-105022251D01*
X116495500Y-104838616D01*
X116495500Y-104651384D01*
X116495499Y-104651379D01*
X117134500Y-104651379D01*
X117134500Y-104838620D01*
X117171025Y-105022243D01*
X117171027Y-105022251D01*
X117242676Y-105195228D01*
X117242681Y-105195237D01*
X117346697Y-105350907D01*
X117346700Y-105350911D01*
X117479088Y-105483299D01*
X117479092Y-105483302D01*
X117634762Y-105587318D01*
X117634768Y-105587321D01*
X117634769Y-105587322D01*
X117807749Y-105658973D01*
X117991379Y-105695499D01*
X117991383Y-105695500D01*
X117991384Y-105695500D01*
X118178617Y-105695500D01*
X118178618Y-105695499D01*
X118362251Y-105658973D01*
X118535231Y-105587322D01*
X118690908Y-105483302D01*
X118823302Y-105350908D01*
X118927322Y-105195231D01*
X118998973Y-105022251D01*
X119035500Y-104838616D01*
X119035500Y-104651384D01*
X119035499Y-104651379D01*
X119674500Y-104651379D01*
X119674500Y-104838620D01*
X119711025Y-105022243D01*
X119711027Y-105022251D01*
X119782676Y-105195228D01*
X119782681Y-105195237D01*
X119886697Y-105350907D01*
X119886700Y-105350911D01*
X120019088Y-105483299D01*
X120019092Y-105483302D01*
X120174762Y-105587318D01*
X120174768Y-105587321D01*
X120174769Y-105587322D01*
X120347749Y-105658973D01*
X120531379Y-105695499D01*
X120531383Y-105695500D01*
X120531384Y-105695500D01*
X120718617Y-105695500D01*
X120718618Y-105695499D01*
X120902251Y-105658973D01*
X121075231Y-105587322D01*
X121230908Y-105483302D01*
X121363302Y-105350908D01*
X121467322Y-105195231D01*
X121538973Y-105022251D01*
X121575500Y-104838616D01*
X121575500Y-104651384D01*
X121575499Y-104651379D01*
X122214500Y-104651379D01*
X122214500Y-104838620D01*
X122251025Y-105022243D01*
X122251027Y-105022251D01*
X122322676Y-105195228D01*
X122322681Y-105195237D01*
X122426697Y-105350907D01*
X122426700Y-105350911D01*
X122559088Y-105483299D01*
X122559092Y-105483302D01*
X122714762Y-105587318D01*
X122714768Y-105587321D01*
X122714769Y-105587322D01*
X122887749Y-105658973D01*
X123071379Y-105695499D01*
X123071383Y-105695500D01*
X123071384Y-105695500D01*
X123258617Y-105695500D01*
X123258618Y-105695499D01*
X123442251Y-105658973D01*
X123615231Y-105587322D01*
X123770908Y-105483302D01*
X123903302Y-105350908D01*
X124007322Y-105195231D01*
X124078973Y-105022251D01*
X124115500Y-104838616D01*
X124115500Y-104651384D01*
X124115499Y-104651379D01*
X124754500Y-104651379D01*
X124754500Y-104838620D01*
X124791025Y-105022243D01*
X124791027Y-105022251D01*
X124862676Y-105195228D01*
X124862681Y-105195237D01*
X124966697Y-105350907D01*
X124966700Y-105350911D01*
X125099088Y-105483299D01*
X125099092Y-105483302D01*
X125254762Y-105587318D01*
X125254768Y-105587321D01*
X125254769Y-105587322D01*
X125427749Y-105658973D01*
X125611379Y-105695499D01*
X125611383Y-105695500D01*
X125611384Y-105695500D01*
X125798617Y-105695500D01*
X125798618Y-105695499D01*
X125982251Y-105658973D01*
X126155231Y-105587322D01*
X126310908Y-105483302D01*
X126443302Y-105350908D01*
X126547322Y-105195231D01*
X126618973Y-105022251D01*
X126655500Y-104838616D01*
X126655500Y-104651384D01*
X126655499Y-104651379D01*
X127294500Y-104651379D01*
X127294500Y-104838620D01*
X127331025Y-105022243D01*
X127331027Y-105022251D01*
X127402676Y-105195228D01*
X127402681Y-105195237D01*
X127506697Y-105350907D01*
X127506700Y-105350911D01*
X127639088Y-105483299D01*
X127639092Y-105483302D01*
X127794762Y-105587318D01*
X127794768Y-105587321D01*
X127794769Y-105587322D01*
X127967749Y-105658973D01*
X128151379Y-105695499D01*
X128151383Y-105695500D01*
X128151384Y-105695500D01*
X128338617Y-105695500D01*
X128338618Y-105695499D01*
X128522251Y-105658973D01*
X128695231Y-105587322D01*
X128850908Y-105483302D01*
X128983302Y-105350908D01*
X129087322Y-105195231D01*
X129158973Y-105022251D01*
X129195500Y-104838616D01*
X129195500Y-104651384D01*
X129195499Y-104651379D01*
X129834500Y-104651379D01*
X129834500Y-104838620D01*
X129871025Y-105022243D01*
X129871027Y-105022251D01*
X129942676Y-105195228D01*
X129942681Y-105195237D01*
X130046697Y-105350907D01*
X130046700Y-105350911D01*
X130179088Y-105483299D01*
X130179092Y-105483302D01*
X130334762Y-105587318D01*
X130334768Y-105587321D01*
X130334769Y-105587322D01*
X130507749Y-105658973D01*
X130691379Y-105695499D01*
X130691383Y-105695500D01*
X130691384Y-105695500D01*
X130878617Y-105695500D01*
X130878618Y-105695499D01*
X131062251Y-105658973D01*
X131235231Y-105587322D01*
X131390908Y-105483302D01*
X131523302Y-105350908D01*
X131627322Y-105195231D01*
X131698973Y-105022251D01*
X131735500Y-104838616D01*
X131735500Y-104651384D01*
X131735499Y-104651379D01*
X132374500Y-104651379D01*
X132374500Y-104838620D01*
X132411025Y-105022243D01*
X132411027Y-105022251D01*
X132482676Y-105195228D01*
X132482681Y-105195237D01*
X132586697Y-105350907D01*
X132586700Y-105350911D01*
X132719088Y-105483299D01*
X132719092Y-105483302D01*
X132874762Y-105587318D01*
X132874768Y-105587321D01*
X132874769Y-105587322D01*
X133047749Y-105658973D01*
X133231379Y-105695499D01*
X133231383Y-105695500D01*
X133231384Y-105695500D01*
X133418617Y-105695500D01*
X133418618Y-105695499D01*
X133602251Y-105658973D01*
X133775231Y-105587322D01*
X133930908Y-105483302D01*
X134063302Y-105350908D01*
X134167322Y-105195231D01*
X134238973Y-105022251D01*
X134275500Y-104838616D01*
X134275500Y-104651384D01*
X134275499Y-104651379D01*
X134914500Y-104651379D01*
X134914500Y-104838620D01*
X134951025Y-105022243D01*
X134951027Y-105022251D01*
X135022676Y-105195228D01*
X135022681Y-105195237D01*
X135126697Y-105350907D01*
X135126700Y-105350911D01*
X135259088Y-105483299D01*
X135259092Y-105483302D01*
X135414762Y-105587318D01*
X135414768Y-105587321D01*
X135414769Y-105587322D01*
X135587749Y-105658973D01*
X135771379Y-105695499D01*
X135771383Y-105695500D01*
X135771384Y-105695500D01*
X135958617Y-105695500D01*
X135958618Y-105695499D01*
X136142251Y-105658973D01*
X136315231Y-105587322D01*
X136470908Y-105483302D01*
X136603302Y-105350908D01*
X136707322Y-105195231D01*
X136778973Y-105022251D01*
X136815500Y-104838616D01*
X136815500Y-104651384D01*
X136815499Y-104651379D01*
X137454500Y-104651379D01*
X137454500Y-104838620D01*
X137491025Y-105022243D01*
X137491027Y-105022251D01*
X137562676Y-105195228D01*
X137562681Y-105195237D01*
X137666697Y-105350907D01*
X137666700Y-105350911D01*
X137799088Y-105483299D01*
X137799092Y-105483302D01*
X137954762Y-105587318D01*
X137954768Y-105587321D01*
X137954769Y-105587322D01*
X138127749Y-105658973D01*
X138311379Y-105695499D01*
X138311383Y-105695500D01*
X138311384Y-105695500D01*
X138498617Y-105695500D01*
X138498618Y-105695499D01*
X138682251Y-105658973D01*
X138855231Y-105587322D01*
X139010908Y-105483302D01*
X139143302Y-105350908D01*
X139247322Y-105195231D01*
X139318973Y-105022251D01*
X139355500Y-104838616D01*
X139355500Y-104651384D01*
X139355499Y-104651379D01*
X139994500Y-104651379D01*
X139994500Y-104838620D01*
X140031025Y-105022243D01*
X140031027Y-105022251D01*
X140102676Y-105195228D01*
X140102681Y-105195237D01*
X140206697Y-105350907D01*
X140206700Y-105350911D01*
X140339088Y-105483299D01*
X140339092Y-105483302D01*
X140494762Y-105587318D01*
X140494768Y-105587321D01*
X140494769Y-105587322D01*
X140667749Y-105658973D01*
X140851379Y-105695499D01*
X140851383Y-105695500D01*
X140851384Y-105695500D01*
X141038617Y-105695500D01*
X141038618Y-105695499D01*
X141222251Y-105658973D01*
X141395231Y-105587322D01*
X141550908Y-105483302D01*
X141683302Y-105350908D01*
X141787322Y-105195231D01*
X141858973Y-105022251D01*
X141895500Y-104838616D01*
X141895500Y-104651384D01*
X141895499Y-104651379D01*
X142534500Y-104651379D01*
X142534500Y-104838620D01*
X142571025Y-105022243D01*
X142571027Y-105022251D01*
X142642676Y-105195228D01*
X142642681Y-105195237D01*
X142746697Y-105350907D01*
X142746700Y-105350911D01*
X142879088Y-105483299D01*
X142879092Y-105483302D01*
X143034762Y-105587318D01*
X143034768Y-105587321D01*
X143034769Y-105587322D01*
X143207749Y-105658973D01*
X143391379Y-105695499D01*
X143391383Y-105695500D01*
X143391384Y-105695500D01*
X143578617Y-105695500D01*
X143578618Y-105695499D01*
X143762251Y-105658973D01*
X143935231Y-105587322D01*
X144090908Y-105483302D01*
X144223302Y-105350908D01*
X144327322Y-105195231D01*
X144398973Y-105022251D01*
X144435500Y-104838616D01*
X144435500Y-104651384D01*
X144435499Y-104651379D01*
X145074500Y-104651379D01*
X145074500Y-104838620D01*
X145111025Y-105022243D01*
X145111027Y-105022251D01*
X145182676Y-105195228D01*
X145182681Y-105195237D01*
X145286697Y-105350907D01*
X145286700Y-105350911D01*
X145419088Y-105483299D01*
X145419092Y-105483302D01*
X145574762Y-105587318D01*
X145574768Y-105587321D01*
X145574769Y-105587322D01*
X145747749Y-105658973D01*
X145931379Y-105695499D01*
X145931383Y-105695500D01*
X145931384Y-105695500D01*
X146118617Y-105695500D01*
X146118618Y-105695499D01*
X146302251Y-105658973D01*
X146475231Y-105587322D01*
X146630908Y-105483302D01*
X146763302Y-105350908D01*
X146867322Y-105195231D01*
X146938973Y-105022251D01*
X146975500Y-104838616D01*
X146975500Y-104651384D01*
X146938973Y-104467749D01*
X146867322Y-104294769D01*
X146867321Y-104294768D01*
X146867318Y-104294762D01*
X146763302Y-104139092D01*
X146763299Y-104139088D01*
X146630911Y-104006700D01*
X146630907Y-104006697D01*
X146475237Y-103902681D01*
X146475228Y-103902676D01*
X146302251Y-103831027D01*
X146302243Y-103831025D01*
X146118620Y-103794500D01*
X146118616Y-103794500D01*
X145931384Y-103794500D01*
X145931379Y-103794500D01*
X145747756Y-103831025D01*
X145747748Y-103831027D01*
X145574771Y-103902676D01*
X145574762Y-103902681D01*
X145419092Y-104006697D01*
X145419088Y-104006700D01*
X145286700Y-104139088D01*
X145286697Y-104139092D01*
X145182681Y-104294762D01*
X145182676Y-104294771D01*
X145111027Y-104467748D01*
X145111025Y-104467756D01*
X145074500Y-104651379D01*
X144435499Y-104651379D01*
X144398973Y-104467749D01*
X144327322Y-104294769D01*
X144327321Y-104294768D01*
X144327318Y-104294762D01*
X144223302Y-104139092D01*
X144223299Y-104139088D01*
X144090911Y-104006700D01*
X144090907Y-104006697D01*
X143935237Y-103902681D01*
X143935228Y-103902676D01*
X143762251Y-103831027D01*
X143762243Y-103831025D01*
X143578620Y-103794500D01*
X143578616Y-103794500D01*
X143391384Y-103794500D01*
X143391379Y-103794500D01*
X143207756Y-103831025D01*
X143207748Y-103831027D01*
X143034771Y-103902676D01*
X143034762Y-103902681D01*
X142879092Y-104006697D01*
X142879088Y-104006700D01*
X142746700Y-104139088D01*
X142746697Y-104139092D01*
X142642681Y-104294762D01*
X142642676Y-104294771D01*
X142571027Y-104467748D01*
X142571025Y-104467756D01*
X142534500Y-104651379D01*
X141895499Y-104651379D01*
X141858973Y-104467749D01*
X141787322Y-104294769D01*
X141787321Y-104294768D01*
X141787318Y-104294762D01*
X141683302Y-104139092D01*
X141683299Y-104139088D01*
X141550911Y-104006700D01*
X141550907Y-104006697D01*
X141395237Y-103902681D01*
X141395228Y-103902676D01*
X141222251Y-103831027D01*
X141222243Y-103831025D01*
X141038620Y-103794500D01*
X141038616Y-103794500D01*
X140851384Y-103794500D01*
X140851379Y-103794500D01*
X140667756Y-103831025D01*
X140667748Y-103831027D01*
X140494771Y-103902676D01*
X140494762Y-103902681D01*
X140339092Y-104006697D01*
X140339088Y-104006700D01*
X140206700Y-104139088D01*
X140206697Y-104139092D01*
X140102681Y-104294762D01*
X140102676Y-104294771D01*
X140031027Y-104467748D01*
X140031025Y-104467756D01*
X139994500Y-104651379D01*
X139355499Y-104651379D01*
X139318973Y-104467749D01*
X139247322Y-104294769D01*
X139247321Y-104294768D01*
X139247318Y-104294762D01*
X139143302Y-104139092D01*
X139143299Y-104139088D01*
X139010911Y-104006700D01*
X139010907Y-104006697D01*
X138855237Y-103902681D01*
X138855228Y-103902676D01*
X138682251Y-103831027D01*
X138682243Y-103831025D01*
X138498620Y-103794500D01*
X138498616Y-103794500D01*
X138311384Y-103794500D01*
X138311379Y-103794500D01*
X138127756Y-103831025D01*
X138127748Y-103831027D01*
X137954771Y-103902676D01*
X137954762Y-103902681D01*
X137799092Y-104006697D01*
X137799088Y-104006700D01*
X137666700Y-104139088D01*
X137666697Y-104139092D01*
X137562681Y-104294762D01*
X137562676Y-104294771D01*
X137491027Y-104467748D01*
X137491025Y-104467756D01*
X137454500Y-104651379D01*
X136815499Y-104651379D01*
X136778973Y-104467749D01*
X136707322Y-104294769D01*
X136707321Y-104294768D01*
X136707318Y-104294762D01*
X136603302Y-104139092D01*
X136603299Y-104139088D01*
X136470911Y-104006700D01*
X136470907Y-104006697D01*
X136315237Y-103902681D01*
X136315228Y-103902676D01*
X136142251Y-103831027D01*
X136142243Y-103831025D01*
X135958620Y-103794500D01*
X135958616Y-103794500D01*
X135771384Y-103794500D01*
X135771379Y-103794500D01*
X135587756Y-103831025D01*
X135587748Y-103831027D01*
X135414771Y-103902676D01*
X135414762Y-103902681D01*
X135259092Y-104006697D01*
X135259088Y-104006700D01*
X135126700Y-104139088D01*
X135126697Y-104139092D01*
X135022681Y-104294762D01*
X135022676Y-104294771D01*
X134951027Y-104467748D01*
X134951025Y-104467756D01*
X134914500Y-104651379D01*
X134275499Y-104651379D01*
X134238973Y-104467749D01*
X134167322Y-104294769D01*
X134167321Y-104294768D01*
X134167318Y-104294762D01*
X134063302Y-104139092D01*
X134063299Y-104139088D01*
X133930911Y-104006700D01*
X133930907Y-104006697D01*
X133775237Y-103902681D01*
X133775228Y-103902676D01*
X133602251Y-103831027D01*
X133602243Y-103831025D01*
X133418620Y-103794500D01*
X133418616Y-103794500D01*
X133231384Y-103794500D01*
X133231379Y-103794500D01*
X133047756Y-103831025D01*
X133047748Y-103831027D01*
X132874771Y-103902676D01*
X132874762Y-103902681D01*
X132719092Y-104006697D01*
X132719088Y-104006700D01*
X132586700Y-104139088D01*
X132586697Y-104139092D01*
X132482681Y-104294762D01*
X132482676Y-104294771D01*
X132411027Y-104467748D01*
X132411025Y-104467756D01*
X132374500Y-104651379D01*
X131735499Y-104651379D01*
X131698973Y-104467749D01*
X131627322Y-104294769D01*
X131627321Y-104294768D01*
X131627318Y-104294762D01*
X131523302Y-104139092D01*
X131523299Y-104139088D01*
X131390911Y-104006700D01*
X131390907Y-104006697D01*
X131235237Y-103902681D01*
X131235228Y-103902676D01*
X131062251Y-103831027D01*
X131062243Y-103831025D01*
X130878620Y-103794500D01*
X130878616Y-103794500D01*
X130691384Y-103794500D01*
X130691379Y-103794500D01*
X130507756Y-103831025D01*
X130507748Y-103831027D01*
X130334771Y-103902676D01*
X130334762Y-103902681D01*
X130179092Y-104006697D01*
X130179088Y-104006700D01*
X130046700Y-104139088D01*
X130046697Y-104139092D01*
X129942681Y-104294762D01*
X129942676Y-104294771D01*
X129871027Y-104467748D01*
X129871025Y-104467756D01*
X129834500Y-104651379D01*
X129195499Y-104651379D01*
X129158973Y-104467749D01*
X129087322Y-104294769D01*
X129087321Y-104294768D01*
X129087318Y-104294762D01*
X128983302Y-104139092D01*
X128983299Y-104139088D01*
X128850911Y-104006700D01*
X128850907Y-104006697D01*
X128695237Y-103902681D01*
X128695228Y-103902676D01*
X128522251Y-103831027D01*
X128522243Y-103831025D01*
X128338620Y-103794500D01*
X128338616Y-103794500D01*
X128151384Y-103794500D01*
X128151379Y-103794500D01*
X127967756Y-103831025D01*
X127967748Y-103831027D01*
X127794771Y-103902676D01*
X127794762Y-103902681D01*
X127639092Y-104006697D01*
X127639088Y-104006700D01*
X127506700Y-104139088D01*
X127506697Y-104139092D01*
X127402681Y-104294762D01*
X127402676Y-104294771D01*
X127331027Y-104467748D01*
X127331025Y-104467756D01*
X127294500Y-104651379D01*
X126655499Y-104651379D01*
X126618973Y-104467749D01*
X126547322Y-104294769D01*
X126547321Y-104294768D01*
X126547318Y-104294762D01*
X126443302Y-104139092D01*
X126443299Y-104139088D01*
X126310911Y-104006700D01*
X126310907Y-104006697D01*
X126155237Y-103902681D01*
X126155228Y-103902676D01*
X125982251Y-103831027D01*
X125982243Y-103831025D01*
X125798620Y-103794500D01*
X125798616Y-103794500D01*
X125611384Y-103794500D01*
X125611379Y-103794500D01*
X125427756Y-103831025D01*
X125427748Y-103831027D01*
X125254771Y-103902676D01*
X125254762Y-103902681D01*
X125099092Y-104006697D01*
X125099088Y-104006700D01*
X124966700Y-104139088D01*
X124966697Y-104139092D01*
X124862681Y-104294762D01*
X124862676Y-104294771D01*
X124791027Y-104467748D01*
X124791025Y-104467756D01*
X124754500Y-104651379D01*
X124115499Y-104651379D01*
X124078973Y-104467749D01*
X124007322Y-104294769D01*
X124007321Y-104294768D01*
X124007318Y-104294762D01*
X123903302Y-104139092D01*
X123903299Y-104139088D01*
X123770911Y-104006700D01*
X123770907Y-104006697D01*
X123615237Y-103902681D01*
X123615228Y-103902676D01*
X123442251Y-103831027D01*
X123442243Y-103831025D01*
X123258620Y-103794500D01*
X123258616Y-103794500D01*
X123071384Y-103794500D01*
X123071379Y-103794500D01*
X122887756Y-103831025D01*
X122887748Y-103831027D01*
X122714771Y-103902676D01*
X122714762Y-103902681D01*
X122559092Y-104006697D01*
X122559088Y-104006700D01*
X122426700Y-104139088D01*
X122426697Y-104139092D01*
X122322681Y-104294762D01*
X122322676Y-104294771D01*
X122251027Y-104467748D01*
X122251025Y-104467756D01*
X122214500Y-104651379D01*
X121575499Y-104651379D01*
X121538973Y-104467749D01*
X121467322Y-104294769D01*
X121467321Y-104294768D01*
X121467318Y-104294762D01*
X121363302Y-104139092D01*
X121363299Y-104139088D01*
X121230911Y-104006700D01*
X121230907Y-104006697D01*
X121075237Y-103902681D01*
X121075228Y-103902676D01*
X120902251Y-103831027D01*
X120902243Y-103831025D01*
X120718620Y-103794500D01*
X120718616Y-103794500D01*
X120531384Y-103794500D01*
X120531379Y-103794500D01*
X120347756Y-103831025D01*
X120347748Y-103831027D01*
X120174771Y-103902676D01*
X120174762Y-103902681D01*
X120019092Y-104006697D01*
X120019088Y-104006700D01*
X119886700Y-104139088D01*
X119886697Y-104139092D01*
X119782681Y-104294762D01*
X119782676Y-104294771D01*
X119711027Y-104467748D01*
X119711025Y-104467756D01*
X119674500Y-104651379D01*
X119035499Y-104651379D01*
X118998973Y-104467749D01*
X118927322Y-104294769D01*
X118927321Y-104294768D01*
X118927318Y-104294762D01*
X118823302Y-104139092D01*
X118823299Y-104139088D01*
X118690911Y-104006700D01*
X118690907Y-104006697D01*
X118535237Y-103902681D01*
X118535228Y-103902676D01*
X118362251Y-103831027D01*
X118362243Y-103831025D01*
X118178620Y-103794500D01*
X118178616Y-103794500D01*
X117991384Y-103794500D01*
X117991379Y-103794500D01*
X117807756Y-103831025D01*
X117807748Y-103831027D01*
X117634771Y-103902676D01*
X117634762Y-103902681D01*
X117479092Y-104006697D01*
X117479088Y-104006700D01*
X117346700Y-104139088D01*
X117346697Y-104139092D01*
X117242681Y-104294762D01*
X117242676Y-104294771D01*
X117171027Y-104467748D01*
X117171025Y-104467756D01*
X117134500Y-104651379D01*
X116495499Y-104651379D01*
X116458973Y-104467749D01*
X116387322Y-104294769D01*
X116387321Y-104294768D01*
X116387318Y-104294762D01*
X116283302Y-104139092D01*
X116283299Y-104139088D01*
X116150911Y-104006700D01*
X116150907Y-104006697D01*
X115995237Y-103902681D01*
X115995228Y-103902676D01*
X115822251Y-103831027D01*
X115822243Y-103831025D01*
X115638620Y-103794500D01*
X115638616Y-103794500D01*
X115451384Y-103794500D01*
X115451379Y-103794500D01*
X115267756Y-103831025D01*
X115267748Y-103831027D01*
X115094771Y-103902676D01*
X115094762Y-103902681D01*
X114939092Y-104006697D01*
X114939088Y-104006700D01*
X114806700Y-104139088D01*
X114806697Y-104139092D01*
X114702681Y-104294762D01*
X114702676Y-104294771D01*
X114631027Y-104467748D01*
X114631025Y-104467756D01*
X114594500Y-104651379D01*
X113955499Y-104651379D01*
X113918973Y-104467749D01*
X113847322Y-104294769D01*
X113847321Y-104294768D01*
X113847318Y-104294762D01*
X113743302Y-104139092D01*
X113743299Y-104139088D01*
X113610911Y-104006700D01*
X113610907Y-104006697D01*
X113455237Y-103902681D01*
X113455228Y-103902676D01*
X113282251Y-103831027D01*
X113282243Y-103831025D01*
X113098620Y-103794500D01*
X113098616Y-103794500D01*
X112911384Y-103794500D01*
X112911379Y-103794500D01*
X112727756Y-103831025D01*
X112727748Y-103831027D01*
X112554771Y-103902676D01*
X112554762Y-103902681D01*
X112399092Y-104006697D01*
X112399088Y-104006700D01*
X112266700Y-104139088D01*
X112266697Y-104139092D01*
X112162681Y-104294762D01*
X112162676Y-104294771D01*
X112091027Y-104467748D01*
X112091025Y-104467756D01*
X112054500Y-104651379D01*
X111415499Y-104651379D01*
X111378973Y-104467749D01*
X111307322Y-104294769D01*
X111307321Y-104294768D01*
X111307318Y-104294762D01*
X111203302Y-104139092D01*
X111203299Y-104139088D01*
X111070911Y-104006700D01*
X111070907Y-104006697D01*
X110915237Y-103902681D01*
X110915228Y-103902676D01*
X110742251Y-103831027D01*
X110742243Y-103831025D01*
X110558620Y-103794500D01*
X110558616Y-103794500D01*
X110371384Y-103794500D01*
X110371379Y-103794500D01*
X110187756Y-103831025D01*
X110187748Y-103831027D01*
X110014771Y-103902676D01*
X110014762Y-103902681D01*
X109859092Y-104006697D01*
X109859088Y-104006700D01*
X109726700Y-104139088D01*
X109726697Y-104139092D01*
X109622681Y-104294762D01*
X109622676Y-104294771D01*
X109551027Y-104467748D01*
X109551025Y-104467756D01*
X109514500Y-104651379D01*
X108875499Y-104651379D01*
X108838973Y-104467749D01*
X108767322Y-104294769D01*
X108767321Y-104294768D01*
X108767318Y-104294762D01*
X108663302Y-104139092D01*
X108663299Y-104139088D01*
X108530911Y-104006700D01*
X108530907Y-104006697D01*
X108375237Y-103902681D01*
X108375228Y-103902676D01*
X108202251Y-103831027D01*
X108202243Y-103831025D01*
X108018620Y-103794500D01*
X108018616Y-103794500D01*
X107831384Y-103794500D01*
X107831379Y-103794500D01*
X107647756Y-103831025D01*
X107647748Y-103831027D01*
X107474771Y-103902676D01*
X107474762Y-103902681D01*
X107319092Y-104006697D01*
X107319088Y-104006700D01*
X107186700Y-104139088D01*
X107186697Y-104139092D01*
X107082681Y-104294762D01*
X107082676Y-104294771D01*
X107011027Y-104467748D01*
X107011025Y-104467756D01*
X106977746Y-104635062D01*
X106945361Y-104696973D01*
X106884646Y-104731547D01*
X106814876Y-104727808D01*
X106758204Y-104686941D01*
X106733656Y-104630269D01*
X106701757Y-104428872D01*
X106701757Y-104428869D01*
X106636095Y-104226782D01*
X106539624Y-104037449D01*
X106500270Y-103983282D01*
X106500269Y-103983282D01*
X105867962Y-104615590D01*
X105850925Y-104552007D01*
X105785099Y-104437993D01*
X105692007Y-104344901D01*
X105577993Y-104279075D01*
X105514409Y-104262037D01*
X106146716Y-103629728D01*
X106092550Y-103590375D01*
X106082954Y-103585486D01*
X106032157Y-103537512D01*
X106015361Y-103469692D01*
X106037897Y-103403556D01*
X106082954Y-103364514D01*
X106092554Y-103359622D01*
X106146716Y-103320270D01*
X106146717Y-103320270D01*
X105514408Y-102687962D01*
X105577993Y-102670925D01*
X105692007Y-102605099D01*
X105785099Y-102512007D01*
X105850925Y-102397993D01*
X105867962Y-102334408D01*
X106500270Y-102966717D01*
X106500270Y-102966716D01*
X106539622Y-102912554D01*
X106636095Y-102723217D01*
X106701757Y-102521130D01*
X106701757Y-102521127D01*
X106733656Y-102319730D01*
X106763585Y-102256595D01*
X106822897Y-102219664D01*
X106892759Y-102220662D01*
X106950992Y-102259272D01*
X106977746Y-102314937D01*
X107011025Y-102482243D01*
X107011027Y-102482251D01*
X107082676Y-102655228D01*
X107082681Y-102655237D01*
X107186697Y-102810907D01*
X107186700Y-102810911D01*
X107319088Y-102943299D01*
X107319092Y-102943302D01*
X107474762Y-103047318D01*
X107474768Y-103047321D01*
X107474769Y-103047322D01*
X107647749Y-103118973D01*
X107831379Y-103155499D01*
X107831383Y-103155500D01*
X107831384Y-103155500D01*
X108018617Y-103155500D01*
X108018618Y-103155499D01*
X108202251Y-103118973D01*
X108375231Y-103047322D01*
X108530908Y-102943302D01*
X108663302Y-102810908D01*
X108767322Y-102655231D01*
X108838973Y-102482251D01*
X108875500Y-102298616D01*
X108875500Y-102111384D01*
X108875499Y-102111379D01*
X109514500Y-102111379D01*
X109514500Y-102298620D01*
X109551025Y-102482243D01*
X109551027Y-102482251D01*
X109622676Y-102655228D01*
X109622681Y-102655237D01*
X109726697Y-102810907D01*
X109726700Y-102810911D01*
X109859088Y-102943299D01*
X109859092Y-102943302D01*
X110014762Y-103047318D01*
X110014768Y-103047321D01*
X110014769Y-103047322D01*
X110187749Y-103118973D01*
X110371379Y-103155499D01*
X110371383Y-103155500D01*
X110371384Y-103155500D01*
X110558617Y-103155500D01*
X110558618Y-103155499D01*
X110742251Y-103118973D01*
X110915231Y-103047322D01*
X111070908Y-102943302D01*
X111203302Y-102810908D01*
X111307322Y-102655231D01*
X111378973Y-102482251D01*
X111415500Y-102298616D01*
X111415500Y-102111384D01*
X111415499Y-102111379D01*
X112054500Y-102111379D01*
X112054500Y-102298620D01*
X112091025Y-102482243D01*
X112091027Y-102482251D01*
X112162676Y-102655228D01*
X112162681Y-102655237D01*
X112266697Y-102810907D01*
X112266700Y-102810911D01*
X112399088Y-102943299D01*
X112399092Y-102943302D01*
X112554762Y-103047318D01*
X112554768Y-103047321D01*
X112554769Y-103047322D01*
X112727749Y-103118973D01*
X112911379Y-103155499D01*
X112911383Y-103155500D01*
X112911384Y-103155500D01*
X113098617Y-103155500D01*
X113098618Y-103155499D01*
X113282251Y-103118973D01*
X113455231Y-103047322D01*
X113610908Y-102943302D01*
X113743302Y-102810908D01*
X113847322Y-102655231D01*
X113918973Y-102482251D01*
X113955500Y-102298616D01*
X113955500Y-102111384D01*
X113955499Y-102111379D01*
X114594500Y-102111379D01*
X114594500Y-102298620D01*
X114631025Y-102482243D01*
X114631027Y-102482251D01*
X114702676Y-102655228D01*
X114702681Y-102655237D01*
X114806697Y-102810907D01*
X114806700Y-102810911D01*
X114939088Y-102943299D01*
X114939092Y-102943302D01*
X115094762Y-103047318D01*
X115094768Y-103047321D01*
X115094769Y-103047322D01*
X115267749Y-103118973D01*
X115451379Y-103155499D01*
X115451383Y-103155500D01*
X115451384Y-103155500D01*
X115638617Y-103155500D01*
X115638618Y-103155499D01*
X115822251Y-103118973D01*
X115995231Y-103047322D01*
X116150908Y-102943302D01*
X116283302Y-102810908D01*
X116387322Y-102655231D01*
X116458973Y-102482251D01*
X116495500Y-102298616D01*
X116495500Y-102111384D01*
X116495499Y-102111379D01*
X117134500Y-102111379D01*
X117134500Y-102298620D01*
X117171025Y-102482243D01*
X117171027Y-102482251D01*
X117242676Y-102655228D01*
X117242681Y-102655237D01*
X117346697Y-102810907D01*
X117346700Y-102810911D01*
X117479088Y-102943299D01*
X117479092Y-102943302D01*
X117634762Y-103047318D01*
X117634768Y-103047321D01*
X117634769Y-103047322D01*
X117807749Y-103118973D01*
X117991379Y-103155499D01*
X117991383Y-103155500D01*
X117991384Y-103155500D01*
X118178617Y-103155500D01*
X118178618Y-103155499D01*
X118362251Y-103118973D01*
X118535231Y-103047322D01*
X118690908Y-102943302D01*
X118823302Y-102810908D01*
X118927322Y-102655231D01*
X118998973Y-102482251D01*
X119035500Y-102298616D01*
X119035500Y-102111384D01*
X119035499Y-102111379D01*
X119674500Y-102111379D01*
X119674500Y-102298620D01*
X119711025Y-102482243D01*
X119711027Y-102482251D01*
X119782676Y-102655228D01*
X119782681Y-102655237D01*
X119886697Y-102810907D01*
X119886700Y-102810911D01*
X120019088Y-102943299D01*
X120019092Y-102943302D01*
X120174762Y-103047318D01*
X120174768Y-103047321D01*
X120174769Y-103047322D01*
X120347749Y-103118973D01*
X120531379Y-103155499D01*
X120531383Y-103155500D01*
X120531384Y-103155500D01*
X120718617Y-103155500D01*
X120718618Y-103155499D01*
X120902251Y-103118973D01*
X121075231Y-103047322D01*
X121230908Y-102943302D01*
X121363302Y-102810908D01*
X121467322Y-102655231D01*
X121538973Y-102482251D01*
X121575500Y-102298616D01*
X121575500Y-102111384D01*
X121575499Y-102111379D01*
X122214500Y-102111379D01*
X122214500Y-102298620D01*
X122251025Y-102482243D01*
X122251027Y-102482251D01*
X122322676Y-102655228D01*
X122322681Y-102655237D01*
X122426697Y-102810907D01*
X122426700Y-102810911D01*
X122559088Y-102943299D01*
X122559092Y-102943302D01*
X122714762Y-103047318D01*
X122714768Y-103047321D01*
X122714769Y-103047322D01*
X122887749Y-103118973D01*
X123071379Y-103155499D01*
X123071383Y-103155500D01*
X123071384Y-103155500D01*
X123258617Y-103155500D01*
X123258618Y-103155499D01*
X123442251Y-103118973D01*
X123615231Y-103047322D01*
X123770908Y-102943302D01*
X123903302Y-102810908D01*
X124007322Y-102655231D01*
X124078973Y-102482251D01*
X124115500Y-102298616D01*
X124115500Y-102111384D01*
X124115499Y-102111379D01*
X124754500Y-102111379D01*
X124754500Y-102298620D01*
X124791025Y-102482243D01*
X124791027Y-102482251D01*
X124862676Y-102655228D01*
X124862681Y-102655237D01*
X124966697Y-102810907D01*
X124966700Y-102810911D01*
X125099088Y-102943299D01*
X125099092Y-102943302D01*
X125254762Y-103047318D01*
X125254768Y-103047321D01*
X125254769Y-103047322D01*
X125427749Y-103118973D01*
X125611379Y-103155499D01*
X125611383Y-103155500D01*
X125611384Y-103155500D01*
X125798617Y-103155500D01*
X125798618Y-103155499D01*
X125982251Y-103118973D01*
X126155231Y-103047322D01*
X126310908Y-102943302D01*
X126443302Y-102810908D01*
X126547322Y-102655231D01*
X126618973Y-102482251D01*
X126655500Y-102298616D01*
X126655500Y-102111384D01*
X126655499Y-102111379D01*
X127294500Y-102111379D01*
X127294500Y-102298620D01*
X127331025Y-102482243D01*
X127331027Y-102482251D01*
X127402676Y-102655228D01*
X127402681Y-102655237D01*
X127506697Y-102810907D01*
X127506700Y-102810911D01*
X127639088Y-102943299D01*
X127639092Y-102943302D01*
X127794762Y-103047318D01*
X127794768Y-103047321D01*
X127794769Y-103047322D01*
X127967749Y-103118973D01*
X128151379Y-103155499D01*
X128151383Y-103155500D01*
X128151384Y-103155500D01*
X128338617Y-103155500D01*
X128338618Y-103155499D01*
X128522251Y-103118973D01*
X128695231Y-103047322D01*
X128850908Y-102943302D01*
X128983302Y-102810908D01*
X129087322Y-102655231D01*
X129158973Y-102482251D01*
X129195500Y-102298616D01*
X129195500Y-102111384D01*
X129158973Y-101927749D01*
X129087322Y-101754769D01*
X129087321Y-101754768D01*
X129087318Y-101754762D01*
X128983302Y-101599092D01*
X128983299Y-101599088D01*
X128850911Y-101466700D01*
X128850907Y-101466697D01*
X128695237Y-101362681D01*
X128695227Y-101362676D01*
X128522252Y-101291027D01*
X128522243Y-101291025D01*
X128338620Y-101254500D01*
X128338616Y-101254500D01*
X128151384Y-101254500D01*
X128151379Y-101254500D01*
X127967756Y-101291025D01*
X127967748Y-101291027D01*
X127794771Y-101362676D01*
X127794762Y-101362681D01*
X127639092Y-101466697D01*
X127639088Y-101466700D01*
X127506700Y-101599088D01*
X127506697Y-101599092D01*
X127402681Y-101754762D01*
X127402676Y-101754771D01*
X127331027Y-101927748D01*
X127331025Y-101927756D01*
X127294500Y-102111379D01*
X126655499Y-102111379D01*
X126618973Y-101927749D01*
X126547322Y-101754769D01*
X126547321Y-101754768D01*
X126547318Y-101754762D01*
X126443302Y-101599092D01*
X126443299Y-101599088D01*
X126310911Y-101466700D01*
X126310907Y-101466697D01*
X126155237Y-101362681D01*
X126155228Y-101362676D01*
X125982251Y-101291027D01*
X125982243Y-101291025D01*
X125798620Y-101254500D01*
X125798616Y-101254500D01*
X125611384Y-101254500D01*
X125611379Y-101254500D01*
X125427756Y-101291025D01*
X125427748Y-101291027D01*
X125254771Y-101362676D01*
X125254762Y-101362681D01*
X125099092Y-101466697D01*
X125099088Y-101466700D01*
X124966700Y-101599088D01*
X124966697Y-101599092D01*
X124862681Y-101754762D01*
X124862676Y-101754771D01*
X124791027Y-101927748D01*
X124791025Y-101927756D01*
X124754500Y-102111379D01*
X124115499Y-102111379D01*
X124078973Y-101927749D01*
X124007322Y-101754769D01*
X124007321Y-101754768D01*
X124007318Y-101754762D01*
X123903302Y-101599092D01*
X123903299Y-101599088D01*
X123770911Y-101466700D01*
X123770907Y-101466697D01*
X123615237Y-101362681D01*
X123615228Y-101362676D01*
X123442251Y-101291027D01*
X123442243Y-101291025D01*
X123258620Y-101254500D01*
X123258616Y-101254500D01*
X123071384Y-101254500D01*
X123071379Y-101254500D01*
X122887756Y-101291025D01*
X122887748Y-101291027D01*
X122714771Y-101362676D01*
X122714762Y-101362681D01*
X122559092Y-101466697D01*
X122559088Y-101466700D01*
X122426700Y-101599088D01*
X122426697Y-101599092D01*
X122322681Y-101754762D01*
X122322676Y-101754771D01*
X122251027Y-101927748D01*
X122251025Y-101927756D01*
X122214500Y-102111379D01*
X121575499Y-102111379D01*
X121538973Y-101927749D01*
X121467322Y-101754769D01*
X121467321Y-101754768D01*
X121467318Y-101754762D01*
X121363302Y-101599092D01*
X121363299Y-101599088D01*
X121230911Y-101466700D01*
X121230907Y-101466697D01*
X121075237Y-101362681D01*
X121075228Y-101362676D01*
X120902251Y-101291027D01*
X120902243Y-101291025D01*
X120718620Y-101254500D01*
X120718616Y-101254500D01*
X120531384Y-101254500D01*
X120531379Y-101254500D01*
X120347756Y-101291025D01*
X120347748Y-101291027D01*
X120174771Y-101362676D01*
X120174762Y-101362681D01*
X120019092Y-101466697D01*
X120019088Y-101466700D01*
X119886700Y-101599088D01*
X119886697Y-101599092D01*
X119782681Y-101754762D01*
X119782676Y-101754771D01*
X119711027Y-101927748D01*
X119711025Y-101927756D01*
X119674500Y-102111379D01*
X119035499Y-102111379D01*
X118998973Y-101927749D01*
X118927322Y-101754769D01*
X118927321Y-101754768D01*
X118927318Y-101754762D01*
X118823302Y-101599092D01*
X118823299Y-101599088D01*
X118690911Y-101466700D01*
X118690907Y-101466697D01*
X118535237Y-101362681D01*
X118535228Y-101362676D01*
X118362251Y-101291027D01*
X118362243Y-101291025D01*
X118178620Y-101254500D01*
X118178616Y-101254500D01*
X117991384Y-101254500D01*
X117991379Y-101254500D01*
X117807756Y-101291025D01*
X117807748Y-101291027D01*
X117634771Y-101362676D01*
X117634762Y-101362681D01*
X117479092Y-101466697D01*
X117479088Y-101466700D01*
X117346700Y-101599088D01*
X117346697Y-101599092D01*
X117242681Y-101754762D01*
X117242676Y-101754771D01*
X117171027Y-101927748D01*
X117171025Y-101927756D01*
X117134500Y-102111379D01*
X116495499Y-102111379D01*
X116458973Y-101927749D01*
X116387322Y-101754769D01*
X116387321Y-101754768D01*
X116387318Y-101754762D01*
X116283302Y-101599092D01*
X116283299Y-101599088D01*
X116150911Y-101466700D01*
X116150907Y-101466697D01*
X115995237Y-101362681D01*
X115995228Y-101362676D01*
X115822251Y-101291027D01*
X115822243Y-101291025D01*
X115638620Y-101254500D01*
X115638616Y-101254500D01*
X115451384Y-101254500D01*
X115451379Y-101254500D01*
X115267756Y-101291025D01*
X115267748Y-101291027D01*
X115094771Y-101362676D01*
X115094762Y-101362681D01*
X114939092Y-101466697D01*
X114939088Y-101466700D01*
X114806700Y-101599088D01*
X114806697Y-101599092D01*
X114702681Y-101754762D01*
X114702676Y-101754771D01*
X114631027Y-101927748D01*
X114631025Y-101927756D01*
X114594500Y-102111379D01*
X113955499Y-102111379D01*
X113918973Y-101927749D01*
X113847322Y-101754769D01*
X113847321Y-101754768D01*
X113847318Y-101754762D01*
X113743302Y-101599092D01*
X113743299Y-101599088D01*
X113610911Y-101466700D01*
X113610907Y-101466697D01*
X113455237Y-101362681D01*
X113455228Y-101362676D01*
X113282251Y-101291027D01*
X113282243Y-101291025D01*
X113098620Y-101254500D01*
X113098616Y-101254500D01*
X112911384Y-101254500D01*
X112911379Y-101254500D01*
X112727756Y-101291025D01*
X112727748Y-101291027D01*
X112554771Y-101362676D01*
X112554762Y-101362681D01*
X112399092Y-101466697D01*
X112399088Y-101466700D01*
X112266700Y-101599088D01*
X112266697Y-101599092D01*
X112162681Y-101754762D01*
X112162676Y-101754771D01*
X112091027Y-101927748D01*
X112091025Y-101927756D01*
X112054500Y-102111379D01*
X111415499Y-102111379D01*
X111378973Y-101927749D01*
X111307322Y-101754769D01*
X111307321Y-101754768D01*
X111307318Y-101754762D01*
X111203302Y-101599092D01*
X111203299Y-101599088D01*
X111070911Y-101466700D01*
X111070907Y-101466697D01*
X110915237Y-101362681D01*
X110915228Y-101362676D01*
X110742251Y-101291027D01*
X110742243Y-101291025D01*
X110558620Y-101254500D01*
X110558616Y-101254500D01*
X110371384Y-101254500D01*
X110371379Y-101254500D01*
X110187756Y-101291025D01*
X110187748Y-101291027D01*
X110014771Y-101362676D01*
X110014762Y-101362681D01*
X109859092Y-101466697D01*
X109859088Y-101466700D01*
X109726700Y-101599088D01*
X109726697Y-101599092D01*
X109622681Y-101754762D01*
X109622676Y-101754771D01*
X109551027Y-101927748D01*
X109551025Y-101927756D01*
X109514500Y-102111379D01*
X108875499Y-102111379D01*
X108838973Y-101927749D01*
X108767322Y-101754769D01*
X108767321Y-101754768D01*
X108767318Y-101754762D01*
X108663302Y-101599092D01*
X108663299Y-101599088D01*
X108530911Y-101466700D01*
X108530907Y-101466697D01*
X108375237Y-101362681D01*
X108375228Y-101362676D01*
X108202251Y-101291027D01*
X108202243Y-101291025D01*
X108018620Y-101254500D01*
X108018616Y-101254500D01*
X107831384Y-101254500D01*
X107831379Y-101254500D01*
X107647756Y-101291025D01*
X107647748Y-101291027D01*
X107474771Y-101362676D01*
X107474762Y-101362681D01*
X107319092Y-101466697D01*
X107319088Y-101466700D01*
X107186700Y-101599088D01*
X107186697Y-101599092D01*
X107082681Y-101754762D01*
X107082676Y-101754771D01*
X107011027Y-101927748D01*
X107011025Y-101927756D01*
X106977746Y-102095062D01*
X106945361Y-102156973D01*
X106884646Y-102191547D01*
X106814876Y-102187808D01*
X106758204Y-102146941D01*
X106733656Y-102090269D01*
X106701757Y-101888872D01*
X106701757Y-101888869D01*
X106636095Y-101686782D01*
X106539624Y-101497449D01*
X106500270Y-101443282D01*
X106500269Y-101443282D01*
X105867962Y-102075590D01*
X105850925Y-102012007D01*
X105785099Y-101897993D01*
X105692007Y-101804901D01*
X105577993Y-101739075D01*
X105514409Y-101722037D01*
X106052336Y-101184108D01*
X129499500Y-101184108D01*
X129499500Y-101315891D01*
X129533608Y-101443187D01*
X129547184Y-101466700D01*
X129599500Y-101557314D01*
X129692686Y-101650500D01*
X129806814Y-101716392D01*
X129806832Y-101716397D01*
X129806846Y-101716405D01*
X129814318Y-101719500D01*
X129813835Y-101720665D01*
X129866493Y-101752759D01*
X129897024Y-101815605D01*
X129889304Y-101883623D01*
X129871027Y-101927748D01*
X129871025Y-101927756D01*
X129834500Y-102111379D01*
X129834500Y-102298620D01*
X129871025Y-102482243D01*
X129871027Y-102482251D01*
X129942676Y-102655228D01*
X129942681Y-102655237D01*
X130046697Y-102810907D01*
X130046700Y-102810911D01*
X130179088Y-102943299D01*
X130179092Y-102943302D01*
X130334762Y-103047318D01*
X130334768Y-103047321D01*
X130334769Y-103047322D01*
X130507749Y-103118973D01*
X130691379Y-103155499D01*
X130691383Y-103155500D01*
X130691384Y-103155500D01*
X130878617Y-103155500D01*
X130878618Y-103155499D01*
X131062251Y-103118973D01*
X131235231Y-103047322D01*
X131390908Y-102943302D01*
X131523302Y-102810908D01*
X131627322Y-102655231D01*
X131698973Y-102482251D01*
X131735500Y-102298616D01*
X131735500Y-102111384D01*
X131735499Y-102111379D01*
X132374500Y-102111379D01*
X132374500Y-102298620D01*
X132411025Y-102482243D01*
X132411027Y-102482251D01*
X132482676Y-102655228D01*
X132482681Y-102655237D01*
X132586697Y-102810907D01*
X132586700Y-102810911D01*
X132719088Y-102943299D01*
X132719092Y-102943302D01*
X132874762Y-103047318D01*
X132874768Y-103047321D01*
X132874769Y-103047322D01*
X133047749Y-103118973D01*
X133231379Y-103155499D01*
X133231383Y-103155500D01*
X133231384Y-103155500D01*
X133418617Y-103155500D01*
X133418618Y-103155499D01*
X133602251Y-103118973D01*
X133775231Y-103047322D01*
X133930908Y-102943302D01*
X134063302Y-102810908D01*
X134167322Y-102655231D01*
X134238973Y-102482251D01*
X134275500Y-102298616D01*
X134275500Y-102111384D01*
X134275499Y-102111379D01*
X134914500Y-102111379D01*
X134914500Y-102298620D01*
X134951025Y-102482243D01*
X134951027Y-102482251D01*
X135022676Y-102655228D01*
X135022681Y-102655237D01*
X135126697Y-102810907D01*
X135126700Y-102810911D01*
X135259088Y-102943299D01*
X135259092Y-102943302D01*
X135414762Y-103047318D01*
X135414768Y-103047321D01*
X135414769Y-103047322D01*
X135587749Y-103118973D01*
X135771379Y-103155499D01*
X135771383Y-103155500D01*
X135771384Y-103155500D01*
X135958617Y-103155500D01*
X135958618Y-103155499D01*
X136142251Y-103118973D01*
X136315231Y-103047322D01*
X136470908Y-102943302D01*
X136603302Y-102810908D01*
X136707322Y-102655231D01*
X136778973Y-102482251D01*
X136815500Y-102298616D01*
X136815500Y-102111384D01*
X136815499Y-102111379D01*
X137454500Y-102111379D01*
X137454500Y-102298620D01*
X137491025Y-102482243D01*
X137491027Y-102482251D01*
X137562676Y-102655228D01*
X137562681Y-102655237D01*
X137666697Y-102810907D01*
X137666700Y-102810911D01*
X137799088Y-102943299D01*
X137799092Y-102943302D01*
X137954762Y-103047318D01*
X137954768Y-103047321D01*
X137954769Y-103047322D01*
X138127749Y-103118973D01*
X138311379Y-103155499D01*
X138311383Y-103155500D01*
X138311384Y-103155500D01*
X138498617Y-103155500D01*
X138498618Y-103155499D01*
X138682251Y-103118973D01*
X138855231Y-103047322D01*
X139010908Y-102943302D01*
X139143302Y-102810908D01*
X139247322Y-102655231D01*
X139318973Y-102482251D01*
X139355500Y-102298616D01*
X139355500Y-102111384D01*
X139355499Y-102111379D01*
X139994500Y-102111379D01*
X139994500Y-102298620D01*
X140031025Y-102482243D01*
X140031027Y-102482251D01*
X140102676Y-102655228D01*
X140102681Y-102655237D01*
X140206697Y-102810907D01*
X140206700Y-102810911D01*
X140339088Y-102943299D01*
X140339092Y-102943302D01*
X140494762Y-103047318D01*
X140494768Y-103047321D01*
X140494769Y-103047322D01*
X140667749Y-103118973D01*
X140851379Y-103155499D01*
X140851383Y-103155500D01*
X140851384Y-103155500D01*
X141038617Y-103155500D01*
X141038618Y-103155499D01*
X141222251Y-103118973D01*
X141395231Y-103047322D01*
X141550908Y-102943302D01*
X141683302Y-102810908D01*
X141787322Y-102655231D01*
X141858973Y-102482251D01*
X141895500Y-102298616D01*
X141895500Y-102111384D01*
X141895499Y-102111379D01*
X142534500Y-102111379D01*
X142534500Y-102298620D01*
X142571025Y-102482243D01*
X142571027Y-102482251D01*
X142642676Y-102655228D01*
X142642681Y-102655237D01*
X142746697Y-102810907D01*
X142746700Y-102810911D01*
X142879088Y-102943299D01*
X142879092Y-102943302D01*
X143034762Y-103047318D01*
X143034768Y-103047321D01*
X143034769Y-103047322D01*
X143207749Y-103118973D01*
X143391379Y-103155499D01*
X143391383Y-103155500D01*
X143391384Y-103155500D01*
X143578617Y-103155500D01*
X143578618Y-103155499D01*
X143762251Y-103118973D01*
X143935231Y-103047322D01*
X144090908Y-102943302D01*
X144223302Y-102810908D01*
X144327322Y-102655231D01*
X144398973Y-102482251D01*
X144435500Y-102298616D01*
X144435500Y-102111384D01*
X144435499Y-102111379D01*
X145074500Y-102111379D01*
X145074500Y-102298620D01*
X145111025Y-102482243D01*
X145111027Y-102482251D01*
X145182676Y-102655228D01*
X145182681Y-102655237D01*
X145286697Y-102810907D01*
X145286700Y-102810911D01*
X145419088Y-102943299D01*
X145419092Y-102943302D01*
X145574762Y-103047318D01*
X145574768Y-103047321D01*
X145574769Y-103047322D01*
X145747749Y-103118973D01*
X145931379Y-103155499D01*
X145931383Y-103155500D01*
X145931384Y-103155500D01*
X146118617Y-103155500D01*
X146118618Y-103155499D01*
X146302251Y-103118973D01*
X146475231Y-103047322D01*
X146630908Y-102943302D01*
X146763302Y-102810908D01*
X146867322Y-102655231D01*
X146938973Y-102482251D01*
X146972254Y-102314933D01*
X147004637Y-102253026D01*
X147065353Y-102218452D01*
X147135122Y-102222191D01*
X147191794Y-102263057D01*
X147216343Y-102319730D01*
X147248242Y-102521127D01*
X147248242Y-102521130D01*
X147313904Y-102723217D01*
X147410375Y-102912550D01*
X147449728Y-102966716D01*
X148082037Y-102334408D01*
X148099075Y-102397993D01*
X148164901Y-102512007D01*
X148257993Y-102605099D01*
X148372007Y-102670925D01*
X148435590Y-102687962D01*
X147803282Y-103320269D01*
X147803282Y-103320270D01*
X147857449Y-103359624D01*
X148046782Y-103456095D01*
X148248870Y-103521757D01*
X148450269Y-103553656D01*
X148513404Y-103583585D01*
X148550335Y-103642897D01*
X148549337Y-103712759D01*
X148510727Y-103770992D01*
X148455062Y-103797746D01*
X148287756Y-103831025D01*
X148287748Y-103831027D01*
X148114771Y-103902676D01*
X148114762Y-103902681D01*
X147959092Y-104006697D01*
X147959088Y-104006700D01*
X147826700Y-104139088D01*
X147826697Y-104139092D01*
X147722681Y-104294762D01*
X147722676Y-104294771D01*
X147651027Y-104467748D01*
X147651025Y-104467756D01*
X147614500Y-104651379D01*
X147614500Y-104838620D01*
X147651025Y-105022243D01*
X147651027Y-105022251D01*
X147722676Y-105195228D01*
X147722681Y-105195237D01*
X147826697Y-105350907D01*
X147826700Y-105350911D01*
X147959088Y-105483299D01*
X147959092Y-105483302D01*
X148114762Y-105587318D01*
X148114768Y-105587321D01*
X148114769Y-105587322D01*
X148287749Y-105658973D01*
X148471379Y-105695499D01*
X148471383Y-105695500D01*
X148471384Y-105695500D01*
X148658617Y-105695500D01*
X148658618Y-105695499D01*
X148842251Y-105658973D01*
X149015231Y-105587322D01*
X149170908Y-105483302D01*
X149303302Y-105350908D01*
X149407322Y-105195231D01*
X149478973Y-105022251D01*
X149515500Y-104838616D01*
X149515500Y-104651384D01*
X149478973Y-104467749D01*
X149407322Y-104294769D01*
X149407321Y-104294768D01*
X149407318Y-104294762D01*
X149303302Y-104139092D01*
X149303299Y-104139088D01*
X149170911Y-104006700D01*
X149170907Y-104006697D01*
X149015237Y-103902681D01*
X149015228Y-103902676D01*
X148842251Y-103831027D01*
X148842243Y-103831025D01*
X148674937Y-103797746D01*
X148613026Y-103765361D01*
X148578452Y-103704646D01*
X148582191Y-103634876D01*
X148623057Y-103578204D01*
X148679730Y-103553656D01*
X148881127Y-103521757D01*
X148881130Y-103521757D01*
X149083217Y-103456095D01*
X149272554Y-103359622D01*
X149326716Y-103320270D01*
X149326717Y-103320270D01*
X148694408Y-102687962D01*
X148757993Y-102670925D01*
X148872007Y-102605099D01*
X148965099Y-102512007D01*
X149030925Y-102397993D01*
X149047962Y-102334408D01*
X149680270Y-102966717D01*
X149680270Y-102966716D01*
X149719622Y-102912554D01*
X149816095Y-102723217D01*
X149881757Y-102521130D01*
X149881757Y-102521127D01*
X149905055Y-102374038D01*
X150899500Y-102374038D01*
X150899500Y-102625962D01*
X150914904Y-102723217D01*
X150938910Y-102874785D01*
X151016760Y-103114383D01*
X151131132Y-103338848D01*
X151279201Y-103542649D01*
X151279205Y-103542654D01*
X151457345Y-103720794D01*
X151457350Y-103720798D01*
X151526437Y-103770992D01*
X151661155Y-103868870D01*
X151804184Y-103941747D01*
X151885616Y-103983239D01*
X151885618Y-103983239D01*
X151885621Y-103983241D01*
X152125215Y-104061090D01*
X152374038Y-104100500D01*
X152374039Y-104100500D01*
X152625961Y-104100500D01*
X152625962Y-104100500D01*
X152874785Y-104061090D01*
X153114379Y-103983241D01*
X153338845Y-103868870D01*
X153542656Y-103720793D01*
X153720793Y-103542656D01*
X153868870Y-103338845D01*
X153983241Y-103114379D01*
X154061090Y-102874785D01*
X154100500Y-102625962D01*
X154100500Y-102374038D01*
X154061090Y-102125215D01*
X153983241Y-101885621D01*
X153983239Y-101885618D01*
X153983239Y-101885616D01*
X153920108Y-101761716D01*
X153868870Y-101661155D01*
X153793427Y-101557316D01*
X153720798Y-101457350D01*
X153720794Y-101457345D01*
X153542654Y-101279205D01*
X153542649Y-101279201D01*
X153338848Y-101131132D01*
X153338847Y-101131131D01*
X153338845Y-101131130D01*
X153257587Y-101089727D01*
X153114383Y-101016760D01*
X152874785Y-100938910D01*
X152625962Y-100899500D01*
X152374038Y-100899500D01*
X152333902Y-100905857D01*
X152125214Y-100938910D01*
X151885616Y-101016760D01*
X151661151Y-101131132D01*
X151457350Y-101279201D01*
X151457345Y-101279205D01*
X151279205Y-101457345D01*
X151279201Y-101457350D01*
X151131132Y-101661151D01*
X151016760Y-101885616D01*
X150938910Y-102125214D01*
X150918101Y-102256595D01*
X150899500Y-102374038D01*
X149905055Y-102374038D01*
X149908899Y-102349768D01*
X149908899Y-102349767D01*
X149915000Y-102311247D01*
X149915000Y-102098753D01*
X149881757Y-101888872D01*
X149881757Y-101888869D01*
X149816095Y-101686782D01*
X149719624Y-101497449D01*
X149680270Y-101443282D01*
X149680269Y-101443282D01*
X149047962Y-102075590D01*
X149030925Y-102012007D01*
X148965099Y-101897993D01*
X148872007Y-101804901D01*
X148757993Y-101739075D01*
X148694409Y-101722037D01*
X149326716Y-101089728D01*
X149272550Y-101050375D01*
X149083217Y-100953904D01*
X148881129Y-100888242D01*
X148671246Y-100855000D01*
X148458754Y-100855000D01*
X148248872Y-100888242D01*
X148248869Y-100888242D01*
X148046782Y-100953904D01*
X147857439Y-101050380D01*
X147803282Y-101089727D01*
X147803282Y-101089728D01*
X148435591Y-101722037D01*
X148372007Y-101739075D01*
X148257993Y-101804901D01*
X148164901Y-101897993D01*
X148099075Y-102012007D01*
X148082037Y-102075591D01*
X147449728Y-101443282D01*
X147449727Y-101443282D01*
X147410380Y-101497439D01*
X147313904Y-101686782D01*
X147248242Y-101888869D01*
X147248242Y-101888872D01*
X147216343Y-102090269D01*
X147186413Y-102153404D01*
X147127102Y-102190335D01*
X147057239Y-102189337D01*
X146999007Y-102150727D01*
X146972254Y-102095065D01*
X146938973Y-101927749D01*
X146867322Y-101754769D01*
X146867321Y-101754768D01*
X146867318Y-101754762D01*
X146763302Y-101599092D01*
X146763299Y-101599088D01*
X146630911Y-101466700D01*
X146630907Y-101466697D01*
X146475237Y-101362681D01*
X146475228Y-101362676D01*
X146302251Y-101291027D01*
X146302243Y-101291025D01*
X146139251Y-101258604D01*
X146118620Y-101254500D01*
X146118616Y-101254500D01*
X145931384Y-101254500D01*
X145931379Y-101254500D01*
X145747756Y-101291025D01*
X145747748Y-101291027D01*
X145574771Y-101362676D01*
X145574762Y-101362681D01*
X145419092Y-101466697D01*
X145419088Y-101466700D01*
X145286700Y-101599088D01*
X145286697Y-101599092D01*
X145182681Y-101754762D01*
X145182676Y-101754771D01*
X145111027Y-101927748D01*
X145111025Y-101927756D01*
X145074500Y-102111379D01*
X144435499Y-102111379D01*
X144398973Y-101927749D01*
X144327322Y-101754769D01*
X144327321Y-101754768D01*
X144327318Y-101754762D01*
X144223302Y-101599092D01*
X144223299Y-101599088D01*
X144090911Y-101466700D01*
X144090907Y-101466697D01*
X143935237Y-101362681D01*
X143935228Y-101362676D01*
X143762251Y-101291027D01*
X143762243Y-101291025D01*
X143578620Y-101254500D01*
X143578616Y-101254500D01*
X143391384Y-101254500D01*
X143391379Y-101254500D01*
X143207756Y-101291025D01*
X143207748Y-101291027D01*
X143034771Y-101362676D01*
X143034762Y-101362681D01*
X142879092Y-101466697D01*
X142879088Y-101466700D01*
X142746700Y-101599088D01*
X142746697Y-101599092D01*
X142642681Y-101754762D01*
X142642676Y-101754771D01*
X142571027Y-101927748D01*
X142571025Y-101927756D01*
X142534500Y-102111379D01*
X141895499Y-102111379D01*
X141858973Y-101927749D01*
X141787322Y-101754769D01*
X141787321Y-101754768D01*
X141787318Y-101754762D01*
X141683302Y-101599092D01*
X141683299Y-101599088D01*
X141550911Y-101466700D01*
X141550907Y-101466697D01*
X141395237Y-101362681D01*
X141395228Y-101362676D01*
X141222251Y-101291027D01*
X141222243Y-101291025D01*
X141038620Y-101254500D01*
X141038616Y-101254500D01*
X140851384Y-101254500D01*
X140851379Y-101254500D01*
X140667756Y-101291025D01*
X140667748Y-101291027D01*
X140494771Y-101362676D01*
X140494762Y-101362681D01*
X140339092Y-101466697D01*
X140339088Y-101466700D01*
X140206700Y-101599088D01*
X140206697Y-101599092D01*
X140102681Y-101754762D01*
X140102676Y-101754771D01*
X140031027Y-101927748D01*
X140031025Y-101927756D01*
X139994500Y-102111379D01*
X139355499Y-102111379D01*
X139318973Y-101927749D01*
X139247322Y-101754769D01*
X139247321Y-101754768D01*
X139247318Y-101754762D01*
X139143302Y-101599092D01*
X139143299Y-101599088D01*
X139010911Y-101466700D01*
X139010907Y-101466697D01*
X138855237Y-101362681D01*
X138855228Y-101362676D01*
X138682251Y-101291027D01*
X138682243Y-101291025D01*
X138498620Y-101254500D01*
X138498616Y-101254500D01*
X138311384Y-101254500D01*
X138311379Y-101254500D01*
X138127756Y-101291025D01*
X138127748Y-101291027D01*
X137954771Y-101362676D01*
X137954762Y-101362681D01*
X137799092Y-101466697D01*
X137799088Y-101466700D01*
X137666700Y-101599088D01*
X137666697Y-101599092D01*
X137562681Y-101754762D01*
X137562676Y-101754771D01*
X137491027Y-101927748D01*
X137491025Y-101927756D01*
X137454500Y-102111379D01*
X136815499Y-102111379D01*
X136778973Y-101927749D01*
X136707322Y-101754769D01*
X136707321Y-101754768D01*
X136707318Y-101754762D01*
X136603302Y-101599092D01*
X136603299Y-101599088D01*
X136470911Y-101466700D01*
X136470907Y-101466697D01*
X136315237Y-101362681D01*
X136315228Y-101362676D01*
X136142251Y-101291027D01*
X136142243Y-101291025D01*
X135958620Y-101254500D01*
X135958616Y-101254500D01*
X135771384Y-101254500D01*
X135771379Y-101254500D01*
X135587756Y-101291025D01*
X135587748Y-101291027D01*
X135414771Y-101362676D01*
X135414762Y-101362681D01*
X135259092Y-101466697D01*
X135259088Y-101466700D01*
X135126700Y-101599088D01*
X135126697Y-101599092D01*
X135022681Y-101754762D01*
X135022676Y-101754771D01*
X134951027Y-101927748D01*
X134951025Y-101927756D01*
X134914500Y-102111379D01*
X134275499Y-102111379D01*
X134238973Y-101927749D01*
X134167322Y-101754769D01*
X134167321Y-101754768D01*
X134167318Y-101754762D01*
X134063302Y-101599092D01*
X134063299Y-101599088D01*
X133930911Y-101466700D01*
X133930907Y-101466697D01*
X133775237Y-101362681D01*
X133775228Y-101362676D01*
X133602251Y-101291027D01*
X133602243Y-101291025D01*
X133418620Y-101254500D01*
X133418616Y-101254500D01*
X133231384Y-101254500D01*
X133231379Y-101254500D01*
X133047756Y-101291025D01*
X133047748Y-101291027D01*
X132874771Y-101362676D01*
X132874762Y-101362681D01*
X132719092Y-101466697D01*
X132719088Y-101466700D01*
X132586700Y-101599088D01*
X132586697Y-101599092D01*
X132482681Y-101754762D01*
X132482676Y-101754771D01*
X132411027Y-101927748D01*
X132411025Y-101927756D01*
X132374500Y-102111379D01*
X131735499Y-102111379D01*
X131698973Y-101927749D01*
X131627322Y-101754769D01*
X131627321Y-101754768D01*
X131627318Y-101754762D01*
X131523302Y-101599092D01*
X131523299Y-101599088D01*
X131390911Y-101466700D01*
X131390907Y-101466697D01*
X131235237Y-101362681D01*
X131235228Y-101362676D01*
X131062251Y-101291027D01*
X131062243Y-101291025D01*
X130878620Y-101254500D01*
X130878616Y-101254500D01*
X130691384Y-101254500D01*
X130691379Y-101254500D01*
X130641972Y-101264328D01*
X130572380Y-101258101D01*
X130517203Y-101215237D01*
X130498008Y-101174808D01*
X130466392Y-101056814D01*
X130462674Y-101050375D01*
X130443266Y-101016759D01*
X130400500Y-100942686D01*
X130307314Y-100849500D01*
X130241671Y-100811601D01*
X130193187Y-100783608D01*
X130129539Y-100766554D01*
X130065892Y-100749500D01*
X129934108Y-100749500D01*
X129806812Y-100783608D01*
X129692686Y-100849500D01*
X129692683Y-100849502D01*
X129599502Y-100942683D01*
X129599500Y-100942686D01*
X129533608Y-101056812D01*
X129499500Y-101184108D01*
X106052336Y-101184108D01*
X106146716Y-101089728D01*
X106092550Y-101050375D01*
X105903217Y-100953904D01*
X105701129Y-100888242D01*
X105491246Y-100855000D01*
X105278754Y-100855000D01*
X105068872Y-100888242D01*
X105068869Y-100888242D01*
X104866782Y-100953904D01*
X104677439Y-101050380D01*
X104623282Y-101089727D01*
X104623282Y-101089728D01*
X105255591Y-101722037D01*
X105192007Y-101739075D01*
X105077993Y-101804901D01*
X104984901Y-101897993D01*
X104919075Y-102012007D01*
X104902037Y-102075591D01*
X104269728Y-101443282D01*
X104269727Y-101443282D01*
X104230380Y-101497439D01*
X104133905Y-101686781D01*
X104128297Y-101704041D01*
X104088859Y-101761716D01*
X104024500Y-101788914D01*
X103955654Y-101776999D01*
X103904178Y-101729754D01*
X103899881Y-101722017D01*
X103890721Y-101704041D01*
X103868870Y-101661155D01*
X103793427Y-101557316D01*
X103720798Y-101457350D01*
X103720794Y-101457345D01*
X103542654Y-101279205D01*
X103542649Y-101279201D01*
X103484984Y-101237305D01*
X103338848Y-101131132D01*
X103338847Y-101131131D01*
X103338845Y-101131130D01*
X103257587Y-101089727D01*
X103114383Y-101016760D01*
X102874785Y-100938910D01*
X102625962Y-100899500D01*
X102374038Y-100899500D01*
X102333902Y-100905857D01*
X102125214Y-100938910D01*
X101885616Y-101016760D01*
X101661151Y-101131132D01*
X101457350Y-101279201D01*
X101457345Y-101279205D01*
X101279205Y-101457345D01*
X101279201Y-101457350D01*
X101131132Y-101661151D01*
X101016760Y-101885616D01*
X100938910Y-102125214D01*
X100918101Y-102256595D01*
X100899500Y-102374038D01*
X100258119Y-102374038D01*
X100258867Y-102361679D01*
X100258867Y-102361678D01*
X100266448Y-102236340D01*
X100268253Y-102221475D01*
X100271272Y-102204999D01*
X100314515Y-101969026D01*
X100318095Y-101954505D01*
X100394451Y-101709471D01*
X100399753Y-101695489D01*
X100505095Y-101461430D01*
X100512040Y-101448197D01*
X100644826Y-101228542D01*
X100653313Y-101216246D01*
X100811608Y-101014198D01*
X100821523Y-101003007D01*
X101003007Y-100821523D01*
X101014198Y-100811608D01*
X101216246Y-100653313D01*
X101228542Y-100644826D01*
X101448197Y-100512040D01*
X101461430Y-100505095D01*
X101695489Y-100399753D01*
X101709471Y-100394451D01*
X101954505Y-100318095D01*
X101969026Y-100314515D01*
X102221476Y-100268252D01*
X102236335Y-100266448D01*
X102496264Y-100250726D01*
X102503751Y-100250500D01*
X102544170Y-100250500D01*
X152455830Y-100250500D01*
X152496249Y-100250500D01*
X152503736Y-100250726D01*
G37*
%TD.AperFunction*%
%TD*%
M02*
