%TF.GenerationSoftware,KiCad,Pcbnew,9.0.2+dfsg-1*%
%TF.CreationDate,2026-07-18T19:34:47-04:00*%
%TF.ProjectId,Commo,456d6d61-2e6b-4696-9361-645f70636258,2*%
%TF.SameCoordinates,Original*%
%TF.FileFunction,Copper,L1,Top*%
%TF.FilePolarity,Positive*%
%FSLAX46Y46*%
G04 Gerber Fmt 4.6, Leading zero omitted, Abs format (unit mm)*
G04 Created by KiCad (PCBNEW 9.0.2+dfsg-1) date 2026-07-18 19:34:47*
%MOMM*%
%LPD*%
G01*
G04 APERTURE LIST*
G04 Aperture macros list*
%AMRoundRect*
0 Rectangle with rounded corners*
0 $1 Rounding radius*
0 $2 $3 $4 $5 $6 $7 $8 $9 X,Y pos of 4 corners*
0 Add a 4 corners polygon primitive as box body*
4,1,4,$2,$3,$4,$5,$6,$7,$8,$9,$2,$3,0*
0 Add four circle primitives for the rounded corners*
1,1,$1+$1,$2,$3*
1,1,$1+$1,$4,$5*
1,1,$1+$1,$6,$7*
1,1,$1+$1,$8,$9*
0 Add four rect primitives between the rounded corners*
20,1,$1+$1,$2,$3,$4,$5,0*
20,1,$1+$1,$4,$5,$6,$7,0*
20,1,$1+$1,$6,$7,$8,$9,0*
20,1,$1+$1,$8,$9,$2,$3,0*%
%AMFreePoly0*
4,1,9,3.862500,-0.866500,0.737500,-0.866500,0.737500,-0.450000,-0.737500,-0.450000,-0.737500,0.450000,0.737500,0.450000,0.737500,0.866500,3.862500,0.866500,3.862500,-0.866500,3.862500,-0.866500,$1*%
G04 Aperture macros list end*
%TA.AperFunction,SMDPad,CuDef*%
%ADD10RoundRect,0.140000X0.170000X-0.140000X0.170000X0.140000X-0.170000X0.140000X-0.170000X-0.140000X0*%
%TD*%
%TA.AperFunction,SMDPad,CuDef*%
%ADD11RoundRect,0.140000X-0.140000X-0.170000X0.140000X-0.170000X0.140000X0.170000X-0.140000X0.170000X0*%
%TD*%
%TA.AperFunction,SMDPad,CuDef*%
%ADD12R,1.600000X0.800000*%
%TD*%
%TA.AperFunction,SMDPad,CuDef*%
%ADD13RoundRect,0.135000X-0.135000X-0.185000X0.135000X-0.185000X0.135000X0.185000X-0.135000X0.185000X0*%
%TD*%
%TA.AperFunction,SMDPad,CuDef*%
%ADD14RoundRect,0.147500X-0.147500X-0.172500X0.147500X-0.172500X0.147500X0.172500X-0.147500X0.172500X0*%
%TD*%
%TA.AperFunction,ComponentPad*%
%ADD15C,1.600000*%
%TD*%
%TA.AperFunction,ComponentPad*%
%ADD16C,2.000000*%
%TD*%
%TA.AperFunction,SMDPad,CuDef*%
%ADD17R,0.800000X1.000000*%
%TD*%
%TA.AperFunction,SMDPad,CuDef*%
%ADD18R,0.600000X0.400000*%
%TD*%
%TA.AperFunction,SMDPad,CuDef*%
%ADD19R,1.875000X1.250000*%
%TD*%
%TA.AperFunction,SMDPad,CuDef*%
%ADD20R,0.625000X0.500000*%
%TD*%
%TA.AperFunction,SMDPad,CuDef*%
%ADD21RoundRect,0.100000X-0.225000X-0.100000X0.225000X-0.100000X0.225000X0.100000X-0.225000X0.100000X0*%
%TD*%
%TA.AperFunction,SMDPad,CuDef*%
%ADD22RoundRect,0.250000X-0.250000X-0.350000X0.250000X-0.350000X0.250000X0.350000X-0.250000X0.350000X0*%
%TD*%
%TA.AperFunction,SMDPad,CuDef*%
%ADD23RoundRect,0.137500X-0.137500X-0.137500X0.137500X-0.137500X0.137500X0.137500X-0.137500X0.137500X0*%
%TD*%
%TA.AperFunction,SMDPad,CuDef*%
%ADD24RoundRect,0.250000X-0.325000X-1.100000X0.325000X-1.100000X0.325000X1.100000X-0.325000X1.100000X0*%
%TD*%
%TA.AperFunction,SMDPad,CuDef*%
%ADD25RoundRect,0.250000X-0.475000X0.250000X-0.475000X-0.250000X0.475000X-0.250000X0.475000X0.250000X0*%
%TD*%
%TA.AperFunction,SMDPad,CuDef*%
%ADD26RoundRect,0.150000X-0.512500X-0.150000X0.512500X-0.150000X0.512500X0.150000X-0.512500X0.150000X0*%
%TD*%
%TA.AperFunction,SMDPad,CuDef*%
%ADD27RoundRect,0.200000X-0.300000X-0.200000X0.300000X-0.200000X0.300000X0.200000X-0.300000X0.200000X0*%
%TD*%
%TA.AperFunction,SMDPad,CuDef*%
%ADD28RoundRect,0.218750X-0.218750X-0.381250X0.218750X-0.381250X0.218750X0.381250X-0.218750X0.381250X0*%
%TD*%
%TA.AperFunction,ComponentPad*%
%ADD29C,1.700000*%
%TD*%
%TA.AperFunction,SMDPad,CuDef*%
%ADD30RoundRect,0.125000X-0.537500X-0.125000X0.537500X-0.125000X0.537500X0.125000X-0.537500X0.125000X0*%
%TD*%
%TA.AperFunction,SMDPad,CuDef*%
%ADD31RoundRect,0.250000X-0.300000X-0.300000X0.300000X-0.300000X0.300000X0.300000X-0.300000X0.300000X0*%
%TD*%
%TA.AperFunction,SMDPad,CuDef*%
%ADD32RoundRect,0.087500X-0.725000X-0.087500X0.725000X-0.087500X0.725000X0.087500X-0.725000X0.087500X0*%
%TD*%
%TA.AperFunction,SMDPad,CuDef*%
%ADD33RoundRect,0.140000X-0.170000X0.140000X-0.170000X-0.140000X0.170000X-0.140000X0.170000X0.140000X0*%
%TD*%
%TA.AperFunction,SMDPad,CuDef*%
%ADD34RoundRect,0.135000X0.185000X-0.135000X0.185000X0.135000X-0.185000X0.135000X-0.185000X-0.135000X0*%
%TD*%
%TA.AperFunction,SMDPad,CuDef*%
%ADD35RoundRect,0.150000X-0.587500X-0.150000X0.587500X-0.150000X0.587500X0.150000X-0.587500X0.150000X0*%
%TD*%
%TA.AperFunction,SMDPad,CuDef*%
%ADD36RoundRect,0.225000X-0.425000X-0.225000X0.425000X-0.225000X0.425000X0.225000X-0.425000X0.225000X0*%
%TD*%
%TA.AperFunction,SMDPad,CuDef*%
%ADD37FreePoly0,0.000000*%
%TD*%
%TA.AperFunction,ComponentPad*%
%ADD38R,5.650000X5.650000*%
%TD*%
%TA.AperFunction,ViaPad*%
%ADD39C,0.600000*%
%TD*%
%TA.AperFunction,ViaPad*%
%ADD40C,0.800000*%
%TD*%
%TA.AperFunction,ViaPad*%
%ADD41C,0.550000*%
%TD*%
%TA.AperFunction,Conductor*%
%ADD42C,0.200000*%
%TD*%
%TA.AperFunction,Conductor*%
%ADD43C,0.500000*%
%TD*%
%TA.AperFunction,Conductor*%
%ADD44C,0.150000*%
%TD*%
G04 APERTURE END LIST*
D10*
%TO.P,PGND 10n,1*%
%TO.N,GND*%
X128480000Y-117480000D03*
%TO.P,PGND 10n,2*%
X128480000Y-116520000D03*
%TD*%
D11*
%TO.P,SW By,1*%
%TO.N,+3V3*%
X137607836Y-122500000D03*
%TO.P,SW By,2*%
%TO.N,GND*%
X138567836Y-122500000D03*
%TD*%
D12*
%TO.P,J-ETH,1*%
%TO.N,EMMA_ETH_LINE_TXP*%
X102500000Y-110500000D03*
%TO.P,J-ETH,2*%
%TO.N,EMMA_ETH_LINE_TXN*%
X102500000Y-109250000D03*
%TO.P,J-ETH,3*%
%TO.N,EMMA_ETH_LINE_RXP*%
X102500000Y-108000000D03*
%TO.P,J-ETH,4*%
%TO.N,EMMA_ETH_LINE_RXN*%
X102500000Y-106750000D03*
%TD*%
D11*
%TO.P,PA By,1*%
%TO.N,+5V_FILT*%
X136500000Y-117000000D03*
%TO.P,PA By,2*%
%TO.N,GND*%
X137460000Y-117000000D03*
%TD*%
%TO.P,DAC By,1*%
%TO.N,+3V3*%
X123020000Y-113500000D03*
%TO.P,DAC By,2*%
%TO.N,GND*%
X123980000Y-113500000D03*
%TD*%
%TO.P,C2 180p,1*%
%TO.N,RF_LPF_N2*%
X135000000Y-123500000D03*
%TO.P,C2 180p,2*%
%TO.N,GND*%
X135960000Y-123500000D03*
%TD*%
D13*
%TO.P,PA Re,1*%
%TO.N,PA_EMIT*%
X136500000Y-120500000D03*
%TO.P,PA Re,2*%
%TO.N,GND*%
X137520000Y-120500000D03*
%TD*%
D14*
%TO.P,TX Bead,1*%
%TO.N,UART_TX_F*%
X110000000Y-108500000D03*
%TO.P,TX Bead,2*%
X110970000Y-108500000D03*
%TD*%
D11*
%TO.P,PA Cb2,1*%
%TO.N,PA_INT*%
X136540000Y-118500000D03*
%TO.P,PA Cb2,2*%
%TO.N,GND*%
X137500000Y-118500000D03*
%TD*%
D15*
%TO.P,ANT RPSMA,1*%
%TO.N,ANT*%
X152500000Y-112460000D03*
D16*
%TO.P,ANT RPSMA,2*%
%TO.N,GND*%
X152500000Y-109920000D03*
%TO.P,ANT RPSMA,3*%
X152500000Y-115000000D03*
%TD*%
D17*
%TO.P,ANT CMC,1*%
%TO.N,ANT*%
X146000000Y-112500000D03*
%TO.P,ANT CMC,2*%
X148000000Y-112500000D03*
%TD*%
D18*
%TO.P,ANT TVS,1*%
%TO.N,GND*%
X147000000Y-122500000D03*
%TO.P,ANT TVS,2*%
%TO.N,ANT*%
X147000000Y-121850000D03*
%TO.P,ANT TVS,3*%
%TO.N,GND*%
X147000000Y-121200000D03*
%TO.P,ANT TVS,4*%
X148900000Y-121200000D03*
%TO.P,ANT TVS,5*%
%TO.N,RF_TX*%
X148900000Y-121850000D03*
%TO.P,ANT TVS,6*%
%TO.N,GND*%
X148900000Y-122500000D03*
%TD*%
D19*
%TO.P,+5V Bead,1*%
%TO.N,+5V*%
X102937500Y-124000000D03*
%TO.P,+5V Bead,2*%
%TO.N,+5V_FILT*%
X106062500Y-124000000D03*
%TD*%
D20*
%TO.P,GND X2Y,1*%
%TO.N,GND*%
X144000000Y-112500000D03*
%TO.P,GND X2Y,2*%
X145125000Y-112500000D03*
%TD*%
D13*
%TO.P,RSSI Hi,1*%
%TO.N,RSSI_RAW*%
X139980000Y-122500000D03*
%TO.P,RSSI Hi,2*%
%TO.N,RSSI_ANA*%
X141000000Y-122500000D03*
%TD*%
D21*
%TO.P,INV1,1*%
%TO.N,UART_RX_F*%
X108550000Y-125950000D03*
%TO.P,INV1,2*%
%TO.N,GND*%
X108550000Y-125000000D03*
%TO.P,INV1,3*%
%TO.N,SBUS_OUT*%
X108550000Y-124050000D03*
%TO.P,INV1,4*%
%TO.N,+3V3*%
X110450000Y-124525000D03*
%TO.P,INV1,5*%
%TO.N,unconnected-(INV1-Pad5)*%
X110450000Y-125475000D03*
%TD*%
%TO.P,MUX1,1*%
%TO.N,UART_RX_F*%
X112550000Y-124350000D03*
%TO.P,MUX1,2*%
%TO.N,GND*%
X112550000Y-125000000D03*
%TO.P,MUX1,3*%
%TO.N,UART_RX_MUX*%
X112550000Y-125650000D03*
%TO.P,MUX1,4*%
%TO.N,+3V3*%
X114450000Y-125650000D03*
%TO.P,MUX1,5*%
%TO.N,MODE_SEL*%
X114450000Y-125000000D03*
%TO.P,MUX1,6*%
%TO.N,SBUS_OUT*%
X114450000Y-124350000D03*
%TD*%
D22*
%TO.P,S1,1*%
%TO.N,+3V3*%
X104000000Y-127000000D03*
%TO.P,S1,2*%
%TO.N,MODE_SEL*%
X105500000Y-127000000D03*
%TD*%
D11*
%TO.P,C_INV,1*%
%TO.N,+3V3*%
X116000000Y-107500000D03*
%TO.P,C_INV,2*%
%TO.N,GND*%
X116960000Y-107500000D03*
%TD*%
%TO.P,C_MUX,1*%
%TO.N,+3V3*%
X123020000Y-126880000D03*
%TO.P,C_MUX,2*%
%TO.N,GND*%
X123980000Y-126880000D03*
%TD*%
D13*
%TO.P,R_MODE,1*%
%TO.N,MODE_SEL*%
X115990000Y-125000000D03*
%TO.P,R_MODE,2*%
%TO.N,GND*%
X117010000Y-125000000D03*
%TD*%
D23*
%TO.P,UART CMC,1*%
%TO.N,UART_RCRS_RX*%
X105835000Y-110125000D03*
%TO.P,UART CMC,2*%
%TO.N,UART_TX_F*%
X107135000Y-110125000D03*
%TO.P,UART CMC,3*%
%TO.N,UART_RX_MUX*%
X107135000Y-110875000D03*
%TO.P,UART CMC,4*%
%TO.N,UART_RCRS_TX*%
X105835000Y-110875000D03*
%TD*%
D21*
%TO.P,UART TVS,1*%
%TO.N,GND*%
X105500000Y-113350000D03*
%TO.P,UART TVS,2*%
%TO.N,UART_RCRS_RX*%
X105500000Y-114000000D03*
%TO.P,UART TVS,3*%
%TO.N,GND*%
X105500000Y-114650000D03*
%TO.P,UART TVS,4*%
X107400000Y-114650000D03*
%TO.P,UART TVS,5*%
%TO.N,UART_RCRS_TX*%
X107400000Y-114000000D03*
%TO.P,UART TVS,6*%
%TO.N,GND*%
X107400000Y-113350000D03*
%TD*%
D13*
%TO.P,RSSI Lo,1*%
%TO.N,RSSI_ANA*%
X139990000Y-124000000D03*
%TO.P,RSSI Lo,2*%
%TO.N,GND*%
X141010000Y-124000000D03*
%TD*%
D11*
%TO.P,C3 120p,1*%
%TO.N,RF_FILT*%
X137540000Y-124000000D03*
%TO.P,C3 120p,2*%
%TO.N,GND*%
X138500000Y-124000000D03*
%TD*%
D10*
%TO.P,+3V 10n,1*%
%TO.N,+3V3*%
X128500000Y-122980000D03*
%TO.P,+3V 10n,2*%
%TO.N,GND*%
X128500000Y-122020000D03*
%TD*%
D11*
%TO.P,LDO By,1*%
%TO.N,+3V3*%
X108500000Y-120500000D03*
%TO.P,LDO By,2*%
%TO.N,GND*%
X109460000Y-120500000D03*
%TD*%
D13*
%TO.P,Th Lo,1*%
%TO.N,COMP_IN*%
X118990000Y-126500000D03*
%TO.P,Th Lo,2*%
%TO.N,GND*%
X120010000Y-126500000D03*
%TD*%
D24*
%TO.P,+3V 100u,1*%
%TO.N,+3V3*%
X117500000Y-121500000D03*
%TO.P,+3V 100u,2*%
%TO.N,GND*%
X120450000Y-121500000D03*
%TD*%
D21*
%TO.P,T/R Sw,1*%
%TO.N,RF_ANT_SW*%
X140000000Y-111000000D03*
%TO.P,T/R Sw,2*%
%TO.N,GND*%
X140000000Y-111650000D03*
%TO.P,T/R Sw,3*%
%TO.N,RF_RX*%
X140000000Y-112300000D03*
%TO.P,T/R Sw,4*%
%TO.N,PTT_N*%
X141900000Y-112300000D03*
%TO.P,T/R Sw,5*%
%TO.N,RF_FILT*%
X141900000Y-111650000D03*
%TO.P,T/R Sw,6*%
%TO.N,GND*%
X141900000Y-111000000D03*
%TD*%
D14*
%TO.P,RX Bead,1*%
%TO.N,UART_RX_F*%
X112515000Y-110500000D03*
%TO.P,RX Bead,2*%
X113485000Y-110500000D03*
%TD*%
D25*
%TO.P,+3V 10u,1*%
%TO.N,+3V3*%
X126500000Y-112500000D03*
%TO.P,+3V 10u,2*%
%TO.N,GND*%
X126500000Y-114400000D03*
%TD*%
D26*
%TO.P,RX Demod,1*%
%TO.N,AFSK_IN*%
X117862500Y-115050000D03*
%TO.P,RX Demod,2*%
%TO.N,+3V3*%
X117862500Y-116000000D03*
%TO.P,RX Demod,3*%
%TO.N,COMP_IN*%
X117862500Y-116950000D03*
%TO.P,RX Demod,4*%
%TO.N,GND*%
X120137500Y-116950000D03*
%TO.P,RX Demod,5*%
X120137500Y-115050000D03*
%TD*%
D11*
%TO.P,LNA By,1*%
%TO.N,+3V3*%
X140020000Y-121000000D03*
%TO.P,LNA By,2*%
%TO.N,GND*%
X140980000Y-121000000D03*
%TD*%
D27*
%TO.P,TCXO 25M,1*%
%TO.N,+3V3*%
X113300000Y-115450000D03*
%TO.P,TCXO 25M,2*%
%TO.N,GND*%
X113300000Y-117550000D03*
%TO.P,TCXO 25M,3*%
%TO.N,TCXO_OUT*%
X114700000Y-117550000D03*
%TO.P,TCXO 25M,4*%
%TO.N,+3V3*%
X114700000Y-115450000D03*
%TD*%
D28*
%TO.P,L2 180n,1*%
%TO.N,RF_LPF_N1*%
X132437500Y-121500000D03*
%TO.P,L2 180n,2*%
%TO.N,RF_LPF_N2*%
X134562500Y-121500000D03*
%TD*%
D11*
%TO.P,PA By2,1*%
%TO.N,RF_TX*%
X136500000Y-113000000D03*
%TO.P,PA By2,2*%
%TO.N,GND*%
X137460000Y-113000000D03*
%TD*%
D24*
%TO.P,+5V 100u,1*%
%TO.N,+5V_FILT*%
X105025000Y-118000000D03*
%TO.P,+5V 100u,2*%
%TO.N,GND*%
X107975000Y-118000000D03*
%TD*%
D29*
%TO.P,PB2-P2,1*%
%TO.N,PTT_N*%
X105385000Y-132745000D03*
%TO.P,PB2-P2,2*%
%TO.N,RSSI_DCD*%
X105385000Y-130205000D03*
%TO.P,PB2-P2,3*%
%TO.N,PWM_CH3*%
X107925000Y-132745000D03*
%TO.P,PB2-P2,4*%
%TO.N,PWM_CH2*%
X107925000Y-130205000D03*
%TO.P,PB2-P2,5*%
%TO.N,PWM_CH1*%
X110465000Y-132745000D03*
%TO.P,PB2-P2,6*%
%TO.N,PWM_CH0*%
X110465000Y-130205000D03*
%TO.P,PB2-P2,7*%
%TO.N,LOAD_CELL_DOUT*%
X113005000Y-132745000D03*
%TO.P,PB2-P2,8*%
%TO.N,LOAD_CELL_SCK*%
X113005000Y-130205000D03*
%TO.P,PB2-P2,9*%
%TO.N,WINCH_IN2*%
X115545000Y-132745000D03*
%TO.P,PB2-P2,10*%
%TO.N,WINCH_IN1*%
X115545000Y-130205000D03*
%TO.P,PB2-P2,11*%
%TO.N,TPM_RSTN*%
X118085000Y-132745000D03*
%TO.P,PB2-P2,12*%
%TO.N,TPM_IRQN*%
X118085000Y-130205000D03*
%TO.P,PB2-P2,13*%
%TO.N,PHY2_RSTN*%
X120625000Y-132745000D03*
%TO.P,PB2-P2,14*%
%TO.N,PHY2_INTRN*%
X120625000Y-130205000D03*
%TO.P,PB2-P2,15*%
%TO.N,PHY1_RSTN*%
X123165000Y-132745000D03*
%TO.P,PB2-P2,16*%
%TO.N,PHY1_INTRN*%
X123165000Y-130205000D03*
%TO.P,PB2-P2,17*%
%TO.N,MDIO*%
X125705000Y-132745000D03*
%TO.P,PB2-P2,18*%
%TO.N,MDC*%
X125705000Y-130205000D03*
%TO.P,PB2-P2,19*%
%TO.N,RMII1_REF_CLK*%
X128245000Y-132745000D03*
%TO.P,PB2-P2,20*%
%TO.N,RMII1_RX_ER*%
X128245000Y-130205000D03*
%TO.P,PB2-P2,21*%
%TO.N,RMII1_CRS_DV*%
X130785000Y-132745000D03*
%TO.P,PB2-P2,22*%
%TO.N,RMII1_RXD1*%
X130785000Y-130205000D03*
%TO.P,PB2-P2,23*%
%TO.N,RMII1_RXD0*%
X133325000Y-132745000D03*
%TO.P,PB2-P2,24*%
%TO.N,RMII1_TX_EN*%
X133325000Y-130205000D03*
%TO.P,PB2-P2,25*%
%TO.N,RMII1_TXD1*%
X135865000Y-132745000D03*
%TO.P,PB2-P2,26*%
%TO.N,RMII1_TXD0*%
X135865000Y-130205000D03*
%TO.P,PB2-P2,27*%
%TO.N,RMII0_REF_CLK*%
X138405000Y-132745000D03*
%TO.P,PB2-P2,28*%
%TO.N,RMII0_RX_ER*%
X138405000Y-130205000D03*
%TO.P,PB2-P2,29*%
%TO.N,RMII0_CRS_DV*%
X140945000Y-132745000D03*
%TO.P,PB2-P2,30*%
%TO.N,RMII0_RXD1*%
X140945000Y-130205000D03*
%TO.P,PB2-P2,31*%
%TO.N,RMII0_RXD0*%
X143485000Y-132745000D03*
%TO.P,PB2-P2,32*%
%TO.N,RMII0_TX_EN*%
X143485000Y-130205000D03*
%TO.P,PB2-P2,33*%
%TO.N,RMII0_TXD1*%
X146025000Y-132745000D03*
%TO.P,PB2-P2,34*%
%TO.N,RMII0_TXD0*%
X146025000Y-130205000D03*
%TO.P,PB2-P2,35*%
%TO.N,+5V*%
X148565000Y-132745000D03*
%TO.P,PB2-P2,36*%
%TO.N,GND*%
X148565000Y-130205000D03*
%TD*%
D13*
%TO.P,Th Hi,1*%
%TO.N,+3V3*%
X118500000Y-125000000D03*
%TO.P,Th Hi,2*%
%TO.N,GND*%
X119520000Y-125000000D03*
%TD*%
D30*
%TO.P,TX DAC,1*%
%TO.N,+3V3*%
X124362500Y-107525000D03*
%TO.P,TX DAC,2*%
%TO.N,DDS_FSYNC*%
X124362500Y-108175000D03*
%TO.P,TX DAC,3*%
%TO.N,DDS_CLK*%
X124362500Y-108825000D03*
%TO.P,TX DAC,4*%
%TO.N,DDS_DAT*%
X124362500Y-109475000D03*
%TO.P,TX DAC,5*%
%TO.N,GND*%
X126637500Y-109475000D03*
%TO.P,TX DAC,6*%
%TO.N,+3V3*%
X126637500Y-108825000D03*
%TO.P,TX DAC,7*%
%TO.N,AFSK_OUT*%
X126637500Y-108175000D03*
%TO.P,TX DAC,8*%
%TO.N,GND*%
X126637500Y-107525000D03*
%TD*%
D11*
%TO.P,U1 ByA,1*%
%TO.N,+3V3*%
X123040000Y-111500000D03*
%TO.P,U1 ByA,2*%
%TO.N,GND*%
X124000000Y-111500000D03*
%TD*%
%TO.P,C1 120p,1*%
%TO.N,RF_LPF_N1*%
X132020000Y-123500000D03*
%TO.P,C1 120p,2*%
%TO.N,GND*%
X132980000Y-123500000D03*
%TD*%
D10*
%TO.P,1.2k C,1*%
%TO.N,COMP_IN*%
X124000000Y-125000000D03*
%TO.P,1.2k C,2*%
%TO.N,GND*%
X124000000Y-124040000D03*
%TD*%
D31*
%TO.P,SMA ESD,1*%
%TO.N,ANT*%
X146000000Y-117000000D03*
%TO.P,SMA ESD,2*%
%TO.N,GND*%
X148800000Y-117000000D03*
%TD*%
D28*
%TO.P,L3 180n,1*%
%TO.N,RF_LPF_N2*%
X132437500Y-117500000D03*
%TO.P,L3 180n,2*%
%TO.N,RF_FILT*%
X134562500Y-117500000D03*
%TD*%
%TO.P,L1 100n,1*%
%TO.N,RF_TX*%
X132437500Y-119500000D03*
%TO.P,L1 100n,2*%
%TO.N,RF_LPF_N1*%
X134562500Y-119500000D03*
%TD*%
D11*
%TO.P,CMP By,1*%
%TO.N,+3V3*%
X120020000Y-119000000D03*
%TO.P,CMP By,2*%
%TO.N,GND*%
X120980000Y-119000000D03*
%TD*%
D13*
%TO.P,1.2k R,1*%
%TO.N,RX_LNA*%
X120980000Y-125000000D03*
%TO.P,1.2k R,2*%
%TO.N,COMP_IN*%
X122000000Y-125000000D03*
%TD*%
D10*
%TO.P,2.2k C,1*%
%TO.N,COMP_IN*%
X128500000Y-125500000D03*
%TO.P,2.2k C,2*%
%TO.N,GND*%
X128500000Y-124540000D03*
%TD*%
D29*
%TO.P,PB2-P1,1*%
%TO.N,GND*%
X105385000Y-104745000D03*
%TO.P,PB2-P1,2*%
X105385000Y-102205000D03*
%TO.P,PB2-P1,3*%
%TO.N,I2C0_SDA*%
X107925000Y-104745000D03*
%TO.P,PB2-P1,4*%
%TO.N,I2C0_SCL*%
X107925000Y-102205000D03*
%TO.P,PB2-P1,5*%
%TO.N,PRU_1553_RX_N*%
X110465000Y-104745000D03*
%TO.P,PB2-P1,6*%
%TO.N,PRU_1553_RX_P*%
X110465000Y-102205000D03*
%TO.P,PB2-P1,7*%
%TO.N,PRU_1553_TX_N*%
X113005000Y-104745000D03*
%TO.P,PB2-P1,8*%
%TO.N,PRU_1553_TX_P*%
X113005000Y-102205000D03*
%TO.P,PB2-P1,9*%
%TO.N,RS485_DE*%
X115545000Y-104745000D03*
%TO.P,PB2-P1,10*%
%TO.N,RS485_RX*%
X115545000Y-102205000D03*
%TO.P,PB2-P1,11*%
%TO.N,RS485_TX*%
X118085000Y-104745000D03*
%TO.P,PB2-P1,12*%
%TO.N,CAN_STB*%
X118085000Y-102205000D03*
%TO.P,PB2-P1,13*%
%TO.N,MCAN1_RX*%
X120625000Y-104745000D03*
%TO.P,PB2-P1,14*%
%TO.N,MCAN1_TX*%
X120625000Y-102205000D03*
%TO.P,PB2-P1,15*%
%TO.N,UART_RCRS_RX*%
X123165000Y-104745000D03*
%TO.P,PB2-P1,16*%
%TO.N,UART_RCRS_TX*%
X123165000Y-102205000D03*
%TO.P,PB2-P1,17*%
%TO.N,UART_SIK_RX*%
X125705000Y-104745000D03*
%TO.P,PB2-P1,18*%
%TO.N,UART_SIK_TX*%
X125705000Y-102205000D03*
%TO.P,PB2-P1,19*%
%TO.N,LORA_RESETN*%
X128245000Y-104745000D03*
%TO.P,PB2-P1,20*%
%TO.N,LORA_DIO0*%
X128245000Y-102205000D03*
%TO.P,PB2-P1,21*%
%TO.N,SPI1_CS_TPM*%
X130785000Y-104745000D03*
%TO.P,PB2-P1,22*%
%TO.N,SPI1_CS_NOR*%
X130785000Y-102205000D03*
%TO.P,PB2-P1,23*%
%TO.N,SPI1_MISO*%
X133325000Y-104745000D03*
%TO.P,PB2-P1,24*%
%TO.N,SPI1_MOSI*%
X133325000Y-102205000D03*
%TO.P,PB2-P1,25*%
%TO.N,SPI1_CLK*%
X135865000Y-104745000D03*
%TO.P,PB2-P1,26*%
%TO.N,SPI1_CS_LORA*%
X135865000Y-102205000D03*
%TO.P,PB2-P1,27*%
%TO.N,SDIO_D3*%
X138405000Y-104745000D03*
%TO.P,PB2-P1,28*%
%TO.N,SDIO_D2*%
X138405000Y-102205000D03*
%TO.P,PB2-P1,29*%
%TO.N,SDIO_D1*%
X140945000Y-104745000D03*
%TO.P,PB2-P1,30*%
%TO.N,SDIO_D0*%
X140945000Y-102205000D03*
%TO.P,PB2-P1,31*%
%TO.N,SDIO_CMD*%
X143485000Y-104745000D03*
%TO.P,PB2-P1,32*%
%TO.N,SDIO_CLK*%
X143485000Y-102205000D03*
%TO.P,PB2-P1,33*%
%TO.N,+3V3*%
X146025000Y-104745000D03*
%TO.P,PB2-P1,34*%
X146025000Y-102205000D03*
%TO.P,PB2-P1,35*%
%TO.N,+5V*%
X148565000Y-104745000D03*
%TO.P,PB2-P1,36*%
%TO.N,GND*%
X148565000Y-102205000D03*
%TD*%
D32*
%TO.P,49M DDS,1*%
%TO.N,+3V3*%
X116387500Y-110000000D03*
%TO.P,49M DDS,2*%
%TO.N,GND*%
X116387500Y-110500000D03*
%TO.P,49M DDS,3*%
%TO.N,DDS_RF*%
X116387500Y-111000000D03*
%TO.P,49M DDS,4*%
%TO.N,GND*%
X116387500Y-111500000D03*
%TO.P,49M DDS,5*%
X116387500Y-112000000D03*
%TO.P,49M DDS,6*%
%TO.N,DDS_CLK*%
X120612500Y-112000000D03*
%TO.P,49M DDS,7*%
%TO.N,DDS_DAT*%
X120612500Y-111500000D03*
%TO.P,49M DDS,8*%
%TO.N,TCXO_OUT*%
X120612500Y-111000000D03*
%TO.P,49M DDS,9*%
%TO.N,GND*%
X120612500Y-110500000D03*
%TO.P,49M DDS,10*%
%TO.N,+3V3*%
X120612500Y-110000000D03*
%TD*%
D33*
%TO.P,+3V 100n,1*%
%TO.N,+3V3*%
X128500000Y-119500000D03*
%TO.P,+3V 100n,2*%
%TO.N,GND*%
X128500000Y-120460000D03*
%TD*%
D34*
%TO.P,2.2k R,1*%
%TO.N,RX_LNA*%
X126000000Y-125500000D03*
%TO.P,2.2k R,2*%
%TO.N,COMP_IN*%
X126000000Y-124480000D03*
%TD*%
D11*
%TO.P,+5V 100n,1*%
%TO.N,+5V_FILT*%
X108520000Y-122000000D03*
%TO.P,+5V 100n,2*%
%TO.N,GND*%
X109480000Y-122000000D03*
%TD*%
%TO.P,PA Cb1,1*%
%TO.N,DDS_RF*%
X132000000Y-111000000D03*
%TO.P,PA Cb1,2*%
%TO.N,PA_INT*%
X132960000Y-111000000D03*
%TD*%
D13*
%TO.P,PA Rc1,1*%
%TO.N,+5V_FILT*%
X134480000Y-111000000D03*
%TO.P,PA Rc1,2*%
%TO.N,PA_INT*%
X135500000Y-111000000D03*
%TD*%
D35*
%TO.P,PA Drvr,1*%
%TO.N,DDS_RF*%
X132625000Y-113050000D03*
%TO.P,PA Drvr,2*%
%TO.N,GND*%
X132625000Y-114950000D03*
%TO.P,PA Drvr,3*%
%TO.N,PA_INT*%
X134500000Y-114000000D03*
%TD*%
D21*
%TO.P,LNA,1*%
%TO.N,RX_LNA*%
X143000000Y-121850000D03*
%TO.P,LNA,2*%
%TO.N,RSSI_RAW*%
X143000000Y-122500000D03*
%TO.P,LNA,3*%
%TO.N,RF_RX*%
X143000000Y-123150000D03*
%TO.P,LNA,4*%
%TO.N,+3V3*%
X144900000Y-123150000D03*
%TO.P,LNA,5*%
%TO.N,GND*%
X144900000Y-122500000D03*
%TO.P,LNA,6*%
X144900000Y-121850000D03*
%TD*%
D13*
%TO.P,PA Rb2,1*%
%TO.N,PA_INT*%
X136500000Y-115000000D03*
%TO.P,PA Rb2,2*%
X137520000Y-115000000D03*
%TD*%
D36*
%TO.P,PA 100mW,1*%
%TO.N,PA_INT*%
X140550000Y-115500000D03*
D37*
%TO.P,PA 100mW,2*%
%TO.N,GND*%
X140637500Y-117000000D03*
D36*
%TO.P,PA 100mW,3*%
%TO.N,RF_TX*%
X140550000Y-118500000D03*
%TD*%
D26*
%TO.P,LDO 3V3,1*%
%TO.N,+5V_FILT*%
X113000000Y-120550000D03*
%TO.P,LDO 3V3,2*%
%TO.N,GND*%
X113000000Y-121500000D03*
%TO.P,LDO 3V3,3*%
%TO.N,+3V3*%
X113000000Y-122450000D03*
%TO.P,LDO 3V3,4*%
X115275000Y-122450000D03*
%TO.P,LDO 3V3,5*%
%TO.N,GND*%
X115275000Y-120550000D03*
%TD*%
D11*
%TO.P,OSC By,1*%
%TO.N,+3V3*%
X113020000Y-108500000D03*
%TO.P,OSC By,2*%
%TO.N,GND*%
X113980000Y-108500000D03*
%TD*%
D13*
%TO.P,PA Rb1,1*%
%TO.N,+5V_FILT*%
X136980000Y-111500000D03*
%TO.P,PA Rb1,2*%
%TO.N,DDS_RF*%
X138000000Y-111500000D03*
%TD*%
D11*
%TO.P,U1 ByB,1*%
%TO.N,+3V3*%
X109500000Y-110500000D03*
%TO.P,U1 ByB,2*%
%TO.N,GND*%
X110460000Y-110500000D03*
%TD*%
%TO.P,AFSK Cp,1*%
%TO.N,AFSK_OUT*%
X123020000Y-115500000D03*
%TO.P,AFSK Cp,2*%
%TO.N,AFSK_IN*%
X123980000Y-115500000D03*
%TD*%
D14*
%TO.P,PTT Bead,1*%
%TO.N,PTT_N*%
X112515000Y-113000000D03*
%TO.P,PTT Bead,2*%
X113485000Y-113000000D03*
%TD*%
D38*
%TO.P,ETH-PHY,49*%
%TO.N,GND*%
X124500000Y-120000000D03*
%TD*%
D39*
%TO.N,GND*%
X113980000Y-108500000D03*
X140700000Y-111650000D03*
X123980000Y-126880000D03*
X113000000Y-121500000D03*
X105222800Y-113235200D03*
D40*
X130000000Y-131450000D03*
D39*
X107975000Y-118000000D03*
X126250000Y-123300000D03*
X149177200Y-122614800D03*
X107677200Y-114764800D03*
X105777200Y-114764800D03*
X117222100Y-125212100D03*
X141622800Y-110885200D03*
X129400000Y-120460000D03*
X138567800Y-122500000D03*
D40*
X130000000Y-106250000D03*
D39*
X128500000Y-124540000D03*
X145400000Y-122500000D03*
X121480000Y-119000000D03*
D40*
X130000000Y-116250000D03*
D39*
X146722800Y-121085200D03*
X122250000Y-124000000D03*
X113300000Y-117550000D03*
X115098600Y-110330300D03*
D40*
X136000000Y-125000000D03*
D39*
X120010000Y-126500000D03*
X109480000Y-122000000D03*
X121350000Y-121500000D03*
D40*
X130000000Y-113750000D03*
X130000000Y-118750000D03*
X132000000Y-125000000D03*
D39*
X137500000Y-118500000D03*
X129380000Y-117480000D03*
X124229400Y-113666700D03*
X144900000Y-121850000D03*
D40*
X144000000Y-125000000D03*
D39*
X124249400Y-111333300D03*
D40*
X130000000Y-121250000D03*
D39*
X123579000Y-123023700D03*
X147277200Y-122614800D03*
X121912500Y-110500000D03*
X127099400Y-107333700D03*
X119520000Y-125000000D03*
X137460000Y-117000000D03*
X144000000Y-112500000D03*
X148622800Y-121085200D03*
D40*
X140000000Y-109500000D03*
D39*
X120137500Y-115050000D03*
D40*
X140000000Y-125000000D03*
D39*
X113250000Y-125000000D03*
X140980000Y-121000000D03*
X116960000Y-107500000D03*
D40*
X130000000Y-126250000D03*
D39*
X110460000Y-110500000D03*
X138500000Y-124000000D03*
X137460000Y-113000000D03*
X132980000Y-123500000D03*
X121472800Y-124114800D03*
X108550000Y-125000000D03*
D40*
X130000000Y-128750000D03*
X130000000Y-123750000D03*
D39*
X135960000Y-123500000D03*
X126500000Y-114400000D03*
D40*
X130000000Y-134000000D03*
D39*
X115275000Y-120550000D03*
X124925600Y-124882700D03*
X129400000Y-122020000D03*
X119637500Y-116950000D03*
X122491200Y-123034100D03*
X128480000Y-116520000D03*
X137520000Y-120500000D03*
X148800000Y-117000000D03*
D40*
X130000000Y-103500000D03*
D39*
X126914700Y-109589800D03*
X107122800Y-113235200D03*
X109460000Y-120500000D03*
X145010200Y-112777200D03*
X141010000Y-124000000D03*
D40*
X130000000Y-111250000D03*
D41*
X131500000Y-114000000D03*
D39*
X115371200Y-111921000D03*
D40*
X144000000Y-109500000D03*
D41*
%TO.N,+3V3*%
X140020000Y-121000000D03*
%TO.N,RSSI_ANA*%
X139600000Y-123700000D03*
D40*
%TO.N,+5V_FILT*%
X130000000Y-108750000D03*
X132000000Y-109500000D03*
D39*
%TO.N,DDS_RF*%
X115609700Y-112777800D03*
D40*
%TO.N,PA_INT*%
X135779741Y-109500000D03*
%TO.N,SPI1_CS_NOR*%
X130000000Y-101250000D03*
D41*
%TO.N,RSSI_DCD*%
X135000000Y-130210000D03*
%TD*%
D42*
%TO.N,GND*%
X116387500Y-110500000D02*
X115098600Y-110330300D01*
D43*
X141062500Y-117000000D02*
X144450000Y-117500000D01*
X142550000Y-116850000D02*
X145000000Y-116850000D01*
D42*
X116387500Y-111500000D02*
X115371200Y-111921000D01*
%TO.N,+5V*%
X122800000Y-128000000D02*
X123000000Y-128200000D01*
X103000000Y-124000000D02*
X103000000Y-127800000D01*
X103000000Y-127800000D02*
X103200000Y-128000000D01*
X144800000Y-133800000D02*
X145000000Y-134000000D01*
X139400000Y-128600000D02*
X139600000Y-128800000D01*
X138400000Y-128200000D02*
X138600000Y-128200000D01*
X129000000Y-128200000D02*
X129400000Y-127800000D01*
X138000000Y-128000000D02*
X138200000Y-128000000D01*
X137800000Y-127800000D02*
X138000000Y-128000000D01*
X123000000Y-128200000D02*
X129000000Y-128200000D01*
X138600000Y-128200000D02*
X138800000Y-128400000D01*
X138800000Y-128400000D02*
X139000000Y-128400000D01*
X144600000Y-129000000D02*
X144800000Y-129200000D01*
X139000000Y-128400000D02*
X139200000Y-128600000D01*
X139600000Y-128800000D02*
X140000000Y-128800000D01*
X139200000Y-128600000D02*
X139400000Y-128600000D01*
X148400000Y-132800000D02*
X148600000Y-132800000D01*
X145000000Y-134000000D02*
X147200000Y-134000000D01*
X129400000Y-127800000D02*
X137800000Y-127800000D01*
X138200000Y-128000000D02*
X138400000Y-128200000D01*
X140000000Y-128800000D02*
X140200000Y-129000000D01*
X144800000Y-129200000D02*
X144800000Y-133800000D01*
X147200000Y-134000000D02*
X148400000Y-132800000D01*
X140200000Y-129000000D02*
X144600000Y-129000000D01*
X103200000Y-128000000D02*
X122800000Y-128000000D01*
%TO.N,+3V3*%
X131500000Y-108500000D02*
X130750000Y-107750000D01*
X111750000Y-126000000D02*
X112000000Y-126250000D01*
X145250000Y-109500000D02*
X145000000Y-109750000D01*
X118000000Y-115750000D02*
X121000000Y-115750000D01*
X116000000Y-107500000D02*
X115000000Y-107500000D01*
X123000000Y-113500000D02*
X123250000Y-113250000D01*
X117500000Y-121500000D02*
X117250000Y-121500000D01*
X140250000Y-121500000D02*
X140500000Y-121750000D01*
X145500000Y-106750000D02*
X145500000Y-108500000D01*
X116500000Y-113250000D02*
X116250000Y-113500000D01*
X145500000Y-108500000D02*
X145250000Y-108750000D01*
X115250000Y-122500000D02*
X114000000Y-123750000D01*
X128000000Y-108000000D02*
X128000000Y-106750000D01*
X115500000Y-122500000D02*
X115250000Y-122500000D01*
X108500000Y-120750000D02*
X108500000Y-120500000D01*
X126637500Y-108825000D02*
X127337500Y-108825000D01*
X111750000Y-126000000D02*
X111750000Y-124000000D01*
X117000000Y-121750000D02*
X117250000Y-121500000D01*
X122250000Y-112750000D02*
X122250000Y-113000000D01*
X115250000Y-122500000D02*
X115500000Y-122500000D01*
X123250000Y-113250000D02*
X123250000Y-113000000D01*
X123250000Y-113000000D02*
X123500000Y-112750000D01*
X116750000Y-121750000D02*
X116500000Y-122000000D01*
X139750000Y-120500000D02*
X140000000Y-120750000D01*
X113000000Y-108250000D02*
X113000000Y-108500000D01*
X146000000Y-104750000D02*
X146000000Y-106250000D01*
X113000000Y-108500000D02*
X112750000Y-108750000D01*
X122750000Y-112250000D02*
X122250000Y-112750000D01*
X114750000Y-115500000D02*
X114750000Y-115000000D01*
X114750000Y-115000000D02*
X113250000Y-115000000D01*
X113250000Y-115000000D02*
X113250000Y-115500000D01*
X114500000Y-122750000D02*
X115000000Y-122750000D01*
X109500000Y-110250000D02*
X109500000Y-110500000D01*
X130750000Y-107750000D02*
X129000000Y-107750000D01*
X111750000Y-110000000D02*
X112000000Y-109750000D01*
X113750000Y-126000000D02*
X114000000Y-126000000D01*
X125000000Y-107250000D02*
X124750000Y-107250000D01*
X125500000Y-107000000D02*
X125250000Y-107000000D01*
X116500000Y-122000000D02*
X116750000Y-121750000D01*
X126250000Y-106750000D02*
X125750000Y-106750000D01*
X115000000Y-107500000D02*
X114750000Y-107750000D01*
X128000000Y-122750000D02*
X127750000Y-122500000D01*
X124750000Y-107250000D02*
X124500000Y-107500000D01*
X128250000Y-119500000D02*
X128500000Y-119500000D01*
X116250000Y-116000000D02*
X115750000Y-115500000D01*
X124500000Y-127750000D02*
X123500000Y-127750000D01*
X111000000Y-124250000D02*
X110750000Y-124500000D01*
X116000000Y-122250000D02*
X116250000Y-122000000D01*
X123000000Y-111500000D02*
X123000000Y-111750000D01*
X122250000Y-113000000D02*
X122000000Y-113250000D01*
X127337500Y-108825000D02*
X127750000Y-108250000D01*
X113500000Y-107750000D02*
X113000000Y-108250000D01*
X104000000Y-126750000D02*
X104000000Y-127000000D01*
X127750000Y-122500000D02*
X127750000Y-120000000D01*
X139500000Y-121250000D02*
X139000000Y-121750000D01*
X117000000Y-117750000D02*
X116750000Y-117500000D01*
X117500000Y-121500000D02*
X120000000Y-119000000D01*
X112000000Y-126250000D02*
X111750000Y-126000000D01*
X123500000Y-112250000D02*
X130750000Y-112250000D01*
X115500000Y-122500000D02*
X115750000Y-122250000D01*
X114000000Y-123750000D02*
X112000000Y-123750000D01*
X112000000Y-126250000D02*
X113500000Y-126250000D01*
X133000000Y-109750000D02*
X133000000Y-108750000D01*
X116000000Y-122250000D02*
X115750000Y-122250000D01*
X142000000Y-123750000D02*
X142000000Y-124500000D01*
X116250000Y-113500000D02*
X114250000Y-113500000D01*
X116750000Y-116500000D02*
X117000000Y-116250000D01*
X131000000Y-123000000D02*
X131000000Y-127000000D01*
X114000000Y-113750000D02*
X112000000Y-113750000D01*
X143000000Y-125500000D02*
X143000000Y-125750000D01*
X139750000Y-120250000D02*
X139750000Y-120500000D01*
X117250000Y-121500000D02*
X117500000Y-121500000D01*
X131250000Y-111750000D02*
X133500000Y-111750000D01*
X113500000Y-126250000D02*
X113750000Y-126000000D01*
X122000000Y-113250000D02*
X116500000Y-113250000D01*
X125250000Y-107000000D02*
X125000000Y-107250000D01*
X143250000Y-112000000D02*
X143250000Y-112250000D01*
X127750000Y-106500000D02*
X126250000Y-106500000D01*
X141500000Y-121750000D02*
X141750000Y-122000000D01*
X112500000Y-108750000D02*
X111750000Y-109500000D01*
X126000000Y-106750000D02*
X125750000Y-106750000D01*
X116000000Y-107750000D02*
X116000000Y-107500000D01*
X141750000Y-123500000D02*
X142000000Y-123750000D01*
X111750000Y-124000000D02*
X112000000Y-123750000D01*
X113000000Y-126250000D02*
X112000000Y-126250000D01*
X137500000Y-122250000D02*
X137500000Y-122500000D01*
X116250000Y-108000000D02*
X116000000Y-107750000D01*
X115750000Y-122250000D02*
X115500000Y-122500000D01*
X126500000Y-106500000D02*
X126250000Y-106750000D01*
X115250000Y-122500000D02*
X113000000Y-122500000D01*
X133500000Y-111750000D02*
X133750000Y-111500000D01*
X111250000Y-124250000D02*
X111000000Y-124250000D01*
X110250000Y-121500000D02*
X110000000Y-121250000D01*
X145000000Y-110250000D02*
X143250000Y-112000000D01*
X139750000Y-121250000D02*
X139500000Y-121250000D01*
X143250000Y-126000000D02*
X144750000Y-126000000D01*
X116500000Y-122000000D02*
X116250000Y-122000000D01*
X128250000Y-122750000D02*
X130750000Y-122750000D01*
X142000000Y-124500000D02*
X143000000Y-125500000D01*
X115750000Y-115500000D02*
X114750000Y-115500000D01*
X112750000Y-123750000D02*
X113000000Y-123500000D01*
X118500000Y-125250000D02*
X117750000Y-126000000D01*
X116250000Y-122000000D02*
X116500000Y-122000000D01*
X114750000Y-107750000D02*
X113500000Y-107750000D01*
X113000000Y-123500000D02*
X113250000Y-123500000D01*
X125000000Y-107500000D02*
X124250000Y-107500000D01*
X125000000Y-127250000D02*
X124500000Y-127750000D01*
X121000000Y-115750000D02*
X123000000Y-113750000D01*
X110000000Y-121250000D02*
X109000000Y-121250000D01*
X132750000Y-108500000D02*
X131500000Y-108500000D01*
X123000000Y-111750000D02*
X122750000Y-112000000D01*
X121750000Y-126500000D02*
X121500000Y-126250000D01*
X125750000Y-106750000D02*
X125500000Y-107000000D01*
X111750000Y-109500000D02*
X111500000Y-109500000D01*
X113250000Y-123500000D02*
X113500000Y-123250000D01*
X127750000Y-108250000D02*
X128000000Y-108000000D01*
X130000000Y-122750000D02*
X128250000Y-122750000D01*
X123500000Y-112750000D02*
X124000000Y-112750000D01*
X122250000Y-126750000D02*
X122000000Y-126500000D01*
X122000000Y-126500000D02*
X121750000Y-126500000D01*
X140250000Y-121250000D02*
X140250000Y-121500000D01*
X110250000Y-124250000D02*
X110250000Y-121500000D01*
X133000000Y-108750000D02*
X132750000Y-108500000D01*
X120250000Y-109750000D02*
X116250000Y-109750000D01*
X123000000Y-127000000D02*
X122750000Y-127000000D01*
X120612500Y-110000000D02*
X120250000Y-109750000D01*
X130750000Y-122750000D02*
X131000000Y-123000000D01*
X104250000Y-123000000D02*
X104250000Y-126500000D01*
X112000000Y-113750000D02*
X111750000Y-113500000D01*
X118500000Y-125250000D02*
X118500000Y-125000000D01*
X110750000Y-124500000D02*
X110500000Y-124500000D01*
X123000000Y-111750000D02*
X123500000Y-112250000D01*
X120500000Y-125750000D02*
X119000000Y-125750000D01*
X117750000Y-116000000D02*
X118000000Y-115750000D01*
X146000000Y-104750000D02*
X146000000Y-102250000D01*
X114250000Y-125750000D02*
X114500000Y-125750000D01*
X138000000Y-121750000D02*
X137500000Y-122250000D01*
X113000000Y-122500000D02*
X111250000Y-124250000D01*
X111250000Y-109750000D02*
X110000000Y-109750000D01*
X141000000Y-114500000D02*
X139750000Y-114500000D01*
X139750000Y-114500000D02*
X139500000Y-114750000D01*
X116750000Y-121750000D02*
X117000000Y-121750000D01*
X111750000Y-124000000D02*
X111750000Y-126000000D01*
X123000000Y-113500000D02*
X123000000Y-111500000D01*
X112000000Y-109750000D02*
X114250000Y-109750000D01*
X123000000Y-127250000D02*
X123000000Y-127000000D01*
X125750000Y-106750000D02*
X125000000Y-107500000D01*
X118500000Y-125000000D02*
X118500000Y-125250000D01*
X127750000Y-120000000D02*
X128250000Y-119500000D01*
X127750000Y-106500000D02*
X126500000Y-106500000D01*
X117250000Y-116250000D02*
X117500000Y-116000000D01*
X113250000Y-126000000D02*
X113000000Y-126250000D01*
X117750000Y-126000000D02*
X113250000Y-126000000D01*
X104250000Y-126500000D02*
X104000000Y-126750000D01*
X140500000Y-121750000D02*
X141500000Y-121750000D01*
X145250000Y-108750000D02*
X145250000Y-109500000D01*
X117250000Y-121500000D02*
X117000000Y-121750000D01*
X141750000Y-122000000D02*
X141750000Y-123500000D01*
X128000000Y-106750000D02*
X127750000Y-106500000D01*
X118750000Y-117750000D02*
X117000000Y-117750000D01*
X120000000Y-109750000D02*
X120250000Y-109750000D01*
X121000000Y-126250000D02*
X120500000Y-125750000D01*
X124250000Y-112500000D02*
X126500000Y-112500000D01*
X122500000Y-126750000D02*
X122250000Y-126750000D01*
X117750000Y-116000000D02*
X116250000Y-116000000D01*
X140000000Y-121000000D02*
X139750000Y-121250000D01*
X133750000Y-110500000D02*
X133000000Y-109750000D01*
X122750000Y-127000000D02*
X122500000Y-126750000D01*
X128500000Y-122980000D02*
X128250000Y-122750000D01*
X145000000Y-109750000D02*
X145000000Y-110250000D01*
X139000000Y-121750000D02*
X138000000Y-121750000D01*
X145000000Y-125750000D02*
X145000000Y-123250000D01*
X126250000Y-106500000D02*
X126000000Y-106750000D01*
X115000000Y-122750000D02*
X115250000Y-122500000D01*
X140000000Y-120750000D02*
X140000000Y-121000000D01*
X131000000Y-127000000D02*
X130750000Y-127250000D01*
X116750000Y-117500000D02*
X116750000Y-116500000D01*
X119000000Y-125750000D02*
X118500000Y-125250000D01*
X124000000Y-112750000D02*
X124250000Y-112500000D01*
X114250000Y-123000000D02*
X114500000Y-122750000D01*
X113750000Y-123250000D02*
X114000000Y-123000000D01*
X139500000Y-114750000D02*
X139500000Y-120000000D01*
X109000000Y-121250000D02*
X108500000Y-120750000D01*
X130750000Y-112250000D02*
X131250000Y-111750000D01*
X124500000Y-107500000D02*
X124250000Y-107500000D01*
X139500000Y-120000000D02*
X139750000Y-120250000D01*
X130250000Y-122500000D02*
X130000000Y-122750000D01*
X114250000Y-109750000D02*
X114500000Y-109500000D01*
X140000000Y-121000000D02*
X140250000Y-121250000D01*
X114250000Y-113500000D02*
X114000000Y-113750000D01*
X128250000Y-122750000D02*
X128000000Y-122750000D01*
X112000000Y-123750000D02*
X111750000Y-124000000D01*
X117000000Y-121750000D02*
X116750000Y-121750000D01*
X116250000Y-122000000D02*
X116000000Y-122250000D01*
X110000000Y-109750000D02*
X109500000Y-110250000D01*
X133750000Y-111500000D02*
X133750000Y-110500000D01*
X130750000Y-127250000D02*
X125000000Y-127250000D01*
X112750000Y-108750000D02*
X112500000Y-108750000D01*
X123500000Y-127750000D02*
X123000000Y-127250000D01*
X122750000Y-112000000D02*
X122750000Y-112250000D01*
X115750000Y-122250000D02*
X116000000Y-122250000D01*
X119750000Y-109500000D02*
X120000000Y-109750000D01*
X116250000Y-109750000D02*
X116250000Y-108000000D01*
X114000000Y-123000000D02*
X114250000Y-123000000D01*
X146000000Y-106250000D02*
X145500000Y-106750000D01*
X110500000Y-124500000D02*
X110250000Y-124250000D01*
X111750000Y-113500000D02*
X111750000Y-110000000D01*
X129000000Y-107750000D02*
X127750000Y-106500000D01*
X117000000Y-116250000D02*
X117250000Y-116250000D01*
X114000000Y-126000000D02*
X114250000Y-125750000D01*
X121500000Y-126250000D02*
X121000000Y-126250000D01*
X112000000Y-123750000D02*
X112750000Y-123750000D01*
X123000000Y-111500000D02*
X123000000Y-111750000D01*
X114500000Y-109500000D02*
X119750000Y-109500000D01*
X111500000Y-109500000D02*
X111250000Y-109750000D01*
X143250000Y-112250000D02*
X141000000Y-114500000D01*
X117500000Y-116000000D02*
X117750000Y-116000000D01*
X120000000Y-119000000D02*
X118750000Y-117750000D01*
X113500000Y-123250000D02*
X113750000Y-123250000D01*
X123000000Y-113750000D02*
X123000000Y-113500000D01*
X144750000Y-126000000D02*
X145000000Y-125750000D01*
X143000000Y-125750000D02*
X143250000Y-126000000D01*
X137500000Y-122500000D02*
X130250000Y-122500000D01*
%TO.N,PTT_N*%
X112600000Y-113000000D02*
X113400000Y-113000000D01*
D44*
%TO.N,RSSI_ANA*%
X139600000Y-123700000D02*
X139990000Y-124000000D01*
D42*
X140600000Y-123200000D02*
X140800000Y-123000000D01*
X140200000Y-123400000D02*
X140400000Y-123200000D01*
X140800000Y-123000000D02*
X140800000Y-122800000D01*
X140000000Y-124000000D02*
X140200000Y-123800000D01*
X140200000Y-123800000D02*
X140200000Y-123400000D01*
X140400000Y-123200000D02*
X140600000Y-123200000D01*
X140800000Y-122800000D02*
X141000000Y-122600000D01*
X141000000Y-122600000D02*
X141000000Y-122400000D01*
%TO.N,ANT*%
X152600000Y-112400000D02*
X148000000Y-112400000D01*
X146000000Y-112400000D02*
X146000000Y-117000000D01*
%TO.N,+5V_FILT*%
X106200000Y-124000000D02*
X106000000Y-124000000D01*
X106400000Y-123800000D02*
X106200000Y-124000000D01*
X109200000Y-112400000D02*
X109400000Y-112600000D01*
X112800000Y-120200000D02*
X113000000Y-120400000D01*
X109000000Y-111600000D02*
X109000000Y-112000000D01*
X112400000Y-119400000D02*
X112600000Y-119600000D01*
X111000000Y-116400000D02*
X111200000Y-116600000D01*
X125400000Y-106200000D02*
X125200000Y-106400000D01*
X110000000Y-113800000D02*
X110000000Y-114200000D01*
X110800000Y-115800000D02*
X111000000Y-116000000D01*
X137000000Y-111800000D02*
X137000000Y-111600000D01*
X112600000Y-119600000D02*
X112600000Y-119800000D01*
X111600000Y-117400000D02*
X111600000Y-117600000D01*
X111800000Y-117800000D02*
X111800000Y-118000000D01*
X110400000Y-115000000D02*
X110600000Y-115200000D01*
X112600000Y-119800000D02*
X112800000Y-120000000D01*
X109400000Y-112800000D02*
X109600000Y-113000000D01*
X111800000Y-118000000D02*
X112000000Y-118200000D01*
X133200000Y-108000000D02*
X132000000Y-108000000D01*
X108600000Y-122000000D02*
X107000000Y-123600000D01*
X138000000Y-115800000D02*
X138200000Y-115600000D01*
X124600000Y-106800000D02*
X115400000Y-106800000D01*
X129400000Y-107200000D02*
X128200000Y-106000000D01*
X132000000Y-108000000D02*
X131200000Y-107200000D01*
X111000000Y-116000000D02*
X111000000Y-116400000D01*
X136600000Y-117000000D02*
X136600000Y-116600000D01*
X125000000Y-106400000D02*
X124600000Y-106800000D01*
X114400000Y-107200000D02*
X113000000Y-107200000D01*
X111600000Y-117600000D02*
X111800000Y-117800000D01*
X138200000Y-115600000D02*
X138200000Y-112400000D01*
X111200000Y-116600000D02*
X111200000Y-116800000D01*
X138200000Y-112400000D02*
X138000000Y-112200000D01*
X109600000Y-113000000D02*
X109600000Y-113200000D01*
X113000000Y-120400000D02*
X113000000Y-120600000D01*
X112000000Y-118200000D02*
X112000000Y-118600000D01*
X138000000Y-112200000D02*
X137400000Y-112200000D01*
X112000000Y-118600000D02*
X112200000Y-118800000D01*
X134400000Y-111000000D02*
X134200000Y-110800000D01*
X110600000Y-115400000D02*
X110800000Y-115600000D01*
X106800000Y-123600000D02*
X106600000Y-123800000D01*
X115400000Y-106800000D02*
X115200000Y-107000000D01*
X133600000Y-108400000D02*
X133200000Y-108000000D01*
X137400000Y-112200000D02*
X137000000Y-111800000D01*
X110200000Y-114600000D02*
X110400000Y-114800000D01*
X109400000Y-107800000D02*
X109200000Y-108000000D01*
X109800000Y-113600000D02*
X110000000Y-113800000D01*
X112800000Y-120000000D02*
X112800000Y-120200000D01*
X125800000Y-106000000D02*
X125600000Y-106200000D01*
X136600000Y-116600000D02*
X137400000Y-115800000D01*
X133600000Y-109400000D02*
X133600000Y-108400000D01*
X110200000Y-114400000D02*
X110200000Y-114600000D01*
X112400000Y-107800000D02*
X109400000Y-107800000D01*
X109600000Y-113200000D02*
X109800000Y-113400000D01*
X113000000Y-107200000D02*
X112400000Y-107800000D01*
X128200000Y-106000000D02*
X125800000Y-106000000D01*
X112400000Y-119200000D02*
X112400000Y-119400000D01*
X109000000Y-112000000D02*
X109200000Y-112200000D01*
X110600000Y-115200000D02*
X110600000Y-115400000D01*
X131200000Y-107200000D02*
X129400000Y-107200000D01*
X108800000Y-111400000D02*
X109000000Y-111600000D01*
X125200000Y-106400000D02*
X125000000Y-106400000D01*
X110800000Y-115600000D02*
X110800000Y-115800000D01*
X109200000Y-112200000D02*
X109200000Y-112400000D01*
X109200000Y-108000000D02*
X109200000Y-109600000D01*
X137400000Y-115800000D02*
X138000000Y-115800000D01*
X108800000Y-110000000D02*
X108800000Y-111400000D01*
X106600000Y-123800000D02*
X106400000Y-123800000D01*
X109200000Y-109600000D02*
X108800000Y-110000000D01*
X111400000Y-117200000D02*
X111600000Y-117400000D01*
X125600000Y-106200000D02*
X125400000Y-106200000D01*
X134200000Y-110000000D02*
X133600000Y-109400000D01*
X112200000Y-119000000D02*
X112400000Y-119200000D01*
X112200000Y-118800000D02*
X112200000Y-119000000D01*
X110000000Y-114200000D02*
X110200000Y-114400000D01*
X107000000Y-123600000D02*
X106800000Y-123600000D01*
X111200000Y-116800000D02*
X111400000Y-117000000D01*
X115200000Y-107000000D02*
X114600000Y-107000000D01*
X109400000Y-112600000D02*
X109400000Y-112800000D01*
X134200000Y-110800000D02*
X134200000Y-110000000D01*
X110400000Y-114800000D02*
X110400000Y-115000000D01*
X114600000Y-107000000D02*
X114400000Y-107200000D01*
X109800000Y-113400000D02*
X109800000Y-113600000D01*
X111400000Y-117000000D02*
X111400000Y-117200000D01*
%TO.N,DDS_RF*%
X136200000Y-111600000D02*
X136200000Y-111000000D01*
X133800000Y-112400000D02*
X135400000Y-112400000D01*
X132600000Y-113000000D02*
X133200000Y-113000000D01*
X136400000Y-110800000D02*
X137400000Y-110800000D01*
X138000000Y-111400000D02*
X138000000Y-111600000D01*
X137400000Y-110800000D02*
X138000000Y-111400000D01*
X136200000Y-111000000D02*
X136400000Y-110800000D01*
X135400000Y-112400000D02*
X136200000Y-111600000D01*
X133200000Y-113000000D02*
X133800000Y-112400000D01*
X116387500Y-111000000D02*
X114000000Y-111000000D01*
X114000000Y-111000000D02*
X114000000Y-112600000D01*
X114000000Y-112600000D02*
X121600000Y-112600000D01*
X121600000Y-112600000D02*
X122600000Y-110900000D01*
X131000000Y-110300000D02*
X132000000Y-111000000D01*
X122600000Y-110900000D02*
X125000000Y-110500000D01*
X125000000Y-110500000D02*
X131000000Y-110300000D01*
%TO.N,PA_INT*%
X135200000Y-115200000D02*
X135200000Y-116400000D01*
X138200000Y-110800000D02*
X137800000Y-110400000D01*
X136400000Y-115600000D02*
X136400000Y-115400000D01*
X136200000Y-116000000D02*
X136200000Y-115800000D01*
X136200000Y-118800000D02*
X136600000Y-118800000D01*
X136600000Y-118800000D02*
X137000000Y-119200000D01*
X137000000Y-119200000D02*
X138000000Y-119200000D01*
X134600000Y-114000000D02*
X134600000Y-114600000D01*
X136400000Y-115400000D02*
X136600000Y-115200000D01*
X138800000Y-111000000D02*
X138600000Y-110800000D01*
X134600000Y-114600000D02*
X135200000Y-115200000D01*
X136200000Y-115800000D02*
X136400000Y-115600000D01*
X136000000Y-110400000D02*
X135400000Y-111000000D01*
X136600000Y-115200000D02*
X136600000Y-115000000D01*
X138000000Y-119200000D02*
X138200000Y-119000000D01*
X138600000Y-110800000D02*
X138200000Y-110800000D01*
X138600000Y-112200000D02*
X138800000Y-112000000D01*
X135200000Y-116400000D02*
X135400000Y-116600000D01*
X136600000Y-118400000D02*
X135800000Y-117600000D01*
X135800000Y-116400000D02*
X136200000Y-116000000D01*
X138800000Y-112000000D02*
X138800000Y-111000000D01*
X135400000Y-116600000D02*
X135400000Y-118000000D01*
X135800000Y-117600000D02*
X135800000Y-116400000D01*
X135400000Y-118000000D02*
X136200000Y-118800000D01*
X138200000Y-119000000D02*
X138200000Y-116400000D01*
X138600000Y-116000000D02*
X138600000Y-112200000D01*
X137800000Y-110400000D02*
X136000000Y-110400000D01*
X138200000Y-116400000D02*
X138600000Y-116000000D01*
%TO.N,RF_LPF_N1*%
X136000000Y-119800000D02*
X138200000Y-119800000D01*
X145000000Y-126600000D02*
X138400000Y-126600000D01*
X135400000Y-125800000D02*
X134200000Y-124600000D01*
X138200000Y-119800000D02*
X138600000Y-119400000D01*
X138600000Y-116800000D02*
X139000000Y-116400000D01*
X145600000Y-126000000D02*
X145000000Y-126600000D01*
X145000000Y-101000000D02*
X149600000Y-101000000D01*
X139200000Y-112400000D02*
X139200000Y-110600000D01*
X147000000Y-117800000D02*
X146000000Y-118800000D01*
X140600000Y-110400000D02*
X140800000Y-110200000D01*
X139400000Y-110400000D02*
X140600000Y-110400000D01*
X149800000Y-105800000D02*
X147000000Y-108600000D01*
X137600000Y-126200000D02*
X137400000Y-126000000D01*
X149800000Y-101200000D02*
X149800000Y-105800000D01*
X146200000Y-122000000D02*
X146200000Y-123000000D01*
X149600000Y-101000000D02*
X149800000Y-101200000D01*
X138400000Y-126600000D02*
X138200000Y-126400000D01*
X139000000Y-116400000D02*
X139000000Y-112600000D01*
X145600000Y-123600000D02*
X145600000Y-126000000D01*
X132000000Y-123800000D02*
X132000000Y-123600000D01*
X146000000Y-118800000D02*
X146000000Y-121800000D01*
X137000000Y-125800000D02*
X135400000Y-125800000D01*
X133400000Y-124200000D02*
X132400000Y-124200000D01*
X133800000Y-124400000D02*
X133600000Y-124400000D01*
X137200000Y-126000000D02*
X137000000Y-125800000D01*
X134200000Y-124600000D02*
X134000000Y-124600000D01*
X137800000Y-126200000D02*
X137600000Y-126200000D01*
X135400000Y-120400000D02*
X136000000Y-119800000D01*
X138200000Y-126400000D02*
X138000000Y-126400000D01*
X133800000Y-120400000D02*
X135400000Y-120400000D01*
X147000000Y-108600000D02*
X147000000Y-117800000D01*
X132400000Y-124200000D02*
X132000000Y-123800000D01*
X140800000Y-109800000D02*
X144800000Y-105800000D01*
X138600000Y-119400000D02*
X138600000Y-116800000D01*
X137400000Y-126000000D02*
X137200000Y-126000000D01*
X139000000Y-112600000D02*
X139200000Y-112400000D01*
X146000000Y-121800000D02*
X146200000Y-122000000D01*
X138000000Y-126400000D02*
X137800000Y-126200000D01*
X132600000Y-121600000D02*
X133800000Y-120400000D01*
X133600000Y-124400000D02*
X133400000Y-124200000D01*
X140800000Y-110200000D02*
X140800000Y-109800000D01*
X134000000Y-124600000D02*
X133800000Y-124400000D01*
X144800000Y-101200000D02*
X145000000Y-101000000D01*
X139200000Y-110600000D02*
X139400000Y-110400000D01*
X144800000Y-105800000D02*
X144800000Y-101200000D01*
X132400000Y-121600000D02*
X132600000Y-121600000D01*
X146200000Y-123000000D02*
X145600000Y-123600000D01*
%TO.N,COMP_IN*%
X127000000Y-124800000D02*
X127200000Y-125000000D01*
X126000000Y-124400000D02*
X126200000Y-124600000D01*
X126800000Y-124800000D02*
X127000000Y-124800000D01*
X128400000Y-125600000D02*
X128600000Y-125600000D01*
X127800000Y-125200000D02*
X128000000Y-125400000D01*
X128000000Y-125400000D02*
X128200000Y-125400000D01*
X127600000Y-125200000D02*
X127800000Y-125200000D01*
X126600000Y-124600000D02*
X126800000Y-124800000D01*
X127400000Y-125000000D02*
X127600000Y-125200000D01*
X122000000Y-125000000D02*
X124000000Y-125000000D01*
X128200000Y-125400000D02*
X128400000Y-125600000D01*
X126200000Y-124600000D02*
X126600000Y-124600000D01*
X127200000Y-125000000D02*
X127400000Y-125000000D01*
%TO.N,UART_TX_F*%
X110000000Y-108400000D02*
X111000000Y-108400000D01*
%TO.N,UART_RX_F*%
X112600000Y-110400000D02*
X113400000Y-110400000D01*
%TO.N,MODE_SEL*%
X114400000Y-125000000D02*
X116000000Y-125000000D01*
%TO.N,UART_RCRS_RX*%
X105000000Y-114000000D02*
X105400000Y-114000000D01*
X103000000Y-115200000D02*
X103200000Y-115000000D01*
X103200000Y-115000000D02*
X103400000Y-115000000D01*
X104200000Y-114600000D02*
X104400000Y-114400000D01*
X103400000Y-115000000D02*
X103600000Y-114800000D01*
X104000000Y-114600000D02*
X104200000Y-114600000D01*
X104400000Y-114400000D02*
X104600000Y-114400000D01*
X103800000Y-114800000D02*
X104000000Y-114600000D01*
X104600000Y-114400000D02*
X105000000Y-114000000D01*
X102600000Y-115200000D02*
X103000000Y-115200000D01*
X103600000Y-114800000D02*
X103800000Y-114800000D01*
%TO.N,UART_RCRS_TX*%
X103000000Y-116400000D02*
X103800000Y-115600000D01*
X106600000Y-114200000D02*
X106800000Y-114000000D01*
X106800000Y-114000000D02*
X107400000Y-114000000D01*
X102600000Y-116400000D02*
X103000000Y-116400000D01*
X103800000Y-115600000D02*
X106400000Y-115600000D01*
X106400000Y-115600000D02*
X106600000Y-115400000D01*
X106600000Y-115400000D02*
X106600000Y-114200000D01*
%TO.N,RSSI_DCD*%
X135000000Y-130210000D02*
X105390000Y-130210000D01*
%TD*%
M02*
