%TF.GenerationSoftware,KiCad,Pcbnew,9.0.2+dfsg-1*%
%TF.CreationDate,2026-07-18T19:34:47-04:00*%
%TF.ProjectId,Commo,456d6d61-2e6b-4696-9361-645f70636258,2*%
%TF.SameCoordinates,Original*%
%TF.FileFunction,Other,User*%
%FSLAX46Y46*%
G04 Gerber Fmt 4.6, Leading zero omitted, Abs format (unit mm)*
G04 Created by KiCad (PCBNEW 9.0.2+dfsg-1) date 2026-07-18 19:34:47*
%MOMM*%
%LPD*%
G01*
G04 APERTURE LIST*
%ADD10C,0.050000*%
G04 APERTURE END LIST*
D10*
%TO.C,ETH-PHY*%
X120000000Y-115500000D02*
X120000000Y-124500000D01*
X120000000Y-124500000D02*
X129000000Y-124500000D01*
X129000000Y-115500000D02*
X120000000Y-115500000D01*
X129000000Y-124500000D02*
X129000000Y-115500000D01*
%TO.C,RSSI_RH*%
X131080000Y-111530000D02*
X131080000Y-112470000D01*
X131080000Y-112470000D02*
X132940000Y-112470000D01*
X132940000Y-111530000D02*
X131080000Y-111530000D01*
X132940000Y-112470000D02*
X132940000Y-111530000D01*
%TO.C,T-ETH*%
X122200000Y-106200000D02*
X122200000Y-113800000D01*
X122200000Y-113800000D02*
X126800000Y-113800000D01*
X126800000Y-106200000D02*
X122200000Y-106200000D01*
X126800000Y-113800000D02*
X126800000Y-106200000D01*
%TO.C,RSSI_RL*%
X131080000Y-113530000D02*
X131080000Y-114470000D01*
X131080000Y-114470000D02*
X132940000Y-114470000D01*
X132940000Y-113530000D02*
X131080000Y-113530000D01*
X132940000Y-114470000D02*
X132940000Y-113530000D01*
%TO.C,LoRa*%
X100750000Y-108750000D02*
X100750000Y-125250000D01*
X119250000Y-108750000D02*
X100750000Y-108750000D01*
X119250000Y-125250000D02*
X100750000Y-125250000D01*
X119250000Y-125250000D02*
X119250000Y-108750000D01*
%TO.C,RSSI_CBY*%
X131100000Y-115540000D02*
X131100000Y-116460000D01*
X131100000Y-116460000D02*
X132920000Y-116460000D01*
X132920000Y-115540000D02*
X131100000Y-115540000D01*
X132920000Y-116460000D02*
X132920000Y-115540000D01*
%TO.C,RSSI_CMP*%
X130800000Y-119000000D02*
X130800000Y-121100000D01*
X130800000Y-121100000D02*
X131000000Y-121100000D01*
X131000000Y-118000000D02*
X131000000Y-119000000D01*
X131000000Y-119000000D02*
X130800000Y-119000000D01*
X131000000Y-121100000D02*
X131000000Y-122100000D01*
X131000000Y-122100000D02*
X134000000Y-122100000D01*
X134000000Y-118000000D02*
X131000000Y-118000000D01*
X134000000Y-119000000D02*
X134000000Y-118000000D01*
X134000000Y-121100000D02*
X134200000Y-121100000D01*
X134000000Y-122100000D02*
X134000000Y-121100000D01*
X134200000Y-119000000D02*
X134000000Y-119000000D01*
X134200000Y-121100000D02*
X134200000Y-119000000D01*
%TD*%
M02*
