<?xml version="1.0" encoding="UTF-8"?>
<!-- Serenity-Class Tiltrotor — Right Side View -->
<!-- © 2025 Steve Griffing PE(CSE) CISSP-ISSEP CPP  CC BY 4.0 -->
<!-- Hull: Peter Farell CC BY 4.0  Nozzle: BamJr CC BY 4.0 -->
<!-- Visual inspiration: Firefly/Serenity © Joss Whedon / Mutant Enemy / Universal Pictures -->
<svg xmlns="http://www.w3.org/2000/svg" viewBox="0 0 760 340" width="760" height="340">
<defs>
  <style>text { font-family="'Courier New',monospace"; fill:rgba(255,255,255,0.35); font-size:10px; }
    .label { fill:#00e5ff; font-size:11px; font-weight:bold; }
    .dim   { fill:rgba(255,255,255,0.18); font-size:8px; }
    .note  { fill:rgba(255,255,255,0.35); font-size:9px; }
    .ant   { fill:#4ade80; font-size:8px; }
  </style>
  <marker id="arr" markerWidth="6" markerHeight="6" refX="5" refY="3" orient="auto">
    <path d="M0,0 L6,3 L0,6 Z" fill="#00e5ff" opacity="0.5"/>
  </marker>
  <pattern id="grid" width="20" height="20" patternUnits="userSpaceOnUse">
    <path d="M20 0L0 0 0 20" fill="none" stroke="rgba(0,229,255,0.06)" stroke-width="0.5"/>
  </pattern>
</defs>
<rect width="760" height="340" fill="#07090e"/>
<rect width="760" height="340" fill="url(#grid)"/>

<path d="M 60.0,180.0 L 70.8,169.2 L 89.7,150.3 L 114.0,136.8 L 138.3,128.7 L 161.2,131.4 L 178.8,139.5 L 208.5,144.9 L 249.0,144.9 L 282.8,146.2 L 323.2,147.6 L 357.0,153.0 L 404.2,163.8 L 424.5,158.4 L 465.0,153.0 L 519.0,155.7 L 552.8,161.1 L 552.8,198.9 L 519.0,207.0 L 465.0,209.7 L 424.5,204.3 L 404.2,198.9 L 357.0,207.0 L 303.0,209.7 L 249.0,209.7 L 178.8,207.0 L 107.2,198.9 L 73.5,186.8 L 60.0,180.0 Z" fill="#0e2030" stroke="#00e5ff" stroke-width="2"/>
<path d="M70.8,150.3 Q120.8,92.2 174.8,139.5" fill="rgba(0,229,255,0.1)" stroke="#00e5ff" stroke-width="1.5"/>
<text x="119.4" y="109.8" text-anchor="middle" font-size="8" fill="rgba(0,229,255,0.5)">COCKPIT</text>
<rect x="246.3" y="45.0" width="35.1" height="70.2" rx="5" fill="rgba(255,107,53,0.1)" stroke="#ff6b35" stroke-width="1.5"/>
<ellipse cx="263.9" cy="108.4" rx="14.9" ry="5.4" fill="rgba(255,107,53,0.15)" stroke="#ff6b35" stroke-width="0.9"/>
<text x="263.9" y="34.2" text-anchor="middle" font-size="8" fill="#ff6b35" font-weight="bold">70mm NACELLE</text>
<text x="263.9" y="46.3" text-anchor="middle" font-size="7" fill="rgba(255,107,53,0.6)">HOVER (90°)</text>
<path d="M235.5,144.9 A35.1,35.1 0 0,1 270.6,126.0" fill="none" stroke="#ff6b35" stroke-width="0.8" stroke-dasharray="3 2" opacity="0.6"/>
<text x="289.5" y="126.0" font-size="7" fill="#ff6b35">±90°</text>
<path d="M417.8,159.8 Q431.2,144.9 444.8,147.6 L505.5,147.6 Q527.1,150.3 542.0,158.4 L548.7,161.1 L548.7,198.9 L542.0,201.6 Q527.1,209.7 505.5,212.4 L444.8,212.4 Q431.2,215.1 417.8,200.2" fill="rgba(255,230,0,0.07)" stroke="#ffe600" stroke-width="1.5"/>
<circle cx="467.7" cy="180.0" r="20.2" fill="rgba(255,230,0,0.12)" stroke="#ffe600" stroke-width="1.2"/>
<text x="467.7" y="183.0" text-anchor="middle" font-size="7" fill="#ffe600" font-weight="bold">40mm EDF</text>
<rect x="235.5" y="207.0" width="94.5" height="29.7" rx="3" fill="rgba(244,114,182,0.1)" stroke="#f472b6" stroke-width="1" stroke-dasharray="3 2"/>
<text x="282.8" y="224.6" text-anchor="middle" font-size="7" fill="#f472b6">PAYLOAD BAY</text>
<line x1="269.2" y1="236.7" x2="269.2" y2="258.3" stroke="rgba(244,114,182,0.4)" stroke-width="1.5" stroke-dasharray="3 2"/>
<line x1="188.2" y1="207.0" x2="174.8" y2="236.7" stroke="#00e5ff" stroke-width="1.5" opacity="0.5"/>
<line x1="158.6" y1="236.7" x2="217.9" y2="236.7" stroke="#00e5ff" stroke-width="2" opacity="0.5"/>
<line x1="373.2" y1="207.0" x2="359.7" y2="236.7" stroke="#00e5ff" stroke-width="1.5" opacity="0.5"/>
<line x1="343.5" y1="236.7" x2="402.9" y2="236.7" stroke="#00e5ff" stroke-width="2" opacity="0.5"/>
<rect x="111.3" y="93.6" width="29.7" height="10.8" rx="2" fill="rgba(74,222,128,0.25)" stroke="#4ade80" stroke-width="1.5"/>
<text x="126.2" y="85.5" text-anchor="middle" font-size="8" fill="#4ade80" font-weight="bold">GPS PATCH</text>
<text x="126.2" y="72.0" text-anchor="middle" font-size="7" fill="#4ade80">58 mm (2.28") from nose</text>
<circle cx="451.5" cy="147.6" r="4" fill="rgba(244,114,182,0.25)" stroke="#f472b6" stroke-width="1.5"/>
<line x1="451.5" y1="142.2" x2="451.5" y2="88.2" stroke="#f472b6" stroke-width="2" stroke-linecap="round"/>
<ellipse cx="451.5" cy="131.4" rx="4" ry="3" fill="none" stroke="#f472b6" stroke-width="0.9" opacity="0.7"/>
<ellipse cx="451.5" cy="120.6" rx="4" ry="3" fill="none" stroke="#f472b6" stroke-width="0.9" opacity="0.7"/>
<ellipse cx="451.5" cy="109.8" rx="4" ry="3" fill="none" stroke="#f472b6" stroke-width="0.9" opacity="0.7"/>
<ellipse cx="451.5" cy="99.0" rx="4" ry="3" fill="none" stroke="#f472b6" stroke-width="0.9" opacity="0.7"/>
<text x="465.5" y="90.9" font-size="7" fill="#f472b6" font-weight="bold">49MHz</text>
<text x="465.5" y="103.0" font-size="6" fill="rgba(244,114,182,0.6)">290mm (11.4") dorsal</text>
<text x="465.5" y="115.2" font-size="6" fill="rgba(244,114,182,0.5)">250mm (9.8") whip + coil</text>
<rect x="375.9" y="207.0" width="10.8" height="3" rx="1" fill="#ff6b35" stroke="#ff6b35" stroke-width="0.5"/>
<line x1="381.3" y1="211.1" x2="381.3" y2="244.8" stroke="#ff6b35" stroke-width="2" stroke-linecap="round"/>
<text x="381.3" y="256.9" text-anchor="middle" font-size="7" fill="#ff6b35">SiK 915MHz↓</text>
<text x="381.3" y="267.8" text-anchor="middle" font-size="6" fill="rgba(255,107,53,0.6)">238mm (9.4") belly</text>
<rect x="184.2" y="158.4" width="91.8" height="43.2" rx="4" fill="rgba(0,229,255,0.05)" stroke="rgba(0,229,255,0.3)" stroke-width="1" stroke-dasharray="4 2"/>
<text x="230.1" y="169.2" text-anchor="middle" font-size="7" fill="rgba(0,229,255,0.5)">Pico 2 + TRIHAT-1</text>
<text x="230.1" y="182.7" text-anchor="middle" font-size="7" fill="rgba(74,222,128,0.5)">CM4 + CARRIER + COMPHAT</text>
<line x1="265.2" y1="85.5" x2="265.2" y2="247.5" stroke="#4ade80" stroke-width="1" stroke-dasharray="5 3"/>
<text x="265.2" y="77.4" text-anchor="middle" font-size="8" fill="#4ade80" font-weight="bold">CG 152mm (5.98")</text>
<line x1="60.0" y1="180.0" x2="35.7" y2="180.0" stroke="#2dd4bf" stroke-width="3" stroke-linecap="round"/>
<circle cx="35.7" cy="180.0" r="3" fill="#2dd4bf"/>
<line x1="60.0" y1="326.0" x2="552.8" y2="326.0" stroke="#00e5ff" stroke-width="0.4" opacity="0.2"/>
<text x="305.7" y="336.0" text-anchor="middle" font-size="7" fill="rgba(255,255,255,0.18)">365 mm (14.4")</text>
<text x="49.2" y="183.0" text-anchor="end" font-size="8" fill="rgba(255,255,255,0.18)">NOSE</text>
<text x="556.8" y="183.0" font-size="8" fill="rgba(255,255,255,0.18)">TAIL</text>

<text x="10" y="14" font-family="'Courier New',monospace" font-size="9" fill="rgba(0,229,255,0.3)"
  letter-spacing="2">SERENITY-CLASS TILTROTOR — RIGHT SIDE VIEW</text>
<text x="10" y="26" font-family="'Courier New',monospace" font-size="7" fill="rgba(163,230,53,0.4)">
  © 2025 Steve Griffing PE(CSE) CISSP-ISSEP CPP · CC BY 4.0
  · Hull: Peter Farell CC BY 4.0 · Nozzle: BamJr CC BY 4.0</text>
</svg>
