<?xml version="1.0" encoding="UTF-8"?>
<!-- Serenity-Class Tiltrotor — Front View -->
<!-- © 2025 Steve Griffing PE(CSE) CISSP-ISSEP CPP  CC BY 4.0 -->
<!-- Hull: Peter Farell CC BY 4.0  Nozzle: BamJr CC BY 4.0 -->
<!-- Visual inspiration: Firefly/Serenity © Joss Whedon / Mutant Enemy / Universal Pictures -->
<svg xmlns="http://www.w3.org/2000/svg" viewBox="0 0 680 400" width="680" height="400">
<defs>
  <style>text { font-family="'Courier New',monospace"; fill:rgba(255,255,255,0.35); font-size:10px; }
    .label { fill:#00e5ff; font-size:11px; font-weight:bold; }
    .dim   { fill:rgba(255,255,255,0.18); font-size:8px; }
    .note  { fill:rgba(255,255,255,0.35); font-size:9px; }
    .ant   { fill:#4ade80; font-size:8px; }
  </style>
  <marker id="arr" markerWidth="6" markerHeight="6" refX="5" refY="3" orient="auto">
    <path d="M0,0 L6,3 L0,6 Z" fill="#00e5ff" opacity="0.5"/>
  </marker>
  <pattern id="grid" width="20" height="20" patternUnits="userSpaceOnUse">
    <path d="M20 0L0 0 0 20" fill="none" stroke="rgba(0,229,255,0.06)" stroke-width="0.5"/>
  </pattern>
</defs>
<rect width="680" height="400" fill="#07090e"/>
<rect width="680" height="400" fill="url(#grid)"/>

<ellipse cx="340.0" cy="187.6" rx="54.0" ry="48.6" fill="#0e2030" stroke="#00e5ff" stroke-width="2"/>
<ellipse cx="340.0" cy="149.8" rx="37.8" ry="27.0" fill="rgba(0,229,255,0.12)" stroke="#00e5ff" stroke-width="1.5"/>
<ellipse cx="340.0" cy="149.8" rx="24.3" ry="16.2" fill="rgba(0,229,255,0.08)" stroke="rgba(0,229,255,0.4)" stroke-width="0.8"/>
<text x="340.0" y="112.0" text-anchor="middle" font-size="8" fill="rgba(0,229,255,0.5)">COCKPIT DOME</text>
<line x1="277.9" y1="184.9" x2="-119.0" y2="203.8" stroke="#00e5ff" stroke-width="2.5"/>
<ellipse cx="-119.0" cy="203.8" rx="44.6" ry="32.4" fill="rgba(255,107,53,0.1)" stroke="#ff6b35" stroke-width="2"/>
<ellipse cx="-119.0" cy="203.8" rx="32.4" ry="23.0" fill="rgba(255,107,53,0.08)" stroke="#ff6b35" stroke-width="1" stroke-dasharray="3 2"/>
<circle cx="-119.0" cy="203.8" r="8.1" fill="rgba(255,107,53,0.15)" stroke="#ff6b35" stroke-width="0.8"/>
<line x1="-109.6" y1="203.8" x2="-89.3" y2="203.8" stroke="#ff6b35" stroke-width="0.8" opacity="0.4"/>
<line x1="-110.8" y1="207.2" x2="-93.3" y2="214.6" stroke="#ff6b35" stroke-width="0.8" opacity="0.4"/>
<line x1="-114.3" y1="209.6" x2="-104.2" y2="222.5" stroke="#ff6b35" stroke-width="0.8" opacity="0.4"/>
<line x1="-119.0" y1="210.6" x2="-119.0" y2="225.4" stroke="#ff6b35" stroke-width="0.8" opacity="0.4"/>
<line x1="-123.7" y1="209.6" x2="-133.9" y2="222.5" stroke="#ff6b35" stroke-width="0.8" opacity="0.4"/>
<line x1="-127.2" y1="207.2" x2="-144.7" y2="214.6" stroke="#ff6b35" stroke-width="0.8" opacity="0.4"/>
<line x1="-128.5" y1="203.8" x2="-148.7" y2="203.8" stroke="#ff6b35" stroke-width="0.8" opacity="0.4"/>
<line x1="-127.2" y1="200.4" x2="-144.7" y2="193.0" stroke="#ff6b35" stroke-width="0.8" opacity="0.4"/>
<line x1="-123.7" y1="198.0" x2="-133.9" y2="185.1" stroke="#ff6b35" stroke-width="0.8" opacity="0.4"/>
<line x1="-119.0" y1="197.1" x2="-119.0" y2="182.2" stroke="#ff6b35" stroke-width="0.8" opacity="0.4"/>
<line x1="-114.3" y1="198.0" x2="-104.2" y2="185.1" stroke="#ff6b35" stroke-width="0.8" opacity="0.4"/>
<line x1="-110.8" y1="200.4" x2="-93.3" y2="193.0" stroke="#ff6b35" stroke-width="0.8" opacity="0.4"/>
<text x="-119.0" y="244.3" text-anchor="middle" font-size="8" fill="#ff6b35" font-weight="bold">70mm PORT L</text>
<text x="-119.0" y="255.1" text-anchor="middle" font-size="7" fill="rgba(255,107,53,0.6)">~1100g thrust</text>
<line x1="-166.3" y1="203.8" x2="-71.8" y2="203.8" stroke="#ff6b35" stroke-width="0.8" stroke-dasharray="3 2" opacity="0.5"/>
<circle cx="-119.0" cy="166.0" r="6" fill="#f87171" opacity="0.9"/>
<text x="-119.0" y="153.9" text-anchor="middle" font-size="8" fill="#f87171">PORT●</text>
<line x1="402.1" y1="184.9" x2="799.0" y2="203.8" stroke="#00e5ff" stroke-width="2.5"/>
<ellipse cx="799.0" cy="203.8" rx="44.6" ry="32.4" fill="rgba(255,107,53,0.1)" stroke="#ff6b35" stroke-width="2"/>
<ellipse cx="799.0" cy="203.8" rx="32.4" ry="23.0" fill="rgba(255,107,53,0.08)" stroke="#ff6b35" stroke-width="1" stroke-dasharray="3 2"/>
<circle cx="799.0" cy="203.8" r="8.1" fill="rgba(255,107,53,0.15)" stroke="#ff6b35" stroke-width="0.8"/>
<line x1="808.5" y1="203.8" x2="828.7" y2="203.8" stroke="#ff6b35" stroke-width="0.8" opacity="0.4"/>
<line x1="807.2" y1="207.2" x2="824.7" y2="214.6" stroke="#ff6b35" stroke-width="0.8" opacity="0.4"/>
<line x1="803.7" y1="209.6" x2="813.9" y2="222.5" stroke="#ff6b35" stroke-width="0.8" opacity="0.4"/>
<line x1="799.0" y1="210.6" x2="799.0" y2="225.4" stroke="#ff6b35" stroke-width="0.8" opacity="0.4"/>
<line x1="794.3" y1="209.6" x2="784.1" y2="222.5" stroke="#ff6b35" stroke-width="0.8" opacity="0.4"/>
<line x1="790.8" y1="207.2" x2="773.3" y2="214.6" stroke="#ff6b35" stroke-width="0.8" opacity="0.4"/>
<line x1="789.5" y1="203.8" x2="769.3" y2="203.8" stroke="#ff6b35" stroke-width="0.8" opacity="0.4"/>
<line x1="790.8" y1="200.4" x2="773.3" y2="193.0" stroke="#ff6b35" stroke-width="0.8" opacity="0.4"/>
<line x1="794.3" y1="198.0" x2="784.1" y2="185.1" stroke="#ff6b35" stroke-width="0.8" opacity="0.4"/>
<line x1="799.0" y1="197.1" x2="799.0" y2="182.2" stroke="#ff6b35" stroke-width="0.8" opacity="0.4"/>
<line x1="803.7" y1="198.0" x2="813.9" y2="185.1" stroke="#ff6b35" stroke-width="0.8" opacity="0.4"/>
<line x1="807.2" y1="200.4" x2="824.7" y2="193.0" stroke="#ff6b35" stroke-width="0.8" opacity="0.4"/>
<text x="799.0" y="244.3" text-anchor="middle" font-size="8" fill="#ff6b35" font-weight="bold">70mm STBD R</text>
<text x="799.0" y="255.1" text-anchor="middle" font-size="7" fill="rgba(255,107,53,0.6)">~1100g thrust</text>
<line x1="751.8" y1="203.8" x2="846.2" y2="203.8" stroke="#ff6b35" stroke-width="0.8" stroke-dasharray="3 2" opacity="0.5"/>
<circle cx="799.0" cy="166.0" r="6" fill="#4ade80" opacity="0.9"/>
<text x="799.0" y="153.9" text-anchor="middle" font-size="8" fill="#4ade80">STBD●</text>
<rect x="323.8" y="117.4" width="32.4" height="10.8" rx="2" fill="rgba(74,222,128,0.25)" stroke="#4ade80" stroke-width="1.5"/>
<text x="340.0" y="109.3" text-anchor="middle" font-size="8" fill="#4ade80" font-weight="bold">GPS PATCH</text>
<rect x="299.5" y="230.8" width="81.0" height="13.5" rx="2" fill="rgba(244,114,182,0.1)" stroke="#f472b6" stroke-width="1" stroke-dasharray="3 2"/>
<text x="340.0" y="253.8" text-anchor="middle" font-size="7" fill="#f472b6">PAYLOAD DOOR</text>
<circle cx="340.0" cy="187.6" r="4" fill="#2dd4bf" opacity="0.9"/>
<text x="340.0" y="203.8" text-anchor="middle" font-size="7" fill="#2dd4bf">PITOT</text>
<line x1="315.7" y1="249.7" x2="307.6" y2="274.0" stroke="#00e5ff" stroke-width="1.5" opacity="0.5"/>
<line x1="307.6" y1="274.0" x2="286.0" y2="274.0" stroke="#00e5ff" stroke-width="2" opacity="0.5"/>
<line x1="364.3" y1="249.7" x2="372.4" y2="274.0" stroke="#00e5ff" stroke-width="1.5" opacity="0.5"/>
<line x1="372.4" y1="274.0" x2="394.0" y2="274.0" stroke="#00e5ff" stroke-width="2" opacity="0.5"/>
<line x1="-119.0" y1="382.0" x2="799.0" y2="382.0" stroke="#00e5ff" stroke-width="0.4" opacity="0.2"/>
<text x="340.0" y="395.0" text-anchor="middle" font-size="7" fill="rgba(255,255,255,0.18)">680 mm (26.8") tip-to-tip</text>
<text x="340.0" y="24" text-anchor="middle" font-size="8" fill="rgba(0,229,255,0.4)" letter-spacing="2">FRONT VIEW (NOSE-ON)</text>

<text x="10" y="14" font-family="'Courier New',monospace" font-size="9" fill="rgba(0,229,255,0.3)"
  letter-spacing="2">SERENITY-CLASS TILTROTOR — FRONT VIEW</text>
<text x="10" y="26" font-family="'Courier New',monospace" font-size="7" fill="rgba(163,230,53,0.4)">
  © 2025 Steve Griffing PE(CSE) CISSP-ISSEP CPP · CC BY 4.0
  · Hull: Peter Farell CC BY 4.0 · Nozzle: BamJr CC BY 4.0</text>
</svg>
