M48
; DRILL file {KiCad 9.0.2+dfsg-1} date 2026-06-04T20:16:12-0400
; FORMAT={3:3/ absolute / metric / suppress leading zeros}
; #@! TF.CreationDate,2026-06-04T20:16:12-04:00
; #@! TF.GenerationSoftware,Kicad,Pcbnew,9.0.2+dfsg-1
; #@! TF.FileFunction,MixedPlating,1,4
FMAT,2
METRIC,TZ
; #@! TA.AperFunction,Plated,PTH,ViaDrill
T1C0.400
; #@! TA.AperFunction,Plated,PTH,ComponentDrill
T2C0.900
; #@! TA.AperFunction,Plated,PTH,ComponentDrill
T3C1.000
; #@! TA.AperFunction,NonPlated,NPTH,ComponentDrill
T4C2.700
%
G90
G05
T1
X130000Y-102500
X130000Y-105000
X130000Y-107500
X130000Y-110000
X130000Y-112500
X130000Y-115000
X130000Y-117500
X130000Y-120000
X130000Y-122500
X130000Y-125000
X130000Y-127500
X130000Y-130000
X130000Y-132500
X130000Y-135000
X132000Y-109500
X132000Y-124500
X136000Y-109500
X136000Y-124500
X140000Y-109500
X140000Y-124500
X143000Y-109500
X143000Y-124500
T2
X154000Y-112500
T3
X154000Y-109960
X154000Y-115040
T4
X102500Y-102500
X102500Y-132500
X152500Y-102500
X152500Y-132500
M30
