%TF.GenerationSoftware,KiCad,Pcbnew,9.0.2+dfsg-1*%
%TF.CreationDate,2026-06-04T20:16:11-04:00*%
%TF.ProjectId,XCVR-49MHZ-2,58435652-2d34-4394-9d48-5a2d322e6b69,2*%
%TF.SameCoordinates,Original*%
%TF.FileFunction,Copper,L3,Inr*%
%TF.FilePolarity,Positive*%
%FSLAX46Y46*%
G04 Gerber Fmt 4.6, Leading zero omitted, Abs format (unit mm)*
G04 Created by KiCad (PCBNEW 9.0.2+dfsg-1) date 2026-06-04 20:16:11*
%MOMM*%
%LPD*%
G01*
G04 APERTURE LIST*
%TA.AperFunction,ComponentPad*%
%ADD10C,1.600000*%
%TD*%
%TA.AperFunction,ComponentPad*%
%ADD11C,2.000000*%
%TD*%
%TA.AperFunction,ViaPad*%
%ADD12C,0.800000*%
%TD*%
%ADD13C,0.350000*%
G04 APERTURE END LIST*
D10*
%TO.N,ANT*%
%TO.C,ANT SMA*%
X154000000Y-112500000D03*
D11*
%TO.N,GND*%
X154000000Y-109960000D03*
X154000000Y-115040000D03*
%TD*%
D12*
%TO.N,GND*%
X130000000Y-132500000D03*
X130000000Y-107500000D03*
X130000000Y-117500000D03*
X136000000Y-124500000D03*
X130000000Y-115000000D03*
X130000000Y-120000000D03*
X132000000Y-124500000D03*
X143000000Y-124500000D03*
X130000000Y-122500000D03*
X130000000Y-102500000D03*
X130000000Y-110000000D03*
X140000000Y-109500000D03*
X140000000Y-124500000D03*
X130000000Y-127500000D03*
X130000000Y-130000000D03*
X130000000Y-125000000D03*
X130000000Y-135000000D03*
X130000000Y-105000000D03*
X130000000Y-112500000D03*
X143000000Y-109500000D03*
%TO.N,+5V_FILT*%
X132000000Y-109500000D03*
%TO.N,PA_INT*%
X136000000Y-109500000D03*
%TD*%
D13*
X130000000Y-132500000D03*
X130000000Y-107500000D03*
X130000000Y-117500000D03*
X136000000Y-124500000D03*
X130000000Y-115000000D03*
X130000000Y-120000000D03*
X132000000Y-124500000D03*
X143000000Y-124500000D03*
X130000000Y-122500000D03*
X130000000Y-102500000D03*
X130000000Y-110000000D03*
X140000000Y-109500000D03*
X140000000Y-124500000D03*
X130000000Y-127500000D03*
X130000000Y-130000000D03*
X130000000Y-125000000D03*
X130000000Y-135000000D03*
X130000000Y-105000000D03*
X130000000Y-112500000D03*
X143000000Y-109500000D03*
X132000000Y-109500000D03*
X136000000Y-109500000D03*
X154000000Y-112500000D03*
X154000000Y-109960000D03*
X154000000Y-115040000D03*
X102500000Y-102500000D03*
X152500000Y-102500000D03*
X102500000Y-132500000D03*
X152500000Y-132500000D03*
M02*
