%TF.GenerationSoftware,KiCad,Pcbnew,9.0.2+dfsg-1*%
%TF.CreationDate,2026-07-18T19:34:49-04:00*%
%TF.ProjectId,Zo_,5a6feb2e-6b69-4636-9164-5f7063625858,A-STUB*%
%TF.SameCoordinates,Original*%
%TF.FileFunction,Copper,L4,Bot*%
%TF.FilePolarity,Positive*%
%FSLAX46Y46*%
G04 Gerber Fmt 4.6, Leading zero omitted, Abs format (unit mm)*
G04 Created by KiCad (PCBNEW 9.0.2+dfsg-1) date 2026-07-18 19:34:49*
%MOMM*%
%LPD*%
G01*
G04 APERTURE LIST*
G04 Aperture macros list*
%AMRoundRect*
0 Rectangle with rounded corners*
0 $1 Rounding radius*
0 $2 $3 $4 $5 $6 $7 $8 $9 X,Y pos of 4 corners*
0 Add a 4 corners polygon primitive as box body*
4,1,4,$2,$3,$4,$5,$6,$7,$8,$9,$2,$3,0*
0 Add four circle primitives for the rounded corners*
1,1,$1+$1,$2,$3*
1,1,$1+$1,$4,$5*
1,1,$1+$1,$6,$7*
1,1,$1+$1,$8,$9*
0 Add four rect primitives between the rounded corners*
20,1,$1+$1,$2,$3,$4,$5,0*
20,1,$1+$1,$4,$5,$6,$7,0*
20,1,$1+$1,$6,$7,$8,$9,0*
20,1,$1+$1,$8,$9,$2,$3,0*%
%AMFreePoly0*
4,1,14,0.385355,0.085355,0.400000,0.050000,0.400000,0.020711,0.385355,-0.014644,0.314644,-0.085355,0.279289,-0.100000,-0.350000,-0.100000,-0.385355,-0.085355,-0.400000,-0.050000,-0.400000,0.050000,-0.385355,0.085355,-0.350000,0.100000,0.350000,0.100000,0.385355,0.085355,0.385355,0.085355,$1*%
%AMFreePoly1*
4,1,14,0.314644,0.085355,0.385355,0.014644,0.400000,-0.020711,0.400000,-0.050000,0.385355,-0.085355,0.350000,-0.100000,-0.350000,-0.100000,-0.385355,-0.085355,-0.400000,-0.050000,-0.400000,0.050000,-0.385355,0.085355,-0.350000,0.100000,0.279289,0.100000,0.314644,0.085355,0.314644,0.085355,$1*%
%AMFreePoly2*
4,1,14,0.085355,0.385355,0.100000,0.350000,0.100000,-0.350000,0.085355,-0.385355,0.050000,-0.400000,0.020711,-0.400000,-0.014644,-0.385355,-0.085355,-0.314644,-0.100000,-0.279289,-0.100000,0.350000,-0.085355,0.385355,-0.050000,0.400000,0.050000,0.400000,0.085355,0.385355,0.085355,0.385355,$1*%
%AMFreePoly3*
4,1,14,0.085355,0.385355,0.100000,0.350000,0.100000,-0.279289,0.085355,-0.314644,0.014644,-0.385355,-0.020711,-0.400000,-0.050000,-0.400000,-0.085355,-0.385355,-0.100000,-0.350000,-0.100000,0.350000,-0.085355,0.385355,-0.050000,0.400000,0.050000,0.400000,0.085355,0.385355,0.085355,0.385355,$1*%
%AMFreePoly4*
4,1,14,0.385355,0.085355,0.400000,0.050000,0.400000,-0.050000,0.385355,-0.085355,0.350000,-0.100000,-0.350000,-0.100000,-0.385355,-0.085355,-0.400000,-0.050000,-0.400000,-0.020711,-0.385355,0.014644,-0.314644,0.085355,-0.279289,0.100000,0.350000,0.100000,0.385355,0.085355,0.385355,0.085355,$1*%
%AMFreePoly5*
4,1,14,0.385355,0.085355,0.400000,0.050000,0.400000,-0.050000,0.385355,-0.085355,0.350000,-0.100000,-0.279289,-0.100000,-0.314644,-0.085355,-0.385355,-0.014644,-0.400000,0.020711,-0.400000,0.050000,-0.385355,0.085355,-0.350000,0.100000,0.350000,0.100000,0.385355,0.085355,0.385355,0.085355,$1*%
%AMFreePoly6*
4,1,14,0.014644,0.385355,0.085355,0.314644,0.100000,0.279289,0.100000,-0.350000,0.085355,-0.385355,0.050000,-0.400000,-0.050000,-0.400000,-0.085355,-0.385355,-0.100000,-0.350000,-0.100000,0.350000,-0.085355,0.385355,-0.050000,0.400000,-0.020711,0.400000,0.014644,0.385355,0.014644,0.385355,$1*%
%AMFreePoly7*
4,1,14,0.085355,0.385355,0.100000,0.350000,0.100000,-0.350000,0.085355,-0.385355,0.050000,-0.400000,-0.050000,-0.400000,-0.085355,-0.385355,-0.100000,-0.350000,-0.100000,0.279289,-0.085355,0.314644,-0.014644,0.385355,0.020711,0.400000,0.050000,0.400000,0.085355,0.385355,0.085355,0.385355,$1*%
G04 Aperture macros list end*
%TA.AperFunction,ComponentPad*%
%ADD10C,1.700000*%
%TD*%
%TA.AperFunction,ComponentPad*%
%ADD11R,1.700000X1.700000*%
%TD*%
%TA.AperFunction,ComponentPad*%
%ADD12R,1.500000X1.500000*%
%TD*%
%TA.AperFunction,ComponentPad*%
%ADD13C,1.500000*%
%TD*%
%TA.AperFunction,SMDPad,CuDef*%
%ADD14RoundRect,0.150000X0.825000X0.150000X-0.825000X0.150000X-0.825000X-0.150000X0.825000X-0.150000X0*%
%TD*%
%TA.AperFunction,SMDPad,CuDef*%
%ADD15R,0.450000X1.050000*%
%TD*%
%TA.AperFunction,SMDPad,CuDef*%
%ADD16R,5.000000X3.400000*%
%TD*%
%TA.AperFunction,SMDPad,CuDef*%
%ADD17R,1.100000X0.850000*%
%TD*%
%TA.AperFunction,SMDPad,CuDef*%
%ADD18R,1.100000X0.750000*%
%TD*%
%TA.AperFunction,SMDPad,CuDef*%
%ADD19R,1.000000X1.200000*%
%TD*%
%TA.AperFunction,SMDPad,CuDef*%
%ADD20R,1.350000X1.550000*%
%TD*%
%TA.AperFunction,SMDPad,CuDef*%
%ADD21R,1.350000X1.900000*%
%TD*%
%TA.AperFunction,SMDPad,CuDef*%
%ADD22R,1.800000X1.170000*%
%TD*%
%TA.AperFunction,SMDPad,CuDef*%
%ADD23RoundRect,0.150000X0.150000X-0.825000X0.150000X0.825000X-0.150000X0.825000X-0.150000X-0.825000X0*%
%TD*%
%TA.AperFunction,SMDPad,CuDef*%
%ADD24FreePoly0,0.000000*%
%TD*%
%TA.AperFunction,SMDPad,CuDef*%
%ADD25RoundRect,0.050000X-0.350000X-0.050000X0.350000X-0.050000X0.350000X0.050000X-0.350000X0.050000X0*%
%TD*%
%TA.AperFunction,SMDPad,CuDef*%
%ADD26FreePoly1,0.000000*%
%TD*%
%TA.AperFunction,SMDPad,CuDef*%
%ADD27FreePoly2,0.000000*%
%TD*%
%TA.AperFunction,SMDPad,CuDef*%
%ADD28RoundRect,0.050000X-0.050000X-0.350000X0.050000X-0.350000X0.050000X0.350000X-0.050000X0.350000X0*%
%TD*%
%TA.AperFunction,SMDPad,CuDef*%
%ADD29FreePoly3,0.000000*%
%TD*%
%TA.AperFunction,SMDPad,CuDef*%
%ADD30FreePoly4,0.000000*%
%TD*%
%TA.AperFunction,SMDPad,CuDef*%
%ADD31FreePoly5,0.000000*%
%TD*%
%TA.AperFunction,SMDPad,CuDef*%
%ADD32FreePoly6,0.000000*%
%TD*%
%TA.AperFunction,SMDPad,CuDef*%
%ADD33FreePoly7,0.000000*%
%TD*%
%TA.AperFunction,HeatsinkPad*%
%ADD34R,2.650000X2.650000*%
%TD*%
%TA.AperFunction,SMDPad,CuDef*%
%ADD35R,0.500000X0.500000*%
%TD*%
%TA.AperFunction,SMDPad,CuDef*%
%ADD36R,14.000000X14.000000*%
%TD*%
%TA.AperFunction,SMDPad,CuDef*%
%ADD37RoundRect,0.075000X0.075000X0.250000X-0.075000X0.250000X-0.075000X-0.250000X0.075000X-0.250000X0*%
%TD*%
%TA.AperFunction,SMDPad,CuDef*%
%ADD38RoundRect,0.075000X0.250000X0.075000X-0.250000X0.075000X-0.250000X-0.075000X0.250000X-0.075000X0*%
%TD*%
%TA.AperFunction,ComponentPad*%
%ADD39RoundRect,0.000000X2.825000X2.825000X-2.825000X2.825000X-2.825000X-2.825000X2.825000X-2.825000X0*%
%TD*%
%TA.AperFunction,SMDPad,CuDef*%
%ADD40RoundRect,0.150000X-0.150000X0.450000X-0.150000X-0.450000X0.150000X-0.450000X0.150000X0.450000X0*%
%TD*%
%TA.AperFunction,SMDPad,CuDef*%
%ADD41RoundRect,0.137500X0.312500X0.137500X-0.312500X0.137500X-0.312500X-0.137500X0.312500X-0.137500X0*%
%TD*%
%TA.AperFunction,SMDPad,CuDef*%
%ADD42RoundRect,0.137500X-0.137500X0.162500X-0.137500X-0.162500X0.137500X-0.162500X0.137500X0.162500X0*%
%TD*%
%TA.AperFunction,SMDPad,CuDef*%
%ADD43RoundRect,0.100000X-0.100000X0.175000X-0.100000X-0.175000X0.100000X-0.175000X0.100000X0.175000X0*%
%TD*%
%TA.AperFunction,ViaPad*%
%ADD44C,0.800000*%
%TD*%
%TA.AperFunction,Conductor*%
%ADD45C,0.100000*%
%TD*%
G04 APERTURE END LIST*
D10*
%TO.P,PB2-P2-TOP,1*%
%TO.N,SERVO7*%
X126910000Y-121230000D03*
%TO.P,PB2-P2-TOP,2*%
%TO.N,SERVO6*%
X126910000Y-118690000D03*
%TO.P,PB2-P2-TOP,3*%
%TO.N,PWM_CH3*%
X129450000Y-121230000D03*
%TO.P,PB2-P2-TOP,4*%
%TO.N,PWM_CH2*%
X129450000Y-118690000D03*
%TO.P,PB2-P2-TOP,5*%
%TO.N,PWM_CH1*%
X131990000Y-121230000D03*
%TO.P,PB2-P2-TOP,6*%
%TO.N,PWM_CH0*%
X131990000Y-118690000D03*
%TO.P,PB2-P2-TOP,7*%
%TO.N,LOAD_CELL_DOUT*%
X134530000Y-121230000D03*
%TO.P,PB2-P2-TOP,8*%
%TO.N,LOAD_CELL_SCK*%
X134530000Y-118690000D03*
%TO.P,PB2-P2-TOP,9*%
%TO.N,WINCH_IN2*%
X137070000Y-121230000D03*
%TO.P,PB2-P2-TOP,10*%
%TO.N,WINCH_IN1*%
X137070000Y-118690000D03*
%TO.P,PB2-P2-TOP,11*%
%TO.N,TPM_RSTN*%
X139610000Y-121230000D03*
%TO.P,PB2-P2-TOP,12*%
%TO.N,TPM_IRQN*%
X139610000Y-118690000D03*
%TO.P,PB2-P2-TOP,13*%
%TO.N,PHY2_RSTN*%
X142150000Y-121230000D03*
%TO.P,PB2-P2-TOP,14*%
%TO.N,PHY2_INTRN*%
X142150000Y-118690000D03*
%TO.P,PB2-P2-TOP,15*%
%TO.N,PHY1_RSTN*%
X144690000Y-121230000D03*
%TO.P,PB2-P2-TOP,16*%
%TO.N,PHY1_INTRN*%
X144690000Y-118690000D03*
%TO.P,PB2-P2-TOP,17*%
%TO.N,MDIO*%
X147230000Y-121230000D03*
%TO.P,PB2-P2-TOP,18*%
%TO.N,MDC*%
X147230000Y-118690000D03*
%TO.P,PB2-P2-TOP,19*%
%TO.N,RMII1_REF_CLK*%
X149770000Y-121230000D03*
%TO.P,PB2-P2-TOP,20*%
%TO.N,RMII1_RX_ER*%
X149770000Y-118690000D03*
%TO.P,PB2-P2-TOP,21*%
%TO.N,RMII1_CRS_DV*%
X152310000Y-121230000D03*
%TO.P,PB2-P2-TOP,22*%
%TO.N,RMII1_RXD1*%
X152310000Y-118690000D03*
%TO.P,PB2-P2-TOP,23*%
%TO.N,RMII1_RXD0*%
X154850000Y-121230000D03*
%TO.P,PB2-P2-TOP,24*%
%TO.N,RMII1_TX_EN*%
X154850000Y-118690000D03*
%TO.P,PB2-P2-TOP,25*%
%TO.N,RMII1_TXD1*%
X157390000Y-121230000D03*
%TO.P,PB2-P2-TOP,26*%
%TO.N,RMII1_TXD0*%
X157390000Y-118690000D03*
%TO.P,PB2-P2-TOP,27*%
%TO.N,RMII0_REF_CLK*%
X159930000Y-121230000D03*
%TO.P,PB2-P2-TOP,28*%
%TO.N,RMII0_RX_ER*%
X159930000Y-118690000D03*
%TO.P,PB2-P2-TOP,29*%
%TO.N,RMII0_CRS_DV*%
X162470000Y-121230000D03*
%TO.P,PB2-P2-TOP,30*%
%TO.N,RMII0_RXD1*%
X162470000Y-118690000D03*
%TO.P,PB2-P2-TOP,31*%
%TO.N,RMII0_RXD0*%
X165010000Y-121230000D03*
%TO.P,PB2-P2-TOP,32*%
%TO.N,RMII0_TX_EN*%
X165010000Y-118690000D03*
%TO.P,PB2-P2-TOP,33*%
%TO.N,RMII0_TXD1*%
X167550000Y-121230000D03*
%TO.P,PB2-P2-TOP,34*%
%TO.N,RMII0_TXD0*%
X167550000Y-118690000D03*
%TO.P,PB2-P2-TOP,35*%
%TO.N,+5V*%
X170090000Y-121230000D03*
%TO.P,PB2-P2-TOP,36*%
%TO.N,GND*%
X170090000Y-118690000D03*
%TD*%
%TO.P,PB2-P1-TOP,1*%
%TO.N,GND*%
X126910000Y-91310000D03*
%TO.P,PB2-P1-TOP,2*%
X126910000Y-88770000D03*
%TO.P,PB2-P1-TOP,3*%
%TO.N,I2C0_SDA*%
X129450000Y-91310000D03*
%TO.P,PB2-P1-TOP,4*%
%TO.N,I2C0_SCL*%
X129450000Y-88770000D03*
%TO.P,PB2-P1-TOP,5*%
%TO.N,PRU_1553_RX_N*%
X131990000Y-91310000D03*
%TO.P,PB2-P1-TOP,6*%
%TO.N,PRU_1553_RX_P*%
X131990000Y-88770000D03*
%TO.P,PB2-P1-TOP,7*%
%TO.N,PRU_1553_TX_N*%
X134530000Y-91310000D03*
%TO.P,PB2-P1-TOP,8*%
%TO.N,PRU_1553_TX_P*%
X134530000Y-88770000D03*
%TO.P,PB2-P1-TOP,9*%
%TO.N,RS485_DE*%
X137070000Y-91310000D03*
%TO.P,PB2-P1-TOP,10*%
%TO.N,RS485_RX*%
X137070000Y-88770000D03*
%TO.P,PB2-P1-TOP,11*%
%TO.N,RS485_TX*%
X139610000Y-91310000D03*
%TO.P,PB2-P1-TOP,12*%
%TO.N,CAN_STB*%
X139610000Y-88770000D03*
%TO.P,PB2-P1-TOP,13*%
%TO.N,MCAN1_RX*%
X142150000Y-91310000D03*
%TO.P,PB2-P1-TOP,14*%
%TO.N,MCAN1_TX*%
X142150000Y-88770000D03*
%TO.P,PB2-P1-TOP,15*%
%TO.N,UART_RCRS_RX*%
X144690000Y-91310000D03*
%TO.P,PB2-P1-TOP,16*%
%TO.N,UART_RCRS_TX*%
X144690000Y-88770000D03*
%TO.P,PB2-P1-TOP,17*%
%TO.N,UART_SIK_RX*%
X147230000Y-91310000D03*
%TO.P,PB2-P1-TOP,18*%
%TO.N,UART_SIK_TX*%
X147230000Y-88770000D03*
%TO.P,PB2-P1-TOP,19*%
%TO.N,LORA_RESETN*%
X149770000Y-91310000D03*
%TO.P,PB2-P1-TOP,20*%
%TO.N,LORA_DIO0*%
X149770000Y-88770000D03*
%TO.P,PB2-P1-TOP,21*%
%TO.N,SPI1_CS_TPM*%
X152310000Y-91310000D03*
%TO.P,PB2-P1-TOP,22*%
%TO.N,SPI1_CS_NOR*%
X152310000Y-88770000D03*
%TO.P,PB2-P1-TOP,23*%
%TO.N,SPI1_MISO*%
X154850000Y-91310000D03*
%TO.P,PB2-P1-TOP,24*%
%TO.N,SPI1_MOSI*%
X154850000Y-88770000D03*
%TO.P,PB2-P1-TOP,25*%
%TO.N,SPI1_CLK*%
X157390000Y-91310000D03*
%TO.P,PB2-P1-TOP,26*%
%TO.N,SPI1_CS_LORA*%
X157390000Y-88770000D03*
%TO.P,PB2-P1-TOP,27*%
%TO.N,SDIO_D3*%
X159930000Y-91310000D03*
%TO.P,PB2-P1-TOP,28*%
%TO.N,SDIO_D2*%
X159930000Y-88770000D03*
%TO.P,PB2-P1-TOP,29*%
%TO.N,SDIO_D1*%
X162470000Y-91310000D03*
%TO.P,PB2-P1-TOP,30*%
%TO.N,SDIO_D0*%
X162470000Y-88770000D03*
%TO.P,PB2-P1-TOP,31*%
%TO.N,SDIO_CMD*%
X165010000Y-91310000D03*
%TO.P,PB2-P1-TOP,32*%
%TO.N,SDIO_CLK*%
X165010000Y-88770000D03*
%TO.P,PB2-P1-TOP,33*%
%TO.N,+3V3*%
X167550000Y-91310000D03*
%TO.P,PB2-P1-TOP,34*%
X167550000Y-88770000D03*
%TO.P,PB2-P1-TOP,35*%
%TO.N,+5V*%
X170090000Y-91310000D03*
%TO.P,PB2-P1-TOP,36*%
%TO.N,GND*%
X170090000Y-88770000D03*
%TD*%
D11*
%TO.P,NAV-LIGHT PWM,1*%
%TO.N,N/C*%
X174000000Y-95460000D03*
D10*
%TO.P,NAV-LIGHT PWM,2*%
X174000000Y-98000000D03*
%TO.P,NAV-LIGHT PWM,3*%
X174000000Y-100540000D03*
%TO.P,NAV-LIGHT PWM,4*%
X174000000Y-103080000D03*
%TO.P,NAV-LIGHT PWM,5*%
X174000000Y-105620000D03*
%TO.P,NAV-LIGHT PWM,6*%
X174000000Y-108160000D03*
%TO.P,NAV-LIGHT PWM,7*%
X174000000Y-110700000D03*
%TO.P,NAV-LIGHT PWM,8*%
X174000000Y-113240000D03*
%TD*%
D12*
%TO.P,PWR-IN,1*%
%TO.N,N/C*%
X123000000Y-116000000D03*
D13*
%TO.P,PWR-IN,2*%
X125500000Y-116000000D03*
%TO.P,PWR-IN,3*%
X128000000Y-116000000D03*
%TO.P,PWR-IN,4*%
X130500000Y-116000000D03*
%TD*%
D14*
%TO.P,RS485,1*%
%TO.N,+3V3*%
X155390000Y-116000000D03*
%TO.P,RS485,2*%
%TO.N,GND*%
X154120000Y-116000000D03*
%TO.P,RS485,3*%
%TO.N,RS485_TX*%
X152850000Y-116000000D03*
%TO.P,RS485,4*%
%TO.N,RS485_DE*%
X151580000Y-116000000D03*
%TO.P,RS485,5*%
X150310000Y-116000000D03*
%TO.P,RS485,6*%
%TO.N,RS485_RX*%
X149040000Y-116000000D03*
%TO.P,RS485,7*%
%TO.N,GND*%
X147770000Y-116000000D03*
%TO.P,RS485,8*%
X146500000Y-116000000D03*
%TO.P,RS485,9*%
%TO.N,N/C*%
X145230000Y-116000000D03*
%TO.P,RS485,10*%
X143960000Y-116000000D03*
%TO.P,RS485,11*%
%TO.N,VCC2_RS485*%
X143960000Y-105800000D03*
%TO.P,RS485,12*%
%TO.N,GND2_RS485*%
X145230000Y-105800000D03*
%TO.P,RS485,13*%
X146500000Y-105800000D03*
%TO.P,RS485,14*%
%TO.N,RS485_A*%
X147770000Y-105800000D03*
%TO.P,RS485,15*%
%TO.N,RS485_B*%
X149040000Y-105800000D03*
%TO.P,RS485,16*%
%TO.N,N/C*%
X150310000Y-105800000D03*
%TO.P,RS485,17*%
X151580000Y-105800000D03*
%TO.P,RS485,18*%
%TO.N,GND2_RS485*%
X152850000Y-105800000D03*
%TO.P,RS485,19*%
X154120000Y-105800000D03*
%TO.P,RS485,20*%
%TO.N,VCC2_RS485*%
X155390000Y-105800000D03*
%TD*%
D15*
%TO.P,WINCH DRV,1*%
%TO.N,N/C*%
X159400000Y-99141600D03*
%TO.P,WINCH DRV,2*%
X158750000Y-99141600D03*
%TO.P,WINCH DRV,3*%
X158100000Y-99141600D03*
%TO.P,WINCH DRV,4*%
X157450000Y-99141600D03*
%TO.P,WINCH DRV,5*%
%TO.N,WINCH_IN1*%
X156800000Y-99141600D03*
%TO.P,WINCH DRV,6*%
%TO.N,N/C*%
X156150000Y-99141600D03*
%TO.P,WINCH DRV,7*%
X155500000Y-99141600D03*
%TO.P,WINCH DRV,8*%
%TO.N,WINCH_IN2*%
X154850000Y-99141600D03*
%TO.P,WINCH DRV,9*%
%TO.N,N/C*%
X154850000Y-93591600D03*
%TO.P,WINCH DRV,10*%
X155500000Y-93591600D03*
%TO.P,WINCH DRV,11*%
X156150000Y-93591600D03*
%TO.P,WINCH DRV,12*%
X156800000Y-93591600D03*
%TO.P,WINCH DRV,13*%
X157450000Y-93591600D03*
%TO.P,WINCH DRV,14*%
%TO.N,WINCH_OUT2*%
X158100000Y-93591600D03*
%TO.P,WINCH DRV,15*%
%TO.N,N/C*%
X158750000Y-93591600D03*
%TO.P,WINCH DRV,16*%
X159400000Y-93591600D03*
D16*
%TO.P,WINCH DRV,DRV8833*%
X157125000Y-96366600D03*
%TD*%
D10*
%TO.P,PB2-P2,1*%
%TO.N,SERVO7*%
X126910000Y-118690000D03*
%TO.P,PB2-P2,2*%
%TO.N,SERVO6*%
X126910000Y-121230000D03*
%TO.P,PB2-P2,3*%
%TO.N,PWM_CH3*%
X129450000Y-118690000D03*
%TO.P,PB2-P2,4*%
%TO.N,PWM_CH2*%
X129450000Y-121230000D03*
%TO.P,PB2-P2,5*%
%TO.N,PWM_CH1*%
X131990000Y-118690000D03*
%TO.P,PB2-P2,6*%
%TO.N,PWM_CH0*%
X131990000Y-121230000D03*
%TO.P,PB2-P2,7*%
%TO.N,LOAD_CELL_DOUT*%
X134530000Y-118690000D03*
%TO.P,PB2-P2,8*%
%TO.N,LOAD_CELL_SCK*%
X134530000Y-121230000D03*
%TO.P,PB2-P2,9*%
%TO.N,WINCH_IN2*%
X137070000Y-118690000D03*
%TO.P,PB2-P2,10*%
%TO.N,WINCH_IN1*%
X137070000Y-121230000D03*
%TO.P,PB2-P2,11*%
%TO.N,TPM_RSTN*%
X139610000Y-118690000D03*
%TO.P,PB2-P2,12*%
%TO.N,TPM_IRQN*%
X139610000Y-121230000D03*
%TO.P,PB2-P2,13*%
%TO.N,PHY2_RSTN*%
X142150000Y-118690000D03*
%TO.P,PB2-P2,14*%
%TO.N,PHY2_INTRN*%
X142150000Y-121230000D03*
%TO.P,PB2-P2,15*%
%TO.N,PHY1_RSTN*%
X144690000Y-118690000D03*
%TO.P,PB2-P2,16*%
%TO.N,PHY1_INTRN*%
X144690000Y-121230000D03*
%TO.P,PB2-P2,17*%
%TO.N,MDIO*%
X147230000Y-118690000D03*
%TO.P,PB2-P2,18*%
%TO.N,MDC*%
X147230000Y-121230000D03*
%TO.P,PB2-P2,19*%
%TO.N,RMII1_REF_CLK*%
X149770000Y-118690000D03*
%TO.P,PB2-P2,20*%
%TO.N,RMII1_RX_ER*%
X149770000Y-121230000D03*
%TO.P,PB2-P2,21*%
%TO.N,RMII1_CRS_DV*%
X152310000Y-118690000D03*
%TO.P,PB2-P2,22*%
%TO.N,RMII1_RXD1*%
X152310000Y-121230000D03*
%TO.P,PB2-P2,23*%
%TO.N,RMII1_RXD0*%
X154850000Y-118690000D03*
%TO.P,PB2-P2,24*%
%TO.N,RMII1_TX_EN*%
X154850000Y-121230000D03*
%TO.P,PB2-P2,25*%
%TO.N,RMII1_TXD1*%
X157390000Y-118690000D03*
%TO.P,PB2-P2,26*%
%TO.N,RMII1_TXD0*%
X157390000Y-121230000D03*
%TO.P,PB2-P2,27*%
%TO.N,RMII0_REF_CLK*%
X159930000Y-118690000D03*
%TO.P,PB2-P2,28*%
%TO.N,RMII0_RX_ER*%
X159930000Y-121230000D03*
%TO.P,PB2-P2,29*%
%TO.N,RMII0_CRS_DV*%
X162470000Y-118690000D03*
%TO.P,PB2-P2,30*%
%TO.N,RMII0_RXD1*%
X162470000Y-121230000D03*
%TO.P,PB2-P2,31*%
%TO.N,RMII0_RXD0*%
X165010000Y-118690000D03*
%TO.P,PB2-P2,32*%
%TO.N,RMII0_TX_EN*%
X165010000Y-121230000D03*
%TO.P,PB2-P2,33*%
%TO.N,RMII0_TXD1*%
X167550000Y-118690000D03*
%TO.P,PB2-P2,34*%
%TO.N,RMII0_TXD0*%
X167550000Y-121230000D03*
%TO.P,PB2-P2,35*%
%TO.N,+5V*%
X170090000Y-118690000D03*
%TO.P,PB2-P2,36*%
%TO.N,GND*%
X170090000Y-121230000D03*
%TD*%
D17*
%TO.P,Log microSD NON-X,1*%
%TO.N,N/C*%
X122150000Y-105635000D03*
%TO.P,Log microSD NON-X,2*%
%TO.N,SD_CD*%
X122150000Y-106735000D03*
%TO.P,Log microSD NON-X,3*%
%TO.N,SDIO_D2*%
X122150000Y-107835000D03*
%TO.P,Log microSD NON-X,4*%
%TO.N,SDIO_D0*%
X122150000Y-108935000D03*
%TO.P,Log microSD NON-X,5*%
%TO.N,N/C*%
X122150000Y-110035000D03*
%TO.P,Log microSD NON-X,6*%
%TO.N,SDIO_CLK*%
X122150000Y-111135000D03*
%TO.P,Log microSD NON-X,7*%
%TO.N,N/C*%
X122150000Y-112235000D03*
D18*
%TO.P,Log microSD NON-X,8*%
%TO.N,SDIO_CMD*%
X122150000Y-113285000D03*
D19*
%TO.P,Log microSD NON-X,9*%
%TO.N,SD_CD_DAT3*%
X128300000Y-103000000D03*
%TO.P,Log microSD NON-X,10*%
%TO.N,N/C*%
X132000000Y-103000000D03*
D20*
%TO.P,Log microSD NON-X,11*%
X122275000Y-103175000D03*
D21*
X132975000Y-106500000D03*
X132975000Y-112470000D03*
D22*
X122500000Y-114495000D03*
%TD*%
D23*
%TO.P,NOR-FLASH,1*%
%TO.N,N/C*%
X171000000Y-99000000D03*
%TO.P,NOR-FLASH,2*%
%TO.N,SPI1_CLK*%
X169730000Y-99000000D03*
%TO.P,NOR-FLASH,3*%
%TO.N,SPI1_CS_NOR*%
X168460000Y-99000000D03*
%TO.P,NOR-FLASH,4*%
%TO.N,N/C*%
X167190000Y-99000000D03*
%TO.P,NOR-FLASH,5*%
%TO.N,SPI1_MOSI*%
X167190000Y-94050000D03*
%TO.P,NOR-FLASH,6*%
%TO.N,SPI1_MISO*%
X168460000Y-94050000D03*
%TO.P,NOR-FLASH,7*%
%TO.N,N/C*%
X169730000Y-94050000D03*
%TO.P,NOR-FLASH,8*%
X171000000Y-94050000D03*
%TD*%
D24*
%TO.P,TPM,1*%
%TO.N,TPM_RSTN*%
X161390000Y-98060000D03*
D25*
%TO.P,TPM,2*%
%TO.N,N/C*%
X161390000Y-97660000D03*
%TO.P,TPM,3*%
X161390000Y-97260000D03*
%TO.P,TPM,4*%
X161390000Y-96860000D03*
%TO.P,TPM,5*%
X161390000Y-96460000D03*
%TO.P,TPM,6*%
X161390000Y-96060000D03*
%TO.P,TPM,7*%
X161390000Y-95660000D03*
D26*
%TO.P,TPM,8*%
X161390000Y-95260000D03*
D27*
%TO.P,TPM,9*%
X161940000Y-94710000D03*
D28*
%TO.P,TPM,10*%
X162340000Y-94710000D03*
%TO.P,TPM,11*%
X162740000Y-94710000D03*
%TO.P,TPM,12*%
X163140000Y-94710000D03*
%TO.P,TPM,13*%
X163540000Y-94710000D03*
%TO.P,TPM,14*%
X163940000Y-94710000D03*
%TO.P,TPM,15*%
X164340000Y-94710000D03*
D29*
%TO.P,TPM,16*%
X164740000Y-94710000D03*
D30*
%TO.P,TPM,17*%
X165290000Y-95260000D03*
D25*
%TO.P,TPM,18*%
X165290000Y-95660000D03*
%TO.P,TPM,19*%
X165290000Y-96060000D03*
%TO.P,TPM,20*%
X165290000Y-96460000D03*
%TO.P,TPM,21*%
%TO.N,SPI1_MOSI*%
X165290000Y-96860000D03*
%TO.P,TPM,22*%
%TO.N,SPI1_MISO*%
X165290000Y-97260000D03*
%TO.P,TPM,23*%
%TO.N,SPI1_CLK*%
X165290000Y-97660000D03*
D31*
%TO.P,TPM,24*%
%TO.N,TPM_IRQN*%
X165290000Y-98060000D03*
D32*
%TO.P,TPM,25*%
%TO.N,N/C*%
X164740000Y-98610000D03*
D28*
%TO.P,TPM,26*%
X164340000Y-98610000D03*
%TO.P,TPM,27*%
X163940000Y-98610000D03*
%TO.P,TPM,28*%
%TO.N,SPI1_CS_TPM*%
X163540000Y-98610000D03*
%TO.P,TPM,29*%
%TO.N,N/C*%
X163140000Y-98610000D03*
%TO.P,TPM,30*%
X162740000Y-98610000D03*
%TO.P,TPM,31*%
X162340000Y-98610000D03*
D33*
%TO.P,TPM,32*%
X161940000Y-98610000D03*
D34*
%TO.P,TPM,SLB9672*%
X163340000Y-96660000D03*
%TD*%
D35*
%TO.P,WIFI & BT,1*%
%TO.N,N/C*%
X157000000Y-101000000D03*
D36*
%TO.P,WIFI & BT,WL1837MOD*%
X165000000Y-109000000D03*
%TD*%
D10*
%TO.P,PB2-P1,1*%
%TO.N,GND*%
X126910000Y-88770000D03*
%TO.P,PB2-P1,2*%
X126910000Y-91310000D03*
%TO.P,PB2-P1,3*%
%TO.N,I2C0_SDA*%
X129450000Y-88770000D03*
%TO.P,PB2-P1,4*%
%TO.N,I2C0_SCL*%
X129450000Y-91310000D03*
%TO.P,PB2-P1,5*%
%TO.N,PRU_1553_RX_N*%
X131990000Y-88770000D03*
%TO.P,PB2-P1,6*%
%TO.N,PRU_1553_RX_P*%
X131990000Y-91310000D03*
%TO.P,PB2-P1,7*%
%TO.N,PRU_1553_TX_N*%
X134530000Y-88770000D03*
%TO.P,PB2-P1,8*%
%TO.N,PRU_1553_TX_P*%
X134530000Y-91310000D03*
%TO.P,PB2-P1,9*%
%TO.N,RS485_DE*%
X137070000Y-88770000D03*
%TO.P,PB2-P1,10*%
%TO.N,RS485_RX*%
X137070000Y-91310000D03*
%TO.P,PB2-P1,11*%
%TO.N,RS485_TX*%
X139610000Y-88770000D03*
%TO.P,PB2-P1,12*%
%TO.N,CAN_STB*%
X139610000Y-91310000D03*
%TO.P,PB2-P1,13*%
%TO.N,MCAN1_RX*%
X142150000Y-88770000D03*
%TO.P,PB2-P1,14*%
%TO.N,MCAN1_TX*%
X142150000Y-91310000D03*
%TO.P,PB2-P1,15*%
%TO.N,UART_RCRS_RX*%
X144690000Y-88770000D03*
%TO.P,PB2-P1,16*%
%TO.N,UART_RCRS_TX*%
X144690000Y-91310000D03*
%TO.P,PB2-P1,17*%
%TO.N,UART_SIK_RX*%
X147230000Y-88770000D03*
%TO.P,PB2-P1,18*%
%TO.N,UART_SIK_TX*%
X147230000Y-91310000D03*
%TO.P,PB2-P1,19*%
%TO.N,LORA_RESETN*%
X149770000Y-88770000D03*
%TO.P,PB2-P1,20*%
%TO.N,LORA_DIO0*%
X149770000Y-91310000D03*
%TO.P,PB2-P1,21*%
%TO.N,SPI1_CS_TPM*%
X152310000Y-88770000D03*
%TO.P,PB2-P1,22*%
%TO.N,SPI1_CS_NOR*%
X152310000Y-91310000D03*
%TO.P,PB2-P1,23*%
%TO.N,SPI1_MISO*%
X154850000Y-88770000D03*
%TO.P,PB2-P1,24*%
%TO.N,SPI1_MOSI*%
X154850000Y-91310000D03*
%TO.P,PB2-P1,25*%
%TO.N,SPI1_CLK*%
X157390000Y-88770000D03*
%TO.P,PB2-P1,26*%
%TO.N,SPI1_CS_LORA*%
X157390000Y-91310000D03*
%TO.P,PB2-P1,27*%
%TO.N,SDIO_D3*%
X159930000Y-88770000D03*
%TO.P,PB2-P1,28*%
%TO.N,SDIO_D2*%
X159930000Y-91310000D03*
%TO.P,PB2-P1,29*%
%TO.N,SDIO_D1*%
X162470000Y-88770000D03*
%TO.P,PB2-P1,30*%
%TO.N,SDIO_D0*%
X162470000Y-91310000D03*
%TO.P,PB2-P1,31*%
%TO.N,SDIO_CMD*%
X165010000Y-88770000D03*
%TO.P,PB2-P1,32*%
%TO.N,SDIO_CLK*%
X165010000Y-91310000D03*
%TO.P,PB2-P1,33*%
%TO.N,+3V3*%
X167550000Y-88770000D03*
%TO.P,PB2-P1,34*%
X167550000Y-91310000D03*
%TO.P,PB2-P1,35*%
%TO.N,+5V*%
X170090000Y-88770000D03*
%TO.P,PB2-P1,36*%
%TO.N,GND*%
X170090000Y-91310000D03*
%TD*%
D37*
%TO.P,ETH-PHY,1*%
%TO.N,ETH_TXP*%
X131250000Y-101250000D03*
%TO.P,ETH-PHY,2*%
%TO.N,ETH_TXN*%
X130750000Y-101250000D03*
%TO.P,ETH-PHY,3*%
%TO.N,GND*%
X130250000Y-101250000D03*
%TO.P,ETH-PHY,4*%
%TO.N,ETH_RXP*%
X129750000Y-101250000D03*
%TO.P,ETH-PHY,5*%
%TO.N,ETH_RXN*%
X129250000Y-101250000D03*
%TO.P,ETH-PHY,6*%
%TO.N,GND*%
X128750000Y-101250000D03*
%TO.P,ETH-PHY,7*%
%TO.N,VCC2_ETH*%
X128250000Y-101250000D03*
%TO.P,ETH-PHY,8*%
X127750000Y-101250000D03*
%TO.P,ETH-PHY,9*%
X127250000Y-101250000D03*
%TO.P,ETH-PHY,10*%
%TO.N,GND*%
X126750000Y-101250000D03*
%TO.P,ETH-PHY,11*%
X126250000Y-101250000D03*
%TO.P,ETH-PHY,12*%
X125750000Y-101250000D03*
D38*
%TO.P,ETH-PHY,13*%
%TO.N,N/C*%
X132500000Y-100000000D03*
%TO.P,ETH-PHY,14*%
X132500000Y-99500000D03*
%TO.P,ETH-PHY,15*%
X132500000Y-99000000D03*
%TO.P,ETH-PHY,16*%
X132500000Y-98500000D03*
%TO.P,ETH-PHY,17*%
X132500000Y-98000000D03*
%TO.P,ETH-PHY,18*%
%TO.N,MDIO*%
X132500000Y-97500000D03*
%TO.P,ETH-PHY,19*%
%TO.N,MDC*%
X132500000Y-97000000D03*
%TO.P,ETH-PHY,20*%
%TO.N,PHY1_INTRN*%
X132500000Y-96500000D03*
%TO.P,ETH-PHY,21*%
%TO.N,GND2_ETH*%
X132500000Y-96000000D03*
%TO.P,ETH-PHY,22*%
X132500000Y-95500000D03*
%TO.P,ETH-PHY,23*%
%TO.N,N/C*%
X132500000Y-95000000D03*
%TO.P,ETH-PHY,24*%
X132500000Y-94500000D03*
D37*
%TO.P,ETH-PHY,25*%
%TO.N,GND2_ETH*%
X125750000Y-93250000D03*
%TO.P,ETH-PHY,26*%
%TO.N,RMII0_TX_EN*%
X126250000Y-93250000D03*
%TO.P,ETH-PHY,27*%
%TO.N,RMII0_TXD1*%
X126750000Y-93250000D03*
%TO.P,ETH-PHY,28*%
%TO.N,RMII0_TXD0*%
X127250000Y-93250000D03*
%TO.P,ETH-PHY,29*%
%TO.N,RMII0_REF_CLK*%
X127750000Y-93250000D03*
%TO.P,ETH-PHY,30*%
%TO.N,RMII0_RXD0*%
X128250000Y-93250000D03*
%TO.P,ETH-PHY,31*%
%TO.N,RMII0_RXD1*%
X128750000Y-93250000D03*
%TO.P,ETH-PHY,32*%
%TO.N,RMII0_CRS_DV*%
X129250000Y-93250000D03*
%TO.P,ETH-PHY,33*%
%TO.N,RMII0_RX_ER*%
X129750000Y-93250000D03*
%TO.P,ETH-PHY,34*%
%TO.N,GND2_ETH*%
X130250000Y-93250000D03*
%TO.P,ETH-PHY,35*%
%TO.N,PHY1_RSTN*%
X130750000Y-93250000D03*
%TO.P,ETH-PHY,36*%
%TO.N,GND2_ETH*%
X131250000Y-93250000D03*
D38*
%TO.P,ETH-PHY,37*%
%TO.N,N/C*%
X124500000Y-94500000D03*
%TO.P,ETH-PHY,38*%
X124500000Y-95000000D03*
%TO.P,ETH-PHY,39*%
X124500000Y-95500000D03*
%TO.P,ETH-PHY,40*%
%TO.N,VCC2_ETH*%
X124500000Y-96000000D03*
%TO.P,ETH-PHY,41*%
X124500000Y-96500000D03*
%TO.P,ETH-PHY,42*%
%TO.N,N/C*%
X124500000Y-97000000D03*
%TO.P,ETH-PHY,43*%
X124500000Y-97500000D03*
%TO.P,ETH-PHY,44*%
X124500000Y-98000000D03*
%TO.P,ETH-PHY,45*%
X124500000Y-98500000D03*
%TO.P,ETH-PHY,46*%
X124500000Y-99000000D03*
%TO.P,ETH-PHY,47*%
X124500000Y-99500000D03*
%TO.P,ETH-PHY,48*%
X124500000Y-100000000D03*
D39*
%TO.P,ETH-PHY,49*%
%TO.N,GND*%
X128500000Y-97250000D03*
%TD*%
D14*
%TO.P,U-ISO-RX,1*%
%TO.N,VCC2_ETH*%
X146000000Y-94110000D03*
%TO.P,U-ISO-RX,2*%
%TO.N,RMII0_RXD0*%
X146000000Y-95380000D03*
%TO.P,U-ISO-RX,3*%
%TO.N,RMII0_RXD1*%
X146000000Y-96650000D03*
%TO.P,U-ISO-RX,4*%
%TO.N,RMII0_CRS_DV*%
X146000000Y-97920000D03*
%TO.P,U-ISO-RX,5*%
%TO.N,RMII0_RX_ER*%
X146000000Y-99190000D03*
%TO.P,U-ISO-RX,6*%
%TO.N,PHY1_INTRN*%
X146000000Y-100460000D03*
%TO.P,U-ISO-RX,7*%
%TO.N,MDIO*%
X146000000Y-101730000D03*
%TO.P,U-ISO-RX,8*%
%TO.N,GND2_ETH*%
X146000000Y-103000000D03*
%TO.P,U-ISO-RX,9*%
%TO.N,GND*%
X135800000Y-103000000D03*
%TO.P,U-ISO-RX,10*%
%TO.N,MDIO*%
X135800000Y-101730000D03*
%TO.P,U-ISO-RX,11*%
%TO.N,PHY1_INTRN*%
X135800000Y-100460000D03*
%TO.P,U-ISO-RX,12*%
%TO.N,RMII0_RX_ER*%
X135800000Y-99190000D03*
%TO.P,U-ISO-RX,13*%
%TO.N,RMII0_CRS_DV*%
X135800000Y-97920000D03*
%TO.P,U-ISO-RX,14*%
%TO.N,RMII0_RXD1*%
X135800000Y-96650000D03*
%TO.P,U-ISO-RX,15*%
%TO.N,RMII0_RXD0*%
X135800000Y-95380000D03*
%TO.P,U-ISO-RX,16*%
%TO.N,+3V3*%
X135800000Y-94110000D03*
%TD*%
D40*
%TO.P,T-ETH1,1*%
%TO.N,ETH_TXP*%
X150000000Y-94000000D03*
%TO.P,T-ETH1,2*%
%TO.N,ETH_TXN*%
X151000000Y-94000000D03*
%TO.P,T-ETH1,3*%
%TO.N,ETH_RXP*%
X152000000Y-94000000D03*
%TO.P,T-ETH1,4*%
%TO.N,ETH_RXN*%
X153000000Y-94000000D03*
%TO.P,T-ETH1,5*%
%TO.N,ETH_LINE_TXP*%
X150000000Y-99000000D03*
%TO.P,T-ETH1,6*%
%TO.N,ETH_LINE_TXN*%
X151000000Y-99000000D03*
%TO.P,T-ETH1,7*%
%TO.N,ETH_LINE_RXP*%
X152000000Y-99000000D03*
%TO.P,T-ETH1,8*%
%TO.N,ETH_LINE_RXN*%
X153000000Y-99000000D03*
%TD*%
D41*
%TO.P,TVS-CAN,1*%
%TO.N,CAN_H*%
X155500000Y-101850000D03*
%TO.P,TVS-CAN,2*%
%TO.N,GND2_CAN*%
X155500000Y-102500000D03*
%TO.P,TVS-CAN,3*%
%TO.N,CAN_L*%
X155500000Y-103150000D03*
%TO.P,TVS-CAN,4*%
%TO.N,N/C*%
X152900000Y-103150000D03*
%TO.P,TVS-CAN,5*%
%TO.N,VCC2_CAN*%
X152900000Y-102500000D03*
%TO.P,TVS-CAN,6*%
%TO.N,N/C*%
X152900000Y-101850000D03*
%TD*%
%TO.P,TVS-RS485,1*%
%TO.N,RS485_A*%
X151300000Y-101850000D03*
%TO.P,TVS-RS485,2*%
%TO.N,GND2_RS485*%
X151300000Y-102500000D03*
%TO.P,TVS-RS485,3*%
%TO.N,RS485_B*%
X151300000Y-103150000D03*
%TO.P,TVS-RS485,4*%
%TO.N,N/C*%
X148700000Y-103150000D03*
%TO.P,TVS-RS485,5*%
%TO.N,VCC2_RS485*%
X148700000Y-102500000D03*
%TO.P,TVS-RS485,6*%
%TO.N,N/C*%
X148700000Y-101850000D03*
%TD*%
D42*
%TO.P,X2Y-CAN,1*%
%TO.N,GND*%
X128000000Y-102500000D03*
%TO.P,X2Y-CAN,2*%
X128000000Y-104100000D03*
D43*
%TO.P,X2Y-CAN,3*%
X127600000Y-103300000D03*
%TO.P,X2Y-CAN,4*%
%TO.N,GND2_CAN*%
X128400000Y-103300000D03*
%TD*%
D44*
%TO.N,TMESH_P*%
X171000000Y-117000000D03*
X126000000Y-93000000D03*
%TO.N,TMESH_N*%
X126250000Y-93000000D03*
X170750000Y-93000000D03*
%TD*%
D45*
%TO.N,TMESH_N*%
X142250000Y-93000000D02*
X142250000Y-117000000D01*
X133250000Y-93000000D02*
X133250000Y-117000000D01*
X168250000Y-93000000D02*
X168250000Y-117000000D01*
X159750000Y-93000000D02*
X160250000Y-93000000D01*
X132250000Y-93000000D02*
X132250000Y-117000000D01*
X139250000Y-117000000D02*
X139750000Y-117000000D01*
X129250000Y-117000000D02*
X129750000Y-117000000D01*
X162250000Y-93000000D02*
X162250000Y-117000000D01*
X164750000Y-93000000D02*
X165250000Y-93000000D01*
X129250000Y-93000000D02*
X129250000Y-117000000D01*
X170750000Y-117000000D02*
X170750000Y-93000000D01*
X159250000Y-93000000D02*
X159250000Y-117000000D01*
X161250000Y-93000000D02*
X161250000Y-117000000D01*
X127250000Y-93000000D02*
X127250000Y-117000000D01*
X141750000Y-117000000D02*
X141750000Y-93000000D01*
X164250000Y-117000000D02*
X164750000Y-117000000D01*
X148250000Y-117000000D02*
X148750000Y-117000000D01*
X157750000Y-117000000D02*
X157750000Y-93000000D01*
X162750000Y-117000000D02*
X162750000Y-93000000D01*
X161750000Y-117000000D02*
X161750000Y-93000000D01*
X136750000Y-117000000D02*
X136750000Y-93000000D01*
X143750000Y-117000000D02*
X143750000Y-93000000D01*
X149250000Y-117000000D02*
X149750000Y-117000000D01*
X151750000Y-117000000D02*
X151750000Y-93000000D01*
X135250000Y-93000000D02*
X135250000Y-117000000D01*
X126250000Y-117000000D02*
X126750000Y-117000000D01*
X127750000Y-117000000D02*
X127750000Y-93000000D01*
X148250000Y-93000000D02*
X148250000Y-117000000D01*
X142250000Y-117000000D02*
X142750000Y-117000000D01*
X141250000Y-93000000D02*
X141250000Y-117000000D01*
X126750000Y-93000000D02*
X127250000Y-93000000D01*
X145250000Y-117000000D02*
X145750000Y-117000000D01*
X147250000Y-117000000D02*
X147750000Y-117000000D01*
X137250000Y-93000000D02*
X137250000Y-117000000D01*
X156750000Y-117000000D02*
X156750000Y-93000000D01*
X145750000Y-117000000D02*
X145750000Y-93000000D01*
X152250000Y-117000000D02*
X152750000Y-117000000D01*
X136250000Y-93000000D02*
X136250000Y-117000000D01*
X149250000Y-93000000D02*
X149250000Y-117000000D01*
X144750000Y-93000000D02*
X145250000Y-93000000D01*
X156250000Y-93000000D02*
X156250000Y-117000000D01*
X137750000Y-93000000D02*
X138250000Y-93000000D01*
X128750000Y-117000000D02*
X128750000Y-93000000D01*
X160750000Y-93000000D02*
X161250000Y-93000000D01*
X162250000Y-117000000D02*
X162750000Y-117000000D01*
X130750000Y-93000000D02*
X131250000Y-93000000D01*
X163750000Y-93000000D02*
X164250000Y-93000000D01*
X168750000Y-117000000D02*
X168750000Y-93000000D01*
X163750000Y-117000000D02*
X163750000Y-93000000D01*
X158750000Y-93000000D02*
X159250000Y-93000000D01*
X153750000Y-117000000D02*
X153750000Y-93000000D01*
X149750000Y-117000000D02*
X149750000Y-93000000D01*
X131250000Y-117000000D02*
X131750000Y-117000000D01*
X166750000Y-93000000D02*
X167250000Y-93000000D01*
X131750000Y-117000000D02*
X131750000Y-93000000D01*
X135750000Y-93000000D02*
X136250000Y-93000000D01*
X138750000Y-117000000D02*
X138750000Y-93000000D01*
X161750000Y-93000000D02*
X162250000Y-93000000D01*
X155250000Y-117000000D02*
X155750000Y-117000000D01*
X152750000Y-93000000D02*
X153250000Y-93000000D01*
X143750000Y-93000000D02*
X144250000Y-93000000D01*
X157250000Y-93000000D02*
X157250000Y-117000000D01*
X149750000Y-93000000D02*
X150250000Y-93000000D01*
X140750000Y-93000000D02*
X141250000Y-93000000D01*
X157250000Y-117000000D02*
X157750000Y-117000000D01*
X167750000Y-117000000D02*
X167750000Y-93000000D01*
X142750000Y-93000000D02*
X143250000Y-93000000D01*
X138250000Y-93000000D02*
X138250000Y-117000000D01*
X151750000Y-93000000D02*
X152250000Y-93000000D01*
X145750000Y-93000000D02*
X146250000Y-93000000D01*
X130750000Y-117000000D02*
X130750000Y-93000000D01*
X168750000Y-93000000D02*
X169250000Y-93000000D01*
X134750000Y-117000000D02*
X134750000Y-93000000D01*
X148750000Y-117000000D02*
X148750000Y-93000000D01*
X153750000Y-93000000D02*
X154250000Y-93000000D01*
X132750000Y-117000000D02*
X132750000Y-93000000D01*
X168250000Y-117000000D02*
X168750000Y-117000000D01*
X147250000Y-93000000D02*
X147250000Y-117000000D01*
X154750000Y-93000000D02*
X155250000Y-93000000D01*
X146750000Y-93000000D02*
X147250000Y-93000000D01*
X169750000Y-117000000D02*
X169750000Y-93000000D01*
X139750000Y-93000000D02*
X140250000Y-93000000D01*
X158250000Y-117000000D02*
X158750000Y-117000000D01*
X137250000Y-117000000D02*
X137750000Y-117000000D01*
X137750000Y-117000000D02*
X137750000Y-93000000D01*
X146250000Y-93000000D02*
X146250000Y-117000000D01*
X151250000Y-117000000D02*
X151750000Y-117000000D01*
X127750000Y-93000000D02*
X128250000Y-93000000D01*
X169750000Y-93000000D02*
X170250000Y-93000000D01*
X126250000Y-93000000D02*
X126250000Y-117000000D01*
X129750000Y-93000000D02*
X130250000Y-93000000D01*
X166750000Y-117000000D02*
X166750000Y-93000000D01*
X150250000Y-93000000D02*
X150250000Y-117000000D01*
X166250000Y-117000000D02*
X166750000Y-117000000D01*
X153250000Y-117000000D02*
X153750000Y-117000000D01*
X141750000Y-93000000D02*
X142250000Y-93000000D01*
X136750000Y-93000000D02*
X137250000Y-93000000D01*
X165250000Y-117000000D02*
X165750000Y-117000000D01*
X155750000Y-117000000D02*
X155750000Y-93000000D01*
X150250000Y-117000000D02*
X150750000Y-117000000D01*
X126750000Y-117000000D02*
X126750000Y-93000000D01*
X131250000Y-93000000D02*
X131250000Y-117000000D01*
X134250000Y-117000000D02*
X134750000Y-117000000D01*
X154250000Y-117000000D02*
X154750000Y-117000000D01*
X169250000Y-117000000D02*
X169750000Y-117000000D01*
X132250000Y-117000000D02*
X132750000Y-117000000D01*
X164750000Y-117000000D02*
X164750000Y-93000000D01*
X169250000Y-93000000D02*
X169250000Y-117000000D01*
X152250000Y-93000000D02*
X152250000Y-117000000D01*
X128250000Y-117000000D02*
X128750000Y-117000000D01*
X161250000Y-117000000D02*
X161750000Y-117000000D01*
X165750000Y-93000000D02*
X166250000Y-93000000D01*
X167250000Y-117000000D02*
X167750000Y-117000000D01*
X143250000Y-93000000D02*
X143250000Y-117000000D01*
X135750000Y-117000000D02*
X135750000Y-93000000D01*
X135250000Y-117000000D02*
X135750000Y-117000000D01*
X167750000Y-93000000D02*
X168250000Y-93000000D01*
X163250000Y-93000000D02*
X163250000Y-117000000D01*
X141250000Y-117000000D02*
X141750000Y-117000000D01*
X151250000Y-93000000D02*
X151250000Y-117000000D01*
X129750000Y-117000000D02*
X129750000Y-93000000D01*
X154750000Y-117000000D02*
X154750000Y-93000000D01*
X139250000Y-93000000D02*
X139250000Y-117000000D01*
X146250000Y-117000000D02*
X146750000Y-117000000D01*
X130250000Y-117000000D02*
X130750000Y-117000000D01*
X133750000Y-117000000D02*
X133750000Y-93000000D01*
X155750000Y-93000000D02*
X156250000Y-93000000D01*
X133250000Y-117000000D02*
X133750000Y-117000000D01*
X159250000Y-117000000D02*
X159750000Y-117000000D01*
X170250000Y-93000000D02*
X170250000Y-117000000D01*
X163250000Y-117000000D02*
X163750000Y-117000000D01*
X144250000Y-117000000D02*
X144750000Y-117000000D01*
X145250000Y-93000000D02*
X145250000Y-117000000D01*
X138750000Y-93000000D02*
X139250000Y-93000000D01*
X147750000Y-117000000D02*
X147750000Y-93000000D01*
X128750000Y-93000000D02*
X129250000Y-93000000D01*
X160250000Y-117000000D02*
X160750000Y-117000000D01*
X144250000Y-93000000D02*
X144250000Y-117000000D01*
X160750000Y-117000000D02*
X160750000Y-93000000D01*
X138250000Y-117000000D02*
X138750000Y-117000000D01*
X152750000Y-117000000D02*
X152750000Y-93000000D01*
X166250000Y-93000000D02*
X166250000Y-117000000D01*
X140750000Y-117000000D02*
X140750000Y-93000000D01*
X142750000Y-117000000D02*
X142750000Y-93000000D01*
X164250000Y-93000000D02*
X164250000Y-117000000D01*
X158750000Y-117000000D02*
X158750000Y-93000000D01*
X139750000Y-117000000D02*
X139750000Y-93000000D01*
X162750000Y-93000000D02*
X163250000Y-93000000D01*
X140250000Y-93000000D02*
X140250000Y-117000000D01*
X144750000Y-117000000D02*
X144750000Y-93000000D01*
X167250000Y-93000000D02*
X167250000Y-117000000D01*
X158250000Y-93000000D02*
X158250000Y-117000000D01*
X131750000Y-93000000D02*
X132250000Y-93000000D01*
X140250000Y-117000000D02*
X140750000Y-117000000D01*
X136250000Y-117000000D02*
X136750000Y-117000000D01*
X147750000Y-93000000D02*
X148250000Y-93000000D01*
X165750000Y-117000000D02*
X165750000Y-93000000D01*
X146750000Y-117000000D02*
X146750000Y-93000000D01*
X150750000Y-93000000D02*
X151250000Y-93000000D01*
X154250000Y-93000000D02*
X154250000Y-117000000D01*
X132750000Y-93000000D02*
X133250000Y-93000000D01*
X143250000Y-117000000D02*
X143750000Y-117000000D01*
X160250000Y-93000000D02*
X160250000Y-117000000D01*
X156250000Y-117000000D02*
X156750000Y-117000000D01*
X130250000Y-93000000D02*
X130250000Y-117000000D01*
X159750000Y-117000000D02*
X159750000Y-93000000D01*
X134750000Y-93000000D02*
X135250000Y-93000000D01*
X153250000Y-93000000D02*
X153250000Y-117000000D01*
X155250000Y-93000000D02*
X155250000Y-117000000D01*
X148750000Y-93000000D02*
X149250000Y-93000000D01*
X128250000Y-93000000D02*
X128250000Y-117000000D01*
X170250000Y-117000000D02*
X170750000Y-117000000D01*
X127250000Y-117000000D02*
X127750000Y-117000000D01*
X134250000Y-93000000D02*
X134250000Y-117000000D01*
X156750000Y-93000000D02*
X157250000Y-93000000D01*
X133750000Y-93000000D02*
X134250000Y-93000000D01*
X150750000Y-117000000D02*
X150750000Y-93000000D01*
X157750000Y-93000000D02*
X158250000Y-93000000D01*
X165250000Y-93000000D02*
X165250000Y-117000000D01*
%TD*%
M02*
