%TF.GenerationSoftware,KiCad,Pcbnew,9.0.2+dfsg-1*%
%TF.CreationDate,2026-07-18T19:34:49-04:00*%
%TF.ProjectId,Zo_,5a6feb2e-6b69-4636-9164-5f7063625858,A-STUB*%
%TF.SameCoordinates,Original*%
%TF.FileFunction,Soldermask,Bot*%
%TF.FilePolarity,Negative*%
%FSLAX46Y46*%
G04 Gerber Fmt 4.6, Leading zero omitted, Abs format (unit mm)*
G04 Created by KiCad (PCBNEW 9.0.2+dfsg-1) date 2026-07-18 19:34:49*
%MOMM*%
%LPD*%
G01*
G04 APERTURE LIST*
G04 Aperture macros list*
%AMRoundRect*
0 Rectangle with rounded corners*
0 $1 Rounding radius*
0 $2 $3 $4 $5 $6 $7 $8 $9 X,Y pos of 4 corners*
0 Add a 4 corners polygon primitive as box body*
4,1,4,$2,$3,$4,$5,$6,$7,$8,$9,$2,$3,0*
0 Add four circle primitives for the rounded corners*
1,1,$1+$1,$2,$3*
1,1,$1+$1,$4,$5*
1,1,$1+$1,$6,$7*
1,1,$1+$1,$8,$9*
0 Add four rect primitives between the rounded corners*
20,1,$1+$1,$2,$3,$4,$5,0*
20,1,$1+$1,$4,$5,$6,$7,0*
20,1,$1+$1,$6,$7,$8,$9,0*
20,1,$1+$1,$8,$9,$2,$3,0*%
%AMFreePoly0*
4,1,14,0.385355,0.085355,0.400000,0.050000,0.400000,0.020711,0.385355,-0.014644,0.314644,-0.085355,0.279289,-0.100000,-0.350000,-0.100000,-0.385355,-0.085355,-0.400000,-0.050000,-0.400000,0.050000,-0.385355,0.085355,-0.350000,0.100000,0.350000,0.100000,0.385355,0.085355,0.385355,0.085355,$1*%
%AMFreePoly1*
4,1,14,0.314644,0.085355,0.385355,0.014644,0.400000,-0.020711,0.400000,-0.050000,0.385355,-0.085355,0.350000,-0.100000,-0.350000,-0.100000,-0.385355,-0.085355,-0.400000,-0.050000,-0.400000,0.050000,-0.385355,0.085355,-0.350000,0.100000,0.279289,0.100000,0.314644,0.085355,0.314644,0.085355,$1*%
%AMFreePoly2*
4,1,14,0.085355,0.385355,0.100000,0.350000,0.100000,-0.350000,0.085355,-0.385355,0.050000,-0.400000,0.020711,-0.400000,-0.014644,-0.385355,-0.085355,-0.314644,-0.100000,-0.279289,-0.100000,0.350000,-0.085355,0.385355,-0.050000,0.400000,0.050000,0.400000,0.085355,0.385355,0.085355,0.385355,$1*%
%AMFreePoly3*
4,1,14,0.085355,0.385355,0.100000,0.350000,0.100000,-0.279289,0.085355,-0.314644,0.014644,-0.385355,-0.020711,-0.400000,-0.050000,-0.400000,-0.085355,-0.385355,-0.100000,-0.350000,-0.100000,0.350000,-0.085355,0.385355,-0.050000,0.400000,0.050000,0.400000,0.085355,0.385355,0.085355,0.385355,$1*%
%AMFreePoly4*
4,1,14,0.385355,0.085355,0.400000,0.050000,0.400000,-0.050000,0.385355,-0.085355,0.350000,-0.100000,-0.350000,-0.100000,-0.385355,-0.085355,-0.400000,-0.050000,-0.400000,-0.020711,-0.385355,0.014644,-0.314644,0.085355,-0.279289,0.100000,0.350000,0.100000,0.385355,0.085355,0.385355,0.085355,$1*%
%AMFreePoly5*
4,1,14,0.385355,0.085355,0.400000,0.050000,0.400000,-0.050000,0.385355,-0.085355,0.350000,-0.100000,-0.279289,-0.100000,-0.314644,-0.085355,-0.385355,-0.014644,-0.400000,0.020711,-0.400000,0.050000,-0.385355,0.085355,-0.350000,0.100000,0.350000,0.100000,0.385355,0.085355,0.385355,0.085355,$1*%
%AMFreePoly6*
4,1,14,0.014644,0.385355,0.085355,0.314644,0.100000,0.279289,0.100000,-0.350000,0.085355,-0.385355,0.050000,-0.400000,-0.050000,-0.400000,-0.085355,-0.385355,-0.100000,-0.350000,-0.100000,0.350000,-0.085355,0.385355,-0.050000,0.400000,-0.020711,0.400000,0.014644,0.385355,0.014644,0.385355,$1*%
%AMFreePoly7*
4,1,14,0.085355,0.385355,0.100000,0.350000,0.100000,-0.350000,0.085355,-0.385355,0.050000,-0.400000,-0.050000,-0.400000,-0.085355,-0.385355,-0.100000,-0.350000,-0.100000,0.279289,-0.085355,0.314644,-0.014644,0.385355,0.020711,0.400000,0.050000,0.400000,0.085355,0.385355,0.085355,0.385355,$1*%
G04 Aperture macros list end*
%ADD10C,1.700000*%
%ADD11R,1.700000X1.700000*%
%ADD12C,2.700000*%
%ADD13R,1.500000X1.500000*%
%ADD14C,1.500000*%
%ADD15RoundRect,0.150000X0.825000X0.150000X-0.825000X0.150000X-0.825000X-0.150000X0.825000X-0.150000X0*%
%ADD16R,0.450000X1.050000*%
%ADD17R,5.000000X3.400000*%
%ADD18R,1.100000X0.850000*%
%ADD19R,1.100000X0.750000*%
%ADD20R,1.000000X1.200000*%
%ADD21R,1.350000X1.550000*%
%ADD22R,1.350000X1.900000*%
%ADD23R,1.800000X1.170000*%
%ADD24RoundRect,0.150000X0.150000X-0.825000X0.150000X0.825000X-0.150000X0.825000X-0.150000X-0.825000X0*%
%ADD25FreePoly0,0.000000*%
%ADD26RoundRect,0.050000X-0.350000X-0.050000X0.350000X-0.050000X0.350000X0.050000X-0.350000X0.050000X0*%
%ADD27FreePoly1,0.000000*%
%ADD28FreePoly2,0.000000*%
%ADD29RoundRect,0.050000X-0.050000X-0.350000X0.050000X-0.350000X0.050000X0.350000X-0.050000X0.350000X0*%
%ADD30FreePoly3,0.000000*%
%ADD31FreePoly4,0.000000*%
%ADD32FreePoly5,0.000000*%
%ADD33FreePoly6,0.000000*%
%ADD34FreePoly7,0.000000*%
%ADD35R,2.650000X2.650000*%
%ADD36R,0.500000X0.500000*%
%ADD37R,14.000000X14.000000*%
%ADD38RoundRect,0.075000X0.075000X0.250000X-0.075000X0.250000X-0.075000X-0.250000X0.075000X-0.250000X0*%
%ADD39RoundRect,0.075000X0.250000X0.075000X-0.250000X0.075000X-0.250000X-0.075000X0.250000X-0.075000X0*%
%ADD40RoundRect,0.000000X2.825000X2.825000X-2.825000X2.825000X-2.825000X-2.825000X2.825000X-2.825000X0*%
%ADD41RoundRect,0.150000X-0.150000X0.450000X-0.150000X-0.450000X0.150000X-0.450000X0.150000X0.450000X0*%
%ADD42RoundRect,0.137500X0.312500X0.137500X-0.312500X0.137500X-0.312500X-0.137500X0.312500X-0.137500X0*%
%ADD43RoundRect,0.137500X-0.137500X0.162500X-0.137500X-0.162500X0.137500X-0.162500X0.137500X0.162500X0*%
%ADD44RoundRect,0.100000X-0.100000X0.175000X-0.100000X-0.175000X0.100000X-0.175000X0.100000X0.175000X0*%
G04 APERTURE END LIST*
D10*
%TO.C,PB2-P2-TOP*%
X126910000Y-121230000D03*
X126910000Y-118690000D03*
X129450000Y-121230000D03*
X129450000Y-118690000D03*
X131990000Y-121230000D03*
X131990000Y-118690000D03*
X134530000Y-121230000D03*
X134530000Y-118690000D03*
X137070000Y-121230000D03*
X137070000Y-118690000D03*
X139610000Y-121230000D03*
X139610000Y-118690000D03*
X142150000Y-121230000D03*
X142150000Y-118690000D03*
X144690000Y-121230000D03*
X144690000Y-118690000D03*
X147230000Y-121230000D03*
X147230000Y-118690000D03*
X149770000Y-121230000D03*
X149770000Y-118690000D03*
X152310000Y-121230000D03*
X152310000Y-118690000D03*
X154850000Y-121230000D03*
X154850000Y-118690000D03*
X157390000Y-121230000D03*
X157390000Y-118690000D03*
X159930000Y-121230000D03*
X159930000Y-118690000D03*
X162470000Y-121230000D03*
X162470000Y-118690000D03*
X165010000Y-121230000D03*
X165010000Y-118690000D03*
X167550000Y-121230000D03*
X167550000Y-118690000D03*
X170090000Y-121230000D03*
X170090000Y-118690000D03*
%TD*%
%TO.C,PB2-P1-TOP*%
X126910000Y-91310000D03*
X126910000Y-88770000D03*
X129450000Y-91310000D03*
X129450000Y-88770000D03*
X131990000Y-91310000D03*
X131990000Y-88770000D03*
X134530000Y-91310000D03*
X134530000Y-88770000D03*
X137070000Y-91310000D03*
X137070000Y-88770000D03*
X139610000Y-91310000D03*
X139610000Y-88770000D03*
X142150000Y-91310000D03*
X142150000Y-88770000D03*
X144690000Y-91310000D03*
X144690000Y-88770000D03*
X147230000Y-91310000D03*
X147230000Y-88770000D03*
X149770000Y-91310000D03*
X149770000Y-88770000D03*
X152310000Y-91310000D03*
X152310000Y-88770000D03*
X154850000Y-91310000D03*
X154850000Y-88770000D03*
X157390000Y-91310000D03*
X157390000Y-88770000D03*
X159930000Y-91310000D03*
X159930000Y-88770000D03*
X162470000Y-91310000D03*
X162470000Y-88770000D03*
X165010000Y-91310000D03*
X165010000Y-88770000D03*
X167550000Y-91310000D03*
X167550000Y-88770000D03*
X170090000Y-91310000D03*
X170090000Y-88770000D03*
%TD*%
D11*
%TO.C,NAV-LIGHT PWM*%
X174000000Y-95460000D03*
D10*
X174000000Y-98000000D03*
X174000000Y-100540000D03*
X174000000Y-103080000D03*
X174000000Y-105620000D03*
X174000000Y-108160000D03*
X174000000Y-110700000D03*
X174000000Y-113240000D03*
%TD*%
D12*
%TO.C,*%
X173000000Y-119500000D03*
%TD*%
%TO.C,*%
X173000000Y-90500000D03*
%TD*%
%TO.C,*%
X124000000Y-119500000D03*
%TD*%
D13*
%TO.C,PWR-IN*%
X123000000Y-116000000D03*
D14*
X125500000Y-116000000D03*
X128000000Y-116000000D03*
X130500000Y-116000000D03*
%TD*%
D12*
%TO.C,*%
X124000000Y-90500000D03*
%TD*%
D15*
%TO.C,RS485*%
X155390000Y-116000000D03*
X154120000Y-116000000D03*
X152850000Y-116000000D03*
X151580000Y-116000000D03*
X150310000Y-116000000D03*
X149040000Y-116000000D03*
X147770000Y-116000000D03*
X146500000Y-116000000D03*
X145230000Y-116000000D03*
X143960000Y-116000000D03*
X143960000Y-105800000D03*
X145230000Y-105800000D03*
X146500000Y-105800000D03*
X147770000Y-105800000D03*
X149040000Y-105800000D03*
X150310000Y-105800000D03*
X151580000Y-105800000D03*
X152850000Y-105800000D03*
X154120000Y-105800000D03*
X155390000Y-105800000D03*
%TD*%
D16*
%TO.C,WINCH DRV*%
X159400000Y-99141600D03*
X158750000Y-99141600D03*
X158100000Y-99141600D03*
X157450000Y-99141600D03*
X156800000Y-99141600D03*
X156150000Y-99141600D03*
X155500000Y-99141600D03*
X154850000Y-99141600D03*
X154850000Y-93591600D03*
X155500000Y-93591600D03*
X156150000Y-93591600D03*
X156800000Y-93591600D03*
X157450000Y-93591600D03*
X158100000Y-93591600D03*
X158750000Y-93591600D03*
X159400000Y-93591600D03*
D17*
X157125000Y-96366600D03*
%TD*%
D10*
%TO.C,PB2-P2*%
X126910000Y-118690000D03*
X126910000Y-121230000D03*
X129450000Y-118690000D03*
X129450000Y-121230000D03*
X131990000Y-118690000D03*
X131990000Y-121230000D03*
X134530000Y-118690000D03*
X134530000Y-121230000D03*
X137070000Y-118690000D03*
X137070000Y-121230000D03*
X139610000Y-118690000D03*
X139610000Y-121230000D03*
X142150000Y-118690000D03*
X142150000Y-121230000D03*
X144690000Y-118690000D03*
X144690000Y-121230000D03*
X147230000Y-118690000D03*
X147230000Y-121230000D03*
X149770000Y-118690000D03*
X149770000Y-121230000D03*
X152310000Y-118690000D03*
X152310000Y-121230000D03*
X154850000Y-118690000D03*
X154850000Y-121230000D03*
X157390000Y-118690000D03*
X157390000Y-121230000D03*
X159930000Y-118690000D03*
X159930000Y-121230000D03*
X162470000Y-118690000D03*
X162470000Y-121230000D03*
X165010000Y-118690000D03*
X165010000Y-121230000D03*
X167550000Y-118690000D03*
X167550000Y-121230000D03*
X170090000Y-118690000D03*
X170090000Y-121230000D03*
%TD*%
D18*
%TO.C,Log microSD NON-X*%
X122150000Y-105635000D03*
X122150000Y-106735000D03*
X122150000Y-107835000D03*
X122150000Y-108935000D03*
X122150000Y-110035000D03*
X122150000Y-111135000D03*
X122150000Y-112235000D03*
D19*
X122150000Y-113285000D03*
D20*
X128300000Y-103000000D03*
X132000000Y-103000000D03*
D21*
X122275000Y-103175000D03*
D22*
X132975000Y-106500000D03*
X132975000Y-112470000D03*
D23*
X122500000Y-114495000D03*
%TD*%
D24*
%TO.C,NOR-FLASH*%
X171000000Y-99000000D03*
X169730000Y-99000000D03*
X168460000Y-99000000D03*
X167190000Y-99000000D03*
X167190000Y-94050000D03*
X168460000Y-94050000D03*
X169730000Y-94050000D03*
X171000000Y-94050000D03*
%TD*%
D25*
%TO.C,TPM*%
X161390000Y-98060000D03*
D26*
X161390000Y-97660000D03*
X161390000Y-97260000D03*
X161390000Y-96860000D03*
X161390000Y-96460000D03*
X161390000Y-96060000D03*
X161390000Y-95660000D03*
D27*
X161390000Y-95260000D03*
D28*
X161940000Y-94710000D03*
D29*
X162340000Y-94710000D03*
X162740000Y-94710000D03*
X163140000Y-94710000D03*
X163540000Y-94710000D03*
X163940000Y-94710000D03*
X164340000Y-94710000D03*
D30*
X164740000Y-94710000D03*
D31*
X165290000Y-95260000D03*
D26*
X165290000Y-95660000D03*
X165290000Y-96060000D03*
X165290000Y-96460000D03*
X165290000Y-96860000D03*
X165290000Y-97260000D03*
X165290000Y-97660000D03*
D32*
X165290000Y-98060000D03*
D33*
X164740000Y-98610000D03*
D29*
X164340000Y-98610000D03*
X163940000Y-98610000D03*
X163540000Y-98610000D03*
X163140000Y-98610000D03*
X162740000Y-98610000D03*
X162340000Y-98610000D03*
D34*
X161940000Y-98610000D03*
D35*
X163340000Y-96660000D03*
%TD*%
D36*
%TO.C,WIFI & BT*%
X157000000Y-101000000D03*
D37*
X165000000Y-109000000D03*
%TD*%
D10*
%TO.C,PB2-P1*%
X126910000Y-88770000D03*
X126910000Y-91310000D03*
X129450000Y-88770000D03*
X129450000Y-91310000D03*
X131990000Y-88770000D03*
X131990000Y-91310000D03*
X134530000Y-88770000D03*
X134530000Y-91310000D03*
X137070000Y-88770000D03*
X137070000Y-91310000D03*
X139610000Y-88770000D03*
X139610000Y-91310000D03*
X142150000Y-88770000D03*
X142150000Y-91310000D03*
X144690000Y-88770000D03*
X144690000Y-91310000D03*
X147230000Y-88770000D03*
X147230000Y-91310000D03*
X149770000Y-88770000D03*
X149770000Y-91310000D03*
X152310000Y-88770000D03*
X152310000Y-91310000D03*
X154850000Y-88770000D03*
X154850000Y-91310000D03*
X157390000Y-88770000D03*
X157390000Y-91310000D03*
X159930000Y-88770000D03*
X159930000Y-91310000D03*
X162470000Y-88770000D03*
X162470000Y-91310000D03*
X165010000Y-88770000D03*
X165010000Y-91310000D03*
X167550000Y-88770000D03*
X167550000Y-91310000D03*
X170090000Y-88770000D03*
X170090000Y-91310000D03*
%TD*%
D38*
%TO.C,ETH-PHY*%
X131250000Y-101250000D03*
X130750000Y-101250000D03*
X130250000Y-101250000D03*
X129750000Y-101250000D03*
X129250000Y-101250000D03*
X128750000Y-101250000D03*
X128250000Y-101250000D03*
X127750000Y-101250000D03*
X127250000Y-101250000D03*
X126750000Y-101250000D03*
X126250000Y-101250000D03*
X125750000Y-101250000D03*
D39*
X132500000Y-100000000D03*
X132500000Y-99500000D03*
X132500000Y-99000000D03*
X132500000Y-98500000D03*
X132500000Y-98000000D03*
X132500000Y-97500000D03*
X132500000Y-97000000D03*
X132500000Y-96500000D03*
X132500000Y-96000000D03*
X132500000Y-95500000D03*
X132500000Y-95000000D03*
X132500000Y-94500000D03*
D38*
X125750000Y-93250000D03*
X126250000Y-93250000D03*
X126750000Y-93250000D03*
X127250000Y-93250000D03*
X127750000Y-93250000D03*
X128250000Y-93250000D03*
X128750000Y-93250000D03*
X129250000Y-93250000D03*
X129750000Y-93250000D03*
X130250000Y-93250000D03*
X130750000Y-93250000D03*
X131250000Y-93250000D03*
D39*
X124500000Y-94500000D03*
X124500000Y-95000000D03*
X124500000Y-95500000D03*
X124500000Y-96000000D03*
X124500000Y-96500000D03*
X124500000Y-97000000D03*
X124500000Y-97500000D03*
X124500000Y-98000000D03*
X124500000Y-98500000D03*
X124500000Y-99000000D03*
X124500000Y-99500000D03*
X124500000Y-100000000D03*
D40*
X128500000Y-97250000D03*
%TD*%
D15*
%TO.C,U-ISO-RX*%
X146000000Y-94110000D03*
X146000000Y-95380000D03*
X146000000Y-96650000D03*
X146000000Y-97920000D03*
X146000000Y-99190000D03*
X146000000Y-100460000D03*
X146000000Y-101730000D03*
X146000000Y-103000000D03*
X135800000Y-103000000D03*
X135800000Y-101730000D03*
X135800000Y-100460000D03*
X135800000Y-99190000D03*
X135800000Y-97920000D03*
X135800000Y-96650000D03*
X135800000Y-95380000D03*
X135800000Y-94110000D03*
%TD*%
D41*
%TO.C,T-ETH1*%
X150000000Y-94000000D03*
X151000000Y-94000000D03*
X152000000Y-94000000D03*
X153000000Y-94000000D03*
X150000000Y-99000000D03*
X151000000Y-99000000D03*
X152000000Y-99000000D03*
X153000000Y-99000000D03*
%TD*%
D42*
%TO.C,TVS-CAN*%
X155500000Y-101850000D03*
X155500000Y-102500000D03*
X155500000Y-103150000D03*
X152900000Y-103150000D03*
X152900000Y-102500000D03*
X152900000Y-101850000D03*
%TD*%
%TO.C,TVS-RS485*%
X151300000Y-101850000D03*
X151300000Y-102500000D03*
X151300000Y-103150000D03*
X148700000Y-103150000D03*
X148700000Y-102500000D03*
X148700000Y-101850000D03*
%TD*%
D43*
%TO.C,X2Y-CAN*%
X128000000Y-102500000D03*
X128000000Y-104100000D03*
D44*
X127600000Y-103300000D03*
X128400000Y-103300000D03*
%TD*%
M02*
