%TF.GenerationSoftware,KiCad,Pcbnew,9.0.2+dfsg-1*%
%TF.CreationDate,2026-07-18T19:34:49-04:00*%
%TF.ProjectId,Zo_,5a6feb2e-6b69-4636-9164-5f7063625858,A-STUB*%
%TF.SameCoordinates,Original*%
%TF.FileFunction,AssemblyDrawing,Bot*%
%FSLAX46Y46*%
G04 Gerber Fmt 4.6, Leading zero omitted, Abs format (unit mm)*
G04 Created by KiCad (PCBNEW 9.0.2+dfsg-1) date 2026-07-18 19:34:49*
%MOMM*%
%LPD*%
G01*
G04 APERTURE LIST*
%ADD10C,0.150000*%
%ADD11C,0.125000*%
%ADD12C,0.100000*%
G04 APERTURE END LIST*
D10*
X199485713Y-113499726D02*
X199485713Y-112229726D01*
X199485713Y-112229726D02*
X199001903Y-112229726D01*
X199001903Y-112229726D02*
X198880951Y-112290202D01*
X198880951Y-112290202D02*
X198820474Y-112350678D01*
X198820474Y-112350678D02*
X198759998Y-112471630D01*
X198759998Y-112471630D02*
X198759998Y-112653059D01*
X198759998Y-112653059D02*
X198820474Y-112774011D01*
X198820474Y-112774011D02*
X198880951Y-112834488D01*
X198880951Y-112834488D02*
X199001903Y-112894964D01*
X199001903Y-112894964D02*
X199485713Y-112894964D01*
X198034284Y-113499726D02*
X198155236Y-113439250D01*
X198155236Y-113439250D02*
X198215713Y-113378773D01*
X198215713Y-113378773D02*
X198276189Y-113257821D01*
X198276189Y-113257821D02*
X198276189Y-112894964D01*
X198276189Y-112894964D02*
X198215713Y-112774011D01*
X198215713Y-112774011D02*
X198155236Y-112713535D01*
X198155236Y-112713535D02*
X198034284Y-112653059D01*
X198034284Y-112653059D02*
X197852855Y-112653059D01*
X197852855Y-112653059D02*
X197731903Y-112713535D01*
X197731903Y-112713535D02*
X197671427Y-112774011D01*
X197671427Y-112774011D02*
X197610951Y-112894964D01*
X197610951Y-112894964D02*
X197610951Y-113257821D01*
X197610951Y-113257821D02*
X197671427Y-113378773D01*
X197671427Y-113378773D02*
X197731903Y-113439250D01*
X197731903Y-113439250D02*
X197852855Y-113499726D01*
X197852855Y-113499726D02*
X198034284Y-113499726D01*
X196522379Y-113439250D02*
X196643331Y-113499726D01*
X196643331Y-113499726D02*
X196885236Y-113499726D01*
X196885236Y-113499726D02*
X197006188Y-113439250D01*
X197006188Y-113439250D02*
X197066665Y-113378773D01*
X197066665Y-113378773D02*
X197127141Y-113257821D01*
X197127141Y-113257821D02*
X197127141Y-112894964D01*
X197127141Y-112894964D02*
X197066665Y-112774011D01*
X197066665Y-112774011D02*
X197006188Y-112713535D01*
X197006188Y-112713535D02*
X196885236Y-112653059D01*
X196885236Y-112653059D02*
X196643331Y-112653059D01*
X196643331Y-112653059D02*
X196522379Y-112713535D01*
X195978094Y-113499726D02*
X195978094Y-112229726D01*
X195857141Y-113015916D02*
X195494284Y-113499726D01*
X195494284Y-112653059D02*
X195978094Y-113136869D01*
X194466189Y-113439250D02*
X194587141Y-113499726D01*
X194587141Y-113499726D02*
X194829046Y-113499726D01*
X194829046Y-113499726D02*
X194949999Y-113439250D01*
X194949999Y-113439250D02*
X195010475Y-113318297D01*
X195010475Y-113318297D02*
X195010475Y-112834488D01*
X195010475Y-112834488D02*
X194949999Y-112713535D01*
X194949999Y-112713535D02*
X194829046Y-112653059D01*
X194829046Y-112653059D02*
X194587141Y-112653059D01*
X194587141Y-112653059D02*
X194466189Y-112713535D01*
X194466189Y-112713535D02*
X194405713Y-112834488D01*
X194405713Y-112834488D02*
X194405713Y-112955440D01*
X194405713Y-112955440D02*
X195010475Y-113076392D01*
X194042856Y-112653059D02*
X193559047Y-112653059D01*
X193861428Y-112229726D02*
X193861428Y-113318297D01*
X193861428Y-113318297D02*
X193800951Y-113439250D01*
X193800951Y-113439250D02*
X193679999Y-113499726D01*
X193679999Y-113499726D02*
X193559047Y-113499726D01*
X192712380Y-112834488D02*
X192530952Y-112894964D01*
X192530952Y-112894964D02*
X192470475Y-112955440D01*
X192470475Y-112955440D02*
X192409999Y-113076392D01*
X192409999Y-113076392D02*
X192409999Y-113257821D01*
X192409999Y-113257821D02*
X192470475Y-113378773D01*
X192470475Y-113378773D02*
X192530952Y-113439250D01*
X192530952Y-113439250D02*
X192651904Y-113499726D01*
X192651904Y-113499726D02*
X193135714Y-113499726D01*
X193135714Y-113499726D02*
X193135714Y-112229726D01*
X193135714Y-112229726D02*
X192712380Y-112229726D01*
X192712380Y-112229726D02*
X192591428Y-112290202D01*
X192591428Y-112290202D02*
X192530952Y-112350678D01*
X192530952Y-112350678D02*
X192470475Y-112471630D01*
X192470475Y-112471630D02*
X192470475Y-112592583D01*
X192470475Y-112592583D02*
X192530952Y-112713535D01*
X192530952Y-112713535D02*
X192591428Y-112774011D01*
X192591428Y-112774011D02*
X192712380Y-112834488D01*
X192712380Y-112834488D02*
X193135714Y-112834488D01*
X191381904Y-113439250D02*
X191502856Y-113499726D01*
X191502856Y-113499726D02*
X191744761Y-113499726D01*
X191744761Y-113499726D02*
X191865714Y-113439250D01*
X191865714Y-113439250D02*
X191926190Y-113318297D01*
X191926190Y-113318297D02*
X191926190Y-112834488D01*
X191926190Y-112834488D02*
X191865714Y-112713535D01*
X191865714Y-112713535D02*
X191744761Y-112653059D01*
X191744761Y-112653059D02*
X191502856Y-112653059D01*
X191502856Y-112653059D02*
X191381904Y-112713535D01*
X191381904Y-112713535D02*
X191321428Y-112834488D01*
X191321428Y-112834488D02*
X191321428Y-112955440D01*
X191321428Y-112955440D02*
X191926190Y-113076392D01*
X190232857Y-113499726D02*
X190232857Y-112834488D01*
X190232857Y-112834488D02*
X190293333Y-112713535D01*
X190293333Y-112713535D02*
X190414285Y-112653059D01*
X190414285Y-112653059D02*
X190656190Y-112653059D01*
X190656190Y-112653059D02*
X190777143Y-112713535D01*
X190232857Y-113439250D02*
X190353809Y-113499726D01*
X190353809Y-113499726D02*
X190656190Y-113499726D01*
X190656190Y-113499726D02*
X190777143Y-113439250D01*
X190777143Y-113439250D02*
X190837619Y-113318297D01*
X190837619Y-113318297D02*
X190837619Y-113197345D01*
X190837619Y-113197345D02*
X190777143Y-113076392D01*
X190777143Y-113076392D02*
X190656190Y-113015916D01*
X190656190Y-113015916D02*
X190353809Y-113015916D01*
X190353809Y-113015916D02*
X190232857Y-112955440D01*
X189083809Y-112653059D02*
X189083809Y-113681154D01*
X189083809Y-113681154D02*
X189144285Y-113802107D01*
X189144285Y-113802107D02*
X189204761Y-113862583D01*
X189204761Y-113862583D02*
X189325714Y-113923059D01*
X189325714Y-113923059D02*
X189507142Y-113923059D01*
X189507142Y-113923059D02*
X189628095Y-113862583D01*
X189083809Y-113439250D02*
X189204761Y-113499726D01*
X189204761Y-113499726D02*
X189446666Y-113499726D01*
X189446666Y-113499726D02*
X189567618Y-113439250D01*
X189567618Y-113439250D02*
X189628095Y-113378773D01*
X189628095Y-113378773D02*
X189688571Y-113257821D01*
X189688571Y-113257821D02*
X189688571Y-112894964D01*
X189688571Y-112894964D02*
X189628095Y-112774011D01*
X189628095Y-112774011D02*
X189567618Y-112713535D01*
X189567618Y-112713535D02*
X189446666Y-112653059D01*
X189446666Y-112653059D02*
X189204761Y-112653059D01*
X189204761Y-112653059D02*
X189083809Y-112713535D01*
X188297618Y-113499726D02*
X188418570Y-113439250D01*
X188418570Y-113439250D02*
X188479047Y-113318297D01*
X188479047Y-113318297D02*
X188479047Y-112229726D01*
X187329999Y-113439250D02*
X187450951Y-113499726D01*
X187450951Y-113499726D02*
X187692856Y-113499726D01*
X187692856Y-113499726D02*
X187813809Y-113439250D01*
X187813809Y-113439250D02*
X187874285Y-113318297D01*
X187874285Y-113318297D02*
X187874285Y-112834488D01*
X187874285Y-112834488D02*
X187813809Y-112713535D01*
X187813809Y-112713535D02*
X187692856Y-112653059D01*
X187692856Y-112653059D02*
X187450951Y-112653059D01*
X187450951Y-112653059D02*
X187329999Y-112713535D01*
X187329999Y-112713535D02*
X187269523Y-112834488D01*
X187269523Y-112834488D02*
X187269523Y-112955440D01*
X187269523Y-112955440D02*
X187874285Y-113076392D01*
X185818095Y-112350678D02*
X185757619Y-112290202D01*
X185757619Y-112290202D02*
X185636666Y-112229726D01*
X185636666Y-112229726D02*
X185334285Y-112229726D01*
X185334285Y-112229726D02*
X185213333Y-112290202D01*
X185213333Y-112290202D02*
X185152857Y-112350678D01*
X185152857Y-112350678D02*
X185092380Y-112471630D01*
X185092380Y-112471630D02*
X185092380Y-112592583D01*
X185092380Y-112592583D02*
X185152857Y-112774011D01*
X185152857Y-112774011D02*
X185878571Y-113499726D01*
X185878571Y-113499726D02*
X185092380Y-113499726D01*
X183580476Y-113499726D02*
X183580476Y-112229726D01*
X182975714Y-112653059D02*
X182975714Y-113499726D01*
X182975714Y-112774011D02*
X182915237Y-112713535D01*
X182915237Y-112713535D02*
X182794285Y-112653059D01*
X182794285Y-112653059D02*
X182612856Y-112653059D01*
X182612856Y-112653059D02*
X182491904Y-112713535D01*
X182491904Y-112713535D02*
X182431428Y-112834488D01*
X182431428Y-112834488D02*
X182431428Y-113499726D01*
X181282380Y-113499726D02*
X181282380Y-112229726D01*
X181282380Y-113439250D02*
X181403332Y-113499726D01*
X181403332Y-113499726D02*
X181645237Y-113499726D01*
X181645237Y-113499726D02*
X181766189Y-113439250D01*
X181766189Y-113439250D02*
X181826666Y-113378773D01*
X181826666Y-113378773D02*
X181887142Y-113257821D01*
X181887142Y-113257821D02*
X181887142Y-112894964D01*
X181887142Y-112894964D02*
X181826666Y-112774011D01*
X181826666Y-112774011D02*
X181766189Y-112713535D01*
X181766189Y-112713535D02*
X181645237Y-112653059D01*
X181645237Y-112653059D02*
X181403332Y-112653059D01*
X181403332Y-112653059D02*
X181282380Y-112713535D01*
X180133332Y-112653059D02*
X180133332Y-113499726D01*
X180677618Y-112653059D02*
X180677618Y-113318297D01*
X180677618Y-113318297D02*
X180617141Y-113439250D01*
X180617141Y-113439250D02*
X180496189Y-113499726D01*
X180496189Y-113499726D02*
X180314760Y-113499726D01*
X180314760Y-113499726D02*
X180193808Y-113439250D01*
X180193808Y-113439250D02*
X180133332Y-113378773D01*
X179589046Y-113439250D02*
X179468093Y-113499726D01*
X179468093Y-113499726D02*
X179226189Y-113499726D01*
X179226189Y-113499726D02*
X179105236Y-113439250D01*
X179105236Y-113439250D02*
X179044760Y-113318297D01*
X179044760Y-113318297D02*
X179044760Y-113257821D01*
X179044760Y-113257821D02*
X179105236Y-113136869D01*
X179105236Y-113136869D02*
X179226189Y-113076392D01*
X179226189Y-113076392D02*
X179407617Y-113076392D01*
X179407617Y-113076392D02*
X179528570Y-113015916D01*
X179528570Y-113015916D02*
X179589046Y-112894964D01*
X179589046Y-112894964D02*
X179589046Y-112834488D01*
X179589046Y-112834488D02*
X179528570Y-112713535D01*
X179528570Y-112713535D02*
X179407617Y-112653059D01*
X179407617Y-112653059D02*
X179226189Y-112653059D01*
X179226189Y-112653059D02*
X179105236Y-112713535D01*
X178681903Y-112653059D02*
X178198094Y-112653059D01*
X178500475Y-112229726D02*
X178500475Y-113318297D01*
X178500475Y-113318297D02*
X178439998Y-113439250D01*
X178439998Y-113439250D02*
X178319046Y-113499726D01*
X178319046Y-113499726D02*
X178198094Y-113499726D01*
X177774761Y-113499726D02*
X177774761Y-112653059D01*
X177774761Y-112894964D02*
X177714284Y-112774011D01*
X177714284Y-112774011D02*
X177653808Y-112713535D01*
X177653808Y-112713535D02*
X177532856Y-112653059D01*
X177532856Y-112653059D02*
X177411903Y-112653059D01*
X176988571Y-113499726D02*
X176988571Y-112653059D01*
X176988571Y-112229726D02*
X177049047Y-112290202D01*
X177049047Y-112290202D02*
X176988571Y-112350678D01*
X176988571Y-112350678D02*
X176928094Y-112290202D01*
X176928094Y-112290202D02*
X176988571Y-112229726D01*
X176988571Y-112229726D02*
X176988571Y-112350678D01*
X175839523Y-113499726D02*
X175839523Y-112834488D01*
X175839523Y-112834488D02*
X175899999Y-112713535D01*
X175899999Y-112713535D02*
X176020951Y-112653059D01*
X176020951Y-112653059D02*
X176262856Y-112653059D01*
X176262856Y-112653059D02*
X176383809Y-112713535D01*
X175839523Y-113439250D02*
X175960475Y-113499726D01*
X175960475Y-113499726D02*
X176262856Y-113499726D01*
X176262856Y-113499726D02*
X176383809Y-113439250D01*
X176383809Y-113439250D02*
X176444285Y-113318297D01*
X176444285Y-113318297D02*
X176444285Y-113197345D01*
X176444285Y-113197345D02*
X176383809Y-113076392D01*
X176383809Y-113076392D02*
X176262856Y-113015916D01*
X176262856Y-113015916D02*
X175960475Y-113015916D01*
X175960475Y-113015916D02*
X175839523Y-112955440D01*
X175053332Y-113499726D02*
X175174284Y-113439250D01*
X175174284Y-113439250D02*
X175234761Y-113318297D01*
X175234761Y-113318297D02*
X175234761Y-112229726D01*
X173601904Y-113499726D02*
X173601904Y-112229726D01*
X173601904Y-112229726D02*
X173118094Y-112229726D01*
X173118094Y-112229726D02*
X172997142Y-112290202D01*
X172997142Y-112290202D02*
X172936665Y-112350678D01*
X172936665Y-112350678D02*
X172876189Y-112471630D01*
X172876189Y-112471630D02*
X172876189Y-112653059D01*
X172876189Y-112653059D02*
X172936665Y-112774011D01*
X172936665Y-112774011D02*
X172997142Y-112834488D01*
X172997142Y-112834488D02*
X173118094Y-112894964D01*
X173118094Y-112894964D02*
X173601904Y-112894964D01*
X172392380Y-112350678D02*
X172331904Y-112290202D01*
X172331904Y-112290202D02*
X172210951Y-112229726D01*
X172210951Y-112229726D02*
X171908570Y-112229726D01*
X171908570Y-112229726D02*
X171787618Y-112290202D01*
X171787618Y-112290202D02*
X171727142Y-112350678D01*
X171727142Y-112350678D02*
X171666665Y-112471630D01*
X171666665Y-112471630D02*
X171666665Y-112592583D01*
X171666665Y-112592583D02*
X171727142Y-112774011D01*
X171727142Y-112774011D02*
X172452856Y-113499726D01*
X172452856Y-113499726D02*
X171666665Y-113499726D01*
X170215237Y-113439250D02*
X170094284Y-113499726D01*
X170094284Y-113499726D02*
X169852380Y-113499726D01*
X169852380Y-113499726D02*
X169731427Y-113439250D01*
X169731427Y-113439250D02*
X169670951Y-113318297D01*
X169670951Y-113318297D02*
X169670951Y-113257821D01*
X169670951Y-113257821D02*
X169731427Y-113136869D01*
X169731427Y-113136869D02*
X169852380Y-113076392D01*
X169852380Y-113076392D02*
X170033808Y-113076392D01*
X170033808Y-113076392D02*
X170154761Y-113015916D01*
X170154761Y-113015916D02*
X170215237Y-112894964D01*
X170215237Y-112894964D02*
X170215237Y-112834488D01*
X170215237Y-112834488D02*
X170154761Y-112713535D01*
X170154761Y-112713535D02*
X170033808Y-112653059D01*
X170033808Y-112653059D02*
X169852380Y-112653059D01*
X169852380Y-112653059D02*
X169731427Y-112713535D01*
X168945237Y-113499726D02*
X169066189Y-113439250D01*
X169066189Y-113439250D02*
X169126666Y-113378773D01*
X169126666Y-113378773D02*
X169187142Y-113257821D01*
X169187142Y-113257821D02*
X169187142Y-112894964D01*
X169187142Y-112894964D02*
X169126666Y-112774011D01*
X169126666Y-112774011D02*
X169066189Y-112713535D01*
X169066189Y-112713535D02*
X168945237Y-112653059D01*
X168945237Y-112653059D02*
X168763808Y-112653059D01*
X168763808Y-112653059D02*
X168642856Y-112713535D01*
X168642856Y-112713535D02*
X168582380Y-112774011D01*
X168582380Y-112774011D02*
X168521904Y-112894964D01*
X168521904Y-112894964D02*
X168521904Y-113257821D01*
X168521904Y-113257821D02*
X168582380Y-113378773D01*
X168582380Y-113378773D02*
X168642856Y-113439250D01*
X168642856Y-113439250D02*
X168763808Y-113499726D01*
X168763808Y-113499726D02*
X168945237Y-113499726D01*
X167433332Y-113439250D02*
X167554284Y-113499726D01*
X167554284Y-113499726D02*
X167796189Y-113499726D01*
X167796189Y-113499726D02*
X167917141Y-113439250D01*
X167917141Y-113439250D02*
X167977618Y-113378773D01*
X167977618Y-113378773D02*
X168038094Y-113257821D01*
X168038094Y-113257821D02*
X168038094Y-112894964D01*
X168038094Y-112894964D02*
X167977618Y-112774011D01*
X167977618Y-112774011D02*
X167917141Y-112713535D01*
X167917141Y-112713535D02*
X167796189Y-112653059D01*
X167796189Y-112653059D02*
X167554284Y-112653059D01*
X167554284Y-112653059D02*
X167433332Y-112713535D01*
X166889047Y-113499726D02*
X166889047Y-112229726D01*
X166768094Y-113015916D02*
X166405237Y-113499726D01*
X166405237Y-112653059D02*
X166889047Y-113136869D01*
X165377142Y-113439250D02*
X165498094Y-113499726D01*
X165498094Y-113499726D02*
X165739999Y-113499726D01*
X165739999Y-113499726D02*
X165860952Y-113439250D01*
X165860952Y-113439250D02*
X165921428Y-113318297D01*
X165921428Y-113318297D02*
X165921428Y-112834488D01*
X165921428Y-112834488D02*
X165860952Y-112713535D01*
X165860952Y-112713535D02*
X165739999Y-112653059D01*
X165739999Y-112653059D02*
X165498094Y-112653059D01*
X165498094Y-112653059D02*
X165377142Y-112713535D01*
X165377142Y-112713535D02*
X165316666Y-112834488D01*
X165316666Y-112834488D02*
X165316666Y-112955440D01*
X165316666Y-112955440D02*
X165921428Y-113076392D01*
X164953809Y-112653059D02*
X164470000Y-112653059D01*
X164772381Y-112229726D02*
X164772381Y-113318297D01*
X164772381Y-113318297D02*
X164711904Y-113439250D01*
X164711904Y-113439250D02*
X164590952Y-113499726D01*
X164590952Y-113499726D02*
X164470000Y-113499726D01*
X163139524Y-112350678D02*
X163079048Y-112290202D01*
X163079048Y-112290202D02*
X162958095Y-112229726D01*
X162958095Y-112229726D02*
X162655714Y-112229726D01*
X162655714Y-112229726D02*
X162534762Y-112290202D01*
X162534762Y-112290202D02*
X162474286Y-112350678D01*
X162474286Y-112350678D02*
X162413809Y-112471630D01*
X162413809Y-112471630D02*
X162413809Y-112592583D01*
X162413809Y-112592583D02*
X162474286Y-112774011D01*
X162474286Y-112774011D02*
X163200000Y-113499726D01*
X163200000Y-113499726D02*
X162413809Y-113499726D01*
X161990476Y-113499726D02*
X161325238Y-112653059D01*
X161990476Y-112653059D02*
X161325238Y-113499726D01*
X160176190Y-113499726D02*
X160901905Y-113499726D01*
X160539048Y-113499726D02*
X160539048Y-112229726D01*
X160539048Y-112229726D02*
X160660000Y-112411154D01*
X160660000Y-112411154D02*
X160780952Y-112532107D01*
X160780952Y-112532107D02*
X160901905Y-112592583D01*
X159450476Y-112774011D02*
X159571428Y-112713535D01*
X159571428Y-112713535D02*
X159631905Y-112653059D01*
X159631905Y-112653059D02*
X159692381Y-112532107D01*
X159692381Y-112532107D02*
X159692381Y-112471630D01*
X159692381Y-112471630D02*
X159631905Y-112350678D01*
X159631905Y-112350678D02*
X159571428Y-112290202D01*
X159571428Y-112290202D02*
X159450476Y-112229726D01*
X159450476Y-112229726D02*
X159208571Y-112229726D01*
X159208571Y-112229726D02*
X159087619Y-112290202D01*
X159087619Y-112290202D02*
X159027143Y-112350678D01*
X159027143Y-112350678D02*
X158966666Y-112471630D01*
X158966666Y-112471630D02*
X158966666Y-112532107D01*
X158966666Y-112532107D02*
X159027143Y-112653059D01*
X159027143Y-112653059D02*
X159087619Y-112713535D01*
X159087619Y-112713535D02*
X159208571Y-112774011D01*
X159208571Y-112774011D02*
X159450476Y-112774011D01*
X159450476Y-112774011D02*
X159571428Y-112834488D01*
X159571428Y-112834488D02*
X159631905Y-112894964D01*
X159631905Y-112894964D02*
X159692381Y-113015916D01*
X159692381Y-113015916D02*
X159692381Y-113257821D01*
X159692381Y-113257821D02*
X159631905Y-113378773D01*
X159631905Y-113378773D02*
X159571428Y-113439250D01*
X159571428Y-113439250D02*
X159450476Y-113499726D01*
X159450476Y-113499726D02*
X159208571Y-113499726D01*
X159208571Y-113499726D02*
X159087619Y-113439250D01*
X159087619Y-113439250D02*
X159027143Y-113378773D01*
X159027143Y-113378773D02*
X158966666Y-113257821D01*
X158966666Y-113257821D02*
X158966666Y-113015916D01*
X158966666Y-113015916D02*
X159027143Y-112894964D01*
X159027143Y-112894964D02*
X159087619Y-112834488D01*
X159087619Y-112834488D02*
X159208571Y-112774011D01*
X157515238Y-112350678D02*
X157454762Y-112290202D01*
X157454762Y-112290202D02*
X157333809Y-112229726D01*
X157333809Y-112229726D02*
X157031428Y-112229726D01*
X157031428Y-112229726D02*
X156910476Y-112290202D01*
X156910476Y-112290202D02*
X156850000Y-112350678D01*
X156850000Y-112350678D02*
X156789523Y-112471630D01*
X156789523Y-112471630D02*
X156789523Y-112592583D01*
X156789523Y-112592583D02*
X156850000Y-112774011D01*
X156850000Y-112774011D02*
X157575714Y-113499726D01*
X157575714Y-113499726D02*
X156789523Y-113499726D01*
X156245238Y-113378773D02*
X156184761Y-113439250D01*
X156184761Y-113439250D02*
X156245238Y-113499726D01*
X156245238Y-113499726D02*
X156305714Y-113439250D01*
X156305714Y-113439250D02*
X156245238Y-113378773D01*
X156245238Y-113378773D02*
X156245238Y-113499726D01*
X155035714Y-112229726D02*
X155640476Y-112229726D01*
X155640476Y-112229726D02*
X155700952Y-112834488D01*
X155700952Y-112834488D02*
X155640476Y-112774011D01*
X155640476Y-112774011D02*
X155519523Y-112713535D01*
X155519523Y-112713535D02*
X155217142Y-112713535D01*
X155217142Y-112713535D02*
X155096190Y-112774011D01*
X155096190Y-112774011D02*
X155035714Y-112834488D01*
X155035714Y-112834488D02*
X154975237Y-112955440D01*
X154975237Y-112955440D02*
X154975237Y-113257821D01*
X154975237Y-113257821D02*
X155035714Y-113378773D01*
X155035714Y-113378773D02*
X155096190Y-113439250D01*
X155096190Y-113439250D02*
X155217142Y-113499726D01*
X155217142Y-113499726D02*
X155519523Y-113499726D01*
X155519523Y-113499726D02*
X155640476Y-113439250D01*
X155640476Y-113439250D02*
X155700952Y-113378773D01*
X153886666Y-112653059D02*
X153886666Y-113499726D01*
X154189047Y-112169250D02*
X154491428Y-113076392D01*
X154491428Y-113076392D02*
X153705237Y-113076392D01*
X153221428Y-113499726D02*
X153221428Y-112653059D01*
X153221428Y-112774011D02*
X153160951Y-112713535D01*
X153160951Y-112713535D02*
X153039999Y-112653059D01*
X153039999Y-112653059D02*
X152858570Y-112653059D01*
X152858570Y-112653059D02*
X152737618Y-112713535D01*
X152737618Y-112713535D02*
X152677142Y-112834488D01*
X152677142Y-112834488D02*
X152677142Y-113499726D01*
X152677142Y-112834488D02*
X152616666Y-112713535D01*
X152616666Y-112713535D02*
X152495713Y-112653059D01*
X152495713Y-112653059D02*
X152314285Y-112653059D01*
X152314285Y-112653059D02*
X152193332Y-112713535D01*
X152193332Y-112713535D02*
X152132856Y-112834488D01*
X152132856Y-112834488D02*
X152132856Y-113499726D01*
X151528095Y-113499726D02*
X151528095Y-112653059D01*
X151528095Y-112774011D02*
X151467618Y-112713535D01*
X151467618Y-112713535D02*
X151346666Y-112653059D01*
X151346666Y-112653059D02*
X151165237Y-112653059D01*
X151165237Y-112653059D02*
X151044285Y-112713535D01*
X151044285Y-112713535D02*
X150983809Y-112834488D01*
X150983809Y-112834488D02*
X150983809Y-113499726D01*
X150983809Y-112834488D02*
X150923333Y-112713535D01*
X150923333Y-112713535D02*
X150802380Y-112653059D01*
X150802380Y-112653059D02*
X150620952Y-112653059D01*
X150620952Y-112653059D02*
X150499999Y-112713535D01*
X150499999Y-112713535D02*
X150439523Y-112834488D01*
X150439523Y-112834488D02*
X150439523Y-113499726D01*
X149048571Y-112229726D02*
X148322857Y-112229726D01*
X148685714Y-113499726D02*
X148685714Y-112229726D01*
X147899524Y-113499726D02*
X147899524Y-112229726D01*
X147899524Y-112834488D02*
X147173809Y-112834488D01*
X147173809Y-113499726D02*
X147173809Y-112229726D01*
X145722381Y-113076392D02*
X144633810Y-113076392D01*
X143303333Y-112653059D02*
X143000952Y-113499726D01*
X143000952Y-113499726D02*
X142698571Y-112653059D01*
X141730952Y-113439250D02*
X141851904Y-113499726D01*
X141851904Y-113499726D02*
X142093809Y-113499726D01*
X142093809Y-113499726D02*
X142214762Y-113439250D01*
X142214762Y-113439250D02*
X142275238Y-113318297D01*
X142275238Y-113318297D02*
X142275238Y-112834488D01*
X142275238Y-112834488D02*
X142214762Y-112713535D01*
X142214762Y-112713535D02*
X142093809Y-112653059D01*
X142093809Y-112653059D02*
X141851904Y-112653059D01*
X141851904Y-112653059D02*
X141730952Y-112713535D01*
X141730952Y-112713535D02*
X141670476Y-112834488D01*
X141670476Y-112834488D02*
X141670476Y-112955440D01*
X141670476Y-112955440D02*
X142275238Y-113076392D01*
X141126191Y-113499726D02*
X141126191Y-112653059D01*
X141126191Y-112894964D02*
X141065714Y-112774011D01*
X141065714Y-112774011D02*
X141005238Y-112713535D01*
X141005238Y-112713535D02*
X140884286Y-112653059D01*
X140884286Y-112653059D02*
X140763333Y-112653059D01*
X140340001Y-113499726D02*
X140340001Y-112653059D01*
X140340001Y-112229726D02*
X140400477Y-112290202D01*
X140400477Y-112290202D02*
X140340001Y-112350678D01*
X140340001Y-112350678D02*
X140279524Y-112290202D01*
X140279524Y-112290202D02*
X140340001Y-112229726D01*
X140340001Y-112229726D02*
X140340001Y-112350678D01*
X139916667Y-112653059D02*
X139432858Y-112653059D01*
X139735239Y-113499726D02*
X139735239Y-112411154D01*
X139735239Y-112411154D02*
X139674762Y-112290202D01*
X139674762Y-112290202D02*
X139553810Y-112229726D01*
X139553810Y-112229726D02*
X139432858Y-112229726D01*
X139130477Y-112653059D02*
X138828096Y-113499726D01*
X138525715Y-112653059D02*
X138828096Y-113499726D01*
X138828096Y-113499726D02*
X138949048Y-113802107D01*
X138949048Y-113802107D02*
X139009525Y-113862583D01*
X139009525Y-113862583D02*
X139130477Y-113923059D01*
X137074287Y-112653059D02*
X137074287Y-113923059D01*
X137074287Y-112713535D02*
X136953334Y-112653059D01*
X136953334Y-112653059D02*
X136711429Y-112653059D01*
X136711429Y-112653059D02*
X136590477Y-112713535D01*
X136590477Y-112713535D02*
X136530001Y-112774011D01*
X136530001Y-112774011D02*
X136469525Y-112894964D01*
X136469525Y-112894964D02*
X136469525Y-113257821D01*
X136469525Y-113257821D02*
X136530001Y-113378773D01*
X136530001Y-113378773D02*
X136590477Y-113439250D01*
X136590477Y-113439250D02*
X136711429Y-113499726D01*
X136711429Y-113499726D02*
X136953334Y-113499726D01*
X136953334Y-113499726D02*
X137074287Y-113439250D01*
X135925239Y-113499726D02*
X135925239Y-112653059D01*
X135925239Y-112229726D02*
X135985715Y-112290202D01*
X135985715Y-112290202D02*
X135925239Y-112350678D01*
X135925239Y-112350678D02*
X135864762Y-112290202D01*
X135864762Y-112290202D02*
X135925239Y-112229726D01*
X135925239Y-112229726D02*
X135925239Y-112350678D01*
X135320477Y-112653059D02*
X135320477Y-113499726D01*
X135320477Y-112774011D02*
X135260000Y-112713535D01*
X135260000Y-112713535D02*
X135139048Y-112653059D01*
X135139048Y-112653059D02*
X134957619Y-112653059D01*
X134957619Y-112653059D02*
X134836667Y-112713535D01*
X134836667Y-112713535D02*
X134776191Y-112834488D01*
X134776191Y-112834488D02*
X134776191Y-113499726D01*
X133203810Y-113499726D02*
X133203810Y-112653059D01*
X133203810Y-112774011D02*
X133143333Y-112713535D01*
X133143333Y-112713535D02*
X133022381Y-112653059D01*
X133022381Y-112653059D02*
X132840952Y-112653059D01*
X132840952Y-112653059D02*
X132720000Y-112713535D01*
X132720000Y-112713535D02*
X132659524Y-112834488D01*
X132659524Y-112834488D02*
X132659524Y-113499726D01*
X132659524Y-112834488D02*
X132599048Y-112713535D01*
X132599048Y-112713535D02*
X132478095Y-112653059D01*
X132478095Y-112653059D02*
X132296667Y-112653059D01*
X132296667Y-112653059D02*
X132175714Y-112713535D01*
X132175714Y-112713535D02*
X132115238Y-112834488D01*
X132115238Y-112834488D02*
X132115238Y-113499726D01*
X130966191Y-113499726D02*
X130966191Y-112834488D01*
X130966191Y-112834488D02*
X131026667Y-112713535D01*
X131026667Y-112713535D02*
X131147619Y-112653059D01*
X131147619Y-112653059D02*
X131389524Y-112653059D01*
X131389524Y-112653059D02*
X131510477Y-112713535D01*
X130966191Y-113439250D02*
X131087143Y-113499726D01*
X131087143Y-113499726D02*
X131389524Y-113499726D01*
X131389524Y-113499726D02*
X131510477Y-113439250D01*
X131510477Y-113439250D02*
X131570953Y-113318297D01*
X131570953Y-113318297D02*
X131570953Y-113197345D01*
X131570953Y-113197345D02*
X131510477Y-113076392D01*
X131510477Y-113076392D02*
X131389524Y-113015916D01*
X131389524Y-113015916D02*
X131087143Y-113015916D01*
X131087143Y-113015916D02*
X130966191Y-112955440D01*
X130361429Y-112653059D02*
X130361429Y-113923059D01*
X130361429Y-112713535D02*
X130240476Y-112653059D01*
X130240476Y-112653059D02*
X129998571Y-112653059D01*
X129998571Y-112653059D02*
X129877619Y-112713535D01*
X129877619Y-112713535D02*
X129817143Y-112774011D01*
X129817143Y-112774011D02*
X129756667Y-112894964D01*
X129756667Y-112894964D02*
X129756667Y-113257821D01*
X129756667Y-113257821D02*
X129817143Y-113378773D01*
X129817143Y-113378773D02*
X129877619Y-113439250D01*
X129877619Y-113439250D02*
X129998571Y-113499726D01*
X129998571Y-113499726D02*
X130240476Y-113499726D01*
X130240476Y-113499726D02*
X130361429Y-113439250D01*
X129212381Y-112653059D02*
X129212381Y-113923059D01*
X129212381Y-112713535D02*
X129091428Y-112653059D01*
X129091428Y-112653059D02*
X128849523Y-112653059D01*
X128849523Y-112653059D02*
X128728571Y-112713535D01*
X128728571Y-112713535D02*
X128668095Y-112774011D01*
X128668095Y-112774011D02*
X128607619Y-112894964D01*
X128607619Y-112894964D02*
X128607619Y-113257821D01*
X128607619Y-113257821D02*
X128668095Y-113378773D01*
X128668095Y-113378773D02*
X128728571Y-113439250D01*
X128728571Y-113439250D02*
X128849523Y-113499726D01*
X128849523Y-113499726D02*
X129091428Y-113499726D01*
X129091428Y-113499726D02*
X129212381Y-113439250D01*
X128063333Y-113499726D02*
X128063333Y-112653059D01*
X128063333Y-112229726D02*
X128123809Y-112290202D01*
X128123809Y-112290202D02*
X128063333Y-112350678D01*
X128063333Y-112350678D02*
X128002856Y-112290202D01*
X128002856Y-112290202D02*
X128063333Y-112229726D01*
X128063333Y-112229726D02*
X128063333Y-112350678D01*
X127458571Y-112653059D02*
X127458571Y-113499726D01*
X127458571Y-112774011D02*
X127398094Y-112713535D01*
X127398094Y-112713535D02*
X127277142Y-112653059D01*
X127277142Y-112653059D02*
X127095713Y-112653059D01*
X127095713Y-112653059D02*
X126974761Y-112713535D01*
X126974761Y-112713535D02*
X126914285Y-112834488D01*
X126914285Y-112834488D02*
X126914285Y-113499726D01*
X125765237Y-112653059D02*
X125765237Y-113681154D01*
X125765237Y-113681154D02*
X125825713Y-113802107D01*
X125825713Y-113802107D02*
X125886189Y-113862583D01*
X125886189Y-113862583D02*
X126007142Y-113923059D01*
X126007142Y-113923059D02*
X126188570Y-113923059D01*
X126188570Y-113923059D02*
X126309523Y-113862583D01*
X125765237Y-113439250D02*
X125886189Y-113499726D01*
X125886189Y-113499726D02*
X126128094Y-113499726D01*
X126128094Y-113499726D02*
X126249046Y-113439250D01*
X126249046Y-113439250D02*
X126309523Y-113378773D01*
X126309523Y-113378773D02*
X126369999Y-113257821D01*
X126369999Y-113257821D02*
X126369999Y-112894964D01*
X126369999Y-112894964D02*
X126309523Y-112774011D01*
X126309523Y-112774011D02*
X126249046Y-112713535D01*
X126249046Y-112713535D02*
X126128094Y-112653059D01*
X126128094Y-112653059D02*
X125886189Y-112653059D01*
X125886189Y-112653059D02*
X125765237Y-112713535D01*
X124374284Y-112653059D02*
X123890475Y-112653059D01*
X124192856Y-113499726D02*
X124192856Y-112411154D01*
X124192856Y-112411154D02*
X124132379Y-112290202D01*
X124132379Y-112290202D02*
X124011427Y-112229726D01*
X124011427Y-112229726D02*
X123890475Y-112229726D01*
X123467142Y-113499726D02*
X123467142Y-112653059D01*
X123467142Y-112894964D02*
X123406665Y-112774011D01*
X123406665Y-112774011D02*
X123346189Y-112713535D01*
X123346189Y-112713535D02*
X123225237Y-112653059D01*
X123225237Y-112653059D02*
X123104284Y-112653059D01*
X122499523Y-113499726D02*
X122620475Y-113439250D01*
X122620475Y-113439250D02*
X122680952Y-113378773D01*
X122680952Y-113378773D02*
X122741428Y-113257821D01*
X122741428Y-113257821D02*
X122741428Y-112894964D01*
X122741428Y-112894964D02*
X122680952Y-112774011D01*
X122680952Y-112774011D02*
X122620475Y-112713535D01*
X122620475Y-112713535D02*
X122499523Y-112653059D01*
X122499523Y-112653059D02*
X122318094Y-112653059D01*
X122318094Y-112653059D02*
X122197142Y-112713535D01*
X122197142Y-112713535D02*
X122136666Y-112774011D01*
X122136666Y-112774011D02*
X122076190Y-112894964D01*
X122076190Y-112894964D02*
X122076190Y-113257821D01*
X122076190Y-113257821D02*
X122136666Y-113378773D01*
X122136666Y-113378773D02*
X122197142Y-113439250D01*
X122197142Y-113439250D02*
X122318094Y-113499726D01*
X122318094Y-113499726D02*
X122499523Y-113499726D01*
X121531904Y-113499726D02*
X121531904Y-112653059D01*
X121531904Y-112774011D02*
X121471427Y-112713535D01*
X121471427Y-112713535D02*
X121350475Y-112653059D01*
X121350475Y-112653059D02*
X121169046Y-112653059D01*
X121169046Y-112653059D02*
X121048094Y-112713535D01*
X121048094Y-112713535D02*
X120987618Y-112834488D01*
X120987618Y-112834488D02*
X120987618Y-113499726D01*
X120987618Y-112834488D02*
X120927142Y-112713535D01*
X120927142Y-112713535D02*
X120806189Y-112653059D01*
X120806189Y-112653059D02*
X120624761Y-112653059D01*
X120624761Y-112653059D02*
X120503808Y-112713535D01*
X120503808Y-112713535D02*
X120443332Y-112834488D01*
X120443332Y-112834488D02*
X120443332Y-113499726D01*
X118931428Y-113136869D02*
X118326666Y-113136869D01*
X119052380Y-113499726D02*
X118629047Y-112229726D01*
X118629047Y-112229726D02*
X118205713Y-113499726D01*
X117782381Y-113499726D02*
X117782381Y-112229726D01*
X117782381Y-112229726D02*
X117359047Y-113136869D01*
X117359047Y-113136869D02*
X116935714Y-112229726D01*
X116935714Y-112229726D02*
X116935714Y-113499726D01*
X115786666Y-112229726D02*
X116028571Y-112229726D01*
X116028571Y-112229726D02*
X116149523Y-112290202D01*
X116149523Y-112290202D02*
X116209999Y-112350678D01*
X116209999Y-112350678D02*
X116330952Y-112532107D01*
X116330952Y-112532107D02*
X116391428Y-112774011D01*
X116391428Y-112774011D02*
X116391428Y-113257821D01*
X116391428Y-113257821D02*
X116330952Y-113378773D01*
X116330952Y-113378773D02*
X116270475Y-113439250D01*
X116270475Y-113439250D02*
X116149523Y-113499726D01*
X116149523Y-113499726D02*
X115907618Y-113499726D01*
X115907618Y-113499726D02*
X115786666Y-113439250D01*
X115786666Y-113439250D02*
X115726190Y-113378773D01*
X115726190Y-113378773D02*
X115665713Y-113257821D01*
X115665713Y-113257821D02*
X115665713Y-112955440D01*
X115665713Y-112955440D02*
X115726190Y-112834488D01*
X115726190Y-112834488D02*
X115786666Y-112774011D01*
X115786666Y-112774011D02*
X115907618Y-112713535D01*
X115907618Y-112713535D02*
X116149523Y-112713535D01*
X116149523Y-112713535D02*
X116270475Y-112774011D01*
X116270475Y-112774011D02*
X116330952Y-112834488D01*
X116330952Y-112834488D02*
X116391428Y-112955440D01*
X115181904Y-112350678D02*
X115121428Y-112290202D01*
X115121428Y-112290202D02*
X115000475Y-112229726D01*
X115000475Y-112229726D02*
X114698094Y-112229726D01*
X114698094Y-112229726D02*
X114577142Y-112290202D01*
X114577142Y-112290202D02*
X114516666Y-112350678D01*
X114516666Y-112350678D02*
X114456189Y-112471630D01*
X114456189Y-112471630D02*
X114456189Y-112592583D01*
X114456189Y-112592583D02*
X114516666Y-112774011D01*
X114516666Y-112774011D02*
X115242380Y-113499726D01*
X115242380Y-113499726D02*
X114456189Y-113499726D01*
X113307142Y-112229726D02*
X113911904Y-112229726D01*
X113911904Y-112229726D02*
X113972380Y-112834488D01*
X113972380Y-112834488D02*
X113911904Y-112774011D01*
X113911904Y-112774011D02*
X113790951Y-112713535D01*
X113790951Y-112713535D02*
X113488570Y-112713535D01*
X113488570Y-112713535D02*
X113367618Y-112774011D01*
X113367618Y-112774011D02*
X113307142Y-112834488D01*
X113307142Y-112834488D02*
X113246665Y-112955440D01*
X113246665Y-112955440D02*
X113246665Y-113257821D01*
X113246665Y-113257821D02*
X113307142Y-113378773D01*
X113307142Y-113378773D02*
X113367618Y-113439250D01*
X113367618Y-113439250D02*
X113488570Y-113499726D01*
X113488570Y-113499726D02*
X113790951Y-113499726D01*
X113790951Y-113499726D02*
X113911904Y-113439250D01*
X113911904Y-113439250D02*
X113972380Y-113378773D01*
X112158094Y-112653059D02*
X112158094Y-113499726D01*
X112460475Y-112169250D02*
X112762856Y-113076392D01*
X112762856Y-113076392D02*
X111976665Y-113076392D01*
X110585713Y-113439250D02*
X110464760Y-113499726D01*
X110464760Y-113499726D02*
X110222856Y-113499726D01*
X110222856Y-113499726D02*
X110101903Y-113439250D01*
X110101903Y-113439250D02*
X110041427Y-113318297D01*
X110041427Y-113318297D02*
X110041427Y-113257821D01*
X110041427Y-113257821D02*
X110101903Y-113136869D01*
X110101903Y-113136869D02*
X110222856Y-113076392D01*
X110222856Y-113076392D02*
X110404284Y-113076392D01*
X110404284Y-113076392D02*
X110525237Y-113015916D01*
X110525237Y-113015916D02*
X110585713Y-112894964D01*
X110585713Y-112894964D02*
X110585713Y-112834488D01*
X110585713Y-112834488D02*
X110525237Y-112713535D01*
X110525237Y-112713535D02*
X110404284Y-112653059D01*
X110404284Y-112653059D02*
X110222856Y-112653059D01*
X110222856Y-112653059D02*
X110101903Y-112713535D01*
X108952856Y-113439250D02*
X109073808Y-113499726D01*
X109073808Y-113499726D02*
X109315713Y-113499726D01*
X109315713Y-113499726D02*
X109436665Y-113439250D01*
X109436665Y-113439250D02*
X109497142Y-113378773D01*
X109497142Y-113378773D02*
X109557618Y-113257821D01*
X109557618Y-113257821D02*
X109557618Y-112894964D01*
X109557618Y-112894964D02*
X109497142Y-112774011D01*
X109497142Y-112774011D02*
X109436665Y-112713535D01*
X109436665Y-112713535D02*
X109315713Y-112653059D01*
X109315713Y-112653059D02*
X109073808Y-112653059D01*
X109073808Y-112653059D02*
X108952856Y-112713535D01*
X108408571Y-113499726D02*
X108408571Y-112229726D01*
X107864285Y-113499726D02*
X107864285Y-112834488D01*
X107864285Y-112834488D02*
X107924761Y-112713535D01*
X107924761Y-112713535D02*
X108045713Y-112653059D01*
X108045713Y-112653059D02*
X108227142Y-112653059D01*
X108227142Y-112653059D02*
X108348094Y-112713535D01*
X108348094Y-112713535D02*
X108408571Y-112774011D01*
X106775713Y-113439250D02*
X106896665Y-113499726D01*
X106896665Y-113499726D02*
X107138570Y-113499726D01*
X107138570Y-113499726D02*
X107259523Y-113439250D01*
X107259523Y-113439250D02*
X107319999Y-113318297D01*
X107319999Y-113318297D02*
X107319999Y-112834488D01*
X107319999Y-112834488D02*
X107259523Y-112713535D01*
X107259523Y-112713535D02*
X107138570Y-112653059D01*
X107138570Y-112653059D02*
X106896665Y-112653059D01*
X106896665Y-112653059D02*
X106775713Y-112713535D01*
X106775713Y-112713535D02*
X106715237Y-112834488D01*
X106715237Y-112834488D02*
X106715237Y-112955440D01*
X106715237Y-112955440D02*
X107319999Y-113076392D01*
X106170952Y-113499726D02*
X106170952Y-112653059D01*
X106170952Y-112774011D02*
X106110475Y-112713535D01*
X106110475Y-112713535D02*
X105989523Y-112653059D01*
X105989523Y-112653059D02*
X105808094Y-112653059D01*
X105808094Y-112653059D02*
X105687142Y-112713535D01*
X105687142Y-112713535D02*
X105626666Y-112834488D01*
X105626666Y-112834488D02*
X105626666Y-113499726D01*
X105626666Y-112834488D02*
X105566190Y-112713535D01*
X105566190Y-112713535D02*
X105445237Y-112653059D01*
X105445237Y-112653059D02*
X105263809Y-112653059D01*
X105263809Y-112653059D02*
X105142856Y-112713535D01*
X105142856Y-112713535D02*
X105082380Y-112834488D01*
X105082380Y-112834488D02*
X105082380Y-113499726D01*
X103933333Y-113499726D02*
X103933333Y-112834488D01*
X103933333Y-112834488D02*
X103993809Y-112713535D01*
X103993809Y-112713535D02*
X104114761Y-112653059D01*
X104114761Y-112653059D02*
X104356666Y-112653059D01*
X104356666Y-112653059D02*
X104477619Y-112713535D01*
X103933333Y-113439250D02*
X104054285Y-113499726D01*
X104054285Y-113499726D02*
X104356666Y-113499726D01*
X104356666Y-113499726D02*
X104477619Y-113439250D01*
X104477619Y-113439250D02*
X104538095Y-113318297D01*
X104538095Y-113318297D02*
X104538095Y-113197345D01*
X104538095Y-113197345D02*
X104477619Y-113076392D01*
X104477619Y-113076392D02*
X104356666Y-113015916D01*
X104356666Y-113015916D02*
X104054285Y-113015916D01*
X104054285Y-113015916D02*
X103933333Y-112955440D01*
X103509999Y-112653059D02*
X103026190Y-112653059D01*
X103328571Y-112229726D02*
X103328571Y-113318297D01*
X103328571Y-113318297D02*
X103268094Y-113439250D01*
X103268094Y-113439250D02*
X103147142Y-113499726D01*
X103147142Y-113499726D02*
X103026190Y-113499726D01*
X102602857Y-113499726D02*
X102602857Y-112653059D01*
X102602857Y-112229726D02*
X102663333Y-112290202D01*
X102663333Y-112290202D02*
X102602857Y-112350678D01*
X102602857Y-112350678D02*
X102542380Y-112290202D01*
X102542380Y-112290202D02*
X102602857Y-112229726D01*
X102602857Y-112229726D02*
X102602857Y-112350678D01*
X101453809Y-113439250D02*
X101574761Y-113499726D01*
X101574761Y-113499726D02*
X101816666Y-113499726D01*
X101816666Y-113499726D02*
X101937618Y-113439250D01*
X101937618Y-113439250D02*
X101998095Y-113378773D01*
X101998095Y-113378773D02*
X102058571Y-113257821D01*
X102058571Y-113257821D02*
X102058571Y-112894964D01*
X102058571Y-112894964D02*
X101998095Y-112774011D01*
X101998095Y-112774011D02*
X101937618Y-112713535D01*
X101937618Y-112713535D02*
X101816666Y-112653059D01*
X101816666Y-112653059D02*
X101574761Y-112653059D01*
X101574761Y-112653059D02*
X101453809Y-112713535D01*
X198985713Y-100159726D02*
X198985713Y-98889726D01*
X198985713Y-98889726D02*
X198501903Y-98889726D01*
X198501903Y-98889726D02*
X198380951Y-98950202D01*
X198380951Y-98950202D02*
X198320474Y-99010678D01*
X198320474Y-99010678D02*
X198259998Y-99131630D01*
X198259998Y-99131630D02*
X198259998Y-99313059D01*
X198259998Y-99313059D02*
X198320474Y-99434011D01*
X198320474Y-99434011D02*
X198380951Y-99494488D01*
X198380951Y-99494488D02*
X198501903Y-99554964D01*
X198501903Y-99554964D02*
X198985713Y-99554964D01*
X197534284Y-100159726D02*
X197655236Y-100099250D01*
X197655236Y-100099250D02*
X197715713Y-100038773D01*
X197715713Y-100038773D02*
X197776189Y-99917821D01*
X197776189Y-99917821D02*
X197776189Y-99554964D01*
X197776189Y-99554964D02*
X197715713Y-99434011D01*
X197715713Y-99434011D02*
X197655236Y-99373535D01*
X197655236Y-99373535D02*
X197534284Y-99313059D01*
X197534284Y-99313059D02*
X197352855Y-99313059D01*
X197352855Y-99313059D02*
X197231903Y-99373535D01*
X197231903Y-99373535D02*
X197171427Y-99434011D01*
X197171427Y-99434011D02*
X197110951Y-99554964D01*
X197110951Y-99554964D02*
X197110951Y-99917821D01*
X197110951Y-99917821D02*
X197171427Y-100038773D01*
X197171427Y-100038773D02*
X197231903Y-100099250D01*
X197231903Y-100099250D02*
X197352855Y-100159726D01*
X197352855Y-100159726D02*
X197534284Y-100159726D01*
X196022379Y-100099250D02*
X196143331Y-100159726D01*
X196143331Y-100159726D02*
X196385236Y-100159726D01*
X196385236Y-100159726D02*
X196506188Y-100099250D01*
X196506188Y-100099250D02*
X196566665Y-100038773D01*
X196566665Y-100038773D02*
X196627141Y-99917821D01*
X196627141Y-99917821D02*
X196627141Y-99554964D01*
X196627141Y-99554964D02*
X196566665Y-99434011D01*
X196566665Y-99434011D02*
X196506188Y-99373535D01*
X196506188Y-99373535D02*
X196385236Y-99313059D01*
X196385236Y-99313059D02*
X196143331Y-99313059D01*
X196143331Y-99313059D02*
X196022379Y-99373535D01*
X195478094Y-100159726D02*
X195478094Y-98889726D01*
X195357141Y-99675916D02*
X194994284Y-100159726D01*
X194994284Y-99313059D02*
X195478094Y-99796869D01*
X193966189Y-100099250D02*
X194087141Y-100159726D01*
X194087141Y-100159726D02*
X194329046Y-100159726D01*
X194329046Y-100159726D02*
X194449999Y-100099250D01*
X194449999Y-100099250D02*
X194510475Y-99978297D01*
X194510475Y-99978297D02*
X194510475Y-99494488D01*
X194510475Y-99494488D02*
X194449999Y-99373535D01*
X194449999Y-99373535D02*
X194329046Y-99313059D01*
X194329046Y-99313059D02*
X194087141Y-99313059D01*
X194087141Y-99313059D02*
X193966189Y-99373535D01*
X193966189Y-99373535D02*
X193905713Y-99494488D01*
X193905713Y-99494488D02*
X193905713Y-99615440D01*
X193905713Y-99615440D02*
X194510475Y-99736392D01*
X193542856Y-99313059D02*
X193059047Y-99313059D01*
X193361428Y-98889726D02*
X193361428Y-99978297D01*
X193361428Y-99978297D02*
X193300951Y-100099250D01*
X193300951Y-100099250D02*
X193179999Y-100159726D01*
X193179999Y-100159726D02*
X193059047Y-100159726D01*
X192212380Y-99494488D02*
X192030952Y-99554964D01*
X192030952Y-99554964D02*
X191970475Y-99615440D01*
X191970475Y-99615440D02*
X191909999Y-99736392D01*
X191909999Y-99736392D02*
X191909999Y-99917821D01*
X191909999Y-99917821D02*
X191970475Y-100038773D01*
X191970475Y-100038773D02*
X192030952Y-100099250D01*
X192030952Y-100099250D02*
X192151904Y-100159726D01*
X192151904Y-100159726D02*
X192635714Y-100159726D01*
X192635714Y-100159726D02*
X192635714Y-98889726D01*
X192635714Y-98889726D02*
X192212380Y-98889726D01*
X192212380Y-98889726D02*
X192091428Y-98950202D01*
X192091428Y-98950202D02*
X192030952Y-99010678D01*
X192030952Y-99010678D02*
X191970475Y-99131630D01*
X191970475Y-99131630D02*
X191970475Y-99252583D01*
X191970475Y-99252583D02*
X192030952Y-99373535D01*
X192030952Y-99373535D02*
X192091428Y-99434011D01*
X192091428Y-99434011D02*
X192212380Y-99494488D01*
X192212380Y-99494488D02*
X192635714Y-99494488D01*
X190881904Y-100099250D02*
X191002856Y-100159726D01*
X191002856Y-100159726D02*
X191244761Y-100159726D01*
X191244761Y-100159726D02*
X191365714Y-100099250D01*
X191365714Y-100099250D02*
X191426190Y-99978297D01*
X191426190Y-99978297D02*
X191426190Y-99494488D01*
X191426190Y-99494488D02*
X191365714Y-99373535D01*
X191365714Y-99373535D02*
X191244761Y-99313059D01*
X191244761Y-99313059D02*
X191002856Y-99313059D01*
X191002856Y-99313059D02*
X190881904Y-99373535D01*
X190881904Y-99373535D02*
X190821428Y-99494488D01*
X190821428Y-99494488D02*
X190821428Y-99615440D01*
X190821428Y-99615440D02*
X191426190Y-99736392D01*
X189732857Y-100159726D02*
X189732857Y-99494488D01*
X189732857Y-99494488D02*
X189793333Y-99373535D01*
X189793333Y-99373535D02*
X189914285Y-99313059D01*
X189914285Y-99313059D02*
X190156190Y-99313059D01*
X190156190Y-99313059D02*
X190277143Y-99373535D01*
X189732857Y-100099250D02*
X189853809Y-100159726D01*
X189853809Y-100159726D02*
X190156190Y-100159726D01*
X190156190Y-100159726D02*
X190277143Y-100099250D01*
X190277143Y-100099250D02*
X190337619Y-99978297D01*
X190337619Y-99978297D02*
X190337619Y-99857345D01*
X190337619Y-99857345D02*
X190277143Y-99736392D01*
X190277143Y-99736392D02*
X190156190Y-99675916D01*
X190156190Y-99675916D02*
X189853809Y-99675916D01*
X189853809Y-99675916D02*
X189732857Y-99615440D01*
X188583809Y-99313059D02*
X188583809Y-100341154D01*
X188583809Y-100341154D02*
X188644285Y-100462107D01*
X188644285Y-100462107D02*
X188704761Y-100522583D01*
X188704761Y-100522583D02*
X188825714Y-100583059D01*
X188825714Y-100583059D02*
X189007142Y-100583059D01*
X189007142Y-100583059D02*
X189128095Y-100522583D01*
X188583809Y-100099250D02*
X188704761Y-100159726D01*
X188704761Y-100159726D02*
X188946666Y-100159726D01*
X188946666Y-100159726D02*
X189067618Y-100099250D01*
X189067618Y-100099250D02*
X189128095Y-100038773D01*
X189128095Y-100038773D02*
X189188571Y-99917821D01*
X189188571Y-99917821D02*
X189188571Y-99554964D01*
X189188571Y-99554964D02*
X189128095Y-99434011D01*
X189128095Y-99434011D02*
X189067618Y-99373535D01*
X189067618Y-99373535D02*
X188946666Y-99313059D01*
X188946666Y-99313059D02*
X188704761Y-99313059D01*
X188704761Y-99313059D02*
X188583809Y-99373535D01*
X187797618Y-100159726D02*
X187918570Y-100099250D01*
X187918570Y-100099250D02*
X187979047Y-99978297D01*
X187979047Y-99978297D02*
X187979047Y-98889726D01*
X186829999Y-100099250D02*
X186950951Y-100159726D01*
X186950951Y-100159726D02*
X187192856Y-100159726D01*
X187192856Y-100159726D02*
X187313809Y-100099250D01*
X187313809Y-100099250D02*
X187374285Y-99978297D01*
X187374285Y-99978297D02*
X187374285Y-99494488D01*
X187374285Y-99494488D02*
X187313809Y-99373535D01*
X187313809Y-99373535D02*
X187192856Y-99313059D01*
X187192856Y-99313059D02*
X186950951Y-99313059D01*
X186950951Y-99313059D02*
X186829999Y-99373535D01*
X186829999Y-99373535D02*
X186769523Y-99494488D01*
X186769523Y-99494488D02*
X186769523Y-99615440D01*
X186769523Y-99615440D02*
X187374285Y-99736392D01*
X185318095Y-99010678D02*
X185257619Y-98950202D01*
X185257619Y-98950202D02*
X185136666Y-98889726D01*
X185136666Y-98889726D02*
X184834285Y-98889726D01*
X184834285Y-98889726D02*
X184713333Y-98950202D01*
X184713333Y-98950202D02*
X184652857Y-99010678D01*
X184652857Y-99010678D02*
X184592380Y-99131630D01*
X184592380Y-99131630D02*
X184592380Y-99252583D01*
X184592380Y-99252583D02*
X184652857Y-99434011D01*
X184652857Y-99434011D02*
X185378571Y-100159726D01*
X185378571Y-100159726D02*
X184592380Y-100159726D01*
X183080476Y-100159726D02*
X183080476Y-98889726D01*
X182475714Y-99313059D02*
X182475714Y-100159726D01*
X182475714Y-99434011D02*
X182415237Y-99373535D01*
X182415237Y-99373535D02*
X182294285Y-99313059D01*
X182294285Y-99313059D02*
X182112856Y-99313059D01*
X182112856Y-99313059D02*
X181991904Y-99373535D01*
X181991904Y-99373535D02*
X181931428Y-99494488D01*
X181931428Y-99494488D02*
X181931428Y-100159726D01*
X180782380Y-100159726D02*
X180782380Y-98889726D01*
X180782380Y-100099250D02*
X180903332Y-100159726D01*
X180903332Y-100159726D02*
X181145237Y-100159726D01*
X181145237Y-100159726D02*
X181266189Y-100099250D01*
X181266189Y-100099250D02*
X181326666Y-100038773D01*
X181326666Y-100038773D02*
X181387142Y-99917821D01*
X181387142Y-99917821D02*
X181387142Y-99554964D01*
X181387142Y-99554964D02*
X181326666Y-99434011D01*
X181326666Y-99434011D02*
X181266189Y-99373535D01*
X181266189Y-99373535D02*
X181145237Y-99313059D01*
X181145237Y-99313059D02*
X180903332Y-99313059D01*
X180903332Y-99313059D02*
X180782380Y-99373535D01*
X179633332Y-99313059D02*
X179633332Y-100159726D01*
X180177618Y-99313059D02*
X180177618Y-99978297D01*
X180177618Y-99978297D02*
X180117141Y-100099250D01*
X180117141Y-100099250D02*
X179996189Y-100159726D01*
X179996189Y-100159726D02*
X179814760Y-100159726D01*
X179814760Y-100159726D02*
X179693808Y-100099250D01*
X179693808Y-100099250D02*
X179633332Y-100038773D01*
X179089046Y-100099250D02*
X178968093Y-100159726D01*
X178968093Y-100159726D02*
X178726189Y-100159726D01*
X178726189Y-100159726D02*
X178605236Y-100099250D01*
X178605236Y-100099250D02*
X178544760Y-99978297D01*
X178544760Y-99978297D02*
X178544760Y-99917821D01*
X178544760Y-99917821D02*
X178605236Y-99796869D01*
X178605236Y-99796869D02*
X178726189Y-99736392D01*
X178726189Y-99736392D02*
X178907617Y-99736392D01*
X178907617Y-99736392D02*
X179028570Y-99675916D01*
X179028570Y-99675916D02*
X179089046Y-99554964D01*
X179089046Y-99554964D02*
X179089046Y-99494488D01*
X179089046Y-99494488D02*
X179028570Y-99373535D01*
X179028570Y-99373535D02*
X178907617Y-99313059D01*
X178907617Y-99313059D02*
X178726189Y-99313059D01*
X178726189Y-99313059D02*
X178605236Y-99373535D01*
X178181903Y-99313059D02*
X177698094Y-99313059D01*
X178000475Y-98889726D02*
X178000475Y-99978297D01*
X178000475Y-99978297D02*
X177939998Y-100099250D01*
X177939998Y-100099250D02*
X177819046Y-100159726D01*
X177819046Y-100159726D02*
X177698094Y-100159726D01*
X177274761Y-100159726D02*
X177274761Y-99313059D01*
X177274761Y-99554964D02*
X177214284Y-99434011D01*
X177214284Y-99434011D02*
X177153808Y-99373535D01*
X177153808Y-99373535D02*
X177032856Y-99313059D01*
X177032856Y-99313059D02*
X176911903Y-99313059D01*
X176488571Y-100159726D02*
X176488571Y-99313059D01*
X176488571Y-98889726D02*
X176549047Y-98950202D01*
X176549047Y-98950202D02*
X176488571Y-99010678D01*
X176488571Y-99010678D02*
X176428094Y-98950202D01*
X176428094Y-98950202D02*
X176488571Y-98889726D01*
X176488571Y-98889726D02*
X176488571Y-99010678D01*
X175339523Y-100159726D02*
X175339523Y-99494488D01*
X175339523Y-99494488D02*
X175399999Y-99373535D01*
X175399999Y-99373535D02*
X175520951Y-99313059D01*
X175520951Y-99313059D02*
X175762856Y-99313059D01*
X175762856Y-99313059D02*
X175883809Y-99373535D01*
X175339523Y-100099250D02*
X175460475Y-100159726D01*
X175460475Y-100159726D02*
X175762856Y-100159726D01*
X175762856Y-100159726D02*
X175883809Y-100099250D01*
X175883809Y-100099250D02*
X175944285Y-99978297D01*
X175944285Y-99978297D02*
X175944285Y-99857345D01*
X175944285Y-99857345D02*
X175883809Y-99736392D01*
X175883809Y-99736392D02*
X175762856Y-99675916D01*
X175762856Y-99675916D02*
X175460475Y-99675916D01*
X175460475Y-99675916D02*
X175339523Y-99615440D01*
X174553332Y-100159726D02*
X174674284Y-100099250D01*
X174674284Y-100099250D02*
X174734761Y-99978297D01*
X174734761Y-99978297D02*
X174734761Y-98889726D01*
X173101904Y-100159726D02*
X173101904Y-98889726D01*
X173101904Y-98889726D02*
X172618094Y-98889726D01*
X172618094Y-98889726D02*
X172497142Y-98950202D01*
X172497142Y-98950202D02*
X172436665Y-99010678D01*
X172436665Y-99010678D02*
X172376189Y-99131630D01*
X172376189Y-99131630D02*
X172376189Y-99313059D01*
X172376189Y-99313059D02*
X172436665Y-99434011D01*
X172436665Y-99434011D02*
X172497142Y-99494488D01*
X172497142Y-99494488D02*
X172618094Y-99554964D01*
X172618094Y-99554964D02*
X173101904Y-99554964D01*
X171166665Y-100159726D02*
X171892380Y-100159726D01*
X171529523Y-100159726D02*
X171529523Y-98889726D01*
X171529523Y-98889726D02*
X171650475Y-99071154D01*
X171650475Y-99071154D02*
X171771427Y-99192107D01*
X171771427Y-99192107D02*
X171892380Y-99252583D01*
X169715237Y-100099250D02*
X169594284Y-100159726D01*
X169594284Y-100159726D02*
X169352380Y-100159726D01*
X169352380Y-100159726D02*
X169231427Y-100099250D01*
X169231427Y-100099250D02*
X169170951Y-99978297D01*
X169170951Y-99978297D02*
X169170951Y-99917821D01*
X169170951Y-99917821D02*
X169231427Y-99796869D01*
X169231427Y-99796869D02*
X169352380Y-99736392D01*
X169352380Y-99736392D02*
X169533808Y-99736392D01*
X169533808Y-99736392D02*
X169654761Y-99675916D01*
X169654761Y-99675916D02*
X169715237Y-99554964D01*
X169715237Y-99554964D02*
X169715237Y-99494488D01*
X169715237Y-99494488D02*
X169654761Y-99373535D01*
X169654761Y-99373535D02*
X169533808Y-99313059D01*
X169533808Y-99313059D02*
X169352380Y-99313059D01*
X169352380Y-99313059D02*
X169231427Y-99373535D01*
X168445237Y-100159726D02*
X168566189Y-100099250D01*
X168566189Y-100099250D02*
X168626666Y-100038773D01*
X168626666Y-100038773D02*
X168687142Y-99917821D01*
X168687142Y-99917821D02*
X168687142Y-99554964D01*
X168687142Y-99554964D02*
X168626666Y-99434011D01*
X168626666Y-99434011D02*
X168566189Y-99373535D01*
X168566189Y-99373535D02*
X168445237Y-99313059D01*
X168445237Y-99313059D02*
X168263808Y-99313059D01*
X168263808Y-99313059D02*
X168142856Y-99373535D01*
X168142856Y-99373535D02*
X168082380Y-99434011D01*
X168082380Y-99434011D02*
X168021904Y-99554964D01*
X168021904Y-99554964D02*
X168021904Y-99917821D01*
X168021904Y-99917821D02*
X168082380Y-100038773D01*
X168082380Y-100038773D02*
X168142856Y-100099250D01*
X168142856Y-100099250D02*
X168263808Y-100159726D01*
X168263808Y-100159726D02*
X168445237Y-100159726D01*
X166933332Y-100099250D02*
X167054284Y-100159726D01*
X167054284Y-100159726D02*
X167296189Y-100159726D01*
X167296189Y-100159726D02*
X167417141Y-100099250D01*
X167417141Y-100099250D02*
X167477618Y-100038773D01*
X167477618Y-100038773D02*
X167538094Y-99917821D01*
X167538094Y-99917821D02*
X167538094Y-99554964D01*
X167538094Y-99554964D02*
X167477618Y-99434011D01*
X167477618Y-99434011D02*
X167417141Y-99373535D01*
X167417141Y-99373535D02*
X167296189Y-99313059D01*
X167296189Y-99313059D02*
X167054284Y-99313059D01*
X167054284Y-99313059D02*
X166933332Y-99373535D01*
X166389047Y-100159726D02*
X166389047Y-98889726D01*
X166268094Y-99675916D02*
X165905237Y-100159726D01*
X165905237Y-99313059D02*
X166389047Y-99796869D01*
X164877142Y-100099250D02*
X164998094Y-100159726D01*
X164998094Y-100159726D02*
X165239999Y-100159726D01*
X165239999Y-100159726D02*
X165360952Y-100099250D01*
X165360952Y-100099250D02*
X165421428Y-99978297D01*
X165421428Y-99978297D02*
X165421428Y-99494488D01*
X165421428Y-99494488D02*
X165360952Y-99373535D01*
X165360952Y-99373535D02*
X165239999Y-99313059D01*
X165239999Y-99313059D02*
X164998094Y-99313059D01*
X164998094Y-99313059D02*
X164877142Y-99373535D01*
X164877142Y-99373535D02*
X164816666Y-99494488D01*
X164816666Y-99494488D02*
X164816666Y-99615440D01*
X164816666Y-99615440D02*
X165421428Y-99736392D01*
X164453809Y-99313059D02*
X163970000Y-99313059D01*
X164272381Y-98889726D02*
X164272381Y-99978297D01*
X164272381Y-99978297D02*
X164211904Y-100099250D01*
X164211904Y-100099250D02*
X164090952Y-100159726D01*
X164090952Y-100159726D02*
X163970000Y-100159726D01*
X162639524Y-99010678D02*
X162579048Y-98950202D01*
X162579048Y-98950202D02*
X162458095Y-98889726D01*
X162458095Y-98889726D02*
X162155714Y-98889726D01*
X162155714Y-98889726D02*
X162034762Y-98950202D01*
X162034762Y-98950202D02*
X161974286Y-99010678D01*
X161974286Y-99010678D02*
X161913809Y-99131630D01*
X161913809Y-99131630D02*
X161913809Y-99252583D01*
X161913809Y-99252583D02*
X161974286Y-99434011D01*
X161974286Y-99434011D02*
X162700000Y-100159726D01*
X162700000Y-100159726D02*
X161913809Y-100159726D01*
X161490476Y-100159726D02*
X160825238Y-99313059D01*
X161490476Y-99313059D02*
X160825238Y-100159726D01*
X159676190Y-100159726D02*
X160401905Y-100159726D01*
X160039048Y-100159726D02*
X160039048Y-98889726D01*
X160039048Y-98889726D02*
X160160000Y-99071154D01*
X160160000Y-99071154D02*
X160280952Y-99192107D01*
X160280952Y-99192107D02*
X160401905Y-99252583D01*
X158950476Y-99434011D02*
X159071428Y-99373535D01*
X159071428Y-99373535D02*
X159131905Y-99313059D01*
X159131905Y-99313059D02*
X159192381Y-99192107D01*
X159192381Y-99192107D02*
X159192381Y-99131630D01*
X159192381Y-99131630D02*
X159131905Y-99010678D01*
X159131905Y-99010678D02*
X159071428Y-98950202D01*
X159071428Y-98950202D02*
X158950476Y-98889726D01*
X158950476Y-98889726D02*
X158708571Y-98889726D01*
X158708571Y-98889726D02*
X158587619Y-98950202D01*
X158587619Y-98950202D02*
X158527143Y-99010678D01*
X158527143Y-99010678D02*
X158466666Y-99131630D01*
X158466666Y-99131630D02*
X158466666Y-99192107D01*
X158466666Y-99192107D02*
X158527143Y-99313059D01*
X158527143Y-99313059D02*
X158587619Y-99373535D01*
X158587619Y-99373535D02*
X158708571Y-99434011D01*
X158708571Y-99434011D02*
X158950476Y-99434011D01*
X158950476Y-99434011D02*
X159071428Y-99494488D01*
X159071428Y-99494488D02*
X159131905Y-99554964D01*
X159131905Y-99554964D02*
X159192381Y-99675916D01*
X159192381Y-99675916D02*
X159192381Y-99917821D01*
X159192381Y-99917821D02*
X159131905Y-100038773D01*
X159131905Y-100038773D02*
X159071428Y-100099250D01*
X159071428Y-100099250D02*
X158950476Y-100159726D01*
X158950476Y-100159726D02*
X158708571Y-100159726D01*
X158708571Y-100159726D02*
X158587619Y-100099250D01*
X158587619Y-100099250D02*
X158527143Y-100038773D01*
X158527143Y-100038773D02*
X158466666Y-99917821D01*
X158466666Y-99917821D02*
X158466666Y-99675916D01*
X158466666Y-99675916D02*
X158527143Y-99554964D01*
X158527143Y-99554964D02*
X158587619Y-99494488D01*
X158587619Y-99494488D02*
X158708571Y-99434011D01*
X157015238Y-99010678D02*
X156954762Y-98950202D01*
X156954762Y-98950202D02*
X156833809Y-98889726D01*
X156833809Y-98889726D02*
X156531428Y-98889726D01*
X156531428Y-98889726D02*
X156410476Y-98950202D01*
X156410476Y-98950202D02*
X156350000Y-99010678D01*
X156350000Y-99010678D02*
X156289523Y-99131630D01*
X156289523Y-99131630D02*
X156289523Y-99252583D01*
X156289523Y-99252583D02*
X156350000Y-99434011D01*
X156350000Y-99434011D02*
X157075714Y-100159726D01*
X157075714Y-100159726D02*
X156289523Y-100159726D01*
X155745238Y-100038773D02*
X155684761Y-100099250D01*
X155684761Y-100099250D02*
X155745238Y-100159726D01*
X155745238Y-100159726D02*
X155805714Y-100099250D01*
X155805714Y-100099250D02*
X155745238Y-100038773D01*
X155745238Y-100038773D02*
X155745238Y-100159726D01*
X154535714Y-98889726D02*
X155140476Y-98889726D01*
X155140476Y-98889726D02*
X155200952Y-99494488D01*
X155200952Y-99494488D02*
X155140476Y-99434011D01*
X155140476Y-99434011D02*
X155019523Y-99373535D01*
X155019523Y-99373535D02*
X154717142Y-99373535D01*
X154717142Y-99373535D02*
X154596190Y-99434011D01*
X154596190Y-99434011D02*
X154535714Y-99494488D01*
X154535714Y-99494488D02*
X154475237Y-99615440D01*
X154475237Y-99615440D02*
X154475237Y-99917821D01*
X154475237Y-99917821D02*
X154535714Y-100038773D01*
X154535714Y-100038773D02*
X154596190Y-100099250D01*
X154596190Y-100099250D02*
X154717142Y-100159726D01*
X154717142Y-100159726D02*
X155019523Y-100159726D01*
X155019523Y-100159726D02*
X155140476Y-100099250D01*
X155140476Y-100099250D02*
X155200952Y-100038773D01*
X153386666Y-99313059D02*
X153386666Y-100159726D01*
X153689047Y-98829250D02*
X153991428Y-99736392D01*
X153991428Y-99736392D02*
X153205237Y-99736392D01*
X152721428Y-100159726D02*
X152721428Y-99313059D01*
X152721428Y-99434011D02*
X152660951Y-99373535D01*
X152660951Y-99373535D02*
X152539999Y-99313059D01*
X152539999Y-99313059D02*
X152358570Y-99313059D01*
X152358570Y-99313059D02*
X152237618Y-99373535D01*
X152237618Y-99373535D02*
X152177142Y-99494488D01*
X152177142Y-99494488D02*
X152177142Y-100159726D01*
X152177142Y-99494488D02*
X152116666Y-99373535D01*
X152116666Y-99373535D02*
X151995713Y-99313059D01*
X151995713Y-99313059D02*
X151814285Y-99313059D01*
X151814285Y-99313059D02*
X151693332Y-99373535D01*
X151693332Y-99373535D02*
X151632856Y-99494488D01*
X151632856Y-99494488D02*
X151632856Y-100159726D01*
X151028095Y-100159726D02*
X151028095Y-99313059D01*
X151028095Y-99434011D02*
X150967618Y-99373535D01*
X150967618Y-99373535D02*
X150846666Y-99313059D01*
X150846666Y-99313059D02*
X150665237Y-99313059D01*
X150665237Y-99313059D02*
X150544285Y-99373535D01*
X150544285Y-99373535D02*
X150483809Y-99494488D01*
X150483809Y-99494488D02*
X150483809Y-100159726D01*
X150483809Y-99494488D02*
X150423333Y-99373535D01*
X150423333Y-99373535D02*
X150302380Y-99313059D01*
X150302380Y-99313059D02*
X150120952Y-99313059D01*
X150120952Y-99313059D02*
X149999999Y-99373535D01*
X149999999Y-99373535D02*
X149939523Y-99494488D01*
X149939523Y-99494488D02*
X149939523Y-100159726D01*
X148548571Y-98889726D02*
X147822857Y-98889726D01*
X148185714Y-100159726D02*
X148185714Y-98889726D01*
X147399524Y-100159726D02*
X147399524Y-98889726D01*
X147399524Y-99494488D02*
X146673809Y-99494488D01*
X146673809Y-100159726D02*
X146673809Y-98889726D01*
X145222381Y-99736392D02*
X144133810Y-99736392D01*
X142803333Y-99313059D02*
X142500952Y-100159726D01*
X142500952Y-100159726D02*
X142198571Y-99313059D01*
X141230952Y-100099250D02*
X141351904Y-100159726D01*
X141351904Y-100159726D02*
X141593809Y-100159726D01*
X141593809Y-100159726D02*
X141714762Y-100099250D01*
X141714762Y-100099250D02*
X141775238Y-99978297D01*
X141775238Y-99978297D02*
X141775238Y-99494488D01*
X141775238Y-99494488D02*
X141714762Y-99373535D01*
X141714762Y-99373535D02*
X141593809Y-99313059D01*
X141593809Y-99313059D02*
X141351904Y-99313059D01*
X141351904Y-99313059D02*
X141230952Y-99373535D01*
X141230952Y-99373535D02*
X141170476Y-99494488D01*
X141170476Y-99494488D02*
X141170476Y-99615440D01*
X141170476Y-99615440D02*
X141775238Y-99736392D01*
X140626191Y-100159726D02*
X140626191Y-99313059D01*
X140626191Y-99554964D02*
X140565714Y-99434011D01*
X140565714Y-99434011D02*
X140505238Y-99373535D01*
X140505238Y-99373535D02*
X140384286Y-99313059D01*
X140384286Y-99313059D02*
X140263333Y-99313059D01*
X139840001Y-100159726D02*
X139840001Y-99313059D01*
X139840001Y-98889726D02*
X139900477Y-98950202D01*
X139900477Y-98950202D02*
X139840001Y-99010678D01*
X139840001Y-99010678D02*
X139779524Y-98950202D01*
X139779524Y-98950202D02*
X139840001Y-98889726D01*
X139840001Y-98889726D02*
X139840001Y-99010678D01*
X139416667Y-99313059D02*
X138932858Y-99313059D01*
X139235239Y-100159726D02*
X139235239Y-99071154D01*
X139235239Y-99071154D02*
X139174762Y-98950202D01*
X139174762Y-98950202D02*
X139053810Y-98889726D01*
X139053810Y-98889726D02*
X138932858Y-98889726D01*
X138630477Y-99313059D02*
X138328096Y-100159726D01*
X138025715Y-99313059D02*
X138328096Y-100159726D01*
X138328096Y-100159726D02*
X138449048Y-100462107D01*
X138449048Y-100462107D02*
X138509525Y-100522583D01*
X138509525Y-100522583D02*
X138630477Y-100583059D01*
X136574287Y-99313059D02*
X136574287Y-100583059D01*
X136574287Y-99373535D02*
X136453334Y-99313059D01*
X136453334Y-99313059D02*
X136211429Y-99313059D01*
X136211429Y-99313059D02*
X136090477Y-99373535D01*
X136090477Y-99373535D02*
X136030001Y-99434011D01*
X136030001Y-99434011D02*
X135969525Y-99554964D01*
X135969525Y-99554964D02*
X135969525Y-99917821D01*
X135969525Y-99917821D02*
X136030001Y-100038773D01*
X136030001Y-100038773D02*
X136090477Y-100099250D01*
X136090477Y-100099250D02*
X136211429Y-100159726D01*
X136211429Y-100159726D02*
X136453334Y-100159726D01*
X136453334Y-100159726D02*
X136574287Y-100099250D01*
X135425239Y-100159726D02*
X135425239Y-99313059D01*
X135425239Y-98889726D02*
X135485715Y-98950202D01*
X135485715Y-98950202D02*
X135425239Y-99010678D01*
X135425239Y-99010678D02*
X135364762Y-98950202D01*
X135364762Y-98950202D02*
X135425239Y-98889726D01*
X135425239Y-98889726D02*
X135425239Y-99010678D01*
X134820477Y-99313059D02*
X134820477Y-100159726D01*
X134820477Y-99434011D02*
X134760000Y-99373535D01*
X134760000Y-99373535D02*
X134639048Y-99313059D01*
X134639048Y-99313059D02*
X134457619Y-99313059D01*
X134457619Y-99313059D02*
X134336667Y-99373535D01*
X134336667Y-99373535D02*
X134276191Y-99494488D01*
X134276191Y-99494488D02*
X134276191Y-100159726D01*
X132703810Y-100159726D02*
X132703810Y-99313059D01*
X132703810Y-99434011D02*
X132643333Y-99373535D01*
X132643333Y-99373535D02*
X132522381Y-99313059D01*
X132522381Y-99313059D02*
X132340952Y-99313059D01*
X132340952Y-99313059D02*
X132220000Y-99373535D01*
X132220000Y-99373535D02*
X132159524Y-99494488D01*
X132159524Y-99494488D02*
X132159524Y-100159726D01*
X132159524Y-99494488D02*
X132099048Y-99373535D01*
X132099048Y-99373535D02*
X131978095Y-99313059D01*
X131978095Y-99313059D02*
X131796667Y-99313059D01*
X131796667Y-99313059D02*
X131675714Y-99373535D01*
X131675714Y-99373535D02*
X131615238Y-99494488D01*
X131615238Y-99494488D02*
X131615238Y-100159726D01*
X130466191Y-100159726D02*
X130466191Y-99494488D01*
X130466191Y-99494488D02*
X130526667Y-99373535D01*
X130526667Y-99373535D02*
X130647619Y-99313059D01*
X130647619Y-99313059D02*
X130889524Y-99313059D01*
X130889524Y-99313059D02*
X131010477Y-99373535D01*
X130466191Y-100099250D02*
X130587143Y-100159726D01*
X130587143Y-100159726D02*
X130889524Y-100159726D01*
X130889524Y-100159726D02*
X131010477Y-100099250D01*
X131010477Y-100099250D02*
X131070953Y-99978297D01*
X131070953Y-99978297D02*
X131070953Y-99857345D01*
X131070953Y-99857345D02*
X131010477Y-99736392D01*
X131010477Y-99736392D02*
X130889524Y-99675916D01*
X130889524Y-99675916D02*
X130587143Y-99675916D01*
X130587143Y-99675916D02*
X130466191Y-99615440D01*
X129861429Y-99313059D02*
X129861429Y-100583059D01*
X129861429Y-99373535D02*
X129740476Y-99313059D01*
X129740476Y-99313059D02*
X129498571Y-99313059D01*
X129498571Y-99313059D02*
X129377619Y-99373535D01*
X129377619Y-99373535D02*
X129317143Y-99434011D01*
X129317143Y-99434011D02*
X129256667Y-99554964D01*
X129256667Y-99554964D02*
X129256667Y-99917821D01*
X129256667Y-99917821D02*
X129317143Y-100038773D01*
X129317143Y-100038773D02*
X129377619Y-100099250D01*
X129377619Y-100099250D02*
X129498571Y-100159726D01*
X129498571Y-100159726D02*
X129740476Y-100159726D01*
X129740476Y-100159726D02*
X129861429Y-100099250D01*
X128712381Y-99313059D02*
X128712381Y-100583059D01*
X128712381Y-99373535D02*
X128591428Y-99313059D01*
X128591428Y-99313059D02*
X128349523Y-99313059D01*
X128349523Y-99313059D02*
X128228571Y-99373535D01*
X128228571Y-99373535D02*
X128168095Y-99434011D01*
X128168095Y-99434011D02*
X128107619Y-99554964D01*
X128107619Y-99554964D02*
X128107619Y-99917821D01*
X128107619Y-99917821D02*
X128168095Y-100038773D01*
X128168095Y-100038773D02*
X128228571Y-100099250D01*
X128228571Y-100099250D02*
X128349523Y-100159726D01*
X128349523Y-100159726D02*
X128591428Y-100159726D01*
X128591428Y-100159726D02*
X128712381Y-100099250D01*
X127563333Y-100159726D02*
X127563333Y-99313059D01*
X127563333Y-98889726D02*
X127623809Y-98950202D01*
X127623809Y-98950202D02*
X127563333Y-99010678D01*
X127563333Y-99010678D02*
X127502856Y-98950202D01*
X127502856Y-98950202D02*
X127563333Y-98889726D01*
X127563333Y-98889726D02*
X127563333Y-99010678D01*
X126958571Y-99313059D02*
X126958571Y-100159726D01*
X126958571Y-99434011D02*
X126898094Y-99373535D01*
X126898094Y-99373535D02*
X126777142Y-99313059D01*
X126777142Y-99313059D02*
X126595713Y-99313059D01*
X126595713Y-99313059D02*
X126474761Y-99373535D01*
X126474761Y-99373535D02*
X126414285Y-99494488D01*
X126414285Y-99494488D02*
X126414285Y-100159726D01*
X125265237Y-99313059D02*
X125265237Y-100341154D01*
X125265237Y-100341154D02*
X125325713Y-100462107D01*
X125325713Y-100462107D02*
X125386189Y-100522583D01*
X125386189Y-100522583D02*
X125507142Y-100583059D01*
X125507142Y-100583059D02*
X125688570Y-100583059D01*
X125688570Y-100583059D02*
X125809523Y-100522583D01*
X125265237Y-100099250D02*
X125386189Y-100159726D01*
X125386189Y-100159726D02*
X125628094Y-100159726D01*
X125628094Y-100159726D02*
X125749046Y-100099250D01*
X125749046Y-100099250D02*
X125809523Y-100038773D01*
X125809523Y-100038773D02*
X125869999Y-99917821D01*
X125869999Y-99917821D02*
X125869999Y-99554964D01*
X125869999Y-99554964D02*
X125809523Y-99434011D01*
X125809523Y-99434011D02*
X125749046Y-99373535D01*
X125749046Y-99373535D02*
X125628094Y-99313059D01*
X125628094Y-99313059D02*
X125386189Y-99313059D01*
X125386189Y-99313059D02*
X125265237Y-99373535D01*
X123874284Y-99313059D02*
X123390475Y-99313059D01*
X123692856Y-100159726D02*
X123692856Y-99071154D01*
X123692856Y-99071154D02*
X123632379Y-98950202D01*
X123632379Y-98950202D02*
X123511427Y-98889726D01*
X123511427Y-98889726D02*
X123390475Y-98889726D01*
X122967142Y-100159726D02*
X122967142Y-99313059D01*
X122967142Y-99554964D02*
X122906665Y-99434011D01*
X122906665Y-99434011D02*
X122846189Y-99373535D01*
X122846189Y-99373535D02*
X122725237Y-99313059D01*
X122725237Y-99313059D02*
X122604284Y-99313059D01*
X121999523Y-100159726D02*
X122120475Y-100099250D01*
X122120475Y-100099250D02*
X122180952Y-100038773D01*
X122180952Y-100038773D02*
X122241428Y-99917821D01*
X122241428Y-99917821D02*
X122241428Y-99554964D01*
X122241428Y-99554964D02*
X122180952Y-99434011D01*
X122180952Y-99434011D02*
X122120475Y-99373535D01*
X122120475Y-99373535D02*
X121999523Y-99313059D01*
X121999523Y-99313059D02*
X121818094Y-99313059D01*
X121818094Y-99313059D02*
X121697142Y-99373535D01*
X121697142Y-99373535D02*
X121636666Y-99434011D01*
X121636666Y-99434011D02*
X121576190Y-99554964D01*
X121576190Y-99554964D02*
X121576190Y-99917821D01*
X121576190Y-99917821D02*
X121636666Y-100038773D01*
X121636666Y-100038773D02*
X121697142Y-100099250D01*
X121697142Y-100099250D02*
X121818094Y-100159726D01*
X121818094Y-100159726D02*
X121999523Y-100159726D01*
X121031904Y-100159726D02*
X121031904Y-99313059D01*
X121031904Y-99434011D02*
X120971427Y-99373535D01*
X120971427Y-99373535D02*
X120850475Y-99313059D01*
X120850475Y-99313059D02*
X120669046Y-99313059D01*
X120669046Y-99313059D02*
X120548094Y-99373535D01*
X120548094Y-99373535D02*
X120487618Y-99494488D01*
X120487618Y-99494488D02*
X120487618Y-100159726D01*
X120487618Y-99494488D02*
X120427142Y-99373535D01*
X120427142Y-99373535D02*
X120306189Y-99313059D01*
X120306189Y-99313059D02*
X120124761Y-99313059D01*
X120124761Y-99313059D02*
X120003808Y-99373535D01*
X120003808Y-99373535D02*
X119943332Y-99494488D01*
X119943332Y-99494488D02*
X119943332Y-100159726D01*
X118431428Y-99796869D02*
X117826666Y-99796869D01*
X118552380Y-100159726D02*
X118129047Y-98889726D01*
X118129047Y-98889726D02*
X117705713Y-100159726D01*
X117282381Y-100159726D02*
X117282381Y-98889726D01*
X117282381Y-98889726D02*
X116859047Y-99796869D01*
X116859047Y-99796869D02*
X116435714Y-98889726D01*
X116435714Y-98889726D02*
X116435714Y-100159726D01*
X115286666Y-98889726D02*
X115528571Y-98889726D01*
X115528571Y-98889726D02*
X115649523Y-98950202D01*
X115649523Y-98950202D02*
X115709999Y-99010678D01*
X115709999Y-99010678D02*
X115830952Y-99192107D01*
X115830952Y-99192107D02*
X115891428Y-99434011D01*
X115891428Y-99434011D02*
X115891428Y-99917821D01*
X115891428Y-99917821D02*
X115830952Y-100038773D01*
X115830952Y-100038773D02*
X115770475Y-100099250D01*
X115770475Y-100099250D02*
X115649523Y-100159726D01*
X115649523Y-100159726D02*
X115407618Y-100159726D01*
X115407618Y-100159726D02*
X115286666Y-100099250D01*
X115286666Y-100099250D02*
X115226190Y-100038773D01*
X115226190Y-100038773D02*
X115165713Y-99917821D01*
X115165713Y-99917821D02*
X115165713Y-99615440D01*
X115165713Y-99615440D02*
X115226190Y-99494488D01*
X115226190Y-99494488D02*
X115286666Y-99434011D01*
X115286666Y-99434011D02*
X115407618Y-99373535D01*
X115407618Y-99373535D02*
X115649523Y-99373535D01*
X115649523Y-99373535D02*
X115770475Y-99434011D01*
X115770475Y-99434011D02*
X115830952Y-99494488D01*
X115830952Y-99494488D02*
X115891428Y-99615440D01*
X114681904Y-99010678D02*
X114621428Y-98950202D01*
X114621428Y-98950202D02*
X114500475Y-98889726D01*
X114500475Y-98889726D02*
X114198094Y-98889726D01*
X114198094Y-98889726D02*
X114077142Y-98950202D01*
X114077142Y-98950202D02*
X114016666Y-99010678D01*
X114016666Y-99010678D02*
X113956189Y-99131630D01*
X113956189Y-99131630D02*
X113956189Y-99252583D01*
X113956189Y-99252583D02*
X114016666Y-99434011D01*
X114016666Y-99434011D02*
X114742380Y-100159726D01*
X114742380Y-100159726D02*
X113956189Y-100159726D01*
X112807142Y-98889726D02*
X113411904Y-98889726D01*
X113411904Y-98889726D02*
X113472380Y-99494488D01*
X113472380Y-99494488D02*
X113411904Y-99434011D01*
X113411904Y-99434011D02*
X113290951Y-99373535D01*
X113290951Y-99373535D02*
X112988570Y-99373535D01*
X112988570Y-99373535D02*
X112867618Y-99434011D01*
X112867618Y-99434011D02*
X112807142Y-99494488D01*
X112807142Y-99494488D02*
X112746665Y-99615440D01*
X112746665Y-99615440D02*
X112746665Y-99917821D01*
X112746665Y-99917821D02*
X112807142Y-100038773D01*
X112807142Y-100038773D02*
X112867618Y-100099250D01*
X112867618Y-100099250D02*
X112988570Y-100159726D01*
X112988570Y-100159726D02*
X113290951Y-100159726D01*
X113290951Y-100159726D02*
X113411904Y-100099250D01*
X113411904Y-100099250D02*
X113472380Y-100038773D01*
X111658094Y-99313059D02*
X111658094Y-100159726D01*
X111960475Y-98829250D02*
X112262856Y-99736392D01*
X112262856Y-99736392D02*
X111476665Y-99736392D01*
X110085713Y-100099250D02*
X109964760Y-100159726D01*
X109964760Y-100159726D02*
X109722856Y-100159726D01*
X109722856Y-100159726D02*
X109601903Y-100099250D01*
X109601903Y-100099250D02*
X109541427Y-99978297D01*
X109541427Y-99978297D02*
X109541427Y-99917821D01*
X109541427Y-99917821D02*
X109601903Y-99796869D01*
X109601903Y-99796869D02*
X109722856Y-99736392D01*
X109722856Y-99736392D02*
X109904284Y-99736392D01*
X109904284Y-99736392D02*
X110025237Y-99675916D01*
X110025237Y-99675916D02*
X110085713Y-99554964D01*
X110085713Y-99554964D02*
X110085713Y-99494488D01*
X110085713Y-99494488D02*
X110025237Y-99373535D01*
X110025237Y-99373535D02*
X109904284Y-99313059D01*
X109904284Y-99313059D02*
X109722856Y-99313059D01*
X109722856Y-99313059D02*
X109601903Y-99373535D01*
X108452856Y-100099250D02*
X108573808Y-100159726D01*
X108573808Y-100159726D02*
X108815713Y-100159726D01*
X108815713Y-100159726D02*
X108936665Y-100099250D01*
X108936665Y-100099250D02*
X108997142Y-100038773D01*
X108997142Y-100038773D02*
X109057618Y-99917821D01*
X109057618Y-99917821D02*
X109057618Y-99554964D01*
X109057618Y-99554964D02*
X108997142Y-99434011D01*
X108997142Y-99434011D02*
X108936665Y-99373535D01*
X108936665Y-99373535D02*
X108815713Y-99313059D01*
X108815713Y-99313059D02*
X108573808Y-99313059D01*
X108573808Y-99313059D02*
X108452856Y-99373535D01*
X107908571Y-100159726D02*
X107908571Y-98889726D01*
X107364285Y-100159726D02*
X107364285Y-99494488D01*
X107364285Y-99494488D02*
X107424761Y-99373535D01*
X107424761Y-99373535D02*
X107545713Y-99313059D01*
X107545713Y-99313059D02*
X107727142Y-99313059D01*
X107727142Y-99313059D02*
X107848094Y-99373535D01*
X107848094Y-99373535D02*
X107908571Y-99434011D01*
X106275713Y-100099250D02*
X106396665Y-100159726D01*
X106396665Y-100159726D02*
X106638570Y-100159726D01*
X106638570Y-100159726D02*
X106759523Y-100099250D01*
X106759523Y-100099250D02*
X106819999Y-99978297D01*
X106819999Y-99978297D02*
X106819999Y-99494488D01*
X106819999Y-99494488D02*
X106759523Y-99373535D01*
X106759523Y-99373535D02*
X106638570Y-99313059D01*
X106638570Y-99313059D02*
X106396665Y-99313059D01*
X106396665Y-99313059D02*
X106275713Y-99373535D01*
X106275713Y-99373535D02*
X106215237Y-99494488D01*
X106215237Y-99494488D02*
X106215237Y-99615440D01*
X106215237Y-99615440D02*
X106819999Y-99736392D01*
X105670952Y-100159726D02*
X105670952Y-99313059D01*
X105670952Y-99434011D02*
X105610475Y-99373535D01*
X105610475Y-99373535D02*
X105489523Y-99313059D01*
X105489523Y-99313059D02*
X105308094Y-99313059D01*
X105308094Y-99313059D02*
X105187142Y-99373535D01*
X105187142Y-99373535D02*
X105126666Y-99494488D01*
X105126666Y-99494488D02*
X105126666Y-100159726D01*
X105126666Y-99494488D02*
X105066190Y-99373535D01*
X105066190Y-99373535D02*
X104945237Y-99313059D01*
X104945237Y-99313059D02*
X104763809Y-99313059D01*
X104763809Y-99313059D02*
X104642856Y-99373535D01*
X104642856Y-99373535D02*
X104582380Y-99494488D01*
X104582380Y-99494488D02*
X104582380Y-100159726D01*
X103433333Y-100159726D02*
X103433333Y-99494488D01*
X103433333Y-99494488D02*
X103493809Y-99373535D01*
X103493809Y-99373535D02*
X103614761Y-99313059D01*
X103614761Y-99313059D02*
X103856666Y-99313059D01*
X103856666Y-99313059D02*
X103977619Y-99373535D01*
X103433333Y-100099250D02*
X103554285Y-100159726D01*
X103554285Y-100159726D02*
X103856666Y-100159726D01*
X103856666Y-100159726D02*
X103977619Y-100099250D01*
X103977619Y-100099250D02*
X104038095Y-99978297D01*
X104038095Y-99978297D02*
X104038095Y-99857345D01*
X104038095Y-99857345D02*
X103977619Y-99736392D01*
X103977619Y-99736392D02*
X103856666Y-99675916D01*
X103856666Y-99675916D02*
X103554285Y-99675916D01*
X103554285Y-99675916D02*
X103433333Y-99615440D01*
X103009999Y-99313059D02*
X102526190Y-99313059D01*
X102828571Y-98889726D02*
X102828571Y-99978297D01*
X102828571Y-99978297D02*
X102768094Y-100099250D01*
X102768094Y-100099250D02*
X102647142Y-100159726D01*
X102647142Y-100159726D02*
X102526190Y-100159726D01*
X102102857Y-100159726D02*
X102102857Y-99313059D01*
X102102857Y-98889726D02*
X102163333Y-98950202D01*
X102163333Y-98950202D02*
X102102857Y-99010678D01*
X102102857Y-99010678D02*
X102042380Y-98950202D01*
X102042380Y-98950202D02*
X102102857Y-98889726D01*
X102102857Y-98889726D02*
X102102857Y-99010678D01*
X100953809Y-100099250D02*
X101074761Y-100159726D01*
X101074761Y-100159726D02*
X101316666Y-100159726D01*
X101316666Y-100159726D02*
X101437618Y-100099250D01*
X101437618Y-100099250D02*
X101498095Y-100038773D01*
X101498095Y-100038773D02*
X101558571Y-99917821D01*
X101558571Y-99917821D02*
X101558571Y-99554964D01*
X101558571Y-99554964D02*
X101498095Y-99434011D01*
X101498095Y-99434011D02*
X101437618Y-99373535D01*
X101437618Y-99373535D02*
X101316666Y-99313059D01*
X101316666Y-99313059D02*
X101074761Y-99313059D01*
X101074761Y-99313059D02*
X100953809Y-99373535D01*
X148189285Y-111069104D02*
X147713095Y-111069104D01*
X148284523Y-111354819D02*
X147951190Y-110354819D01*
X147951190Y-110354819D02*
X147617857Y-111354819D01*
X147284523Y-111354819D02*
X147284523Y-110354819D01*
X147284523Y-110354819D02*
X147046428Y-110354819D01*
X147046428Y-110354819D02*
X146903571Y-110402438D01*
X146903571Y-110402438D02*
X146808333Y-110497676D01*
X146808333Y-110497676D02*
X146760714Y-110592914D01*
X146760714Y-110592914D02*
X146713095Y-110783390D01*
X146713095Y-110783390D02*
X146713095Y-110926247D01*
X146713095Y-110926247D02*
X146760714Y-111116723D01*
X146760714Y-111116723D02*
X146808333Y-111211961D01*
X146808333Y-111211961D02*
X146903571Y-111307200D01*
X146903571Y-111307200D02*
X147046428Y-111354819D01*
X147046428Y-111354819D02*
X147284523Y-111354819D01*
X146284523Y-111354819D02*
X146284523Y-110354819D01*
X146284523Y-110354819D02*
X145951190Y-111069104D01*
X145951190Y-111069104D02*
X145617857Y-110354819D01*
X145617857Y-110354819D02*
X145617857Y-111354819D01*
X145189285Y-110450057D02*
X145141666Y-110402438D01*
X145141666Y-110402438D02*
X145046428Y-110354819D01*
X145046428Y-110354819D02*
X144808333Y-110354819D01*
X144808333Y-110354819D02*
X144713095Y-110402438D01*
X144713095Y-110402438D02*
X144665476Y-110450057D01*
X144665476Y-110450057D02*
X144617857Y-110545295D01*
X144617857Y-110545295D02*
X144617857Y-110640533D01*
X144617857Y-110640533D02*
X144665476Y-110783390D01*
X144665476Y-110783390D02*
X145236904Y-111354819D01*
X145236904Y-111354819D02*
X144617857Y-111354819D01*
X144284523Y-110354819D02*
X143617857Y-110354819D01*
X143617857Y-110354819D02*
X144046428Y-111354819D01*
X143189285Y-111354819D02*
X142998809Y-111354819D01*
X142998809Y-111354819D02*
X142903571Y-111307200D01*
X142903571Y-111307200D02*
X142855952Y-111259580D01*
X142855952Y-111259580D02*
X142760714Y-111116723D01*
X142760714Y-111116723D02*
X142713095Y-110926247D01*
X142713095Y-110926247D02*
X142713095Y-110545295D01*
X142713095Y-110545295D02*
X142760714Y-110450057D01*
X142760714Y-110450057D02*
X142808333Y-110402438D01*
X142808333Y-110402438D02*
X142903571Y-110354819D01*
X142903571Y-110354819D02*
X143094047Y-110354819D01*
X143094047Y-110354819D02*
X143189285Y-110402438D01*
X143189285Y-110402438D02*
X143236904Y-110450057D01*
X143236904Y-110450057D02*
X143284523Y-110545295D01*
X143284523Y-110545295D02*
X143284523Y-110783390D01*
X143284523Y-110783390D02*
X143236904Y-110878628D01*
X143236904Y-110878628D02*
X143189285Y-110926247D01*
X143189285Y-110926247D02*
X143094047Y-110973866D01*
X143094047Y-110973866D02*
X142903571Y-110973866D01*
X142903571Y-110973866D02*
X142808333Y-110926247D01*
X142808333Y-110926247D02*
X142760714Y-110878628D01*
X142760714Y-110878628D02*
X142713095Y-110783390D01*
X141808333Y-110354819D02*
X142284523Y-110354819D01*
X142284523Y-110354819D02*
X142332142Y-110831009D01*
X142332142Y-110831009D02*
X142284523Y-110783390D01*
X142284523Y-110783390D02*
X142189285Y-110735771D01*
X142189285Y-110735771D02*
X141951190Y-110735771D01*
X141951190Y-110735771D02*
X141855952Y-110783390D01*
X141855952Y-110783390D02*
X141808333Y-110831009D01*
X141808333Y-110831009D02*
X141760714Y-110926247D01*
X141760714Y-110926247D02*
X141760714Y-111164342D01*
X141760714Y-111164342D02*
X141808333Y-111259580D01*
X141808333Y-111259580D02*
X141855952Y-111307200D01*
X141855952Y-111307200D02*
X141951190Y-111354819D01*
X141951190Y-111354819D02*
X142189285Y-111354819D01*
X142189285Y-111354819D02*
X142284523Y-111307200D01*
X142284523Y-111307200D02*
X142332142Y-111259580D01*
X141332142Y-110831009D02*
X140998809Y-110831009D01*
X140855952Y-111354819D02*
X141332142Y-111354819D01*
X141332142Y-111354819D02*
X141332142Y-110354819D01*
X141332142Y-110354819D02*
X140855952Y-110354819D01*
X140094047Y-110831009D02*
X139951190Y-110878628D01*
X139951190Y-110878628D02*
X139903571Y-110926247D01*
X139903571Y-110926247D02*
X139855952Y-111021485D01*
X139855952Y-111021485D02*
X139855952Y-111164342D01*
X139855952Y-111164342D02*
X139903571Y-111259580D01*
X139903571Y-111259580D02*
X139951190Y-111307200D01*
X139951190Y-111307200D02*
X140046428Y-111354819D01*
X140046428Y-111354819D02*
X140427380Y-111354819D01*
X140427380Y-111354819D02*
X140427380Y-110354819D01*
X140427380Y-110354819D02*
X140094047Y-110354819D01*
X140094047Y-110354819D02*
X139998809Y-110402438D01*
X139998809Y-110402438D02*
X139951190Y-110450057D01*
X139951190Y-110450057D02*
X139903571Y-110545295D01*
X139903571Y-110545295D02*
X139903571Y-110640533D01*
X139903571Y-110640533D02*
X139951190Y-110735771D01*
X139951190Y-110735771D02*
X139998809Y-110783390D01*
X139998809Y-110783390D02*
X140094047Y-110831009D01*
X140094047Y-110831009D02*
X140427380Y-110831009D01*
X138855952Y-111354819D02*
X139189285Y-110878628D01*
X139427380Y-111354819D02*
X139427380Y-110354819D01*
X139427380Y-110354819D02*
X139046428Y-110354819D01*
X139046428Y-110354819D02*
X138951190Y-110402438D01*
X138951190Y-110402438D02*
X138903571Y-110450057D01*
X138903571Y-110450057D02*
X138855952Y-110545295D01*
X138855952Y-110545295D02*
X138855952Y-110688152D01*
X138855952Y-110688152D02*
X138903571Y-110783390D01*
X138903571Y-110783390D02*
X138951190Y-110831009D01*
X138951190Y-110831009D02*
X139046428Y-110878628D01*
X139046428Y-110878628D02*
X139427380Y-110878628D01*
X138522618Y-110354819D02*
X138284523Y-111354819D01*
X138284523Y-111354819D02*
X138094047Y-110640533D01*
X138094047Y-110640533D02*
X137903571Y-111354819D01*
X137903571Y-111354819D02*
X137665476Y-110354819D01*
X137379761Y-110354819D02*
X136713095Y-110354819D01*
X136713095Y-110354819D02*
X137379761Y-111354819D01*
X137379761Y-111354819D02*
X136713095Y-111354819D01*
X152579819Y-114271362D02*
X151579819Y-114271362D01*
X151579819Y-114271362D02*
X151579819Y-114509457D01*
X151579819Y-114509457D02*
X151627438Y-114652314D01*
X151627438Y-114652314D02*
X151722676Y-114747552D01*
X151722676Y-114747552D02*
X151817914Y-114795171D01*
X151817914Y-114795171D02*
X152008390Y-114842790D01*
X152008390Y-114842790D02*
X152151247Y-114842790D01*
X152151247Y-114842790D02*
X152341723Y-114795171D01*
X152341723Y-114795171D02*
X152436961Y-114747552D01*
X152436961Y-114747552D02*
X152532200Y-114652314D01*
X152532200Y-114652314D02*
X152579819Y-114509457D01*
X152579819Y-114509457D02*
X152579819Y-114271362D01*
X152579819Y-115842790D02*
X152103628Y-115509457D01*
X152579819Y-115271362D02*
X151579819Y-115271362D01*
X151579819Y-115271362D02*
X151579819Y-115652314D01*
X151579819Y-115652314D02*
X151627438Y-115747552D01*
X151627438Y-115747552D02*
X151675057Y-115795171D01*
X151675057Y-115795171D02*
X151770295Y-115842790D01*
X151770295Y-115842790D02*
X151913152Y-115842790D01*
X151913152Y-115842790D02*
X152008390Y-115795171D01*
X152008390Y-115795171D02*
X152056009Y-115747552D01*
X152056009Y-115747552D02*
X152103628Y-115652314D01*
X152103628Y-115652314D02*
X152103628Y-115271362D01*
X151579819Y-116128505D02*
X152579819Y-116461838D01*
X152579819Y-116461838D02*
X151579819Y-116795171D01*
X152008390Y-117271362D02*
X151960771Y-117176124D01*
X151960771Y-117176124D02*
X151913152Y-117128505D01*
X151913152Y-117128505D02*
X151817914Y-117080886D01*
X151817914Y-117080886D02*
X151770295Y-117080886D01*
X151770295Y-117080886D02*
X151675057Y-117128505D01*
X151675057Y-117128505D02*
X151627438Y-117176124D01*
X151627438Y-117176124D02*
X151579819Y-117271362D01*
X151579819Y-117271362D02*
X151579819Y-117461838D01*
X151579819Y-117461838D02*
X151627438Y-117557076D01*
X151627438Y-117557076D02*
X151675057Y-117604695D01*
X151675057Y-117604695D02*
X151770295Y-117652314D01*
X151770295Y-117652314D02*
X151817914Y-117652314D01*
X151817914Y-117652314D02*
X151913152Y-117604695D01*
X151913152Y-117604695D02*
X151960771Y-117557076D01*
X151960771Y-117557076D02*
X152008390Y-117461838D01*
X152008390Y-117461838D02*
X152008390Y-117271362D01*
X152008390Y-117271362D02*
X152056009Y-117176124D01*
X152056009Y-117176124D02*
X152103628Y-117128505D01*
X152103628Y-117128505D02*
X152198866Y-117080886D01*
X152198866Y-117080886D02*
X152389342Y-117080886D01*
X152389342Y-117080886D02*
X152484580Y-117128505D01*
X152484580Y-117128505D02*
X152532200Y-117176124D01*
X152532200Y-117176124D02*
X152579819Y-117271362D01*
X152579819Y-117271362D02*
X152579819Y-117461838D01*
X152579819Y-117461838D02*
X152532200Y-117557076D01*
X152532200Y-117557076D02*
X152484580Y-117604695D01*
X152484580Y-117604695D02*
X152389342Y-117652314D01*
X152389342Y-117652314D02*
X152198866Y-117652314D01*
X152198866Y-117652314D02*
X152103628Y-117604695D01*
X152103628Y-117604695D02*
X152056009Y-117557076D01*
X152056009Y-117557076D02*
X152008390Y-117461838D01*
X152008390Y-118223743D02*
X151960771Y-118128505D01*
X151960771Y-118128505D02*
X151913152Y-118080886D01*
X151913152Y-118080886D02*
X151817914Y-118033267D01*
X151817914Y-118033267D02*
X151770295Y-118033267D01*
X151770295Y-118033267D02*
X151675057Y-118080886D01*
X151675057Y-118080886D02*
X151627438Y-118128505D01*
X151627438Y-118128505D02*
X151579819Y-118223743D01*
X151579819Y-118223743D02*
X151579819Y-118414219D01*
X151579819Y-118414219D02*
X151627438Y-118509457D01*
X151627438Y-118509457D02*
X151675057Y-118557076D01*
X151675057Y-118557076D02*
X151770295Y-118604695D01*
X151770295Y-118604695D02*
X151817914Y-118604695D01*
X151817914Y-118604695D02*
X151913152Y-118557076D01*
X151913152Y-118557076D02*
X151960771Y-118509457D01*
X151960771Y-118509457D02*
X152008390Y-118414219D01*
X152008390Y-118414219D02*
X152008390Y-118223743D01*
X152008390Y-118223743D02*
X152056009Y-118128505D01*
X152056009Y-118128505D02*
X152103628Y-118080886D01*
X152103628Y-118080886D02*
X152198866Y-118033267D01*
X152198866Y-118033267D02*
X152389342Y-118033267D01*
X152389342Y-118033267D02*
X152484580Y-118080886D01*
X152484580Y-118080886D02*
X152532200Y-118128505D01*
X152532200Y-118128505D02*
X152579819Y-118223743D01*
X152579819Y-118223743D02*
X152579819Y-118414219D01*
X152579819Y-118414219D02*
X152532200Y-118509457D01*
X152532200Y-118509457D02*
X152484580Y-118557076D01*
X152484580Y-118557076D02*
X152389342Y-118604695D01*
X152389342Y-118604695D02*
X152198866Y-118604695D01*
X152198866Y-118604695D02*
X152103628Y-118557076D01*
X152103628Y-118557076D02*
X152056009Y-118509457D01*
X152056009Y-118509457D02*
X152008390Y-118414219D01*
X151579819Y-118938029D02*
X151579819Y-119557076D01*
X151579819Y-119557076D02*
X151960771Y-119223743D01*
X151960771Y-119223743D02*
X151960771Y-119366600D01*
X151960771Y-119366600D02*
X152008390Y-119461838D01*
X152008390Y-119461838D02*
X152056009Y-119509457D01*
X152056009Y-119509457D02*
X152151247Y-119557076D01*
X152151247Y-119557076D02*
X152389342Y-119557076D01*
X152389342Y-119557076D02*
X152484580Y-119509457D01*
X152484580Y-119509457D02*
X152532200Y-119461838D01*
X152532200Y-119461838D02*
X152579819Y-119366600D01*
X152579819Y-119366600D02*
X152579819Y-119080886D01*
X152579819Y-119080886D02*
X152532200Y-118985648D01*
X152532200Y-118985648D02*
X152484580Y-118938029D01*
X151579819Y-119890410D02*
X151579819Y-120509457D01*
X151579819Y-120509457D02*
X151960771Y-120176124D01*
X151960771Y-120176124D02*
X151960771Y-120318981D01*
X151960771Y-120318981D02*
X152008390Y-120414219D01*
X152008390Y-120414219D02*
X152056009Y-120461838D01*
X152056009Y-120461838D02*
X152151247Y-120509457D01*
X152151247Y-120509457D02*
X152389342Y-120509457D01*
X152389342Y-120509457D02*
X152484580Y-120461838D01*
X152484580Y-120461838D02*
X152532200Y-120414219D01*
X152532200Y-120414219D02*
X152579819Y-120318981D01*
X152579819Y-120318981D02*
X152579819Y-120033267D01*
X152579819Y-120033267D02*
X152532200Y-119938029D01*
X152532200Y-119938029D02*
X152484580Y-119890410D01*
X153079819Y-114842791D02*
X154079819Y-115080886D01*
X154079819Y-115080886D02*
X153365533Y-115271362D01*
X153365533Y-115271362D02*
X154079819Y-115461838D01*
X154079819Y-115461838D02*
X153079819Y-115699934D01*
X154079819Y-116080886D02*
X153079819Y-116080886D01*
X154079819Y-116557076D02*
X153079819Y-116557076D01*
X153079819Y-116557076D02*
X154079819Y-117128504D01*
X154079819Y-117128504D02*
X153079819Y-117128504D01*
X153984580Y-118176123D02*
X154032200Y-118128504D01*
X154032200Y-118128504D02*
X154079819Y-117985647D01*
X154079819Y-117985647D02*
X154079819Y-117890409D01*
X154079819Y-117890409D02*
X154032200Y-117747552D01*
X154032200Y-117747552D02*
X153936961Y-117652314D01*
X153936961Y-117652314D02*
X153841723Y-117604695D01*
X153841723Y-117604695D02*
X153651247Y-117557076D01*
X153651247Y-117557076D02*
X153508390Y-117557076D01*
X153508390Y-117557076D02*
X153317914Y-117604695D01*
X153317914Y-117604695D02*
X153222676Y-117652314D01*
X153222676Y-117652314D02*
X153127438Y-117747552D01*
X153127438Y-117747552D02*
X153079819Y-117890409D01*
X153079819Y-117890409D02*
X153079819Y-117985647D01*
X153079819Y-117985647D02*
X153127438Y-118128504D01*
X153127438Y-118128504D02*
X153175057Y-118176123D01*
X154079819Y-118604695D02*
X153079819Y-118604695D01*
X153556009Y-118604695D02*
X153556009Y-119176123D01*
X154079819Y-119176123D02*
X153079819Y-119176123D01*
X154079819Y-120414219D02*
X153079819Y-120414219D01*
X153079819Y-120414219D02*
X153079819Y-120652314D01*
X153079819Y-120652314D02*
X153127438Y-120795171D01*
X153127438Y-120795171D02*
X153222676Y-120890409D01*
X153222676Y-120890409D02*
X153317914Y-120938028D01*
X153317914Y-120938028D02*
X153508390Y-120985647D01*
X153508390Y-120985647D02*
X153651247Y-120985647D01*
X153651247Y-120985647D02*
X153841723Y-120938028D01*
X153841723Y-120938028D02*
X153936961Y-120890409D01*
X153936961Y-120890409D02*
X154032200Y-120795171D01*
X154032200Y-120795171D02*
X154079819Y-120652314D01*
X154079819Y-120652314D02*
X154079819Y-120414219D01*
X154079819Y-121985647D02*
X153603628Y-121652314D01*
X154079819Y-121414219D02*
X153079819Y-121414219D01*
X153079819Y-121414219D02*
X153079819Y-121795171D01*
X153079819Y-121795171D02*
X153127438Y-121890409D01*
X153127438Y-121890409D02*
X153175057Y-121938028D01*
X153175057Y-121938028D02*
X153270295Y-121985647D01*
X153270295Y-121985647D02*
X153413152Y-121985647D01*
X153413152Y-121985647D02*
X153508390Y-121938028D01*
X153508390Y-121938028D02*
X153556009Y-121890409D01*
X153556009Y-121890409D02*
X153603628Y-121795171D01*
X153603628Y-121795171D02*
X153603628Y-121414219D01*
X153079819Y-122271362D02*
X154079819Y-122604695D01*
X154079819Y-122604695D02*
X153079819Y-122938028D01*
X154023808Y-125414819D02*
X154023808Y-124414819D01*
X154023808Y-124414819D02*
X153642856Y-124414819D01*
X153642856Y-124414819D02*
X153547618Y-124462438D01*
X153547618Y-124462438D02*
X153499999Y-124510057D01*
X153499999Y-124510057D02*
X153452380Y-124605295D01*
X153452380Y-124605295D02*
X153452380Y-124748152D01*
X153452380Y-124748152D02*
X153499999Y-124843390D01*
X153499999Y-124843390D02*
X153547618Y-124891009D01*
X153547618Y-124891009D02*
X153642856Y-124938628D01*
X153642856Y-124938628D02*
X154023808Y-124938628D01*
X152690475Y-124891009D02*
X152547618Y-124938628D01*
X152547618Y-124938628D02*
X152499999Y-124986247D01*
X152499999Y-124986247D02*
X152452380Y-125081485D01*
X152452380Y-125081485D02*
X152452380Y-125224342D01*
X152452380Y-125224342D02*
X152499999Y-125319580D01*
X152499999Y-125319580D02*
X152547618Y-125367200D01*
X152547618Y-125367200D02*
X152642856Y-125414819D01*
X152642856Y-125414819D02*
X153023808Y-125414819D01*
X153023808Y-125414819D02*
X153023808Y-124414819D01*
X153023808Y-124414819D02*
X152690475Y-124414819D01*
X152690475Y-124414819D02*
X152595237Y-124462438D01*
X152595237Y-124462438D02*
X152547618Y-124510057D01*
X152547618Y-124510057D02*
X152499999Y-124605295D01*
X152499999Y-124605295D02*
X152499999Y-124700533D01*
X152499999Y-124700533D02*
X152547618Y-124795771D01*
X152547618Y-124795771D02*
X152595237Y-124843390D01*
X152595237Y-124843390D02*
X152690475Y-124891009D01*
X152690475Y-124891009D02*
X153023808Y-124891009D01*
X152071427Y-124510057D02*
X152023808Y-124462438D01*
X152023808Y-124462438D02*
X151928570Y-124414819D01*
X151928570Y-124414819D02*
X151690475Y-124414819D01*
X151690475Y-124414819D02*
X151595237Y-124462438D01*
X151595237Y-124462438D02*
X151547618Y-124510057D01*
X151547618Y-124510057D02*
X151499999Y-124605295D01*
X151499999Y-124605295D02*
X151499999Y-124700533D01*
X151499999Y-124700533D02*
X151547618Y-124843390D01*
X151547618Y-124843390D02*
X152119046Y-125414819D01*
X152119046Y-125414819D02*
X151499999Y-125414819D01*
X151071427Y-125414819D02*
X151071427Y-124414819D01*
X150595237Y-125033866D02*
X149833333Y-125033866D01*
X149357142Y-125414819D02*
X149357142Y-124414819D01*
X149357142Y-124414819D02*
X148976190Y-124414819D01*
X148976190Y-124414819D02*
X148880952Y-124462438D01*
X148880952Y-124462438D02*
X148833333Y-124510057D01*
X148833333Y-124510057D02*
X148785714Y-124605295D01*
X148785714Y-124605295D02*
X148785714Y-124748152D01*
X148785714Y-124748152D02*
X148833333Y-124843390D01*
X148833333Y-124843390D02*
X148880952Y-124891009D01*
X148880952Y-124891009D02*
X148976190Y-124938628D01*
X148976190Y-124938628D02*
X149357142Y-124938628D01*
X148404761Y-124510057D02*
X148357142Y-124462438D01*
X148357142Y-124462438D02*
X148261904Y-124414819D01*
X148261904Y-124414819D02*
X148023809Y-124414819D01*
X148023809Y-124414819D02*
X147928571Y-124462438D01*
X147928571Y-124462438D02*
X147880952Y-124510057D01*
X147880952Y-124510057D02*
X147833333Y-124605295D01*
X147833333Y-124605295D02*
X147833333Y-124700533D01*
X147833333Y-124700533D02*
X147880952Y-124843390D01*
X147880952Y-124843390D02*
X148452380Y-125414819D01*
X148452380Y-125414819D02*
X147833333Y-125414819D01*
X147404761Y-125033866D02*
X146642857Y-125033866D01*
X146214285Y-124510057D02*
X146166666Y-124462438D01*
X146166666Y-124462438D02*
X146071428Y-124414819D01*
X146071428Y-124414819D02*
X145833333Y-124414819D01*
X145833333Y-124414819D02*
X145738095Y-124462438D01*
X145738095Y-124462438D02*
X145690476Y-124510057D01*
X145690476Y-124510057D02*
X145642857Y-124605295D01*
X145642857Y-124605295D02*
X145642857Y-124700533D01*
X145642857Y-124700533D02*
X145690476Y-124843390D01*
X145690476Y-124843390D02*
X146261904Y-125414819D01*
X146261904Y-125414819D02*
X145642857Y-125414819D01*
X145309523Y-125414819D02*
X144785714Y-124748152D01*
X145309523Y-124748152D02*
X144785714Y-125414819D01*
X143880952Y-125414819D02*
X144452380Y-125414819D01*
X144166666Y-125414819D02*
X144166666Y-124414819D01*
X144166666Y-124414819D02*
X144261904Y-124557676D01*
X144261904Y-124557676D02*
X144357142Y-124652914D01*
X144357142Y-124652914D02*
X144452380Y-124700533D01*
X143309523Y-124843390D02*
X143404761Y-124795771D01*
X143404761Y-124795771D02*
X143452380Y-124748152D01*
X143452380Y-124748152D02*
X143499999Y-124652914D01*
X143499999Y-124652914D02*
X143499999Y-124605295D01*
X143499999Y-124605295D02*
X143452380Y-124510057D01*
X143452380Y-124510057D02*
X143404761Y-124462438D01*
X143404761Y-124462438D02*
X143309523Y-124414819D01*
X143309523Y-124414819D02*
X143119047Y-124414819D01*
X143119047Y-124414819D02*
X143023809Y-124462438D01*
X143023809Y-124462438D02*
X142976190Y-124510057D01*
X142976190Y-124510057D02*
X142928571Y-124605295D01*
X142928571Y-124605295D02*
X142928571Y-124652914D01*
X142928571Y-124652914D02*
X142976190Y-124748152D01*
X142976190Y-124748152D02*
X143023809Y-124795771D01*
X143023809Y-124795771D02*
X143119047Y-124843390D01*
X143119047Y-124843390D02*
X143309523Y-124843390D01*
X143309523Y-124843390D02*
X143404761Y-124891009D01*
X143404761Y-124891009D02*
X143452380Y-124938628D01*
X143452380Y-124938628D02*
X143499999Y-125033866D01*
X143499999Y-125033866D02*
X143499999Y-125224342D01*
X143499999Y-125224342D02*
X143452380Y-125319580D01*
X143452380Y-125319580D02*
X143404761Y-125367200D01*
X143404761Y-125367200D02*
X143309523Y-125414819D01*
X143309523Y-125414819D02*
X143119047Y-125414819D01*
X143119047Y-125414819D02*
X143023809Y-125367200D01*
X143023809Y-125367200D02*
X142976190Y-125319580D01*
X142976190Y-125319580D02*
X142928571Y-125224342D01*
X142928571Y-125224342D02*
X142928571Y-125033866D01*
X142928571Y-125033866D02*
X142976190Y-124938628D01*
X142976190Y-124938628D02*
X143023809Y-124891009D01*
X143023809Y-124891009D02*
X143119047Y-124843390D01*
X115967319Y-102978095D02*
X115300652Y-102978095D01*
X115395890Y-102978095D02*
X115348271Y-103025714D01*
X115348271Y-103025714D02*
X115300652Y-103120952D01*
X115300652Y-103120952D02*
X115300652Y-103263809D01*
X115300652Y-103263809D02*
X115348271Y-103359047D01*
X115348271Y-103359047D02*
X115443509Y-103406666D01*
X115443509Y-103406666D02*
X115967319Y-103406666D01*
X115443509Y-103406666D02*
X115348271Y-103454285D01*
X115348271Y-103454285D02*
X115300652Y-103549523D01*
X115300652Y-103549523D02*
X115300652Y-103692380D01*
X115300652Y-103692380D02*
X115348271Y-103787619D01*
X115348271Y-103787619D02*
X115443509Y-103835238D01*
X115443509Y-103835238D02*
X115967319Y-103835238D01*
X115967319Y-104311428D02*
X115300652Y-104311428D01*
X114967319Y-104311428D02*
X115014938Y-104263809D01*
X115014938Y-104263809D02*
X115062557Y-104311428D01*
X115062557Y-104311428D02*
X115014938Y-104359047D01*
X115014938Y-104359047D02*
X114967319Y-104311428D01*
X114967319Y-104311428D02*
X115062557Y-104311428D01*
X115919700Y-105216189D02*
X115967319Y-105120951D01*
X115967319Y-105120951D02*
X115967319Y-104930475D01*
X115967319Y-104930475D02*
X115919700Y-104835237D01*
X115919700Y-104835237D02*
X115872080Y-104787618D01*
X115872080Y-104787618D02*
X115776842Y-104739999D01*
X115776842Y-104739999D02*
X115491128Y-104739999D01*
X115491128Y-104739999D02*
X115395890Y-104787618D01*
X115395890Y-104787618D02*
X115348271Y-104835237D01*
X115348271Y-104835237D02*
X115300652Y-104930475D01*
X115300652Y-104930475D02*
X115300652Y-105120951D01*
X115300652Y-105120951D02*
X115348271Y-105216189D01*
X115967319Y-105644761D02*
X115300652Y-105644761D01*
X115491128Y-105644761D02*
X115395890Y-105692380D01*
X115395890Y-105692380D02*
X115348271Y-105739999D01*
X115348271Y-105739999D02*
X115300652Y-105835237D01*
X115300652Y-105835237D02*
X115300652Y-105930475D01*
X115967319Y-106406666D02*
X115919700Y-106311428D01*
X115919700Y-106311428D02*
X115872080Y-106263809D01*
X115872080Y-106263809D02*
X115776842Y-106216190D01*
X115776842Y-106216190D02*
X115491128Y-106216190D01*
X115491128Y-106216190D02*
X115395890Y-106263809D01*
X115395890Y-106263809D02*
X115348271Y-106311428D01*
X115348271Y-106311428D02*
X115300652Y-106406666D01*
X115300652Y-106406666D02*
X115300652Y-106549523D01*
X115300652Y-106549523D02*
X115348271Y-106644761D01*
X115348271Y-106644761D02*
X115395890Y-106692380D01*
X115395890Y-106692380D02*
X115491128Y-106739999D01*
X115491128Y-106739999D02*
X115776842Y-106739999D01*
X115776842Y-106739999D02*
X115872080Y-106692380D01*
X115872080Y-106692380D02*
X115919700Y-106644761D01*
X115919700Y-106644761D02*
X115967319Y-106549523D01*
X115967319Y-106549523D02*
X115967319Y-106406666D01*
X115919700Y-107120952D02*
X115967319Y-107263809D01*
X115967319Y-107263809D02*
X115967319Y-107501904D01*
X115967319Y-107501904D02*
X115919700Y-107597142D01*
X115919700Y-107597142D02*
X115872080Y-107644761D01*
X115872080Y-107644761D02*
X115776842Y-107692380D01*
X115776842Y-107692380D02*
X115681604Y-107692380D01*
X115681604Y-107692380D02*
X115586366Y-107644761D01*
X115586366Y-107644761D02*
X115538747Y-107597142D01*
X115538747Y-107597142D02*
X115491128Y-107501904D01*
X115491128Y-107501904D02*
X115443509Y-107311428D01*
X115443509Y-107311428D02*
X115395890Y-107216190D01*
X115395890Y-107216190D02*
X115348271Y-107168571D01*
X115348271Y-107168571D02*
X115253033Y-107120952D01*
X115253033Y-107120952D02*
X115157795Y-107120952D01*
X115157795Y-107120952D02*
X115062557Y-107168571D01*
X115062557Y-107168571D02*
X115014938Y-107216190D01*
X115014938Y-107216190D02*
X114967319Y-107311428D01*
X114967319Y-107311428D02*
X114967319Y-107549523D01*
X114967319Y-107549523D02*
X115014938Y-107692380D01*
X115967319Y-108120952D02*
X114967319Y-108120952D01*
X114967319Y-108120952D02*
X114967319Y-108359047D01*
X114967319Y-108359047D02*
X115014938Y-108501904D01*
X115014938Y-108501904D02*
X115110176Y-108597142D01*
X115110176Y-108597142D02*
X115205414Y-108644761D01*
X115205414Y-108644761D02*
X115395890Y-108692380D01*
X115395890Y-108692380D02*
X115538747Y-108692380D01*
X115538747Y-108692380D02*
X115729223Y-108644761D01*
X115729223Y-108644761D02*
X115824461Y-108597142D01*
X115824461Y-108597142D02*
X115919700Y-108501904D01*
X115919700Y-108501904D02*
X115967319Y-108359047D01*
X115967319Y-108359047D02*
X115967319Y-108120952D01*
X115586366Y-109120952D02*
X115586366Y-109882857D01*
X115967319Y-110835237D02*
X115967319Y-110359047D01*
X115967319Y-110359047D02*
X114967319Y-110359047D01*
X115967319Y-111311428D02*
X115919700Y-111216190D01*
X115919700Y-111216190D02*
X115872080Y-111168571D01*
X115872080Y-111168571D02*
X115776842Y-111120952D01*
X115776842Y-111120952D02*
X115491128Y-111120952D01*
X115491128Y-111120952D02*
X115395890Y-111168571D01*
X115395890Y-111168571D02*
X115348271Y-111216190D01*
X115348271Y-111216190D02*
X115300652Y-111311428D01*
X115300652Y-111311428D02*
X115300652Y-111454285D01*
X115300652Y-111454285D02*
X115348271Y-111549523D01*
X115348271Y-111549523D02*
X115395890Y-111597142D01*
X115395890Y-111597142D02*
X115491128Y-111644761D01*
X115491128Y-111644761D02*
X115776842Y-111644761D01*
X115776842Y-111644761D02*
X115872080Y-111597142D01*
X115872080Y-111597142D02*
X115919700Y-111549523D01*
X115919700Y-111549523D02*
X115967319Y-111454285D01*
X115967319Y-111454285D02*
X115967319Y-111311428D01*
X115300652Y-112501904D02*
X116110176Y-112501904D01*
X116110176Y-112501904D02*
X116205414Y-112454285D01*
X116205414Y-112454285D02*
X116253033Y-112406666D01*
X116253033Y-112406666D02*
X116300652Y-112311428D01*
X116300652Y-112311428D02*
X116300652Y-112168571D01*
X116300652Y-112168571D02*
X116253033Y-112073333D01*
X115919700Y-112501904D02*
X115967319Y-112406666D01*
X115967319Y-112406666D02*
X115967319Y-112216190D01*
X115967319Y-112216190D02*
X115919700Y-112120952D01*
X115919700Y-112120952D02*
X115872080Y-112073333D01*
X115872080Y-112073333D02*
X115776842Y-112025714D01*
X115776842Y-112025714D02*
X115491128Y-112025714D01*
X115491128Y-112025714D02*
X115395890Y-112073333D01*
X115395890Y-112073333D02*
X115348271Y-112120952D01*
X115348271Y-112120952D02*
X115300652Y-112216190D01*
X115300652Y-112216190D02*
X115300652Y-112406666D01*
X115300652Y-112406666D02*
X115348271Y-112501904D01*
X128054819Y-101644761D02*
X128054819Y-101168571D01*
X128054819Y-101168571D02*
X127054819Y-101168571D01*
X128054819Y-102120952D02*
X128007200Y-102025714D01*
X128007200Y-102025714D02*
X127959580Y-101978095D01*
X127959580Y-101978095D02*
X127864342Y-101930476D01*
X127864342Y-101930476D02*
X127578628Y-101930476D01*
X127578628Y-101930476D02*
X127483390Y-101978095D01*
X127483390Y-101978095D02*
X127435771Y-102025714D01*
X127435771Y-102025714D02*
X127388152Y-102120952D01*
X127388152Y-102120952D02*
X127388152Y-102263809D01*
X127388152Y-102263809D02*
X127435771Y-102359047D01*
X127435771Y-102359047D02*
X127483390Y-102406666D01*
X127483390Y-102406666D02*
X127578628Y-102454285D01*
X127578628Y-102454285D02*
X127864342Y-102454285D01*
X127864342Y-102454285D02*
X127959580Y-102406666D01*
X127959580Y-102406666D02*
X128007200Y-102359047D01*
X128007200Y-102359047D02*
X128054819Y-102263809D01*
X128054819Y-102263809D02*
X128054819Y-102120952D01*
X127388152Y-103311428D02*
X128197676Y-103311428D01*
X128197676Y-103311428D02*
X128292914Y-103263809D01*
X128292914Y-103263809D02*
X128340533Y-103216190D01*
X128340533Y-103216190D02*
X128388152Y-103120952D01*
X128388152Y-103120952D02*
X128388152Y-102978095D01*
X128388152Y-102978095D02*
X128340533Y-102882857D01*
X128007200Y-103311428D02*
X128054819Y-103216190D01*
X128054819Y-103216190D02*
X128054819Y-103025714D01*
X128054819Y-103025714D02*
X128007200Y-102930476D01*
X128007200Y-102930476D02*
X127959580Y-102882857D01*
X127959580Y-102882857D02*
X127864342Y-102835238D01*
X127864342Y-102835238D02*
X127578628Y-102835238D01*
X127578628Y-102835238D02*
X127483390Y-102882857D01*
X127483390Y-102882857D02*
X127435771Y-102930476D01*
X127435771Y-102930476D02*
X127388152Y-103025714D01*
X127388152Y-103025714D02*
X127388152Y-103216190D01*
X127388152Y-103216190D02*
X127435771Y-103311428D01*
X128054819Y-104549524D02*
X127388152Y-104549524D01*
X127483390Y-104549524D02*
X127435771Y-104597143D01*
X127435771Y-104597143D02*
X127388152Y-104692381D01*
X127388152Y-104692381D02*
X127388152Y-104835238D01*
X127388152Y-104835238D02*
X127435771Y-104930476D01*
X127435771Y-104930476D02*
X127531009Y-104978095D01*
X127531009Y-104978095D02*
X128054819Y-104978095D01*
X127531009Y-104978095D02*
X127435771Y-105025714D01*
X127435771Y-105025714D02*
X127388152Y-105120952D01*
X127388152Y-105120952D02*
X127388152Y-105263809D01*
X127388152Y-105263809D02*
X127435771Y-105359048D01*
X127435771Y-105359048D02*
X127531009Y-105406667D01*
X127531009Y-105406667D02*
X128054819Y-105406667D01*
X128054819Y-105882857D02*
X127388152Y-105882857D01*
X127054819Y-105882857D02*
X127102438Y-105835238D01*
X127102438Y-105835238D02*
X127150057Y-105882857D01*
X127150057Y-105882857D02*
X127102438Y-105930476D01*
X127102438Y-105930476D02*
X127054819Y-105882857D01*
X127054819Y-105882857D02*
X127150057Y-105882857D01*
X128007200Y-106787618D02*
X128054819Y-106692380D01*
X128054819Y-106692380D02*
X128054819Y-106501904D01*
X128054819Y-106501904D02*
X128007200Y-106406666D01*
X128007200Y-106406666D02*
X127959580Y-106359047D01*
X127959580Y-106359047D02*
X127864342Y-106311428D01*
X127864342Y-106311428D02*
X127578628Y-106311428D01*
X127578628Y-106311428D02*
X127483390Y-106359047D01*
X127483390Y-106359047D02*
X127435771Y-106406666D01*
X127435771Y-106406666D02*
X127388152Y-106501904D01*
X127388152Y-106501904D02*
X127388152Y-106692380D01*
X127388152Y-106692380D02*
X127435771Y-106787618D01*
X128054819Y-107216190D02*
X127388152Y-107216190D01*
X127578628Y-107216190D02*
X127483390Y-107263809D01*
X127483390Y-107263809D02*
X127435771Y-107311428D01*
X127435771Y-107311428D02*
X127388152Y-107406666D01*
X127388152Y-107406666D02*
X127388152Y-107501904D01*
X128054819Y-107978095D02*
X128007200Y-107882857D01*
X128007200Y-107882857D02*
X127959580Y-107835238D01*
X127959580Y-107835238D02*
X127864342Y-107787619D01*
X127864342Y-107787619D02*
X127578628Y-107787619D01*
X127578628Y-107787619D02*
X127483390Y-107835238D01*
X127483390Y-107835238D02*
X127435771Y-107882857D01*
X127435771Y-107882857D02*
X127388152Y-107978095D01*
X127388152Y-107978095D02*
X127388152Y-108120952D01*
X127388152Y-108120952D02*
X127435771Y-108216190D01*
X127435771Y-108216190D02*
X127483390Y-108263809D01*
X127483390Y-108263809D02*
X127578628Y-108311428D01*
X127578628Y-108311428D02*
X127864342Y-108311428D01*
X127864342Y-108311428D02*
X127959580Y-108263809D01*
X127959580Y-108263809D02*
X128007200Y-108216190D01*
X128007200Y-108216190D02*
X128054819Y-108120952D01*
X128054819Y-108120952D02*
X128054819Y-107978095D01*
X128007200Y-108692381D02*
X128054819Y-108835238D01*
X128054819Y-108835238D02*
X128054819Y-109073333D01*
X128054819Y-109073333D02*
X128007200Y-109168571D01*
X128007200Y-109168571D02*
X127959580Y-109216190D01*
X127959580Y-109216190D02*
X127864342Y-109263809D01*
X127864342Y-109263809D02*
X127769104Y-109263809D01*
X127769104Y-109263809D02*
X127673866Y-109216190D01*
X127673866Y-109216190D02*
X127626247Y-109168571D01*
X127626247Y-109168571D02*
X127578628Y-109073333D01*
X127578628Y-109073333D02*
X127531009Y-108882857D01*
X127531009Y-108882857D02*
X127483390Y-108787619D01*
X127483390Y-108787619D02*
X127435771Y-108740000D01*
X127435771Y-108740000D02*
X127340533Y-108692381D01*
X127340533Y-108692381D02*
X127245295Y-108692381D01*
X127245295Y-108692381D02*
X127150057Y-108740000D01*
X127150057Y-108740000D02*
X127102438Y-108787619D01*
X127102438Y-108787619D02*
X127054819Y-108882857D01*
X127054819Y-108882857D02*
X127054819Y-109120952D01*
X127054819Y-109120952D02*
X127102438Y-109263809D01*
X128054819Y-109692381D02*
X127054819Y-109692381D01*
X127054819Y-109692381D02*
X127054819Y-109930476D01*
X127054819Y-109930476D02*
X127102438Y-110073333D01*
X127102438Y-110073333D02*
X127197676Y-110168571D01*
X127197676Y-110168571D02*
X127292914Y-110216190D01*
X127292914Y-110216190D02*
X127483390Y-110263809D01*
X127483390Y-110263809D02*
X127626247Y-110263809D01*
X127626247Y-110263809D02*
X127816723Y-110216190D01*
X127816723Y-110216190D02*
X127911961Y-110168571D01*
X127911961Y-110168571D02*
X128007200Y-110073333D01*
X128007200Y-110073333D02*
X128054819Y-109930476D01*
X128054819Y-109930476D02*
X128054819Y-109692381D01*
X128054819Y-111454286D02*
X127054819Y-111454286D01*
X127054819Y-111454286D02*
X128054819Y-112025714D01*
X128054819Y-112025714D02*
X127054819Y-112025714D01*
X127054819Y-112692381D02*
X127054819Y-112882857D01*
X127054819Y-112882857D02*
X127102438Y-112978095D01*
X127102438Y-112978095D02*
X127197676Y-113073333D01*
X127197676Y-113073333D02*
X127388152Y-113120952D01*
X127388152Y-113120952D02*
X127721485Y-113120952D01*
X127721485Y-113120952D02*
X127911961Y-113073333D01*
X127911961Y-113073333D02*
X128007200Y-112978095D01*
X128007200Y-112978095D02*
X128054819Y-112882857D01*
X128054819Y-112882857D02*
X128054819Y-112692381D01*
X128054819Y-112692381D02*
X128007200Y-112597143D01*
X128007200Y-112597143D02*
X127911961Y-112501905D01*
X127911961Y-112501905D02*
X127721485Y-112454286D01*
X127721485Y-112454286D02*
X127388152Y-112454286D01*
X127388152Y-112454286D02*
X127197676Y-112501905D01*
X127197676Y-112501905D02*
X127102438Y-112597143D01*
X127102438Y-112597143D02*
X127054819Y-112692381D01*
X128054819Y-113549524D02*
X127054819Y-113549524D01*
X127054819Y-113549524D02*
X128054819Y-114120952D01*
X128054819Y-114120952D02*
X127054819Y-114120952D01*
X127673866Y-114597143D02*
X127673866Y-115359048D01*
X127054819Y-115740000D02*
X128054819Y-116406666D01*
X127054819Y-116406666D02*
X128054819Y-115740000D01*
D11*
X168819809Y-94453572D02*
X169319809Y-94572620D01*
X169319809Y-94572620D02*
X168962666Y-94667858D01*
X168962666Y-94667858D02*
X169319809Y-94763096D01*
X169319809Y-94763096D02*
X168819809Y-94882144D01*
X168867428Y-95048811D02*
X168843619Y-95072620D01*
X168843619Y-95072620D02*
X168819809Y-95120239D01*
X168819809Y-95120239D02*
X168819809Y-95239287D01*
X168819809Y-95239287D02*
X168843619Y-95286906D01*
X168843619Y-95286906D02*
X168867428Y-95310715D01*
X168867428Y-95310715D02*
X168915047Y-95334525D01*
X168915047Y-95334525D02*
X168962666Y-95334525D01*
X168962666Y-95334525D02*
X169034095Y-95310715D01*
X169034095Y-95310715D02*
X169319809Y-95025001D01*
X169319809Y-95025001D02*
X169319809Y-95334525D01*
X168819809Y-95786905D02*
X168819809Y-95548810D01*
X168819809Y-95548810D02*
X169057904Y-95525001D01*
X169057904Y-95525001D02*
X169034095Y-95548810D01*
X169034095Y-95548810D02*
X169010285Y-95596429D01*
X169010285Y-95596429D02*
X169010285Y-95715477D01*
X169010285Y-95715477D02*
X169034095Y-95763096D01*
X169034095Y-95763096D02*
X169057904Y-95786905D01*
X169057904Y-95786905D02*
X169105523Y-95810715D01*
X169105523Y-95810715D02*
X169224571Y-95810715D01*
X169224571Y-95810715D02*
X169272190Y-95786905D01*
X169272190Y-95786905D02*
X169296000Y-95763096D01*
X169296000Y-95763096D02*
X169319809Y-95715477D01*
X169319809Y-95715477D02*
X169319809Y-95596429D01*
X169319809Y-95596429D02*
X169296000Y-95548810D01*
X169296000Y-95548810D02*
X169272190Y-95525001D01*
X169367428Y-96358333D02*
X169343619Y-96310714D01*
X169343619Y-96310714D02*
X169296000Y-96263095D01*
X169296000Y-96263095D02*
X169224571Y-96191667D01*
X169224571Y-96191667D02*
X169200761Y-96144048D01*
X169200761Y-96144048D02*
X169200761Y-96096429D01*
X169319809Y-96120238D02*
X169296000Y-96072619D01*
X169296000Y-96072619D02*
X169248380Y-96025000D01*
X169248380Y-96025000D02*
X169153142Y-96001191D01*
X169153142Y-96001191D02*
X168986476Y-96001191D01*
X168986476Y-96001191D02*
X168891238Y-96025000D01*
X168891238Y-96025000D02*
X168843619Y-96072619D01*
X168843619Y-96072619D02*
X168819809Y-96120238D01*
X168819809Y-96120238D02*
X168819809Y-96215476D01*
X168819809Y-96215476D02*
X168843619Y-96263095D01*
X168843619Y-96263095D02*
X168891238Y-96310714D01*
X168891238Y-96310714D02*
X168986476Y-96334524D01*
X168986476Y-96334524D02*
X169153142Y-96334524D01*
X169153142Y-96334524D02*
X169248380Y-96310714D01*
X169248380Y-96310714D02*
X169296000Y-96263095D01*
X169296000Y-96263095D02*
X169319809Y-96215476D01*
X169319809Y-96215476D02*
X169319809Y-96120238D01*
X169319809Y-96810715D02*
X169319809Y-96525001D01*
X169319809Y-96667858D02*
X168819809Y-96667858D01*
X168819809Y-96667858D02*
X168891238Y-96620239D01*
X168891238Y-96620239D02*
X168938857Y-96572620D01*
X168938857Y-96572620D02*
X168962666Y-96525001D01*
X168867428Y-97001191D02*
X168843619Y-97025000D01*
X168843619Y-97025000D02*
X168819809Y-97072619D01*
X168819809Y-97072619D02*
X168819809Y-97191667D01*
X168819809Y-97191667D02*
X168843619Y-97239286D01*
X168843619Y-97239286D02*
X168867428Y-97263095D01*
X168867428Y-97263095D02*
X168915047Y-97286905D01*
X168915047Y-97286905D02*
X168962666Y-97286905D01*
X168962666Y-97286905D02*
X169034095Y-97263095D01*
X169034095Y-97263095D02*
X169319809Y-96977381D01*
X169319809Y-96977381D02*
X169319809Y-97286905D01*
X169034095Y-97572619D02*
X169010285Y-97525000D01*
X169010285Y-97525000D02*
X168986476Y-97501190D01*
X168986476Y-97501190D02*
X168938857Y-97477381D01*
X168938857Y-97477381D02*
X168915047Y-97477381D01*
X168915047Y-97477381D02*
X168867428Y-97501190D01*
X168867428Y-97501190D02*
X168843619Y-97525000D01*
X168843619Y-97525000D02*
X168819809Y-97572619D01*
X168819809Y-97572619D02*
X168819809Y-97667857D01*
X168819809Y-97667857D02*
X168843619Y-97715476D01*
X168843619Y-97715476D02*
X168867428Y-97739285D01*
X168867428Y-97739285D02*
X168915047Y-97763095D01*
X168915047Y-97763095D02*
X168938857Y-97763095D01*
X168938857Y-97763095D02*
X168986476Y-97739285D01*
X168986476Y-97739285D02*
X169010285Y-97715476D01*
X169010285Y-97715476D02*
X169034095Y-97667857D01*
X169034095Y-97667857D02*
X169034095Y-97572619D01*
X169034095Y-97572619D02*
X169057904Y-97525000D01*
X169057904Y-97525000D02*
X169081714Y-97501190D01*
X169081714Y-97501190D02*
X169129333Y-97477381D01*
X169129333Y-97477381D02*
X169224571Y-97477381D01*
X169224571Y-97477381D02*
X169272190Y-97501190D01*
X169272190Y-97501190D02*
X169296000Y-97525000D01*
X169296000Y-97525000D02*
X169319809Y-97572619D01*
X169319809Y-97572619D02*
X169319809Y-97667857D01*
X169319809Y-97667857D02*
X169296000Y-97715476D01*
X169296000Y-97715476D02*
X169272190Y-97739285D01*
X169272190Y-97739285D02*
X169224571Y-97763095D01*
X169224571Y-97763095D02*
X169129333Y-97763095D01*
X169129333Y-97763095D02*
X169081714Y-97739285D01*
X169081714Y-97739285D02*
X169057904Y-97715476D01*
X169057904Y-97715476D02*
X169034095Y-97667857D01*
X168819809Y-98120237D02*
X169176952Y-98120237D01*
X169176952Y-98120237D02*
X169248380Y-98096428D01*
X169248380Y-98096428D02*
X169296000Y-98048809D01*
X169296000Y-98048809D02*
X169319809Y-97977380D01*
X169319809Y-97977380D02*
X169319809Y-97929761D01*
X168819809Y-98286904D02*
X169319809Y-98453570D01*
X169319809Y-98453570D02*
X168819809Y-98620237D01*
D10*
X170635566Y-107443333D02*
X169655566Y-107443333D01*
X169655566Y-107443333D02*
X170635566Y-108003333D01*
X170635566Y-108003333D02*
X169655566Y-108003333D01*
X169655566Y-108656667D02*
X169655566Y-108843333D01*
X169655566Y-108843333D02*
X169702233Y-108936667D01*
X169702233Y-108936667D02*
X169795566Y-109030000D01*
X169795566Y-109030000D02*
X169982233Y-109076667D01*
X169982233Y-109076667D02*
X170308900Y-109076667D01*
X170308900Y-109076667D02*
X170495566Y-109030000D01*
X170495566Y-109030000D02*
X170588900Y-108936667D01*
X170588900Y-108936667D02*
X170635566Y-108843333D01*
X170635566Y-108843333D02*
X170635566Y-108656667D01*
X170635566Y-108656667D02*
X170588900Y-108563333D01*
X170588900Y-108563333D02*
X170495566Y-108470000D01*
X170495566Y-108470000D02*
X170308900Y-108423333D01*
X170308900Y-108423333D02*
X169982233Y-108423333D01*
X169982233Y-108423333D02*
X169795566Y-108470000D01*
X169795566Y-108470000D02*
X169702233Y-108563333D01*
X169702233Y-108563333D02*
X169655566Y-108656667D01*
X170635566Y-110056667D02*
X170168900Y-109730000D01*
X170635566Y-109496667D02*
X169655566Y-109496667D01*
X169655566Y-109496667D02*
X169655566Y-109870000D01*
X169655566Y-109870000D02*
X169702233Y-109963334D01*
X169702233Y-109963334D02*
X169748900Y-110010000D01*
X169748900Y-110010000D02*
X169842233Y-110056667D01*
X169842233Y-110056667D02*
X169982233Y-110056667D01*
X169982233Y-110056667D02*
X170075566Y-110010000D01*
X170075566Y-110010000D02*
X170122233Y-109963334D01*
X170122233Y-109963334D02*
X170168900Y-109870000D01*
X170168900Y-109870000D02*
X170168900Y-109496667D01*
X170262233Y-110476667D02*
X170262233Y-111223334D01*
X170122233Y-112016667D02*
X170122233Y-111690000D01*
X170635566Y-111690000D02*
X169655566Y-111690000D01*
X169655566Y-111690000D02*
X169655566Y-112156667D01*
X170635566Y-112996667D02*
X170635566Y-112530000D01*
X170635566Y-112530000D02*
X169655566Y-112530000D01*
X170355566Y-113276666D02*
X170355566Y-113743333D01*
X170635566Y-113183333D02*
X169655566Y-113510000D01*
X169655566Y-113510000D02*
X170635566Y-113836666D01*
X170588900Y-114116666D02*
X170635566Y-114256666D01*
X170635566Y-114256666D02*
X170635566Y-114490000D01*
X170635566Y-114490000D02*
X170588900Y-114583333D01*
X170588900Y-114583333D02*
X170542233Y-114630000D01*
X170542233Y-114630000D02*
X170448900Y-114676666D01*
X170448900Y-114676666D02*
X170355566Y-114676666D01*
X170355566Y-114676666D02*
X170262233Y-114630000D01*
X170262233Y-114630000D02*
X170215566Y-114583333D01*
X170215566Y-114583333D02*
X170168900Y-114490000D01*
X170168900Y-114490000D02*
X170122233Y-114303333D01*
X170122233Y-114303333D02*
X170075566Y-114210000D01*
X170075566Y-114210000D02*
X170028900Y-114163333D01*
X170028900Y-114163333D02*
X169935566Y-114116666D01*
X169935566Y-114116666D02*
X169842233Y-114116666D01*
X169842233Y-114116666D02*
X169748900Y-114163333D01*
X169748900Y-114163333D02*
X169702233Y-114210000D01*
X169702233Y-114210000D02*
X169655566Y-114303333D01*
X169655566Y-114303333D02*
X169655566Y-114536666D01*
X169655566Y-114536666D02*
X169702233Y-114676666D01*
X170635566Y-115096666D02*
X169655566Y-115096666D01*
X170122233Y-115096666D02*
X170122233Y-115656666D01*
X170635566Y-115656666D02*
X169655566Y-115656666D01*
X153435237Y-96227200D02*
X153292380Y-96274819D01*
X153292380Y-96274819D02*
X153054285Y-96274819D01*
X153054285Y-96274819D02*
X152959047Y-96227200D01*
X152959047Y-96227200D02*
X152911428Y-96179580D01*
X152911428Y-96179580D02*
X152863809Y-96084342D01*
X152863809Y-96084342D02*
X152863809Y-95989104D01*
X152863809Y-95989104D02*
X152911428Y-95893866D01*
X152911428Y-95893866D02*
X152959047Y-95846247D01*
X152959047Y-95846247D02*
X153054285Y-95798628D01*
X153054285Y-95798628D02*
X153244761Y-95751009D01*
X153244761Y-95751009D02*
X153339999Y-95703390D01*
X153339999Y-95703390D02*
X153387618Y-95655771D01*
X153387618Y-95655771D02*
X153435237Y-95560533D01*
X153435237Y-95560533D02*
X153435237Y-95465295D01*
X153435237Y-95465295D02*
X153387618Y-95370057D01*
X153387618Y-95370057D02*
X153339999Y-95322438D01*
X153339999Y-95322438D02*
X153244761Y-95274819D01*
X153244761Y-95274819D02*
X153006666Y-95274819D01*
X153006666Y-95274819D02*
X152863809Y-95322438D01*
X151959047Y-96274819D02*
X152435237Y-96274819D01*
X152435237Y-96274819D02*
X152435237Y-95274819D01*
X151292380Y-95751009D02*
X151149523Y-95798628D01*
X151149523Y-95798628D02*
X151101904Y-95846247D01*
X151101904Y-95846247D02*
X151054285Y-95941485D01*
X151054285Y-95941485D02*
X151054285Y-96084342D01*
X151054285Y-96084342D02*
X151101904Y-96179580D01*
X151101904Y-96179580D02*
X151149523Y-96227200D01*
X151149523Y-96227200D02*
X151244761Y-96274819D01*
X151244761Y-96274819D02*
X151625713Y-96274819D01*
X151625713Y-96274819D02*
X151625713Y-95274819D01*
X151625713Y-95274819D02*
X151292380Y-95274819D01*
X151292380Y-95274819D02*
X151197142Y-95322438D01*
X151197142Y-95322438D02*
X151149523Y-95370057D01*
X151149523Y-95370057D02*
X151101904Y-95465295D01*
X151101904Y-95465295D02*
X151101904Y-95560533D01*
X151101904Y-95560533D02*
X151149523Y-95655771D01*
X151149523Y-95655771D02*
X151197142Y-95703390D01*
X151197142Y-95703390D02*
X151292380Y-95751009D01*
X151292380Y-95751009D02*
X151625713Y-95751009D01*
X150578094Y-96274819D02*
X150387618Y-96274819D01*
X150387618Y-96274819D02*
X150292380Y-96227200D01*
X150292380Y-96227200D02*
X150244761Y-96179580D01*
X150244761Y-96179580D02*
X150149523Y-96036723D01*
X150149523Y-96036723D02*
X150101904Y-95846247D01*
X150101904Y-95846247D02*
X150101904Y-95465295D01*
X150101904Y-95465295D02*
X150149523Y-95370057D01*
X150149523Y-95370057D02*
X150197142Y-95322438D01*
X150197142Y-95322438D02*
X150292380Y-95274819D01*
X150292380Y-95274819D02*
X150482856Y-95274819D01*
X150482856Y-95274819D02*
X150578094Y-95322438D01*
X150578094Y-95322438D02*
X150625713Y-95370057D01*
X150625713Y-95370057D02*
X150673332Y-95465295D01*
X150673332Y-95465295D02*
X150673332Y-95703390D01*
X150673332Y-95703390D02*
X150625713Y-95798628D01*
X150625713Y-95798628D02*
X150578094Y-95846247D01*
X150578094Y-95846247D02*
X150482856Y-95893866D01*
X150482856Y-95893866D02*
X150292380Y-95893866D01*
X150292380Y-95893866D02*
X150197142Y-95846247D01*
X150197142Y-95846247D02*
X150149523Y-95798628D01*
X150149523Y-95798628D02*
X150101904Y-95703390D01*
X149244761Y-95274819D02*
X149435237Y-95274819D01*
X149435237Y-95274819D02*
X149530475Y-95322438D01*
X149530475Y-95322438D02*
X149578094Y-95370057D01*
X149578094Y-95370057D02*
X149673332Y-95512914D01*
X149673332Y-95512914D02*
X149720951Y-95703390D01*
X149720951Y-95703390D02*
X149720951Y-96084342D01*
X149720951Y-96084342D02*
X149673332Y-96179580D01*
X149673332Y-96179580D02*
X149625713Y-96227200D01*
X149625713Y-96227200D02*
X149530475Y-96274819D01*
X149530475Y-96274819D02*
X149339999Y-96274819D01*
X149339999Y-96274819D02*
X149244761Y-96227200D01*
X149244761Y-96227200D02*
X149197142Y-96179580D01*
X149197142Y-96179580D02*
X149149523Y-96084342D01*
X149149523Y-96084342D02*
X149149523Y-95846247D01*
X149149523Y-95846247D02*
X149197142Y-95751009D01*
X149197142Y-95751009D02*
X149244761Y-95703390D01*
X149244761Y-95703390D02*
X149339999Y-95655771D01*
X149339999Y-95655771D02*
X149530475Y-95655771D01*
X149530475Y-95655771D02*
X149625713Y-95703390D01*
X149625713Y-95703390D02*
X149673332Y-95751009D01*
X149673332Y-95751009D02*
X149720951Y-95846247D01*
X148816189Y-95274819D02*
X148149523Y-95274819D01*
X148149523Y-95274819D02*
X148578094Y-96274819D01*
X147578094Y-95274819D02*
X147482856Y-95274819D01*
X147482856Y-95274819D02*
X147387618Y-95322438D01*
X147387618Y-95322438D02*
X147339999Y-95370057D01*
X147339999Y-95370057D02*
X147292380Y-95465295D01*
X147292380Y-95465295D02*
X147244761Y-95655771D01*
X147244761Y-95655771D02*
X147244761Y-95893866D01*
X147244761Y-95893866D02*
X147292380Y-96084342D01*
X147292380Y-96084342D02*
X147339999Y-96179580D01*
X147339999Y-96179580D02*
X147387618Y-96227200D01*
X147387618Y-96227200D02*
X147482856Y-96274819D01*
X147482856Y-96274819D02*
X147578094Y-96274819D01*
X147578094Y-96274819D02*
X147673332Y-96227200D01*
X147673332Y-96227200D02*
X147720951Y-96179580D01*
X147720951Y-96179580D02*
X147768570Y-96084342D01*
X147768570Y-96084342D02*
X147816189Y-95893866D01*
X147816189Y-95893866D02*
X147816189Y-95655771D01*
X147816189Y-95655771D02*
X147768570Y-95465295D01*
X147768570Y-95465295D02*
X147720951Y-95370057D01*
X147720951Y-95370057D02*
X147673332Y-95322438D01*
X147673332Y-95322438D02*
X147578094Y-95274819D01*
X149747142Y-99614819D02*
X149175714Y-99614819D01*
X149461428Y-100614819D02*
X149461428Y-99614819D01*
X148842380Y-100614819D02*
X148842380Y-99614819D01*
X148842380Y-99614819D02*
X148461428Y-99614819D01*
X148461428Y-99614819D02*
X148366190Y-99662438D01*
X148366190Y-99662438D02*
X148318571Y-99710057D01*
X148318571Y-99710057D02*
X148270952Y-99805295D01*
X148270952Y-99805295D02*
X148270952Y-99948152D01*
X148270952Y-99948152D02*
X148318571Y-100043390D01*
X148318571Y-100043390D02*
X148366190Y-100091009D01*
X148366190Y-100091009D02*
X148461428Y-100138628D01*
X148461428Y-100138628D02*
X148842380Y-100138628D01*
X147842380Y-100614819D02*
X147842380Y-99614819D01*
X147842380Y-99614819D02*
X147509047Y-100329104D01*
X147509047Y-100329104D02*
X147175714Y-99614819D01*
X147175714Y-99614819D02*
X147175714Y-100614819D01*
X169466667Y-125562295D02*
X169276191Y-126362295D01*
X169276191Y-126362295D02*
X169123810Y-125790866D01*
X169123810Y-125790866D02*
X168971429Y-126362295D01*
X168971429Y-126362295D02*
X168780953Y-125562295D01*
X168095238Y-126362295D02*
X168476190Y-126362295D01*
X168476190Y-126362295D02*
X168476190Y-125562295D01*
X167409524Y-126362295D02*
X167866667Y-126362295D01*
X167638095Y-126362295D02*
X167638095Y-125562295D01*
X167638095Y-125562295D02*
X167714286Y-125676580D01*
X167714286Y-125676580D02*
X167790476Y-125752771D01*
X167790476Y-125752771D02*
X167866667Y-125790866D01*
X166952381Y-125905152D02*
X167028571Y-125867057D01*
X167028571Y-125867057D02*
X167066666Y-125828961D01*
X167066666Y-125828961D02*
X167104762Y-125752771D01*
X167104762Y-125752771D02*
X167104762Y-125714676D01*
X167104762Y-125714676D02*
X167066666Y-125638485D01*
X167066666Y-125638485D02*
X167028571Y-125600390D01*
X167028571Y-125600390D02*
X166952381Y-125562295D01*
X166952381Y-125562295D02*
X166800000Y-125562295D01*
X166800000Y-125562295D02*
X166723809Y-125600390D01*
X166723809Y-125600390D02*
X166685714Y-125638485D01*
X166685714Y-125638485D02*
X166647619Y-125714676D01*
X166647619Y-125714676D02*
X166647619Y-125752771D01*
X166647619Y-125752771D02*
X166685714Y-125828961D01*
X166685714Y-125828961D02*
X166723809Y-125867057D01*
X166723809Y-125867057D02*
X166800000Y-125905152D01*
X166800000Y-125905152D02*
X166952381Y-125905152D01*
X166952381Y-125905152D02*
X167028571Y-125943247D01*
X167028571Y-125943247D02*
X167066666Y-125981342D01*
X167066666Y-125981342D02*
X167104762Y-126057533D01*
X167104762Y-126057533D02*
X167104762Y-126209914D01*
X167104762Y-126209914D02*
X167066666Y-126286104D01*
X167066666Y-126286104D02*
X167028571Y-126324200D01*
X167028571Y-126324200D02*
X166952381Y-126362295D01*
X166952381Y-126362295D02*
X166800000Y-126362295D01*
X166800000Y-126362295D02*
X166723809Y-126324200D01*
X166723809Y-126324200D02*
X166685714Y-126286104D01*
X166685714Y-126286104D02*
X166647619Y-126209914D01*
X166647619Y-126209914D02*
X166647619Y-126057533D01*
X166647619Y-126057533D02*
X166685714Y-125981342D01*
X166685714Y-125981342D02*
X166723809Y-125943247D01*
X166723809Y-125943247D02*
X166800000Y-125905152D01*
X166380952Y-125562295D02*
X165885714Y-125562295D01*
X165885714Y-125562295D02*
X166152380Y-125867057D01*
X166152380Y-125867057D02*
X166038095Y-125867057D01*
X166038095Y-125867057D02*
X165961904Y-125905152D01*
X165961904Y-125905152D02*
X165923809Y-125943247D01*
X165923809Y-125943247D02*
X165885714Y-126019438D01*
X165885714Y-126019438D02*
X165885714Y-126209914D01*
X165885714Y-126209914D02*
X165923809Y-126286104D01*
X165923809Y-126286104D02*
X165961904Y-126324200D01*
X165961904Y-126324200D02*
X166038095Y-126362295D01*
X166038095Y-126362295D02*
X166266666Y-126362295D01*
X166266666Y-126362295D02*
X166342857Y-126324200D01*
X166342857Y-126324200D02*
X166380952Y-126286104D01*
X165619047Y-125562295D02*
X165085713Y-125562295D01*
X165085713Y-125562295D02*
X165428571Y-126362295D01*
X164780951Y-126362295D02*
X164780951Y-125562295D01*
X164780951Y-125562295D02*
X164514285Y-126133723D01*
X164514285Y-126133723D02*
X164247618Y-125562295D01*
X164247618Y-125562295D02*
X164247618Y-126362295D01*
X163714284Y-125562295D02*
X163561903Y-125562295D01*
X163561903Y-125562295D02*
X163485713Y-125600390D01*
X163485713Y-125600390D02*
X163409522Y-125676580D01*
X163409522Y-125676580D02*
X163371427Y-125828961D01*
X163371427Y-125828961D02*
X163371427Y-126095628D01*
X163371427Y-126095628D02*
X163409522Y-126248009D01*
X163409522Y-126248009D02*
X163485713Y-126324200D01*
X163485713Y-126324200D02*
X163561903Y-126362295D01*
X163561903Y-126362295D02*
X163714284Y-126362295D01*
X163714284Y-126362295D02*
X163790475Y-126324200D01*
X163790475Y-126324200D02*
X163866665Y-126248009D01*
X163866665Y-126248009D02*
X163904761Y-126095628D01*
X163904761Y-126095628D02*
X163904761Y-125828961D01*
X163904761Y-125828961D02*
X163866665Y-125676580D01*
X163866665Y-125676580D02*
X163790475Y-125600390D01*
X163790475Y-125600390D02*
X163714284Y-125562295D01*
X163028570Y-126362295D02*
X163028570Y-125562295D01*
X163028570Y-125562295D02*
X162838094Y-125562295D01*
X162838094Y-125562295D02*
X162723808Y-125600390D01*
X162723808Y-125600390D02*
X162647618Y-125676580D01*
X162647618Y-125676580D02*
X162609523Y-125752771D01*
X162609523Y-125752771D02*
X162571427Y-125905152D01*
X162571427Y-125905152D02*
X162571427Y-126019438D01*
X162571427Y-126019438D02*
X162609523Y-126171819D01*
X162609523Y-126171819D02*
X162647618Y-126248009D01*
X162647618Y-126248009D02*
X162723808Y-126324200D01*
X162723808Y-126324200D02*
X162838094Y-126362295D01*
X162838094Y-126362295D02*
X163028570Y-126362295D01*
X154523808Y-84454819D02*
X154523808Y-83454819D01*
X154523808Y-83454819D02*
X154142856Y-83454819D01*
X154142856Y-83454819D02*
X154047618Y-83502438D01*
X154047618Y-83502438D02*
X153999999Y-83550057D01*
X153999999Y-83550057D02*
X153952380Y-83645295D01*
X153952380Y-83645295D02*
X153952380Y-83788152D01*
X153952380Y-83788152D02*
X153999999Y-83883390D01*
X153999999Y-83883390D02*
X154047618Y-83931009D01*
X154047618Y-83931009D02*
X154142856Y-83978628D01*
X154142856Y-83978628D02*
X154523808Y-83978628D01*
X153190475Y-83931009D02*
X153047618Y-83978628D01*
X153047618Y-83978628D02*
X152999999Y-84026247D01*
X152999999Y-84026247D02*
X152952380Y-84121485D01*
X152952380Y-84121485D02*
X152952380Y-84264342D01*
X152952380Y-84264342D02*
X152999999Y-84359580D01*
X152999999Y-84359580D02*
X153047618Y-84407200D01*
X153047618Y-84407200D02*
X153142856Y-84454819D01*
X153142856Y-84454819D02*
X153523808Y-84454819D01*
X153523808Y-84454819D02*
X153523808Y-83454819D01*
X153523808Y-83454819D02*
X153190475Y-83454819D01*
X153190475Y-83454819D02*
X153095237Y-83502438D01*
X153095237Y-83502438D02*
X153047618Y-83550057D01*
X153047618Y-83550057D02*
X152999999Y-83645295D01*
X152999999Y-83645295D02*
X152999999Y-83740533D01*
X152999999Y-83740533D02*
X153047618Y-83835771D01*
X153047618Y-83835771D02*
X153095237Y-83883390D01*
X153095237Y-83883390D02*
X153190475Y-83931009D01*
X153190475Y-83931009D02*
X153523808Y-83931009D01*
X152571427Y-83550057D02*
X152523808Y-83502438D01*
X152523808Y-83502438D02*
X152428570Y-83454819D01*
X152428570Y-83454819D02*
X152190475Y-83454819D01*
X152190475Y-83454819D02*
X152095237Y-83502438D01*
X152095237Y-83502438D02*
X152047618Y-83550057D01*
X152047618Y-83550057D02*
X151999999Y-83645295D01*
X151999999Y-83645295D02*
X151999999Y-83740533D01*
X151999999Y-83740533D02*
X152047618Y-83883390D01*
X152047618Y-83883390D02*
X152619046Y-84454819D01*
X152619046Y-84454819D02*
X151999999Y-84454819D01*
X151571427Y-84454819D02*
X151571427Y-83454819D01*
X151095237Y-84073866D02*
X150333333Y-84073866D01*
X149857142Y-84454819D02*
X149857142Y-83454819D01*
X149857142Y-83454819D02*
X149476190Y-83454819D01*
X149476190Y-83454819D02*
X149380952Y-83502438D01*
X149380952Y-83502438D02*
X149333333Y-83550057D01*
X149333333Y-83550057D02*
X149285714Y-83645295D01*
X149285714Y-83645295D02*
X149285714Y-83788152D01*
X149285714Y-83788152D02*
X149333333Y-83883390D01*
X149333333Y-83883390D02*
X149380952Y-83931009D01*
X149380952Y-83931009D02*
X149476190Y-83978628D01*
X149476190Y-83978628D02*
X149857142Y-83978628D01*
X148333333Y-84454819D02*
X148904761Y-84454819D01*
X148619047Y-84454819D02*
X148619047Y-83454819D01*
X148619047Y-83454819D02*
X148714285Y-83597676D01*
X148714285Y-83597676D02*
X148809523Y-83692914D01*
X148809523Y-83692914D02*
X148904761Y-83740533D01*
X147904761Y-84073866D02*
X147142857Y-84073866D01*
X146714285Y-83550057D02*
X146666666Y-83502438D01*
X146666666Y-83502438D02*
X146571428Y-83454819D01*
X146571428Y-83454819D02*
X146333333Y-83454819D01*
X146333333Y-83454819D02*
X146238095Y-83502438D01*
X146238095Y-83502438D02*
X146190476Y-83550057D01*
X146190476Y-83550057D02*
X146142857Y-83645295D01*
X146142857Y-83645295D02*
X146142857Y-83740533D01*
X146142857Y-83740533D02*
X146190476Y-83883390D01*
X146190476Y-83883390D02*
X146761904Y-84454819D01*
X146761904Y-84454819D02*
X146142857Y-84454819D01*
X145809523Y-84454819D02*
X145285714Y-83788152D01*
X145809523Y-83788152D02*
X145285714Y-84454819D01*
X144380952Y-84454819D02*
X144952380Y-84454819D01*
X144666666Y-84454819D02*
X144666666Y-83454819D01*
X144666666Y-83454819D02*
X144761904Y-83597676D01*
X144761904Y-83597676D02*
X144857142Y-83692914D01*
X144857142Y-83692914D02*
X144952380Y-83740533D01*
X143809523Y-83883390D02*
X143904761Y-83835771D01*
X143904761Y-83835771D02*
X143952380Y-83788152D01*
X143952380Y-83788152D02*
X143999999Y-83692914D01*
X143999999Y-83692914D02*
X143999999Y-83645295D01*
X143999999Y-83645295D02*
X143952380Y-83550057D01*
X143952380Y-83550057D02*
X143904761Y-83502438D01*
X143904761Y-83502438D02*
X143809523Y-83454819D01*
X143809523Y-83454819D02*
X143619047Y-83454819D01*
X143619047Y-83454819D02*
X143523809Y-83502438D01*
X143523809Y-83502438D02*
X143476190Y-83550057D01*
X143476190Y-83550057D02*
X143428571Y-83645295D01*
X143428571Y-83645295D02*
X143428571Y-83692914D01*
X143428571Y-83692914D02*
X143476190Y-83788152D01*
X143476190Y-83788152D02*
X143523809Y-83835771D01*
X143523809Y-83835771D02*
X143619047Y-83883390D01*
X143619047Y-83883390D02*
X143809523Y-83883390D01*
X143809523Y-83883390D02*
X143904761Y-83931009D01*
X143904761Y-83931009D02*
X143952380Y-83978628D01*
X143952380Y-83978628D02*
X143999999Y-84073866D01*
X143999999Y-84073866D02*
X143999999Y-84264342D01*
X143999999Y-84264342D02*
X143952380Y-84359580D01*
X143952380Y-84359580D02*
X143904761Y-84407200D01*
X143904761Y-84407200D02*
X143809523Y-84454819D01*
X143809523Y-84454819D02*
X143619047Y-84454819D01*
X143619047Y-84454819D02*
X143523809Y-84407200D01*
X143523809Y-84407200D02*
X143476190Y-84359580D01*
X143476190Y-84359580D02*
X143428571Y-84264342D01*
X143428571Y-84264342D02*
X143428571Y-84073866D01*
X143428571Y-84073866D02*
X143476190Y-83978628D01*
X143476190Y-83978628D02*
X143523809Y-83931009D01*
X143523809Y-83931009D02*
X143619047Y-83883390D01*
X133880951Y-102419104D02*
X133404761Y-102419104D01*
X133976189Y-102704819D02*
X133642856Y-101704819D01*
X133642856Y-101704819D02*
X133309523Y-102704819D01*
X132976189Y-102704819D02*
X132976189Y-101704819D01*
X132976189Y-101704819D02*
X132738094Y-101704819D01*
X132738094Y-101704819D02*
X132595237Y-101752438D01*
X132595237Y-101752438D02*
X132499999Y-101847676D01*
X132499999Y-101847676D02*
X132452380Y-101942914D01*
X132452380Y-101942914D02*
X132404761Y-102133390D01*
X132404761Y-102133390D02*
X132404761Y-102276247D01*
X132404761Y-102276247D02*
X132452380Y-102466723D01*
X132452380Y-102466723D02*
X132499999Y-102561961D01*
X132499999Y-102561961D02*
X132595237Y-102657200D01*
X132595237Y-102657200D02*
X132738094Y-102704819D01*
X132738094Y-102704819D02*
X132976189Y-102704819D01*
X131976189Y-102704819D02*
X131976189Y-101704819D01*
X131499999Y-102704819D02*
X131499999Y-101704819D01*
X131499999Y-101704819D02*
X130928571Y-102704819D01*
X130928571Y-102704819D02*
X130928571Y-101704819D01*
X129928571Y-102704819D02*
X130499999Y-102704819D01*
X130214285Y-102704819D02*
X130214285Y-101704819D01*
X130214285Y-101704819D02*
X130309523Y-101847676D01*
X130309523Y-101847676D02*
X130404761Y-101942914D01*
X130404761Y-101942914D02*
X130499999Y-101990533D01*
X129595237Y-101704819D02*
X128976190Y-101704819D01*
X128976190Y-101704819D02*
X129309523Y-102085771D01*
X129309523Y-102085771D02*
X129166666Y-102085771D01*
X129166666Y-102085771D02*
X129071428Y-102133390D01*
X129071428Y-102133390D02*
X129023809Y-102181009D01*
X129023809Y-102181009D02*
X128976190Y-102276247D01*
X128976190Y-102276247D02*
X128976190Y-102514342D01*
X128976190Y-102514342D02*
X129023809Y-102609580D01*
X129023809Y-102609580D02*
X129071428Y-102657200D01*
X129071428Y-102657200D02*
X129166666Y-102704819D01*
X129166666Y-102704819D02*
X129452380Y-102704819D01*
X129452380Y-102704819D02*
X129547618Y-102657200D01*
X129547618Y-102657200D02*
X129595237Y-102609580D01*
X128357142Y-101704819D02*
X128261904Y-101704819D01*
X128261904Y-101704819D02*
X128166666Y-101752438D01*
X128166666Y-101752438D02*
X128119047Y-101800057D01*
X128119047Y-101800057D02*
X128071428Y-101895295D01*
X128071428Y-101895295D02*
X128023809Y-102085771D01*
X128023809Y-102085771D02*
X128023809Y-102323866D01*
X128023809Y-102323866D02*
X128071428Y-102514342D01*
X128071428Y-102514342D02*
X128119047Y-102609580D01*
X128119047Y-102609580D02*
X128166666Y-102657200D01*
X128166666Y-102657200D02*
X128261904Y-102704819D01*
X128261904Y-102704819D02*
X128357142Y-102704819D01*
X128357142Y-102704819D02*
X128452380Y-102657200D01*
X128452380Y-102657200D02*
X128499999Y-102609580D01*
X128499999Y-102609580D02*
X128547618Y-102514342D01*
X128547618Y-102514342D02*
X128595237Y-102323866D01*
X128595237Y-102323866D02*
X128595237Y-102085771D01*
X128595237Y-102085771D02*
X128547618Y-101895295D01*
X128547618Y-101895295D02*
X128499999Y-101800057D01*
X128499999Y-101800057D02*
X128452380Y-101752438D01*
X128452380Y-101752438D02*
X128357142Y-101704819D01*
X127404761Y-101704819D02*
X127309523Y-101704819D01*
X127309523Y-101704819D02*
X127214285Y-101752438D01*
X127214285Y-101752438D02*
X127166666Y-101800057D01*
X127166666Y-101800057D02*
X127119047Y-101895295D01*
X127119047Y-101895295D02*
X127071428Y-102085771D01*
X127071428Y-102085771D02*
X127071428Y-102323866D01*
X127071428Y-102323866D02*
X127119047Y-102514342D01*
X127119047Y-102514342D02*
X127166666Y-102609580D01*
X127166666Y-102609580D02*
X127214285Y-102657200D01*
X127214285Y-102657200D02*
X127309523Y-102704819D01*
X127309523Y-102704819D02*
X127404761Y-102704819D01*
X127404761Y-102704819D02*
X127499999Y-102657200D01*
X127499999Y-102657200D02*
X127547618Y-102609580D01*
X127547618Y-102609580D02*
X127595237Y-102514342D01*
X127595237Y-102514342D02*
X127642856Y-102323866D01*
X127642856Y-102323866D02*
X127642856Y-102085771D01*
X127642856Y-102085771D02*
X127595237Y-101895295D01*
X127595237Y-101895295D02*
X127547618Y-101800057D01*
X127547618Y-101800057D02*
X127499999Y-101752438D01*
X127499999Y-101752438D02*
X127404761Y-101704819D01*
X126309523Y-102181009D02*
X126166666Y-102228628D01*
X126166666Y-102228628D02*
X126119047Y-102276247D01*
X126119047Y-102276247D02*
X126071428Y-102371485D01*
X126071428Y-102371485D02*
X126071428Y-102514342D01*
X126071428Y-102514342D02*
X126119047Y-102609580D01*
X126119047Y-102609580D02*
X126166666Y-102657200D01*
X126166666Y-102657200D02*
X126261904Y-102704819D01*
X126261904Y-102704819D02*
X126642856Y-102704819D01*
X126642856Y-102704819D02*
X126642856Y-101704819D01*
X126642856Y-101704819D02*
X126309523Y-101704819D01*
X126309523Y-101704819D02*
X126214285Y-101752438D01*
X126214285Y-101752438D02*
X126166666Y-101800057D01*
X126166666Y-101800057D02*
X126119047Y-101895295D01*
X126119047Y-101895295D02*
X126119047Y-101990533D01*
X126119047Y-101990533D02*
X126166666Y-102085771D01*
X126166666Y-102085771D02*
X126214285Y-102133390D01*
X126214285Y-102133390D02*
X126309523Y-102181009D01*
X126309523Y-102181009D02*
X126642856Y-102181009D01*
X125071428Y-102609580D02*
X125119047Y-102657200D01*
X125119047Y-102657200D02*
X125261904Y-102704819D01*
X125261904Y-102704819D02*
X125357142Y-102704819D01*
X125357142Y-102704819D02*
X125499999Y-102657200D01*
X125499999Y-102657200D02*
X125595237Y-102561961D01*
X125595237Y-102561961D02*
X125642856Y-102466723D01*
X125642856Y-102466723D02*
X125690475Y-102276247D01*
X125690475Y-102276247D02*
X125690475Y-102133390D01*
X125690475Y-102133390D02*
X125642856Y-101942914D01*
X125642856Y-101942914D02*
X125595237Y-101847676D01*
X125595237Y-101847676D02*
X125499999Y-101752438D01*
X125499999Y-101752438D02*
X125357142Y-101704819D01*
X125357142Y-101704819D02*
X125261904Y-101704819D01*
X125261904Y-101704819D02*
X125119047Y-101752438D01*
X125119047Y-101752438D02*
X125071428Y-101800057D01*
X124642856Y-102704819D02*
X124642856Y-101704819D01*
X124642856Y-101704819D02*
X124261904Y-101704819D01*
X124261904Y-101704819D02*
X124166666Y-101752438D01*
X124166666Y-101752438D02*
X124119047Y-101800057D01*
X124119047Y-101800057D02*
X124071428Y-101895295D01*
X124071428Y-101895295D02*
X124071428Y-102038152D01*
X124071428Y-102038152D02*
X124119047Y-102133390D01*
X124119047Y-102133390D02*
X124166666Y-102181009D01*
X124166666Y-102181009D02*
X124261904Y-102228628D01*
X124261904Y-102228628D02*
X124642856Y-102228628D01*
X123738094Y-101704819D02*
X123071428Y-101704819D01*
X123071428Y-101704819D02*
X123738094Y-102704819D01*
X123738094Y-102704819D02*
X123071428Y-102704819D01*
X146304761Y-105009819D02*
X146304761Y-104009819D01*
X145876190Y-104962200D02*
X145733333Y-105009819D01*
X145733333Y-105009819D02*
X145495238Y-105009819D01*
X145495238Y-105009819D02*
X145400000Y-104962200D01*
X145400000Y-104962200D02*
X145352381Y-104914580D01*
X145352381Y-104914580D02*
X145304762Y-104819342D01*
X145304762Y-104819342D02*
X145304762Y-104724104D01*
X145304762Y-104724104D02*
X145352381Y-104628866D01*
X145352381Y-104628866D02*
X145400000Y-104581247D01*
X145400000Y-104581247D02*
X145495238Y-104533628D01*
X145495238Y-104533628D02*
X145685714Y-104486009D01*
X145685714Y-104486009D02*
X145780952Y-104438390D01*
X145780952Y-104438390D02*
X145828571Y-104390771D01*
X145828571Y-104390771D02*
X145876190Y-104295533D01*
X145876190Y-104295533D02*
X145876190Y-104200295D01*
X145876190Y-104200295D02*
X145828571Y-104105057D01*
X145828571Y-104105057D02*
X145780952Y-104057438D01*
X145780952Y-104057438D02*
X145685714Y-104009819D01*
X145685714Y-104009819D02*
X145447619Y-104009819D01*
X145447619Y-104009819D02*
X145304762Y-104057438D01*
X144685714Y-104009819D02*
X144495238Y-104009819D01*
X144495238Y-104009819D02*
X144400000Y-104057438D01*
X144400000Y-104057438D02*
X144304762Y-104152676D01*
X144304762Y-104152676D02*
X144257143Y-104343152D01*
X144257143Y-104343152D02*
X144257143Y-104676485D01*
X144257143Y-104676485D02*
X144304762Y-104866961D01*
X144304762Y-104866961D02*
X144400000Y-104962200D01*
X144400000Y-104962200D02*
X144495238Y-105009819D01*
X144495238Y-105009819D02*
X144685714Y-105009819D01*
X144685714Y-105009819D02*
X144780952Y-104962200D01*
X144780952Y-104962200D02*
X144876190Y-104866961D01*
X144876190Y-104866961D02*
X144923809Y-104676485D01*
X144923809Y-104676485D02*
X144923809Y-104343152D01*
X144923809Y-104343152D02*
X144876190Y-104152676D01*
X144876190Y-104152676D02*
X144780952Y-104057438D01*
X144780952Y-104057438D02*
X144685714Y-104009819D01*
X143923809Y-104009819D02*
X143257143Y-104009819D01*
X143257143Y-104009819D02*
X143685714Y-105009819D01*
X142447619Y-104009819D02*
X142638095Y-104009819D01*
X142638095Y-104009819D02*
X142733333Y-104057438D01*
X142733333Y-104057438D02*
X142780952Y-104105057D01*
X142780952Y-104105057D02*
X142876190Y-104247914D01*
X142876190Y-104247914D02*
X142923809Y-104438390D01*
X142923809Y-104438390D02*
X142923809Y-104819342D01*
X142923809Y-104819342D02*
X142876190Y-104914580D01*
X142876190Y-104914580D02*
X142828571Y-104962200D01*
X142828571Y-104962200D02*
X142733333Y-105009819D01*
X142733333Y-105009819D02*
X142542857Y-105009819D01*
X142542857Y-105009819D02*
X142447619Y-104962200D01*
X142447619Y-104962200D02*
X142400000Y-104914580D01*
X142400000Y-104914580D02*
X142352381Y-104819342D01*
X142352381Y-104819342D02*
X142352381Y-104581247D01*
X142352381Y-104581247D02*
X142400000Y-104486009D01*
X142400000Y-104486009D02*
X142447619Y-104438390D01*
X142447619Y-104438390D02*
X142542857Y-104390771D01*
X142542857Y-104390771D02*
X142733333Y-104390771D01*
X142733333Y-104390771D02*
X142828571Y-104438390D01*
X142828571Y-104438390D02*
X142876190Y-104486009D01*
X142876190Y-104486009D02*
X142923809Y-104581247D01*
X141495238Y-104343152D02*
X141495238Y-105009819D01*
X141733333Y-103962200D02*
X141971428Y-104676485D01*
X141971428Y-104676485D02*
X141352381Y-104676485D01*
X141019047Y-104105057D02*
X140971428Y-104057438D01*
X140971428Y-104057438D02*
X140876190Y-104009819D01*
X140876190Y-104009819D02*
X140638095Y-104009819D01*
X140638095Y-104009819D02*
X140542857Y-104057438D01*
X140542857Y-104057438D02*
X140495238Y-104105057D01*
X140495238Y-104105057D02*
X140447619Y-104200295D01*
X140447619Y-104200295D02*
X140447619Y-104295533D01*
X140447619Y-104295533D02*
X140495238Y-104438390D01*
X140495238Y-104438390D02*
X141066666Y-105009819D01*
X141066666Y-105009819D02*
X140447619Y-105009819D01*
X139685714Y-104486009D02*
X140019047Y-104486009D01*
X140019047Y-105009819D02*
X140019047Y-104009819D01*
X140019047Y-104009819D02*
X139542857Y-104009819D01*
X139161904Y-105009819D02*
X139161904Y-104009819D01*
X139161904Y-104009819D02*
X138923809Y-104009819D01*
X138923809Y-104009819D02*
X138780952Y-104057438D01*
X138780952Y-104057438D02*
X138685714Y-104152676D01*
X138685714Y-104152676D02*
X138638095Y-104247914D01*
X138638095Y-104247914D02*
X138590476Y-104438390D01*
X138590476Y-104438390D02*
X138590476Y-104581247D01*
X138590476Y-104581247D02*
X138638095Y-104771723D01*
X138638095Y-104771723D02*
X138685714Y-104866961D01*
X138685714Y-104866961D02*
X138780952Y-104962200D01*
X138780952Y-104962200D02*
X138923809Y-105009819D01*
X138923809Y-105009819D02*
X139161904Y-105009819D01*
X138257142Y-104009819D02*
X138019047Y-105009819D01*
X138019047Y-105009819D02*
X137828571Y-104295533D01*
X137828571Y-104295533D02*
X137638095Y-105009819D01*
X137638095Y-105009819D02*
X137400000Y-104009819D01*
X136447619Y-105009819D02*
X136780952Y-104533628D01*
X137019047Y-105009819D02*
X137019047Y-104009819D01*
X137019047Y-104009819D02*
X136638095Y-104009819D01*
X136638095Y-104009819D02*
X136542857Y-104057438D01*
X136542857Y-104057438D02*
X136495238Y-104105057D01*
X136495238Y-104105057D02*
X136447619Y-104200295D01*
X136447619Y-104200295D02*
X136447619Y-104343152D01*
X136447619Y-104343152D02*
X136495238Y-104438390D01*
X136495238Y-104438390D02*
X136542857Y-104486009D01*
X136542857Y-104486009D02*
X136638095Y-104533628D01*
X136638095Y-104533628D02*
X137019047Y-104533628D01*
X135447619Y-105009819D02*
X135780952Y-104533628D01*
X136019047Y-105009819D02*
X136019047Y-104009819D01*
X136019047Y-104009819D02*
X135638095Y-104009819D01*
X135638095Y-104009819D02*
X135542857Y-104057438D01*
X135542857Y-104057438D02*
X135495238Y-104105057D01*
X135495238Y-104105057D02*
X135447619Y-104200295D01*
X135447619Y-104200295D02*
X135447619Y-104343152D01*
X135447619Y-104343152D02*
X135495238Y-104438390D01*
X135495238Y-104438390D02*
X135542857Y-104486009D01*
X135542857Y-104486009D02*
X135638095Y-104533628D01*
X135638095Y-104533628D02*
X136019047Y-104533628D01*
X153654819Y-91928571D02*
X153654819Y-92595237D01*
X153654819Y-92595237D02*
X154654819Y-92166666D01*
X153988152Y-93404761D02*
X154654819Y-93404761D01*
X153607200Y-93166666D02*
X154321485Y-92928571D01*
X154321485Y-92928571D02*
X154321485Y-93547618D01*
X154654819Y-93976190D02*
X154654819Y-94166666D01*
X154654819Y-94166666D02*
X154607200Y-94261904D01*
X154607200Y-94261904D02*
X154559580Y-94309523D01*
X154559580Y-94309523D02*
X154416723Y-94404761D01*
X154416723Y-94404761D02*
X154226247Y-94452380D01*
X154226247Y-94452380D02*
X153845295Y-94452380D01*
X153845295Y-94452380D02*
X153750057Y-94404761D01*
X153750057Y-94404761D02*
X153702438Y-94357142D01*
X153702438Y-94357142D02*
X153654819Y-94261904D01*
X153654819Y-94261904D02*
X153654819Y-94071428D01*
X153654819Y-94071428D02*
X153702438Y-93976190D01*
X153702438Y-93976190D02*
X153750057Y-93928571D01*
X153750057Y-93928571D02*
X153845295Y-93880952D01*
X153845295Y-93880952D02*
X154083390Y-93880952D01*
X154083390Y-93880952D02*
X154178628Y-93928571D01*
X154178628Y-93928571D02*
X154226247Y-93976190D01*
X154226247Y-93976190D02*
X154273866Y-94071428D01*
X154273866Y-94071428D02*
X154273866Y-94261904D01*
X154273866Y-94261904D02*
X154226247Y-94357142D01*
X154226247Y-94357142D02*
X154178628Y-94404761D01*
X154178628Y-94404761D02*
X154083390Y-94452380D01*
X153654819Y-95071428D02*
X153654819Y-95166666D01*
X153654819Y-95166666D02*
X153702438Y-95261904D01*
X153702438Y-95261904D02*
X153750057Y-95309523D01*
X153750057Y-95309523D02*
X153845295Y-95357142D01*
X153845295Y-95357142D02*
X154035771Y-95404761D01*
X154035771Y-95404761D02*
X154273866Y-95404761D01*
X154273866Y-95404761D02*
X154464342Y-95357142D01*
X154464342Y-95357142D02*
X154559580Y-95309523D01*
X154559580Y-95309523D02*
X154607200Y-95261904D01*
X154607200Y-95261904D02*
X154654819Y-95166666D01*
X154654819Y-95166666D02*
X154654819Y-95071428D01*
X154654819Y-95071428D02*
X154607200Y-94976190D01*
X154607200Y-94976190D02*
X154559580Y-94928571D01*
X154559580Y-94928571D02*
X154464342Y-94880952D01*
X154464342Y-94880952D02*
X154273866Y-94833333D01*
X154273866Y-94833333D02*
X154035771Y-94833333D01*
X154035771Y-94833333D02*
X153845295Y-94880952D01*
X153845295Y-94880952D02*
X153750057Y-94928571D01*
X153750057Y-94928571D02*
X153702438Y-94976190D01*
X153702438Y-94976190D02*
X153654819Y-95071428D01*
X154654819Y-96357142D02*
X154654819Y-95785714D01*
X154654819Y-96071428D02*
X153654819Y-96071428D01*
X153654819Y-96071428D02*
X153797676Y-95976190D01*
X153797676Y-95976190D02*
X153892914Y-95880952D01*
X153892914Y-95880952D02*
X153940533Y-95785714D01*
X153654819Y-96976190D02*
X153654819Y-97071428D01*
X153654819Y-97071428D02*
X153702438Y-97166666D01*
X153702438Y-97166666D02*
X153750057Y-97214285D01*
X153750057Y-97214285D02*
X153845295Y-97261904D01*
X153845295Y-97261904D02*
X154035771Y-97309523D01*
X154035771Y-97309523D02*
X154273866Y-97309523D01*
X154273866Y-97309523D02*
X154464342Y-97261904D01*
X154464342Y-97261904D02*
X154559580Y-97214285D01*
X154559580Y-97214285D02*
X154607200Y-97166666D01*
X154607200Y-97166666D02*
X154654819Y-97071428D01*
X154654819Y-97071428D02*
X154654819Y-96976190D01*
X154654819Y-96976190D02*
X154607200Y-96880952D01*
X154607200Y-96880952D02*
X154559580Y-96833333D01*
X154559580Y-96833333D02*
X154464342Y-96785714D01*
X154464342Y-96785714D02*
X154273866Y-96738095D01*
X154273866Y-96738095D02*
X154035771Y-96738095D01*
X154035771Y-96738095D02*
X153845295Y-96785714D01*
X153845295Y-96785714D02*
X153750057Y-96833333D01*
X153750057Y-96833333D02*
X153702438Y-96880952D01*
X153702438Y-96880952D02*
X153654819Y-96976190D01*
X153654819Y-97928571D02*
X153654819Y-98023809D01*
X153654819Y-98023809D02*
X153702438Y-98119047D01*
X153702438Y-98119047D02*
X153750057Y-98166666D01*
X153750057Y-98166666D02*
X153845295Y-98214285D01*
X153845295Y-98214285D02*
X154035771Y-98261904D01*
X154035771Y-98261904D02*
X154273866Y-98261904D01*
X154273866Y-98261904D02*
X154464342Y-98214285D01*
X154464342Y-98214285D02*
X154559580Y-98166666D01*
X154559580Y-98166666D02*
X154607200Y-98119047D01*
X154607200Y-98119047D02*
X154654819Y-98023809D01*
X154654819Y-98023809D02*
X154654819Y-97928571D01*
X154654819Y-97928571D02*
X154607200Y-97833333D01*
X154607200Y-97833333D02*
X154559580Y-97785714D01*
X154559580Y-97785714D02*
X154464342Y-97738095D01*
X154464342Y-97738095D02*
X154273866Y-97690476D01*
X154273866Y-97690476D02*
X154035771Y-97690476D01*
X154035771Y-97690476D02*
X153845295Y-97738095D01*
X153845295Y-97738095D02*
X153750057Y-97785714D01*
X153750057Y-97785714D02*
X153702438Y-97833333D01*
X153702438Y-97833333D02*
X153654819Y-97928571D01*
X154654819Y-99214285D02*
X154654819Y-98642857D01*
X154654819Y-98928571D02*
X153654819Y-98928571D01*
X153654819Y-98928571D02*
X153797676Y-98833333D01*
X153797676Y-98833333D02*
X153892914Y-98738095D01*
X153892914Y-98738095D02*
X153940533Y-98642857D01*
X153750057Y-99595238D02*
X153702438Y-99642857D01*
X153702438Y-99642857D02*
X153654819Y-99738095D01*
X153654819Y-99738095D02*
X153654819Y-99976190D01*
X153654819Y-99976190D02*
X153702438Y-100071428D01*
X153702438Y-100071428D02*
X153750057Y-100119047D01*
X153750057Y-100119047D02*
X153845295Y-100166666D01*
X153845295Y-100166666D02*
X153940533Y-100166666D01*
X153940533Y-100166666D02*
X154083390Y-100119047D01*
X154083390Y-100119047D02*
X154654819Y-99547619D01*
X154654819Y-99547619D02*
X154654819Y-100166666D01*
X154369104Y-100547619D02*
X154369104Y-101023809D01*
X154654819Y-100452381D02*
X153654819Y-100785714D01*
X153654819Y-100785714D02*
X154654819Y-101119047D01*
X156900000Y-104269771D02*
X156900000Y-103669771D01*
X156900000Y-103669771D02*
X156671429Y-103669771D01*
X156671429Y-103669771D02*
X156614286Y-103698342D01*
X156614286Y-103698342D02*
X156585715Y-103726914D01*
X156585715Y-103726914D02*
X156557143Y-103784057D01*
X156557143Y-103784057D02*
X156557143Y-103869771D01*
X156557143Y-103869771D02*
X156585715Y-103926914D01*
X156585715Y-103926914D02*
X156614286Y-103955485D01*
X156614286Y-103955485D02*
X156671429Y-103984057D01*
X156671429Y-103984057D02*
X156900000Y-103984057D01*
X155957143Y-104269771D02*
X156157143Y-103984057D01*
X156300000Y-104269771D02*
X156300000Y-103669771D01*
X156300000Y-103669771D02*
X156071429Y-103669771D01*
X156071429Y-103669771D02*
X156014286Y-103698342D01*
X156014286Y-103698342D02*
X155985715Y-103726914D01*
X155985715Y-103726914D02*
X155957143Y-103784057D01*
X155957143Y-103784057D02*
X155957143Y-103869771D01*
X155957143Y-103869771D02*
X155985715Y-103926914D01*
X155985715Y-103926914D02*
X156014286Y-103955485D01*
X156014286Y-103955485D02*
X156071429Y-103984057D01*
X156071429Y-103984057D02*
X156300000Y-103984057D01*
X155785715Y-103669771D02*
X155442858Y-103669771D01*
X155614286Y-104269771D02*
X155614286Y-103669771D01*
X154900000Y-104269771D02*
X155100000Y-103984057D01*
X155242857Y-104269771D02*
X155242857Y-103669771D01*
X155242857Y-103669771D02*
X155014286Y-103669771D01*
X155014286Y-103669771D02*
X154957143Y-103698342D01*
X154957143Y-103698342D02*
X154928572Y-103726914D01*
X154928572Y-103726914D02*
X154900000Y-103784057D01*
X154900000Y-103784057D02*
X154900000Y-103869771D01*
X154900000Y-103869771D02*
X154928572Y-103926914D01*
X154928572Y-103926914D02*
X154957143Y-103955485D01*
X154957143Y-103955485D02*
X155014286Y-103984057D01*
X155014286Y-103984057D02*
X155242857Y-103984057D01*
X154357143Y-103669771D02*
X154642857Y-103669771D01*
X154642857Y-103669771D02*
X154671429Y-103955485D01*
X154671429Y-103955485D02*
X154642857Y-103926914D01*
X154642857Y-103926914D02*
X154585715Y-103898342D01*
X154585715Y-103898342D02*
X154442857Y-103898342D01*
X154442857Y-103898342D02*
X154385715Y-103926914D01*
X154385715Y-103926914D02*
X154357143Y-103955485D01*
X154357143Y-103955485D02*
X154328572Y-104012628D01*
X154328572Y-104012628D02*
X154328572Y-104155485D01*
X154328572Y-104155485D02*
X154357143Y-104212628D01*
X154357143Y-104212628D02*
X154385715Y-104241200D01*
X154385715Y-104241200D02*
X154442857Y-104269771D01*
X154442857Y-104269771D02*
X154585715Y-104269771D01*
X154585715Y-104269771D02*
X154642857Y-104241200D01*
X154642857Y-104241200D02*
X154671429Y-104212628D01*
X154157143Y-103669771D02*
X153957143Y-104269771D01*
X153957143Y-104269771D02*
X153757143Y-103669771D01*
X153442857Y-103669771D02*
X153385714Y-103669771D01*
X153385714Y-103669771D02*
X153328571Y-103698342D01*
X153328571Y-103698342D02*
X153300000Y-103726914D01*
X153300000Y-103726914D02*
X153271428Y-103784057D01*
X153271428Y-103784057D02*
X153242857Y-103898342D01*
X153242857Y-103898342D02*
X153242857Y-104041200D01*
X153242857Y-104041200D02*
X153271428Y-104155485D01*
X153271428Y-104155485D02*
X153300000Y-104212628D01*
X153300000Y-104212628D02*
X153328571Y-104241200D01*
X153328571Y-104241200D02*
X153385714Y-104269771D01*
X153385714Y-104269771D02*
X153442857Y-104269771D01*
X153442857Y-104269771D02*
X153500000Y-104241200D01*
X153500000Y-104241200D02*
X153528571Y-104212628D01*
X153528571Y-104212628D02*
X153557142Y-104155485D01*
X153557142Y-104155485D02*
X153585714Y-104041200D01*
X153585714Y-104041200D02*
X153585714Y-103898342D01*
X153585714Y-103898342D02*
X153557142Y-103784057D01*
X153557142Y-103784057D02*
X153528571Y-103726914D01*
X153528571Y-103726914D02*
X153500000Y-103698342D01*
X153500000Y-103698342D02*
X153442857Y-103669771D01*
X152985713Y-103669771D02*
X152985713Y-104155485D01*
X152985713Y-104155485D02*
X152957142Y-104212628D01*
X152957142Y-104212628D02*
X152928571Y-104241200D01*
X152928571Y-104241200D02*
X152871428Y-104269771D01*
X152871428Y-104269771D02*
X152757142Y-104269771D01*
X152757142Y-104269771D02*
X152699999Y-104241200D01*
X152699999Y-104241200D02*
X152671428Y-104212628D01*
X152671428Y-104212628D02*
X152642856Y-104155485D01*
X152642856Y-104155485D02*
X152642856Y-103669771D01*
X152385714Y-103726914D02*
X152357142Y-103698342D01*
X152357142Y-103698342D02*
X152300000Y-103669771D01*
X152300000Y-103669771D02*
X152157142Y-103669771D01*
X152157142Y-103669771D02*
X152100000Y-103698342D01*
X152100000Y-103698342D02*
X152071428Y-103726914D01*
X152071428Y-103726914D02*
X152042857Y-103784057D01*
X152042857Y-103784057D02*
X152042857Y-103841200D01*
X152042857Y-103841200D02*
X152071428Y-103926914D01*
X152071428Y-103926914D02*
X152414285Y-104269771D01*
X152414285Y-104269771D02*
X152042857Y-104269771D01*
X151842856Y-103669771D02*
X151442856Y-104269771D01*
X151442856Y-103669771D02*
X151842856Y-104269771D01*
X152700000Y-104269771D02*
X152700000Y-103669771D01*
X152700000Y-103669771D02*
X152471429Y-103669771D01*
X152471429Y-103669771D02*
X152414286Y-103698342D01*
X152414286Y-103698342D02*
X152385715Y-103726914D01*
X152385715Y-103726914D02*
X152357143Y-103784057D01*
X152357143Y-103784057D02*
X152357143Y-103869771D01*
X152357143Y-103869771D02*
X152385715Y-103926914D01*
X152385715Y-103926914D02*
X152414286Y-103955485D01*
X152414286Y-103955485D02*
X152471429Y-103984057D01*
X152471429Y-103984057D02*
X152700000Y-103984057D01*
X151757143Y-104269771D02*
X151957143Y-103984057D01*
X152100000Y-104269771D02*
X152100000Y-103669771D01*
X152100000Y-103669771D02*
X151871429Y-103669771D01*
X151871429Y-103669771D02*
X151814286Y-103698342D01*
X151814286Y-103698342D02*
X151785715Y-103726914D01*
X151785715Y-103726914D02*
X151757143Y-103784057D01*
X151757143Y-103784057D02*
X151757143Y-103869771D01*
X151757143Y-103869771D02*
X151785715Y-103926914D01*
X151785715Y-103926914D02*
X151814286Y-103955485D01*
X151814286Y-103955485D02*
X151871429Y-103984057D01*
X151871429Y-103984057D02*
X152100000Y-103984057D01*
X151585715Y-103669771D02*
X151242858Y-103669771D01*
X151414286Y-104269771D02*
X151414286Y-103669771D01*
X150700000Y-104269771D02*
X150900000Y-103984057D01*
X151042857Y-104269771D02*
X151042857Y-103669771D01*
X151042857Y-103669771D02*
X150814286Y-103669771D01*
X150814286Y-103669771D02*
X150757143Y-103698342D01*
X150757143Y-103698342D02*
X150728572Y-103726914D01*
X150728572Y-103726914D02*
X150700000Y-103784057D01*
X150700000Y-103784057D02*
X150700000Y-103869771D01*
X150700000Y-103869771D02*
X150728572Y-103926914D01*
X150728572Y-103926914D02*
X150757143Y-103955485D01*
X150757143Y-103955485D02*
X150814286Y-103984057D01*
X150814286Y-103984057D02*
X151042857Y-103984057D01*
X150157143Y-103669771D02*
X150442857Y-103669771D01*
X150442857Y-103669771D02*
X150471429Y-103955485D01*
X150471429Y-103955485D02*
X150442857Y-103926914D01*
X150442857Y-103926914D02*
X150385715Y-103898342D01*
X150385715Y-103898342D02*
X150242857Y-103898342D01*
X150242857Y-103898342D02*
X150185715Y-103926914D01*
X150185715Y-103926914D02*
X150157143Y-103955485D01*
X150157143Y-103955485D02*
X150128572Y-104012628D01*
X150128572Y-104012628D02*
X150128572Y-104155485D01*
X150128572Y-104155485D02*
X150157143Y-104212628D01*
X150157143Y-104212628D02*
X150185715Y-104241200D01*
X150185715Y-104241200D02*
X150242857Y-104269771D01*
X150242857Y-104269771D02*
X150385715Y-104269771D01*
X150385715Y-104269771D02*
X150442857Y-104241200D01*
X150442857Y-104241200D02*
X150471429Y-104212628D01*
X149957143Y-103669771D02*
X149757143Y-104269771D01*
X149757143Y-104269771D02*
X149557143Y-103669771D01*
X149242857Y-103669771D02*
X149185714Y-103669771D01*
X149185714Y-103669771D02*
X149128571Y-103698342D01*
X149128571Y-103698342D02*
X149100000Y-103726914D01*
X149100000Y-103726914D02*
X149071428Y-103784057D01*
X149071428Y-103784057D02*
X149042857Y-103898342D01*
X149042857Y-103898342D02*
X149042857Y-104041200D01*
X149042857Y-104041200D02*
X149071428Y-104155485D01*
X149071428Y-104155485D02*
X149100000Y-104212628D01*
X149100000Y-104212628D02*
X149128571Y-104241200D01*
X149128571Y-104241200D02*
X149185714Y-104269771D01*
X149185714Y-104269771D02*
X149242857Y-104269771D01*
X149242857Y-104269771D02*
X149300000Y-104241200D01*
X149300000Y-104241200D02*
X149328571Y-104212628D01*
X149328571Y-104212628D02*
X149357142Y-104155485D01*
X149357142Y-104155485D02*
X149385714Y-104041200D01*
X149385714Y-104041200D02*
X149385714Y-103898342D01*
X149385714Y-103898342D02*
X149357142Y-103784057D01*
X149357142Y-103784057D02*
X149328571Y-103726914D01*
X149328571Y-103726914D02*
X149300000Y-103698342D01*
X149300000Y-103698342D02*
X149242857Y-103669771D01*
X148785713Y-103669771D02*
X148785713Y-104155485D01*
X148785713Y-104155485D02*
X148757142Y-104212628D01*
X148757142Y-104212628D02*
X148728571Y-104241200D01*
X148728571Y-104241200D02*
X148671428Y-104269771D01*
X148671428Y-104269771D02*
X148557142Y-104269771D01*
X148557142Y-104269771D02*
X148499999Y-104241200D01*
X148499999Y-104241200D02*
X148471428Y-104212628D01*
X148471428Y-104212628D02*
X148442856Y-104155485D01*
X148442856Y-104155485D02*
X148442856Y-103669771D01*
X148185714Y-103726914D02*
X148157142Y-103698342D01*
X148157142Y-103698342D02*
X148100000Y-103669771D01*
X148100000Y-103669771D02*
X147957142Y-103669771D01*
X147957142Y-103669771D02*
X147900000Y-103698342D01*
X147900000Y-103698342D02*
X147871428Y-103726914D01*
X147871428Y-103726914D02*
X147842857Y-103784057D01*
X147842857Y-103784057D02*
X147842857Y-103841200D01*
X147842857Y-103841200D02*
X147871428Y-103926914D01*
X147871428Y-103926914D02*
X148214285Y-104269771D01*
X148214285Y-104269771D02*
X147842857Y-104269771D01*
X147642856Y-103669771D02*
X147242856Y-104269771D01*
X147242856Y-103669771D02*
X147642856Y-104269771D01*
D11*
X128991476Y-101716668D02*
X129324809Y-101716668D01*
X128801000Y-101597620D02*
X129158142Y-101478573D01*
X129158142Y-101478573D02*
X129158142Y-101788096D01*
X129277190Y-101978572D02*
X129301000Y-102002382D01*
X129301000Y-102002382D02*
X129324809Y-101978572D01*
X129324809Y-101978572D02*
X129301000Y-101954763D01*
X129301000Y-101954763D02*
X129277190Y-101978572D01*
X129277190Y-101978572D02*
X129324809Y-101978572D01*
X128824809Y-102169048D02*
X128824809Y-102502381D01*
X128824809Y-102502381D02*
X129324809Y-102288096D01*
X128991476Y-102692857D02*
X129324809Y-102692857D01*
X129039095Y-102692857D02*
X129015285Y-102716667D01*
X129015285Y-102716667D02*
X128991476Y-102764286D01*
X128991476Y-102764286D02*
X128991476Y-102835714D01*
X128991476Y-102835714D02*
X129015285Y-102883333D01*
X129015285Y-102883333D02*
X129062904Y-102907143D01*
X129062904Y-102907143D02*
X129324809Y-102907143D01*
X129062904Y-103311905D02*
X129062904Y-103145238D01*
X129324809Y-103145238D02*
X128824809Y-103145238D01*
X128824809Y-103145238D02*
X128824809Y-103383333D01*
X128824809Y-103907142D02*
X129324809Y-104240475D01*
X128824809Y-104240475D02*
X129324809Y-103907142D01*
X128872428Y-104407142D02*
X128848619Y-104430951D01*
X128848619Y-104430951D02*
X128824809Y-104478570D01*
X128824809Y-104478570D02*
X128824809Y-104597618D01*
X128824809Y-104597618D02*
X128848619Y-104645237D01*
X128848619Y-104645237D02*
X128872428Y-104669046D01*
X128872428Y-104669046D02*
X128920047Y-104692856D01*
X128920047Y-104692856D02*
X128967666Y-104692856D01*
X128967666Y-104692856D02*
X129039095Y-104669046D01*
X129039095Y-104669046D02*
X129324809Y-104383332D01*
X129324809Y-104383332D02*
X129324809Y-104692856D01*
X129086714Y-105002379D02*
X129324809Y-105002379D01*
X128824809Y-104835713D02*
X129086714Y-105002379D01*
X129086714Y-105002379D02*
X128824809Y-105169046D01*
D10*
%TO.C,WINCH DRV*%
X154625000Y-94166600D02*
X154625000Y-98566600D01*
X154625000Y-98566600D02*
X158625000Y-98566600D01*
X158625000Y-98566600D02*
X159625000Y-97566600D01*
X159625000Y-94166600D02*
X154625000Y-94166600D01*
X159625000Y-97566600D02*
X159625000Y-94166600D01*
D12*
%TO.C,Log microSD NON-X*%
X117900000Y-103835000D02*
X117900000Y-113835000D01*
X118400000Y-103335000D02*
X121900000Y-103335000D01*
X121900000Y-102785000D02*
X121900000Y-104480000D01*
X121900000Y-102785000D02*
X133300000Y-102785000D01*
X121900000Y-114335000D02*
X118400000Y-114335000D01*
X121900000Y-114735000D02*
X121900000Y-113950000D01*
X122200000Y-113640000D02*
X122800000Y-113640000D01*
X122800000Y-104980000D02*
X122400000Y-104980000D01*
X123300000Y-113140000D02*
X123300000Y-105480000D01*
X133300000Y-114735000D02*
X121900000Y-114735000D01*
X133300000Y-114735000D02*
X133300000Y-102785000D01*
X117900000Y-103835000D02*
G75*
G02*
X118400000Y-103335000I500001J-1D01*
G01*
X118400000Y-114335000D02*
G75*
G02*
X117900000Y-113835000I0J500000D01*
G01*
X121900000Y-113940000D02*
G75*
G02*
X122200000Y-113640000I300000J0D01*
G01*
X122400000Y-104980000D02*
G75*
G02*
X121900000Y-104480000I1J500001D01*
G01*
X122800000Y-104980000D02*
G75*
G02*
X123300000Y-105480000I-1J-500001D01*
G01*
X123300000Y-113140000D02*
G75*
G02*
X122800000Y-113640000I-500000J0D01*
G01*
%TO.C,NOR-FLASH*%
X166645000Y-94575000D02*
X166645000Y-98475000D01*
X166645000Y-98475000D02*
X170570000Y-98475000D01*
X170570000Y-98475000D02*
X171545000Y-97500000D01*
X171545000Y-94575000D02*
X166645000Y-94575000D01*
X171545000Y-97500000D02*
X171545000Y-94575000D01*
%TO.C,TPM*%
X165340000Y-98660000D02*
X162340000Y-98660000D01*
X161340000Y-97660000D01*
X161340000Y-94660000D01*
X165340000Y-94660000D01*
X165340000Y-98660000D01*
%TO.C,ETH-PHY*%
X132000000Y-93750000D02*
X125000000Y-93750000D01*
X125000000Y-100750000D01*
X132000000Y-100750000D01*
X132000000Y-93750000D01*
%TD*%
M02*
