%TF.GenerationSoftware,KiCad,Pcbnew,9.0.2+dfsg-1*%
%TF.CreationDate,2026-07-18T19:34:49-04:00*%
%TF.ProjectId,Zo_,5a6feb2e-6b69-4636-9164-5f7063625858,A-STUB*%
%TF.SameCoordinates,Original*%
%TF.FileFunction,Legend,Top*%
%TF.FilePolarity,Positive*%
%FSLAX46Y46*%
G04 Gerber Fmt 4.6, Leading zero omitted, Abs format (unit mm)*
G04 Created by KiCad (PCBNEW 9.0.2+dfsg-1) date 2026-07-18 19:34:49*
%MOMM*%
%LPD*%
G01*
G04 APERTURE LIST*
%ADD10C,0.050000*%
%ADD11C,0.100000*%
%ADD12C,0.150000*%
%ADD13C,0.125000*%
%ADD14C,0.120000*%
G04 APERTURE END LIST*
D10*
X170290000Y-92940000D02*
X170290000Y-117940000D01*
X171500000Y-117500000D02*
X125500000Y-117500000D01*
X125500000Y-117500000D02*
X125500000Y-92500000D01*
X125500000Y-92500000D02*
X171500000Y-92500000D01*
D11*
X148400000Y-93672371D02*
X148742858Y-93672371D01*
X148571429Y-94272371D02*
X148571429Y-93672371D01*
X148914286Y-94100942D02*
X149200001Y-94100942D01*
X148857143Y-94272371D02*
X149057143Y-93672371D01*
X149057143Y-93672371D02*
X149257143Y-94272371D01*
X149457144Y-94272371D02*
X149457144Y-93672371D01*
X149457144Y-93672371D02*
X149657144Y-94100942D01*
X149657144Y-94100942D02*
X149857144Y-93672371D01*
X149857144Y-93672371D02*
X149857144Y-94272371D01*
X150142858Y-94272371D02*
X150142858Y-93672371D01*
X150142858Y-93672371D02*
X150371429Y-93672371D01*
X150371429Y-93672371D02*
X150428572Y-93700942D01*
X150428572Y-93700942D02*
X150457143Y-93729514D01*
X150457143Y-93729514D02*
X150485715Y-93786657D01*
X150485715Y-93786657D02*
X150485715Y-93872371D01*
X150485715Y-93872371D02*
X150457143Y-93929514D01*
X150457143Y-93929514D02*
X150428572Y-93958085D01*
X150428572Y-93958085D02*
X150371429Y-93986657D01*
X150371429Y-93986657D02*
X150142858Y-93986657D01*
X150742858Y-93958085D02*
X150942858Y-93958085D01*
X151028572Y-94272371D02*
X150742858Y-94272371D01*
X150742858Y-94272371D02*
X150742858Y-93672371D01*
X150742858Y-93672371D02*
X151028572Y-93672371D01*
X151628572Y-94272371D02*
X151428572Y-93986657D01*
X151285715Y-94272371D02*
X151285715Y-93672371D01*
X151285715Y-93672371D02*
X151514286Y-93672371D01*
X151514286Y-93672371D02*
X151571429Y-93700942D01*
X151571429Y-93700942D02*
X151600000Y-93729514D01*
X151600000Y-93729514D02*
X151628572Y-93786657D01*
X151628572Y-93786657D02*
X151628572Y-93872371D01*
X151628572Y-93872371D02*
X151600000Y-93929514D01*
X151600000Y-93929514D02*
X151571429Y-93958085D01*
X151571429Y-93958085D02*
X151514286Y-93986657D01*
X151514286Y-93986657D02*
X151285715Y-93986657D01*
X152342858Y-93958085D02*
X152542858Y-93958085D01*
X152628572Y-94272371D02*
X152342858Y-94272371D01*
X152342858Y-94272371D02*
X152342858Y-93672371D01*
X152342858Y-93672371D02*
X152628572Y-93672371D01*
X152800000Y-93672371D02*
X153000000Y-94272371D01*
X153000000Y-94272371D02*
X153200000Y-93672371D01*
X153400001Y-94272371D02*
X153400001Y-93672371D01*
X153685715Y-94272371D02*
X153685715Y-93672371D01*
X153685715Y-93672371D02*
X153828572Y-93672371D01*
X153828572Y-93672371D02*
X153914286Y-93700942D01*
X153914286Y-93700942D02*
X153971429Y-93758085D01*
X153971429Y-93758085D02*
X154000000Y-93815228D01*
X154000000Y-93815228D02*
X154028572Y-93929514D01*
X154028572Y-93929514D02*
X154028572Y-94015228D01*
X154028572Y-94015228D02*
X154000000Y-94129514D01*
X154000000Y-94129514D02*
X153971429Y-94186657D01*
X153971429Y-94186657D02*
X153914286Y-94243800D01*
X153914286Y-94243800D02*
X153828572Y-94272371D01*
X153828572Y-94272371D02*
X153685715Y-94272371D01*
X154285715Y-93958085D02*
X154485715Y-93958085D01*
X154571429Y-94272371D02*
X154285715Y-94272371D01*
X154285715Y-94272371D02*
X154285715Y-93672371D01*
X154285715Y-93672371D02*
X154571429Y-93672371D01*
X154828572Y-94272371D02*
X154828572Y-93672371D01*
X154828572Y-93672371D02*
X155171429Y-94272371D01*
X155171429Y-94272371D02*
X155171429Y-93672371D01*
X155371428Y-93672371D02*
X155714286Y-93672371D01*
X155542857Y-94272371D02*
X155542857Y-93672371D01*
X156371429Y-94272371D02*
X156371429Y-93672371D01*
X156371429Y-93672371D02*
X156571429Y-94100942D01*
X156571429Y-94100942D02*
X156771429Y-93672371D01*
X156771429Y-93672371D02*
X156771429Y-94272371D01*
X157057143Y-93958085D02*
X157257143Y-93958085D01*
X157342857Y-94272371D02*
X157057143Y-94272371D01*
X157057143Y-94272371D02*
X157057143Y-93672371D01*
X157057143Y-93672371D02*
X157342857Y-93672371D01*
X157571428Y-94243800D02*
X157657143Y-94272371D01*
X157657143Y-94272371D02*
X157800000Y-94272371D01*
X157800000Y-94272371D02*
X157857143Y-94243800D01*
X157857143Y-94243800D02*
X157885714Y-94215228D01*
X157885714Y-94215228D02*
X157914285Y-94158085D01*
X157914285Y-94158085D02*
X157914285Y-94100942D01*
X157914285Y-94100942D02*
X157885714Y-94043800D01*
X157885714Y-94043800D02*
X157857143Y-94015228D01*
X157857143Y-94015228D02*
X157800000Y-93986657D01*
X157800000Y-93986657D02*
X157685714Y-93958085D01*
X157685714Y-93958085D02*
X157628571Y-93929514D01*
X157628571Y-93929514D02*
X157600000Y-93900942D01*
X157600000Y-93900942D02*
X157571428Y-93843800D01*
X157571428Y-93843800D02*
X157571428Y-93786657D01*
X157571428Y-93786657D02*
X157600000Y-93729514D01*
X157600000Y-93729514D02*
X157628571Y-93700942D01*
X157628571Y-93700942D02*
X157685714Y-93672371D01*
X157685714Y-93672371D02*
X157828571Y-93672371D01*
X157828571Y-93672371D02*
X157914285Y-93700942D01*
X158171429Y-94272371D02*
X158171429Y-93672371D01*
X158171429Y-93958085D02*
X158514286Y-93958085D01*
X158514286Y-94272371D02*
X158514286Y-93672371D01*
D12*
X130142857Y-123674819D02*
X130142857Y-122674819D01*
X130142857Y-122674819D02*
X130523809Y-122674819D01*
X130523809Y-122674819D02*
X130619047Y-122722438D01*
X130619047Y-122722438D02*
X130666666Y-122770057D01*
X130666666Y-122770057D02*
X130714285Y-122865295D01*
X130714285Y-122865295D02*
X130714285Y-123008152D01*
X130714285Y-123008152D02*
X130666666Y-123103390D01*
X130666666Y-123103390D02*
X130619047Y-123151009D01*
X130619047Y-123151009D02*
X130523809Y-123198628D01*
X130523809Y-123198628D02*
X130142857Y-123198628D01*
X131476190Y-123151009D02*
X131619047Y-123198628D01*
X131619047Y-123198628D02*
X131666666Y-123246247D01*
X131666666Y-123246247D02*
X131714285Y-123341485D01*
X131714285Y-123341485D02*
X131714285Y-123484342D01*
X131714285Y-123484342D02*
X131666666Y-123579580D01*
X131666666Y-123579580D02*
X131619047Y-123627200D01*
X131619047Y-123627200D02*
X131523809Y-123674819D01*
X131523809Y-123674819D02*
X131142857Y-123674819D01*
X131142857Y-123674819D02*
X131142857Y-122674819D01*
X131142857Y-122674819D02*
X131476190Y-122674819D01*
X131476190Y-122674819D02*
X131571428Y-122722438D01*
X131571428Y-122722438D02*
X131619047Y-122770057D01*
X131619047Y-122770057D02*
X131666666Y-122865295D01*
X131666666Y-122865295D02*
X131666666Y-122960533D01*
X131666666Y-122960533D02*
X131619047Y-123055771D01*
X131619047Y-123055771D02*
X131571428Y-123103390D01*
X131571428Y-123103390D02*
X131476190Y-123151009D01*
X131476190Y-123151009D02*
X131142857Y-123151009D01*
X132095238Y-122770057D02*
X132142857Y-122722438D01*
X132142857Y-122722438D02*
X132238095Y-122674819D01*
X132238095Y-122674819D02*
X132476190Y-122674819D01*
X132476190Y-122674819D02*
X132571428Y-122722438D01*
X132571428Y-122722438D02*
X132619047Y-122770057D01*
X132619047Y-122770057D02*
X132666666Y-122865295D01*
X132666666Y-122865295D02*
X132666666Y-122960533D01*
X132666666Y-122960533D02*
X132619047Y-123103390D01*
X132619047Y-123103390D02*
X132047619Y-123674819D01*
X132047619Y-123674819D02*
X132666666Y-123674819D01*
X133095238Y-123293866D02*
X133857143Y-123293866D01*
X134333333Y-123674819D02*
X134333333Y-122674819D01*
X134333333Y-122674819D02*
X134714285Y-122674819D01*
X134714285Y-122674819D02*
X134809523Y-122722438D01*
X134809523Y-122722438D02*
X134857142Y-122770057D01*
X134857142Y-122770057D02*
X134904761Y-122865295D01*
X134904761Y-122865295D02*
X134904761Y-123008152D01*
X134904761Y-123008152D02*
X134857142Y-123103390D01*
X134857142Y-123103390D02*
X134809523Y-123151009D01*
X134809523Y-123151009D02*
X134714285Y-123198628D01*
X134714285Y-123198628D02*
X134333333Y-123198628D01*
X135285714Y-122770057D02*
X135333333Y-122722438D01*
X135333333Y-122722438D02*
X135428571Y-122674819D01*
X135428571Y-122674819D02*
X135666666Y-122674819D01*
X135666666Y-122674819D02*
X135761904Y-122722438D01*
X135761904Y-122722438D02*
X135809523Y-122770057D01*
X135809523Y-122770057D02*
X135857142Y-122865295D01*
X135857142Y-122865295D02*
X135857142Y-122960533D01*
X135857142Y-122960533D02*
X135809523Y-123103390D01*
X135809523Y-123103390D02*
X135238095Y-123674819D01*
X135238095Y-123674819D02*
X135857142Y-123674819D01*
X136285714Y-123293866D02*
X137047619Y-123293866D01*
X137380952Y-122674819D02*
X137952380Y-122674819D01*
X137666666Y-123674819D02*
X137666666Y-122674819D01*
X138476190Y-122674819D02*
X138666666Y-122674819D01*
X138666666Y-122674819D02*
X138761904Y-122722438D01*
X138761904Y-122722438D02*
X138857142Y-122817676D01*
X138857142Y-122817676D02*
X138904761Y-123008152D01*
X138904761Y-123008152D02*
X138904761Y-123341485D01*
X138904761Y-123341485D02*
X138857142Y-123531961D01*
X138857142Y-123531961D02*
X138761904Y-123627200D01*
X138761904Y-123627200D02*
X138666666Y-123674819D01*
X138666666Y-123674819D02*
X138476190Y-123674819D01*
X138476190Y-123674819D02*
X138380952Y-123627200D01*
X138380952Y-123627200D02*
X138285714Y-123531961D01*
X138285714Y-123531961D02*
X138238095Y-123341485D01*
X138238095Y-123341485D02*
X138238095Y-123008152D01*
X138238095Y-123008152D02*
X138285714Y-122817676D01*
X138285714Y-122817676D02*
X138380952Y-122722438D01*
X138380952Y-122722438D02*
X138476190Y-122674819D01*
X139333333Y-123674819D02*
X139333333Y-122674819D01*
X139333333Y-122674819D02*
X139714285Y-122674819D01*
X139714285Y-122674819D02*
X139809523Y-122722438D01*
X139809523Y-122722438D02*
X139857142Y-122770057D01*
X139857142Y-122770057D02*
X139904761Y-122865295D01*
X139904761Y-122865295D02*
X139904761Y-123008152D01*
X139904761Y-123008152D02*
X139857142Y-123103390D01*
X139857142Y-123103390D02*
X139809523Y-123151009D01*
X139809523Y-123151009D02*
X139714285Y-123198628D01*
X139714285Y-123198628D02*
X139333333Y-123198628D01*
X145142857Y-87034819D02*
X145142857Y-86034819D01*
X145142857Y-86034819D02*
X145523809Y-86034819D01*
X145523809Y-86034819D02*
X145619047Y-86082438D01*
X145619047Y-86082438D02*
X145666666Y-86130057D01*
X145666666Y-86130057D02*
X145714285Y-86225295D01*
X145714285Y-86225295D02*
X145714285Y-86368152D01*
X145714285Y-86368152D02*
X145666666Y-86463390D01*
X145666666Y-86463390D02*
X145619047Y-86511009D01*
X145619047Y-86511009D02*
X145523809Y-86558628D01*
X145523809Y-86558628D02*
X145142857Y-86558628D01*
X146476190Y-86511009D02*
X146619047Y-86558628D01*
X146619047Y-86558628D02*
X146666666Y-86606247D01*
X146666666Y-86606247D02*
X146714285Y-86701485D01*
X146714285Y-86701485D02*
X146714285Y-86844342D01*
X146714285Y-86844342D02*
X146666666Y-86939580D01*
X146666666Y-86939580D02*
X146619047Y-86987200D01*
X146619047Y-86987200D02*
X146523809Y-87034819D01*
X146523809Y-87034819D02*
X146142857Y-87034819D01*
X146142857Y-87034819D02*
X146142857Y-86034819D01*
X146142857Y-86034819D02*
X146476190Y-86034819D01*
X146476190Y-86034819D02*
X146571428Y-86082438D01*
X146571428Y-86082438D02*
X146619047Y-86130057D01*
X146619047Y-86130057D02*
X146666666Y-86225295D01*
X146666666Y-86225295D02*
X146666666Y-86320533D01*
X146666666Y-86320533D02*
X146619047Y-86415771D01*
X146619047Y-86415771D02*
X146571428Y-86463390D01*
X146571428Y-86463390D02*
X146476190Y-86511009D01*
X146476190Y-86511009D02*
X146142857Y-86511009D01*
X147095238Y-86130057D02*
X147142857Y-86082438D01*
X147142857Y-86082438D02*
X147238095Y-86034819D01*
X147238095Y-86034819D02*
X147476190Y-86034819D01*
X147476190Y-86034819D02*
X147571428Y-86082438D01*
X147571428Y-86082438D02*
X147619047Y-86130057D01*
X147619047Y-86130057D02*
X147666666Y-86225295D01*
X147666666Y-86225295D02*
X147666666Y-86320533D01*
X147666666Y-86320533D02*
X147619047Y-86463390D01*
X147619047Y-86463390D02*
X147047619Y-87034819D01*
X147047619Y-87034819D02*
X147666666Y-87034819D01*
X148095238Y-86653866D02*
X148857143Y-86653866D01*
X149333333Y-87034819D02*
X149333333Y-86034819D01*
X149333333Y-86034819D02*
X149714285Y-86034819D01*
X149714285Y-86034819D02*
X149809523Y-86082438D01*
X149809523Y-86082438D02*
X149857142Y-86130057D01*
X149857142Y-86130057D02*
X149904761Y-86225295D01*
X149904761Y-86225295D02*
X149904761Y-86368152D01*
X149904761Y-86368152D02*
X149857142Y-86463390D01*
X149857142Y-86463390D02*
X149809523Y-86511009D01*
X149809523Y-86511009D02*
X149714285Y-86558628D01*
X149714285Y-86558628D02*
X149333333Y-86558628D01*
X150857142Y-87034819D02*
X150285714Y-87034819D01*
X150571428Y-87034819D02*
X150571428Y-86034819D01*
X150571428Y-86034819D02*
X150476190Y-86177676D01*
X150476190Y-86177676D02*
X150380952Y-86272914D01*
X150380952Y-86272914D02*
X150285714Y-86320533D01*
X151285714Y-86653866D02*
X152047619Y-86653866D01*
X152380952Y-86034819D02*
X152952380Y-86034819D01*
X152666666Y-87034819D02*
X152666666Y-86034819D01*
X153476190Y-86034819D02*
X153666666Y-86034819D01*
X153666666Y-86034819D02*
X153761904Y-86082438D01*
X153761904Y-86082438D02*
X153857142Y-86177676D01*
X153857142Y-86177676D02*
X153904761Y-86368152D01*
X153904761Y-86368152D02*
X153904761Y-86701485D01*
X153904761Y-86701485D02*
X153857142Y-86891961D01*
X153857142Y-86891961D02*
X153761904Y-86987200D01*
X153761904Y-86987200D02*
X153666666Y-87034819D01*
X153666666Y-87034819D02*
X153476190Y-87034819D01*
X153476190Y-87034819D02*
X153380952Y-86987200D01*
X153380952Y-86987200D02*
X153285714Y-86891961D01*
X153285714Y-86891961D02*
X153238095Y-86701485D01*
X153238095Y-86701485D02*
X153238095Y-86368152D01*
X153238095Y-86368152D02*
X153285714Y-86177676D01*
X153285714Y-86177676D02*
X153380952Y-86082438D01*
X153380952Y-86082438D02*
X153476190Y-86034819D01*
X154333333Y-87034819D02*
X154333333Y-86034819D01*
X154333333Y-86034819D02*
X154714285Y-86034819D01*
X154714285Y-86034819D02*
X154809523Y-86082438D01*
X154809523Y-86082438D02*
X154857142Y-86130057D01*
X154857142Y-86130057D02*
X154904761Y-86225295D01*
X154904761Y-86225295D02*
X154904761Y-86368152D01*
X154904761Y-86368152D02*
X154857142Y-86463390D01*
X154857142Y-86463390D02*
X154809523Y-86511009D01*
X154809523Y-86511009D02*
X154714285Y-86558628D01*
X154714285Y-86558628D02*
X154333333Y-86558628D01*
X172316033Y-102083332D02*
X171616033Y-102083332D01*
X171616033Y-102083332D02*
X172316033Y-101683332D01*
X172316033Y-101683332D02*
X171616033Y-101683332D01*
X172116033Y-101383332D02*
X172116033Y-101049999D01*
X172316033Y-101449999D02*
X171616033Y-101216666D01*
X171616033Y-101216666D02*
X172316033Y-100983332D01*
X171616033Y-100849999D02*
X172316033Y-100616666D01*
X172316033Y-100616666D02*
X171616033Y-100383332D01*
X172049366Y-100149999D02*
X172049366Y-99616666D01*
X172316033Y-98949999D02*
X172316033Y-99283332D01*
X172316033Y-99283332D02*
X171616033Y-99283332D01*
X172316033Y-98716665D02*
X171616033Y-98716665D01*
X171649366Y-98016665D02*
X171616033Y-98083332D01*
X171616033Y-98083332D02*
X171616033Y-98183332D01*
X171616033Y-98183332D02*
X171649366Y-98283332D01*
X171649366Y-98283332D02*
X171716033Y-98349999D01*
X171716033Y-98349999D02*
X171782700Y-98383332D01*
X171782700Y-98383332D02*
X171916033Y-98416665D01*
X171916033Y-98416665D02*
X172016033Y-98416665D01*
X172016033Y-98416665D02*
X172149366Y-98383332D01*
X172149366Y-98383332D02*
X172216033Y-98349999D01*
X172216033Y-98349999D02*
X172282700Y-98283332D01*
X172282700Y-98283332D02*
X172316033Y-98183332D01*
X172316033Y-98183332D02*
X172316033Y-98116665D01*
X172316033Y-98116665D02*
X172282700Y-98016665D01*
X172282700Y-98016665D02*
X172249366Y-97983332D01*
X172249366Y-97983332D02*
X172016033Y-97983332D01*
X172016033Y-97983332D02*
X172016033Y-98116665D01*
X172316033Y-97683332D02*
X171616033Y-97683332D01*
X171949366Y-97683332D02*
X171949366Y-97283332D01*
X172316033Y-97283332D02*
X171616033Y-97283332D01*
X171616033Y-97049999D02*
X171616033Y-96649999D01*
X172316033Y-96849999D02*
X171616033Y-96849999D01*
X172316033Y-95883333D02*
X171616033Y-95883333D01*
X171616033Y-95883333D02*
X171616033Y-95616666D01*
X171616033Y-95616666D02*
X171649366Y-95550000D01*
X171649366Y-95550000D02*
X171682700Y-95516666D01*
X171682700Y-95516666D02*
X171749366Y-95483333D01*
X171749366Y-95483333D02*
X171849366Y-95483333D01*
X171849366Y-95483333D02*
X171916033Y-95516666D01*
X171916033Y-95516666D02*
X171949366Y-95550000D01*
X171949366Y-95550000D02*
X171982700Y-95616666D01*
X171982700Y-95616666D02*
X171982700Y-95883333D01*
X171616033Y-95250000D02*
X172316033Y-95083333D01*
X172316033Y-95083333D02*
X171816033Y-94950000D01*
X171816033Y-94950000D02*
X172316033Y-94816666D01*
X172316033Y-94816666D02*
X171616033Y-94650000D01*
X172316033Y-94383333D02*
X171616033Y-94383333D01*
X171616033Y-94383333D02*
X172116033Y-94150000D01*
X172116033Y-94150000D02*
X171616033Y-93916666D01*
X171616033Y-93916666D02*
X172316033Y-93916666D01*
X128834366Y-103050000D02*
X129301033Y-103050000D01*
X128834366Y-103350000D02*
X129201033Y-103350000D01*
X129201033Y-103350000D02*
X129267700Y-103316667D01*
X129267700Y-103316667D02*
X129301033Y-103250000D01*
X129301033Y-103250000D02*
X129301033Y-103150000D01*
X129301033Y-103150000D02*
X129267700Y-103083333D01*
X129267700Y-103083333D02*
X129234366Y-103050000D01*
X129267700Y-102750000D02*
X129301033Y-102650000D01*
X129301033Y-102650000D02*
X129301033Y-102483334D01*
X129301033Y-102483334D02*
X129267700Y-102416667D01*
X129267700Y-102416667D02*
X129234366Y-102383334D01*
X129234366Y-102383334D02*
X129167700Y-102350000D01*
X129167700Y-102350000D02*
X129101033Y-102350000D01*
X129101033Y-102350000D02*
X129034366Y-102383334D01*
X129034366Y-102383334D02*
X129001033Y-102416667D01*
X129001033Y-102416667D02*
X128967700Y-102483334D01*
X128967700Y-102483334D02*
X128934366Y-102616667D01*
X128934366Y-102616667D02*
X128901033Y-102683334D01*
X128901033Y-102683334D02*
X128867700Y-102716667D01*
X128867700Y-102716667D02*
X128801033Y-102750000D01*
X128801033Y-102750000D02*
X128734366Y-102750000D01*
X128734366Y-102750000D02*
X128667700Y-102716667D01*
X128667700Y-102716667D02*
X128634366Y-102683334D01*
X128634366Y-102683334D02*
X128601033Y-102616667D01*
X128601033Y-102616667D02*
X128601033Y-102450000D01*
X128601033Y-102450000D02*
X128634366Y-102350000D01*
X129301033Y-102050000D02*
X128601033Y-102050000D01*
X128601033Y-102050000D02*
X128601033Y-101883333D01*
X128601033Y-101883333D02*
X128634366Y-101783333D01*
X128634366Y-101783333D02*
X128701033Y-101716667D01*
X128701033Y-101716667D02*
X128767700Y-101683333D01*
X128767700Y-101683333D02*
X128901033Y-101650000D01*
X128901033Y-101650000D02*
X129001033Y-101650000D01*
X129001033Y-101650000D02*
X129134366Y-101683333D01*
X129134366Y-101683333D02*
X129201033Y-101716667D01*
X129201033Y-101716667D02*
X129267700Y-101783333D01*
X129267700Y-101783333D02*
X129301033Y-101883333D01*
X129301033Y-101883333D02*
X129301033Y-102050000D01*
X129034366Y-101350000D02*
X129034366Y-100816667D01*
X128601033Y-100550000D02*
X129301033Y-100083333D01*
X128601033Y-100083333D02*
X129301033Y-100550000D01*
X129034366Y-99816666D02*
X129034366Y-99283333D01*
X128934366Y-98716666D02*
X128967700Y-98616666D01*
X128967700Y-98616666D02*
X129001033Y-98583332D01*
X129001033Y-98583332D02*
X129067700Y-98549999D01*
X129067700Y-98549999D02*
X129167700Y-98549999D01*
X129167700Y-98549999D02*
X129234366Y-98583332D01*
X129234366Y-98583332D02*
X129267700Y-98616666D01*
X129267700Y-98616666D02*
X129301033Y-98683332D01*
X129301033Y-98683332D02*
X129301033Y-98949999D01*
X129301033Y-98949999D02*
X128601033Y-98949999D01*
X128601033Y-98949999D02*
X128601033Y-98716666D01*
X128601033Y-98716666D02*
X128634366Y-98649999D01*
X128634366Y-98649999D02*
X128667700Y-98616666D01*
X128667700Y-98616666D02*
X128734366Y-98583332D01*
X128734366Y-98583332D02*
X128801033Y-98583332D01*
X128801033Y-98583332D02*
X128867700Y-98616666D01*
X128867700Y-98616666D02*
X128901033Y-98649999D01*
X128901033Y-98649999D02*
X128934366Y-98716666D01*
X128934366Y-98716666D02*
X128934366Y-98949999D01*
X129301033Y-98149999D02*
X129267700Y-98216666D01*
X129267700Y-98216666D02*
X129201033Y-98249999D01*
X129201033Y-98249999D02*
X128601033Y-98249999D01*
X129301033Y-97883332D02*
X128601033Y-97883332D01*
X129034366Y-97816665D02*
X129301033Y-97616665D01*
X128834366Y-97616665D02*
X129101033Y-97883332D01*
X162516666Y-109316033D02*
X162116666Y-109316033D01*
X162316666Y-109316033D02*
X162316666Y-108616033D01*
X162316666Y-108616033D02*
X162249999Y-108716033D01*
X162249999Y-108716033D02*
X162183333Y-108782700D01*
X162183333Y-108782700D02*
X162116666Y-108816033D01*
X163150000Y-108616033D02*
X162816666Y-108616033D01*
X162816666Y-108616033D02*
X162783333Y-108949366D01*
X162783333Y-108949366D02*
X162816666Y-108916033D01*
X162816666Y-108916033D02*
X162883333Y-108882700D01*
X162883333Y-108882700D02*
X163050000Y-108882700D01*
X163050000Y-108882700D02*
X163116666Y-108916033D01*
X163116666Y-108916033D02*
X163150000Y-108949366D01*
X163150000Y-108949366D02*
X163183333Y-109016033D01*
X163183333Y-109016033D02*
X163183333Y-109182700D01*
X163183333Y-109182700D02*
X163150000Y-109249366D01*
X163150000Y-109249366D02*
X163116666Y-109282700D01*
X163116666Y-109282700D02*
X163050000Y-109316033D01*
X163050000Y-109316033D02*
X162883333Y-109316033D01*
X162883333Y-109316033D02*
X162816666Y-109282700D01*
X162816666Y-109282700D02*
X162783333Y-109249366D01*
X163816667Y-108616033D02*
X163483333Y-108616033D01*
X163483333Y-108616033D02*
X163450000Y-108949366D01*
X163450000Y-108949366D02*
X163483333Y-108916033D01*
X163483333Y-108916033D02*
X163550000Y-108882700D01*
X163550000Y-108882700D02*
X163716667Y-108882700D01*
X163716667Y-108882700D02*
X163783333Y-108916033D01*
X163783333Y-108916033D02*
X163816667Y-108949366D01*
X163816667Y-108949366D02*
X163850000Y-109016033D01*
X163850000Y-109016033D02*
X163850000Y-109182700D01*
X163850000Y-109182700D02*
X163816667Y-109249366D01*
X163816667Y-109249366D02*
X163783333Y-109282700D01*
X163783333Y-109282700D02*
X163716667Y-109316033D01*
X163716667Y-109316033D02*
X163550000Y-109316033D01*
X163550000Y-109316033D02*
X163483333Y-109282700D01*
X163483333Y-109282700D02*
X163450000Y-109249366D01*
X164083334Y-108616033D02*
X164516667Y-108616033D01*
X164516667Y-108616033D02*
X164283334Y-108882700D01*
X164283334Y-108882700D02*
X164383334Y-108882700D01*
X164383334Y-108882700D02*
X164450000Y-108916033D01*
X164450000Y-108916033D02*
X164483334Y-108949366D01*
X164483334Y-108949366D02*
X164516667Y-109016033D01*
X164516667Y-109016033D02*
X164516667Y-109182700D01*
X164516667Y-109182700D02*
X164483334Y-109249366D01*
X164483334Y-109249366D02*
X164450000Y-109282700D01*
X164450000Y-109282700D02*
X164383334Y-109316033D01*
X164383334Y-109316033D02*
X164183334Y-109316033D01*
X164183334Y-109316033D02*
X164116667Y-109282700D01*
X164116667Y-109282700D02*
X164083334Y-109249366D01*
X164816667Y-109049366D02*
X165350001Y-109049366D01*
X166083334Y-109316033D02*
X165850001Y-108982700D01*
X165683334Y-109316033D02*
X165683334Y-108616033D01*
X165683334Y-108616033D02*
X165950001Y-108616033D01*
X165950001Y-108616033D02*
X166016668Y-108649366D01*
X166016668Y-108649366D02*
X166050001Y-108682700D01*
X166050001Y-108682700D02*
X166083334Y-108749366D01*
X166083334Y-108749366D02*
X166083334Y-108849366D01*
X166083334Y-108849366D02*
X166050001Y-108916033D01*
X166050001Y-108916033D02*
X166016668Y-108949366D01*
X166016668Y-108949366D02*
X165950001Y-108982700D01*
X165950001Y-108982700D02*
X165683334Y-108982700D01*
X166783334Y-109249366D02*
X166750001Y-109282700D01*
X166750001Y-109282700D02*
X166650001Y-109316033D01*
X166650001Y-109316033D02*
X166583334Y-109316033D01*
X166583334Y-109316033D02*
X166483334Y-109282700D01*
X166483334Y-109282700D02*
X166416668Y-109216033D01*
X166416668Y-109216033D02*
X166383334Y-109149366D01*
X166383334Y-109149366D02*
X166350001Y-109016033D01*
X166350001Y-109016033D02*
X166350001Y-108916033D01*
X166350001Y-108916033D02*
X166383334Y-108782700D01*
X166383334Y-108782700D02*
X166416668Y-108716033D01*
X166416668Y-108716033D02*
X166483334Y-108649366D01*
X166483334Y-108649366D02*
X166583334Y-108616033D01*
X166583334Y-108616033D02*
X166650001Y-108616033D01*
X166650001Y-108616033D02*
X166750001Y-108649366D01*
X166750001Y-108649366D02*
X166783334Y-108682700D01*
X166983334Y-108616033D02*
X167216668Y-109316033D01*
X167216668Y-109316033D02*
X167450001Y-108616033D01*
X152266666Y-109816033D02*
X151866666Y-109816033D01*
X152066666Y-109816033D02*
X152066666Y-109116033D01*
X152066666Y-109116033D02*
X151999999Y-109216033D01*
X151999999Y-109216033D02*
X151933333Y-109282700D01*
X151933333Y-109282700D02*
X151866666Y-109316033D01*
X152900000Y-109116033D02*
X152566666Y-109116033D01*
X152566666Y-109116033D02*
X152533333Y-109449366D01*
X152533333Y-109449366D02*
X152566666Y-109416033D01*
X152566666Y-109416033D02*
X152633333Y-109382700D01*
X152633333Y-109382700D02*
X152800000Y-109382700D01*
X152800000Y-109382700D02*
X152866666Y-109416033D01*
X152866666Y-109416033D02*
X152900000Y-109449366D01*
X152900000Y-109449366D02*
X152933333Y-109516033D01*
X152933333Y-109516033D02*
X152933333Y-109682700D01*
X152933333Y-109682700D02*
X152900000Y-109749366D01*
X152900000Y-109749366D02*
X152866666Y-109782700D01*
X152866666Y-109782700D02*
X152800000Y-109816033D01*
X152800000Y-109816033D02*
X152633333Y-109816033D01*
X152633333Y-109816033D02*
X152566666Y-109782700D01*
X152566666Y-109782700D02*
X152533333Y-109749366D01*
X153566667Y-109116033D02*
X153233333Y-109116033D01*
X153233333Y-109116033D02*
X153200000Y-109449366D01*
X153200000Y-109449366D02*
X153233333Y-109416033D01*
X153233333Y-109416033D02*
X153300000Y-109382700D01*
X153300000Y-109382700D02*
X153466667Y-109382700D01*
X153466667Y-109382700D02*
X153533333Y-109416033D01*
X153533333Y-109416033D02*
X153566667Y-109449366D01*
X153566667Y-109449366D02*
X153600000Y-109516033D01*
X153600000Y-109516033D02*
X153600000Y-109682700D01*
X153600000Y-109682700D02*
X153566667Y-109749366D01*
X153566667Y-109749366D02*
X153533333Y-109782700D01*
X153533333Y-109782700D02*
X153466667Y-109816033D01*
X153466667Y-109816033D02*
X153300000Y-109816033D01*
X153300000Y-109816033D02*
X153233333Y-109782700D01*
X153233333Y-109782700D02*
X153200000Y-109749366D01*
X153833334Y-109116033D02*
X154266667Y-109116033D01*
X154266667Y-109116033D02*
X154033334Y-109382700D01*
X154033334Y-109382700D02*
X154133334Y-109382700D01*
X154133334Y-109382700D02*
X154200000Y-109416033D01*
X154200000Y-109416033D02*
X154233334Y-109449366D01*
X154233334Y-109449366D02*
X154266667Y-109516033D01*
X154266667Y-109516033D02*
X154266667Y-109682700D01*
X154266667Y-109682700D02*
X154233334Y-109749366D01*
X154233334Y-109749366D02*
X154200000Y-109782700D01*
X154200000Y-109782700D02*
X154133334Y-109816033D01*
X154133334Y-109816033D02*
X153933334Y-109816033D01*
X153933334Y-109816033D02*
X153866667Y-109782700D01*
X153866667Y-109782700D02*
X153833334Y-109749366D01*
X154566667Y-109549366D02*
X155100001Y-109549366D01*
X155433334Y-109816033D02*
X155433334Y-109116033D01*
X155433334Y-109116033D02*
X155600001Y-109116033D01*
X155600001Y-109116033D02*
X155700001Y-109149366D01*
X155700001Y-109149366D02*
X155766668Y-109216033D01*
X155766668Y-109216033D02*
X155800001Y-109282700D01*
X155800001Y-109282700D02*
X155833334Y-109416033D01*
X155833334Y-109416033D02*
X155833334Y-109516033D01*
X155833334Y-109516033D02*
X155800001Y-109649366D01*
X155800001Y-109649366D02*
X155766668Y-109716033D01*
X155766668Y-109716033D02*
X155700001Y-109782700D01*
X155700001Y-109782700D02*
X155600001Y-109816033D01*
X155600001Y-109816033D02*
X155433334Y-109816033D01*
X156533334Y-109816033D02*
X156300001Y-109482700D01*
X156133334Y-109816033D02*
X156133334Y-109116033D01*
X156133334Y-109116033D02*
X156400001Y-109116033D01*
X156400001Y-109116033D02*
X156466668Y-109149366D01*
X156466668Y-109149366D02*
X156500001Y-109182700D01*
X156500001Y-109182700D02*
X156533334Y-109249366D01*
X156533334Y-109249366D02*
X156533334Y-109349366D01*
X156533334Y-109349366D02*
X156500001Y-109416033D01*
X156500001Y-109416033D02*
X156466668Y-109449366D01*
X156466668Y-109449366D02*
X156400001Y-109482700D01*
X156400001Y-109482700D02*
X156133334Y-109482700D01*
X156733334Y-109116033D02*
X156966668Y-109816033D01*
X156966668Y-109816033D02*
X157200001Y-109116033D01*
X143409523Y-110862295D02*
X142952380Y-110862295D01*
X143180952Y-110862295D02*
X143180952Y-110062295D01*
X143180952Y-110062295D02*
X143104761Y-110176580D01*
X143104761Y-110176580D02*
X143028571Y-110252771D01*
X143028571Y-110252771D02*
X142952380Y-110290866D01*
X144133333Y-110062295D02*
X143752381Y-110062295D01*
X143752381Y-110062295D02*
X143714285Y-110443247D01*
X143714285Y-110443247D02*
X143752381Y-110405152D01*
X143752381Y-110405152D02*
X143828571Y-110367057D01*
X143828571Y-110367057D02*
X144019047Y-110367057D01*
X144019047Y-110367057D02*
X144095238Y-110405152D01*
X144095238Y-110405152D02*
X144133333Y-110443247D01*
X144133333Y-110443247D02*
X144171428Y-110519438D01*
X144171428Y-110519438D02*
X144171428Y-110709914D01*
X144171428Y-110709914D02*
X144133333Y-110786104D01*
X144133333Y-110786104D02*
X144095238Y-110824200D01*
X144095238Y-110824200D02*
X144019047Y-110862295D01*
X144019047Y-110862295D02*
X143828571Y-110862295D01*
X143828571Y-110862295D02*
X143752381Y-110824200D01*
X143752381Y-110824200D02*
X143714285Y-110786104D01*
X144895238Y-110062295D02*
X144514286Y-110062295D01*
X144514286Y-110062295D02*
X144476190Y-110443247D01*
X144476190Y-110443247D02*
X144514286Y-110405152D01*
X144514286Y-110405152D02*
X144590476Y-110367057D01*
X144590476Y-110367057D02*
X144780952Y-110367057D01*
X144780952Y-110367057D02*
X144857143Y-110405152D01*
X144857143Y-110405152D02*
X144895238Y-110443247D01*
X144895238Y-110443247D02*
X144933333Y-110519438D01*
X144933333Y-110519438D02*
X144933333Y-110709914D01*
X144933333Y-110709914D02*
X144895238Y-110786104D01*
X144895238Y-110786104D02*
X144857143Y-110824200D01*
X144857143Y-110824200D02*
X144780952Y-110862295D01*
X144780952Y-110862295D02*
X144590476Y-110862295D01*
X144590476Y-110862295D02*
X144514286Y-110824200D01*
X144514286Y-110824200D02*
X144476190Y-110786104D01*
X145200000Y-110062295D02*
X145695238Y-110062295D01*
X145695238Y-110062295D02*
X145428572Y-110367057D01*
X145428572Y-110367057D02*
X145542857Y-110367057D01*
X145542857Y-110367057D02*
X145619048Y-110405152D01*
X145619048Y-110405152D02*
X145657143Y-110443247D01*
X145657143Y-110443247D02*
X145695238Y-110519438D01*
X145695238Y-110519438D02*
X145695238Y-110709914D01*
X145695238Y-110709914D02*
X145657143Y-110786104D01*
X145657143Y-110786104D02*
X145619048Y-110824200D01*
X145619048Y-110824200D02*
X145542857Y-110862295D01*
X145542857Y-110862295D02*
X145314286Y-110862295D01*
X145314286Y-110862295D02*
X145238095Y-110824200D01*
X145238095Y-110824200D02*
X145200000Y-110786104D01*
X146038096Y-110557533D02*
X146647620Y-110557533D01*
X146952381Y-110062295D02*
X147485715Y-110862295D01*
X147485715Y-110062295D02*
X146952381Y-110862295D01*
X148057143Y-110443247D02*
X147790477Y-110443247D01*
X147790477Y-110862295D02*
X147790477Y-110062295D01*
X147790477Y-110062295D02*
X148171429Y-110062295D01*
X148476191Y-110862295D02*
X148476191Y-110062295D01*
X148476191Y-110062295D02*
X148742857Y-110633723D01*
X148742857Y-110633723D02*
X149009524Y-110062295D01*
X149009524Y-110062295D02*
X149009524Y-110862295D01*
X141783333Y-93316033D02*
X141449999Y-93316033D01*
X141449999Y-93316033D02*
X141449999Y-92616033D01*
X142150000Y-92616033D02*
X142283333Y-92616033D01*
X142283333Y-92616033D02*
X142350000Y-92649366D01*
X142350000Y-92649366D02*
X142416666Y-92716033D01*
X142416666Y-92716033D02*
X142450000Y-92849366D01*
X142450000Y-92849366D02*
X142450000Y-93082700D01*
X142450000Y-93082700D02*
X142416666Y-93216033D01*
X142416666Y-93216033D02*
X142350000Y-93282700D01*
X142350000Y-93282700D02*
X142283333Y-93316033D01*
X142283333Y-93316033D02*
X142150000Y-93316033D01*
X142150000Y-93316033D02*
X142083333Y-93282700D01*
X142083333Y-93282700D02*
X142016666Y-93216033D01*
X142016666Y-93216033D02*
X141983333Y-93082700D01*
X141983333Y-93082700D02*
X141983333Y-92849366D01*
X141983333Y-92849366D02*
X142016666Y-92716033D01*
X142016666Y-92716033D02*
X142083333Y-92649366D01*
X142083333Y-92649366D02*
X142150000Y-92616033D01*
X142716666Y-93116033D02*
X143049999Y-93116033D01*
X142649999Y-93316033D02*
X142883333Y-92616033D01*
X142883333Y-92616033D02*
X143116666Y-93316033D01*
X143349999Y-93316033D02*
X143349999Y-92616033D01*
X143349999Y-92616033D02*
X143516666Y-92616033D01*
X143516666Y-92616033D02*
X143616666Y-92649366D01*
X143616666Y-92649366D02*
X143683333Y-92716033D01*
X143683333Y-92716033D02*
X143716666Y-92782700D01*
X143716666Y-92782700D02*
X143749999Y-92916033D01*
X143749999Y-92916033D02*
X143749999Y-93016033D01*
X143749999Y-93016033D02*
X143716666Y-93149366D01*
X143716666Y-93149366D02*
X143683333Y-93216033D01*
X143683333Y-93216033D02*
X143616666Y-93282700D01*
X143616666Y-93282700D02*
X143516666Y-93316033D01*
X143516666Y-93316033D02*
X143349999Y-93316033D01*
X144049999Y-93049366D02*
X144583333Y-93049366D01*
X145316666Y-93249366D02*
X145283333Y-93282700D01*
X145283333Y-93282700D02*
X145183333Y-93316033D01*
X145183333Y-93316033D02*
X145116666Y-93316033D01*
X145116666Y-93316033D02*
X145016666Y-93282700D01*
X145016666Y-93282700D02*
X144950000Y-93216033D01*
X144950000Y-93216033D02*
X144916666Y-93149366D01*
X144916666Y-93149366D02*
X144883333Y-93016033D01*
X144883333Y-93016033D02*
X144883333Y-92916033D01*
X144883333Y-92916033D02*
X144916666Y-92782700D01*
X144916666Y-92782700D02*
X144950000Y-92716033D01*
X144950000Y-92716033D02*
X145016666Y-92649366D01*
X145016666Y-92649366D02*
X145116666Y-92616033D01*
X145116666Y-92616033D02*
X145183333Y-92616033D01*
X145183333Y-92616033D02*
X145283333Y-92649366D01*
X145283333Y-92649366D02*
X145316666Y-92682700D01*
X145616666Y-92949366D02*
X145850000Y-92949366D01*
X145950000Y-93316033D02*
X145616666Y-93316033D01*
X145616666Y-93316033D02*
X145616666Y-92616033D01*
X145616666Y-92616033D02*
X145950000Y-92616033D01*
X146583333Y-93316033D02*
X146249999Y-93316033D01*
X146249999Y-93316033D02*
X146249999Y-92616033D01*
X147150000Y-93316033D02*
X146816666Y-93316033D01*
X146816666Y-93316033D02*
X146816666Y-92616033D01*
X171266033Y-108266666D02*
X170566033Y-108266666D01*
X170566033Y-108266666D02*
X170566033Y-107999999D01*
X170566033Y-107999999D02*
X170599366Y-107933333D01*
X170599366Y-107933333D02*
X170632700Y-107899999D01*
X170632700Y-107899999D02*
X170699366Y-107866666D01*
X170699366Y-107866666D02*
X170799366Y-107866666D01*
X170799366Y-107866666D02*
X170866033Y-107899999D01*
X170866033Y-107899999D02*
X170899366Y-107933333D01*
X170899366Y-107933333D02*
X170932700Y-107999999D01*
X170932700Y-107999999D02*
X170932700Y-108266666D01*
X170566033Y-107633333D02*
X171266033Y-107466666D01*
X171266033Y-107466666D02*
X170766033Y-107333333D01*
X170766033Y-107333333D02*
X171266033Y-107199999D01*
X171266033Y-107199999D02*
X170566033Y-107033333D01*
X171266033Y-106766666D02*
X170566033Y-106766666D01*
X170566033Y-106766666D02*
X171066033Y-106533333D01*
X171066033Y-106533333D02*
X170566033Y-106299999D01*
X170566033Y-106299999D02*
X171266033Y-106299999D01*
X170999366Y-105966666D02*
X170999366Y-105433333D01*
X171266033Y-105099999D02*
X170566033Y-105099999D01*
X170632700Y-104799999D02*
X170599366Y-104766666D01*
X170599366Y-104766666D02*
X170566033Y-104699999D01*
X170566033Y-104699999D02*
X170566033Y-104533333D01*
X170566033Y-104533333D02*
X170599366Y-104466666D01*
X170599366Y-104466666D02*
X170632700Y-104433333D01*
X170632700Y-104433333D02*
X170699366Y-104399999D01*
X170699366Y-104399999D02*
X170766033Y-104399999D01*
X170766033Y-104399999D02*
X170866033Y-104433333D01*
X170866033Y-104433333D02*
X171266033Y-104833333D01*
X171266033Y-104833333D02*
X171266033Y-104399999D01*
X171199366Y-103699999D02*
X171232700Y-103733332D01*
X171232700Y-103733332D02*
X171266033Y-103833332D01*
X171266033Y-103833332D02*
X171266033Y-103899999D01*
X171266033Y-103899999D02*
X171232700Y-103999999D01*
X171232700Y-103999999D02*
X171166033Y-104066666D01*
X171166033Y-104066666D02*
X171099366Y-104099999D01*
X171099366Y-104099999D02*
X170966033Y-104133332D01*
X170966033Y-104133332D02*
X170866033Y-104133332D01*
X170866033Y-104133332D02*
X170732700Y-104099999D01*
X170732700Y-104099999D02*
X170666033Y-104066666D01*
X170666033Y-104066666D02*
X170599366Y-103999999D01*
X170599366Y-103999999D02*
X170566033Y-103899999D01*
X170566033Y-103899999D02*
X170566033Y-103833332D01*
X170566033Y-103833332D02*
X170599366Y-103733332D01*
X170599366Y-103733332D02*
X170632700Y-103699999D01*
X135825001Y-92616033D02*
X135991667Y-93316033D01*
X135991667Y-93316033D02*
X136125001Y-92816033D01*
X136125001Y-92816033D02*
X136258334Y-93316033D01*
X136258334Y-93316033D02*
X136425001Y-92616033D01*
X136691667Y-93316033D02*
X136691667Y-92616033D01*
X137025000Y-93316033D02*
X137025000Y-92616033D01*
X137025000Y-92616033D02*
X137425000Y-93316033D01*
X137425000Y-93316033D02*
X137425000Y-92616033D01*
X138158333Y-93249366D02*
X138125000Y-93282700D01*
X138125000Y-93282700D02*
X138025000Y-93316033D01*
X138025000Y-93316033D02*
X137958333Y-93316033D01*
X137958333Y-93316033D02*
X137858333Y-93282700D01*
X137858333Y-93282700D02*
X137791667Y-93216033D01*
X137791667Y-93216033D02*
X137758333Y-93149366D01*
X137758333Y-93149366D02*
X137725000Y-93016033D01*
X137725000Y-93016033D02*
X137725000Y-92916033D01*
X137725000Y-92916033D02*
X137758333Y-92782700D01*
X137758333Y-92782700D02*
X137791667Y-92716033D01*
X137791667Y-92716033D02*
X137858333Y-92649366D01*
X137858333Y-92649366D02*
X137958333Y-92616033D01*
X137958333Y-92616033D02*
X138025000Y-92616033D01*
X138025000Y-92616033D02*
X138125000Y-92649366D01*
X138125000Y-92649366D02*
X138158333Y-92682700D01*
X138458333Y-93316033D02*
X138458333Y-92616033D01*
X138458333Y-92949366D02*
X138858333Y-92949366D01*
X138858333Y-93316033D02*
X138858333Y-92616033D01*
X122150000Y-108269771D02*
X122150000Y-107669771D01*
X122150000Y-107669771D02*
X122350000Y-108098342D01*
X122350000Y-108098342D02*
X122550000Y-107669771D01*
X122550000Y-107669771D02*
X122550000Y-108269771D01*
X122835714Y-108269771D02*
X122835714Y-107669771D01*
X123407142Y-108269771D02*
X123121428Y-108269771D01*
X123121428Y-108269771D02*
X123121428Y-107669771D01*
X123607142Y-108041200D02*
X124064285Y-108041200D01*
X124664284Y-108269771D02*
X124321427Y-108269771D01*
X124492856Y-108269771D02*
X124492856Y-107669771D01*
X124492856Y-107669771D02*
X124435713Y-107755485D01*
X124435713Y-107755485D02*
X124378570Y-107812628D01*
X124378570Y-107812628D02*
X124321427Y-107841200D01*
X125207142Y-107669771D02*
X124921428Y-107669771D01*
X124921428Y-107669771D02*
X124892856Y-107955485D01*
X124892856Y-107955485D02*
X124921428Y-107926914D01*
X124921428Y-107926914D02*
X124978571Y-107898342D01*
X124978571Y-107898342D02*
X125121428Y-107898342D01*
X125121428Y-107898342D02*
X125178571Y-107926914D01*
X125178571Y-107926914D02*
X125207142Y-107955485D01*
X125207142Y-107955485D02*
X125235713Y-108012628D01*
X125235713Y-108012628D02*
X125235713Y-108155485D01*
X125235713Y-108155485D02*
X125207142Y-108212628D01*
X125207142Y-108212628D02*
X125178571Y-108241200D01*
X125178571Y-108241200D02*
X125121428Y-108269771D01*
X125121428Y-108269771D02*
X124978571Y-108269771D01*
X124978571Y-108269771D02*
X124921428Y-108241200D01*
X124921428Y-108241200D02*
X124892856Y-108212628D01*
X125778571Y-107669771D02*
X125492857Y-107669771D01*
X125492857Y-107669771D02*
X125464285Y-107955485D01*
X125464285Y-107955485D02*
X125492857Y-107926914D01*
X125492857Y-107926914D02*
X125550000Y-107898342D01*
X125550000Y-107898342D02*
X125692857Y-107898342D01*
X125692857Y-107898342D02*
X125750000Y-107926914D01*
X125750000Y-107926914D02*
X125778571Y-107955485D01*
X125778571Y-107955485D02*
X125807142Y-108012628D01*
X125807142Y-108012628D02*
X125807142Y-108155485D01*
X125807142Y-108155485D02*
X125778571Y-108212628D01*
X125778571Y-108212628D02*
X125750000Y-108241200D01*
X125750000Y-108241200D02*
X125692857Y-108269771D01*
X125692857Y-108269771D02*
X125550000Y-108269771D01*
X125550000Y-108269771D02*
X125492857Y-108241200D01*
X125492857Y-108241200D02*
X125464285Y-108212628D01*
X126007143Y-107669771D02*
X126378571Y-107669771D01*
X126378571Y-107669771D02*
X126178571Y-107898342D01*
X126178571Y-107898342D02*
X126264286Y-107898342D01*
X126264286Y-107898342D02*
X126321429Y-107926914D01*
X126321429Y-107926914D02*
X126350000Y-107955485D01*
X126350000Y-107955485D02*
X126378571Y-108012628D01*
X126378571Y-108012628D02*
X126378571Y-108155485D01*
X126378571Y-108155485D02*
X126350000Y-108212628D01*
X126350000Y-108212628D02*
X126321429Y-108241200D01*
X126321429Y-108241200D02*
X126264286Y-108269771D01*
X126264286Y-108269771D02*
X126092857Y-108269771D01*
X126092857Y-108269771D02*
X126035714Y-108241200D01*
X126035714Y-108241200D02*
X126007143Y-108212628D01*
X134992080Y-113412857D02*
X135039700Y-113460476D01*
X135039700Y-113460476D02*
X135087319Y-113603333D01*
X135087319Y-113603333D02*
X135087319Y-113698571D01*
X135087319Y-113698571D02*
X135039700Y-113841428D01*
X135039700Y-113841428D02*
X134944461Y-113936666D01*
X134944461Y-113936666D02*
X134849223Y-113984285D01*
X134849223Y-113984285D02*
X134658747Y-114031904D01*
X134658747Y-114031904D02*
X134515890Y-114031904D01*
X134515890Y-114031904D02*
X134325414Y-113984285D01*
X134325414Y-113984285D02*
X134230176Y-113936666D01*
X134230176Y-113936666D02*
X134134938Y-113841428D01*
X134134938Y-113841428D02*
X134087319Y-113698571D01*
X134087319Y-113698571D02*
X134087319Y-113603333D01*
X134087319Y-113603333D02*
X134134938Y-113460476D01*
X134134938Y-113460476D02*
X134182557Y-113412857D01*
X134801604Y-113031904D02*
X134801604Y-112555714D01*
X135087319Y-113127142D02*
X134087319Y-112793809D01*
X134087319Y-112793809D02*
X135087319Y-112460476D01*
X135087319Y-112127142D02*
X134087319Y-112127142D01*
X134087319Y-112127142D02*
X135087319Y-111555714D01*
X135087319Y-111555714D02*
X134087319Y-111555714D01*
X134706366Y-111079523D02*
X134706366Y-110317619D01*
X134087319Y-109984285D02*
X134087319Y-109412857D01*
X135087319Y-109698571D02*
X134087319Y-109698571D01*
X135087319Y-108508095D02*
X134611128Y-108841428D01*
X135087319Y-109079523D02*
X134087319Y-109079523D01*
X134087319Y-109079523D02*
X134087319Y-108698571D01*
X134087319Y-108698571D02*
X134134938Y-108603333D01*
X134134938Y-108603333D02*
X134182557Y-108555714D01*
X134182557Y-108555714D02*
X134277795Y-108508095D01*
X134277795Y-108508095D02*
X134420652Y-108508095D01*
X134420652Y-108508095D02*
X134515890Y-108555714D01*
X134515890Y-108555714D02*
X134563509Y-108603333D01*
X134563509Y-108603333D02*
X134611128Y-108698571D01*
X134611128Y-108698571D02*
X134611128Y-109079523D01*
X122671428Y-105269771D02*
X122471428Y-104984057D01*
X122328571Y-105269771D02*
X122328571Y-104669771D01*
X122328571Y-104669771D02*
X122557142Y-104669771D01*
X122557142Y-104669771D02*
X122614285Y-104698342D01*
X122614285Y-104698342D02*
X122642856Y-104726914D01*
X122642856Y-104726914D02*
X122671428Y-104784057D01*
X122671428Y-104784057D02*
X122671428Y-104869771D01*
X122671428Y-104869771D02*
X122642856Y-104926914D01*
X122642856Y-104926914D02*
X122614285Y-104955485D01*
X122614285Y-104955485D02*
X122557142Y-104984057D01*
X122557142Y-104984057D02*
X122328571Y-104984057D01*
X122899999Y-105241200D02*
X122985714Y-105269771D01*
X122985714Y-105269771D02*
X123128571Y-105269771D01*
X123128571Y-105269771D02*
X123185714Y-105241200D01*
X123185714Y-105241200D02*
X123214285Y-105212628D01*
X123214285Y-105212628D02*
X123242856Y-105155485D01*
X123242856Y-105155485D02*
X123242856Y-105098342D01*
X123242856Y-105098342D02*
X123214285Y-105041200D01*
X123214285Y-105041200D02*
X123185714Y-105012628D01*
X123185714Y-105012628D02*
X123128571Y-104984057D01*
X123128571Y-104984057D02*
X123014285Y-104955485D01*
X123014285Y-104955485D02*
X122957142Y-104926914D01*
X122957142Y-104926914D02*
X122928571Y-104898342D01*
X122928571Y-104898342D02*
X122899999Y-104841200D01*
X122899999Y-104841200D02*
X122899999Y-104784057D01*
X122899999Y-104784057D02*
X122928571Y-104726914D01*
X122928571Y-104726914D02*
X122957142Y-104698342D01*
X122957142Y-104698342D02*
X123014285Y-104669771D01*
X123014285Y-104669771D02*
X123157142Y-104669771D01*
X123157142Y-104669771D02*
X123242856Y-104698342D01*
X123500000Y-105041200D02*
X123957143Y-105041200D01*
X124500000Y-104869771D02*
X124500000Y-105269771D01*
X124357142Y-104641200D02*
X124214285Y-105069771D01*
X124214285Y-105069771D02*
X124585714Y-105069771D01*
X124900000Y-104926914D02*
X124842857Y-104898342D01*
X124842857Y-104898342D02*
X124814286Y-104869771D01*
X124814286Y-104869771D02*
X124785714Y-104812628D01*
X124785714Y-104812628D02*
X124785714Y-104784057D01*
X124785714Y-104784057D02*
X124814286Y-104726914D01*
X124814286Y-104726914D02*
X124842857Y-104698342D01*
X124842857Y-104698342D02*
X124900000Y-104669771D01*
X124900000Y-104669771D02*
X125014286Y-104669771D01*
X125014286Y-104669771D02*
X125071429Y-104698342D01*
X125071429Y-104698342D02*
X125100000Y-104726914D01*
X125100000Y-104726914D02*
X125128571Y-104784057D01*
X125128571Y-104784057D02*
X125128571Y-104812628D01*
X125128571Y-104812628D02*
X125100000Y-104869771D01*
X125100000Y-104869771D02*
X125071429Y-104898342D01*
X125071429Y-104898342D02*
X125014286Y-104926914D01*
X125014286Y-104926914D02*
X124900000Y-104926914D01*
X124900000Y-104926914D02*
X124842857Y-104955485D01*
X124842857Y-104955485D02*
X124814286Y-104984057D01*
X124814286Y-104984057D02*
X124785714Y-105041200D01*
X124785714Y-105041200D02*
X124785714Y-105155485D01*
X124785714Y-105155485D02*
X124814286Y-105212628D01*
X124814286Y-105212628D02*
X124842857Y-105241200D01*
X124842857Y-105241200D02*
X124900000Y-105269771D01*
X124900000Y-105269771D02*
X125014286Y-105269771D01*
X125014286Y-105269771D02*
X125071429Y-105241200D01*
X125071429Y-105241200D02*
X125100000Y-105212628D01*
X125100000Y-105212628D02*
X125128571Y-105155485D01*
X125128571Y-105155485D02*
X125128571Y-105041200D01*
X125128571Y-105041200D02*
X125100000Y-104984057D01*
X125100000Y-104984057D02*
X125071429Y-104955485D01*
X125071429Y-104955485D02*
X125014286Y-104926914D01*
X125671429Y-104669771D02*
X125385715Y-104669771D01*
X125385715Y-104669771D02*
X125357143Y-104955485D01*
X125357143Y-104955485D02*
X125385715Y-104926914D01*
X125385715Y-104926914D02*
X125442858Y-104898342D01*
X125442858Y-104898342D02*
X125585715Y-104898342D01*
X125585715Y-104898342D02*
X125642858Y-104926914D01*
X125642858Y-104926914D02*
X125671429Y-104955485D01*
X125671429Y-104955485D02*
X125700000Y-105012628D01*
X125700000Y-105012628D02*
X125700000Y-105155485D01*
X125700000Y-105155485D02*
X125671429Y-105212628D01*
X125671429Y-105212628D02*
X125642858Y-105241200D01*
X125642858Y-105241200D02*
X125585715Y-105269771D01*
X125585715Y-105269771D02*
X125442858Y-105269771D01*
X125442858Y-105269771D02*
X125385715Y-105241200D01*
X125385715Y-105241200D02*
X125357143Y-105212628D01*
X159821033Y-98708333D02*
X159821033Y-99041666D01*
X159821033Y-99041666D02*
X159121033Y-99041666D01*
X159121033Y-98341666D02*
X159121033Y-98208332D01*
X159121033Y-98208332D02*
X159154366Y-98141666D01*
X159154366Y-98141666D02*
X159221033Y-98074999D01*
X159221033Y-98074999D02*
X159354366Y-98041666D01*
X159354366Y-98041666D02*
X159587700Y-98041666D01*
X159587700Y-98041666D02*
X159721033Y-98074999D01*
X159721033Y-98074999D02*
X159787700Y-98141666D01*
X159787700Y-98141666D02*
X159821033Y-98208332D01*
X159821033Y-98208332D02*
X159821033Y-98341666D01*
X159821033Y-98341666D02*
X159787700Y-98408332D01*
X159787700Y-98408332D02*
X159721033Y-98474999D01*
X159721033Y-98474999D02*
X159587700Y-98508332D01*
X159587700Y-98508332D02*
X159354366Y-98508332D01*
X159354366Y-98508332D02*
X159221033Y-98474999D01*
X159221033Y-98474999D02*
X159154366Y-98408332D01*
X159154366Y-98408332D02*
X159121033Y-98341666D01*
X159621033Y-97774999D02*
X159621033Y-97441666D01*
X159821033Y-97841666D02*
X159121033Y-97608333D01*
X159121033Y-97608333D02*
X159821033Y-97374999D01*
X159821033Y-97141666D02*
X159121033Y-97141666D01*
X159121033Y-97141666D02*
X159121033Y-96974999D01*
X159121033Y-96974999D02*
X159154366Y-96874999D01*
X159154366Y-96874999D02*
X159221033Y-96808333D01*
X159221033Y-96808333D02*
X159287700Y-96774999D01*
X159287700Y-96774999D02*
X159421033Y-96741666D01*
X159421033Y-96741666D02*
X159521033Y-96741666D01*
X159521033Y-96741666D02*
X159654366Y-96774999D01*
X159654366Y-96774999D02*
X159721033Y-96808333D01*
X159721033Y-96808333D02*
X159787700Y-96874999D01*
X159787700Y-96874999D02*
X159821033Y-96974999D01*
X159821033Y-96974999D02*
X159821033Y-97141666D01*
X159554366Y-96441666D02*
X159554366Y-95908333D01*
X159621033Y-95608332D02*
X159621033Y-95274999D01*
X159821033Y-95674999D02*
X159121033Y-95441666D01*
X159121033Y-95441666D02*
X159821033Y-95208332D01*
X159821033Y-94974999D02*
X159121033Y-94974999D01*
X159121033Y-94974999D02*
X159121033Y-94808332D01*
X159121033Y-94808332D02*
X159154366Y-94708332D01*
X159154366Y-94708332D02*
X159221033Y-94641666D01*
X159221033Y-94641666D02*
X159287700Y-94608332D01*
X159287700Y-94608332D02*
X159421033Y-94574999D01*
X159421033Y-94574999D02*
X159521033Y-94574999D01*
X159521033Y-94574999D02*
X159654366Y-94608332D01*
X159654366Y-94608332D02*
X159721033Y-94641666D01*
X159721033Y-94641666D02*
X159787700Y-94708332D01*
X159787700Y-94708332D02*
X159821033Y-94808332D01*
X159821033Y-94808332D02*
X159821033Y-94974999D01*
X159754366Y-93874999D02*
X159787700Y-93908332D01*
X159787700Y-93908332D02*
X159821033Y-94008332D01*
X159821033Y-94008332D02*
X159821033Y-94074999D01*
X159821033Y-94074999D02*
X159787700Y-94174999D01*
X159787700Y-94174999D02*
X159721033Y-94241666D01*
X159721033Y-94241666D02*
X159654366Y-94274999D01*
X159654366Y-94274999D02*
X159521033Y-94308332D01*
X159521033Y-94308332D02*
X159421033Y-94308332D01*
X159421033Y-94308332D02*
X159287700Y-94274999D01*
X159287700Y-94274999D02*
X159221033Y-94241666D01*
X159221033Y-94241666D02*
X159154366Y-94174999D01*
X159154366Y-94174999D02*
X159121033Y-94074999D01*
X159121033Y-94074999D02*
X159121033Y-94008332D01*
X159121033Y-94008332D02*
X159154366Y-93908332D01*
X159154366Y-93908332D02*
X159187700Y-93874999D01*
X122435714Y-102212628D02*
X122407142Y-102241200D01*
X122407142Y-102241200D02*
X122321428Y-102269771D01*
X122321428Y-102269771D02*
X122264285Y-102269771D01*
X122264285Y-102269771D02*
X122178571Y-102241200D01*
X122178571Y-102241200D02*
X122121428Y-102184057D01*
X122121428Y-102184057D02*
X122092857Y-102126914D01*
X122092857Y-102126914D02*
X122064285Y-102012628D01*
X122064285Y-102012628D02*
X122064285Y-101926914D01*
X122064285Y-101926914D02*
X122092857Y-101812628D01*
X122092857Y-101812628D02*
X122121428Y-101755485D01*
X122121428Y-101755485D02*
X122178571Y-101698342D01*
X122178571Y-101698342D02*
X122264285Y-101669771D01*
X122264285Y-101669771D02*
X122321428Y-101669771D01*
X122321428Y-101669771D02*
X122407142Y-101698342D01*
X122407142Y-101698342D02*
X122435714Y-101726914D01*
X122664285Y-102098342D02*
X122950000Y-102098342D01*
X122607142Y-102269771D02*
X122807142Y-101669771D01*
X122807142Y-101669771D02*
X123007142Y-102269771D01*
X123207143Y-102269771D02*
X123207143Y-101669771D01*
X123207143Y-101669771D02*
X123550000Y-102269771D01*
X123550000Y-102269771D02*
X123550000Y-101669771D01*
X123835714Y-102041200D02*
X124292857Y-102041200D01*
X124778571Y-101955485D02*
X124578571Y-101955485D01*
X124578571Y-102269771D02*
X124578571Y-101669771D01*
X124578571Y-101669771D02*
X124864285Y-101669771D01*
X125092857Y-102269771D02*
X125092857Y-101669771D01*
X125092857Y-101669771D02*
X125235714Y-101669771D01*
X125235714Y-101669771D02*
X125321428Y-101698342D01*
X125321428Y-101698342D02*
X125378571Y-101755485D01*
X125378571Y-101755485D02*
X125407142Y-101812628D01*
X125407142Y-101812628D02*
X125435714Y-101926914D01*
X125435714Y-101926914D02*
X125435714Y-102012628D01*
X125435714Y-102012628D02*
X125407142Y-102126914D01*
X125407142Y-102126914D02*
X125378571Y-102184057D01*
X125378571Y-102184057D02*
X125321428Y-102241200D01*
X125321428Y-102241200D02*
X125235714Y-102269771D01*
X125235714Y-102269771D02*
X125092857Y-102269771D01*
X123328572Y-117862295D02*
X123328572Y-117062295D01*
X123328572Y-117062295D02*
X123633334Y-117062295D01*
X123633334Y-117062295D02*
X123709524Y-117100390D01*
X123709524Y-117100390D02*
X123747619Y-117138485D01*
X123747619Y-117138485D02*
X123785715Y-117214676D01*
X123785715Y-117214676D02*
X123785715Y-117328961D01*
X123785715Y-117328961D02*
X123747619Y-117405152D01*
X123747619Y-117405152D02*
X123709524Y-117443247D01*
X123709524Y-117443247D02*
X123633334Y-117481342D01*
X123633334Y-117481342D02*
X123328572Y-117481342D01*
X124052381Y-117062295D02*
X124242857Y-117862295D01*
X124242857Y-117862295D02*
X124395238Y-117290866D01*
X124395238Y-117290866D02*
X124547619Y-117862295D01*
X124547619Y-117862295D02*
X124738096Y-117062295D01*
X125500001Y-117862295D02*
X125233334Y-117481342D01*
X125042858Y-117862295D02*
X125042858Y-117062295D01*
X125042858Y-117062295D02*
X125347620Y-117062295D01*
X125347620Y-117062295D02*
X125423810Y-117100390D01*
X125423810Y-117100390D02*
X125461905Y-117138485D01*
X125461905Y-117138485D02*
X125500001Y-117214676D01*
X125500001Y-117214676D02*
X125500001Y-117328961D01*
X125500001Y-117328961D02*
X125461905Y-117405152D01*
X125461905Y-117405152D02*
X125423810Y-117443247D01*
X125423810Y-117443247D02*
X125347620Y-117481342D01*
X125347620Y-117481342D02*
X125042858Y-117481342D01*
X125842858Y-117557533D02*
X126452382Y-117557533D01*
X126833334Y-117862295D02*
X126833334Y-117062295D01*
X127214286Y-117862295D02*
X127214286Y-117062295D01*
X127214286Y-117062295D02*
X127671429Y-117862295D01*
X127671429Y-117862295D02*
X127671429Y-117062295D01*
X121950000Y-94991200D02*
X122035715Y-95019771D01*
X122035715Y-95019771D02*
X122178572Y-95019771D01*
X122178572Y-95019771D02*
X122235715Y-94991200D01*
X122235715Y-94991200D02*
X122264286Y-94962628D01*
X122264286Y-94962628D02*
X122292857Y-94905485D01*
X122292857Y-94905485D02*
X122292857Y-94848342D01*
X122292857Y-94848342D02*
X122264286Y-94791200D01*
X122264286Y-94791200D02*
X122235715Y-94762628D01*
X122235715Y-94762628D02*
X122178572Y-94734057D01*
X122178572Y-94734057D02*
X122064286Y-94705485D01*
X122064286Y-94705485D02*
X122007143Y-94676914D01*
X122007143Y-94676914D02*
X121978572Y-94648342D01*
X121978572Y-94648342D02*
X121950000Y-94591200D01*
X121950000Y-94591200D02*
X121950000Y-94534057D01*
X121950000Y-94534057D02*
X121978572Y-94476914D01*
X121978572Y-94476914D02*
X122007143Y-94448342D01*
X122007143Y-94448342D02*
X122064286Y-94419771D01*
X122064286Y-94419771D02*
X122207143Y-94419771D01*
X122207143Y-94419771D02*
X122292857Y-94448342D01*
X122550001Y-95019771D02*
X122550001Y-94419771D01*
X122835715Y-95019771D02*
X122835715Y-94419771D01*
X123178572Y-95019771D02*
X122921429Y-94676914D01*
X123178572Y-94419771D02*
X122835715Y-94762628D01*
X123435715Y-94791200D02*
X123892858Y-94791200D01*
X124092857Y-94419771D02*
X124435715Y-94419771D01*
X124264286Y-95019771D02*
X124264286Y-94419771D01*
X124921429Y-95019771D02*
X124635715Y-95019771D01*
X124635715Y-95019771D02*
X124635715Y-94419771D01*
X125121429Y-95019771D02*
X125121429Y-94419771D01*
X125121429Y-94419771D02*
X125321429Y-94848342D01*
X125321429Y-94848342D02*
X125521429Y-94419771D01*
X125521429Y-94419771D02*
X125521429Y-95019771D01*
X121464285Y-97419771D02*
X121664285Y-98019771D01*
X121664285Y-98019771D02*
X121864285Y-97419771D01*
X122064286Y-98019771D02*
X122064286Y-97419771D01*
X122064286Y-97705485D02*
X122407143Y-97705485D01*
X122407143Y-98019771D02*
X122407143Y-97419771D01*
X122892857Y-97705485D02*
X122692857Y-97705485D01*
X122692857Y-98019771D02*
X122692857Y-97419771D01*
X122692857Y-97419771D02*
X122978571Y-97419771D01*
X123207143Y-97791200D02*
X123664286Y-97791200D01*
X123892857Y-97419771D02*
X124292857Y-98019771D01*
X124292857Y-97419771D02*
X123892857Y-98019771D01*
X124864286Y-97962628D02*
X124835714Y-97991200D01*
X124835714Y-97991200D02*
X124750000Y-98019771D01*
X124750000Y-98019771D02*
X124692857Y-98019771D01*
X124692857Y-98019771D02*
X124607143Y-97991200D01*
X124607143Y-97991200D02*
X124550000Y-97934057D01*
X124550000Y-97934057D02*
X124521429Y-97876914D01*
X124521429Y-97876914D02*
X124492857Y-97762628D01*
X124492857Y-97762628D02*
X124492857Y-97676914D01*
X124492857Y-97676914D02*
X124521429Y-97562628D01*
X124521429Y-97562628D02*
X124550000Y-97505485D01*
X124550000Y-97505485D02*
X124607143Y-97448342D01*
X124607143Y-97448342D02*
X124692857Y-97419771D01*
X124692857Y-97419771D02*
X124750000Y-97419771D01*
X124750000Y-97419771D02*
X124835714Y-97448342D01*
X124835714Y-97448342D02*
X124864286Y-97476914D01*
X125035714Y-97419771D02*
X125235714Y-98019771D01*
X125235714Y-98019771D02*
X125435714Y-97419771D01*
X125978572Y-98019771D02*
X125778572Y-97734057D01*
X125635715Y-98019771D02*
X125635715Y-97419771D01*
X125635715Y-97419771D02*
X125864286Y-97419771D01*
X125864286Y-97419771D02*
X125921429Y-97448342D01*
X125921429Y-97448342D02*
X125950000Y-97476914D01*
X125950000Y-97476914D02*
X125978572Y-97534057D01*
X125978572Y-97534057D02*
X125978572Y-97619771D01*
X125978572Y-97619771D02*
X125950000Y-97676914D01*
X125950000Y-97676914D02*
X125921429Y-97705485D01*
X125921429Y-97705485D02*
X125864286Y-97734057D01*
X125864286Y-97734057D02*
X125635715Y-97734057D01*
X146954819Y-106119046D02*
X147764342Y-106119046D01*
X147764342Y-106119046D02*
X147859580Y-106071427D01*
X147859580Y-106071427D02*
X147907200Y-106023808D01*
X147907200Y-106023808D02*
X147954819Y-105928570D01*
X147954819Y-105928570D02*
X147954819Y-105738094D01*
X147954819Y-105738094D02*
X147907200Y-105642856D01*
X147907200Y-105642856D02*
X147859580Y-105595237D01*
X147859580Y-105595237D02*
X147764342Y-105547618D01*
X147764342Y-105547618D02*
X146954819Y-105547618D01*
X147573866Y-105071427D02*
X147573866Y-104309523D01*
X147954819Y-103833332D02*
X146954819Y-103833332D01*
X147907200Y-103404761D02*
X147954819Y-103261904D01*
X147954819Y-103261904D02*
X147954819Y-103023809D01*
X147954819Y-103023809D02*
X147907200Y-102928571D01*
X147907200Y-102928571D02*
X147859580Y-102880952D01*
X147859580Y-102880952D02*
X147764342Y-102833333D01*
X147764342Y-102833333D02*
X147669104Y-102833333D01*
X147669104Y-102833333D02*
X147573866Y-102880952D01*
X147573866Y-102880952D02*
X147526247Y-102928571D01*
X147526247Y-102928571D02*
X147478628Y-103023809D01*
X147478628Y-103023809D02*
X147431009Y-103214285D01*
X147431009Y-103214285D02*
X147383390Y-103309523D01*
X147383390Y-103309523D02*
X147335771Y-103357142D01*
X147335771Y-103357142D02*
X147240533Y-103404761D01*
X147240533Y-103404761D02*
X147145295Y-103404761D01*
X147145295Y-103404761D02*
X147050057Y-103357142D01*
X147050057Y-103357142D02*
X147002438Y-103309523D01*
X147002438Y-103309523D02*
X146954819Y-103214285D01*
X146954819Y-103214285D02*
X146954819Y-102976190D01*
X146954819Y-102976190D02*
X147002438Y-102833333D01*
X146954819Y-102214285D02*
X146954819Y-102023809D01*
X146954819Y-102023809D02*
X147002438Y-101928571D01*
X147002438Y-101928571D02*
X147097676Y-101833333D01*
X147097676Y-101833333D02*
X147288152Y-101785714D01*
X147288152Y-101785714D02*
X147621485Y-101785714D01*
X147621485Y-101785714D02*
X147811961Y-101833333D01*
X147811961Y-101833333D02*
X147907200Y-101928571D01*
X147907200Y-101928571D02*
X147954819Y-102023809D01*
X147954819Y-102023809D02*
X147954819Y-102214285D01*
X147954819Y-102214285D02*
X147907200Y-102309523D01*
X147907200Y-102309523D02*
X147811961Y-102404761D01*
X147811961Y-102404761D02*
X147621485Y-102452380D01*
X147621485Y-102452380D02*
X147288152Y-102452380D01*
X147288152Y-102452380D02*
X147097676Y-102404761D01*
X147097676Y-102404761D02*
X147002438Y-102309523D01*
X147002438Y-102309523D02*
X146954819Y-102214285D01*
X147573866Y-101357142D02*
X147573866Y-100595238D01*
X146954819Y-100261904D02*
X146954819Y-99690476D01*
X147954819Y-99976190D02*
X146954819Y-99976190D01*
X146954819Y-99452380D02*
X147954819Y-98785714D01*
X146954819Y-98785714D02*
X147954819Y-99452380D01*
X123158333Y-107762295D02*
X123158333Y-108333723D01*
X123158333Y-108333723D02*
X123120238Y-108448009D01*
X123120238Y-108448009D02*
X123044047Y-108524200D01*
X123044047Y-108524200D02*
X122929762Y-108562295D01*
X122929762Y-108562295D02*
X122853571Y-108562295D01*
X123539286Y-108257533D02*
X124148810Y-108257533D01*
X124529762Y-108143247D02*
X124796428Y-108143247D01*
X124910714Y-108562295D02*
X124529762Y-108562295D01*
X124529762Y-108562295D02*
X124529762Y-107762295D01*
X124529762Y-107762295D02*
X124910714Y-107762295D01*
X125139286Y-107762295D02*
X125596429Y-107762295D01*
X125367857Y-108562295D02*
X125367857Y-107762295D01*
X125863096Y-108562295D02*
X125863096Y-107762295D01*
X125863096Y-108143247D02*
X126320239Y-108143247D01*
X126320239Y-108562295D02*
X126320239Y-107762295D01*
X142150000Y-99362628D02*
X142121428Y-99391200D01*
X142121428Y-99391200D02*
X142035714Y-99419771D01*
X142035714Y-99419771D02*
X141978571Y-99419771D01*
X141978571Y-99419771D02*
X141892857Y-99391200D01*
X141892857Y-99391200D02*
X141835714Y-99334057D01*
X141835714Y-99334057D02*
X141807143Y-99276914D01*
X141807143Y-99276914D02*
X141778571Y-99162628D01*
X141778571Y-99162628D02*
X141778571Y-99076914D01*
X141778571Y-99076914D02*
X141807143Y-98962628D01*
X141807143Y-98962628D02*
X141835714Y-98905485D01*
X141835714Y-98905485D02*
X141892857Y-98848342D01*
X141892857Y-98848342D02*
X141978571Y-98819771D01*
X141978571Y-98819771D02*
X142035714Y-98819771D01*
X142035714Y-98819771D02*
X142121428Y-98848342D01*
X142121428Y-98848342D02*
X142150000Y-98876914D01*
X142407143Y-99419771D02*
X142407143Y-98819771D01*
X142407143Y-98819771D02*
X142607143Y-99248342D01*
X142607143Y-99248342D02*
X142807143Y-98819771D01*
X142807143Y-98819771D02*
X142807143Y-99419771D01*
X143435714Y-99362628D02*
X143407142Y-99391200D01*
X143407142Y-99391200D02*
X143321428Y-99419771D01*
X143321428Y-99419771D02*
X143264285Y-99419771D01*
X143264285Y-99419771D02*
X143178571Y-99391200D01*
X143178571Y-99391200D02*
X143121428Y-99334057D01*
X143121428Y-99334057D02*
X143092857Y-99276914D01*
X143092857Y-99276914D02*
X143064285Y-99162628D01*
X143064285Y-99162628D02*
X143064285Y-99076914D01*
X143064285Y-99076914D02*
X143092857Y-98962628D01*
X143092857Y-98962628D02*
X143121428Y-98905485D01*
X143121428Y-98905485D02*
X143178571Y-98848342D01*
X143178571Y-98848342D02*
X143264285Y-98819771D01*
X143264285Y-98819771D02*
X143321428Y-98819771D01*
X143321428Y-98819771D02*
X143407142Y-98848342D01*
X143407142Y-98848342D02*
X143435714Y-98876914D01*
X143692857Y-99191200D02*
X144150000Y-99191200D01*
X144778571Y-99362628D02*
X144749999Y-99391200D01*
X144749999Y-99391200D02*
X144664285Y-99419771D01*
X144664285Y-99419771D02*
X144607142Y-99419771D01*
X144607142Y-99419771D02*
X144521428Y-99391200D01*
X144521428Y-99391200D02*
X144464285Y-99334057D01*
X144464285Y-99334057D02*
X144435714Y-99276914D01*
X144435714Y-99276914D02*
X144407142Y-99162628D01*
X144407142Y-99162628D02*
X144407142Y-99076914D01*
X144407142Y-99076914D02*
X144435714Y-98962628D01*
X144435714Y-98962628D02*
X144464285Y-98905485D01*
X144464285Y-98905485D02*
X144521428Y-98848342D01*
X144521428Y-98848342D02*
X144607142Y-98819771D01*
X144607142Y-98819771D02*
X144664285Y-98819771D01*
X144664285Y-98819771D02*
X144749999Y-98848342D01*
X144749999Y-98848342D02*
X144778571Y-98876914D01*
X145007142Y-99248342D02*
X145292857Y-99248342D01*
X144949999Y-99419771D02*
X145149999Y-98819771D01*
X145149999Y-98819771D02*
X145349999Y-99419771D01*
X145550000Y-99419771D02*
X145550000Y-98819771D01*
X145550000Y-98819771D02*
X145892857Y-99419771D01*
X145892857Y-99419771D02*
X145892857Y-98819771D01*
X141728571Y-103012628D02*
X141699999Y-103041200D01*
X141699999Y-103041200D02*
X141614285Y-103069771D01*
X141614285Y-103069771D02*
X141557142Y-103069771D01*
X141557142Y-103069771D02*
X141471428Y-103041200D01*
X141471428Y-103041200D02*
X141414285Y-102984057D01*
X141414285Y-102984057D02*
X141385714Y-102926914D01*
X141385714Y-102926914D02*
X141357142Y-102812628D01*
X141357142Y-102812628D02*
X141357142Y-102726914D01*
X141357142Y-102726914D02*
X141385714Y-102612628D01*
X141385714Y-102612628D02*
X141414285Y-102555485D01*
X141414285Y-102555485D02*
X141471428Y-102498342D01*
X141471428Y-102498342D02*
X141557142Y-102469771D01*
X141557142Y-102469771D02*
X141614285Y-102469771D01*
X141614285Y-102469771D02*
X141699999Y-102498342D01*
X141699999Y-102498342D02*
X141728571Y-102526914D01*
X141985714Y-103069771D02*
X141985714Y-102469771D01*
X141985714Y-102469771D02*
X142185714Y-102898342D01*
X142185714Y-102898342D02*
X142385714Y-102469771D01*
X142385714Y-102469771D02*
X142385714Y-103069771D01*
X143014285Y-103012628D02*
X142985713Y-103041200D01*
X142985713Y-103041200D02*
X142899999Y-103069771D01*
X142899999Y-103069771D02*
X142842856Y-103069771D01*
X142842856Y-103069771D02*
X142757142Y-103041200D01*
X142757142Y-103041200D02*
X142699999Y-102984057D01*
X142699999Y-102984057D02*
X142671428Y-102926914D01*
X142671428Y-102926914D02*
X142642856Y-102812628D01*
X142642856Y-102812628D02*
X142642856Y-102726914D01*
X142642856Y-102726914D02*
X142671428Y-102612628D01*
X142671428Y-102612628D02*
X142699999Y-102555485D01*
X142699999Y-102555485D02*
X142757142Y-102498342D01*
X142757142Y-102498342D02*
X142842856Y-102469771D01*
X142842856Y-102469771D02*
X142899999Y-102469771D01*
X142899999Y-102469771D02*
X142985713Y-102498342D01*
X142985713Y-102498342D02*
X143014285Y-102526914D01*
X143271428Y-102841200D02*
X143728571Y-102841200D01*
X144357142Y-103069771D02*
X144157142Y-102784057D01*
X144014285Y-103069771D02*
X144014285Y-102469771D01*
X144014285Y-102469771D02*
X144242856Y-102469771D01*
X144242856Y-102469771D02*
X144299999Y-102498342D01*
X144299999Y-102498342D02*
X144328570Y-102526914D01*
X144328570Y-102526914D02*
X144357142Y-102584057D01*
X144357142Y-102584057D02*
X144357142Y-102669771D01*
X144357142Y-102669771D02*
X144328570Y-102726914D01*
X144328570Y-102726914D02*
X144299999Y-102755485D01*
X144299999Y-102755485D02*
X144242856Y-102784057D01*
X144242856Y-102784057D02*
X144014285Y-102784057D01*
X144585713Y-103041200D02*
X144671428Y-103069771D01*
X144671428Y-103069771D02*
X144814285Y-103069771D01*
X144814285Y-103069771D02*
X144871428Y-103041200D01*
X144871428Y-103041200D02*
X144899999Y-103012628D01*
X144899999Y-103012628D02*
X144928570Y-102955485D01*
X144928570Y-102955485D02*
X144928570Y-102898342D01*
X144928570Y-102898342D02*
X144899999Y-102841200D01*
X144899999Y-102841200D02*
X144871428Y-102812628D01*
X144871428Y-102812628D02*
X144814285Y-102784057D01*
X144814285Y-102784057D02*
X144699999Y-102755485D01*
X144699999Y-102755485D02*
X144642856Y-102726914D01*
X144642856Y-102726914D02*
X144614285Y-102698342D01*
X144614285Y-102698342D02*
X144585713Y-102641200D01*
X144585713Y-102641200D02*
X144585713Y-102584057D01*
X144585713Y-102584057D02*
X144614285Y-102526914D01*
X144614285Y-102526914D02*
X144642856Y-102498342D01*
X144642856Y-102498342D02*
X144699999Y-102469771D01*
X144699999Y-102469771D02*
X144842856Y-102469771D01*
X144842856Y-102469771D02*
X144928570Y-102498342D01*
X145442857Y-102669771D02*
X145442857Y-103069771D01*
X145299999Y-102441200D02*
X145157142Y-102869771D01*
X145157142Y-102869771D02*
X145528571Y-102869771D01*
X145842857Y-102726914D02*
X145785714Y-102698342D01*
X145785714Y-102698342D02*
X145757143Y-102669771D01*
X145757143Y-102669771D02*
X145728571Y-102612628D01*
X145728571Y-102612628D02*
X145728571Y-102584057D01*
X145728571Y-102584057D02*
X145757143Y-102526914D01*
X145757143Y-102526914D02*
X145785714Y-102498342D01*
X145785714Y-102498342D02*
X145842857Y-102469771D01*
X145842857Y-102469771D02*
X145957143Y-102469771D01*
X145957143Y-102469771D02*
X146014286Y-102498342D01*
X146014286Y-102498342D02*
X146042857Y-102526914D01*
X146042857Y-102526914D02*
X146071428Y-102584057D01*
X146071428Y-102584057D02*
X146071428Y-102612628D01*
X146071428Y-102612628D02*
X146042857Y-102669771D01*
X146042857Y-102669771D02*
X146014286Y-102698342D01*
X146014286Y-102698342D02*
X145957143Y-102726914D01*
X145957143Y-102726914D02*
X145842857Y-102726914D01*
X145842857Y-102726914D02*
X145785714Y-102755485D01*
X145785714Y-102755485D02*
X145757143Y-102784057D01*
X145757143Y-102784057D02*
X145728571Y-102841200D01*
X145728571Y-102841200D02*
X145728571Y-102955485D01*
X145728571Y-102955485D02*
X145757143Y-103012628D01*
X145757143Y-103012628D02*
X145785714Y-103041200D01*
X145785714Y-103041200D02*
X145842857Y-103069771D01*
X145842857Y-103069771D02*
X145957143Y-103069771D01*
X145957143Y-103069771D02*
X146014286Y-103041200D01*
X146014286Y-103041200D02*
X146042857Y-103012628D01*
X146042857Y-103012628D02*
X146071428Y-102955485D01*
X146071428Y-102955485D02*
X146071428Y-102841200D01*
X146071428Y-102841200D02*
X146042857Y-102784057D01*
X146042857Y-102784057D02*
X146014286Y-102755485D01*
X146014286Y-102755485D02*
X145957143Y-102726914D01*
X146614286Y-102469771D02*
X146328572Y-102469771D01*
X146328572Y-102469771D02*
X146300000Y-102755485D01*
X146300000Y-102755485D02*
X146328572Y-102726914D01*
X146328572Y-102726914D02*
X146385715Y-102698342D01*
X146385715Y-102698342D02*
X146528572Y-102698342D01*
X146528572Y-102698342D02*
X146585715Y-102726914D01*
X146585715Y-102726914D02*
X146614286Y-102755485D01*
X146614286Y-102755485D02*
X146642857Y-102812628D01*
X146642857Y-102812628D02*
X146642857Y-102955485D01*
X146642857Y-102955485D02*
X146614286Y-103012628D01*
X146614286Y-103012628D02*
X146585715Y-103041200D01*
X146585715Y-103041200D02*
X146528572Y-103069771D01*
X146528572Y-103069771D02*
X146385715Y-103069771D01*
X146385715Y-103069771D02*
X146328572Y-103041200D01*
X146328572Y-103041200D02*
X146300000Y-103012628D01*
X131316033Y-113600000D02*
X131316033Y-113200000D01*
X132016033Y-113400000D02*
X131316033Y-113400000D01*
X131316033Y-113066667D02*
X132016033Y-112833334D01*
X132016033Y-112833334D02*
X131316033Y-112600000D01*
X131982700Y-112400000D02*
X132016033Y-112300000D01*
X132016033Y-112300000D02*
X132016033Y-112133334D01*
X132016033Y-112133334D02*
X131982700Y-112066667D01*
X131982700Y-112066667D02*
X131949366Y-112033334D01*
X131949366Y-112033334D02*
X131882700Y-112000000D01*
X131882700Y-112000000D02*
X131816033Y-112000000D01*
X131816033Y-112000000D02*
X131749366Y-112033334D01*
X131749366Y-112033334D02*
X131716033Y-112066667D01*
X131716033Y-112066667D02*
X131682700Y-112133334D01*
X131682700Y-112133334D02*
X131649366Y-112266667D01*
X131649366Y-112266667D02*
X131616033Y-112333334D01*
X131616033Y-112333334D02*
X131582700Y-112366667D01*
X131582700Y-112366667D02*
X131516033Y-112400000D01*
X131516033Y-112400000D02*
X131449366Y-112400000D01*
X131449366Y-112400000D02*
X131382700Y-112366667D01*
X131382700Y-112366667D02*
X131349366Y-112333334D01*
X131349366Y-112333334D02*
X131316033Y-112266667D01*
X131316033Y-112266667D02*
X131316033Y-112100000D01*
X131316033Y-112100000D02*
X131349366Y-112000000D01*
X131749366Y-111700000D02*
X131749366Y-111166667D01*
X132016033Y-110466666D02*
X132016033Y-110866666D01*
X132016033Y-110666666D02*
X131316033Y-110666666D01*
X131316033Y-110666666D02*
X131416033Y-110733333D01*
X131416033Y-110733333D02*
X131482700Y-110800000D01*
X131482700Y-110800000D02*
X131516033Y-110866666D01*
X131316033Y-109833333D02*
X131316033Y-110166666D01*
X131316033Y-110166666D02*
X131649366Y-110199999D01*
X131649366Y-110199999D02*
X131616033Y-110166666D01*
X131616033Y-110166666D02*
X131582700Y-110099999D01*
X131582700Y-110099999D02*
X131582700Y-109933333D01*
X131582700Y-109933333D02*
X131616033Y-109866666D01*
X131616033Y-109866666D02*
X131649366Y-109833333D01*
X131649366Y-109833333D02*
X131716033Y-109799999D01*
X131716033Y-109799999D02*
X131882700Y-109799999D01*
X131882700Y-109799999D02*
X131949366Y-109833333D01*
X131949366Y-109833333D02*
X131982700Y-109866666D01*
X131982700Y-109866666D02*
X132016033Y-109933333D01*
X132016033Y-109933333D02*
X132016033Y-110099999D01*
X132016033Y-110099999D02*
X131982700Y-110166666D01*
X131982700Y-110166666D02*
X131949366Y-110199999D01*
X131316033Y-109166666D02*
X131316033Y-109499999D01*
X131316033Y-109499999D02*
X131649366Y-109533332D01*
X131649366Y-109533332D02*
X131616033Y-109499999D01*
X131616033Y-109499999D02*
X131582700Y-109433332D01*
X131582700Y-109433332D02*
X131582700Y-109266666D01*
X131582700Y-109266666D02*
X131616033Y-109199999D01*
X131616033Y-109199999D02*
X131649366Y-109166666D01*
X131649366Y-109166666D02*
X131716033Y-109133332D01*
X131716033Y-109133332D02*
X131882700Y-109133332D01*
X131882700Y-109133332D02*
X131949366Y-109166666D01*
X131949366Y-109166666D02*
X131982700Y-109199999D01*
X131982700Y-109199999D02*
X132016033Y-109266666D01*
X132016033Y-109266666D02*
X132016033Y-109433332D01*
X132016033Y-109433332D02*
X131982700Y-109499999D01*
X131982700Y-109499999D02*
X131949366Y-109533332D01*
X131316033Y-108899999D02*
X131316033Y-108466665D01*
X131316033Y-108466665D02*
X131582700Y-108699999D01*
X131582700Y-108699999D02*
X131582700Y-108599999D01*
X131582700Y-108599999D02*
X131616033Y-108533332D01*
X131616033Y-108533332D02*
X131649366Y-108499999D01*
X131649366Y-108499999D02*
X131716033Y-108466665D01*
X131716033Y-108466665D02*
X131882700Y-108466665D01*
X131882700Y-108466665D02*
X131949366Y-108499999D01*
X131949366Y-108499999D02*
X131982700Y-108533332D01*
X131982700Y-108533332D02*
X132016033Y-108599999D01*
X132016033Y-108599999D02*
X132016033Y-108799999D01*
X132016033Y-108799999D02*
X131982700Y-108866665D01*
X131982700Y-108866665D02*
X131949366Y-108899999D01*
X123650000Y-114955485D02*
X123450000Y-114955485D01*
X123450000Y-115269771D02*
X123450000Y-114669771D01*
X123450000Y-114669771D02*
X123735714Y-114669771D01*
X124164286Y-114955485D02*
X124250000Y-114984057D01*
X124250000Y-114984057D02*
X124278571Y-115012628D01*
X124278571Y-115012628D02*
X124307143Y-115069771D01*
X124307143Y-115069771D02*
X124307143Y-115155485D01*
X124307143Y-115155485D02*
X124278571Y-115212628D01*
X124278571Y-115212628D02*
X124250000Y-115241200D01*
X124250000Y-115241200D02*
X124192857Y-115269771D01*
X124192857Y-115269771D02*
X123964286Y-115269771D01*
X123964286Y-115269771D02*
X123964286Y-114669771D01*
X123964286Y-114669771D02*
X124164286Y-114669771D01*
X124164286Y-114669771D02*
X124221429Y-114698342D01*
X124221429Y-114698342D02*
X124250000Y-114726914D01*
X124250000Y-114726914D02*
X124278571Y-114784057D01*
X124278571Y-114784057D02*
X124278571Y-114841200D01*
X124278571Y-114841200D02*
X124250000Y-114898342D01*
X124250000Y-114898342D02*
X124221429Y-114926914D01*
X124221429Y-114926914D02*
X124164286Y-114955485D01*
X124164286Y-114955485D02*
X123964286Y-114955485D01*
X124878571Y-115269771D02*
X124535714Y-115269771D01*
X124707143Y-115269771D02*
X124707143Y-114669771D01*
X124707143Y-114669771D02*
X124650000Y-114755485D01*
X124650000Y-114755485D02*
X124592857Y-114812628D01*
X124592857Y-114812628D02*
X124535714Y-114841200D01*
D13*
X126569049Y-92624809D02*
X126902382Y-93124809D01*
X126902382Y-92624809D02*
X126569049Y-93124809D01*
X127069049Y-92672428D02*
X127092858Y-92648619D01*
X127092858Y-92648619D02*
X127140477Y-92624809D01*
X127140477Y-92624809D02*
X127259525Y-92624809D01*
X127259525Y-92624809D02*
X127307144Y-92648619D01*
X127307144Y-92648619D02*
X127330953Y-92672428D01*
X127330953Y-92672428D02*
X127354763Y-92720047D01*
X127354763Y-92720047D02*
X127354763Y-92767666D01*
X127354763Y-92767666D02*
X127330953Y-92839095D01*
X127330953Y-92839095D02*
X127045239Y-93124809D01*
X127045239Y-93124809D02*
X127354763Y-93124809D01*
X127664286Y-92886714D02*
X127664286Y-93124809D01*
X127497620Y-92624809D02*
X127664286Y-92886714D01*
X127664286Y-92886714D02*
X127830953Y-92624809D01*
X127997619Y-92934333D02*
X128378572Y-92934333D01*
X128902381Y-93124809D02*
X128735715Y-92886714D01*
X128616667Y-93124809D02*
X128616667Y-92624809D01*
X128616667Y-92624809D02*
X128807143Y-92624809D01*
X128807143Y-92624809D02*
X128854762Y-92648619D01*
X128854762Y-92648619D02*
X128878572Y-92672428D01*
X128878572Y-92672428D02*
X128902381Y-92720047D01*
X128902381Y-92720047D02*
X128902381Y-92791476D01*
X128902381Y-92791476D02*
X128878572Y-92839095D01*
X128878572Y-92839095D02*
X128854762Y-92862904D01*
X128854762Y-92862904D02*
X128807143Y-92886714D01*
X128807143Y-92886714D02*
X128616667Y-92886714D01*
X129092858Y-93101000D02*
X129164286Y-93124809D01*
X129164286Y-93124809D02*
X129283334Y-93124809D01*
X129283334Y-93124809D02*
X129330953Y-93101000D01*
X129330953Y-93101000D02*
X129354762Y-93077190D01*
X129354762Y-93077190D02*
X129378572Y-93029571D01*
X129378572Y-93029571D02*
X129378572Y-92981952D01*
X129378572Y-92981952D02*
X129354762Y-92934333D01*
X129354762Y-92934333D02*
X129330953Y-92910523D01*
X129330953Y-92910523D02*
X129283334Y-92886714D01*
X129283334Y-92886714D02*
X129188096Y-92862904D01*
X129188096Y-92862904D02*
X129140477Y-92839095D01*
X129140477Y-92839095D02*
X129116667Y-92815285D01*
X129116667Y-92815285D02*
X129092858Y-92767666D01*
X129092858Y-92767666D02*
X129092858Y-92720047D01*
X129092858Y-92720047D02*
X129116667Y-92672428D01*
X129116667Y-92672428D02*
X129140477Y-92648619D01*
X129140477Y-92648619D02*
X129188096Y-92624809D01*
X129188096Y-92624809D02*
X129307143Y-92624809D01*
X129307143Y-92624809D02*
X129378572Y-92648619D01*
X129807143Y-92791476D02*
X129807143Y-93124809D01*
X129688095Y-92601000D02*
X129569048Y-92958142D01*
X129569048Y-92958142D02*
X129878571Y-92958142D01*
X130140476Y-92839095D02*
X130092857Y-92815285D01*
X130092857Y-92815285D02*
X130069047Y-92791476D01*
X130069047Y-92791476D02*
X130045238Y-92743857D01*
X130045238Y-92743857D02*
X130045238Y-92720047D01*
X130045238Y-92720047D02*
X130069047Y-92672428D01*
X130069047Y-92672428D02*
X130092857Y-92648619D01*
X130092857Y-92648619D02*
X130140476Y-92624809D01*
X130140476Y-92624809D02*
X130235714Y-92624809D01*
X130235714Y-92624809D02*
X130283333Y-92648619D01*
X130283333Y-92648619D02*
X130307142Y-92672428D01*
X130307142Y-92672428D02*
X130330952Y-92720047D01*
X130330952Y-92720047D02*
X130330952Y-92743857D01*
X130330952Y-92743857D02*
X130307142Y-92791476D01*
X130307142Y-92791476D02*
X130283333Y-92815285D01*
X130283333Y-92815285D02*
X130235714Y-92839095D01*
X130235714Y-92839095D02*
X130140476Y-92839095D01*
X130140476Y-92839095D02*
X130092857Y-92862904D01*
X130092857Y-92862904D02*
X130069047Y-92886714D01*
X130069047Y-92886714D02*
X130045238Y-92934333D01*
X130045238Y-92934333D02*
X130045238Y-93029571D01*
X130045238Y-93029571D02*
X130069047Y-93077190D01*
X130069047Y-93077190D02*
X130092857Y-93101000D01*
X130092857Y-93101000D02*
X130140476Y-93124809D01*
X130140476Y-93124809D02*
X130235714Y-93124809D01*
X130235714Y-93124809D02*
X130283333Y-93101000D01*
X130283333Y-93101000D02*
X130307142Y-93077190D01*
X130307142Y-93077190D02*
X130330952Y-93029571D01*
X130330952Y-93029571D02*
X130330952Y-92934333D01*
X130330952Y-92934333D02*
X130307142Y-92886714D01*
X130307142Y-92886714D02*
X130283333Y-92862904D01*
X130283333Y-92862904D02*
X130235714Y-92839095D01*
X130783332Y-92624809D02*
X130545237Y-92624809D01*
X130545237Y-92624809D02*
X130521428Y-92862904D01*
X130521428Y-92862904D02*
X130545237Y-92839095D01*
X130545237Y-92839095D02*
X130592856Y-92815285D01*
X130592856Y-92815285D02*
X130711904Y-92815285D01*
X130711904Y-92815285D02*
X130759523Y-92839095D01*
X130759523Y-92839095D02*
X130783332Y-92862904D01*
X130783332Y-92862904D02*
X130807142Y-92910523D01*
X130807142Y-92910523D02*
X130807142Y-93029571D01*
X130807142Y-93029571D02*
X130783332Y-93077190D01*
X130783332Y-93077190D02*
X130759523Y-93101000D01*
X130759523Y-93101000D02*
X130711904Y-93124809D01*
X130711904Y-93124809D02*
X130592856Y-93124809D01*
X130592856Y-93124809D02*
X130545237Y-93101000D01*
X130545237Y-93101000D02*
X130521428Y-93077190D01*
D11*
%TO.C,uSD-X-Blk*%
X129835000Y-95335000D02*
X131485000Y-95335000D01*
X129835000Y-96985000D02*
X129835000Y-95335000D01*
X129835000Y-104015000D02*
X129835000Y-104515000D01*
X129835000Y-104515000D02*
X130985000Y-105665000D01*
X130985000Y-105665000D02*
X131485000Y-105665000D01*
X140165000Y-95335000D02*
X138515000Y-95335000D01*
X140165000Y-96985000D02*
X140165000Y-95335000D01*
X140165000Y-104015000D02*
X140165000Y-105665000D01*
X140165000Y-105665000D02*
X138515000Y-105665000D01*
D14*
%TO.C,1553-RCV*%
X160440000Y-113500000D02*
X160440000Y-111550000D01*
X160440000Y-113500000D02*
X160440000Y-115450000D01*
X170560000Y-113500000D02*
X170560000Y-111550000D01*
X170560000Y-113500000D02*
X170560000Y-115450000D01*
X170835000Y-111040000D02*
X170505000Y-110800000D01*
X170835000Y-110560000D01*
X170835000Y-111040000D01*
G36*
X170835000Y-111040000D02*
G01*
X170505000Y-110800000D01*
X170835000Y-110560000D01*
X170835000Y-111040000D01*
G37*
%TO.C,1553-DRV*%
X149495000Y-113475000D02*
X149495000Y-111525000D01*
X149495000Y-113475000D02*
X149495000Y-115425000D01*
X159615000Y-113475000D02*
X159615000Y-111525000D01*
X159615000Y-113475000D02*
X159615000Y-115425000D01*
X159890000Y-111015000D02*
X159560000Y-110775000D01*
X159890000Y-110535000D01*
X159890000Y-111015000D01*
G36*
X159890000Y-111015000D02*
G01*
X159560000Y-110775000D01*
X159890000Y-110535000D01*
X159890000Y-111015000D01*
G37*
%TO.C,PWM-I2C*%
X160265000Y-102315000D02*
X160540000Y-102315000D01*
X160265000Y-104625000D02*
X160265000Y-102315000D01*
X160265000Y-104625000D02*
X160265000Y-106935000D01*
X160265000Y-106935000D02*
X160540000Y-106935000D01*
X170185000Y-102315000D02*
X169910000Y-102315000D01*
X170185000Y-104625000D02*
X170185000Y-102315000D01*
X170185000Y-104625000D02*
X170185000Y-106935000D01*
X170185000Y-106935000D02*
X169910000Y-106935000D01*
X170240000Y-101940000D02*
X169910000Y-101700000D01*
X170240000Y-101460000D01*
X170240000Y-101940000D01*
G36*
X170240000Y-101940000D02*
G01*
X169910000Y-101700000D01*
X170240000Y-101460000D01*
X170240000Y-101940000D01*
G37*
%TO.C,CAN-TR*%
X134600000Y-106625000D02*
X138600000Y-106625000D01*
X134600000Y-107625000D02*
X134600000Y-106625000D01*
X134600000Y-117025000D02*
X134600000Y-116025000D01*
X138600000Y-106625000D02*
X138600000Y-117025000D01*
X138600000Y-117025000D02*
X134600000Y-117025000D01*
%TO.C,LOAD-ADC*%
X160345000Y-96475000D02*
X160345000Y-94525000D01*
X160345000Y-96475000D02*
X160345000Y-98425000D01*
X170465000Y-96475000D02*
X170465000Y-94525000D01*
X170465000Y-96475000D02*
X170465000Y-98425000D01*
X160400000Y-99175000D02*
X160070000Y-99415000D01*
X160070000Y-98935000D01*
X160400000Y-99175000D01*
G36*
X160400000Y-99175000D02*
G01*
X160070000Y-99415000D01*
X160070000Y-98935000D01*
X160400000Y-99175000D01*
G37*
%TO.C,U-ISO-TX*%
X148300000Y-100500000D02*
X158700000Y-100500000D01*
X148300000Y-104500000D02*
X148300000Y-100500000D01*
X149300000Y-104500000D02*
X148300000Y-104500000D01*
X158700000Y-100500000D02*
X158700000Y-104500000D01*
X158700000Y-104500000D02*
X157700000Y-104500000D01*
%TD*%
M02*
