%TF.GenerationSoftware,KiCad,Pcbnew,9.0.2+dfsg-1*%
%TF.CreationDate,2026-07-18T19:34:49-04:00*%
%TF.ProjectId,Zo_,5a6feb2e-6b69-4636-9164-5f7063625858,A-STUB*%
%TF.SameCoordinates,Original*%
%TF.FileFunction,Other,User*%
%FSLAX46Y46*%
G04 Gerber Fmt 4.6, Leading zero omitted, Abs format (unit mm)*
G04 Created by KiCad (PCBNEW 9.0.2+dfsg-1) date 2026-07-18 19:34:49*
%MOMM*%
%LPD*%
G01*
G04 APERTURE LIST*
%ADD10C,0.050000*%
G04 APERTURE END LIST*
D10*
%TO.C,PB2-P2-TOP*%
X171000000Y-122460000D02*
X126000000Y-122460000D01*
X126000000Y-117460000D01*
X171000000Y-117460000D01*
X171000000Y-122460000D01*
G36*
X171000000Y-122460000D02*
G01*
X126000000Y-122460000D01*
X126000000Y-117460000D01*
X171000000Y-117460000D01*
X171000000Y-122460000D01*
G37*
%TO.C,PB2-P1-TOP*%
X171000000Y-92540000D02*
X126000000Y-92540000D01*
X126000000Y-87540000D01*
X171000000Y-87540000D01*
X171000000Y-92540000D01*
G36*
X171000000Y-92540000D02*
G01*
X126000000Y-92540000D01*
X126000000Y-87540000D01*
X171000000Y-87540000D01*
X171000000Y-92540000D01*
G37*
%TO.C,NAV-LIGHT PWM*%
X175500000Y-114850000D02*
X172500000Y-114850000D01*
X172500000Y-93850000D01*
X175500000Y-93850000D01*
X175500000Y-114850000D01*
G36*
X175500000Y-114850000D02*
G01*
X172500000Y-114850000D01*
X172500000Y-93850000D01*
X175500000Y-93850000D01*
X175500000Y-114850000D01*
G37*
%TO.C,uSD-X-Blk*%
X129500000Y-95000000D02*
X129500000Y-106000000D01*
X129500000Y-106000000D02*
X140500000Y-106000000D01*
X140500000Y-95000000D02*
X129500000Y-95000000D01*
X140500000Y-106000000D02*
X140500000Y-95000000D01*
%TO.C,1553-RCV*%
X160300000Y-111300000D02*
X160500000Y-111300000D01*
X160300000Y-115700000D02*
X160300000Y-111300000D01*
X160500000Y-109800000D02*
X170500000Y-109800000D01*
X160500000Y-111300000D02*
X160500000Y-109800000D01*
X160500000Y-115700000D02*
X160300000Y-115700000D01*
X160500000Y-117200000D02*
X160500000Y-115700000D01*
X170500000Y-109800000D02*
X170500000Y-111300000D01*
X170500000Y-111300000D02*
X170700000Y-111300000D01*
X170500000Y-115700000D02*
X170500000Y-117200000D01*
X170500000Y-117200000D02*
X160500000Y-117200000D01*
X170700000Y-111300000D02*
X170700000Y-115700000D01*
X170700000Y-115700000D02*
X170500000Y-115700000D01*
%TO.C,1553-DRV*%
X149355000Y-111275000D02*
X149555000Y-111275000D01*
X149355000Y-115675000D02*
X149355000Y-111275000D01*
X149555000Y-109775000D02*
X159555000Y-109775000D01*
X149555000Y-111275000D02*
X149555000Y-109775000D01*
X149555000Y-115675000D02*
X149355000Y-115675000D01*
X149555000Y-117175000D02*
X149555000Y-115675000D01*
X159555000Y-109775000D02*
X159555000Y-111275000D01*
X159555000Y-111275000D02*
X159755000Y-111275000D01*
X159555000Y-115675000D02*
X159555000Y-117175000D01*
X159555000Y-117175000D02*
X149555000Y-117175000D01*
X159755000Y-111275000D02*
X159755000Y-115675000D01*
X159755000Y-115675000D02*
X159555000Y-115675000D01*
%TO.C,1553-XFM*%
X148800000Y-117500000D02*
X143200000Y-117500000D01*
X143200000Y-109500000D01*
X148800000Y-109500000D01*
X148800000Y-117500000D01*
G36*
X148800000Y-117500000D02*
G01*
X143200000Y-117500000D01*
X143200000Y-109500000D01*
X148800000Y-109500000D01*
X148800000Y-117500000D01*
G37*
%TO.C,PWM-I2C*%
X160125000Y-102175000D02*
X160545000Y-102175000D01*
X160125000Y-107075000D02*
X160125000Y-102175000D01*
X160545000Y-100725000D02*
X169905000Y-100725000D01*
X160545000Y-102175000D02*
X160545000Y-100725000D01*
X160545000Y-107075000D02*
X160125000Y-107075000D01*
X160545000Y-108525000D02*
X160545000Y-107075000D01*
X169905000Y-100725000D02*
X169905000Y-102175000D01*
X169905000Y-102175000D02*
X170325000Y-102175000D01*
X169905000Y-107075000D02*
X169905000Y-108525000D01*
X169905000Y-108525000D02*
X160545000Y-108525000D01*
X170325000Y-102175000D02*
X170325000Y-107075000D01*
X170325000Y-107075000D02*
X169905000Y-107075000D01*
%TO.C,CAN-TR*%
X130200000Y-106275000D02*
X143000000Y-106275000D01*
X130200000Y-117375000D02*
X130200000Y-106275000D01*
X143000000Y-106275000D02*
X143000000Y-117375000D01*
X143000000Y-117375000D02*
X130200000Y-117375000D01*
%TO.C,LOAD-ADC*%
X160205000Y-94275000D02*
X160405000Y-94275000D01*
X160205000Y-98675000D02*
X160205000Y-94275000D01*
X160405000Y-92775000D02*
X170405000Y-92775000D01*
X160405000Y-94275000D02*
X160405000Y-92775000D01*
X160405000Y-98675000D02*
X160205000Y-98675000D01*
X160405000Y-100175000D02*
X160405000Y-98675000D01*
X170405000Y-92775000D02*
X170405000Y-94275000D01*
X170405000Y-94275000D02*
X170605000Y-94275000D01*
X170405000Y-98675000D02*
X170405000Y-100175000D01*
X170405000Y-100175000D02*
X160405000Y-100175000D01*
X170605000Y-94275000D02*
X170605000Y-98675000D01*
X170605000Y-98675000D02*
X170405000Y-98675000D01*
%TO.C,U-ISO-TX*%
X147950000Y-96100000D02*
X159050000Y-96100000D01*
X147950000Y-108900000D02*
X147950000Y-96100000D01*
X159050000Y-96100000D02*
X159050000Y-108900000D01*
X159050000Y-108900000D02*
X147950000Y-108900000D01*
%TO.C,J-ETH*%
X121825000Y-108500000D02*
X127425000Y-108500000D01*
X121825000Y-111500000D02*
X121825000Y-108500000D01*
X127425000Y-108500000D02*
X127425000Y-111500000D01*
X127425000Y-111500000D02*
X121825000Y-111500000D01*
%TO.C,CMC-CAN*%
X141450000Y-99350000D02*
X146250000Y-99350000D01*
X141450000Y-101350000D02*
X141450000Y-99350000D01*
X146250000Y-99350000D02*
X146250000Y-101350000D01*
X146250000Y-101350000D02*
X141450000Y-101350000D01*
%TO.C,CMC-RS485*%
X141600000Y-103000000D02*
X146400000Y-103000000D01*
X141600000Y-105000000D02*
X141600000Y-103000000D01*
X146400000Y-103000000D02*
X146400000Y-105000000D01*
X146400000Y-105000000D02*
X141600000Y-105000000D01*
%TO.C,TVS-1553*%
X127500000Y-107000000D02*
X131500000Y-107000000D01*
X127500000Y-115000000D02*
X127500000Y-107000000D01*
X131500000Y-107000000D02*
X131500000Y-115000000D01*
X131500000Y-115000000D02*
X127500000Y-115000000D01*
%TO.C,FB1*%
X121950000Y-112400000D02*
X126350000Y-112400000D01*
X121950000Y-114600000D02*
X121950000Y-112400000D01*
X126350000Y-112400000D02*
X126350000Y-114600000D01*
X126350000Y-114600000D02*
X121950000Y-114600000D01*
%TO.C,X2Y-RS485*%
X127300000Y-93200000D02*
X130100000Y-93200000D01*
X127300000Y-94800000D02*
X127300000Y-93200000D01*
X130100000Y-93200000D02*
X130100000Y-94800000D01*
X130100000Y-94800000D02*
X127300000Y-94800000D01*
%TD*%
M02*
